<?xml version="1.0" encoding="UTF-8" standalone="no"?>
<svg
   width="63mm"
   height="88mm"
   version="1.1"
   id="svg90"
   sodipodi:docname="item-mg-30-06-m1.svg"
   inkscape:version="1.4.2 (ebf0e94, 2025-05-08)"
   xmlns:inkscape="http://www.inkscape.org/namespaces/inkscape"
   xmlns:sodipodi="http://sodipodi.sourceforge.net/DTD/sodipodi-0.dtd"
   xmlns="http://www.w3.org/2000/svg"
   xmlns:svg="http://www.w3.org/2000/svg">
  <sodipodi:namedview
     id="namedview90"
     pagecolor="#ffffff"
     bordercolor="#000000"
     borderopacity="0.25"
     inkscape:showpageshadow="2"
     inkscape:pageopacity="0.0"
     inkscape:pagecheckerboard="0"
     inkscape:deskcolor="#d1d1d1"
     inkscape:document-units="mm"
     inkscape:zoom="1.9351156"
     inkscape:cx="103.86976"
     inkscape:cy="152.18729"
     inkscape:window-width="1920"
     inkscape:window-height="1009"
     inkscape:window-x="-8"
     inkscape:window-y="-8"
     inkscape:window-maximized="1"
     inkscape:current-layer="svg90" />
  <defs
     id="defs23">
    <linearGradient
       id="gradient_0"
       gradientUnits="userSpaceOnUse"
       x1="727.90369"
       y1="1046.7745"
       x2="688.52625"
       y2="1052.9758"
       gradientTransform="matrix(-0.12326091,0.19900355,0.19900355,0.12326091,47.797796,-55.564933)">
      <stop
         offset="0"
         stop-color="#541E03"
         id="stop22" />
      <stop
         offset="1"
         stop-color="#390E0C"
         id="stop23" />
    </linearGradient>
    <linearGradient
       id="gradient_35"
       gradientUnits="userSpaceOnUse"
       x1="327.46082"
       y1="325.7832"
       x2="327.61734"
       y2="307.80286"
       gradientTransform="matrix(0.22401176,0,0,0.22401176,-11.287304,66.939017)">
      <stop
         offset="0"
         stop-color="#605750"
         id="stop335" />
      <stop
         offset="1"
         stop-color="#938D73"
         id="stop336" />
    </linearGradient>
    <linearGradient
       id="gradient_34"
       gradientUnits="userSpaceOnUse"
       x1="792.55402"
       y1="583.3559"
       x2="722.16492"
       y2="556.04443"
       gradientTransform="matrix(0.22401176,0,0,0.22401176,-11.287304,66.939017)">
      <stop
         offset="0"
         stop-color="#353536"
         id="stop332" />
      <stop
         offset="1"
         stop-color="#565150"
         id="stop333" />
    </linearGradient>
    <linearGradient
       id="gradient_33"
       gradientUnits="userSpaceOnUse"
       x1="315.82199"
       y1="325.36209"
       x2="320.10907"
       y2="267.79623"
       gradientTransform="matrix(0.22401176,0,0,0.22401176,-11.287304,66.939017)">
      <stop
         offset="0"
         stop-color="#494444"
         id="stop327" />
      <stop
         offset="1"
         stop-color="#766C5C"
         id="stop328" />
    </linearGradient>
    <linearGradient
       id="gradient_32"
       gradientUnits="userSpaceOnUse"
       x1="256.21817"
       y1="387.13989"
       x2="253.56825"
       y2="318.6929"
       gradientTransform="matrix(0.22401176,0,0,0.22401176,-11.287304,66.939017)">
      <stop
         offset="0"
         stop-color="#312A2E"
         id="stop311" />
      <stop
         offset="1"
         stop-color="#686052"
         id="stop312" />
    </linearGradient>
    <linearGradient
       id="gradient_31"
       gradientUnits="userSpaceOnUse"
       x1="310.40659"
       y1="294.13779"
       x2="295.2359"
       y2="274.89349"
       gradientTransform="matrix(0.22401176,0,0,0.22401176,-11.287304,66.939017)">
      <stop
         offset="0"
         stop-color="#706553"
         id="stop288" />
      <stop
         offset="1"
         stop-color="#A2997B"
         id="stop289" />
    </linearGradient>
    <linearGradient
       id="gradient_30"
       gradientUnits="userSpaceOnUse"
       x1="302.80927"
       y1="295.06787"
       x2="304.27039"
       y2="278.65933"
       gradientTransform="matrix(0.22401176,0,0,0.22401176,-11.287304,66.939017)">
      <stop
         offset="0"
         stop-color="#BAB799"
         id="stop284" />
      <stop
         offset="1"
         stop-color="#F5F3CD"
         id="stop285" />
    </linearGradient>
    <linearGradient
       id="gradient_29"
       gradientUnits="userSpaceOnUse"
       x1="297.84222"
       y1="322.41846"
       x2="298.36368"
       y2="288.32428"
       gradientTransform="matrix(0.22401176,0,0,0.22401176,-11.287304,66.939017)">
      <stop
         offset="0"
         stop-color="#766E5C"
         id="stop282" />
      <stop
         offset="1"
         stop-color="#C2C19C"
         id="stop283" />
    </linearGradient>
    <linearGradient
       id="gradient_28"
       gradientUnits="userSpaceOnUse"
       x1="237.21286"
       y1="304.4924"
       x2="237.1563"
       y2="287.41296"
       gradientTransform="matrix(0.22401176,0,0,0.22401176,-11.287304,66.939017)">
      <stop
         offset="0"
         stop-color="#B8B696"
         id="stop280" />
      <stop
         offset="1"
         stop-color="#D6D6BA"
         id="stop281" />
    </linearGradient>
    <linearGradient
       id="gradient_27"
       gradientUnits="userSpaceOnUse"
       x1="233.32074"
       y1="322.61078"
       x2="232.98154"
       y2="310.35925"
       gradientTransform="matrix(0.22401176,0,0,0.22401176,-11.287304,66.939017)">
      <stop
         offset="0"
         stop-color="#7F7761"
         id="stop277" />
      <stop
         offset="1"
         stop-color="#958E72"
         id="stop278" />
    </linearGradient>
    <linearGradient
       id="gradient_26"
       gradientUnits="userSpaceOnUse"
       x1="258.31696"
       y1="287.58771"
       x2="258.10553"
       y2="254.94887"
       gradientTransform="matrix(0.22401176,0,0,0.22401176,-11.287304,66.939017)">
      <stop
         offset="0"
         stop-color="#E9EAC7"
         id="stop275" />
      <stop
         offset="1"
         stop-color="white"
         id="stop276" />
    </linearGradient>
    <linearGradient
       id="gradient_25"
       gradientUnits="userSpaceOnUse"
       x1="862.9787"
       y1="597.97766"
       x2="809.01105"
       y2="564.31061"
       gradientTransform="matrix(0.22401176,0,0,0.22401176,-11.287304,66.939017)">
      <stop
         offset="0"
         stop-color="#524844"
         id="stop257" />
      <stop
         offset="1"
         stop-color="#696256"
         id="stop258" />
    </linearGradient>
    <linearGradient
       id="gradient_24"
       gradientUnits="userSpaceOnUse"
       x1="859.70184"
       y1="544.60834"
       x2="811.56274"
       y2="503.75955"
       gradientTransform="matrix(0.22401176,0,0,0.22401176,-11.287304,66.939017)">
      <stop
         offset="0"
         stop-color="#908B71"
         id="stop250" />
      <stop
         offset="1"
         stop-color="#AAA488"
         id="stop251" />
    </linearGradient>
    <linearGradient
       id="gradient_23"
       gradientUnits="userSpaceOnUse"
       x1="599.8653"
       y1="315.8555"
       x2="585.5694"
       y2="271.56104"
       gradientTransform="matrix(0.22401176,0,0,0.22401176,-11.287304,66.939017)">
      <stop
         offset="0"
         stop-color="#746C5D"
         id="stop177" />
      <stop
         offset="1"
         stop-color="#9F997A"
         id="stop178" />
    </linearGradient>
    <linearGradient
       id="gradient_22"
       gradientUnits="userSpaceOnUse"
       x1="535.56537"
       y1="322.91098"
       x2="535.07629"
       y2="304.43378"
       gradientTransform="matrix(0.22401176,0,0,0.22401176,-11.287304,66.939017)">
      <stop
         offset="0"
         stop-color="#4F4745"
         id="stop172" />
      <stop
         offset="1"
         stop-color="#8E876E"
         id="stop173" />
    </linearGradient>
    <linearGradient
       id="gradient_21"
       gradientUnits="userSpaceOnUse"
       x1="270.29193"
       y1="553.11157"
       x2="254.62906"
       y2="533.0097"
       gradientTransform="matrix(0.22401176,0,0,0.22401176,-11.287304,66.939017)">
      <stop
         offset="0"
         stop-color="#C8C8AB"
         id="stop159" />
      <stop
         offset="1"
         stop-color="#FFFBE4"
         id="stop160" />
    </linearGradient>
    <linearGradient
       id="gradient_20"
       gradientUnits="userSpaceOnUse"
       x1="265.33884"
       y1="531.57739"
       x2="270.95966"
       y2="505.63922"
       gradientTransform="matrix(0.22401176,0,0,0.22401176,-11.287304,66.939017)">
      <stop
         offset="0"
         stop-color="#D0D0B4"
         id="stop157" />
      <stop
         offset="1"
         stop-color="#FEF7D8"
         id="stop158" />
    </linearGradient>
    <linearGradient
       id="gradient_19"
       gradientUnits="userSpaceOnUse"
       x1="283.74417"
       y1="643.34338"
       x2="281.61111"
       y2="642.33014"
       gradientTransform="matrix(0.22401176,0,0,0.22401176,-11.287304,66.939017)">
      <stop
         offset="0"
         stop-color="#6C6354"
         id="stop148" />
      <stop
         offset="1"
         stop-color="#837A6D"
         id="stop149" />
    </linearGradient>
    <linearGradient
       id="gradient_18"
       gradientUnits="userSpaceOnUse"
       x1="259.84656"
       y1="601.56427"
       x2="230.59119"
       y2="636.7168"
       gradientTransform="matrix(0.22401176,0,0,0.22401176,-11.287304,66.939017)">
      <stop
         offset="0"
         stop-color="#B6B09D"
         id="stop145" />
      <stop
         offset="1"
         stop-color="#DED4B0"
         id="stop146" />
    </linearGradient>
    <linearGradient
       id="gradient_17"
       gradientUnits="userSpaceOnUse"
       x1="269.07285"
       y1="461.02319"
       x2="236.11465"
       y2="583.6076"
       gradientTransform="matrix(0.22401176,0,0,0.22401176,-11.287304,66.939017)">
      <stop
         offset="0"
         stop-color="#1B181B"
         id="stop143" />
      <stop
         offset="1"
         stop-color="#393332"
         id="stop144" />
    </linearGradient>
    <linearGradient
       id="gradient_16"
       gradientUnits="userSpaceOnUse"
       x1="272.09454"
       y1="476.37988"
       x2="258.6929"
       y2="425.11942"
       gradientTransform="matrix(0.22401176,0,0,0.22401176,-11.287304,66.939017)">
      <stop
         offset="0"
         stop-color="#958F85"
         id="stop110" />
      <stop
         offset="1"
         stop-color="#B2AD8E"
         id="stop111" />
    </linearGradient>
    <linearGradient
       id="gradient_15"
       gradientUnits="userSpaceOnUse"
       x1="125.69572"
       y1="601.14105"
       x2="107.13697"
       y2="577.92548"
       gradientTransform="matrix(0.22401176,0,0,0.22401176,-11.287304,66.939017)">
      <stop
         offset="0"
         stop-color="#756859"
         id="stop108" />
      <stop
         offset="1"
         stop-color="#958E78"
         id="stop109" />
    </linearGradient>
    <linearGradient
       id="gradient_14"
       gradientUnits="userSpaceOnUse"
       x1="155.1265"
       y1="644.40173"
       x2="153.25365"
       y2="619.95245"
       gradientTransform="matrix(0.22401176,0,0,0.22401176,-11.287304,66.939017)">
      <stop
         offset="0"
         stop-color="#645953"
         id="stop100" />
      <stop
         offset="1"
         stop-color="#988D77"
         id="stop101" />
    </linearGradient>
    <linearGradient
       id="gradient_13"
       gradientUnits="userSpaceOnUse"
       x1="190.69328"
       y1="718.9826"
       x2="149.52174"
       y2="592.83466"
       gradientTransform="matrix(0.22401176,0,0,0.22401176,-11.287304,66.939017)">
      <stop
         offset="0"
         stop-color="#2F3031"
         id="stop66" />
      <stop
         offset="1"
         stop-color="#504F49"
         id="stop67" />
    </linearGradient>
    <linearGradient
       id="gradient_12"
       gradientUnits="userSpaceOnUse"
       x1="638.21497"
       y1="389.88431"
       x2="646.03778"
       y2="358.05859"
       gradientTransform="matrix(0.22401176,0,0,0.22401176,-11.287304,66.939017)">
      <stop
         offset="0"
         stop-color="#100E10"
         id="stop60" />
      <stop
         offset="1"
         stop-color="#4A3E3C"
         id="stop61" />
    </linearGradient>
    <linearGradient
       id="gradient_11-0"
       gradientUnits="userSpaceOnUse"
       x1="769.46246"
       y1="323.05353"
       x2="768.68896"
       y2="304.82947"
       gradientTransform="matrix(0.22401176,0,0,0.22401176,-11.287304,66.939017)">
      <stop
         offset="0"
         stop-color="#2D242A"
         id="stop55" />
      <stop
         offset="1"
         stop-color="#655D55"
         id="stop56" />
    </linearGradient>
    <linearGradient
       id="gradient_10-9"
       gradientUnits="userSpaceOnUse"
       x1="677.13599"
       y1="352.86923"
       x2="672.76306"
       y2="355.2597"
       gradientTransform="matrix(0.22401176,0,0,0.22401176,-11.287304,66.939017)">
      <stop
         offset="0"
         stop-color="#82765F"
         id="stop51-4" />
      <stop
         offset="1"
         stop-color="#969379"
         id="stop52-8" />
    </linearGradient>
    <linearGradient
       id="gradient_9-8"
       gradientUnits="userSpaceOnUse"
       x1="954.73969"
       y1="315.62357"
       x2="952.93054"
       y2="302.32013"
       gradientTransform="matrix(0.22401176,0,0,0.22401176,-11.287304,66.939017)">
      <stop
         offset="0"
         stop-color="#322C2E"
         id="stop21" />
      <stop
         offset="1"
         stop-color="#554C4A"
         id="stop22-2" />
    </linearGradient>
    <linearGradient
       id="gradient_8-4"
       gradientUnits="userSpaceOnUse"
       x1="766.70612"
       y1="306.76083"
       x2="766.29706"
       y2="297.88443"
       gradientTransform="matrix(0.22401176,0,0,0.22401176,-11.287304,66.939017)">
      <stop
         offset="0"
         stop-color="#696054"
         id="stop18" />
      <stop
         offset="1"
         stop-color="#88816A"
         id="stop19" />
    </linearGradient>
    <linearGradient
       id="gradient_7-5"
       gradientUnits="userSpaceOnUse"
       x1="1018.1583"
       y1="276.19672"
       x2="1040.7948"
       y2="298.86646"
       gradientTransform="matrix(0.22401176,0,0,0.22401176,-11.287304,66.939017)">
      <stop
         offset="0"
         stop-color="#181717"
         id="stop15" />
      <stop
         offset="1"
         stop-color="#413D3E"
         id="stop16" />
    </linearGradient>
    <linearGradient
       id="gradient_6-5"
       gradientUnits="userSpaceOnUse"
       x1="980.1886"
       y1="289.30374"
       x2="1007.6142"
       y2="247.77954"
       gradientTransform="matrix(0.22401176,0,0,0.22401176,-11.287304,66.939017)">
      <stop
         offset="0"
         stop-color="#A6A589"
         id="stop13" />
      <stop
         offset="1"
         stop-color="#EAE5BF"
         id="stop14" />
    </linearGradient>
    <linearGradient
       id="gradient_5-1"
       gradientUnits="userSpaceOnUse"
       x1="980.74323"
       y1="315.81665"
       x2="979.82709"
       y2="296.72516"
       gradientTransform="matrix(0.22401176,0,0,0.22401176,-11.287304,66.939017)">
      <stop
         offset="0"
         stop-color="#312A2D"
         id="stop11" />
      <stop
         offset="1"
         stop-color="#71655B"
         id="stop12" />
    </linearGradient>
    <linearGradient
       id="gradient_4-7"
       gradientUnits="userSpaceOnUse"
       x1="974.69019"
       y1="337.1821"
       x2="973.03217"
       y2="313.31482"
       gradientTransform="matrix(0.22401176,0,0,0.22401176,-11.287304,66.939017)">
      <stop
         offset="0"
         stop-color="#010102"
         id="stop9" />
      <stop
         offset="1"
         stop-color="#2E2B2C"
         id="stop10" />
    </linearGradient>
    <linearGradient
       id="gradient_3-1"
       gradientUnits="userSpaceOnUse"
       x1="797.02972"
       y1="299.32455"
       x2="796.11346"
       y2="271.2338"
       gradientTransform="matrix(0.22401176,0,0,0.22401176,-11.287304,66.939017)">
      <stop
         offset="0"
         stop-color="#AAA788"
         id="stop7" />
      <stop
         offset="1"
         stop-color="#F0F0D0"
         id="stop8" />
    </linearGradient>
    <linearGradient
       id="gradient_2-1"
       gradientUnits="userSpaceOnUse"
       x1="751.05554"
       y1="402.48737"
       x2="684.02893"
       y2="248.69569"
       gradientTransform="matrix(0.22401176,0,0,0.22401176,-11.287304,66.939017)">
      <stop
         offset="0"
         stop-color="#0C090E"
         id="stop5" />
      <stop
         offset="1"
         stop-color="#393335"
         id="stop6" />
    </linearGradient>
    <linearGradient
       id="gradient_1-5"
       gradientUnits="userSpaceOnUse"
       x1="600.59576"
       y1="300.39453"
       x2="616.21582"
       y2="277.59973"
       gradientTransform="matrix(0.22401176,0,0,0.22401176,-11.287304,66.939017)">
      <stop
         offset="0"
         stop-color="#6A5F54"
         id="stop3" />
      <stop
         offset="1"
         stop-color="#857E6B"
         id="stop4" />
    </linearGradient>
    <linearGradient
       id="gradient_0-2"
       gradientUnits="userSpaceOnUse"
       x1="490.24158"
       y1="699.0495"
       x2="488.07153"
       y2="283.91757"
       gradientTransform="matrix(0.22401176,0,0,0.22401176,-11.287304,66.939017)">
      <stop
         offset="0"
         stop-color="black"
         id="stop1" />
      <stop
         offset="1"
         stop-color="#232825"
         id="stop2" />
    </linearGradient>
    <linearGradient
       id="gradient_0-0"
       gradientUnits="userSpaceOnUse"
       x1="728.84442"
       y1="366.36383"
       x2="719.76276"
       y2="435.13733"
       gradientTransform="matrix(0,0.28121218,0.28121218,0,-2.6205782,-1.5661111)">
      <stop
         offset="0"
         stop-color="#151414"
         id="stop8-9" />
      <stop
         offset="1"
         stop-color="#353337"
         id="stop9-4" />
    </linearGradient>
    <linearGradient
       id="gradient_1-8"
       gradientUnits="userSpaceOnUse"
       x1="293.52328"
       y1="571.31628"
       x2="304.57993"
       y2="573.3208"
       gradientTransform="matrix(0,0.28121218,0.28121218,0,-2.6205782,-1.5661111)">
      <stop
         offset="0"
         stop-color="#46404A"
         id="stop49" />
      <stop
         offset="1"
         stop-color="#4D4E4C"
         id="stop50" />
    </linearGradient>
    <linearGradient
       id="gradient_2-8"
       gradientUnits="userSpaceOnUse"
       x1="302.75018"
       y1="502.918"
       x2="312.03595"
       y2="507.79623"
       gradientTransform="matrix(0,0.28121218,0.28121218,0,-2.6205782,-1.5661111)">
      <stop
         offset="0"
         stop-color="#1C1C1D"
         id="stop62" />
      <stop
         offset="1"
         stop-color="#545056"
         id="stop63" />
    </linearGradient>
  </defs>
  <defs
     id="defs30">
    <linearGradient
       id="gradient_1"
       gradientUnits="userSpaceOnUse"
       x1="746.55017"
       y1="1093.2012"
       x2="718.25854"
       y2="1094.4313"
       gradientTransform="matrix(-0.12326091,0.19900355,0.19900355,0.12326091,47.797796,-55.564933)">
      <stop
         offset="0"
         stop-color="#562205"
         id="stop29" />
      <stop
         offset="1"
         stop-color="#430E0B"
         id="stop30" />
    </linearGradient>
  </defs>
  <defs
     id="defs44">
    <linearGradient
       id="gradient_2"
       gradientUnits="userSpaceOnUse"
       x1="776.90399"
       y1="1268.3417"
       x2="860.62799"
       y2="1230.1453"
       gradientTransform="matrix(-0.12326091,0.19900355,0.19900355,0.12326091,47.797796,-55.564933)">
      <stop
         offset="0"
         stop-color="#626F7C"
         id="stop43" />
      <stop
         offset="1"
         stop-color="#7E8C95"
         id="stop44" />
    </linearGradient>
  </defs>
  <defs
     id="defs52">
    <linearGradient
       id="gradient_3"
       gradientUnits="userSpaceOnUse"
       x1="439.87656"
       y1="610.50824"
       x2="511.21613"
       y2="569.95337"
       gradientTransform="matrix(-0.12326091,0.19900355,0.19900355,0.12326091,47.797796,-55.564933)">
      <stop
         offset="0"
         stop-color="#404B52"
         id="stop51" />
      <stop
         offset="1"
         stop-color="#656E73"
         id="stop52" />
    </linearGradient>
  </defs>
  <defs
     id="defs70">
    <linearGradient
       id="gradient_4"
       gradientUnits="userSpaceOnUse"
       x1="769.17871"
       y1="469.91077"
       x2="465.81488"
       y2="290.91141"
       gradientTransform="matrix(-0.12326091,0.19900355,0.19900355,0.12326091,47.797796,-55.564933)">
      <stop
         offset="0"
         stop-color="#7A7876"
         id="stop69" />
      <stop
         offset="1"
         stop-color="#D2D4D1"
         id="stop70" />
    </linearGradient>
  </defs>
  <defs
     id="defs72">
    <linearGradient
       id="gradient_5"
       gradientUnits="userSpaceOnUse"
       x1="254.6996"
       y1="1019.3943"
       x2="228.24765"
       y2="330.26346"
       gradientTransform="matrix(-0.06444382,0.07337389,0.07337389,0.06444382,26.652268,-12.064007)">
      <stop
         offset="0"
         stop-color="#525151"
         id="stop71" />
      <stop
         offset="1"
         stop-color="#928F8B"
         id="stop72" />
    </linearGradient>
  </defs>
  <defs
     id="defs76">
    <linearGradient
       id="gradient_6"
       gradientUnits="userSpaceOnUse"
       x1="400.80075"
       y1="564.51709"
       x2="491.52264"
       y2="534.61029"
       gradientTransform="matrix(-0.12326091,0.19900355,0.19900355,0.12326091,47.797796,-55.564933)">
      <stop
         offset="0"
         stop-color="#481E06"
         id="stop75" />
      <stop
         offset="1"
         stop-color="#663917"
         id="stop76" />
    </linearGradient>
  </defs>
  <defs
     id="defs80">
    <linearGradient
       id="gradient_7"
       gradientUnits="userSpaceOnUse"
       x1="666.84778"
       y1="451.62134"
       x2="414.77264"
       y2="258.09586"
       gradientTransform="matrix(-0.12326091,0.19900355,0.19900355,0.12326091,47.797796,-55.564933)">
      <stop
         offset="0"
         stop-color="#71665F"
         id="stop79" />
      <stop
         offset="1"
         stop-color="#ACA091"
         id="stop80" />
    </linearGradient>
  </defs>
  <defs
     id="defs82">
    <linearGradient
       id="gradient_8"
       gradientUnits="userSpaceOnUse"
       x1="518.9541"
       y1="394.42706"
       x2="611.91101"
       y2="253.80998"
       gradientTransform="matrix(-0.12326091,0.19900355,0.19900355,0.12326091,47.797796,-55.564933)">
      <stop
         offset="0"
         stop-color="#ADA9A4"
         id="stop81" />
      <stop
         offset="1"
         stop-color="#E2E5E7"
         id="stop82" />
    </linearGradient>
  </defs>
  <defs
     id="defs84">
    <linearGradient
       id="gradient_9"
       gradientUnits="userSpaceOnUse"
       x1="433.23013"
       y1="944.97131"
       x2="35.357399"
       y2="429.73206"
       gradientTransform="matrix(-0.06444382,0.07337389,0.07337389,0.06444382,26.652268,-12.064007)">
      <stop
         offset="0"
         stop-color="#706F6E"
         id="stop83" />
      <stop
         offset="1"
         stop-color="#BCBCB6"
         id="stop84" />
    </linearGradient>
  </defs>
  <defs
     id="defs86">
    <linearGradient
       id="gradient_10"
       gradientUnits="userSpaceOnUse"
       x1="435.94797"
       y1="719.50836"
       x2="112.48418"
       y2="624.32764"
       gradientTransform="matrix(-0.06444382,0.07337389,0.07337389,0.06444382,26.652268,-12.064007)">
      <stop
         offset="0"
         stop-color="#969695"
         id="stop85" />
      <stop
         offset="1"
         stop-color="#BFBEBD"
         id="stop86" />
    </linearGradient>
  </defs>
  <defs
     id="defs88">
    <linearGradient
       id="gradient_11"
       gradientUnits="userSpaceOnUse"
       x1="455.73398"
       y1="700.51971"
       x2="128.48848"
       y2="573.58057"
       gradientTransform="matrix(-0.06444382,0.07337389,0.07337389,0.06444382,26.652268,-12.064007)">
      <stop
         offset="0"
         stop-color="#5C4E48"
         id="stop87" />
      <stop
         offset="1"
         stop-color="#8A8177"
         id="stop88" />
    </linearGradient>
  </defs>
  <path
     fill="#39363b"
     d="m 82.629454,157.78951 c -1.431094,0.29782 -2.119786,1.11642 -2.160561,2.59616 -0.171821,6.41811 -0.03799,12.85814 -0.0751,19.28047 -0.0093,1.597 -0.211749,2.64789 0.856856,3.93163 1.953864,1.59165 7.433002,1.76488 8.761446,-1.12373 0.723839,0.35715 0.579301,0.16676 0.919002,0.72806 -0.04781,0.65634 -0.54583,1.19009 -0.951057,1.75645 0.327608,0.41844 0.846447,0.94965 0.889467,1.43278 -0.507584,0.75139 -0.706398,0.6285 -0.752801,1.35742 0.355731,0.70808 0.752528,1.07393 0.710064,1.69317 l -0.227785,0.28149 c -0.799204,1.30623 -0.266307,6.13268 -0.41901,7.8416 -0.03322,0.37346 0.03349,1.27333 0.122326,1.63807 0.261811,0.12739 0.166486,0.1181 0.4401,0.1347 0.999714,-0.0579 1.624288,-0.0473 2.626247,0.007 l 0.261527,0.0616 c -0.121486,0.777 0.122608,1.39369 -0.20051,2.06326 -0.554545,0.29809 -0.572268,0.18814 -1.261233,0.1451 -0.185322,0.24072 -0.312993,0.5163 -0.305396,0.82649 0.241277,10.05895 -0.120081,20.20874 0.111362,30.25533 1.16787,1.92884 3.441476,6.36777 5.218448,7.2069 0.534308,0.15214 0.904666,0.10209 0.954436,0.75169 -0.088,1.23957 -0.0419,2.26065 0.12683,3.49097 0.74212,0.9713 1.42573,1.58152 2.041018,2.70469 l 0.0358,27.17129 c -0.002,4.67684 0.0118,9.41976 -0.0376,14.09913 -0.0112,0.35152 -0.15747,1.29921 -0.346168,1.55792 -1.43896,1.97692 -8.892773,3.91728 -3.987023,7.02186 2.506163,0.0169 6.751331,0.29247 9.069651,-0.33182 0.579,-0.15468 1.97608,-1.74634 2.97044,-2.01631 4.79607,-1.30481 12.25973,-1.4876 16.98325,0.0984 1.82872,0.61304 3.82871,1.87287 5.50697,2.0163 4.55058,-1.1586 -0.22413,-5.07588 -1.77754,-6.46227 -0.17688,-2.80929 -0.12823,-5.6861 -0.12177,-8.50666 1.31916,0.0281 3.08969,0.15186 3.41674,-1.59448 -0.25929,-1.7646 -2.13216,-1.64059 -3.44598,-1.6223 0,-0.25057 -0.006,-0.50112 -0.0171,-0.7514 -0.19966,-4.29299 -4.55115,-4.76824 -7.18666,-7.16754 -2.71256,-2.46932 -1.33886,-6.63154 -1.47356,-9.98613 -0.15466,-3.85148 -2.43136,-3.6774 -4.81632,-5.90714 -3.75867,-3.51402 -2.7719,-9.67116 -2.87848,-14.41972 l 0.009,-0.11922 c 0.0373,-1.57677 0.17859,-4.03569 0.0984,-5.53849 1.17911,-0.0267 2.59502,0.0771 3.40801,-0.84953 1.55341,-1.77079 -0.36783,-4.80254 2.08209,-6.38239 0.46906,-0.30231 0.62879,-0.4955 1.23676,-0.61221 1.36277,-0.39848 1.46485,-0.76151 2.22918,-1.99942 1.30849,-0.89818 2.8245,-0.72889 4.20385,-0.11332 2.88242,3.26768 7.90402,6.67598 12.03869,8.0227 3.48815,1.13638 8.9895,-7.76484 7.00977,-10.69366 -1.51462,-1.11163 -4.78314,-0.40241 -6.53115,-1.34673 -1.67321,-0.90409 -2.775,-2.58179 -3.8931,-4.0621 -1.99296,0.0295 -4.51852,0.18701 -6.05957,-1.32844 -0.91759,-0.90242 -1.17969,-2.67686 -0.56355,-3.83771 0.41255,-0.77727 1.16253,-1.43671 1.46372,-2.26714 0.50815,-1.4007 0.57564,-2.98168 0.57029,-4.45974 -0.0328,-8.77747 -5.17402,-5.06575 -7.96505,-6.92456 -1.07817,-0.71822 -1.37344,-2.29554 -2.3124,-3.22466 -0.70304,-0.39791 -1.10968,-0.32593 -1.93812,-0.49241 -0.46429,-0.32873 -0.5045,-0.78121 -0.66676,-1.35909 -1.24745,-0.0511 -2.16224,0.3231 -3.01066,-0.44601 -0.20556,-0.52192 -0.11473,-0.83211 -0.0504,-1.39312 0.49521,-0.0459 1.03738,0.0205 1.35431,-0.40917 0.56073,-0.76095 0.46373,-1.4128 -0.25561,-1.998 -0.27756,-0.0213 -0.56693,-0.0486 -0.84365,-0.0626 -0.0304,-1.03486 -0.0719,-1.93361 -0.15662,-2.96875 0.32592,-0.47638 0.62598,-0.92098 0.93165,-1.41169 -0.009,-0.37288 -0.0279,-0.75477 -0.0155,-1.12626 -0.006,-0.79723 -0.0226,-1.22467 0.11248,-2.01432 l 0.13217,-0.27923 c -0.31834,-1.24831 -0.22301,-3.61612 -0.21147,-5.0053 -0.0614,-0.95303 -0.0746,-1.49128 -0.0203,-2.44149 l -0.009,-0.43897 c -0.63469,-0.25984 -0.55932,-0.41479 -0.78007,-1.02557 l 0.1766,-0.58296 c -0.17239,-0.55681 -0.16283,-2.10236 -0.25423,-2.90324 -0.41618,-0.46625 -0.84448,-0.12514 -1.36331,-0.58154 l -0.0442,-0.45838 c -0.17351,-2.20723 -0.24774,-5.14506 -0.0785,-7.32839 -2.45217,-0.0413 -4.9049,-0.0489 -7.35736,-0.0231 -0.10602,0.56524 -0.19037,1.15747 -0.63581,1.50112 -0.55905,-0.12064 -0.37992,-0.0776 -0.83829,-0.61249 0.30003,-1.10206 0.34982,-3.00812 0.42182,-4.19511 0.21343,-4.02078 0.26265,-8.04886 0.14763,-12.07357 -0.0543,-1.55229 -0.28459,-3.16223 -0.2933,-4.69793 -0.036,-6.32699 0.009,-12.6582 0.007,-18.98577 -5.7e-4,-1.8633 0.34561,-3.79888 0.30736,-5.67316 0.0851,-3.94568 -0.55258,-7.05449 -0.13948,-10.99709 0.002,-0.24804 0.0647,-0.58407 0.10125,-0.83829 -0.20923,-0.26799 -0.26659,-0.92772 -0.34927,-1.32113 -0.0349,-0.53685 -0.008,-0.79331 -0.26181,-1.27529 -2.39115,0.0301 -4.782278,0.0481 -7.173713,0.0539 -0.65072,2.7e-4 -1.062973,0.0548 -1.644804,-0.25647 -1.670406,0.46371 -1.027553,2.05059 0.0405,2.88804 -0.06803,6.604 -0.08553,13.20883 -0.05252,19.81338 -0.03354,10.95124 -0.10093,22.19972 0.04756,33.13635 -0.669572,0.79077 -1.168719,1.42602 -1.775011,2.266 -0.110243,1.76545 0.06018,3.44205 -0.199378,5.24208 -0.55709,0.32565 -0.801741,0.45416 -1.291893,0.90157 -0.337732,0.45275 -0.339985,0.60573 -0.813544,0.80624 -1.341387,-1.12007 1.130469,-5.55788 -2.405211,-7.33204 -1.659709,-0.67633 -3.748834,-0.51491 -5.456917,-0.12514 z m 24.561346,82.27847 c 0.40578,-5.7e-4 0.84587,0.0116 1.24661,-0.0203 l 0.24972,0.17294 c -0.13807,5.72603 -0.85686,11.93324 3.40857,16.36683 1.54694,1.60797 2.46454,1.91899 3.99518,3.10626 0.0984,1.73677 0.0838,3.39959 0.0523,5.12482 -0.0568,3.11303 -0.31496,5.60653 2.27164,7.8492 1.7019,1.47552 4.46058,2.6389 5.95551,4.25081 0.18391,3.59642 0.43616,7.23529 0.3636,10.83201 -0.18138,0.22496 -0.0984,0.14904 -0.3681,0.27559 -2.3813,-0.41058 -4.3079,-0.62149 -6.67823,-0.74804 -2.51965,-0.13498 -10.003,0.69741 -11.96557,-0.26152 -0.86051,-1.35263 -0.52953,-15.07128 -0.51743,-17.47706 l -0.0601,-22.12211 1.84279,0.0138 c -0.0579,-1.81297 -0.0807,-5.75248 0.20359,-7.36325 z M 87.547004,182.48614 c -2.687263,0.34308 -5.578401,0.70021 -5.213112,-2.97101 0.306808,-3.08406 -0.598977,-17.66321 0.352363,-19.47928 1.153813,-0.9342 4.371438,-0.70417 5.501068,0.12569 0.09168,0.80089 0.09843,1.62232 0.08659,2.43165 -0.08826,6.11973 0.215971,12.29263 -0.108542,18.39942 -0.02563,0.48342 -0.372323,1.07509 -0.618389,1.49353 z m 35.982206,28.74016 c -1.47242,-0.35488 -1.68557,-0.57818 -2.7255,-1.7064 l 0.0709,-2.29384 c 2.34307,-0.0248 5.50249,-0.0896 6.14392,-2.94542 l -0.14932,-0.13667 c -1.40718,0.62317 -2.83799,2.15802 -4.49574,1.47664 -1.16393,-0.47862 -1.55144,-2.25813 -1.62287,-3.36864 0.16225,-1.85431 0.48593,-2.19344 2.05116,-3.1625 1.383,-0.0734 3.02134,-0.11334 4.03566,0.96062 3.01743,3.19541 2.11108,11.17059 -3.30817,11.17621 z"
     id="path1"
     style="stroke-width:0.281212" />
  <path
     fill="#1a191a"
     d="m 100.31516,246.85137 0.0358,27.17129 c -0.002,4.67684 0.0118,9.41976 -0.0377,14.09914 -0.0113,0.35152 -0.15748,1.29919 -0.346178,1.55791 -1.43895,1.97693 -8.892767,3.91728 -3.987014,7.02187 2.506164,0.0169 6.751342,0.29246 9.069642,-0.33183 0.57901,-0.15468 1.97609,-1.74634 2.97045,-2.0163 4.79607,-1.30482 12.25972,-1.4876 16.98324,0.0984 1.82873,0.61304 3.82871,1.87288 5.50698,2.01629 4.55058,-1.15859 -0.22413,-5.07588 -1.77754,-6.46226 -0.17688,-2.8093 -0.12823,-5.6861 -0.12176,-8.50667 1.31916,0.0281 3.08967,0.15186 3.41672,-1.59445 -0.25928,-1.76463 -2.13215,-1.64061 -3.44598,-1.62233 0,-0.25055 -0.006,-0.50112 -0.0171,-0.7514 -0.19966,-4.29298 -4.55115,-4.76823 -7.18666,-7.16753 -2.71257,-2.46932 -1.33886,-6.63155 -1.47356,-9.98613 -0.15467,-3.85148 -2.43135,-3.67741 -4.81632,-5.90714 -3.75867,-3.51402 -2.77191,-9.67117 -2.87848,-14.41971 -1.10741,0.15832 -1.02305,0.12008 -1.24718,1.14818 -0.0288,-0.23988 -0.0789,-0.5059 -0.11838,-0.7469 -0.47075,-0.30961 -0.58605,-0.19093 -1.2379,-0.16226 l -0.919,-0.0689 c -0.13808,5.72605 -0.85686,11.93325 3.40857,16.36684 1.54694,1.60797 2.46454,1.91899 3.99518,3.10627 0.0984,1.73676 0.0838,3.39957 0.0523,5.12481 -0.0568,3.11302 -0.31495,5.60652 2.27163,7.8492 1.70191,1.47552 4.46059,2.63889 5.95553,4.2508 0.1839,3.59643 0.43615,7.2353 0.36359,10.83202 -0.18138,0.22496 -0.0984,0.14903 -0.36811,0.27558 -2.38129,-0.41057 -4.30788,-0.62148 -6.67822,-0.74803 -2.51966,-0.13498 -10.003,0.69741 -11.96557,-0.26152 -0.86051,-1.35263 -0.52953,-15.07129 -0.51744,-17.47706 l -0.0601,-22.12212 1.84279,0.0138 c -0.0579,-1.81297 -0.0807,-5.75248 0.20359,-7.36326 -0.29808,-0.13019 -1.84221,-0.17069 -2.21398,-0.16028 -1.31382,0.0366 -6.011198,-0.49156 -6.699038,0.40831 l -0.13048,0.33971 c -0.088,1.23958 -0.0419,2.26067 0.12683,3.49097 0.74212,0.9713 1.42574,1.58153 2.041048,2.7047 z"
     id="path2"
     style="stroke-width:0.281212" />
  <path
     fill="#39363b"
     d="m 100.31516,246.85137 0.0358,27.17129 c -0.002,4.67684 0.0118,9.41976 -0.0377,14.09914 -0.0113,0.35152 -0.15748,1.29919 -0.346178,1.55791 -1.43895,1.97693 -8.892767,3.91728 -3.987014,7.02187 2.506164,0.0169 6.751342,0.29246 9.069642,-0.33183 0.57901,-0.15468 1.97609,-1.74634 2.97045,-2.0163 4.79607,-1.30482 12.25972,-1.4876 16.98324,0.0984 1.82873,0.61304 3.82871,1.87288 5.50698,2.01629 -0.29696,-1.40325 0.86388,-2.67995 -0.90522,-3.88072 -6.14028,-4.16476 -13.94869,-3.96229 -21.04873,-3.80482 -2.11697,0.0478 -5.20271,1.901 -5.32644,-1.38355 -0.1541,-4.09164 -0.11193,-8.25527 -0.11,-12.34775 l 0.22637,-28.19124 c -1.02586,-1.43643 -2.67291,-3.48113 -4.188358,-4.38466 0.17013,-1.31608 0.0559,-1.34251 -0.8802,-2.15943 l -0.13048,0.3397 c -0.088,1.2396 -0.0419,2.26068 0.12684,3.49098 0.74211,0.9713 1.42572,1.58154 2.041018,2.70469 z"
     id="path3"
     style="stroke-width:0.281212" />
  <path
     fill="#656169"
     d="m 100.31516,246.85137 0.0358,27.17129 c -0.002,4.67684 0.0118,9.41976 -0.0377,14.09914 -0.0113,0.35152 -0.15748,1.29919 -0.346178,1.55791 -1.43895,1.97693 -8.892767,3.91728 -3.987014,7.02187 l 0.736495,-0.15748 c 0.516579,-0.87738 -0.357991,-2.10065 0.391171,-3.17769 1.038798,-1.49324 3.662496,-1.12767 4.284256,-3.07928 0.77389,-2.42685 0.39031,-19.88817 0.39173,-23.91231 0.002,-6.32109 0.43756,-13.32974 -0.14905,-19.56 -0.98705,-1.39031 -2.427978,-2.66449 -2.476628,-4.33938 0.17013,-1.31608 0.0559,-1.34251 -0.88019,-2.15944 l -0.13048,0.33972 c -0.088,1.23958 -0.0419,2.26066 0.12683,3.49096 0.74211,0.9713 1.42572,1.58154 2.041018,2.70469 z"
     id="path4"
     style="stroke-width:0.281212" />
  <path
     fill="#39363b"
     d="m 108.68713,240.22067 c -0.13807,5.72605 -0.85686,11.93324 3.40857,16.36684 1.54694,1.60796 2.46454,1.91899 3.99518,3.10627 0.0984,1.73676 0.0838,3.39957 0.0523,5.12481 -0.0568,3.11302 -0.31496,5.60653 2.27164,7.84919 1.7019,1.47552 4.46058,2.6389 5.95551,4.25081 0.18391,3.59642 0.43616,7.2353 0.3636,10.83201 0.55821,0.11529 0.64287,0.23622 1.06412,0.63272 0.14707,0.27559 0.25814,0.31215 0.52023,0.4865 1.3321,-0.44431 0.98256,-9.52662 0.85096,-11.15541 -0.26295,-3.25249 -3.77696,-4.23674 -6.00276,-5.76766 -4.07,-2.79947 -2.15212,-8.57921 -2.90829,-13.00494 l -0.0368,-0.20922 c -1.48845,-1.53035 -3.32421,-2.39508 -4.73139,-3.90013 -3.17207,-3.39255 -2.7646,-9.23726 -2.52753,-13.63372 -0.0288,-0.23987 -0.0789,-0.5059 -0.11839,-0.74691 -0.47075,-0.30961 -0.58605,-0.19093 -1.23791,-0.16226 z"
     id="path5"
     style="stroke-width:0.281212" />
  <path
     fill="#656169"
     d="m 108.68713,240.22067 c -0.13807,5.72605 -0.85686,11.93324 3.40857,16.36684 1.54694,1.60796 2.46454,1.91899 3.99518,3.10627 0.0984,1.73676 0.0838,3.39957 0.0523,5.12481 -0.0568,3.11302 -0.31496,5.60653 2.27164,7.84919 1.7019,1.47552 4.46058,2.6389 5.95551,4.25081 0.18391,3.59642 0.43616,7.2353 0.3636,10.83201 0.55821,0.11529 0.64287,0.23622 1.06412,0.63272 0.38385,-0.78739 0.0554,-6.74346 0.15691,-8.09047 0.44234,-5.87761 -3.66392,-5.53989 -7.04549,-8.75021 -2.45976,-2.33518 -1.93868,-8.89642 -1.9145,-12.34492 -0.30425,-0.26913 -0.91674,-0.7663 -1.24689,-0.98311 -7.05224,-4.63242 -6.16164,-10.47883 -6.14196,-17.92504 z"
     id="path6"
     style="stroke-width:0.281212" />
  <path
     fill="#323033"
     d="m 119.23597,194.31392 c -0.2157,10.57808 0.35657,21.72082 -0.19067,32.23479 1.36275,-0.39849 1.46483,-0.76152 2.22916,-1.99942 1.30848,-0.8982 2.82451,-0.72891 4.20385,-0.11334 2.88241,3.26769 7.90402,6.67599 12.03869,8.02272 3.48815,1.13636 8.9895,-7.76484 7.00977,-10.69367 -1.51461,-1.11163 -4.78314,-0.40241 -6.53115,-1.34672 -1.6732,-0.90409 -2.775,-2.5818 -3.8931,-4.06211 -1.99295,0.0295 -4.51852,0.18701 -6.05956,-1.32844 -0.91759,-0.90241 -1.1797,-2.67686 -0.56356,-3.83771 0.41254,-0.77727 1.16253,-1.4367 1.46371,-2.26712 0.50816,-1.40073 0.57565,-2.9817 0.5703,-4.45975 -0.0328,-8.77747 -5.17401,-5.06576 -7.96505,-6.92458 -1.07815,-0.7182 -1.37343,-2.29553 -2.31239,-3.22465 z m 3.56576,4.77555 c 1.383,-0.0734 3.02134,-0.11334 4.03567,0.96062 3.01741,3.19541 2.11107,11.17059 -3.30819,11.17621 -1.47242,-0.35488 -1.68557,-0.57818 -2.7255,-1.7064 l 0.0709,-2.29384 c 2.34307,-0.0248 5.50249,-0.0896 6.14392,-2.94542 l -0.14932,-0.13667 c -1.40718,0.62317 -2.83799,2.15802 -4.49574,1.47664 -1.16393,-0.47862 -1.55144,-2.25813 -1.62287,-3.36864 0.16225,-1.85431 0.48593,-2.19344 2.05116,-3.1625 z"
     id="path7"
     style="stroke-width:0.281212" />
  <path
     fill="#1a191a"
     d="m 119.23597,194.31392 c -0.2157,10.57808 0.35657,21.72082 -0.19067,32.23479 1.36275,-0.39849 1.46483,-0.76152 2.22916,-1.99942 -0.96906,-1.48199 -0.40803,-10.73106 -0.43728,-13.2406 2.24745,0.81355 3.23872,0.85406 5.62733,0.52391 -0.0689,5.55563 1.81326,5.6698 6.89561,6.3849 1.47073,1.54837 2.22129,2.39369 4.00306,3.68811 1.87203,1.36023 6.56517,-0.16732 6.38857,2.37484 -0.18758,2.70245 -3.09305,5.39393 -4.81237,7.32248 -1.0928,1.23368 -3.23479,-0.19234 -4.31971,-0.70161 -3.33433,-1.56579 -5.9617,-3.7674 -8.60707,-6.27806 -0.12992,-0.12319 -0.35798,-0.17071 -0.53429,-0.18731 2.88241,3.26769 7.90402,6.67599 12.03869,8.02272 3.48815,1.13636 8.9895,-7.76484 7.00977,-10.69367 -1.51461,-1.11163 -4.78314,-0.40241 -6.53115,-1.34672 -1.6732,-0.90409 -2.775,-2.5818 -3.8931,-4.06211 -1.99295,0.0295 -4.51852,0.18701 -6.05956,-1.32844 -0.91759,-0.90241 -1.1797,-2.67686 -0.56356,-3.83771 0.41254,-0.77727 1.16253,-1.4367 1.46371,-2.26712 0.50816,-1.40073 0.57565,-2.9817 0.5703,-4.45975 -0.0328,-8.77747 -5.17401,-5.06576 -7.96505,-6.92458 -1.07815,-0.7182 -1.37343,-2.29553 -2.31239,-3.22465 z m 3.56576,4.77555 c 1.383,-0.0734 3.02134,-0.11334 4.03567,0.96062 3.01741,3.19541 2.11107,11.17059 -3.30819,11.17621 -1.47242,-0.35488 -1.68557,-0.57818 -2.7255,-1.7064 l 0.0709,-2.29384 c 2.34307,-0.0248 5.50249,-0.0896 6.14392,-2.94542 l -0.14932,-0.13667 c -1.40718,0.62317 -2.83799,2.15802 -4.49574,1.47664 -1.16393,-0.47862 -1.55144,-2.25813 -1.62287,-3.36864 0.16225,-1.85431 0.48593,-2.19344 2.05116,-3.1625 z"
     id="path8"
     style="stroke-width:0.281212" />
  <path
     fill="url(#gradient_0)"
     d="m 100.13939,171.34367 -0.0345,-0.24831 c -0.476098,-0.0574 -0.622608,0.045 -1.040498,0.3186 -0.38974,0.25534 -0.9173,1.06553 -0.90295,1.5762 0.0927,3.28933 -0.778971,14.56314 0.67096,16.86738 0.97665,1.55259 11.157928,-0.53711 12.810618,1.20866 0.38835,0.41029 0.50168,1.75392 0.52193,2.26207 0.13808,3.45301 0.0132,6.96675 0.0111,10.42396 l -0.002,20.55606 c -0.003,1.78063 -0.1184,8.83596 0.14482,10.08456 1.17911,-0.0267 2.59502,0.0771 3.40801,-0.84955 1.55341,-1.7708 -0.36782,-4.80254 2.08209,-6.3824 0.46906,-0.3023 0.62879,-0.4955 1.23677,-0.61219 0.54723,-10.51397 -0.025,-21.65671 0.19067,-32.23479 -0.70302,-0.39792 -1.10968,-0.32594 -1.93812,-0.4924 -0.46429,-0.32875 -0.5045,-0.78122 -0.66676,-1.3591 -1.24745,-0.0512 -2.16224,0.32311 -3.01065,-0.446 -0.20556,-0.52194 -0.11474,-0.8321 -0.0504,-1.39312 0.49521,-0.0459 1.03738,0.0205 1.3543,-0.40918 0.56075,-0.76096 0.46373,-1.4128 -0.25561,-1.998 -0.27756,-0.0213 -0.56693,-0.0486 -0.84364,-0.0626 -0.0304,-1.03487 -0.0719,-1.93362 -0.15663,-2.96876 -1.27164,-0.15186 -5.0247,-0.13808 -5.79691,-0.39399 -0.54864,-0.006 -0.30905,-0.082 -0.74999,0.21766 -0.58887,1.07424 -0.39568,3.44092 -0.37318,4.71031 -1.42405,0.0773 -3.09136,0.045 -4.53651,0.0481 -0.72974,-0.0133 -1.51011,0.004 -2.244628,0.008 0.094,-0.11 0.187848,-0.2202 0.281768,-0.33044 0.1932,-5.78706 0.0663,-11.67872 0.0585,-17.47761 -5.7e-4,-0.29526 -0.0704,-0.44712 -0.16817,-0.62344 z"
     id="path9"
     style="fill:url(#gradient_0-0);stroke-width:0.281212" />
  <path
     fill="#656169"
     d="m 100.13939,171.34367 c -0.510658,0.58858 -0.679668,0.87288 -0.712018,1.65943 -0.0765,2.99153 -0.13611,6.13717 -0.0807,9.1183 0.0304,1.64031 -0.32592,6.51766 0.62065,7.65375 0.094,-0.11 0.187838,-0.22019 0.281758,-0.33042 0.19319,-5.78707 0.0663,-11.67874 0.0584,-17.47763 -5.7e-4,-0.29526 -0.0703,-0.44712 -0.16817,-0.62343 z"
     id="path10"
     style="stroke-width:0.281212" />
  <path
     fill="#1a191a"
     d="m 113.82515,188.1534 -0.25506,2.4699 c 0.49522,-0.0459 1.03739,0.0205 1.35431,-0.40918 0.56075,-0.76096 0.46372,-1.4128 -0.25561,-1.998 -0.27756,-0.0213 -0.56692,-0.0486 -0.84364,-0.0626 z"
     id="path11"
     style="stroke-width:0.281212" />
  <path
     fill="#656169"
     d="m 114.66597,204.02671 c -0.23086,0.48986 -0.0222,1.07451 0.46682,1.30707 0.48902,0.23256 1.07396,0.0258 1.3082,-0.4626 0.2351,-0.4907 0.027,-1.079 -0.46401,-1.3127 -0.49127,-0.23369 -1.07872,-0.0238 -1.31101,0.46823 z"
     id="path12"
     style="stroke-width:0.281212" />
  <path
     fill="#656169"
     d="m 114.6792,213.94422 c -0.12542,0.3158 -0.0709,0.6749 0.14229,0.93953 0.21316,0.26461 0.55229,0.39426 0.88779,0.33886 0.33521,-0.0552 0.61501,-0.28656 0.73199,-0.60546 0.178,-0.4848 -0.0667,-1.02248 -0.54893,-1.20668 -0.48228,-0.18419 -1.02305,0.0535 -1.21314,0.53375 z"
     id="path13"
     style="stroke-width:0.281212" />
  <path
     fill="#1a191a"
     d="m 108.99223,186.9889 c 0.0138,0.77362 -0.0366,1.10883 0.68561,1.42856 0.5852,-0.045 0.74801,-0.21373 1.23761,-0.53768 -0.19431,-0.56889 -0.40438,-1.10235 -0.91872,-1.40212 -0.63947,0.0523 -0.39707,-0.0133 -1.0045,0.51124 z"
     id="path14"
     style="stroke-width:0.281212" />
  <path
     fill="#474449"
     d="m 82.629454,157.78951 c -1.431094,0.29782 -2.119786,1.11642 -2.160561,2.59616 -0.171821,6.41811 -0.03799,12.85814 -0.0751,19.28047 -0.0093,1.597 -0.211749,2.64789 0.856856,3.93163 1.953864,1.59165 7.433002,1.76488 8.761446,-1.12373 -0.126823,-0.57395 -0.08182,-14.53811 0.04214,-15.50239 0.652131,-0.54891 1.611344,-0.11557 1.728333,-0.92856 0.0683,-0.47384 -0.06919,-1.28429 -0.477499,-1.60261 -0.337732,0.45274 -0.339985,0.60571 -0.813544,0.80622 -1.341387,-1.12007 1.130469,-5.55786 -2.405212,-7.33205 -1.659707,-0.67631 -3.748834,-0.51489 -5.456916,-0.12514 z m 4.91755,24.69663 c -2.687263,0.34308 -5.578401,0.70021 -5.213112,-2.97101 0.306808,-3.08406 -0.598977,-17.66321 0.352363,-19.47928 1.153813,-0.9342 4.371438,-0.70417 5.501068,0.12569 0.09168,0.80089 0.09843,1.62232 0.08659,2.43165 -0.08826,6.11973 0.215971,12.29263 -0.108542,18.39942 -0.02563,0.48342 -0.372323,1.07509 -0.618389,1.49353 z"
     id="path15"
     style="stroke-width:0.281212" />
  <path
     fill="#1a191a"
     d="m 81.250665,183.59777 c 1.953865,1.59165 7.433003,1.76488 8.761447,-1.12373 -0.126823,-0.57395 -0.08182,-14.53811 0.04214,-15.50239 0.652129,-0.54891 1.611342,-0.11557 1.728333,-0.92856 0.0683,-0.47384 -0.06919,-1.28429 -0.477499,-1.60261 -0.337732,0.45274 -0.339986,0.60571 -0.813545,0.80622 -1.341387,-1.12007 1.130469,-5.55786 -2.405212,-7.33205 l -0.403255,0.36248 c 0.690653,0.42774 1.345602,1.32986 1.365845,2.1555 0.135268,5.4977 0.01802,11.01733 0.04277,16.5198 0.0079,1.74409 0.04895,3.74211 -0.170136,5.45384 -0.124296,0.1617 -0.647906,0.8847 -0.786269,0.93784 -1.641154,0.63105 -5.253323,0.65804 -6.884634,0.25366 z"
     id="path16"
     style="stroke-width:0.281212" />
  <path
     fill="#1a191a"
     d="m 82.629454,157.78951 c 2.336869,-0.0331 2.75503,-0.0264 5.053661,0.48762 l 0.403255,-0.36248 c -1.659709,-0.67631 -3.748835,-0.51489 -5.456916,-0.12514 z"
     id="path17"
     style="stroke-width:0.281212" />
  <path
     fill="#1a191a"
     d="m 87.030983,158.58815 c -2.27951,-0.17208 -5.931605,-0.85685 -5.755004,2.49184 0.371757,7.04069 -0.598421,14.28078 0.295835,21.25175 0.155786,1.21288 5.159394,0.74437 5.9167,0.39567 l 0.05849,-0.24127 c -2.687263,0.34308 -5.578401,0.70021 -5.213112,-2.97101 0.306809,-3.08406 -0.598977,-17.66321 0.352363,-19.47928 1.153813,-0.9342 4.371438,-0.70417 5.501069,0.12569 -0.303991,-0.78711 -0.558769,-0.98227 -1.15634,-1.57339 z"
     id="path18"
     style="stroke-width:0.281212" />
  <path
     fill="#323033"
     d="m 102.21194,189.76672 c 1.44514,-0.003 3.11245,0.0293 4.53651,-0.0481 -0.0226,-1.2694 -0.21569,-3.63608 0.37317,-4.71031 0.44093,-0.29978 0.20135,-0.22357 0.74999,-0.21766 0.77222,0.25591 4.52527,0.24213 5.79692,0.39397 0.32591,-0.47636 0.62596,-0.92095 0.93164,-1.41168 -0.009,-0.37288 -0.0278,-0.75476 -0.0155,-1.12624 -0.006,-0.79724 -0.0226,-1.22469 0.11248,-2.01434 l 0.13217,-0.27923 c -0.31833,-1.2483 -0.22299,-3.61612 -0.21147,-5.00531 -0.0614,-0.95302 -0.0746,-1.49126 -0.0203,-2.44147 l -0.009,-0.43898 c -0.63469,-0.25985 -0.55933,-0.41479 -0.78008,-1.02558 l 0.1766,-0.58296 c -0.17239,-0.5568 -0.16282,-2.10234 -0.25422,-2.90323 -0.41618,-0.46625 -0.84447,-0.12513 -1.36331,-0.58155 l -0.0442,-0.45837 c -2.01067,-0.0741 -8.45493,-0.31495 -10.1124,0.13245 0.16874,3.44851 0.0627,7.04493 0.045,10.52071 -0.0205,3.98674 0.095,8.23867 -0.043,12.19787 z"
     id="path19"
     style="stroke-width:0.281212" />
  <path
     fill="#656169"
     d="m 107.14074,170.82792 c -1.36023,-0.0135 -1.5551,-0.13666 -2.67236,0.55287 -0.26264,0.46794 -0.25646,0.29273 -0.15074,0.71399 0.37796,0.43446 0.46205,0.45867 1.00703,0.65804 0.29499,-0.0267 0.96343,-0.10691 1.22694,-0.0977 0.69261,0.14595 0.72805,0.0411 1.20245,0.48593 0.33661,1.33689 0.19123,7.62283 0.0787,9.19649 0.93164,0.66196 3.2688,0.39876 4.55733,0.3636 l -0.0474,0.17548 c -1.00759,-0.0157 -3.3737,-0.13835 -4.16559,0.21176 l -0.19572,0.30006 c -0.003,0.49802 0.0262,0.92518 -0.11001,1.40211 0.77221,0.25591 4.52528,0.24213 5.79691,0.39397 0.32592,-0.47635 0.62597,-0.92096 0.93165,-1.41167 -0.009,-0.3729 -0.0278,-0.75477 -0.0155,-1.12626 -0.006,-0.79724 -0.0226,-1.22468 0.11248,-2.01433 l 0.13216,-0.27924 c -0.31833,-1.24828 -0.22299,-3.6161 -0.21146,-5.00529 -0.0614,-0.95303 -0.0746,-1.49128 -0.0203,-2.44148 l -0.009,-0.43899 c -0.63469,-0.25983 -0.55933,-0.41478 -0.78008,-1.02556 -0.41929,-0.0456 -5.41981,0.28964 -5.60963,0.36389 -0.16731,-0.59056 -0.53065,-0.74944 -1.05706,-0.97778 z"
     id="path20"
     style="stroke-width:0.281212" />
  <path
     fill="#1a191a"
     d="m 107.98157,183.38855 c -0.003,0.49802 0.0262,0.92518 -0.11,1.40211 0.77221,0.25591 4.52527,0.24214 5.7969,0.39397 0.32593,-0.47635 0.62598,-0.92095 0.93166,-1.41167 -0.009,-0.37289 -0.0278,-0.75476 -0.0155,-1.12625 -0.006,-0.79723 -0.0226,-1.22468 0.11248,-2.01433 l 0.13217,-0.27924 c -0.31833,-1.24829 -0.22299,-3.61611 -0.21147,-5.0053 -0.0614,-0.95302 -0.0745,-1.49127 -0.0203,-2.44147 l -0.009,-0.43899 c -0.63468,-0.25984 -0.55932,-0.41479 -0.78008,-1.02557 -0.41929,-0.0456 -5.41981,0.28964 -5.60963,0.36389 0.28376,0.38357 0.25424,0.4536 0.87374,0.50112 1.08042,0.0832 2.33067,0.0191 3.42094,-0.018 0.0538,2.3605 0.17323,8.23446 -0.1024,10.41246 l -0.0473,0.17547 c -1.00759,-0.0157 -3.37371,-0.13835 -4.16559,0.21175 z"
     id="path21"
     style="stroke-width:0.281212" />
  <path
     fill="#474449"
     d="m 112.39013,182.70127 -0.0473,0.17546 c 0.64399,-0.0188 0.92434,0.012 1.35572,-0.37626 0.1901,-0.90241 0.19939,-9.06262 0.0583,-10.0418 -0.33803,-0.23115 -0.7829,-0.1555 -1.26435,-0.16985 0.0538,2.3605 0.17323,8.23445 -0.1024,10.41245 z"
     id="path22"
     style="stroke-width:0.281212" />
  <path
     fill="#474449"
     d="m 107.98157,183.38855 c -0.003,0.49802 0.0262,0.92518 -0.11,1.40211 0.77221,0.25591 4.52527,0.24214 5.7969,0.39397 0.32593,-0.47635 0.62598,-0.92095 0.93166,-1.41167 -1.67012,-0.27109 -5.55394,-0.0591 -6.42288,-0.68447 z"
     id="path23"
     style="stroke-width:0.281212" />
  <path
     fill="#323033"
     d="m 106.55161,172.65523 c -0.56553,0.66818 -0.58071,8.76624 -0.0383,9.50414 0.55484,0.21259 0.7185,0.18672 1.31946,0.17828 0.11249,-1.57365 0.25786,-7.8596 -0.0787,-9.19648 -0.4744,-0.44488 -0.50984,-0.33998 -1.20245,-0.48594 z"
     id="path24"
     style="stroke-width:0.281212" />
  <path
     fill="#656169"
     d="m 104.42564,183.0972 3.55593,0.29135 0.19572,-0.30006 c 0.7919,-0.3501 3.15801,-0.2275 4.1656,-0.21176 l 0.0473,-0.17546 c -1.28852,0.0351 -3.62567,0.29836 -4.55733,-0.36362 -0.60095,0.008 -0.7646,0.0343 -1.31945,-0.17828 -0.54245,-0.7379 -0.52726,-8.83596 0.0383,-9.50414 -0.2635,-0.008 -0.93194,0.0709 -1.22692,0.0977 0.25281,1.00252 0.10293,7.00922 0.18334,8.58822 z"
     id="path25"
     style="stroke-width:0.281212" />
  <path
     fill="#212122"
     d="m 102.20996,167.04816 c 0.21401,0.32648 0.20023,0.46146 0.54358,0.49773 1.34421,0.1423 8.80927,0.23144 9.61296,-0.17183 l -0.0442,-0.45836 c -2.01066,-0.0741 -8.45491,-0.31496 -10.11238,0.13246 z"
     id="path26"
     style="stroke-width:0.281212" />
  <path
     fill="#656169"
     d="m 107.14074,170.82792 c 0.52643,0.22836 0.88975,0.38723 1.05707,0.97778 0.18982,-0.0741 5.19034,-0.40945 5.60963,-0.36389 l 0.17659,-0.58295 c -1.84025,0.20247 -4.88745,0.0113 -6.84329,-0.0309 z"
     id="path27"
     style="stroke-width:0.281212" />
  <path
     fill="#8f8c97"
     d="m 94.535965,100.19305 c -1.670397,0.46371 -1.027543,2.0506 0.0405,2.88804 -0.06803,6.604 -0.08553,13.20883 -0.05252,19.81337 -0.03354,10.95125 -0.10093,22.19974 0.04756,33.13636 l 0.279525,0.51463 c 0.120631,0.76939 0.131599,0.90689 0.512371,1.60486 l 0.307083,0.21119 c 0.830696,-0.90184 0.484528,-12.66776 0.473834,-14.95345 l -0.01688,-26.00228 c 0,-3.99125 -0.187569,-10.29631 0.06412,-14.09577 0.05453,-0.36783 0.106024,-0.73593 0.153832,-1.10488 0.08638,-0.67997 0.219072,-1.26461 -0.164515,-1.75561 -0.650731,2.9e-4 -1.062973,0.0548 -1.644814,-0.25646 z"
     id="path28"
     style="stroke-width:0.281212" />
  <path
     fill="#656169"
     d="m 94.535965,100.19305 c -1.670397,0.46371 -1.027543,2.0506 0.0405,2.88804 -0.06803,6.604 -0.08553,13.20883 -0.05252,19.81337 -0.03354,10.95125 -0.10093,22.19974 0.04756,33.13636 l 0.279525,0.51463 c -0.0063,-5.08685 -0.230041,-52.43175 0.08374,-53.12268 0.436732,-0.19544 0.773914,-0.13246 1.256755,-0.11277 0.05453,-0.36783 0.106014,-0.73593 0.153821,-1.10488 0.08638,-0.67997 0.219062,-1.26461 -0.164515,-1.75561 -0.650731,2.9e-4 -1.062984,0.0548 -1.644814,-0.25646 z"
     id="path29"
     style="stroke-width:0.281212" />
  <path
     fill="#212122"
     d="m 103.6163,101.67082 c -0.0267,0.25872 -0.0587,0.57227 -0.0967,0.94038 -0.89483,0.75618 -1.01068,0.68137 -1.0942,2.01404 -0.25198,4.02752 -0.21541,8.13236 -0.2067,12.17508 l 0.0568,19.19441 -0.0444,15.02714 c -0.002,2.12483 -0.11333,6.4195 0.22863,8.2772 0.32058,0.38216 0.63807,0.76686 0.95274,1.15381 0.30006,-1.10206 0.34984,-3.00812 0.42182,-4.19512 0.21344,-4.02078 0.26265,-8.04885 0.14764,-12.07357 -0.0543,-1.55229 -0.28459,-3.16222 -0.29331,-4.69793 -0.036,-6.32698 0.009,-12.6582 0.007,-18.98576 -5.5e-4,-1.8633 0.34562,-3.79889 0.30737,-5.67317 0.0851,-3.94568 -0.55258,-7.05449 -0.13947,-10.99709 0.002,-0.24803 0.0647,-0.58406 0.10125,-0.83829 -0.20922,-0.26798 -0.2666,-0.92772 -0.34928,-1.32113 z"
     id="path30"
     style="stroke-width:0.281212" />
  <path
     fill="#656169"
     d="m 92.168449,201.61531 c -0.185322,0.24072 -0.312994,0.5163 -0.305396,0.82649 0.241277,10.05895 -0.120081,20.20874 0.111361,30.25532 1.167871,1.92884 3.441468,6.36778 5.218451,7.2069 -0.365015,-4.6428 0.256745,-36.59019 -0.444303,-37.76453 -0.510125,-0.23396 -0.317778,-0.23482 -0.78656,-0.11473 -0.564956,0.75786 -0.272501,2.55143 -0.282341,3.55171 -0.03681,2.59755 -0.04704,5.19539 -0.03101,7.79293 0.03881,7.69709 0.0328,15.39442 -0.01772,23.09147 -0.973559,-1.38496 -1.968206,-2.7629 -2.840531,-4.2134 l 0.160291,-24.79391 c 0.0018,-0.72188 0.123175,-5.23983 -0.02023,-5.62819 z"
     id="path31"
     style="stroke-width:0.281212" />
  <path
     fill="#656169"
     d="m 94.011509,171.15582 c 0.611359,-0.93363 2.213133,-2.25448 2.408307,-2.9471 -0.688413,0.21681 -1.776413,1.53737 -2.21343,2.12848 -0.412811,0.55878 -0.623446,1.03599 -0.687556,1.72834 -0.259839,2.80059 -0.227219,5.68329 -0.202471,8.49064 0.01714,2.84839 0.01546,5.69707 -0.0044,8.54519 -0.0053,1.55455 -0.124297,9.16752 0.05708,10.244 l 0.261526,0.0616 c 0.25984,-1.09249 0.0897,-5.73643 0.131604,-7.17961 0.189818,-6.53818 -0.432227,-14.69278 0.249714,-21.0715 z"
     id="path32"
     style="stroke-width:0.281212" />
  <path
     fill="#656169"
     d="m 90.599002,189.72341 c -0.799204,1.30623 -0.266307,6.13268 -0.41901,7.8416 -0.03322,0.37346 0.03349,1.27333 0.122326,1.63807 0.261811,0.12739 0.166486,0.1181 0.4401,0.1347 0.197692,-1.26517 0.309619,-8.66753 -0.143416,-9.61437 z"
     id="path33"
     style="stroke-width:0.281212" />
  <path
     fill="#212122"
     d="m 112.21999,239.93132 c -1.14733,-0.0851 -2.7092,-0.24354 -3.78258,0.11641 l 0.24972,0.17294 0.91899,0.0689 c 0.65186,-0.0288 0.76716,-0.14735 1.23791,0.16226 0.0393,0.24101 0.0897,0.50702 0.11839,0.74689 0.22412,-1.0281 0.13977,-0.98985 1.24716,-1.14817 z"
     id="path34"
     style="stroke-width:0.281212" />
  <path
     fill="#1a191a"
     d="m 101.90231,197.70027 c -0.0624,-0.47862 -0.0925,-0.68306 -0.23312,-1.14341 l -0.22525,-0.0231 -0.43503,0.42126 c -0.16254,0.53038 -0.31917,1.50617 -0.30849,2.19853 0.16761,10.83313 -0.3113,21.83556 0.26714,32.63269 0.0164,0.30315 0.48341,0.56637 0.75788,0.6735 0.40888,0.3251 0.47468,0.33071 1.00027,0.34281 0.28656,-0.13133 0.81073,-0.3712 0.82563,-0.7632 0.4103,-10.92145 -0.0614,-21.91853 0.17549,-32.86303 0.0186,-0.85544 -0.25872,-2.90042 -1.25,-3.11386 -0.78457,0.38779 -0.5866,0.78571 -0.57452,1.63778 z"
     id="path35"
     style="stroke-width:0.281212" />
  <path
     fill="#656169"
     d="m 101.90231,197.70027 c -0.0624,-0.47862 -0.0925,-0.68306 -0.23312,-1.14341 l -0.22525,-0.0231 -0.43503,0.42126 c -0.16254,0.53038 -0.31917,1.50617 -0.30849,2.19853 0.16761,10.83313 -0.3113,21.83556 0.26714,32.63269 0.0164,0.30315 0.48341,0.56637 0.75788,0.6735 0.0886,-1.38272 0.15944,-2.75671 0.17576,-4.14281 0.12118,-10.16385 -0.21625,-20.46296 8.8e-4,-30.61669 z"
     id="path36"
     style="stroke-width:0.281212" />
  <path
     fill="#656169"
     d="m 98.663052,142.63894 0.0143,0.16928 c 0.0306,0.40691 -0.11474,2.49886 -0.11952,3.45244 -0.0341,6.78706 0.0284,13.6236 -0.0275,20.4132 0.0658,0.10601 0.1319,0.21203 0.1977,0.31776 0.47664,0.13162 0.5073,0.11474 1.00785,0.0426 0.537118,-0.68025 0.25308,-22.7301 0.0818,-24.76608 -0.73987,-0.32001 0.0844,0.24889 -0.90382,0.0416 z"
     id="path37"
     style="stroke-width:0.281212" />
  <path
     fill="#656169"
     d="m 108.23381,231.84871 c -0.43222,-1.43166 -0.16085,-3.20245 -0.31467,-4.36413 -0.52474,-3.96088 0.84223,-29.06469 -0.31328,-31.11333 l -0.17941,0.0403 c -1.02671,2.53541 -0.0112,16.40029 -0.24746,19.97927 -0.1243,1.88217 -0.30006,14.29261 0.11389,15.53529 0.36416,0.35939 0.51377,0.48875 0.93165,0.7829 -0.12542,-0.27362 -0.12204,-0.58914 0.008,-0.86023 z"
     id="path38"
     style="stroke-width:0.281212" />
  <path
     fill="#969e8e"
     d="m 98.663052,139.12349 c -1.881596,1.1333 -1.679693,2.35067 0,3.51545 l 0.25083,-0.3293 c 0.98818,0.20724 0.16395,-0.36164 0.90382,-0.0417 0.601788,-0.73311 0.853188,-1.00026 0.633278,-2.03231 -0.17744,-0.83267 -0.27755,-2.78204 -0.43503,-3.4471 l -0.0464,-2.01179 -1.18615,0.205 c 0.0211,1.40804 0.0909,2.74885 -0.12035,4.14169 z"
     id="path39"
     style="stroke-width:0.281212" />
  <path
     fill="#656169"
     d="m 98.783392,134.98181 c 0.0211,1.40803 0.0909,2.74884 -0.12034,4.14168 l 1.373418,0.44883 c -0.0157,-0.92773 -0.0228,-1.85572 -0.0206,-2.78372 l -0.0463,-2.0118 z"
     id="path40"
     style="stroke-width:0.281212" />
  <path
     fill="#474449"
     d="m 98.913882,142.30964 c 0.98818,0.20724 0.16395,-0.36164 0.90382,-0.0417 0.601788,-0.73311 0.853188,-1.00026 0.633278,-2.03231 -0.17744,-0.83267 -0.27755,-2.78204 -0.43503,-3.4471 -0.002,0.92801 0.004,1.856 0.0205,2.78373 -0.561848,0.87906 -0.798628,1.7525 -1.122598,2.7373 z"
     id="path41"
     style="stroke-width:0.281212" />
  <path
     fill="#474449"
     d="m 100.04631,108.59763 c -0.122868,-2.52557 -0.0972,-5.36946 -0.280638,-7.81967 -0.29443,-0.19402 -0.64904,-0.11054 -1.02531,-0.0864 -0.33997,0.47159 -0.16083,6.47858 -0.15296,7.49375 z"
     id="path42"
     style="stroke-width:0.281212" />
  <path
     fill="#969e8e"
     d="m 96.898997,117.68472 c 0.864161,2.34167 3.057895,2.58631 4.089953,0.14905 -1.112768,-2.5579 -2.674898,-2.26038 -4.089953,-0.14905 z"
     id="path43"
     style="stroke-width:0.281212" />
  <path
     fill="#969e8e"
     d="m 96.925152,125.27745 c 0.122604,0.54781 0.228628,0.9401 0.615284,1.37204 0.279806,0.31524 0.681946,0.49493 1.103486,0.49353 1.08434,0.006 1.621458,-0.57199 2.303678,-1.2753 -0.55258,-2.58237 -2.584328,-2.57281 -4.022448,-0.59027 z"
     id="path44"
     style="stroke-width:0.281212" />
  <path
     fill="#969e8e"
     d="m 99.969552,134.7768 c 3.756428,-4.78426 -7.271016,-2.96397 -1.18616,0.20501 z"
     id="path45"
     style="stroke-width:0.281212" />
  <path
     fill="#969e8e"
     d="m 98.587402,108.18538 c -0.6319,0.57958 -1.273041,1.04752 -1.34307,1.94148 -0.04081,0.50282 0.146797,0.99719 0.510958,1.34617 0.616712,0.58801 1.487042,0.56102 2.041032,-0.0717 0.631038,-0.72075 0.352918,-1.94459 0.249988,-2.8037 z"
     id="path46"
     style="stroke-width:0.281212" />
  <path
     fill="#656169"
     d="m 108.23381,231.84871 c -0.13132,0.27109 -0.1347,0.58661 -0.008,0.86024 0.19658,0.4294 0.66478,0.66478 1.12654,0.56634 0.46175,-0.0982 0.79357,-0.50364 0.79863,-0.9758 0.005,-0.47215 -0.31804,-0.8844 -0.77754,-0.99267 -0.4595,-0.10823 -0.93249,0.11698 -1.13835,0.54189 z"
     id="path47"
     style="stroke-width:0.281212" />
  <path
     fill="#212122"
     d="m 93.535696,201.82144 0.214003,0.20246 c 0.534869,0.1977 0.902141,0.0869 1.474395,0.008 l -0.03101,-0.14905 c -0.48649,-0.19207 -1.111067,-0.0937 -1.657465,-0.0621 z"
     id="path48"
     style="stroke-width:0.281212" />
  <path
     fill="#1a191a"
     d="m 94.535965,100.19305 c 0.581841,0.3113 0.994083,0.25675 1.644814,0.25646 2.391433,-0.006 4.782561,-0.0239 7.173711,-0.0539 0.2531,0.482 0.22695,0.73846 0.26181,1.27529 0.0827,0.39342 0.14006,1.05315 0.34928,1.32115 -0.0366,0.2542 -0.0992,0.59025 -0.10125,0.83829 -0.4131,3.94258 0.2247,7.05138 0.13948,10.99708 0.0383,1.87427 -0.30791,3.80986 -0.30736,5.67317 0.002,6.32755 -0.0438,12.65876 -0.007,18.98575 0.008,1.53571 0.23903,3.14564 0.29331,4.69793 0.11501,4.02471 0.0658,8.05281 -0.14765,12.07356 -0.0719,1.18701 -0.12176,3.09307 -0.42181,4.19513 0.45837,0.53487 0.27923,0.49186 0.83829,0.61249 0.44544,-0.34364 0.52981,-0.93587 0.63582,-1.50111 2.45244,-0.0258 4.90519,-0.0182 7.35735,0.0231 0.56412,-0.44151 0.43701,-0.22891 0.6406,-0.80934 -0.124,-0.8335 -0.95667,-1.63889 -1.52247,-2.3079 -0.0474,-1.47693 -0.17154,-4.47718 -0.0321,-5.87312 0.89678,-0.58886 1.94965,-1.15296 2.12371,-2.25503 0.31074,-1.9682 0.21288,-4.26655 0.20528,-6.27582 -0.015,-3.77555 -0.054,-7.55084 -0.11755,-11.32582 2.31045,0 4.79187,-0.0444 7.08572,0.0704 0.14482,-0.82649 0.27361,-1.65606 0.38693,-2.4876 l -7.38546,0.0323 c -0.0191,-2.55679 -0.009,-5.11356 0.0284,-7.67007 0.0351,-3.28314 0.7005,-6.04662 -2.43783,-7.93524 0.007,-2.74153 -0.0734,-5.62002 0.16086,-8.34271 0.14959,-1.73875 0.70977,-2.36416 0.7556,-4.28847 0.61221,-0.0692 1.2244,-0.152708 1.83942,-0.165364 l -0.013,-3.35684 c -3.81885,-0.394535 -4.85231,-3.696804 0.0436,-4.188644 16.05019,-1.6122 32.10149,-3.319152 48.17362,-4.695129 2.58405,-0.22103 5.78481,-0.321986 8.30137,-0.807636 -0.1361,1.30989 0.0312,3.331807 0.13471,4.694842 l 0.0877,2.436979 c 3.29833,-4.837135 1.99407,-6.112708 2.6867,-10.988367 0.043,0.538239 0.0641,1.170404 0.20838,1.680806 0.0877,-2.075625 0.0133,-3.67881 0.18701,-5.829533 l 0.0226,-1.422089 -0.0518,-3.259527 c -0.0724,0.26912 -0.15073,0.539643 -0.2261,0.808487 -3.05903,0.598136 -6.50078,1.088008 -9.58961,1.703015 -1.46006,0.290777 -7.7609,1.487901 -8.89025,1.507304 l -0.18926,-0.427719 -0.28261,-0.231731 c -1.04049,0.137794 -3.82871,2.224959 -5.15377,2.926021 -1.12682,0.07485 -1.78206,0.151292 -2.80847,-0.318901 -0.34364,-0.27278 -1.35376,-0.128231 -1.82057,-0.09729 -0.94458,0.646228 -1.70583,1.19487 -2.74154,1.703304 -2.83434,0.07086 -6.24095,0.956958 -9.0615,1.440374 -5.34276,0.916188 -11.56653,2.392546 -16.91407,2.830957 -1.65971,-0.09165 -3.05481,0.02133 -4.71565,0.129082 -0.55061,0.140324 -1.4038,0.235654 -1.94823,0.04499 l -0.12739,-0.338304 c -0.0157,0.03493 -0.0315,0.06943 -0.0474,0.104358 -0.24015,0.421551 -0.64228,0.726379 -1.11275,0.843642 -1.15832,0.375704 -1.66394,1.299209 -2.17631,2.312695 -0.26292,-0.0366 -0.6645,-1.830705 -0.919,-2.363593 -0.59672,0.534303 -0.68813,0.606295 -0.75927,1.464553 -0.12289,1.485646 0.009,3.056771 0.0793,4.544954 0.62373,0.554833 0.81664,0.729186 1.53626,1.147342 0.5478,0.281502 0.86867,0.329581 1.16394,0.78684 -0.21682,0.282331 -0.0847,0.21203 -0.36811,0.329858 -0.69712,0.0827 -0.88638,0.154663 -1.31915,0.717656 -0.0346,0.292454 -0.0909,0.293298 -0.30202,0.51602 -0.67998,0.264907 -1.44572,0.145953 -2.18812,0.101773 -0.5374,-1.172385 -0.29107,-11.227407 -0.28066,-13.242293 0.75057,-0.02333 1.87119,-0.02399 2.57365,-0.154664 l -0.8709,-0.506465 -0.19039,-0.215689 -0.30708,0.209221 c -0.76631,0.215689 -3.19204,0.14792 -4.131008,0.146516 l -2.649004,-0.0022 -1.216805,0.02111 -0.382448,0.408317 c 0.479181,0.175481 0.773893,0.180257 0.995486,0.540218 0.197125,3.927963 -0.315236,8.627029 0.0405,12.646676 -1.685861,0.53571 -1.233942,2.291589 -1.221297,3.832918 z"
     id="path49"
     style="stroke-width:0.281212" />
  <path
     fill="url(#gradient_1)"
     d="m 147.31499,82.713182 c -1.07338,0.43559 -4.21312,2.210609 -4.64168,3.170951 l 0.20612,0.04666 c 1.8768,0.437845 3.62089,1.586027 5.46003,1.664775 3.00558,0.12907 20.74501,-2.214269 22.13447,-1.523886 0.11279,0.424622 0.10625,0.401561 0.006,0.833504 -0.1361,1.309888 0.0312,3.331805 0.13471,4.694841 l 0.0877,2.43699 c 3.29833,-4.837136 1.99407,-6.112709 2.6867,-10.988378 0.043,0.53825 0.0641,1.170404 0.20838,1.680805 0.0877,-2.075623 0.0133,-3.678809 0.18701,-5.829522 l 0.0226,-1.4221 -0.0518,-3.259515 c -0.0724,0.269119 -0.15073,0.539632 -0.2261,0.808475 -3.05903,0.598148 -6.50078,1.088009 -9.58961,1.703027 -1.46005,0.290766 -7.7609,1.487891 -8.89025,1.507292 l -0.18926,-0.427718 c -0.79217,0.865288 -3.66982,2.623713 -4.75867,3.330678 z"
     id="path50"
     style="fill:url(#gradient_1-8);stroke-width:0.281212" />
  <path
     fill="#323033"
     d="m 142.67331,85.884133 0.20612,0.04666 c 1.8768,0.437845 3.62089,1.586027 5.46003,1.664775 3.00558,0.12907 20.74501,-2.214269 22.13447,-1.523886 0.11279,0.424622 0.10625,0.401561 0.006,0.833504 -0.1361,1.309888 0.0312,3.331805 0.13471,4.694841 l 0.0877,2.43699 c 3.29833,-4.837136 1.99407,-6.112709 2.6867,-10.988378 0.0697,-0.406625 0.0624,-1.617525 0.0703,-2.093334 -0.76799,0.0607 -1.57339,0.155791 -2.34334,0.233963 -0.34534,0.177449 -0.42323,0.465119 -0.55427,0.817773 l -0.036,0.09895 c -1.10826,0.806794 -12.94111,1.190093 -15.19107,1.562977 -3.93248,0.651291 -8.75246,1.71258 -12.66215,2.21511 z"
     id="path51"
     style="stroke-width:0.281212" />
  <path
     fill="#1a191a"
     d="m 170.61539,91.600055 0.0877,2.436978 c 3.29833,-4.837136 1.99406,-6.112709 2.6867,-10.988368 0.0697,-0.406635 0.0624,-1.617535 0.0703,-2.093344 -0.76801,0.06069 -1.57339,0.155791 -2.34335,0.233974 0.71709,1.298358 0.72384,9.55755 -0.50141,10.41076 z"
     id="path52"
     style="stroke-width:0.281212" />
  <path
     fill="#474449"
     d="m 154.86075,77.809409 c -0.79217,0.865278 -3.66981,2.623703 -4.75867,3.330668 2.13975,0.07197 4.76992,-0.458376 6.88605,-0.843631 l 10.37111,-1.870061 c 1.83884,-0.324806 4.65378,-0.888074 6.44847,-0.948535 l -0.0518,-3.259527 c -0.0724,0.269119 -0.15073,0.539643 -0.22609,0.808486 -3.05903,0.598137 -6.50078,1.088009 -9.58961,1.703016 -1.46005,0.290776 -7.7609,1.487901 -8.89026,1.507303 z"
     id="path53"
     style="stroke-width:0.281212" />
  <path
     fill="#656169"
     d="m 147.31499,82.713182 c 1.31918,0.766022 22.68652,-3.595299 26.47022,-3.813244 l 0.0226,-1.422088 c -1.79469,0.06047 -4.60963,0.623729 -6.44847,0.948535 l -10.3711,1.870061 c -2.11613,0.385255 -4.74631,0.915622 -6.88605,0.843631 z"
     id="path54"
     style="stroke-width:0.281212" />
  <path
     fill="#39363b"
     d="m 107.04794,103.16602 0.0328,35.78059 -0.0118,10.79743 c -0.005,1.73339 0.0504,4.6788 -0.15271,6.36187 0.9536,-0.0273 1.86669,-0.10378 2.8158,-0.17914 0.3186,-14.32721 -0.53291,-29.44826 0.045,-43.68575 -0.23621,0.62598 -0.3619,1.31214 -1.06297,1.46681 -1.16929,-1.24718 -0.26321,-5.20918 0.95246,-6.51175 0.13695,-1.29246 0.10146,-2.70724 0.10325,-4.0146 z"
     id="path55"
     style="stroke-width:0.281212" />
  <path
     fill="#656169"
     d="m 105.24452,103.65617 c 0.1167,4.55283 0.003,9.31544 -0.0157,13.88598 l -0.0726,23.57824 -0.0261,9.28338 c -0.004,1.27698 -0.25366,4.68386 0.40269,5.50811 0.55848,0.24351 0.79077,0.20611 1.38357,0.19403 0.20303,-1.68307 0.14736,-4.62848 0.15269,-6.36187 l 0.0118,-10.79743 -0.0328,-35.78059 -0.61276,-0.0297 -1.20077,0.0411 z"
     id="path56"
     style="stroke-width:0.281212" />
  <path
     fill="#474449"
     d="m 116.07823,86.062134 c 0.32451,0.762928 1.31522,0.646504 1.49661,1.325068 0.21597,0.807358 -0.28121,2.398185 0.0751,3.102055 l 0.26182,0.09618 c 3.57814,-0.555408 12.76112,-1.694305 15.45851,-3.215947 l 1.77388,-1.251395 c 0.9626,-0.516305 2.07873,-1.075914 2.96933,-1.68672 0.8636,-0.557918 3.27808,-2.048615 3.94034,-2.640573 -2.83434,0.07086 -6.24095,0.95696 -9.0615,1.440375 -5.34276,0.916177 -11.56654,2.392547 -16.91407,2.830956 z"
     id="path57"
     style="stroke-width:0.281212" />
  <path
     fill="#656169"
     d="m 138.11346,84.431376 c -1.43026,-0.723836 -16.06736,2.508705 -18.61091,2.763486 -0.45781,0.04588 -1.47047,0.539643 -1.90324,0.83576 l 0.16394,0.479468 c 1.52557,0.140602 3.17404,-0.314678 4.66249,-0.484532 3.86527,-0.441218 8.97939,-1.789634 12.71839,-1.907462 0.9626,-0.516305 2.07872,-1.075914 2.96933,-1.68672 z"
     id="path58"
     style="stroke-width:0.281212" />
  <path
     fill="#323033"
     d="m 105.95065,89.158561 c 0.12992,0.667885 0.27333,1.527546 0.45808,2.165615 0.78909,0.616139 1.09112,0.873451 2.05933,1.170408 l 0.27334,-0.05737 c 0.53627,-0.238751 1.615,-0.242974 2.27134,-0.288244 2.39987,-0.165355 4.60711,-1.085206 6.89899,-1.563547 l -0.26181,-0.09618 c -0.35629,-0.70387 0.14089,-2.294686 -0.0751,-3.102044 -0.18138,-0.678575 -1.17209,-0.562141 -1.49662,-1.325068 -1.65971,-0.09165 -3.05479,0.02134 -4.71564,0.129071 -0.55061,0.140325 -1.40381,0.235655 -1.94824,0.04499 l -0.12739,-0.338304 c -0.0157,0.03493 -0.0315,0.06943 -0.0473,0.104358 -0.24016,0.42155 -0.6423,0.726378 -1.11275,0.843643 -1.15832,0.375702 -1.66394,1.299208 -2.17631,2.312693 z"
     id="path59"
     style="stroke-width:0.281212" />
  <path
     fill="#8f8c97"
     d="m 105.95065,89.158561 c 0.12992,0.667885 0.27333,1.527546 0.45808,2.165615 0.78909,0.616139 1.09112,0.873451 2.05933,1.170408 l 0.0638,-0.22272 c -0.59756,-0.507306 -1.0357,-0.92519 -1.5911,-1.480024 -0.47918,-0.773053 -0.44544,-1.062703 -0.36895,-1.919279 0.36332,-0.716805 1.01968,-1.408591 1.55511,-2.026693 -1.15832,0.375714 -1.66393,1.299209 -2.17631,2.312693 z"
     id="path60"
     style="stroke-width:0.281212" />
  <path
     fill="#212122"
     d="m 106.57185,88.872561 c -0.0765,0.856576 -0.11023,1.146226 0.36895,1.919279 0.42828,-0.795827 0.37823,-1.381317 -0.36895,-1.919279 z"
     id="path61"
     style="stroke-width:0.281212" />
  <path
     fill="#474449"
     d="m 112.78523,88.018527 c -0.24354,0.665917 0.0883,1.404655 0.74802,1.664499 0.65973,0.259844 1.40634,-0.05395 1.68222,-0.707529 0.18447,-0.437006 0.11754,-0.939536 -0.17464,-1.313261 -0.29217,-0.37346 -0.76404,-0.559333 -1.23255,-0.485372 -0.4685,0.07396 -0.85994,0.395946 -1.02305,0.841663 z"
     id="path62"
     style="stroke-width:0.281212" />
  <path
     fill="url(#gradient_2)"
     d="m 137.3913,86.909701 c -0.79555,0.660853 -1.49184,1.329865 -2.45836,1.724683 -0.92181,0.376257 -2.12119,-0.707529 -2.76769,-0.05991 l 0.0442,0.249429 c 0.93559,0.562992 2.65633,0.377119 3.59867,-0.119784 1.9353,-1.021091 3.65744,-2.019673 5.39533,-3.36809 0.90326,-0.438409 1.73142,-0.823665 2.58687,-1.358256 1.82057,-1.001666 3.99548,-2.186696 5.63409,-3.474087 -1.12682,0.07485 -1.78204,0.151292 -2.80847,-0.318902 -0.34364,-0.272779 -1.35376,-0.12823 -1.82057,-0.09729 -0.94459,0.646227 -1.70582,1.19487 -2.74152,1.703304 -0.66226,0.591956 -3.07674,2.082665 -3.94035,2.640583 -0.89059,0.610795 -2.00673,1.170403 -2.96933,1.68672 l -1.77387,1.251384 c 0.90324,-0.01658 3.15323,-0.276427 4.02105,-0.459779 z"
     id="path63"
     style="fill:url(#gradient_2-8);stroke-width:0.281212" />
  <path
     fill="#474449"
     d="m 140.84064,83.838302 c 0.8636,-0.04079 2.22889,-0.225527 2.94964,0.139485 1.82057,-1.001677 3.99546,-2.186696 5.63409,-3.474099 -1.12682,0.07485 -1.78206,0.151304 -2.80848,-0.31889 -2.07281,1.334354 -3.74321,2.063817 -5.77525,3.653504 z"
     id="path64"
     style="stroke-width:0.281212" />
  <path
     fill="#656169"
     d="m 140.84064,83.838302 c -0.73648,0.322275 -1.78795,0.711189 -2.35796,1.233685 l 0.025,0.198532 c 0.78879,0.255631 1.83237,0.107457 2.69569,0.06556 0.90325,-0.43841 1.73142,-0.823665 2.58688,-1.358256 -0.72075,-0.365014 -2.08604,-0.180257 -2.94965,-0.139474 z"
     id="path65"
     style="stroke-width:0.281212" />
  <path
     fill="#474449"
     d="m 105.03164,86.794968 c -0.59672,0.534315 -0.68813,0.606307 -0.75926,1.464565 -0.12289,1.485646 0.009,3.056761 0.0793,4.544943 0.62373,0.554844 0.81664,0.729186 1.53627,1.147354 0.41956,0.02896 1.98535,0.162822 2.3048,0.114168 l -0.0537,-0.147081 0.72159,-0.22356 c 0.55259,-0.103261 0.65691,-0.08346 1.06327,-0.434463 l -0.12403,-0.237069 c -0.32704,-0.03571 -0.58492,-0.06721 -0.91729,-0.06888 l -0.14119,-0.517709 -0.27333,0.05737 c -0.96821,-0.296957 -1.27023,-0.554269 -2.05931,-1.170409 -0.18477,-0.638068 -0.32818,-1.497729 -0.4581,-2.165613 -0.26294,-0.0366 -0.6645,-1.830695 -0.919,-2.363593 z"
     id="path66"
     style="stroke-width:0.281212" />
  <path
     fill="#212122"
     d="m 106.40873,91.324176 c 0.17465,1.34757 1.26238,1.446846 2.47385,1.630751 l -0.14118,-0.517709 -0.27334,0.05737 c -0.96821,-0.296968 -1.27024,-0.554269 -2.05933,-1.170409 z"
     id="path67"
     style="stroke-width:0.281212" />
  <path
     fill="#212122"
     d="m 108.86063,93.695357 c -1.04948,0.01769 -1.95049,-0.0126 -2.97268,0.256473 0.41956,0.02896 1.98536,0.162822 2.30481,0.114168 l -0.0538,-0.147081 z"
     id="path68"
     style="stroke-width:0.281212" />
  <path
     fill="#39363b"
     d="m 102.87447,96.403995 c 0.45387,0.592799 0.37176,1.386931 0.39961,2.16673 2.37539,-0.248582 4.72294,-0.355724 7.11016,-0.409152 0.15129,-0.0032 0.4432,-0.594486 0.48256,-0.745491 -0.62204,-1.894809 -4.08826,-0.219347 -5.50219,-1.629912 -0.0346,0.292465 -0.0909,0.293298 -0.30202,0.51603 -0.67998,0.264897 -1.44572,0.145954 -2.18812,0.101774 z"
     id="path69"
     style="stroke-width:0.281212" />
  <path
     fill="#39363b"
     d="m 104.80836,100.27601 c 0.0478,0.76433 0.0582,2.28146 0.42604,2.90126 l 1.20078,-0.0411 c 0.7348,-0.44938 2.56354,-0.32987 3.49321,-0.33324 l 0.0701,-2.69824 c -1.7736,0.0152 -3.41674,0.0197 -5.19006,0.17126 z"
     id="path70"
     style="stroke-width:0.281212" />
  <path
     fill="#656169"
     d="m 96.455811,96.255521 c -1.685871,0.5357 -1.233964,2.29159 -1.221308,3.832909 0.694879,-0.116421 0.708104,-5.6e-4 1.146512,-0.440927 0.312694,-1.029519 0.128214,-2.262924 0.07488,-3.391982 z"
     id="path71"
     style="stroke-width:0.281212" />
  <path
     fill="#6b7464"
     d="m 103.96558,102.99195 c -0.0366,0.25423 -0.0992,0.59026 -0.10125,0.83829 l 1.38019,-0.17407 -0.009,-0.4789 c -0.36784,-0.6198 -0.37823,-2.13693 -0.42604,-2.90126 -0.15889,0.018 -0.35208,0.0692 -0.50815,0.10441 -0.25871,0.66731 -0.11755,1.71793 -0.33464,2.61162 z"
     id="path72"
     style="stroke-width:0.281212" />
  <path
     fill="#474449"
     d="m 105.88795,93.95183 c 0.54778,0.281489 0.86865,0.329569 1.16393,0.786828 -0.21681,0.282342 -0.0847,0.21203 -0.3681,0.329857 1.06832,0.104579 1.6358,0.206414 2.66278,-0.185597 l 0.13387,-0.221879 c -0.26772,-0.378789 -0.83154,-0.509838 -1.28767,-0.595041 -0.31945,0.04864 -1.88525,-0.08513 -2.30481,-0.114168 z"
     id="path73"
     style="stroke-width:0.281212" />
  <path
     fill="#323033"
     d="m 97.727447,83.397372 c -0.32479,0.2334 -0.384136,0.160568 -0.41451,0.569449 -0.330127,4.463969 -0.07319,8.987542 -0.168153,13.464722 -0.01529,0.718218 8.65e-4,1.418158 0.07731,2.128783 0.319454,0.366702 0.517148,0.306513 1.072808,0.431658 0.56945,0.07931 1.2348,0.08944 1.815788,0.115286 0.53909,-2.90098 0.34533,-13.432937 0.33773,-16.82998 -0.731708,-0.0066 -2.078148,-0.08038 -2.72099,0.120082 z"
     id="path74"
     style="stroke-width:0.281212" />
  <path
     fill="#8f8c97"
     d="m 97.727447,83.397372 c -0.32479,0.2334 -0.384136,0.160568 -0.41451,0.569449 -0.330127,4.463969 -0.07319,8.987542 -0.168153,13.464722 -0.01529,0.718218 8.65e-4,1.418158 0.07731,2.128783 0.319454,0.366702 0.517148,0.306513 1.072808,0.431658 -0.002,-2.600086 0.29415,-14.737485 -0.17125,-16.439672 z"
     id="path75"
     style="stroke-width:0.281212" />
  <path
     fill="#1a191a"
     d="m 88.523094,49.629129 c -3.642545,3.724369 1.311577,3.909413 3.89423,4.749108 1.53513,1.627939 2.38918,3.431071 3.316884,5.406589 0.07456,0.158612 0.499156,0.265748 0.676601,0.303713 0.276435,4.084606 0.103251,9.578367 0.05621,13.7808 l -0.177993,0.0022 c -1.294427,0.534016 -0.604896,2.72466 -1.005622,4.126495 -1.094475,0.921262 -0.972715,4.142824 0.136388,5.070818 l 0.382448,-0.408317 1.216805,-0.02111 2.649017,0.0022 c 0.938958,0.0022 3.364698,0.06921 4.130998,-0.146505 l 0.30709,-0.209222 0.19037,0.215689 0.87092,0.506455 0.15242,0.646791 c 0.015,0.820294 0.16676,2.582366 -0.28825,3.141135 0.25451,0.532899 0.65608,2.327033 0.91901,2.363593 0.51237,-1.013484 1.01799,-1.93699 2.1763,-2.312694 0.47048,-0.117264 0.8726,-0.422092 1.11275,-0.843631 0.0157,-0.03493 0.0315,-0.06943 0.0474,-0.104358 l 0.12739,0.338293 c 0.54442,0.19067 1.39762,0.0953 1.94822,-0.04499 -0.0341,-0.68082 -0.13637,-1.722142 0.0769,-2.344468 0.24718,-0.722718 0.78711,-0.634972 0.84139,-1.428268 0.17323,-2.531203 0.0922,-5.297761 0.0728,-7.84611 -3.15323,-2.699068 1.14087,-6.852006 -2.79356,-8.207167 -0.80231,0.05428 -1.80792,0.05085 -2.62792,0.07175 0.0545,1.919279 0.30032,5.344714 -0.2098,7.162472 -0.0707,0.251973 -0.19825,0.237347 -0.44572,0.336325 -0.84279,-0.294149 0.0903,-6.230531 -0.53598,-7.157122 l -0.18644,0.110797 c -0.16536,0.918166 -0.17014,1.255895 -0.1617,2.196824 l -0.0953,4.989273 c -0.66059,0.130762 -1.3546,0.240431 -2.0208,0.355727 l -0.40353,-0.225816 c -0.19742,-0.45696 -0.25844,-1.210612 -0.25929,-1.705259 -0.009,-4.796647 -0.53205,-9.540969 0.67492,-14.23553 0.4249,-1.653244 -0.50759,-2.983088 0.86782,-4.517953 0.0216,-1.214271 0.006,-2.474664 0.008,-3.69316 -1.68588,-1.221865 -1.54105,-2.336596 -0.16451,-3.716773 -0.007,-2.213705 0.30905,-15.721735 -0.3729,-16.823525 -0.57591,-0.400164 -1.26545,-0.422101 -1.97073,-0.51884 l -2.131298,-0.169003 c -0.39735,-0.02422 -1.32648,0.03039 -1.76321,0.04444 l -1.338564,0.124013 c -0.566633,0.115294 -1.004208,0.248592 -1.421249,0.651565 -0.26939,0.516305 -0.0021,3.647325 0.0074,4.524423 l 0.06043,12.115185 c 0.717944,0.739025 0.965681,0.925749 0.995781,1.968763 l -0.148189,1.045545 c -1.053429,0.546962 -5.92712,0.260408 -7.395331,0.329868 z"
     id="path76"
     style="stroke-width:0.281212" />
  <path
     fill="#39363b"
     d="m 95.283429,77.997814 c -1.094465,0.92125 -0.972706,4.142813 0.136398,5.070818 l 0.382448,-0.408317 1.216794,-0.02111 2.649033,0.0022 c 0.938948,0.0022 3.364688,0.06921 4.130988,-0.146505 l 0.3071,-0.209222 0.19036,0.215689 0.87092,0.506466 0.15242,0.64678 c 0.015,0.820293 0.16676,2.582378 -0.28825,3.141135 0.25451,0.532899 0.65607,2.327044 0.91901,2.363604 0.51237,-1.013496 1.01799,-1.936991 2.1763,-2.312695 0.47046,-0.117263 0.8726,-0.422091 1.11275,-0.843641 0.0157,-0.03493 0.0315,-0.06943 0.0474,-0.104358 l 0.12739,0.338303 c 0.54441,0.19066 1.39761,0.0953 1.94823,-0.04499 -0.0341,-0.68082 -0.13639,-1.722153 0.0767,-2.344467 0.24719,-0.72272 0.78712,-0.634974 0.84139,-1.428281 0.17324,-2.531192 0.0922,-5.297761 0.0729,-7.846099 -3.15323,-2.699078 1.14087,-6.852017 -2.79358,-8.207178 -0.80229,0.05428 -1.8079,0.05086 -2.62792,0.07175 0.0545,1.91928 0.30034,5.344725 -0.20979,7.162472 -0.0707,0.251974 -0.19825,0.237348 -0.44571,0.336336 -0.84281,-0.294148 0.0903,-6.230541 -0.53599,-7.157132 l -0.18645,0.110796 c -0.16535,0.918167 -0.17012,1.255896 -0.16169,2.196835 l -0.0953,4.989263 c -0.66057,0.130762 -1.35459,0.240441 -2.02078,0.355726 l -0.41142,1.829014 c 0.33942,0.886094 0.42463,1.002518 1.02614,1.741267 l -2.28091,-0.03803 c 0.0408,-1.697953 0.32255,-3.149294 -1.1344,-4.331229 -0.17295,-1.67687 -0.0653,-3.90519 -0.0425,-5.631555 l 0.0442,-7.826685 c -0.788808,0.0044 -1.460048,-0.02952 -2.248008,-0.07893 -0.593917,0.08104 -0.464279,-0.02444 -0.843079,0.315519 -0.890316,2.358805 0.692919,12.246788 -0.496055,13.475972 l -0.423221,-0.01714 -0.178005,0.0022 c -1.294416,0.534016 -0.604885,2.724671 -1.005621,4.126506 z"
     id="path77"
     style="stroke-width:0.281212" />
  <path
     fill="#212122"
     d="m 104.29655,82.500587 0.87092,0.506456 0.15242,0.646791 c 0.015,0.820293 0.16676,2.582366 -0.28825,3.141134 0.25451,0.5329 0.65607,2.327034 0.91901,2.363593 0.51237,-1.013484 1.01799,-1.936979 2.1763,-2.312693 0.47046,-0.117265 0.8726,-0.422093 1.11275,-0.843632 0.0157,-0.03493 0.0315,-0.06943 0.0474,-0.104358 l 0.12739,0.338293 c 0.54441,0.190671 1.39761,0.0953 1.94823,-0.04499 -0.0341,-0.680819 -0.13639,-1.722141 0.0767,-2.344467 0.24719,-0.722719 0.78712,-0.634973 0.84139,-1.428268 0.17324,-2.531203 0.0922,-5.297763 0.0729,-7.846112 -3.15323,-2.699066 1.14087,-6.852005 -2.79358,-8.207166 -0.48396,3.108511 0.18393,6.73052 0.4986,9.764805 0.13639,1.316356 -0.0647,4.860479 -0.10911,6.328956 -1.84223,0.01857 -3.83575,0.208105 -5.65294,0.04156 z"
     id="path78"
     style="stroke-width:0.281212" />
  <path
     fill="#39363b"
     d="m 105.31989,83.653834 c 0.015,0.820293 0.16676,2.582366 -0.28825,3.141134 0.25451,0.5329 0.65607,2.327034 0.91901,2.363593 0.51237,-1.013484 1.01799,-1.936979 2.1763,-2.312693 0.47046,-0.117265 0.8726,-0.422093 1.11275,-0.843632 0.0157,-0.03493 0.0315,-0.06943 0.0474,-0.104358 0.18475,-0.807082 0.0771,-1.47805 0.006,-2.301727 l -2.2722,-0.131038 -1.24745,-0.01879 c -0.0302,0.07064 -0.17521,0.797519 -0.20051,0.918719 l -0.0902,-0.09088 0.0872,-0.03493 c -0.21176,-0.171545 -0.16621,-0.25226 -0.24973,-0.58549 z"
     id="path79"
     style="stroke-width:0.281212" />
  <path
     fill="#656169"
     d="m 105.7732,83.446303 c -0.009,1.141715 -0.13273,1.78288 0.4103,2.77809 l 0.32957,0.237623 c 0.80118,-0.504487 0.56974,-2.158296 0.50759,-2.996875 z"
     id="path80"
     style="stroke-width:0.281212" />
  <path
     fill="#8f8c97"
     d="m 95.283429,77.997814 c -1.094465,0.92125 -0.972706,4.142813 0.136398,5.070818 l 0.382448,-0.408317 1.216794,-0.02111 c 0.05041,-0.764342 0.180272,-4.466778 0.357158,-4.932184 0.04862,-0.837728 -0.0095,-3.046656 0.155783,-3.583214 l 0.173785,-0.06356 c 0.217947,-0.0807 0.305387,-0.128795 0.510687,-0.247739 0.21344,-1.493805 0.0676,-4.883253 0.0476,-6.557028 -0.0278,-2.289909 0.0373,-4.900412 -0.0346,-7.160504 -0.593928,0.08104 -0.46428,-0.02444 -0.843079,0.315518 -0.890316,2.358806 0.692909,12.246788 -0.496066,13.475974 l -0.423222,-0.01714 -0.178004,0.0022 c -1.294416,0.534016 -0.604885,2.72467 -1.005621,4.126506 z"
     id="path81"
     style="stroke-width:0.281212" />
  <path
     fill="#474449"
     d="m 95.283429,77.997814 c -1.094465,0.92125 -0.972706,4.142813 0.136398,5.070818 l 0.382448,-0.408317 C 95.318591,81.441544 95.449916,79.3766 95.538211,78.080209 Z"
     id="path82"
     style="stroke-width:0.281212" />
  <path
     fill="#474449"
     d="m 96.28905,73.871307 c -1.294417,0.534017 -0.604885,2.72466 -1.005621,4.126507 l 0.254782,0.08247 c 0.340547,-0.143409 0.555401,-0.148473 0.674355,-0.494096 0.299205,-0.868648 0.16113,-2.787928 0.07646,-3.714806 z"
     id="path83"
     style="stroke-width:0.281212" />
  <path
     fill="#656169"
     d="m 97.376227,77.707037 c -0.176886,0.465418 -0.306809,4.167842 -0.357158,4.932184 l 2.649033,0.0022 c 1.615548,-0.715401 1.111048,-3.114702 1.000268,-4.643376 -0.843078,0.0099 -2.736198,0.143697 -3.292143,-0.290213 z"
     id="path84"
     style="stroke-width:0.281212" />
  <path
     fill="#474449"
     d="m 99.668102,82.640625 c 0.938948,0.0022 3.364688,0.06921 4.130988,-0.146505 l 0.068,-0.450791 -0.007,-2.498003 c -0.0233,-0.313827 0.0675,-1.011528 0.10124,-1.356852 l -3.29215,-0.191224 c 0.11081,1.528674 0.61529,3.927975 -1.000268,4.643375 z"
     id="path85"
     style="stroke-width:0.281212" />
  <path
     fill="#1a191a"
     d="m 105.55414,66.889369 c -0.16535,0.918166 -0.17013,1.255895 -0.16169,2.196824 0.0191,0.930824 0.0647,1.6839 0.15016,2.611342 0.43053,-0.631037 0.40382,-4.083191 0.0115,-4.808166 z"
     id="path86"
     style="stroke-width:0.281212" />
  <path
     fill="#1a191a"
     d="m 103.85927,79.545326 0.007,2.498003 c 0.42378,-0.563833 0.42069,-1.90859 0.22525,-2.550306 z"
     id="path87"
     style="stroke-width:0.281212" />
  <path
     fill="#39363b"
     d="m 96.424024,28.993783 c -0.566633,0.115292 -1.004197,0.248592 -1.421238,0.651565 -0.269401,0.516304 -0.0021,3.647325 0.0074,4.524423 l 0.06043,12.115192 c 0.717933,0.739014 0.965681,0.925738 0.995771,1.968763 0.950768,-0.18814 3.075345,-0.0754 4.112713,-0.04389 l 0.77335,-1.819727 c -0.72103,0.0534 -1.622598,0.145101 -2.329558,0.160856 0.70077,-0.249718 2.521608,-0.803147 2.639728,-1.445151 0.80905,-4.388882 -0.33464,-11.878122 0.39426,-16.111497 l -2.131298,-0.169002 c -0.39735,-0.02421 -1.32649,0.0304 -1.76321,0.04444 z"
     id="path88"
     style="stroke-width:0.281212" />
  <path
     fill="#8f8c97"
     d="m 96.424024,28.993783 c 0.025,4.831222 -0.04641,9.913858 0.08037,14.762786 0.01603,0.609114 0.452751,2.081826 0.293309,2.56073 l -0.442617,0.432783 0.04461,0.248314 c 0.56214,0.237909 0.883566,-0.08292 1.378778,-0.420424 0.252238,-1.232269 0.138348,-4.235047 0.110798,-5.590218 l -0.25365,-0.298073 c -0.06634,-0.295564 0.07688,-3.658856 0.08817,-4.212277 0.0405,-2.535692 0.05336,-5.071668 0.0386,-7.607634 z"
     id="path89"
     style="stroke-width:0.281212" />
  <path
     fill="#656169"
     d="m 97.762599,28.86977 c 0.01498,2.535966 0.0021,5.071942 -0.0386,7.607634 -0.0115,0.553421 -0.154665,3.916713 -0.08817,4.212277 l 0.215413,-0.468789 c 0.51377,-0.180247 0.68531,-0.128508 1.24606,-0.09165 0.74323,-0.930525 0.3144,-9.251318 0.42855,-11.303883 -0.39735,-0.02421 -1.32648,0.0304 -1.763191,0.04444 z"
     id="path90"
     style="stroke-width:0.281212" />
  <path
     fill="#656169"
     d="m 97.77864,46.577972 c 0.658032,-0.04997 0.659432,0.06014 1.097272,-0.31607 0.47667,-1.421249 0.44854,-4.43191 -0.98648,-5.274148 0.0275,1.355171 0.14144,4.357949 -0.110792,5.590218 z"
     id="path91"
     style="stroke-width:0.281212" />
  <path
     fill="#39363b"
     d="m 88.523094,49.629129 c -3.642545,3.724369 1.311577,3.909413 3.89423,4.749108 1.53513,1.627939 2.38918,3.431071 3.316884,5.406589 0.07456,0.158612 0.499156,0.265748 0.676601,0.303713 0.457825,-0.437006 0.254794,-0.299777 1.032905,-0.415923 0.366688,-2.036533 0.241832,-8.073033 0.173775,-10.244827 l -0.994357,-0.02222 -0.704719,-0.106352 c -1.053428,0.546973 -5.927108,0.260408 -7.395319,0.329869 z"
     id="path92"
     style="stroke-width:0.281212" />
  <path
     fill="#8f8c97"
     d="m 96.623132,49.405568 c -0.135544,1.908866 -0.494948,8.402901 0.03828,9.939732 0.386382,0.335761 0.228068,0.233688 0.78234,0.327316 0.3667,-2.036533 0.241832,-8.073033 0.173786,-10.244827 z"
     id="path93"
     style="stroke-width:0.281212" />
  <path
     fill="#39363b"
     d="m 97.617489,49.427789 c 0.06802,2.171794 0.192913,8.208294 -0.173775,10.244827 0.933898,-0.206967 2.815196,-0.194596 3.838246,-0.219615 0.12233,-3.352059 0.18054,-6.706352 0.17408,-10.060655 z"
     id="path94"
     style="stroke-width:0.281212" />
  <path
     fill="#39363b"
     d="m 117.81836,134.87776 c -0.0719,0.89032 -0.0701,1.92967 -0.0604,2.829 0.088,8.32134 -0.15918,16.71834 0.0473,25.03181 0.51518,0.81159 0.63244,0.96962 1.3245,1.63244 1.63496,0.99325 1.8321,1.05511 3.73591,1.14707 -0.70781,0.26883 -1.60459,0.64003 -2.30988,0.8622 0.80455,0.44936 2.06045,0.34054 2.99323,0.31973 0.15607,1.63862 0.32338,2.73394 -0.0749,4.35795 1.23002,0.009 1.57029,0.0216 2.76403,-0.40692 1.15634,-0.41479 2.06409,-1.84447 1.42069,-2.99942 -0.96541,-0.22102 -0.89679,-0.12626 -1.13526,-1.13919 -0.79077,-0.48367 -0.97243,0.013 -1.54048,-0.55736 -0.005,-0.58744 -0.0925,-0.45105 0.19206,-0.84362 2.14538,-0.7216 2.20667,-0.8594 3.3588,-2.83152 l -0.0894,-13.76787 c 0,-4.6192 0.0977,-9.39306 -0.0798,-13.99903 -1.33885,-1.50701 -1.81129,-1.26714 -3.31183,-2.13638 -0.52981,-0.2483 -0.72723,-0.29133 -1.09139,-0.75927 -0.59982,0.40664 -0.85293,0.53881 -1.50646,0.84701 l -0.69993,-0.15917 c -2.11838,0.0607 -2.82591,0.9148 -3.93669,2.57254 z m 1.33126,28.61953 c -0.15298,-0.41902 -0.3577,-1.01716 -0.36641,-1.46034 -0.15805,-7.95099 -0.0446,-15.91801 -0.0111,-23.87154 0.004,-1.01631 0.0375,-2.19852 0.21935,-3.19204 0.13357,-0.10378 0.19712,-0.1797 0.34477,-0.23003 0.14595,1.49605 0.0849,3.88326 0.0858,5.43724 l -0.004,9.25721 -0.02,8.30505 c -0.006,1.61753 0.0532,4.2387 -0.24804,5.75445 z"
     id="path95"
     style="stroke-width:0.281212" />
  <path
     fill="#656169"
     d="m 119.14962,163.49729 0.42689,0.64481 c 0.96539,0.75702 1.22355,0.64819 2.49519,0.58407 0.53459,-0.0601 1.19825,-0.0582 1.59447,-0.36416 0.54808,-3.05228 0.0838,-11.92846 0.12374,-15.34855 0.0368,-3.16082 0.28036,-11.30783 -0.196,-14.15146 -0.92801,-0.97074 -3.09194,-0.40887 -4.25727,-0.11866 0.14595,1.49605 0.0849,3.88326 0.0857,5.43724 l -0.004,9.25721 -0.02,8.30505 c -0.006,1.61753 0.0532,4.2387 -0.24804,5.75445 z"
     id="path96"
     style="stroke-width:0.281212" />
  <path
     fill="#1a191a"
     d="m 122.45499,132.46439 -0.0349,0.16902 c 1.55566,0.47891 2.04244,0.30117 3.14029,1.82984 0.36979,0.51518 0.32846,1.0225 0.38386,1.63216 0.1856,7.91894 0.0534,15.85444 0.0751,23.7762 0.005,1.87569 0.39286,4.33011 -1.9142,4.90996 -0.50928,0.41817 -0.47357,1.21427 -0.55625,1.91844 0.15608,1.63862 0.3234,2.73394 -0.0749,4.35795 1.23002,0.009 1.5703,0.0216 2.76405,-0.40692 1.15634,-0.41479 2.06409,-1.84447 1.42067,-2.99942 -0.96539,-0.22102 -0.89679,-0.12626 -1.13525,-1.13919 -0.79076,-0.48367 -0.97244,0.013 -1.54048,-0.55736 -0.005,-0.58744 -0.0925,-0.45105 0.19206,-0.84362 2.14537,-0.7216 2.20668,-0.8594 3.3588,-2.83152 l -0.0894,-13.76787 c 0,-4.6192 0.0977,-9.39306 -0.0798,-13.99903 -1.33886,-1.50701 -1.81128,-1.26714 -3.31183,-2.13638 -0.52981,-0.2483 -0.72722,-0.29133 -1.09139,-0.75927 -0.59981,0.40664 -0.85292,0.53881 -1.50646,0.84701 z"
     id="path97"
     style="stroke-width:0.281212" />
  <path
     fill="#212122"
     d="m 119.57651,164.1421 -0.44685,0.22891 c 1.63496,0.99325 1.8321,1.05511 3.73589,1.14707 -0.70779,0.26883 -1.60459,0.64003 -2.30986,0.8622 0.80454,0.44936 2.06044,0.34054 2.99321,0.31973 0.0827,-0.70417 0.047,-1.50027 0.55625,-1.91844 l -2.03345,-0.0554 c -1.27164,0.0641 -1.5298,0.17295 -2.49519,-0.58406 z"
     id="path98"
     style="stroke-width:0.281212" />
  <path
     fill="#39363b"
     d="m 114.59764,172.90637 c -0.0543,0.9502 -0.0411,1.48845 0.0202,2.44147 -0.0115,1.38919 -0.1069,3.75701 0.21147,5.0053 l -0.13217,0.27924 c -0.13497,0.78965 -0.11895,1.2171 -0.11249,2.01433 l 34.82702,-0.0917 c 0.0548,-3.41027 0.0728,-6.82109 0.0537,-10.2319 -7.63857,0.16224 -15.49788,-0.0889 -23.15163,-0.0133 -3.98478,0.039 -7.71392,-0.09 -11.72627,0.15747 z"
     id="path99"
     style="stroke-width:0.281212" />
  <path
     fill="#212122"
     d="m 114.59764,172.90637 c -0.0543,0.9502 -0.0411,1.48845 0.0202,2.44147 1.12345,-0.21259 4.98506,-0.15804 6.32954,-0.15748 3.59866,-0.004 7.19732,0.0203 10.79572,0.0734 3.21229,0.0506 9.3371,0.17182 12.30107,-0.41225 -3.10852,-0.51771 -5.77048,-0.34814 -8.89532,-0.37373 -4.26936,-0.0694 -8.53984,-0.0734 -12.80948,-0.0118 -1.67631,0.0248 -5.87227,0.15972 -7.41529,-0.0434 -0.26124,-0.34675 -0.27418,-1.05006 -0.32649,-1.51629 z"
     id="path100"
     style="stroke-width:0.281212" />
  <path
     fill="#1a191a"
     d="m 114.69718,180.63238 18.94837,0.003 c 2.25842,-0.005 7.40404,0.11108 9.49289,-0.15861 -1.73283,-0.29863 -8.73024,-0.24212 -10.91779,-0.20163 -5.63015,0.10441 -11.81907,-0.15156 -17.39129,0.0777 z"
     id="path101"
     style="stroke-width:0.281212" />
  <path
     fill="#1a191a"
     d="m 173.5982,84.729472 c 0.0371,0.642855 0.0526,0.737621 0.28516,1.337162 l 0.19347,0.242686 c 0.53374,-0.149037 1.10488,-1.093636 1.35291,-1.580976 1.84952,-3.630444 1.66196,-8.264543 0.68982,-12.065692 l -0.62851,-0.911687 -0.97496,-1.4817 c -0.11,-0.07959 -0.17436,-0.06246 -0.33493,-0.08579 -0.51743,0.581819 -0.41394,3.163632 -0.42519,4.034835 l 0.0518,3.259516 -0.0226,1.422088 c -0.1738,2.150723 -0.0992,3.753909 -0.18701,5.829534 z"
     id="path102"
     style="stroke-width:0.281212" />
  <path
     fill="#656169"
     d="m 173.5982,84.729472 c 0.0371,0.642855 0.0526,0.737621 0.28516,1.337162 0.71877,-3.242657 1.19488,-5.459169 1.08885,-8.837938 -0.0709,-2.254765 -0.42097,-4.77667 -0.45612,-6.959431 -0.11,-0.07959 -0.17436,-0.06246 -0.33493,-0.08579 -0.51743,0.581819 -0.41394,3.163632 -0.42519,4.034835 l 0.0518,3.259516 -0.0226,1.422088 c -0.1738,2.150723 -0.0992,3.753909 -0.18701,5.829534 z"
     id="path103"
     style="stroke-width:0.281212" />
  <path
     fill="#39363b"
     d="m 116.33666,167.70619 0.0177,1.91449 c 0.95218,0.0174 2.38242,-0.0424 3.1985,0.38553 0.0473,0.66366 -0.0597,0.47863 0.30287,0.93054 1.03599,0.35826 2.41673,0.0917 3.61836,0.12121 0.39818,-1.62401 0.23087,-2.71933 0.0749,-4.35795 -0.93278,0.0209 -2.18868,0.12963 -2.99322,-0.31973 l -0.45556,0.0756 c -0.49944,0.4103 -0.3338,0.20782 -0.58323,0.89595 -0.75928,0.66873 -1.73874,0.44629 -2.80397,0.37879 z"
     id="path104"
     style="stroke-width:0.281212" />
  <path
     fill="#212122"
     d="m 116.33666,167.70619 0.0177,1.91449 c 0.95218,0.0174 2.38242,-0.0424 3.1985,0.38553 l 0.18391,-0.18081 c 0.26547,-0.75647 0.41114,-1.8934 -0.2199,-2.47355 -0.75928,0.66873 -1.73874,0.4463 -2.80398,0.3788 z"
     id="path105"
     style="stroke-width:0.281212" />
  <path
     fill="#474449"
     d="m 120.62712,130.81058 c 0.85824,0.36137 0.82844,0.63357 1.12793,1.49464 l 0.69994,0.15917 c 0.65354,-0.3082 0.90663,-0.44037 1.50646,-0.84701 0.36417,0.46794 0.56157,0.51097 1.09138,0.75927 -0.0152,-0.2244 -0.0383,-0.44825 -0.0692,-0.67098 -0.20387,-1.57702 -0.53571,-2.08686 -1.78428,-3.0413 -0.94965,-0.34026 -1.18671,-0.33661 -2.1853,-0.34139 -0.11333,0.83155 -0.24213,1.66112 -0.38694,2.4876 z"
     id="path106"
     style="stroke-width:0.281212" />
  <path
     fill="#39363b"
     d="m 123.19936,128.66437 c -0.0142,1.18841 0.33521,1.80032 0.88976,2.85487 l -0.12767,0.0982 c 0.36417,0.46794 0.56157,0.51097 1.09138,0.75929 -0.0152,-0.22442 -0.0383,-0.44826 -0.0692,-0.67098 -0.20387,-1.57703 -0.53571,-2.08687 -1.78428,-3.04131 z"
     id="path107"
     style="stroke-width:0.281212" />
</svg>
