<?xml version="1.0" encoding="UTF-8" standalone="no"?>
<svg
   width="63mm"
   height="88mm"
   version="1.1"
   id="svg90"
   sodipodi:docname="item-mg-792mm-mg34.svg"
   inkscape:version="1.4.2 (ebf0e94, 2025-05-08)"
   xml:space="preserve"
   xmlns:inkscape="http://www.inkscape.org/namespaces/inkscape"
   xmlns:sodipodi="http://sodipodi.sourceforge.net/DTD/sodipodi-0.dtd"
   xmlns="http://www.w3.org/2000/svg"
   xmlns:svg="http://www.w3.org/2000/svg"><sodipodi:namedview
     id="namedview90"
     pagecolor="#ffffff"
     bordercolor="#000000"
     borderopacity="0.25"
     inkscape:showpageshadow="2"
     inkscape:pageopacity="0.0"
     inkscape:pagecheckerboard="0"
     inkscape:deskcolor="#d1d1d1"
     inkscape:document-units="mm"
     inkscape:zoom="0.68416668"
     inkscape:cx="-264.55541"
     inkscape:cy="458.22167"
     inkscape:window-width="1920"
     inkscape:window-height="1009"
     inkscape:window-x="-8"
     inkscape:window-y="-8"
     inkscape:window-maximized="1"
     inkscape:current-layer="svg90" /><defs
     id="defs23"><linearGradient
       id="gradient_0"
       gradientUnits="userSpaceOnUse"
       x1="727.90369"
       y1="1046.7745"
       x2="688.52625"
       y2="1052.9758"
       gradientTransform="matrix(-0.12326091,0.19900355,0.19900355,0.12326091,47.797796,-55.564933)"><stop
         offset="0"
         stop-color="#541E03"
         id="stop22" /><stop
         offset="1"
         stop-color="#390E0C"
         id="stop23" /></linearGradient><linearGradient
       id="gradient_35"
       gradientUnits="userSpaceOnUse"
       x1="327.46082"
       y1="325.7832"
       x2="327.61734"
       y2="307.80286"
       gradientTransform="matrix(0.22401176,0,0,0.22401176,-11.287304,66.939017)"><stop
         offset="0"
         stop-color="#605750"
         id="stop335" /><stop
         offset="1"
         stop-color="#938D73"
         id="stop336" /></linearGradient><linearGradient
       id="gradient_34"
       gradientUnits="userSpaceOnUse"
       x1="792.55402"
       y1="583.3559"
       x2="722.16492"
       y2="556.04443"
       gradientTransform="matrix(0.22401176,0,0,0.22401176,-11.287304,66.939017)"><stop
         offset="0"
         stop-color="#353536"
         id="stop332" /><stop
         offset="1"
         stop-color="#565150"
         id="stop333" /></linearGradient><linearGradient
       id="gradient_33"
       gradientUnits="userSpaceOnUse"
       x1="315.82199"
       y1="325.36209"
       x2="320.10907"
       y2="267.79623"
       gradientTransform="matrix(0.22401176,0,0,0.22401176,-11.287304,66.939017)"><stop
         offset="0"
         stop-color="#494444"
         id="stop327" /><stop
         offset="1"
         stop-color="#766C5C"
         id="stop328" /></linearGradient><linearGradient
       id="gradient_32"
       gradientUnits="userSpaceOnUse"
       x1="256.21817"
       y1="387.13989"
       x2="253.56825"
       y2="318.6929"
       gradientTransform="matrix(0.22401176,0,0,0.22401176,-11.287304,66.939017)"><stop
         offset="0"
         stop-color="#312A2E"
         id="stop311" /><stop
         offset="1"
         stop-color="#686052"
         id="stop312" /></linearGradient><linearGradient
       id="gradient_31"
       gradientUnits="userSpaceOnUse"
       x1="310.40659"
       y1="294.13779"
       x2="295.2359"
       y2="274.89349"
       gradientTransform="matrix(0.22401176,0,0,0.22401176,-11.287304,66.939017)"><stop
         offset="0"
         stop-color="#706553"
         id="stop288" /><stop
         offset="1"
         stop-color="#A2997B"
         id="stop289" /></linearGradient><linearGradient
       id="gradient_30"
       gradientUnits="userSpaceOnUse"
       x1="302.80927"
       y1="295.06787"
       x2="304.27039"
       y2="278.65933"
       gradientTransform="matrix(0.22401176,0,0,0.22401176,-11.287304,66.939017)"><stop
         offset="0"
         stop-color="#BAB799"
         id="stop284" /><stop
         offset="1"
         stop-color="#F5F3CD"
         id="stop285" /></linearGradient><linearGradient
       id="gradient_29"
       gradientUnits="userSpaceOnUse"
       x1="297.84222"
       y1="322.41846"
       x2="298.36368"
       y2="288.32428"
       gradientTransform="matrix(0.22401176,0,0,0.22401176,-11.287304,66.939017)"><stop
         offset="0"
         stop-color="#766E5C"
         id="stop282" /><stop
         offset="1"
         stop-color="#C2C19C"
         id="stop283" /></linearGradient><linearGradient
       id="gradient_28"
       gradientUnits="userSpaceOnUse"
       x1="237.21286"
       y1="304.4924"
       x2="237.1563"
       y2="287.41296"
       gradientTransform="matrix(0.22401176,0,0,0.22401176,-11.287304,66.939017)"><stop
         offset="0"
         stop-color="#B8B696"
         id="stop280" /><stop
         offset="1"
         stop-color="#D6D6BA"
         id="stop281" /></linearGradient><linearGradient
       id="gradient_27"
       gradientUnits="userSpaceOnUse"
       x1="233.32074"
       y1="322.61078"
       x2="232.98154"
       y2="310.35925"
       gradientTransform="matrix(0.22401176,0,0,0.22401176,-11.287304,66.939017)"><stop
         offset="0"
         stop-color="#7F7761"
         id="stop277" /><stop
         offset="1"
         stop-color="#958E72"
         id="stop278" /></linearGradient><linearGradient
       id="gradient_26"
       gradientUnits="userSpaceOnUse"
       x1="258.31696"
       y1="287.58771"
       x2="258.10553"
       y2="254.94887"
       gradientTransform="matrix(0.22401176,0,0,0.22401176,-11.287304,66.939017)"><stop
         offset="0"
         stop-color="#E9EAC7"
         id="stop275" /><stop
         offset="1"
         stop-color="white"
         id="stop276" /></linearGradient><linearGradient
       id="gradient_25"
       gradientUnits="userSpaceOnUse"
       x1="862.9787"
       y1="597.97766"
       x2="809.01105"
       y2="564.31061"
       gradientTransform="matrix(0.22401176,0,0,0.22401176,-11.287304,66.939017)"><stop
         offset="0"
         stop-color="#524844"
         id="stop257" /><stop
         offset="1"
         stop-color="#696256"
         id="stop258" /></linearGradient><linearGradient
       id="gradient_24"
       gradientUnits="userSpaceOnUse"
       x1="859.70184"
       y1="544.60834"
       x2="811.56274"
       y2="503.75955"
       gradientTransform="matrix(0.22401176,0,0,0.22401176,-11.287304,66.939017)"><stop
         offset="0"
         stop-color="#908B71"
         id="stop250" /><stop
         offset="1"
         stop-color="#AAA488"
         id="stop251" /></linearGradient><linearGradient
       id="gradient_23"
       gradientUnits="userSpaceOnUse"
       x1="599.8653"
       y1="315.8555"
       x2="585.5694"
       y2="271.56104"
       gradientTransform="matrix(0.22401176,0,0,0.22401176,-11.287304,66.939017)"><stop
         offset="0"
         stop-color="#746C5D"
         id="stop177" /><stop
         offset="1"
         stop-color="#9F997A"
         id="stop178" /></linearGradient><linearGradient
       id="gradient_22"
       gradientUnits="userSpaceOnUse"
       x1="535.56537"
       y1="322.91098"
       x2="535.07629"
       y2="304.43378"
       gradientTransform="matrix(0.22401176,0,0,0.22401176,-11.287304,66.939017)"><stop
         offset="0"
         stop-color="#4F4745"
         id="stop172" /><stop
         offset="1"
         stop-color="#8E876E"
         id="stop173" /></linearGradient><linearGradient
       id="gradient_21"
       gradientUnits="userSpaceOnUse"
       x1="270.29193"
       y1="553.11157"
       x2="254.62906"
       y2="533.0097"
       gradientTransform="matrix(0.22401176,0,0,0.22401176,-11.287304,66.939017)"><stop
         offset="0"
         stop-color="#C8C8AB"
         id="stop159" /><stop
         offset="1"
         stop-color="#FFFBE4"
         id="stop160" /></linearGradient><linearGradient
       id="gradient_20"
       gradientUnits="userSpaceOnUse"
       x1="265.33884"
       y1="531.57739"
       x2="270.95966"
       y2="505.63922"
       gradientTransform="matrix(0.22401176,0,0,0.22401176,-11.287304,66.939017)"><stop
         offset="0"
         stop-color="#D0D0B4"
         id="stop157" /><stop
         offset="1"
         stop-color="#FEF7D8"
         id="stop158" /></linearGradient><linearGradient
       id="gradient_19"
       gradientUnits="userSpaceOnUse"
       x1="283.74417"
       y1="643.34338"
       x2="281.61111"
       y2="642.33014"
       gradientTransform="matrix(0.22401176,0,0,0.22401176,-11.287304,66.939017)"><stop
         offset="0"
         stop-color="#6C6354"
         id="stop148" /><stop
         offset="1"
         stop-color="#837A6D"
         id="stop149" /></linearGradient><linearGradient
       id="gradient_18"
       gradientUnits="userSpaceOnUse"
       x1="259.84656"
       y1="601.56427"
       x2="230.59119"
       y2="636.7168"
       gradientTransform="matrix(0.22401176,0,0,0.22401176,-11.287304,66.939017)"><stop
         offset="0"
         stop-color="#B6B09D"
         id="stop145" /><stop
         offset="1"
         stop-color="#DED4B0"
         id="stop146" /></linearGradient><linearGradient
       id="gradient_17"
       gradientUnits="userSpaceOnUse"
       x1="269.07285"
       y1="461.02319"
       x2="236.11465"
       y2="583.6076"
       gradientTransform="matrix(0.22401176,0,0,0.22401176,-11.287304,66.939017)"><stop
         offset="0"
         stop-color="#1B181B"
         id="stop143" /><stop
         offset="1"
         stop-color="#393332"
         id="stop144" /></linearGradient><linearGradient
       id="gradient_16"
       gradientUnits="userSpaceOnUse"
       x1="272.09454"
       y1="476.37988"
       x2="258.6929"
       y2="425.11942"
       gradientTransform="matrix(0.22401176,0,0,0.22401176,-11.287304,66.939017)"><stop
         offset="0"
         stop-color="#958F85"
         id="stop110" /><stop
         offset="1"
         stop-color="#B2AD8E"
         id="stop111" /></linearGradient><linearGradient
       id="gradient_15"
       gradientUnits="userSpaceOnUse"
       x1="125.69572"
       y1="601.14105"
       x2="107.13697"
       y2="577.92548"
       gradientTransform="matrix(0.22401176,0,0,0.22401176,-11.287304,66.939017)"><stop
         offset="0"
         stop-color="#756859"
         id="stop108" /><stop
         offset="1"
         stop-color="#958E78"
         id="stop109" /></linearGradient><linearGradient
       id="gradient_14"
       gradientUnits="userSpaceOnUse"
       x1="155.1265"
       y1="644.40173"
       x2="153.25365"
       y2="619.95245"
       gradientTransform="matrix(0.22401176,0,0,0.22401176,-11.287304,66.939017)"><stop
         offset="0"
         stop-color="#645953"
         id="stop100" /><stop
         offset="1"
         stop-color="#988D77"
         id="stop101" /></linearGradient><linearGradient
       id="gradient_13"
       gradientUnits="userSpaceOnUse"
       x1="190.69328"
       y1="718.9826"
       x2="149.52174"
       y2="592.83466"
       gradientTransform="matrix(0.22401176,0,0,0.22401176,-11.287304,66.939017)"><stop
         offset="0"
         stop-color="#2F3031"
         id="stop66" /><stop
         offset="1"
         stop-color="#504F49"
         id="stop67" /></linearGradient><linearGradient
       id="gradient_12"
       gradientUnits="userSpaceOnUse"
       x1="638.21497"
       y1="389.88431"
       x2="646.03778"
       y2="358.05859"
       gradientTransform="matrix(0.22401176,0,0,0.22401176,-11.287304,66.939017)"><stop
         offset="0"
         stop-color="#100E10"
         id="stop60" /><stop
         offset="1"
         stop-color="#4A3E3C"
         id="stop61" /></linearGradient><linearGradient
       id="gradient_11-0"
       gradientUnits="userSpaceOnUse"
       x1="769.46246"
       y1="323.05353"
       x2="768.68896"
       y2="304.82947"
       gradientTransform="matrix(0.22401176,0,0,0.22401176,-11.287304,66.939017)"><stop
         offset="0"
         stop-color="#2D242A"
         id="stop55" /><stop
         offset="1"
         stop-color="#655D55"
         id="stop56" /></linearGradient><linearGradient
       id="gradient_10-9"
       gradientUnits="userSpaceOnUse"
       x1="677.13599"
       y1="352.86923"
       x2="672.76306"
       y2="355.2597"
       gradientTransform="matrix(0.22401176,0,0,0.22401176,-11.287304,66.939017)"><stop
         offset="0"
         stop-color="#82765F"
         id="stop51-4" /><stop
         offset="1"
         stop-color="#969379"
         id="stop52-8" /></linearGradient><linearGradient
       id="gradient_9-8"
       gradientUnits="userSpaceOnUse"
       x1="954.73969"
       y1="315.62357"
       x2="952.93054"
       y2="302.32013"
       gradientTransform="matrix(0.22401176,0,0,0.22401176,-11.287304,66.939017)"><stop
         offset="0"
         stop-color="#322C2E"
         id="stop21" /><stop
         offset="1"
         stop-color="#554C4A"
         id="stop22-2" /></linearGradient><linearGradient
       id="gradient_8-4"
       gradientUnits="userSpaceOnUse"
       x1="766.70612"
       y1="306.76083"
       x2="766.29706"
       y2="297.88443"
       gradientTransform="matrix(0.22401176,0,0,0.22401176,-11.287304,66.939017)"><stop
         offset="0"
         stop-color="#696054"
         id="stop18" /><stop
         offset="1"
         stop-color="#88816A"
         id="stop19" /></linearGradient><linearGradient
       id="gradient_7-5"
       gradientUnits="userSpaceOnUse"
       x1="1018.1583"
       y1="276.19672"
       x2="1040.7948"
       y2="298.86646"
       gradientTransform="matrix(0.22401176,0,0,0.22401176,-11.287304,66.939017)"><stop
         offset="0"
         stop-color="#181717"
         id="stop15" /><stop
         offset="1"
         stop-color="#413D3E"
         id="stop16" /></linearGradient><linearGradient
       id="gradient_6-5"
       gradientUnits="userSpaceOnUse"
       x1="980.1886"
       y1="289.30374"
       x2="1007.6142"
       y2="247.77954"
       gradientTransform="matrix(0.22401176,0,0,0.22401176,-11.287304,66.939017)"><stop
         offset="0"
         stop-color="#A6A589"
         id="stop13" /><stop
         offset="1"
         stop-color="#EAE5BF"
         id="stop14" /></linearGradient><linearGradient
       id="gradient_5-1"
       gradientUnits="userSpaceOnUse"
       x1="980.74323"
       y1="315.81665"
       x2="979.82709"
       y2="296.72516"
       gradientTransform="matrix(0.22401176,0,0,0.22401176,-11.287304,66.939017)"><stop
         offset="0"
         stop-color="#312A2D"
         id="stop11" /><stop
         offset="1"
         stop-color="#71655B"
         id="stop12" /></linearGradient><linearGradient
       id="gradient_4-7"
       gradientUnits="userSpaceOnUse"
       x1="974.69019"
       y1="337.1821"
       x2="973.03217"
       y2="313.31482"
       gradientTransform="matrix(0.22401176,0,0,0.22401176,-11.287304,66.939017)"><stop
         offset="0"
         stop-color="#010102"
         id="stop9" /><stop
         offset="1"
         stop-color="#2E2B2C"
         id="stop10" /></linearGradient><linearGradient
       id="gradient_3-1"
       gradientUnits="userSpaceOnUse"
       x1="797.02972"
       y1="299.32455"
       x2="796.11346"
       y2="271.2338"
       gradientTransform="matrix(0.22401176,0,0,0.22401176,-11.287304,66.939017)"><stop
         offset="0"
         stop-color="#AAA788"
         id="stop7" /><stop
         offset="1"
         stop-color="#F0F0D0"
         id="stop8" /></linearGradient><linearGradient
       id="gradient_2-1"
       gradientUnits="userSpaceOnUse"
       x1="751.05554"
       y1="402.48737"
       x2="684.02893"
       y2="248.69569"
       gradientTransform="matrix(0.22401176,0,0,0.22401176,-11.287304,66.939017)"><stop
         offset="0"
         stop-color="#0C090E"
         id="stop5" /><stop
         offset="1"
         stop-color="#393335"
         id="stop6" /></linearGradient><linearGradient
       id="gradient_1-5"
       gradientUnits="userSpaceOnUse"
       x1="600.59576"
       y1="300.39453"
       x2="616.21582"
       y2="277.59973"
       gradientTransform="matrix(0.22401176,0,0,0.22401176,-11.287304,66.939017)"><stop
         offset="0"
         stop-color="#6A5F54"
         id="stop3" /><stop
         offset="1"
         stop-color="#857E6B"
         id="stop4" /></linearGradient><linearGradient
       id="gradient_0-2"
       gradientUnits="userSpaceOnUse"
       x1="490.24158"
       y1="699.0495"
       x2="488.07153"
       y2="283.91757"
       gradientTransform="matrix(0.22401176,0,0,0.22401176,-11.287304,66.939017)"><stop
         offset="0"
         stop-color="black"
         id="stop1" /><stop
         offset="1"
         stop-color="#232825"
         id="stop2" /></linearGradient><linearGradient
       id="gradient_0-0"
       gradientUnits="userSpaceOnUse"
       x1="728.84442"
       y1="366.36383"
       x2="719.76276"
       y2="435.13733"
       gradientTransform="matrix(0,0.28121218,0.28121218,0,-2.6205782,-1.5661111)"><stop
         offset="0"
         stop-color="#151414"
         id="stop8-9" /><stop
         offset="1"
         stop-color="#353337"
         id="stop9-4" /></linearGradient><linearGradient
       id="gradient_1-8"
       gradientUnits="userSpaceOnUse"
       x1="293.52328"
       y1="571.31628"
       x2="304.57993"
       y2="573.3208"
       gradientTransform="matrix(0,0.28121218,0.28121218,0,-2.6205782,-1.5661111)"><stop
         offset="0"
         stop-color="#46404A"
         id="stop49" /><stop
         offset="1"
         stop-color="#4D4E4C"
         id="stop50" /></linearGradient><linearGradient
       id="gradient_2-8"
       gradientUnits="userSpaceOnUse"
       x1="302.75018"
       y1="502.918"
       x2="312.03595"
       y2="507.79623"
       gradientTransform="matrix(0,0.28121218,0.28121218,0,-2.6205782,-1.5661111)"><stop
         offset="0"
         stop-color="#1C1C1D"
         id="stop62" /><stop
         offset="1"
         stop-color="#545056"
         id="stop63" /></linearGradient><linearGradient
       id="gradient_0-1"
       gradientUnits="userSpaceOnUse"
       x1="587.26447"
       y1="804.11139"
       x2="608.32391"
       y2="787.64368"
       gradientTransform="matrix(-0.21010955,0.1509194,0.1509194,0.21010955,109.53554,-22.655572)"><stop
         offset="0"
         stop-color="#4A4B59"
         id="stop12-5" /><stop
         offset="1"
         stop-color="#666573"
         id="stop13-2" /></linearGradient><linearGradient
       id="gradient_1-1"
       gradientUnits="userSpaceOnUse"
       x1="544.61005"
       y1="646.87793"
       x2="550.50183"
       y2="642.21936"
       gradientTransform="matrix(-0.21010955,0.1509194,0.1509194,0.21010955,109.53554,-22.655572)"><stop
         offset="0"
         stop-color="#343642"
         id="stop26" /><stop
         offset="1"
         stop-color="#545660"
         id="stop27" /></linearGradient><linearGradient
       id="gradient_2-4"
       gradientUnits="userSpaceOnUse"
       x1="548.75134"
       y1="652.96014"
       x2="555.34027"
       y2="648.48376"
       gradientTransform="matrix(-0.21010955,0.1509194,0.1509194,0.21010955,109.53554,-22.655572)"><stop
         offset="0"
         stop-color="#31333F"
         id="stop32" /><stop
         offset="1"
         stop-color="#53555C"
         id="stop33" /></linearGradient><linearGradient
       id="gradient_3-8"
       gradientUnits="userSpaceOnUse"
       x1="279.73007"
       y1="648.94592"
       x2="419.82428"
       y2="665.54987"
       gradientTransform="matrix(-0.21010955,0.1509194,0.1509194,0.21010955,109.53554,-22.655572)"><stop
         offset="0"
         stop-color="#4D4E5B"
         id="stop41" /><stop
         offset="1"
         stop-color="#6A6C80"
         id="stop42" /></linearGradient><linearGradient
       id="gradient_4-1"
       gradientUnits="userSpaceOnUse"
       x1="543.75317"
       y1="799.90784"
       x2="500.70602"
       y2="834.80817"
       gradientTransform="matrix(-0.21010955,0.1509194,0.1509194,0.21010955,109.53554,-22.655572)"><stop
         offset="0"
         stop-color="#26262A"
         id="stop90" /><stop
         offset="1"
         stop-color="#65432F"
         id="stop91" /></linearGradient></defs><defs
     id="defs30"><linearGradient
       id="gradient_1"
       gradientUnits="userSpaceOnUse"
       x1="746.55017"
       y1="1093.2012"
       x2="718.25854"
       y2="1094.4313"
       gradientTransform="matrix(-0.12326091,0.19900355,0.19900355,0.12326091,47.797796,-55.564933)"><stop
         offset="0"
         stop-color="#562205"
         id="stop29" /><stop
         offset="1"
         stop-color="#430E0B"
         id="stop30" /></linearGradient></defs><defs
     id="defs44"><linearGradient
       id="gradient_2"
       gradientUnits="userSpaceOnUse"
       x1="776.90399"
       y1="1268.3417"
       x2="860.62799"
       y2="1230.1453"
       gradientTransform="matrix(-0.12326091,0.19900355,0.19900355,0.12326091,47.797796,-55.564933)"><stop
         offset="0"
         stop-color="#626F7C"
         id="stop43" /><stop
         offset="1"
         stop-color="#7E8C95"
         id="stop44" /></linearGradient></defs><defs
     id="defs52"><linearGradient
       id="gradient_3"
       gradientUnits="userSpaceOnUse"
       x1="439.87656"
       y1="610.50824"
       x2="511.21613"
       y2="569.95337"
       gradientTransform="matrix(-0.12326091,0.19900355,0.19900355,0.12326091,47.797796,-55.564933)"><stop
         offset="0"
         stop-color="#404B52"
         id="stop51" /><stop
         offset="1"
         stop-color="#656E73"
         id="stop52" /></linearGradient></defs><defs
     id="defs70"><linearGradient
       id="gradient_4"
       gradientUnits="userSpaceOnUse"
       x1="769.17871"
       y1="469.91077"
       x2="465.81488"
       y2="290.91141"
       gradientTransform="matrix(-0.12326091,0.19900355,0.19900355,0.12326091,47.797796,-55.564933)"><stop
         offset="0"
         stop-color="#7A7876"
         id="stop69" /><stop
         offset="1"
         stop-color="#D2D4D1"
         id="stop70" /></linearGradient></defs><defs
     id="defs72"><linearGradient
       id="gradient_5"
       gradientUnits="userSpaceOnUse"
       x1="254.6996"
       y1="1019.3943"
       x2="228.24765"
       y2="330.26346"
       gradientTransform="matrix(-0.06444382,0.07337389,0.07337389,0.06444382,26.652268,-12.064007)"><stop
         offset="0"
         stop-color="#525151"
         id="stop71" /><stop
         offset="1"
         stop-color="#928F8B"
         id="stop72" /></linearGradient></defs><defs
     id="defs76"><linearGradient
       id="gradient_6"
       gradientUnits="userSpaceOnUse"
       x1="400.80075"
       y1="564.51709"
       x2="491.52264"
       y2="534.61029"
       gradientTransform="matrix(-0.12326091,0.19900355,0.19900355,0.12326091,47.797796,-55.564933)"><stop
         offset="0"
         stop-color="#481E06"
         id="stop75" /><stop
         offset="1"
         stop-color="#663917"
         id="stop76" /></linearGradient></defs><defs
     id="defs80"><linearGradient
       id="gradient_7"
       gradientUnits="userSpaceOnUse"
       x1="666.84778"
       y1="451.62134"
       x2="414.77264"
       y2="258.09586"
       gradientTransform="matrix(-0.12326091,0.19900355,0.19900355,0.12326091,47.797796,-55.564933)"><stop
         offset="0"
         stop-color="#71665F"
         id="stop79" /><stop
         offset="1"
         stop-color="#ACA091"
         id="stop80" /></linearGradient></defs><defs
     id="defs82"><linearGradient
       id="gradient_8"
       gradientUnits="userSpaceOnUse"
       x1="518.9541"
       y1="394.42706"
       x2="611.91101"
       y2="253.80998"
       gradientTransform="matrix(-0.12326091,0.19900355,0.19900355,0.12326091,47.797796,-55.564933)"><stop
         offset="0"
         stop-color="#ADA9A4"
         id="stop81" /><stop
         offset="1"
         stop-color="#E2E5E7"
         id="stop82" /></linearGradient></defs><defs
     id="defs84"><linearGradient
       id="gradient_9"
       gradientUnits="userSpaceOnUse"
       x1="433.23013"
       y1="944.97131"
       x2="35.357399"
       y2="429.73206"
       gradientTransform="matrix(-0.06444382,0.07337389,0.07337389,0.06444382,26.652268,-12.064007)"><stop
         offset="0"
         stop-color="#706F6E"
         id="stop83" /><stop
         offset="1"
         stop-color="#BCBCB6"
         id="stop84" /></linearGradient></defs><defs
     id="defs86"><linearGradient
       id="gradient_10"
       gradientUnits="userSpaceOnUse"
       x1="435.94797"
       y1="719.50836"
       x2="112.48418"
       y2="624.32764"
       gradientTransform="matrix(-0.06444382,0.07337389,0.07337389,0.06444382,26.652268,-12.064007)"><stop
         offset="0"
         stop-color="#969695"
         id="stop85" /><stop
         offset="1"
         stop-color="#BFBEBD"
         id="stop86" /></linearGradient></defs><defs
     id="defs88"><linearGradient
       id="gradient_11"
       gradientUnits="userSpaceOnUse"
       x1="455.73398"
       y1="700.51971"
       x2="128.48848"
       y2="573.58057"
       gradientTransform="matrix(-0.06444382,0.07337389,0.07337389,0.06444382,26.652268,-12.064007)"><stop
         offset="0"
         stop-color="#5C4E48"
         id="stop87" /><stop
         offset="1"
         stop-color="#8A8177"
         id="stop88" /></linearGradient></defs><path
     fill="#384841"
     fill-opacity="0.00784314"
     d="M 137.33803,-22.65557 302.06391,95.665246 125.79004,341.0732 -38.935842,222.75238 Z m -15.39829,235.10355 c 0.33562,3.1268 1.71363,4.86798 4.84299,5.35759 1.37836,-0.0906 1.68541,-0.17493 2.81533,-0.95335 0.37102,-0.86199 0.31756,-1.77376 0.32296,-2.70184 -2.1622,0.35227 -4.22785,0.70316 -6.03491,-0.88371 -0.39501,-0.42962 -0.74657,-0.88822 -0.77325,-1.47943 l 0.18592,-0.14483 c 0.50755,0.15721 0.77792,0.66102 1.11831,1.117 1.43321,1.01603 3.75089,0.70892 5.22906,-0.028 0.30993,-1.66424 0.15015,-3.29132 -0.13954,-4.94736 -0.82995,-0.34866 -1.36765,-0.46255 -2.28787,-0.41993 -3.17374,0.39519 -5.22888,1.56332 -5.27897,5.08385 z"
     id="path1-0"
     style="stroke-width:0.258694" /><path
     fill="#252528"
     d="m 100.98945,31.722148 c -0.2188,0.05587 -0.55189,0.08746 -0.60688,0.324433 -0.72838,3.136915 -0.67196,7.597927 -0.78147,10.760123 -0.0697,2.016287 0.15325,4.423312 -0.33607,5.951705 l -0.0453,0.324929 0.13572,0.150325 c 1.10139,1.230487 0.54375,2.038089 0.71829,3.89164 -0.0219,0.360089 -0.0538,1.265574 -0.13568,1.571536 l -0.47845,0.305448 -0.0653,0.302941 c 0.41382,0.403178 0.73775,0.428481 1.30324,0.38031 0.029,2.342227 0.24949,13.406023 -0.18884,14.885669 -0.46832,1.131075 -0.71246,3.155101 -0.65771,4.388241 -0.3198,1.691682 -0.32294,4.904869 -0.37348,6.749687 -0.11146,3.894264 -0.19799,7.789083 -0.26017,11.684565 l -0.22644,11.95498 c -0.0763,3.35301 -0.30596,6.88626 -0.002,10.2234 0.26542,2.91262 -0.45097,5.47779 -1.02679,8.29234 -0.13735,0.67038 0.56834,1.22224 1.09582,1.49631 0.45445,1.25436 -0.0931,6.14891 -0.053,7.93055 l -0.0704,0.67838 c -0.16796,2.95 -0.29338,7.43367 -0.65224,10.22966 l -1.36427,0.28591 c -0.10041,0.0141 -0.20031,0.0289 -0.30055,0.0446 -0.76209,0.119 -1.12453,0.14077 -1.58777,0.77514 -0.39304,1.62963 -0.73528,9.59303 -0.0771,11.13737 0.058,4.84368 -0.20672,9.92492 -0.47876,14.76806 -0.0737,1.31142 -0.85068,2.05232 -1.06444,3.28498 -0.19452,1.81733 0.0157,7.28432 -0.57636,8.81479 -0.65881,0.0792 -0.47839,-0.0399 -0.86791,0.35967 -0.24087,0.60874 -0.13066,1.34528 -0.0936,2.01591 -0.25553,1.45346 -0.35688,3.63196 -0.46943,5.15629 -0.11173,0.78321 0.01,1.01869 -0.78575,1.38266 -0.0684,-0.002 -0.13705,0.007 -0.20351,0.0236 l -0.85525,-0.90466 c -0.51569,-0.17075 -0.71071,-0.27909 -1.23112,-0.11583 -0.85014,0.57243 -0.66568,1.94935 -0.65537,2.88827 -0.067,0.80647 -0.0893,1.35188 -0.0779,2.16008 0.55717,1.05283 1.31864,1.10724 2.39525,1.37514 l 0.59223,1.41115 c 0.62491,0.3503 1.19396,0.68846 1.85978,0.95648 -0.0883,1.39004 -0.61704,6.92496 -0.24283,7.90889 0.38896,0.36592 0.61746,0.43304 1.09782,0.63488 -0.0128,1.54887 0.17247,7.10223 -0.69409,7.93649 -0.11131,0.10929 -0.22553,0.21546 -0.34265,0.31846 -0.55786,1.23521 0.6057,2.97176 1.70663,3.59452 -0.089,1.52247 -0.32097,3.40838 0.12436,4.84605 0.40454,1.00131 1.84984,1.16523 2.8267,1.41752 0.16265,1.67958 0.44351,3.84121 -0.11087,5.44754 l -0.97269,-0.0652 c 0.4058,1.58839 1.27185,0.73792 0.4804,3.16846 l 0.4826,-0.46068 c 0.32711,1.07445 0.39189,1.93665 0.46459,3.05112 l 2.71494,0.56616 c 1.18193,0.24512 4.89806,0.85401 5.70975,1.41156 l 0.21324,-0.1825 c 0.24172,-0.65365 0.19651,-1.06645 0.18969,-1.76195 0.37381,-0.10926 1.27113,-0.21646 1.69965,-0.27838 0.45102,-1.1059 0.43062,-1.63717 0.43695,-2.82342 l 1.52816,-0.11759 c 1.42165,0.11722 3.37483,0.25524 4.76912,0.51219 0.0552,2.0214 -0.0696,5.06409 0.97427,6.75563 0.01,-1.389 -1.17572,-6.01087 -0.15449,-6.90206 l 0.60879,0.17044 c 0.33676,-0.29831 0.4886,-0.51086 0.46575,-0.9391 -0.0767,-1.44099 -0.41105,-2.94816 -0.41685,-4.38941 -0.0157,-3.82779 0.12825,-7.87244 0.42778,-11.68489 l 0.47586,0.94851 c 0.11145,-0.75212 0.23552,-1.50215 0.37239,-2.24992 -0.37104,-0.86198 -0.31757,-1.77375 -0.32298,-2.70183 l -0.23007,-0.42942 c 0.14701,-0.2556 0.39094,-0.48272 0.59766,-0.70001 l -0.0926,-0.28954 c -0.30995,-1.66425 -0.15015,-3.29133 0.13953,-4.94736 0.82995,-0.34866 1.36765,-0.46256 2.28787,-0.41994 l 0.36455,-0.24718 c -0.17747,-0.45859 -0.61989,-0.56282 -1.15359,-0.88149 0.64459,0.16353 0.73137,0.30121 1.28224,0.1183 -1.18469,-0.47247 -1.622,-0.73806 -2.61514,-1.53539 l -0.044,-2.24164 c -0.36404,-0.45802 -0.94292,-1.06305 -1.34787,-1.51241 -0.0819,-1.02887 0.23583,-3.1491 -0.1452,-3.80991 -0.38539,-0.19777 -1.58774,-0.41677 -2.07668,-0.52102 -0.64296,-2.12832 1.13069,-6.08263 -0.53908,-7.97313 -0.54223,-0.61383 -1.58231,-0.54933 -2.34635,-0.56653 0.0237,-1.9495 0.37062,-5.37326 0.19106,-7.14644 0.0446,-0.83054 0.0536,-1.47118 0.0318,-2.30243 4.15403,0.24341 7.42763,-0.1775 11.35599,-0.0625 6.97309,0.27034 13.94925,0.44738 20.92661,0.53119 3.3537,0.0631 7.05082,0.21358 10.37973,0.12816 0.22176,-0.82688 0.53728,-2.15781 0.83534,-2.9175 0.52793,0.0486 1.32719,0.0194 1.88219,0.0148 0.64451,-3.76498 0.2185,-9.1986 0.3448,-13.09745 0.0329,-1.01357 -1.17812,-0.8868 -1.84613,-0.78537 -1.69526,0.48892 -6.22144,-0.0669 -8.29397,-0.0943 l -32.27931,-0.49783 c -0.65465,-0.057 -0.77035,0.0427 -1.23063,-0.30537 -0.15467,-0.54791 -0.142,-0.87393 -0.16478,-1.436 -0.41994,-0.23918 -0.9228,-0.43731 -1.3709,-0.63015 0.0135,-4.03062 1.6849,-9.41324 0.0777,-13.70031 -1.40353,-0.95228 -2.21061,-0.8099 -3.35048,-1.59995 -0.42659,-0.82717 -0.56489,-16.78155 -0.36688,-18.50487 l 1.704,-0.79556 c 0.28483,-1.85258 -0.45781,-2.27852 -0.49068,-3.63152 -0.0484,-1.98172 0.0866,-5.82799 0.51413,-7.68109 1.47298,-0.7669 1.50853,-1.00075 2.43422,-2.3358 0.47994,0.41364 0.9294,0.92275 1.36382,1.38788 3.36754,0.0375 3.45152,1.20315 6.14043,1.97655 8.78522,2.52712 17.29847,6.04623 25.89006,9.20392 2.4053,0.88095 4.81695,1.74456 7.23475,2.59104 1.27079,0.44597 3.44803,0.84667 4.1033,1.97843 l 0.17428,0.29717 0.0677,0.11637 c 0.72259,0.12756 1.50275,0.16629 2.23847,0.21945 0.34094,-1.89638 0.66117,-3.6868 0.90826,-5.60209 -4.50588,-1.52524 -9.24872,-2.96087 -13.66823,-4.70997 -6.38197,-2.52608 -12.73316,-4.96501 -19.15874,-7.37982 2.65001,0.07 5.57355,0.3497 8.30352,0.45435 l 20.93986,0.64051 c 7.85027,0.29737 15.91525,0.75042 23.74912,0.82038 0.0663,0.62668 0.14348,1.57137 0.2631,2.17756 l 0.14422,0.17129 c 0.65374,0.12127 2.00101,0.0453 2.71869,0.0286 0.39592,-2.81592 0.48968,-8.10976 0.32029,-10.99995 -0.81915,-0.14451 -1.88688,-0.18978 -2.73378,-0.2497 0.0919,0.97872 0.0593,2.40966 0.0661,3.42241 -1.64982,-0.29827 -4.25109,-0.33738 -5.99561,-0.41124 -3.71817,-0.14812 -7.43733,-0.2691 -11.15709,-0.36288 -10.4047,-0.2064 -20.80496,-0.58355 -31.19705,-1.13156 -1.91132,-0.0939 -6.09316,-0.12902 -7.83953,-0.67041 -1.82201,-0.5651 -1.29135,0.29563 -3.78758,0.23171 l -0.5,-0.36706 c -0.0262,-0.39302 -0.0649,-0.41306 -0.30772,-0.74503 -0.98958,-0.51165 -1.65847,0.36632 -2.53783,-0.43887 -0.079,-0.57904 -0.37484,-1.144 -1.01424,-1.08255 -0.7387,0.6491 -0.68437,1.00853 -0.7766,1.98604 -0.59215,0.12944 -1.40706,0.23033 -2.02372,0.32386 -1.18338,-0.18548 -2.52672,-1.09344 -3.62476,-1.71574 -0.45443,-2.89727 -0.64206,-3.25428 -3.66357,-3.08677 0.097,-5.301891 0.0622,-10.605572 -0.10436,-15.905808 -0.12448,-3.862687 -1.48373,-26.405704 -0.79592,-28.366814 0.16741,-0.477311 0.4012,-0.511463 0.83352,-0.701563 0.50869,-1.185245 -0.0288,-3.770255 0.14623,-5.139779 0.0991,-0.772859 0.74313,-0.851343 0.70037,-1.488225 -0.0806,-1.196982 -0.44704,-1.560676 -0.45067,-2.886268 -0.0115,-4.53187 0.0759,-9.04679 0.0564,-13.580169 -1.09059,-0.330798 -2.2668,-0.506769 -3.39224,-0.706484 -1.24083,-0.231795 -1.76103,-0.297054 -2.96116,0.07989 z"
     id="path2-9"
     style="stroke-width:0.258694" /><path
     fill="#4e505d"
     d="m 96.91807,144.48526 c -0.10041,0.0141 -0.2003,0.0289 -0.30053,0.0445 -0.7621,0.119 -1.12454,0.14076 -1.58779,0.77513 -0.39304,1.62963 -0.73526,9.59303 -0.0771,11.13736 0.058,4.84368 -0.20672,9.92492 -0.47875,14.76808 -0.0737,1.31142 -0.85069,2.05229 -1.06445,3.28497 -0.19452,1.81734 0.0157,7.28432 -0.57635,8.81478 -0.65881,0.0793 -0.47839,-0.0399 -0.86791,0.35969 -0.24086,0.60872 -0.13065,1.34528 -0.0936,2.0159 -0.25554,1.45345 -0.35689,3.63196 -0.46944,5.1563 -0.11173,0.7832 0.01,1.01869 -0.78574,1.38265 -0.0685,-0.002 -0.13705,0.007 -0.20351,0.0236 l -0.85527,-0.90467 c -0.51568,-0.17075 -0.71071,-0.27909 -1.23111,-0.11583 -0.85014,0.57243 -0.66568,1.94935 -0.65538,2.88825 -0.067,0.80648 -0.0893,1.35189 -0.0779,2.1601 0.55718,1.05284 1.31865,1.10723 2.39526,1.37513 l 0.59223,1.41117 c 0.6249,0.35029 1.19396,0.68844 1.85979,0.95647 -0.0883,1.39004 -0.61706,6.92497 -0.24284,7.90889 0.38897,0.36591 0.61745,0.43304 1.09783,0.63487 -0.0128,1.54889 0.17247,7.10224 -0.6941,7.93649 -0.11137,0.10924 -0.22554,0.21546 -0.34266,0.31847 -0.55785,1.2352 0.60571,2.97174 1.70664,3.59452 -0.0891,1.52248 -0.32096,3.40837 0.12436,4.84605 0.40454,1.0013 1.84984,1.16522 2.8267,1.41751 0.16266,1.67958 0.44351,3.84121 -0.11087,5.44754 l -0.9727,-0.0652 c 0.40581,1.58839 1.27187,0.73792 0.48041,3.16846 l 0.48259,-0.46068 c 0.32711,1.07444 0.39189,1.93665 0.46461,3.05112 l 2.71491,0.56616 c 1.18195,0.24512 4.89808,0.85399 5.70977,1.41156 l 0.21329,-0.18243 c 0.24172,-0.65364 0.19652,-1.06644 0.18969,-1.76195 0.37381,-0.10926 1.27114,-0.21646 1.69966,-0.27837 0.45102,-1.1059 0.43061,-1.63718 0.43694,-2.82342 l 1.52817,-0.11759 c 1.42163,0.11721 3.37482,0.25523 4.76911,0.51217 0.0552,2.02141 -0.0697,5.0641 0.97427,6.75564 0.01,-1.389 -1.17572,-6.01086 -0.15449,-6.90207 l 0.6088,0.17045 c 0.33676,-0.2983 0.48858,-0.51085 0.46574,-0.93909 -0.0767,-1.441 -0.41105,-2.94817 -0.41684,-4.38942 -0.0157,-3.82779 0.12823,-7.87244 0.42778,-11.68489 l 0.47585,0.94851 c 0.11146,-0.75211 0.23553,-1.50216 0.37239,-2.24992 -0.37102,-0.86198 -0.31757,-1.77375 -0.32296,-2.70183 l -0.23008,-0.42941 c 0.14701,-0.25562 0.39092,-0.48273 0.59764,-0.70002 l -0.0926,-0.28954 c -0.30994,-1.66424 -0.15014,-3.29132 0.13952,-4.94736 0.82996,-0.34865 1.36767,-0.46255 2.28788,-0.41995 l 0.36455,-0.24718 c -0.17746,-0.45858 -0.61989,-0.56282 -1.1536,-0.88147 0.64461,0.16351 0.73138,0.3012 1.28225,0.11829 -1.1847,-0.47247 -1.622,-0.73806 -2.61515,-1.5354 l -0.044,-2.24163 c -0.36402,-0.45802 -0.94291,-1.06306 -1.34786,-1.51242 -0.0819,-1.02887 0.23584,-3.14909 -0.1452,-3.80991 -0.38538,-0.19776 -1.58773,-0.41676 -2.07669,-0.52101 -0.64295,-2.12832 1.1307,-6.08262 -0.53906,-7.97314 -0.54224,-0.61383 -1.58232,-0.54933 -2.34636,-0.56653 0.0238,-1.94949 0.37062,-5.37324 0.19105,-7.14644 -0.50912,-0.87109 0.0457,-1.79705 -0.53658,-2.49904 l -0.015,-0.36539 c -0.32386,-0.23847 -0.70412,-0.38163 -1.07457,-0.54617 -0.79418,-0.91542 -0.39707,-12.35212 -0.0663,-14.02106 -0.17261,-0.36493 -0.19948,-0.34818 -0.53207,-0.55584 l -0.1418,-0.14595 -0.30638,0.0337 c -0.65322,3.55686 -0.055,10.96707 -0.24705,14.87205 -0.1434,2.919 -0.32183,5.89435 -0.47048,8.8136 -0.20611,4.32343 -0.37986,8.64847 -0.52097,12.97458 l -0.38801,10.75716 c -0.0492,1.36678 0.0862,5.90473 -0.78036,6.61291 -0.57972,0.0513 -0.7308,-0.0526 -1.04274,-0.55595 0.0402,-0.40566 -0.0373,-0.23374 0.24131,-0.5323 l -0.20822,-0.38394 c 0.19584,-1.69087 0.15168,-5.19562 0.2161,-7.10582 l 0.48739,-14.39685 c 0.19769,-1.20454 -0.2152,-5.09931 0.69248,-5.84619 0.51816,-0.86876 0.44195,-6.7151 0.49073,-8.21562 l 0.48839,-11.62266 c 0.15286,-3.84152 0.63406,-7.14743 0.54579,-11.05811 -3.89017,-0.55364 -8.28616,-0.31711 -11.8993,-0.85442 0.18018,-1.342 0.48484,-2.15105 1.03574,-3.3924 l -0.0459,-0.009 c -0.2772,-0.37167 -0.0313,-5.07215 0.009,-5.95728 -0.31249,-0.7419 -0.27375,-1.76508 -0.23698,-2.56261 z"
     id="path3-4"
     style="stroke-width:0.258694" /><path
     fill="#252528"
     d="m 110.6882,178.54823 c -0.55742,5.47461 -0.34961,12.2119 -0.56074,17.80408 -0.54505,11.81341 -0.97175,23.63193 -1.28003,35.45394 -2.08731,0.0615 -3.69849,-0.0132 -5.77353,-0.0978 l -0.18676,0.22776 c 0.53094,0.23367 1.72036,0.23423 2.35446,0.2683 -0.12534,1.19527 -0.23461,2.39207 -0.3274,3.59008 -0.81072,-0.0875 -2.85197,-0.44257 -3.43407,0.008 -0.52414,0.19175 -0.95568,0.82725 -1.34,1.28771 l -0.051,0.47115 -0.1714,0.14097 c 0.0163,0.17009 0.0622,0.52738 0.0578,0.68089 1.18194,0.24511 4.89807,0.85399 5.70977,1.41155 l 0.21322,-0.1825 c 0.24174,-0.65363 0.19653,-1.06644 0.1897,-1.76194 0.37381,-0.10925 1.27114,-0.21647 1.69966,-0.27837 0.45102,-1.10591 0.43061,-1.63718 0.43695,-2.82342 l 1.52817,-0.1176 c 1.42163,0.11723 3.37482,0.25523 4.7691,0.51217 0.0552,2.02141 -0.0697,5.06409 0.97427,6.75565 0.01,-1.389 -1.17571,-6.01087 -0.15449,-6.90208 l 0.60878,0.17045 c 0.33677,-0.29831 0.48861,-0.51084 0.46576,-0.93909 -0.0767,-1.44099 -0.41104,-2.94816 -0.41684,-4.38941 -0.0157,-3.82779 0.12823,-7.87243 0.42778,-11.68488 l 0.47585,0.94849 c 0.11146,-0.75211 0.23552,-1.50215 0.37239,-2.24992 -0.37103,-0.86198 -0.31757,-1.77374 -0.32296,-2.70183 l -0.23008,-0.4294 c 0.14701,-0.25563 0.39093,-0.48274 0.59764,-0.70003 l -0.0926,-0.28953 c -0.30993,-1.66424 -0.15014,-3.29133 0.13952,-4.94736 0.82996,-0.34867 1.36767,-0.46255 2.28789,-0.41994 l 0.36455,-0.24718 c -0.17747,-0.4586 -0.6199,-0.56283 -1.1536,-0.88149 0.64459,0.16353 0.73137,0.3012 1.28224,0.11829 -1.18469,-0.47247 -1.62199,-0.73805 -2.61515,-1.53539 l -0.044,-2.24163 c -0.36402,-0.45804 -0.94291,-1.06307 -1.34785,-1.51242 -0.0819,-1.02887 0.23582,-3.1491 -0.14521,-3.80992 -0.38539,-0.19776 -1.58773,-0.41676 -2.07669,-0.521 -0.64295,-2.12834 1.1307,-6.08263 -0.53906,-7.97315 -0.54225,-0.61383 -1.58232,-0.54933 -2.34637,-0.56653 0.0238,-1.94948 0.37064,-5.37325 0.19107,-7.14643 -0.50913,-0.8711 0.0456,-1.79705 -0.53659,-2.49904 z"
     id="path4-8"
     style="stroke-width:0.258694" /><path
     fill="#4e505d"
     d="m 115.99583,197.25437 c -0.38539,-0.19776 -1.58774,-0.41676 -2.07669,-0.52101 0.0178,1.23577 -0.21345,3.12568 -0.28961,4.46303 -0.12234,2.35283 -0.19851,4.70784 -0.22884,7.06369 l -0.2957,14.28461 c -0.0668,2.72508 -0.22114,8.04462 -0.65241,10.62762 -0.91919,0.17388 -2.14019,0.26194 -2.66028,1.0238 l -0.0393,0.43471 c 1.42164,0.11723 3.37483,0.25524 4.7691,0.51218 0.0552,2.02141 -0.0696,5.0641 0.97427,6.75565 0.01,-1.389 -1.17571,-6.01087 -0.15449,-6.90207 l 0.6088,0.17044 c 0.33676,-0.29831 0.48859,-0.51085 0.46574,-0.93909 -0.0767,-1.44099 -0.41104,-2.94816 -0.41684,-4.38941 -0.0157,-3.8278 0.12824,-7.87245 0.42778,-11.68489 l 0.47585,0.9485 c 0.11146,-0.75211 0.23553,-1.50215 0.37239,-2.24991 -0.37103,-0.86199 -0.31756,-1.77376 -0.32296,-2.70184 l -0.23008,-0.42941 c 0.14701,-0.25561 0.39093,-0.48273 0.59765,-0.70001 l -0.0926,-0.28954 c -0.30994,-1.66425 -0.15015,-3.29133 0.13952,-4.94737 0.82996,-0.34866 1.36766,-0.46256 2.28788,-0.41993 l 0.36455,-0.24718 c -0.17746,-0.4586 -0.61989,-0.56282 -1.15359,-0.88148 0.64459,0.16352 0.73137,0.3012 1.28223,0.11829 -1.18468,-0.47248 -1.62199,-0.73806 -2.61514,-1.53539 l -0.044,-2.24163 c -0.36402,-0.45804 -0.94291,-1.06306 -1.34786,-1.51243 -0.0819,-1.02887 0.23584,-3.14909 -0.14519,-3.80992 z"
     id="path5-8"
     style="stroke-width:0.258694" /><path
     fill="#171719"
     d="m 115.99583,197.25437 c -0.17291,0.84881 -0.19095,2.83242 -0.17413,3.72365 0.41247,0.5774 0.83382,1.1857 1.25797,1.75089 -0.11109,3.67262 -0.49997,7.0995 -0.48508,10.88676 l 0.12786,0.10532 c 0.14702,-0.25562 0.39093,-0.48273 0.59765,-0.70002 l -0.0927,-0.28953 c -0.30992,-1.66426 -0.15014,-3.29133 0.13955,-4.94736 0.82995,-0.34867 1.36764,-0.46256 2.28787,-0.41994 l 0.36456,-0.24718 c -0.17747,-0.4586 -0.61991,-0.56282 -1.15361,-0.88149 0.6446,0.16353 0.73138,0.30121 1.28225,0.11829 -1.18469,-0.47246 -1.622,-0.73805 -2.61515,-1.53538 l -0.044,-2.24164 c -0.36403,-0.45802 -0.94291,-1.06306 -1.34785,-1.51242 -0.0819,-1.02886 0.23582,-3.14909 -0.1452,-3.80992 z"
     id="path6-2"
     style="stroke-width:0.258694" /><path
     fill="#4e505d"
     d="m 118.86579,206.23544 -1.55286,-1.1349 c -0.007,0.48363 0.11801,2.52514 0.0541,2.68353 0.82996,-0.34867 1.36767,-0.46257 2.28788,-0.41994 l 0.36456,-0.24719 c -0.17746,-0.45859 -0.61991,-0.56281 -1.1536,-0.88147 z"
     id="path7-4"
     style="stroke-width:0.258694" /><path
     fill="#252528"
     d="m 116.59459,213.61567 c 9.3e-4,0.88941 -0.21233,4.15114 -0.16732,4.53796 l 0.47585,0.9485 c 0.11146,-0.75211 0.23553,-1.50215 0.37239,-2.24991 -0.37102,-0.86199 -0.31756,-1.77376 -0.32296,-2.70184 l -0.23008,-0.42941 z"
     id="path8-5"
     style="stroke-width:0.258694" /><path
     fill="#d5d4e1"
     d="m 113.88654,230.25322 c -0.41533,0.26296 -0.54795,0.80734 -0.30024,1.23203 0.24796,0.42453 0.78725,0.57673 1.22036,0.34429 0.29427,-0.15791 0.47889,-0.46406 0.48115,-0.79791 0.003,-0.33419 -0.17786,-0.64272 -0.4699,-0.80496 -0.29189,-0.16204 -0.64929,-0.15186 -0.93138,0.0266 z"
     id="path9-5"
     style="stroke-width:0.258694" /><path
     fill="#d5d4e1"
     d="m 114.26061,223.62541 c -0.31693,0.0156 -0.5992,0.2052 -0.73368,0.49287 -0.13428,0.28756 -0.0987,0.62576 0.0928,0.87903 0.19102,0.25327 0.50699,0.37989 0.82023,0.32911 0.44862,-0.0725 0.76243,-0.48304 0.71479,-0.93514 -0.0477,-0.45214 -0.44004,-0.78822 -0.89413,-0.7659 z"
     id="path10-1"
     style="stroke-width:0.258694" /><path
     fill="#d5d4e1"
     d="m 114.55346,214.15874 c -0.44831,0.10352 -0.72919,0.54924 -0.62951,0.99842 0.0998,0.44938 0.54325,0.73414 0.99327,0.63832 0.45542,-0.0972 0.74432,-0.54681 0.6434,-1.00171 -0.10101,-0.45458 -0.5534,-0.7399 -1.00716,-0.63503 z"
     id="path11-7"
     style="stroke-width:0.258694" /><path
     fill="#d5d4e1"
     d="m 115.15918,202.65151 c -0.4253,0.0966 -0.69511,0.51555 -0.60721,0.94258 0.0878,0.42718 0.50123,0.70573 0.92971,0.62696 0.28555,-0.0526 0.52027,-0.25522 0.6137,-0.53 0.0934,-0.27478 0.0309,-0.57865 -0.16335,-0.79457 -0.1943,-0.21557 -0.49,-0.30926 -0.77285,-0.24497 z"
     id="path12-1"
     style="stroke-width:0.258694" /><path
     fill="url(#gradient_0)"
     d="m 105.52745,232.21935 c -0.0855,1.26761 -0.20465,2.53267 -0.35734,3.79407 -1.4437,0.27288 -2.37542,0.51533 -3.68996,-0.21105 -0.52414,0.19175 -0.95568,0.82724 -1.34001,1.2877 l -0.051,0.47117 -0.1714,0.14097 c 0.0164,0.17008 0.0622,0.52736 0.0578,0.68087 1.18194,0.24512 4.89807,0.854 5.70977,1.41156 l 0.21322,-0.18249 c 0.24174,-0.65364 0.19653,-1.06645 0.1897,-1.76195 -0.20408,-0.13465 -0.18771,-0.16776 -0.34398,-0.37913 l 1.85654,-0.10343 c 0.11521,-1.67054 0.0839,-3.31838 0.21581,-4.99769 -0.7392,-0.0274 -1.54522,-0.0995 -2.28906,-0.15061 z"
     id="path13-7"
     style="fill:url(#gradient_0-1);stroke-width:0.258694" /><path
     fill="#374143"
     d="m 99.91763,237.70219 c 0.0163,0.17009 0.0622,0.52737 0.0578,0.68088 1.18194,0.24512 4.89807,0.854 5.70976,1.41156 l 0.21324,-0.1825 c 0.24172,-0.65364 0.19651,-1.06645 0.18969,-1.76195 -0.20409,-0.13466 -0.18772,-0.16776 -0.34398,-0.37913 -0.12442,0.0117 -1.64959,-0.0745 -1.85397,-0.0863 -1.43589,-0.0834 -2.38316,-0.0311 -3.80114,0.17648 z"
     id="path14-6"
     style="stroke-width:0.258694" /><path
     fill="#4e505d"
     d="m 112.56947,192.42346 c -0.33452,-0.29101 -0.82626,-0.31046 -1.18262,-0.0466 -0.35636,0.26394 -0.48094,0.74011 -0.30004,1.14495 -0.0553,0.74112 0.19925,1.53895 0.21691,2.39898 l 0.10178,7.70977 c 0.0336,1.55666 0.0177,3.11038 -0.0559,4.67005 -0.33722,7.15714 -0.0836,14.37499 -0.64282,21.51354 -0.097,1.23607 -0.3933,2.02033 -0.92548,3.12814 0.70928,0.10814 1.86899,0.25934 2.38454,-0.28361 0.2884,-2.99383 0.29673,-7.09685 0.4101,-10.22708 0.28588,-7.05213 0.4651,-14.10818 0.53757,-21.16563 -9.2e-4,-1.39634 0.0311,-2.79246 0.0963,-4.18722 0.0701,-1.26103 0.261,-3.08211 0.14942,-4.26488 -0.40204,-0.0781 -0.47844,-0.12422 -0.78977,-0.39047 z"
     id="path15-1"
     style="stroke-width:0.258694" /><path
     fill="#d5d4e1"
     d="m 112.56947,192.42346 c -0.33452,-0.29101 -0.82626,-0.31046 -1.18262,-0.0466 -0.35636,0.26394 -0.48094,0.74011 -0.30004,1.14495 0.15785,0.35325 0.51522,0.57462 0.90198,0.55865 0.38669,-0.0159 0.7245,-0.26622 0.85239,-0.63138 0.12789,-0.36516 0.0203,-0.77169 -0.27172,-1.02569 z"
     id="path16-4"
     style="stroke-width:0.258694" /><path
     fill="#d5d4e1"
     d="m 112.40638,189.19748 c -0.44572,0.0481 -0.77309,0.44157 -0.73909,0.88888 0.0338,0.44745 0.41667,0.78716 0.86471,0.76794 0.30299,-0.0132 0.57487,-0.1903 0.70921,-0.46222 0.13431,-0.27197 0.10987,-0.59555 -0.064,-0.84428 -0.17314,-0.24894 -0.46903,-0.38294 -0.7708,-0.35028 z"
     id="path17-2"
     style="stroke-width:0.258694" /><path
     fill="#4e505d"
     d="m 95.8329,232.05801 c 0.4058,1.58838 1.27187,0.73792 0.48041,3.16845 l 0.48259,-0.46066 c 0.32711,1.07443 0.39189,1.93664 0.46461,3.05111 l 2.71491,0.56616 c 0.005,-0.15351 -0.0414,-0.51081 -0.0578,-0.68088 l 0.1714,-0.14097 0.0511,-0.47115 c -0.0659,-1.7086 0.12294,-3.13998 -0.087,-4.94483 l -3.24752,-0.0221 z"
     id="path18-3"
     style="stroke-width:0.258694" /><path
     fill="#252528"
     d="m 95.8329,232.05801 c 0.4058,1.58838 1.27187,0.73792 0.48041,3.16845 l 0.48259,-0.46066 c 0.24059,-0.63085 0.2397,-1.5265 0.27155,-2.21825 1.08747,-0.11034 1.64176,-0.08 2.71836,-0.0268 0.0477,1.35227 -0.15004,4.10128 0.13182,5.18147 l 0.1714,-0.14096 0.0511,-0.47116 c -0.0659,-1.70859 0.12293,-3.13998 -0.087,-4.94483 l -3.24752,-0.022 z"
     id="path19-2"
     style="stroke-width:0.258694" /><path
     fill="#252528"
     d="m 89.55771,191.34353 c -0.51569,-0.17075 -0.71072,-0.27909 -1.23111,-0.11583 -0.85014,0.57243 -0.66568,1.94935 -0.65538,2.88825 -0.067,0.80648 -0.0893,1.35189 -0.0779,2.1601 0.55717,1.05284 1.31864,1.10723 2.39526,1.37513 0.86016,0.0437 0.90054,0.0508 1.59796,-0.50154 -0.13475,-0.76318 -0.49682,-0.83277 -1.14924,-1.16807 -0.88307,-0.96688 -0.22206,-1.61906 0.48296,-2.37933 0.2992,-0.14839 0.45875,-0.48146 0.3869,-0.80761 -0.072,-0.32601 -0.35679,-0.56102 -0.69063,-0.56998 -0.0685,-0.002 -0.13706,0.007 -0.20352,0.0236 z"
     id="path20-2"
     style="stroke-width:0.258694" /><path
     fill="#4e505d"
     d="m 87.67122,194.11595 c -0.067,0.80648 -0.0893,1.35189 -0.0779,2.1601 0.51231,0.041 1.05867,0.0744 1.56666,0.13154 0.43454,-1.31067 1.12191,-1.727 -0.16181,-2.56216 -0.60018,-0.25465 -0.82964,-0.009 -1.32691,0.27052 z"
     id="path21-1"
     style="stroke-width:0.258694" /><path
     fill="#6b6c75"
     d="m 89.55771,191.34353 c -0.51569,-0.17075 -0.71072,-0.27909 -1.23111,-0.11583 -0.85014,0.57243 -0.66568,1.94935 -0.65538,2.88825 0.49728,-0.27881 0.72662,-0.52533 1.32691,-0.27052 0.31161,-0.69204 0.43241,-1.72958 0.55958,-2.5019 z"
     id="path22-6"
     style="stroke-width:0.258694" /><path
     fill="#374143"
     d="m 87.59328,196.27605 c 0.55717,1.05284 1.31864,1.10723 2.39526,1.37513 0.86016,0.0437 0.90054,0.0508 1.59796,-0.50154 -0.70506,-0.2548 -1.68992,-0.51822 -2.42656,-0.74205 -0.50799,-0.0571 -1.05435,-0.0905 -1.56666,-0.13154 z"
     id="path23-8"
     style="stroke-width:0.258694" /><path
     fill="#7d7e91"
     d="m 90.41297,192.2482 c -0.26811,0.0706 -0.47269,0.28731 -0.52746,0.55915 -0.0549,0.27164 0.0498,0.55092 0.26958,0.71986 0.21996,0.1688 0.51678,0.19799 0.76513,0.075 0.2992,-0.14839 0.45875,-0.48146 0.3869,-0.80761 -0.072,-0.32601 -0.35679,-0.56102 -0.69063,-0.56998 -0.0685,-0.002 -0.13705,0.007 -0.20352,0.0236 z"
     id="path24-5"
     style="stroke-width:0.258694" /><path
     fill="#252528"
     d="m 105.83899,194.00299 -0.43492,0.0929 c -0.0715,0.15971 -0.41816,8.06701 -0.40118,8.68928 0.0697,2.53336 -0.97456,11.3511 -0.0625,12.82841 0.0653,-0.0355 0.13021,-0.0718 0.1951,-0.10794 0.19584,-1.69087 0.15168,-5.19561 0.2161,-7.10583 z"
     id="path25-7"
     style="stroke-width:0.258694" /><path
     fill="#374143"
     d="m 91.40223,190.842 c -0.11174,0.7832 0.01,1.01868 -0.78574,1.38265 0.33385,0.01 0.6186,0.24397 0.69063,0.56998 0.0718,0.32615 -0.0877,0.65924 -0.3869,0.80761 -0.70502,0.76027 -1.36603,1.41245 -0.48296,2.37933 0.65238,0.33533 1.01449,0.40489 1.14924,1.16807 l 0.19849,0.30783 c 0.6262,-0.51702 -0.07,-1.79008 1.02023,-2.2273 0.13292,-0.55063 0.14075,-1.04613 0.17534,-1.60989 0.10534,-0.99076 -0.041,-1.19679 -0.59826,-1.97251 -0.24833,-0.10096 -0.74846,-0.59725 -0.98009,-0.80576 z"
     id="path26-6"
     style="stroke-width:0.258694" /><path
     fill="url(#gradient_1)"
     d="m 92.32699,193.78745 c -1.28631,0.38469 -1.61305,0.95192 -1.88973,2.19412 0.65238,0.33533 1.01449,0.40489 1.14924,1.16807 l 0.19849,0.30783 c 0.6262,-0.51702 -0.07,-1.79008 1.02023,-2.2273 0.13292,-0.55063 0.14075,-1.04613 0.17534,-1.60989 z"
     id="path27-8"
     style="fill:url(#gradient_1-1);stroke-width:0.258694" /><path
     fill="#171719"
     d="m 92.38231,191.64776 c -0.29022,0.44289 -0.24093,1.67198 -0.0553,2.13969 l 0.65359,-0.16718 c 0.10533,-0.99076 -0.0411,-1.19678 -0.59827,-1.97251 z"
     id="path28-9"
     style="stroke-width:0.258694" /><path
     fill="#374143"
     d="m 95.02975,145.30492 c -0.39304,1.62962 -0.73526,9.59303 -0.0771,11.13736 0.89675,-1.05119 1.08955,-10.47179 0.0771,-11.13736 z"
     id="path29-2"
     style="stroke-width:0.258694" /><path
     fill="#7d7e91"
     d="m 94.08977,225.25808 c 0.45614,-0.73472 0.62552,-21.50304 0.89864,-24.5789 0.0343,-0.38643 0.0716,-0.7162 -0.18166,-1.02093 -0.21516,0.38069 -0.70268,18.56696 -0.84134,20.75379 -0.0891,1.52247 -0.32098,3.40836 0.12436,4.84604 z"
     id="path30-7"
     style="stroke-width:0.258694" /><path
     fill="#9f9fab"
     d="m 109.00022,163.05974 c -0.0821,2.75167 -0.83654,12.84389 0.15893,14.69672 0.37192,0.3342 0.86734,0.49626 1.36478,0.446 0.0498,-0.007 0.0995,-0.0132 0.14927,-0.0197 -0.32385,-0.23847 -0.70411,-0.38165 -1.07455,-0.54617 -0.79419,-0.91542 -0.39709,-12.35213 -0.0663,-14.02107 -0.17261,-0.36494 -0.19948,-0.34818 -0.53206,-0.55584 z"
     id="path31-9"
     style="stroke-width:0.258694" /><path
     fill="#252528"
     d="m 92.83318,183.31011 c -0.65881,0.0793 -0.47838,-0.0399 -0.8679,0.35968 -0.24087,0.60873 -0.13065,1.34528 -0.0936,2.01591 0.53474,1.2779 0.14595,4.40914 0.35052,6.15193 0.84858,-2.30974 1.20959,-6.1568 0.611,-8.52752 z"
     id="path32-5"
     style="stroke-width:0.258694" /><path
     fill="url(#gradient_2)"
     d="m 92.80524,195.23016 c -1.09027,0.43722 -0.39403,1.71029 -1.02024,2.2273 l -0.19849,-0.30783 c -0.69742,0.55226 -0.73783,0.54522 -1.59796,0.50155 l 0.59223,1.41117 c 0.62489,0.35028 1.19395,0.68843 1.85979,0.95647 0.0513,-1.7333 0.17086,-3.06039 0.36467,-4.78866 z"
     id="path33-3"
     style="fill:url(#gradient_2-4);stroke-width:0.258694" /><path
     fill="#9f9fab"
     d="m 104.20569,163.4567 c -0.379,6.78901 -0.45502,13.05177 -0.66355,19.78808 l -0.77632,21.04919 c -0.1271,3.72616 -0.12139,7.61461 -0.33577,11.31015 -0.97247,0.0319 -1.5495,0.0883 -2.23043,0.84403 l 0.24008,0.18618 c 1.00886,-0.60423 1.48443,-0.66936 2.65135,-0.82562 0.47724,-4.0076 0.45469,-8.37223 0.51686,-12.43399 l 0.27514,-18.47838 c 0.0936,-4.26495 0.36782,-8.56943 0.42546,-12.84548 0.0382,-2.83002 0.39585,-5.81085 -0.10284,-8.59414 z"
     id="path34-1"
     style="stroke-width:0.258694" /><path
     fill="#9f9fab"
     d="m 101.045,163.10627 c -0.33703,0.22389 -0.70121,0.50708 -0.90164,0.86614 -0.43235,0.77493 -1.36492,30.16132 -1.27447,33.40635 0.0176,0.62922 0.14464,1.25009 0.28126,1.86288 0.31146,-1.1388 0.29358,-3.48329 0.32542,-4.76395 0.11954,-4.17877 0.40019,-28.77019 1.33939,-30.47711 1.39179,-1.16374 3.51193,-0.49397 5.61188,-0.80217 -1.84845,-0.29417 -3.55208,-0.62927 -5.38184,-0.0921 z"
     id="path35-2"
     style="stroke-width:0.258694" /><path
     fill="#9f9fab"
     d="m 96.50514,155.96422 c -0.81697,3.44549 -0.20867,8.52139 -0.21009,12.18882 -6.9e-4,2.32086 -0.0353,4.24374 -0.16852,6.59162 -0.01,2.53383 0.0878,5.66159 -0.58365,8.07471 0.27878,-0.13245 0.65057,-0.26981 0.83532,-0.52743 0.72536,-1.01089 0.49775,-24.02178 0.12692,-26.32775 z"
     id="path36-3"
     style="stroke-width:0.258694" /><path
     fill="#252528"
     d="m 96.12653,174.74466 -0.58094,-0.14009 c -0.85532,0.8131 -0.39241,11.40243 -0.45175,13.33034 -0.67337,0.63273 -0.64089,2.5794 -0.0924,3.28271 0.0519,0.55868 0.027,0.6482 0.31769,1.10255 0.11515,-0.17803 0.0941,-8.24155 0.22374,-9.5008 0.67144,-2.41312 0.57384,-5.54088 0.58366,-8.07471 z"
     id="path37-3"
     style="stroke-width:0.258694" /><path
     fill="#7d7e91"
     d="m 95.09384,187.93491 c -0.67337,0.63273 -0.64089,2.5794 -0.0924,3.28271 0.0755,-0.96451 0.0705,-2.28754 0.0924,-3.28271 z"
     id="path38-4"
     style="stroke-width:0.258694" /><path
     fill="#9f9fab"
     d="m 100.19962,216.44815 c -0.17143,0.2757 -0.47328,0.83236 -0.47343,1.13411 -9.2e-4,2.42757 -1.00315,12.31349 0.35737,13.7939 l 0.29077,0.0332 c -0.0417,-0.20832 -0.0759,-0.34203 -0.18384,-0.52823 -0.67818,-1.1685 -0.47027,-11.92942 -0.0682,-13.49009 0.069,-0.26747 0.18327,-0.51641 0.31739,-0.75673 z"
     id="path39-1"
     style="stroke-width:0.258694" /><path
     fill="#252528"
     d="m 105.64271,157.55444 c -0.49536,0.96259 -0.6696,4.33178 -0.24986,5.39415 0.80657,-1.03703 0.69026,-4.1673 0.24986,-5.39415 z"
     id="path40-1"
     style="stroke-width:0.258694" /><path
     fill="#9f9fab"
     d="m 101.67882,231.81712 c -0.48772,0.7351 -0.41856,2.9838 -0.0949,3.79353 0.44619,-0.9091 0.77558,-2.93863 0.0949,-3.79353 z"
     id="path41-3"
     style="stroke-width:0.258694" /><path
     fill="url(#gradient_3)"
     d="m 114.56178,161.96404 0.37959,1.00426 c 0.13842,1.21126 0.19751,2.14316 0.0607,3.37436 2.56459,0.0247 30.75678,0.12883 31.34448,0.61 -2.24286,0.41435 -9.05624,0.10607 -11.70004,0.0455 -2.68344,-0.30815 -9.93427,-0.23568 -12.86845,-0.21402 -2.25649,-0.10173 -4.48485,0.005 -6.73307,-0.0679 -0.054,0.32797 -0.10515,0.54405 -0.0861,0.88066 l 0.15803,1.62525 -0.48291,0.0195 -0.1217,0.20749 c 0.20858,0.2101 0.19493,0.19379 0.48638,0.25677 -0.0228,1.3943 -0.0512,2.68461 -0.14354,4.0753 8.52013,0.19142 17.04119,0.33312 25.56295,0.42527 4.3989,0.0624 9.44153,0.3727 13.78179,0.0817 0.53013,-0.5754 0.012,-0.67554 0.50413,-0.87588 l 0.3735,0.29516 c -0.0279,0.54689 0.0482,1.29993 -0.39035,1.65733 6e-5,0.33663 0.0828,0.85847 0.0669,1.05941 0.52794,0.0486 1.3272,0.0194 1.8822,0.0148 0.64451,-3.76497 0.21849,-9.19858 0.3448,-13.09745 0.0329,-1.01356 -1.17813,-0.88679 -1.84613,-0.78536 -1.69526,0.48892 -6.22143,-0.0669 -8.29397,-0.0943 z"
     id="path42-7"
     style="fill:url(#gradient_3-8);stroke-width:0.258694" /><path
     fill="#7d7e91"
     d="m 114.56178,161.96404 0.37959,1.00426 c 3.60086,0.31138 8.38044,0.28474 12.0466,0.35845 5.94838,0.14034 11.89773,0.23986 17.84744,0.29868 1.16585,5.7e-4 7.56227,-0.41532 8.09032,-0.29168 0.43162,-0.082 1.60542,-0.35592 1.9501,-0.22415 l 0.38059,-0.23994 -0.12135,-0.31352 c -1.69525,0.48893 -6.22143,-0.0669 -8.29397,-0.0943 z"
     id="path43-4"
     style="stroke-width:0.258694" /><path
     fill="#7d7e91"
     d="m 115.04499,166.71636 c -0.054,0.32796 -0.10514,0.54404 -0.0861,0.88066 1.2223,0.3687 9.86199,0.29779 11.88838,0.33194 5.62351,0.0947 11.49039,0.29803 17.13186,0.3126 0.85176,0.002 2.19456,-0.0904 2.99648,-0.34158 l 0.26826,-0.25798 c -0.0203,-0.43673 0.0324,-0.26885 -0.27855,-0.63922 -0.25787,-0.0348 -0.3545,-0.0594 -0.61887,-0.0502 -2.24284,0.41436 -9.05624,0.10607 -11.70003,0.0455 -2.68345,-0.30816 -9.93427,-0.23568 -12.86846,-0.21403 -2.25647,-0.10172 -4.48484,0.005 -6.73308,-0.0679 z"
     id="path44-2"
     style="stroke-width:0.258694" /><path
     fill="#6b6c75"
     d="m 121.77806,166.78422 c 0.14605,0.13588 0.49601,0.44 0.69085,0.46248 3.47668,0.40058 7.23475,0.28563 10.74526,0.29784 0.89168,0.003 0.92632,-0.0682 1.43235,-0.54631 -2.68344,-0.30815 -9.93427,-0.23567 -12.86846,-0.21401 z"
     id="path45-7"
     style="stroke-width:0.258694" /><path
     fill="#252528"
     d="m 156.6364,176.43896 c 0.6445,-3.76496 0.21849,-9.19857 0.3448,-13.09745 0.0329,-1.01355 -1.17813,-0.88679 -1.84614,-0.78536 l 0.12136,0.31352 c 0.20835,2.35513 0.003,8.40143 -0.1788,10.8378 -0.0279,0.54689 0.0482,1.29991 -0.39035,1.65732 5e-5,0.33663 0.0828,0.85847 0.0669,1.05941 0.52794,0.0486 1.3272,0.0194 1.8822,0.0148 z"
     id="path46-7"
     style="stroke-width:0.258694" /><path
     fill="#171719"
     d="m 115.11703,169.22227 -0.48291,0.0195 -0.1217,0.20748 c 0.20858,0.21011 0.19493,0.1938 0.48638,0.25678 0.23263,0.017 0.64328,0.0269 0.83303,0.095 0.78356,0.005 1.72026,-0.0151 2.48941,0.0512 1.14815,-0.16284 6.48674,0.0473 7.86855,0.083 4.93907,0.12001 9.87852,0.20374 14.81872,0.25127 1.63099,0.0127 4.63112,0.15997 6.04719,-0.26666 -6.20042,-0.44951 -12.63601,-0.0886 -18.86217,-0.2374 -4.35887,-0.10423 -8.73317,0.0464 -13.0765,-0.46019 z"
     id="path47-9"
     style="stroke-width:0.258694" /><path
     fill="#252528"
     d="m 152.92573,163.33375 c 0.28835,0.16332 0.48507,0.2851 0.75959,0.47172 0.34693,1.48383 -0.0179,2.92252 0.0176,4.4198 0.0342,1.43201 0.52709,2.84188 0.952,4.20282 0.16075,-2.58935 0.10672,-5.18816 0.13983,-7.78138 0.006,-0.51519 -0.0218,-1.03032 0.0811,-1.53711 -0.34468,-0.13177 -1.51848,0.14218 -1.9501,0.22415 z"
     id="path48-3"
     style="stroke-width:0.258694" /><path
     fill="#9f9fab"
     d="m 115.83183,169.80102 c 0.51594,0.53782 1.89852,0.49865 2.48941,0.0512 -0.76915,-0.0664 -1.70585,-0.0468 -2.48941,-0.0512 z"
     id="path49-1"
     style="stroke-width:0.258694" /><path
     fill="#9f9fab"
     d="m 103.52815,121.80405 c 0.74641,-4.78447 -0.26431,-10.63036 -0.0117,-15.42924 0.21342,-4.05031 -0.0142,-7.384374 -0.0341,-11.398033 -0.0172,-2.767941 -0.0176,-5.535895 -6.8e-4,-8.303801 0.008,-0.483857 0.003,-1.071107 0.0478,-1.549797 0.29628,-3.184223 -0.29601,-6.287595 -0.32154,-9.468408 l -0.0666,-15.186326 c -0.0175,-1.507677 0.75783,-7.003467 -2.44363,-4.782886 0.029,2.342228 0.24949,13.406024 -0.18885,14.885671 -0.4683,1.131074 -0.71246,3.1551 -0.65771,4.388241 -0.3198,1.691682 -0.32294,4.904868 -0.37348,6.749686 -0.11145,3.894259 -0.19799,7.789083 -0.26015,11.68456 L 98.99106,105.3487 c -0.0763,3.35301 -0.30597,6.88626 -0.002,10.2234 0.26542,2.91261 -0.45097,5.4778 -1.02678,8.29234 -0.13735,0.67038 0.56833,1.22225 1.09582,1.49631 0.66636,-0.20439 1.25784,-0.43719 1.95252,-0.40615 l 0.19339,0.1318 c 0.62912,-0.18304 1.61103,-0.0904 2.26752,-0.008 0.15193,1.89878 -0.17855,5.7258 0.0954,6.96263 1.03384,-1.9383 1.19988,-4.78723 1.44471,-7.01208 -0.35322,-0.18267 -0.62241,-0.34284 -0.96165,-0.55082 -0.24379,-0.41383 -0.0436,-1.22521 -0.21499,-1.92451 -0.0489,-0.52891 0.0301,-0.32965 -0.30691,-0.75007 z"
     id="path50-9"
     style="stroke-width:0.258694" /><path
     fill="#878f85"
     d="m 100.50875,70.57123 c -0.46831,1.131074 -0.71246,3.1551 -0.65772,4.388241 l 0.0199,0.140462 c 0.26031,1.908207 -0.0815,4.25842 0.9127,5.916943 l 0.61721,-0.490508 0.46503,-0.552526 c -0.0942,-0.31648 -0.0146,-1.235834 -0.0196,-1.64538 -0.0256,-2.014683 0.31979,-4.887951 -0.22326,-6.786721 l -0.0364,-0.293087 c -0.29239,-0.402795 -0.61265,-0.478218 -1.07806,-0.677423 z"
     id="path51-8"
     style="stroke-width:0.258694" /><path
     fill="#171719"
     d="m 100.50875,70.57123 c -0.46831,1.131074 -0.71246,3.1551 -0.65772,4.388241 l 0.0199,0.140462 c 0.26031,1.908207 -0.0815,4.25842 0.9127,5.916943 0.45205,-2.7505 -0.79802,-7.5594 0.83939,-9.475118 l -0.0364,-0.293087 c -0.29239,-0.402796 -0.61265,-0.478218 -1.07806,-0.677424 z"
     id="path52-6"
     style="stroke-width:0.258694" /><path
     fill="#252528"
     d="m 100.82174,88.482243 c -1.31542,1.516587 -1.25433,8.445608 -0.39816,10.194953 l 0.2455,0.14312 c 0.88734,-0.81731 0.49739,-6.032216 0.62527,-7.353857 0.11022,-1.139179 0.7426,-1.425876 0.50854,-2.490072 z"
     id="path53-5"
     style="stroke-width:0.258694" /><path
     fill="#d5d4e1"
     d="m 101.86597,79.973839 -0.46503,0.552525 c -0.37311,0.37629 -0.63508,0.666075 -0.68465,1.216086 -0.18168,2.022777 -0.15209,4.717483 0.10545,6.739793 l 0.98115,0.494144 c 0.0523,0.04273 0.18512,0.08392 0.25695,0.111645 0.57895,-0.74201 0.16447,-7.86724 -0.19387,-9.114193 z"
     id="path54-0"
     style="stroke-width:0.258694" /><path
     fill="#d5d4e1"
     d="m 100.31032,121.91638 -0.39358,2.19824 c 1.212,-0.0186 2.6976,0.27952 3.48201,-0.45272 0.18679,-0.40332 0.29154,-0.68718 0.4363,-1.10777 -0.0489,-0.5289 0.0301,-0.32964 -0.3069,-0.75008 -1.11383,0.16718 -2.09833,0.12998 -3.21783,0.11233 z"
     id="path55-2"
     style="stroke-width:0.258694" /><path
     fill="#252528"
     d="m 100.75199,106.43597 c -1.284,1.57366 -1.19764,3.19624 -1.12453,5.16088 0.0486,1.31016 -0.10781,4.43501 0.74451,5.38702 l 0.23216,-0.0706 c 0.57151,-1.2743 0.28791,-6.06044 0.63768,-7.73702 0.0873,-0.41814 0.47609,-1.89312 0.43091,-2.10592 z"
     id="path56-8"
     style="stroke-width:0.258694" /><path
     fill="#d5d4e1"
     d="m 101.9027,98.764906 c -2.78521,1.435224 0.24811,4.061834 -1.15071,7.671064 l 0.92071,0.63439 c 0.31734,0.0317 0.15486,0.0436 0.48666,-0.15655 0.79495,-1.56762 0.24242,-6.41156 -0.25666,-8.148904 z"
     id="path57-6"
     style="stroke-width:0.258694" /><path
     fill="#7d7e91"
     d="m 181.38264,107.88788 c -1.64982,-0.29827 -4.25108,-0.33738 -5.9956,-0.41123 -3.71818,-0.14812 -7.43733,-0.26911 -11.15709,-0.36289 -10.40471,-0.2064 -20.80497,-0.58354 -31.19705,-1.13155 -1.91131,-0.0939 -6.09316,-0.12903 -7.83953,-0.67042 -1.82202,-0.5651 -1.29136,0.29563 -3.78759,0.23171 -0.0566,1.24845 -0.12522,2.49602 -0.20605,3.74307 3.54475,0.11886 7.33277,0.3232 10.84977,0.37725 0.57937,0.0253 1.20534,0.0401 1.77891,0.0795 15.60166,0.61227 31.48793,0.85319 47.03458,1.59158 -0.0108,0.90854 -0.007,1.1414 -0.25893,2.00279 0.0663,0.62669 0.14347,1.57138 0.2631,2.17758 l 0.14421,0.17128 c 0.65375,0.12127 2.00101,0.0453 2.71869,0.0286 0.39593,-2.81592 0.48969,-8.10977 0.32029,-10.99996 -0.81915,-0.1445 -1.88687,-0.18978 -2.73378,-0.2497 0.0919,0.97873 0.0593,2.40966 0.0661,3.42242 z"
     id="path58-0"
     style="stroke-width:0.258694" /><path
     fill="#252528"
     d="m 181.31655,104.46547 c 0.0919,0.97873 0.0593,2.40966 0.0661,3.42241 0.0423,1.8794 -0.041,5.82064 -0.51549,7.62728 l 0.14422,0.17128 c 0.65374,0.12127 2.00101,0.0453 2.71869,0.0286 0.39592,-2.81592 0.48968,-8.10978 0.32029,-10.99995 -0.81915,-0.14452 -1.88688,-0.1898 -2.73378,-0.24972 z"
     id="path59-2"
     style="stroke-width:0.258694" /><path
     fill="#252528"
     d="m 151.97872,108.11202 c -0.4596,0.23993 -0.65803,0.79245 -0.45627,1.27022 0.20161,0.47756 0.7362,0.72074 1.22856,0.5588 0.35638,-0.11711 0.61689,-0.42491 0.67342,-0.79585 0.0565,-0.37091 -0.10015,-0.74249 -0.40564,-0.96071 -0.30548,-0.2182 -0.70742,-0.24611 -1.04007,-0.0724 z"
     id="path60-4"
     style="stroke-width:0.258694" /><path
     fill="#6b6c75"
     d="m 101.20401,125.08641 -0.1934,-0.1318 c -0.69467,-0.031 -1.28615,0.20176 -1.95251,0.40615 0.45443,1.25435 -0.0931,6.1489 -0.053,7.93055 l -0.0705,0.67838 c -0.16796,2.95001 -0.29338,7.43367 -0.65222,10.22966 l -1.36429,0.2859 c -0.0367,0.79754 -0.0755,1.82072 0.23699,2.56263 0.45527,-1.01087 0.42723,-1.64942 0.7479,-2.5945 1.11072,0.0395 5.53943,-0.0663 6.18967,0.031 -0.0191,-0.95998 0.0106,-1.11416 -0.46544,-1.9233 0.2543,-2.63426 -0.0444,-7.57968 -0.0602,-10.51961 -0.274,-1.23681 0.0565,-5.06383 -0.0954,-6.96262 -0.6565,-0.083 -1.6384,-0.17556 -2.26752,0.008 z"
     id="path61-8"
     style="stroke-width:0.258694" /><path
     fill="#d5d4e1"
     d="m 103.47154,125.07891 c -0.65651,-0.083 -1.63841,-0.17555 -2.26753,0.008 -0.34792,3.00856 0.11044,5.4714 0.0271,8.30904 -0.0858,2.91289 -0.85666,7.04324 -0.0646,10.04518 1.01575,0.32594 1.45863,-0.55849 2.46072,-0.87949 0.25429,-2.63427 -0.0444,-7.57968 -0.0602,-10.51959 -0.27401,-1.23684 0.0565,-5.06386 -0.0954,-6.96264 z"
     id="path62-6"
     style="stroke-width:0.258694" /><path
     fill="#374143"
     d="m 98.93458,133.96969 0.58396,-0.21401 c 0.57436,-0.92534 0.45076,-3.40283 0.75166,-4.83569 l 0.0196,-0.0905 -0.18343,-0.10999 c -0.904,0.76529 -0.008,3.74825 -1.10137,4.57186 z"
     id="path63-5"
     style="stroke-width:0.258694" /><path
     fill="#d5d4e1"
     d="m 104.09263,144.48445 c -0.65024,-0.0973 -5.07895,0.009 -6.18966,-0.031 -0.32068,0.94509 -0.29264,1.58363 -0.7479,2.5945 -0.0394,0.88514 -0.28532,5.58558 -0.009,5.95726 l 0.0459,0.009 0.43285,-0.11663 0.14676,0.14621 c -0.0202,0.75891 -0.79091,1.74087 -0.7592,2.18632 0.1135,1.59385 5.07165,0.98125 6.1471,0.92161 -0.11521,-2.84407 0.10725,-9.21645 0.93233,-11.66668 z"
     id="path64-0"
     style="stroke-width:0.258694" /><path
     fill="#d5d4e1"
     d="m 100.98945,31.722148 c -0.2188,0.05587 -0.55189,0.08746 -0.60688,0.324433 -0.72838,3.136915 -0.67196,7.597927 -0.78147,10.760123 -0.0697,2.016287 0.15325,4.423312 -0.33607,5.951705 0.98835,-0.06208 2.33117,-0.185399 3.29297,-0.144313 0.97776,0.128052 1.53964,-0.709999 1.25773,-1.53439 -0.0376,-0.03283 -0.24038,-0.221981 -0.2641,-0.236475 -0.55867,-0.337019 0.46865,-1.250762 0.44996,-2.306893 -0.0241,-1.373626 -0.67168,-3.259127 -0.62027,-4.57329 0.11262,-2.875843 0.67208,-5.383708 0.56933,-8.320817 -1.24083,-0.231796 -1.76102,-0.297055 -2.96116,0.07989 z"
     id="path65-9"
     style="stroke-width:0.258694" /><path
     fill="#5c735c"
     d="m 103.95062,31.642255 c -1.24084,-0.231796 -1.76103,-0.297055 -2.96117,0.07989 0.63962,-0.01192 1.27907,-0.03072 1.91825,-0.05698 -0.0425,4.587519 0.0115,9.222936 -0.25731,13.80414 -0.0134,0.228765 -0.41734,1.023754 -0.53831,1.266398 0.55194,0.267327 0.53669,0.143228 0.69296,0.56257 -0.0742,0.427529 -0.14467,0.898296 -0.24704,1.315825 0.97776,0.128051 1.53964,-0.709999 1.25773,-1.53439 -0.0376,-0.03283 -0.24038,-0.221982 -0.2641,-0.236476 -0.55867,-0.337019 0.46865,-1.250761 0.44996,-2.306892 -0.0241,-1.373626 -0.67168,-3.259129 -0.62027,-4.57329 0.11262,-2.875843 0.67209,-5.383708 0.56933,-8.320817 z"
     id="path66-0"
     style="stroke-width:0.258694" /><path
     fill="#7d7e91"
     d="m 109.67993,176.94189 0.54314,-0.46907 c 0.48825,0.0226 0.53746,0.20416 0.97889,0.58238 l 0.21177,-0.15437 c 0.54418,-1.6866 0.93106,-12.08526 0.53615,-13.6461 -0.49638,-0.68788 -2.04602,-1.25654 -2.78991,-1.00664 l -0.30139,0.66591 0.1418,0.14595 c 0.33262,0.20766 0.35944,0.19092 0.53207,0.55585 -0.33071,1.66895 -0.72782,13.10566 0.0663,14.02107 z"
     id="path67-0"
     style="stroke-width:0.258694" /><path
     fill="#252528"
     d="m 109.67993,176.94189 c -0.61889,-0.90373 0.44769,-12.32985 0.4804,-14.06248 l -0.12789,-0.034 -0.50015,0.77014 c -0.33072,1.66894 -0.72782,13.10565 0.0663,14.02107 z"
     id="path68-6"
     style="stroke-width:0.258694" /><path
     fill="#7d7e91"
     d="m 118.06025,103.99254 c -0.079,-0.57905 -0.37485,-1.14399 -1.01426,-1.08255 -0.7387,0.64909 -0.68437,1.00853 -0.7766,1.98605 -0.59214,0.12944 -1.40706,0.23031 -2.02372,0.32386 0.32157,1.80017 0.58452,2.77198 0.01,4.54958 l 1.6789,0.11399 c 0.024,-1.58782 -0.0201,-3.69397 0.38188,-5.17846 0.36173,1.97934 0.32412,3.17304 0.24357,5.19424 l 4.10489,0.25129 c 0.002,-1.33785 -0.049,-3.77675 0.24104,-4.9741 -0.0262,-0.39302 -0.0649,-0.41305 -0.30773,-0.74502 -0.98956,-0.51165 -1.65847,0.36631 -2.5378,-0.43888 z"
     id="path69-1"
     style="stroke-width:0.258694" /><path
     fill="#6b6c75"
     d="m 118.06025,103.99254 c -0.079,-0.57905 -0.37485,-1.14399 -1.01426,-1.08255 -0.7387,0.64909 -0.68437,1.00853 -0.7766,1.98605 0.92284,-0.16216 1.60137,0.042 1.58385,-0.93891 0.19884,0.0196 0.15147,-9.7e-4 0.20701,0.0354 z"
     id="path70-3"
     style="stroke-width:0.258694" /><path
     fill="#d5d4e1"
     d="m 103.1228,49.299317 c -0.88708,-0.0129 -1.72709,-0.0507 -2.6083,0.0736 -0.24756,1.272554 -0.0333,2.476426 -0.44079,3.752407 -0.0219,0.360088 -0.0538,1.265573 -0.13567,1.571535 0.38732,0.300214 2.63797,0.07678 3.25466,0.0396 0.24095,-1.408588 -0.31277,-1.813193 -0.26775,-2.061801 0.27549,-1.519703 0.42756,-1.775781 0.19785,-3.375339 z"
     id="path71-8"
     style="stroke-width:0.258694" /><path
     fill="#9f9fab"
     d="m 106.53145,188.15679 c -0.90762,0.74693 -0.4948,4.64167 -0.69246,5.8462 l -0.4874,14.39684 c -0.0644,1.91022 -0.0202,5.41496 -0.2161,7.10583 l 0.20823,0.38394 c 0.31464,-1.08822 0.29683,-5.69546 0.33649,-7.09516 l 0.41515,-11.52865 c 0.0965,-3.05476 0.0681,-6.07294 0.43606,-9.10898 z"
     id="path72-9"
     style="stroke-width:0.258694" /><path
     fill="#4e505d"
     d="m 133.82841,109.74321 c -0.57357,-0.0393 -1.19954,-0.0541 -1.77891,-0.0795 0.19896,0.51958 0.2137,0.71348 0.68514,0.99596 0.66491,-0.0134 0.8028,-0.347 1.09379,-0.91656 z"
     id="path73-3"
     style="stroke-width:0.258694" /><path
     fill="#7d7e91"
     d="m 154.70413,173.4123 c -0.0169,0.57242 -0.0654,1.40381 -0.0169,1.95249 0.43857,-0.35746 0.36242,-1.11045 0.39035,-1.65733 z"
     id="path74-4"
     style="stroke-width:0.258694" /><path
     fill="#7d7e91"
     d="m 110.01766,103.95912 -3.17216,-0.10299 c 0.1435,2.11188 0.006,3.79173 -0.12092,5.89559 0.39651,0.37068 0.64971,0.70768 1.16404,0.76475 l 0.24063,-0.0703 0.67451,-0.0676 c 2.1308,0.44202 2.9077,0.30952 4.51885,-1.21309 0.0338,-0.18612 0.0659,-0.3729 0.096,-0.55982 0.41402,-2.5875 -0.70315,-4.31978 -3.40096,-4.64661 z"
     id="path75-4"
     style="stroke-width:0.258694" /><path
     fill="#9f9fab"
     d="m 110.01766,103.95912 -3.17216,-0.10299 c 0.1435,2.11188 0.006,3.79173 -0.12092,5.89559 0.39651,0.37068 0.64971,0.70768 1.16404,0.76475 l 0.24063,-0.0703 0.67451,-0.0676 c 0.46606,-1.60023 0.90678,-4.6818 1.21392,-6.41951 z"
     id="path76-6"
     style="stroke-width:0.258694" /><path
     fill="#6b6c75"
     d="m 105.28691,72.992131 c -0.35154,1.185436 -0.13097,7.093088 0.30861,8.363547 0.5727,-2.093431 0.53782,-6.385197 -0.30861,-8.363547 z"
     id="path77-0"
     style="stroke-width:0.258694" /><path
     fill="#7d7e91"
     d="m 106.72458,109.75172 -0.20777,3.33183 1.5535,0.0387 c -0.01,-0.61093 -0.0809,-2.16481 0.059,-2.6761 l -0.24059,0.0703 c -0.5143,-0.057 -0.76751,-0.39406 -1.16402,-0.76475 z"
     id="path78-6"
     style="stroke-width:0.258694" /><path
     fill="#6b6c75"
     d="m 106.11613,92.154851 c -0.41705,0.992656 -0.11904,5.605985 -0.0672,6.918545 0.68611,-1.13335 0.21268,-5.506656 0.0672,-6.918545 z"
     id="path79-6"
     style="stroke-width:0.258694" /><path
     fill="#8c6350"
     d="m 109.75291,234.63082 -1.52817,0.1176 c -0.007,1.18624 0.014,1.71751 -0.43694,2.82342 -0.42853,0.0619 -1.32585,0.16913 -1.69966,0.27838 0.007,0.6955 0.052,1.1083 -0.18969,1.76194 l -0.21324,0.1825 c -0.004,2.6618 6.14992,9.30287 6.14534,13.99246 -0.008,7.52713 -5.21414,11.6928 -4.12168,19.471 0.42573,4.212 -0.34248,10.50659 -0.26268,14.90879 0.0343,1.90897 0.0334,8.32936 -1.33177,9.38031 l -0.0792,0.97447 c 0.48035,1.26029 1.44101,2.59281 2.99116,2.20875 0.36197,-0.54347 0.44429,-0.64082 0.53493,-1.30793 1.4058,-0.45556 32.64962,1.17878 33.2781,1.51408 0.37632,0.20109 0.76664,0.76798 1.04211,1.09564 0.30118,0.44938 0.46614,0.6494 0.82949,1.0541 l -0.0486,-0.0925 0.37032,0.31689 c 0.0709,-0.586 -1.52265,-3.31133 -1.8742,-3.95065 -0.22399,-0.69274 0.0175,-2.03838 -0.14147,-2.86375 -0.71645,-3.73119 -1.57366,-7.25931 -3.45511,-10.56773 -0.63643,-0.25634 -1.34049,-0.49913 -1.98704,-0.73542 -0.73999,-0.93047 -1.31266,-1.72948 -2.26444,-2.38675 -2.54485,-1.75854 -6.31101,-1.88145 -7.99956,-4.85573 -2.28432,-4.02363 -4.30131,-11.02566 -1.35652,-15.13699 1.632,-2.27844 3.71955,-3.57947 4.32747,-6.677 0.81079,-4.09844 -3.6386,-5.60312 -6.21152,-7.65839 -3.88676,-3.10483 -8.11842,-7.52836 -7.05466,-12.94721 -0.52392,-0.10462 -0.61594,-0.0997 -1.0651,-0.36406 l -0.60881,-0.17045 c -1.02121,0.8912 0.16331,5.51308 0.15451,6.90207 -1.04398,-1.69154 -0.91901,-4.73423 -0.97429,-6.75564 -1.39427,-0.25694 -3.34746,-0.39495 -4.76909,-0.51218 z"
     id="path80-1"
     style="stroke-width:0.258694" /><path
     fill="#252528"
     d="m 115.95059,235.16702 -0.6088,-0.17044 c -1.02122,0.8912 0.16331,5.51307 0.15449,6.90207 1.38191,3.0901 2.36031,4.49524 4.7715,6.81002 2.50485,2.40483 8.737,3.03157 6.88327,7.1555 -1.73924,3.86874 -4.32168,5.0497 -5.59899,9.69856 1.00248,2.4262 0.81785,4.21381 0.4119,6.75092 0.81145,2.91984 2.35284,7.18981 4.92544,8.94974 3.45112,2.89919 10.44041,3.53885 11.6642,8.93771 0.36694,1.78131 0.88097,3.441 1.37227,5.18391 0.31742,1.12569 0.82604,2.49626 0.2257,3.56768 0.74218,0.0307 2.49799,-9.2e-4 3.00698,0.40737 -0.22399,-0.69274 0.0175,-2.03839 -0.14147,-2.86376 -0.71645,-3.73119 -1.57368,-7.2593 -3.45512,-10.56773 -0.63641,-0.25635 -1.34048,-0.49913 -1.98704,-0.73542 -0.73999,-0.93047 -1.31266,-1.72948 -2.26443,-2.38675 -2.54484,-1.75854 -6.311,-1.88145 -7.99957,-4.85573 -2.28431,-4.02363 -4.3013,-11.02566 -1.35652,-15.13699 1.63201,-2.27844 3.71956,-3.57947 4.32748,-6.677 0.81078,-4.09844 -3.63861,-5.60311 -6.21153,-7.65838 -3.88676,-3.10484 -8.11841,-7.52837 -7.05465,-12.94722 -0.52393,-0.10461 -0.61594,-0.0997 -1.06511,-0.36406 z"
     id="path81-8"
     style="stroke-width:0.258694" /><path
     fill="#4e3630"
     d="m 138.99176,287.08983 c -1.77201,-1.26573 -7.8393,-5.54255 -9.5219,-5.92241 -0.74437,-0.16762 -0.92709,0.26843 -1.53863,0.29458 -0.28638,0.0124 -0.74941,-0.14491 -1.04183,-0.19861 3.45112,2.89919 10.44041,3.53885 11.6642,8.93771 0.75778,-1.07302 0.67188,-1.8968 0.43816,-3.11127 z"
     id="path82-4"
     style="stroke-width:0.258694" /><path
     fill="#374143"
     d="m 106.1144,297.54718 -0.0792,0.97447 c 0.48035,1.26029 1.44101,2.59282 2.99116,2.20876 0.36197,-0.54348 0.44429,-0.64082 0.53494,-1.30794 1.4058,-0.45555 32.64962,1.17878 33.27809,1.51409 0.37632,0.20108 0.76664,0.76797 1.04211,1.09564 0.30118,0.44937 0.46615,0.64939 0.82949,1.05409 l -0.0486,-0.0925 0.37032,0.31689 c 0.0709,-0.586 -1.52265,-3.31133 -1.8742,-3.95064 -0.50898,-0.40841 -2.2648,-0.37671 -3.00699,-0.40736 -3.25686,0.009 -7.47458,-0.30381 -10.78597,-0.47337 l -18.57183,-0.96131 -2.06845,-0.14504 c -0.96755,-0.0185 -1.65733,0.0677 -2.6109,0.1742 z"
     id="path83-9"
     style="stroke-width:0.258694" /><path
     fill="#d5d4e1"
     d="m 106.1144,297.54718 -0.0792,0.97447 c 0.98809,-0.40077 1.64259,-0.39949 2.69613,-0.33447 11.27711,0.70348 22.87516,0.78467 34.11529,1.68989 0.25887,0.51479 0.87182,1.66071 1.03488,2.15513 0.30118,0.44937 0.46615,0.64939 0.82949,1.05409 l -0.0486,-0.0925 0.37032,0.31689 c 0.0709,-0.586 -1.52265,-3.31133 -1.8742,-3.95064 -0.50898,-0.40841 -2.2648,-0.37671 -3.00699,-0.40736 -3.25686,0.009 -7.47458,-0.30381 -10.78597,-0.47337 l -18.57183,-0.96131 -2.06845,-0.14504 c -0.96755,-0.0185 -1.65733,0.0677 -2.6109,0.1742 z"
     id="path84-6"
     style="stroke-width:0.258694" /><path
     fill="#252528"
     d="m 109.56136,299.42247 c -0.68104,-0.005 -1.15114,-0.0745 -1.79803,0.13212 l -0.038,0.20249 c 0.44229,0.37985 0.58474,0.53871 1.15544,0.7244 l 0.14571,0.24892 c 0.36195,-0.54349 0.44426,-0.64083 0.53492,-1.30793 z"
     id="path85-3"
     style="stroke-width:0.258694" /><path
     fill="#4e3630"
     d="m 121.55206,265.56273 c -1.05459,2.75902 -0.89891,3.80723 0.31395,6.53207 l 0.0979,0.21885 c 0.40595,-2.53711 0.59058,-4.32471 -0.4119,-6.75092 z"
     id="path86-7"
     style="stroke-width:0.258694" /><path
     fill="#debaa8"
     d="m 110.0771,244.78627 c 1.56961,2.71066 3.06796,8.67673 2.96104,11.94982 -0.0839,3.90026 -2.84108,7.07196 -3.43683,10.87642 -1.23868,7.90691 -0.27124,16.07687 -0.81126,24.06735 -0.10091,1.49402 -0.21638,3.96771 -0.11053,5.37883 0.72497,0.0271 1.50324,0.0797 2.21948,-0.002 0.25879,-0.13812 0.24009,-0.15973 0.45469,-0.37755 0.67429,-2.04824 0.46924,-5.83682 0.5623,-8.04504 0.2515,-5.97854 -0.35943,-12.46866 0.31439,-18.39891 0.52547,-4.62291 4.06833,-10.113 3.62378,-15.21988 -0.43575,-5.00553 -2.35027,-7.13656 -5.77706,-10.22937 z"
     id="path87-8"
     style="stroke-width:0.258694" /><path
     fill="#8c6350"
     d="m 117.27551,216.85222 c -0.13686,0.74776 -0.26093,1.4978 -0.37239,2.24991 l -0.47585,-0.9485 c -0.29954,3.81244 -0.44344,7.85709 -0.42777,11.68489 0.006,1.44125 0.34018,2.94842 0.41685,4.38941 0.0228,0.42824 -0.12898,0.64081 -0.46576,0.93909 0.44917,0.26438 0.54118,0.25945 1.06511,0.36406 1.66044,-3.86626 4.1411,-4.53617 7.39458,-2.04606 0.30915,0.23663 1.25049,1.03901 1.56179,1.19348 1.54705,1.56268 6.0064,5.15029 8.00798,5.831 3.43235,1.16723 6.46519,-3.42462 7.20024,-6.28664 1.05791,-4.00268 -2.95606,-4.02974 -5.55643,-5.4493 -2.17291,-1.18576 -3.77904,-3.57301 -5.63614,-4.69513 -1.81984,-1.09951 -4.39448,-0.63094 -5.75172,-3.22689 -1.44196,-2.75775 1.00373,-4.85813 1.7144,-7.50487 l 0.0501,-0.18885 -0.56354,0.26018 c -0.0718,-0.62329 -0.0438,-0.61703 -0.50308,-0.97002 -0.33563,3.1268 -1.71363,4.86798 -4.843,5.35759 -1.37835,-0.0906 -1.6854,-0.17493 -2.81532,-0.95335 z"
     id="path88-8"
     style="stroke-width:0.258694" /><path
     fill="#252528"
     d="m 125.43692,213.418 c -0.0718,-0.62329 -0.0438,-0.61703 -0.50309,-0.97002 -0.33562,3.1268 -1.71363,4.86798 -4.84299,5.35759 0.57328,0.26377 2.05705,0.67813 2.15551,0.73895 0.14249,0.50123 0.2373,0.79463 0.43657,1.27517 l -0.24961,-0.10897 c 1.17477,3.16625 2.73327,4.92713 6.13196,5.45283 0.75915,0.58863 1.60461,1.54969 2.31147,2.24689 1.65329,1.63035 3.07838,2.30091 5.06977,3.30491 1.00178,0.60226 3.40241,1.23459 3.49653,2.60412 0.0956,1.39203 -0.89145,2.97597 -1.77068,3.96775 -2.04546,2.30725 -3.97196,2.39086 -6.30128,0.50268 -2.12895,-0.65452 -4.07641,-2.92367 -5.39901,-3.1114 1.54705,1.56268 6.0064,5.15029 8.00798,5.831 3.43235,1.16723 6.46519,-3.42462 7.20024,-6.28664 1.05791,-4.00268 -2.95606,-4.02974 -5.55643,-5.4493 -2.17291,-1.18576 -3.77904,-3.57301 -5.63614,-4.69513 -1.81984,-1.09951 -4.39448,-0.63094 -5.75172,-3.22689 -1.44196,-2.75775 1.00373,-4.85813 1.7144,-7.50487 l 0.0501,-0.18885 z"
     id="path89-2"
     style="stroke-width:0.258694" /><path
     fill="#4e505d"
     d="m 125.43692,213.418 c -0.0718,-0.62329 -0.0438,-0.61703 -0.50309,-0.97002 -0.33562,3.1268 -1.71363,4.86798 -4.84299,5.35759 0.57328,0.26377 2.05705,0.67813 2.15551,0.73895 0.46648,0.0131 0.35049,0.0738 0.71147,-0.12563 0.93316,-1.51179 2.06896,-3.28731 2.4791,-5.00089 z"
     id="path90-9"
     style="stroke-width:0.258694" /><path
     fill="url(#gradient_4)"
     d="m 116.42727,218.15363 c -0.29954,3.81244 -0.44344,7.85709 -0.42777,11.68489 0.006,1.44125 0.34018,2.94842 0.41685,4.38941 0.0228,0.42824 -0.12898,0.64081 -0.46576,0.93909 0.44917,0.26438 0.54118,0.25945 1.06511,0.36406 1.66044,-3.86626 4.1411,-4.53617 7.39458,-2.04606 0.30915,0.23663 1.25049,1.03901 1.56179,1.19348 1.3226,0.18773 3.27006,2.45688 5.39901,3.1114 -0.10283,-0.10991 -0.20837,-0.21725 -0.31652,-0.32175 -0.87341,-0.85279 -6.8209,-5.55615 -7.74257,-6.01052 -0.66663,-0.33432 -1.40643,-0.49601 -2.15147,-0.4708 -1.2099,0.0317 -2.59211,0.68816 -3.40581,1.56407 -0.0365,-0.38246 -0.32102,-1.21451 -0.40313,-2.04321 -0.34573,-3.73788 -0.24556,-7.50331 0.29791,-11.21736 l -0.38604,0.32279 -0.2189,-0.0941 -0.14148,-0.41691 z"
     id="path91-3"
     style="fill:url(#gradient_4-1);stroke-width:0.258694" /><path
     fill="#debaa8"
     d="m 117.26349,219.61313 c -0.37418,1.22176 -0.66429,12.3507 -0.23589,13.4043 0.37897,-0.1225 0.42108,-0.19291 0.72714,-0.46655 -0.0365,-0.38247 -0.32102,-1.21451 -0.40315,-2.04322 -0.34571,-3.73787 -0.24554,-7.50329 0.29793,-11.21736 z"
     id="path92-5"
     style="stroke-width:0.258694" /><path
     fill="#171719"
     d="m 117.27551,216.85222 c -0.13686,0.74776 -0.26093,1.4978 -0.37239,2.24991 l 0.1415,0.41691 0.21887,0.0941 0.38606,-0.32279 c 0.98149,-1.0627 3.25956,-1.20231 4.40149,-0.37521 l 0.38229,0.79562 0.24961,0.10896 c -0.19927,-0.48053 -0.29408,-0.77393 -0.43657,-1.27517 -0.0984,-0.0609 -1.58223,-0.47517 -2.15552,-0.73895 -1.37835,-0.0907 -1.6854,-0.17492 -2.81531,-0.95335 z"
     id="path93-9"
     style="stroke-width:0.258694" /><path
     fill="#4e505d"
     d="m 93.5489,231.85855 c -0.59794,0.30716 -0.71262,0.35992 -1.2104,0.83313 -1.12747,2.92986 2.45162,4.66185 3.97483,2.53481 0.79145,-2.43054 -0.0746,-1.58008 -0.48041,-3.16846 -0.73279,-0.27566 -1.52233,-0.25607 -2.28401,-0.19947 z"
     id="path94-8"
     style="stroke-width:0.258694" /><path
     fill="#7d7e91"
     d="m 93.5489,231.85855 c -0.59794,0.30716 -0.71262,0.35992 -1.2104,0.83313 0.0755,0.48785 0.0864,1.07782 0.55112,1.29097 0.5078,-0.46062 0.57031,-1.45023 0.65929,-2.12409 z"
     id="path95-4"
     style="stroke-width:0.258694" /><path
     fill="#252528"
     d="m 118.86579,206.23544 c 0.5337,0.31866 0.97614,0.42289 1.1536,0.88148 l -0.36455,0.24718 c 3.17374,0.3952 5.22888,1.56333 5.27897,5.08387 0.4593,0.35298 0.43122,0.34672 0.50309,0.97001 l 0.56354,-0.26018 c 0.84693,-3.93012 -2.39457,-6.19251 -5.85242,-6.8041 -0.55087,0.18292 -0.63765,0.0453 -1.28225,-0.11828 z"
     id="path96-0"
     style="stroke-width:0.258694" /><path
     fill="#4e505d"
     d="m 117.22745,212.73142 0.0926,0.28954 c -0.20672,0.2173 -0.45064,0.4444 -0.59765,0.70001 l 0.23007,0.42942 c 2.1622,0.35227 4.22785,0.70315 6.03491,-0.88372 -0.25311,-0.006 -0.24924,-0.0242 -0.49839,-0.0908 l -0.0326,-0.41647 c -1.43322,1.01603 -3.7509,0.70892 -5.22906,-0.028 z"
     id="path97-7"
     style="stroke-width:0.258694" /><path
     fill="#171719"
     d="m 122.98746,213.26667 c 0.39501,-0.42962 0.74657,-0.88822 0.77325,-1.47943 l -0.18592,-0.14483 c -0.50755,0.15721 -0.77792,0.66102 -1.11831,1.117 l 0.0325,0.41647 c 0.24915,0.0666 0.24529,0.0857 0.4984,0.0908 z"
     id="path98-6"
     style="stroke-width:0.258694" /></svg>
