<?xml version="1.0" encoding="UTF-8" standalone="no"?>
<svg
   width="63mm"
   height="88mm"
   version="1.1"
   id="svg90"
   sodipodi:docname="item-mg-50-m2hb.svg"
   inkscape:version="1.4.2 (ebf0e94, 2025-05-08)"
   xml:space="preserve"
   xmlns:inkscape="http://www.inkscape.org/namespaces/inkscape"
   xmlns:sodipodi="http://sodipodi.sourceforge.net/DTD/sodipodi-0.dtd"
   xmlns="http://www.w3.org/2000/svg"
   xmlns:svg="http://www.w3.org/2000/svg"><sodipodi:namedview
     id="namedview90"
     pagecolor="#ffffff"
     bordercolor="#000000"
     borderopacity="0.25"
     inkscape:showpageshadow="2"
     inkscape:pageopacity="0.0"
     inkscape:pagecheckerboard="0"
     inkscape:deskcolor="#d1d1d1"
     inkscape:document-units="mm"
     inkscape:zoom="0.68416668"
     inkscape:cx="-176.85749"
     inkscape:cy="143.97076"
     inkscape:window-width="1920"
     inkscape:window-height="1009"
     inkscape:window-x="-8"
     inkscape:window-y="-8"
     inkscape:window-maximized="1"
     inkscape:current-layer="svg90" /><defs
     id="defs23"><linearGradient
       id="gradient_0"
       gradientUnits="userSpaceOnUse"
       x1="727.90369"
       y1="1046.7745"
       x2="688.52625"
       y2="1052.9758"
       gradientTransform="matrix(-0.12326091,0.19900355,0.19900355,0.12326091,47.797796,-55.564933)"><stop
         offset="0"
         stop-color="#541E03"
         id="stop22" /><stop
         offset="1"
         stop-color="#390E0C"
         id="stop23" /></linearGradient><linearGradient
       id="gradient_35"
       gradientUnits="userSpaceOnUse"
       x1="327.46082"
       y1="325.7832"
       x2="327.61734"
       y2="307.80286"
       gradientTransform="matrix(0.22401176,0,0,0.22401176,-11.287304,66.939017)"><stop
         offset="0"
         stop-color="#605750"
         id="stop335" /><stop
         offset="1"
         stop-color="#938D73"
         id="stop336" /></linearGradient><linearGradient
       id="gradient_34"
       gradientUnits="userSpaceOnUse"
       x1="792.55402"
       y1="583.3559"
       x2="722.16492"
       y2="556.04443"
       gradientTransform="matrix(0.22401176,0,0,0.22401176,-11.287304,66.939017)"><stop
         offset="0"
         stop-color="#353536"
         id="stop332" /><stop
         offset="1"
         stop-color="#565150"
         id="stop333" /></linearGradient><linearGradient
       id="gradient_33"
       gradientUnits="userSpaceOnUse"
       x1="315.82199"
       y1="325.36209"
       x2="320.10907"
       y2="267.79623"
       gradientTransform="matrix(0.22401176,0,0,0.22401176,-11.287304,66.939017)"><stop
         offset="0"
         stop-color="#494444"
         id="stop327" /><stop
         offset="1"
         stop-color="#766C5C"
         id="stop328" /></linearGradient><linearGradient
       id="gradient_32"
       gradientUnits="userSpaceOnUse"
       x1="256.21817"
       y1="387.13989"
       x2="253.56825"
       y2="318.6929"
       gradientTransform="matrix(0.22401176,0,0,0.22401176,-11.287304,66.939017)"><stop
         offset="0"
         stop-color="#312A2E"
         id="stop311" /><stop
         offset="1"
         stop-color="#686052"
         id="stop312" /></linearGradient><linearGradient
       id="gradient_31"
       gradientUnits="userSpaceOnUse"
       x1="310.40659"
       y1="294.13779"
       x2="295.2359"
       y2="274.89349"
       gradientTransform="matrix(0.22401176,0,0,0.22401176,-11.287304,66.939017)"><stop
         offset="0"
         stop-color="#706553"
         id="stop288" /><stop
         offset="1"
         stop-color="#A2997B"
         id="stop289" /></linearGradient><linearGradient
       id="gradient_30"
       gradientUnits="userSpaceOnUse"
       x1="302.80927"
       y1="295.06787"
       x2="304.27039"
       y2="278.65933"
       gradientTransform="matrix(0.22401176,0,0,0.22401176,-11.287304,66.939017)"><stop
         offset="0"
         stop-color="#BAB799"
         id="stop284" /><stop
         offset="1"
         stop-color="#F5F3CD"
         id="stop285" /></linearGradient><linearGradient
       id="gradient_29"
       gradientUnits="userSpaceOnUse"
       x1="297.84222"
       y1="322.41846"
       x2="298.36368"
       y2="288.32428"
       gradientTransform="matrix(0.22401176,0,0,0.22401176,-11.287304,66.939017)"><stop
         offset="0"
         stop-color="#766E5C"
         id="stop282" /><stop
         offset="1"
         stop-color="#C2C19C"
         id="stop283" /></linearGradient><linearGradient
       id="gradient_28"
       gradientUnits="userSpaceOnUse"
       x1="237.21286"
       y1="304.4924"
       x2="237.1563"
       y2="287.41296"
       gradientTransform="matrix(0.22401176,0,0,0.22401176,-11.287304,66.939017)"><stop
         offset="0"
         stop-color="#B8B696"
         id="stop280" /><stop
         offset="1"
         stop-color="#D6D6BA"
         id="stop281" /></linearGradient><linearGradient
       id="gradient_27"
       gradientUnits="userSpaceOnUse"
       x1="233.32074"
       y1="322.61078"
       x2="232.98154"
       y2="310.35925"
       gradientTransform="matrix(0.22401176,0,0,0.22401176,-11.287304,66.939017)"><stop
         offset="0"
         stop-color="#7F7761"
         id="stop277" /><stop
         offset="1"
         stop-color="#958E72"
         id="stop278" /></linearGradient><linearGradient
       id="gradient_26"
       gradientUnits="userSpaceOnUse"
       x1="258.31696"
       y1="287.58771"
       x2="258.10553"
       y2="254.94887"
       gradientTransform="matrix(0.22401176,0,0,0.22401176,-11.287304,66.939017)"><stop
         offset="0"
         stop-color="#E9EAC7"
         id="stop275" /><stop
         offset="1"
         stop-color="white"
         id="stop276" /></linearGradient><linearGradient
       id="gradient_25"
       gradientUnits="userSpaceOnUse"
       x1="862.9787"
       y1="597.97766"
       x2="809.01105"
       y2="564.31061"
       gradientTransform="matrix(0.22401176,0,0,0.22401176,-11.287304,66.939017)"><stop
         offset="0"
         stop-color="#524844"
         id="stop257" /><stop
         offset="1"
         stop-color="#696256"
         id="stop258" /></linearGradient><linearGradient
       id="gradient_24"
       gradientUnits="userSpaceOnUse"
       x1="859.70184"
       y1="544.60834"
       x2="811.56274"
       y2="503.75955"
       gradientTransform="matrix(0.22401176,0,0,0.22401176,-11.287304,66.939017)"><stop
         offset="0"
         stop-color="#908B71"
         id="stop250" /><stop
         offset="1"
         stop-color="#AAA488"
         id="stop251" /></linearGradient><linearGradient
       id="gradient_23"
       gradientUnits="userSpaceOnUse"
       x1="599.8653"
       y1="315.8555"
       x2="585.5694"
       y2="271.56104"
       gradientTransform="matrix(0.22401176,0,0,0.22401176,-11.287304,66.939017)"><stop
         offset="0"
         stop-color="#746C5D"
         id="stop177" /><stop
         offset="1"
         stop-color="#9F997A"
         id="stop178" /></linearGradient><linearGradient
       id="gradient_22"
       gradientUnits="userSpaceOnUse"
       x1="535.56537"
       y1="322.91098"
       x2="535.07629"
       y2="304.43378"
       gradientTransform="matrix(0.22401176,0,0,0.22401176,-11.287304,66.939017)"><stop
         offset="0"
         stop-color="#4F4745"
         id="stop172" /><stop
         offset="1"
         stop-color="#8E876E"
         id="stop173" /></linearGradient><linearGradient
       id="gradient_21"
       gradientUnits="userSpaceOnUse"
       x1="270.29193"
       y1="553.11157"
       x2="254.62906"
       y2="533.0097"
       gradientTransform="matrix(0.22401176,0,0,0.22401176,-11.287304,66.939017)"><stop
         offset="0"
         stop-color="#C8C8AB"
         id="stop159" /><stop
         offset="1"
         stop-color="#FFFBE4"
         id="stop160" /></linearGradient><linearGradient
       id="gradient_20"
       gradientUnits="userSpaceOnUse"
       x1="265.33884"
       y1="531.57739"
       x2="270.95966"
       y2="505.63922"
       gradientTransform="matrix(0.22401176,0,0,0.22401176,-11.287304,66.939017)"><stop
         offset="0"
         stop-color="#D0D0B4"
         id="stop157" /><stop
         offset="1"
         stop-color="#FEF7D8"
         id="stop158" /></linearGradient><linearGradient
       id="gradient_19"
       gradientUnits="userSpaceOnUse"
       x1="283.74417"
       y1="643.34338"
       x2="281.61111"
       y2="642.33014"
       gradientTransform="matrix(0.22401176,0,0,0.22401176,-11.287304,66.939017)"><stop
         offset="0"
         stop-color="#6C6354"
         id="stop148" /><stop
         offset="1"
         stop-color="#837A6D"
         id="stop149" /></linearGradient><linearGradient
       id="gradient_18"
       gradientUnits="userSpaceOnUse"
       x1="259.84656"
       y1="601.56427"
       x2="230.59119"
       y2="636.7168"
       gradientTransform="matrix(0.22401176,0,0,0.22401176,-11.287304,66.939017)"><stop
         offset="0"
         stop-color="#B6B09D"
         id="stop145" /><stop
         offset="1"
         stop-color="#DED4B0"
         id="stop146" /></linearGradient><linearGradient
       id="gradient_17"
       gradientUnits="userSpaceOnUse"
       x1="269.07285"
       y1="461.02319"
       x2="236.11465"
       y2="583.6076"
       gradientTransform="matrix(0.22401176,0,0,0.22401176,-11.287304,66.939017)"><stop
         offset="0"
         stop-color="#1B181B"
         id="stop143" /><stop
         offset="1"
         stop-color="#393332"
         id="stop144" /></linearGradient><linearGradient
       id="gradient_16"
       gradientUnits="userSpaceOnUse"
       x1="272.09454"
       y1="476.37988"
       x2="258.6929"
       y2="425.11942"
       gradientTransform="matrix(0.22401176,0,0,0.22401176,-11.287304,66.939017)"><stop
         offset="0"
         stop-color="#958F85"
         id="stop110" /><stop
         offset="1"
         stop-color="#B2AD8E"
         id="stop111" /></linearGradient><linearGradient
       id="gradient_15"
       gradientUnits="userSpaceOnUse"
       x1="125.69572"
       y1="601.14105"
       x2="107.13697"
       y2="577.92548"
       gradientTransform="matrix(0.22401176,0,0,0.22401176,-11.287304,66.939017)"><stop
         offset="0"
         stop-color="#756859"
         id="stop108" /><stop
         offset="1"
         stop-color="#958E78"
         id="stop109" /></linearGradient><linearGradient
       id="gradient_14"
       gradientUnits="userSpaceOnUse"
       x1="155.1265"
       y1="644.40173"
       x2="153.25365"
       y2="619.95245"
       gradientTransform="matrix(0.22401176,0,0,0.22401176,-11.287304,66.939017)"><stop
         offset="0"
         stop-color="#645953"
         id="stop100" /><stop
         offset="1"
         stop-color="#988D77"
         id="stop101" /></linearGradient><linearGradient
       id="gradient_13"
       gradientUnits="userSpaceOnUse"
       x1="190.69328"
       y1="718.9826"
       x2="149.52174"
       y2="592.83466"
       gradientTransform="matrix(0.22401176,0,0,0.22401176,-11.287304,66.939017)"><stop
         offset="0"
         stop-color="#2F3031"
         id="stop66" /><stop
         offset="1"
         stop-color="#504F49"
         id="stop67" /></linearGradient><linearGradient
       id="gradient_12"
       gradientUnits="userSpaceOnUse"
       x1="638.21497"
       y1="389.88431"
       x2="646.03778"
       y2="358.05859"
       gradientTransform="matrix(0.22401176,0,0,0.22401176,-11.287304,66.939017)"><stop
         offset="0"
         stop-color="#100E10"
         id="stop60" /><stop
         offset="1"
         stop-color="#4A3E3C"
         id="stop61" /></linearGradient><linearGradient
       id="gradient_11-0"
       gradientUnits="userSpaceOnUse"
       x1="769.46246"
       y1="323.05353"
       x2="768.68896"
       y2="304.82947"
       gradientTransform="matrix(0.22401176,0,0,0.22401176,-11.287304,66.939017)"><stop
         offset="0"
         stop-color="#2D242A"
         id="stop55" /><stop
         offset="1"
         stop-color="#655D55"
         id="stop56" /></linearGradient><linearGradient
       id="gradient_10-9"
       gradientUnits="userSpaceOnUse"
       x1="677.13599"
       y1="352.86923"
       x2="672.76306"
       y2="355.2597"
       gradientTransform="matrix(0.22401176,0,0,0.22401176,-11.287304,66.939017)"><stop
         offset="0"
         stop-color="#82765F"
         id="stop51-4" /><stop
         offset="1"
         stop-color="#969379"
         id="stop52-8" /></linearGradient><linearGradient
       id="gradient_9-8"
       gradientUnits="userSpaceOnUse"
       x1="954.73969"
       y1="315.62357"
       x2="952.93054"
       y2="302.32013"
       gradientTransform="matrix(0.22401176,0,0,0.22401176,-11.287304,66.939017)"><stop
         offset="0"
         stop-color="#322C2E"
         id="stop21" /><stop
         offset="1"
         stop-color="#554C4A"
         id="stop22-2" /></linearGradient><linearGradient
       id="gradient_8-4"
       gradientUnits="userSpaceOnUse"
       x1="766.70612"
       y1="306.76083"
       x2="766.29706"
       y2="297.88443"
       gradientTransform="matrix(0.22401176,0,0,0.22401176,-11.287304,66.939017)"><stop
         offset="0"
         stop-color="#696054"
         id="stop18" /><stop
         offset="1"
         stop-color="#88816A"
         id="stop19" /></linearGradient><linearGradient
       id="gradient_7-5"
       gradientUnits="userSpaceOnUse"
       x1="1018.1583"
       y1="276.19672"
       x2="1040.7948"
       y2="298.86646"
       gradientTransform="matrix(0.22401176,0,0,0.22401176,-11.287304,66.939017)"><stop
         offset="0"
         stop-color="#181717"
         id="stop15" /><stop
         offset="1"
         stop-color="#413D3E"
         id="stop16" /></linearGradient><linearGradient
       id="gradient_6-5"
       gradientUnits="userSpaceOnUse"
       x1="980.1886"
       y1="289.30374"
       x2="1007.6142"
       y2="247.77954"
       gradientTransform="matrix(0.22401176,0,0,0.22401176,-11.287304,66.939017)"><stop
         offset="0"
         stop-color="#A6A589"
         id="stop13" /><stop
         offset="1"
         stop-color="#EAE5BF"
         id="stop14" /></linearGradient><linearGradient
       id="gradient_5-1"
       gradientUnits="userSpaceOnUse"
       x1="980.74323"
       y1="315.81665"
       x2="979.82709"
       y2="296.72516"
       gradientTransform="matrix(0.22401176,0,0,0.22401176,-11.287304,66.939017)"><stop
         offset="0"
         stop-color="#312A2D"
         id="stop11" /><stop
         offset="1"
         stop-color="#71655B"
         id="stop12" /></linearGradient><linearGradient
       id="gradient_4-7"
       gradientUnits="userSpaceOnUse"
       x1="974.69019"
       y1="337.1821"
       x2="973.03217"
       y2="313.31482"
       gradientTransform="matrix(0.22401176,0,0,0.22401176,-11.287304,66.939017)"><stop
         offset="0"
         stop-color="#010102"
         id="stop9" /><stop
         offset="1"
         stop-color="#2E2B2C"
         id="stop10" /></linearGradient><linearGradient
       id="gradient_3-1"
       gradientUnits="userSpaceOnUse"
       x1="797.02972"
       y1="299.32455"
       x2="796.11346"
       y2="271.2338"
       gradientTransform="matrix(0.22401176,0,0,0.22401176,-11.287304,66.939017)"><stop
         offset="0"
         stop-color="#AAA788"
         id="stop7" /><stop
         offset="1"
         stop-color="#F0F0D0"
         id="stop8" /></linearGradient><linearGradient
       id="gradient_2-1"
       gradientUnits="userSpaceOnUse"
       x1="751.05554"
       y1="402.48737"
       x2="684.02893"
       y2="248.69569"
       gradientTransform="matrix(0.22401176,0,0,0.22401176,-11.287304,66.939017)"><stop
         offset="0"
         stop-color="#0C090E"
         id="stop5" /><stop
         offset="1"
         stop-color="#393335"
         id="stop6" /></linearGradient><linearGradient
       id="gradient_1-5"
       gradientUnits="userSpaceOnUse"
       x1="600.59576"
       y1="300.39453"
       x2="616.21582"
       y2="277.59973"
       gradientTransform="matrix(0.22401176,0,0,0.22401176,-11.287304,66.939017)"><stop
         offset="0"
         stop-color="#6A5F54"
         id="stop3" /><stop
         offset="1"
         stop-color="#857E6B"
         id="stop4" /></linearGradient><linearGradient
       id="gradient_0-2"
       gradientUnits="userSpaceOnUse"
       x1="490.24158"
       y1="699.0495"
       x2="488.07153"
       y2="283.91757"
       gradientTransform="matrix(0.22401176,0,0,0.22401176,-11.287304,66.939017)"><stop
         offset="0"
         stop-color="black"
         id="stop1" /><stop
         offset="1"
         stop-color="#232825"
         id="stop2" /></linearGradient><linearGradient
       id="gradient_0-0"
       gradientUnits="userSpaceOnUse"
       x1="728.84442"
       y1="366.36383"
       x2="719.76276"
       y2="435.13733"
       gradientTransform="matrix(0,0.28121218,0.28121218,0,-2.6205782,-1.5661111)"><stop
         offset="0"
         stop-color="#151414"
         id="stop8-9" /><stop
         offset="1"
         stop-color="#353337"
         id="stop9-4" /></linearGradient><linearGradient
       id="gradient_1-8"
       gradientUnits="userSpaceOnUse"
       x1="293.52328"
       y1="571.31628"
       x2="304.57993"
       y2="573.3208"
       gradientTransform="matrix(0,0.28121218,0.28121218,0,-2.6205782,-1.5661111)"><stop
         offset="0"
         stop-color="#46404A"
         id="stop49" /><stop
         offset="1"
         stop-color="#4D4E4C"
         id="stop50" /></linearGradient><linearGradient
       id="gradient_2-8"
       gradientUnits="userSpaceOnUse"
       x1="302.75018"
       y1="502.918"
       x2="312.03595"
       y2="507.79623"
       gradientTransform="matrix(0,0.28121218,0.28121218,0,-2.6205782,-1.5661111)"><stop
         offset="0"
         stop-color="#1C1C1D"
         id="stop62" /><stop
         offset="1"
         stop-color="#545056"
         id="stop63" /></linearGradient></defs><defs
     id="defs30"><linearGradient
       id="gradient_1"
       gradientUnits="userSpaceOnUse"
       x1="746.55017"
       y1="1093.2012"
       x2="718.25854"
       y2="1094.4313"
       gradientTransform="matrix(-0.12326091,0.19900355,0.19900355,0.12326091,47.797796,-55.564933)"><stop
         offset="0"
         stop-color="#562205"
         id="stop29" /><stop
         offset="1"
         stop-color="#430E0B"
         id="stop30" /></linearGradient></defs><defs
     id="defs44"><linearGradient
       id="gradient_2"
       gradientUnits="userSpaceOnUse"
       x1="776.90399"
       y1="1268.3417"
       x2="860.62799"
       y2="1230.1453"
       gradientTransform="matrix(-0.12326091,0.19900355,0.19900355,0.12326091,47.797796,-55.564933)"><stop
         offset="0"
         stop-color="#626F7C"
         id="stop43" /><stop
         offset="1"
         stop-color="#7E8C95"
         id="stop44" /></linearGradient></defs><defs
     id="defs52"><linearGradient
       id="gradient_3"
       gradientUnits="userSpaceOnUse"
       x1="439.87656"
       y1="610.50824"
       x2="511.21613"
       y2="569.95337"
       gradientTransform="matrix(-0.12326091,0.19900355,0.19900355,0.12326091,47.797796,-55.564933)"><stop
         offset="0"
         stop-color="#404B52"
         id="stop51" /><stop
         offset="1"
         stop-color="#656E73"
         id="stop52" /></linearGradient></defs><defs
     id="defs70"><linearGradient
       id="gradient_4"
       gradientUnits="userSpaceOnUse"
       x1="769.17871"
       y1="469.91077"
       x2="465.81488"
       y2="290.91141"
       gradientTransform="matrix(-0.12326091,0.19900355,0.19900355,0.12326091,47.797796,-55.564933)"><stop
         offset="0"
         stop-color="#7A7876"
         id="stop69" /><stop
         offset="1"
         stop-color="#D2D4D1"
         id="stop70" /></linearGradient></defs><defs
     id="defs72"><linearGradient
       id="gradient_5"
       gradientUnits="userSpaceOnUse"
       x1="254.6996"
       y1="1019.3943"
       x2="228.24765"
       y2="330.26346"
       gradientTransform="matrix(-0.06444382,0.07337389,0.07337389,0.06444382,26.652268,-12.064007)"><stop
         offset="0"
         stop-color="#525151"
         id="stop71" /><stop
         offset="1"
         stop-color="#928F8B"
         id="stop72" /></linearGradient></defs><defs
     id="defs76"><linearGradient
       id="gradient_6"
       gradientUnits="userSpaceOnUse"
       x1="400.80075"
       y1="564.51709"
       x2="491.52264"
       y2="534.61029"
       gradientTransform="matrix(-0.12326091,0.19900355,0.19900355,0.12326091,47.797796,-55.564933)"><stop
         offset="0"
         stop-color="#481E06"
         id="stop75" /><stop
         offset="1"
         stop-color="#663917"
         id="stop76" /></linearGradient></defs><defs
     id="defs80"><linearGradient
       id="gradient_7"
       gradientUnits="userSpaceOnUse"
       x1="666.84778"
       y1="451.62134"
       x2="414.77264"
       y2="258.09586"
       gradientTransform="matrix(-0.12326091,0.19900355,0.19900355,0.12326091,47.797796,-55.564933)"><stop
         offset="0"
         stop-color="#71665F"
         id="stop79" /><stop
         offset="1"
         stop-color="#ACA091"
         id="stop80" /></linearGradient></defs><defs
     id="defs82"><linearGradient
       id="gradient_8"
       gradientUnits="userSpaceOnUse"
       x1="518.9541"
       y1="394.42706"
       x2="611.91101"
       y2="253.80998"
       gradientTransform="matrix(-0.12326091,0.19900355,0.19900355,0.12326091,47.797796,-55.564933)"><stop
         offset="0"
         stop-color="#ADA9A4"
         id="stop81" /><stop
         offset="1"
         stop-color="#E2E5E7"
         id="stop82" /></linearGradient></defs><defs
     id="defs84"><linearGradient
       id="gradient_9"
       gradientUnits="userSpaceOnUse"
       x1="433.23013"
       y1="944.97131"
       x2="35.357399"
       y2="429.73206"
       gradientTransform="matrix(-0.06444382,0.07337389,0.07337389,0.06444382,26.652268,-12.064007)"><stop
         offset="0"
         stop-color="#706F6E"
         id="stop83" /><stop
         offset="1"
         stop-color="#BCBCB6"
         id="stop84" /></linearGradient></defs><defs
     id="defs86"><linearGradient
       id="gradient_10"
       gradientUnits="userSpaceOnUse"
       x1="435.94797"
       y1="719.50836"
       x2="112.48418"
       y2="624.32764"
       gradientTransform="matrix(-0.06444382,0.07337389,0.07337389,0.06444382,26.652268,-12.064007)"><stop
         offset="0"
         stop-color="#969695"
         id="stop85" /><stop
         offset="1"
         stop-color="#BFBEBD"
         id="stop86" /></linearGradient></defs><defs
     id="defs88"><linearGradient
       id="gradient_11"
       gradientUnits="userSpaceOnUse"
       x1="455.73398"
       y1="700.51971"
       x2="128.48848"
       y2="573.58057"
       gradientTransform="matrix(-0.06444382,0.07337389,0.07337389,0.06444382,26.652268,-12.064007)"><stop
         offset="0"
         stop-color="#5C4E48"
         id="stop87" /><stop
         offset="1"
         stop-color="#8A8177"
         id="stop88" /></linearGradient></defs><path
     fill="#020202"
     d="m 107.23061,31.418576 c 1.77824,-0.103038 4.89008,-0.184296 5.62493,2.106582 0.18066,0.717342 0.14777,1.587703 0.0913,2.324941 -0.3088,4.034253 0.0724,8.062139 -0.12973,12.101432 -0.0257,0.515456 0.63272,1.498618 0.55499,1.855963 -0.72955,3.353255 -2.41785,6.394795 -2.17298,9.908285 0.0241,0.940981 -0.0621,1.720135 0.38095,2.58657 0.77571,1.517454 -0.24035,3.421965 -0.22762,5.172343 0.0225,3.165165 -0.26927,6.333779 0.0401,9.488863 0.18172,1.853045 1.07999,3.614565 0.95769,5.534463 -0.0682,0.952388 -0.69744,1.745868 -0.78684,2.68738 -0.17854,4.012764 -0.0122,8.057628 -0.0252,12.075167 -0.004,1.306549 0.11196,3.474225 0.93754,4.517345 0.42579,-0.31384 0.4807,-3.209469 0.6404,-4.116493 0.65925,-0.818417 1.04843,-1.055055 1.95784,-1.540799 -0.10108,-1.082115 -0.61043,-2.755294 0.15678,-3.617218 1.15932,-0.708057 3.18798,-0.09073 2.96753,1.47766 -0.0486,0.345142 -0.35337,1.902389 -0.10744,2.069521 2.83886,1.928122 2.2141,4.952679 2.17696,8.113339 1.49835,-0.13742 3.236,-0.43614 4.52477,0.54464 1.38481,1.09803 0.86405,3.43602 -0.20294,4.56032 -0.68445,0.72106 -2.44411,0.46877 -3.34291,0.44303 -0.59717,-0.017 -1.2275,-0.044 -1.8297,-0.0629 -0.03,0.82346 -0.14591,1.67159 -0.24301,2.49266 1.2076,0.18941 3.2803,0.76138 2.03079,2.61893 -0.4807,0.71469 -1.59386,0.6359 -2.43164,0.65951 0.24301,0.35947 0.56056,0.76244 0.82372,1.11581 0.87758,0.0722 1.69202,0.16925 2.56562,0.28094 0.33108,0.35867 0.94734,1.11236 1.32591,1.34714 1.2328,0.76403 1.47448,-1.71245 3.18082,-0.51573 0.7001,2.40379 1.85676,0.41306 3.80743,2.30749 10.24043,1.24633 21.20191,2.16158 31.5007,3.13466 2.4786,0.22284 4.95242,0.49343 7.42067,0.81125 1.62171,0.20746 3.71829,0.56533 5.32488,0.60486 3.97298,0.0976 2.78236,-2.81684 3.81141,-3.79257 0.55658,-0.10983 0.85317,0.0324 1.38481,0.20188 0.39661,0.37034 0.42049,0.90596 0.45312,1.41956 0.11248,1.78062 -0.4494,9.85974 -1.59572,11.0042 -0.27961,0.27908 -0.52872,0.3791 -0.91604,0.38016 -1.68379,-0.68339 -0.20533,-4.29583 -2.40326,-4.52955 -1.76205,-0.18756 -3.52542,-0.33214 -5.28986,-0.49662 l -11.06415,-1.06381 -16.5437,-1.63604 c -4.63726,-0.46107 -9.6231,-1.1556 -14.28662,-0.95345 -2.22551,0.0966 -2.61761,0.65925 -5.02882,0.1796 -0.0552,2.68499 -1.04153,2.27247 -3.35962,2.25257 -0.19977,6.25048 0.0984,12.61424 -0.0663,18.87241 -0.0257,0.97361 -1.20097,0.92215 -1.88409,1.47925 -0.20401,0.70753 1.26623,4.63381 1.34343,6.08043 l 0.008,0.18305 c 0.6786,-0.0114 2.35444,-0.26741 2.83381,0.24539 0.52766,0.5648 0.46293,1.8244 -0.11752,2.40644 -0.69081,0.347 -1.76417,0.19154 -2.58471,0.16262 -0.71628,1.12058 -0.87174,1.35775 -2.01567,2.02708 l 0.0446,24.22886 c 2.33773,0.17721 2.55182,0.0398 2.90226,2.42368 3.81858,-0.48283 7.64882,-0.53854 11.46713,-0.8927 7.57347,-0.70301 15.14828,-1.40311 22.72706,-2.05068 1.9894,-0.17005 3.78753,-0.63962 5.82203,-0.53377 0.88978,1.99498 0.83142,7.14079 1.0914,9.57562 0.18411,1.72332 1.45724,9.5321 1.00571,10.82088 -2.21808,1.19804 -25.82696,2.8752 -30.0493,3.47051 -1.25429,0.17668 -6.22103,0.39475 -7.21003,0.80966 -0.15944,0.42632 -0.12548,0.47859 -0.0493,0.94656 0.66561,1.07229 2.45419,0.82319 3.69919,1.18398 3.62677,1.05108 3.53949,3.98358 3.47316,7.14265 -0.0273,1.3092 0.0175,2.4778 -0.12627,3.82679 -0.12151,1.13995 -0.83142,3.6151 -0.29474,4.58712 0.58974,1.06779 3.0174,0.898 3.98703,1.32565 2.52662,1.12138 4.80174,2.88926 7.5618,3.4148 1.84032,0.35045 1.56494,-1.76311 3.3774,-1.32485 0.79481,0.19207 1.19831,1.02826 1.5859,1.6623 0.18464,3.92124 -1.87745,10.76517 -4.74735,13.68733 -1.20468,1.2267 -5.45594,-2.7277 -6.78795,-3.39172 -2.53166,-1.26172 -6.6638,-4.79457 -9.28486,-5.35672 l -0.18172,-0.0379 c -2.84364,-0.11248 -2.2791,0.9049 -3.99552,1.90531 -2.93967,1.71324 -4.76699,2.71523 -5.53924,6.31892 -0.17828,0.83221 -0.74997,1.00677 -1.06938,1.70342 -0.31092,3.36387 0.27669,7.15538 -0.095,10.54896 -0.71522,0.18093 -0.97679,0.1483 -1.72358,0.44808 -1.03144,1.3084 -0.96645,8.85508 -0.48389,10.55346 0.44887,1.57954 2.4847,5.64987 3.36175,7.3127 1.83978,3.4859 3.4721,7.81542 5.53207,11.09174 1.83262,0.0637 4.08678,0.0424 5.97723,0.38202 4.19926,0.74811 2.0873,7.30871 2.36585,10.22159 -0.0414,0.43242 -0.43799,1.10891 -0.49927,1.49358 -0.21807,1.37685 1.60632,3.30285 2.36293,4.52318 -1.85941,4.64256 -1.74003,3.78833 -6.6585,3.65303 -0.25706,-0.33692 -0.55312,-0.80117 -0.79745,-1.16197 -2.59692,0.0822 -6.09688,-0.0875 -8.75959,-0.13529 -4.45075,-0.0876 -8.9031,-0.061 -13.3528,0.0822 -1.38746,0.0451 -3.68858,-0.0902 -4.893522,0.12203 l -0.05996,0.11407 c -0.11487,0.21489 -0.378302,0.74812 -0.66057,0.81709 -1.173639,0.2759 -3.786207,0.39263 -4.881055,-0.0106 -0.233455,-0.0875 -0.950266,-2.28679 -1.010222,-2.70329 -0.235576,-1.62092 0.946287,-2.96859 1.851188,-4.20749 0.06659,-2.05599 0.304287,-2.30271 2.262652,-2.83064 2.496901,-2.82267 3.421439,-2.01619 6.510999,-2.80676 0.82345,-0.61547 1.27339,-3.68221 1.28798,-4.71684 0.10266,-7.23178 -0.16289,-14.48956 0.12362,-21.71737 0.15785,-3.98146 -0.26157,-6.73171 -2.1377,-10.28128 -0.69585,-0.0281 -1.42009,-0.0101 -1.98993,-0.40536 -0.458162,-0.94284 -0.28386,-5.81885 -0.35337,-7.30394 -0.77226,-0.0395 -1.96102,-0.007 -2.613101,-0.31782 -0.751034,-1.02083 -0.613349,-16.34128 -0.540925,-18.61189 0.178009,-5.59336 -0.03555,-11.51912 0.05969,-17.09577 -0.788439,-0.0318 -1.576348,-0.0706 -2.363992,-0.11619 -0.02228,0.9951 -0.111952,3.01023 0.178009,3.98756 0.350447,1.04391 1.411604,1.94643 0.645714,3.07762 -0.298185,0.64041 -1.946161,1.2702 -2.393173,0.51652 -1.14658,-1.93317 -0.441707,-6.01119 -0.395547,-8.22476 -1.096175,2.59346 -1.100419,3.35511 -3.378723,4.97735 0.04722,1.13517 0.21515,2.46825 0.293675,3.64507 0.240618,2.6208 -2.943383,3.46574 -4.503018,1.78832 -0.845742,-0.90968 -0.287308,-4.02046 -0.196579,-5.27687 -1.683525,-0.83354 -2.642281,-1.23784 -2.790047,-3.28773 -0.4173,-5.64986 0.03104,-11.27187 -0.387322,-16.94269 -0.245923,-3.32991 3.621993,-2.57781 5.849892,-2.54969 2.512023,0.0316 3.663643,2.23453 5.094613,4.04857 0.161031,-1.22908 0.131584,-2.85955 0.04271,-4.108 -0.0841,-1.18345 -0.562148,-3.1702 -0.336652,-4.27646 0.354426,-0.54146 0.9309,-0.79189 1.502332,-1.11528 0.28837,-0.90729 0.680467,-2.48469 1.056117,-3.28507 0.280676,-0.59796 1.705544,-1.92202 1.919632,-2.69428 0.306675,-1.10572 -0.130257,-2.88926 -0.131848,-4.05998 -0.0016,-1.31159 0.200028,-2.55898 0.250432,-3.865 -0.797459,-1.53682 -0.0841,-0.99033 0.05491,-2.27194 -0.118849,-0.21727 -0.257065,-0.44913 -0.346733,-0.681 -0.09206,-0.2377 -0.06606,-0.33347 0.01963,-0.564 0.121768,-0.3271 0.230271,-0.65023 0.23876,-1.00333 0.04271,-1.73525 -0.149092,-3.50977 -0.156786,-5.25537 -0.0061,-1.40498 0.172173,-2.80942 0.152011,-4.20961 -0.01724,-1.21158 -0.19711,-2.42103 -0.181458,-3.6342 0.01459,-1.11183 0.290492,-2.28387 0.225496,-3.3835 -0.01778,-0.3011 -0.17907,-0.52527 -0.276166,-0.79905 -0.141134,-0.39846 -0.0074,-0.61282 0.154133,-0.97281 0.435339,-0.9699 -0.786583,-7.67668 0.627939,-9.09677 0.824519,-0.82797 3.767105,-0.56347 4.846305,-0.56507 0.13689,-6.95986 0.13371,-13.92184 -0.009,-20.8817 -3.512701,-1.82652 -9.253824,-4.28999 -11.650447,-7.40157 -2.186248,-2.83886 7.219315,-4.78449 8.839701,-5.55065 1.462016,-0.69134 2.463216,-1.01712 3.973506,-1.95306 0.091,-2.57675 0.81417,-4.41759 0.90012,-6.485785 0.18916,-4.547587 0.1735,-9.569246 0.0698,-14.114711 l -0.63988,-0.950531 c -0.0573,-2.856899 0.49688,-4.439349 0.75528,-7.152992 0.30561,-3.212918 0.35681,-7.4533 0.10187,-10.706541 -0.0255,-0.322327 -0.41783,-1.049219 -0.5847,-1.351118 0.0862,-2.411213 0.94947,-5.058003 0.61627,-7.616718 -0.2125,-1.633385 -0.74653,-2.447027 -1.26278,-3.954931 -0.0804,-0.235311 -0.17085,-1.654608 -0.19127,-1.981445 l -0.83726,-1.135437 c 0.24831,-0.482296 0.52448,-0.986876 0.60619,-1.529127 0.44781,-2.96726 -0.90437,-13.878604 0.49397,-15.694057 0.76881,-0.997965 2.59798,-1.195234 3.73898,-1.355681 z M 103.7601,293.1241 c 0.87015,-0.003 7.97141,-0.1353 8.33592,0.0186 l 0.0135,0.11672 c -1.23572,0.42977 -5.35221,0.32366 -6.72667,0.20162 -3.49307,-0.30508 -5.02511,-1.05585 -7.875645,1.4644 6.138265,0.14856 11.779635,0.0212 17.881555,0.008 4.02231,-0.0716 8.07858,-0.18836 12.10382,-0.0769 0.71442,0.0212 2.52475,0.49078 3.02031,0.38466 0.74759,-1.03728 0.56533,-6.18654 0.43534,-7.61645 -0.43932,-4.83622 -6.95641,-0.61812 -8.39667,-3.25244 -3.23069,-5.91595 -6.44281,-12.20437 -8.93122,-18.47554 -0.70434,-1.81962 -0.34594,-8.74048 0.28784,-10.77472 -3.08027,0.013 -7.45251,-0.18756 -10.33991,-0.0674 0.14617,1.07124 1.34554,2.64812 1.42752,3.58724 0.5205,5.95919 0.24804,11.97966 0.25653,17.95742 l 0.0302,7.3777 c 0.0379,4.00321 0.43401,5.5074 -1.5225,9.14717 z m 8.55107,-186.74369 c -0.17509,0.42553 -0.90039,2.08385 -0.92958,2.45287 -0.2438,3.08902 0.5786,6.19768 0.94549,9.25196 0.0475,0.3966 0.50352,0.59637 0.86193,0.56188 0.17642,-0.15016 0.37247,-0.27749 0.47221,-0.46824 0.19499,-1.14684 0.50538,-1.43787 1.2145,-2.37062 l -0.82399,-1.24845 c 0.39369,-2.01832 -0.07,-2.93357 -0.39555,-4.91953 -0.20772,-1.26728 -0.22019,-2.4327 -1.34501,-3.25987 z m -0.72955,14.62672 c -0.091,1.56308 0.14432,2.72028 0.15546,4.20218 0.0361,4.84551 0.17907,9.66793 0.035,14.51158 -0.0215,0.71894 1.38348,1.00412 1.99657,0.83434 l 0.1735,-0.39634 c 0.005,-4.10509 0.0472,-8.3919 -0.026,-12.49008 -1.89125,-1.13358 -1.45034,-2.3181 -0.42208,-3.98756 -0.0398,-0.62529 -0.065,-1.26384 -0.16023,-1.88144 z m -6.81103,100.81626 c -0.0714,1.25641 -0.38016,7.31004 0.15546,8.01173 0.007,0.008 0.0172,0.0125 0.0257,0.0188 0.0944,-1.24792 0.31384,-7.15617 -0.18119,-8.03056 z m -3.50288,-112.52108 c -2.164495,0.64093 -6.371716,1.87029 -8.152868,2.98132 1.34369,1.21396 2.449946,1.77186 4.029212,2.59054 1.595184,0.93303 3.191426,1.98994 4.981866,2.43536 0.0738,-1.25747 0.38202,-7.09463 -0.0525,-7.97088 -0.40138,-0.10744 -0.38705,-0.0947 -0.80568,-0.0363 z"
     id="path1-3"
     style="stroke-width:0.265289" /><path
     fill="#44453c"
     d="m 103.01703,147.2697 c 3.42912,-0.0873 6.45581,-0.10957 9.88228,0.002 -0.0196,4.34172 -0.2048,10.31975 0.1552,14.52087 -0.74202,0.32206 -0.94841,0.4486 -1.61774,0.90861 l 0.0711,0.7261 -0.27961,0.13901 c -0.0117,-0.69426 0.0109,-1.22059 0.056,-1.91459 l -5.78224,-0.0114 c 0.0186,8.23139 -0.0218,16.46305 -0.12124,24.69418 l -0.11115,7.5045 c -0.0642,2.59506 -0.23585,5.02723 0.10638,7.61884 1.84668,-0.95875 4.18971,-1.92573 5.84379,-2.98026 l -0.19021,-10.29985 c 0.83751,-0.24539 1.52143,-0.54915 2.31756,-0.18225 0.68896,0.71389 0.37035,1.53124 0.21754,2.44729 -0.75263,0.67755 -1.45299,1.15666 -1.61561,2.17033 0.36557,1.00969 1.04869,0.81285 1.99418,0.77385 0.0106,1.50153 0.14405,9.59843 -0.10479,10.50306 -0.33321,0.17881 -0.47673,0.23266 -0.74706,0.5083 -0.0634,1.17337 0.2897,3.59413 0.0419,4.79324 -0.0549,0.26529 -0.68286,0.27696 -1.00916,0.93488 l 0.0862,0.43879 c 0.42791,0.28625 0.97334,0.43189 0.97812,0.84335 0.0135,1.22723 0.0119,2.52927 0.0122,3.74986 l -0.008,8.67549 c -0.004,3.33363 0.25574,24.65279 -0.3332,25.5057 -0.48893,0.23717 -0.6091,0.22205 -1.15825,0.23584 -1.01898,-0.5189 -0.4104,-13.88232 -0.39608,-15.94759 0.002,-0.32259 -0.1666,-0.40245 -0.38361,-0.61415 -0.55764,-0.1345 -0.34859,-0.16846 -0.81019,0.0613 -0.20931,1.3986 2.55845,2.90703 -1.90451,2.85424 -0.022,-0.76934 -0.14034,-2.67146 0.0456,-3.31877 0.36716,-0.25865 1.07256,-0.52527 1.12058,-0.6794 -0.53456,-0.0891 -0.66031,-0.0833 -1.06116,-0.44675 -0.44966,-1.03436 0.12787,-19.25336 -0.14935,-21.7561 -0.0886,-0.79985 0.0578,-3.0487 -0.15308,-3.94803 -0.0806,-0.34382 -0.34938,-0.66349 -0.6672,-0.78632 -0.24141,-0.0931 -0.39952,-0.078 -0.65314,-0.0692 -0.25972,0.18119 -0.50458,0.37671 -0.51254,0.73963 -0.22019,10.23724 0.21993,20.51322 -0.11434,30.76452 -0.0987,3.02218 0.22072,6.56485 -0.1353,9.47427 l -0.16739,0.0796 c -2.27512,1.09432 -1.73924,4.09845 -0.36504,4.5513 1.05797,-0.31198 1.06779,-1.06832 1.20839,-2.03079 1.2832,-0.001 2.1499,0.0212 3.42329,-0.18092 -0.55976,-0.21675 -2.79084,-0.0313 -3.48802,-0.19128 0.82266,-0.10983 3.2742,-0.0753 4.18441,-0.0761 -0.13583,0.32976 0.16819,1.74481 0.24486,2.1958 0.83937,-0.13317 1.69891,-0.30535 2.53616,-0.46213 0.22868,-10.07224 -0.0987,-20.33229 0.0114,-30.41461 0.026,-2.38097 -0.2629,-13.06496 0.28041,-14.63892 l 0.15228,-0.0483 c 0.45921,0.9821 0.32498,3.74349 0.31649,4.97231 0.78737,0.0769 1.57343,0.16899 2.35762,0.27537 0.32578,6.26852 0.0907,12.25238 0.0286,18.51268 -0.0448,4.54864 0.23584,9.10525 0.0631,13.65974 -0.0467,1.22298 -0.63351,1.13278 -0.65632,2.2844 -0.0647,3.29383 -0.0165,6.65451 -0.008,9.94649 -4.98982,0.074 -9.98071,0.0841 -14.9708,0.0302 -0.16739,-2.22206 -0.17907,-4.45314 -0.0353,-6.6768 1.59731,-0.87492 1.73393,-0.82346 1.74056,-2.49425 0.003,-0.90994 0.86723,-0.90118 1.39118,-1.16462 0.17084,-0.0857 0.0798,-0.39926 0.11009,-0.55551 -0.0496,-1.17417 -1.34687,-0.8216 -1.3734,-2.18068 -0.0554,-2.81206 0.0297,-5.61033 0.065,-8.41948 0.0244,-3.81937 0.0218,-7.63874 -0.008,-11.45784 l -0.0371,-18.4429 c -0.006,-3.18613 -0.13052,-6.95509 0.0154,-10.08577 0.38229,-0.5656 0.62768,0.0661 1.3031,-0.53641 l 0.008,-0.47408 c -0.33745,-0.43693 -0.38785,-0.32471 -1.04445,-0.4547 -0.25706,-0.3409 -0.30747,-0.62476 -0.30614,-1.07654 0.0143,-4.70146 -0.002,-9.44138 0,-14.13992 z m 1.93475,82.58425 c 0.0944,-1.24792 0.31384,-7.15617 -0.18119,-8.03056 -0.0714,1.25641 -0.38016,7.31004 0.15546,8.01173 0.007,0.008 0.0172,0.0125 0.0257,0.0188 z"
     id="path2-6"
     style="stroke-width:0.265289" /><path
     fill="#525251"
     d="m 111.28423,161.65129 c 0.16793,0.41412 0.14034,0.59266 0.15254,1.04948 l 0.0711,0.7261 -0.27961,0.13901 c -0.0117,-0.69426 0.0109,-1.22059 0.056,-1.91459 z"
     id="path3-1"
     style="stroke-width:0.265289" /><path
     fill="#7d7c7c"
     d="m 109.23806,205.23883 0.67702,0.21966 c 0.50033,0.9065 0.30349,22.06172 0.24433,25.34997 l -0.74387,-0.20453 c -0.51891,-0.79667 -0.32817,-22.791 -0.17748,-25.3651 z"
     id="path4-5"
     style="stroke-width:0.265289" /><path
     fill="#020202"
     d="m 104.39388,220.77549 c 0.27086,0.095 0.68471,0.17377 0.77093,0.37592 0.77968,1.82492 0.53429,8.49801 0.26184,10.18631 -0.48124,-0.0719 -0.52554,-0.0621 -0.92958,-0.31066 -0.50749,-1.11209 -0.32789,-8.80256 -0.10319,-10.25157 z m 0.5579,9.07846 c 0.0944,-1.24792 0.31384,-7.15617 -0.18119,-8.03056 -0.0714,1.25641 -0.38016,7.31004 0.15546,8.01173 0.007,0.008 0.0172,0.0125 0.0257,0.0188 z"
     id="path5-4"
     style="stroke-width:0.265289" /><path
     fill="#7d7c7c"
     fill-opacity="0.109804"
     d="m 104.77059,221.82339 c 0.49503,0.87439 0.27563,6.78264 0.18119,8.03056 -0.008,-0.006 -0.0191,-0.0103 -0.0257,-0.0188 -0.53562,-0.70169 -0.22683,-6.75532 -0.15546,-8.01173 z"
     id="path6-2"
     style="stroke-width:0.265289" /><path
     fill="#020202"
     d="m 103.38074,161.89801 c 0.79082,0.963 0.31596,15.19842 0.46797,17.61918 0.5059,0.29394 0.63908,0.36053 1.04418,0.77597 0.24645,0.51121 0.12256,0.85741 0.0342,1.4323 -0.85848,-0.0624 -1.67159,-0.18067 -1.65673,-1.22086 0.0677,-4.76752 0.0698,-9.53344 0.0356,-14.30148 -0.01,-1.37314 -0.0785,-2.95452 0.0748,-4.30511 z"
     id="path7-0"
     style="stroke-width:0.265289" /><path
     fill="#020202"
     d="m 107.59645,150.06691 c 0.67675,-0.30111 1.46997,-0.002 1.77903,0.67171 0.30879,0.67357 0.0186,1.47023 -0.65129,1.78672 -0.44011,0.20799 -0.95796,0.16342 -1.35589,-0.11673 -0.3982,-0.28014 -0.61494,-0.75262 -0.56772,-1.2373 0.0472,-0.48442 0.35124,-0.90623 0.79587,-1.1044 z"
     id="path8-9"
     style="stroke-width:0.265289" /><path
     fill="#44453c"
     d="m 107.86917,150.36987 c 0.33081,-0.0974 0.68816,-0.003 0.92745,0.24512 0.23955,0.24805 0.32153,0.60858 0.21276,0.93594 -0.10904,0.32711 -0.39051,0.56666 -0.73061,0.62184 -0.48282,0.0783 -0.9431,-0.23213 -1.05134,-0.70912 -0.1085,-0.47699 0.1727,-0.95583 0.64174,-1.09378 z"
     id="path9-7"
     style="stroke-width:0.265289" /><path
     fill="#020202"
     d="m 113.34473,251.29569 c 0.59399,-0.31543 1.33149,-0.0881 1.6448,0.5075 0.31304,0.59557 0.0828,1.33228 -0.51387,1.6432 -0.59345,0.30906 -1.32485,0.0801 -1.6363,-0.51201 -0.31145,-0.59213 -0.0854,-1.32486 0.50537,-1.63869 z"
     id="path10-3"
     style="stroke-width:0.265289" /><path
     fill="#44453c"
     d="m 113.42167,251.73288 c 0.24353,-0.18172 0.56957,-0.20719 0.83858,-0.0658 0.26873,0.1414 0.43242,0.42473 0.42075,0.72822 -0.0117,0.30376 -0.19685,0.57356 -0.47567,0.69373 -0.36716,0.15838 -0.7948,0.0167 -0.99483,-0.32949 -0.20003,-0.3462 -0.1093,-0.78738 0.21117,-1.02667 z"
     id="path11-7"
     style="stroke-width:0.265289" /><path
     fill="#020202"
     d="m 114.54915,242.51276 c 0.36875,-0.16183 0.79984,-0.007 0.9821,0.35204 0.18225,0.35946 0.0523,0.79852 -0.29633,1.00067 -0.24354,0.14113 -0.5449,0.13583 -0.78366,-0.0135 -0.2385,-0.14909 -0.37486,-0.4181 -0.35443,-0.69904 0.0207,-0.28068 0.19446,-0.52686 0.45232,-0.64014 z"
     id="path12-2"
     style="stroke-width:0.265289" /><path
     fill="#020202"
     d="m 114.67118,231.32419 c 0.21435,-0.13291 0.48548,-0.13344 0.70036,-10e-4 0.21489,0.13211 0.33666,0.37458 0.31464,0.62581 -0.022,0.2515 -0.18411,0.46903 -0.41863,0.56189 -0.321,0.12707 -0.68577,-0.0119 -0.8407,-0.32047 -0.1552,-0.30854 -0.0491,-0.68418 0.24433,-0.86617 z"
     id="path13-6"
     style="stroke-width:0.265289" /><path
     fill="#020202"
     d="m 114.61998,239.78373 c 0.2942,-0.19976 0.69426,-0.12734 0.89959,0.16315 0.20534,0.29049 0.14061,0.69214 -0.1459,0.90305 -0.19022,0.14007 -0.44118,0.16633 -0.65633,0.069 -0.21541,-0.0974 -0.36106,-0.30376 -0.38122,-0.53907 -0.0202,-0.23531 0.0883,-0.46346 0.28386,-0.5961 z"
     id="path14-0"
     style="stroke-width:0.265289" /><path
     fill="#44453c"
     d="m 158.64366,182.86063 c 0.34726,-0.0621 0.4929,-0.035 0.83645,-0.007 0.0764,0.0708 0.15281,0.14193 0.22921,0.21276 0.61335,4.18388 1.71138,15.49607 2.05573,18.87904 -4.97444,0.95239 -10.22982,1.28559 -15.29551,1.78354 l -23.02366,2.25894 c -1.05876,0.16262 -2.17775,0.22921 -3.24926,0.31384 l -0.0356,-19.79774 c 8.91531,-0.96326 17.99324,-1.3543 26.94012,-2.37195 4.02868,-0.45815 7.45781,-0.51174 11.54247,-1.271 z"
     id="path15-1"
     style="stroke-width:0.265289" /><path
     fill="#525251"
     d="m 158.68796,197.71311 c 0.29049,-0.0722 0.2308,-0.0401 0.55101,0.001 l -0.14857,0.1926 c -0.45948,0.22841 -1.04099,0.38095 -1.55088,0.42101 -12.09347,0.95318 -24.19888,2.61283 -36.29023,3.50686 -0.37989,0.0525 -0.38706,0.0767 -0.76456,-0.0496 l 0.11115,-0.15997 c 1.054,-0.44701 11.11031,-1.1755 12.78853,-1.33706 z"
     id="path16-6"
     style="stroke-width:0.265289" /><path
     fill="#020202"
     d="m 157.66872,196.35111 c 0.34753,-0.0562 0.45152,-0.0332 0.79162,2.7e-4 l -0.034,0.15997 c -0.83911,0.33214 -7.67641,0.95796 -9.05777,1.09777 -8.90815,0.82611 -17.81205,1.69705 -26.71144,2.61256 -0.40059,0.0175 -0.45948,0.006 -0.85635,-0.0714 l 0.0931,-0.13026 c 2.29847,-0.56029 9.27425,-1.00173 12.0566,-1.27179 7.8706,-0.7643 15.85474,-1.70236 23.71818,-2.39716 z"
     id="path17-5"
     style="stroke-width:0.265289" /><path
     fill="#020202"
     d="m 155.69046,189.99691 c 0.7253,-0.0767 0.83407,-0.0671 1.55406,0.0647 -1.27763,0.36291 -8.00669,0.91472 -9.7889,1.10254 -8.00086,0.84335 -16.09165,1.45432 -24.08959,2.36187 -0.71256,0.0645 -0.8468,0.065 -1.55273,-0.0382 0.44435,-0.47726 30.7486,-3.24422 33.87716,-3.49094 z"
     id="path18-7"
     style="stroke-width:0.265289" /><path
     fill="#2d2d2c"
     d="m 155.81594,188.18604 c 0.40165,-0.0889 0.24513,-0.13742 0.52527,0.0117 -0.51041,0.3141 -0.90861,0.28518 -1.51188,0.32816 -0.3401,0.0507 -0.38759,0.0928 -0.69692,-0.0576 0.57276,-0.28041 1.0532,-0.256 1.68353,-0.28227 z"
     id="path19-5"
     style="stroke-width:0.265289" /><path
     fill="#44453c"
     d="m 103.5683,255.05457 c 2.8874,-0.12018 7.25964,0.0804 10.33991,0.0674 -0.63378,2.03424 -0.99218,8.9551 -0.28784,10.77472 2.48841,6.27117 5.70053,12.55959 8.93122,18.47554 1.44026,2.63432 7.95735,-1.58378 8.39667,3.25244 0.12999,1.42991 0.31225,6.57917 -0.43534,7.61645 -0.49556,0.10612 -2.30589,-0.36344 -3.02031,-0.38466 -4.02524,-0.11143 -8.08151,0.005 -12.10382,0.0769 -6.10192,0.0133 -11.74329,0.1406 -17.881555,-0.008 2.850535,-2.52025 4.382575,-1.76948 7.875645,-1.4644 1.37446,0.12204 5.49095,0.22815 6.72667,-0.20162 l -0.0135,-0.11672 c -0.36451,-0.15387 -7.46577,-0.0212 -8.33592,-0.0186 1.95651,-3.63977 1.56043,-5.14396 1.5225,-9.14717 l -0.0302,-7.3777 c -0.008,-5.97776 0.26397,-11.99823 -0.25653,-17.95742 -0.082,-0.93912 -1.28135,-2.516 -1.42752,-3.58724 z m 17.02838,36.89164 c 0.23345,-0.34753 0.61892,-0.963 0.44993,-1.32379 -1.15374,-2.46984 -7.15007,-16.98912 -8.42001,-17.9805 -0.5457,3.93609 0.18623,9.13311 -0.12708,13.2053 -0.12813,1.66336 -0.001,4.14381 0.83195,5.62678 0.77571,1.16197 6.09502,0.74811 7.26521,0.47221 z m 8.23749,0.37141 c 0.65394,-1.29992 0.91578,-4.5391 -0.69956,-5.22355 -0.83116,-0.35283 -2.51044,-0.16978 -3.4607,-0.11407 -0.35629,1.02402 1.73181,5.3164 3.05401,5.56842 0.40377,0.0769 0.74811,-0.0531 1.10625,-0.2308 z"
     id="path20-4"
     style="stroke-width:0.265289" /><path
     fill="#020202"
     d="m 112.12546,271.57704 c 0.83673,0.0679 1.44795,0.25336 1.81724,1.08132 2.40643,5.40527 4.96594,10.74289 7.38087,16.14152 0.83566,1.87029 1.03489,2.3823 -0.20507,4.0828 -1.56175,0.54915 -6.37092,0.51732 -7.89102,-0.38201 -1.39304,-0.63935 -1.75144,-4.0324 -1.65355,-5.4119 0.19127,-2.69269 -0.60247,-13.7128 0.55153,-15.51173 z m 8.47122,20.36917 c 0.23345,-0.34753 0.61892,-0.963 0.44993,-1.32379 -1.15374,-2.46984 -7.15007,-16.98912 -8.42001,-17.9805 -0.5457,3.93609 0.18623,9.13311 -0.12708,13.2053 -0.12813,1.66336 -0.001,4.14381 0.83195,5.62678 0.77571,1.16197 6.09502,0.74811 7.26521,0.47221 z"
     id="path21-1"
     style="stroke-width:0.265289" /><path
     fill="#020202"
     d="m 124.51712,286.21331 c 4.69191,-0.38997 6.39825,-0.053 5.56922,5.51006 -0.1284,0.86219 -0.37326,1.1434 -0.96512,1.75621 -0.54544,0.0822 -2.00081,0.24142 -2.34198,-0.191 -1.0272,-1.30257 -3.16171,-5.0856 -3.21159,-6.63754 0.30376,-0.38467 0.38865,-0.29978 0.94947,-0.43773 z m 4.31705,6.10431 c 0.65394,-1.29992 0.91578,-4.5391 -0.69956,-5.22355 -0.83116,-0.35283 -2.51044,-0.16978 -3.4607,-0.11407 -0.35629,1.02402 1.73181,5.3164 3.05401,5.56842 0.40377,0.0769 0.74811,-0.0531 1.10625,-0.2308 z"
     id="path22-2"
     style="stroke-width:0.265289" /><path
     fill="#020202"
     d="m 108.05646,262.75459 c 0.8216,0.0798 1.23492,0.13291 1.48217,0.92427 -0.0584,0.65499 -0.31225,0.90251 -0.69957,1.42035 -0.12654,6.61632 -0.0753,13.82926 -0.0127,20.45884 0.3523,0.44303 0.4242,0.55445 0.66826,1.06381 0.0592,0.57302 -0.13105,0.76669 -0.43136,1.27073 -0.70859,-0.18835 -0.95026,-0.26794 -1.24527,-0.90994 0.0228,-0.5969 0.20215,-0.74281 0.55738,-1.22829 -0.0374,-4.60011 0.14617,-9.22675 0.0761,-13.83058 -0.0411,-2.68659 0.38016,-5.41217 -0.67622,-7.96398 -0.17058,-0.41253 0.096,-0.83991 0.28121,-1.20521 z"
     id="path23-0"
     style="stroke-width:0.265289" /><path
     fill="#2d2d2c"
     d="m 108.28196,263.38757 c 0.1605,-0.1093 0.36822,-0.12071 0.53959,-0.0297 0.17138,0.091 0.27856,0.26926 0.27829,0.46319 0,0.19419 -0.10771,0.3722 -0.27935,0.46266 -0.24566,0.12973 -0.54968,0.0448 -0.69293,-0.19339 -0.14299,-0.23823 -0.0754,-0.54676 0.1544,-0.70275 z"
     id="path24-0"
     style="stroke-width:0.265289" /><path
     fill="#44453c"
     d="m 97.94284,142.2629 c 1.502067,-0.15175 2.85106,-0.1231 4.3595,-0.11408 0.0764,2.55553 -0.0475,5.65756 -0.0377,8.30063 l 0.0294,22.73396 -0.0226,53.70673 c 0.0852,4.99009 0.10347,10.74873 0.0175,15.74518 l 0.26264,0.22523 c 0.76111,-0.12442 0.63643,-0.23106 1.16117,0.0902 l 0.17801,0.32604 c -0.26635,0.38653 -0.81603,0.38945 -1.37049,0.49132 l -0.1215,0.0223 c -0.21753,0.67596 -0.0629,1.09326 -0.17615,1.73764 -0.71681,1.73765 -2.84841,1.31292 -4.391066,1.23493 -0.02547,-0.52766 -0.04298,-1.05585 -0.05253,-1.58431 -0.263167,-11.21324 0.107442,-22.79126 0.0955,-34.01246 -7.96e-4,-0.64067 1.15162,-0.75289 1.585103,-1.20866 0.149888,-0.48256 0.150418,-0.54119 0.01698,-1.02879 -0.557373,-0.54809 -0.678079,-0.38361 -1.534963,-0.67649 -0.487336,-1.02428 -0.2889,-9.13417 0.129726,-10.57151 0.188886,-0.64863 1.094318,-0.59133 1.45856,-1.15109 0.07561,-0.60592 0.12787,-0.40138 -0.08993,-0.92692 -0.440645,-0.3462 -0.985814,-0.35257 -1.56388,-0.43666 -0.263962,-6.46669 -0.154928,-14.02186 -0.136093,-20.55116 0.01247,-10.78427 0.07985,-21.56854 0.202681,-32.35201 z"
     id="path25-1"
     style="stroke-width:0.265289" /><path
     fill="#020202"
     d="m 102.04899,236.76262 c -0.60035,0.50378 -0.70514,0.64624 -1.41983,0.43825 -1.134644,-1.01128 -1.385077,-8.2688 0.57939,-8.55319 0.46956,0.23028 0.53907,0.5335 0.7704,1.01978 0,1.70819 -0.10399,5.52517 0.07,7.09516 z"
     id="path26-4"
     style="stroke-width:0.265289" /><path
     fill="#2d2d2c"
     d="m 100.92655,229.33266 c 1.06009,0.668 0.65659,6.46642 0.0918,7.59841 -1.026937,-1.06832 -0.65447,-6.25313 -0.0918,-7.59841 z"
     id="path27-6"
     style="stroke-width:0.265289" /><path
     fill="#525251"
     d="m 101.97895,229.66746 c 0.33612,-0.73167 -0.13026,-2.10534 0.29261,-2.77732 0.0852,4.99009 0.10347,10.74873 0.0175,15.74518 l -0.13423,-0.0366 c -0.18464,-1.59863 0.0233,-4.02629 -0.10585,-5.83609 -0.17403,-1.56999 -0.07,-5.38697 -0.07,-7.09516 z"
     id="path28-0"
     style="stroke-width:0.265289" /><path
     fill="#2d2d2c"
     d="m 102.15484,242.59871 0.13423,0.0366 0.26264,0.22523 c 0.76111,-0.12442 0.63643,-0.23106 1.16117,0.0902 l 0.17801,0.32604 c -0.26635,0.38653 -0.81603,0.38945 -1.37049,0.49132 l -0.1215,0.0223 c -0.21753,0.67596 -0.0629,1.09326 -0.17615,1.73764 -0.0735,-0.83327 -0.06,-2.07509 -0.0679,-2.92932 z"
     id="path29-7"
     style="stroke-width:0.265289" /><path
     fill="#020202"
     d="m 100.11874,153.0798 c 2.34755,0.2499 1.67265,6.21121 0.68418,7.5671 -2.313584,-0.27616 -1.696787,-6.23482 -0.68418,-7.5671 z"
     id="path30-1"
     style="stroke-width:0.265289" /><path
     fill="#2d2d2c"
     d="m 100.40287,154.49273 c 0.45736,0.72238 0.24618,3.98995 0.20772,4.92191 -0.5587,-0.5786 -0.25123,-4.05123 -0.20772,-4.92191 z"
     id="path31-7"
     style="stroke-width:0.265289" /><path
     fill="#020202"
     d="m 100.20867,176.99986 c 2.11277,0.47938 1.20972,5.13812 0.46108,6.55238 -1.947756,-1.09432 -1.796806,-5.13998 -0.46108,-6.55238 z"
     id="path32-7"
     style="stroke-width:0.265289" /><path
     fill="#2d2d2c"
     d="m 100.25908,178.56533 c 0.44516,0.55711 0.22205,3.03093 0.18331,3.84696 l -0.13105,-0.11222 c -0.29314,-0.80515 -0.11726,-2.79508 -0.0523,-3.73474 z"
     id="path33-7"
     style="stroke-width:0.265289" /><path
     fill="#020202"
     d="m 100.19037,162.3161 c 2.03981,0.4502 1.43601,4.70385 0.47115,6.01862 -1.997359,-1.31 -1.564141,-4.25179 -0.47115,-6.01862 z"
     id="path34-7"
     style="stroke-width:0.265289" /><path
     fill="#2d2d2c"
     d="m 100.24926,163.72903 c 0.41571,0.48442 0.23425,2.24541 0.20746,2.96382 l -0.22603,-0.23372 c -0.14431,-0.90384 -0.0422,-1.81538 0.0186,-2.7301 z"
     id="path35-3"
     style="stroke-width:0.265289" /><path
     fill="#020202"
     d="m 100.01501,169.72563 c 0.38626,0.0202 0.44649,0.0663 0.78791,0.21966 1.23227,1.27976 0.69453,4.11013 0.003,5.55728 -2.176172,-1.11103 -1.707936,-3.96448 -0.79057,-5.77694 z"
     id="path36-3"
     style="stroke-width:0.265289" /><path
     fill="#2d2d2c"
     d="m 100.2291,171.26882 c 0.49317,0.61308 0.24062,2.11648 0.17828,2.97495 l -0.18411,-0.12389 c -0.12124,-0.89164 -0.035,-1.94006 0.006,-2.85106 z"
     id="path37-5"
     style="stroke-width:0.265289" /><path
     fill="#020202"
     d="m 99.52529,146.37222 c -2.506718,-2.85955 1.00067,-3.77639 2.08809,-2.46214 0.26662,0.70699 -0.2109,2.14884 -0.93329,2.35921 0.0446,0.66137 0.4173,1.35855 -0.0369,1.88807 -1.873474,0.12627 -0.687631,-0.79481 -1.11793,-1.78514 z"
     id="path38-9"
     style="stroke-width:0.265289" /><path
     fill="#44453c"
     d="m 99.795089,143.72278 c 1.507371,0.15758 1.680871,0.94204 0.956371,2.16184 -0.62609,-1.08662 -0.70992,-0.48733 -1.502867,-1.29275 0.06314,-0.4754 0.178275,-0.46479 0.546496,-0.86909 z"
     id="path39-9"
     style="stroke-width:0.265289" /><path
     fill="#020202"
     d="m 99.636181,241.64234 c 3.096989,-0.0708 1.806089,2.41971 1.048689,4.05654 l -0.20587,0.07 c -1.763107,-0.39077 -2.081454,-2.88317 -0.842819,-4.12658 z"
     id="path40-8"
     style="stroke-width:0.265289" /><path
     fill="#44453c"
     d="m 99.986363,242.06336 c 0.370877,-0.0889 0.760847,0.0308 1.017917,0.31277 0.25706,0.28174 0.34063,0.68127 0.2178,1.04233 -0.12256,0.36132 -0.43189,0.6274 -0.80728,0.69452 -0.557368,0.0995 -1.093252,-0.2621 -1.209184,-0.81682 -0.115931,-0.55446 0.230006,-1.10042 0.780747,-1.2328 z"
     id="path41-1"
     style="stroke-width:0.265289" /><path
     fill="#020202"
     d="m 100.34636,226.47682 c 0.33082,-0.10054 0.68418,0.0666 0.81629,0.38626 0.13212,0.31994 0,0.68763 -0.30561,0.85026 -0.22549,0.11991 -0.4998,0.1016 -0.70752,-0.0478 -0.207461,-0.14909 -0.312515,-0.40324 -0.270865,-0.65526 0.04192,-0.25229 0.223105,-0.45895 0.467705,-0.5335 z"
     id="path42-8"
     style="stroke-width:0.265289" /><path
     fill="#020202"
     d="m 100.32036,218.15391 c 0.32657,-0.11965 0.68949,0.0385 0.82426,0.35893 0.13476,0.32074 -0.006,0.69081 -0.32021,0.84044 -0.21647,0.1032 -0.47221,0.079 -0.66534,-0.0631 -0.1934,-0.14193 -0.292883,-0.37883 -0.259192,-0.61627 0.03369,-0.2377 0.195252,-0.43746 0.420482,-0.51996 z"
     id="path43-2"
     style="stroke-width:0.265289" /><path
     fill="#020202"
     d="m 100.40499,186.23325 c 0.32684,-0.0531 0.63961,0.15334 0.71973,0.4746 0.0801,0.32127 -0.0992,0.65049 -0.41279,0.75714 -0.22735,0.0775 -0.47911,0.0204 -0.65076,-0.14777 -0.171638,-0.16819 -0.233981,-0.41862 -0.161557,-0.64783 0.07269,-0.22895 0.268207,-0.39767 0.505377,-0.43614 z"
     id="path44-6"
     style="stroke-width:0.265289" /><path
     fill="#44453c"
     d="m 130.88884,212.04297 0.16182,-0.24911 c 0.91631,2.70728 0.52236,8.56035 -0.5441,11.20449 1.14047,4.19555 1.46598,2.50194 4.90519,3.42356 2.63194,0.70514 5.73874,4.12259 8.79275,3.55196 1.13544,-0.2263 1.54823,-1.28427 2.87043,-0.92719 1.75913,1.54796 -1.95359,12.78508 -3.96502,13.42284 -2.37142,0.0167 -11.34376,-8.03667 -15.06418,-8.65215 -3.01899,-0.49927 -3.40047,0.69878 -4.11384,0.61707 -0.20931,-0.36982 -0.15307,-0.61309 -0.14431,-1.05851 0.0286,-3.67584 0.0305,-7.35169 0.006,-11.02727 2.52927,1.70528 5.40182,1.69413 6.86463,-1.30018 0.73379,-1.50128 0.77278,-7.6215 0.23027,-9.00551 z"
     id="path45-6"
     style="stroke-width:0.265289" /><path
     fill="#2d2d2c"
     d="m 130.50656,222.99835 c 1.14047,4.19555 1.46598,2.50194 4.90519,3.42356 2.63194,0.70514 5.73874,4.12259 8.79275,3.55196 1.13544,-0.2263 1.54823,-1.28427 2.87043,-0.92719 1.75913,1.54796 -1.95359,12.78508 -3.96502,13.42284 -2.37142,0.0167 -11.34376,-8.03667 -15.06418,-8.65215 -3.01899,-0.49927 -3.40047,0.69878 -4.11384,0.61707 -0.20931,-0.36982 -0.15307,-0.61309 -0.14431,-1.05851 1.15798,0.0133 3.11661,-1.4697 4.82481,-0.64969 2.00585,0.963 3.70821,2.27326 5.56842,3.479 2.82905,1.84244 5.69682,3.62465 8.60147,5.34531 0.59849,-0.58231 1.02004,-1.40444 1.44185,-2.12178 1.76629,-3.00148 2.24567,-5.88623 2.23904,-9.30608 -0.89827,0.5213 -1.86127,0.86935 -2.82666,1.25111 -3.08955,-1.18611 -5.94513,-2.90704 -9.01028,-4.04726 -1.60898,-0.59875 -3.84908,0.55791 -4.27036,-2.62211 -0.0939,-0.71071 -0.0241,-1.00863 0.15069,-1.70608 z"
     id="path46-0"
     style="stroke-width:0.265289" /><path
     fill="#2d2d2c"
     d="m 133.46904,228.30095 c 0.68498,0.59398 0.44091,5.48088 0.43163,6.47438 l -0.20985,-0.18862 c -0.40616,-1.33095 -0.24566,-4.74204 -0.22178,-6.28576 z"
     id="path47-3"
     style="stroke-width:0.265289" /><path
     fill="#2d2d2c"
     d="m 136.37555,229.22655 c 0.6932,0.77756 0.41465,6.01808 0.3791,7.1957 -0.49795,-1.041 -0.38759,-5.75359 -0.3791,-7.1957 z"
     id="path48-8"
     style="stroke-width:0.265289" /><path
     fill="#2d2d2c"
     d="m 135.46508,228.92093 c 0.4815,0.57833 0.40695,5.98307 0.38997,7.04688 -0.62635,-0.61255 -0.43746,-5.9316 -0.38997,-7.04688 z"
     id="path49-0"
     style="stroke-width:0.265289" /><path
     fill="#2d2d2c"
     d="m 141.06692,231.34249 c 0.50538,0.71496 0.23054,6.47783 0.18305,7.64749 -0.48097,-0.43587 -0.21435,-6.69722 -0.18305,-7.64749 z"
     id="path50-1"
     style="stroke-width:0.265289" /><path
     fill="#2d2d2c"
     d="m 132.45192,228.13939 0.22099,0.19738 c 0.32975,1.17549 0.18278,4.44226 0.1544,5.82654 l -0.17297,-0.14723 c -0.34223,-1.04737 -0.22391,-4.59747 -0.20242,-5.87669 z"
     id="path51-2"
     style="stroke-width:0.265289" /><path
     fill="#2d2d2c"
     d="m 131.54092,228.30732 c 0.53668,0.66667 0.31251,4.37727 0.25547,5.41959 -0.50511,-0.97812 -0.29129,-4.14992 -0.25547,-5.41959 z"
     id="path52-5"
     style="stroke-width:0.265289" /><path
     fill="#44453c"
     d="m 124.20408,206.69076 c 0.41677,3.0678 1.76842,2.87733 4.39239,3.08637 l -0.15811,0.30694 c -0.25255,-0.0703 -0.50988,-0.12256 -0.76987,-0.15652 -1.83606,-0.23557 -3.09486,0.72159 -4.43192,1.77903 -0.49105,7.71753 0.10559,16.39222 -0.23,24.21666 -3.39332,1.09618 -3.96634,1.90955 -5.58806,5.01635 -0.0382,-4.30988 -0.52421,-27.30435 0.51679,-29.89756 0.38493,-0.95902 1.43654,-1.27445 2.31014,-1.64028 0.0172,-0.49954 -0.0228,-1.91671 0.20798,-2.21225 0.28466,0.43614 0.28996,0.43587 0.73963,0.14671 1.09936,-0.70726 1.75727,-0.65076 3.01103,-0.64545 z"
     id="path53-0"
     style="stroke-width:0.265289" /><path
     fill="#020202"
     d="m 119.0909,213.4681 c 0.28678,-0.16554 0.6412,-0.1605 0.9232,0.0127 0.28227,0.1735 0.44675,0.48733 0.42898,0.81815 -0.018,0.33055 -0.21542,0.62502 -0.51466,0.76668 -0.43773,0.20773 -0.96115,0.0326 -1.18585,-0.39634 -0.22496,-0.42897 -0.0714,-0.95928 0.34833,-1.20123 z"
     id="path54-9"
     style="stroke-width:0.265289" /><path
     fill="#020202"
     d="m 122.11201,207.86201 c 0.2958,-0.0729 0.60804,0.0188 0.81736,0.24009 0.20958,0.22125 0.28412,0.53801 0.19525,0.82956 -0.0889,0.29155 -0.32737,0.5128 -0.62449,0.57965 -0.45312,0.10161 -0.90358,-0.18039 -1.00996,-0.63271 -0.10638,-0.45205 0.17085,-0.90543 0.62184,-1.01659 z"
     id="path55-4"
     style="stroke-width:0.265289" /><path
     fill="#020202"
     d="m 121.26653,211.33677 c 0.24274,-0.15864 0.5534,-0.16979 0.80701,-0.0292 0.25362,0.14087 0.40855,0.41067 0.40218,0.70063 -0.006,0.28996 -0.1727,0.55259 -0.43215,0.68232 -0.37035,0.18517 -0.82107,0.0493 -1.0272,-0.31012 -0.2064,-0.3592 -0.0966,-0.81709 0.25016,-1.04365 z"
     id="path56-7"
     style="stroke-width:0.265289" /><path
     fill="#020202"
     d="m 119.08214,219.20604 c 0.37698,-0.18092 0.82903,-0.0231 1.01208,0.35284 0.18305,0.37591 0.0284,0.82903 -0.3462,1.01446 -0.37804,0.1873 -0.83619,0.0308 -1.02083,-0.34859 -0.18465,-0.37936 -0.0255,-0.83645 0.35495,-1.01871 z"
     id="path57-8"
     style="stroke-width:0.265289" /><path
     fill="#020202"
     d="m 119.92391,224.04969 c 0.35601,-0.0183 0.6725,0.2255 0.74546,0.57462 0.073,0.34912 -0.11885,0.6993 -0.45259,0.82531 -0.26688,0.10108 -0.56824,0.0356 -0.76933,-0.16713 -0.20109,-0.20268 -0.26423,-0.50458 -0.1613,-0.77093 0.10293,-0.26635 0.35284,-0.44728 0.63776,-0.46187 z"
     id="path58-3"
     style="stroke-width:0.265289" /><path
     fill="#020202"
     d="m 121.04687,229.63536 c 0.21038,-0.15016 0.48708,-0.16926 0.71602,-0.0494 0.22894,0.11991 0.37114,0.35841 0.36743,0.6168 -0.003,0.25839 -0.15202,0.49291 -0.38414,0.60672 -0.32021,0.15678 -0.70753,0.0414 -0.89005,-0.26503 -0.18252,-0.30641 -0.0998,-0.70195 0.19074,-0.90914 z"
     id="path59-5"
     style="stroke-width:0.265289" /><path
     fill="#44453c"
     d="m 130.1638,120.74449 31.07279,3.11344 c 3.85227,0.38148 7.70957,0.7245 11.55892,1.13278 1.17735,0.12495 2.05254,-0.0764 2.41413,1.16409 l -0.22497,0.85317 c -0.0377,0.43004 -0.0151,0.73008 -0.25122,1.07389 -1.16038,0.40298 -14.06245,-1.11076 -16.26409,-1.33334 -9.49072,-0.98475 -18.99125,-1.87188 -28.50001,-2.66085 0.004,-1.03808 0.12282,-2.29237 0.19445,-3.34318 z"
     id="path60-1"
     style="stroke-width:0.265289" /><path
     fill="#525251"
     d="m 174.98467,127.00797 c -0.17217,-0.004 -0.3454,-0.005 -0.51704,-0.021 -8.63092,-0.81762 -17.25919,-1.67636 -25.88745,-2.52051 l -10.18154,-0.97573 c -1.42646,-0.13212 -6.82376,-0.38547 -7.6199,-1.29223 l 0.11089,-0.16527 c 1.94112,-0.73008 7.8775,0.31596 10.22823,0.57541 l 14.05051,1.4437 10.83494,1.05188 c 3.03332,0.27696 6.21864,0.49635 9.20633,1.05054 z"
     id="path61-2"
     style="stroke-width:0.265289" /><path
     fill="#44453c"
     d="m 113.6461,146.99459 c 1.02694,0.32445 2.23374,0.31941 3.31559,0.36212 -0.0188,1.28957 -0.14299,3.51933 0.11566,4.6935 0.46612,-0.60433 -0.007,-1.99816 0.4502,-2.45101 0.35814,0.46665 0.97679,4.37727 1.0203,5.14847 0.0223,0.39157 -0.18305,2.21304 -0.23982,2.71656 -0.55552,0.30641 -1.18717,0.57992 -1.76868,0.84733 -0.0478,8.3399 5.3e-4,16.68033 0.14458,25.01943 l -1.66363,0.14776 c -0.002,1.10812 0.002,2.83064 -1.15931,3.3904 -0.85768,0.41358 -2.16795,0.67834 -2.61629,-0.41173 0.33002,-0.35443 0.74573,-0.36212 1.28825,-0.50856 0.69612,-2.64228 -0.91392,-7.9218 0.99112,-9.72922 0.17482,-7.36867 0.0507,-14.66014 -0.0435,-22.02563 -0.0284,-2.21941 -0.17323,-5.04076 0.16554,-7.19942 z"
     id="path62-0"
     style="stroke-width:0.265289" /><path
     fill="#020202"
     d="m 114.27192,153.61595 c 2.89749,-0.1093 2.50194,1.71509 2.16688,3.93079 -0.0459,0.30349 -1.19353,0.3332 -1.64108,0.54888 0.32445,0.0814 0.36504,0.0716 0.6497,0.26317 l -0.0135,0.23398 c -0.44012,0.1727 -0.2125,0.1475 -0.70912,0.0265 -0.66747,-0.73008 -0.48336,-3.91885 -0.45285,-5.00335 z"
     id="path63-1"
     style="stroke-width:0.265289" /><path
     fill="#44453c"
     d="m 114.66136,153.83375 c 1.38826,0.75607 0.93382,2.37115 0.82028,3.73951 -0.18385,-0.0515 -0.41359,-0.14352 -0.5977,-0.21037 -0.5961,-0.89588 -0.31437,-2.44066 -0.22258,-3.52914 z"
     id="path64-6"
     style="stroke-width:0.265289" /><path
     fill="#020202"
     d="m 114.83407,170.94463 c 0.37087,-0.14219 0.78923,0.0194 0.96804,0.37406 0.17907,0.35443 0.0607,0.78712 -0.27378,1.0012 -0.24884,0.15918 -0.56666,0.16289 -0.81921,0.009 -0.25229,-0.15334 -0.39555,-0.43693 -0.36902,-0.73114 0.0265,-0.2942 0.21833,-0.54782 0.49397,-0.65341 z"
     id="path65-4"
     style="stroke-width:0.265289" /><path
     fill="#020202"
     d="m 114.71681,161.55393 c 0.38361,-0.18438 0.84388,-0.0225 1.028,0.36106 0.18411,0.38387 0.0223,0.84441 -0.36159,1.02826 -0.38361,0.18384 -0.84336,0.0217 -1.0272,-0.36159 -0.18411,-0.38334 -0.0225,-0.84336 0.36079,-1.02773 z"
     id="path66-0"
     style="stroke-width:0.265289" /><path
     fill="#020202"
     d="m 114.74148,173.82276 c 0.36981,-0.18252 0.81709,-0.0294 0.99802,0.34116 0.18066,0.37061 0.026,0.81736 -0.34514,0.99696 -0.36902,0.17827 -0.81285,0.0247 -0.99271,-0.34382 -0.17987,-0.36849 -0.0279,-0.81311 0.33983,-0.9943 z"
     id="path67-6"
     style="stroke-width:0.265289" /><path
     fill="#020202"
     d="m 114.76032,151.1217 c 0.21462,-0.14273 0.49052,-0.1544 0.71654,-0.0308 0.22603,0.12363 0.36504,0.36239 0.3608,0.62025 -0.004,0.2576 -0.15095,0.49158 -0.38096,0.60778 -0.32763,0.1658 -0.72769,0.0472 -0.91233,-0.27033 -0.18464,-0.31755 -0.0899,-0.72398 0.21595,-0.92692 z"
     id="path68-1"
     style="stroke-width:0.265289" /><path
     fill="#44453c"
     d="m 103.79592,34.962442 c -0.031,-1.050625 0.12468,-1.752501 1.18159,-2.19052 2.31332,-0.958542 5.8812,-1.115673 7.17501,1.369662 -0.18994,4.476543 -0.0639,7.767985 -0.018,12.183724 l 0.039,1.217677 -0.17164,0.487336 c -0.41146,0.185438 -2.70728,-0.142725 -3.45778,-0.120971 -0.96008,-0.05412 -1.93316,0.123624 -2.88608,0.137685 -1.16011,0.01698 -1.36704,0.467705 -1.85225,-0.588677 -0.007,-0.275635 -0.0746,-0.681793 -0.11301,-0.967775 0.25812,-1.397809 0.007,-4.573055 0.003,-6.126323 -0.005,-1.829699 0.0523,-3.572384 0.10028,-5.401818 z"
     id="path69-8"
     style="stroke-width:0.265289" /><path
     fill="#2d2d2c"
     d="m 112.15252,34.141584 c -0.18994,4.476543 -0.0639,7.767985 -0.018,12.183724 l 0.039,1.217677 -0.17164,0.487336 c -0.41146,0.185438 -2.70728,-0.142725 -3.45778,-0.120971 -0.96008,-0.05412 -1.93316,0.123624 -2.88608,0.137685 -1.16011,0.01698 -1.36704,0.467705 -1.85225,-0.588677 -0.007,-0.275635 -0.0746,-0.681793 -0.11301,-0.967775 0.25812,-1.397809 0.007,-4.573055 0.003,-6.126323 -0.005,-1.829699 0.0523,-3.572384 0.10028,-5.401818 0.56002,-0.175887 2.0605,-0.665903 2.55579,-0.473276 -0.10505,0.132644 -0.40589,0.493172 -0.40907,0.652611 -0.0735,3.540815 -0.35496,7.01743 -0.32976,10.562489 1.53443,-0.167398 3.19541,-0.131053 4.74815,-0.129992 -0.0249,-3.150839 -0.25203,-6.317331 -0.29527,-9.468701 -0.01,-0.694527 -0.81019,-1.075748 -0.2576,-1.78208 0.92109,-0.07189 1.14022,0.764431 2.17723,0.360395 z"
     id="path70-9"
     style="stroke-width:0.265289" /><path
     fill="#44453c"
     d="m 103.69272,46.490583 c 2.14751,-0.992181 6.1173,-0.701955 8.44176,-0.165275 l 0.039,1.217677 -0.17164,0.487336 c -0.41146,0.185438 -2.70728,-0.142725 -3.45778,-0.120971 -0.96008,-0.05412 -1.93316,0.123624 -2.88608,0.137685 -1.16011,0.01698 -1.36704,0.467705 -1.85225,-0.588677 -0.007,-0.275635 -0.0746,-0.681793 -0.11301,-0.967775 z"
     id="path71-8"
     style="stroke-width:0.265289" /><path
     fill="#2d2d2c"
     d="m 103.80573,47.458358 c 3.05295,-0.176417 5.35115,-0.131583 8.36775,0.08463 l -0.17164,0.487336 c -0.41146,0.185438 -2.70728,-0.142725 -3.45778,-0.120971 -0.96008,-0.05412 -1.93316,0.123624 -2.88608,0.137685 -1.16011,0.01698 -1.36704,0.467705 -1.85225,-0.588677 z"
     id="path72-4"
     style="stroke-width:0.265289" /><path
     fill="#44453c"
     d="m 103.37755,106.41755 0.25282,0.30084 c 0.56427,2.26292 -0.15201,6.12287 0.0385,8.53276 0.59213,7.49256 0.46452,14.96974 0.44728,22.47795 -0.003,1.24898 0.16899,8.1213 -0.7123,8.65506 -0.56029,-1.54982 -0.25946,-8.56963 -0.24911,-10.66197 -0.0891,-2.44305 0.43959,-14.69224 -0.44409,-15.81097 -1.03622,-1.31159 -4.368254,-2.63538 -5.940623,-3.45725 -1.563615,-0.81709 -3.880385,-1.76258 -4.979744,-3.18028 -0.297124,-0.38335 -0.526333,-0.85052 -0.439849,-1.34714 0.346202,-1.98861 6.990104,-3.31665 8.857206,-3.96661 1.14844,-0.39979 2.15574,-0.87041 3.16994,-1.54239 z m -10.262708,5.86608 c 1.34369,1.21396 2.449946,1.77186 4.029212,2.59054 1.595184,0.93303 3.191426,1.98994 4.981866,2.43536 0.0738,-1.25747 0.38202,-7.09463 -0.0525,-7.97088 -0.40138,-0.10744 -0.38705,-0.0947 -0.80568,-0.0363 -2.164495,0.64093 -6.371716,1.87029 -8.152868,2.98132 z"
     id="path73-1"
     style="stroke-width:0.265289" /><path
     fill="#020202"
     d="m 101.58659,108.39024 0.53615,0.0629 c 1.36862,1.03171 1.27577,9.14345 -0.0902,9.61036 -1.43203,-0.19605 -3.916466,-1.8098 -5.292786,-2.5863 -1.172579,-0.58152 -4.424759,-1.83474 -4.369844,-3.25749 0.861394,-1.514 7.218253,-3.18533 9.21668,-3.82945 z m -8.471748,3.89339 c 1.34369,1.21396 2.449946,1.77186 4.029212,2.59054 1.595184,0.93303 3.191426,1.98994 4.981866,2.43536 0.0738,-1.25747 0.38202,-7.09463 -0.0525,-7.97088 -0.40138,-0.10744 -0.38705,-0.0947 -0.80568,-0.0363 -2.164495,0.64093 -6.371716,1.87029 -8.152868,2.98132 z"
     id="path74-4"
     style="stroke-width:0.265289" /><path
     fill="#44453c"
     d="m 106.39601,162.34714 c 0.50458,0.0135 0.62794,-0.0159 1.07204,0.18809 0.21727,0.707 0.11407,5.20763 0.10983,6.17381 l -0.007,17.23213 c -0.022,2.26026 -0.3011,8.01969 0.0326,9.95577 0.42632,-2.72877 0.26608,-6.21228 0.27802,-9.04557 l 0.12813,-16.79041 c 0.005,-2.22684 -0.0188,-4.48657 -0.13105,-6.71553 -0.0178,-0.35761 0.0783,-0.59717 0.2958,-0.8683 0.52209,-0.0822 0.31304,-0.0918 0.8147,0.0976 0.50803,0.63165 0.26317,10.57814 0.25733,11.9993 -0.005,2.62079 -0.40616,14.84478 0.13636,16.33332 l 0.11514,-0.0533 c 0.15333,-1.51029 0.0708,-4.16 0.0939,-5.79657 0.21276,0.31118 0.70805,1.01818 0.74679,1.35138 0.41915,3.59706 0.28067,8.17595 0.27696,11.80272 -1.36704,0.67861 -3.23706,1.41213 -4.67307,2.02124 -0.19817,-8.77153 0.26927,-17.90066 0.27882,-26.72073 0.002,-2.28652 -0.17005,-9.54033 0.17482,-11.16496 z"
     id="path75-3"
     style="stroke-width:0.265289" /><path
     fill="#020202"
     d="m 107.39218,196.3925 c 0.9614,0.0215 1.50869,0.0666 1.9435,0.93939 0.0478,0.57966 -0.15254,0.84574 -0.42181,1.35138 -1.85702,0.53774 -1.93263,-0.95477 -1.52169,-2.29077 z"
     id="path76-9"
     style="stroke-width:0.265289" /><path
     fill="#2d2d2c"
     d="m 107.76464,196.97348 c 0.21011,-0.15148 0.48548,-0.17801 0.72053,-0.0695 0.23531,0.10877 0.39369,0.33559 0.41438,0.59398 0.021,0.25813 -0.099,0.5075 -0.31357,0.65261 -0.32498,0.2194 -0.76563,0.13742 -0.99006,-0.18411 -0.22444,-0.32153 -0.14936,-0.7635 0.16872,-0.99298 z"
     id="path77-8"
     style="stroke-width:0.265289" /><path
     fill="#44453c"
     d="m 115.52462,184.04064 3.99233,0.0345 0.0425,15.34592 c 0.0186,2.82798 0.22735,6.98427 -0.0263,9.71728 h -3.25907 c -0.55764,0.0313 -0.72185,0.0292 -1.27366,-0.0496 -0.50431,-0.64147 -0.42632,-13.71386 -0.4494,-15.75977 l 0.10161,-0.007 c 0.99881,-0.0671 1.50339,-0.002 2.16847,-0.76032 0.083,-0.69241 0.0634,-4.92058 -0.20878,-5.32409 -0.54596,-0.24619 -1.17629,-0.13981 -1.78221,-0.0971 0.57621,-1.2893 0.63192,-1.67609 0.69453,-3.10016 z"
     id="path78-8"
     style="stroke-width:0.265289" /><path
     fill="#020202"
     d="m 115.75568,205.89065 c 1.44371,0.25786 1.84244,1.38322 0.55552,2.23612 -0.55101,0.083 -0.33851,0.12575 -0.81815,-0.11116 -0.33241,-0.4295 -0.27988,-0.629 -0.28811,-1.17788 0.34939,-0.0676 0.35575,-0.0769 0.73061,-0.0504 0.0907,0.2361 0.13715,0.33691 0.17695,0.58788 l 0.0244,0.16182 c 0.34435,-0.34912 0.42632,-0.38228 0.5144,-0.83884 -0.33161,-0.23531 -0.77358,-0.15307 -1.25774,-0.16342 l -0.079,-0.15387 z"
     id="path79-0"
     style="stroke-width:0.265289" /><path
     fill="#44453c"
     d="m 127.82952,297.57034 2.13187,-0.0637 c 0.91445,0.94709 1.47394,1.77214 2.21702,2.8439 -11.16894,0.0318 -22.33788,0 -33.506555,-0.0982 l -5.035454,-0.0477 c 0.49105,-0.83832 1.187965,-1.76152 1.761255,-2.5627 6.905744,-0.0796 13.888154,0.0451 20.798404,0.0106 3.85121,-0.0186 7.79552,0.0928 11.63346,-0.0822 z"
     id="path80-8"
     style="stroke-width:0.265289" /><path
     fill="#44453c"
     d="m 114.70301,127.31279 c 1.47448,-0.0268 3.05136,0.0148 4.53406,0.0286 0.0223,6.25021 0.27405,13.12863 -0.10983,19.27936 -1.01446,0.0987 -3.30975,0.0361 -4.41918,0.0385 -0.10798,-6.45263 -0.008,-12.89173 -0.005,-19.34648 z"
     id="path81-7"
     style="stroke-width:0.265289" /><path
     fill="#44453c"
     d="m 106.57402,84.234336 c 1.73102,-0.101075 2.38442,-0.06155 4.06954,0.330285 -0.078,3.970848 0.0942,7.923657 0.13981,11.892649 0.0127,1.111826 0.0817,2.423681 -0.0767,3.505531 -0.45338,0.324979 -0.47567,0.222049 -1.1036,0.234779 -1.44689,-0.0541 -2.8959,-0.0148 -4.33775,0.11779 -0.0244,-3.394906 -0.0196,-6.790076 0.0143,-10.184717 0.01,-1.455376 -0.0584,-4.033457 0.14405,-5.359372 0.41836,-0.444094 0.50538,-0.358671 1.15029,-0.536945 z"
     id="path82-7"
     style="stroke-width:0.265289" /><path
     fill="#44453c"
     d="m 86.199814,195.22788 c 2.778374,0.047 3.189042,1.63126 4.610992,3.67266 0.01114,2.17272 0.304552,11.85949 -1.478192,12.84769 -0.407219,-0.54808 -0.590268,-0.91975 -1.279755,-1.08715 -2.856103,-0.0716 -2.571978,-0.086 -3.421699,2.59161 -0.302165,-1.75171 -0.625022,-5.57718 -0.112218,-7.31429 0.245658,-0.83168 1.203087,-1.93237 1.26596,-3.16914 0.143787,-2.84125 -0.467439,-4.7455 0.414912,-7.54138 z"
     id="path83-8"
     style="stroke-width:0.265289" /><path
     fill="#44453c"
     d="m 95.301356,300.75116 c 12.462224,0.10877 24.924984,0.1353 37.387204,0.0822 -0.47328,1.16462 -0.53535,1.91539 -1.90876,1.95518 l -36.817624,0.0292 c -0.320469,-0.53853 -0.694262,-1.36358 -0.978387,-1.94722 z"
     id="path84-3"
     style="stroke-width:0.265289" /><path
     fill="#44453c"
     d="m 106.73161,65.018379 c 1.23837,-0.08197 2.51043,0.05067 3.75145,0.142195 l 0.0425,7.630248 c 0.008,1.332282 0.0753,3.38111 -0.0926,4.623194 -0.30827,0.259453 -0.43958,0.146971 -0.95371,0.103994 -1.43946,-0.07242 -2.50672,0.0024 -3.91567,0.197905 -0.0533,-2.021503 -0.32764,-10.764639 0.0631,-12.267767 0.45311,-0.416769 0.41013,-0.300838 1.10493,-0.429769 z"
     id="path85-8"
     style="stroke-width:0.265289" /><path
     fill="#44453c"
     d="m 93.648869,190.75351 c 0.555251,0.61866 0.474072,2.1385 0.489194,3.05109 0.122828,7.51724 -0.297124,15.13687 0.10585,22.62625 0.01326,0.24566 1.404176,1.00359 -0.08993,1.95439 -0.552597,0.0178 -0.61441,0.0475 -1.08689,-0.19552 -0.489989,-1.19964 0.783664,-1.22696 0.442768,-2.44464 -0.32047,-1.14499 0.143521,-4.92032 -0.533762,-5.71725 l -0.293145,-0.008 c -1.446356,0.92665 -2.046175,4.09951 -3.308952,4.42874 l -0.09206,-0.23823 c 0.119646,-0.98237 0.686834,-1.84164 1.155335,-2.75079 0.207721,-0.41464 0.770665,-1.51453 0.838313,-1.89416 0.57276,-3.21663 0.330551,-7.61354 0.301369,-10.94159 -1.046035,-1.53655 -1.932632,-2.81312 -3.244752,-4.1332 -2.6192,-0.20215 -1.512679,0.24831 -3.862611,1.1479 -0.529517,0.20268 -1.369688,0.13955 -1.905041,-0.16978 -0.149093,-0.20162 -0.282533,-0.26768 -0.234251,-0.50511 0.385996,-1.9 5.050311,-1.23837 6.399571,-1.12165 1.035955,0.90942 2.901468,3.73952 4.008785,3.81274 1.300448,-0.79932 0.290492,-4.99805 0.910207,-6.9015 z"
     id="path86-3"
     style="stroke-width:0.265289" /><path
     fill="#44453c"
     d="m 120.18919,295.46925 c 2.46666,-0.14591 6.49508,-0.11407 8.97606,0.28917 0.32949,0.0531 0.60752,0.48017 0.74228,0.79587 l -0.17137,0.26263 c -1.69706,0.81179 -20.95599,0.35549 -24.72151,0.34753 -1.97534,-0.0186 -8.23192,0.45895 -9.485146,-0.46425 -0.19764,-0.48548 -0.192069,-0.26795 0.005,-0.79322 0.207987,-0.18305 0.369813,-0.31304 0.662427,-0.31835 7.983879,-0.15652 16.010729,0.0955 23.992219,-0.11938 z"
     id="path87-7"
     style="stroke-width:0.265289" /><path
     fill="#44453c"
     d="m 125.93562,210.66665 c 2.25125,-0.0215 2.81631,0.11779 4.28893,1.89045 0.13902,3.0166 1.15799,12.26352 -4.93093,9.83745 -0.79109,-0.31516 -1.09935,-1.08609 -1.35456,-1.84137 -0.0321,-0.49397 -0.11514,-0.86564 0.0947,-1.29859 1.56069,-1.54955 6.14913,0.36477 5.91196,-3.04048 -0.57673,-0.83274 -1.70156,-0.0456 -2.33481,0.35575 -0.88473,-0.17854 -2.73698,-0.90755 -3.71988,-1.2251 0.0356,-1.30469 0.0679,-2.14831 0.24725,-3.44186 0.65606,-0.55021 1.05824,-0.79003 1.79733,-1.23625 z"
     id="path88-1"
     style="stroke-width:0.265289" /><path
     fill="#44453c"
     d="m 114.8346,117.35463 c 2.47541,-0.0199 4.70464,-0.0119 7.17368,0.26794 -0.0634,1.44344 -0.0743,4.6927 -0.62688,6.04037 -0.0915,0.22337 -0.47407,0.21435 -0.73617,0.25123 -2.16344,0.0356 -4.32713,0.0467 -6.49083,0.034 0.005,-1.91009 -0.38467,-2.66138 -0.97202,-4.50568 0.68842,-0.40615 0.99377,-0.52819 1.31424,-1.2824 z"
     id="path89-0"
     style="stroke-width:0.265289" /><path
     fill="#44453c"
     d="m 113.65141,98.421205 c 1.89655,-0.122298 3.31505,-0.121502 5.20205,-0.02281 0.28148,0.152542 0.55552,0.2247 0.59425,0.562944 0.24858,2.180411 0.10293,5.403931 0.1024,7.571891 -0.62183,-0.057 -1.78513,-0.13212 -2.35152,-0.25415 -1.22245,-0.0239 -2.47303,0.0828 -3.69548,0.16236 -0.065,-2.46427 0.0844,-5.51377 0.1483,-8.02023 z"
     id="path90-7"
     style="stroke-width:0.265289" /><path
     fill="#2d2d2c"
     d="m 118.85346,98.39839 c 0.28148,0.152542 0.55552,0.2247 0.59425,0.562944 0.24858,2.180416 0.10293,5.403936 0.1024,7.571886 -0.62183,-0.057 -1.78513,-0.13212 -2.35152,-0.25415 0.55684,0.007 0.86617,0.0427 1.40895,-0.10638 0.42632,-0.9561 0.25521,-6.333779 0.24592,-7.7743 z"
     id="path91-3"
     style="stroke-width:0.265289" /><path
     fill="#7d7c7c"
     d="m 109.17253,237.65637 c -0.43216,-0.29659 -0.73803,-0.40854 -0.77862,-0.92692 0.63085,-0.512 1.53788,-0.33028 2.35895,-0.26582 0.0387,3.74854 0.13715,7.86981 -0.0302,11.59075 -0.91021,8e-4 -3.36175,-0.0337 -4.18441,0.0761 0.15546,-3.67001 0.12734,-6.57201 0.0175,-10.22 l 2.2011,-0.16156 c 0.026,1.10573 0.0992,3.53577 -0.38334,4.44492 -0.57807,0.22311 -0.94814,0.23133 -1.02481,0.85662 l 0.20321,0.17058 c 0.54596,0.001 0.58364,0.0188 1.04922,-0.23186 0.93647,-1.03171 0.6099,-3.88649 0.57143,-5.33285 z"
     id="path92-4"
     style="stroke-width:0.265289" /><path
     fill="#44453c"
     d="m 96.909539,183.07631 c 0.475398,1.44476 0.137685,10.83467 0.113809,13.04374 -0.384404,0.321 -0.803296,0.71071 -1.181598,1.04816 -0.24274,3.9207 -0.262106,8.12368 0.02679,12.08896 0.04059,0.5571 0.531639,0.73511 1.051341,1.10519 -0.244862,0.18093 -1.361464,0.16156 -1.74295,0.17377 -0.29845,-0.0942 -0.158378,-0.0364 -0.404566,-0.32578 -0.412525,-5.96662 0.115136,-12.79198 0.09763,-18.80821 -0.0024,-0.79507 0.833274,-1.3657 0.743075,-2.45445 -0.210374,-0.53005 -0.619185,-0.75661 -1.085563,-1.11528 0.957429,-1.38481 0.969101,-1.46041 1.07283,-3.15057 0.368752,-0.53111 0.883147,-1.1052 1.309202,-1.60553 z"
     id="path93-9"
     style="stroke-width:0.265289" /><path
     fill="#44453c"
     d="m 107.31816,205.45372 c 0.26104,0.20904 0.35814,0.55366 0.36265,0.87704 0.13981,10.06454 0.043,20.14129 -0.0435,30.20689 -0.006,0.72026 -0.10664,0.66428 -0.60327,1.13597 l -0.42499,-0.43189 c -0.11646,-0.95372 -0.0647,-2.96885 -0.0645,-4.02683 l 0.004,-7.44348 c 0.002,-6.39692 -0.0141,-12.87846 0.14086,-19.28148 0.0157,-0.64625 0.1552,-0.61919 0.62874,-1.03622 z"
     id="path94-6"
     style="stroke-width:0.265289" /><path
     fill="#44453c"
     d="m 105.89223,55.788704 c 1.24049,-0.05783 3.06648,-0.263433 4.19555,0.148561 0.69426,0.68763 0.83009,5.162528 0.19658,5.811425 -1.57794,-0.186233 -3.13201,-0.128665 -4.7179,-0.101871 -0.0549,-1.199372 -0.39714,-5.011578 0.32577,-5.858115 z"
     id="path95-5"
     style="stroke-width:0.265289" /><path
     fill="#44453c"
     d="m 111.22826,163.56588 0.27961,-0.13901 c 0.60115,0.46744 0.82691,0.5144 1.54213,0.7582 0.0385,3.58193 0.1016,7.20737 -0.0974,10.78214 -0.0653,1.17524 -0.80489,1.97296 -0.91446,3.1665 -0.0997,1.08689 0.48097,4.45553 -0.31728,5.14236 -0.4043,-0.10664 -0.24168,0.003 -0.48389,-0.36875 -0.25972,-5.90985 -0.0477,-13.33211 -0.009,-19.34144 z"
     id="path96-1"
     style="stroke-width:0.265289" /><path
     fill="#44453c"
     d="m 105.4752,108.12708 c 2.04405,-0.13212 3.13306,-0.10559 5.15616,0.17827 -0.11408,1.7785 -0.0862,3.61669 -0.20428,5.47106 -1.54053,0.0759 -3.48802,0.0313 -5.05986,0.0401 -2.6e-4,-1.89709 0.0358,-3.7939 0.10798,-5.68939 z"
     id="path97-0"
     style="stroke-width:0.265289" /><path
     fill="#44453c"
     d="m 82.608064,196.28718 2.324995,-5.3e-4 c 0.04377,2.4144 0.03104,4.82959 -0.03767,7.24319 -0.787113,1.14764 -1.386136,2.63697 -1.466254,4.01993 -0.102401,1.76894 -0.422871,4.54705 0.700894,5.95733 0.410933,0.3974 0.539598,0.51095 0.493969,1.07442 l -0.299512,0.0674 c -2.057317,-0.7521 -1.630732,-3.70397 -1.707401,-5.49388 -0.03714,-0.87094 0.0058,-1.82068 0.0053,-2.70011 z"
     id="path98-9"
     style="stroke-width:0.265289" /><path
     fill="#44453c"
     d="m 105.32265,114.18177 c 2.02947,-0.0568 3.98863,-0.10267 6.00695,0.14379 0.0512,0.84282 0.31039,2.93781 -0.18809,3.65462 -0.15918,0.22868 -0.29209,0.17058 -0.63166,0.21303 -2.07429,-0.17828 -3.97827,-0.0621 -6.047,0.0382 -0.0204,-1.30443 -0.38414,-3.39358 0.8598,-4.04964 z"
     id="path99-9"
     style="stroke-width:0.265289" /><path
     fill="#44453c"
     d="m 107.25767,120.55667 c 1.01712,-0.0464 2.59294,0.0483 3.6533,0.0852 0.0241,0.963 0.26131,3.22406 -0.39899,3.93026 -0.33135,0.35416 -0.74228,0.27775 -1.21158,0.2942 -1.41001,-5.3e-4 -2.84284,0.0281 -4.25524,0.0427 l -0.0186,-4.23693 z"
     id="path100-6"
     style="stroke-width:0.265289" /><path
     fill="#44453c"
     d="m 106.32386,50.490613 c 1.50551,-0.268472 4.02125,0.133441 5.53313,0.363446 -0.007,0.849722 -0.12893,1.742685 -0.2247,2.59108 l -1.63418,-0.280145 c -1.55751,-0.07746 -2.36081,0.06075 -3.87853,0.225761 -1.89443,0.205864 -2.00187,-1.068585 -2.03768,-2.570122 z"
     id="path101-8"
     style="stroke-width:0.265289" /><path
     fill="#2d2d2c"
     d="m 109.56861,162.2978 c 0.37724,0.0631 0.59371,0.0499 0.84335,0.33028 0.18279,2.12656 0.22099,20.3262 -0.16315,20.99658 l -0.47699,0.34196 -0.1422,-0.0974 c -0.16952,-1.99126 -0.0541,-4.8288 -0.0639,-6.89805 z"
     id="path102-3"
     style="stroke-width:0.265289" /><path
     fill="#44453c"
     d="m 104.8515,136.68599 6.10192,0.0125 c -0.0276,1.14022 0.002,1.94988 0.069,3.07736 -0.95079,0.18809 -4.95454,0.0586 -6.14648,0.0655 0.005,-1.0402 -0.0159,-2.11277 -0.0244,-3.15535 z"
     id="path103-4"
     style="stroke-width:0.265289" /><path
     fill="#44453c"
     d="m 120.16824,104.75392 c 1.60394,0.14034 2.89377,0.15361 4.50991,0.15732 0.0255,0.93223 0.33321,3.53577 -0.58098,3.91726 l -4.74019,-0.0377 c 0.80303,-1.70581 0.8277,-2.18227 0.81126,-4.03691 z"
     id="path104-8"
     style="stroke-width:0.265289" /><path
     fill="#2d2d2c"
     d="m 121.65969,105.60232 c 0.70859,-0.34116 1.55964,-0.0496 1.91008,0.65473 0.35019,0.70408 0.0698,1.55911 -0.62979,1.91857 -0.46054,0.23664 -1.01288,0.20719 -1.44556,-0.0769 -0.43269,-0.28439 -0.67914,-0.77969 -0.64492,-1.29647 0.0342,-0.51678 0.34381,-0.9752 0.81019,-1.1999 z"
     id="path105-4"
     style="stroke-width:0.265289" /><path
     fill="#44453c"
     d="m 106.14876,101.93523 c 1.55884,-0.26848 5.14396,-0.4823 5.72388,1.44662 -0.15068,1.04683 -0.70938,1.06009 -1.6424,0.92506 -2.31783,-0.0602 -3.58432,-0.16209 -5.91993,0.20082 l 0.005,-2.38362 z"
     id="path106-9"
     style="stroke-width:0.265289" /><path
     fill="#44453c"
     d="m 105.16136,126.65673 5.62015,0.0263 c -0.0156,1.00943 0.0801,2.01169 0.15785,3.0182 -1.92627,-0.0286 -3.8528,-0.035 -5.77906,-0.0188 z"
     id="path107-9"
     style="stroke-width:0.265289" /><path
     fill="#44453c"
     d="m 85.536857,216.10693 3.074967,0.001 c 0.08038,1.55884 0.04881,3.37183 0.05704,4.95056 l -3.162512,0.074 z"
     id="path108"
     style="stroke-width:0.265289" /><path
     fill="#44453c"
     d="m 104.89474,141.73577 c 1.86472,-0.11726 4.27355,-0.0661 6.17859,-0.0791 l -0.0292,2.48788 -6.28073,-0.0525 c 0.0817,-0.69452 0.0984,-1.63789 0.13132,-2.35629 z"
     id="path109"
     style="stroke-width:0.265289" /><path
     fill="#44453c"
     d="m 114.42287,107.95729 c 1.40603,-0.0401 2.92693,-0.0172 4.34252,-0.0228 -0.0918,0.96618 -0.0507,2.28785 -0.048,3.28348 -0.86537,0.0873 -3.18904,0.0268 -4.16265,0.0292 -0.11487,-1.07177 -0.11142,-2.208 -0.13185,-3.28985 z"
     id="path110"
     style="stroke-width:0.265289" /><path
     fill="#44453c"
     d="m 106.89555,78.953489 c 1.44318,-0.05942 2.94312,0.09259 4.37064,0.284921 l 0.0966,2.099499 -1.95094,-0.34355 c -1.2572,-0.06075 -4.60621,0.576208 -5.00017,-0.790031 0.36504,-1.286122 1.35138,-1.16462 2.4839,-1.250839 z"
     id="path111"
     style="stroke-width:0.265289" /><path
     fill="#44453c"
     d="m 178.76505,121.29179 c 0.47699,0.1077 0.51519,0.0987 0.85502,0.42499 0.49132,1.60261 -0.60751,8.91716 -0.92665,10.99119 -0.40032,0.0987 -0.37857,0.0915 -0.77252,-0.0477 -0.47514,-0.78631 0.67489,-9.79129 0.84415,-11.36843 z"
     id="path112"
     style="stroke-width:0.265289" /><path
     fill="#44453c"
     d="m 114.2239,124.44714 c 1.5981,-0.0308 3.27765,2.6e-4 4.88212,0.005 0.0385,0.85131 0.34328,2.16316 -0.57833,2.38707 -1.36359,-0.005 -4.67758,0.61175 -5.06676,-0.92029 0.0976,-0.61574 0.40377,-0.95345 0.76297,-1.47182 z"
     id="path113"
     style="stroke-width:0.265289" /><path
     fill="#44453c"
     d="m 105.34892,104.62446 c 1.64028,-0.0552 4.80412,-0.32047 6.1555,0.59717 0.2759,0.45736 0.22948,0.2186 0.15652,0.73803 -0.38122,0.49158 -0.16235,0.35363 -0.8659,0.4693 -2.15256,-0.2507 -4.47437,0.3393 -6.38259,-0.39555 -0.16077,-0.0621 -0.12469,-0.56639 -0.13291,-0.74175 0.3003,-0.50378 0.42207,-0.41915 1.06938,-0.6672 z"
     id="path114"
     style="stroke-width:0.265289" /><path
     fill="#44453c"
     d="m 108.30742,131.29849 c 0.58152,-0.0427 1.98569,0.0523 2.6253,0.078 l 0.0255,1.96393 -2.86777,-0.0111 -3.19355,0.0379 -0.0446,-1.98755 c 1.15215,-0.0106 2.30377,-0.0377 3.45512,-0.0812 z"
     id="path115"
     style="stroke-width:0.265289" /><path
     fill="#44453c"
     d="m 96.724632,196.97189 0.206926,0.19499 c 0.367956,1.92016 0.229475,9.2188 0.226557,11.54273 0.660304,0.0597 1.433888,0.0626 1.920163,0.48256 0.0963,0.53721 0.108768,0.32127 -0.169255,0.87015 -0.802234,-0.0337 -1.577409,-0.006 -2.222327,-0.50776 -0.506437,-0.97919 -0.573555,-11.87222 0.03794,-12.58267 z"
     id="path116"
     style="stroke-width:0.265289" /><path
     fill="#44453c"
     d="m 122.62906,118.96042 c 0.67887,0.0167 1.42275,0.12549 2.10374,0.20852 -0.0639,1.54133 -0.3202,3.86765 -0.52474,5.38086 l -1.90398,-0.2812 c -0.0653,-2.11171 -0.0361,-3.22857 0.32498,-5.30818 z"
     id="path117"
     style="stroke-width:0.265289" /><path
     fill="#44453c"
     d="m 104.95337,118.57124 c 1.35987,-0.0374 5.01025,-0.31251 6.24544,0.26689 0.17827,0.0838 0.16952,0.30083 0.21701,0.5319 -0.11434,0.373 -0.12469,0.48787 -0.37937,0.79428 -1.51957,0.0244 -5.88995,0.43215 -6.60225,-0.87705 0.1414,-0.52315 0.0425,-0.33506 0.51917,-0.71602 z"
     id="path118"
     style="stroke-width:0.265289" /><path
     fill="#2d2d2c"
     d="m 106.14372,62.11585 c 0.98847,-0.03608 5.43419,-0.301368 5.07976,1.355363 -0.45683,0.44542 -0.22576,0.323387 -0.89482,0.429238 -1.56414,-0.22921 -4.26001,0.146439 -5.42967,-0.596901 -0.38016,-0.8346 0.59769,-1.032505 1.24473,-1.1877 z"
     id="path119"
     style="stroke-width:0.265289" /><path
     fill="#44453c"
     d="m 106.70906,81.359397 c 1.18106,-0.104259 4.22366,-0.218598 4.6858,1.233595 l -0.26237,0.24778 c -0.59531,0.220455 -1.1946,0.07428 -1.83342,-0.01035 -1.36385,-0.05226 -3.70078,0.394485 -4.88158,-0.382813 l -0.0241,-0.294471 c 0.6603,-0.760584 1.29381,-0.686833 2.31571,-0.793745 z"
     id="path120"
     style="stroke-width:0.265289" /><path
     fill="#2d2d2c"
     d="m 107.94689,53.527113 c 1.01288,0.01751 2.90625,0.02149 3.30657,1.175497 -0.62078,0.808336 -2.11197,0.417034 -3.00546,0.302164 -1.02243,0.07985 -2.84443,0.408811 -3.49704,-0.513865 l 0.13344,-0.250964 c 1.10095,-0.729014 1.77452,-0.644122 3.06249,-0.712832 z"
     id="path121"
     style="stroke-width:0.265289" /><path
     fill="#44453c"
     d="m 127.63347,119.68705 c 0.60964,0.0958 1.23997,0.16926 1.85411,0.24805 -0.13158,1.46996 -0.28519,2.93754 -0.46107,4.40274 l -1.94192,-0.0931 c 0.0695,-1.60898 0.29527,-2.96965 0.54888,-4.55767 z"
     id="path122"
     style="stroke-width:0.265289" /><path
     fill="#2d2d2c"
     d="m 106.4756,48.83176 c 1.13942,-0.107973 5.24318,-0.257861 5.77084,0.892433 -0.79587,0.410668 -2.06608,0.143787 -2.94657,0.008 -1.13464,-0.134767 -5.21108,0.657917 -5.77853,-0.128666 0.77226,-0.840436 1.89417,-0.737238 2.95426,-0.771726 z"
     id="path123"
     style="stroke-width:0.265289" /><path
     fill="#44453c"
     d="m 85.524123,212.79241 2.992197,-0.0292 c 0.01273,0.90331 -0.03369,1.89018 -0.05783,2.79986 -0.996692,0.06 -1.938999,0.0501 -2.934629,0.0459 z"
     id="path124"
     style="stroke-width:0.265289" /><path
     fill="#44453c"
     d="m 104.54297,140.19099 c 1.47368,0.007 5.29411,-0.14538 6.51709,0.15254 0.33108,0.3844 0.2247,0.40271 0.23319,1.00916 -1.68379,-0.19605 -5.07073,0.40854 -6.57121,-0.33612 -0.16023,-0.0796 -0.15148,-0.56693 -0.17907,-0.82558 z"
     id="path125"
     style="stroke-width:0.265289" /><path
     fill="#44453c"
     d="m 104.42863,144.52661 c 1.97932,0.0228 4.46906,-0.22868 6.39851,0.12707 0.43401,0.0801 0.56639,0.54729 0.75501,0.93462 -1.62755,0.0204 -5.30286,0.14803 -6.68422,-0.052 -0.39077,-0.35628 -0.31543,-0.44197 -0.4693,-1.00969 z"
     id="path126"
     style="stroke-width:0.265289" /><path
     fill="#44453c"
     d="m 106.18935,133.7174 c 1.2909,-0.0109 3.78648,-0.41465 4.70438,0.45922 l 0.009,0.37352 c -0.36053,0.32764 -0.27511,0.2255 -0.84601,0.31808 -1.18213,-0.0117 -4.36693,0.40537 -5.09965,-0.45258 l 0.0854,-0.29978 c 0.46691,-0.38864 0.49901,-0.29234 1.14684,-0.39846 z"
     id="path127"
     style="stroke-width:0.265289" /><path
     fill="#44453c"
     d="m 108.61914,135.23512 c 0.76801,0.0101 1.76921,-0.0674 2.40352,0.3019 0.23504,0.46664 0.22523,0.23982 0.0833,0.69877 -0.38865,0.13901 -2.65077,0.0589 -3.27553,0.0554 -0.90171,0.0515 -2.35417,0.24671 -3.09115,-0.17828 -0.20851,-0.4242 -0.17774,-0.20533 -0.0785,-0.68126 0.68285,-0.22072 3.07019,-0.17854 3.95838,-0.19658 z"
     id="path128"
     style="stroke-width:0.265289" /><path
     fill="#44453c"
     d="m 177.11017,125.23982 c 0.27511,-0.0785 0.19048,-0.0488 0.50113,-0.004 0.40987,0.69904 0.15997,3.01475 -0.38387,3.57292 l -0.23531,-0.0719 c -0.47673,-0.22391 -0.85874,-0.44569 -1.31292,-0.70541 -0.013,-0.73936 -0.17244,-1.82758 0.12681,-2.40007 0.54305,-0.41863 0.51997,-0.29606 1.30416,-0.3913 z"
     id="path129"
     style="stroke-width:0.265289" /><path
     fill="#44453c"
     d="m 107.37148,125.24831 c 0.92825,-0.0241 3.21929,-0.18862 3.80902,0.59027 l -0.14697,0.22894 c -0.64571,0.30376 -1.66495,0.19844 -2.41386,0.17987 -0.91313,0.013 -3.37368,0.16819 -3.9552,-0.50511 l 0.19632,-0.20613 c 0.75448,-0.33214 1.67424,-0.27511 2.51069,-0.28784 z"
     id="path130"
     style="stroke-width:0.265289" /><path
     fill="#7d7c7c"
     d="m 123.81862,215.99047 c 2.18094,0.86697 2.91234,1.46599 5.12246,0.73114 l 0.15865,0.1215 -0.19526,0.31755 c -1.88381,1.19752 -2.87891,0.93966 -5.05535,0.71522 z"
     id="path131"
     style="stroke-width:0.265289" /><path
     fill="#44453c"
     d="m 117.41905,111.75331 c 1.06487,0.40059 0.78976,3.557 1.20096,4.94765 l -2.13452,-0.0114 c -0.53721,-0.0905 -0.58178,-0.0122 -0.95265,-0.3027 0.22603,-0.33691 1.27949,-0.57143 1.72517,-0.70036 0.0279,-1.34236 0.0494,-2.59479 0.16104,-3.93318 z"
     id="path132"
     style="stroke-width:0.265289" /><path
     fill="#44453c"
     d="m 125.60269,117.95418 0.3263,0.22072 c 0.43322,1.11077 -0.1788,5.77349 -0.54119,6.8954 -1.15241,-1.0723 -0.24884,-5.65252 0.21489,-7.11612 z"
     id="path133"
     style="stroke-width:0.265289" /><path
     fill="#44453c"
     d="m 105.48315,130.097 c 1.00386,-0.0281 5.41694,-0.33612 5.84512,0.44383 -0.28837,0.38148 -0.12654,0.2682 -0.66641,0.37273 -1.14817,0.0196 -5.47291,0.28306 -6.03294,-0.4555 l 0.18783,-0.25839 z"
     id="path134"
     style="stroke-width:0.265289" /><path
     fill="#44453c"
     d="m 107.71477,106.63031 c 0.79507,-0.0891 2.53006,-0.0918 3.02138,0.61945 l -0.23532,0.22895 c -0.75766,0.27404 -1.64532,0.15334 -2.46135,0.10452 -0.77305,0.0321 -2.38442,0.25097 -2.88953,-0.37591 l 0.16766,-0.24354 c 0.65076,-0.33718 1.63604,-0.30216 2.39716,-0.33347 z"
     id="path135"
     style="stroke-width:0.265289" /><path
     fill="#44453c"
     d="m 119.61511,124.72728 c 0.95822,-0.0366 1.92149,-0.23213 2.59983,0.39449 0.3096,0.53137 0.2438,0.88871 0.24221,1.51108 -0.92506,0.0557 -2.05917,0.31357 -2.71789,-0.40297 -0.26396,-0.50697 -0.17058,-0.93647 -0.12415,-1.5026 z"
     id="path136"
     style="stroke-width:0.265289" /><path
     fill="#44453c"
     d="m 112.55895,141.03938 c 0.73352,0.75714 0.603,4.86991 -0.15016,5.68992 -0.88792,-0.9561 -0.76323,-4.59215 0.15016,-5.68992 z"
     id="path137"
     style="stroke-width:0.265289" /><path
     fill="#44453c"
     d="m 106.93455,100.57509 c 1.32141,-0.11408 2.67703,-0.0793 3.87137,0.56135 l -0.003,0.22284 c -0.53429,0.23585 -1.07124,0.14883 -1.65382,0.11036 -1.21582,-0.0966 -2.90756,0.31782 -4.18016,-0.23425 l 0.0342,-0.20135 c 0.74174,-0.41783 1.07283,-0.39714 1.93183,-0.45895 z"
     id="path138"
     style="stroke-width:0.265289" /><path
     fill="#44453c"
     d="m 114.71548,189.31803 c 1.1755,-0.0584 2.08146,0.23903 1.53842,1.88568 -0.0902,0.27298 -0.46373,0.23982 -0.75157,0.27112 -0.67702,0.007 -1.40656,-0.0191 -2.08836,-0.031 z"
     id="path139"
     style="stroke-width:0.265289" /><path
     fill="#44453c"
     d="m 119.11928,154.66888 0.27325,-0.0101 c 0.84654,-0.0292 1.50127,-0.16926 2.10852,0.39793 0.23664,0.48575 0.16103,0.72902 0.11142,1.27127 -0.87704,0.034 -1.78964,0.0998 -2.6696,0.14962 z"
     id="path140"
     style="stroke-width:0.265289" /><path
     fill="#2d2d2c"
     d="m 113.64849,106.78073 c 1.21635,-0.14405 3.64879,-0.23478 4.85267,0.0677 0.49689,0.12469 0.5197,0.31755 0.70806,0.70063 -1.42806,0.0799 -3.18851,0.096 -4.60834,-0.0928 -0.60911,-0.0809 -0.65659,-0.25494 -0.95239,-0.67543 z"
     id="path141"
     style="stroke-width:0.265289" /><path
     fill="#44453c"
     d="m 106.95684,83.16522 c 1.20016,-0.201885 2.74202,-0.06181 3.82706,0.53615 l 0.007,0.218068 c -0.57488,0.200824 -0.98369,0.09073 -1.59359,0.013 -1.04365,-0.185172 -2.40644,0.03634 -3.91753,-0.266085 l -0.0859,-0.165806 c 0.51041,-0.297124 1.16488,-0.289431 1.76338,-0.335326 z"
     id="path142"
     style="stroke-width:0.265289" /><path
     fill="#44453c"
     d="m 93.270036,188.68532 c 0.435605,-0.34249 1.066728,-0.26423 1.405237,0.17456 0.338509,0.43879 0.254147,1.06938 -0.187825,1.40391 -0.43587,0.32975 -1.056116,0.24672 -1.390115,-0.18623 -0.333999,-0.43296 -0.2568,-1.054 0.172703,-1.39224 z"
     id="path143"
     style="stroke-width:0.265289" /><path
     fill="#44453c"
     d="m 118.78263,112.92032 c 0.67967,0.006 1.20574,-0.0353 1.71006,0.39793 0.2759,0.49822 0.17456,0.84866 0.10638,1.40789 -0.6627,0.039 -1.15693,0.13079 -1.64665,-0.29128 -0.26795,-0.48654 -0.18703,-0.94125 -0.16979,-1.51454 z"
     id="path144"
     style="stroke-width:0.265289" /><path
     fill="#525251"
     d="m 114.88421,97.100065 c 0.82558,-0.04351 3.3177,-0.259187 3.66762,0.561617 l -0.11514,0.07561 0.0464,-0.12336 -0.15599,0.170847 -0.25335,0.0053 c -0.89721,0.05094 -3.12723,0.167133 -3.839,-0.272452 l 0.0724,-0.231597 z"
     id="path145"
     style="stroke-width:0.265289" /><path
     fill="#525251"
     d="m 106.45491,78.00906 c 1.13968,-0.05836 3.19939,-0.222578 4.15788,0.448604 l -0.0915,0.193396 -0.13821,-0.07349 -0.19711,0.03528 c -0.98051,-0.0382 -3.9032,0.124951 -4.62267,-0.226557 0.23001,-0.311449 0.43163,-0.266881 0.89164,-0.377241 z"
     id="path146"
     style="stroke-width:0.265289" /><path
     fill="#44453c"
     d="m 105.13589,146.19501 c 1.09856,-0.28014 5.23177,-0.52368 6.02684,0.29713 -1.95067,0.0573 -4.147,0.17403 -6.0661,-0.17324 z"
     id="path147"
     style="stroke-width:0.265289" /><path
     fill="#44453c"
     d="m 113.22456,191.94838 c 0.57143,0.0138 2.35311,-0.0212 2.75582,0.31304 -0.282,0.3584 -0.43879,0.32524 -0.91923,0.49847 -0.75793,0.13424 -2.12072,0.24089 -2.67305,-0.38201 0.30668,-0.35947 0.29686,-0.26264 0.83646,-0.4295 z"
     id="path148"
     style="stroke-width:0.265289" /><path
     fill="#44453c"
     d="m 115.5591,93.096321 c 0.5664,-0.0037 1.1564,-0.08463 1.5981,0.217272 0.30907,0.407484 0.25707,0.762176 0.27962,1.289836 -0.56454,0.02202 -1.03516,0.112217 -1.50339,-0.1605 -0.34196,-0.407484 -0.31437,-0.799582 -0.37433,-1.346608 z"
     id="path149"
     style="stroke-width:0.265289" /><path
     fill="#44453c"
     d="m 110.67831,183.84432 c 0.62396,0.1353 0.93435,0.19048 1.2901,0.70143 0.0631,0.48521 0.0501,0.4998 -0.1918,0.94443 -0.70434,-0.065 -1.01792,-0.0443 -1.44795,-0.6107 -0.0348,-0.5205 0.0462,-0.57064 0.34965,-1.03516 z"
     id="path150"
     style="stroke-width:0.265289" /><path
     fill="#7d7c7c"
     d="m 104.94727,246.41304 c 0.47779,0.0775 0.52766,0.0634 0.89243,0.3539 0.3149,0.55286 0.19685,1.09458 0.15679,1.75701 -0.53217,-0.0409 -0.58443,-0.0191 -0.97865,-0.33984 -0.26476,-0.51227 -0.12336,-1.15984 -0.0706,-1.77107 z"
     id="path151"
     style="stroke-width:0.265289" /><path
     fill="#44453c"
     d="m 86.086005,211.44713 c 0.753156,-0.0385 1.81113,-0.17774 2.235327,0.51546 l -0.123625,0.37034 c -0.743871,0.0135 -1.960752,0.22576 -2.325259,-0.45311 z"
     id="path152"
     style="stroke-width:0.265289" /><path
     fill="#44453c"
     d="m 116.2539,95.137191 c 0.24778,-0.107177 0.53429,-0.06924 0.74572,0.09869 0.21144,0.167663 0.31304,0.438258 0.26503,0.704078 -0.0483,0.265554 -0.23876,0.483091 -0.49556,0.565861 -0.37167,0.119911 -0.77199,-0.07322 -0.90968,-0.438788 -0.13742,-0.365568 0.0361,-0.77491 0.39449,-0.929838 z"
     id="path153"
     style="stroke-width:0.265289" /><path
     fill="#525251"
     d="m 105.27066,64.285916 0.17695,-0.02706 c 1.11607,-0.159438 4.38337,-0.259452 5.22248,0.382282 -1.22988,-0.113278 -4.59852,0.01857 -5.39943,-0.355222 z"
     id="path154"
     style="stroke-width:0.265289" /><path
     fill="#525251"
     d="m 104.46046,108.18013 c 0.4319,1.09034 0.27935,3.8199 0.18969,5.06172 -0.52926,-0.62476 -0.25362,-4.07564 -0.18969,-5.06172 z"
     id="path155"
     style="stroke-width:0.265289" /><path
     fill="#44453c"
     d="m 97.572762,195.66853 c 0.562147,-0.0273 0.753951,-0.061 1.313977,0.0663 0.393689,0.45736 0.27033,0.31118 0.337713,1.03516 -0.506968,0.031 -0.659244,0.0321 -1.161436,-0.0374 -0.444625,-0.41332 -0.334264,-0.41067 -0.490254,-1.06407 z"
     id="path156"
     style="stroke-width:0.265289" /><path
     fill="#525251"
     d="m 128.59647,209.77713 c 1.40153,0.37512 1.8427,0.70143 2.45419,2.01673 l -0.16182,0.24911 c -0.84548,-1.05904 -1.23917,-1.35987 -2.45048,-1.9589 z"
     id="path157"
     style="stroke-width:0.265289" /><path
     fill="#2d2d2c"
     d="m 114.70965,113.17685 c 0.75236,0.005 1.37764,0.0448 1.46837,0.92507 -0.36238,0.49927 -0.23133,0.33506 -0.911,0.64173 -0.52103,-0.78048 0.34806,8e-4 -0.399,-1.0784 l -0.1284,0.19632 c -0.15466,-0.19632 -0.0663,-0.34249 -0.03,-0.68472 z"
     id="path158"
     style="stroke-width:0.265289" /><path
     fill="#525251"
     d="m 126.88297,119.83986 c 0.17509,0.97653 -0.15466,3.37395 -0.62741,4.25099 -0.001,-1.5217 0.11938,-2.80729 0.62741,-4.25099 z"
     id="path159"
     style="stroke-width:0.265289" /><path
     fill="#2d2d2c"
     d="m 113.86337,141.62779 c 0.19791,1.46891 0.23028,2.40962 0.0703,3.87641 -0.58868,-0.70063 -0.3539,-3.06303 -0.0703,-3.87641 z"
     id="path160"
     style="stroke-width:0.265289" /><path
     fill="#44453c"
     d="m 127.60376,303.49425 c 0.77916,-0.0769 2.99591,-0.23611 3.59971,0.0584 l -0.0669,0.1406 c -1.00492,0.0769 -2.61363,0.16978 -3.58406,-0.0292 z"
     id="path161"
     style="stroke-width:0.265289" /><path
     fill="#525251"
     d="m 116.24859,112.18706 0.22576,-0.0393 c 0.7712,0.63749 0.37459,2.64971 -0.0902,3.45008 -0.29394,-0.76801 0.54464,-2.03397 0.0332,-2.86645 -0.10797,-0.17562 -0.15784,-0.34036 -0.16872,-0.54437 z"
     id="path162"
     style="stroke-width:0.265289" /><path
     fill="#525251"
     d="m 94.173611,303.47833 c 0.763768,-0.12468 3.081334,-0.26263 3.636054,0.17509 -0.722117,0.0265 -3.198327,0.25468 -3.636054,-0.17509 z"
     id="path163"
     style="stroke-width:0.265289" /><path
     fill="#525251"
     d="m 105.07434,249.02189 c 0.15944,-0.11805 0.37008,-0.14113 0.55154,-0.0605 0.18119,0.0806 0.30508,0.25255 0.32418,0.45019 0.0188,0.19738 -0.0698,0.38998 -0.23239,0.50379 -0.24645,0.1727 -0.58629,0.11513 -0.76218,-0.1292 -0.17588,-0.24433 -0.12309,-0.58496 0.11885,-0.7643 z"
     id="path164"
     style="stroke-width:0.265289" /><path
     fill="#525251"
     d="m 112.46822,102.87992 c 0.56772,0.45815 0.2698,2.18917 0.19684,2.84496 l -0.16527,-0.0923 c -0.12681,-0.67038 -0.0494,-2.02177 -0.0316,-2.75264 z"
     id="path165"
     style="stroke-width:0.265289" /></svg>
