<?xml version="1.0" encoding="UTF-8" standalone="no"?>
<!-- Created with Inkscape (http://www.inkscape.org/) -->

<svg
   width="215.89999mm"
   height="279.39999mm"
   viewBox="0 0 215.89999 279.39999"
   version="1.1"
   id="svg1"
   inkscape:version="1.4 (86a8ad7, 2024-10-11)"
   sodipodi:docname="page-map-sand.svg"
   xml:space="preserve"
   xmlns:inkscape="http://www.inkscape.org/namespaces/inkscape"
   xmlns:sodipodi="http://sodipodi.sourceforge.net/DTD/sodipodi-0.dtd"
   xmlns="http://www.w3.org/2000/svg"
   xmlns:svg="http://www.w3.org/2000/svg"><sodipodi:namedview
     id="namedview1"
     pagecolor="#ffffff"
     bordercolor="#000000"
     borderopacity="0.25"
     inkscape:showpageshadow="2"
     inkscape:pageopacity="0.0"
     inkscape:pagecheckerboard="0"
     inkscape:deskcolor="#d1d1d1"
     inkscape:document-units="mm"
     inkscape:zoom="0.54974872"
     inkscape:cx="542.06584"
     inkscape:cy="542.06584"
     inkscape:window-width="1350"
     inkscape:window-height="1040"
     inkscape:window-x="494"
     inkscape:window-y="0"
     inkscape:window-maximized="0"
     inkscape:current-layer="svg1" /><defs
     id="defs1"><linearGradient
       id="gradient_0"
       gradientUnits="userSpaceOnUse"
       x1="50.089081"
       y1="1359.5132"
       x2="17.752125"
       y2="1330.2487"><stop
         offset="0"
         stop-color="#D7BE5C"
         id="stop132" /><stop
         offset="1"
         stop-color="#FFF18C"
         id="stop133" /></linearGradient><linearGradient
       id="gradient_1"
       gradientUnits="userSpaceOnUse"
       x1="376.30267"
       y1="1323.552"
       x2="349.27353"
       y2="1438.2639"><stop
         offset="0"
         stop-color="#786D5F"
         id="stop173" /><stop
         offset="1"
         stop-color="#82825D"
         id="stop174" /></linearGradient><linearGradient
       id="gradient_2"
       gradientUnits="userSpaceOnUse"
       x1="891.43683"
       y1="1255.2534"
       x2="906.07812"
       y2="1281.5365"><stop
         offset="0"
         stop-color="#1E1E56"
         id="stop230" /><stop
         offset="1"
         stop-color="#383976"
         id="stop231" /></linearGradient><linearGradient
       id="gradient_3"
       gradientUnits="userSpaceOnUse"
       x1="615.57208"
       y1="1094.6171"
       x2="768.92432"
       y2="1255.5616"><stop
         offset="0"
         stop-color="#78515E"
         id="stop323" /><stop
         offset="1"
         stop-color="#9D646D"
         id="stop324" /></linearGradient><clipPath
       clipPathUnits="userSpaceOnUse"
       id="clipPath1"><rect
         style="opacity:0.5;fill:none;stroke:#000000;stroke-width:0.201932"
         id="rect2"
         width="127.45457"
         height="165.05974"
         x="12.336377"
         y="14.058764"
         rx="0.084342584"
         ry="0.085061103" /></clipPath><linearGradient
       id="gradient_0-0"
       gradientUnits="userSpaceOnUse"
       x1="503.21402"
       y1="677.80463"
       x2="552.0202"
       y2="213.76501"><stop
         offset="0"
         stop-color="#4B9FDC"
         id="stop1" /><stop
         offset="1"
         stop-color="white"
         id="stop2" /></linearGradient><linearGradient
       id="gradient_1-9"
       gradientUnits="userSpaceOnUse"
       x1="165.05301"
       y1="722.73291"
       x2="150.43193"
       y2="550.6424"><stop
         offset="0"
         stop-color="#3995DD"
         id="stop3" /><stop
         offset="1"
         stop-color="#AED6EB"
         id="stop4" /></linearGradient><linearGradient
       id="gradient_2-4"
       gradientUnits="userSpaceOnUse"
       x1="942.27893"
       y1="802.49219"
       x2="502.90118"
       y2="634.97992"><stop
         offset="0"
         stop-color="#02107F"
         id="stop8" /><stop
         offset="1"
         stop-color="#0546AC"
         id="stop9" /></linearGradient><linearGradient
       id="gradient_3-8"
       gradientUnits="userSpaceOnUse"
       x1="477.34607"
       y1="774.24536"
       x2="397.66089"
       y2="636.79718"><stop
         offset="0"
         stop-color="#0FADEB"
         id="stop10" /><stop
         offset="1"
         stop-color="#8AE2FB"
         id="stop11" /></linearGradient><linearGradient
       id="gradient_4"
       gradientUnits="userSpaceOnUse"
       x1="682.64001"
       y1="-1.4594618"
       x2="672.48669"
       y2="490.09128"><stop
         offset="0"
         stop-color="#0A2184"
         id="stop36" /><stop
         offset="1"
         stop-color="#1777C2"
         id="stop37" /></linearGradient><linearGradient
       id="gradient_5"
       gradientUnits="userSpaceOnUse"
       x1="1136.4078"
       y1="241.32904"
       x2="1068.3159"
       y2="248.67863"><stop
         offset="0"
         stop-color="#1861B1"
         id="stop41" /><stop
         offset="1"
         stop-color="#3279C3"
         id="stop42" /></linearGradient><linearGradient
       id="gradient_6"
       gradientUnits="userSpaceOnUse"
       x1="533.24371"
       y1="254.99231"
       x2="529.46173"
       y2="239.06938"><stop
         offset="0"
         stop-color="#D9EAF0"
         id="stop45" /><stop
         offset="1"
         stop-color="#FFF9F2"
         id="stop46" /></linearGradient><linearGradient
       id="gradient_7"
       gradientUnits="userSpaceOnUse"
       x1="932.43774"
       y1="300.6015"
       x2="881.97876"
       y2="170.10799"><stop
         offset="0"
         stop-color="#2E6CC2"
         id="stop51" /><stop
         offset="1"
         stop-color="#3BC7F7"
         id="stop52" /></linearGradient><linearGradient
       id="gradient_7-4"
       gradientUnits="userSpaceOnUse"
       x1="932.43774"
       y1="300.6015"
       x2="881.97876"
       y2="170.10799"
       gradientTransform="matrix(0.613919,0,0,0.614258,-104.79838,183.62876)"><stop
         offset="0"
         stop-color="#2E6CC2"
         id="stop51-5" /><stop
         offset="1"
         stop-color="#3BC7F7"
         id="stop52-5" /></linearGradient><linearGradient
       id="gradient_6-1"
       gradientUnits="userSpaceOnUse"
       x1="533.24371"
       y1="254.99231"
       x2="529.46173"
       y2="239.06938"
       gradientTransform="matrix(0.613919,0,0,0.614258,-104.79838,183.62876)"><stop
         offset="0"
         stop-color="#D9EAF0"
         id="stop45-7" /><stop
         offset="1"
         stop-color="#FFF9F2"
         id="stop46-1" /></linearGradient><linearGradient
       id="gradient_0-1"
       gradientUnits="userSpaceOnUse"
       x1="683.51611"
       y1="553.79395"
       x2="680.89246"
       y2="-2.5458956"><stop
         offset="0"
         stop-color="#FFD683"
         id="stop1-1" /><stop
         offset="1"
         stop-color="#0D73A6"
         id="stop2-5" /></linearGradient><linearGradient
       id="gradient_1-2"
       gradientUnits="userSpaceOnUse"
       x1="940.49872"
       y1="497.89362"
       x2="911.40356"
       y2="675.78888"><stop
         offset="0"
         stop-color="#17456E"
         id="stop7" /><stop
         offset="1"
         stop-color="#466487"
         id="stop8-7" /></linearGradient><linearGradient
       id="gradient_2-6"
       gradientUnits="userSpaceOnUse"
       x1="1131.3558"
       y1="693.54919"
       x2="1083.2406"
       y2="547.09497"><stop
         offset="0"
         stop-color="#DC652D"
         id="stop9-1" /><stop
         offset="1"
         stop-color="#F9B258"
         id="stop10-4" /></linearGradient><linearGradient
       id="gradient_3-2"
       gradientUnits="userSpaceOnUse"
       x1="1131.5576"
       y1="676.19788"
       x2="1129.6638"
       y2="652.07532"><stop
         offset="0"
         stop-color="#E2844A"
         id="stop12" /><stop
         offset="1"
         stop-color="#FAAA56"
         id="stop13" /></linearGradient><linearGradient
       id="gradient_4-3"
       gradientUnits="userSpaceOnUse"
       x1="1246.4124"
       y1="639.17938"
       x2="1218.1385"
       y2="559.46558"><stop
         offset="0"
         stop-color="#D46035"
         id="stop14" /><stop
         offset="1"
         stop-color="#ED843C"
         id="stop15" /></linearGradient><linearGradient
       id="gradient_5-1"
       gradientUnits="userSpaceOnUse"
       x1="658.70984"
       y1="694.69385"
       x2="321.98068"
       y2="449.19287"><stop
         offset="0"
         stop-color="#517180"
         id="stop16" /><stop
         offset="1"
         stop-color="#A6B29D"
         id="stop17" /></linearGradient><linearGradient
       id="gradient_6-8"
       gradientUnits="userSpaceOnUse"
       x1="570.34943"
       y1="674.7655"
       x2="554.70917"
       y2="625.2345"><stop
         offset="0"
         stop-color="#FBAA3F"
         id="stop21" /><stop
         offset="1"
         stop-color="#F6C378"
         id="stop22" /></linearGradient><linearGradient
       id="gradient_7-5"
       gradientUnits="userSpaceOnUse"
       x1="667.53607"
       y1="1034.2689"
       x2="696.51379"
       y2="627.71082"><stop
         offset="0"
         stop-color="#E47F1E"
         id="stop25" /><stop
         offset="1"
         stop-color="#F7A535"
         id="stop26" /></linearGradient><linearGradient
       id="gradient_8"
       gradientUnits="userSpaceOnUse"
       x1="984.13379"
       y1="1132.7921"
       x2="912.14301"
       y2="882.61346"><stop
         offset="0"
         stop-color="#22101D"
         id="stop27" /><stop
         offset="1"
         stop-color="#421C1B"
         id="stop28" /></linearGradient><linearGradient
       id="gradient_9"
       gradientUnits="userSpaceOnUse"
       x1="690.59741"
       y1="884.96942"
       x2="673.72302"
       y2="716.90082"><stop
         offset="0"
         stop-color="#F39F37"
         id="stop29" /><stop
         offset="1"
         stop-color="#F9C166"
         id="stop30" /></linearGradient><linearGradient
       id="gradient_10"
       gradientUnits="userSpaceOnUse"
       x1="895.55133"
       y1="752.763"
       x2="943.64557"
       y2="609.48108"><stop
         offset="0"
         stop-color="#85302A"
         id="stop31" /><stop
         offset="1"
         stop-color="#0B153A"
         id="stop32" /></linearGradient><linearGradient
       id="gradient_11"
       gradientUnits="userSpaceOnUse"
       x1="364.99316"
       y1="764.74133"
       x2="404.29617"
       y2="644.30243"><stop
         offset="0"
         stop-color="#7C3835"
         id="stop33" /><stop
         offset="1"
         stop-color="#1D183C"
         id="stop34" /></linearGradient><linearGradient
       id="gradient_0-9"
       gradientUnits="userSpaceOnUse"
       x1="683.01416"
       y1="-2.2688105"
       x2="681.15955"
       y2="554.93494"><stop
         offset="0"
         stop-color="#003C71"
         id="stop1-2" /><stop
         offset="1"
         stop-color="#8DBCA9"
         id="stop2-7" /></linearGradient><linearGradient
       id="gradient_1-95"
       gradientUnits="userSpaceOnUse"
       x1="299.48166"
       y1="368.69391"
       x2="407.397"
       y2="543.18597"><stop
         offset="0"
         stop-color="#D1782E"
         id="stop3-4" /><stop
         offset="1"
         stop-color="#FFCC5A"
         id="stop4-3" /></linearGradient><linearGradient
       id="gradient_2-1"
       gradientUnits="userSpaceOnUse"
       x1="902.10632"
       y1="507.0574"
       x2="888.84784"
       y2="671.29919"><stop
         offset="0"
         stop-color="#0D2934"
         id="stop15-2" /><stop
         offset="1"
         stop-color="#193736"
         id="stop16-3" /></linearGradient><linearGradient
       id="gradient_3-3"
       gradientUnits="userSpaceOnUse"
       x1="436.8237"
       y1="891.98138"
       x2="127.15282"
       y2="599.36884"><stop
         offset="0"
         stop-color="#C45B18"
         id="stop22-4" /><stop
         offset="1"
         stop-color="#FFAF28"
         id="stop23" /></linearGradient><linearGradient
       id="gradient_4-1"
       gradientUnits="userSpaceOnUse"
       x1="81.328674"
       y1="714.17139"
       x2="61.857033"
       y2="672.45007"><stop
         offset="0"
         stop-color="#CD7326"
         id="stop24" /><stop
         offset="1"
         stop-color="#F49D39"
         id="stop25-1" /></linearGradient><linearGradient
       id="gradient_5-3"
       gradientUnits="userSpaceOnUse"
       x1="630.78802"
       y1="570.09845"
       x2="598.26477"
       y2="681.34033"><stop
         offset="0"
         stop-color="#AD5413"
         id="stop26-8" /><stop
         offset="1"
         stop-color="#273628"
         id="stop27-7" /></linearGradient><linearGradient
       id="gradient_6-4"
       gradientUnits="userSpaceOnUse"
       x1="1034.8933"
       y1="1021.933"
       x2="1133.5477"
       y2="754.1062"><stop
         offset="0"
         stop-color="#171519"
         id="stop28-2"
         style="stop-color:#4e4c4c;stop-opacity:1;" /><stop
         offset="1"
         stop-color="#071827"
         id="stop29-7" /></linearGradient><linearGradient
       id="gradient_7-7"
       gradientUnits="userSpaceOnUse"
       x1="1385.6405"
       y1="769.23029"
       x2="1079.3169"
       y2="673.34558"><stop
         offset="0"
         stop-color="#8B3308"
         id="stop30-9" /><stop
         offset="1"
         stop-color="#E5760B"
         id="stop31-3" /></linearGradient><clipPath
       clipPathUnits="userSpaceOnUse"
       id="clipPath4"><rect
         style="fill:none;fill-opacity:1;stroke-width:0.00781025;stroke-linecap:round;stroke-miterlimit:0"
         id="rect4"
         width="187.31215"
         height="242.40395"
         x="-350.88354"
         y="120.84489"
         transform="rotate(-90)" /></clipPath></defs><rect
     style="fill:#ffffff;fill-opacity:1;stroke-width:0.00900228;stroke-linecap:round;stroke-miterlimit:0"
     id="rect1"
     width="215.89999"
     height="279.39999"
     x="0"
     y="0"
     inkscape:label="background" /><g
     id="g4"
     transform="matrix(0,1.1526216,-1.1526216,0,404.43597,-139.28843)"
     inkscape:label="sand"
     clip-path="url(#clipPath4)"><path
       fill="url(#gradient_0)"
       transform="matrix(0.345055,0,0,0.345703,-6.10352e-5,0)"
       d="m 0,0 h 1363.83 c 0.73,1.28718 1.03,2.18702 1.1,3.66357 0.45,9.29423 0.09,18.77313 0.1,28.08303 v 53.4092 c 0,7.1814 1.14,36.2142 -0.39,41.5542 -0.14,0.503 -0.31,0.798 -0.54,1.29 0.63,1.423 0.82,2.654 0.86,4.208 0.49,19.73 0.91,256.188 -0.49,259.796 -0.1,0.261 -0.22,0.515 -0.33,0.772 1.45,3.639 1.58,108.744 0.33,111.764 -0.1,0.24 -0.22,0.472 -0.33,0.708 1.37,3.339 1.66,58.226 0.29,61.475 -0.08,0.207 -0.19,0.407 -0.28,0.611 1.62,3.868 1.85,44.389 0.17,47.794 -0.14,0.291 -0.32,0.566 -0.48,0.849 1.98,3.565 2,26.597 0.8,30.743 -0.12,0.413 -0.35,0.857 -0.53,1.234 1.54,3.599 1.67,46.868 0.32,49.945 -0.11,0.244 -0.23,0.479 -0.35,0.719 0.56,1.256 0.8,2.288 0.87,3.657 0.51,10.967 0.94,130.263 -0.35,134.201 -0.22,0.675 -0.38,0.884 -0.74,1.546 0.87,1.589 1.05,2.682 1.1,4.466 1.14,41.327 0.07,84.105 0.06,125.577 0,7.748 1.01,50.055 -0.43,54.395 -0.2,0.62 -0.43,0.95 -0.76,1.54 H 1045.52 331.739 0 V 878.098 733.661 700.36 643.778 601.721 553.238 392.542 128.021 Z"
       id="path2"
       style="fill:url(#gradient_0-9)" /><path
       fill="url(#gradient_1)"
       transform="matrix(0.345055,0,0,0.345703,-6.10352e-5,0)"
       d="m 511.964,416.939 c 5.907,-1.43 11.852,-3.918 17.602,-5.918 l 34.988,-12.299 57.505,-20.028 c 26.522,-9.479 52.844,-19.187 79.855,-27.244 11.462,-3.418 27.38,-9.535 39.013,-10.82 -7.771,4.763 -16.902,8.296 -25.194,12.149 q -27.162,12.719 -54.684,24.64 l -2.843,1.478 -4.129,1.869 c -16.052,7.682 -32.994,15.216 -47.541,25.525 -4.216,2.988 -7.505,7.202 -11.677,10.155 -12.841,2.943 -25.482,7.496 -38.025,11.529 q -27.065,8.487 -53.934,17.573 c -67.519,22.999 -134.192,48.363 -201.637,71.593 q -52.736,17.946 -106.412,32.845 c -9.901,2.845 -19.661,6.146 -29.605,8.846 -13.791,3.746 -27.814,6.583 -41.589,10.306 -7.047,1.905 -13.911,4.461 -20.979,6.365 Q 51.4559,589.07 0,601.721 v -48.483 l 180.727,-41.359 c 19.474,-4.542 39.088,-8.395 58.528,-13.103 q 48.443,-11.461 96.339,-25.027 47.896,-13.566 95.155,-29.211 c 19.166,-6.328 38.434,-12.322 57.507,-18.935 7.799,-2.705 16.275,-5.097 23.708,-8.664 z"
       id="path4"
       style="fill:url(#gradient_1-95)" /><path
       fill="#b5783e"
       transform="matrix(0.345055,0,0,0.345703,-6.10352e-5,0)"
       d="m 169.241,529.433 0.387,0.455 c -9.899,8.453 -22.873,18.086 -34.557,23.599 -22.164,10.459 -54.6942,14.31 -78.7307,21.858 l -0.4095,-0.27 c 2.4693,-3.824 100.7112,-41.244 113.3102,-45.642 z"
       id="path5" /><path
       fill="#ea9738"
       transform="matrix(0.345055,0,0,0.345703,-6.10352e-5,0)"
       d="M 0,601.721 Q 51.4558,589.07 102.678,575.503 c 7.068,-1.904 13.932,-4.46 20.979,-6.365 13.775,-3.723 27.798,-6.56 41.589,-10.306 9.944,-2.7 19.704,-6.001 29.605,-8.846 q 53.676,-14.899 106.412,-32.845 c 67.445,-23.23 134.118,-48.594 201.637,-71.593 q 26.869,-9.086 53.934,-17.573 c 12.543,-4.033 25.184,-8.586 38.025,-11.529 -0.82,4.602 2.03,8.129 4.544,11.74 7.786,11.188 17.201,21.579 26.041,31.955 9.899,11.62 19.681,23.563 30.341,34.492 11.255,-1.112 29.116,-5.571 39.546,-4.341 -14.414,6.973 -26.154,15.359 -36.918,27.23 -22.921,15.351 -49.539,21.602 -74.881,31.332 -3.611,0.808 -7.168,1.727 -10.732,2.721 -24.566,7.15 -48.788,16.346 -74.006,21.037 -6.963,1.294 -41.05,4.56 -44.119,5.938 q -24.376,1.377 -48.788,1.756 c -29.346,0.581 -56.889,0.282 -84.638,11.482 -14.969,6.041 -28.641,14.665 -42.157,23.383 -11.76,7.585 -25.8,15.079 -36.182,24.475 -11.583,5.091 -23.144,10.106 -34.97,14.613 -40.179,12.829 -79.875,23.845 -121.4106,31.517 -20.6352,3.812 -41.3717,7.736 -62.0557,11.201 C 16.4234,698.325 7.92131,698.527 0,700.36 v -56.582 z"
       id="path6" /><path
       fill="#f8ac37"
       transform="matrix(0.345055,0,0,0.345703,-6.10352e-5,0)"
       d="m 655.785,494.633 c 11.255,-1.112 29.116,-5.571 39.546,-4.341 -14.414,6.973 -26.154,15.359 -36.918,27.23 -22.921,15.351 -49.539,21.602 -74.881,31.332 -3.611,0.808 -7.168,1.727 -10.732,2.721 -24.566,7.15 -48.788,16.346 -74.006,21.037 -6.963,1.294 -41.05,4.56 -44.119,5.938 q -24.376,1.377 -48.788,1.756 c -29.346,0.581 -56.889,0.282 -84.638,11.482 -14.969,6.041 -28.641,14.665 -42.157,23.383 -11.76,7.585 -25.8,15.079 -36.182,24.475 -11.583,5.091 -23.144,10.106 -34.97,14.613 -40.179,12.829 -79.875,23.845 -121.4106,31.517 -20.6352,3.812 -41.3717,7.736 -62.0557,11.201 C 16.4234,698.325 7.92131,698.527 0,700.36 V 643.778 C 33.3126,638.646 66.461,631.806 99.6409,625.836 162.546,614.517 225.62,603.065 287.871,588.507 q 91.893,-21.449 181.649,-50.579 c 13.535,-4.263 27.072,-8.591 40.675,-12.632 8.606,-2.556 17.417,-4.617 25.856,-7.685 -0.391,-0.203 -0.785,-0.403 -1.169,-0.62 21.14,-3.818 42.053,-8.391 63.154,-12.389 q 28.838,-5.195 57.749,-9.969 z"
       id="path7" /><path
       fill="#1e4143"
       transform="matrix(0.345055,0,0,0.345703,-6.10352e-5,0)"
       d="m 741.481,340.547 c 10.026,2.097 22.093,8.654 31.702,12.744 21.328,9.077 42.529,18.28 64.107,26.761 q 74.376,30.051 149.155,59.078 c 34.585,13.489 69.405,26.533 103.625,40.92 6.18,-1.711 12.75,-2.473 19.01,-4.127 15.43,-4.083 31.19,-9.488 46.13,-15.159 11.88,-4.513 24.54,-12.894 36.35,-16.072 8.71,-0.458 97.74,42.215 116.09,48.146 10.24,3.311 21.27,5.602 31.82,7.647 5.08,0.984 20.98,2.858 24.67,4.763 1.37,3.339 1.66,58.226 0.29,61.475 -0.08,0.207 -0.19,0.407 -0.28,0.611 1.62,3.868 1.85,44.389 0.17,47.794 -0.14,0.291 -0.32,0.566 -0.48,0.849 1.98,3.565 2,26.597 0.8,30.743 -0.12,0.413 -0.35,0.857 -0.53,1.234 -0.34,-0.286 -0.39,-0.359 -0.84,-0.604 -6.74,-3.738 -59.41,-21.923 -64.47,-20.764 -18.76,-7.171 -43.59,0.584 -62.3,5.257 -5.18,1.291 -11.05,3.409 -16.37,3.544 -2.36,1.348 -84.45,25.652 -87.99,25.998 -2.7,-1.221 -6.18,-1.326 -9.1,-1.477 -19.71,-1.015 -39.76,-0.308 -59.52,-0.719 q -24.19,-0.714 -48.39,-0.537 c -7.35,0.032 -15.12,-0.412 -22.39,0.56 l -64.762,1.009 c -9.203,0.185 -19.363,-0.417 -28.418,1.058 -10.9,0.376 -83.645,2.36 -89.6,4.542 -3.555,0.172 -7.134,0.179 -10.693,0.262 -36.716,-10.052 -71.131,-23.623 -106.128,-38.444 -30.403,-12.876 -61.915,-26.782 -89.917,-44.39 -12.028,-7.564 -27.094,-16.965 -30.422,-31.674 3.564,-0.994 7.121,-1.913 10.732,-2.721 25.342,-9.73 51.96,-15.981 74.881,-31.332 10.764,-11.871 22.504,-20.257 36.918,-27.23 -10.43,-1.23 -28.291,3.229 -39.546,4.341 -10.66,-10.929 -20.442,-22.872 -30.341,-34.492 -8.84,-10.376 -18.255,-20.767 -26.041,-31.955 -2.514,-3.611 -5.364,-7.138 -4.544,-11.74 4.172,-2.953 7.461,-7.167 11.677,-10.155 14.547,-10.309 31.489,-17.843 47.541,-25.525 l 4.129,-1.869 2.843,-1.478 q 27.522,-11.921 54.684,-24.64 c 8.292,-3.853 17.423,-7.386 25.194,-12.149 z"
       id="path8"
       style="fill:#cf6a1b;fill-opacity:1" /><path
       fill="#4d5a3c"
       transform="matrix(0.345055,0,0,0.345703,-6.10352e-5,0)"
       d="m 654.077,380.766 4.129,-1.869 c 9.833,7.14 16.999,9.395 27.222,14.454 5.997,2.968 11.637,6.444 17.822,9.057 -4.549,0.179 -9.148,-1.216 -13.783,-1.165 l -0.242,0.584 c 2.183,1.436 13.832,5.032 16.869,5.689 0.691,0.149 1.363,0.267 2.021,0.536 3.408,1.39 15.866,6.372 17.3,9.473 -0.816,0.029 -1.624,0.026 -2.437,-0.068 -3.925,-0.454 -7.923,-3.682 -11.531,-5.278 -15.851,-7.013 -46.432,-18.04 -57.37,-31.413 z"
       id="path9" /><path
       fill="#ea9738"
       transform="matrix(0.345055,0,0,0.345703,-6.10352e-5,0)"
       d="m 1090.07,480.05 c 6.18,-1.711 12.75,-2.473 19.01,-4.127 15.43,-4.083 31.19,-9.488 46.13,-15.159 11.88,-4.513 24.54,-12.894 36.35,-16.072 0.6,1.013 0.73,1.51 0.7,2.685 1.43,2.96 0.5,5.712 -0.51,8.654 -2.14,6.218 -6.54,14.202 -12.14,17.88 -0.5,1.055 -0.99,2.114 -1.5,3.164 -0.73,1.522 -1.2,2.69 -0.65,4.363 4.83,14.765 50.68,43.87 51.19,46.214 0.08,0.382 -0.19,0.759 -0.29,1.139 -6.09,-2.749 -12.77,-4.526 -19.1,-6.718 -14.74,-5.105 -29.51,-9.955 -44.33,-14.832 q -37.73,-12.764 -74.86,-27.191 z"
       id="path10" /><path
       fill="#b5783e"
       transform="matrix(0.345055,0,0,0.345703,-6.10352e-5,0)"
       d="m 985.473,587.371 c 14.637,0.198 29.497,2.018 44.117,3.129 l 80.15,5.889 141.53,11.291 c 37.52,2.863 75.08,4.872 112.57,8.297 1.98,3.565 2,26.597 0.8,30.743 -0.12,0.413 -0.35,0.857 -0.53,1.234 -0.34,-0.286 -0.39,-0.359 -0.84,-0.604 -6.74,-3.738 -59.41,-21.923 -64.47,-20.764 -18.76,-7.171 -43.59,0.584 -62.3,5.257 -5.18,1.291 -11.05,3.409 -16.37,3.544 -1.81,-1.333 -32.86,-5.463 -37.82,-6.385 l -109.06,-21.369 c -17.67,-3.535 -35.53,-6.472 -53.1,-10.471 -11.56,-2.631 -23.613,-5.499 -34.677,-9.791 z"
       id="path11" /><path
       fill="#5d5e37"
       transform="matrix(0.345055,0,0,0.345703,-6.10352e-5,0)"
       d="m 661.049,377.419 c 0.658,0.565 24.066,13.344 25.68,14.01 2.194,0.904 5.028,0.556 7.074,1.584 1.98,0.996 1.126,3.757 3.108,4.962 3.088,1.877 7.319,2.856 10.68,4.316 2.859,1.241 5.544,2.853 8.358,4.194 -4.887,2.133 -8,-3.344 -12.699,-4.077 -6.185,-2.613 -11.825,-6.089 -17.822,-9.057 -10.223,-5.059 -17.389,-7.314 -27.222,-14.454 z"
       id="path13" /><path
       fill="#345b5f"
       transform="matrix(0.345055,0,0,0.345703,-6.10352e-5,0)"
       d="m 1191.56,444.692 c 8.71,-0.458 97.74,42.215 116.09,48.146 10.24,3.311 21.27,5.602 31.82,7.647 5.08,0.984 20.98,2.858 24.67,4.763 1.37,3.339 1.66,58.226 0.29,61.475 -0.08,0.207 -0.19,0.407 -0.28,0.611 -8.1,-3.379 -20.25,-5.16 -29.07,-7.413 -19.39,-4.955 -38.52,-10.971 -57.81,-16.342 -11.64,-3.243 -39.33,-9.688 -48.91,-14.788 0.1,-0.38 0.37,-0.757 0.29,-1.139 -0.51,-2.344 -46.36,-31.449 -51.19,-46.214 -0.55,-1.673 -0.08,-2.841 0.65,-4.363 0.51,-1.05 1,-2.109 1.5,-3.164 5.6,-3.678 10,-11.662 12.14,-17.88 1.01,-2.942 1.94,-5.694 0.51,-8.654 0.03,-1.175 -0.1,-1.672 -0.7,-2.685 z"
       id="path14" /><path
       fill="#7d6538"
       transform="matrix(0.345055,0,0,0.345703,-6.10352e-5,0)"
       d="m 1192.26,447.377 c 4.69,4.339 7.36,10.46 11.28,15.457 5.13,6.54 11.78,12.478 17.78,18.25 3.25,3.127 9.19,7.424 10.12,11.879 -6.94,-8.359 -39.76,-18.102 -50.71,-19.016 -0.37,-0.031 -0.75,-0.029 -1.12,-0.036 5.6,-3.678 10,-11.662 12.14,-17.88 1.01,-2.942 1.94,-5.694 0.51,-8.654 z"
       id="path15" /><path
       fill="url(#gradient_2)"
       transform="matrix(0.345055,0,0,0.345703,-6.10352e-5,0)"
       d="m 695.331,490.292 c 4.306,-1.565 10.51,1.061 14.865,2.433 42.716,13.456 84.529,30.469 126.578,45.876 38.895,14.252 80.739,27.84 120.33,40.18 6.44,2.007 22.719,9.463 28.369,8.59 11.064,4.292 23.117,7.16 34.677,9.791 17.57,3.999 35.43,6.936 53.1,10.471 l 109.06,21.369 c 4.96,0.922 36.01,5.052 37.82,6.385 -2.36,1.348 -84.45,25.652 -87.99,25.998 -2.7,-1.221 -6.18,-1.326 -9.1,-1.477 -19.71,-1.015 -39.76,-0.308 -59.52,-0.719 q -24.19,-0.714 -48.39,-0.537 c -7.35,0.032 -15.12,-0.412 -22.39,0.56 l -64.762,1.009 c -9.203,0.185 -19.363,-0.417 -28.418,1.058 -10.9,0.376 -83.645,2.36 -89.6,4.542 -3.555,0.172 -7.134,0.179 -10.693,0.262 -36.716,-10.052 -71.131,-23.623 -106.128,-38.444 -30.403,-12.876 -61.915,-26.782 -89.917,-44.39 -12.028,-7.564 -27.094,-16.965 -30.422,-31.674 3.564,-0.994 7.121,-1.913 10.732,-2.721 25.342,-9.73 51.96,-15.981 74.881,-31.332 10.764,-11.871 22.504,-20.257 36.918,-27.23 z"
       id="path16"
       style="fill:#9e521d;fill-opacity:1" /><path
       fill="#5b3e21"
       transform="matrix(0.345055,0,0,0.345703,-6.10352e-5,0)"
       d="m 658.413,517.522 c 0.08,0.208 0.158,0.416 0.241,0.623 1.286,3.184 3.107,5.353 5.593,7.677 11.926,11.154 26.511,20.756 39.555,30.647 19.794,15.012 39.34,30.534 59.352,45.237 l -0.391,0.232 -1.037,-0.442 1.251,-0.391 -0.007,-0.026 -1.355,0.427 c -4.081,-3.012 -17.116,-14.103 -20.76,-15.202 -1.87,-0.564 -7.687,0.782 -11.241,-0.094 -7.787,-1.918 -16.006,-4.774 -23.568,-7.493 -2.635,-0.948 -5.237,-2.374 -7.945,-3.068 -1.76,-0.451 -3.618,-0.094 -5.399,-0.559 -7.818,-2.037 -15.26,-5.794 -23.055,-8.014 -12.267,-3.495 -46.627,-10.898 -55.371,-19.083 -1.113,-1.043 -1.938,-2.647 -2.697,-3.96 -0.214,-0.088 -0.43,-0.17 -0.641,-0.264 -0.91,-0.406 -0.579,-0.201 -1.278,-0.928 l 0.16,-1.362 c -8.833,0.415 -17.172,8.45 -26.288,7.375 25.342,-9.73 51.96,-15.981 74.881,-31.332 z"
       id="path17" /><path
       fill="#f8ac37"
       transform="matrix(0.345055,0,0,0.345703,-6.10352e-5,0)"
       d="m 454.675,578.55 c 3.069,-1.378 37.156,-4.644 44.119,-5.938 25.218,-4.691 49.44,-13.887 74.006,-21.037 3.328,14.709 18.394,24.11 30.422,31.674 28.002,17.608 59.514,31.514 89.917,44.39 34.997,14.821 69.412,28.392 106.128,38.444 3.559,-0.083 7.138,-0.09 10.693,-0.262 5.955,-2.182 78.7,-4.166 89.6,-4.542 9.055,-1.475 19.215,-0.873 28.418,-1.058 l 64.762,-1.009 c 7.27,-0.972 15.04,-0.528 22.39,-0.56 q 24.2,-0.177 48.39,0.537 c 19.76,0.411 39.81,-0.296 59.52,0.719 2.92,0.151 6.4,0.256 9.1,1.477 3.54,-0.346 85.63,-24.65 87.99,-25.998 5.32,-0.135 11.19,-2.253 16.37,-3.544 18.71,-4.673 43.54,-12.428 62.3,-5.257 5.06,-1.159 57.73,17.026 64.47,20.764 0.45,0.245 0.5,0.318 0.84,0.604 1.54,3.599 1.67,46.868 0.32,49.945 -0.11,0.244 -0.23,0.479 -0.35,0.719 0.56,1.256 0.8,2.288 0.87,3.657 0.51,10.967 0.94,130.263 -0.35,134.201 -0.22,0.675 -0.38,0.884 -0.74,1.546 0.87,1.589 1.05,2.682 1.1,4.466 1.14,41.327 0.07,84.105 0.06,125.577 0,7.748 1.01,50.055 -0.43,54.395 -0.2,0.62 -0.43,0.95 -0.76,1.54 H 1045.52 331.739 0 V 878.098 733.661 700.36 c 7.92131,-1.833 16.4234,-2.035 24.4737,-3.383 20.684,-3.465 41.4205,-7.389 62.0557,-11.201 41.5356,-7.672 81.2316,-18.688 121.4106,-31.517 11.826,-4.507 23.387,-9.522 34.97,-14.613 10.382,-9.396 24.422,-16.89 36.182,-24.475 13.516,-8.718 27.188,-17.342 42.157,-23.383 27.749,-11.2 55.292,-10.901 84.638,-11.482 q 24.412,-0.379 48.788,-1.756 z"
       id="path18" /><path
       fill="#3a1e18"
       transform="matrix(0.345055,0,0,0.345703,-6.10352e-5,0)"
       d="m 992.74,659.212 c 7.27,-0.972 15.04,-0.528 22.39,-0.56 q 24.2,-0.177 48.39,0.537 c 19.76,0.411 39.81,-0.296 59.52,0.719 2.92,0.151 6.4,0.256 9.1,1.477 -7.55,6.202 -29.65,3.591 -39.31,5.187 -28.01,0.586 -55.82,3.157 -83.76,5.027 -58.073,3.887 -115.858,8.614 -173.484,17.006 -9.086,1.323 -25.066,2 -33.044,5.02 l -3.279,-0.464 0.472,-0.008 -1.018,-0.28 c 3.68,-0.189 7.413,-1.438 11.121,-1.948 8.823,-1.212 18.181,-1.569 26.811,-3.591 3.751,-3.277 -4.837,-7.922 -4.267,-13.952 1.048,-1.589 2.533,-2.008 4.238,-2.715 -6.317,-0.075 -12.605,-0.056 -18.884,0.767 7.103,-2.591 15.937,-1.303 23.434,-2.061 q 56.079,-5.748 112.435,-7.138 c 20.964,-0.72 42.503,-0.213 63.355,-2.192 -7.78,-1.213 -16.32,-0.656 -24.22,-0.831 z"
       id="path19" /><path
       fill="#9e521d"
       transform="matrix(0.345055,0,0,0.345703,-6.10352e-5,0)"
       d="m 992.74,659.212 c 7.9,0.175 16.44,-0.382 24.22,0.831 -20.852,1.979 -42.391,1.472 -63.355,2.192 q -56.356,1.389 -112.435,7.138 c -7.497,0.758 -16.331,-0.53 -23.434,2.061 6.279,-0.823 12.567,-0.842 18.884,-0.767 -1.705,0.707 -3.19,1.126 -4.238,2.715 -0.57,6.03 8.018,10.675 4.267,13.952 -8.63,2.022 -17.988,2.379 -26.811,3.591 -3.708,0.51 -7.441,1.759 -11.121,1.948 l 1.018,0.28 -0.472,0.008 3.279,0.464 c -65.044,10.405 -126.416,32.598 -189.691,49.987 -12.959,3.562 -25.91,7.209 -38.924,10.566 -4.889,1.261 -10.873,3.338 -15.869,3.689 -8.399,-1.346 -30.099,8.709 -40.49,9.379 l -0.185,-0.891 c 1.075,-1.077 2.155,-2.004 2.724,-3.443 0.834,-2.108 3.481,-3.646 3.933,-5.792 0.343,-1.631 -0.126,-3.738 0.119,-5.475 0.433,-3.068 2.228,-5.914 1.963,-9.099 -0.31,-3.728 -4.673,-6.545 -7.285,-8.85 6.551,-6.826 14.129,-13.816 21.603,-19.589 l 0.269,0.459 0.274,-0.831 0.756,0.283 c -0.258,5.973 3.9,3.048 6.662,6.762 l -1.307,3.226 c 0.694,0.251 0.444,0.34 0.955,-0.021 2.479,-1.751 4.102,-4.728 5.832,-7.174 5.988,-8.472 11.738,-16.347 20.947,-21.613 10.22,-5.845 20.931,-4.147 32.145,-5.561 7.448,-0.94 14.824,-2.508 22.295,-3.257 4.505,-0.452 9.771,-0.167 14.118,-1.29 0.301,-0.078 0.599,-0.164 0.899,-0.246 14.919,-0.438 31.372,-4.02 46.309,-5.805 17.475,-2.089 34.989,-3.321 52.469,-5.174 9.612,-1.018 19.191,-2.463 28.802,-3.539 6.592,-0.739 36.656,-2.266 39.115,-3.95 l -1.02,-0.555 c 5.955,-2.182 78.7,-4.166 89.6,-4.542 9.055,-1.475 19.215,-0.873 28.418,-1.058 z"
       id="path20" /><path
       fill="#5b3e21"
       transform="matrix(0.345055,0,0,0.345703,-6.10352e-5,0)"
       d="m 992.74,659.212 c 7.9,0.175 16.44,-0.382 24.22,0.831 -20.852,1.979 -42.391,1.472 -63.355,2.192 q -56.356,1.389 -112.435,7.138 c -7.497,0.758 -16.331,-0.53 -23.434,2.061 -7.652,2.973 -64.19,5.325 -75.351,5.202 l 0.146,-1.419 -1.857,0.609 c 0.685,-0.477 16.422,-1.045 19.189,-1.296 18.583,-1.686 37.22,-2.956 55.772,-4.956 9.267,-0.999 18.396,-2.945 27.695,-3.661 22.273,-1.716 44.647,-2.071 66.936,-3.72 -2.821,-1.174 -7.605,-0.795 -10.706,-0.914 9.055,-1.475 19.215,-0.873 28.418,-1.058 z"
       id="path21" /><path
       fill="#3a1e18"
       transform="matrix(0.345055,0,0,0.345703,-6.10352e-5,0)"
       d="m 331.739,1024 c 8.914,-4.87 27.195,-8.9 37.499,-11.98 q 39.093,-11.63 78.062,-23.676 c 65.218,-20.375 128.821,-44.737 192.747,-68.756 39.604,-14.881 80.971,-27.713 118.17,-48.079 1.222,4.264 -2.902,11.32 -3.976,15.793 3.593,16.634 15.483,25.593 29.144,34.403 31.043,20.021 67.924,33.018 102.326,46.17 q 58.956,22.922 118.979,42.885 c 6.54,2.17 37.99,10.64 40.83,13.24 z"
       id="path22"
       style="fill:#cf6a1b;fill-opacity:1" /><path
       fill="url(#gradient_3)"
       transform="matrix(0.345055,0,0,0.345703,-6.10352e-5,0)"
       d="m 454.675,578.55 c 3.069,-1.378 37.156,-4.644 44.119,-5.938 25.218,-4.691 49.44,-13.887 74.006,-21.037 3.328,14.709 18.394,24.11 30.422,31.674 28.002,17.608 59.514,31.514 89.917,44.39 34.997,14.821 69.412,28.392 106.128,38.444 3.559,-0.083 7.138,-0.09 10.693,-0.262 l 1.02,0.555 c -2.459,1.684 -32.523,3.211 -39.115,3.95 -9.611,1.076 -19.19,2.521 -28.802,3.539 -17.48,1.853 -34.994,3.085 -52.469,5.174 -14.937,1.785 -31.39,5.367 -46.309,5.805 -0.3,0.082 -0.598,0.168 -0.899,0.246 -4.347,1.123 -9.613,0.838 -14.118,1.29 -7.471,0.749 -14.847,2.317 -22.295,3.257 -11.214,1.414 -21.925,-0.284 -32.145,5.561 -9.209,5.266 -14.959,13.141 -20.947,21.613 -1.73,2.446 -3.353,5.423 -5.832,7.174 -0.511,0.361 -0.261,0.272 -0.955,0.021 l 1.307,-3.226 c -2.762,-3.714 -6.92,-0.789 -6.662,-6.762 l -0.756,-0.283 -0.274,0.831 -0.269,-0.459 c -7.474,5.773 -15.052,12.763 -21.603,19.589 2.612,2.305 6.975,5.122 7.285,8.85 0.265,3.185 -1.53,6.031 -1.963,9.099 -0.245,1.737 0.224,3.844 -0.119,5.475 -0.452,2.146 -3.099,3.684 -3.933,5.792 -0.569,1.439 -1.649,2.366 -2.724,3.443 l 0.185,0.891 c 10.391,-0.67 32.091,-10.725 40.49,-9.379 -21.595,7.364 -45.578,12.065 -67.823,17.566 q -75.339,18.892 -151.431,34.472 L 0,878.098 V 733.661 700.36 c 7.92131,-1.833 16.4234,-2.035 24.4737,-3.383 20.684,-3.465 41.4205,-7.389 62.0557,-11.201 41.5356,-7.672 81.2316,-18.688 121.4106,-31.517 11.826,-4.507 23.387,-9.522 34.97,-14.613 10.382,-9.396 24.422,-16.89 36.182,-24.475 13.516,-8.718 27.188,-17.342 42.157,-23.383 27.749,-11.2 55.292,-10.901 84.638,-11.482 q 24.412,-0.379 48.788,-1.756 z"
       id="path23"
       style="fill:url(#gradient_3-3)" /><path
       fill="#9e521d"
       transform="matrix(0.345055,0,0,0.345703,-6.10352e-5,0)"
       d="m 207.94,654.259 c 11.826,-4.507 23.387,-9.522 34.97,-14.613 -1.843,7.317 -0.876,14.495 3.044,21.003 2.671,4.434 6.219,7.645 10.724,10.141 10.95,6.067 23.779,9.105 35.725,12.715 q 40.552,12.053 81.69,21.919 c 3.136,0.743 6.41,1.751 9.652,1.482 -3.177,1.553 -22.529,1.963 -27.497,2.395 -17.982,1.564 -35.937,3.587 -53.939,4.906 q -88.396,6.034 -176.91,9.957 c -32.3052,2.881 -64.7442,3.377 -97.0654,6.414 C 18.9727,731.458 9.24519,731.929 0,733.661 V 700.36 c 7.92131,-1.833 16.4234,-2.035 24.4737,-3.383 20.684,-3.465 41.4205,-7.389 62.0557,-11.201 41.5356,-7.672 81.2316,-18.688 121.4106,-31.517 z"
       id="path24" /><path
       fill="url(#gradient_4)"
       transform="matrix(0.345055,0,0,0.345703,-6.10352e-5,0)"
       d="m 0,700.36 c 7.92131,-1.833 16.4234,-2.035 24.4737,-3.383 20.684,-3.465 41.4205,-7.389 62.0557,-11.201 41.5356,-7.672 81.2316,-18.688 121.4106,-31.517 -9.275,8.017 -40.579,12.305 -53.346,17.878 -10.592,4.623 -18.548,14.976 -28.881,20.657 -16.079,8.839 -33.0526,17.193 -49.933,24.364 -5.9948,2.547 -12.5683,3.954 -18.4123,6.688 -1.8151,0.849 -3.3619,1.854 -4.8398,3.218 2.2649,0.684 4.9308,0.197 7.2299,-0.198 4.5523,-0.782 9.3359,-0.041 13.9416,-0.415 10.2419,-0.831 20.4714,-1.379 30.7276,-2.093 5.739,-0.4 11.781,-1.233 17.521,-1.138 1.275,0.021 2.312,0.392 3.451,0.944 -32.3052,2.881 -64.7442,3.377 -97.0654,6.414 -9.3609,0.88 -19.08841,1.351 -28.3336,3.083 z"
       id="path25"
       style="fill:url(#gradient_4-1)" /><path
       fill="#1e4143"
       transform="matrix(0.345055,0,0,0.345703,-6.10352e-5,0)"
       d="m 454.675,578.55 c 3.069,-1.378 37.156,-4.644 44.119,-5.938 25.218,-4.691 49.44,-13.887 74.006,-21.037 3.328,14.709 18.394,24.11 30.422,31.674 28.002,17.608 59.514,31.514 89.917,44.39 34.997,14.821 69.412,28.392 106.128,38.444 3.559,-0.083 7.138,-0.09 10.693,-0.262 l 1.02,0.555 c -2.459,1.684 -32.523,3.211 -39.115,3.95 -9.611,1.076 -19.19,2.521 -28.802,3.539 -17.48,1.853 -34.994,3.085 -52.469,5.174 -14.937,1.785 -31.39,5.367 -46.309,5.805 -1.628,-0.171 -3.499,-0.005 -5.063,-0.351 -2.213,-0.49 -4.596,-2.303 -6.705,-2.506 -2.245,-0.217 -3.683,0.031 -5.975,-0.691 -5.147,0.25 -12.092,2.013 -17.037,1.128 -8.487,1.881 -17.602,2.252 -26.27,3.17 l -50.329,5.305 c -49.69,5.537 -99.292,12.196 -149.161,16.007 -3.242,0.269 -6.516,-0.739 -9.652,-1.482 q -41.138,-9.866 -81.69,-21.919 c -11.946,-3.61 -24.775,-6.648 -35.725,-12.715 -4.505,-2.496 -8.053,-5.707 -10.724,-10.141 -3.92,-6.508 -4.887,-13.686 -3.044,-21.003 10.382,-9.396 24.422,-16.89 36.182,-24.475 13.516,-8.718 27.188,-17.342 42.157,-23.383 27.749,-11.2 55.292,-10.901 84.638,-11.482 q 24.412,-0.379 48.788,-1.756 z"
       id="path26" /><path
       fill="url(#gradient_5)"
       transform="matrix(0.345055,0,0,0.345703,-6.10352e-5,0)"
       d="m 454.675,578.55 c 3.069,-1.378 37.156,-4.644 44.119,-5.938 25.218,-4.691 49.44,-13.887 74.006,-21.037 3.328,14.709 18.394,24.11 30.422,31.674 28.002,17.608 59.514,31.514 89.917,44.39 34.997,14.821 69.412,28.392 106.128,38.444 3.559,-0.083 7.138,-0.09 10.693,-0.262 l 1.02,0.555 c -2.459,1.684 -32.523,3.211 -39.115,3.95 -9.611,1.076 -19.19,2.521 -28.802,3.539 -17.48,1.853 -34.994,3.085 -52.469,5.174 -14.937,1.785 -31.39,5.367 -46.309,5.805 -1.628,-0.171 -3.499,-0.005 -5.063,-0.351 -2.213,-0.49 -4.596,-2.303 -6.705,-2.506 -2.245,-0.217 -3.683,0.031 -5.975,-0.691 -5.147,0.25 -12.092,2.013 -17.037,1.128 -1.716,-0.638 -2.845,-0.579 -4.644,-0.298 -1.396,0.218 -2.526,0.467 -3.917,-0.01 -12.662,-4.335 -24.505,-10.413 -36.845,-15.424 -8.738,-3.548 -18.386,-6.164 -26.743,-10.461 -3.996,-2.054 -7.28,-4.835 -11.093,-7.102 -4.838,-2.876 -24.226,-12.956 -28.851,-14.388 -0.813,-0.252 -0.917,0.041 -1.623,0.426 1.761,1.937 4.712,2.588 6.215,4.564 -19.211,-8.777 -26.158,-17.896 -40.7,-31.996 -2.299,-2.229 -4.238,-4.636 -7.555,-4.586 2.294,4.377 11.267,11.372 15.111,15.135 l -0.258,0.277 c -2.632,-1.566 -4.962,-2.874 -6.854,-5.336 -2.47,-3.216 -5.707,-5.769 -8.689,-8.493 -8.035,-7.338 -10.604,-14.616 -13.765,-24.669 5.008,0.056 10.751,0.706 15.381,-1.513 z"
       id="path27"
       style="fill:url(#gradient_5-3)" /><path
       fill="#b5783e"
       transform="matrix(0.345055,0,0,0.345703,-6.10352e-5,0)"
       d="m 799.267,666.083 c 3.559,-0.083 7.138,-0.09 10.693,-0.262 l 1.02,0.555 c -2.459,1.684 -32.523,3.211 -39.115,3.95 -9.611,1.076 -19.19,2.521 -28.802,3.539 -17.48,1.853 -34.994,3.085 -52.469,5.174 -14.937,1.785 -31.39,5.367 -46.309,5.805 -1.628,-0.171 -3.499,-0.005 -5.063,-0.351 -2.213,-0.49 -4.596,-2.303 -6.705,-2.506 -2.245,-0.217 -3.683,0.031 -5.975,-0.691 11.558,-2.394 24.551,-2.78 36.372,-4.003 q 47.641,-4.804 95.405,-8.154 c 12.947,-0.929 28.417,-0.457 40.948,-3.056 z"
       id="path28" /><path
       fill="url(#gradient_6)"
       transform="matrix(0.345055,0,0,0.345703,-6.10352e-5,0)"
       d="m 1298.8,626.586 c 5.06,-1.159 57.73,17.026 64.47,20.764 0.45,0.245 0.5,0.318 0.84,0.604 1.54,3.599 1.67,46.868 0.32,49.945 -0.11,0.244 -0.23,0.479 -0.35,0.719 0.56,1.256 0.8,2.288 0.87,3.657 0.51,10.967 0.94,130.263 -0.35,134.201 -0.22,0.675 -0.38,0.884 -0.74,1.546 0.87,1.589 1.05,2.682 1.1,4.466 1.14,41.327 0.07,84.105 0.06,125.577 0,7.748 1.01,50.055 -0.43,54.395 -0.2,0.62 -0.43,0.95 -0.76,1.54 h -318.31 c -2.84,-2.6 -34.29,-11.07 -40.83,-13.24 Q 944.667,990.797 885.711,967.875 c -34.402,-13.152 -71.283,-26.149 -102.326,-46.17 -13.661,-8.81 -25.551,-17.769 -29.144,-34.403 1.074,-4.473 5.198,-11.529 3.976,-15.793 21.078,-12.202 41.577,-25.511 62.609,-37.84 16.122,-9.452 33.798,-17.837 48.812,-28.891 7.327,-5.395 15.74,-11.792 19.289,-20.416 2.705,-6.575 2.228,-13.248 -0.585,-19.7 -10.768,-24.699 -50.392,-39.665 -74.887,-46.216 -6.868,-1.837 -15.106,-2.265 -21.563,-4.799 5.11,-1.264 29.911,3.482 36.278,4.458 40.226,6.997 77.649,17.683 117.034,27.913 16.158,4.196 32.535,7.652 48.776,11.525 16.94,4.041 37.46,10.368 54.48,12.51 8.12,-6.331 27.48,-9.94 37.81,-13.59 q 33.01,-11.982 65.87,-24.345 c 15.52,-5.807 32,-11.271 46.81,-18.663 31.28,-10.196 81.69,-36.713 103.37,-61.586 2.76,-3.167 6.68,-8.332 6.38,-12.715 0.1,-0.203 0.22,-0.398 0.3,-0.611 0.67,-1.815 0.13,-3.986 -0.76,-5.64 -1.92,-3.585 -5.74,-5.229 -9.44,-6.317 z"
       id="path29"
       style="fill:#9e521d;fill-opacity:1" /><path
       fill="url(#gradient_7)"
       transform="matrix(0.345055,0,0,0.345703,-6.10352e-5,0)"
       d="m 1298.8,626.586 c 5.06,-1.159 57.73,17.026 64.47,20.764 0.45,0.245 0.5,0.318 0.84,0.604 1.54,3.599 1.67,46.868 0.32,49.945 -0.11,0.244 -0.23,0.479 -0.35,0.719 0.56,1.256 0.8,2.288 0.87,3.657 0.51,10.967 0.94,130.263 -0.35,134.201 -0.22,0.675 -0.38,0.884 -0.74,1.546 -39.88,-10.59 -80.65,-19.05 -120.99,-27.691 Q 1176.2,795.57 1109.04,783.194 c -5.25,-2.225 -12.48,-2.938 -18.13,-4.135 l -42.45,-9.006 c 8.12,-6.331 27.48,-9.94 37.81,-13.59 q 33.01,-11.982 65.87,-24.345 c 15.52,-5.807 32,-11.271 46.81,-18.663 31.28,-10.196 81.69,-36.713 103.37,-61.586 2.76,-3.167 6.68,-8.332 6.38,-12.715 0.1,-0.203 0.22,-0.398 0.3,-0.611 0.67,-1.815 0.13,-3.986 -0.76,-5.64 -1.92,-3.585 -5.74,-5.229 -9.44,-6.317 z"
       id="path31"
       style="fill:url(#gradient_7-7)" /><path
       fill="#191213"
       transform="matrix(0.345055,0,0,0.345703,-6.10352e-5,0)"
       d="m 1298.8,626.586 c 5.06,-1.159 57.73,17.026 64.47,20.764 0.45,0.245 0.5,0.318 0.84,0.604 1.54,3.599 1.67,46.868 0.32,49.945 -0.11,0.244 -0.23,0.479 -0.35,0.719 -3.26,-2.736 -7.22,-4.77 -10.74,-7.203 -10.57,-7.298 -26.31,-18.324 -33.73,-28.851 -4.28,-6.056 -7.86,-20.233 -10.91,-23.41 0.1,-0.203 0.22,-0.398 0.3,-0.611 0.67,-1.815 0.13,-3.986 -0.76,-5.64 -1.92,-3.585 -5.74,-5.229 -9.44,-6.317 z"
       id="path32" /></g><g
     id="g2"
     inkscape:label="dots"
     transform="matrix(1.6912573,0,0,1.6912573,-20.863988,-23.776988)"
     clip-path="url(#clipPath1)"
     sodipodi:insensitive="true"><g
       inkscape:label="Layer 1"
       inkscape:groupmode="layer"
       id="layer1"><path
         style="fill:#000000;fill-opacity:1;stroke:none;stroke-width:0.7366;stroke-dasharray:none;paint-order:markers fill stroke"
         id="use15766"
         sodipodi:type="arc"
         sodipodi:cx="4.8024797"
         sodipodi:cy="4.8024797"
         sodipodi:rx="0.59127611"
         sodipodi:ry="0.59127611"
         sodipodi:start="0.027304543"
         sodipodi:end="6.2831853"
         sodipodi:open="true"
         sodipodi:arc-type="arc"
         d="M 5.3935355,4.8186223 A 0.59127611,0.59127611 0 0 1 4.7903722,5.3936319 0.59127611,0.59127611 0 0 1 4.2112587,4.7944077 0.59127611,0.59127611 0 0 1 4.8065158,4.2112174 0.59127611,0.59127611 0 0 1 5.3937559,4.8024797"
         inkscape:tile-x0="4.2112036"
         inkscape:tile-y0="4.2112036" /><path
         style="fill:#000000;fill-opacity:1;stroke:none;stroke-width:0.7366;stroke-dasharray:none;paint-order:markers fill stroke"
         id="use15767"
         sodipodi:type="arc"
         sodipodi:cx="4.8024797"
         sodipodi:cy="45.723351"
         sodipodi:rx="0.59127611"
         sodipodi:ry="0.59127611"
         sodipodi:start="0.027304543"
         sodipodi:end="6.2831853"
         sodipodi:open="true"
         sodipodi:arc-type="arc"
         d="m 5.3935355,45.739493 a 0.59127611,0.59127611 0 0 1 -0.6031633,0.57501 0.59127611,0.59127611 0 0 1 -0.5791135,-0.599224 0.59127611,0.59127611 0 0 1 0.5952571,-0.583191 0.59127611,0.59127611 0 0 1 0.5872401,0.591263"
         inkscape:tile-x0="4.2112036"
         inkscape:tile-y0="4.2112036" /><path
         style="fill:#000000;fill-opacity:1;stroke:none;stroke-width:0.7366;stroke-dasharray:none;paint-order:markers fill stroke"
         id="use15768"
         sodipodi:type="arc"
         sodipodi:cx="4.8024797"
         sodipodi:cy="86.644226"
         sodipodi:rx="0.59127611"
         sodipodi:ry="0.59127611"
         sodipodi:start="0.027304543"
         sodipodi:end="6.2831853"
         sodipodi:open="true"
         sodipodi:arc-type="arc"
         d="m 5.3935355,86.660369 a 0.59127611,0.59127611 0 0 1 -0.6031633,0.575009 0.59127611,0.59127611 0 0 1 -0.5791135,-0.599224 0.59127611,0.59127611 0 0 1 0.5952571,-0.58319 0.59127611,0.59127611 0 0 1 0.5872401,0.591262"
         inkscape:tile-x0="4.2112036"
         inkscape:tile-y0="4.2112036" /><path
         style="fill:#000000;fill-opacity:1;stroke:none;stroke-width:0.7366;stroke-dasharray:none;paint-order:markers fill stroke"
         id="use15769"
         sodipodi:type="arc"
         sodipodi:cx="4.8024797"
         sodipodi:cy="127.5651"
         sodipodi:rx="0.59127611"
         sodipodi:ry="0.59127611"
         sodipodi:start="0.027304543"
         sodipodi:end="6.2831853"
         sodipodi:open="true"
         sodipodi:arc-type="arc"
         d="m 5.3935355,127.58124 a 0.59127611,0.59127611 0 0 1 -0.6031633,0.57501 0.59127611,0.59127611 0 0 1 -0.5791135,-0.59922 0.59127611,0.59127611 0 0 1 0.5952571,-0.58319 0.59127611,0.59127611 0 0 1 0.5872401,0.59126"
         inkscape:tile-x0="4.2112036"
         inkscape:tile-y0="4.2112036" /><path
         style="fill:#000000;fill-opacity:1;stroke:none;stroke-width:0.7366;stroke-dasharray:none;paint-order:markers fill stroke"
         id="use15770"
         sodipodi:type="arc"
         sodipodi:cx="4.8024797"
         sodipodi:cy="168.48598"
         sodipodi:rx="0.59127611"
         sodipodi:ry="0.59127611"
         sodipodi:start="0.027304543"
         sodipodi:end="6.2831853"
         sodipodi:open="true"
         sodipodi:arc-type="arc"
         d="m 5.3935355,168.50212 a 0.59127611,0.59127611 0 0 1 -0.6031633,0.57501 0.59127611,0.59127611 0 0 1 -0.5791135,-0.59922 0.59127611,0.59127611 0 0 1 0.5952571,-0.5832 0.59127611,0.59127611 0 0 1 0.5872401,0.59127"
         inkscape:tile-x0="4.2112036"
         inkscape:tile-y0="4.2112036" /><path
         style="fill:#000000;fill-opacity:1;stroke:none;stroke-width:0.381031;stroke-dasharray:none;paint-order:markers fill stroke"
         id="use15771"
         sodipodi:type="arc"
         sodipodi:cx="4.8024797"
         sodipodi:cy="209.40686"
         sodipodi:rx="0.59127611"
         sodipodi:ry="0.59127611"
         sodipodi:start="0.027304543"
         sodipodi:end="6.2831853"
         sodipodi:open="true"
         sodipodi:arc-type="arc"
         d="m 5.3935355,209.423 a 0.59127611,0.59127611 0 0 1 -0.6031633,0.57501 0.59127611,0.59127611 0 0 1 -0.5791135,-0.59922 0.59127611,0.59127611 0 0 1 0.5952571,-0.58319 0.59127611,0.59127611 0 0 1 0.5872401,0.59126"
         inkscape:tile-x0="4.2112036"
         inkscape:tile-y0="4.2112036" /><path
         style="fill:#000000;fill-opacity:1;stroke:none;stroke-width:0.381031;stroke-dasharray:none;paint-order:markers fill stroke"
         id="use15772"
         sodipodi:type="arc"
         sodipodi:cx="4.8024797"
         sodipodi:cy="250.32773"
         sodipodi:rx="0.59127611"
         sodipodi:ry="0.59127611"
         sodipodi:start="0.027304543"
         sodipodi:end="6.2831853"
         sodipodi:open="true"
         sodipodi:arc-type="arc"
         d="m 5.3935355,250.34387 a 0.59127611,0.59127611 0 0 1 -0.6031633,0.57501 0.59127611,0.59127611 0 0 1 -0.5791135,-0.59922 0.59127611,0.59127611 0 0 1 0.5952571,-0.58319 0.59127611,0.59127611 0 0 1 0.5872401,0.59126"
         inkscape:tile-x0="4.2112036"
         inkscape:tile-y0="4.2112036" /><path
         style="fill:#000000;fill-opacity:1;stroke:none;stroke-width:0.7366;stroke-dasharray:none;paint-order:markers fill stroke"
         id="use15773"
         sodipodi:type="arc"
         sodipodi:cx="45.723351"
         sodipodi:cy="4.8024797"
         sodipodi:rx="0.59127611"
         sodipodi:ry="0.59127611"
         sodipodi:start="0.027304543"
         sodipodi:end="6.2831853"
         sodipodi:open="true"
         sodipodi:arc-type="arc"
         d="M 46.314406,4.8186223 A 0.59127611,0.59127611 0 0 1 45.711243,5.3936319 0.59127611,0.59127611 0 0 1 45.13213,4.7944077 0.59127611,0.59127611 0 0 1 45.727387,4.2112174 0.59127611,0.59127611 0 0 1 46.314627,4.8024797"
         inkscape:tile-x0="4.2112036"
         inkscape:tile-y0="4.2112036" /><path
         style="fill:#000000;fill-opacity:1;stroke:none;stroke-width:0.7366;stroke-dasharray:none;paint-order:markers fill stroke"
         id="use15774"
         sodipodi:type="arc"
         sodipodi:cx="45.723351"
         sodipodi:cy="45.723351"
         sodipodi:rx="0.59127611"
         sodipodi:ry="0.59127611"
         sodipodi:start="0.027304543"
         sodipodi:end="6.2831853"
         sodipodi:open="true"
         sodipodi:arc-type="arc"
         d="m 46.314406,45.739493 a 0.59127611,0.59127611 0 0 1 -0.603163,0.57501 0.59127611,0.59127611 0 0 1 -0.579113,-0.599224 0.59127611,0.59127611 0 0 1 0.595257,-0.583191 0.59127611,0.59127611 0 0 1 0.58724,0.591263"
         inkscape:tile-x0="4.2112036"
         inkscape:tile-y0="4.2112036" /><path
         style="fill:#000000;fill-opacity:1;stroke:none;stroke-width:0.7366;stroke-dasharray:none;paint-order:markers fill stroke"
         id="use15775"
         sodipodi:type="arc"
         sodipodi:cx="45.723351"
         sodipodi:cy="86.644226"
         sodipodi:rx="0.59127611"
         sodipodi:ry="0.59127611"
         sodipodi:start="0.027304543"
         sodipodi:end="6.2831853"
         sodipodi:open="true"
         sodipodi:arc-type="arc"
         d="m 46.314406,86.660369 a 0.59127611,0.59127611 0 0 1 -0.603163,0.575009 0.59127611,0.59127611 0 0 1 -0.579113,-0.599224 0.59127611,0.59127611 0 0 1 0.595257,-0.58319 0.59127611,0.59127611 0 0 1 0.58724,0.591262"
         inkscape:tile-x0="4.2112036"
         inkscape:tile-y0="4.2112036" /><path
         style="fill:#000000;fill-opacity:1;stroke:none;stroke-width:0.7366;stroke-dasharray:none;paint-order:markers fill stroke"
         id="use15776"
         sodipodi:type="arc"
         sodipodi:cx="45.723351"
         sodipodi:cy="127.5651"
         sodipodi:rx="0.59127611"
         sodipodi:ry="0.59127611"
         sodipodi:start="0.027304543"
         sodipodi:end="6.2831853"
         sodipodi:open="true"
         sodipodi:arc-type="arc"
         d="m 46.314406,127.58124 a 0.59127611,0.59127611 0 0 1 -0.603163,0.57501 0.59127611,0.59127611 0 0 1 -0.579113,-0.59922 0.59127611,0.59127611 0 0 1 0.595257,-0.58319 0.59127611,0.59127611 0 0 1 0.58724,0.59126"
         inkscape:tile-x0="4.2112036"
         inkscape:tile-y0="4.2112036" /><path
         style="fill:#000000;fill-opacity:1;stroke:none;stroke-width:0.7366;stroke-dasharray:none;paint-order:markers fill stroke"
         id="use15777"
         sodipodi:type="arc"
         sodipodi:cx="45.723351"
         sodipodi:cy="168.48598"
         sodipodi:rx="0.59127611"
         sodipodi:ry="0.59127611"
         sodipodi:start="0.027304543"
         sodipodi:end="6.2831853"
         sodipodi:open="true"
         sodipodi:arc-type="arc"
         d="m 46.314406,168.50212 a 0.59127611,0.59127611 0 0 1 -0.603163,0.57501 0.59127611,0.59127611 0 0 1 -0.579113,-0.59922 0.59127611,0.59127611 0 0 1 0.595257,-0.5832 0.59127611,0.59127611 0 0 1 0.58724,0.59127"
         inkscape:tile-x0="4.2112036"
         inkscape:tile-y0="4.2112036" /><path
         style="fill:#000000;fill-opacity:1;stroke:none;stroke-width:0.381031;stroke-dasharray:none;paint-order:markers fill stroke"
         id="use15778"
         sodipodi:type="arc"
         sodipodi:cx="45.723351"
         sodipodi:cy="209.40686"
         sodipodi:rx="0.59127611"
         sodipodi:ry="0.59127611"
         sodipodi:start="0.027304543"
         sodipodi:end="6.2831853"
         sodipodi:open="true"
         sodipodi:arc-type="arc"
         d="m 46.314406,209.423 a 0.59127611,0.59127611 0 0 1 -0.603163,0.57501 0.59127611,0.59127611 0 0 1 -0.579113,-0.59922 0.59127611,0.59127611 0 0 1 0.595257,-0.58319 0.59127611,0.59127611 0 0 1 0.58724,0.59126"
         inkscape:tile-x0="4.2112036"
         inkscape:tile-y0="4.2112036" /><path
         style="fill:#000000;fill-opacity:1;stroke:none;stroke-width:0.381031;stroke-dasharray:none;paint-order:markers fill stroke"
         id="use15779"
         sodipodi:type="arc"
         sodipodi:cx="45.723351"
         sodipodi:cy="250.32773"
         sodipodi:rx="0.59127611"
         sodipodi:ry="0.59127611"
         sodipodi:start="0.027304543"
         sodipodi:end="6.2831853"
         sodipodi:open="true"
         sodipodi:arc-type="arc"
         d="m 46.314406,250.34387 a 0.59127611,0.59127611 0 0 1 -0.603163,0.57501 0.59127611,0.59127611 0 0 1 -0.579113,-0.59922 0.59127611,0.59127611 0 0 1 0.595257,-0.58319 0.59127611,0.59127611 0 0 1 0.58724,0.59126"
         inkscape:tile-x0="4.2112036"
         inkscape:tile-y0="4.2112036" /><path
         style="fill:#000000;fill-opacity:1;stroke:none;stroke-width:0.7366;stroke-dasharray:none;paint-order:markers fill stroke"
         id="use15780"
         sodipodi:type="arc"
         sodipodi:cx="87.52919"
         sodipodi:cy="5.687448"
         sodipodi:rx="0.59127611"
         sodipodi:ry="0.59127611"
         sodipodi:start="0.027304543"
         sodipodi:end="6.2831853"
         sodipodi:open="true"
         sodipodi:arc-type="arc"
         d="M 88.120246,5.7035905 A 0.59127611,0.59127611 0 0 1 87.517083,6.2786002 0.59127611,0.59127611 0 0 1 86.937969,5.679376 0.59127611,0.59127611 0 0 1 87.533226,5.0961857 0.59127611,0.59127611 0 0 1 88.120466,5.687448"
         inkscape:tile-x0="4.2112036"
         inkscape:tile-y0="4.2112036" /><path
         style="fill:#000000;fill-opacity:1;stroke:none;stroke-width:0.7366;stroke-dasharray:none;paint-order:markers fill stroke"
         id="use15781"
         sodipodi:type="arc"
         sodipodi:cx="86.644226"
         sodipodi:cy="45.723351"
         sodipodi:rx="0.59127611"
         sodipodi:ry="0.59127611"
         sodipodi:start="0.027304543"
         sodipodi:end="6.2831853"
         sodipodi:open="true"
         sodipodi:arc-type="arc"
         d="m 87.235282,45.739493 a 0.59127611,0.59127611 0 0 1 -0.603163,0.57501 0.59127611,0.59127611 0 0 1 -0.579114,-0.599224 0.59127611,0.59127611 0 0 1 0.595257,-0.583191 0.59127611,0.59127611 0 0 1 0.58724,0.591263"
         inkscape:tile-x0="4.2112036"
         inkscape:tile-y0="4.2112036" /><path
         style="fill:#000000;fill-opacity:1;stroke:none;stroke-width:0.7366;stroke-dasharray:none;paint-order:markers fill stroke"
         id="use15782"
         sodipodi:type="arc"
         sodipodi:cx="86.644226"
         sodipodi:cy="86.644226"
         sodipodi:rx="0.59127611"
         sodipodi:ry="0.59127611"
         sodipodi:start="0.027304543"
         sodipodi:end="6.2831853"
         sodipodi:open="true"
         sodipodi:arc-type="arc"
         d="m 87.235282,86.660369 a 0.59127611,0.59127611 0 0 1 -0.603163,0.575009 0.59127611,0.59127611 0 0 1 -0.579114,-0.599224 0.59127611,0.59127611 0 0 1 0.595257,-0.58319 0.59127611,0.59127611 0 0 1 0.58724,0.591262"
         inkscape:tile-x0="4.2112036"
         inkscape:tile-y0="4.2112036" /><path
         style="fill:#000000;fill-opacity:1;stroke:none;stroke-width:0.7366;stroke-dasharray:none;paint-order:markers fill stroke"
         id="use15783"
         sodipodi:type="arc"
         sodipodi:cx="86.644226"
         sodipodi:cy="127.5651"
         sodipodi:rx="0.59127611"
         sodipodi:ry="0.59127611"
         sodipodi:start="0.027304543"
         sodipodi:end="6.2831853"
         sodipodi:open="true"
         sodipodi:arc-type="arc"
         d="m 87.235282,127.58124 a 0.59127611,0.59127611 0 0 1 -0.603163,0.57501 0.59127611,0.59127611 0 0 1 -0.579114,-0.59922 0.59127611,0.59127611 0 0 1 0.595257,-0.58319 0.59127611,0.59127611 0 0 1 0.58724,0.59126"
         inkscape:tile-x0="4.2112036"
         inkscape:tile-y0="4.2112036" /><path
         style="fill:#000000;fill-opacity:1;stroke:none;stroke-width:0.7366;stroke-dasharray:none;paint-order:markers fill stroke"
         id="use15784"
         sodipodi:type="arc"
         sodipodi:cx="86.644226"
         sodipodi:cy="168.48598"
         sodipodi:rx="0.59127611"
         sodipodi:ry="0.59127611"
         sodipodi:start="0.027304543"
         sodipodi:end="6.2831853"
         sodipodi:open="true"
         sodipodi:arc-type="arc"
         d="m 87.235282,168.50212 a 0.59127611,0.59127611 0 0 1 -0.603163,0.57501 0.59127611,0.59127611 0 0 1 -0.579114,-0.59922 0.59127611,0.59127611 0 0 1 0.595257,-0.5832 0.59127611,0.59127611 0 0 1 0.58724,0.59127"
         inkscape:tile-x0="4.2112036"
         inkscape:tile-y0="4.2112036" /><path
         style="fill:#000000;fill-opacity:1;stroke:none;stroke-width:0.381031;stroke-dasharray:none;paint-order:markers fill stroke"
         id="use15785"
         sodipodi:type="arc"
         sodipodi:cx="86.644226"
         sodipodi:cy="209.40686"
         sodipodi:rx="0.59127611"
         sodipodi:ry="0.59127611"
         sodipodi:start="0.027304543"
         sodipodi:end="6.2831853"
         sodipodi:open="true"
         sodipodi:arc-type="arc"
         d="m 87.235282,209.423 a 0.59127611,0.59127611 0 0 1 -0.603163,0.57501 0.59127611,0.59127611 0 0 1 -0.579114,-0.59922 0.59127611,0.59127611 0 0 1 0.595257,-0.58319 0.59127611,0.59127611 0 0 1 0.58724,0.59126"
         inkscape:tile-x0="4.2112036"
         inkscape:tile-y0="4.2112036" /><path
         style="fill:#000000;fill-opacity:1;stroke:none;stroke-width:0.381031;stroke-dasharray:none;paint-order:markers fill stroke"
         id="use15786"
         sodipodi:type="arc"
         sodipodi:cx="86.644226"
         sodipodi:cy="250.32773"
         sodipodi:rx="0.59127611"
         sodipodi:ry="0.59127611"
         sodipodi:start="0.027304543"
         sodipodi:end="6.2831853"
         sodipodi:open="true"
         sodipodi:arc-type="arc"
         d="m 87.235282,250.34387 a 0.59127611,0.59127611 0 0 1 -0.603163,0.57501 0.59127611,0.59127611 0 0 1 -0.579114,-0.59922 0.59127611,0.59127611 0 0 1 0.595257,-0.58319 0.59127611,0.59127611 0 0 1 0.58724,0.59126"
         inkscape:tile-x0="4.2112036"
         inkscape:tile-y0="4.2112036" /><path
         style="fill:#000000;fill-opacity:1;stroke:none;stroke-width:0.7366;stroke-dasharray:none;paint-order:markers fill stroke"
         id="use15787"
         sodipodi:type="arc"
         sodipodi:cx="127.5651"
         sodipodi:cy="4.8024797"
         sodipodi:rx="0.59127611"
         sodipodi:ry="0.59127611"
         sodipodi:start="0.027304543"
         sodipodi:end="6.2831853"
         sodipodi:open="true"
         sodipodi:arc-type="arc"
         d="m 128.15616,4.8186223 a 0.59127611,0.59127611 0 0 1 -0.60317,0.5750096 0.59127611,0.59127611 0 0 1 -0.57911,-0.5992242 0.59127611,0.59127611 0 0 1 0.59526,-0.5831903 0.59127611,0.59127611 0 0 1 0.58724,0.5912623"
         inkscape:tile-x0="4.2112036"
         inkscape:tile-y0="4.2112036" /><path
         style="fill:#000000;fill-opacity:1;stroke:none;stroke-width:0.7366;stroke-dasharray:none;paint-order:markers fill stroke"
         id="use15788"
         sodipodi:type="arc"
         sodipodi:cx="127.5651"
         sodipodi:cy="45.723351"
         sodipodi:rx="0.59127611"
         sodipodi:ry="0.59127611"
         sodipodi:start="0.027304543"
         sodipodi:end="6.2831853"
         sodipodi:open="true"
         sodipodi:arc-type="arc"
         d="m 128.15616,45.739493 a 0.59127611,0.59127611 0 0 1 -0.60317,0.57501 0.59127611,0.59127611 0 0 1 -0.57911,-0.599224 0.59127611,0.59127611 0 0 1 0.59526,-0.583191 0.59127611,0.59127611 0 0 1 0.58724,0.591263"
         inkscape:tile-x0="4.2112036"
         inkscape:tile-y0="4.2112036" /><path
         style="fill:#000000;fill-opacity:1;stroke:none;stroke-width:0.7366;stroke-dasharray:none;paint-order:markers fill stroke"
         id="use15789"
         sodipodi:type="arc"
         sodipodi:cx="127.5651"
         sodipodi:cy="86.644226"
         sodipodi:rx="0.59127611"
         sodipodi:ry="0.59127611"
         sodipodi:start="0.027304543"
         sodipodi:end="6.2831853"
         sodipodi:open="true"
         sodipodi:arc-type="arc"
         d="m 128.15616,86.660369 a 0.59127611,0.59127611 0 0 1 -0.60317,0.575009 0.59127611,0.59127611 0 0 1 -0.57911,-0.599224 0.59127611,0.59127611 0 0 1 0.59526,-0.58319 0.59127611,0.59127611 0 0 1 0.58724,0.591262"
         inkscape:tile-x0="4.2112036"
         inkscape:tile-y0="4.2112036" /><path
         style="fill:#000000;fill-opacity:1;stroke:none;stroke-width:0.7366;stroke-dasharray:none;paint-order:markers fill stroke"
         id="use15790"
         sodipodi:type="arc"
         sodipodi:cx="127.5651"
         sodipodi:cy="127.5651"
         sodipodi:rx="0.59127611"
         sodipodi:ry="0.59127611"
         sodipodi:start="0.027304543"
         sodipodi:end="6.2831853"
         sodipodi:open="true"
         sodipodi:arc-type="arc"
         d="m 128.15616,127.58124 a 0.59127611,0.59127611 0 0 1 -0.60317,0.57501 0.59127611,0.59127611 0 0 1 -0.57911,-0.59922 0.59127611,0.59127611 0 0 1 0.59526,-0.58319 0.59127611,0.59127611 0 0 1 0.58724,0.59126"
         inkscape:tile-x0="4.2112036"
         inkscape:tile-y0="4.2112036" /><path
         style="fill:#000000;fill-opacity:1;stroke:none;stroke-width:0.7366;stroke-dasharray:none;paint-order:markers fill stroke"
         id="use15791"
         sodipodi:type="arc"
         sodipodi:cx="127.5651"
         sodipodi:cy="168.48598"
         sodipodi:rx="0.59127611"
         sodipodi:ry="0.59127611"
         sodipodi:start="0.027304543"
         sodipodi:end="6.2831853"
         sodipodi:open="true"
         sodipodi:arc-type="arc"
         d="m 128.15616,168.50212 a 0.59127611,0.59127611 0 0 1 -0.60317,0.57501 0.59127611,0.59127611 0 0 1 -0.57911,-0.59922 0.59127611,0.59127611 0 0 1 0.59526,-0.5832 0.59127611,0.59127611 0 0 1 0.58724,0.59127"
         inkscape:tile-x0="4.2112036"
         inkscape:tile-y0="4.2112036" /><path
         style="fill:#000000;fill-opacity:1;stroke:none;stroke-width:0.381031;stroke-dasharray:none;paint-order:markers fill stroke"
         id="use15792"
         sodipodi:type="arc"
         sodipodi:cx="127.5651"
         sodipodi:cy="209.40686"
         sodipodi:rx="0.59127611"
         sodipodi:ry="0.59127611"
         sodipodi:start="0.027304543"
         sodipodi:end="6.2831853"
         sodipodi:open="true"
         sodipodi:arc-type="arc"
         d="m 128.15616,209.423 a 0.59127611,0.59127611 0 0 1 -0.60317,0.57501 0.59127611,0.59127611 0 0 1 -0.57911,-0.59922 0.59127611,0.59127611 0 0 1 0.59526,-0.58319 0.59127611,0.59127611 0 0 1 0.58724,0.59126"
         inkscape:tile-x0="4.2112036"
         inkscape:tile-y0="4.2112036" /><path
         style="fill:#000000;fill-opacity:1;stroke:none;stroke-width:0.381031;stroke-dasharray:none;paint-order:markers fill stroke"
         id="use15793"
         sodipodi:type="arc"
         sodipodi:cx="127.5651"
         sodipodi:cy="250.32773"
         sodipodi:rx="0.59127611"
         sodipodi:ry="0.59127611"
         sodipodi:start="0.027304543"
         sodipodi:end="6.2831853"
         sodipodi:open="true"
         sodipodi:arc-type="arc"
         d="m 128.15616,250.34387 a 0.59127611,0.59127611 0 0 1 -0.60317,0.57501 0.59127611,0.59127611 0 0 1 -0.57911,-0.59922 0.59127611,0.59127611 0 0 1 0.59526,-0.58319 0.59127611,0.59127611 0 0 1 0.58724,0.59126"
         inkscape:tile-x0="4.2112036"
         inkscape:tile-y0="4.2112036" /><path
         style="fill:#000000;fill-opacity:1;stroke:none;stroke-width:0.7366;stroke-dasharray:none;paint-order:markers fill stroke"
         id="use15794"
         sodipodi:type="arc"
         sodipodi:cx="168.48598"
         sodipodi:cy="4.8024797"
         sodipodi:rx="0.59127611"
         sodipodi:ry="0.59127611"
         sodipodi:start="0.027304543"
         sodipodi:end="6.2831853"
         sodipodi:open="true"
         sodipodi:arc-type="arc"
         d="m 169.07703,4.8186223 a 0.59127611,0.59127611 0 0 1 -0.60316,0.5750096 0.59127611,0.59127611 0 0 1 -0.57911,-0.5992242 0.59127611,0.59127611 0 0 1 0.59525,-0.5831903 0.59127611,0.59127611 0 0 1 0.58724,0.5912623"
         inkscape:tile-x0="4.2112036"
         inkscape:tile-y0="4.2112036" /><path
         style="fill:#000000;fill-opacity:1;stroke:none;stroke-width:0.381031;stroke-dasharray:none;paint-order:markers fill stroke"
         id="use15795"
         sodipodi:type="arc"
         sodipodi:cx="168.48598"
         sodipodi:cy="45.723351"
         sodipodi:rx="0.59127611"
         sodipodi:ry="0.59127611"
         sodipodi:start="0.027304543"
         sodipodi:end="6.2831853"
         sodipodi:open="true"
         sodipodi:arc-type="arc"
         d="m 169.07703,45.739493 a 0.59127611,0.59127611 0 0 1 -0.60316,0.57501 0.59127611,0.59127611 0 0 1 -0.57911,-0.599224 0.59127611,0.59127611 0 0 1 0.59525,-0.583191 0.59127611,0.59127611 0 0 1 0.58724,0.591263"
         inkscape:tile-x0="4.2112036"
         inkscape:tile-y0="4.2112036" /><path
         style="fill:#000000;fill-opacity:1;stroke:none;stroke-width:0.381031;stroke-dasharray:none;paint-order:markers fill stroke"
         id="use15796"
         sodipodi:type="arc"
         sodipodi:cx="168.48598"
         sodipodi:cy="86.644226"
         sodipodi:rx="0.59127611"
         sodipodi:ry="0.59127611"
         sodipodi:start="0.027304543"
         sodipodi:end="6.2831853"
         sodipodi:open="true"
         sodipodi:arc-type="arc"
         d="m 169.07703,86.660369 a 0.59127611,0.59127611 0 0 1 -0.60316,0.575009 0.59127611,0.59127611 0 0 1 -0.57911,-0.599224 0.59127611,0.59127611 0 0 1 0.59525,-0.58319 0.59127611,0.59127611 0 0 1 0.58724,0.591262"
         inkscape:tile-x0="4.2112036"
         inkscape:tile-y0="4.2112036" /><path
         style="fill:#000000;fill-opacity:1;stroke:none;stroke-width:0.381031;stroke-dasharray:none;paint-order:markers fill stroke"
         id="use15797"
         sodipodi:type="arc"
         sodipodi:cx="168.48598"
         sodipodi:cy="127.5651"
         sodipodi:rx="0.59127611"
         sodipodi:ry="0.59127611"
         sodipodi:start="0.027304543"
         sodipodi:end="6.2831853"
         sodipodi:open="true"
         sodipodi:arc-type="arc"
         d="m 169.07703,127.58124 a 0.59127611,0.59127611 0 0 1 -0.60316,0.57501 0.59127611,0.59127611 0 0 1 -0.57911,-0.59922 0.59127611,0.59127611 0 0 1 0.59525,-0.58319 0.59127611,0.59127611 0 0 1 0.58724,0.59126"
         inkscape:tile-x0="4.2112036"
         inkscape:tile-y0="4.2112036" /><path
         style="fill:#000000;fill-opacity:1;stroke:none;stroke-width:0.381031;stroke-dasharray:none;paint-order:markers fill stroke"
         id="use15798"
         sodipodi:type="arc"
         sodipodi:cx="168.48598"
         sodipodi:cy="168.48598"
         sodipodi:rx="0.59127611"
         sodipodi:ry="0.59127611"
         sodipodi:start="0.027304543"
         sodipodi:end="6.2831853"
         sodipodi:open="true"
         sodipodi:arc-type="arc"
         d="m 169.07703,168.50212 a 0.59127611,0.59127611 0 0 1 -0.60316,0.57501 0.59127611,0.59127611 0 0 1 -0.57911,-0.59922 0.59127611,0.59127611 0 0 1 0.59525,-0.5832 0.59127611,0.59127611 0 0 1 0.58724,0.59127"
         inkscape:tile-x0="4.2112036"
         inkscape:tile-y0="4.2112036" /><path
         style="fill:#000000;fill-opacity:1;stroke:none;stroke-width:0.381031;stroke-dasharray:none;paint-order:markers fill stroke"
         id="use15799"
         sodipodi:type="arc"
         sodipodi:cx="168.48598"
         sodipodi:cy="209.40686"
         sodipodi:rx="0.59127611"
         sodipodi:ry="0.59127611"
         sodipodi:start="0.027304543"
         sodipodi:end="6.2831853"
         sodipodi:open="true"
         sodipodi:arc-type="arc"
         d="m 169.07703,209.423 a 0.59127611,0.59127611 0 0 1 -0.60316,0.57501 0.59127611,0.59127611 0 0 1 -0.57911,-0.59922 0.59127611,0.59127611 0 0 1 0.59525,-0.58319 0.59127611,0.59127611 0 0 1 0.58724,0.59126"
         inkscape:tile-x0="4.2112036"
         inkscape:tile-y0="4.2112036" /><path
         style="fill:#000000;fill-opacity:1;stroke:none;stroke-width:0.381031;stroke-dasharray:none;paint-order:markers fill stroke"
         id="use15800"
         sodipodi:type="arc"
         sodipodi:cx="168.48598"
         sodipodi:cy="250.32773"
         sodipodi:rx="0.59127611"
         sodipodi:ry="0.59127611"
         sodipodi:start="0.027304543"
         sodipodi:end="6.2831853"
         sodipodi:open="true"
         sodipodi:arc-type="arc"
         d="m 169.07703,250.34387 a 0.59127611,0.59127611 0 0 1 -0.60316,0.57501 0.59127611,0.59127611 0 0 1 -0.57911,-0.59922 0.59127611,0.59127611 0 0 1 0.59525,-0.58319 0.59127611,0.59127611 0 0 1 0.58724,0.59126"
         inkscape:tile-x0="4.2112036"
         inkscape:tile-y0="4.2112036" /><path
         style="fill:#000000;fill-opacity:1;stroke:none;stroke-width:0.7366;stroke-dasharray:none;paint-order:markers fill stroke"
         id="use15801"
         sodipodi:type="arc"
         sodipodi:cx="209.40685"
         sodipodi:cy="4.8024797"
         sodipodi:rx="0.59127611"
         sodipodi:ry="0.59127611"
         sodipodi:start="0.027304543"
         sodipodi:end="6.2831853"
         sodipodi:open="true"
         sodipodi:arc-type="arc"
         d="m 209.9979,4.8186223 a 0.59127611,0.59127611 0 0 1 -0.60316,0.5750096 0.59127611,0.59127611 0 0 1 -0.57912,-0.5992242 0.59127611,0.59127611 0 0 1 0.59526,-0.5831903 0.59127611,0.59127611 0 0 1 0.58724,0.5912623"
         inkscape:tile-x0="4.2112036"
         inkscape:tile-y0="4.2112036" /><path
         style="fill:#000000;fill-opacity:1;stroke:none;stroke-width:0.381031;stroke-dasharray:none;paint-order:markers fill stroke"
         id="use15802"
         sodipodi:type="arc"
         sodipodi:cx="209.40686"
         sodipodi:cy="45.723351"
         sodipodi:rx="0.59127611"
         sodipodi:ry="0.59127611"
         sodipodi:start="0.027304543"
         sodipodi:end="6.2831853"
         sodipodi:open="true"
         sodipodi:arc-type="arc"
         d="m 209.99792,45.739493 a 0.59127611,0.59127611 0 0 1 -0.60317,0.57501 0.59127611,0.59127611 0 0 1 -0.57911,-0.599224 0.59127611,0.59127611 0 0 1 0.59526,-0.583191 0.59127611,0.59127611 0 0 1 0.58724,0.591263"
         inkscape:tile-x0="4.2112036"
         inkscape:tile-y0="4.2112036" /><path
         style="fill:#000000;fill-opacity:1;stroke:none;stroke-width:0.381031;stroke-dasharray:none;paint-order:markers fill stroke"
         id="use15803"
         sodipodi:type="arc"
         sodipodi:cx="209.40686"
         sodipodi:cy="86.644226"
         sodipodi:rx="0.59127611"
         sodipodi:ry="0.59127611"
         sodipodi:start="0.027304543"
         sodipodi:end="6.2831853"
         sodipodi:open="true"
         sodipodi:arc-type="arc"
         d="m 209.99792,86.660369 a 0.59127611,0.59127611 0 0 1 -0.60317,0.575009 0.59127611,0.59127611 0 0 1 -0.57911,-0.599224 0.59127611,0.59127611 0 0 1 0.59526,-0.58319 0.59127611,0.59127611 0 0 1 0.58724,0.591262"
         inkscape:tile-x0="4.2112036"
         inkscape:tile-y0="4.2112036" /><path
         style="fill:#000000;fill-opacity:1;stroke:none;stroke-width:0.381031;stroke-dasharray:none;paint-order:markers fill stroke"
         id="use15804"
         sodipodi:type="arc"
         sodipodi:cx="209.40686"
         sodipodi:cy="127.5651"
         sodipodi:rx="0.59127611"
         sodipodi:ry="0.59127611"
         sodipodi:start="0.027304543"
         sodipodi:end="6.2831853"
         sodipodi:open="true"
         sodipodi:arc-type="arc"
         d="m 209.99792,127.58124 a 0.59127611,0.59127611 0 0 1 -0.60317,0.57501 0.59127611,0.59127611 0 0 1 -0.57911,-0.59922 0.59127611,0.59127611 0 0 1 0.59526,-0.58319 0.59127611,0.59127611 0 0 1 0.58724,0.59126"
         inkscape:tile-x0="4.2112036"
         inkscape:tile-y0="4.2112036" /><path
         style="fill:#000000;fill-opacity:1;stroke:none;stroke-width:0.381031;stroke-dasharray:none;paint-order:markers fill stroke"
         id="use15805"
         sodipodi:type="arc"
         sodipodi:cx="209.40686"
         sodipodi:cy="168.48598"
         sodipodi:rx="0.59127611"
         sodipodi:ry="0.59127611"
         sodipodi:start="0.027304543"
         sodipodi:end="6.2831853"
         sodipodi:open="true"
         sodipodi:arc-type="arc"
         d="m 209.99792,168.50212 a 0.59127611,0.59127611 0 0 1 -0.60317,0.57501 0.59127611,0.59127611 0 0 1 -0.57911,-0.59922 0.59127611,0.59127611 0 0 1 0.59526,-0.5832 0.59127611,0.59127611 0 0 1 0.58724,0.59127"
         inkscape:tile-x0="4.2112036"
         inkscape:tile-y0="4.2112036" /><path
         style="fill:#000000;fill-opacity:1;stroke:none;stroke-width:0.381031;stroke-dasharray:none;paint-order:markers fill stroke"
         id="use15806"
         sodipodi:type="arc"
         sodipodi:cx="209.40686"
         sodipodi:cy="209.40686"
         sodipodi:rx="0.59127611"
         sodipodi:ry="0.59127611"
         sodipodi:start="0.027304543"
         sodipodi:end="6.2831853"
         sodipodi:open="true"
         sodipodi:arc-type="arc"
         d="m 209.99792,209.423 a 0.59127611,0.59127611 0 0 1 -0.60317,0.57501 0.59127611,0.59127611 0 0 1 -0.57911,-0.59922 0.59127611,0.59127611 0 0 1 0.59526,-0.58319 0.59127611,0.59127611 0 0 1 0.58724,0.59126"
         inkscape:tile-x0="4.2112036"
         inkscape:tile-y0="4.2112036" /><path
         style="fill:#000000;fill-opacity:1;stroke:none;stroke-width:0.381031;stroke-dasharray:none;paint-order:markers fill stroke"
         id="use15807"
         sodipodi:type="arc"
         sodipodi:cx="209.40686"
         sodipodi:cy="250.32773"
         sodipodi:rx="0.59127611"
         sodipodi:ry="0.59127611"
         sodipodi:start="0.027304543"
         sodipodi:end="6.2831853"
         sodipodi:open="true"
         sodipodi:arc-type="arc"
         d="m 209.99792,250.34387 a 0.59127611,0.59127611 0 0 1 -0.60317,0.57501 0.59127611,0.59127611 0 0 1 -0.57911,-0.59922 0.59127611,0.59127611 0 0 1 0.59526,-0.58319 0.59127611,0.59127611 0 0 1 0.58724,0.59126"
         inkscape:tile-x0="4.2112036"
         inkscape:tile-y0="4.2112036" /></g><g
       inkscape:groupmode="layer"
       id="layer2"
       inkscape:label="Layer 2"><path
         style="fill:#000000;fill-opacity:1;stroke:none;stroke-width:0.7366;stroke-dasharray:none;paint-order:markers fill stroke"
         id="use15766-7"
         sodipodi:type="arc"
         sodipodi:cx="24.891655"
         sodipodi:cy="25.291885"
         sodipodi:rx="0.59127611"
         sodipodi:ry="0.59127611"
         sodipodi:start="0.027304543"
         sodipodi:end="6.2831853"
         sodipodi:open="true"
         sodipodi:arc-type="arc"
         d="m 25.482711,25.308028 a 0.59127611,0.59127611 0 0 1 -0.603164,0.57501 0.59127611,0.59127611 0 0 1 -0.579113,-0.599225 0.59127611,0.59127611 0 0 1 0.595257,-0.58319 0.59127611,0.59127611 0 0 1 0.58724,0.591262"
         inkscape:tile-x0="4.2112036"
         inkscape:tile-y0="4.2112036"
         sodipodi:insensitive="true" /><path
         style="fill:#000000;fill-opacity:1;stroke:none;stroke-width:0.7366;stroke-dasharray:none;paint-order:markers fill stroke"
         id="use15767-6"
         sodipodi:type="arc"
         sodipodi:cx="24.891655"
         sodipodi:cy="66.212791"
         sodipodi:rx="0.59127611"
         sodipodi:ry="0.59127611"
         sodipodi:start="0.027304543"
         sodipodi:end="6.2831853"
         sodipodi:open="true"
         sodipodi:arc-type="arc"
         d="m 25.482711,66.228934 a 0.59127611,0.59127611 0 0 1 -0.603164,0.57501 0.59127611,0.59127611 0 0 1 -0.579113,-0.599225 0.59127611,0.59127611 0 0 1 0.595257,-0.58319 0.59127611,0.59127611 0 0 1 0.58724,0.591262"
         inkscape:tile-x0="4.2112036"
         inkscape:tile-y0="4.2112036" /><path
         style="fill:#000000;fill-opacity:1;stroke:none;stroke-width:0.7366;stroke-dasharray:none;paint-order:markers fill stroke"
         id="use15768-0"
         sodipodi:type="arc"
         sodipodi:cx="24.891655"
         sodipodi:cy="107.13366"
         sodipodi:rx="0.59127611"
         sodipodi:ry="0.59127611"
         sodipodi:start="0.027304543"
         sodipodi:end="6.2831853"
         sodipodi:open="true"
         sodipodi:arc-type="arc"
         d="m 25.482711,107.1498 a 0.59127611,0.59127611 0 0 1 -0.603164,0.57501 0.59127611,0.59127611 0 0 1 -0.579113,-0.59922 0.59127611,0.59127611 0 0 1 0.595257,-0.58319 0.59127611,0.59127611 0 0 1 0.58724,0.59126"
         inkscape:tile-x0="4.2112036"
         inkscape:tile-y0="4.2112036" /><path
         style="fill:#000000;fill-opacity:1;stroke:none;stroke-width:0.7366;stroke-dasharray:none;paint-order:markers fill stroke"
         id="use15769-1"
         sodipodi:type="arc"
         sodipodi:cx="24.891655"
         sodipodi:cy="148.05453"
         sodipodi:rx="0.59127611"
         sodipodi:ry="0.59127611"
         sodipodi:start="0.027304543"
         sodipodi:end="6.2831853"
         sodipodi:open="true"
         sodipodi:arc-type="arc"
         d="m 25.482711,148.07068 a 0.59127611,0.59127611 0 0 1 -0.603164,0.57501 0.59127611,0.59127611 0 0 1 -0.579113,-0.59923 0.59127611,0.59127611 0 0 1 0.595257,-0.58319 0.59127611,0.59127611 0 0 1 0.58724,0.59126"
         inkscape:tile-x0="4.2112036"
         inkscape:tile-y0="4.2112036" /><path
         style="fill:#000000;fill-opacity:1;stroke:none;stroke-width:0.7366;stroke-dasharray:none;paint-order:markers fill stroke"
         id="use15770-7"
         sodipodi:type="arc"
         sodipodi:cx="24.891655"
         sodipodi:cy="188.9754"
         sodipodi:rx="0.59127611"
         sodipodi:ry="0.59127611"
         sodipodi:start="0.027304543"
         sodipodi:end="6.2831853"
         sodipodi:open="true"
         sodipodi:arc-type="arc"
         d="m 25.482711,188.99155 a 0.59127611,0.59127611 0 0 1 -0.603164,0.575 0.59127611,0.59127611 0 0 1 -0.579113,-0.59922 0.59127611,0.59127611 0 0 1 0.595257,-0.58319 0.59127611,0.59127611 0 0 1 0.58724,0.59126"
         inkscape:tile-x0="4.2112036"
         inkscape:tile-y0="4.2112036" /><path
         style="fill:#000000;fill-opacity:1;stroke:none;stroke-width:0.381031;stroke-dasharray:none;paint-order:markers fill stroke"
         id="use15771-3"
         sodipodi:type="arc"
         sodipodi:cx="24.891655"
         sodipodi:cy="229.89629"
         sodipodi:rx="0.59127611"
         sodipodi:ry="0.59127611"
         sodipodi:start="0.027304543"
         sodipodi:end="6.2831853"
         sodipodi:open="true"
         sodipodi:arc-type="arc"
         d="m 25.482711,229.91243 a 0.59127611,0.59127611 0 0 1 -0.603164,0.57501 0.59127611,0.59127611 0 0 1 -0.579113,-0.59923 0.59127611,0.59127611 0 0 1 0.595257,-0.58319 0.59127611,0.59127611 0 0 1 0.58724,0.59127"
         inkscape:tile-x0="4.2112036"
         inkscape:tile-y0="4.2112036" /><path
         style="fill:#000000;fill-opacity:1;stroke:none;stroke-width:0.381031;stroke-dasharray:none;paint-order:markers fill stroke"
         id="use15772-8"
         sodipodi:type="arc"
         sodipodi:cx="24.891655"
         sodipodi:cy="270.81717"
         sodipodi:rx="0.59127611"
         sodipodi:ry="0.59127611"
         sodipodi:start="0.027304543"
         sodipodi:end="6.2831853"
         sodipodi:open="true"
         sodipodi:arc-type="arc"
         d="m 25.482711,270.83331 a 0.59127611,0.59127611 0 0 1 -0.603164,0.57501 0.59127611,0.59127611 0 0 1 -0.579113,-0.59922 0.59127611,0.59127611 0 0 1 0.595257,-0.58319 0.59127611,0.59127611 0 0 1 0.58724,0.59126"
         inkscape:tile-x0="4.2112036"
         inkscape:tile-y0="4.2112036" /><path
         style="fill:#000000;fill-opacity:1;stroke:none;stroke-width:0.7366;stroke-dasharray:none;paint-order:markers fill stroke"
         id="use15773-7"
         sodipodi:type="arc"
         sodipodi:cx="65.812531"
         sodipodi:cy="25.291916"
         sodipodi:rx="0.59127611"
         sodipodi:ry="0.59127611"
         sodipodi:start="0.027304543"
         sodipodi:end="6.2831853"
         sodipodi:open="true"
         sodipodi:arc-type="arc"
         d="m 66.403586,25.308058 a 0.59127611,0.59127611 0 0 1 -0.603163,0.57501 0.59127611,0.59127611 0 0 1 -0.579113,-0.599224 0.59127611,0.59127611 0 0 1 0.595257,-0.58319 0.59127611,0.59127611 0 0 1 0.58724,0.591262"
         inkscape:tile-x0="4.2112036"
         inkscape:tile-y0="4.2112036" /><path
         style="fill:#000000;fill-opacity:1;stroke:none;stroke-width:0.7366;stroke-dasharray:none;paint-order:markers fill stroke"
         id="use15774-4"
         sodipodi:type="arc"
         sodipodi:cx="65.812531"
         sodipodi:cy="66.212791"
         sodipodi:rx="0.59127611"
         sodipodi:ry="0.59127611"
         sodipodi:start="0.027304543"
         sodipodi:end="6.2831853"
         sodipodi:open="true"
         sodipodi:arc-type="arc"
         d="m 66.403586,66.228934 a 0.59127611,0.59127611 0 0 1 -0.603163,0.57501 0.59127611,0.59127611 0 0 1 -0.579113,-0.599225 0.59127611,0.59127611 0 0 1 0.595257,-0.58319 0.59127611,0.59127611 0 0 1 0.58724,0.591262"
         inkscape:tile-x0="4.2112036"
         inkscape:tile-y0="4.2112036" /><path
         style="fill:#000000;fill-opacity:1;stroke:none;stroke-width:0.7366;stroke-dasharray:none;paint-order:markers fill stroke"
         id="use15775-0"
         sodipodi:type="arc"
         sodipodi:cx="65.812531"
         sodipodi:cy="107.13366"
         sodipodi:rx="0.59127611"
         sodipodi:ry="0.59127611"
         sodipodi:start="0.027304543"
         sodipodi:end="6.2831853"
         sodipodi:open="true"
         sodipodi:arc-type="arc"
         d="m 66.403586,107.1498 a 0.59127611,0.59127611 0 0 1 -0.603163,0.57501 0.59127611,0.59127611 0 0 1 -0.579113,-0.59922 0.59127611,0.59127611 0 0 1 0.595257,-0.58319 0.59127611,0.59127611 0 0 1 0.58724,0.59126"
         inkscape:tile-x0="4.2112036"
         inkscape:tile-y0="4.2112036" /><path
         style="fill:#000000;fill-opacity:1;stroke:none;stroke-width:0.7366;stroke-dasharray:none;paint-order:markers fill stroke"
         id="use15776-5"
         sodipodi:type="arc"
         sodipodi:cx="65.812531"
         sodipodi:cy="148.05453"
         sodipodi:rx="0.59127611"
         sodipodi:ry="0.59127611"
         sodipodi:start="0.027304543"
         sodipodi:end="6.2831853"
         sodipodi:open="true"
         sodipodi:arc-type="arc"
         d="m 66.403586,148.07068 a 0.59127611,0.59127611 0 0 1 -0.603163,0.57501 0.59127611,0.59127611 0 0 1 -0.579113,-0.59923 0.59127611,0.59127611 0 0 1 0.595257,-0.58319 0.59127611,0.59127611 0 0 1 0.58724,0.59126"
         inkscape:tile-x0="4.2112036"
         inkscape:tile-y0="4.2112036" /><path
         style="fill:#000000;fill-opacity:1;stroke:none;stroke-width:0.7366;stroke-dasharray:none;paint-order:markers fill stroke"
         id="use15777-5"
         sodipodi:type="arc"
         sodipodi:cx="65.812531"
         sodipodi:cy="188.9754"
         sodipodi:rx="0.59127611"
         sodipodi:ry="0.59127611"
         sodipodi:start="0.027304543"
         sodipodi:end="6.2831853"
         sodipodi:open="true"
         sodipodi:arc-type="arc"
         d="m 66.403586,188.99155 a 0.59127611,0.59127611 0 0 1 -0.603163,0.575 0.59127611,0.59127611 0 0 1 -0.579113,-0.59922 0.59127611,0.59127611 0 0 1 0.595257,-0.58319 0.59127611,0.59127611 0 0 1 0.58724,0.59126"
         inkscape:tile-x0="4.2112036"
         inkscape:tile-y0="4.2112036" /><path
         style="fill:#000000;fill-opacity:1;stroke:none;stroke-width:0.381031;stroke-dasharray:none;paint-order:markers fill stroke"
         id="use15778-0"
         sodipodi:type="arc"
         sodipodi:cx="65.812531"
         sodipodi:cy="229.89629"
         sodipodi:rx="0.59127611"
         sodipodi:ry="0.59127611"
         sodipodi:start="0.027304543"
         sodipodi:end="6.2831853"
         sodipodi:open="true"
         sodipodi:arc-type="arc"
         d="m 66.403586,229.91243 a 0.59127611,0.59127611 0 0 1 -0.603163,0.57501 0.59127611,0.59127611 0 0 1 -0.579113,-0.59923 0.59127611,0.59127611 0 0 1 0.595257,-0.58319 0.59127611,0.59127611 0 0 1 0.58724,0.59127"
         inkscape:tile-x0="4.2112036"
         inkscape:tile-y0="4.2112036" /><path
         style="fill:#000000;fill-opacity:1;stroke:none;stroke-width:0.381031;stroke-dasharray:none;paint-order:markers fill stroke"
         id="use15779-0"
         sodipodi:type="arc"
         sodipodi:cx="65.812531"
         sodipodi:cy="270.81717"
         sodipodi:rx="0.59127611"
         sodipodi:ry="0.59127611"
         sodipodi:start="0.027304543"
         sodipodi:end="6.2831853"
         sodipodi:open="true"
         sodipodi:arc-type="arc"
         d="m 66.403586,270.83331 a 0.59127611,0.59127611 0 0 1 -0.603163,0.57501 0.59127611,0.59127611 0 0 1 -0.579113,-0.59922 0.59127611,0.59127611 0 0 1 0.595257,-0.58319 0.59127611,0.59127611 0 0 1 0.58724,0.59126"
         inkscape:tile-x0="4.2112036"
         inkscape:tile-y0="4.2112036" /><path
         style="fill:#000000;fill-opacity:1;stroke:none;stroke-width:0.7366;stroke-dasharray:none;paint-order:markers fill stroke"
         id="use15780-6"
         sodipodi:type="arc"
         sodipodi:cx="106.7334"
         sodipodi:cy="25.291916"
         sodipodi:rx="0.59127611"
         sodipodi:ry="0.59127611"
         sodipodi:start="0.027304543"
         sodipodi:end="6.2831853"
         sodipodi:open="true"
         sodipodi:arc-type="arc"
         d="m 107.32445,25.308058 a 0.59127611,0.59127611 0 0 1 -0.60316,0.57501 0.59127611,0.59127611 0 0 1 -0.57911,-0.599224 0.59127611,0.59127611 0 0 1 0.59525,-0.58319 0.59127611,0.59127611 0 0 1 0.58724,0.591262"
         inkscape:tile-x0="4.2112036"
         inkscape:tile-y0="4.2112036" /><path
         style="fill:#000000;fill-opacity:1;stroke:none;stroke-width:0.7366;stroke-dasharray:none;paint-order:markers fill stroke"
         id="use15781-1"
         sodipodi:type="arc"
         sodipodi:cx="106.7334"
         sodipodi:cy="66.212791"
         sodipodi:rx="0.59127611"
         sodipodi:ry="0.59127611"
         sodipodi:start="0.027304543"
         sodipodi:end="6.2831853"
         sodipodi:open="true"
         sodipodi:arc-type="arc"
         d="m 107.32445,66.228934 a 0.59127611,0.59127611 0 0 1 -0.60316,0.57501 0.59127611,0.59127611 0 0 1 -0.57911,-0.599225 0.59127611,0.59127611 0 0 1 0.59525,-0.58319 0.59127611,0.59127611 0 0 1 0.58724,0.591262"
         inkscape:tile-x0="4.2112036"
         inkscape:tile-y0="4.2112036" /><path
         style="fill:#000000;fill-opacity:1;stroke:none;stroke-width:0.7366;stroke-dasharray:none;paint-order:markers fill stroke"
         id="use15782-6"
         sodipodi:type="arc"
         sodipodi:cx="106.7334"
         sodipodi:cy="107.13366"
         sodipodi:rx="0.59127611"
         sodipodi:ry="0.59127611"
         sodipodi:start="0.027304543"
         sodipodi:end="6.2831853"
         sodipodi:open="true"
         sodipodi:arc-type="arc"
         d="m 107.32445,107.1498 a 0.59127611,0.59127611 0 0 1 -0.60316,0.57501 0.59127611,0.59127611 0 0 1 -0.57911,-0.59922 0.59127611,0.59127611 0 0 1 0.59525,-0.58319 0.59127611,0.59127611 0 0 1 0.58724,0.59126"
         inkscape:tile-x0="4.2112036"
         inkscape:tile-y0="4.2112036" /><path
         style="fill:#000000;fill-opacity:1;stroke:none;stroke-width:0.7366;stroke-dasharray:none;paint-order:markers fill stroke"
         id="use15783-9"
         sodipodi:type="arc"
         sodipodi:cx="106.7334"
         sodipodi:cy="148.05453"
         sodipodi:rx="0.59127611"
         sodipodi:ry="0.59127611"
         sodipodi:start="0.027304543"
         sodipodi:end="6.2831853"
         sodipodi:open="true"
         sodipodi:arc-type="arc"
         d="m 107.32445,148.07068 a 0.59127611,0.59127611 0 0 1 -0.60316,0.57501 0.59127611,0.59127611 0 0 1 -0.57911,-0.59923 0.59127611,0.59127611 0 0 1 0.59525,-0.58319 0.59127611,0.59127611 0 0 1 0.58724,0.59126"
         inkscape:tile-x0="4.2112036"
         inkscape:tile-y0="4.2112036" /><path
         style="fill:#000000;fill-opacity:1;stroke:none;stroke-width:0.7366;stroke-dasharray:none;paint-order:markers fill stroke"
         id="use15784-1"
         sodipodi:type="arc"
         sodipodi:cx="106.7334"
         sodipodi:cy="188.9754"
         sodipodi:rx="0.59127611"
         sodipodi:ry="0.59127611"
         sodipodi:start="0.027304543"
         sodipodi:end="6.2831853"
         sodipodi:open="true"
         sodipodi:arc-type="arc"
         d="m 107.32445,188.99155 a 0.59127611,0.59127611 0 0 1 -0.60316,0.575 0.59127611,0.59127611 0 0 1 -0.57911,-0.59922 0.59127611,0.59127611 0 0 1 0.59525,-0.58319 0.59127611,0.59127611 0 0 1 0.58724,0.59126"
         inkscape:tile-x0="4.2112036"
         inkscape:tile-y0="4.2112036" /><path
         style="fill:#000000;fill-opacity:1;stroke:none;stroke-width:0.381031;stroke-dasharray:none;paint-order:markers fill stroke"
         id="use15785-6"
         sodipodi:type="arc"
         sodipodi:cx="106.73339"
         sodipodi:cy="229.89629"
         sodipodi:rx="0.59127611"
         sodipodi:ry="0.59127611"
         sodipodi:start="0.027304543"
         sodipodi:end="6.2831853"
         sodipodi:open="true"
         sodipodi:arc-type="arc"
         d="m 107.32445,229.91243 a 0.59127611,0.59127611 0 0 1 -0.60317,0.57501 0.59127611,0.59127611 0 0 1 -0.57911,-0.59923 0.59127611,0.59127611 0 0 1 0.59526,-0.58319 0.59127611,0.59127611 0 0 1 0.58724,0.59127"
         inkscape:tile-x0="4.2112036"
         inkscape:tile-y0="4.2112036" /><path
         style="fill:#000000;fill-opacity:1;stroke:none;stroke-width:0.381031;stroke-dasharray:none;paint-order:markers fill stroke"
         id="use15786-6"
         sodipodi:type="arc"
         sodipodi:cx="106.73339"
         sodipodi:cy="270.81717"
         sodipodi:rx="0.59127611"
         sodipodi:ry="0.59127611"
         sodipodi:start="0.027304543"
         sodipodi:end="6.2831853"
         sodipodi:open="true"
         sodipodi:arc-type="arc"
         d="m 107.32445,270.83331 a 0.59127611,0.59127611 0 0 1 -0.60317,0.57501 0.59127611,0.59127611 0 0 1 -0.57911,-0.59922 0.59127611,0.59127611 0 0 1 0.59526,-0.58319 0.59127611,0.59127611 0 0 1 0.58724,0.59126"
         inkscape:tile-x0="4.2112036"
         inkscape:tile-y0="4.2112036" /><path
         style="fill:#000000;fill-opacity:1;stroke:none;stroke-width:0.7366;stroke-dasharray:none;paint-order:markers fill stroke"
         id="use15787-1"
         sodipodi:type="arc"
         sodipodi:cx="147.65428"
         sodipodi:cy="25.291916"
         sodipodi:rx="0.59127611"
         sodipodi:ry="0.59127611"
         sodipodi:start="0.027304543"
         sodipodi:end="6.2831853"
         sodipodi:open="true"
         sodipodi:arc-type="arc"
         d="m 148.24534,25.308058 a 0.59127611,0.59127611 0 0 1 -0.60317,0.57501 0.59127611,0.59127611 0 0 1 -0.57911,-0.599224 0.59127611,0.59127611 0 0 1 0.59526,-0.58319 0.59127611,0.59127611 0 0 1 0.58724,0.591262"
         inkscape:tile-x0="4.2112036"
         inkscape:tile-y0="4.2112036" /><path
         style="fill:#000000;fill-opacity:1;stroke:none;stroke-width:0.7366;stroke-dasharray:none;paint-order:markers fill stroke"
         id="use15788-1"
         sodipodi:type="arc"
         sodipodi:cx="147.65428"
         sodipodi:cy="66.212791"
         sodipodi:rx="0.59127611"
         sodipodi:ry="0.59127611"
         sodipodi:start="0.027304543"
         sodipodi:end="6.2831853"
         sodipodi:open="true"
         sodipodi:arc-type="arc"
         d="m 148.24534,66.228934 a 0.59127611,0.59127611 0 0 1 -0.60317,0.57501 0.59127611,0.59127611 0 0 1 -0.57911,-0.599225 0.59127611,0.59127611 0 0 1 0.59526,-0.58319 0.59127611,0.59127611 0 0 1 0.58724,0.591262"
         inkscape:tile-x0="4.2112036"
         inkscape:tile-y0="4.2112036" /><path
         style="fill:#000000;fill-opacity:1;stroke:none;stroke-width:0.7366;stroke-dasharray:none;paint-order:markers fill stroke"
         id="use15789-6"
         sodipodi:type="arc"
         sodipodi:cx="147.65428"
         sodipodi:cy="107.13366"
         sodipodi:rx="0.59127611"
         sodipodi:ry="0.59127611"
         sodipodi:start="0.027304543"
         sodipodi:end="6.2831853"
         sodipodi:open="true"
         sodipodi:arc-type="arc"
         d="m 148.24534,107.1498 a 0.59127611,0.59127611 0 0 1 -0.60317,0.57501 0.59127611,0.59127611 0 0 1 -0.57911,-0.59922 0.59127611,0.59127611 0 0 1 0.59526,-0.58319 0.59127611,0.59127611 0 0 1 0.58724,0.59126"
         inkscape:tile-x0="4.2112036"
         inkscape:tile-y0="4.2112036" /><path
         style="fill:#000000;fill-opacity:1;stroke:none;stroke-width:0.7366;stroke-dasharray:none;paint-order:markers fill stroke"
         id="use15790-7"
         sodipodi:type="arc"
         sodipodi:cx="147.65428"
         sodipodi:cy="148.05453"
         sodipodi:rx="0.59127611"
         sodipodi:ry="0.59127611"
         sodipodi:start="0.027304543"
         sodipodi:end="6.2831853"
         sodipodi:open="true"
         sodipodi:arc-type="arc"
         d="m 148.24534,148.07068 a 0.59127611,0.59127611 0 0 1 -0.60317,0.57501 0.59127611,0.59127611 0 0 1 -0.57911,-0.59923 0.59127611,0.59127611 0 0 1 0.59526,-0.58319 0.59127611,0.59127611 0 0 1 0.58724,0.59126"
         inkscape:tile-x0="4.2112036"
         inkscape:tile-y0="4.2112036" /><path
         style="fill:#000000;fill-opacity:1;stroke:none;stroke-width:0.7366;stroke-dasharray:none;paint-order:markers fill stroke"
         id="use15791-3"
         sodipodi:type="arc"
         sodipodi:cx="147.65428"
         sodipodi:cy="188.9754"
         sodipodi:rx="0.59127611"
         sodipodi:ry="0.59127611"
         sodipodi:start="0.027304543"
         sodipodi:end="6.2831853"
         sodipodi:open="true"
         sodipodi:arc-type="arc"
         d="m 148.24534,188.99155 a 0.59127611,0.59127611 0 0 1 -0.60317,0.575 0.59127611,0.59127611 0 0 1 -0.57911,-0.59922 0.59127611,0.59127611 0 0 1 0.59526,-0.58319 0.59127611,0.59127611 0 0 1 0.58724,0.59126"
         inkscape:tile-x0="4.2112036"
         inkscape:tile-y0="4.2112036" /><path
         style="fill:#000000;fill-opacity:1;stroke:none;stroke-width:0.381031;stroke-dasharray:none;paint-order:markers fill stroke"
         id="use15792-7"
         sodipodi:type="arc"
         sodipodi:cx="147.65428"
         sodipodi:cy="229.89629"
         sodipodi:rx="0.59127611"
         sodipodi:ry="0.59127611"
         sodipodi:start="0.027304543"
         sodipodi:end="6.2831853"
         sodipodi:open="true"
         sodipodi:arc-type="arc"
         d="m 148.24534,229.91243 a 0.59127611,0.59127611 0 0 1 -0.60317,0.57501 0.59127611,0.59127611 0 0 1 -0.57911,-0.59923 0.59127611,0.59127611 0 0 1 0.59526,-0.58319 0.59127611,0.59127611 0 0 1 0.58724,0.59127"
         inkscape:tile-x0="4.2112036"
         inkscape:tile-y0="4.2112036" /><path
         style="fill:#000000;fill-opacity:1;stroke:none;stroke-width:0.381031;stroke-dasharray:none;paint-order:markers fill stroke"
         id="use15793-7"
         sodipodi:type="arc"
         sodipodi:cx="147.65428"
         sodipodi:cy="270.81717"
         sodipodi:rx="0.59127611"
         sodipodi:ry="0.59127611"
         sodipodi:start="0.027304543"
         sodipodi:end="6.2831853"
         sodipodi:open="true"
         sodipodi:arc-type="arc"
         d="m 148.24534,270.83331 a 0.59127611,0.59127611 0 0 1 -0.60317,0.57501 0.59127611,0.59127611 0 0 1 -0.57911,-0.59922 0.59127611,0.59127611 0 0 1 0.59526,-0.58319 0.59127611,0.59127611 0 0 1 0.58724,0.59126"
         inkscape:tile-x0="4.2112036"
         inkscape:tile-y0="4.2112036" /><path
         style="fill:#000000;fill-opacity:1;stroke:none;stroke-width:0.381031;stroke-dasharray:none;paint-order:markers fill stroke"
         id="use15794-9"
         sodipodi:type="arc"
         sodipodi:cx="188.57515"
         sodipodi:cy="25.291916"
         sodipodi:rx="0.59127611"
         sodipodi:ry="0.59127611"
         sodipodi:start="0.027304543"
         sodipodi:end="6.2831853"
         sodipodi:open="true"
         sodipodi:arc-type="arc"
         d="m 189.16621,25.308058 a 0.59127611,0.59127611 0 0 1 -0.60317,0.57501 0.59127611,0.59127611 0 0 1 -0.57911,-0.599224 0.59127611,0.59127611 0 0 1 0.59526,-0.58319 0.59127611,0.59127611 0 0 1 0.58724,0.591262"
         inkscape:tile-x0="4.2112036"
         inkscape:tile-y0="4.2112036" /><path
         style="fill:#000000;fill-opacity:1;stroke:none;stroke-width:0.381031;stroke-dasharray:none;paint-order:markers fill stroke"
         id="use15795-0"
         sodipodi:type="arc"
         sodipodi:cx="188.57515"
         sodipodi:cy="66.212791"
         sodipodi:rx="0.59127611"
         sodipodi:ry="0.59127611"
         sodipodi:start="0.027304543"
         sodipodi:end="6.2831853"
         sodipodi:open="true"
         sodipodi:arc-type="arc"
         d="m 189.16621,66.228934 a 0.59127611,0.59127611 0 0 1 -0.60317,0.57501 0.59127611,0.59127611 0 0 1 -0.57911,-0.599225 0.59127611,0.59127611 0 0 1 0.59526,-0.58319 0.59127611,0.59127611 0 0 1 0.58724,0.591262"
         inkscape:tile-x0="4.2112036"
         inkscape:tile-y0="4.2112036" /><path
         style="fill:#000000;fill-opacity:1;stroke:none;stroke-width:0.381031;stroke-dasharray:none;paint-order:markers fill stroke"
         id="use15796-2"
         sodipodi:type="arc"
         sodipodi:cx="188.57515"
         sodipodi:cy="107.13365"
         sodipodi:rx="0.59127611"
         sodipodi:ry="0.59127611"
         sodipodi:start="0.027304543"
         sodipodi:end="6.2831853"
         sodipodi:open="true"
         sodipodi:arc-type="arc"
         d="m 189.16621,107.14979 a 0.59127611,0.59127611 0 0 1 -0.60317,0.57501 0.59127611,0.59127611 0 0 1 -0.57911,-0.59922 0.59127611,0.59127611 0 0 1 0.59526,-0.58319 0.59127611,0.59127611 0 0 1 0.58724,0.59126"
         inkscape:tile-x0="4.2112036"
         inkscape:tile-y0="4.2112036" /><path
         style="fill:#000000;fill-opacity:1;stroke:none;stroke-width:0.381031;stroke-dasharray:none;paint-order:markers fill stroke"
         id="use15797-7"
         sodipodi:type="arc"
         sodipodi:cx="188.57515"
         sodipodi:cy="148.05455"
         sodipodi:rx="0.59127611"
         sodipodi:ry="0.59127611"
         sodipodi:start="0.027304543"
         sodipodi:end="6.2831853"
         sodipodi:open="true"
         sodipodi:arc-type="arc"
         d="m 189.16621,148.07069 a 0.59127611,0.59127611 0 0 1 -0.60317,0.57501 0.59127611,0.59127611 0 0 1 -0.57911,-0.59922 0.59127611,0.59127611 0 0 1 0.59526,-0.58319 0.59127611,0.59127611 0 0 1 0.58724,0.59126"
         inkscape:tile-x0="4.2112036"
         inkscape:tile-y0="4.2112036" /><path
         style="fill:#000000;fill-opacity:1;stroke:none;stroke-width:0.381031;stroke-dasharray:none;paint-order:markers fill stroke"
         id="use15798-0"
         sodipodi:type="arc"
         sodipodi:cx="188.57515"
         sodipodi:cy="188.97542"
         sodipodi:rx="0.59127611"
         sodipodi:ry="0.59127611"
         sodipodi:start="0.027304543"
         sodipodi:end="6.2831853"
         sodipodi:open="true"
         sodipodi:arc-type="arc"
         d="m 189.16621,188.99156 a 0.59127611,0.59127611 0 0 1 -0.60317,0.57501 0.59127611,0.59127611 0 0 1 -0.57911,-0.59922 0.59127611,0.59127611 0 0 1 0.59526,-0.58319 0.59127611,0.59127611 0 0 1 0.58724,0.59126"
         inkscape:tile-x0="4.2112036"
         inkscape:tile-y0="4.2112036" /><path
         style="fill:#000000;fill-opacity:1;stroke:none;stroke-width:0.381031;stroke-dasharray:none;paint-order:markers fill stroke"
         id="use15799-8"
         sodipodi:type="arc"
         sodipodi:cx="188.57515"
         sodipodi:cy="229.89629"
         sodipodi:rx="0.59127611"
         sodipodi:ry="0.59127611"
         sodipodi:start="0.027304543"
         sodipodi:end="6.2831853"
         sodipodi:open="true"
         sodipodi:arc-type="arc"
         d="m 189.16621,229.91243 a 0.59127611,0.59127611 0 0 1 -0.60317,0.57501 0.59127611,0.59127611 0 0 1 -0.57911,-0.59923 0.59127611,0.59127611 0 0 1 0.59526,-0.58319 0.59127611,0.59127611 0 0 1 0.58724,0.59127"
         inkscape:tile-x0="4.2112036"
         inkscape:tile-y0="4.2112036" /><path
         style="fill:#000000;fill-opacity:1;stroke:none;stroke-width:0.52978;stroke-dasharray:none;paint-order:markers fill stroke"
         id="use15800-5"
         sodipodi:type="arc"
         sodipodi:cx="189.12691"
         sodipodi:cy="270.81717"
         sodipodi:rx="1.1430411"
         sodipodi:ry="0.59127611"
         sodipodi:start="0.027304543"
         sodipodi:end="6.2831853"
         sodipodi:open="true"
         sodipodi:arc-type="arc"
         d="m 190.26952,270.83331 a 1.1430411,0.59127611 0 0 1 -1.16602,0.57501 1.1430411,0.59127611 0 0 1 -1.11953,-0.59922 1.1430411,0.59127611 0 0 1 1.15074,-0.58319 1.1430411,0.59127611 0 0 1 1.13524,0.59126"
         inkscape:tile-x0="4.2112036"
         inkscape:tile-y0="4.2112036" /></g></g><text
     xml:space="preserve"
     style="font-style:normal;font-size:4.93889px;font-family:Sans;-inkscape-font-specification:'Sans, Normal';text-align:start;writing-mode:lr-tb;direction:ltr;text-anchor:start;fill:#000000;stroke-width:0.341;font-weight:normal;font-stretch:normal;font-variant:normal;font-variant-ligatures:normal;font-variant-caps:normal;font-variant-numeric:normal;font-variant-east-asian:normal;fill-opacity:1"
     x="1.8717467"
     y="5.7853832"
     id="text1"><tspan
       sodipodi:role="line"
       id="tspan3">Move:-1</tspan></text></svg>
