<?xml version="1.0" encoding="UTF-8" standalone="no"?>
<!-- Created with Inkscape (http://www.inkscape.org/) -->

<svg
   width="215.89999mm"
   height="279.39999mm"
   viewBox="0 0 215.89999 279.39999"
   version="1.1"
   id="svg1"
   inkscape:version="1.4 (86a8ad7, 2024-10-11)"
   sodipodi:docname="page-map-swamp.svg"
   xml:space="preserve"
   xmlns:inkscape="http://www.inkscape.org/namespaces/inkscape"
   xmlns:sodipodi="http://sodipodi.sourceforge.net/DTD/sodipodi-0.dtd"
   xmlns="http://www.w3.org/2000/svg"
   xmlns:svg="http://www.w3.org/2000/svg"><sodipodi:namedview
     id="namedview1"
     pagecolor="#ffffff"
     bordercolor="#000000"
     borderopacity="0.25"
     inkscape:showpageshadow="2"
     inkscape:pageopacity="0.0"
     inkscape:pagecheckerboard="0"
     inkscape:deskcolor="#d1d1d1"
     inkscape:document-units="mm"
     inkscape:zoom="0.54974872"
     inkscape:cx="231.01463"
     inkscape:cy="667.57772"
     inkscape:window-width="1350"
     inkscape:window-height="1040"
     inkscape:window-x="494"
     inkscape:window-y="0"
     inkscape:window-maximized="0"
     inkscape:current-layer="svg1" /><defs
     id="defs1"><linearGradient
       id="gradient_0"
       gradientUnits="userSpaceOnUse"
       x1="50.089081"
       y1="1359.5132"
       x2="17.752125"
       y2="1330.2487"><stop
         offset="0"
         stop-color="#D7BE5C"
         id="stop132" /><stop
         offset="1"
         stop-color="#FFF18C"
         id="stop133" /></linearGradient><linearGradient
       id="gradient_1"
       gradientUnits="userSpaceOnUse"
       x1="376.30267"
       y1="1323.552"
       x2="349.27353"
       y2="1438.2639"><stop
         offset="0"
         stop-color="#786D5F"
         id="stop173" /><stop
         offset="1"
         stop-color="#82825D"
         id="stop174" /></linearGradient><linearGradient
       id="gradient_2"
       gradientUnits="userSpaceOnUse"
       x1="891.43683"
       y1="1255.2534"
       x2="906.07812"
       y2="1281.5365"><stop
         offset="0"
         stop-color="#1E1E56"
         id="stop230" /><stop
         offset="1"
         stop-color="#383976"
         id="stop231" /></linearGradient><linearGradient
       id="gradient_3"
       gradientUnits="userSpaceOnUse"
       x1="615.57208"
       y1="1094.6171"
       x2="768.92432"
       y2="1255.5616"><stop
         offset="0"
         stop-color="#78515E"
         id="stop323" /><stop
         offset="1"
         stop-color="#9D646D"
         id="stop324" /></linearGradient><clipPath
       clipPathUnits="userSpaceOnUse"
       id="clipPath1"><rect
         style="opacity:0.5;fill:none;stroke:#000000;stroke-width:0.201932"
         id="rect2"
         width="127.45457"
         height="165.05974"
         x="12.336377"
         y="14.058764"
         rx="0.084342584"
         ry="0.085061103" /></clipPath><linearGradient
       id="gradient_0-0"
       gradientUnits="userSpaceOnUse"
       x1="503.21402"
       y1="677.80463"
       x2="552.0202"
       y2="213.76501"><stop
         offset="0"
         stop-color="#4B9FDC"
         id="stop1" /><stop
         offset="1"
         stop-color="white"
         id="stop2" /></linearGradient><linearGradient
       id="gradient_1-9"
       gradientUnits="userSpaceOnUse"
       x1="165.05301"
       y1="722.73291"
       x2="150.43193"
       y2="550.6424"><stop
         offset="0"
         stop-color="#3995DD"
         id="stop3" /><stop
         offset="1"
         stop-color="#AED6EB"
         id="stop4" /></linearGradient><linearGradient
       id="gradient_2-4"
       gradientUnits="userSpaceOnUse"
       x1="942.27893"
       y1="802.49219"
       x2="502.90118"
       y2="634.97992"><stop
         offset="0"
         stop-color="#02107F"
         id="stop8" /><stop
         offset="1"
         stop-color="#0546AC"
         id="stop9" /></linearGradient><linearGradient
       id="gradient_3-8"
       gradientUnits="userSpaceOnUse"
       x1="477.34607"
       y1="774.24536"
       x2="397.66089"
       y2="636.79718"><stop
         offset="0"
         stop-color="#0FADEB"
         id="stop10" /><stop
         offset="1"
         stop-color="#8AE2FB"
         id="stop11" /></linearGradient><linearGradient
       id="gradient_4"
       gradientUnits="userSpaceOnUse"
       x1="682.64001"
       y1="-1.4594618"
       x2="672.48669"
       y2="490.09128"><stop
         offset="0"
         stop-color="#0A2184"
         id="stop36" /><stop
         offset="1"
         stop-color="#1777C2"
         id="stop37" /></linearGradient><linearGradient
       id="gradient_5"
       gradientUnits="userSpaceOnUse"
       x1="1136.4078"
       y1="241.32904"
       x2="1068.3159"
       y2="248.67863"><stop
         offset="0"
         stop-color="#1861B1"
         id="stop41" /><stop
         offset="1"
         stop-color="#3279C3"
         id="stop42" /></linearGradient><linearGradient
       id="gradient_6"
       gradientUnits="userSpaceOnUse"
       x1="533.24371"
       y1="254.99231"
       x2="529.46173"
       y2="239.06938"><stop
         offset="0"
         stop-color="#D9EAF0"
         id="stop45" /><stop
         offset="1"
         stop-color="#FFF9F2"
         id="stop46" /></linearGradient><linearGradient
       id="gradient_7"
       gradientUnits="userSpaceOnUse"
       x1="932.43774"
       y1="300.6015"
       x2="881.97876"
       y2="170.10799"><stop
         offset="0"
         stop-color="#2E6CC2"
         id="stop51" /><stop
         offset="1"
         stop-color="#3BC7F7"
         id="stop52" /></linearGradient><linearGradient
       id="gradient_7-4"
       gradientUnits="userSpaceOnUse"
       x1="932.43774"
       y1="300.6015"
       x2="881.97876"
       y2="170.10799"
       gradientTransform="matrix(0.613919,0,0,0.614258,-104.79838,183.62876)"><stop
         offset="0"
         stop-color="#2E6CC2"
         id="stop51-5" /><stop
         offset="1"
         stop-color="#3BC7F7"
         id="stop52-5" /></linearGradient><linearGradient
       id="gradient_6-1"
       gradientUnits="userSpaceOnUse"
       x1="533.24371"
       y1="254.99231"
       x2="529.46173"
       y2="239.06938"
       gradientTransform="matrix(0.613919,0,0,0.614258,-104.79838,183.62876)"><stop
         offset="0"
         stop-color="#D9EAF0"
         id="stop45-7" /><stop
         offset="1"
         stop-color="#FFF9F2"
         id="stop46-1" /></linearGradient><clipPath
       clipPathUnits="userSpaceOnUse"
       id="clipPath2"><rect
         style="fill:none;fill-opacity:1;stroke-width:0.0202872;stroke-linecap:round;stroke-miterlimit:0"
         id="rect4"
         width="486.54404"
         height="629.64514"
         x="-401.68384"
         y="75.423431"
         transform="rotate(-90)" /></clipPath></defs><rect
     style="fill:#ffffff;fill-opacity:1;stroke-width:0.00900228;stroke-linecap:round;stroke-miterlimit:0"
     id="rect1"
     width="215.89999"
     height="279.39999"
     x="0"
     y="0"
     inkscape:label="background" /><g
     id="g1"
     transform="matrix(0,0.44374203,-0.44374203,0,178.244,-33.468557)"
     inkscape:label="sky"
     clip-path="url(#clipPath2)"><path
       fill="#2669b4"
       transform="matrix(0.613919,0,0,0.614258,0,-7.62939e-6)"
       d="m 0,259.713 c 0.122668,-0.146 0.247795,-0.291 0.368004,-0.44 7.817076,-9.674 8.023986,-18.072 22.456196,-19.73 7.7557,-0.89 15.2538,-0.125 22.8005,-2.764 4.7483,-1.661 9.4099,-5.835 14.223,-6.628 0.7319,-0.12 1.6312,0.53 2.2021,0.971 3.6881,2.846 6.7102,7.215 11.9796,6.982 6.0805,-0.27 14.7172,-3.827 20.2663,-3.336 4.7234,0.417 10.1813,3.046 15.9923,3.534 6.648,0.559 13.295,-1.043 19.769,-0.484 5.449,0.469 11.592,1.356 16.983,2.389 3.29,0.63 6.979,1.82 10.31,1.943 4.214,0.157 8.447,-1.44 12.65,-1.187 6.02,0.362 11.786,3.6 17.93,3.956 4.55,0.263 9.143,-0.029 13.702,0.166 10.466,0.447 21.176,1.623 31.651,1.431 3.483,-0.063 5.177,-2.278 9.044,-1.855 9.289,1.017 28.746,1.123 38.199,0.165 5.589,-0.566 11.505,-2.165 17.027,-2.324 4.206,-0.121 8.24,0.862 12.405,1.142 5.283,0.356 10.734,0.115 16.03,0.031 6.124,-0.098 13.165,-1.468 19.152,-0.862 5.032,0.509 6.957,3.478 11.363,-0.108 0.388,-0.31667 0.774,-0.63567 1.158,-0.957 5.996,0.626 11.92,2.756 17.805,3.255 9.256,0.785 18.76,-0.422 28.03,0.086 2.908,0.159 5.373,1.599 8.363,1.57 3.902,-0.039 28.873,-2.389 30.098,-2.088 1.166,0.286 2.241,0.834 2.98,1.801 0.573,0.75 0.501,1.04 0.619,1.933 l -1.405,0.511 -0.13,1.088 c 2.978,2.857 14.238,1.623 18.278,1.532 14.855,-0.335 29.659,-0.846 44.531,-0.727 13.31,0.105 26.65,0.83 39.951,0.795 14.225,-0.037 50.192,-1.972 61.976,0.977 l -1.884,0.344 0.981,-1.07 -0.368,1.348 c -1.407,0.399 -2.298,0.901 -3.718,0.473 -0.129,2.426 0.522,4.701 1.053,7.051 2.165,2.032 26.92,14.12 30.832,15.32 1.941,0.595 4.363,0.339 6.375,0.272 3.902,-0.131 7.829,-0.504 11.732,-0.413 0.974,-0.639 3.779,-2.964 4.736,-3.105 2.843,-0.42 6.721,1.355 9.672,1.395 2.939,0.04 2.906,-2.443 7.144,-1.602 4.153,0.824 7.099,3.354 11.569,3.529 14.399,0.564 67.918,5.017 77.641,1.63 1.591,0.534 2.865,1.558 4.514,1.973 5.975,1.506 13.757,0.857 19.974,0.991 1.124,-0.926 2.213,-1.776 3.097,-2.949 1.336,-0.456 1.674,-0.297 3.002,-0.052 1.755,0.324 2.579,-0.036 3.918,-1.163 2.06,-1.732 3.927,-4.139 5.714,-6.149 0.453,2.226 -0.356,2.434 1.244,4.459 3.13,1.559 5.534,0.71 8.706,-0.363 1.848,-0.624 3.913,-1.664 5.873,-1.474 1.438,1.1 2.746,2.1 4.406,2.839 4.221,-1.214 8.329,-2.836 12.579,-3.926 1.46,-2.677 1.518,-3.748 4.597,-4.66 5.815,-1.722 10.137,-3.39 15.799,-0.223 0.959,0.536 1.767,1.069 2.627,1.741 4.437,3.463 20.583,6.76 26.877,9.085 1.717,-0.69 3.388,-1.324 5.175,-1.811 l 2.34,2.085 c 2.773,-0.383 3.117,-2.822 5.433,-3.699 2.725,-1.032 40.56954,-6.38241 44.51754,-5.57841 2.657,0.541 223.79406,-11.51234 225.99106,-9.90734 1.084,0.793 12.5276,309.15972 -0.2212,417.91291 -36.3925,-1.08212 -472.6257,-4.46005 -413.64803,-4.12509 C 528.71962,671.08441 466.68656,669.26373 347.47536,669.13876 288.0163,668.06352 111.06915,668.79531 7.0300269,673.44642 14.705781,530.39105 -2.4984554,308.89713 0,259.713 Z"
       id="path14"
       sodipodi:nodetypes="ccccccccccccccccccscccccscccsccccccccccccccccsscccccccccccccccccccsscccccc" /><path
       fill="#67b2e2"
       transform="matrix(0.613919,0,0,0.614258,0,-7.62939e-6)"
       d="m 439.759,342.341 c 2.779,-1.669 5.242,-1.784 8.371,-0.982 4.758,1.22 9.586,5.473 11.929,9.774 0.788,1.448 1.453,2.972 2.08,4.496 12.205,-2.389 25.7,-4.329 36.731,3.042 4.239,2.833 6.526,6.097 8.715,10.627 7.909,-1.929 15.74,-3.843 23.942,-3.799 11.742,0.063 23.495,3.773 34.978,5.966 11.906,2.273 23.952,3.884 35.779,6.566 -21.789,1.762 -43.375,1.005 -65.183,0.516 -22.03333,-0.54267 -44.06933,-0.91967 -66.108,-1.131 -29.85067,-0.20133 -59.70133,-0.19833 -89.552,0.009 -11.459,-0.032 -23.075,0.308 -34.516,-0.189 l 0.526,-0.515 c 10.872,-18.916 32.323,-9.501 38.225,-13.575 0.926,-0.64 1.887,-1.764 2.723,-2.546 0.863,-1.066 1.761,-1.716 3.031,-2.266 6.59,-2.849 15.388,0.685 21.654,3.042 1.089,-2.107 2.322,-4.416 4.041,-6.074 5.083,-4.902 10.409,-2.794 16.505,-2.822 1.773,-1.175 1.88,-3.007 2.446,-5.011 0.625,-2.214 1.425,-3.154 3.13,-4.655 0.182,-0.16 0.369,-0.316 0.553,-0.473 z"
       id="path15"
       sodipodi:nodetypes="ccccccsccccccccccccccsc" /><path
       fill="#9adef7"
       transform="matrix(0.613919,0,0,0.614258,0,-7.62939e-6)"
       d="m 347.451,376.721 c 10.872,-18.916 32.323,-9.501 38.225,-13.575 0.926,-0.64 1.887,-1.764 2.723,-2.546 -0.836,1.539 -1.558,3.745 -3.391,4.255 -5.722,1.595 -14.097,-2.716 -18.585,1.512 -0.422,1.398 -0.619,2.585 -0.769,4.039 -0.219,2.119 -0.876,3.675 -1.778,5.594 5.506,0.004 11.956,-0.568 17.347,0.327 -11.144,0.978 -22.587,0.437 -33.772,0.394 z"
       id="path16" /><path
       fill="#f8f8f7"
       transform="matrix(0.613919,0,0,0.614258,0,-7.62939e-6)"
       d="m 342.74,342.297 c 4.279,-7.129 9.142,-12.997 16.18,-17.55 13.487,-8.724 30.434,-11.085 45.987,-7.524 15.382,3.522 26.549,11.915 34.852,25.118 -0.184,0.157 -0.371,0.313 -0.553,0.473 -1.705,1.501 -2.505,2.441 -3.13,4.655 -0.566,2.004 -0.673,3.836 -2.446,5.011 -6.096,0.028 -11.422,-2.08 -16.505,2.822 -1.719,1.658 -2.952,3.967 -4.041,6.074 -6.266,-2.357 -15.064,-5.891 -21.654,-3.042 -1.27,0.55 -2.168,1.2 -3.031,2.266 -0.836,0.782 -1.797,1.906 -2.723,2.546 -5.902,4.074 -27.353,-5.341 -38.225,13.575 l -0.526,0.515 c -49.541,-1.599 -99.381,-0.897 -148.963,-1.269 -14.418,-0.068 -28.83467,-0.24567 -43.25,-0.533 -6.156,-0.121 -12.741,0.329 -18.819,-0.435 6.575,-2.211 18.478,-1.052 25.803,-1.484 8.054,-0.51733 16.093,-1.208 24.117,-2.072 10.828,-1.059 21.677,-2.224 32.535,-2.919 10.907,-0.697 21.863,-0.931 32.733,-2.119 6.436,-0.703 12.503,-3.754 18.87,-4.968 9.767,-1.862 20.796,-0.873 30.757,-0.741 4.211,-8.368 8.849,-15.714 17.778,-19.601 8.51,-3.705 15.969,-2.089 24.254,1.202 z"
       id="path17"
       sodipodi:nodetypes="ccsccccsccccccccccccccccc" /><path
       fill="url(#gradient_4)"
       d="M 0.80560391,-188.77395 151.49861,-176.86929 c 0,0 394.55598,-2.11199 465.99997,1.70067 l 138.00348,-1.70067 615.13434,-18.70733 c 2.35,4.155 -4.8264,215.16752 -6.1064,219.85592 -0.11,0.3955 -0.26,0.7798 -0.39,1.166 2.06,5.1702 0.89,182.4017 0.89,202.0877 l -0.01,108.531 c -3.89,94.21499 0.6747,186.7505 -6.9644,320.31315 -118.5422,-3.31881 -88.1133,5.33123 -195.9114,-1.83975 -38.2942,0.18189 30.7166,39.2286 5.9564,4.76781 -2.3501,-3.27091 6.5306,-396.82538 3.8056,-395.79338 152.1367,-1.89576 -17.6324,40.78543 -107.2833,19.31077 -0.86,-0.672 -204.83556,-1.205 -205.79456,-1.741 -48.69745,2.06357 -130.99952,-2.45777 -171.94734,-5.0586 -4.46442,-0.28356 -7.416,-2.705 -11.569,-3.529 -4.238,-0.841 -4.205,1.642 -7.144,1.602 -2.951,-0.04 -6.829,-1.815 -9.672,-1.395 -0.957,0.141 -3.762,2.466 -4.736,3.105 -3.903,-0.091 -7.83,0.282 -11.732,0.413 -2.012,0.067 -4.434,0.323 -6.375,-0.272 -3.912,-1.2 -28.667,-13.288 -30.832,-15.32 -0.531,-2.35 -1.182,-4.625 -1.053,-7.051 1.42,0.428 2.311,-0.074 3.718,-0.473 l 0.368,-1.348 -0.981,1.07 1.884,-0.344 c -11.784,-2.949 -47.751,-1.014 -61.976,-0.977 -13.301,0.035 -26.641,-0.69 -39.951,-0.795 -14.872,-0.119 -29.676,0.392 -44.531,0.727 -4.04,0.091 -15.3,1.325 -18.278,-1.532 l 0.13,-1.088 1.405,-0.511 c -0.118,-0.893 -0.046,-1.183 -0.619,-1.933 -0.739,-0.967 -1.814,-1.515 -2.98,-1.801 -1.225,-0.301 -26.196,2.049 -30.098,2.088 -2.99,0.029 -5.455,-1.411 -8.363,-1.57 -9.27,-0.508 -18.774,0.699 -28.03,-0.086 -5.885,-0.499 -11.809,-2.629 -17.805,-3.255 -0.384,0.32133 -0.77,0.64033 -1.158,0.957 -4.406,3.586 -6.331,0.617 -11.363,0.108 -5.987,-0.606 -13.028,0.764 -19.152,0.862 -5.296,0.084 -10.747,0.325 -16.03,-0.031 -4.165,-0.28 -8.199,-1.263 -12.405,-1.142 -5.522,0.159 -11.438,1.758 -17.027,2.324 -9.453,0.958 -28.91,0.852 -38.199,-0.165 -3.867,-0.423 -5.561,1.792 -9.044,1.855 -10.475,0.192 -21.185,-0.984 -31.651,-1.431 -4.559,-0.195 -9.152,0.097 -13.702,-0.166 -6.144,-0.356 -11.91,-3.594 -17.93,-3.956 -4.203,-0.253 -8.436,1.344 -12.65,1.187 -3.331,-0.123 -7.02,-1.313 -10.31,-1.943 -5.391,-1.033 -11.534,-1.92 -16.983,-2.389 -6.474,-0.559 -13.121,1.043 -19.769,0.484 -5.811,-0.488 -11.2689,-3.117 -15.9923,-3.534 -5.5491,-0.491 -14.1858,3.066 -20.2663,3.336 -5.2694,0.233 -8.2915,-4.136 -11.9796,-6.982 -0.5709,-0.441 -1.4702,-1.091 -2.2021,-0.971 -4.8131,0.793 -9.4747,4.967 -14.223,6.628 -7.5467,2.639 -15.0448,1.874 -22.8005,2.764 C 8.39199,241.201 8.18508,249.599 0.368004,259.273 0.247795,259.422 0.122668,259.567 0,259.713 -0.31440328,110.21571 0.14759975,-39.27868 0.80560391,-188.77395 Z"
       id="path37"
       style="fill:url(#gradient_4)"
       sodipodi:nodetypes="cccccccccccssccsssccccccccccccscccscccscccccsccccccccccccccccscc"
       transform="matrix(0.613919,0,0,0.614258,0,-7.62939e-6)" /><path
       fill="#0b1a64"
       transform="matrix(0.613919,0,0,0.614258,0,-7.62939e-6)"
       d="m 378.264,2.06936 c 0.945,-0.02099 1.991,-0.05166 2.909,0.18927 1.682,0.4411 2.479,1.5216 3.268,2.96237 -1.072,0.18564 -2.178,0.25341 -3.26,0.36467 -1.787,-0.93004 -1.967,-1.7798 -2.917,-3.51631 z"
       id="path38" /><path
       fill="#0b1a64"
       transform="matrix(0.613919,0,0,0.614258,0,-7.62939e-6)"
       d="m 1154.15,0 h 36.06 c -4.91,3.18406 -26.72,-0.847914 -33.93,1.76154 -1.19,0.43003 -0.56,0.39178 -1.69,0.22921 z"
       id="path39" /><path
       fill="#0b1a64"
       transform="matrix(0.613919,0,0,0.614258,0,-7.62939e-6)"
       d="M 0,0 H 31.4345 C 28.1446,1.89919 21.9029,0.993505 18.0121,1.07631 l -0.132,1.46824 -0.3716,-0.56642 c -0.372,1.02708 -0.857,3.16368 -1.45,4.00341 C 14.8786,7.65233 9.97786,9.11247 8.12738,10.572 5.51713,12.6307 3.53169,15.5318 1.0496,17.774 L 0,16.6766 Z"
       id="path40" /><path
       fill="url(#gradient_5)"
       transform="matrix(0.613919,0,0,0.614258,0,-7.62939e-6)"
       d="m 1068.17,241.908 c 9.76,0.421 67.59,3.137 72.8,6.144 l -0.34,0.522 c -7.56,0.528 -15.26,0.303 -22.86,0.562 q -42.78,1.182 -85.57,0.715 c 10.57,-2.701 24.91,1.115 36.6,-1.604 0.16,-0.517 0.26,-0.778 0.26,-1.36 -0.03,-1.847 -1.02,-2.835 -2.22,-4.098 -0.15,-0.154 -0.3,-0.304 -0.45,-0.456 z"
       id="path42"
       style="fill:url(#gradient_5)" /><path
       fill="#0b1a64"
       transform="matrix(0.613919,0,0,0.614258,0,-7.62939e-6)"
       d="m 1318.79,0 h 45.04 c 2.35,4.155 1.98,19.5909 0.7,24.2793 -0.11,0.3955 -0.26,0.7798 -0.39,1.166 -4.59,-2.8711 -7.07,-8.1909 -10.59,-12.1565 -2.37,-2.6704 -5.18,-4.07247 -8.73,-4.30146 -4.67,-0.30183 -1.78,-1.52167 -4.44,-3.46532 -1.85,0.80869 -3.64,1.55735 -5.59,2.09967 -0.74,-0.68892 -1.55,-1.53151 -2.41,-2.05829 -1.98,-1.21255 -5.98,0.63976 -8.25,0.76678 -1.54,0.08639 -3.15,-0.26757 -4.17,-1.51393 C 1318.79,3.3845 1318.66,1.76047 1318.79,0 Z"
       id="path44" /><path
       fill="url(#gradient_6)"
       transform="matrix(0.613919,0,0,0.614258,0,-7.62939e-6)"
       d="m 458.588,249.73 c 15.877,-2.675 34.387,-2.462 50.763,-3.761 q 20.297,-1.615 40.574,-3.474 c 7.202,-0.689 16.939,-2.924 24.024,-1.877 3.461,2.03 8.92,1.571 12.825,1.607 -0.18,0.046 -0.36,0.095 -0.54,0.139 -5.648,1.384 -20.381,0.712 -24.146,4.588 l 0.121,0.474 c 4.271,0.151 8.434,-0.88 12.704,-0.876 6.841,0.008 13.195,2.04 19.895,2.919 3.306,0.433 6.957,0.01 10.11,1.035 -28.189,0.345 -56.429,-0.398 -84.62,-0.599 -20.561,-0.147 -41.159,0.423 -61.71,-0.175 z"
       id="path46"
       style="fill:url(#gradient_6)" /><path
       fill="#def3f6"
       transform="matrix(0.613919,0,0,0.614258,0,-7.62939e-6)"
       d="m 586.774,242.225 q 25.052,-0.306 50.103,0.112 c 14.065,0.224 28.275,0.823 42.328,0.244 7.183,-0.296 14.274,-2.1 21.441,-2.708 -5.573,4.756 -15.036,1.535 -21.426,4.941 -1.926,1.026 -3.797,3.046 -5.419,4.519 l 12.136,0.106 -2.375,0.017 0.738,0.256 c -7.324,0.203 -15.257,-0.19 -22.477,0.87 -18.925,0.426 -37.978,0.229 -56.905,-0.078 -3.153,-1.025 -6.804,-0.602 -10.11,-1.035 -6.7,-0.879 -13.054,-2.911 -19.895,-2.919 -4.27,-0.004 -8.433,1.027 -12.704,0.876 l -0.121,-0.474 c 3.765,-3.876 18.498,-3.204 24.146,-4.588 0.18,-0.044 0.36,-0.093 0.54,-0.139 z"
       id="path49" /><path
       fill="#f8f8f7"
       transform="matrix(0.613919,0,0,0.614258,0,-7.62939e-6)"
       d="m 780.453,203.426 c 2.428,-3.397 5.126,-6.229 8.351,-8.888 13.906,-11.465 31.747,-16.145 49.542,-14.503 8.633,4.563 16.967,10.887 19.902,20.664 1.488,4.956 1.03,9.976 -1.448,14.526 q -0.74,1.347 -1.549,2.653 c -13.176,-7.19 -24.87,-10.236 -39.756,-5.948 -10.415,2.999 -19.821,8.965 -28.629,15.142 -4.886,-0.665 -9.88,-1.591 -14.812,-1.698 -15.912,-1.411 -27.724,5.573 -41.078,12.926 -10.501,-0.641 -19.963,-0.666 -30.33,1.573 -7.167,0.608 -14.258,2.412 -21.441,2.708 -14.053,0.579 -28.263,-0.02 -42.328,-0.244 q -25.051,-0.418 -50.103,-0.112 c -3.905,-0.036 -9.364,0.423 -12.825,-1.607 1.003,-0.536 1.844,-1.25 2.739,-1.942 10.985,-8.498 20.275,-11.055 34.04,-9.302 7.525,-8.959 16.397,-18.631 28.765,-19.886 9.113,-0.925 15.394,3.842 22.044,9.311 7.263,-2.664 12.285,-3.872 19.931,-2.253 3.213,-8.248 8.29,-15.176 15.391,-20.508 13.813,-10.37 33.197,-15.859 50.367,-13.34 14.546,2.134 24.584,9.114 33.227,20.728 z"
       id="path51" /><path
       fill="url(#gradient_7)"
       transform="matrix(0.613919,0,0,0.614258,0,-7.62939e-6)"
       d="m 838.346,180.035 c 10.867,1.296 20.887,6.356 27.664,15.091 3.673,4.735 5.953,9.852 7.269,15.675 13.564,-0.24 25.967,2.593 36.041,12.291 1.869,1.8 3.504,3.751 5.086,5.804 25.875,-9.013 39.87,-1.787 62.865,9.332 8.773,-1.101 17.62,-1.922 26.469,-1.904 5.89,0.012 61.08,3.948 64.43,5.584 l -1.78,0.425 c 0.15,0.152 0.3,0.302 0.45,0.456 1.2,1.263 2.19,2.251 2.22,4.098 0,0.582 -0.1,0.843 -0.26,1.36 -11.69,2.719 -26.03,-1.097 -36.6,1.604 -15.67,1.102 -31.82,0.272 -47.558,0.208 l -83.983,0.026 q -70.377,0.875 -140.759,0.652 c -17.783,-0.072 -35.875,0.662 -53.621,-0.157 q -22.228,0.205 -44.456,0.002 c 7.22,-1.06 15.153,-0.667 22.477,-0.87 l -0.738,-0.256 2.375,-0.017 -12.136,-0.106 c 1.622,-1.473 3.493,-3.493 5.419,-4.519 6.39,-3.406 15.853,-0.185 21.426,-4.941 10.367,-2.239 19.829,-2.214 30.33,-1.573 13.354,-7.353 25.166,-14.337 41.078,-12.926 4.932,0.107 9.926,1.033 14.812,1.698 8.808,-6.177 18.214,-12.143 28.629,-15.142 14.886,-4.288 26.58,-1.242 39.756,5.948 q 0.809,-1.306 1.549,-2.653 c 2.478,-4.55 2.936,-9.57 1.448,-14.526 -2.935,-9.777 -11.269,-16.101 -19.902,-20.664 z"
       id="path52"
       style="fill:url(#gradient_7)" /><path
       fill="url(#gradient_6)"
       d="m 176.73751,337.02741 c 9.7472,-1.64314 21.11084,-1.5123 31.16437,-2.31022 q 12.46072,-0.99203 24.90915,-2.13394 c 4.42145,-0.42322 10.39918,-1.79609 14.74879,-1.15296 2.12478,1.24695 5.47616,0.965 7.87352,0.98711 -0.11051,0.0283 -0.22102,0.0584 -0.33152,0.0854 -3.46742,0.85013 -12.51228,0.43735 -14.82369,2.81821 l 0.0743,0.29116 c 2.62204,0.0928 5.17779,-0.54055 7.79922,-0.53809 4.19982,0.005 8.10066,1.25309 12.21392,1.79302 2.02962,0.26597 4.27104,0.006 6.20672,0.63576 -17.30576,0.21192 -34.64283,-0.24448 -51.94982,-0.36794 -12.62279,-0.0903 -25.2683,0.25983 -37.88495,-0.1075 z"
       id="path46-2"
       style="fill:url(#gradient_6-1);stroke-width:0.614088" /><path
       fill="#f8f8f7"
       d="m 374.33654,308.58481 c 1.4906,-2.08664 3.14695,-3.82622 5.12684,-5.45953 8.53716,-7.04247 19.49009,-9.91719 30.41478,-8.90858 5.29996,2.80286 10.41636,6.68743 12.21821,12.69303 0.91351,3.04426 0.63234,6.12783 -0.88895,8.92271 q -0.4543,0.8274 -0.95096,1.62962 c -8.089,-4.41651 -15.26817,-6.28754 -24.40697,-3.6536 -6.39396,1.84216 -12.16849,5.50682 -17.57588,9.30109 -2.99961,-0.40848 -6.06552,-0.97728 -9.09337,-1.04301 -9.76868,-0.86672 -17.02029,3.42326 -25.21857,7.9399 -6.44676,-0.39374 -12.25566,-0.40909 -18.62016,0.96623 -4.39996,0.37347 -8.75326,1.48159 -13.16304,1.66341 -8.6274,0.35566 -17.35119,-0.0123 -25.98596,-0.14988 q -15.37928,-0.25676 -30.75917,-0.0688 c -2.39736,-0.0221 -5.74874,0.25984 -7.87352,-0.98711 0.61576,-0.32924 1.13207,-0.76782 1.68153,-1.19289 6.7439,-5.21996 12.44721,-6.79062 20.8978,-5.71383 4.61974,-5.50313 10.06642,-11.44424 17.65937,-12.21513 5.59464,-0.56819 9.45067,2.35998 13.53323,5.71936 4.4589,-1.63639 7.542,-2.37841 12.23602,-1.38393 1.97252,-5.0664 5.08939,-9.32198 9.44883,-12.5972 8.48006,-6.36986 20.38027,-9.74152 30.92126,-8.1942 8.93006,1.31082 15.09258,5.59835 20.39868,12.73234 z"
       id="path51-7"
       style="stroke-width:0.614088" /><path
       fill="url(#gradient_7)"
       d="m 409.87816,294.2167 c 6.67145,0.79608 12.82292,3.90422 16.98345,9.26977 2.25493,2.90851 3.65466,6.05167 4.46258,9.62849 8.3272,-0.14742 15.94163,1.59277 22.12625,7.54985 1.14742,1.10566 2.15118,2.30408 3.1224,3.56515 15.88515,-5.53631 24.47695,-1.09768 38.59401,5.73225 5.38591,-0.67629 10.81726,-1.1806 16.24983,-1.16954 3.61598,0.007 37.49817,2.42509 39.5548,3.43001 l -1.09278,0.26106 c 0.0921,0.0934 0.18418,0.18551 0.27626,0.28011 0.73671,0.7758 1.34449,1.38269 1.3629,2.51722 0,0.3575 -0.0614,0.51782 -0.15961,0.8354 -7.17672,1.67016 -15.98032,-0.67385 -22.46944,0.98527 -9.62011,0.67691 -19.5349,0.16707 -29.19676,0.12776 l -51.55876,0.016 q -43.20578,0.53748 -86.41462,0.4005 c -10.91733,-0.0442 -22.02435,0.40664 -32.91895,-0.0964 q -13.6462,0.12592 -27.29239,10e-4 c 4.4325,-0.65112 9.30272,-0.40971 13.79906,-0.53441 l -0.45307,-0.15725 1.45806,-0.0104 -7.45053,-0.0651 c 0.99578,-0.9048 2.14442,-2.1456 3.32683,-2.77583 3.92294,-2.09216 9.73246,-0.11364 13.15383,-3.03505 6.3645,-1.37532 12.1734,-1.35997 18.62016,-0.96623 8.19828,-4.51664 15.44989,-8.80662 25.21857,-7.9399 3.02785,0.0657 6.09376,0.63453 9.09337,1.04301 5.40739,-3.79427 11.18192,-7.45893 17.57588,-9.30109 9.1388,-2.63394 16.31797,-0.76291 24.40697,3.6536 q 0.49666,-0.80222 0.95096,-1.62962 c 1.52129,-2.79488 1.80246,-5.87845 0.88895,-8.92271 -1.80185,-6.0056 -6.91825,-9.89017 -12.21821,-12.69303 z"
       id="path52-6"
       style="fill:url(#gradient_7-4);stroke-width:0.614088" /><path
       fill="#9adef7"
       transform="matrix(0.613919,0,0,0.614258,0,-7.62939e-6)"
       d="m 730.976,238.3 c 13.354,-7.353 25.166,-14.337 41.078,-12.926 l -0.685,0.155 c -4.37,0.968 -12.738,0.449 -15.188,4.279 -1.545,2.415 -2.865,7.957 -4.692,9.63 -3.892,3.563 -13.448,5.73 -18.472,6.872 -8.746,1.987 -17.882,2.554 -26.738,4.27 q -22.228,0.205 -44.456,0.002 c 7.22,-1.06 15.153,-0.667 22.477,-0.87 l -0.738,-0.256 2.375,-0.017 -12.136,-0.106 c 1.622,-1.473 3.493,-3.493 5.419,-4.519 6.39,-3.406 15.853,-0.185 21.426,-4.941 10.367,-2.239 19.829,-2.214 30.33,-1.573 z"
       id="path53" /><path
       fill="#67b2e2"
       d="m 229.19832,62.183454 c -1.20734,-0.725505 -2.2774,-0.775487 -3.6368,-0.426868 -2.06713,0.530322 -4.16466,2.37907 -5.18258,4.248687 -0.34235,0.629431 -0.63127,1.291903 -0.90366,1.954375 -5.3025,-1.038479 -11.16544,-1.881782 -15.95789,1.322333 -1.84164,1.231488 -2.83524,2.650326 -3.78625,4.619477 -3.43609,-0.838519 -6.83828,-1.670521 -10.40166,-1.651392 -5.10135,0.02739 -10.20747,1.640091 -15.19629,2.593373 -5.17259,0.988057 -10.40601,1.688347 -15.54428,2.854193 9.46629,0.765926 18.84439,0.436866 28.31893,0.224303 9.57243,-0.235895 19.14603,-0.399777 28.72079,-0.49164 12.9687,-0.08752 25.9374,-0.08622 38.9061,0.0042 4.97839,-0.01394 10.02499,0.133884 14.99557,-0.08216 l -0.22852,-0.223864 c -4.72337,-8.222641 -14.04281,-4.13001 -16.60695,-5.90095 -0.40231,-0.278207 -0.81982,-0.766797 -1.18302,-1.106727 -0.37493,-0.463382 -0.76507,-0.745934 -1.31682,-0.985014 -2.86305,-1.238438 -6.68536,0.297767 -9.40765,1.322333 -0.47311,-0.915896 -1.00879,-1.9196 -1.75561,-2.64032 -2.20833,-2.130861 -4.52223,-1.214534 -7.17065,-1.226705 -0.77028,-0.510762 -0.81676,-1.307118 -1.06267,-2.17824 -0.27153,-0.962411 -0.61909,-1.37102 -1.35984,-2.023493 -0.0791,-0.06956 -0.1603,-0.137366 -0.24025,-0.205614 z"
       id="path15-1"
       sodipodi:nodetypes="ccccccsccccccccccccccsc"
       style="stroke-width:0.434572" /><path
       fill="#f8f8f7"
       d="m 271.34848,62.164325 c -1.85902,-3.098919 -3.97177,-5.649698 -7.02944,-7.628848 -5.85946,-3.79226 -13.22213,-4.818567 -19.97917,-3.270629 -6.68275,1.53099 -11.53429,5.179359 -15.14155,10.918606 0.0799,0.06822 0.16119,0.136056 0.24025,0.205613 0.74075,0.652473 1.08831,1.061082 1.35984,2.023493 0.24591,0.871122 0.29239,1.667478 1.06267,2.17824 2.64842,0.01217 4.96232,-0.904156 7.17065,1.226705 0.74682,0.72072 1.2825,1.724424 1.75561,2.64032 2.72229,-1.024566 6.5446,-2.560771 9.40765,-1.322332 0.55175,0.239079 0.94189,0.521631 1.31682,0.985014 0.3632,0.33993 0.78071,0.82852 1.18302,1.106726 2.56414,1.77094 11.88358,-2.321691 16.60695,5.90095 l 0.22852,0.223865 c 21.52322,-0.695068 43.17633,-0.38992 64.71736,-0.551623 6.26395,-0.02958 12.5273,-0.106787 18.79008,-0.231691 2.67449,-0.05258 5.53536,0.143013 8.17596,-0.18909 -2.85652,-0.961109 -8.02781,-0.457297 -11.21018,-0.645084 -3.49907,-0.224877 -6.99164,-0.525106 -10.47769,-0.900682 -4.70425,-0.46034 -9.41763,-0.966756 -14.13492,-1.268868 -4.73857,-0.302982 -9.49843,-0.404703 -14.22093,-0.921111 -2.79614,-0.305594 -5.43197,-1.63184 -8.19812,-2.159557 -4.24331,-0.809399 -9.03488,-0.379489 -13.36247,-0.322104 -1.82947,-3.637506 -3.84447,-6.830758 -7.72369,-8.520407 -3.6972,-1.610539 -6.93778,-0.908077 -10.53722,0.522494 z"
       id="path17-8"
       sodipodi:nodetypes="ccsccccsccccccccccccccccc"
       style="stroke-width:0.434572" /></g><g
     id="g2"
     inkscape:label="dots"
     transform="matrix(1.6912573,0,0,1.6912573,-20.863988,-23.776988)"
     clip-path="url(#clipPath1)"
     sodipodi:insensitive="true"><g
       inkscape:label="Layer 1"
       inkscape:groupmode="layer"
       id="layer1"><path
         style="fill:#000000;fill-opacity:1;stroke:none;stroke-width:0.7366;stroke-dasharray:none;paint-order:markers fill stroke"
         id="use15766"
         sodipodi:type="arc"
         sodipodi:cx="4.8024797"
         sodipodi:cy="4.8024797"
         sodipodi:rx="0.59127611"
         sodipodi:ry="0.59127611"
         sodipodi:start="0.027304543"
         sodipodi:end="6.2831853"
         sodipodi:open="true"
         sodipodi:arc-type="arc"
         d="M 5.3935355,4.8186223 A 0.59127611,0.59127611 0 0 1 4.7903722,5.3936319 0.59127611,0.59127611 0 0 1 4.2112587,4.7944077 0.59127611,0.59127611 0 0 1 4.8065158,4.2112174 0.59127611,0.59127611 0 0 1 5.3937559,4.8024797"
         inkscape:tile-x0="4.2112036"
         inkscape:tile-y0="4.2112036" /><path
         style="fill:#000000;fill-opacity:1;stroke:none;stroke-width:0.7366;stroke-dasharray:none;paint-order:markers fill stroke"
         id="use15767"
         sodipodi:type="arc"
         sodipodi:cx="4.8024797"
         sodipodi:cy="45.723351"
         sodipodi:rx="0.59127611"
         sodipodi:ry="0.59127611"
         sodipodi:start="0.027304543"
         sodipodi:end="6.2831853"
         sodipodi:open="true"
         sodipodi:arc-type="arc"
         d="m 5.3935355,45.739493 a 0.59127611,0.59127611 0 0 1 -0.6031633,0.57501 0.59127611,0.59127611 0 0 1 -0.5791135,-0.599224 0.59127611,0.59127611 0 0 1 0.5952571,-0.583191 0.59127611,0.59127611 0 0 1 0.5872401,0.591263"
         inkscape:tile-x0="4.2112036"
         inkscape:tile-y0="4.2112036" /><path
         style="fill:#000000;fill-opacity:1;stroke:none;stroke-width:0.7366;stroke-dasharray:none;paint-order:markers fill stroke"
         id="use15768"
         sodipodi:type="arc"
         sodipodi:cx="4.8024797"
         sodipodi:cy="86.644226"
         sodipodi:rx="0.59127611"
         sodipodi:ry="0.59127611"
         sodipodi:start="0.027304543"
         sodipodi:end="6.2831853"
         sodipodi:open="true"
         sodipodi:arc-type="arc"
         d="m 5.3935355,86.660369 a 0.59127611,0.59127611 0 0 1 -0.6031633,0.575009 0.59127611,0.59127611 0 0 1 -0.5791135,-0.599224 0.59127611,0.59127611 0 0 1 0.5952571,-0.58319 0.59127611,0.59127611 0 0 1 0.5872401,0.591262"
         inkscape:tile-x0="4.2112036"
         inkscape:tile-y0="4.2112036" /><path
         style="fill:#000000;fill-opacity:1;stroke:none;stroke-width:0.7366;stroke-dasharray:none;paint-order:markers fill stroke"
         id="use15769"
         sodipodi:type="arc"
         sodipodi:cx="4.8024797"
         sodipodi:cy="127.5651"
         sodipodi:rx="0.59127611"
         sodipodi:ry="0.59127611"
         sodipodi:start="0.027304543"
         sodipodi:end="6.2831853"
         sodipodi:open="true"
         sodipodi:arc-type="arc"
         d="m 5.3935355,127.58124 a 0.59127611,0.59127611 0 0 1 -0.6031633,0.57501 0.59127611,0.59127611 0 0 1 -0.5791135,-0.59922 0.59127611,0.59127611 0 0 1 0.5952571,-0.58319 0.59127611,0.59127611 0 0 1 0.5872401,0.59126"
         inkscape:tile-x0="4.2112036"
         inkscape:tile-y0="4.2112036" /><path
         style="fill:#000000;fill-opacity:1;stroke:none;stroke-width:0.7366;stroke-dasharray:none;paint-order:markers fill stroke"
         id="use15770"
         sodipodi:type="arc"
         sodipodi:cx="4.8024797"
         sodipodi:cy="168.48598"
         sodipodi:rx="0.59127611"
         sodipodi:ry="0.59127611"
         sodipodi:start="0.027304543"
         sodipodi:end="6.2831853"
         sodipodi:open="true"
         sodipodi:arc-type="arc"
         d="m 5.3935355,168.50212 a 0.59127611,0.59127611 0 0 1 -0.6031633,0.57501 0.59127611,0.59127611 0 0 1 -0.5791135,-0.59922 0.59127611,0.59127611 0 0 1 0.5952571,-0.5832 0.59127611,0.59127611 0 0 1 0.5872401,0.59127"
         inkscape:tile-x0="4.2112036"
         inkscape:tile-y0="4.2112036" /><path
         style="fill:#000000;fill-opacity:1;stroke:none;stroke-width:0.381031;stroke-dasharray:none;paint-order:markers fill stroke"
         id="use15771"
         sodipodi:type="arc"
         sodipodi:cx="4.8024797"
         sodipodi:cy="209.40686"
         sodipodi:rx="0.59127611"
         sodipodi:ry="0.59127611"
         sodipodi:start="0.027304543"
         sodipodi:end="6.2831853"
         sodipodi:open="true"
         sodipodi:arc-type="arc"
         d="m 5.3935355,209.423 a 0.59127611,0.59127611 0 0 1 -0.6031633,0.57501 0.59127611,0.59127611 0 0 1 -0.5791135,-0.59922 0.59127611,0.59127611 0 0 1 0.5952571,-0.58319 0.59127611,0.59127611 0 0 1 0.5872401,0.59126"
         inkscape:tile-x0="4.2112036"
         inkscape:tile-y0="4.2112036" /><path
         style="fill:#000000;fill-opacity:1;stroke:none;stroke-width:0.381031;stroke-dasharray:none;paint-order:markers fill stroke"
         id="use15772"
         sodipodi:type="arc"
         sodipodi:cx="4.8024797"
         sodipodi:cy="250.32773"
         sodipodi:rx="0.59127611"
         sodipodi:ry="0.59127611"
         sodipodi:start="0.027304543"
         sodipodi:end="6.2831853"
         sodipodi:open="true"
         sodipodi:arc-type="arc"
         d="m 5.3935355,250.34387 a 0.59127611,0.59127611 0 0 1 -0.6031633,0.57501 0.59127611,0.59127611 0 0 1 -0.5791135,-0.59922 0.59127611,0.59127611 0 0 1 0.5952571,-0.58319 0.59127611,0.59127611 0 0 1 0.5872401,0.59126"
         inkscape:tile-x0="4.2112036"
         inkscape:tile-y0="4.2112036" /><path
         style="fill:#000000;fill-opacity:1;stroke:none;stroke-width:0.7366;stroke-dasharray:none;paint-order:markers fill stroke"
         id="use15773"
         sodipodi:type="arc"
         sodipodi:cx="45.723351"
         sodipodi:cy="4.8024797"
         sodipodi:rx="0.59127611"
         sodipodi:ry="0.59127611"
         sodipodi:start="0.027304543"
         sodipodi:end="6.2831853"
         sodipodi:open="true"
         sodipodi:arc-type="arc"
         d="M 46.314406,4.8186223 A 0.59127611,0.59127611 0 0 1 45.711243,5.3936319 0.59127611,0.59127611 0 0 1 45.13213,4.7944077 0.59127611,0.59127611 0 0 1 45.727387,4.2112174 0.59127611,0.59127611 0 0 1 46.314627,4.8024797"
         inkscape:tile-x0="4.2112036"
         inkscape:tile-y0="4.2112036" /><path
         style="fill:#000000;fill-opacity:1;stroke:none;stroke-width:0.7366;stroke-dasharray:none;paint-order:markers fill stroke"
         id="use15774"
         sodipodi:type="arc"
         sodipodi:cx="45.723351"
         sodipodi:cy="45.723351"
         sodipodi:rx="0.59127611"
         sodipodi:ry="0.59127611"
         sodipodi:start="0.027304543"
         sodipodi:end="6.2831853"
         sodipodi:open="true"
         sodipodi:arc-type="arc"
         d="m 46.314406,45.739493 a 0.59127611,0.59127611 0 0 1 -0.603163,0.57501 0.59127611,0.59127611 0 0 1 -0.579113,-0.599224 0.59127611,0.59127611 0 0 1 0.595257,-0.583191 0.59127611,0.59127611 0 0 1 0.58724,0.591263"
         inkscape:tile-x0="4.2112036"
         inkscape:tile-y0="4.2112036" /><path
         style="fill:#000000;fill-opacity:1;stroke:none;stroke-width:0.7366;stroke-dasharray:none;paint-order:markers fill stroke"
         id="use15775"
         sodipodi:type="arc"
         sodipodi:cx="45.723351"
         sodipodi:cy="86.644226"
         sodipodi:rx="0.59127611"
         sodipodi:ry="0.59127611"
         sodipodi:start="0.027304543"
         sodipodi:end="6.2831853"
         sodipodi:open="true"
         sodipodi:arc-type="arc"
         d="m 46.314406,86.660369 a 0.59127611,0.59127611 0 0 1 -0.603163,0.575009 0.59127611,0.59127611 0 0 1 -0.579113,-0.599224 0.59127611,0.59127611 0 0 1 0.595257,-0.58319 0.59127611,0.59127611 0 0 1 0.58724,0.591262"
         inkscape:tile-x0="4.2112036"
         inkscape:tile-y0="4.2112036" /><path
         style="fill:#000000;fill-opacity:1;stroke:none;stroke-width:0.7366;stroke-dasharray:none;paint-order:markers fill stroke"
         id="use15776"
         sodipodi:type="arc"
         sodipodi:cx="45.723351"
         sodipodi:cy="127.5651"
         sodipodi:rx="0.59127611"
         sodipodi:ry="0.59127611"
         sodipodi:start="0.027304543"
         sodipodi:end="6.2831853"
         sodipodi:open="true"
         sodipodi:arc-type="arc"
         d="m 46.314406,127.58124 a 0.59127611,0.59127611 0 0 1 -0.603163,0.57501 0.59127611,0.59127611 0 0 1 -0.579113,-0.59922 0.59127611,0.59127611 0 0 1 0.595257,-0.58319 0.59127611,0.59127611 0 0 1 0.58724,0.59126"
         inkscape:tile-x0="4.2112036"
         inkscape:tile-y0="4.2112036" /><path
         style="fill:#000000;fill-opacity:1;stroke:none;stroke-width:0.7366;stroke-dasharray:none;paint-order:markers fill stroke"
         id="use15777"
         sodipodi:type="arc"
         sodipodi:cx="45.723351"
         sodipodi:cy="168.48598"
         sodipodi:rx="0.59127611"
         sodipodi:ry="0.59127611"
         sodipodi:start="0.027304543"
         sodipodi:end="6.2831853"
         sodipodi:open="true"
         sodipodi:arc-type="arc"
         d="m 46.314406,168.50212 a 0.59127611,0.59127611 0 0 1 -0.603163,0.57501 0.59127611,0.59127611 0 0 1 -0.579113,-0.59922 0.59127611,0.59127611 0 0 1 0.595257,-0.5832 0.59127611,0.59127611 0 0 1 0.58724,0.59127"
         inkscape:tile-x0="4.2112036"
         inkscape:tile-y0="4.2112036" /><path
         style="fill:#000000;fill-opacity:1;stroke:none;stroke-width:0.381031;stroke-dasharray:none;paint-order:markers fill stroke"
         id="use15778"
         sodipodi:type="arc"
         sodipodi:cx="45.723351"
         sodipodi:cy="209.40686"
         sodipodi:rx="0.59127611"
         sodipodi:ry="0.59127611"
         sodipodi:start="0.027304543"
         sodipodi:end="6.2831853"
         sodipodi:open="true"
         sodipodi:arc-type="arc"
         d="m 46.314406,209.423 a 0.59127611,0.59127611 0 0 1 -0.603163,0.57501 0.59127611,0.59127611 0 0 1 -0.579113,-0.59922 0.59127611,0.59127611 0 0 1 0.595257,-0.58319 0.59127611,0.59127611 0 0 1 0.58724,0.59126"
         inkscape:tile-x0="4.2112036"
         inkscape:tile-y0="4.2112036" /><path
         style="fill:#000000;fill-opacity:1;stroke:none;stroke-width:0.381031;stroke-dasharray:none;paint-order:markers fill stroke"
         id="use15779"
         sodipodi:type="arc"
         sodipodi:cx="45.723351"
         sodipodi:cy="250.32773"
         sodipodi:rx="0.59127611"
         sodipodi:ry="0.59127611"
         sodipodi:start="0.027304543"
         sodipodi:end="6.2831853"
         sodipodi:open="true"
         sodipodi:arc-type="arc"
         d="m 46.314406,250.34387 a 0.59127611,0.59127611 0 0 1 -0.603163,0.57501 0.59127611,0.59127611 0 0 1 -0.579113,-0.59922 0.59127611,0.59127611 0 0 1 0.595257,-0.58319 0.59127611,0.59127611 0 0 1 0.58724,0.59126"
         inkscape:tile-x0="4.2112036"
         inkscape:tile-y0="4.2112036" /><path
         style="fill:#000000;fill-opacity:1;stroke:none;stroke-width:0.7366;stroke-dasharray:none;paint-order:markers fill stroke"
         id="use15780"
         sodipodi:type="arc"
         sodipodi:cx="87.52919"
         sodipodi:cy="5.687448"
         sodipodi:rx="0.59127611"
         sodipodi:ry="0.59127611"
         sodipodi:start="0.027304543"
         sodipodi:end="6.2831853"
         sodipodi:open="true"
         sodipodi:arc-type="arc"
         d="M 88.120246,5.7035905 A 0.59127611,0.59127611 0 0 1 87.517083,6.2786002 0.59127611,0.59127611 0 0 1 86.937969,5.679376 0.59127611,0.59127611 0 0 1 87.533226,5.0961857 0.59127611,0.59127611 0 0 1 88.120466,5.687448"
         inkscape:tile-x0="4.2112036"
         inkscape:tile-y0="4.2112036" /><path
         style="fill:#000000;fill-opacity:1;stroke:none;stroke-width:0.7366;stroke-dasharray:none;paint-order:markers fill stroke"
         id="use15781"
         sodipodi:type="arc"
         sodipodi:cx="86.644226"
         sodipodi:cy="45.723351"
         sodipodi:rx="0.59127611"
         sodipodi:ry="0.59127611"
         sodipodi:start="0.027304543"
         sodipodi:end="6.2831853"
         sodipodi:open="true"
         sodipodi:arc-type="arc"
         d="m 87.235282,45.739493 a 0.59127611,0.59127611 0 0 1 -0.603163,0.57501 0.59127611,0.59127611 0 0 1 -0.579114,-0.599224 0.59127611,0.59127611 0 0 1 0.595257,-0.583191 0.59127611,0.59127611 0 0 1 0.58724,0.591263"
         inkscape:tile-x0="4.2112036"
         inkscape:tile-y0="4.2112036" /><path
         style="fill:#000000;fill-opacity:1;stroke:none;stroke-width:0.7366;stroke-dasharray:none;paint-order:markers fill stroke"
         id="use15782"
         sodipodi:type="arc"
         sodipodi:cx="86.644226"
         sodipodi:cy="86.644226"
         sodipodi:rx="0.59127611"
         sodipodi:ry="0.59127611"
         sodipodi:start="0.027304543"
         sodipodi:end="6.2831853"
         sodipodi:open="true"
         sodipodi:arc-type="arc"
         d="m 87.235282,86.660369 a 0.59127611,0.59127611 0 0 1 -0.603163,0.575009 0.59127611,0.59127611 0 0 1 -0.579114,-0.599224 0.59127611,0.59127611 0 0 1 0.595257,-0.58319 0.59127611,0.59127611 0 0 1 0.58724,0.591262"
         inkscape:tile-x0="4.2112036"
         inkscape:tile-y0="4.2112036" /><path
         style="fill:#000000;fill-opacity:1;stroke:none;stroke-width:0.7366;stroke-dasharray:none;paint-order:markers fill stroke"
         id="use15783"
         sodipodi:type="arc"
         sodipodi:cx="86.644226"
         sodipodi:cy="127.5651"
         sodipodi:rx="0.59127611"
         sodipodi:ry="0.59127611"
         sodipodi:start="0.027304543"
         sodipodi:end="6.2831853"
         sodipodi:open="true"
         sodipodi:arc-type="arc"
         d="m 87.235282,127.58124 a 0.59127611,0.59127611 0 0 1 -0.603163,0.57501 0.59127611,0.59127611 0 0 1 -0.579114,-0.59922 0.59127611,0.59127611 0 0 1 0.595257,-0.58319 0.59127611,0.59127611 0 0 1 0.58724,0.59126"
         inkscape:tile-x0="4.2112036"
         inkscape:tile-y0="4.2112036" /><path
         style="fill:#000000;fill-opacity:1;stroke:none;stroke-width:0.7366;stroke-dasharray:none;paint-order:markers fill stroke"
         id="use15784"
         sodipodi:type="arc"
         sodipodi:cx="86.644226"
         sodipodi:cy="168.48598"
         sodipodi:rx="0.59127611"
         sodipodi:ry="0.59127611"
         sodipodi:start="0.027304543"
         sodipodi:end="6.2831853"
         sodipodi:open="true"
         sodipodi:arc-type="arc"
         d="m 87.235282,168.50212 a 0.59127611,0.59127611 0 0 1 -0.603163,0.57501 0.59127611,0.59127611 0 0 1 -0.579114,-0.59922 0.59127611,0.59127611 0 0 1 0.595257,-0.5832 0.59127611,0.59127611 0 0 1 0.58724,0.59127"
         inkscape:tile-x0="4.2112036"
         inkscape:tile-y0="4.2112036" /><path
         style="fill:#000000;fill-opacity:1;stroke:none;stroke-width:0.381031;stroke-dasharray:none;paint-order:markers fill stroke"
         id="use15785"
         sodipodi:type="arc"
         sodipodi:cx="86.644226"
         sodipodi:cy="209.40686"
         sodipodi:rx="0.59127611"
         sodipodi:ry="0.59127611"
         sodipodi:start="0.027304543"
         sodipodi:end="6.2831853"
         sodipodi:open="true"
         sodipodi:arc-type="arc"
         d="m 87.235282,209.423 a 0.59127611,0.59127611 0 0 1 -0.603163,0.57501 0.59127611,0.59127611 0 0 1 -0.579114,-0.59922 0.59127611,0.59127611 0 0 1 0.595257,-0.58319 0.59127611,0.59127611 0 0 1 0.58724,0.59126"
         inkscape:tile-x0="4.2112036"
         inkscape:tile-y0="4.2112036" /><path
         style="fill:#000000;fill-opacity:1;stroke:none;stroke-width:0.381031;stroke-dasharray:none;paint-order:markers fill stroke"
         id="use15786"
         sodipodi:type="arc"
         sodipodi:cx="86.644226"
         sodipodi:cy="250.32773"
         sodipodi:rx="0.59127611"
         sodipodi:ry="0.59127611"
         sodipodi:start="0.027304543"
         sodipodi:end="6.2831853"
         sodipodi:open="true"
         sodipodi:arc-type="arc"
         d="m 87.235282,250.34387 a 0.59127611,0.59127611 0 0 1 -0.603163,0.57501 0.59127611,0.59127611 0 0 1 -0.579114,-0.59922 0.59127611,0.59127611 0 0 1 0.595257,-0.58319 0.59127611,0.59127611 0 0 1 0.58724,0.59126"
         inkscape:tile-x0="4.2112036"
         inkscape:tile-y0="4.2112036" /><path
         style="fill:#000000;fill-opacity:1;stroke:none;stroke-width:0.7366;stroke-dasharray:none;paint-order:markers fill stroke"
         id="use15787"
         sodipodi:type="arc"
         sodipodi:cx="127.5651"
         sodipodi:cy="4.8024797"
         sodipodi:rx="0.59127611"
         sodipodi:ry="0.59127611"
         sodipodi:start="0.027304543"
         sodipodi:end="6.2831853"
         sodipodi:open="true"
         sodipodi:arc-type="arc"
         d="m 128.15616,4.8186223 a 0.59127611,0.59127611 0 0 1 -0.60317,0.5750096 0.59127611,0.59127611 0 0 1 -0.57911,-0.5992242 0.59127611,0.59127611 0 0 1 0.59526,-0.5831903 0.59127611,0.59127611 0 0 1 0.58724,0.5912623"
         inkscape:tile-x0="4.2112036"
         inkscape:tile-y0="4.2112036" /><path
         style="fill:#000000;fill-opacity:1;stroke:none;stroke-width:0.7366;stroke-dasharray:none;paint-order:markers fill stroke"
         id="use15788"
         sodipodi:type="arc"
         sodipodi:cx="127.5651"
         sodipodi:cy="45.723351"
         sodipodi:rx="0.59127611"
         sodipodi:ry="0.59127611"
         sodipodi:start="0.027304543"
         sodipodi:end="6.2831853"
         sodipodi:open="true"
         sodipodi:arc-type="arc"
         d="m 128.15616,45.739493 a 0.59127611,0.59127611 0 0 1 -0.60317,0.57501 0.59127611,0.59127611 0 0 1 -0.57911,-0.599224 0.59127611,0.59127611 0 0 1 0.59526,-0.583191 0.59127611,0.59127611 0 0 1 0.58724,0.591263"
         inkscape:tile-x0="4.2112036"
         inkscape:tile-y0="4.2112036" /><path
         style="fill:#000000;fill-opacity:1;stroke:none;stroke-width:0.7366;stroke-dasharray:none;paint-order:markers fill stroke"
         id="use15789"
         sodipodi:type="arc"
         sodipodi:cx="127.5651"
         sodipodi:cy="86.644226"
         sodipodi:rx="0.59127611"
         sodipodi:ry="0.59127611"
         sodipodi:start="0.027304543"
         sodipodi:end="6.2831853"
         sodipodi:open="true"
         sodipodi:arc-type="arc"
         d="m 128.15616,86.660369 a 0.59127611,0.59127611 0 0 1 -0.60317,0.575009 0.59127611,0.59127611 0 0 1 -0.57911,-0.599224 0.59127611,0.59127611 0 0 1 0.59526,-0.58319 0.59127611,0.59127611 0 0 1 0.58724,0.591262"
         inkscape:tile-x0="4.2112036"
         inkscape:tile-y0="4.2112036" /><path
         style="fill:#000000;fill-opacity:1;stroke:none;stroke-width:0.7366;stroke-dasharray:none;paint-order:markers fill stroke"
         id="use15790"
         sodipodi:type="arc"
         sodipodi:cx="127.5651"
         sodipodi:cy="127.5651"
         sodipodi:rx="0.59127611"
         sodipodi:ry="0.59127611"
         sodipodi:start="0.027304543"
         sodipodi:end="6.2831853"
         sodipodi:open="true"
         sodipodi:arc-type="arc"
         d="m 128.15616,127.58124 a 0.59127611,0.59127611 0 0 1 -0.60317,0.57501 0.59127611,0.59127611 0 0 1 -0.57911,-0.59922 0.59127611,0.59127611 0 0 1 0.59526,-0.58319 0.59127611,0.59127611 0 0 1 0.58724,0.59126"
         inkscape:tile-x0="4.2112036"
         inkscape:tile-y0="4.2112036" /><path
         style="fill:#000000;fill-opacity:1;stroke:none;stroke-width:0.7366;stroke-dasharray:none;paint-order:markers fill stroke"
         id="use15791"
         sodipodi:type="arc"
         sodipodi:cx="127.5651"
         sodipodi:cy="168.48598"
         sodipodi:rx="0.59127611"
         sodipodi:ry="0.59127611"
         sodipodi:start="0.027304543"
         sodipodi:end="6.2831853"
         sodipodi:open="true"
         sodipodi:arc-type="arc"
         d="m 128.15616,168.50212 a 0.59127611,0.59127611 0 0 1 -0.60317,0.57501 0.59127611,0.59127611 0 0 1 -0.57911,-0.59922 0.59127611,0.59127611 0 0 1 0.59526,-0.5832 0.59127611,0.59127611 0 0 1 0.58724,0.59127"
         inkscape:tile-x0="4.2112036"
         inkscape:tile-y0="4.2112036" /><path
         style="fill:#000000;fill-opacity:1;stroke:none;stroke-width:0.381031;stroke-dasharray:none;paint-order:markers fill stroke"
         id="use15792"
         sodipodi:type="arc"
         sodipodi:cx="127.5651"
         sodipodi:cy="209.40686"
         sodipodi:rx="0.59127611"
         sodipodi:ry="0.59127611"
         sodipodi:start="0.027304543"
         sodipodi:end="6.2831853"
         sodipodi:open="true"
         sodipodi:arc-type="arc"
         d="m 128.15616,209.423 a 0.59127611,0.59127611 0 0 1 -0.60317,0.57501 0.59127611,0.59127611 0 0 1 -0.57911,-0.59922 0.59127611,0.59127611 0 0 1 0.59526,-0.58319 0.59127611,0.59127611 0 0 1 0.58724,0.59126"
         inkscape:tile-x0="4.2112036"
         inkscape:tile-y0="4.2112036" /><path
         style="fill:#000000;fill-opacity:1;stroke:none;stroke-width:0.381031;stroke-dasharray:none;paint-order:markers fill stroke"
         id="use15793"
         sodipodi:type="arc"
         sodipodi:cx="127.5651"
         sodipodi:cy="250.32773"
         sodipodi:rx="0.59127611"
         sodipodi:ry="0.59127611"
         sodipodi:start="0.027304543"
         sodipodi:end="6.2831853"
         sodipodi:open="true"
         sodipodi:arc-type="arc"
         d="m 128.15616,250.34387 a 0.59127611,0.59127611 0 0 1 -0.60317,0.57501 0.59127611,0.59127611 0 0 1 -0.57911,-0.59922 0.59127611,0.59127611 0 0 1 0.59526,-0.58319 0.59127611,0.59127611 0 0 1 0.58724,0.59126"
         inkscape:tile-x0="4.2112036"
         inkscape:tile-y0="4.2112036" /><path
         style="fill:#000000;fill-opacity:1;stroke:none;stroke-width:0.7366;stroke-dasharray:none;paint-order:markers fill stroke"
         id="use15794"
         sodipodi:type="arc"
         sodipodi:cx="168.48598"
         sodipodi:cy="4.8024797"
         sodipodi:rx="0.59127611"
         sodipodi:ry="0.59127611"
         sodipodi:start="0.027304543"
         sodipodi:end="6.2831853"
         sodipodi:open="true"
         sodipodi:arc-type="arc"
         d="m 169.07703,4.8186223 a 0.59127611,0.59127611 0 0 1 -0.60316,0.5750096 0.59127611,0.59127611 0 0 1 -0.57911,-0.5992242 0.59127611,0.59127611 0 0 1 0.59525,-0.5831903 0.59127611,0.59127611 0 0 1 0.58724,0.5912623"
         inkscape:tile-x0="4.2112036"
         inkscape:tile-y0="4.2112036" /><path
         style="fill:#000000;fill-opacity:1;stroke:none;stroke-width:0.381031;stroke-dasharray:none;paint-order:markers fill stroke"
         id="use15795"
         sodipodi:type="arc"
         sodipodi:cx="168.48598"
         sodipodi:cy="45.723351"
         sodipodi:rx="0.59127611"
         sodipodi:ry="0.59127611"
         sodipodi:start="0.027304543"
         sodipodi:end="6.2831853"
         sodipodi:open="true"
         sodipodi:arc-type="arc"
         d="m 169.07703,45.739493 a 0.59127611,0.59127611 0 0 1 -0.60316,0.57501 0.59127611,0.59127611 0 0 1 -0.57911,-0.599224 0.59127611,0.59127611 0 0 1 0.59525,-0.583191 0.59127611,0.59127611 0 0 1 0.58724,0.591263"
         inkscape:tile-x0="4.2112036"
         inkscape:tile-y0="4.2112036" /><path
         style="fill:#000000;fill-opacity:1;stroke:none;stroke-width:0.381031;stroke-dasharray:none;paint-order:markers fill stroke"
         id="use15796"
         sodipodi:type="arc"
         sodipodi:cx="168.48598"
         sodipodi:cy="86.644226"
         sodipodi:rx="0.59127611"
         sodipodi:ry="0.59127611"
         sodipodi:start="0.027304543"
         sodipodi:end="6.2831853"
         sodipodi:open="true"
         sodipodi:arc-type="arc"
         d="m 169.07703,86.660369 a 0.59127611,0.59127611 0 0 1 -0.60316,0.575009 0.59127611,0.59127611 0 0 1 -0.57911,-0.599224 0.59127611,0.59127611 0 0 1 0.59525,-0.58319 0.59127611,0.59127611 0 0 1 0.58724,0.591262"
         inkscape:tile-x0="4.2112036"
         inkscape:tile-y0="4.2112036" /><path
         style="fill:#000000;fill-opacity:1;stroke:none;stroke-width:0.381031;stroke-dasharray:none;paint-order:markers fill stroke"
         id="use15797"
         sodipodi:type="arc"
         sodipodi:cx="168.48598"
         sodipodi:cy="127.5651"
         sodipodi:rx="0.59127611"
         sodipodi:ry="0.59127611"
         sodipodi:start="0.027304543"
         sodipodi:end="6.2831853"
         sodipodi:open="true"
         sodipodi:arc-type="arc"
         d="m 169.07703,127.58124 a 0.59127611,0.59127611 0 0 1 -0.60316,0.57501 0.59127611,0.59127611 0 0 1 -0.57911,-0.59922 0.59127611,0.59127611 0 0 1 0.59525,-0.58319 0.59127611,0.59127611 0 0 1 0.58724,0.59126"
         inkscape:tile-x0="4.2112036"
         inkscape:tile-y0="4.2112036" /><path
         style="fill:#000000;fill-opacity:1;stroke:none;stroke-width:0.381031;stroke-dasharray:none;paint-order:markers fill stroke"
         id="use15798"
         sodipodi:type="arc"
         sodipodi:cx="168.48598"
         sodipodi:cy="168.48598"
         sodipodi:rx="0.59127611"
         sodipodi:ry="0.59127611"
         sodipodi:start="0.027304543"
         sodipodi:end="6.2831853"
         sodipodi:open="true"
         sodipodi:arc-type="arc"
         d="m 169.07703,168.50212 a 0.59127611,0.59127611 0 0 1 -0.60316,0.57501 0.59127611,0.59127611 0 0 1 -0.57911,-0.59922 0.59127611,0.59127611 0 0 1 0.59525,-0.5832 0.59127611,0.59127611 0 0 1 0.58724,0.59127"
         inkscape:tile-x0="4.2112036"
         inkscape:tile-y0="4.2112036" /><path
         style="fill:#000000;fill-opacity:1;stroke:none;stroke-width:0.381031;stroke-dasharray:none;paint-order:markers fill stroke"
         id="use15799"
         sodipodi:type="arc"
         sodipodi:cx="168.48598"
         sodipodi:cy="209.40686"
         sodipodi:rx="0.59127611"
         sodipodi:ry="0.59127611"
         sodipodi:start="0.027304543"
         sodipodi:end="6.2831853"
         sodipodi:open="true"
         sodipodi:arc-type="arc"
         d="m 169.07703,209.423 a 0.59127611,0.59127611 0 0 1 -0.60316,0.57501 0.59127611,0.59127611 0 0 1 -0.57911,-0.59922 0.59127611,0.59127611 0 0 1 0.59525,-0.58319 0.59127611,0.59127611 0 0 1 0.58724,0.59126"
         inkscape:tile-x0="4.2112036"
         inkscape:tile-y0="4.2112036" /><path
         style="fill:#000000;fill-opacity:1;stroke:none;stroke-width:0.381031;stroke-dasharray:none;paint-order:markers fill stroke"
         id="use15800"
         sodipodi:type="arc"
         sodipodi:cx="168.48598"
         sodipodi:cy="250.32773"
         sodipodi:rx="0.59127611"
         sodipodi:ry="0.59127611"
         sodipodi:start="0.027304543"
         sodipodi:end="6.2831853"
         sodipodi:open="true"
         sodipodi:arc-type="arc"
         d="m 169.07703,250.34387 a 0.59127611,0.59127611 0 0 1 -0.60316,0.57501 0.59127611,0.59127611 0 0 1 -0.57911,-0.59922 0.59127611,0.59127611 0 0 1 0.59525,-0.58319 0.59127611,0.59127611 0 0 1 0.58724,0.59126"
         inkscape:tile-x0="4.2112036"
         inkscape:tile-y0="4.2112036" /><path
         style="fill:#000000;fill-opacity:1;stroke:none;stroke-width:0.7366;stroke-dasharray:none;paint-order:markers fill stroke"
         id="use15801"
         sodipodi:type="arc"
         sodipodi:cx="209.40685"
         sodipodi:cy="4.8024797"
         sodipodi:rx="0.59127611"
         sodipodi:ry="0.59127611"
         sodipodi:start="0.027304543"
         sodipodi:end="6.2831853"
         sodipodi:open="true"
         sodipodi:arc-type="arc"
         d="m 209.9979,4.8186223 a 0.59127611,0.59127611 0 0 1 -0.60316,0.5750096 0.59127611,0.59127611 0 0 1 -0.57912,-0.5992242 0.59127611,0.59127611 0 0 1 0.59526,-0.5831903 0.59127611,0.59127611 0 0 1 0.58724,0.5912623"
         inkscape:tile-x0="4.2112036"
         inkscape:tile-y0="4.2112036" /><path
         style="fill:#000000;fill-opacity:1;stroke:none;stroke-width:0.381031;stroke-dasharray:none;paint-order:markers fill stroke"
         id="use15802"
         sodipodi:type="arc"
         sodipodi:cx="209.40686"
         sodipodi:cy="45.723351"
         sodipodi:rx="0.59127611"
         sodipodi:ry="0.59127611"
         sodipodi:start="0.027304543"
         sodipodi:end="6.2831853"
         sodipodi:open="true"
         sodipodi:arc-type="arc"
         d="m 209.99792,45.739493 a 0.59127611,0.59127611 0 0 1 -0.60317,0.57501 0.59127611,0.59127611 0 0 1 -0.57911,-0.599224 0.59127611,0.59127611 0 0 1 0.59526,-0.583191 0.59127611,0.59127611 0 0 1 0.58724,0.591263"
         inkscape:tile-x0="4.2112036"
         inkscape:tile-y0="4.2112036" /><path
         style="fill:#000000;fill-opacity:1;stroke:none;stroke-width:0.381031;stroke-dasharray:none;paint-order:markers fill stroke"
         id="use15803"
         sodipodi:type="arc"
         sodipodi:cx="209.40686"
         sodipodi:cy="86.644226"
         sodipodi:rx="0.59127611"
         sodipodi:ry="0.59127611"
         sodipodi:start="0.027304543"
         sodipodi:end="6.2831853"
         sodipodi:open="true"
         sodipodi:arc-type="arc"
         d="m 209.99792,86.660369 a 0.59127611,0.59127611 0 0 1 -0.60317,0.575009 0.59127611,0.59127611 0 0 1 -0.57911,-0.599224 0.59127611,0.59127611 0 0 1 0.59526,-0.58319 0.59127611,0.59127611 0 0 1 0.58724,0.591262"
         inkscape:tile-x0="4.2112036"
         inkscape:tile-y0="4.2112036" /><path
         style="fill:#000000;fill-opacity:1;stroke:none;stroke-width:0.381031;stroke-dasharray:none;paint-order:markers fill stroke"
         id="use15804"
         sodipodi:type="arc"
         sodipodi:cx="209.40686"
         sodipodi:cy="127.5651"
         sodipodi:rx="0.59127611"
         sodipodi:ry="0.59127611"
         sodipodi:start="0.027304543"
         sodipodi:end="6.2831853"
         sodipodi:open="true"
         sodipodi:arc-type="arc"
         d="m 209.99792,127.58124 a 0.59127611,0.59127611 0 0 1 -0.60317,0.57501 0.59127611,0.59127611 0 0 1 -0.57911,-0.59922 0.59127611,0.59127611 0 0 1 0.59526,-0.58319 0.59127611,0.59127611 0 0 1 0.58724,0.59126"
         inkscape:tile-x0="4.2112036"
         inkscape:tile-y0="4.2112036" /><path
         style="fill:#000000;fill-opacity:1;stroke:none;stroke-width:0.381031;stroke-dasharray:none;paint-order:markers fill stroke"
         id="use15805"
         sodipodi:type="arc"
         sodipodi:cx="209.40686"
         sodipodi:cy="168.48598"
         sodipodi:rx="0.59127611"
         sodipodi:ry="0.59127611"
         sodipodi:start="0.027304543"
         sodipodi:end="6.2831853"
         sodipodi:open="true"
         sodipodi:arc-type="arc"
         d="m 209.99792,168.50212 a 0.59127611,0.59127611 0 0 1 -0.60317,0.57501 0.59127611,0.59127611 0 0 1 -0.57911,-0.59922 0.59127611,0.59127611 0 0 1 0.59526,-0.5832 0.59127611,0.59127611 0 0 1 0.58724,0.59127"
         inkscape:tile-x0="4.2112036"
         inkscape:tile-y0="4.2112036" /><path
         style="fill:#000000;fill-opacity:1;stroke:none;stroke-width:0.381031;stroke-dasharray:none;paint-order:markers fill stroke"
         id="use15806"
         sodipodi:type="arc"
         sodipodi:cx="209.40686"
         sodipodi:cy="209.40686"
         sodipodi:rx="0.59127611"
         sodipodi:ry="0.59127611"
         sodipodi:start="0.027304543"
         sodipodi:end="6.2831853"
         sodipodi:open="true"
         sodipodi:arc-type="arc"
         d="m 209.99792,209.423 a 0.59127611,0.59127611 0 0 1 -0.60317,0.57501 0.59127611,0.59127611 0 0 1 -0.57911,-0.59922 0.59127611,0.59127611 0 0 1 0.59526,-0.58319 0.59127611,0.59127611 0 0 1 0.58724,0.59126"
         inkscape:tile-x0="4.2112036"
         inkscape:tile-y0="4.2112036" /><path
         style="fill:#000000;fill-opacity:1;stroke:none;stroke-width:0.381031;stroke-dasharray:none;paint-order:markers fill stroke"
         id="use15807"
         sodipodi:type="arc"
         sodipodi:cx="209.40686"
         sodipodi:cy="250.32773"
         sodipodi:rx="0.59127611"
         sodipodi:ry="0.59127611"
         sodipodi:start="0.027304543"
         sodipodi:end="6.2831853"
         sodipodi:open="true"
         sodipodi:arc-type="arc"
         d="m 209.99792,250.34387 a 0.59127611,0.59127611 0 0 1 -0.60317,0.57501 0.59127611,0.59127611 0 0 1 -0.57911,-0.59922 0.59127611,0.59127611 0 0 1 0.59526,-0.58319 0.59127611,0.59127611 0 0 1 0.58724,0.59126"
         inkscape:tile-x0="4.2112036"
         inkscape:tile-y0="4.2112036" /></g><g
       inkscape:groupmode="layer"
       id="layer2"
       inkscape:label="Layer 2"><path
         style="fill:#000000;fill-opacity:1;stroke:none;stroke-width:0.7366;stroke-dasharray:none;paint-order:markers fill stroke"
         id="use15766-7"
         sodipodi:type="arc"
         sodipodi:cx="24.891655"
         sodipodi:cy="25.291885"
         sodipodi:rx="0.59127611"
         sodipodi:ry="0.59127611"
         sodipodi:start="0.027304543"
         sodipodi:end="6.2831853"
         sodipodi:open="true"
         sodipodi:arc-type="arc"
         d="m 25.482711,25.308028 a 0.59127611,0.59127611 0 0 1 -0.603164,0.57501 0.59127611,0.59127611 0 0 1 -0.579113,-0.599225 0.59127611,0.59127611 0 0 1 0.595257,-0.58319 0.59127611,0.59127611 0 0 1 0.58724,0.591262"
         inkscape:tile-x0="4.2112036"
         inkscape:tile-y0="4.2112036"
         sodipodi:insensitive="true" /><path
         style="fill:#000000;fill-opacity:1;stroke:none;stroke-width:0.7366;stroke-dasharray:none;paint-order:markers fill stroke"
         id="use15767-6"
         sodipodi:type="arc"
         sodipodi:cx="24.891655"
         sodipodi:cy="66.212791"
         sodipodi:rx="0.59127611"
         sodipodi:ry="0.59127611"
         sodipodi:start="0.027304543"
         sodipodi:end="6.2831853"
         sodipodi:open="true"
         sodipodi:arc-type="arc"
         d="m 25.482711,66.228934 a 0.59127611,0.59127611 0 0 1 -0.603164,0.57501 0.59127611,0.59127611 0 0 1 -0.579113,-0.599225 0.59127611,0.59127611 0 0 1 0.595257,-0.58319 0.59127611,0.59127611 0 0 1 0.58724,0.591262"
         inkscape:tile-x0="4.2112036"
         inkscape:tile-y0="4.2112036" /><path
         style="fill:#000000;fill-opacity:1;stroke:none;stroke-width:0.7366;stroke-dasharray:none;paint-order:markers fill stroke"
         id="use15768-0"
         sodipodi:type="arc"
         sodipodi:cx="24.891655"
         sodipodi:cy="107.13366"
         sodipodi:rx="0.59127611"
         sodipodi:ry="0.59127611"
         sodipodi:start="0.027304543"
         sodipodi:end="6.2831853"
         sodipodi:open="true"
         sodipodi:arc-type="arc"
         d="m 25.482711,107.1498 a 0.59127611,0.59127611 0 0 1 -0.603164,0.57501 0.59127611,0.59127611 0 0 1 -0.579113,-0.59922 0.59127611,0.59127611 0 0 1 0.595257,-0.58319 0.59127611,0.59127611 0 0 1 0.58724,0.59126"
         inkscape:tile-x0="4.2112036"
         inkscape:tile-y0="4.2112036" /><path
         style="fill:#000000;fill-opacity:1;stroke:none;stroke-width:0.7366;stroke-dasharray:none;paint-order:markers fill stroke"
         id="use15769-1"
         sodipodi:type="arc"
         sodipodi:cx="24.891655"
         sodipodi:cy="148.05453"
         sodipodi:rx="0.59127611"
         sodipodi:ry="0.59127611"
         sodipodi:start="0.027304543"
         sodipodi:end="6.2831853"
         sodipodi:open="true"
         sodipodi:arc-type="arc"
         d="m 25.482711,148.07068 a 0.59127611,0.59127611 0 0 1 -0.603164,0.57501 0.59127611,0.59127611 0 0 1 -0.579113,-0.59923 0.59127611,0.59127611 0 0 1 0.595257,-0.58319 0.59127611,0.59127611 0 0 1 0.58724,0.59126"
         inkscape:tile-x0="4.2112036"
         inkscape:tile-y0="4.2112036" /><path
         style="fill:#000000;fill-opacity:1;stroke:none;stroke-width:0.7366;stroke-dasharray:none;paint-order:markers fill stroke"
         id="use15770-7"
         sodipodi:type="arc"
         sodipodi:cx="24.891655"
         sodipodi:cy="188.9754"
         sodipodi:rx="0.59127611"
         sodipodi:ry="0.59127611"
         sodipodi:start="0.027304543"
         sodipodi:end="6.2831853"
         sodipodi:open="true"
         sodipodi:arc-type="arc"
         d="m 25.482711,188.99155 a 0.59127611,0.59127611 0 0 1 -0.603164,0.575 0.59127611,0.59127611 0 0 1 -0.579113,-0.59922 0.59127611,0.59127611 0 0 1 0.595257,-0.58319 0.59127611,0.59127611 0 0 1 0.58724,0.59126"
         inkscape:tile-x0="4.2112036"
         inkscape:tile-y0="4.2112036" /><path
         style="fill:#000000;fill-opacity:1;stroke:none;stroke-width:0.381031;stroke-dasharray:none;paint-order:markers fill stroke"
         id="use15771-3"
         sodipodi:type="arc"
         sodipodi:cx="24.891655"
         sodipodi:cy="229.89629"
         sodipodi:rx="0.59127611"
         sodipodi:ry="0.59127611"
         sodipodi:start="0.027304543"
         sodipodi:end="6.2831853"
         sodipodi:open="true"
         sodipodi:arc-type="arc"
         d="m 25.482711,229.91243 a 0.59127611,0.59127611 0 0 1 -0.603164,0.57501 0.59127611,0.59127611 0 0 1 -0.579113,-0.59923 0.59127611,0.59127611 0 0 1 0.595257,-0.58319 0.59127611,0.59127611 0 0 1 0.58724,0.59127"
         inkscape:tile-x0="4.2112036"
         inkscape:tile-y0="4.2112036" /><path
         style="fill:#000000;fill-opacity:1;stroke:none;stroke-width:0.381031;stroke-dasharray:none;paint-order:markers fill stroke"
         id="use15772-8"
         sodipodi:type="arc"
         sodipodi:cx="24.891655"
         sodipodi:cy="270.81717"
         sodipodi:rx="0.59127611"
         sodipodi:ry="0.59127611"
         sodipodi:start="0.027304543"
         sodipodi:end="6.2831853"
         sodipodi:open="true"
         sodipodi:arc-type="arc"
         d="m 25.482711,270.83331 a 0.59127611,0.59127611 0 0 1 -0.603164,0.57501 0.59127611,0.59127611 0 0 1 -0.579113,-0.59922 0.59127611,0.59127611 0 0 1 0.595257,-0.58319 0.59127611,0.59127611 0 0 1 0.58724,0.59126"
         inkscape:tile-x0="4.2112036"
         inkscape:tile-y0="4.2112036" /><path
         style="fill:#000000;fill-opacity:1;stroke:none;stroke-width:0.7366;stroke-dasharray:none;paint-order:markers fill stroke"
         id="use15773-7"
         sodipodi:type="arc"
         sodipodi:cx="65.812531"
         sodipodi:cy="25.291916"
         sodipodi:rx="0.59127611"
         sodipodi:ry="0.59127611"
         sodipodi:start="0.027304543"
         sodipodi:end="6.2831853"
         sodipodi:open="true"
         sodipodi:arc-type="arc"
         d="m 66.403586,25.308058 a 0.59127611,0.59127611 0 0 1 -0.603163,0.57501 0.59127611,0.59127611 0 0 1 -0.579113,-0.599224 0.59127611,0.59127611 0 0 1 0.595257,-0.58319 0.59127611,0.59127611 0 0 1 0.58724,0.591262"
         inkscape:tile-x0="4.2112036"
         inkscape:tile-y0="4.2112036" /><path
         style="fill:#000000;fill-opacity:1;stroke:none;stroke-width:0.7366;stroke-dasharray:none;paint-order:markers fill stroke"
         id="use15774-4"
         sodipodi:type="arc"
         sodipodi:cx="65.812531"
         sodipodi:cy="66.212791"
         sodipodi:rx="0.59127611"
         sodipodi:ry="0.59127611"
         sodipodi:start="0.027304543"
         sodipodi:end="6.2831853"
         sodipodi:open="true"
         sodipodi:arc-type="arc"
         d="m 66.403586,66.228934 a 0.59127611,0.59127611 0 0 1 -0.603163,0.57501 0.59127611,0.59127611 0 0 1 -0.579113,-0.599225 0.59127611,0.59127611 0 0 1 0.595257,-0.58319 0.59127611,0.59127611 0 0 1 0.58724,0.591262"
         inkscape:tile-x0="4.2112036"
         inkscape:tile-y0="4.2112036" /><path
         style="fill:#000000;fill-opacity:1;stroke:none;stroke-width:0.7366;stroke-dasharray:none;paint-order:markers fill stroke"
         id="use15775-0"
         sodipodi:type="arc"
         sodipodi:cx="65.812531"
         sodipodi:cy="107.13366"
         sodipodi:rx="0.59127611"
         sodipodi:ry="0.59127611"
         sodipodi:start="0.027304543"
         sodipodi:end="6.2831853"
         sodipodi:open="true"
         sodipodi:arc-type="arc"
         d="m 66.403586,107.1498 a 0.59127611,0.59127611 0 0 1 -0.603163,0.57501 0.59127611,0.59127611 0 0 1 -0.579113,-0.59922 0.59127611,0.59127611 0 0 1 0.595257,-0.58319 0.59127611,0.59127611 0 0 1 0.58724,0.59126"
         inkscape:tile-x0="4.2112036"
         inkscape:tile-y0="4.2112036" /><path
         style="fill:#000000;fill-opacity:1;stroke:none;stroke-width:0.7366;stroke-dasharray:none;paint-order:markers fill stroke"
         id="use15776-5"
         sodipodi:type="arc"
         sodipodi:cx="65.812531"
         sodipodi:cy="148.05453"
         sodipodi:rx="0.59127611"
         sodipodi:ry="0.59127611"
         sodipodi:start="0.027304543"
         sodipodi:end="6.2831853"
         sodipodi:open="true"
         sodipodi:arc-type="arc"
         d="m 66.403586,148.07068 a 0.59127611,0.59127611 0 0 1 -0.603163,0.57501 0.59127611,0.59127611 0 0 1 -0.579113,-0.59923 0.59127611,0.59127611 0 0 1 0.595257,-0.58319 0.59127611,0.59127611 0 0 1 0.58724,0.59126"
         inkscape:tile-x0="4.2112036"
         inkscape:tile-y0="4.2112036" /><path
         style="fill:#000000;fill-opacity:1;stroke:none;stroke-width:0.7366;stroke-dasharray:none;paint-order:markers fill stroke"
         id="use15777-5"
         sodipodi:type="arc"
         sodipodi:cx="65.812531"
         sodipodi:cy="188.9754"
         sodipodi:rx="0.59127611"
         sodipodi:ry="0.59127611"
         sodipodi:start="0.027304543"
         sodipodi:end="6.2831853"
         sodipodi:open="true"
         sodipodi:arc-type="arc"
         d="m 66.403586,188.99155 a 0.59127611,0.59127611 0 0 1 -0.603163,0.575 0.59127611,0.59127611 0 0 1 -0.579113,-0.59922 0.59127611,0.59127611 0 0 1 0.595257,-0.58319 0.59127611,0.59127611 0 0 1 0.58724,0.59126"
         inkscape:tile-x0="4.2112036"
         inkscape:tile-y0="4.2112036" /><path
         style="fill:#000000;fill-opacity:1;stroke:none;stroke-width:0.381031;stroke-dasharray:none;paint-order:markers fill stroke"
         id="use15778-0"
         sodipodi:type="arc"
         sodipodi:cx="65.812531"
         sodipodi:cy="229.89629"
         sodipodi:rx="0.59127611"
         sodipodi:ry="0.59127611"
         sodipodi:start="0.027304543"
         sodipodi:end="6.2831853"
         sodipodi:open="true"
         sodipodi:arc-type="arc"
         d="m 66.403586,229.91243 a 0.59127611,0.59127611 0 0 1 -0.603163,0.57501 0.59127611,0.59127611 0 0 1 -0.579113,-0.59923 0.59127611,0.59127611 0 0 1 0.595257,-0.58319 0.59127611,0.59127611 0 0 1 0.58724,0.59127"
         inkscape:tile-x0="4.2112036"
         inkscape:tile-y0="4.2112036" /><path
         style="fill:#000000;fill-opacity:1;stroke:none;stroke-width:0.381031;stroke-dasharray:none;paint-order:markers fill stroke"
         id="use15779-0"
         sodipodi:type="arc"
         sodipodi:cx="65.812531"
         sodipodi:cy="270.81717"
         sodipodi:rx="0.59127611"
         sodipodi:ry="0.59127611"
         sodipodi:start="0.027304543"
         sodipodi:end="6.2831853"
         sodipodi:open="true"
         sodipodi:arc-type="arc"
         d="m 66.403586,270.83331 a 0.59127611,0.59127611 0 0 1 -0.603163,0.57501 0.59127611,0.59127611 0 0 1 -0.579113,-0.59922 0.59127611,0.59127611 0 0 1 0.595257,-0.58319 0.59127611,0.59127611 0 0 1 0.58724,0.59126"
         inkscape:tile-x0="4.2112036"
         inkscape:tile-y0="4.2112036" /><path
         style="fill:#000000;fill-opacity:1;stroke:none;stroke-width:0.7366;stroke-dasharray:none;paint-order:markers fill stroke"
         id="use15780-6"
         sodipodi:type="arc"
         sodipodi:cx="106.7334"
         sodipodi:cy="25.291916"
         sodipodi:rx="0.59127611"
         sodipodi:ry="0.59127611"
         sodipodi:start="0.027304543"
         sodipodi:end="6.2831853"
         sodipodi:open="true"
         sodipodi:arc-type="arc"
         d="m 107.32445,25.308058 a 0.59127611,0.59127611 0 0 1 -0.60316,0.57501 0.59127611,0.59127611 0 0 1 -0.57911,-0.599224 0.59127611,0.59127611 0 0 1 0.59525,-0.58319 0.59127611,0.59127611 0 0 1 0.58724,0.591262"
         inkscape:tile-x0="4.2112036"
         inkscape:tile-y0="4.2112036" /><path
         style="fill:#000000;fill-opacity:1;stroke:none;stroke-width:0.7366;stroke-dasharray:none;paint-order:markers fill stroke"
         id="use15781-1"
         sodipodi:type="arc"
         sodipodi:cx="106.7334"
         sodipodi:cy="66.212791"
         sodipodi:rx="0.59127611"
         sodipodi:ry="0.59127611"
         sodipodi:start="0.027304543"
         sodipodi:end="6.2831853"
         sodipodi:open="true"
         sodipodi:arc-type="arc"
         d="m 107.32445,66.228934 a 0.59127611,0.59127611 0 0 1 -0.60316,0.57501 0.59127611,0.59127611 0 0 1 -0.57911,-0.599225 0.59127611,0.59127611 0 0 1 0.59525,-0.58319 0.59127611,0.59127611 0 0 1 0.58724,0.591262"
         inkscape:tile-x0="4.2112036"
         inkscape:tile-y0="4.2112036" /><path
         style="fill:#000000;fill-opacity:1;stroke:none;stroke-width:0.7366;stroke-dasharray:none;paint-order:markers fill stroke"
         id="use15782-6"
         sodipodi:type="arc"
         sodipodi:cx="106.7334"
         sodipodi:cy="107.13366"
         sodipodi:rx="0.59127611"
         sodipodi:ry="0.59127611"
         sodipodi:start="0.027304543"
         sodipodi:end="6.2831853"
         sodipodi:open="true"
         sodipodi:arc-type="arc"
         d="m 107.32445,107.1498 a 0.59127611,0.59127611 0 0 1 -0.60316,0.57501 0.59127611,0.59127611 0 0 1 -0.57911,-0.59922 0.59127611,0.59127611 0 0 1 0.59525,-0.58319 0.59127611,0.59127611 0 0 1 0.58724,0.59126"
         inkscape:tile-x0="4.2112036"
         inkscape:tile-y0="4.2112036" /><path
         style="fill:#000000;fill-opacity:1;stroke:none;stroke-width:0.7366;stroke-dasharray:none;paint-order:markers fill stroke"
         id="use15783-9"
         sodipodi:type="arc"
         sodipodi:cx="106.7334"
         sodipodi:cy="148.05453"
         sodipodi:rx="0.59127611"
         sodipodi:ry="0.59127611"
         sodipodi:start="0.027304543"
         sodipodi:end="6.2831853"
         sodipodi:open="true"
         sodipodi:arc-type="arc"
         d="m 107.32445,148.07068 a 0.59127611,0.59127611 0 0 1 -0.60316,0.57501 0.59127611,0.59127611 0 0 1 -0.57911,-0.59923 0.59127611,0.59127611 0 0 1 0.59525,-0.58319 0.59127611,0.59127611 0 0 1 0.58724,0.59126"
         inkscape:tile-x0="4.2112036"
         inkscape:tile-y0="4.2112036" /><path
         style="fill:#000000;fill-opacity:1;stroke:none;stroke-width:0.7366;stroke-dasharray:none;paint-order:markers fill stroke"
         id="use15784-1"
         sodipodi:type="arc"
         sodipodi:cx="106.7334"
         sodipodi:cy="188.9754"
         sodipodi:rx="0.59127611"
         sodipodi:ry="0.59127611"
         sodipodi:start="0.027304543"
         sodipodi:end="6.2831853"
         sodipodi:open="true"
         sodipodi:arc-type="arc"
         d="m 107.32445,188.99155 a 0.59127611,0.59127611 0 0 1 -0.60316,0.575 0.59127611,0.59127611 0 0 1 -0.57911,-0.59922 0.59127611,0.59127611 0 0 1 0.59525,-0.58319 0.59127611,0.59127611 0 0 1 0.58724,0.59126"
         inkscape:tile-x0="4.2112036"
         inkscape:tile-y0="4.2112036" /><path
         style="fill:#000000;fill-opacity:1;stroke:none;stroke-width:0.381031;stroke-dasharray:none;paint-order:markers fill stroke"
         id="use15785-6"
         sodipodi:type="arc"
         sodipodi:cx="106.73339"
         sodipodi:cy="229.89629"
         sodipodi:rx="0.59127611"
         sodipodi:ry="0.59127611"
         sodipodi:start="0.027304543"
         sodipodi:end="6.2831853"
         sodipodi:open="true"
         sodipodi:arc-type="arc"
         d="m 107.32445,229.91243 a 0.59127611,0.59127611 0 0 1 -0.60317,0.57501 0.59127611,0.59127611 0 0 1 -0.57911,-0.59923 0.59127611,0.59127611 0 0 1 0.59526,-0.58319 0.59127611,0.59127611 0 0 1 0.58724,0.59127"
         inkscape:tile-x0="4.2112036"
         inkscape:tile-y0="4.2112036" /><path
         style="fill:#000000;fill-opacity:1;stroke:none;stroke-width:0.381031;stroke-dasharray:none;paint-order:markers fill stroke"
         id="use15786-6"
         sodipodi:type="arc"
         sodipodi:cx="106.73339"
         sodipodi:cy="270.81717"
         sodipodi:rx="0.59127611"
         sodipodi:ry="0.59127611"
         sodipodi:start="0.027304543"
         sodipodi:end="6.2831853"
         sodipodi:open="true"
         sodipodi:arc-type="arc"
         d="m 107.32445,270.83331 a 0.59127611,0.59127611 0 0 1 -0.60317,0.57501 0.59127611,0.59127611 0 0 1 -0.57911,-0.59922 0.59127611,0.59127611 0 0 1 0.59526,-0.58319 0.59127611,0.59127611 0 0 1 0.58724,0.59126"
         inkscape:tile-x0="4.2112036"
         inkscape:tile-y0="4.2112036" /><path
         style="fill:#000000;fill-opacity:1;stroke:none;stroke-width:0.7366;stroke-dasharray:none;paint-order:markers fill stroke"
         id="use15787-1"
         sodipodi:type="arc"
         sodipodi:cx="147.65428"
         sodipodi:cy="25.291916"
         sodipodi:rx="0.59127611"
         sodipodi:ry="0.59127611"
         sodipodi:start="0.027304543"
         sodipodi:end="6.2831853"
         sodipodi:open="true"
         sodipodi:arc-type="arc"
         d="m 148.24534,25.308058 a 0.59127611,0.59127611 0 0 1 -0.60317,0.57501 0.59127611,0.59127611 0 0 1 -0.57911,-0.599224 0.59127611,0.59127611 0 0 1 0.59526,-0.58319 0.59127611,0.59127611 0 0 1 0.58724,0.591262"
         inkscape:tile-x0="4.2112036"
         inkscape:tile-y0="4.2112036" /><path
         style="fill:#000000;fill-opacity:1;stroke:none;stroke-width:0.7366;stroke-dasharray:none;paint-order:markers fill stroke"
         id="use15788-1"
         sodipodi:type="arc"
         sodipodi:cx="147.65428"
         sodipodi:cy="66.212791"
         sodipodi:rx="0.59127611"
         sodipodi:ry="0.59127611"
         sodipodi:start="0.027304543"
         sodipodi:end="6.2831853"
         sodipodi:open="true"
         sodipodi:arc-type="arc"
         d="m 148.24534,66.228934 a 0.59127611,0.59127611 0 0 1 -0.60317,0.57501 0.59127611,0.59127611 0 0 1 -0.57911,-0.599225 0.59127611,0.59127611 0 0 1 0.59526,-0.58319 0.59127611,0.59127611 0 0 1 0.58724,0.591262"
         inkscape:tile-x0="4.2112036"
         inkscape:tile-y0="4.2112036" /><path
         style="fill:#000000;fill-opacity:1;stroke:none;stroke-width:0.7366;stroke-dasharray:none;paint-order:markers fill stroke"
         id="use15789-6"
         sodipodi:type="arc"
         sodipodi:cx="147.65428"
         sodipodi:cy="107.13366"
         sodipodi:rx="0.59127611"
         sodipodi:ry="0.59127611"
         sodipodi:start="0.027304543"
         sodipodi:end="6.2831853"
         sodipodi:open="true"
         sodipodi:arc-type="arc"
         d="m 148.24534,107.1498 a 0.59127611,0.59127611 0 0 1 -0.60317,0.57501 0.59127611,0.59127611 0 0 1 -0.57911,-0.59922 0.59127611,0.59127611 0 0 1 0.59526,-0.58319 0.59127611,0.59127611 0 0 1 0.58724,0.59126"
         inkscape:tile-x0="4.2112036"
         inkscape:tile-y0="4.2112036" /><path
         style="fill:#000000;fill-opacity:1;stroke:none;stroke-width:0.7366;stroke-dasharray:none;paint-order:markers fill stroke"
         id="use15790-7"
         sodipodi:type="arc"
         sodipodi:cx="147.65428"
         sodipodi:cy="148.05453"
         sodipodi:rx="0.59127611"
         sodipodi:ry="0.59127611"
         sodipodi:start="0.027304543"
         sodipodi:end="6.2831853"
         sodipodi:open="true"
         sodipodi:arc-type="arc"
         d="m 148.24534,148.07068 a 0.59127611,0.59127611 0 0 1 -0.60317,0.57501 0.59127611,0.59127611 0 0 1 -0.57911,-0.59923 0.59127611,0.59127611 0 0 1 0.59526,-0.58319 0.59127611,0.59127611 0 0 1 0.58724,0.59126"
         inkscape:tile-x0="4.2112036"
         inkscape:tile-y0="4.2112036" /><path
         style="fill:#000000;fill-opacity:1;stroke:none;stroke-width:0.7366;stroke-dasharray:none;paint-order:markers fill stroke"
         id="use15791-3"
         sodipodi:type="arc"
         sodipodi:cx="147.65428"
         sodipodi:cy="188.9754"
         sodipodi:rx="0.59127611"
         sodipodi:ry="0.59127611"
         sodipodi:start="0.027304543"
         sodipodi:end="6.2831853"
         sodipodi:open="true"
         sodipodi:arc-type="arc"
         d="m 148.24534,188.99155 a 0.59127611,0.59127611 0 0 1 -0.60317,0.575 0.59127611,0.59127611 0 0 1 -0.57911,-0.59922 0.59127611,0.59127611 0 0 1 0.59526,-0.58319 0.59127611,0.59127611 0 0 1 0.58724,0.59126"
         inkscape:tile-x0="4.2112036"
         inkscape:tile-y0="4.2112036" /><path
         style="fill:#000000;fill-opacity:1;stroke:none;stroke-width:0.381031;stroke-dasharray:none;paint-order:markers fill stroke"
         id="use15792-7"
         sodipodi:type="arc"
         sodipodi:cx="147.65428"
         sodipodi:cy="229.89629"
         sodipodi:rx="0.59127611"
         sodipodi:ry="0.59127611"
         sodipodi:start="0.027304543"
         sodipodi:end="6.2831853"
         sodipodi:open="true"
         sodipodi:arc-type="arc"
         d="m 148.24534,229.91243 a 0.59127611,0.59127611 0 0 1 -0.60317,0.57501 0.59127611,0.59127611 0 0 1 -0.57911,-0.59923 0.59127611,0.59127611 0 0 1 0.59526,-0.58319 0.59127611,0.59127611 0 0 1 0.58724,0.59127"
         inkscape:tile-x0="4.2112036"
         inkscape:tile-y0="4.2112036" /><path
         style="fill:#000000;fill-opacity:1;stroke:none;stroke-width:0.381031;stroke-dasharray:none;paint-order:markers fill stroke"
         id="use15793-7"
         sodipodi:type="arc"
         sodipodi:cx="147.65428"
         sodipodi:cy="270.81717"
         sodipodi:rx="0.59127611"
         sodipodi:ry="0.59127611"
         sodipodi:start="0.027304543"
         sodipodi:end="6.2831853"
         sodipodi:open="true"
         sodipodi:arc-type="arc"
         d="m 148.24534,270.83331 a 0.59127611,0.59127611 0 0 1 -0.60317,0.57501 0.59127611,0.59127611 0 0 1 -0.57911,-0.59922 0.59127611,0.59127611 0 0 1 0.59526,-0.58319 0.59127611,0.59127611 0 0 1 0.58724,0.59126"
         inkscape:tile-x0="4.2112036"
         inkscape:tile-y0="4.2112036" /><path
         style="fill:#000000;fill-opacity:1;stroke:none;stroke-width:0.381031;stroke-dasharray:none;paint-order:markers fill stroke"
         id="use15794-9"
         sodipodi:type="arc"
         sodipodi:cx="188.57515"
         sodipodi:cy="25.291916"
         sodipodi:rx="0.59127611"
         sodipodi:ry="0.59127611"
         sodipodi:start="0.027304543"
         sodipodi:end="6.2831853"
         sodipodi:open="true"
         sodipodi:arc-type="arc"
         d="m 189.16621,25.308058 a 0.59127611,0.59127611 0 0 1 -0.60317,0.57501 0.59127611,0.59127611 0 0 1 -0.57911,-0.599224 0.59127611,0.59127611 0 0 1 0.59526,-0.58319 0.59127611,0.59127611 0 0 1 0.58724,0.591262"
         inkscape:tile-x0="4.2112036"
         inkscape:tile-y0="4.2112036" /><path
         style="fill:#000000;fill-opacity:1;stroke:none;stroke-width:0.381031;stroke-dasharray:none;paint-order:markers fill stroke"
         id="use15795-0"
         sodipodi:type="arc"
         sodipodi:cx="188.57515"
         sodipodi:cy="66.212791"
         sodipodi:rx="0.59127611"
         sodipodi:ry="0.59127611"
         sodipodi:start="0.027304543"
         sodipodi:end="6.2831853"
         sodipodi:open="true"
         sodipodi:arc-type="arc"
         d="m 189.16621,66.228934 a 0.59127611,0.59127611 0 0 1 -0.60317,0.57501 0.59127611,0.59127611 0 0 1 -0.57911,-0.599225 0.59127611,0.59127611 0 0 1 0.59526,-0.58319 0.59127611,0.59127611 0 0 1 0.58724,0.591262"
         inkscape:tile-x0="4.2112036"
         inkscape:tile-y0="4.2112036" /><path
         style="fill:#000000;fill-opacity:1;stroke:none;stroke-width:0.381031;stroke-dasharray:none;paint-order:markers fill stroke"
         id="use15796-2"
         sodipodi:type="arc"
         sodipodi:cx="188.57515"
         sodipodi:cy="107.13365"
         sodipodi:rx="0.59127611"
         sodipodi:ry="0.59127611"
         sodipodi:start="0.027304543"
         sodipodi:end="6.2831853"
         sodipodi:open="true"
         sodipodi:arc-type="arc"
         d="m 189.16621,107.14979 a 0.59127611,0.59127611 0 0 1 -0.60317,0.57501 0.59127611,0.59127611 0 0 1 -0.57911,-0.59922 0.59127611,0.59127611 0 0 1 0.59526,-0.58319 0.59127611,0.59127611 0 0 1 0.58724,0.59126"
         inkscape:tile-x0="4.2112036"
         inkscape:tile-y0="4.2112036" /><path
         style="fill:#000000;fill-opacity:1;stroke:none;stroke-width:0.381031;stroke-dasharray:none;paint-order:markers fill stroke"
         id="use15797-7"
         sodipodi:type="arc"
         sodipodi:cx="188.57515"
         sodipodi:cy="148.05455"
         sodipodi:rx="0.59127611"
         sodipodi:ry="0.59127611"
         sodipodi:start="0.027304543"
         sodipodi:end="6.2831853"
         sodipodi:open="true"
         sodipodi:arc-type="arc"
         d="m 189.16621,148.07069 a 0.59127611,0.59127611 0 0 1 -0.60317,0.57501 0.59127611,0.59127611 0 0 1 -0.57911,-0.59922 0.59127611,0.59127611 0 0 1 0.59526,-0.58319 0.59127611,0.59127611 0 0 1 0.58724,0.59126"
         inkscape:tile-x0="4.2112036"
         inkscape:tile-y0="4.2112036" /><path
         style="fill:#000000;fill-opacity:1;stroke:none;stroke-width:0.381031;stroke-dasharray:none;paint-order:markers fill stroke"
         id="use15798-0"
         sodipodi:type="arc"
         sodipodi:cx="188.57515"
         sodipodi:cy="188.97542"
         sodipodi:rx="0.59127611"
         sodipodi:ry="0.59127611"
         sodipodi:start="0.027304543"
         sodipodi:end="6.2831853"
         sodipodi:open="true"
         sodipodi:arc-type="arc"
         d="m 189.16621,188.99156 a 0.59127611,0.59127611 0 0 1 -0.60317,0.57501 0.59127611,0.59127611 0 0 1 -0.57911,-0.59922 0.59127611,0.59127611 0 0 1 0.59526,-0.58319 0.59127611,0.59127611 0 0 1 0.58724,0.59126"
         inkscape:tile-x0="4.2112036"
         inkscape:tile-y0="4.2112036" /><path
         style="fill:#000000;fill-opacity:1;stroke:none;stroke-width:0.381031;stroke-dasharray:none;paint-order:markers fill stroke"
         id="use15799-8"
         sodipodi:type="arc"
         sodipodi:cx="188.57515"
         sodipodi:cy="229.89629"
         sodipodi:rx="0.59127611"
         sodipodi:ry="0.59127611"
         sodipodi:start="0.027304543"
         sodipodi:end="6.2831853"
         sodipodi:open="true"
         sodipodi:arc-type="arc"
         d="m 189.16621,229.91243 a 0.59127611,0.59127611 0 0 1 -0.60317,0.57501 0.59127611,0.59127611 0 0 1 -0.57911,-0.59923 0.59127611,0.59127611 0 0 1 0.59526,-0.58319 0.59127611,0.59127611 0 0 1 0.58724,0.59127"
         inkscape:tile-x0="4.2112036"
         inkscape:tile-y0="4.2112036" /><path
         style="fill:#000000;fill-opacity:1;stroke:none;stroke-width:0.52978;stroke-dasharray:none;paint-order:markers fill stroke"
         id="use15800-5"
         sodipodi:type="arc"
         sodipodi:cx="189.12691"
         sodipodi:cy="270.81717"
         sodipodi:rx="1.1430411"
         sodipodi:ry="0.59127611"
         sodipodi:start="0.027304543"
         sodipodi:end="6.2831853"
         sodipodi:open="true"
         sodipodi:arc-type="arc"
         d="m 190.26952,270.83331 a 1.1430411,0.59127611 0 0 1 -1.16602,0.57501 1.1430411,0.59127611 0 0 1 -1.11953,-0.59922 1.1430411,0.59127611 0 0 1 1.15074,-0.58319 1.1430411,0.59127611 0 0 1 1.13524,0.59126"
         inkscape:tile-x0="4.2112036"
         inkscape:tile-y0="4.2112036" /></g></g><text
     xml:space="preserve"
     style="font-style:normal;font-size:3.52778px;font-family:Caladea;-inkscape-font-specification:'Caladea, Normal';text-align:start;writing-mode:lr-tb;direction:ltr;text-anchor:start;fill:#ffffff;stroke-width:0.341;font-weight:normal;font-stretch:normal;font-variant:normal;font-variant-ligatures:normal;font-variant-caps:normal;font-variant-numeric:normal;font-variant-east-asian:normal"
     x="1.8717467"
     y="5.7853832"
     id="text1"><tspan
       sodipodi:role="line"
       id="tspan1"
       style="stroke-width:0.341;-inkscape-font-specification:'Caladea, Normal';font-family:Caladea;font-weight:normal;font-style:normal;font-stretch:normal;font-variant:normal;font-size:3.52777778px;font-variant-ligatures:normal;font-variant-caps:normal;font-variant-numeric:normal;font-variant-east-asian:normal"
       x="1.8717467"
       y="5.7853832">Elevation:+0x1</tspan></text></svg>
