<?xml version="1.0" encoding="UTF-8" standalone="no"?>
<svg
   width="63mm"
   height="88mm"
   version="1.1"
   id="svg49"
   sodipodi:docname="card-fate-joker.svg"
   inkscape:version="1.3.2 (091e20e, 2023-11-25, custom)"
   viewBox="0 0 238.11054 332.59885"
   xml:space="preserve"
   xmlns:inkscape="http://www.inkscape.org/namespaces/inkscape"
   xmlns:sodipodi="http://sodipodi.sourceforge.net/DTD/sodipodi-0.dtd"
   xmlns="http://www.w3.org/2000/svg"
   xmlns:svg="http://www.w3.org/2000/svg"><sodipodi:namedview
     id="namedview49"
     pagecolor="#ffffff"
     bordercolor="#000000"
     borderopacity="0.25"
     inkscape:showpageshadow="2"
     inkscape:pageopacity="0.0"
     inkscape:pagecheckerboard="0"
     inkscape:deskcolor="#d1d1d1"
     inkscape:zoom="5.2292992"
     inkscape:cx="129.65408"
     inkscape:cy="163.69306"
     inkscape:window-width="2560"
     inkscape:window-height="1476"
     inkscape:window-x="-12"
     inkscape:window-y="-12"
     inkscape:window-maximized="1"
     inkscape:current-layer="svg49"
     inkscape:document-units="mm"
     showgrid="false" /><defs
     id="defs17"><linearGradient
       id="gradient_0"
       gradientUnits="userSpaceOnUse"
       x1="787.83301"
       y1="417.13614"
       x2="896.2948"
       y2="336.46844"><stop
         offset="0"
         stop-color="#167F8A"
         id="stop16" /><stop
         offset="1"
         stop-color="#159BA9"
         id="stop17" /></linearGradient><linearGradient
       id="gradient_0-2"
       gradientUnits="userSpaceOnUse"
       x1="439.11206"
       y1="464.522"
       x2="373.02579"
       y2="386.0676"><stop
         offset="0"
         stop-color="#FEA902"
         id="stop24-7" /><stop
         offset="1"
         stop-color="#FEC100"
         id="stop25-8" /></linearGradient><linearGradient
       id="gradient_0-8"
       gradientUnits="userSpaceOnUse"
       x1="505.63708"
       y1="183.79691"
       x2="171.41376"
       y2="155.43059"><stop
         offset="0"
         stop-color="#EEA800"
         id="stop3" /><stop
         offset="1"
         stop-color="#FEF49E"
         id="stop4" /></linearGradient><linearGradient
       id="gradient_1-2"
       gradientUnits="userSpaceOnUse"
       x1="297.28619"
       y1="286.58209"
       x2="163.5318"
       y2="635.06488"><stop
         offset="0"
         stop-color="#BE8500"
         id="stop5" /><stop
         offset="1"
         stop-color="#FFEA5F"
         id="stop6" /></linearGradient><linearGradient
       id="gradient_2"
       gradientUnits="userSpaceOnUse"
       x1="690.96869"
       y1="886.34503"
       x2="530.02826"
       y2="327.17783"><stop
         offset="0"
         stop-color="#936602"
         id="stop7" /><stop
         offset="1"
         stop-color="#E6AB0B"
         id="stop8" /></linearGradient><linearGradient
       id="gradient_0-6"
       gradientUnits="userSpaceOnUse"
       x1="756.237"
       y1="543.65344"
       x2="570.92169"
       y2="327.42014"><stop
         offset="0"
         stop-color="#9650B5"
         id="stop1" /><stop
         offset="1"
         stop-color="#B262D0"
         id="stop2" /></linearGradient><linearGradient
       id="gradient_1-21"
       gradientUnits="userSpaceOnUse"
       x1="431.04391"
       y1="954.88794"
       x2="538.14734"
       y2="89.44886"><stop
         offset="0"
         stop-color="#002757"
         id="stop3-8"
         style="stop-color:#000000;stop-opacity:1;" /><stop
         offset="1"
         stop-color="#4B448F"
         id="stop4-0" /></linearGradient></defs><defs
     id="defs25"><linearGradient
       id="gradient_1"
       gradientUnits="userSpaceOnUse"
       x1="567.4491"
       y1="699.04437"
       x2="868.41522"
       y2="779.63495"><stop
         offset="0"
         stop-color="#176366"
         id="stop24"
         style="stop-color:#000000;stop-opacity:1;" /><stop
         offset="1"
         stop-color="#157C89"
         id="stop25" /></linearGradient></defs><path
     id="path1-8"
     style="fill:#000000;fill-opacity:0.503623;stroke-width:12.0822"
     inkscape:transform-center-x="-0.57424876"
     inkscape:transform-center-y="-2.1002175"
     d="m 148.07045,201.04281 c 2.20826,-2.71358 -33.4458,-0.91076 -47.04485,-1.36612 9.72252,-32.91621 11.20864,-25.31441 6.05742,-34.81219 -3.61372,-6.66294 -10.932712,-3.0826 -33.737954,9.98769 6.05167,-15.09225 10.804986,-17.50688 21.016382,-21.51195 13.764012,-5.39846 47.461312,12.34923 18.932992,8.72026 -8.89956,-1.13208 1.99851,-13.86905 -2.84534,-25.97664 -3.80798,-9.51835 -5.56796,-15.26636 -24.622421,-13.08424 18.073781,-16.47383 35.550241,1.53074 38.237101,8.71539 5.28461,14.13101 5.20994,24.00728 12.04674,16.84357 5.78875,-6.06555 8.10886,-8.53516 15.26719,-9.0139 4.17277,-0.27907 5.59874,-4.34517 22.06199,13.99305 -17.08858,-9.45448 -19.13928,-7.57386 -26.11966,-3.04843 -18.39024,11.92259 -12.99411,19.28759 0.75041,50.55351 z"
     sodipodi:nodetypes="ccscssscssscsc" /><path
     style="fill:#000000;fill-opacity:0.503623;stroke-width:6.53168"
     id="path2"
     sodipodi:type="arc"
     sodipodi:cx="168.6844"
     sodipodi:cy="158.81992"
     sodipodi:rx="5.5255055"
     sodipodi:ry="5.5255055"
     sodipodi:start="0.027304543"
     sodipodi:end="6.2831853"
     sodipodi:open="true"
     sodipodi:arc-type="arc"
     d="m 174.20785,158.97077 a 5.5255055,5.5255055 0 0 1 -5.63659,5.37349 5.5255055,5.5255055 0 0 1 -5.41185,-5.59978 5.5255055,5.5255055 0 0 1 5.56271,-5.44994 5.5255055,5.5255055 0 0 1 5.48779,5.52538"
     inkscape:transform-center-x="0.1538913"
     inkscape:transform-center-y="-6.5316224e-06" /><path
     style="fill:#000000;fill-opacity:0.50362319;stroke-width:6.53168"
     id="path2-4"
     sodipodi:type="arc"
     sodipodi:cx="76.554832"
     sodipodi:cy="180.78192"
     sodipodi:rx="5.5255055"
     sodipodi:ry="5.5255055"
     sodipodi:start="0.027304543"
     sodipodi:end="6.2831853"
     sodipodi:open="true"
     sodipodi:arc-type="arc"
     d="m 82.078278,180.93277 a 5.5255055,5.5255055 0 0 1 -5.636591,5.3735 5.5255055,5.5255055 0 0 1 -5.411845,-5.59978 5.5255055,5.5255055 0 0 1 5.562708,-5.44995 5.5255055,5.5255055 0 0 1 5.487788,5.52538" /><path
     style="fill:#000000;fill-opacity:0.50362319;stroke-width:5.8442"
     id="path2-5"
     sodipodi:type="arc"
     sodipodi:cx="85.039459"
     sodipodi:cy="129.51021"
     sodipodi:rx="4.9438729"
     sodipodi:ry="4.9438729"
     sodipodi:start="0.027304543"
     sodipodi:end="6.2831853"
     sodipodi:open="true"
     sodipodi:arc-type="arc"
     d="m 89.981489,129.64518 a 4.9438729,4.9438729 0 0 1 -5.043265,4.80786 4.9438729,4.9438729 0 0 1 -4.842177,-5.01032 4.9438729,4.9438729 0 0 1 4.977159,-4.87627 4.9438729,4.9438729 0 0 1 4.910126,4.94376" /></svg>
