<?xml version="1.0" encoding="UTF-8" standalone="no"?>
<svg
   width="825"
   height="1125"
   version="1.1"
   id="svg49"
   sodipodi:docname="card-conflict-d9.svg"
   inkscape:version="1.4 (86a8ad7, 2024-10-11)"
   viewBox="0 0 825 1125"
   xml:space="preserve"
   inkscape:export-filename="card-conflict-d9.png"
   inkscape:export-xdpi="96"
   inkscape:export-ydpi="96"
   xmlns:inkscape="http://www.inkscape.org/namespaces/inkscape"
   xmlns:sodipodi="http://sodipodi.sourceforge.net/DTD/sodipodi-0.dtd"
   xmlns="http://www.w3.org/2000/svg"
   xmlns:svg="http://www.w3.org/2000/svg"><sodipodi:namedview
     id="namedview49"
     pagecolor="#ffffff"
     bordercolor="#000000"
     borderopacity="0.25"
     inkscape:showpageshadow="2"
     inkscape:pageopacity="0.0"
     inkscape:pagecheckerboard="0"
     inkscape:deskcolor="#d1d1d1"
     inkscape:zoom="0.65366243"
     inkscape:cx="638.70888"
     inkscape:cy="753.447"
     inkscape:window-width="1841"
     inkscape:window-height="951"
     inkscape:window-x="28"
     inkscape:window-y="31"
     inkscape:window-maximized="0"
     inkscape:current-layer="svg49"
     inkscape:document-units="px"
     showgrid="false" /><defs
     id="defs17"><linearGradient
       id="gradient_0"
       gradientUnits="userSpaceOnUse"
       x1="787.83301"
       y1="417.13614"
       x2="896.2948"
       y2="336.46844"><stop
         offset="0"
         stop-color="#167F8A"
         id="stop16" /><stop
         offset="1"
         stop-color="#159BA9"
         id="stop17" /></linearGradient><linearGradient
       id="gradient_0-2"
       gradientUnits="userSpaceOnUse"
       x1="439.11206"
       y1="464.522"
       x2="373.02579"
       y2="386.0676"><stop
         offset="0"
         stop-color="#FEA902"
         id="stop24-7" /><stop
         offset="1"
         stop-color="#FEC100"
         id="stop25-8" /></linearGradient><linearGradient
       id="gradient_0-8"
       gradientUnits="userSpaceOnUse"
       x1="505.63708"
       y1="183.79691"
       x2="171.41376"
       y2="155.43059"><stop
         offset="0"
         stop-color="#EEA800"
         id="stop3" /><stop
         offset="1"
         stop-color="#FEF49E"
         id="stop4" /></linearGradient><linearGradient
       id="gradient_1-2"
       gradientUnits="userSpaceOnUse"
       x1="297.28619"
       y1="286.58209"
       x2="163.5318"
       y2="635.06488"><stop
         offset="0"
         stop-color="#BE8500"
         id="stop5" /><stop
         offset="1"
         stop-color="#FFEA5F"
         id="stop6" /></linearGradient><linearGradient
       id="gradient_2"
       gradientUnits="userSpaceOnUse"
       x1="690.96869"
       y1="886.34503"
       x2="530.02826"
       y2="327.17783"><stop
         offset="0"
         stop-color="#936602"
         id="stop7" /><stop
         offset="1"
         stop-color="#E6AB0B"
         id="stop8" /></linearGradient><linearGradient
       id="gradient_0-6"
       gradientUnits="userSpaceOnUse"
       x1="756.237"
       y1="543.65344"
       x2="570.92169"
       y2="327.42014"><stop
         offset="0"
         stop-color="#9650B5"
         id="stop1" /><stop
         offset="1"
         stop-color="#B262D0"
         id="stop2" /></linearGradient><linearGradient
       id="gradient_1-21"
       gradientUnits="userSpaceOnUse"
       x1="431.04391"
       y1="954.88794"
       x2="538.14734"
       y2="89.44886"><stop
         offset="0"
         stop-color="#002757"
         id="stop3-8"
         style="stop-color:#000000;stop-opacity:1;" /><stop
         offset="1"
         stop-color="#4B448F"
         id="stop4-0" /></linearGradient><linearGradient
       id="linearGradient1"
       gradientUnits="userSpaceOnUse"
       x1="567.4491"
       y1="699.04437"
       x2="868.41522"
       y2="779.63495"><stop
         offset="0"
         stop-color="#176366"
         id="stop24-3"
         style="stop-color:#000000;stop-opacity:1;" /><stop
         offset="1"
         stop-color="#157C89"
         id="stop25-1" /></linearGradient><clipPath
       clipPathUnits="userSpaceOnUse"
       id="clipPath5"><path
         fill="none"
         stroke="#2ba6de"
         stroke-dasharray="9.85093"
         d="m 96.225486,105.47989 c 0,-14.749045 11.725354,-26.679637 26.187074,-26.679637 H 1176.4902 c 14.4617,0 26.187,11.930592 26.187,26.679637 V 1652.8157 c 0,14.7355 -11.7253,26.6797 -26.187,26.6797 H 122.41256 c -14.46172,0 -26.187074,-11.9442 -26.187074,-26.6797 z"
         id="path145"
         style="display:inline;stroke-width:6.84094" /></clipPath></defs><defs
     id="defs25"><linearGradient
       id="gradient_1"
       gradientUnits="userSpaceOnUse"
       x1="567.4491"
       y1="699.04437"
       x2="868.41522"
       y2="779.63495"><stop
         offset="0"
         stop-color="#176366"
         id="stop24"
         style="stop-color:#000000;stop-opacity:1;" /><stop
         offset="1"
         stop-color="#157C89"
         id="stop25" /></linearGradient></defs><g
     inkscape:groupmode="layer"
     id="layer2"
     inkscape:label="background"><rect
       style="fill:#ffffff;fill-opacity:1;stroke:none;stroke-width:5.59398;stroke-opacity:0.498188"
       id="rect307"
       width="825"
       height="1125"
       x="0"
       y="0" /></g><g
     id="g1"
     transform="matrix(4.143996,0,0,4.143996,3.1461515,3.1461446)"
     inkscape:label="template"
     style="display:none"><g
       id="g104">
	
	<path
   fill="none"
   stroke="#ec1e28"
   d="m 9,252 c 0,4.971 4.029,9 9,9 h 162 c 4.971,0 9,-4.029 9,-9 V 18 c 0,-4.971 -4.029,-9 -9,-9 H 18 c -4.971,0 -9,4.029 -9,9 z"
   id="path104" />
</g><g
       id="g105">
	<path
   fill="none"
   stroke="#2ba6de"
   stroke-dasharray="1.44"
   d="m 18.13,21.906 c 0,-2.156 1.714,-3.9 3.828,-3.9 h 154.084 c 2.114,0 3.828,1.744 3.828,3.9 v 226.188 c 0,2.154 -1.714,3.9 -3.828,3.9 H 21.958 c -2.114,0 -3.828,-1.746 -3.828,-3.9 z"
   id="path105" />
</g></g><g
     style="display:block;opacity:0.3"
     id="g5"
     transform="matrix(0.60576515,0,0,0.60576515,19.986951,30.028025)"
     clip-path="url(#clipPath5)"
     inkscape:label="guildmaster"><path
       fill="#000000"
       d="M 61.6555,56.1165 C 76.06,55.3377 90.8147,56.0059 105.263,56.0301 l 81.281,0.0864 256.053,0.0402 L 1308,56.188 c 0.5,40.022 -0.05,80.105 0.06,120.136 l 0.16,361.309 -0.15,1036.057 0.03,265.89 c 0.05,16.29 2.07,136.96 -0.78,144.72 -2.23,1.13 -2.49,0.73 -4.82,0.09 -1.14,0.56 -2.24,0.98 -3.51,1.17 -6.91,1.03 -14.9,0.29 -21.92,0.31 l -46.04,0.06 -168.32,-0.37 -594.067,-0.06 -267.945,0.28 -91.101,0.27 c -15.216,0.03 -30.7586,0.7 -45.9328,-0.02 -2.0915,-0.1 -3.6294,-0.54 -5.3126,-1.78 -0.1822,-0.77 -0.2309,-0.89 -0.3278,-1.8 -1.4372,-13.47 -0.2716,-28.17 -0.2395,-41.73 l 0.1872,-85.79 -0.1189,-272.98 0.1191,-920.497 0.1324,-401.802 0.0058,-132.626 c 6e-4,-20.167 -1.2162,-41.0836 -0.1469,-61.1679 0.2174,-4.0834 1.1554,-6.4931 3.6925,-9.7406 z"
       id="path4-8" /><path
       fill="#fdfdfc"
       d="m 780.064,626.625 c 1,0.212 1.962,0.399 2.905,0.806 5.464,2.357 13.56,21.058 16.169,26.801 -7.884,-8.054 -17.185,-15.891 -19.074,-27.607 z"
       id="path5-8" /><path
       fill="#fdfdfc"
       d="m 746.386,610.556 c 1.872,0.597 4.436,1.221 5.94,2.527 3.227,2.803 9.852,20.967 12.709,26.48 -0.602,-0.272 -0.837,-0.367 -1.462,-0.716 -8.885,-4.964 -14.797,-18.976 -17.187,-28.291 z"
       id="path6-2" /><path
       fill="#fdfdfc"
       d="m 703.81,1081.16 c 1.76,0.29 3.376,0.32 4.621,1.74 0.035,0.76 0.059,0.57 -0.091,1.48 -0.841,5.1 -12.244,10.78 -16.31,13.81 l -1.094,1.17 -0.497,-0.92 c 0.841,-3.75 1.603,-9.98 3.816,-13.03 2.216,-3.07 6.109,-3.52 9.555,-4.25 z"
       id="path7-4"
       style="fill:#cc0400;fill-opacity:1" /><path
       fill="#fdfdfc"
       d="m 640.118,628.543 c 3.971,2.174 8.459,3.586 12.703,5.161 -8.119,5.453 -14.394,8.788 -24.212,10.469 -3.935,-0.279 -5.93,-0.996 -9.262,-2.999 3.839,-0.519 8.639,-0.887 12.217,-2.316 4.961,-1.98 6.642,-5.728 8.554,-10.315 z"
       id="path8-5" /><path
       fill="#fdfdfc"
       d="m 705.923,1094.25 c 4.342,-0.56 8.142,-1.1 12.271,0.87 2.466,1.17 4.391,3.12 5.181,5.77 1.472,4.95 -1,8.73 -3.395,12.81 -1.011,1.4 -0.932,1.79 -2.647,2.33 -4.282,-17.52 -6.795,-11.61 -11.41,-21.78 z"
       id="path9-5"
       style="fill:#cc0400;fill-opacity:1" /><path
       fill="#fdfdfc"
       d="m 683.212,1129.6 1.71,1.73 -3.598,2.22 c 3.266,0.64 7.422,0.21 10.792,0.19 -0.163,6.08 -0.279,12.11 -3.247,17.57 -5.22,-3.58 -9.936,-7.15 -14.523,-11.55 a 350.859,350.859 0 0 1 8.866,-10.16 z"
       id="path10-1" /><path
       fill="#fdfdfc"
       d="m 439.616,1268.73 c 1.078,1.09 1.08,1.29 1.473,2.74 3.157,11.63 -9.674,30.77 -15.128,40.66 -0.484,-1.16 1.359,-21.83 1.397,-25.41 0.898,-0.06 1.709,-0.04 2.613,0.02 l 1.042,0.07 c 5.096,-3.77 6.785,-12.23 8.603,-18.08 z"
       id="path11-7" /><path
       fill="#fdfdfc"
       d="m 720.745,600.197 c 1.042,0.325 3.826,1.308 4.52,2.055 3.958,4.258 2.828,29.094 21.147,47.895 -2.13,-0.598 -3.911,-1.483 -5.723,-2.75 -15.033,-10.518 -17.014,-30.592 -19.944,-47.2 z"
       id="path12-1" /><path
       fill="#fdfdfc"
       d="m 830.547,689.641 c 4.083,2.417 8.083,7.177 10.522,11.235 7.494,12.472 4.489,26.69 1.113,39.896 -0.315,1.086 -0.817,1.84 -1.4,2.799 -1.371,-3.956 -0.631,-9.247 -0.619,-13.424 0.042,-15.22 -2.565,-27.035 -9.616,-40.506 z"
       id="path13-1" /><path
       fill="#fdfdfc"
       d="m 663.99,1106.48 c 4.809,1.15 9.701,1.96 14.566,2.84 -0.071,4.73 0.798,12.96 -2.389,16.48 -1.356,1.18 -2.76,2.29 -4.153,3.41 l -2.342,-0.37 c -5.06,-5.01 -4.88,-15.57 -5.682,-22.36 z"
       id="path14-5" /><path
       fill="#fdfdfc"
       d="m 841.479,686.517 c 0.327,0.091 0.656,0.17 0.98,0.271 4.97,1.549 10.495,7.042 12.902,11.537 6.601,12.329 2.689,26.892 -1.08,39.425 l -0.497,1.089 c -0.949,-1.304 -0.041,-22.815 -0.98,-27.304 -1.966,-9.404 -6.018,-17.099 -11.325,-25.018 z"
       id="path15-2" /><path
       fill="#fdfdfc"
       d="m 740.805,1085.99 c 3.603,3.55 4.62,8.92 4.718,13.8 0.078,3.9 0.01,9.4 -2.784,12.25 l -0.41,-2.46 c -2.377,0.16 -4.455,0.14 -6.817,-0.19 -2.872,-2.73 -3.295,-6.1 -4.476,-9.83 2.61,-5.64 6.801,-8.46 9.769,-13.57 z"
       id="path16-7" /><path
       fill="#fdfdfc"
       d="m 673.897,1081.73 c 2.264,-0.04 4.529,0.09 6.792,0.18 2.531,1.7 3.776,3.08 4.555,6.23 0.866,3.51 -0.478,8 -2.134,11.09 l -3.446,0.24 -13.691,-1.9 c 2.173,-5.66 4.862,-10.64 7.924,-15.84 z"
       id="path17-6" /><path
       fill="#fdfdfc"
       d="m 708.394,1062.39 0.964,0.11 c 1.354,3.2 -1.36,10.95 -2.187,14.5 -4.99,0.85 -9.716,1.53 -14.785,1.46 -1.336,-1.69 -3.421,-3.87 -4.023,-5.95 -0.567,-1.96 0.332,-3.04 1.148,-4.73 4.696,-4.12 12.87,-4.5 18.883,-5.39 z"
       id="path18-1" /><path
       fill="#fdfdfc"
       d="m 715.017,1133.02 c 3.078,2.41 4.44,9.39 5.636,13.18 -4.775,2.23 -9.696,3.78 -14.715,5.36 -1.898,-0.06 -3.306,-0.31 -5.124,-0.86 -1.491,-3.97 0.029,-8.94 0.618,-13.16 z"
       id="path19-4" /><path
       fill="#fdfdfc"
       d="m 866.607,678.771 c 0.695,0.192 1.388,0.393 2.075,0.613 5.906,1.893 10.817,7.436 13.498,12.876 6.181,12.542 4.537,28.562 0.12,41.355 l -0.341,0.411 c -1.15,-0.314 -0.338,-14.119 -0.571,-16.916 -1.189,-14.231 -5.356,-27.498 -14.781,-38.339 z"
       id="path20-2" /><path
       fill="#fdfdfc"
       d="m 728.213,1116.65 c 0.878,0.45 1.628,0.78 2.62,0.9 2.085,0.24 4.544,0.39 6.389,1.5 2.367,1.43 2.632,2.64 3.114,5.11 -1.501,4.66 -5.464,8.48 -8.615,12.14 l -2.694,2.8 -1.803,-0.43 c -3.421,-4.28 -5.192,-10.45 -4.403,-15.96 0.441,-3.08 3.111,-4.33 5.392,-6.06 z"
       id="path21-3" /><path
       fill="#fdfdfc"
       d="m 801.419,688.713 c 2.701,11.869 1.007,24.736 1.991,36.84 0.358,4.395 3.23,11.181 2.305,15.141 l -1.988,-1.131 c -2.596,-4.504 -4.67,-8.953 -6.204,-13.936 -4.194,-13.622 -2.591,-24.45 3.896,-36.914 z"
       id="path22-2" /><path
       fill="#fdfdfc"
       d="m 718.899,1062.71 c 5.13,3.05 16.615,9.5 18.024,15.63 0.405,1.76 -0.158,2.01 -0.973,3.51 -3.399,1.71 -6.626,3.84 -10.536,3.32 -0.167,0.96 -0.135,0.54 -0.128,1.6 0.002,0.26 0.009,0.52 0.014,0.78 l -2.162,0.11 c -2.295,-1.8 -3.832,-2.75 -5.294,-5.28 1.09,-1.28 3.015,-1.03 4.656,-1.22 l -0.011,-1.34 -4.711,-3.04 0.411,-0.94 c -1.063,-1.75 0.402,-10.53 0.71,-13.13 z"
       id="path23-2" /><path
       fill="#fdfdfc"
       d="m 820.016,689.757 c 0.5,0.505 0.589,0.566 1.072,1.229 11.277,15.487 10.101,34.17 7.868,52.183 l -0.506,-0.01 c -6.139,-6.471 -7.538,-43.393 -8.434,-53.402 z"
       id="path24-1" /><path
       fill="#fdfdfc"
       d="m 707.459,594.571 c 1.236,0.512 3.733,1.432 4.689,2.315 2.634,2.436 4.825,16.004 5.836,19.771 4.155,15.47 9.312,27.815 18.919,40.765 -0.637,-0.2 -1.137,-0.322 -1.721,-0.616 -20.284,-10.25 -21.146,-43.007 -27.29,-60.998 z"
       id="path25-6" /><path
       fill="#fdfdfc"
       d="m 810.339,687.707 c 0.204,0.183 0.446,0.33 0.612,0.548 4.955,6.493 6.561,45.892 6.734,55.967 -12.626,-16.485 -9.552,-37.225 -7.346,-56.515 z"
       id="path26-8" /><path
       fill="#fdfdfc"
       d="m 689.861,1107.69 c 6.053,2.49 12.217,3.41 18.628,4.46 0.174,2.89 1.123,8.25 -0.03,10.79 -1.052,2.31 -3.033,2.62 -5.211,3.59 l 0.083,0.86 c -4.977,-0.44 -9.584,-1.65 -14.396,-2.96 0.003,-5.63 0.386,-11.13 0.926,-16.74 z"
       id="path27-5"
       style="fill:#cc0d09;fill-opacity:1" /><path
       fill="#fdfdfc"
       d="m 679.818,860.087 c -0.135,1.057 0.024,0.709 -0.499,1.57 -10.435,17.181 -18.964,32.732 -21.757,52.984 -1.147,8.321 -1.324,16.726 -2.796,25.009 l -0.21,1.157 c -0.847,-7.284 -1.541,-14.548 -1.446,-21.891 0.308,-24.032 9.759,-42.299 26.708,-58.829 z"
       id="path28-7" /><path
       fill="#fdfdfc"
       d="m 853.896,680.748 c 6.373,3.375 12.034,9.58 15.272,15.993 6.852,13.572 4.35,26.269 -0.177,40.004 -0.653,1.347 -1.4,2.66 -2.105,3.981 -0.958,-0.689 -0.408,-2.173 -0.338,-3.316 1.303,-21.378 -0.978,-38.328 -12.652,-56.662 z"
       id="path29-6" /><path
       fill="#fdfdfc"
       d="m 679.983,853.771 1.155,0.479 -0.345,1.347 -0.877,0.751 c -34.36,29.785 -26.759,45.682 -29.38,84.911 -4.935,-14.06 -6.159,-34.04 -2.128,-48.24 4.849,-17.087 16.268,-30.575 31.575,-39.248 z"
       id="path30-1" /><path
       fill="#fdfdfc"
       d="m 308.906,633.351 c 1.537,-0.288 3.1,-0.336 4.658,-0.443 l 0.918,1.44 c -0.581,3.663 -2.14,7.013 -3.528,10.431 -7.464,1.864 -20.061,6.634 -27.474,5.567 -3.778,-3.727 -7.3,-7.79 -10.91,-11.684 12.129,-1.001 24.31,-3.425 36.336,-5.311 z"
       id="path31-8" /><path
       fill="#fdfdfc"
       d="m 688.048,586.69 c 19.04,4.551 18.145,35.191 23.969,50.37 a 111.016,111.016 0 0 0 25.296,39.156 c -4.82,-1.327 -9.108,-5.21 -12.772,-8.493 -28.548,-25.583 -16.606,-57.941 -36.493,-81.033 z"
       id="path32-9" /><path
       fill="#fdfdfc"
       d="m 302.794,612.274 c 0.209,-0.04 0.415,-0.103 0.628,-0.121 4.26,-0.346 11.615,7.693 14.755,10.396 -14.515,1.841 -28.821,4.473 -43.194,7.173 -4.78,0.999 -9.719,1.377 -14.57,1.907 l 11.178,-12.613 c 10.279,-2.597 20.829,-4.519 31.203,-6.742 z"
       id="path33-2" /><path
       fill="#fdfdfc"
       d="m 758.516,736.763 c 2.722,15.649 -3.13,44.405 -3.809,61.765 -11.574,6.18 -22.832,13.142 -34.179,19.739 -1,-3.195 34.191,-73.616 37.988,-81.504 z"
       id="path34-7" /><path
       fill="#fdfdfc"
       d="m 458.999,1286.69 c 1.526,1.87 2.578,4.23 3.462,6.47 5.791,14.71 3.157,35.06 -3.153,49.18 -4.078,9.12 -15.487,27.54 -25.23,31.31 -1.812,-3.94 -2.013,-10.36 -2.696,-14.74 -0.986,-4.1 -1.373,-8.34 -1.904,-12.52 4.78,-2.97 11.165,-6.45 13.155,-12.11 -5.235,1.09 -12.023,6.61 -16.924,9.19 15.091,-22.38 23.388,-30.28 33.29,-56.78 z"
       id="path35-9" /><path
       fill="#fdfdfc"
       d="m 335.016,1117.97 c 16.542,2.6 33.952,4.38 49.981,9.33 17.916,5.54 6.506,4.87 8.431,16.82 0.53,3.29 3.428,7.53 5.017,10.48 l -1.905,0.15 c -16.035,-3.3 -56.419,-7.89 -68.512,-13.15 -1.512,-7.26 4.163,-17.04 6.988,-23.63 z"
       id="path36-5" /><path
       fill="#fdfdfc"
       d="m 392.329,1191.5 c 2.645,-0.36 6.209,-1.37 8.58,0.05 -0.098,1.28 -0.14,2.61 -0.334,3.88 -0.908,5.93 2.107,13.1 0.835,18.15 -9.951,2.43 -20.215,3.31 -30.323,4.89 -10.095,1.57 -20.014,3.88 -29.956,6.21 -0.17,-0.1 -0.345,-0.19 -0.51,-0.3 -4.425,-2.92 -9.689,-8.03 -10.471,-13.49 -0.376,-2.62 0.621,-5.17 2.354,-7.13 9.529,-10.74 45.88,-10.96 59.825,-12.26 z"
       id="path37-4" /><path
       fill="#fdfdfc"
       d="m 766.418,726.278 c 8.37,2.139 14.881,18.989 20.186,25.428 9.108,11.055 23.174,13.674 36.702,14.918 -8.101,3.786 -16.375,7.265 -24.556,10.879 -13.345,5.901 -26.486,12.453 -39.583,18.882 2.407,-21.33 2.124,-50.23 7.251,-70.107 z"
       id="path38-3" /><path
       fill="#fdfdfc"
       d="m 324.432,1150.15 c 22.437,1.88 46.328,7.43 68.02,13.5 3.51,4.16 5.979,8.3 8.353,13.2 l -13.029,1.25 c -20.785,4.6 -41.708,1.43 -62.676,5.55 -4.06,-3.59 -8.057,-7.34 -8.935,-12.96 -1.197,-7.68 3.784,-14.81 8.267,-20.54 z"
       id="path39-1" /><path
       fill="#fdfdfc"
       d="m 857.611,367.202 c 4.107,1.013 8.084,2.749 12.031,4.266 -21.39,42.599 -43.196,84.874 -63.769,127.885 -4.188,-1.842 -8.295,-3.938 -12.421,-5.917 6.455,-17.915 15.737,-35.05 24.203,-52.085 12.63,-25.414 24.591,-50.207 39.956,-74.149 z"
       id="path40-2" /><path
       fill="#fdfdfc"
       d="m 876.214,377.529 c 32.792,29.645 56.583,57.558 71.786,99.734 8.469,23.496 18.586,70.458 7.632,93.832 -2.518,-1.269 -4.775,-2.644 -7.067,-4.287 -2.418,-4.466 -0.97,-20.843 -1.336,-27.151 -3.662,-63.125 -30.847,-109.935 -77.16,-151.155 z"
       id="path41-3" /><path
       fill="#fdfdfc"
       d="m 408.497,1108.7 c 1.993,0.06 3.607,0.56 5.48,1.16 8.987,8.58 31.096,95.75 31.827,111.99 0.489,10.88 -1.471,29.44 -9.545,37.63 -2.121,2.15 -6.463,5.66 -9.54,5.64 l -0.224,-2.01 c -1.697,-8.78 -4.877,-20.05 -3.86,-28.95 0.832,-7.29 6.131,-8.92 4.678,-17.7 -1.06,-0.73 -2.717,-1.73 -3.407,-2.82 -1.886,-2.99 -0.678,-9.47 -1.83,-13.13 -1.755,-5.58 -5.385,-11.31 -7.99,-16.58 l 0.488,-0.86 c 1.911,-0.13 4.457,-0.01 6.111,-1.08 1.093,-0.7 1.084,-1.33 1.251,-2.56 0.882,-6.49 -6.795,-14.83 -10.516,-19.82 11.145,-21.87 -9.459,-32.84 -9.978,-44.38 1.336,-3.23 4.25,-4.68 7.055,-6.53 z"
       id="path42-3" /><path
       fill="#fdfdfc"
       d="m 801.677,363.446 c 16.008,0.108 31.444,0.817 47.301,3.076 -2.025,3.704 -4.45,7.171 -6.789,10.682 -69.63,-6.234 -124.792,11.259 -181.988,50.975 -7.525,5.413 -14.733,11.303 -22.007,17.049 l -9.606,-3.953 a 65.9746,65.9746 0 0 1 1.18,-1.33 c 43.761,-47.751 108.019,-73.482 171.909,-76.499 z"
       id="path43-4" /><path
       fill="#fdfdfc"
       d="m 948.33,748.344 c 4.844,-0.694 9.521,-0.617 14.403,-0.482 -18.486,8.023 -40.56,11.481 -60.083,16.655 -47.205,12.511 -93.938,27.914 -136.421,52.426 -56.937,32.851 -80.378,62.282 -97.288,125.303 a 536.183,536.183 0 0 0 -3.029,12.082 c -0.842,-30.398 7.863,-62.723 26.301,-87.153 52.715,-69.85 172.337,-107.122 256.117,-118.831 z"
       id="path44-1" /><path
       fill="#fdfdfc"
       d="m 471.671,1298.46 c 8.523,7.03 17.652,15.9 24.298,24.71 2.942,19.96 2.14,38.28 -7.133,56.68 -5.706,11.32 -21.688,30.62 -34.223,34.79 l -2.947,-2.48 c -0.154,-0.55 -0.621,-1.11 -0.462,-1.66 0.236,-0.82 5.975,-5.48 7.068,-6.52 5.866,-5.6 12.176,-12.12 15.738,-19.44 -1.692,-0.56 -16.642,19.41 -22.552,20.27 l -2.169,2.25 -1.592,-0.05 -0.577,-1.16 c 1.257,-5.12 7.456,-11.24 10.748,-15.47 -0.321,-0.05 -8.928,8.04 -10.474,8.93 -0.859,0.49 -1.634,-0.03 -2.553,-0.28 -0.992,0.87 -1.863,1.49 -3.04,2.08 l -1.118,-1.57 c 0.527,-6.83 12.509,-16.08 16.302,-22.46 -4.71,4.61 -11.325,12.38 -17.577,14.19 l -1.312,-1.18 c -0.15,-3.79 1.799,-6.64 3.545,-9.88 -1.953,0.65 -3.809,1.61 -5.674,2.48 l -0.321,-1.1 c 4.683,-7.82 12.46,-13.36 18.342,-20.21 16.696,-19.47 19.579,-38.25 17.683,-62.92 z"
       id="path45-1" /><path
       fill="#fdfdfc"
       d="m 503.576,1330.53 c 8.284,5.02 15.921,13.59 23.266,20.04 -7.115,34.76 -8.833,71.19 -17.422,105.51 -1.324,2.09 -3.215,4.35 -5.227,5.85 -1.811,1.35 -1.978,1.48 -4.189,1.13 -0.318,-0.75 -0.915,-1.44 -0.954,-2.26 -0.157,-3.31 7.96,-16.61 9.137,-21.99 0.088,-0.4 0.167,-0.8 0.25,-1.2 -2.793,6.05 -9.328,15.17 -15.399,18.15 l -1.32,-0.9 c -0.208,-8.17 13.918,-22.73 16.49,-32.51 l 0.337,-1.32 c -4.941,8.12 -14.306,21.52 -22.647,26.1 -2.832,-0.39 -5.562,-4.22 -7.236,-6.38 5.028,-2.09 8.393,-7.5 10.843,-12.11 0.666,-0.46 1.244,-0.84 1.743,-1.5 3.114,-4.1 9.915,-14.62 9.158,-19.64 -3.81,5.03 -7.352,10.26 -11.089,15.35 -3.197,4.35 -9.68,14.06 -15.126,14.89 l -1.382,-3.13 2.026,3.16 -1.89,-1.97 c -0.107,-2.4 8.898,-13.95 10.774,-20.46 -2.145,3.71 -4.373,7.56 -7.582,10.47 -1.976,1.79 -5.077,3.99 -7.789,3.8 -0.018,-5.97 10.017,-12.83 13.289,-17.9 -6.284,3.19 -10.999,11.73 -17.982,12.95 -3.098,-1.39 -3.605,-3.22 -5.239,-6.03 8.983,-2.79 18.949,-12.78 24.8,-19.78 18.044,-21.61 22.897,-40.91 20.36,-68.32 z"
       id="path46-3" /><path
       fill="#fdfdfc"
       d="m 611.634,447.816 a 1215.52,1215.52 0 0 1 265.458,95.551 c 18.331,9.214 36.919,18.439 54.349,29.286 7.842,4.88 18.285,7.724 24.301,14.774 0.685,3.138 -0.306,4.15 -1.633,6.875 l -0.652,0.637 c -0.588,0.133 -1.177,0.537 -1.765,0.4 -3.707,-0.86 -14.088,-8.818 -18.198,-11.138 A 1953.05,1953.05 0 0 0 882.283,556.371 1185.21,1185.21 0 0 0 690.33,478.297 c -25.543,-7.792 -51.742,-13.229 -77.251,-20.996 -1.922,-2.686 -1.426,-6.298 -1.445,-9.485 z"
       id="path47-8" /><path
       fill="#fdfdfc"
       d="m 443.324,1426.71 c 5.004,4.24 9.473,10.87 13.801,15.88 9.172,10.62 38.629,45.48 49.283,50.46 -0.222,5.22 -0.915,10.14 -1.87,15.28 -0.797,-0.05 -1.624,-0.16 -2.369,-0.47 -8.894,-3.69 -35.832,-31.88 -39.424,-40.71 1.913,21.71 6.787,43.64 10.401,65.16 3.421,20.37 5.847,41.79 10.795,61.8 0.991,12.28 4.114,24.42 5.181,36.74 1.143,13.19 -0.686,27.23 -1.881,40.41 -6.015,-14.66 -8.845,-43.49 -12.075,-60.6 -11.512,-60.99 -23.914,-122.37 -31.842,-183.95 z"
       id="path48-7" /><path
       fill="#fdfdfc"
       d="m 593.787,541.405 c 97.036,22.822 194.43,57.136 280.015,108.981 9.781,5.924 23.916,12.579 32.062,20.369 l -4.456,6.837 -1.95,1.16 c -1.954,-0.446 -36.599,-22.488 -43.256,-26.367 -30.498,-17.772 -62.53,-32.662 -95.042,-46.364 -26.207,-11.045 -53.206,-22.338 -80.425,-30.49 -13.067,-3.914 -26.181,-7.99 -39.418,-11.289 -13.188,-3.286 -37.403,-5.991 -48.471,-12.288 -1.229,-3.488 0.12,-7.063 0.941,-10.549 z"
       id="path49-4" /><path
       fill="#fdfdfc"
       d="m 876.318,886.294 c 21.652,-2.358 54.778,8.76 76.054,14.438 -0.197,4.041 -0.943,8.03 -1.583,12.02 -10.379,-3.603 -20.677,-6.074 -31.465,-8.131 -9.996,-1.906 -20.567,-4.382 -30.76,-4.296 -11.869,0.099 -24.228,3.467 -35.708,6.274 -58.139,14.219 -103.365,41.458 -152.135,74.593 -12.007,8.158 -42.025,32.828 -56.605,30.518 l -0.22,-1.41 2.127,0.8 -1.234,-1.15 c 11.017,-12.117 25.945,-21.797 39.049,-31.547 56.941,-42.368 121.327,-80.522 192.48,-92.109 z"
       id="path50-2" /><path
       fill="#fdfdfc"
       d="m 666.904,1020.57 c 1.441,0.81 2.685,2.02 3.953,3.07 1.2,6.6 -15.7,30.09 -19.535,36.89 -25.241,44.76 -44.522,95.46 -60.913,144.09 -43.022,127.64 -61.921,260.76 -76.473,394.18 a 2743.09,2743.09 0 0 0 -8.115,89.7 c -1.28,16.87 -1.127,35.68 -4.678,52.15 -0.052,0.24 -0.11,0.48 -0.164,0.71 l -0.512,2.89 c -1.566,-1.91 -2.088,-5.58 -2.586,-8 -3.51,-16.97 1.764,-46.19 3.294,-64.11 1.893,-22.16 3.283,-44.31 5.603,-66.45 20.676,-197.27 49.695,-415.28 160.126,-585.12 z"
       id="path51-7" /><path
       fill="#fdfdfc"
       d="m 248.602,392.587 c 2.558,1.763 33.634,55.631 39.827,63.974 8.145,10.972 17.339,19.873 28.246,28.084 -20.442,14.223 -31.973,30.16 -38.805,54.126 -0.062,1.436 -0.509,2.068 -1.307,3.238 -4.391,-2.977 -7.615,-9.569 -10.84,-13.838 -12.35,-16.346 -32.671,-24.031 -52.032,-27.662 25.457,-27.871 29.233,-72.34 34.911,-107.922 z"
       id="path52-7" /><path
       fill="#fdfdfc"
       d="m 306.506,656.297 2.226,-0.183 c 4.344,8.313 14.962,85.842 17.951,103.11 a 14213.1,14213.1 0 0 1 40.362,235.357 c 5.932,35.689 13.061,71.139 17.536,107.079 l -20.327,0.4 c -3.561,-4.01 -69.52,-401.013 -78.318,-442.271 6.875,-0.995 13.724,-2.312 20.57,-3.492 z"
       id="path53-9" /><path
       fill="#fdfdfc"
       d="m 800.451,383.412 c 12.14,-0.933 24.197,-0.047 36.3,0.953 -18.393,34.721 -35.394,70.283 -52.85,105.488 -24.051,-8.622 -48.174,-17.393 -72.656,-24.71 -20.708,-5.916 -40.911,-12.825 -61.885,-17.957 44.749,-36.003 93.284,-59.103 151.091,-63.774 z"
       id="path54-3" /><path
       fill="#fdfdfc"
       d="m 868.134,395.823 c 3.978,3.094 7.727,6.783 11.29,10.345 43.531,43.536 59.56,96.461 59.814,156.821 l -34.761,-17.938 a 1017.54,1017.54 0 0 0 -90.352,-42.665 c 6.001,-14.119 13.425,-27.75 20.328,-41.449 a 2047.91,2047.91 0 0 1 33.681,-65.114 z"
       id="path55-1" /><path
       fill="#fdfdfc"
       d="m 402.681,1280.34 c 2.393,-0.43 4.426,-0.5 6.848,-0.29 3.262,7.1 6.602,43.16 8.189,53.53 4.871,31.82 10.262,63.68 15.68,95.41 a 42650.2,42650.2 0 0 1 94.137,542.51 c -0.626,0.37 -1.26,0.67 -1.949,0.91 -4.017,1.4 -7.366,0.65 -11.093,-1.14 -2.497,1.45 -4.783,2.04 -7.621,1.52 -1.656,-2.12 -2.063,-6.07 -2.555,-8.67 -9.514,-50.24 -17.225,-100.96 -25.898,-151.36 l -39.204,-221.62 a 12913.8,12913.8 0 0 1 -38.251,-223.83 c -4.559,-28.31 -10.003,-56.25 -13.577,-84.72 z"
       id="path56-9" /><path
       fill="#fdfdfc"
       d="m 611.657,463.311 c 23.812,4.563 52.443,13.825 75.758,21.221 66.488,21.092 129.704,45.28 191.908,77.149 24.103,12.349 46.729,27.484 70.809,39.878 -7.379,12.267 -32.876,56.403 -41.566,64.104 l -1.954,-0.899 c -0.429,-10.876 33.817,-50.054 33.42,-64.083 -7.524,0.593 -33.61,58.095 -39.873,60.2 l -2.684,-2.187 c -3.162,-9.023 31.074,-52.044 31.338,-61.522 0.042,-1.483 -0.147,-1.326 -1.006,-2.353 -5.256,1.616 -9.361,11.975 -11.975,16.681 l -24.582,42.571 c -2.11,-1.528 -4.127,-3.199 -6.169,-4.816 4.371,-9.507 30.4,-53.065 30.263,-57.491 l -1.587,-0.378 c -8.837,5.513 -27.187,45.02 -32.742,55.737 l -8.954,-5.238 c 6.254,-10.416 28.436,-47.367 29.749,-56.988 0.127,-0.931 -0.339,-1.102 -0.897,-1.798 -6.58,4.844 -27.13,47.783 -31.988,57.518 -22.335,-13.258 -47.137,-24.541 -70.821,-35.192 -65.043,-29.251 -133.001,-54.959 -203.203,-68.592 4.49,-24.633 10.955,-49.16 16.756,-73.522 z"
       id="path57-8" /><path
       fill="#fdfdfc"
       d="m 955.582,756.129 c 1.533,-0.296 1.651,-0.231 3.09,0.401 1.018,10.439 0.281,21.457 0.194,31.955 a 1084.35,1084.35 0 0 1 -3.083,79.72 c -16.988,-13.94 -33.535,-27.991 -49.42,-43.191 11.503,18.734 32.285,33.362 48.958,47.213 -0.049,6.261 -0.475,12.464 -0.922,18.706 -10.143,-3.408 -16.943,-9.271 -26.199,-14.174 -22.032,-11.67 -44.081,-20.279 -68.568,-25.016 8.977,4.651 19.246,7.16 28.82,10.395 a 209.859,209.859 0 0 1 36.414,16.122 c -10.581,-1.723 -21.185,-5.511 -31.922,-5.844 -28.802,-0.894 -79.376,20.106 -106.515,31.51 -43.827,20.177 -81.21,46.453 -119.668,75.124 1.181,-26.837 14.589,-68.079 28.275,-91.257 46.693,-79.076 177.357,-110.213 260.546,-131.664 z"
       id="path58-6" /><path
       fill="#fdfdfc"
       d="m 608.191,565.627 c 21.281,5.767 42.955,10.98 63.858,17.99 3.422,6.166 6.638,12.244 8.726,19.008 8.886,28.781 5.072,53.277 30.106,76.766 6.574,6.169 15.095,10.607 24.349,9.961 15.155,-1.057 17.634,-20.594 26.253,-30.075 4.239,-4.663 10.022,-6.888 16.239,-7.023 4.193,-0.09 8.281,1.113 11.252,4.177 3.392,3.499 4.647,8.278 4.379,13.058 -0.758,13.534 -11.389,23.049 -20.816,31.461 -0.613,4.098 -0.704,8.687 -3.931,11.599 -2.859,0.74 -5.353,1.2 -8.247,0.307 -2.19,-0.676 -2.892,-2.083 -3.872,-4.043 -0.974,-1.948 -1.644,-3.06 -3.227,-4.545 -1.79,0.452 -1.863,1.327 -2.289,3.019 -4.282,17.002 -5.168,31.622 -14.805,47.221 -3.3,5.342 -7.24,9.846 -12.212,13.68 -18.256,14.078 -74.827,39.349 -97.639,44.748 -11.384,2.694 -27.54,5.756 -37.983,-1.112 -19.432,-12.781 9.867,-38.256 5.658,-56.044 -0.957,-4.045 -3.078,-4.401 -6.146,-6.5 -2.096,-1.434 -2.121,-2.219 -2.549,-4.546 4.061,-5.12 32.806,8.062 41.753,5.972 -0.094,-0.238 -0.154,-0.492 -0.283,-0.714 -3.343,-5.763 -18.479,-8.478 -24.538,-10.031 -5.208,-1.192 -10.115,-2.515 -15.013,-4.675 -2.663,-4.52 1.388,-13.57 -0.17,-19.532 -0.065,-0.248 -0.144,-0.492 -0.216,-0.739 l 1.083,0.801 -1.387,-1.979 c 5.332,-2.139 11.637,1.008 17.293,-1.418 2.882,-1.237 4.601,-3.533 5.6,-6.454 2.113,-6.178 -3.448,-15.485 -6.136,-21.048 -0.295,5.082 1.329,11.749 -0.618,16.542 -0.764,1.881 -1.509,1.967 -3.244,2.784 -4.205,0.111 -8.078,-2.581 -11.674,-4.521 -8.991,0.63 -17.113,5.008 -25.908,5.577 -3.372,0.218 -4.701,-0.085 -7.233,-2.204 -1.722,-3.792 -1.09,-7.271 0.311,-11.051 4.033,-10.873 30.669,-50.248 39.083,-58.621 2.256,-2.246 5.735,-3.6 8.618,-4.882 0.775,11.128 3.577,17.443 11.581,25.479 3.806,3.821 12.64,12.387 18.571,11.859 1.94,-0.173 2.909,-0.709 4.005,-2.209 -1.56,-0.281 -3.736,-0.518 -5.138,-1.26 -2.013,-1.066 -3.29,-2.169 -3.921,-4.305 5.16,0.232 9.315,-1.773 13.209,-4.999 -4.266,1.118 -9.564,3.009 -13.911,1.805 -3.32,-0.921 -7.104,-3.653 -8.781,-6.667 3.359,-0.632 6.767,0.271 10.176,0.075 11.145,-0.644 20.135,-6.787 28.929,-13.025 4.319,1.363 8.721,2.522 13.079,3.759 -6.626,-9.845 -15.462,-16.641 -26.799,-20.288 -11.266,-3.624 -31.218,-4.986 -41.889,0.842 -2.639,1.441 -3.848,4.577 -6.438,5.898 l -1.031,-5.802 c 13.968,-4.2 27.221,-10.69 41.414,-14.148 10.772,3.004 20.194,11.144 30.635,13.467 1.625,0.362 1.584,0.356 2.959,-0.5 -0.287,-0.996 -0.509,-1.84 -1.173,-2.667 -7.542,-9.401 -24.856,-17.586 -36.528,-19.624 -6.481,2.287 -38.153,14.841 -42.772,13.01 -1.344,-9.622 13.805,-35.163 19.398,-43.614 z"
       id="path59-5" /><path
       fill="#000000"
       d="m 774.446,656.951 c 2.502,-0.143 4.159,0.157 6.534,0.93 1.303,1.118 2.124,1.888 2.682,3.562 1.063,3.193 2.155,9.432 0.721,12.463 -1.908,-2.848 -4.632,-7.597 -7.777,-9.049 -2.003,-0.924 -2.629,-0.535 -4.61,0.071 -2.117,4.974 0.921,10.167 2.781,14.887 -3.044,-3.051 -5.46,-5.434 -9.883,-6.13 -0.278,-0.044 -0.558,-0.075 -0.837,-0.113 -0.228,4.805 2.419,5.78 4.817,9.457 1.532,2.348 1.358,4.385 0.942,7.056 -1.518,2.074 -1.775,2.394 -4.189,3.163 -3.117,0.993 -5.74,1.321 -8.684,-0.196 -1.413,-2.702 -1.749,-3.977 -1.016,-7.138 2.675,-11.532 8.4,-22.566 18.519,-28.963 z"
       id="path60-0" /><path
       fill="#fdfdfc"
       d="m 934.055,920.218 c 5.768,1.047 11.48,2.449 17.195,3.751 32.759,60.395 53.47,152.461 69.36,219.511 a 7321.8,7321.8 0 0 1 54.16,247.57 l 81.1,392.02 23.07,117.14 c 3.47,17.75 5.64,37.72 11.09,54.87 -7.16,3.06 -46.26,2.02 -54.81,0.25 4.68,-13.65 10.73,-28.38 12.52,-42.73 -4.82,13.7 -10.7,30.31 -18.15,42.68 -2.42,0.79 -4.5,0.67 -7,0.55 -1.48,-0.06 -0.85,0.22 -1.89,-0.93 4.85,-18.89 14.76,-37.54 17.74,-56.83 l 0.14,-0.95 c -4.43,10.88 -9.94,21.35 -14.52,32.18 -3.22,7.58 -5.65,15.62 -9.02,23.11 -0.72,1.61 -1.44,2.38 -2.79,3.48 -2.63,0.57 -4.45,0.21 -7.06,-0.37 -1.41,-1.35 -2.09,-1.59 -1.89,-3.72 0.33,-3.53 3.03,-7.56 4.17,-11 3.88,-11.83 19.4,-54.33 19.17,-62.86 -0.94,0.8 -0.77,0.44 -1.16,1.44 -4.81,12.5 -10.98,24.48 -15.82,37.04 -3.9,10.14 -6.47,20.98 -10.69,30.92 -1.12,2.64 -2.36,5.26 -4.44,7.3 -0.68,0.66 -1.36,0.39 -2.26,0.39 -2.09,-3.57 -2.12,-8.68 -1.43,-12.73 1.35,-7.89 5.33,-16.72 8.08,-24.3 8.57,-23.64 22.75,-55.5 26.63,-79.84 l 0.17,-1.13 c -5.93,17.79 -15.79,35.34 -22.96,52.83 -4.34,10.58 -7.77,26.47 -13.56,35.76 -1.65,-8.15 -2.95,-17.18 -2.11,-25.47 2.56,-25.14 25.8,-58.63 28.48,-87.28 -3.41,10.99 -10.09,27.96 -16.49,37.27 -1.82,7.07 -9.66,29.34 -14.19,34.13 -2,-7.29 -2.98,-16.66 -2.06,-24.12 1.1,-8.95 4.71,-17.67 7.68,-26.13 7.17,-20.42 16.49,-41.62 20.47,-62.84 -3.96,13.18 -11.94,26.46 -17.41,39.19 -4.22,9.8 -7.3,23.63 -13.31,32.17 -1.25,-8 -3.23,-16.67 -2.85,-24.78 1.04,-22.11 19.47,-53.36 24.52,-78.07 -1.47,4.93 -23.13,51.51 -26.37,57.04 -11.05,-34.49 12.85,-66.23 16.49,-99.67 -2.39,8.14 -18.24,49.09 -22.12,54.85 -2.66,-13.31 -5.47,-31.92 -2.01,-45 4.13,-15.59 11.9,-29.35 14.26,-45.66 -2.47,7.57 -13.09,31.45 -18.27,35.63 -2.15,-13.13 -3.27,-26.51 -4.95,-39.72 7.39,-12.84 13.38,-31.12 16.27,-45.75 -3.38,9.63 -10.71,24.6 -17.41,32.11 -2.93,-8.49 -2.72,-21.13 -3.74,-30.25 6.34,-10.06 13.7,-33.51 14.52,-45.29 -2.19,7.13 -10.74,27.87 -15.78,32.11 -1.24,-4.47 -1.56,-9.61 -2.21,-14.23 -4.01,-28.15 5.55,-35.51 10.62,-61.11 -3.76,9.32 -8.74,19.06 -13.66,27.81 -3.44,-10.7 -3.94,-24.38 -5.3,-35.59 6.55,-7.74 11.7,-29.44 13.91,-39.63 -3.18,9.09 -9.21,20.23 -14.61,28.19 -1.7,-4.7 -2.17,-10.61 -3.01,-15.57 -2.79,-16.46 -0.66,-26.13 4.6,-41.55 1.51,-4.42 3.06,-8.64 3.52,-13.32 0.04,-0.34 0.06,-0.68 0.09,-1.02 -2.81,6.72 -6.66,16.91 -11.96,21.88 -2.82,-13.61 -7.16,-30.93 -3.44,-44.55 2.59,-9.51 6.07,-18.52 7.79,-28.27 -2.17,5.93 -6.54,17.1 -11.53,21.06 -1.61,-4.11 -2.11,-9.26 -2.91,-13.61 -4.55,-24.54 1.18,-35.55 8.96,-58.09 -4.99,8.15 -9.53,16.31 -13.35,25.07 -2.8,-13.35 -4.57,-26.94 -6.58,-40.43 4.46,-9.46 7.9,-19.12 11.29,-29.01 -4.49,6.79 -8.41,13.85 -12.35,20.97 -1.69,-12.66 -4.15,-25.29 -6.26,-37.88 3.65,-8.97 7.12,-18.25 9.6,-27.62 -3.73,6.35 -6.99,13 -10.37,19.54 -7.182,-29.97 -10.348,-61.11 -15.44,-91.51 a 3053.18,3053.18 0 0 0 -25.341,-133.17 c -8.395,-39.536 -17.38,-80.097 -30.824,-118.232 z"
       id="path61-2" /><path
       fill="#fdfdfc"
       d="m 676.472,1030.38 c 7.346,1.99 20.41,16.54 28.444,21.55 a 53.4251,53.4251 0 0 0 -2.524,0.61 c -17.259,4.56 -29.212,12.98 -38.045,28.65 -8.085,14.35 -10.971,29.78 -6.318,45.79 4.546,15.64 14.759,24.67 28.578,32.36 -1.272,10.01 -3.962,20.13 -6.002,30.04 l -12.655,61.13 c -7.468,36.41 -12.946,73.75 -18.063,110.58 a 3418.99,3418.99 0 0 0 -25.014,285.51 3419.21,3419.21 0 0 0 -3.373,308.59 c -0.167,0.08 -0.335,0.16 -0.5,0.25 -1.169,0.61 -2.206,1.06 -3.526,1.31 -6.489,1.2 -79.101,0.69 -81.594,-0.86 -4.063,-11.08 40.98,-85.34 44.064,-106.51 l 0.16,-1.17 c -2.939,8.66 -21.476,41.87 -27.6,48.38 -2.076,6.38 -16.036,34.49 -20.619,37.62 -1.504,-3.75 -1.696,-9.08 -2.31,-13.13 8.652,-6.99 38.953,-72.56 45.446,-86.95 -9.035,4.24 -41.261,73.25 -46.477,76.52 -0.322,0.2 -0.663,0.37 -0.995,0.56 -0.368,-0.72 -0.666,-1.33 -0.895,-2.11 -3.737,-12.79 -4.182,-27.92 -6.441,-41.14 -3.945,-23.11 -13.498,-60.76 -13.926,-82.58 -0.185,-9.42 1.362,-19.28 2.233,-28.67 a 1533.15,1533.15 0 0 0 3.849,-48.44 c 9.54,-164.51 31.706,-347.4 83.339,-504.05 a 871.54,871.54 0 0 1 80.764,-173.84 z"
       id="path62-8" /><path
       fill="#fdfdfc"
       d="m 813.73,931.05 1.596,0.517 c -1.15,9.43 -4.818,19.344 -7.165,28.602 -3.109,12.267 -5.574,24.767 -8.081,37.169 a 1982.36,1982.36 0 0 0 -24.602,151.572 6905.14,6905.14 0 0 0 -42.534,542.43 10993.7,10993.7 0 0 0 -4.109,263.88 c -1.066,0.67 -2.108,1.14 -3.349,1.43 -6.791,1.55 -80.24,1.04 -91.082,0.12 -1.594,-0.13 -2.831,-0.64 -4.162,-1.48 a 1938.93,1938.93 0 0 1 -2.201,-80.54 3808.27,3808.27 0 0 1 15.399,-384.95 c 10.043,-110.73 24.671,-221.23 50.89,-329.43 3.602,0.19 7.19,0.31 10.782,-0.09 15.182,-1.69 26.453,-8.95 35.908,-20.74 9.965,-12.44 16.068,-27.25 14.063,-43.37 -3.686,-29.63 -22.751,-33.91 -42.715,-48.89 -13.823,-10.37 -27.318,-21.25 -40.906,-31.93 9.13,-7.27 19.244,-13.76 28.814,-20.467 35.902,-25.176 72.207,-48.379 113.454,-63.833 z"
       id="path63-6" /><path
       fill="#fdfdfc"
       d="m 891.048,911.182 c 11.043,-1.469 24.286,3.331 34.878,6.371 16.167,47.966 27.219,97.857 37.282,147.417 a 3639.69,3639.69 0 0 1 34.937,206.18 9479.6,9479.6 0 0 1 50.275,391.39 l 20.88,191.88 c 3.6,33.48 6.02,67.35 10.9,100.65 -0.75,0.47 -1,0.69 -1.78,0.99 -5.62,2.14 -186.529,1.76 -205.041,0.77 -2.137,-0.12 -3.857,-0.53 -5.836,-1.35 4.478,-2.68 26.496,-42.17 28.224,-48.72 -2.959,5.89 -32.459,45.94 -36.873,49.07 -0.341,0.18 -0.674,0.36 -1.025,0.52 -3.87,1.67 -8.653,0.62 -12.258,-1.14 0.191,-0.09 0.395,-0.17 0.573,-0.29 7.195,-4.8 33.972,-53.41 38.404,-63.5 1.45,-3.3 2.229,-6.69 2.87,-10.22 -2.518,5.57 -4.98,11.77 -9.942,15.63 -2.418,6.06 -37.885,56.81 -41.551,58.89 -5.232,2.33 -12.455,1.58 -17.729,-0.31 0.603,-0.25 0.913,-0.33 1.451,-0.83 12.055,-11.01 67.064,-92.53 68.606,-106.1 -1.11,2.59 -2.422,4.85 -4.053,7.14 -12.274,17.28 -25.665,33.76 -38.066,50.96 -7.208,9.99 -27.473,42.66 -34.926,48.77 -0.787,0.46 -1.432,0.86 -2.346,1.02 -8.366,1.47 -66.955,1.89 -71.728,-1.17 0.784,-42.13 0.38,-84.26 0.91,-126.39 a 8704.87,8704.87 0 0 1 5.192,-193.41 c 1.823,-46.32 5.378,-92.66 8.426,-138.92 A 6439.18,6439.18 0 0 1 776.8,1204.6 2570.69,2570.69 0 0 1 802.524,1021.42 c 5.405,-30.889 10.758,-63.021 19.469,-93.125 22.485,-9.264 45.854,-11.014 69.055,-17.113 z"
       id="path64-0" /><path
       fill="#000000"
       d="m 890.754,1259.87 c 0.119,9.07 -41.923,67.25 -50.264,76.12 -0.657,-10.75 40.931,-63.54 50.264,-76.12 z"
       id="path65-2" /><path
       fill="#000000"
       d="m 887.573,1319.02 c 0.004,0.43 -0.077,0.86 -0.152,1.28 -1.958,10.9 -45.284,68.51 -54.583,74.61 l -0.123,-0.99 c 17.404,-25.34 34.074,-52.18 54.858,-74.9 z"
       id="path66-4" /><path
       fill="#000000"
       d="m 886.409,1378.8 0.181,1.45 c -6.861,16.51 -60.545,82.52 -74.97,93.7 0.3,-6.07 39.028,-54.31 45.296,-61.65 9.605,-11.24 20.682,-21.66 29.493,-33.5 z"
       id="path67-8" /><path
       fill="#000000"
       d="m 867.8,1677.84 0.45,1.01 c -2.631,10.57 -64.568,91.65 -77.071,100.97 l -0.417,-0.97 c 13.892,-19.52 27.033,-39.06 41.871,-57.93 11.426,-14.54 24.299,-28.17 35.167,-43.08 z"
       id="path68-6" /><path
       fill="#000000"
       d="m 877.039,1527.85 0.395,1.42 c -9.138,17.14 -69.222,93.07 -85.372,104.57 l -0.445,-0.63 c 14.295,-21.63 35.014,-47.49 52.116,-67.08 11.07,-12.68 23.217,-24.81 33.306,-38.28 z"
       id="path69-5" /><path
       fill="#000000"
       d="m 865.255,1633.88 c 0.076,0.39 0.094,0.78 0.096,1.17 0.049,11.32 -67.729,98.41 -79.644,109.82 l -0.157,-0.78 c 15.374,-23.64 31.367,-47.4 48.239,-69.98 10.188,-13.64 21.425,-26.48 31.466,-40.23 z"
       id="path70-0" /><path
       fill="#000000"
       d="m 875.044,1576.82 0.261,1.96 c -11.336,18.25 -70.28,94.55 -85.428,105.17 0.122,-2.9 6.26,-10.05 8.185,-12.77 a 819.14,819.14 0 0 1 47.611,-61.11 c 9.627,-11.21 20.092,-21.75 29.371,-33.25 z"
       id="path71-9" /><path
       fill="#000000"
       d="m 887.287,1467.87 0.013,2.02 a 889.848,889.848 0 0 1 -73.182,95.99 c -4.561,5.19 -9.32,12.07 -15.045,15.92 l -0.211,-0.15 c -0.299,-9.81 77.19,-100.27 88.425,-113.78 z"
       id="path72-0" /><path
       fill="#000000"
       d="m 885.088,1427.77 0.25,2.28 c -13.33,23.49 -64.34,87.94 -85.647,102.93 l -0.135,-0.61 c 16.006,-24.26 39.166,-52.51 58.533,-74.71 8.742,-10.02 19.233,-19.13 26.999,-29.89 z"
       id="path73-0" /><path
       fill="#000000"
       d="m 876.113,1710.74 0.334,2.14 c -11.115,22 -68.955,105.95 -86.256,117.99 l -0.344,-1.05 a 1602.94,1602.94 0 0 1 57.2,-81.46 c 9.415,-12.67 20.333,-24.5 29.066,-37.62 z"
       id="path74-6" /><path
       fill="#000000"
       d="m 876.344,1756.7 0.351,1.95 c -6.933,21.57 -73.308,118.83 -90.878,131.29 l -0.239,-0.48 c 13.963,-20.76 26.697,-42.3 41.075,-62.79 16.325,-23.27 34.693,-45.84 49.691,-69.97 z"
       id="path75-1" /><path
       fill="#000000"
       d="m 888.359,1794.81 c 0.114,0.81 0.122,0.61 0.036,1.64 -0.331,3.95 -5.997,11.62 -8.079,15.18 a 918.677,918.677 0 0 1 -71.377,104.84 c -5.365,6.75 -10.834,14.89 -17.358,20.52 -1.23,-8.28 86.603,-128.15 96.778,-142.18 z"
       id="path76-3" /><path
       fill="#fdfdfc"
       d="m 425.51,68.5 870.43,0.386 -0.02,1903.284 c -0.64,0.37 -0.65,0.4 -1.45,0.72 -5.75,2.31 -194.42,0.62 -222.16,0.64 l -374.051,0.04 c -50.716,-0.23 -103.344,1.33 -153.8,-0.53 -2.171,-0.08 -4.012,-0.5 -6.047,-1.28 -1.345,-3.3 -1.695,-7.13 -2.309,-10.64 13.051,2.73 29.651,0.95 43.061,0.97 l 90.86,0.05 347.156,-0.04 c 21.82,-0.04 180.13,1.59 187.73,-1.29 -5.52,-24.25 -9.46,-48.92 -14.29,-73.31 l -26.85,-131.85 a 30088.9,30088.9 0 0 0 -73.02,-346.95 c -13.92,-64.95 -26.95,-130.01 -42.04,-194.7 -11.05,-47.37 -21.95,-94.61 -33.88,-141.77 -12.93,-51.13 -27.665,-105.734 -50.35,-153.46 0.96,-1.861 2.129,-4.196 2.419,-6.279 1.261,-9.049 -0.643,-20.082 -0.21,-29.481 1.612,-34.933 3.282,-69.592 3.337,-104.584 0.023,-14.694 0.355,-29.468 -0.877,-44.123 -19.521,0.273 -39.026,1.845 -58.496,3.173 1.309,-4.384 2.279,-9.043 2.842,-13.581 1.758,-14.157 -3.834,-24.303 -12.371,-35.036 l 0.726,-0.654 c 12.632,-11.514 80.557,-118.283 88.221,-136.16 5.375,-12.539 7.358,-24.882 8.061,-38.359 -9.08,14.171 -21.423,25.657 -30.399,40.19 0.753,-57.726 -16.776,-109.906 -55.644,-153.126 -9.022,-10.034 -24.466,-26.253 -35.831,-32.968 -15.789,-9.329 -39.708,-11.408 -57.563,-12.321 -75.455,-3.859 -137.259,24.732 -192.151,74.362 -1.892,-19.508 -1.534,-36.788 1.266,-56.196 -8.25,12.507 -16.704,31.381 -18.83,46.266 -0.976,6.829 -0.823,14.139 -1.074,21.051 -1.071,1.174 -2.079,2.537 -2.529,4.085 -2.512,8.627 -2.582,19.358 -4.522,28.381 -5.097,23.7 -12.379,47.613 -16.141,71.499 -0.494,3.138 -1.004,6.853 0.557,9.758 2.669,4.966 10.482,6.582 15.495,8.249 -6.126,11.048 -12.908,22.046 -17.359,33.908 -5.477,14.598 -1.169,14.402 3.583,26.61 0.825,2.122 0.659,4.584 -0.139,6.685 -6.869,18.073 -30.652,40.031 -38.698,59.958 -2.038,5.047 -3.547,10.857 -0.989,16.03 5.028,10.169 21.811,1.663 29.861,5.058 1.072,0.452 2.521,1.367 3.011,2.457 2.356,5.237 -0.565,10.431 -2.441,15.406 1.818,5.755 1.257,8.775 0.704,14.584 -0.684,7.185 3.429,9.277 7.038,14.429 6.41,9.15 -9.139,29.919 -10.684,40.295 -0.75,5.03 -0.666,11.005 2.674,15.137 8.863,10.962 34.401,10.416 47.24,8.852 7.918,-0.964 17.099,-3.639 25.028,-2.673 12.742,1.553 22.251,17.436 29.507,26.929 -14.055,9.712 -26.781,21.08 -33.602,37.152 -12.618,29.731 0.233,66.458 11.502,94.564 l 2.75,7.315 c -0.603,0.39 -1.209,0.778 -1.801,1.185 -7.47,5.136 -21.33,15.093 -22.635,24.873 a 7.8866,7.8866 0 0 0 1.706,5.96 c 3.448,4.22 9.997,4.35 14.964,4.88 -6.934,8.26 -13.873,16.52 -19.594,25.68 -44.249,70.85 -83.194,207.77 -101.403,288.57 -20.022,-15.83 -71.186,-60.55 -82.887,-80.52 2.697,-15.59 9.086,-26.22 6.453,-42.72 -2.204,-13.83 -29.044,-103.75 -36.783,-108.66 -6.506,-4.12 -15.88,-1.44 -22.989,-0.23 -5.84,-41.57 -13.901,-82.75 -20.899,-124.127 A 11016.7,11016.7 0 0 0 346.551,817.253 L 328.264,710.539 c -2.81,-16.867 -6.772,-33.949 -8.438,-50.957 -0.621,-6.346 -0.18,-14.236 2.406,-20.118 2.862,-6.512 7.268,-8.394 13.505,-10.693 -7.323,-10.382 -19.78,-16.479 -26.28,-27.03 -4.903,-7.957 -4.947,-18.936 -4.615,-27.944 2.277,-61.643 43.792,-66.738 47.188,-80.229 -0.816,-1.044 -0.684,-1.231 -2.096,-1.569 -4.853,-1.164 -12.002,2.598 -16.015,5.032 -30.699,18.621 -41.729,53.368 -37.207,87.674 0.59,4.475 4.148,14.05 2.989,17.961 -0.449,1.512 -0.983,1.412 -2.273,2.158 -0.855,-0.11 -1.606,-0.276 -2.363,-0.717 -3.534,-2.059 -5.393,-7.37 -6.276,-11.175 -8.29,-35.71 0.017,-83.171 35.49,-101.836 5.057,-2.66 22.118,-5.804 24.645,-9.902 -3.804,-2.188 -8.952,-1.617 -13.232,-2.384 -32.38,-5.803 -48.303,-39.657 -63.37,-65.25 -9.5,-16.135 -18.87,-32.343 -29.43,-47.817 -2.241,26.489 -5.084,53.226 -11.978,78.967 -7.407,27.657 -16.409,50.751 -42.406,65.771 16.234,-0.61 30.95,-0.815 46.064,6.271 18.334,8.596 31.83,24.742 38.692,43.644 2.803,7.72 13.289,37.869 9.509,44.721 -0.653,1.183 -1.932,2.016 -3.324,2.172 -0.423,0.048 -0.853,0.023 -1.278,-0.005 -2.394,-0.158 -6.076,-20.035 -6.94,-23.45 -4.634,-18.318 -13.46,-35.427 -27.686,-48.181 -17.47,-15.662 -35.969,-14.918 -57.967,-13.634 l 3.122,11.198 a 68.9412,68.9412 0 0 1 6.651,-1.389 c 13.964,-2.244 26.347,0.265 37.82,8.746 21.787,16.105 29.826,44.131 33.865,69.65 -6.596,8.949 -13.65,17.578 -20.255,26.54 6.898,1.454 12.571,2.975 18.199,7.401 6.611,5.201 10.104,12.016 12.346,19.992 6.577,23.408 8.944,48.91 13.048,72.898 l 22.127,124.831 26.177,151.584 c 5.678,32.52 12.234,65.1 16.01,97.9 -8.054,-0.63 -19.652,-3 -26.282,2.81 -7.397,6.48 -7.867,22.84 -8.696,32.21 -4.917,4.01 -7.365,8.78 -9.389,14.66 -10.177,29.6 10.29,18.69 18.183,35.04 -1.461,2.62 -2.945,5.26 -4.139,8.01 -3.732,8.61 -1.802,14.63 1.428,22.98 -1.535,3.77 -3.336,6.46 -5.881,9.61 0.675,2.4 1.353,4.82 2.234,7.15 3.607,9.56 11.97,17.5 21.298,21.47 3.741,1.59 5.747,1.52 9.388,0.08 l -0.023,-1.38 c -7.045,-3.22 -20.185,-13.25 -22.707,-20.85 -0.874,-2.64 -0.703,-3.82 0.375,-6.28 10.285,-9.35 57.227,-6.98 71.946,-7.22 0.295,3.55 0.305,8.4 2.525,11.33 1.978,2.6 3.812,3.12 6.955,3.41 0.313,0.03 0.627,0.05 0.941,0.07 0.13,1.32 -0.358,1.77 -0.943,2.92 -12.027,8.74 -43.017,6.53 -57.673,7.14 -2.974,0.12 -7.309,0.3 -9.377,2.54 6.769,3.07 23.174,3.27 31.065,4.25 -4.188,0.11 -9.586,-0.25 -13.567,0.98 -3.016,0.93 -4.358,2.32 -5.81,4.9 0.148,0.83 0.258,1.52 0.742,2.23 3.917,5.77 12.886,7.52 19.178,9.31 l 1.9,12.63 a 267.081,267.081 0 0 0 -16.889,33.33 c 5.447,12.92 17.104,23.64 28.079,32.04 4.193,18.3 6.725,37.03 9.826,55.54 a 9941.24,9941.24 0 0 0 17.633,106.71 23584.6,23584.6 0 0 0 52.677,300.66 l 16.933,99.98 c 2.866,16.78 4.793,35.5 9.702,51.69 -1.154,0.68 -2.296,1.31 -3.598,1.67 -8.964,2.45 -63.888,0.68 -78.079,0.67 a 21060.2,21060.2 0 0 0 -223.313,0.04 c -13.227,0.04 -116.5665,1.58 -122.4567,-1.73 L 69.9699,68.505 C 188.399,69.4815 307.083,69.7325 425.51,68.5 Z"
       id="path77-8" /><path
       fill="#000000"
       d="m 81.097,598.526 4.4351,0.844 c 2.3218,4.37 -3.9538,19.885 -5.3533,25.147 l -0.5284,1.709 c -0.2728,-0.807 -0.5285,-1.52 -0.5956,-2.379 -0.4287,-5.479 -1.1831,-21.387 2.0422,-25.321 z"
       id="path78-9" /><path
       fill="#000000"
       d="m 1285.71,980.869 c 1.06,6.87 0.24,15.014 0.18,22.021 l -10.85,-5.788 c -3.22,-1.81 -6.41,-3.681 -9.61,-5.528 6.88,-3.33 13.56,-7.081 20.28,-10.705 z"
       id="path79-3" /><path
       fill="#000000"
       d="m 79.2734,108.841 c 5.4167,5.561 13.9713,22.02 18.0526,29.396 l -0.5968,1.649 a 1188.21,1188.21 0 0 0 -17.039,3.83 c 0.0833,-11.615 -0.2584,-23.26 -0.4168,-34.875 z"
       id="path80-4" /><path
       fill="#000000"
       d="m 344.624,79.4844 c 17.352,0.0537 34.697,-0.736 52.049,-0.2664 -5.416,1.5389 -10.965,2.7399 -16.436,4.077 a 686.862,686.862 0 0 0 -34.297,9.1362 c -1.403,-3.7753 -5.462,-8.4549 -4.501,-12.4234 z"
       id="path81-4" /><path
       fill="#000000"
       d="m 1284.45,683.814 c 2.9,3.548 1.37,45.759 1.35,53.47 l -7.65,-7.898 c -5.05,-6.689 -10.24,-13.681 -9.63,-22.525 0.68,-9.799 9.14,-16.969 15.93,-23.047 z"
       id="path82-6" /><path
       fill="#000000"
       d="m 1283.3,1668.83 c 2.57,3.8 0.96,39.99 1.01,47.06 -0.47,0.4 -0.74,0.67 -1.26,0.96 -3.77,2.1 -16.4,3.78 -20.56,2.82 l -1.9,-0.13 c 2.45,-10.54 17.28,-38.65 22.71,-50.71 z"
       id="path83-0" /><path
       fill="#000000"
       d="m 1158.43,79.4042 c 19.44,-2.286 52.62,0.2128 73.51,0.317 -0.73,5.3225 -1.17,10.7096 -1.73,16.0536 -0.05,0.0524 -0.12,0.0943 -0.17,0.1573 -0.12,0.1634 -0.21,0.3443 -0.32,0.5164 -5.16,0.47 -63.2,-14.2828 -71.29,-17.0443 z"
       id="path84-6" /><path
       fill="#000000"
       d="m 79.6252,358.51 a 587.651,587.651 0 0 0 26.8848,5.875 c -4.838,11.04 -11.477,21.629 -17.3353,32.173 l -9.9729,17.796 a 2482.45,2482.45 0 0 0 0.4234,-55.844 z"
       id="path85-6" /><path
       fill="#000000"
       d="m 377.751,370.415 c 11.017,6.672 21.215,15.886 31.655,23.567 7.276,5.353 15.179,9.748 22.355,15.201 l -0.42,0.768 -2.576,-0.595 c -19.354,-6.169 -39.284,-9.916 -59.238,-13.487 a 984.22,984.22 0 0 1 8.224,-25.454 z"
       id="path86-1" /><path
       fill="#000000"
       d="m 342.203,517.902 c 2.984,1.233 19.752,26.88 23.938,31.966 -0.965,7.31 0.968,24.659 -2.708,30.098 l -1.821,-2.244 c -9.017,-18.313 -19.877,-35.246 -30.815,-52.446 z"
       id="path87-8" /><path
       fill="#000000"
       d="m 390.653,247.932 c 18.994,3.685 37.763,8.403 56.82,11.83 -5.34,1.484 -10.643,3.14 -15.957,4.714 a 468.488,468.488 0 0 0 -40.399,15.167 z"
       id="path88-4" /><path
       fill="#000000"
       d="m 1206.22,1753.09 c 2.17,0.7 4.09,0.42 6.17,1.68 -3.06,9.21 -8.56,18.53 -12.62,27.42 -4.2,9.19 -7.1,18.22 -10.19,27.79 l -0.98,-2.6 c -3.92,-8.82 -8.44,-36.69 -10.32,-47.56 0.66,0.22 1.34,0.5 2.03,0.58 5.64,0.67 21.18,-4.1 25.91,-7.31 z"
       id="path89-9" /><path
       fill="#000000"
       d="m 1255.17,78.9988 29.97,0.1424 c 0.02,10.6438 1.03,21.9868 -0.39,32.5068 -10.39,-3.607 -21.17,-6.318 -31.77,-9.295 a 841.568,841.568 0 0 1 2.19,-23.3542 z"
       id="path90-6" /><path
       fill="#000000"
       d="m 419.53,104.184 0.536,0.718 c -7.766,6.693 -44.777,44.593 -49.661,46.035 l -2.334,-6.752 c -2.332,-7.598 -5.349,-14.831 -8.417,-22.153 19.889,-5.945 40.449,-10.552 59.876,-17.848 z"
       id="path91-3" /><path
       fill="#000000"
       d="m 214.582,560.015 c 2.924,3.757 12.053,51.073 13.892,59.124 L 214.038,604.33 c -9.64,-10.893 -20.512,-20.752 -31.019,-30.797 10.81,-3.95 21.172,-8.579 31.563,-13.518 z"
       id="path92-7" /><path
       fill="#000000"
       d="m 80.1175,1926.03 c 6.7035,2.14 44.4375,9.78 49.6005,8.24 -1.936,5.49 -5.268,12.84 -9.219,17.14 -1.046,3.14 -2.57,7.32 -5.13,9.45 -0.571,0.19 -1.457,0.49 -2.086,0.62 -6.698,1.33 -27.4317,2.27 -33.2728,-1.3 a 1227.64,1227.64 0 0 1 0.1073,-34.15 z"
       id="path93-8" /><path
       fill="#000000"
       d="m 1128.92,1510.2 c 4.99,1.58 11.43,0.64 16.72,1.31 16.46,2.06 20.54,14.05 31.38,23.84 0.13,0.12 0.27,0.24 0.41,0.36 -0.42,0.54 -0.5,0.68 -0.96,1.11 -3.1,2.97 -10.73,6.6 -14.96,6.6 -0.29,0.31 -0.74,0.81 -1.09,1.11 -4.08,3.38 -21.2,12.64 -25.96,12.16 -2.79,-12.89 -7.24,-27.65 -7.97,-40.75 -0.17,-3.17 0.4,-3.49 2.43,-5.74 z"
       id="path94-8" /><path
       fill="#000000"
       d="m 1040.43,182.668 c 4.19,3.924 9.12,23.349 11.7,29.722 5.4,13.336 17.35,28.477 21.01,41.308 -2.25,2.232 -5.28,2.531 -8.27,3.214 -4.92,0.005 -10.68,-0.393 -15.26,-2.269 -7.34,-3.002 -12.27,-8.668 -15.13,-15.979 -7.29,-18.684 -1.64,-38.465 5.95,-55.996 z"
       id="path95-2" /><path
       fill="#000000"
       d="m 177.157,531.908 c 2.11,0.907 3.675,5.175 4.693,7.215 3.36,2.918 8.227,2.701 12.461,3.084 -31.286,15.486 -67.45,27.08 -101.9412,32.481 l -12.4534,1.667 0.0205,-13.871 a 288.387,288.387 0 0 0 97.2201,-30.576 z"
       id="path96-9" /><path
       fill="#000000"
       d="m 1274.26,1531.08 c 2.57,1.35 6.12,0.97 9.05,2.05 1.91,3.25 1.04,7.95 0.95,11.75 -5.24,3.82 -39.03,6.59 -48.68,8.91 -17.25,4.13 -34.79,10.17 -51.31,16.69 -8.02,3.17 -29.77,16.83 -36.78,16.5 l -2.9,2.62 -1.95,-0.23 c -2.64,-3.26 -3.17,-8.61 -4.05,-12.7 1.45,0.01 2.23,-0.3 3.46,-0.96 17.07,-9.12 33.96,-18.82 52.45,-24.81 17.17,-5.55 34.49,-10.76 52.22,-14.17 7.56,-1.46 21.38,-1.81 27.54,-5.65 z"
       id="path97-1" /><path
       fill="#000000"
       d="m 226.667,1750.17 c 2.544,0.92 5.551,1.12 8.227,1.53 -6.488,11.46 -30.379,58.22 -37.111,64.81 -3.605,-2.48 -6.946,-11.01 -8.646,-15.26 -5.283,-4.6 -21.794,-37.43 -23.676,-44.11 0.927,0.34 1.033,0.4 2.089,0.66 4.665,1.17 55.984,-5.71 59.117,-7.63 z"
       id="path98-3" /><path
       fill="#000000"
       d="m 1202.62,1304.04 0.99,0.71 c 0.98,0.69 1.86,1.11 3,1.49 14.28,-4.77 24.86,-8.06 39.3,-0.99 13.01,6.38 21.82,18.98 26.31,32.45 3.6,10.79 4.57,21.66 3.82,32.97 0.48,1.42 0.87,2.82 1.75,4.05 l -0.49,1.11 c -14.45,-5.75 -68.44,-57.24 -74.33,-70.92 -0.12,-0.28 -0.23,-0.58 -0.35,-0.87 z"
       id="path99-5" /><path
       fill="#000000"
       d="m 93.1713,1665.63 c 7.3337,5.18 29.4967,62.57 40.0327,75.54 -0.76,0.53 -0.837,0.63 -1.826,1.05 -4.123,1.73 -11.785,2.88 -15.939,1.23 -0.62,0.47 -1.302,0.96 -2.005,1.3 -6.484,3.06 -27.2579,6.19 -33.8222,4 0.295,-14.63 -2.8836,-49.89 1.5782,-61.9 2.5911,-6.97 8.1819,-13.22 11.4335,-20.06 z"
       id="path100-9" /><path
       fill="#000000"
       d="m 197.086,1857.64 c 8.449,13 35.821,69.77 43.982,76.18 -0.61,0.24 -0.758,0.31 -1.46,0.51 -6.157,1.67 -22.448,-1.83 -28.119,-5.04 -0.424,0.15 -1.092,0.44 -1.578,0.51 -5.485,0.85 -42.754,-7.79 -46.702,-11.09 4.416,-2.63 28.929,-52.47 33.877,-61.07 z"
       id="path101-8" /><path
       fill="#000000"
       d="m 185.19,280.849 c 14.382,26.906 30.829,52.721 46.372,78.968 l -28.086,-6.016 c -17.641,-2.905 -35.216,-6.674 -52.774,-10.064 10.377,-21.269 22.646,-42.379 34.488,-62.888 z"
       id="path102-4" /><path
       fill="#000000"
       d="m 1202.31,1874.73 c 10.41,19.27 21.63,35.6 41.59,46.15 9.11,4.81 30.64,12.63 41.08,9.34 -0.02,9.93 0.24,19.97 -0.48,29.88 -0.91,0.77 -1.81,1.61 -3.03,1.85 -6.91,1.4 -57.38,1.72 -62.49,-1.09 -3.63,-6.02 -15.75,-74.74 -16.67,-86.13 z"
       id="path103-0" /><path
       fill="#000000"
       d="m 227.405,142.295 0.984,0.13 c 0.486,2.959 -41.055,76.373 -45.473,83.326 a 1274,1274 0 0 0 -14.045,-23.171 1383.86,1383.86 0 0 1 -25.858,-42.994 5674.09,5674.09 0 0 1 84.392,-17.291 z"
       id="path104-7" /><path
       fill="#000000"
       d="m 1265.28,1435.14 c 0.8,0.42 0.94,0.55 1.95,0.78 5.02,1.15 12.91,0.3 17.26,-2.38 l -0.15,53.23 c -0.24,0.22 -0.47,0.45 -0.72,0.66 -5.63,4.63 -21.15,4.12 -28.03,3.32 -6.1,-0.7 -15.51,-2.42 -19.55,-7.49 -1.77,-0.02 -2.65,-0.38 -4.14,-1.38 -12.38,-8.24 -19.53,-25.18 -22.43,-39.2 0.34,0.11 0.67,0.22 1.02,0.32 2.35,0.64 52.79,-6.77 54.79,-7.86 z"
       id="path105-6" /><path
       fill="#000000"
       d="m 319.129,547.69 c 14.497,12.448 35.534,38.364 49.175,53.493 4.72,-7.846 9.339,-15.537 12.99,-23.955 7.461,9.832 15.028,19.452 22.996,28.882 -7.719,9.04 -16.215,16.9 -25.227,24.624 -14.69,12.32 -29.489,24.051 -46.075,33.737 l -0.179,-22.591 c 3.652,-1.148 8.392,-2.188 11.026,-5.111 1.864,-2.068 2.735,-4.693 2.596,-7.463 -0.614,-12.218 -20.285,-26.57 -29.07,-34.304 -1.781,-16.303 -1.577,-31.212 1.768,-47.312 z"
       id="path106-3" /><path
       fill="#000000"
       d="m 1155.56,410.433 c 16.15,-2.071 37.95,3.078 53.26,8.011 27.95,9.008 63.03,31.431 76.36,58.536 1.21,2.455 1.8,4.243 0.96,6.863 -4.26,1.074 -12.15,-2.229 -16.59,-3.394 -50.44,-14.459 -93.83,-38.429 -137.5,-66.79 7.84,-1.707 15.53,-2.58 23.51,-3.226 z"
       id="path107-6" /><path
       fill="#000000"
       d="m 1250.23,125.293 a 684.828,684.828 0 0 0 35.43,9.549 6268.11,6268.11 0 0 0 0.04,115.818 c -8.23,4.2 -16.22,9.11 -24.26,13.673 -7.83,4.058 -15.23,8.756 -22.69,13.431 2.39,-50.783 8.15,-101.691 11.48,-152.471 z"
       id="path108-1" /><path
       fill="#000000"
       d="m 1284.38,651.811 0.95,0.214 c 1.73,3.428 0.74,10.992 0.69,14.987 -4.6,3.099 -8.78,6.978 -12.77,10.823 -8.53,8.22 -16.22,17.643 -16.29,30.078 -0.11,20.139 17,34.145 30.05,47.093 -5.45,8.364 -12.87,16.049 -19.09,23.907 a 425.611,425.611 0 0 0 -30.81,43.654 l -11,18.654 c 5.08,-41.316 0.93,-93.239 -3.39,-135.12 18.51,-20.105 39.67,-38.115 61.66,-54.29 z"
       id="path109-5" /><path
       fill="#000000"
       d="m 288.364,79.0055 17.507,-0.2646 c 17.697,30.5621 32.616,60.7101 42.248,94.8291 a 354.395,354.395 0 0 1 -31.615,272.055 c -0.457,0.589 -1.239,0.799 -1.906,1.11 -4.031,-1.973 -7.536,-6.111 -10.761,-9.235 13.263,-25.389 24.474,-50.327 32.008,-78.091 18.395,-67.786 14.083,-146.158 -11.962,-211.448 -9.656,-24.205 -22.595,-46.412 -35.519,-68.9555 z"
       id="path110-4" /><path
       fill="#000000"
       d="m 1128.71,323.623 c 10.03,7.322 18.6,17.145 28.55,24.778 39.08,29.972 81.55,51.944 128.35,67.128 a 4135.36,4135.36 0 0 0 0.04,42.134 c -5.47,-6.744 -10.88,-13.384 -17.02,-19.543 -17.41,-14.977 -36.48,-26.574 -58.63,-33.09 -24.22,-7.129 -64.56,-11.229 -87.38,1.286 l -19.21,-15.828 c 9.21,-5.868 17.11,-12.735 22.34,-22.48 7.6,-14.171 7.46,-29.286 2.96,-44.385 z"
       id="path111-2" /><path
       fill="#000000"
       d="m 1196.47,1445.59 c 3.5,2.51 9.84,24.88 14.84,31.3 10.93,14.04 26.76,24.31 44.55,26.61 8.88,1.15 21.08,0.67 28.46,-5 l 0.55,13.92 c -5.76,3.74 -22.25,2.87 -29.4,3.77 -10.98,1.39 -43.54,11.68 -50.97,10.31 -3.78,3.38 -11.15,5.41 -16.13,5.67 -10.67,-12.59 -14.7,-22.74 -31.16,-29.5 -5.73,-2.36 -10.69,-3.81 -16.92,-4.04 -4.35,-0.16 -12.24,1.05 -16.06,-0.6 -0.36,-0.15 -0.7,-0.33 -1.06,-0.5 -3.86,-6.86 -5.17,-19.35 -6.32,-27.23 4.92,1.16 20.42,-6.9 25.62,-8.78 a 401.023,401.023 0 0 1 32.7,-10.16 c 7.07,-1.82 14.56,-2.94 21.3,-5.77 z"
       id="path112-0" /><path
       fill="#000000"
       d="m 1037.77,79.9936 17,0.034 c 3.1,45.1714 12.86,88.8484 32.6,129.7894 40.63,84.235 110.55,139.601 197.78,170.153 -0.02,6.064 -0.17,12.132 -0.25,18.196 -44.83,-17.217 -85.47,-35.653 -122.65,-66.815 C 1085.33,266.896 1046.4,178.688 1037.77,79.9936 Z"
       id="path113-9" /><path
       fill="#000000"
       d="m 79.4691,1553.2 c 10.2556,2.35 20.4821,3.88 30.6579,6.76 38.291,10.84 74.935,30.71 106.22,55.13 68.435,53.43 110.145,136.04 120.569,221.47 4.304,35.27 2.583,75.15 -5.142,109.87 -0.907,4.08 -1.66,10.49 -4.231,13.77 -0.761,0.67 -0.806,0.78 -1.832,1.29 -3.768,1.87 -9.904,0.33 -13.458,-1.28 4.024,-7.21 5.285,-18.55 6.738,-26.65 a 318.141,318.141 0 0 0 -4.626,-138.39 c -23.067,-91.72 -82.909,-168.29 -169.951,-207.08 -11.459,-5.11 -23.306,-9.81 -35.312,-13.46 -8.713,-2.65 -22.3397,-3.09 -29.6798,-7.73 -0.1768,-0.11 -0.3456,-0.24 -0.5184,-0.35 -0.0182,-4.45 0.3127,-8.9 0.5653,-13.35 z"
       id="path114-7" /><path
       fill="#000000"
       d="m 1284.51,776.816 c 2.54,2.666 1.25,20.96 1.22,25.568 -46.19,57.72 -74.31,126.352 -75.87,200.676 -1.63,77.35 20.74,165.25 75.63,222.39 l 0.09,28.44 -6.8,-6.52 c -50.69,-51.26 -75.97,-128.8 -83.19,-198.98 -8.64,-84.099 12.74,-163.698 59.82,-233.677 8.91,-13.238 19.06,-25.52 29.1,-37.897 z"
       id="path115-3" /><path
       fill="#000000"
       d="m 1277.26,1744.1 a 92.2857,92.2857 0 0 1 6.29,1.51 c 2.89,8.38 1.19,138.98 1.21,158.28 -2.04,0.69 -3.64,0.69 -5.72,0.23 -10.36,-2.26 -30.83,-9.87 -36.54,-19.33 -0.24,-0.04 -0.48,-0.05 -0.71,-0.12 -4.62,-1.44 -10.41,-10.38 -13.02,-14.22 a 83.5985,83.5985 0 0 1 -12.51,-62.62 c 4.74,-23.82 20.22,-43.17 41.57,-54.4 6.07,-3.19 13.27,-5.11 18.86,-8.93 0.19,-0.13 0.38,-0.26 0.57,-0.4 z"
       id="path116-7" /><path
       fill="#000000"
       d="m 109.952,164.199 c 1.02,-0.507 1.249,-0.23 2.324,0.006 6.706,6.476 12.307,19.869 17.256,28.141 l 38.457,63.719 c -15.016,22.653 -27.49,47.771 -40.844,71.476 -2.071,3.535 -3.761,7.457 -5.599,11.13 l -41.3037,-7.4 C 79.6732,313.002 80.2201,294.543 80.2188,276.256 L 80.1295,170.869 c 10.0052,-1.945 19.9055,-4.323 29.8225,-6.67 z"
       id="path117-2" /><path
       fill="#000000"
       d="m 136.83,1761.07 c 1.299,0.3 5.582,0.87 6.436,1.6 4.274,3.66 33.322,63.37 41.937,75.58 -2.259,6.7 -37.721,70.19 -42.242,75.62 -0.978,0.42 -1.982,0.69 -3.035,0.84 -3.478,0.51 -6.631,-0.59 -9.421,-2.6 -0.597,0.14 -1.559,0.4 -2.222,0.45 -6.467,0.47 -44.2241,-6.95 -48.6886,-10.55 l -9e-4,-132.59 c 0.8945,0.38 0.9291,0.45 2.0562,0.62 5.1719,0.79 51.2873,-6.14 55.1803,-8.97 z"
       id="path118-6" /><path
       fill="#000000"
       d="m 358.719,424.179 c 22.343,2.938 44.447,7.369 66.629,11.297 25.877,4.581 51.782,8.803 77.491,14.29 a 447.777,447.777 0 0 1 -50.499,99.218 c -9.25,13.013 -18.557,26.009 -28.917,38.169 -14.701,-21.44 -33.684,-41.103 -46.402,-63.727 -6.152,-10.943 -10.458,-23.753 -15.305,-35.35 -5.373,-12.856 -10.934,-25.412 -13.895,-39.084 3.799,-8.188 7.298,-16.534 10.898,-24.813 z"
       id="path119-0" /><path
       fill="#000000"
       d="m 487.67,78.7629 c 4.28,4.0892 7.588,15.1387 9.827,20.8592 18.758,47.9289 29.039,96.3499 34.337,147.3799 -28.763,-5.366 -57.432,-11.807 -86.063,-17.845 a 2568.88,2568.88 0 0 1 -58.953,-13.741 c -1.848,-9.835 -4.177,-19.559 -6.456,-29.301 35.927,-35.465 73.175,-70.164 107.308,-107.3521 z"
       id="path120-1" /><path
       fill="#000000"
       d="m 531.709,261.145 0.655,0.683 c 1.687,7.439 0.534,16.825 0.538,24.495 0.029,54.217 -9.015,100.918 -25.489,152.246 -19.761,-19.794 -42.79,-37.054 -64.728,-54.347 -19.546,-14.947 -39.248,-30.058 -58.107,-45.857 l 4.271,-24.825 c 20.999,-9.024 42.63,-16.266 64.115,-23.995 26.27,-9.451 52.367,-19.232 78.745,-28.4 z"
       id="path121-6" /><path
       fill="#000000"
       d="m 1212.52,715.715 c 3.34,14.462 2.61,51.357 2.79,67.6 0.34,30.615 2.82,86.524 -20.59,109.881 -4.1,4.094 -10.6,8.259 -16.6,8.008 -13.73,-0.577 -13.89,-13.236 -20.89,-20.329 -1.54,-1.56 -2.1,-1.314 -4.12,-1.202 -1.37,1.054 -2.41,1.887 -3.07,3.534 -1.38,3.432 -0.24,7.331 1.33,10.5 3.57,7.243 10.61,13.791 18.32,16.338 10.5,3.465 19.53,-0.312 28.91,-4.977 -16.76,35.391 -16.58,74.894 -16.63,113.182 l -0.25,4.11 c -2.46,-0.06 -6.08,-10.97 -7.12,-13.5 -12.79,-31.317 -37.72,-67.524 -64.33,-88.744 15.61,-72.164 51.76,-149.789 102.25,-204.401 z"
       id="path122-5" /><path
       fill="#000000"
       d="m 151.5,583.09 c 6.256,0.867 97.184,100.375 107.951,113.146 -27.829,8.557 -55.473,15.981 -84.067,21.512 -32.346,5.899 -64.76,8.078 -97.4927,10.383 2.2591,-15.537 8.3155,-31.356 12.8714,-46.433 9.0654,-30.002 17.9703,-60.514 28.9783,-89.844 A 249.562,249.562 0 0 0 151.5,583.09 Z"
       id="path123-7" /><path
       fill="#000000"
       d="m 1285.23,818.758 c 2.19,11.537 0.24,28.061 0.23,40.053 l -0.03,97.786 -58.11,35.735 c 19.62,11.428 39.55,22.598 58.22,35.528 a 8588.75,8588.75 0 0 0 -0.29,119.98 c 0.03,10.15 1.93,55.8 -0.53,62.84 l -1.61,-1.29 c -31.33,-43.95 -51.92,-90.67 -60.18,-144.32 a 328.472,328.472 0 0 1 38.08,-210.347 c 7.17,-12.606 15.68,-24.278 24.22,-35.965 z"
       id="path124-5" /><path
       fill="#000000"
       d="m 1273.1,1558.01 c 0.78,0.32 1.56,0.63 2.37,0.85 3.12,0.82 6.03,0.13 8.8,-1.33 -0.14,15.05 2.37,34.82 -0.68,49.27 -2.1,9.93 -51.22,114.55 -57.12,122.75 -0.67,0.56 -1.26,1.05 -2.07,1.41 -6.18,2.71 -44.95,11.81 -49.84,9.67 -1.81,-4.48 -2.47,-9.68 -3.42,-14.43 -4.63,-13.01 -6.71,-28.29 -9.56,-41.82 l -17.05,-81.83 c 4.03,0.07 30.74,-15.65 36.91,-18.43 19.43,-8.75 39.05,-15.29 59.92,-19.68 7.88,-1.65 25.74,-2.62 31.74,-6.43 z"
       id="path125-4" /><path
       fill="#000000"
       d="m 982.235,80.5152 c 6.299,-0.152 35.175,-2.1593 38.835,0.5571 0.6,2.4465 1.45,4.7603 0.64,7.2383 -0.29,-0.0924 -0.58,-0.1887 -0.86,-0.2771 -2.18,-0.6685 -4.64,-1.5435 -6.74,-0.1902 -1.89,1.216 -3.81,2.6946 -4.25,4.8953 2.42,1.7427 4.62,3.4838 6.74,5.5792 0.12,6.1792 3.39,10.1172 5.21,15.8812 0.39,1.245 0.71,1.845 1.78,2.689 l 0.63,-5.189 1.06,0.239 c 4.07,20.63 7.4,40.781 13.03,61.114 -6.67,7.398 -11.71,14.907 -15.09,24.346 -5.57,15.535 -5.84,33.732 1.55,48.737 4.14,8.416 10.9,15.545 19.94,18.544 11.8,3.909 21.96,0.098 32.51,-5.22 5.88,8.953 11.88,17.942 18.34,26.489 15.05,19.925 26.79,32 24.2,59.182 -1.68,17.621 -11.73,28.227 -24.74,38.932 -13.72,-11.552 -25.84,-24.745 -38.21,-37.691 0.53,-5.936 0.43,-13.452 3.86,-18.558 4.17,-1.879 7.76,1.113 12.18,0.868 4.1,-0.229 6.68,-3.483 9.14,-6.347 0.15,-0.631 0.29,-1.262 0.41,-1.9 a 13.5558,13.5558 0 0 0 -2.47,-10.58 c -1.65,-2.183 -4.23,-3.373 -6.94,-3.518 -4.22,-0.226 -8.3,1.94 -11.35,4.702 -8.79,7.983 -9.34,19.763 -9.82,30.784 -7.32,-10.247 -15.38,-19.946 -22.59,-30.272 A 435.122,435.122 0 0 1 966.972,184.536 c 6.81,-2.405 12.261,-5.693 17.383,-10.834 7.823,-7.852 12.996,-18.722 12.768,-29.936 -0.152,-7.496 -3.198,-15.568 -8.914,-20.617 -2.448,-2.162 -6.094,-2.912 -9.28,-2.639 -3.252,0.278 -7.622,1.838 -9.594,4.612 -1.598,2.248 -1.131,3.669 -0.695,6.169 4.057,-0.579 7.307,-0.678 10.889,1.548 3.389,4.225 4.693,9.862 4.261,15.208 -1.023,12.643 -9.591,21.31 -18.72,29.06 -10.705,-28.783 -14.385,-65.747 -18.331,-96.3277 z"
       id="path126-1" /><path
       fill="#000000"
       d="m 135.27,369.477 c 31.105,4.873 61.874,10.924 92.733,17.124 -1.455,12.994 -3.115,26.028 -5.514,38.884 -4.004,21.459 -12.982,57.116 -32.931,68.693 -5.826,3.381 -13.536,1.797 -18.401,5.137 -2.636,5.537 1.766,14.928 3.505,20.511 -6.153,3.743 -12.851,6.746 -19.302,9.948 -22.209,11.439 -50.909,18.442 -75.5536,21.732 a 4348.61,4348.61 0 0 0 -0.287,-78.391 c 12.554,-23.722 25.6746,-47.172 38.4666,-70.77 5.859,-10.807 12.749,-21.433 17.284,-32.868 z"
       id="path127-2" /><path
       fill="#000000"
       d="m 79.2179,1471.07 c 1.7601,0.47 3.5996,0.69 5.3953,1.01 a 411.385,411.385 0 0 1 263.5678,171.34 c 64.466,92.81 85.397,207.02 65.522,317.43 -6.326,2.72 -24.847,2.46 -31.477,0.07 -0.185,-0.04 -0.376,-0.04 -0.555,-0.1 -4.709,-1.51 -36.209,-34.35 -38.536,-39.29 0.459,0.02 1.237,0.08 1.734,0 5.337,-0.86 65.705,-33.3 69.671,-37.96 -0.243,0.01 -0.485,0.06 -0.728,0.04 -4.627,-0.32 -46.148,-24.26 -49.547,-28.27 -0.248,0 -0.497,0.03 -0.743,0.01 -5.39,-0.54 -16.211,-8.2 -19.436,-12.45 0.511,-0.07 1.383,-0.16 1.915,-0.36 5.712,-2.13 56.365,-47.64 58.913,-53.12 -0.195,0.05 -0.388,0.11 -0.584,0.16 -6.336,1.43 -68.984,-15.8 -76.335,-20.3 4.447,-3.36 45.688,-63 47.934,-69.53 -6.1,2.25 -74.329,-0.77 -81.569,-2.31 l 1.623,-1.62 -1.627,0.24 c 7.606,-25.39 22.067,-48.82 30.261,-74.07 l 0.339,-1.06 c -0.389,0.21 -0.772,0.43 -1.167,0.64 -6.9,3.56 -72.468,15.54 -78.802,13.47 2.172,-6.95 2.794,-15.64 4.028,-22.88 3.284,-19.27 6.842,-38.8 8.658,-58.27 -0.541,0.56 -0.998,1.09 -1.622,1.55 -4.625,3.39 -62.72,24.75 -71.088,27.03 -1.814,0.49 -3.388,0.49 -5.239,0.17 -3.836,-11.22 -5.16,-61.91 -6.658,-78.61 -3.018,4.97 -56.166,44.89 -62.198,46.51 -0.335,-0.25 -0.704,-0.45 -1.004,-0.74 -5.943,-5.71 -28.2101,-59.71 -30.582,-69.83 -0.6738,-2.88 -0.3246,-5.99 -0.0641,-8.9 z"
       id="path128-0" /><path
       fill="#000000"
       d="m 1107.16,933.395 c 21.69,22.776 40.71,47.87 54.83,76.105 6.16,13.01 13.17,26.5 17,40.38 4.49,16.31 5.96,34.32 10.65,51.76 15.47,57.63 46.5,129.18 95.23,166.6 0,25.84 -0.99,52.24 1.33,77.98 -4.44,-20.51 -11.5,-38.24 -29.97,-50.09 -11.69,-7.5 -25.83,-9.43 -39.3,-6.35 -5.84,1.33 -11.9,3.78 -16.17,8.1 -0.47,2.54 0.74,3.94 1.86,6.16 -13.93,-14.75 -24.87,-33.35 -34.93,-50.86 -42.97,-74.78 -69.89,-163.73 -67.39,-250.52 a 514.029,514.029 0 0 1 6.86,-69.265 z"
       id="path129-0" /><path
       fill="#fdfdfc"
       d="m 1118.18,1027.66 c 1.71,0.1 3.63,0.16 5.29,0.63 5.75,1.63 11.77,7.35 14.56,12.47 5.03,9.26 6.04,21.79 2.96,31.81 -3.97,12.89 -12.7,22.25 -24.46,28.43 l -2.98,0.12 c -2.78,-1.75 -3.57,-5.15 -4.72,-8.08 a 101.169,101.169 0 0 0 4.79,-3.05 c 8.05,-5.51 16.52,-14.52 18.19,-24.49 2.38,-14.19 -7.52,-20.41 -13.86,-31.07 -1.43,-2.42 -0.46,-4.32 0.23,-6.77 z"
       id="path130-1" /><path
       fill="#fdfdfc"
       d="m 1192.72,1134.55 c 2.95,0.45 3.26,0.45 5.34,2.54 2.13,6.71 -7.42,19.37 -10.32,25.73 -4.85,10.64 -6.92,22.74 -2.65,33.93 9.14,23.97 22.59,13.12 34.85,19.79 1.78,0.97 1.72,1.69 2.19,3.5 -1.29,2.63 -2.9,3.93 -5.22,5.66 -1.83,0.41 -3.66,0.8 -5.51,1.04 -8.26,1.07 -18.42,-2.46 -24.81,-7.64 -8.98,-7.28 -14.17,-19.02 -15.22,-30.38 -1.87,-20.28 8.93,-39.06 21.35,-54.17 z"
       id="path131-4" /><path
       fill="#000000"
       d="m 1065.76,80.0051 c 8.44,-0.1808 17.17,-0.8571 25.55,0.3637 l 0.47,0.8315 c -2.24,0.7975 -4.39,1.3227 -6.73,1.7791 3.92,3.3893 124.42,32.5186 143.13,37.5806 -3.79,22.545 -4.2,46.059 -5.68,68.854 -2.71,41.938 -4.97,84.086 -8.29,125.965 a 1808.33,1808.33 0 0 0 71.48,-41.65 l -0.04,33.771 0.07,62.016 c -11.93,-6.331 -24.94,-10.821 -37.19,-16.56 a 344.243,344.243 0 0 1 -75.64,-48.761 313.307,313.307 0 0 1 -99.08,-164.189 c -4.51,-19.684 -6.51,-39.902 -8.05,-60.0009 z"
       id="path132-6" /><path
       fill="#000000"
       d="M 92.1136,79.0369 A 6563.89,6563.89 0 0 0 273.125,78.9571 c 23.219,26.8599 40.384,67.8149 49.844,101.7609 22.694,81.438 15.359,172.119 -26.437,246.196 a 894.853,894.853 0 0 1 -25.837,-39.405 c 5.003,1.119 10.104,1.934 15.146,2.869 -28.648,-45.687 -57.697,-90.931 -85.197,-137.34 4.02,-9.177 9.797,-18.137 14.669,-26.917 l 31.593,-57.057 c 10.942,-19.813 24,-41.155 30.3,-62.904 -19.875,0.246 -41.307,5.901 -60.801,9.634 a 4658.37,4658.37 0 0 0 -90.027,17.405 C 115.185,115.036 104.282,96.5638 92.1136,79.0369 Z"
       id="path133-0" /><path
       fill="#000000"
       d="m 79.8901,1577.92 c 16.4768,5.48 33.4709,8.68 49.7899,14.98 70.177,27.07 127.721,85.87 157.91,154.08 a 326.662,326.662 0 0 1 23.27,178.17 c -1.702,11.53 -3.505,24.44 -7.696,35.34 -0.753,0.47 -1.428,0.89 -2.286,1.14 -9.659,2.87 -80.041,0.3 -94.918,0.2 -19.872,-0.13 -40.032,0.79 -59.86,-0.09 -2.343,-0.1 -4.11,-0.53 -6.189,-1.66 5.327,-3.7 10.768,-15.76 13.113,-21.85 0.547,0.43 0.562,0.46 1.228,0.89 4.987,3.23 31.823,8.08 37.246,6.85 1.656,1.38 3.198,1.96 5.266,2.5 11.431,3.01 73.22,15.75 81.554,10.86 -14.001,-28.78 -31.219,-56.35 -47.426,-83.92 -7.158,-12.18 -16.317,-25.39 -21.432,-38.54 4.998,-4.33 54.599,-94.14 58.446,-103.1 -2.696,-2.84 -3.945,-6.15 -5.44,-9.71 -0.351,0.25 -0.974,0.73 -1.409,0.93 -3.531,1.62 -103.011,14.82 -106.13,13.8 -6.37,-7.75 -54.298,-104.05 -58.5865,-116.49 -2.8937,6.4 -11.1195,20.25 -16.5689,24.4 0.266,-22.92 -0.214,-45.85 0.1185,-68.78 z"
       id="path134" /><path
       fill="#000000"
       d="m 275.092,723.125 c 3.499,5.359 59.514,339.555 64.501,372.895 -5.07,0.49 -11.028,0.65 -15.671,2.84 -3.962,1.87 -5.977,5.18 -7.898,8.95 -4.756,9.31 -6.732,19.88 -10.033,29.75 -4.036,12.08 -8.861,23.97 -13.389,35.87 3.387,10.49 11.131,18.69 17.505,27.49 -1.139,15.5 -4.545,41.45 3.452,54.86 10.785,18.1 31.872,24.68 51.072,29.41 -5.34,11.56 -15.703,28.34 -15.066,41.08 0.782,15.66 18.339,28.98 29.001,38.73 2.141,23.28 7.246,47.06 11.043,70.19 l 20.761,126.84 c 12.483,75.39 26.85,150.4 39.929,225.67 9.983,57.46 18.477,115.24 29.213,172.55 -0.167,0.08 -0.336,0.17 -0.502,0.26 -0.712,0.38 -1.449,0.79 -2.225,1.03 -6.552,2 -29.343,2.2 -35.196,-1.23 7.281,-29.65 7.474,-63.14 7.283,-93.56 -2.671,-44.44 -9.524,-88.24 -23.655,-130.57 a 439.36,439.36 0 0 0 -252.03,-267.82 468.919,468.919 0 0 0 -47.253,-15.8 c -10.248,-2.72 -37.7759,-6.73 -44.8753,-10.56 -0.3806,-0.21 -0.752,-0.43 -1.1279,-0.64 L 79.3691,761.275 c 62.7169,-0.582 137.6369,-14.432 195.7229,-38.15 z"
       id="path135-7"
       style="fill:#ffffff;fill-opacity:1" /><path
       fill="#fdfdfc"
       d="m 131.497,795.964 a 39.8848,39.8848 0 0 1 1.692,0.075 c 5.058,0.354 9.841,1.925 13.124,5.997 2.394,2.969 3.273,6.612 2.557,10.351 -1.108,5.788 -5.067,8.627 -9.661,11.614 -1.2,0.114 -2.487,0.241 -3.685,0.055 -2.988,-0.463 -7.545,-4.047 -9.328,-6.507 -2.398,-3.309 -3.403,-8.069 -2.519,-12.059 1.02,-4.609 4.092,-7.103 7.82,-9.526 z"
       id="path136" /><path
       fill="#fdfdfc"
       d="m 243.818,766.894 c 0.245,0.002 0.491,10e-4 0.736,0.006 5.314,0.115 10.988,1.677 14.611,5.813 2.452,2.799 3.613,6.422 3.103,10.122 -0.801,5.816 -4.659,9.407 -9.059,12.72 -2.424,0.244 -5.08,0.299 -7.489,-0.113 -3.767,-0.645 -7.11,-3.143 -9.148,-6.318 -2.17,-3.379 -2.735,-7.207 -1.814,-11.103 1.28,-5.413 4.532,-8.384 9.06,-11.127 z"
       id="path137" /><path
       fill="#000000"
       d="m 520.254,79.4329 400.949,0.9195 c 7.601,87.2226 34.695,172.2876 84.807,244.6056 62.87,90.719 170.48,166.23 279.73,186.088 l 0.06,107.809 a 463.788,463.788 0 0 0 -180.24,221.79 c -37.66,96.418 -41.38,189.725 -15.4,289.455 a 535.746,535.746 0 0 0 27.6,81.55 c 29.3,66.7 72.42,131.69 130.36,176.73 8.08,6.28 18.07,15.24 27.56,18.93 2.5,2.19 6.59,0.1 9.2,2.06 -4.97,2.78 -17.8,1.95 -23.8,2.32 a 496.751,496.751 0 0 0 -54.29,6.67 c -31.7,5.79 -60.72,16.12 -91.04,26.51 -1.52,0.52 -2.64,0.44 -4.2,0.27 -3.12,-7.74 -4.11,-18.21 -5.85,-26.51 l -13.4,-65.03 a 7589.44,7589.44 0 0 0 -50.04,-229.35 c -10.02,-40.93 -20.23,-81.93 -33.4,-121.98 a 1059.44,1059.44 0 0 0 -18.878,-51.685 c -4.728,-12.308 -11.522,-26.102 -13.185,-39.217 -1.36,-10.733 3.653,-44.245 4.511,-57.428 2.679,-41.156 4.018,-91.008 -0.599,-131.867 a 377.739,377.739 0 0 0 -55.146,1.98 c 0.465,-13.354 -2.513,-23.12 -7.845,-35.158 4.846,-8.621 11.095,-16.857 16.628,-25.07 20.507,-30.441 52.951,-73.081 66.804,-106.265 4.37,-10.467 7.04,-21.212 9.13,-32.333 2.25,-14.924 0.5,-28.476 -4.39,-42.64 -8.179,12.969 -17.646,26.832 -28.797,37.413 -1,-35.851 -16.416,-73.881 -36.814,-103.068 -15.132,-21.651 -37.225,-47.677 -60.839,-60.272 -9.753,-5.202 -20.383,-8.115 -31.222,-9.99 a 262.266,262.266 0 0 0 -167.222,28.312 c -14.966,8.15 -28.825,18.361 -42.745,28.15 0.83,-22.229 0.713,-44.634 2.496,-66.799 -27.54,28.299 -41.788,60.239 -44.837,99.464 -12.067,4.071 -24.222,8.755 -35.432,14.826 9.308,5.64 18.844,10.233 28.821,14.554 -3.374,16.926 -18.881,79.344 -17.256,91.768 0.785,5.995 7.081,10.113 11.434,13.584 -5.26,8.696 -10.808,18.579 -13.538,28.365 -3.191,11.441 -0.797,19.218 4.891,29.282 -12.34,19.752 -35.621,42.998 -40.684,65.968 -1.413,6.41 -0.772,13.145 3.062,18.641 6.585,9.438 17.706,10.919 28.173,12.626 2.171,8.599 1.124,15.015 -0.245,23.557 3.163,6.199 6.944,11.745 9.257,18.388 -4.568,13.064 -12.318,23.446 -11.256,38.037 0.553,7.593 3.514,14.457 9.389,19.417 19.197,16.206 53.427,8.673 76.124,6.611 4.458,4.323 8.751,8.828 13.092,13.268 -12.049,9.473 -21.91,21.666 -27.655,35.95 -12.863,31.985 -1.48,69.106 11.21,99.158 -8.53,7.831 -20.373,18.837 -21.718,30.923 -0.836,7.52 1.731,12.77 6.186,18.61 -36.283,53.95 -69.705,152.27 -87.827,215.1 -6.408,22.21 -10.217,45.78 -18.028,67.47 -16.969,-11.87 -49.904,-42.45 -62.527,-59.71 a 142.463,142.463 0 0 0 5.351,-31.07 c 0.622,-11.71 -0.897,-23.53 -3.571,-34.93 -3.425,-14.59 -27.838,-81.37 -36.066,-90.25 -6.066,-6.55 -13.233,-7.6 -21.686,-7.91 -3.422,-15.15 -5.556,-30.75 -8.118,-46.07 l -13.261,-79.023 -45.43,-262.589 c 60.552,-34.423 119.534,-99.016 154.467,-158.921 a 505.855,505.855 0 0 0 55.588,-373.318 c -4.186,-17.988 -9.221,-36.381 -15.464,-53.774 -4.038,-11.248 -9.838,-22.641 -12.767,-34.1868 -0.061,-0.2377 -0.115,-0.4769 -0.172,-0.7153 z"
       id="path138"
       style="fill:#ffffff;fill-opacity:1" /><path
       fill="#fdfdfc"
       d="m 388.083,711.06 c 1.006,0.013 1.956,0.031 2.951,0.188 4.297,0.679 8.109,3.077 10.459,6.773 2.126,3.341 2.794,7.4 1.663,11.216 -1.42,4.787 -4.659,6.951 -8.835,9.073 -1.825,-0.072 -3.673,-0.165 -5.439,-0.669 -4.275,-1.22 -8.056,-4.155 -10.083,-8.134 a 12.038,12.038 0 0 1 -0.563,-9.531 c 1.8,-4.941 5.421,-6.815 9.847,-8.916 z"
       id="path139" /><path
       fill="#fdfdfc"
       d="m 525.824,544.618 c 6.443,4.158 11.94,10.797 17.262,16.272 a 555.427,555.427 0 0 1 -15.101,17.863 c -6.31,-4.999 -12.036,-11.426 -17.783,-17.1 5.488,-5.471 10.587,-11.148 15.622,-17.035 z"
       id="path140" /><path
       fill="#fdfdfc"
       d="m 466.006,636.094 1.22,0.288 c 2.705,0.618 5.589,1.107 7.975,2.6 3.71,2.322 6.365,6.635 7.18,10.919 0.608,3.191 -0.04,6.299 -1.878,8.973 -2.587,3.762 -5.842,5.368 -10.159,6.256 -7.551,-3.209 -12.571,-8.705 -18.237,-14.406 4.391,-5.268 8.634,-10.182 13.899,-14.63 z"
       id="path141" /><path
       fill="#fdfdfc"
       d="m 571.798,84.7152 a 1852.6,1852.6 0 0 0 17.804,17.8698 c -5.07,6.476 -11.234,12.253 -17.355,17.72 -6.607,-4.847 -12.061,-11.308 -17.67,-17.245 z"
       id="path142" /><path
       fill="#fdfdfc"
       d="m 599.627,302.649 c 5.984,1.634 14.185,13.005 18.357,17.7 -6.276,5.188 -12.134,11.111 -18.088,16.678 L 581.418,320.01 c 6.211,-5.618 12.174,-11.553 18.209,-17.361 z"
       id="path143" /><path
       fill="#fdfdfc"
       d="m 594.8,187.746 c 6.618,5.724 12.733,11.82 18.847,18.074 -5.785,6.124 -11.831,11.886 -18,17.622 -4.922,-0.928 -14.631,-13.48 -18.243,-17.354 6.002,-5.881 11.648,-12.209 17.396,-18.342 z"
       id="path144" /></g><g
     id="g4"
     transform="translate(-169.12241,236.70107)"
     inkscape:label="counter"><path
       style="fill:none;fill-opacity:0.200737;stroke:#000000;stroke-width:8.4304;stroke-linecap:round;stroke-miterlimit:0;stroke-dasharray:none;stroke-opacity:0.498188"
       id="path1"
       sodipodi:type="arc"
       sodipodi:cx="-21.022015"
       sodipodi:cy="-949.93604"
       sodipodi:rx="102.64899"
       sodipodi:ry="102.64888"
       sodipodi:start="0.027304543"
       sodipodi:end="5.1136159"
       sodipodi:open="true"
       sodipodi:arc-type="arc"
       d="m 81.58871,-947.1336 a 102.64899,102.64888 0 0 1 -75.0417164,96.07498 102.64899,102.64888 0 0 1 -113.9265036,-43.38696 102.64899,102.64888 0 0 1 7.876682,-121.65362 102.64899,102.64888 0 0 1 118.570182,-28.3336"
       transform="matrix(-0.68061959,0.732637,-0.73262788,-0.68062941,0,0)" /><path
       id="path4-2"
       style="fill:#000000;fill-opacity:0.496377;stroke:none;stroke-width:6.07288;stroke-linecap:round;stroke-miterlimit:0;stroke-dasharray:none;stroke-opacity:0.198895"
       inkscape:transform-center-x="9.5449744"
       inkscape:transform-center-y="15.596181"
       d="m 653.79347,712.30156 74.14112,-22.61538 55.6704,-22.02467 -39.40142,57.07434 33.2101,54.22914 -63.65982,-33.68198 z"
       sodipodi:nodetypes="ccccccc" /><text
       xml:space="preserve"
       style="font-style:italic;font-variant:normal;font-weight:normal;font-stretch:normal;font-size:53.3334px;font-family:Caladea;-inkscape-font-specification:'Caladea, Italic';font-variant-ligatures:normal;font-variant-caps:normal;font-variant-numeric:normal;font-variant-east-asian:normal;fill:#000000;fill-opacity:1;stroke-width:3.64524;stroke-opacity:0.297101"
       x="-798.69348"
       y="-612.79541"
       id="text1-4"
       transform="scale(-1)"><tspan
         sodipodi:role="line"
         id="tspan2"
         x="-798.69348"
         y="-612.79541"
         style="font-style:italic;font-variant:normal;font-weight:normal;font-stretch:normal;font-size:53.3334px;font-family:Caladea;-inkscape-font-specification:'Caladea, Italic';font-variant-ligatures:normal;font-variant-caps:normal;font-variant-numeric:normal;font-variant-east-asian:normal;fill:#000000;fill-opacity:1;stroke-width:3.64524">Counter</tspan></text></g><g
     id="g2"
     transform="matrix(0.36132972,0.31372825,-0.27102114,0.41826752,-713.03503,254.8324)"
     inkscape:label="strong"><path
       fill="#020102"
       d="m 1770.674,-1516.7 c 18.4951,-14.6121 36.8892,-29.3481 55.182,-44.2076 9.7874,-7.8768 19.4568,-16.3799 29.6115,-23.7278 2.229,-1.613 4.8313,-3.5232 7.4361,-4.2816 6.3619,-1.8524 43.8335,-5.1601 50.405,-4.3956 2.3559,0.2738 4.1948,0.7016 5.8596,2.2374 8.5817,7.9156 18.4033,24.3118 25.5502,34.4618 l 38.6394,54.1679 c 4.2729,6.124 8.3029,14.0804 5.9723,22.3448 -0.9878,3.5072 -4.3515,6.7862 -7.0603,9.3896 -5.0156,4.8193 -10.6631,9.2181 -16.0224,13.6775 -11.1669,9.2409 -22.4019,18.3998 -33.7053,27.4765 -10.9474,8.8826 -21.6278,18.9248 -33.2238,26.8959 1.2288,3.1877 2.2787,5.9786 1.9435,9.6488 -0.3146,3.4309 -1.791,6.7201 -4.134,9.5724 -4.794,5.8343 -12.4674,10.5219 -18.4657,15.2028 -6.1634,4.8333 -12.0594,9.3273 -17.9103,14.5225 12.1068,13.2922 14.3002,16.8887 24.4261,29.5539 l 55.7658,72.807 140.4323,193.4886 68.7907,90.64759 c 25.4267,35.10195 34.4293,47.24942 60.2392,87.17106 l -13.2418,24.39422 c -14.8911,17.27697 -20.3352,21.18374 -47.769,27.37713 l -26.7681,-16.96301 c -9.9593,-11.4078 -80.3454,-97.86921 -90.3528,-111.23917 l -62.007,-80.68852 -94.8767,-126.1651 -60.1991,-88.0583 c -7.5856,-10.9086 -20.4465,-31.2263 -30.7804,-38.5755 -3.5187,2.8492 -6.9626,6.0975 -10.9721,8.226 -10.6089,5.6304 -20.4674,5.4646 -32.0006,13.1733 -8.6002,5.7476 -16.6671,13.1122 -24.7332,19.6418 -19.3164,15.6369 -38.3196,31.6661 -57.7796,47.1234 -8.2864,6.5829 -11.9533,14.4997 -34.7488,26.0792 -16.298,-2.4114 -23.7638,-3.6092 -57.8115,-29.4438 -28.0752,-32.2072 -24.0031,-32.5663 -29.4805,-40.2932 -9.1532,-19.8655 -19.1705,-37.9027 -17.0282,-59.9471 0.4354,-3.4312 1.5595,-6.8354 3.9565,-9.7031 7.0968,-8.4896 18.2416,-15.6954 26.8829,-22.7736 l 51.6436,-42.0373 c 9.2525,-7.4925 18.8616,-14.7647 27.7827,-22.6299 1.6709,-5.6243 3.7072,-11.7827 7.9592,-16.4384 8.1846,-8.9597 25.0397,-20.9756 35.1154,-29.3965 l 50.451,-42.0066 c 8.7749,-7.2867 17.3365,-15.058 26.5629,-21.7757 6.2026,-4.5151 13.6017,-5.1465 20.4633,-4.5337 z"
       id="path2"
       sodipodi:nodetypes="ccccccccccccccccccccccccccccccccscccccccccccccc"
       style="fill:#020102;fill-opacity:0.5;stroke-width:1.10937" /><path
       fill="#fef796"
       d="m 1889.3732,-1590.0055 q 10.9565,-1.1076 21.8802,-1.6272 c -7.2302,6.2675 -15.1769,11.9295 -22.5662,18.0626 q -33.6867,28.4248 -67.7471,56.4152 c -8.1055,-6.4393 -17.4723,-4.1035 -27.9052,-2.8466 -5.6217,0.5131 -10.1171,3.8078 -14.6357,7.2127 l -5.9417,-3.1135 c 15.531,-12.663 31.3289,-25 46.9277,-37.5816 8.4952,-6.851 34.362,-29.3693 42.2431,-32.9502 6.03,-2.7406 20.6821,-2.7732 27.7449,-3.5714 z"
       id="path3"
       style="fill:#ffffff;fill-opacity:1;stroke-width:1.10937" /><path
       fill="#fef796"
       d="m 1791.1763,-1518.6116 c 6.1365,-0.8343 12.4495,-0.9893 18.5864,-1.412 -13.472,11.296 -27.2691,22.1428 -40.8291,33.3196 l -78.9371,65.1784 c -2.8739,2.3579 -16.9031,15.2416 -18.6635,16.08 -2.5732,1.2254 -10.3186,0.2484 -13.3868,0.2279 -8.5093,-0.056 -17.2034,0.3494 -25.7995,1.6296 1.5968,-4.8094 3.5701,-9.9636 7.1009,-13.982 8.1092,-9.2306 20.0371,-17.1039 29.6153,-25.0073 l 61.8483,-51.4026 c 8.2179,-6.4883 17.4139,-16.9609 27.5385,-19.9918 2.4393,-0.7303 5.2105,-0.7927 7.684,-0.9909 -28.6716,23.2435 -57.4375,46.7658 -85.3984,70.8188 -9.1734,7.8902 -19.5487,15.1971 -27.7269,24.0619 5.1492,1.4915 9.7289,1.8908 15.3045,1.7756 q 47.9152,-38.2699 94.8147,-77.7432 c 7.4197,-6.1663 13.9564,-13.5793 21.4845,-19.5105 2.008,-1.5819 4.4144,-2.2765 6.7642,-3.0519 z"
       id="path4-6-6"
       style="fill:#ffffff;fill-opacity:1;stroke-width:1.10937" /><path
       fill="#fef796"
       d="m 1638.3888,-1403.2607 c 10.1897,-0.9645 23.2527,-2.3832 32.8337,-0.3264 0.6918,0.8206 1.0199,1.3271 0.8976,2.5565 -0.1144,1.1442 -1.0328,2.4004 -1.8766,3.2499 -3.1621,3.1855 -7.4329,5.9923 -10.9222,8.908 -9.3271,7.7948 -18.5439,15.6281 -28.0117,23.267 l -65.2497,53.4809 -4.5103,-1.1606 c -12.2811,-3.7049 -22.5398,-4.3127 -35.9576,-1.3431 0.2349,-0.2715 0.4655,-0.5449 0.7036,-0.8123 5.3059,-5.9445 12.7704,-10.966 19.0306,-16.0168 l 31.6478,-25.6982 37.7127,-30.6301 c 5.5136,-4.4715 11.1622,-9.7748 16.9963,-13.7763 1.893,-1.2976 4.5441,-1.4031 6.7058,-1.6985 z"
       id="path5-3"
       style="fill:#ffffff;fill-opacity:1;stroke-width:1.10937" /><path
       fill="#a13be1"
       d="m 1529.9865,-1314.4138 c 11.9663,-1.7592 26.2865,-0.9173 36.2378,4.489 15.4197,8.3759 47.516,57.0151 58.8615,73.4057 5.9422,8.5839 12.7339,17.0204 17.6942,26.2261 1.9029,3.5326 3.011,6.9018 3.6936,10.9414 -2.2664,7.0604 -6.7669,10.8148 -12.6234,15.4345 -1.9645,1.2707 -3.9344,2.5884 -6.139,3.335 -8.9902,3.0453 -19.8605,-1.4514 -27.0629,-5.1641 -36.264,-18.6955 -69.5562,-64.876 -77.6481,-104.4754 -1.1568,-5.6614 -3.3661,-15.2995 0.6882,-20.9251 1.6121,-2.237 3.8455,-2.6413 6.2981,-3.2671 z"
       id="path6-5"
       style="fill:#ffffff;fill-opacity:1;stroke-width:1.10937" /><path
       fill="#fd898a"
       d="m 1858.4186,-1351.3047 c 17.8564,19.1723 34.8963,46.6621 48.8485,65.8186 5.6317,7.731 16.6024,19.8362 20.4397,27.8713 l 169.0413,230.5944 c 1.3684,1.9994 2.8776,3.9712 4.0917,6.0685 4.0868,4.5313 8.363,10.071 11.6903,15.1911 7.3884,8.42107 13.6754,17.68115 20.3772,26.63754 10.1865,13.43688 20.268,26.95186 30.2446,40.54495 10.752,14.41151 21.7254,28.60125 31.9383,43.41146 3.7708,5.47036 8.2614,11.1623 11.0787,17.22001 -0.756,1.58978 -1.478,3.54546 -2.503,4.99417 -4.8262,8.55531 -10.906,16.65982 -18.9063,22.89953 -2.037,1.67605 -8.3266,7.63335 -10.8766,7.52824 -0.1305,-0.006 -0.2487,-0.0599 -0.3732,-0.0887 -0.2482,0.83697 -0.8624,1.35996 -1.451,2.03983 -1.6344,0.59238 -2.1074,0.46234 -3.6185,-0.12382 -0.2024,-0.078 -0.3997,-0.1652 -0.5995,-0.24781 l 0.2746,1.46871 c -0.5831,1.01611 -1.1481,1.26448 -2.122,1.91829 -1.9323,0.55739 -3.0994,0.0901 -4.8571,-0.43556 -0.9579,-0.28646 -0.4565,-0.32657 -1.4273,0.048 l 0.5638,1.2632 c -1.8716,1.1322 -5.795,0.68934 -7.8996,0.72476 -1.2236,-2.14015 -2.3092,-4.16871 -4.1058,-5.89278 l 2.9544,5.59494 c -0.8437,-0.19579 -1.6794,-0.41055 -2.507,-0.64431 -7.2239,-2.06945 -20.154,-11.65075 -23.3725,-19.02129 -107.2762,-127.62037 -141.5119,-176.73576 -320.5899,-421.46726 -1.8911,-2.0643 -14.2369,-16.224 -13.8467,-19.2689 l 28.4156,-23.5942 z"
       id="path36-3"
       style="fill:#ffffff;fill-opacity:1;stroke-width:1.10937"
       sodipodi:nodetypes="cccccccccccccccccccsccccccccccc" /><text
       xml:space="preserve"
       style="font-style:italic;font-variant:normal;font-weight:normal;font-stretch:normal;font-size:15.6502px;font-family:Caladea;-inkscape-font-specification:'Caladea, Italic';font-variant-ligatures:normal;font-variant-caps:normal;font-variant-numeric:normal;font-variant-east-asian:normal;fill:#000000;fill-opacity:1;stroke-width:1.19947;stroke-opacity:0.297101"
       x="-129.00671"
       y="93.014259"
       id="text1-23"
       transform="matrix(-4.3796374,-5.4790903,5.4761154,-4.3775461,1024.9868,-1306.9535)"><tspan
         sodipodi:role="line"
         id="tspan1-3"
         x="-129.00671"
         y="93.014259"
         style="font-style:italic;font-variant:normal;font-weight:normal;font-stretch:normal;font-size:15.6502px;font-family:Caladea;-inkscape-font-specification:'Caladea, Italic';font-variant-ligatures:normal;font-variant-caps:normal;font-variant-numeric:normal;font-variant-east-asian:normal;fill:#000000;fill-opacity:1;stroke-width:1.19947">Strong</tspan></text></g><g
     inkscape:label="suit2"
     id="layer1-7"
     transform="matrix(-5.3037294,0,0,-5.3037294,765.37477,953.58493)"><path
       style="fill:#d80000;fill-opacity:1;stroke-width:0.703264"
       id="path1-3-1"
       sodipodi:type="arc"
       sodipodi:cx="11.377838"
       sodipodi:cy="10.259499"
       sodipodi:rx="7.4725904"
       sodipodi:ry="7.8478684"
       sodipodi:start="0.027304543"
       sodipodi:end="6.2831853"
       sodipodi:open="true"
       sodipodi:arc-type="arc"
       d="m 18.847643,10.473754 a 7.4725904,7.8478684 0 0 1 -7.622821,7.631968 7.4725904,7.8478684 0 0 1 -7.3188779,-7.953361 7.4725904,7.8478684 0 0 1 7.5229029,-7.740548 7.4725904,7.8478684 0 0 1 7.421582,7.847686" /><path
       style="fill:#ffffff;fill-opacity:1;stroke-width:0.672438"
       id="path1-6-8"
       sodipodi:type="arc"
       sodipodi:cx="11.372044"
       sodipodi:cy="10.102311"
       sodipodi:rx="7.136076"
       sodipodi:ry="7.5133352"
       sodipodi:start="0.027304543"
       sodipodi:end="6.2831853"
       sodipodi:open="true"
       sodipodi:arc-type="arc"
       d="M 18.50546,10.307434 A 7.136076,7.5133352 0 0 1 11.225918,17.614071 7.136076,7.5133352 0 0 1 4.2366327,9.9997403 7.136076,7.5133352 0 0 1 11.420755,2.589151 a 7.136076,7.5133352 0 0 1 7.087365,7.51316" /><rect
       style="fill:#cc0400;fill-opacity:1;stroke-width:0.824827"
       id="rect1-0-4"
       width="8.7777615"
       height="8.9696789"
       x="12.185754"
       y="-9.2068987"
       transform="matrix(0.52984252,0.84809605,-0.54411321,0.83901181,0,0)" /><path
       id="path3-6-9"
       style="fill:#ffffff;stroke-width:0.83953"
       d="M 16.175024,10.166982 11.405527,10.712513 6.6360343,10.166982 11.405527,10.057878 Z"
       sodipodi:nodetypes="ccccc" /><path
       id="path4-6"
       style="fill:#ffffff;stroke-width:0.475382"
       inkscape:transform-center-x="0.00030024449"
       inkscape:transform-center-y="0.43628623"
       d="m 11.218489,10.244916 0.191795,-8.063479 0.197269,7.988175 z" /></g><g
     inkscape:label="suit1"
     id="layer1"
     transform="matrix(5.3037294,0,0,5.3037294,60.612537,171.97072)"><path
       style="fill:#d80000;fill-opacity:1;stroke-width:0.232652"
       id="path1-3"
       sodipodi:type="arc"
       sodipodi:cx="2.9299388"
       sodipodi:cy="3.1140828"
       sodipodi:rx="2.4720631"
       sodipodi:ry="2.5962114"
       sodipodi:start="0.027304543"
       sodipodi:end="6.2831853"
       sodipodi:open="true"
       sodipodi:arc-type="arc"
       d="M 5.4010804,3.1849624 A 2.4720631,2.5962114 0 0 1 2.8793184,5.7097499 2.4720631,2.5962114 0 0 1 0.4581061,3.0786397 2.4720631,2.5962114 0 0 1 2.9468133,0.51793187 2.4720631,2.5962114 0 0 1 5.4020019,3.1140828"
       transform="matrix(3.0228156,0,0,3.0228156,2.602725,1.5506251)" /><path
       style="fill:#ffffff;fill-opacity:1;stroke-width:0.222454"
       id="path1-6"
       sodipodi:type="arc"
       sodipodi:cx="2.928021"
       sodipodi:cy="3.0620804"
       sodipodi:rx="2.360738"
       sodipodi:ry="2.4855421"
       sodipodi:start="0.027304543"
       sodipodi:end="6.2831853"
       sodipodi:open="true"
       sodipodi:arc-type="arc"
       d="M 5.287879,3.1299385 A 2.360738,2.4855421 0 0 1 2.8796802,5.5471013 2.360738,2.4855421 0 0 1 0.56750291,3.0281482 2.360738,2.4855421 0 0 1 2.9441355,0.57659623 2.360738,2.4855421 0 0 1 5.288759,3.0620804"
       transform="matrix(3.0228156,0,0,3.0228156,2.602725,1.5506251)" /><rect
       style="fill:#cc0400;fill-opacity:1;stroke-width:0.272867"
       id="rect1-0"
       width="2.9038363"
       height="2.9673259"
       x="3.0907626"
       y="-2.4287744"
       transform="matrix(1.6016162,2.563638,-1.6447539,2.536178,2.602725,1.5506251)" /><path
       id="path3-6"
       style="fill:#ffffff;stroke-width:0.277731"
       d="M 4.5169308,3.0834755 2.9390985,3.2639464 1.3612668,3.0834755 2.9390985,3.0473815 Z"
       sodipodi:nodetypes="ccccc"
       transform="matrix(3.0228156,0,0,3.0228156,2.602725,1.5506251)" /><path
       id="path4"
       style="fill:#ffffff;stroke-width:0.157265"
       inkscape:transform-center-x="-0.00030167401"
       inkscape:transform-center-y="-0.43628615"
       d="m 2.8772231,3.1092569 0.063449,-2.66753913 0.06526,2.64262783 z"
       transform="matrix(3.0228156,0,0,3.0228156,2.602725,1.5506251)" /></g><text
     xml:space="preserve"
     style="font-style:italic;font-variant:normal;font-weight:normal;font-stretch:normal;font-size:53.3333px;font-family:Caladea;-inkscape-font-specification:'Caladea, Italic';font-variant-ligatures:normal;font-variant-caps:normal;font-variant-numeric:normal;font-variant-east-asian:normal;text-align:start;writing-mode:lr-tb;direction:ltr;text-anchor:start;fill:#cc0400;fill-opacity:1;stroke:#cb0703;stroke-width:1.28882;stroke-opacity:1"
     x="393.12747"
     y="-690.63452"
     id="text1-8"
     transform="matrix(0,1.0000024,-0.99999763,0,0,0)"
     inkscape:label="name2"><tspan
       sodipodi:role="line"
       id="tspan21"
       x="393.12747"
       y="-690.63452"
       style="stroke-width:1.28882;stroke:#cb0703;stroke-opacity:1;fill:#cc0400;fill-opacity:1">Nine of Coins</tspan></text><text
     xml:space="preserve"
     style="font-style:italic;font-variant:normal;font-weight:normal;font-stretch:normal;font-size:53.3333px;font-family:Caladea;-inkscape-font-specification:'Caladea, Italic';font-variant-ligatures:normal;font-variant-caps:normal;font-variant-numeric:normal;font-variant-east-asian:normal;text-align:start;writing-mode:lr-tb;direction:ltr;text-anchor:start;fill:#cc0400;fill-opacity:1;stroke:#cc0400;stroke-width:1.28882;stroke-opacity:1"
     x="-675.7887"
     y="135.39702"
     id="text1-8-1"
     transform="matrix(0,-1.000003,0.999997,0,0,0)"
     inkscape:label="name1"><tspan
       sodipodi:role="line"
       id="tspan1"
       x="-675.7887"
       y="135.39702"
       style="stroke-width:1.28882;fill:#cc0400;fill-opacity:1;stroke:#cc0400;stroke-opacity:1">Guildmaster</tspan></text><text
     xml:space="preserve"
     style="font-style:italic;font-variant:normal;font-weight:normal;font-stretch:normal;font-size:96.0002px;font-family:Caladea;-inkscape-font-specification:'Caladea, Italic';font-variant-ligatures:normal;font-variant-caps:normal;font-variant-numeric:normal;font-variant-east-asian:normal;text-align:start;writing-mode:lr-tb;direction:ltr;text-anchor:start;fill:#cc0400;fill-opacity:1;stroke:#c80400;stroke-width:1.289;stroke-dasharray:none;stroke-opacity:1"
     x="-728.67297"
     y="-962.96722"
     id="text1-5"
     transform="scale(-1)"
     inkscape:label="rank2"><tspan
       sodipodi:role="line"
       id="tspan20"
       x="-728.67297"
       y="-962.96722">9</tspan></text><text
     xml:space="preserve"
     style="font-style:italic;font-variant:normal;font-weight:normal;font-stretch:normal;font-size:96.0001px;font-family:Caladea;-inkscape-font-specification:'Caladea, Italic';font-variant-ligatures:normal;font-variant-caps:normal;font-variant-numeric:normal;font-variant-east-asian:normal;text-align:start;writing-mode:lr-tb;direction:ltr;text-anchor:start;fill:#cc0400;fill-opacity:1;stroke:#bd0400;stroke-width:1.28882;stroke-opacity:1"
     x="92.608116"
     y="159.10419"
     id="text1"
     inkscape:label="rank1"><tspan
       sodipodi:role="line"
       id="tspan19"
       x="92.608116"
       y="159.10419">9</tspan></text></svg>
