<?xml version="1.0" encoding="UTF-8" standalone="no"?>
<!-- Created with Inkscape (http://www.inkscape.org/) -->

<svg
   width="63mm"
   height="88mm"
   viewBox="0 0 63 88"
   version="1.1"
   id="svg1"
   inkscape:version="1.4 (86a8ad7, 2024-10-11)"
   xml:space="preserve"
   sodipodi:docname="card-disorder-delusion.svg"
   xmlns:inkscape="http://www.inkscape.org/namespaces/inkscape"
   xmlns:sodipodi="http://sodipodi.sourceforge.net/DTD/sodipodi-0.dtd"
   xmlns="http://www.w3.org/2000/svg"
   xmlns:svg="http://www.w3.org/2000/svg"><sodipodi:namedview
     id="namedview1"
     pagecolor="#ffffff"
     bordercolor="#000000"
     borderopacity="0.25"
     inkscape:showpageshadow="2"
     inkscape:pageopacity="0.0"
     inkscape:pagecheckerboard="0"
     inkscape:deskcolor="#d1d1d1"
     inkscape:document-units="mm"
     inkscape:zoom="2.9255612"
     inkscape:cx="127.66781"
     inkscape:cy="152.27848"
     inkscape:window-width="1350"
     inkscape:window-height="1017"
     inkscape:window-x="228"
     inkscape:window-y="0"
     inkscape:window-maximized="0"
     inkscape:current-layer="layer1" /><defs
     id="defs1" /><g
     inkscape:label="Layer 1"
     inkscape:groupmode="layer"
     id="layer1"><g
       id="g1"
       transform="matrix(0.83831914,0,0,0.83831914,4.3636836,3.8267418)"
       style="opacity:0.5"><path
         d="m 33.886921,64.902419 c -0.09966,-0.0034 -0.206212,-1.98e-4 -0.302178,-0.02994 l -0.02278,-0.0074 c -0.117704,-0.03588 -0.226792,-0.08172 -0.330344,-0.148897 -0.386636,-0.250832 -0.560233,-0.704711 -0.683737,-1.128219 -0.521121,-1.787287 -0.178115,-3.659724 0.0033,-5.470557 l 0.155623,-2.161129 0.03879,-0.882167 c 0.0015,-0.05099 0.01876,-0.164364 0.0056,-0.209082 -0.01445,-0.04933 -0.121686,-0.15546 -0.156448,-0.202618 -0.166474,-0.225968 -0.276786,-0.441975 -0.339313,-0.715463 -0.03523,-0.154041 -0.03602,-0.309797 -0.04119,-0.467071 -0.710417,-0.260098 -1.325164,-0.675096 -1.876593,-1.187447 -1.681361,-1.562211 -2.685054,-3.748699 -3.079209,-5.98914 -0.117206,-0.666094 -0.174851,-1.33786 -0.199354,-2.013123 -0.0319,-0.87854 0.05472,-1.771326 0.213733,-2.635223 0.373873,-2.0307 1.173101,-4.000292 2.593934,-5.527315 1.044189,-1.122193 2.395011,-1.887435 3.948383,-1.94365 0.830392,0.0084 1.561585,0.216086 2.302605,0.586465 0.490518,0.24518 0.934406,0.584509 1.337234,0.953918 1.221019,1.119785 2.013815,2.522316 2.52788,4.086076 1.038582,3.159215 0.869437,6.882391 -0.640371,9.864742 -0.794742,1.569829 -2.111893,3.219037 -3.83827,3.786592 0.0046,0.445008 -0.09409,0.794049 -0.35811,1.153117 -0.0522,0.07096 -0.168254,0.177588 -0.200078,0.25281 -0.01606,0.03796 0.007,0.198893 0.0088,0.246579 l 0.355571,4.174712 0.118584,1.543283 c 0.04729,0.873889 0.0157,1.769083 -0.205289,2.619557 -0.09844,0.378822 -0.243445,0.779343 -0.51103,1.072815 -0.228275,0.250338 -0.48999,0.363288 -0.825775,0.377798 z M 33.593811,35.55164 c -0.202717,0.02273 -0.411634,0.04886 -0.608745,0.102655 -1.019752,0.278392 -1.859147,0.958483 -2.509544,1.77067 -0.371532,0.464004 -0.663785,0.979881 -0.914552,1.516668 -0.920355,1.970119 -1.247103,4.300261 -1.006725,6.456772 0.247105,2.217159 1.15084,4.671958 2.938623,6.106775 0.789168,0.63338 1.680406,0.991919 2.699366,0.922105 1.282161,-0.183327 2.32325,-0.992942 3.086926,-2.00511 1.186293,-1.572334 1.834941,-3.581962 1.970746,-5.536021 0.06246,-0.898655 0.01161,-1.803611 -0.1151,-2.694352 C 38.895951,40.512256 38.277015,38.800259 37.223262,37.456 36.911717,37.058612 36.557399,36.680352 36.152855,36.376162 35.425388,35.829136 34.517366,35.470003 33.596647,35.551096 Z m 0.166475,27.712619 c -0.121124,0.05807 -0.189163,0.109855 -0.235531,0.241202 -0.03113,0.08822 -0.02301,0.199123 0.01893,0.282887 0.041,0.08181 0.112088,0.147974 0.199551,0.176797 0.07088,0.02334 0.149952,0.02034 0.222076,0.0051 0.104175,-0.04756 0.180654,-0.102694 0.224417,-0.212348 0.03756,-0.09416 0.03384,-0.211324 -0.01174,-0.302443 -0.04762,-0.0952 -0.141213,-0.160175 -0.243478,-0.185832 -0.05472,-0.01375 -0.118099,-0.0093 -0.174224,-0.0054 z"
         id="path2"
         style="stroke-width:0.0329782" /><path
         d="m 33.978271,52.240004 -0.01653,0.0012 c -0.943474,0.05655 -1.860268,-0.453418 -2.546776,-1.057051 -0.210665,-0.185239 -0.400784,-0.396036 -0.583352,-0.608547 -1.344423,-1.565114 -2.004185,-3.772114 -2.125215,-5.805221 -0.10757,-1.806943 0.174158,-3.625428 0.857433,-5.301942 0.310194,-0.761105 0.711869,-1.508819 1.262605,-2.125545 0.774329,-0.86703 1.76318,-1.511102 2.949077,-1.576095 0.364871,0.0034 0.723344,0.0465 1.072418,0.157398 0.569468,0.180926 1.074101,0.525646 1.520791,0.915483 0.480988,0.419746 0.881179,0.96603 1.206641,1.511127 0.885597,1.483229 1.356229,3.149749 1.471422,4.869663 0.125617,1.875372 -0.179402,3.757504 -0.973253,5.465678 -0.342479,0.736898 -0.755366,1.412259 -1.293176,2.023444 -0.724498,0.8234 -1.683505,1.461034 -2.802093,1.530421 z m -4.388708,-9.107793 c 0.02184,0.06959 0.104379,0.153679 0.151733,0.20773 0.211489,0.241367 0.448998,0.462288 0.728027,0.623684 0.430794,0.249216 1.070407,0.393991 1.558781,0.276423 0.131682,-0.03169 0.257428,-0.07602 0.364311,-0.161856 0.08528,-0.0685 0.144213,-0.155394 0.208191,-0.242555 0.119976,-0.163441 0.240939,-0.316756 0.423308,-0.415164 0.118495,-0.06394 0.247667,-0.09689 0.376678,-0.132374 -0.176302,0.121724 -0.320515,0.236421 -0.421362,0.43096 -0.03344,0.06451 -0.05782,0.136727 -0.0994,0.196484 -0.283777,0.40738 -0.588859,0.641162 -1.073474,0.739272 l 0.82396,0.510932 c 0.185767,0.09653 0.420869,0.01962 0.609768,0.13277 0.06151,0.03684 0.200441,-0.0497 0.281436,-0.04933 0.152756,6.6e-4 0.241829,0.09584 0.336873,0.20008 0.07496,-0.08479 0.169013,-0.204894 0.29133,-0.210666 0.106944,-0.0051 0.170596,0.03038 0.248127,0.09989 l 0.01541,0.01418 c 0.09208,-0.06147 0.174586,-0.105132 0.283843,-0.128022 0.134618,-0.02823 0.292122,-0.02088 0.418956,-0.07196 0.286679,-0.115457 0.531872,-0.338785 0.795732,-0.497542 -0.443789,-0.07255 -0.777396,-0.333805 -1.02714,-0.704349 -0.06326,-0.09389 -0.106715,-0.199915 -0.166541,-0.295914 -0.104863,-0.168188 -0.246709,-0.27118 -0.415294,-0.368597 0.314712,0.05622 0.595125,0.208422 0.781881,0.471226 0.07496,0.105463 0.144345,0.222767 0.243182,0.308115 0.253436,0.218909 0.708471,0.24417 1.025391,0.211951 0.559245,-0.05689 1.102858,-0.380668 1.492099,-0.77789 0.101214,-0.103294 0.190383,-0.223098 0.28104,-0.335785 -0.127327,0.08508 -0.255218,0.177159 -0.391913,0.246315 -0.503808,0.254921 -1.065328,0.334794 -1.616624,0.226989 0.357912,-0.02186 0.70237,-0.11935 1.021962,-0.280578 0.640898,-0.323352 1.056918,-0.828018 1.282193,-1.506776 l -0.30838,0.422683 c -0.472248,0.578272 -1.22026,0.870822 -1.946144,0.947101 0.0804,-0.05299 0.182898,-0.07833 0.269861,-0.121431 0.296969,-0.147281 0.612307,-0.321405 0.857698,-0.545526 0.321537,-0.293638 0.563729,-0.638821 0.73459,-1.039276 0.05147,-0.120639 0.109854,-0.26122 0.1151,-0.393397 l 0.01355,-0.01659 -0.01355,0.01659 -0.0178,0.02045 c -0.08169,0.09597 -0.141444,0.220855 -0.216206,0.324011 -0.13897,0.191735 -0.6408,0.7986 -0.834349,0.873593 0.03327,-0.08716 0.109714,-0.177489 0.151074,-0.266761 0.129307,-0.279128 0.232,-0.590442 0.300134,-0.890148 0.141212,-0.621277 0.05715,-1.223492 -0.284668,-1.763411 -0.517429,-0.817332 -1.497475,-1.340961 -2.421128,-1.548295 -1.10121,-0.247205 -2.285425,-0.06925 -3.243441,0.540908 -0.649638,0.413746 -1.213632,0.972199 -1.38436,1.748638 -0.12129,0.551528 -0.01161,1.103748 0.171717,1.627541 0.06652,0.190021 0.133298,0.380536 0.242555,0.551001 l -0.02203,-0.01 c -0.07269,-0.03546 -0.143917,-0.123728 -0.199782,-0.18115 -0.314908,-0.323384 -0.565443,-0.675163 -0.797775,-1.060546 0.131714,0.69495 0.483592,1.307652 1.081355,1.710118 0.286712,0.193021 0.57181,0.318504 0.902746,0.408403 -0.651814,0.0093 -1.313094,-0.243346 -1.78112,-0.698809 -0.177555,-0.172773 -0.295486,-0.373808 -0.453352,-0.558222 0.05857,0.150149 0.114372,0.304257 0.193088,0.445206 0.286613,0.513305 0.709789,0.852058 1.243905,1.085873 0.214787,0.09399 0.469708,0.156977 0.700359,0.201432 -0.200838,0.01034 -0.407677,0.02388 -0.60802,0.005 -0.315964,-0.02981 -0.661675,-0.15028 -0.934834,-0.312039 -0.119516,-0.0708 -0.225571,-0.175576 -0.343237,-0.240609 l -0.01797,-0.01863 -0.01368,-0.01639 0.01368,0.01639 z m 0.61079,1.154336 c 0.09576,0.215975 0.265672,0.421661 0.389506,0.6253 0.226164,0.372061 0.42898,0.755597 0.619133,1.147049 l 0.547767,1.228406 0.453715,1.10688 c 0.10494,0.236323 0.212379,0.476008 0.3528,0.693698 0.212546,0.329485 0.437028,0.596114 0.811365,0.736897 0.278006,0.10457 0.617219,0.09145 0.900304,0.01784 0.458266,-0.119145 0.789796,-0.547802 1.012366,-0.93945 0.317679,-0.559014 0.513339,-1.1888 0.740954,-1.787519 0.283349,-0.745275 0.620024,-1.478776 1.054908,-2.148333 l 0.487153,-0.623816 c -0.535236,0.400686 -0.997755,0.89625 -1.326977,1.481415 -0.112789,0.200541 -0.222734,0.41358 -0.307357,0.627707 -0.335487,0.848992 -0.609932,1.950629 -1.54958,2.31583 -0.221449,0.08608 -0.484945,0.125949 -0.720872,0.08999 -0.444677,-0.06774 -0.817166,-0.305246 -1.078947,-0.667775 -0.117104,-0.162221 -0.202783,-0.340732 -0.289846,-0.520001 -0.213171,-0.439105 -0.367839,-0.896612 -0.565741,-1.341356 -0.256043,-0.575404 -0.645516,-1.095701 -1.066219,-1.561717 l -0.307917,-0.335356 c -0.04854,-0.05043 -0.09689,-0.108986 -0.156515,-0.145697 l -0.01597,-0.01866 z m 5.460302,2.473564 0.722949,-1.57184 0.01362,-0.02888 0.01504,-0.01593 -0.01504,0.01593 c -0.0741,0.03792 -0.131615,0.103549 -0.189823,0.162089 -0.260395,0.261813 -0.492628,0.636941 -0.540744,1.007945 -0.01797,0.138641 -0.006,0.290836 -0.006,0.430695 z m -4.500603,-1.72819 c 0.341126,0.37427 0.494475,0.814496 0.697687,1.268408 l 0.225439,0.458167 c -0.0045,-0.172608 0.0078,-0.367708 -0.02384,-0.536918 -0.05768,-0.308808 -0.334498,-0.708768 -0.559442,-0.923193 -0.08954,-0.08535 -0.185009,-0.16466 -0.288329,-0.232694 z m 1.002966,0.160406 c 0.01986,0.100818 0.03331,0.214226 0.07156,0.309599 0.0713,0.177786 0.23863,0.326716 0.373149,0.458431 -0.03126,-0.206773 -0.05647,-0.421957 -0.205653,-0.582197 -0.04775,-0.05132 -0.111003,-0.09191 -0.167364,-0.133496 z m 3.379311,0.02361 c -0.174026,0.11279 -0.344029,0.22643 -0.391682,0.44303 l -0.05599,0.298783 c 0.182403,-0.178446 0.459584,-0.40283 0.462685,-0.684101 2.63e-4,-0.02565 -9.24e-4,-0.02753 -0.0048,-0.04947 z m -2.722087,0.313293 c -0.09428,0.105898 -0.07265,0.226099 -0.06625,0.362762 0.0026,0.05553 0.0111,0.111169 0.02902,0.163868 l 0.320021,0.132935 0.04416,0.0043 c 0.0078,-0.06292 -0.01814,-0.132771 -0.03308,-0.193977 -0.02935,-0.120078 -0.06451,-0.33374 -0.1486,-0.427959 -0.03321,-0.03727 -0.05583,-0.0471 -0.103817,-0.05593 z m 1.997885,0 c -0.08608,0.03475 -0.117206,0.08212 -0.15371,0.16786 -0.0497,0.116708 -0.07167,0.257922 -0.08887,0.383108 -0.0047,0.03396 -0.01622,0.08006 -0.0054,0.112419 l 0.0059,0.01187 0.104902,-0.04077 c 0.08591,-0.04108 0.190119,-0.08054 0.266034,-0.137288 0.02523,-0.163275 0.03611,-0.322165 -0.05405,-0.467961 -0.0304,-0.02057 -0.0369,-0.02642 -0.07479,-0.02928 z m -0.666719,0.06596 c -0.0997,0.046 -0.138443,0.113084 -0.175577,0.214358 -0.05564,0.151766 -0.04683,0.355604 -0.03879,0.515912 0.09441,-3.63e-4 0.189065,0.0026 0.282558,-0.012 0.06303,-0.01424 0.119312,-0.0252 0.175048,-0.05884 0.05412,-0.09703 0.02849,-0.36563 -0.0042,-0.475876 -0.0188,-0.06351 -0.06536,-0.147709 -0.127725,-0.177918 -0.04512,-0.02184 -0.06372,-0.01418 -0.111335,-0.0056 z m -0.693962,0.01649 c -0.07509,0.0338 -0.114602,0.07532 -0.142828,0.153974 -0.04462,0.124366 -0.06032,0.351911 0.0019,0.470765 0.02559,0.04891 0.06434,0.07153 0.116938,0.0866 0.05362,0.01541 0.12129,0.01474 0.17706,0.01909 l 0.164826,-0.01059 c 0.0028,-0.232035 0.0371,-0.489924 -0.135343,-0.675822 -0.02569,-0.02773 -0.05511,-0.05251 -0.09451,-0.05425 z m -0.992743,1.170726 c -0.02817,0.374006 0.02503,0.672657 0.259902,0.972858 l 0.01899,-0.007 0.0083,-0.02592 0.03044,-0.276622 c -0.129637,-0.159977 -0.21162,-0.286647 -0.269068,-0.48511 -0.01599,-0.05528 -0.02374,-0.128615 -0.04862,-0.178148 z m 2.819835,-0.05204 c -0.02659,0.155492 -0.0593,0.327342 -0.142234,0.464267 -0.04169,0.06886 -0.09299,0.132902 -0.140455,0.197902 -0.01072,0.01464 -0.04017,0.04472 -0.04425,0.05992 -0.0029,0.01085 0.01149,0.06609 0.01359,0.07839 0.01339,0.07793 0.02773,0.154865 0.03346,0.233816 0.261353,-0.293902 0.309732,-0.592916 0.284734,-0.975298 z m -0.523859,0.925962 c -0.233616,0.215316 -0.300662,0.454573 -0.315502,0.762919 l 0.01834,0.01212 c 0.164858,-0.09986 0.263397,-0.202915 0.309632,-0.396365 0.02869,-0.120141 0.0253,-0.240114 0.01795,-0.362135 z m -1.833391,0.01649 c -0.02232,0.200211 0.0032,0.450153 0.132969,0.61201 0.06091,0.07592 0.138739,0.121291 0.223328,0.16532 -0.03775,-0.254098 -0.04837,-0.569765 -0.26953,-0.742175 -0.02882,-0.02246 -0.04947,-0.03285 -0.08677,-0.03515 z m 1.206311,0.362761 c -0.06213,0.01989 -0.120639,0.04756 -0.151733,0.109063 -0.05043,0.09966 -0.04673,0.27029 -0.0242,0.37737 0.04271,0.02694 0.104404,0.01876 0.153514,0.01943 0.0498,-0.01422 0.09693,-0.0243 0.138541,-0.05682 0.05181,-0.142102 0.03255,-0.277182 0.01643,-0.423737 -0.04508,-0.03123 -0.07786,-0.03265 -0.13254,-0.0253 z m -0.665303,0.01649 c -0.04093,0.09758 -0.05264,0.296012 -0.0038,0.392243 0.01597,0.03146 0.03298,0.0463 0.06041,0.06707 0.07192,0.01847 0.136729,0.01876 0.210204,0.0187 l 0.03944,-0.02509 c 0.002,-0.126766 0.01468,-0.321471 -0.08222,-0.420044 -0.04208,-0.04281 -0.08954,-0.04502 -0.147545,-0.04172 -0.02516,0.0014 -0.05191,0.0031 -0.07648,0.0088 z"
         id="path3"
         style="stroke-width:0.0329782" /><path
         d="m 36.199651,39.140099 0.03344,-0.01287 z"
         id="path4"
         style="stroke-width:0.0329782" /><path
         d="m 31.428395,39.125819 c 0.34802,0.0705 0.633083,0.164957 0.91696,0.386076 0.444348,0.34614 0.751244,0.81011 0.937505,1.336211 0.04525,0.127758 0.0963,0.266761 0.112483,0.401807 -0.0404,-0.05613 -0.06371,-0.142828 -0.09316,-0.206905 -0.05353,-0.116517 -0.115981,-0.227384 -0.183523,-0.336312 -0.127957,-0.206345 -0.279755,-0.39221 -0.436401,-0.57692 -0.26719,-0.315042 -0.562049,-0.625927 -0.916201,-0.84388 -0.106128,-0.0653 -0.225473,-0.106255 -0.337663,-0.160077 z"
         id="path5"
         style="stroke-width:0.0329782" /><path
         d="m 36.199651,39.140099 -0.01795,0.012 c -0.11598,0.07562 -0.250667,0.123013 -0.368927,0.203047 -0.463541,0.313755 -0.899877,0.826269 -1.195855,1.294988 -0.07604,0.12041 -0.13963,0.246744 -0.202158,0.374601 -0.0314,0.06421 -0.06065,0.15813 -0.109547,0.208917 0.0088,-0.09624 0.04997,-0.202849 0.07921,-0.295255 0.13254,-0.418823 0.325628,-0.773504 0.616956,-1.103913 0.288132,-0.326748 0.746232,-0.666523 1.198264,-0.694389 z"
         id="path6"
         style="stroke-width:0.0329782" /><path
         d="m 31.074605,41.067807 c 0.128153,-0.178775 0.393101,-0.306895 0.606041,-0.340235 0.255515,-0.04 0.495663,0.01059 0.704118,0.168221 0.189889,0.143621 0.340038,0.315602 0.471127,0.512646 0.04739,0.07127 0.105425,0.148865 0.134947,0.22966 0.01735,0.04749 0.06678,0.100614 0.09751,0.142664 l 0.248425,0.335521 c -0.120639,0.188141 -0.272631,0.333673 -0.438379,0.481548 -0.263265,0.23487 -0.593147,0.495399 -0.944826,0.572535 -0.04442,0.0097 -0.07384,0.01072 -0.117729,9.23e-4 0.04887,-0.03061 0.111233,-0.05385 0.147973,-0.09893 -0.02951,-0.0345 -0.0284,-0.02549 -0.07077,-0.02902 -0.06193,0.0364 -0.124698,0.07987 -0.191505,0.105987 0.04989,-0.05353 0.100027,-0.09624 0.159615,-0.138674 -0.553572,-0.251689 -0.857202,-0.630543 -1.120138,-1.166373 0.186921,-0.353031 0.414338,-0.621772 0.807175,-0.741581 0.293934,-0.08966 0.580054,-0.03213 0.845594,0.113747 0.181414,0.09963 0.344722,0.230353 0.50427,0.361177 l 0.01795,0.01826 0.01451,0.0158 -0.01451,-0.0158 -0.01795,-0.01826 -0.0091,-0.02151 c -0.03103,-0.05068 -0.09224,-0.103817 -0.133793,-0.14649 -0.210631,-0.216403 -0.49332,-0.408731 -0.788013,-0.487648 -0.322792,-0.08643 -0.62972,-0.02072 -0.91264,0.145829 z m 0.822906,0.596313 c -0.09201,0.03825 -0.187152,0.0898 -0.222999,0.190646 -0.02909,0.08185 -0.01708,0.19566 0.02407,0.271939 0.04214,0.07802 0.111105,0.134222 0.197902,0.155228 0.05379,0.01303 0.109459,0.0088 0.164165,0.0055 0.09445,-0.0431 0.1734,-0.08743 0.215249,-0.187876 0.02876,-0.06899 0.02493,-0.168585 -0.004,-0.236521 -0.03546,-0.08356 -0.107671,-0.156614 -0.194473,-0.185634 -0.05689,-0.01899 -0.120728,-0.01468 -0.179995,-0.01322 z"
         id="path7"
         style="stroke-width:0.0329782" /><path
         d="m 35.869012,43.178611 c -0.04752,3.31e-4 -0.08872,-0.0027 -0.135046,-0.01431 -0.39498,-0.09903 -0.749331,-0.409292 -1.034264,-0.685847 -0.113313,-0.110021 -0.232496,-0.222406 -0.315798,-0.357649 0.07796,-0.150513 0.194472,-0.290274 0.290208,-0.430596 0.16908,-0.247799 0.305016,-0.501401 0.53184,-0.705635 0.220228,-0.198331 0.450218,-0.28114 0.746923,-0.262672 0.225868,0.01408 0.522375,0.143423 0.673382,0.314744 -0.08726,-0.04162 -0.176104,-0.09267 -0.269399,-0.119286 -0.223757,-0.06388 -0.509184,-0.04521 -0.72674,0.03317 -0.28579,0.102923 -0.657191,0.326319 -0.808989,0.599874 l -0.0043,0.01161 -0.01715,0.01886 -0.01428,0.01504 0.01428,-0.01504 0.01715,-0.01886 0.02461,-0.01745 c 0.07948,-0.05722 0.145896,-0.131913 0.223428,-0.192066 0.234871,-0.182303 0.584176,-0.330243 0.885168,-0.286316 0.361903,0.05283 0.673515,0.262935 0.890115,0.554892 0.04548,0.0613 0.08079,0.129109 0.116185,0.196516 -0.207532,0.382218 -0.395442,0.740032 -0.767535,0.991128 -0.116146,0.07835 -0.249646,0.134814 -0.374665,0.197638 0.06978,0.04469 0.145137,0.08483 0.169309,0.170465 -0.0681,-0.06707 -0.16588,-0.138114 -0.261417,-0.142368 l -0.01676,0.02137 c 0.04571,0.04966 0.109587,0.08237 0.163738,0.122745 z M 35.675825,41.66412 c -0.112356,0.04498 -0.198134,0.09726 -0.244632,0.215941 -0.02846,0.07278 -0.03001,0.150644 0.0023,0.222438 0.03044,0.06771 0.09689,0.132045 0.167166,0.157273 0.05861,0.02107 0.130231,0.01553 0.191737,0.01458 0.101775,-0.03061 0.181082,-0.06948 0.234705,-0.165551 0.03608,-0.06463 0.03766,-0.159515 0.01926,-0.230056 -0.01945,-0.07446 -0.08489,-0.150744 -0.153151,-0.185042 -0.06731,-0.03384 -0.144016,-0.03444 -0.21736,-0.02959 z"
         id="path8"
         style="stroke-width:0.0329782" /><path
         d="m 36.642714,41.050658 -0.01645,-0.01401 z"
         id="path9"
         style="stroke-width:0.0329782" /><path
         d="m 31.074605,41.067807 -0.01622,0.01672 z"
         id="path10"
         style="stroke-width:0.0329782" /><path
         d="m 34.305218,41.233655 -0.01422,0.03308 z"
         id="path11"
         style="stroke-width:0.0329782" /><path
         d="m 33.409628,41.283221 -0.01428,-0.03331 z"
         id="path12"
         style="stroke-width:0.0329782" /><path
         d="m 30.624222,42.352902 -0.01597,-0.01537 z"
         id="path13"
         style="stroke-width:0.0329782" /><path
         d="m 37.076377,42.338062 -0.01616,0.01583 z"
         id="path14"
         style="stroke-width:0.0329782" /><path
         d="m 35.88682,43.191902 -0.01781,-0.01329 z"
         id="path15"
         style="stroke-width:0.0329782" /><path
         d="m 35.99865,43.193551 -0.0152,-0.01668 z"
         id="path16"
         style="stroke-width:0.0329782" /><path
         d="m 34.756227,44.305049 -0.0715,0.111169 c -0.08841,0.108667 -0.261946,0.154634 -0.396498,0.164858 l -0.01926,0.0012 c -0.12212,0.137882 -0.129111,0.329353 -0.239588,0.461762 -0.03047,0.03657 -0.06717,0.04983 -0.113479,0.05068 -0.254756,0.0046 -0.292517,-0.253438 -0.394486,-0.432378 -0.01212,-0.02134 -0.03736,-0.07677 -0.05461,-0.09148 -0.007,-0.006 -0.09237,-0.01123 -0.106153,-0.01306 -0.120307,-0.01595 -0.226989,-0.03727 -0.316987,-0.124953 -0.140882,-0.137288 -0.140255,-0.33641 -0.138607,-0.517955 0.03542,0.07229 0.0498,0.147609 0.10203,0.212742 0.09105,0.113441 0.28282,0.03529 0.40916,0.04947 0.27583,0.03096 0.244534,0.307521 0.378162,0.465487 0.02209,0.0028 0.03219,0.0048 0.05609,0.0036 0.144973,-0.0075 0.147216,-0.120767 0.197507,-0.227913 0.02744,-0.05847 0.06305,-0.10748 0.108335,-0.153184 0.152294,-0.153777 0.244864,-0.06365 0.419681,-0.08146 0.11242,-0.01149 0.202354,-0.159384 0.264289,-0.241137 -0.01653,0.124685 -0.04033,0.244435 -0.0841,0.36253 z"
         id="path17"
         style="stroke-width:0.0329782" /></g><g
       id="mind-2"
       transform="matrix(0.06382477,0,0,0.06382477,-11.421667,-14.564775)"
       inkscape:label="mind"><path
         fill="#8751D1"
         d="m 411.69208,747.05319 c -0.24812,-0.0337 -0.61135,0.0446 -0.86853,0.0689 l -1.88364,0.18649 c -3.72501,0.33108 -8.57419,0.88378 -11.91731,-1.09865 -2.31419,-1.37162 -3.71541,-3.91758 -3.77797,-6.58974 -0.0316,-1.35445 0.21513,-2.71607 0.33824,-4.0627 0.155,-1.69621 0.11689,-3.55812 -0.36243,-5.20298 -0.34838,-1.19595 -1.45608,-1.90027 -2.27878,-2.7777 -0.32433,-0.34581 -0.66149,-0.6965 -0.75798,-1.17919 -0.0843,-0.42203 0.004,-0.78231 0.23041,-1.14312 0.70459,-1.12593 2.04783,-1.75635 3.29176,-2.05337 -1.46785,-0.66041 -2.98109,-1.155 -3.73973,-2.6996 -0.0738,-0.9685 0.67715,-1.48648 1.22594,-2.20552 0.44256,-0.57988 0.90959,-1.29285 1.14594,-1.98636 0.30595,-0.89757 0.39325,-2.0065 -0.0624,-2.87055 -0.32352,-0.61365 -0.91203,-0.94972 -1.54743,-1.15905 -1.07176,-0.35298 -2.44501,-0.17271 -3.57501,-0.2446 -1.08391,-0.069 -2.38392,-0.43067 -3.12283,-1.2777 -1.58244,-1.81365 -0.5669,-3.34163 0.31594,-5.1823 l 4.40663,-9.12569 c 1.32702,-2.79188 2.80864,-5.68878 3.46581,-8.72446 0.23121,-1.06798 0.27838,-2.21095 0.16162,-3.29905 -0.15554,-1.45068 -0.55595,-2.89231 -0.77594,-4.33731 -0.50258,-3.30135 -0.63447,-6.64149 -0.43325,-9.97311 l 5.83284,-17.18719 c 3.39416,-6.96905 6.91022,-12.09437 11.932,-16.32738 9.62457,-8.97887 13.47758,-9.65632 15.94441,-10.766 10.19556,-3.45889 25.31639,-3.25762 29.84348,-1.68229 4.3097,1.27835 11.02166,3.75073 14.87564,7.31267 8.36058,7.72704 13.11125,14.18473 17.04402,28.18178 1.13234,11.82468 2.47464,18.22573 -8.91699,38.68708 -4.82517,4.50903 -3.58578,9.81468 -4.72292,21.93709 -2.70104,8.57625 1.50951,26.66266 -1.8586,27.09779 z"
         id="path2-32"
         style="fill:none;fill-opacity:1;stroke:#e8312c;stroke-width:2.32259;stroke-dasharray:none;stroke-opacity:1"
         sodipodi:nodetypes="ccccccccccccscccccccscccccccsccccc" /><text
         xml:space="preserve"
         style="font-style:normal;font-variant:normal;font-weight:normal;font-stretch:normal;font-size:148.144px;font-family:Amiri;-inkscape-font-specification:'Amiri, Normal';font-variant-ligatures:normal;font-variant-caps:normal;font-variant-numeric:normal;font-variant-east-asian:normal;fill:#e8312c;fill-opacity:1;stroke:none;stroke-width:0.269287;stroke-dasharray:none;stroke-opacity:1;paint-order:markers fill stroke"
         x="489.6109"
         y="732.83862"
         id="text1"><tspan
           sodipodi:role="line"
           id="tspan1"
           x="489.6109"
           y="732.83862">Mind:-1</tspan></text><path
         style="fill:#e7322c;fill-opacity:1;stroke-width:3.49882"
         id="path1-3-2"
         sodipodi:type="arc"
         sodipodi:cx="441.53137"
         sodipodi:cy="667.83423"
         sodipodi:rx="37.176922"
         sodipodi:ry="39.043968"
         sodipodi:start="0.027304543"
         sodipodi:end="6.2831853"
         sodipodi:open="true"
         sodipodi:arc-type="arc"
         d="m 478.69444,668.90017 a 37.176922,39.043968 0 0 1 -37.92434,37.96984 37.176922,39.043968 0 0 1 -36.41219,-39.5688 37.176922,39.043968 0 0 1 37.42723,-38.51004 37.176922,39.043968 0 0 1 36.92315,39.04306" /><path
         style="fill:#ffffff;fill-opacity:1;stroke-width:3.34545"
         id="path1-1"
         sodipodi:type="arc"
         sodipodi:cx="441.50256"
         sodipodi:cy="667.05212"
         sodipodi:rx="35.50272"
         sodipodi:ry="37.379631"
         sodipodi:start="0.027304543"
         sodipodi:end="6.2831853"
         sodipodi:open="true"
         sodipodi:arc-type="arc"
         d="m 476.99205,668.07263 a 35.50272,37.379631 0 0 1 -36.21647,36.35129 35.50272,37.379631 0 0 1 -34.77243,-37.8821 35.50272,37.379631 0 0 1 35.74176,-36.86846 35.50272,37.379631 0 0 1 35.26037,37.37876" /><rect
         style="fill:#e8322b;fill-opacity:1;stroke-width:4.1036"
         id="rect1"
         width="43.670288"
         height="44.625092"
         x="787.51117"
         y="-45.42012"
         transform="matrix(0.5298425,0.84809606,-0.5441132,0.83901181,0,0)" /><path
         id="path3-2-6"
         style="fill:#ffffff;stroke-width:4.17674"
         d="m 465.39785,667.3739 -23.72874,2.71407 -23.72873,-2.71407 23.72873,-0.5428 z"
         sodipodi:nodetypes="ccccc" /><path
         id="path4-8"
         style="fill:#ffffff;stroke-width:2.36508"
         inkscape:transform-center-x="-0.00029899198"
         inkscape:transform-center-y="-0.42374246"
         d="m 440.73859,667.76163 0.9542,-40.11665 0.98143,39.74202 z" /></g></g></svg>
