<?xml version="1.0" encoding="UTF-8" standalone="no"?>
<svg
   width="63mm"
   height="88mm"
   version="1.1"
   id="svg49"
   sodipodi:docname="card-fate-focus-defend.svg"
   inkscape:version="1.3.2 (091e20e, 2023-11-25, custom)"
   viewBox="0 0 238.11054 332.59885"
   xml:space="preserve"
   xmlns:inkscape="http://www.inkscape.org/namespaces/inkscape"
   xmlns:sodipodi="http://sodipodi.sourceforge.net/DTD/sodipodi-0.dtd"
   xmlns="http://www.w3.org/2000/svg"
   xmlns:svg="http://www.w3.org/2000/svg"><sodipodi:namedview
     id="namedview49"
     pagecolor="#ffffff"
     bordercolor="#000000"
     borderopacity="0.25"
     inkscape:showpageshadow="2"
     inkscape:pageopacity="0.0"
     inkscape:pagecheckerboard="0"
     inkscape:deskcolor="#d1d1d1"
     inkscape:zoom="1.8488365"
     inkscape:cx="-24.610072"
     inkscape:cy="193.90573"
     inkscape:window-width="1904"
     inkscape:window-height="1001"
     inkscape:window-x="39"
     inkscape:window-y="26"
     inkscape:window-maximized="0"
     inkscape:current-layer="svg49"
     inkscape:document-units="mm" /><defs
     id="defs17"><linearGradient
       id="gradient_0"
       gradientUnits="userSpaceOnUse"
       x1="787.83301"
       y1="417.13614"
       x2="896.2948"
       y2="336.46844"><stop
         offset="0"
         stop-color="#167F8A"
         id="stop16" /><stop
         offset="1"
         stop-color="#159BA9"
         id="stop17" /></linearGradient><linearGradient
       id="gradient_0-2"
       gradientUnits="userSpaceOnUse"
       x1="439.11206"
       y1="464.522"
       x2="373.02579"
       y2="386.0676"><stop
         offset="0"
         stop-color="#FEA902"
         id="stop24-7" /><stop
         offset="1"
         stop-color="#FEC100"
         id="stop25-8" /></linearGradient><linearGradient
       id="gradient_0-8"
       gradientUnits="userSpaceOnUse"
       x1="505.63708"
       y1="183.79691"
       x2="171.41376"
       y2="155.43059"><stop
         offset="0"
         stop-color="#EEA800"
         id="stop3" /><stop
         offset="1"
         stop-color="#FEF49E"
         id="stop4" /></linearGradient><linearGradient
       id="gradient_1-2"
       gradientUnits="userSpaceOnUse"
       x1="297.28619"
       y1="286.58209"
       x2="163.5318"
       y2="635.06488"><stop
         offset="0"
         stop-color="#BE8500"
         id="stop5" /><stop
         offset="1"
         stop-color="#FFEA5F"
         id="stop6" /></linearGradient><linearGradient
       id="gradient_2"
       gradientUnits="userSpaceOnUse"
       x1="690.96869"
       y1="886.34503"
       x2="530.02826"
       y2="327.17783"><stop
         offset="0"
         stop-color="#936602"
         id="stop7" /><stop
         offset="1"
         stop-color="#E6AB0B"
         id="stop8" /></linearGradient><linearGradient
       id="gradient_0-6"
       gradientUnits="userSpaceOnUse"
       x1="756.237"
       y1="543.65344"
       x2="570.92169"
       y2="327.42014"><stop
         offset="0"
         stop-color="#9650B5"
         id="stop1" /><stop
         offset="1"
         stop-color="#B262D0"
         id="stop2" /></linearGradient><linearGradient
       id="gradient_1-21"
       gradientUnits="userSpaceOnUse"
       x1="431.04391"
       y1="954.88794"
       x2="538.14734"
       y2="89.44886"><stop
         offset="0"
         stop-color="#002757"
         id="stop3-8"
         style="stop-color:#000000;stop-opacity:1;" /><stop
         offset="1"
         stop-color="#4B448F"
         id="stop4-0" /></linearGradient></defs><defs
     id="defs25"><linearGradient
       id="gradient_1"
       gradientUnits="userSpaceOnUse"
       x1="567.4491"
       y1="699.04437"
       x2="868.41522"
       y2="779.63495"><stop
         offset="0"
         stop-color="#176366"
         id="stop24"
         style="stop-color:#000000;stop-opacity:1;" /><stop
         offset="1"
         stop-color="#157C89"
         id="stop25" /></linearGradient></defs><path
     style="fill:none;fill-opacity:1;stroke:#000000;stroke-width:3.40158;stroke-linecap:round;stroke-dasharray:none;stroke-opacity:0.198895;paint-order:markers fill stroke"
     id="path50"
     sodipodi:type="arc"
     sodipodi:cx="118.55093"
     sodipodi:cy="129.48492"
     sodipodi:rx="32.99884"
     sodipodi:ry="32.99884"
     sodipodi:start="0.027304543"
     sodipodi:end="6.2831853"
     sodipodi:open="true"
     sodipodi:arc-type="arc"
     d="M 151.53747,130.38583 A 32.99884,32.99884 0 0 1 117.87521,162.47685 32.99884,32.99884 0 0 1 85.555161,129.03443 32.99884,32.99884 0 0 1 118.77618,96.486853 32.99884,32.99884 0 0 1 151.54977,129.48492" /><path
     style="fill:none;fill-opacity:1;stroke:#000000;stroke-width:3.40158;stroke-linecap:round;stroke-miterlimit:0;stroke-dasharray:none;stroke-opacity:0.198895;paint-order:normal"
     id="path51"
     sodipodi:type="arc"
     sodipodi:cx="118.41573"
     sodipodi:cy="129.07928"
     sodipodi:rx="19.411423"
     sodipodi:ry="19.411423"
     sodipodi:start="0.027304543"
     sodipodi:end="6.2831853"
     sodipodi:open="true"
     sodipodi:arc-type="arc"
     d="m 137.81992,129.60924 a 19.411423,19.411423 0 0 1 -19.80167,18.8774 19.411423,19.411423 0 0 1 -19.01213,-19.67236 19.411423,19.411423 0 0 1 19.54212,-19.14597 19.411423,19.411423 0 0 1 19.27892,19.41097" /><path
     style="fill:none;fill-opacity:1;stroke:#000000;stroke-width:3.40157;stroke-linecap:round;stroke-miterlimit:0;stroke-dasharray:none;stroke-opacity:0.198895;paint-order:normal"
     id="path52"
     sodipodi:type="arc"
     sodipodi:cx="118.9566"
     sodipodi:cy="129.07925"
     sodipodi:rx="6.7610173"
     sodipodi:ry="6.7610173"
     sodipodi:start="0.027304543"
     sodipodi:end="6.2831853"
     sodipodi:open="true"
     sodipodi:arc-type="arc"
     d="m 125.71509,129.26384 a 6.7610173,6.7610173 0 0 1 -6.89694,6.57501 6.7610173,6.7610173 0 0 1 -6.62194,-6.8519 6.7610173,6.7610173 0 0 1 6.80654,-6.66856 6.7610173,6.7610173 0 0 1 6.71486,6.76086" /><rect
     style="fill:none;fill-opacity:1;stroke:#000000;stroke-width:2.71653;stroke-linecap:round;stroke-miterlimit:0;stroke-dasharray:none;stroke-opacity:0.198895;paint-order:normal"
     id="rect52"
     width="36.715984"
     height="0.64792913"
     x="74.740364"
     y="128.34962" /><rect
     style="fill:none;fill-opacity:1;stroke:#000000;stroke-width:2.71652;stroke-linecap:round;stroke-miterlimit:0;stroke-dasharray:none;stroke-opacity:0.198895;paint-order:normal"
     id="rect52-4"
     width="36.715984"
     height="0.64792913"
     x="85.258675"
     y="-119.11345"
     transform="rotate(90)" /><rect
     style="fill:none;fill-opacity:1;stroke:#000000;stroke-width:2.61113;stroke-linecap:round;stroke-miterlimit:0;stroke-dasharray:none;stroke-opacity:0.198895;paint-order:normal"
     id="rect52-4-3"
     width="35.291531"
     height="0.62279177"
     x="136.69922"
     y="-119.28641"
     transform="rotate(90)" /><rect
     style="fill:none;fill-opacity:1;stroke:#000000;stroke-width:2.69018;stroke-linecap:round;stroke-miterlimit:0;stroke-dasharray:none;stroke-opacity:0.198895;paint-order:normal"
     id="rect52-0"
     width="36.359871"
     height="0.64164478"
     x="126.21997"
     y="128.1541" /><g
     id="g55"
     transform="matrix(1.531404,0,0,1.531404,76.603289,190.60099)"
     style="stroke-width:0.999547;stroke-dasharray:none"><path
       transform="matrix(0.0546875,0,0,0.0546875,3.05176e-5,-7.62939e-6)"
       d="m 511.976,48.617 29.979,33.7115 C 612.81,154.259 705.12,200.357 803.75,219.654 c 24.25,4.744 49.978,8.799 74.745,9.012 l -0.144,104.884 0.191,43.15 -0.156,22.871 c -4.246,79.493 -21.472,159.16 -50.057,233.412 -12.574,32.662 -27.91,65.33 -45.871,95.392 -21.108,35.331 -46.073,67.968 -73.843,98.313 l -28.136,29.506 C 632.091,903.008 573.98,943.593 512.417,970.983 L 477,953.928 C 436.764,932.234 399.776,905.566 365.134,875.814 336.21,850.972 309.505,822.005 285.984,792 L 256.622,751.882 C 206.18,675.484 173.181,587.779 157.062,497.814 151.44,466.44 148.184,435.068 145.807,403.311 144.132,380.93 144.576,358.348 144.532,335.916 L 144.48,230.884 c 0,-0.356 -0.251,-0.813 -0.002,-1.068 0.842,-0.866 24.764,-2.634 28.275,-2.993 36.612,-3.743 72.837,-11.373 107.997,-22.191 74.414,-22.893 144.125,-64.428 199.021,-119.6331 11.523,-11.5882 21.594,-24.031 32.205,-36.3819 z"
       id="path2"
       style="fill:none;stroke:#000000;stroke-width:18.2774;stroke-dasharray:none;stroke-opacity:0.29465929" /><path
       fill="#fefefe"
       transform="matrix(0.0546875,0,0,0.0546875,3.05176e-5,-7.62939e-6)"
       d="m 510.285,159.691 c 1.863,-0.148 3.731,0.021 5.588,0.196 l 1.377,0.15 c 3.14,0.413 6.526,1.31 9.31,2.813 3.445,1.859 6.666,4.48 9.866,6.739 l 16.944,11.567 c 20.639,13.484 41.69,26.515 63.461,38.096 39.308,20.909 81.013,37.998 124.113,49.313 l 32.806,7.622 c 6.674,1.364 13.76,2.274 20.243,4.308 7.523,2.361 13.937,8.551 17.359,15.588 3.744,7.699 2.878,15.769 2.842,24.054 l 0.016,20.351 -0.219,48.702 c -2.109,61.41 -11.535,122.811 -31.477,181.06 -12.055,35.21 -26.932,69.893 -45.183,102.342 -15.767,28.034 -34.159,54.576 -54.252,79.661 -33.849,42.257 -72.522,79.756 -116.888,110.885 -16.727,11.736 -34.502,23.107 -52.861,32.112 l -1.83,0.284 c -8.417,-3.729 -16.261,-8.45 -24.126,-13.205 -14.604,-8.828 -28.525,-18.411 -42.219,-28.591 -55.7,-41.409 -104.993,-93.331 -142.102,-152.052 -46.095,-72.94 -73.981,-156.421 -86.489,-241.532 -6.025,-40.996 -8.095,-81.793 -8.085,-123.199 0.003,-10.39 -1.035,-22.183 0.665,-32.393 0.821,-4.935 2.919,-10.358 6.013,-14.34 3.233,-4.16 7.883,-7.901 12.733,-9.997 3.627,-1.568 7.652,-2.038 11.521,-2.675 l 15.029,-2.715 41.637,-9.995 c 48.594,-13.933 96.238,-34.787 139.554,-60.835 l 37.869,-23.999 15.495,-10.92 c 3.283,-2.336 6.576,-4.931 10.183,-6.74 3.552,-1.781 7.225,-2.225 11.107,-2.655 z"
       id="path3"
       style="fill:none;stroke:#000000;stroke-width:18.2774;stroke-dasharray:none;stroke-opacity:0.29465929" /></g></svg>
