<?xml version="1.0" encoding="UTF-8" standalone="no"?>
<!-- Created with Inkscape (http://www.inkscape.org/) -->

<svg
   width="63mm"
   height="88mm"
   viewBox="0 0 63 88"
   version="1.1"
   id="svg1"
   inkscape:version="1.4 (86a8ad7, 2024-10-11)"
   xml:space="preserve"
   sodipodi:docname="card-restrain-hand-right.svg"
   xmlns:inkscape="http://www.inkscape.org/namespaces/inkscape"
   xmlns:sodipodi="http://sodipodi.sourceforge.net/DTD/sodipodi-0.dtd"
   xmlns="http://www.w3.org/2000/svg"
   xmlns:svg="http://www.w3.org/2000/svg"><sodipodi:namedview
     id="namedview1"
     pagecolor="#ffffff"
     bordercolor="#000000"
     borderopacity="0.25"
     inkscape:showpageshadow="2"
     inkscape:pageopacity="0.0"
     inkscape:pagecheckerboard="0"
     inkscape:deskcolor="#d1d1d1"
     inkscape:document-units="mm"
     inkscape:zoom="1.4627806"
     inkscape:cx="138.43498"
     inkscape:cy="232.77585"
     inkscape:window-width="1350"
     inkscape:window-height="1017"
     inkscape:window-x="531"
     inkscape:window-y="0"
     inkscape:window-maximized="0"
     inkscape:current-layer="layer1" /><defs
     id="defs1" /><g
     inkscape:label="Layer 1"
     inkscape:groupmode="layer"
     id="layer1"><g
       id="g1"
       transform="matrix(0.06087197,0,0,0.06087197,0.03359486,0.54402301)"><path
         id="path2"
         style="fill:none;stroke:#e5e5e5;stroke-width:4.92837673;stroke-dasharray:none;stroke-opacity:1"
         d="m 1821.4176,367.25839 -160.6851,68.09858 4.0238,46.50944 c 3.1188,25.02186 8.3625,50.47433 14.2989,74.97769 6.6015,27.2477 16.9264,54.76956 28.4465,80.36408 25.3719,56.38191 80.7847,145.81452 64.1615,209.5525 -0.5075,1.94895 -1.0516,3.81099 -1.8387,5.66759 -7.7362,18.26831 -24.5775,32.71074 -33.6168,50.38173 -7.063,13.80031 -8.3343,29.70545 -10.2968,44.84387 l -6.5548,60.05133 c -0.7218,10.0735 -3.0971,21.1729 -0.6921,31.0426 l 4.5428,4.5209 c 7.8421,-1.5036 15.9369,-6.8366 21.0699,-12.9576 3.2845,-22.291 5.0177,-59.63378 24.358,-74.04756 2.9778,-2.21768 3.22,-2.04522 6.8574,-1.77377 10.4072,20.49679 10.9108,45.82433 3.8722,67.21163 -4.6091,14.0039 -12.3574,30.7742 -20.832,42.9186 -7.5678,10.8442 -25.9557,24.6545 -29.528,36.8615 -0.6012,2.052 -0.038,6.2647 -0.042,8.5447 4.0363,4.7992 4.3871,5.5051 10.405,6.9873 41.4225,-12.1581 95.8874,-41.8959 117.2256,-80.1262 6.2215,-11.1509 9.8035,-24.5045 11.5734,-37.09952 l 0.4109,-2.72568 c 2.0142,-14.66891 -0.9629,-31.51059 -2.2712,-46.2284 -1.9219,-21.59051 -3.0665,-42.84346 -2.3365,-64.52927 l 8.7181,-108.89707 c 9.6959,-110.76038 17.9766,-224.08271 -16.657,-331.58036 -8.6672,-26.89814 -20.33,-53.82116 -34.6117,-78.56861 z" /><path
         id="path5"
         style="fill:none;stroke:#e5e5e5;stroke-width:4.92837673;stroke-dasharray:none;stroke-opacity:1"
         d="m 1493.8392,-214.2188 17.9548,375.38598 c 23.0864,63.26206 62.9275,115.82282 90.077,155.62297 l 35.2391,49.79755 c 6.1618,8.39583 15.6875,18.65611 19.5339,28.31667 3.0431,7.63855 2.3693,19.11586 2.9638,27.32171 l 1.1247,13.13089 160.6851,-68.09858 c -2.4469,-4.24001 -4.8097,-8.56421 -7.4199,-12.65497 l -18.5605,-27.32164 c -2.2313,-3.15966 -6.8309,-7.99939 -8.0906,-11.31374 -1.0804,-2.84468 -0.5319,-9.70858 -0.7138,-12.9361 l -2.4445,-35.5635 c -3.8518,-36.19451 -10.8514,-72.71304 -23.5142,-106.92867 -10.7737,-29.10157 -24.2204,-58.13112 -39.7171,-85.036699 -6.5826,-11.42514 -16.4201,-22.82843 -21.762,-34.59015 -1.6858,-3.70792 -1.5144,-7.77508 -1.5144,-11.74628 0,-68.35259 -19.6079,-141.456711 -69.4614,-190.775621 -28.1624,-27.85565 -68.0786,-47.94935 -107.8371,-51.13879 -6.4969,-0.52344 -18.8442,-0.0664 -26.5429,-1.47103 z" /><path
         id="path6"
         style="fill:none;stroke:#e5e5e5;stroke-width:4.92837673;stroke-dasharray:none;stroke-opacity:1"
         d="m 808.41877,-219.32397 c -0.10181,0.0432 -0.22343,0.15349 -0.32449,0.19462 -6.53372,2.66022 -20.85148,0.68142 -28.46815,1.38453 -10.3991,0.95815 -20.82865,3.17415 -30.84772,6.07868 -61.12927,17.71437 -111.99197,63.10153 -135.61308,122.374071 -9.25089,23.2139 -13.82488,48.9944 -16.87324,73.72304 l -3.69912,43.78384 c -0.30672,4.01738 0.18651,12.58463 -1.2114,16.09441 -4.00381,10.04341 -16.94941,22.79849 -23.16824,32.5134 -18.4473,28.813879 -33.81483,59.843429 -44.90874,92.218699 -9.6933,28.28987 -15.78967,57.51829 -20.52904,87.00518 -3.50714,21.83234 -5.83821,45.08698 -12.13577,66.30313 -3.66454,12.34527 -15.7823,24.46911 -22.43269,35.6933 -5.42824,9.15912 -10.22547,18.54032 -14.64514,28.07876 l 172.27993,68.50975 c 1.40246,-25.61916 4.31573,-50.86613 15.03445,-74.69655 11.48488,-25.53482 37.41548,-46.1474 54.44857,-68.66101 26.08243,-34.47315 79.25632,-104.54621 100.11445,-144.52562 z" /><path
         id="path4"
         style="fill:none;stroke:#e5e5e5;stroke-width:4.92837673;stroke-dasharray:none;stroke-opacity:1"
         d="m 1527.6288,1637.6603 -214.571,3.4181 c -0.9625,8.7852 -1.7139,17.6222 -2.6824,26.3266 -4.6879,42.1282 -9.6019,85.669 -5.3864,128.0418 7.9614,79.9397 46.472,153.055 62.6039,231.7471 6.4251,31.3248 12.1183,62.9081 13.1741,94.9658 0.8659,26.2491 -1.3585,53.283 1.0384,79.3691 1.7047,18.5668 7.1491,36.537 10.059,54.8595 2.5489,16.0425 -3.0886,34.963 -6.468,50.8145 -6.9354,32.4922 -14.9955,66.6134 -15.9863,99.9198 -0.3258,10.9663 -0.9165,22.4621 1.8387,33.184 2.1309,8.2793 5.9484,16.1967 12.417,21.9784 5.475,4.9133 12.4871,7.5488 19.5772,9.1507 17.9045,4.0444 38.7568,3.1191 57.1526,3.4178 26.7997,0.4072 55.0388,1.768 81.6835,-0.9734 8.3037,-0.8415 19.3231,-4.5127 24.9855,-10.946 6.235,-7.0846 5.8773,-19.2837 4.8242,-28.1871 -4.1097,-34.6085 -23.6912,-61.1216 -39.6954,-90.7907 -19.3377,-35.8852 -38.9105,-81.3977 -41.9234,-122.1147 -1.9978,-27.0088 -0.1835,-55.2643 0.8653,-82.3543 2.5678,-66.4501 8.0976,-136.3821 24.5742,-200.9861 11.8106,-46.2815 32.7761,-93.5603 36.1693,-141.3888 3.8469,-54.1953 -6.8284,-108.0944 -24.25,-159.4521 z" /><path
         id="path3"
         style="fill:none;stroke:#020202;stroke-width:4.92837673;stroke-dasharray:none;stroke-opacity:1"
         d="M 625.84188,454.63144 453.56195,386.12169 c -5.99226,12.93267 -11.1989,26.19631 -15.48877,39.97661 -13.93587,44.76663 -19.79088,92.16445 -23.29801,138.77144 -5.9148,78.64016 -3.09701,156.54959 2.76897,235.07843 l 7.57133,78.43889 c 1.90269,31.47947 -5.23393,61.38442 -5.51626,92.43503 -0.27689,30.38001 9.44297,61.44201 28.35997,85.25321 20.26887,25.513 59.42002,53.3068 92.24023,57.6934 2.97512,0.399 4.79179,0.077 7.57133,-0.887 2.37245,-4.164 2.38765,-4.3899 0.99512,-8.999 -2.74432,-9.0988 -12.48892,-19.8621 -17.69524,-28.0572 -20.74919,-32.6683 -37.45115,-75.0631 -24.01193,-113.50496 l 4.11021,-3.0934 c 7.34518,2.29106 12.50381,8.49203 15.943,15.18595 10.13296,19.71494 3.109,52.14531 23.03841,65.39471 5.31764,0.5129 5.58413,0.6763 10.44842,-2.2498 9.48432,-23.2493 4.75658,-103.29382 -5.14846,-126.78734 -6.59062,-15.62962 -18.30449,-26.8931 -26.54291,-41.31769 -23.58307,-41.29223 -11.95475,-91.90292 4.30483,-133.32008 24.79106,-63.15434 64.38576,-119.08963 82.78696,-185.15116 8.75796,-31.43905 8.08245,-64.19517 9.84273,-96.35029 z" /><path
         id="path7"
         style="fill:none;stroke:#e5e5e5;stroke-width:4.92837673;stroke-dasharray:none;stroke-opacity:1"
         d="m 978.85993,1645.21 -214.24665,-9.1721 c -14.89241,49.0938 -25.64543,101.5619 -22.08661,151.1019 3.70513,51.656 20.98487,102.0472 32.5783,152.2919 16.3219,70.7375 24.02018,140.3591 27.49469,212.7539 1.12379,23.4528 3.29921,47.9882 1.81712,71.3866 -1.00436,15.8798 -5.10683,31.8794 -11.03251,46.6176 -11.8756,29.5606 -27.74969,58.9366 -41.66384,87.6542 -13.20856,27.2802 -29.02796,49.0378 -31.12896,80.7969 -0.41802,6.3517 -0.92373,14.3408 1.62243,20.3127 2.90719,6.8402 9.07612,9.0019 15.76997,11.1191 25.64335,8.062 141.11372,9.1643 162.84819,-2.9419 10.95555,-6.1075 16.93988,-17.1905 20.00992,-28.9442 10.0787,-38.5169 -3.91943,-91.0826 -12.02757,-129.2748 -3.25458,-15.3097 -7.99339,-31.6417 -7.22522,-47.4398 1.07499,-22.0412 9.38711,-44.0609 11.14064,-66.5625 1.96528,-25.2445 -0.29073,-51.0744 0.77881,-76.4273 1.94087,-45.9816 10.63568,-92.1947 21.76208,-136.7378 15.10061,-60.451 42.37351,-118.1661 49.81931,-180.3273 6.1609,-51.4706 -1.7232,-104.7423 -6.2301,-156.2071 z" /><path
         id="path8"
         style="fill:none;stroke:#e5e5e5;stroke-width:4.92837673;stroke-dasharray:none;stroke-opacity:1"
         d="M 1507.1863,980.72961 785.42359,958.5999 c -2.62451,11.90737 -5.43243,23.8161 -7.52804,35.71499 -8.13525,46.20521 -10.53055,92.74781 -11.68148,139.57181 -1.0315,41.9925 -1.12448,85.1304 2.29302,127.0035 l 17.04629,134.0987 c 7.09014,42.8317 19.13193,85.2982 16.09446,129.2099 -1.57712,22.7931 -13.96427,43.9969 -21.56745,65.2647 -5.36757,15.0166 -10.6289,30.6249 -15.46711,46.5744 l 214.24665,9.1721 c -0.09,-1.0265 -0.1941,-2.0897 -0.2812,-3.1148 -1.9,-22.34 -4.7187,-45.453 -1.8821,-67.8608 3.2248,-25.4619 12.2121,-51.6381 20.5075,-75.8429 l 32.38357,-94.8793 58.6453,-223.1593 c 15.0596,-70.2062 27.6428,-138.0795 30.6097,-209.98512 l 51.7013,0.21631 2.6175,38.24611 c 13.9468,132.9588 48.2424,266.9413 87.8489,394.4224 16.5336,53.2145 41.3769,105.1555 52.0474,159.9279 5.0137,25.7294 2.8496,51.8895 0,77.8979 l 214.571,-3.4181 c -5.4922,-16.1907 -11.5816,-32.1566 -18.1926,-47.7641 l -16.2892,-37.8132 c -2.6437,-6.1457 -6.7571,-13.6818 -7.5281,-20.2261 -2.1552,-18.3201 1.3242,-38.8041 4.3698,-56.8499 l 22.7788,-109.2433 c 23.7575,-129.4923 20.0801,-258.403 -5.5812,-385.03409 z" /><path
         id="path9"
         style="fill:none;stroke:#e5e5e5;stroke-width:4.92837673;stroke-dasharray:none;stroke-opacity:1"
         d="m 1408.3699,650.75016 -514.67647,-9.25868 c -0.52993,3.53883 -1.07338,6.7317 -1.68734,8.73939 -3.08908,10.11119 -9.75091,20.20189 -13.93123,30.13391 l -36.19087,91.11539 c -21.98289,60.40898 -42.48181,123.69849 -56.4604,187.11973 l 721.76271,22.12971 c -9.308,-45.93278 -21.3255,-91.57682 -36.2341,-136.82442 -20.0353,-60.80342 -44.6491,-120.43495 -60.2027,-182.64179 -0.8805,-3.52082 -1.5872,-7.00787 -2.3796,-10.51324 z" /><path
         id="path10"
         style="fill:none;stroke:#e5e5e5;stroke-width:4.92837673;stroke-dasharray:none;stroke-opacity:1"
         d="M 1417.0228,346.01544 871.02274,335.82655 c 1.47384,2.87725 2.94559,5.75306 4.56444,8.43664 23.36956,79.60462 27.67903,92.12035 24.72576,176.39009 -0.60996,17.35577 -2.25921,91.72127 -6.61951,120.8382 l 514.67647,9.25868 c -12.3154,-54.47986 -14.3261,-107.30295 -11.7247,-163.5405 2.6927,-58.19762 7.4089,-53.15111 17.3491,-124.47249 1.0296,-6.14615 2.0212,-11.59991 3.0285,-16.72173 z" /><path
         id="path11"
         style="fill:none;stroke:#e5e5e5;stroke-width:4.92837673;stroke-dasharray:none;stroke-opacity:1"
         d="m 1504.4823,8.4645011 -703.39692,-9.69137 -5.64603,167.9751289 c 0.47162,-0.90397 1.3797,-2.19975 1.81713,-3.07179 9.35654,18.59105 20.76189,69.01648 33.3787,85.66402 17.94504,23.67366 26.28683,58.95907 40.38756,86.48606 l 546.00006,10.18889 c 7.6867,-39.086 16.1677,-52.35405 47.4614,-99.03291 33.6437,-50.18447 42.6699,-83.30862 46.8772,-86.91859 0.1353,0.37452 0.2961,0.72904 0.4326,1.10324 z" /><path
         id="path12"
         style="fill:none;stroke:#e5e5e5;stroke-width:4.92837673;stroke-dasharray:none;stroke-opacity:1"
         d="m 1032.0971,-349.61547 c -0.013,0.032 -0.01,0.31754 -0.022,0.34611 -52.75497,41.3733 -113.86502,62.69772 -171.63089,95.39853 -11.9219,6.74811 -23.21456,14.40658 -34.39542,22.3029 -5.12064,3.61629 -11.90999,9.79453 -17.63034,12.24396 l -7.33339,218.0971011 703.39704,9.69137 -10.6432,-222.6833011 c -1.2851,-0.2344 -3.3679,-0.11924 -4.2832,-0.49752 -4.7231,-1.95439 -10.3775,-6.88431 -14.7532,-9.7562 -11.5281,-7.56516 -22.9436,-15.40338 -34.9795,-22.15148 l -81.0779,-42.61571 c -35.0352,-17.4374 -69.503,-33.98147 -99.617,-59.44562 l 0.022,-0.93014 z" /><path
         id="path1"
         style="fill:none;stroke:#e5e5e5;stroke-width:4.92837673;stroke-dasharray:none;stroke-opacity:1"
         d="m 1148.7277,-816.63596 c -5.7654,-0.2607 -11.7513,-0.5377 -17.5005,0.043 -39.4193,4.7693 -75.5524,19.792 -100.547,51.9176 -30.68427,39.4356 -33.97547,114.6518 -27.8626,163.1727 -3.66167,3.65094 -4.82097,1.75784 -8.39317,3.80731 -5.4724,3.13789 -7.6065,11.73491 -7.6363,17.52214 -0.062,12.18523 3.1198,23.70679 5.4297,35.56359 4.0283,20.68685 6.7327,48.69327 23.06007,63.79375 2.5761,2.38061 5.742,4.22625 8.9125,5.68928 2.0004,12.27245 5.8846,117.84436 2.5527,125.51084 h 227.0529 l 2.6175,-81.01309 c 0.2227,-12.16889 -2.2145,-33.37135 1.9903,-44.45445 l 1.6007,-1.40614 c 19.3133,-17.25302 23.1595,-39.11889 28.2735,-63.20964 2.5027,-11.7835 5.4467,-23.87645 5.9273,-35.93131 0.2795,-6.94904 0.7396,-13.53749 -3.18,-19.62058 -3.0429,-2.27194 -6.2418,-4.42391 -8.8477,-7.20353 3.0864,-55.07897 4.1833,-124.21277 -34.5901,-167.95347 -24.6065,-27.758 -62.0055,-44.5725 -98.8598,-46.2283 z" /></g><g
       id="move"
       transform="matrix(0.04824098,0,0,0.05181757,-3.5806253,-17.0474)"
       inkscape:label="move"><text
         xml:space="preserve"
         style="font-style:normal;font-variant:normal;font-weight:normal;font-stretch:normal;font-size:148.144px;font-family:Amiri;-inkscape-font-specification:'Amiri, Normal';font-variant-ligatures:normal;font-variant-caps:normal;font-variant-numeric:normal;font-variant-east-asian:normal;fill:#000000;fill-opacity:1;stroke:#000000;stroke-width:0.269288;stroke-dasharray:none;stroke-opacity:1;paint-order:markers fill stroke"
         x="513.04822"
         y="778.5697"
         id="text1-5"><tspan
           sodipodi:role="line"
           id="tspan1">Speed:-1*</tspan></text><path
         fill="#fefefe"
         d="m 423.87315,743.60565 0.21512,0.052 c 1.71719,3.76403 3.49119,3.70519 5.98388,7.35145 -7.82361,-0.10797 -11.69949,-1.08864 -18.76246,-4.29382 -1.34963,-0.0879 -4.75661,-3.11408 -5.45151,-3.66689 -1.44497,-1.14935 -2.73119,-2.33754 -3.98746,-3.59097 2.82341,0.88799 5.73821,1.52855 8.60636,2.10838 4.47579,0.90536 8.94267,1.61647 13.39636,2.03887 z"
         id="path2-5"
         style="stroke:#000000;stroke-width:2.32259;stroke-dasharray:none;stroke-opacity:1"
         sodipodi:nodetypes="ccccccccc" /><path
         fill="#fefefe"
         d="m 420.73098,732.74924 c 0.16605,0.0376 0.32327,0.0615 0.4746,0.14245 0.19084,1.49259 0.48354,2.93964 1.01378,4.35123 l 0.69132,1.64881 c 0.11304,0.25498 0.3131,0.59092 0.35053,0.86427 -3.38586,1.31875 -5.88595,0.53798 -8.86795,-0.96306 -4.84177,-2.84555 -9.02471,-7.42607 -10.99427,-12.72672 3.75169,2.83784 8.23961,4.29963 12.72721,5.52821 z"
         id="path3-1"
         style="stroke:#000000;stroke-width:2.32259;stroke-dasharray:none;stroke-opacity:1"
         sodipodi:nodetypes="ccccccccc" /><path
         fill="#fefefe"
         d="m 419.63719,727.11092 c -0.99006,-0.26054 -2.01274,-0.4366 -2.97937,-0.7825 -0.85278,-0.30505 -1.72241,-0.79395 -2.50264,-1.25578 -2.16532,-1.2816 -4.13288,-2.88937 -5.79407,-4.78297 -4.41276,-5.02993 -6.03531,-11.58112 -5.60542,-18.1506 1.44243,3.24637 3.5683,6.08982 6.39823,8.27104 l 1.57984,1.10672 c 0.28142,0.18129 0.70379,0.34916 0.93296,0.58562 0.21062,0.21732 0.3861,0.48811 0.57442,0.72644 l 1.38168,1.69296 c 2.2089,2.46776 4.80215,4.73075 7.62498,6.46811 l 0.12898,0.13734 c -0.62085,1.97648 -1.04172,4.00744 -1.0594,6.08448 z"
         id="path6-0"
         style="stroke:#000000;stroke-width:2.32259;stroke-dasharray:none;stroke-opacity:1" /><path
         fill="#fefefe"
         d="m 422.50359,716.14959 c -6.06305,-3.90641 -11.27396,-9.80969 -14.03576,-16.50113 -0.43606,-1.05665 -0.75161,-2.15168 -1.06003,-3.25081 -2.00973,-7.16318 -1.47637,-15.1216 1.38236,-21.98689 0.2891,0.72521 0.42082,1.57216 0.62475,2.33043 0.35788,1.33073 0.7986,2.60686 1.35738,3.86748 0.47228,1.06564 0.9832,2.14161 1.58175,3.1412 l 0.90316,1.40505 c 0.18746,0.2736 0.50729,0.62227 0.60871,0.93662 0.21288,0.6592 0.26249,1.40777 0.42808,2.08389 0.33393,1.36262 0.78211,2.71126 1.23813,4.03775 0.45987,1.33772 1.06344,2.61477 1.67154,3.88916 l 1.49177,2.99798 c 1.87192,3.37951 4.15198,6.55044 6.51068,9.6034 l 0.23463,0.30861 c -0.0517,0.33478 -0.27329,0.71011 -0.41015,1.02434 l -0.66812,1.64046 -1.60838,4.55102 z"
         id="path8-6"
         style="stroke:#000000;stroke-width:2.32259;stroke-dasharray:none;stroke-opacity:1" /><path
         fill="#fefefe"
         d="m 427.82911,704.30477 c -1.48769,-2.03108 -2.99773,-4.05116 -4.324,-6.19379 -0.96557,-1.5597 -1.79369,-3.1602 -2.59468,-4.80719 -1.11105,-2.2848 -2.10439,-4.7802 -2.55777,-7.29184 -0.24624,-1.36401 -0.45268,-2.72558 -0.51351,-4.11224 -0.24301,-5.54139 1.1937,-11.18988 3.82779,-16.05429 0.72352,-1.33628 1.55305,-2.58504 2.42036,-3.83035 0.042,0.0418 0.0238,0.31948 0.0245,0.39377 0.0211,2.54183 0.12403,5.04409 0.42467,7.56995 0.69681,5.85525 2.16034,11.48155 3.87478,17.11022 l 3.27489,9.76808 c -0.12526,0.3865 -0.4152,0.75921 -0.61716,1.11385 l -0.73083,1.39548 -2.32068,4.9936 -0.078,0.039 z"
         id="path9-2"
         style="stroke:#000000;stroke-width:2.32259;stroke-dasharray:none;stroke-opacity:1" /><path
         fill="#0f0f0f"
         d="m 432.78711,753.3154 c 6.28761,7.956 12.85273,15.64753 20.25674,22.5946 5.03214,4.72143 10.49456,9.17358 16.60299,12.43754 7.93511,4.24005 17.11673,6.68524 26.01566,7.74271 2.47919,0.29452 4.96743,0.37534 7.45739,0.50978 2.29621,0.12402 4.63384,0.35136 6.93082,0.15841 -0.31138,0.39113 -0.97692,0.55687 -1.44822,0.75118 -3.40429,1.40427 -7.02194,2.24905 -10.67808,2.66433 -10.79379,1.22587 -22.09365,-1.38775 -31.6759,-6.36425 -4.33537,-2.25144 -8.33793,-4.99995 -12.15002,-8.04259 -5.94588,-4.74606 -11.37367,-10.20987 -16.25291,-16.04008 l -4.06298,-5.01213 -9.08906,8.41029 -21.3164,-10.37972 2.49671,-15.7079 c 0.38126,0.21008 0.7698,0.4604 1.18359,0.59783 2.32478,1.18832 4.66524,2.35494 7.11431,3.26873 5.93832,2.21617 7.44568,2.96323 13.74108,2.45884 z"
         id="path10-3"
         style="fill:none;fill-opacity:1;stroke:#000000;stroke-width:2.32259;stroke-dasharray:none;stroke-opacity:1"
         sodipodi:nodetypes="ccccccccccccccccccc" /><path
         fill="#dc9308"
         d="m 463.02874,689.96939 0.14384,0.035 c 0.49063,0.11195 1.1488,0.0313 1.65643,0.0217 l 3.58408,-0.053 c 2.39392,-0.0242 4.86943,0.10962 7.24971,-0.0434 -6.31985,10.20788 -9.878,22.14022 -9.54579,34.17661 0.11685,4.25601 0.74673,8.39684 1.7215,12.53376 3.77093,16.00471 11.61851,30.25771 21.33565,40.94937 12.10107,12.64047 8.48263,7.78003 20.17454,16.94792 -17.32365,-3.71452 -21.55024,-4.23093 -26.35187,-6.3316 -9.89964,-6.18762 -14.97824,-6.89097 -26.89975,-18.41407 -12.79352,-12.36596 -18.29357,-15.79526 -23.00912,-27.19435 l -3.2569,-19.42517 c -2.88158,-22.76633 4.41888,-31.58046 4.03571,-32.91484 l 21.28156,-0.26223 5.32127,0.0602 c 0.85201,-0.008 1.71303,0.0204 2.55906,-0.0844 z"
         id="path11-9"
         style="fill:none;stroke:#000000;stroke-width:2.32259;stroke-dasharray:none;stroke-opacity:1"
         sodipodi:nodetypes="cccccsccccsccccccc" /><path
         id="path2-8"
         inkscape:transform-center-x="-0.01494134"
         inkscape:transform-center-y="-3.7500871"
         d="m 427.40161,748.51285 c 20.36512,-7.37419 13.98417,-9.56844 21.66325,-57.74338 8.14056,47.72615 2.64335,50.64631 21.89168,57.54181 z"
         sodipodi:nodetypes="cccc"
         style="stroke-width:10.6897" /><path
         id="path2-0"
         inkscape:transform-center-x="-0.0034207367"
         inkscape:transform-center-y="-1.3106034"
         d="m 444.38529,757.43968 c 4.11726,-2.61102 3.85157,-6.32045 4.96018,-20.18053 1.20756,13.97013 0.83807,17.62212 5.01247,20.11007 z"
         sodipodi:nodetypes="cccc"
         style="stroke-width:3.02394" /></g></g></svg>
