<?xml version="1.0" encoding="UTF-8" standalone="no"?>
<!-- Created with Inkscape (http://www.inkscape.org/) -->

<svg
   width="63mm"
   height="88mm"
   viewBox="0 0 63 88"
   version="1.1"
   id="svg1"
   inkscape:version="1.3.2 (091e20e, 2023-11-25, custom)"
   sodipodi:docname="card-fate-red.svg"
   xmlns:inkscape="http://www.inkscape.org/namespaces/inkscape"
   xmlns:sodipodi="http://sodipodi.sourceforge.net/DTD/sodipodi-0.dtd"
   xmlns="http://www.w3.org/2000/svg"
   xmlns:svg="http://www.w3.org/2000/svg">
  <sodipodi:namedview
     id="namedview1"
     pagecolor="#ffffff"
     bordercolor="#000000"
     borderopacity="0.25"
     inkscape:showpageshadow="2"
     inkscape:pageopacity="0.0"
     inkscape:pagecheckerboard="0"
     inkscape:deskcolor="#d1d1d1"
     inkscape:document-units="mm"
     inkscape:zoom="2.0686841"
     inkscape:cx="142.36103"
     inkscape:cy="170.88158"
     inkscape:window-width="1920"
     inkscape:window-height="1017"
     inkscape:window-x="-8"
     inkscape:window-y="-8"
     inkscape:window-maximized="1"
     inkscape:current-layer="layer1" />
  <defs
     id="defs1" />
  <g
     inkscape:label="Layer 1"
     inkscape:groupmode="layer"
     id="layer1">
    <rect
       style="fill:#ff6961;fill-opacity:1;stroke:#000000;stroke-width:0.00997687;paint-order:markers fill stroke"
       id="rect1"
       width="62.798599"
       height="87.611069"
       x="0.12788779"
       y="0.2557871" />
    <path
       d="M 32.104027,62.60518 28.372451,50.768389 17.518184,54.43876 24.712433,43.289488 16.795301,31.732364 28.214861,35.509317 32.13748,23.071458 c 0.05629,0.117873 0.0869,0.2629 0.12635,0.388239 l 0.22671,0.718757 0.809327,2.646144 2.721867,8.690871 11.359441,-3.737838 -7.864439,11.497342 c 0.0085,0.109436 1.301189,2.010082 1.47393,2.272383 l 3.913619,5.975419 1.86093,2.912234 c -0.464856,-0.211147 -1.010609,-0.34991 -1.49812,-0.508476 L 42.720185,53.08754 35.883496,50.82757 32.136955,62.657686 Z M 18.463914,32.972571 c 0.06061,0.157402 0.182454,0.303516 0.278276,0.441568 l 0.555655,0.788701 1.702853,2.4314 2.978351,4.328896 1.415801,2.085127 2.490616,-0.242649 -0.969242,-0.351482 c 0.23316,0.0081 0.465831,0.06038 0.694641,0.103659 l 1.298339,0.255063 c 0.405677,0.06769 0.805578,0.117574 1.217332,0.130023 l 0.92889,-0.0034 0.536002,0.01522 c 0.07407,0.0024 0.171879,0.01935 0.241823,-3.29e-4 -0.354597,-0.178892 -0.784427,-0.351296 -1.172589,-0.439504 -1.199218,-0.272426 -2.447038,-0.12215 -3.661406,-0.213997 -0.308881,-0.02333 -0.614573,-0.06927 -0.919965,-0.119748 -0.03289,-0.0054 -0.187669,-0.0165 -0.208857,-0.03165 -0.05866,-0.04189 -0.137603,-0.180916 -0.183918,-0.242047 l -0.745199,-1.003073 -2.802758,-3.70551 C 21.37416,36.141387 20.663953,35.018827 19.829647,34.016166 l 2.777106,1.058278 3.328561,1.304678 1.583067,0.655226 c 0.306631,0.134525 0.61791,0.264888 0.907362,0.434705 l 0.427017,0.974418 c 0.05416,0.112475 0.162393,0.243099 0.195658,0.354524 -0.221122,-0.124287 -0.373611,-0.388352 -0.60111,-0.515 -0.578418,-0.322083 -1.228131,-0.560943 -1.833627,-0.830894 l -5.168902,-2.137484 4.872399,6.076681 c 0.279439,0.01391 0.562066,0.07414 0.837867,0.119709 l 1.189954,0.195021 C 27.751391,41.230281 27.148408,40.71382 26.61308,40.174404 l -1.347767,-1.408525 -1.790725,-1.748157 c -0.201657,-0.200571 -0.439131,-0.389662 -0.620911,-0.605796 0.118062,0.02712 0.224909,0.101108 0.329283,0.160816 l 0.533752,0.301116 1.596118,0.828305 2.1832,1.08018 c 0.759037,0.359847 1.579427,0.717858 2.271445,1.195616 -0.196331,-0.362509 -0.377325,-0.773101 -0.635236,-1.094768 0.02393,-0.164004 -0.552917,-1.338917 -0.656277,-1.598218 L 28.088475,36.172502 20.981384,33.775081 19.261503,33.21459 C 19.005692,33.13197 18.72925,33.008843 18.463914,32.972617 l -0.02442,-0.02149 z m 25.845224,1.103246 -0.0078,0.01508 c -0.07898,0.148514 -0.193143,0.288068 -0.291402,0.424917 l -0.729672,0.971719 -3.765702,5.013077 -0.563457,0.752847 c -0.109999,0.144164 -0.240134,0.290392 -0.335206,0.444156 -0.0195,0.03158 -0.02685,0.03728 -0.02082,0.07497 0.01583,0.09829 0.01595,0.184928 0.0075,0.28379 -0.01466,0.01785 -0.02531,0.04002 -0.04403,0.05352 -0.02442,0.01766 -0.12935,0.02483 -0.164753,0.0297 l -0.576207,0.06916 c -0.750557,0.07276 -1.504683,0.08221 -2.258131,0.0989 -0.569079,0.01259 -1.155075,0.0027 -1.713956,0.126163 -0.529812,0.117048 -1.013458,0.332581 -1.511357,0.539639 0.71602,-0.01407 1.450303,0.0034 2.162235,-0.07336 l 2.13122,-0.277863 c 0.294141,-0.03248 0.629161,-0.0881 0.923378,-0.06027 l -0.791629,0.297105 2.149934,0.0926 4.334484,-6.285874 2.549124,-3.727976 -9.577606,3.226553 c -0.112474,0.414828 -0.218836,0.848219 -0.401102,1.238706 l -0.997447,1.92225 -0.251014,0.460696 c -0.0375,0.06829 -0.09496,0.149826 -0.111047,0.225546 0.09215,-0.04793 0.218383,-0.101897 0.284914,-0.182491 0.154855,-0.187557 0.266577,-0.531802 0.373538,-0.757201 l 0.66359,-1.351218 c 0.0462,-0.09061 0.11716,-0.288479 0.182266,-0.356697 0.03615,-0.03784 0.20417,-0.08817 0.257913,-0.111123 l 1.929339,-0.752885 4.434768,-1.749435 1.119334,-0.447529 c 0.173342,-0.07077 0.424917,-0.210097 0.608758,-0.22716 z m -3.072297,2.388007 -0.01002,0.01422 c -0.132014,0.181181 -0.328796,0.344285 -0.488073,0.503338 l -0.790689,0.805128 -2.872181,2.844613 -0.747934,0.634112 c -0.131076,0.105723 -0.293542,0.211858 -0.403239,0.338809 l 1.331079,-0.100322 c 0.133551,-0.0091 0.407064,0.0038 0.521301,-0.04474 0.04703,-0.02003 0.179605,-0.213809 0.218534,-0.260502 l 4.419917,-5.387811 0.395064,-0.496586 -6.072703,2.531346 -0.919216,0.398251 c -0.07317,0.03293 -0.213696,0.07478 -0.272839,0.123837 -0.06766,0.05611 -0.167304,0.317469 -0.206608,0.402639 l -0.450343,0.939205 c 0.317731,-0.149603 0.61071,-0.341508 0.925216,-0.497373 L 39.94292,37.129111 40.901175,36.635 c 0.09789,-0.05089 0.231098,-0.151441 0.335659,-0.171167 z M 27.477803,39.74952 c 0.268076,0.299014 0.649001,0.566978 0.961406,0.820428 0.575718,0.467071 1.155187,0.959905 1.771633,1.372558 0.302357,0.202369 0.629013,0.364085 0.951956,0.530377 0.276664,0.142476 0.551078,0.294929 0.840158,0.410927 -0.353172,-0.382761 -0.69153,-0.78739 -1.084719,-1.130323 -0.424653,-0.370386 -0.93279,-0.652563 -1.423939,-0.923676 l -1.175927,-0.643077 -0.56334,-0.296241 c -0.08424,-0.04527 -0.186058,-0.120949 -0.277228,-0.140973 l -0.03045,-0.02479 z m 4.818656,3.141603 c 0.439054,-0.252324 0.910251,-0.446968 1.343043,-0.707694 0.859772,-0.517925 1.62702,-1.194415 2.380394,-1.853544 0.20192,-0.176678 0.428141,-0.335542 0.615884,-0.526662 l 0.03135,-0.0261 -0.03135,0.0261 c -0.346459,0.125486 -0.690217,0.365399 -1.016647,0.54054 -0.730311,0.391875 -1.496511,0.762261 -2.14716,1.280826 -0.432493,0.344694 -0.855122,0.815366 -1.175514,1.266534 z m -9.099885,7.121792 c 0.05611,-0.09833 0.186957,-0.200944 0.2683,-0.283002 l 0.553817,-0.580594 1.907622,-2.116143 c 0.74036,-0.820355 1.458594,-1.617645 2.304751,-2.333663 l -1.485559,0.365621 c -0.113784,0.0291 -0.405977,0.06736 -0.475432,0.152154 l -4.418456,5.833353 6.688552,-3.026769 0.714855,-1.160662 c 0.09819,-0.165579 0.248988,-0.36596 0.294856,-0.548679 l 0.0234,-0.02554 -0.0234,0.02554 -0.802953,0.526702 -1.620647,0.879609 -2.420072,1.354146 -1.015111,0.618659 c -0.149828,0.09612 -0.332358,0.254877 -0.494523,0.319268 z m 5.719194,-2.388045 0.02873,-0.05337 0.01984,-0.02614 -0.01984,0.02614 -0.02873,0.05337 c -0.06526,0.04789 -0.125339,0.167342 -0.169294,0.236949 -0.218382,0.345632 -0.388873,0.711369 -0.576243,1.074029 -0.04103,0.07947 -0.101483,0.234174 -0.163702,0.292117 -0.09758,0.09087 -0.402564,0.163253 -0.534013,0.214183 l -1.811502,0.700867 -3.342888,1.327179 -2.004909,0.791779 1.526212,-2.188264 2.661783,-3.783855 0.946255,-1.355006 c 0.09953,-0.14004 0.227084,-0.374549 0.361984,-0.472396 0.06511,-0.04718 0.252775,-0.07448 0.338358,-0.09759 l 0.996399,-0.277826 c 0.418878,-0.128114 0.813752,-0.318894 1.217479,-0.485371 l -2.385456,-0.04084 -0.59282,-0.009 -6.349217,9.673953 9.25035,-3.132905 c -0.06338,-0.263463 -0.157404,-0.582582 -0.128227,-0.853845 0.01141,-0.105723 0.09961,-0.242612 0.146152,-0.33896 l 0.385577,-0.779924 c 0.08082,-0.159239 0.180129,-0.322532 0.227722,-0.495237 z m 6.520158,0.213359 c 0.03056,0.161454 0.125563,0.32017 0.196257,0.467857 l 0.367123,0.7692 c 0.03597,0.07497 0.124924,0.219509 0.124776,0.303481 -3.3e-4,0.214072 -0.128602,0.513499 -0.194006,0.717669 l 5.75437,1.966805 1.965192,0.645738 c 0.527677,0.166366 1.110107,0.313606 1.613033,0.541514 l -6.416125,-9.771463 -2.344579,0.08363 c 0.125788,0.03825 0.751723,0.194269 0.795753,0.270551 -0.547328,-0.05149 -1.126085,-0.207771 -1.6622,-0.334421 -0.609133,-0.137675 -1.229668,-0.272913 -1.85118,-0.340793 -0.452631,-0.04947 -0.915839,-0.05686 -1.370757,-0.08056 l 0.03769,0.02629 0.01601,0.01113 c 0.154439,0.10381 0.359135,0.174841 0.532027,0.244712 0.228209,0.09218 0.463769,0.189018 0.701316,0.254122 0.837833,0.229561 1.750334,0.279141 2.609581,0.386775 l 1.539674,0.237661 c 0.100772,0.0171 0.393302,0.0327 0.469958,0.09016 0.05472,0.04099 0.137564,0.193256 0.181367,0.253823 l 0.593535,0.813116 4.806654,6.820002 -2.266759,-0.849083 -4.002164,-1.60313 -1.043427,-0.403839 c -0.08701,-0.03413 -0.247824,-0.07234 -0.318106,-0.124514 -0.03758,-0.02794 -0.109211,-0.183916 -0.138424,-0.233196 -0.225211,-0.380063 -0.424616,-0.818517 -0.696594,-1.163251 l -0.02359,-0.03026 z m -3.30437,-22.575132 -2.382946,7.603226 -0.773175,2.505131 c -0.108198,0.344622 -0.193105,0.756375 -0.358084,1.07448 0.180766,0.327857 0.386776,0.643187 0.59882,0.951693 0.140114,0.20387 0.301717,0.408041 0.413291,0.628411 l 1.197942,2.652332 c 0.141201,0.314844 0.272125,0.643376 0.433615,0.947868 0.206159,0.388725 0.489873,0.764062 0.728435,1.134897 -0.09571,-0.64075 -0.246475,-1.300851 -0.476596,-1.907734 -0.216585,-0.571107 -0.528429,-1.110183 -0.805654,-1.653724 l -1.118996,-2.364231 c -0.02078,-0.04905 -0.09054,-0.174392 -0.08855,-0.218007 0.0069,-0.153052 0.0971,-0.372112 0.137753,-0.524376 l 0.400537,-1.493247 1.242986,-4.645424 0.568629,-1.959269 c 0.09005,-0.307266 0.205144,-0.612321 0.272689,-0.925139 l 0.196107,0.66869 2.118956,7.72744 0.238074,0.867872 c 0.01916,0.06582 0.09593,0.243774 0.09121,0.304154 -0.0024,0.03045 -0.0624,0.124287 -0.07879,0.157439 l -0.220635,0.473224 -0.788101,1.679187 c -0.332994,0.656463 -0.705368,1.316566 -0.967969,2.004421 -0.141052,0.369521 -0.226109,0.739384 -0.329395,1.119557 -0.06301,0.231997 -0.158491,0.492499 -0.170717,0.73316 0.297741,-0.411041 0.591583,-0.828493 0.834494,-1.275049 0.246099,-0.452408 0.423378,-0.944455 0.6289,-1.416401 l 0.684102,-1.526848 0.745235,-1.713504 -0.108947,0.671652 c 0.252549,-0.254837 0.492384,-0.625524 0.662502,-0.940628 L 34.254491,32.03228 33.373905,29.2893 32.52621,26.506867 c -0.123199,-0.399599 -0.211858,-0.870048 -0.394649,-1.24377 z m -0.02205,3.677008 -1.551713,6.61133 -0.175067,0.712118 c -0.02805,0.103098 -0.09796,0.274152 -0.09151,0.375975 0.0018,0.02831 0.04347,0.09702 0.05592,0.124398 l 0.188382,0.393752 0.618771,1.305426 0.929229,-7.233776 c 0.04163,0.03357 0.03342,0.05036 0.04084,0.100433 l 0.957055,7.185399 0.574858,-1.193291 c 0.08558,-0.176454 0.180169,-0.352533 0.253261,-0.534539 0.01935,-0.04823 0.05798,-0.127325 0.05749,-0.178105 -0.0012,-0.102272 -0.0653,-0.261738 -0.09065,-0.364724 l -0.244227,-1.019722 -0.972993,-4.04717 -0.523664,-2.228317 z m -8.23e-4,8.508189 -0.178218,2.284873 c -0.02663,0.39135 -0.07081,0.784575 -0.0528,1.177203 0.02745,0.598858 0.168242,1.1844 0.23751,1.778271 l 0.02082,0.02355 c 0.0183,-0.536342 0.172741,-1.055578 0.217144,-1.58982 0.07396,-0.88921 -0.05805,-1.8169 -0.1331,-2.703372 l -0.06312,-0.629313 c -0.01144,-0.110936 -0.0075,-0.237773 -0.04823,-0.341396 z m -0.450794,5.644148 c -0.599722,0.04977 -1.204655,0.06533 -1.798787,0.165692 -0.397502,0.06709 -0.756861,0.204171 -1.138574,0.326545 -0.487848,0.156388 -0.996021,0.308466 -1.465006,0.515976 l -0.0054,0.01958 0.202482,-0.02104 c 1.020361,-0.124061 2.118469,-0.152078 3.103465,-0.454283 0.424391,-0.13021 0.842707,-0.328381 1.240209,-0.524449 l 0.0075,-0.02963 z m 0.20762,0.106775 c -0.492498,0.284503 -1.008586,0.563791 -1.472544,0.892848 -0.405863,0.287877 -0.776962,0.624999 -1.154025,0.948954 l -1.676113,1.465943 0.04092,0.0012 1.878483,-1.08948 c 0.375412,-0.232673 0.769575,-0.476934 1.105907,-0.763501 0.309294,-0.263575 0.570619,-0.558916 0.835657,-0.865359 0.162878,-0.188342 0.343119,-0.373724 0.479371,-0.582469 z m 0.434779,-0.01076 c 0.426454,0.508662 0.870759,1.040914 1.379159,1.469353 0.87995,0.741486 1.960842,1.240885 2.941938,1.834867 l -1.41498,-1.304942 c -0.331308,-0.300142 -0.658301,-0.606997 -1.015599,-0.876422 -0.575193,-0.433731 -1.238334,-0.819155 -1.890522,-1.12286 z m -0.108648,0.02978 c 0.182343,0.673641 0.383251,1.349644 0.658226,1.992381 0.186694,0.436393 0.421466,0.857521 0.628411,1.285177 l 0.826692,1.761395 c 0.180657,0.374735 0.39784,0.750897 0.546281,1.139361 0.02693,0.07051 0.04369,0.148477 0.0288,0.22322 -0.03904,0.01305 -0.03773,0.0147 -0.0752,-0.0036 -0.06312,-0.03072 -0.112174,-0.07891 -0.163552,-0.125713 l -2.510495,9.344073 C 32.01927,58.244244 31.831377,57.658062 31.674348,57.077506 l -0.94179,-3.416919 -0.886926,-3.27062 c -0.09342,-0.315855 -0.161527,-0.693854 -0.302879,-0.989121 l -0.02423,0.02404 c -0.06079,0.05978 -0.106811,0.106621 -0.193218,0.126087 l -0.03972,-0.02314 0.513463,-1.038213 0.789077,-1.629235 c 0.299992,-0.595408 0.6526,-1.190927 0.908752,-1.803811 0.134075,-0.320845 0.223673,-0.654517 0.324557,-0.98646 0.08236,-0.270966 0.178064,-0.554156 0.210956,-0.836669 l -1.101481,1.744743 -1.479893,3.095329 -0.55108,1.037801 c -0.04268,0.07763 -0.162241,0.23132 -0.179117,0.30873 -0.02877,0.132012 0.03023,0.340869 0.06766,0.467856 l 0.744748,2.28791 1.267659,4.010976 0.899639,2.879907 c 0.140901,0.468796 0.246022,0.960093 0.4053,1.421763 l 0.0192,0.04538 2.741553,-8.754928 0.400427,-1.266875 0.240921,-0.674538 c 0.0222,-0.06293 0.08105,-0.188945 0.07164,-0.254014 -0.009,-0.06181 -0.06822,-0.15684 -0.09654,-0.216058 l -0.284273,-0.561726 -1.01496,-2.047324 -0.828417,-1.743169 C 33.176481,44.677 32.96605,44.353418 32.761954,44.02995 32.589963,43.757374 32.411482,43.454418 32.191636,43.21822 Z m -0.06046,0.124062 c -0.09702,0.509562 -0.225471,1.04954 -0.263277,1.565591 -0.05183,0.707919 0.03544,1.428439 0.102611,2.132532 l 0.164342,1.703941 c 0.06387,-0.398591 0.06938,-0.81398 0.107485,-1.217106 0.07925,-0.838396 0.219771,-1.730156 0.153165,-2.571626 -0.04309,-0.544516 -0.178628,-1.075004 -0.264326,-1.613332 z m 3.790756,1.307151 5.368199,5.515963 -6.60972,-3.869925 0.766538,1.449064 c 0.0309,0.05108 0.07606,0.156841 0.117349,0.194081 0.03642,0.03282 0.152414,0.06548 0.200719,0.08633 l 0.603921,0.271717 6.067378,2.78802 c -1.145812,-1.703681 -2.45754,-3.308502 -3.709375,-4.934284 l -0.703228,-0.894124 c -0.03555,-0.04467 -0.100885,-0.166554 -0.141614,-0.193408 -0.06286,-0.0414 -0.283866,-0.0615 -0.365248,-0.07894 l -1.406873,-0.30108 z m -4.840896,2.646184 -0.558166,1.159199 -0.193482,0.3744 c -0.02561,0.04932 -0.07928,0.127664 -0.08941,0.180243 -0.01414,0.07343 0.08221,0.290203 0.105198,0.370947 l 0.316568,1.217031 1.46583,6.208918 1.612431,-6.897298 0.171693,-0.644198 c 0.01496,-0.05059 0.07632,-0.190819 0.07193,-0.237398 -0.0017,-0.01808 -0.04328,-0.07973 -0.05352,-0.09879 l -0.163817,-0.315405 c -0.207882,-0.423454 -0.379762,-0.880848 -0.601859,-1.294137 l -1.045189,7.499904 z m 4.297695,0.472807 h 0.0405 z"
       id="path2"
       style="stroke-width:0.0375035" />
  </g>
</svg>
