<?xml version="1.0" encoding="UTF-8" standalone="no"?>
<!-- Created with Inkscape (http://www.inkscape.org/) -->

<svg
   width="63mm"
   height="88mm"
   viewBox="0 0 63 88"
   version="1.1"
   id="svg1"
   inkscape:version="1.4 (86a8ad7, 2024-10-11)"
   xml:space="preserve"
   sodipodi:docname="card-restrain-hand-left.svg"
   xmlns:inkscape="http://www.inkscape.org/namespaces/inkscape"
   xmlns:sodipodi="http://sodipodi.sourceforge.net/DTD/sodipodi-0.dtd"
   xmlns="http://www.w3.org/2000/svg"
   xmlns:svg="http://www.w3.org/2000/svg"><sodipodi:namedview
     id="namedview1"
     pagecolor="#ffffff"
     bordercolor="#000000"
     borderopacity="0.25"
     inkscape:showpageshadow="2"
     inkscape:pageopacity="0.0"
     inkscape:pagecheckerboard="0"
     inkscape:deskcolor="#d1d1d1"
     inkscape:document-units="mm"
     inkscape:zoom="1.4627806"
     inkscape:cx="171.93282"
     inkscape:cy="237.56126"
     inkscape:window-width="1350"
     inkscape:window-height="1017"
     inkscape:window-x="228"
     inkscape:window-y="0"
     inkscape:window-maximized="0"
     inkscape:current-layer="layer1" /><defs
     id="defs1" /><g
     inkscape:label="Layer 1"
     inkscape:groupmode="layer"
     id="layer1"><g
       id="g1"
       transform="matrix(0.06087197,0,0,0.06087197,0.03359486,0.54402301)"><path
         id="path5"
         style="fill:none;stroke:#e6e6e6;stroke-width:4.92837673;stroke-dasharray:none;stroke-opacity:1"
         d="m 224.76249,-222.62328 17.95484,375.38598 c 23.08635,63.26206 62.92748,115.82282 90.07698,155.62297 l 35.23908,49.79755 c 6.16183,8.39584 15.68755,18.65612 19.53392,28.31668 3.04306,7.63854 2.36924,19.11586 2.96375,27.32171 l 1.12477,13.13089 160.68511,-68.09858 c -2.44695,-4.24001 -4.80972,-8.56421 -7.41992,-12.65497 l -18.56048,-27.32164 c -2.23129,-3.15966 -6.83093,-7.99939 -8.09062,-11.31374 -1.08035,-2.84468 -0.53193,-9.70858 -0.71375,-12.93611 l -2.44455,-35.5635 c -3.85181,-36.1945 -10.85143,-72.71303 -23.51425,-106.92866 -10.77364,-29.10157 -24.22041,-58.131121 -39.71702,-85.036711 -6.58261,-11.42513 -16.42011,-22.82842 -21.76208,-34.59015 -1.68575,-3.70792 -1.51433,-7.77507 -1.51433,-11.74628 0,-68.35258 -19.60794,-141.456709 -69.46143,-190.775619 -28.16239,-27.85565 -68.07858,-47.94935 -107.83712,-51.13878 -6.4969,-0.52345 -18.84417,-0.0664 -26.5429,-1.47104 z" /><path
         id="path3"
         style="fill:none;stroke:#e6e6e6;stroke-width:4.92837673;stroke-dasharray:none;stroke-opacity:1"
         d="m -643.23488,446.22697 -172.27995,-68.50975 c -5.9922,12.93266 -11.1989,26.19631 -15.4887,39.9766 -13.9359,44.76664 -19.7909,92.16445 -23.2981,138.77145 -5.9148,78.64015 -3.097,156.54959 2.769,235.07843 l 7.5713,78.43889 c 1.9027,31.47947 -5.2339,61.38442 -5.5162,92.43503 -0.2769,30.37999 9.4429,61.44198 28.3599,85.25318 20.2689,25.513 59.4201,53.3068 92.2403,57.6935 2.9751,0.3989 4.7918,0.077 7.5713,-0.8871 2.3725,-4.164 2.3877,-4.3899 0.9951,-8.999 -2.7443,-9.0988 -12.4889,-19.8621 -17.6952,-28.0572 -20.7492,-32.6683 -37.4512,-75.06306 -24.0119,-113.50493 l 4.1102,-3.0934 c 7.3451,2.29106 12.5038,8.49203 15.943,15.18595 10.1329,19.71494 3.109,52.14528 23.0384,65.39468 5.3176,0.513 5.5841,0.6763 10.4484,-2.2498 9.4843,-23.2493 4.7566,-103.29379 -5.1485,-126.78731 -6.5906,-15.62962 -18.3044,-26.8931 -26.5429,-41.31769 -23.583,-41.29223 -11.9547,-91.90292 4.3049,-133.32008 24.791,-63.15434 64.3857,-119.08964 82.78692,-185.15116 8.75796,-31.43905 8.08245,-64.19517 9.84273,-96.35029 z" /><path
         id="path6"
         style="fill:none;stroke:#e6e6e6;stroke-width:4.92837673;stroke-dasharray:none;stroke-opacity:1"
         d="m -460.65799,-227.72845 c -0.10181,0.0432 -0.22343,0.15349 -0.32449,0.19462 -6.53371,2.66022 -20.85148,0.68142 -28.46815,1.38453 -10.39909,0.95815 -20.82864,3.17415 -30.84772,6.07869 -61.12927,17.71437 -111.99197,63.10153 -135.61308,122.374059 -9.2509,23.21391 -13.8249,48.99441 -16.8732,73.72305 l -3.6992,43.78384 c -0.3067,4.01738 0.1866,12.58463 -1.2114,16.0944 -4.0038,10.04341 -16.9494,22.7985 -23.1682,32.5134 -18.4473,28.81388 -33.8148,59.843441 -44.9087,92.218711 -9.6933,28.28987 -15.7897,57.51828 -20.5291,87.00518 -3.5071,21.83234 -5.8382,45.08698 -12.1357,66.30312 -3.6646,12.34528 -15.7824,24.46912 -22.4327,35.69331 -5.4283,9.15912 -10.2255,18.54031 -14.6452,28.07876 l 172.27995,68.50975 c 1.40246,-25.61917 4.31573,-50.86613 15.03445,-74.69655 11.48488,-25.53482 37.41548,-46.14741 54.44857,-68.66101 26.08244,-34.47315 79.25632,-104.54621 100.11445,-144.52562 z" /><path
         id="path4"
         style="fill:none;stroke:#e6e6e6;stroke-width:4.92837673;stroke-dasharray:none;stroke-opacity:1"
         d="m 258.55206,1629.2558 -214.570931,3.4181 c -0.96255,8.7852 -1.71391,17.6223 -2.68238,26.3266 -4.68792,42.1283 -9.60199,85.6691 -5.38647,128.0418 7.96146,79.9397 46.47199,153.055 62.60393,231.7471 6.425121,31.3248 12.118241,62.9081 13.174101,94.9659 0.86588,26.249 -1.35852,53.2829 1.03834,79.369 1.70471,18.5668 7.14919,36.537 10.05901,54.8595 2.54891,16.0425 -3.08852,34.9631 -6.46801,50.8145 -6.93536,32.4922 -14.99549,66.6134 -15.98629,99.9198 -0.32579,10.9663 -0.916461,22.4621 1.83875,33.184 2.13093,8.2793 5.94841,16.1967 12.41698,21.9784 5.47505,4.9133 12.48708,7.5488 19.57721,9.1507 17.90451,4.0444 38.75678,3.1191 57.15265,3.4178 26.79963,0.4072 55.03876,1.768 81.68346,-0.9734 8.30365,-0.8415 19.32313,-4.5127 24.98544,-10.946 6.23506,-7.0846 5.87734,-19.2837 4.8242,-28.1871 -4.10965,-34.6085 -23.6911,-61.1216 -39.6954,-90.7907 -19.33769,-35.8852 -38.91042,-81.3977 -41.9234,-122.1147 -1.99776,-27.0088 -0.18342,-55.2643 0.86532,-82.3542 2.56787,-66.4502 8.09758,-136.3822 24.57419,-200.9862 11.81062,-46.2815 32.77612,-93.5603 36.1693,-141.3888 3.84692,-54.1953 -6.82837,-108.0944 -24.25,-159.4521 z" /><path
         id="path7"
         style="fill:none;stroke:#e6e6e6;stroke-width:4.92837673;stroke-dasharray:none;stroke-opacity:1"
         d="m -290.21684,1636.8055 -214.24663,-9.172 c -14.89242,49.0938 -25.64543,101.5619 -22.08662,151.1018 3.70513,51.656 20.98488,102.0472 32.5783,152.2919 16.3219,70.7375 24.02018,140.3592 27.49469,212.7539 1.12379,23.4528 3.29921,47.9882 1.81712,71.3866 -1.00436,15.8798 -5.10683,31.8794 -11.03251,46.6176 -11.8756,29.5606 -27.74968,58.9366 -41.66384,87.6542 -13.20856,27.2803 -29.02796,49.0378 -31.12896,80.7969 -0.41802,6.3518 -0.92373,14.3408 1.62243,20.3128 2.90719,6.8402 9.07612,9.0018 15.76997,11.1191 25.64335,8.0619 141.11369,9.1642 162.84821,-2.942 10.95556,-6.1075 16.9399,-17.1905 20.00994,-28.9442 10.07867,-38.5168 -3.91949,-91.0826 -12.0276,-129.2748 -3.25461,-15.3097 -7.99337,-31.6416 -7.2252,-47.4398 1.07495,-22.0412 9.3871,-44.0609 11.14065,-66.5625 1.96525,-25.2445 -0.29073,-51.0743 0.77877,-76.4273 1.94084,-45.9816 10.6357,-92.1947 21.76212,-136.7378 15.10053,-60.451 42.37354,-118.1661 49.81928,-180.3273 6.16096,-51.4706 -1.72318,-104.7422 -6.23012,-156.2071 z" /><path
         id="path8"
         style="fill:none;stroke:#e6e6e6;stroke-width:4.92837673;stroke-dasharray:none;stroke-opacity:1"
         d="m 238.1096,972.32514 -721.76277,-22.12971 c -2.62451,11.90737 -5.43243,23.8161 -7.52804,35.71499 -8.13525,46.20518 -10.53055,92.74778 -11.68147,139.57178 -1.0315,41.9925 -1.12449,85.1304 2.29301,127.0035 l 17.04629,134.0987 c 7.09014,42.8317 19.13193,85.2982 16.09446,129.2099 -1.57712,22.7932 -13.96427,43.9969 -21.56745,65.2647 -5.36756,15.0166 -10.6289,30.6249 -15.4671,46.5745 l 214.24663,9.172 c -0.0899,-1.0265 -0.19413,-2.0897 -0.28121,-3.1148 -1.89998,-22.34 -4.71862,-45.453 -1.88203,-67.8607 3.22478,-25.462 12.21207,-51.6382 20.50745,-75.843 l 32.38364,-94.8793 58.64521,-223.1593 c 15.05967,-70.2062 27.64286,-138.0795 30.60974,-209.98509 l 51.701279,0.21631 2.61749,38.24608 c 13.94683,132.9588 48.24248,266.9413 87.8490098,394.4224 16.53359,53.2145 41.3769002,105.1555 52.0473902,159.9279 5.0137,25.7294 2.84956,51.8896 0,77.8979 l 214.570931,-3.4181 c -5.49218,-16.1907 -11.58151,-32.1566 -18.19253,-47.7641 l -16.28927,-37.8132 c -2.64365,-6.1457 -6.75706,-13.6817 -7.52803,-20.2261 -2.15526,-18.3201 1.32419,-38.8041 4.36973,-56.8499 l 22.77889,-109.2433 c 23.75744,-129.4923 20.08001,-258.403 -5.58125,-385.03406 z" /><path
         id="path9"
         style="fill:none;stroke:#e6e6e6;stroke-width:4.92837673;stroke-dasharray:none;stroke-opacity:1"
         d="m 139.29324,642.34569 -514.67659,-9.25868 c -0.52994,3.53883 -1.07339,6.7317 -1.68732,8.73939 -3.08904,10.11119 -9.75094,20.20189 -13.93122,30.1339 l -36.19088,91.1154 c -21.98289,60.40897 -42.48181,123.69849 -56.4604,187.11973 L 238.1096,972.32514 C 228.80163,926.39236 216.78415,880.74832 201.87549,835.50072 181.84021,774.69729 157.2264,715.06577 141.67281,652.85893 c -0.88052,-3.52082 -1.58723,-7.00787 -2.37957,-10.51324 z" /><path
         id="path10"
         style="fill:none;stroke:#e6e6e6;stroke-width:4.92837673;stroke-dasharray:none;stroke-opacity:1"
         d="m 147.94612,337.61097 -546.00014,-10.1889 c 1.47384,2.87725 2.94561,5.75306 4.56444,8.43665 23.36958,79.60462 27.67907,92.12035 24.72574,176.39009 -0.60993,17.35577 -2.25922,91.72126 -6.61951,120.8382 l 514.67659,9.25868 c -12.31542,-54.47987 -14.32615,-107.30295 -11.72475,-163.5405 2.69271,-58.19763 7.40888,-53.15111 17.34913,-124.47249 1.02953,-6.14615 2.02121,-11.59992 3.0285,-16.72173 z" /><path
         id="path11"
         style="fill:none;stroke:#e6e6e6;stroke-width:4.92837673;stroke-dasharray:none;stroke-opacity:1"
         d="M 235.40561,0.06002916 -467.99138,-9.6313508 -473.63741,158.34379 c 0.47162,-0.90398 1.37971,-2.19975 1.81713,-3.0718 9.35654,18.59106 20.7619,69.01648 33.3787,85.66403 17.94504,23.67366 26.28683,58.95907 40.38756,86.48605 l 546.00014,10.1889 c 7.68665,-39.086 16.16763,-52.35406 47.46135,-99.03291 33.64377,-50.18447 42.66988,-83.30863 46.87724,-86.91859 0.13533,0.37452 0.2961,0.72903 0.43262,1.10323 z" /><path
         id="path12"
         style="fill:none;stroke:#e6e6e6;stroke-width:4.92837673;stroke-dasharray:none;stroke-opacity:1"
         d="m -236.97962,-358.01995 c -0.0128,0.032 -0.008,0.31754 -0.0216,0.34611 -52.75499,41.3733 -113.865,62.69772 -171.63092,95.39854 -11.92189,6.7481 -23.21456,14.40658 -34.39542,22.30289 -5.12064,3.61629 -11.90999,9.79453 -17.63034,12.24396 L -467.99129,-9.6313508 235.40578,0.06002916 224.76258,-222.62328 c -1.28506,-0.23439 -3.36789,-0.11924 -4.28315,-0.49752 -4.72312,-1.95439 -10.37751,-6.88431 -14.75325,-9.75619 -11.52805,-7.56517 -22.94358,-15.40339 -34.97948,-22.15149 l -81.077901,-42.6157 c -35.03517,-17.4374 -69.50304,-33.98147 -99.6170202,-59.44563 l 0.0216,-0.93014 z" /><path
         id="path2"
         style="fill:none;stroke:#000000;stroke-width:4.92837673;stroke-dasharray:none;stroke-opacity:1"
         d="m 552.34094,358.85392 -160.68511,68.09858 4.02378,46.50944 c 3.11877,25.02185 8.36246,50.47433 14.29886,74.97769 6.6015,27.2477 16.92644,54.76956 28.44657,80.36408 25.37188,56.38191 80.7847,145.81452 64.16149,209.55249 -0.50753,1.94895 -1.05162,3.811 -1.83876,5.6676 -7.7361,18.26831 -24.57747,32.71074 -33.61673,50.38173 -7.063,13.80031 -8.33437,29.70545 -10.29685,44.84387 l -6.55476,60.05135 c -0.72183,10.07345 -3.09716,21.17285 -0.69214,31.04255 l 4.54283,4.5209 c 7.84205,-1.5036 15.93691,-6.8366 21.06995,-12.9576 3.28442,-22.29095 5.01762,-59.63375 24.35796,-74.04753 2.97776,-2.21768 3.22,-2.04522 6.85741,-1.77377 10.40721,20.49679 10.91081,45.82434 3.87222,67.2116 -4.60917,14.0039 -12.35744,30.7742 -20.83202,42.9186 -7.56781,10.8442 -25.95577,24.6545 -29.52805,36.8615 -0.60123,2.052 -0.0376,6.2647 -0.0424,8.5448 4.03634,4.7991 4.3871,5.505 10.40504,6.9872 41.42254,-12.1581 95.88735,-41.8959 117.22562,-80.1262 6.22153,-11.1509 9.80349,-24.5045 11.57334,-37.09949 l 0.41093,-2.72568 c 2.01417,-14.66891 -0.96287,-31.5106 -2.27121,-46.2284 -1.9219,-21.59051 -3.06651,-42.84346 -2.33644,-64.52928 l 8.71802,-108.89706 c 9.69594,-110.76038 17.97662,-224.08272 -16.65699,-331.58037 -8.6672,-26.89814 -20.32993,-53.82116 -34.61167,-78.5686 z" /><path
         id="path1"
         style="fill:none;stroke:#e6e6e6;stroke-width:4.92837673;stroke-dasharray:none;stroke-opacity:1"
         d="m -120.34902,-825.04044 c -5.76538,-0.2607 -11.75132,-0.5377 -17.50054,0.043 -39.41931,4.7693 -75.55235,19.792 -100.547,51.9176 -30.68424,39.4356 -33.97543,114.6518 -27.86247,163.1727 -3.6618,3.65094 -4.82113,1.75785 -8.39334,3.80731 -5.47235,3.13789 -7.60641,11.73491 -7.63622,17.52215 -0.0625,12.18522 3.11972,23.70678 5.42972,35.56358 4.02825,20.68685 6.73264,48.69327 23.06005,63.79375 2.57603,2.38061 5.74204,4.22625 8.91253,5.68928 2.00038,12.27245 5.88458,117.84436 2.55263,125.51084 h 227.052989 l 2.61748,-81.01308 c 0.22272,-12.1689 -2.21447,-33.37136 1.99025,-44.45446 l 1.6007598,-1.40614 c 19.3132802,-17.25302 23.1594902,-39.11889 28.2734602,-63.20964 2.50273,-11.78349 5.44672,-23.87645 5.92728,-35.9313 0.27953,-6.94905 0.73967,-13.5375 -3.17991,-19.62059 -3.04299,-2.27194 -6.24186,-4.42391 -8.84774,-7.20353 3.08644,-55.07897 4.18327,-124.21277 -34.59007,-167.95347 -24.60656,-27.758 -62.00562,-44.5725 -98.859859,-46.2283 z" /></g><g
       id="move"
       transform="matrix(0.04824098,0,0,0.05181757,-4.1842378,-18.663765)"
       inkscape:label="move"><text
         xml:space="preserve"
         style="font-style:normal;font-variant:normal;font-weight:normal;font-stretch:normal;font-size:148.144px;font-family:Amiri;-inkscape-font-specification:'Amiri, Normal';font-variant-ligatures:normal;font-variant-caps:normal;font-variant-numeric:normal;font-variant-east-asian:normal;fill:#000000;fill-opacity:1;stroke:#000000;stroke-width:0.269288;stroke-dasharray:none;stroke-opacity:1;paint-order:markers fill stroke"
         x="513.04822"
         y="778.5697"
         id="text1-5"><tspan
           sodipodi:role="line"
           id="tspan1"
           x="513.04822"
           y="778.5697">Speed:-1*</tspan></text><path
         fill="#fefefe"
         d="m 423.87315,743.60565 0.21512,0.052 c 1.71719,3.76403 3.49119,3.70519 5.98388,7.35145 -7.82361,-0.10797 -11.69949,-1.08864 -18.76246,-4.29382 -1.34963,-0.0879 -4.75661,-3.11408 -5.45151,-3.66689 -1.44497,-1.14935 -2.73119,-2.33754 -3.98746,-3.59097 2.82341,0.88799 5.73821,1.52855 8.60636,2.10838 4.47579,0.90536 8.94267,1.61647 13.39636,2.03887 z"
         id="path2-5"
         style="stroke:#000000;stroke-width:2.32259;stroke-dasharray:none;stroke-opacity:1"
         sodipodi:nodetypes="ccccccccc" /><path
         fill="#fefefe"
         d="m 420.73098,732.74924 c 0.16605,0.0376 0.32327,0.0615 0.4746,0.14245 0.19084,1.49259 0.48354,2.93964 1.01378,4.35123 l 0.69132,1.64881 c 0.11304,0.25498 0.3131,0.59092 0.35053,0.86427 -3.38586,1.31875 -5.88595,0.53798 -8.86795,-0.96306 -4.84177,-2.84555 -9.02471,-7.42607 -10.99427,-12.72672 3.75169,2.83784 8.23961,4.29963 12.72721,5.52821 z"
         id="path3-1"
         style="stroke:#000000;stroke-width:2.32259;stroke-dasharray:none;stroke-opacity:1"
         sodipodi:nodetypes="ccccccccc" /><path
         fill="#fefefe"
         d="m 419.63719,727.11092 c -0.99006,-0.26054 -2.01274,-0.4366 -2.97937,-0.7825 -0.85278,-0.30505 -1.72241,-0.79395 -2.50264,-1.25578 -2.16532,-1.2816 -4.13288,-2.88937 -5.79407,-4.78297 -4.41276,-5.02993 -6.03531,-11.58112 -5.60542,-18.1506 1.44243,3.24637 3.5683,6.08982 6.39823,8.27104 l 1.57984,1.10672 c 0.28142,0.18129 0.70379,0.34916 0.93296,0.58562 0.21062,0.21732 0.3861,0.48811 0.57442,0.72644 l 1.38168,1.69296 c 2.2089,2.46776 4.80215,4.73075 7.62498,6.46811 l 0.12898,0.13734 c -0.62085,1.97648 -1.04172,4.00744 -1.0594,6.08448 z"
         id="path6-0"
         style="stroke:#000000;stroke-width:2.32259;stroke-dasharray:none;stroke-opacity:1" /><path
         fill="#fefefe"
         d="m 422.50359,716.14959 c -6.06305,-3.90641 -11.27396,-9.80969 -14.03576,-16.50113 -0.43606,-1.05665 -0.75161,-2.15168 -1.06003,-3.25081 -2.00973,-7.16318 -1.47637,-15.1216 1.38236,-21.98689 0.2891,0.72521 0.42082,1.57216 0.62475,2.33043 0.35788,1.33073 0.7986,2.60686 1.35738,3.86748 0.47228,1.06564 0.9832,2.14161 1.58175,3.1412 l 0.90316,1.40505 c 0.18746,0.2736 0.50729,0.62227 0.60871,0.93662 0.21288,0.6592 0.26249,1.40777 0.42808,2.08389 0.33393,1.36262 0.78211,2.71126 1.23813,4.03775 0.45987,1.33772 1.06344,2.61477 1.67154,3.88916 l 1.49177,2.99798 c 1.87192,3.37951 4.15198,6.55044 6.51068,9.6034 l 0.23463,0.30861 c -0.0517,0.33478 -0.27329,0.71011 -0.41015,1.02434 l -0.66812,1.64046 -1.60838,4.55102 z"
         id="path8-6"
         style="stroke:#000000;stroke-width:2.32259;stroke-dasharray:none;stroke-opacity:1" /><path
         fill="#fefefe"
         d="m 427.82911,704.30477 c -1.48769,-2.03108 -2.99773,-4.05116 -4.324,-6.19379 -0.96557,-1.5597 -1.79369,-3.1602 -2.59468,-4.80719 -1.11105,-2.2848 -2.10439,-4.7802 -2.55777,-7.29184 -0.24624,-1.36401 -0.45268,-2.72558 -0.51351,-4.11224 -0.24301,-5.54139 1.1937,-11.18988 3.82779,-16.05429 0.72352,-1.33628 1.55305,-2.58504 2.42036,-3.83035 0.042,0.0418 0.0238,0.31948 0.0245,0.39377 0.0211,2.54183 0.12403,5.04409 0.42467,7.56995 0.69681,5.85525 2.16034,11.48155 3.87478,17.11022 l 3.27489,9.76808 c -0.12526,0.3865 -0.4152,0.75921 -0.61716,1.11385 l -0.73083,1.39548 -2.32068,4.9936 -0.078,0.039 z"
         id="path9-2"
         style="stroke:#000000;stroke-width:2.32259;stroke-dasharray:none;stroke-opacity:1" /><path
         fill="#0f0f0f"
         d="m 432.78711,753.3154 c 6.28761,7.956 12.85273,15.64753 20.25674,22.5946 5.03214,4.72143 10.49456,9.17358 16.60299,12.43754 7.93511,4.24005 17.11673,6.68524 26.01566,7.74271 2.47919,0.29452 4.96743,0.37534 7.45739,0.50978 2.29621,0.12402 4.63384,0.35136 6.93082,0.15841 -0.31138,0.39113 -0.97692,0.55687 -1.44822,0.75118 -3.40429,1.40427 -7.02194,2.24905 -10.67808,2.66433 -10.79379,1.22587 -22.09365,-1.38775 -31.6759,-6.36425 -4.33537,-2.25144 -8.33793,-4.99995 -12.15002,-8.04259 -5.94588,-4.74606 -11.37367,-10.20987 -16.25291,-16.04008 l -4.06298,-5.01213 -9.08906,8.41029 -21.3164,-10.37972 2.49671,-15.7079 c 0.38126,0.21008 0.7698,0.4604 1.18359,0.59783 2.32478,1.18832 4.66524,2.35494 7.11431,3.26873 5.93832,2.21617 7.44568,2.96323 13.74108,2.45884 z"
         id="path10-3"
         style="fill:none;fill-opacity:1;stroke:#000000;stroke-width:2.32259;stroke-dasharray:none;stroke-opacity:1"
         sodipodi:nodetypes="ccccccccccccccccccc" /><path
         fill="#dc9308"
         d="m 463.02874,689.96939 0.14384,0.035 c 0.49063,0.11195 1.1488,0.0313 1.65643,0.0217 l 3.58408,-0.053 c 2.39392,-0.0242 4.86943,0.10962 7.24971,-0.0434 -6.31985,10.20788 -9.878,22.14022 -9.54579,34.17661 0.11685,4.25601 0.74673,8.39684 1.7215,12.53376 3.77093,16.00471 11.61851,30.25771 21.33565,40.94937 12.10107,12.64047 8.48263,7.78003 20.17454,16.94792 -17.32365,-3.71452 -21.55024,-4.23093 -26.35187,-6.3316 -9.89964,-6.18762 -14.97824,-6.89097 -26.89975,-18.41407 -12.79352,-12.36596 -18.29357,-15.79526 -23.00912,-27.19435 l -3.2569,-19.42517 c -2.88158,-22.76633 4.41888,-31.58046 4.03571,-32.91484 l 21.28156,-0.26223 5.32127,0.0602 c 0.85201,-0.008 1.71303,0.0204 2.55906,-0.0844 z"
         id="path11-9"
         style="fill:none;stroke:#000000;stroke-width:2.32259;stroke-dasharray:none;stroke-opacity:1"
         sodipodi:nodetypes="cccccsccccsccccccc" /><path
         id="path2-8"
         inkscape:transform-center-x="-0.01494134"
         inkscape:transform-center-y="-3.7500871"
         d="m 427.40161,748.51285 c 20.36512,-7.37419 13.98417,-9.56844 21.66325,-57.74338 8.14056,47.72615 2.64335,50.64631 21.89168,57.54181 z"
         sodipodi:nodetypes="cccc"
         style="stroke-width:10.6897" /><path
         id="path2-0"
         inkscape:transform-center-x="-0.0034207367"
         inkscape:transform-center-y="-1.3106034"
         d="m 444.38529,757.43968 c 4.11726,-2.61102 3.85157,-6.32045 4.96018,-20.18053 1.20756,13.97013 0.83807,17.62212 5.01247,20.11007 z"
         sodipodi:nodetypes="cccc"
         style="stroke-width:3.02394" /></g></g></svg>
