<?xml version="1.0" encoding="UTF-8" standalone="no"?>
<svg
   width="63mm"
   height="88mm"
   version="1.1"
   id="svg132"
   sodipodi:docname="card-disorder-stun.svg"
   viewBox="0 0 63 88"
   inkscape:version="1.4 (86a8ad7, 2024-10-11)"
   xmlns:inkscape="http://www.inkscape.org/namespaces/inkscape"
   xmlns:sodipodi="http://sodipodi.sourceforge.net/DTD/sodipodi-0.dtd"
   xmlns="http://www.w3.org/2000/svg"
   xmlns:svg="http://www.w3.org/2000/svg">
  <defs
     id="defs132" />
  <sodipodi:namedview
     id="namedview132"
     pagecolor="#ffffff"
     bordercolor="#000000"
     borderopacity="0.25"
     inkscape:showpageshadow="2"
     inkscape:pageopacity="0.0"
     inkscape:pagecheckerboard="0"
     inkscape:deskcolor="#d1d1d1"
     inkscape:zoom="18.320782"
     inkscape:cx="88.123966"
     inkscape:cy="154.55126"
     inkscape:window-width="1920"
     inkscape:window-height="1009"
     inkscape:window-x="-8"
     inkscape:window-y="-8"
     inkscape:window-maximized="1"
     inkscape:current-layer="svg132"
     inkscape:document-units="mm" />
  <g
     id="mind"
     transform="matrix(0.06382477,0,0,0.06382477,-10.577536,17.218337)"
     inkscape:label="mind">
    <path
       fill="#8751D1"
       d="m 411.69208,747.05319 c -0.24812,-0.0337 -0.61135,0.0446 -0.86853,0.0689 l -1.88364,0.18649 c -3.72501,0.33108 -8.57419,0.88378 -11.91731,-1.09865 -2.31419,-1.37162 -3.71541,-3.91758 -3.77797,-6.58974 -0.0316,-1.35445 0.21513,-2.71607 0.33824,-4.0627 0.155,-1.69621 0.11689,-3.55812 -0.36243,-5.20298 -0.34838,-1.19595 -1.45608,-1.90027 -2.27878,-2.7777 -0.32433,-0.34581 -0.66149,-0.6965 -0.75798,-1.17919 -0.0843,-0.42203 0.004,-0.78231 0.23041,-1.14312 0.70459,-1.12593 2.04783,-1.75635 3.29176,-2.05337 -1.46785,-0.66041 -2.98109,-1.155 -3.73973,-2.6996 -0.0738,-0.9685 0.67715,-1.48648 1.22594,-2.20552 0.44256,-0.57988 0.90959,-1.29285 1.14594,-1.98636 0.30595,-0.89757 0.39325,-2.0065 -0.0624,-2.87055 -0.32352,-0.61365 -0.91203,-0.94972 -1.54743,-1.15905 -1.07176,-0.35298 -2.44501,-0.17271 -3.57501,-0.2446 -1.08391,-0.069 -2.38392,-0.43067 -3.12283,-1.2777 -1.58244,-1.81365 -0.5669,-3.34163 0.31594,-5.1823 l 4.40663,-9.12569 c 1.32702,-2.79188 2.80864,-5.68878 3.46581,-8.72446 0.23121,-1.06798 0.27838,-2.21095 0.16162,-3.29905 -0.15554,-1.45068 -0.55595,-2.89231 -0.77594,-4.33731 -0.50258,-3.30135 -0.63447,-6.64149 -0.43325,-9.97311 l 5.83284,-17.18719 c 3.39416,-6.96905 6.91022,-12.09437 11.932,-16.32738 9.62457,-8.97887 13.47758,-9.65632 15.94441,-10.766 10.19556,-3.45889 25.31639,-3.25762 29.84348,-1.68229 4.3097,1.27835 11.02166,3.75073 14.87564,7.31267 8.36058,7.72704 13.11125,14.18473 17.04402,28.18178 1.13234,11.82468 2.47464,18.22573 -8.91699,38.68708 -4.82517,4.50903 -3.58578,9.81468 -4.72292,21.93709 -2.70104,8.57625 1.50951,26.66266 -1.8586,27.09779 z"
       id="path2"
       style="fill:none;fill-opacity:1;stroke:#e8312c;stroke-width:2.32259;stroke-dasharray:none;stroke-opacity:1"
       sodipodi:nodetypes="ccccccccccccscccccccscccccccsccccc" />
    <text
       xml:space="preserve"
       style="font-style:normal;font-variant:normal;font-weight:normal;font-stretch:normal;font-size:143.709px;font-family:Amiri;-inkscape-font-specification:'Amiri, Normal';font-variant-ligatures:normal;font-variant-caps:normal;font-variant-numeric:normal;font-variant-east-asian:normal;fill:#e8312c;fill-opacity:1;stroke:none;stroke-width:0.269287;stroke-dasharray:none;stroke-opacity:1;paint-order:markers fill stroke"
       x="489.6109"
       y="732.83862"
       id="text1"><tspan
         sodipodi:role="line"
         id="tspan1"
         x="489.6109"
         y="732.83862">Mind:-1</tspan></text>
    <path
       style="fill:#e7322c;fill-opacity:1;stroke-width:3.49882"
       id="path1-3"
       sodipodi:type="arc"
       sodipodi:cx="441.53137"
       sodipodi:cy="667.83423"
       sodipodi:rx="37.176922"
       sodipodi:ry="39.043968"
       sodipodi:start="0.027304543"
       sodipodi:end="6.2831853"
       sodipodi:open="true"
       sodipodi:arc-type="arc"
       d="m 478.69444,668.90017 a 37.176922,39.043968 0 0 1 -37.92434,37.96984 37.176922,39.043968 0 0 1 -36.41219,-39.5688 37.176922,39.043968 0 0 1 37.42723,-38.51004 37.176922,39.043968 0 0 1 36.92315,39.04306" />
    <path
       style="fill:#ffffff;fill-opacity:1;stroke-width:3.34545"
       id="path1"
       sodipodi:type="arc"
       sodipodi:cx="441.50256"
       sodipodi:cy="667.05212"
       sodipodi:rx="35.50272"
       sodipodi:ry="37.379631"
       sodipodi:start="0.027304543"
       sodipodi:end="6.2831853"
       sodipodi:open="true"
       sodipodi:arc-type="arc"
       d="m 476.99205,668.07263 a 35.50272,37.379631 0 0 1 -36.21647,36.35129 35.50272,37.379631 0 0 1 -34.77243,-37.8821 35.50272,37.379631 0 0 1 35.74176,-36.86846 35.50272,37.379631 0 0 1 35.26037,37.37876" />
    <rect
       style="fill:#e8322b;fill-opacity:1;stroke-width:4.1036"
       id="rect1"
       width="43.670288"
       height="44.625092"
       x="787.51117"
       y="-45.42012"
       transform="matrix(0.5298425,0.84809606,-0.5441132,0.83901181,0,0)" />
    <path
       id="path3-2"
       style="fill:#ffffff;stroke-width:4.17674"
       d="m 465.39785,667.3739 -23.72874,2.71407 -23.72873,-2.71407 23.72873,-0.5428 z"
       sodipodi:nodetypes="ccccc" />
    <path
       id="path4"
       style="fill:#ffffff;stroke-width:2.36508"
       inkscape:transform-center-x="-0.00029899198"
       inkscape:transform-center-y="-0.42374246"
       d="m 440.73859,667.76163 0.9542,-40.11665 0.98143,39.74202 z" />
  </g>
  <g
     id="g1"
     transform="matrix(0.35136035,0,0,0.35136035,33.004286,25.472527)">
    <path
       fill="#fdbd11"
       d="m -25.386036,34.960757 c 0.01113,-0.006 0.11324,-0.01509 1.163672,-0.01804 1.426402,-0.004 1.085937,-0.007 2.512589,-0.0078 l 1.454481,-4.49e-4 -0.158765,0.156066 c -0.09322,0.152922 -0.235292,0.297699 -0.355794,0.435462 l -0.523689,0.605553 -1.964517,2.301773 -1.931355,2.288879 -2.595431,3.090698 7.197875,-0.02826 -1.810593,1.368952 -1.714528,1.316407 -2.382344,1.773474 -2.557225,1.94262 -5.921205,4.487148 -3.45471,2.696721 c -0.100702,0.07351 -0.232538,0.218754 -0.357474,0.249239 l -0.388868,0.335255 c -0.07798,0.0672 -0.156331,0.145657 -0.249004,0.196644 l 8.623832,-10.916303 -5.936133,0.0075 z"
       id="path2-8"
       style="fill:none;stroke:#e8312c;stroke-width:0.3130689;stroke-dasharray:none;stroke-opacity:1"
       sodipodi:nodetypes="csccccccccccccccccccccc" />
    <path
       fill="#d92816"
       d="m -38.785045,57.619209 16.204013,-13.115987 c 0,0 -7.102187,0.241579 -6.68123,-0.08464 1.052965,-1.144708 4.345523,-4.729784 6.326523,-7.01708 1.118344,-1.162985 1.065766,-1.02811 2.29804,-2.440757 0.07998,-0.0037 0.308052,-0.02225 0.381268,-0.02445 -0.126757,0.152922 -0.392916,0.45197 -0.513418,0.589732 l -0.523689,0.605553 -1.964517,2.301773 -1.931355,2.288879 -2.595431,3.090699 7.197875,-0.02826 -1.810593,1.368952 -1.714528,1.316408 -2.382344,1.773473 -2.557225,1.942621 -5.921205,4.487147 -3.45471,2.696721 c -0.100702,0.07351 -0.232538,0.218754 -0.357474,0.249238 z"
       id="path3"
       style="stroke-width:0.0272048"
       sodipodi:nodetypes="scccccccccccccccccss" />
  </g>
  <text
     xml:space="preserve"
     style="font-style:normal;font-variant:normal;font-weight:normal;font-stretch:normal;font-size:9.17219px;font-family:Amiri;-inkscape-font-specification:'Amiri, Normal';font-variant-ligatures:normal;font-variant-caps:normal;font-variant-numeric:normal;font-variant-east-asian:normal;fill:#e8312c;fill-opacity:1;stroke:none;stroke-width:0;stroke-dasharray:none;stroke-opacity:1;paint-order:markers fill stroke"
     x="25.745649"
     y="44.058514"
     id="text1-9"><tspan
       sodipodi:role="line"
       id="tspan2"
       x="25.745649"
       y="44.058514">Stun</tspan></text>
</svg>
