<?xml version="1.0" encoding="UTF-8" standalone="no"?>
<!-- Created with Inkscape (http://www.inkscape.org/) -->

<svg
   width="63mm"
   height="88mm"
   viewBox="0 0 63 88"
   version="1.1"
   id="svg1"
   inkscape:version="1.4 (86a8ad7, 2024-10-11)"
   xml:space="preserve"
   sodipodi:docname="card-restrain-arm-right.svg"
   xmlns:inkscape="http://www.inkscape.org/namespaces/inkscape"
   xmlns:sodipodi="http://sodipodi.sourceforge.net/DTD/sodipodi-0.dtd"
   xmlns="http://www.w3.org/2000/svg"
   xmlns:svg="http://www.w3.org/2000/svg"><sodipodi:namedview
     id="namedview1"
     pagecolor="#ffffff"
     bordercolor="#000000"
     borderopacity="0.25"
     inkscape:showpageshadow="2"
     inkscape:pageopacity="0.0"
     inkscape:pagecheckerboard="0"
     inkscape:deskcolor="#d1d1d1"
     inkscape:document-units="mm"
     inkscape:zoom="1.0343421"
     inkscape:cx="154.2043"
     inkscape:cy="362.0659"
     inkscape:window-width="1350"
     inkscape:window-height="1017"
     inkscape:window-x="228"
     inkscape:window-y="0"
     inkscape:window-maximized="0"
     inkscape:current-layer="layer1" /><defs
     id="defs1" /><g
     inkscape:label="Layer 1"
     inkscape:groupmode="layer"
     id="layer1"><g
       id="g1"
       transform="matrix(0.06022838,0,0,0.06022838,3.9428985,4.1902555)"><path
         id="path2"
         style="fill:none;stroke:#e4e4e4;stroke-width:4.92838;stroke-dasharray:none;stroke-opacity:1"
         d="m 1661.7325,947.16766 -160.685,68.09864 4.0237,46.5094 c 3.1188,25.0219 8.3625,50.4743 14.2989,74.9777 6.6015,27.2477 16.9264,54.7695 28.4466,80.3641 25.3719,56.3819 80.7847,145.8145 64.1615,209.5525 -0.5076,1.9489 -1.0516,3.811 -1.8388,5.6676 -7.7361,18.2683 -24.5775,32.7107 -33.6167,50.3817 -7.063,13.8004 -8.3344,29.7055 -10.2969,44.8439 l -6.5547,60.0513 c -0.7219,10.0735 -3.0972,21.1729 -0.6922,31.0425 l 4.5429,4.521 c 7.842,-1.5037 15.9368,-6.8366 21.0699,-12.9576 3.2844,-22.291 5.0176,-59.6338 24.3579,-74.0476 2.9778,-2.2176 3.22,-2.0451 6.8574,-1.7737 10.4072,20.4968 10.9109,45.8243 3.8723,67.2116 -4.6092,14.0039 -12.3575,30.7741 -20.832,42.9185 -7.5679,10.8443 -25.9558,24.6546 -29.5281,36.8616 -0.6012,2.052 -0.038,6.2647 -0.042,8.5447 4.0363,4.7992 4.3871,5.5051 10.405,6.9872 41.4225,-12.158 95.8873,-41.8958 117.2257,-80.1261 6.2214,-11.1509 9.8034,-24.5044 11.5733,-37.0995 l 0.4108,-2.7257 c 2.0143,-14.6689 -0.9628,-31.5106 -2.2711,-46.2284 -1.9219,-21.5905 -3.0666,-42.8434 -2.3364,-64.5293 l 8.718,-108.897 c 9.6959,-110.7604 17.9765,-224.0828 -16.6571,-331.5805 -8.6671,-26.89806 -20.3299,-53.8211 -34.6116,-78.56854 z" /><path
         id="path5"
         style="fill:none;stroke:#e4e4e4;stroke-width:4.92838;stroke-dasharray:none;stroke-opacity:1"
         d="m 1334.1541,365.69046 17.9549,375.38599 c 23.0863,63.26206 62.9274,115.82283 90.0769,155.62298 l 35.2391,49.79755 c 6.1618,8.39582 15.6875,18.6561 19.5339,28.31666 3.0431,7.63855 2.3693,19.11586 2.9638,27.32176 l 1.1248,13.1309 160.685,-68.09864 c -2.4469,-4.24 -4.8096,-8.5642 -7.4199,-12.65496 l -18.5604,-27.32164 c -2.2313,-3.15966 -6.831,-7.99938 -8.0907,-11.31374 -1.0803,-2.84468 -0.5319,-9.70858 -0.7137,-12.9361 l -2.4446,-35.56351 c -3.8518,-36.1945 -10.8514,-72.71303 -23.5142,-106.92866 -10.7737,-29.10158 -24.2204,-58.13112 -39.717,-85.03671 -6.5826,-11.42514 -16.4201,-22.82843 -21.7621,-34.59015 -1.6857,-3.70792 -1.5143,-7.77507 -1.5143,-11.74628 0,-68.35259 -19.608,-141.45671 -69.4615,-190.77563 -28.1623,-27.85565 -68.0786,-47.94935 -107.8371,-51.13878 -6.4969,-0.52345 -18.8441,-0.0665 -26.5429,-1.47104 z" /><path
         id="path3"
         style="fill:none;stroke:#e4e4e4;stroke-width:4.92838;stroke-dasharray:none;stroke-opacity:1"
         d="M 466.15672,1034.5408 293.87679,966.03096 c -5.99226,12.93266 -11.19891,26.19632 -15.48877,39.97664 -13.93587,44.7666 -19.79088,92.1644 -23.29802,138.7714 -5.91479,78.6401 -3.097,156.5497 2.76898,235.0785 l 7.57132,78.4389 c 1.9027,31.4795 -5.23392,61.3844 -5.51626,92.435 -0.27689,30.38 9.44298,61.442 28.35997,85.2532 20.26889,25.5129 59.42003,53.3068 92.24024,57.6934 2.97513,0.399 4.7918,0.077 7.57133,-0.887 2.37245,-4.164 2.38765,-4.3899 0.99512,-8.999 -2.74432,-9.0988 -12.48891,-19.8622 -17.69524,-28.0572 -20.7492,-32.6683 -37.45115,-75.063 -24.01192,-113.5049 l 4.1102,-3.0935 c 7.34518,2.2911 12.50381,8.4921 15.943,15.186 10.13296,19.7149 3.10901,52.1452 23.03842,65.3947 5.31763,0.513 5.58412,0.6763 10.44841,-2.2498 9.48432,-23.2493 4.75658,-103.2938 -5.14847,-126.7873 -6.59061,-15.6297 -18.30448,-26.8931 -26.5429,-41.3177 -23.58307,-41.2923 -11.95474,-91.9029 4.30484,-133.3201 24.79105,-63.1544 64.38575,-119.0897 82.78695,-185.1512 8.75797,-31.439 8.08245,-64.1952 9.84273,-96.3502 z" /><path
         id="path4"
         style="fill:none;stroke:#e4e4e4;stroke-width:4.92838;stroke-dasharray:none;stroke-opacity:1"
         d="m 1367.9437,2217.5696 -214.571,3.418 c -0.9625,8.7853 -1.7138,17.6223 -2.6823,26.3267 -4.688,42.1282 -9.602,85.669 -5.3865,128.0417 7.9614,79.9398 46.472,153.0551 62.6039,231.7471 6.4252,31.3248 12.1183,62.9082 13.1742,94.9659 0.8658,26.2491 -1.3586,53.283 1.0383,79.369 1.7047,18.5669 7.1492,36.5371 10.059,54.8596 2.5489,16.0425 -3.0885,34.963 -6.468,50.8145 -6.9354,32.4922 -14.9955,66.6134 -15.9863,99.9198 -0.3258,10.9663 -0.9165,22.4621 1.8388,33.184 2.1309,8.2792 5.9483,16.1967 12.4169,21.9784 5.475,4.9133 12.4871,7.5488 19.5773,9.1506 17.9045,4.0445 38.7567,3.1191 57.1526,3.4179 26.7996,0.4072 55.0388,1.768 81.6835,-0.9735 8.3036,-0.8414 19.3231,-4.5126 24.9854,-10.9459 6.235,-7.0846 5.8773,-19.2838 4.8242,-28.1871 -4.1097,-34.6085 -23.6911,-61.1216 -39.6954,-90.7907 -19.3377,-35.8852 -38.9104,-81.3978 -41.9234,-122.1148 -1.9978,-27.0087 -0.1835,-55.2642 0.8653,-82.3541 2.5679,-66.4502 8.0976,-136.3821 24.5742,-200.9862 11.8106,-46.2815 32.7761,-93.5604 36.1693,-141.3888 3.8469,-54.1954 -6.8284,-108.0944 -24.25,-159.4521 z" /><path
         id="path7"
         style="fill:none;stroke:#e4e4e4;stroke-width:4.92838;stroke-dasharray:none;stroke-opacity:1"
         d="m 819.17479,2225.1193 -214.24665,-9.172 c -14.89242,49.0938 -25.64544,101.5618 -22.08662,151.1018 3.70512,51.656 20.98487,102.0472 32.5783,152.2918 16.3219,70.7376 24.02018,140.3593 27.49469,212.754 1.12378,23.4528 3.29921,47.9882 1.81711,71.3867 -1.00435,15.8797 -5.10683,31.8792 -11.0325,46.6175 -11.8756,29.5606 -27.74969,58.9366 -41.66384,87.6541 -13.20856,27.2803 -29.02796,49.0379 -31.12896,80.797 -0.41803,6.3518 -0.92373,14.3408 1.62242,20.3127 2.9072,6.8403 9.07612,9.0019 15.76998,11.1192 25.64335,8.0619 141.11373,9.1642 162.8482,-2.942 10.95554,-6.1075 16.93987,-17.1905 20.00991,-28.9442 10.0787,-38.5168 -3.91943,-91.0826 -12.02757,-129.2747 -3.25458,-15.3098 -7.99339,-31.6417 -7.22522,-47.4399 1.07499,-22.0412 9.38712,-44.0609 11.14064,-66.5625 1.96528,-25.2445 -0.29073,-51.0743 0.77882,-76.4272 1.94087,-45.9817 10.63568,-92.1949 21.76207,-136.738 15.10057,-60.4509 42.37355,-118.166 49.81932,-180.3272 6.16096,-51.4706 -1.7232,-104.7423 -6.2301,-156.2071 z" /><path
         id="path8"
         style="fill:none;stroke:#e4e4e4;stroke-width:4.92838;stroke-dasharray:none;stroke-opacity:1"
         d="m 1347.5012,1560.6389 -721.76276,-22.1297 c -2.62451,11.9074 -5.43243,23.8161 -7.52804,35.715 -8.13525,46.2052 -10.53055,92.7477 -11.68148,139.5718 -1.0315,41.9926 -1.12449,85.1304 2.29302,127.0035 l 17.04629,134.0987 c 7.09014,42.8316 19.13192,85.2981 16.09446,129.2099 -1.57712,22.7931 -13.96427,43.9968 -21.56745,65.2647 -5.36756,15.0165 -10.6289,30.6249 -15.4671,46.5745 l 214.24665,9.172 c -0.0899,-1.0266 -0.19414,-2.0897 -0.28121,-3.1148 -1.89997,-22.3401 -4.71864,-45.4531 -1.88204,-67.8608 3.2248,-25.4619 12.21202,-51.6381 20.50743,-75.843 l 32.38366,-94.8793 58.64524,-223.1592 c 15.05968,-70.2062 27.64285,-138.0795 30.60967,-209.9851 l 51.70126,0.2163 2.6175,38.2461 c 13.9469,132.9588 48.2425,266.9413 87.849,394.4223 16.5337,53.2145 41.377,105.1556 52.0474,159.9279 5.0138,25.7295 2.8496,51.8896 0,77.8979 l 214.571,-3.418 c -5.4922,-16.1907 -11.5815,-32.1566 -18.1926,-47.7641 l -16.2892,-37.8132 c -2.6437,-6.1458 -6.7571,-13.6818 -7.528,-20.2262 -2.1553,-18.32 1.3242,-38.804 4.3697,-56.8499 l 22.7789,-109.2432 c 23.7574,-129.4923 20.08,-258.403 -5.5813,-385.0341 z" /><path
         id="path9"
         style="fill:none;stroke:#e4e4e4;stroke-width:4.92838;stroke-dasharray:none;stroke-opacity:1"
         d="m 1248.6849,1230.6595 -514.67662,-9.2587 c -0.52993,3.5388 -1.07338,6.7316 -1.68734,8.7394 -3.08908,10.1111 -9.75091,20.2019 -13.93122,30.1339 l -36.19088,91.1154 c -21.98289,60.409 -42.48181,123.6985 -56.4604,187.1197 l 721.76276,22.1297 c -9.308,-45.9328 -21.3254,-91.5768 -36.2341,-136.8244 -20.0352,-60.8034 -44.649,-120.4349 -60.2026,-182.6418 -0.8806,-3.5209 -1.5873,-7.0079 -2.3796,-10.5132 z" /><path
         id="path10"
         style="fill:none;stroke:#e4e4e4;stroke-width:4.92838;stroke-dasharray:none;stroke-opacity:1"
         d="M 1257.3377,925.92472 711.33759,915.73583 c 1.47384,2.87724 2.9456,5.75306 4.56444,8.43664 23.36956,79.60463 27.67903,92.12033 24.72575,176.39013 -0.60995,17.3558 -2.2592,91.7213 -6.6195,120.8382 l 514.67662,9.2587 c -12.3155,-54.48 -14.3262,-107.303 -11.7248,-163.5406 2.6927,-58.1976 7.4089,-53.1511 17.3491,-124.47245 1.0296,-6.14615 2.0213,-11.59991 3.0285,-16.72173 z" /><path
         id="path11"
         style="fill:none;stroke:#e4e4e4;stroke-width:4.92838;stroke-dasharray:none;stroke-opacity:1"
         d="M 1344.7973,588.37377 641.40023,578.6824 635.7542,746.65753 c 0.47161,-0.90397 1.3797,-2.19974 1.81713,-3.07179 9.35654,18.59106 20.7619,69.01649 33.37869,85.66403 17.94505,23.67366 26.28684,58.95907 40.38757,86.48606 l 546.00011,10.18889 c 7.6867,-39.086 16.1677,-52.35405 47.4614,-99.03291 33.6438,-50.18447 42.6699,-83.30863 46.8772,-86.9186 0.1354,0.37452 0.2961,0.72904 0.4327,1.10324 z" /><path
         id="path12"
         style="fill:none;stroke:#e4e4e4;stroke-width:4.92838;stroke-dasharray:none;stroke-opacity:1"
         d="m 872.412,230.29379 c -0.0128,0.032 -0.008,0.31754 -0.0216,0.34611 -52.75493,41.3733 -113.86501,62.69772 -171.63089,95.39853 -11.9219,6.74811 -23.21456,14.40659 -34.39542,22.3029 -5.12065,3.61629 -11.90999,9.79453 -17.63034,12.24396 l -7.33339,218.09711 703.39704,9.69137 -10.6432,-222.68331 c -1.285,-0.23439 -3.3679,-0.11924 -4.2832,-0.49752 -4.7231,-1.95439 -10.3774,-6.8843 -14.7532,-9.75619 -11.528,-7.56517 -22.9436,-15.40339 -34.9795,-22.15149 l -81.0779,-42.61571 c -35.0352,-17.43739 -69.503,-33.98147 -99.617,-59.44562 l 0.022,-0.93014 z" /><path
         id="path1"
         style="fill:none;stroke:#e4e4e4;stroke-width:4.92838;stroke-dasharray:none;stroke-opacity:1"
         d="m 989.04264,-236.72672 c -5.76543,-0.26073 -11.75138,-0.5377 -17.50055,0.0432 -39.41933,4.7693 -75.55235,19.792 -100.54703,51.91758 -30.68423,39.43557 -33.97545,114.65182 -27.86251,163.17271 -3.66175,3.65094 -4.82108,1.75785 -8.39328,3.80731 -5.47241,3.1379 -7.60646,11.73492 -7.63623,17.52215004 -0.0624,12.18521996 3.11973,23.70678996 5.42967,35.56357996 4.02827,20.68685 6.73266,48.69327 23.06011,63.79376 2.57603,2.38061 5.74201,4.22624 8.91246,5.68928 2.00041,12.27245 5.88463,117.84435 2.55267,125.51084 h 227.05295 l 2.6176,-81.01309 c 0.2227,-12.1689 -2.2145,-33.37136 1.9902,-44.45446 l 1.6007,-1.40614 c 19.3133,-17.25302 23.1596,-39.11889 28.2735,-63.20964 2.5027,-11.78349 5.4467,-23.87644 5.9273,-35.9313 0.2795,-6.94905 0.7397,-13.5375 -3.18,-19.62059 -3.0429,-2.27193 -6.2418,-4.42391 -8.8477,-7.20353 3.0864,-55.07901 4.1833,-124.21274 -34.59,-167.95345 -24.6066,-27.75802 -62.0056,-44.57249 -98.85986,-46.22831 z" /><path
         id="path6"
         style="fill:none;stroke:#000000;stroke-width:4.92838;stroke-dasharray:none;stroke-opacity:1"
         d="m 648.73361,360.58529 c -0.10181,0.0432 -0.22342,0.15349 -0.32448,0.19462 -6.53371,2.66023 -20.85148,0.68142 -28.46815,1.38453 -10.3991,0.95815 -20.82864,3.17415 -30.84773,6.07869 -61.12927,17.71437 -111.99197,63.10153 -135.61307,122.37407 -9.25089,23.2139 -13.8249,48.9944 -16.87324,73.72304 l -3.69912,43.78384 c -0.30672,4.01738 0.1865,12.58463 -1.21141,16.09441 -4.00381,10.04341 -16.94941,22.7985 -23.16824,32.5134 -18.44731,28.81387 -33.81483,59.84343 -44.90874,92.21871 -9.6933,28.28987 -15.78967,57.51828 -20.52904,87.00518 -3.50714,21.83234 -5.83821,45.08698 -12.13577,66.30313 -3.66454,12.34527 -15.7823,24.46911 -22.4327,35.6933 -5.42823,9.15911 -10.22546,18.54031 -14.64513,28.07875 l 172.27993,68.50984 c 1.40247,-25.6192 4.31574,-50.86622 15.03445,-74.69664 11.48488,-25.53481 37.41548,-46.14739 54.44858,-68.661 26.08243,-34.47314 79.25632,-104.54621 100.11445,-144.52563 z" /></g><g
       id="move"
       transform="matrix(0.04824098,0,0,0.05181757,-1.4019299,-15.262765)"
       inkscape:label="move"><text
         xml:space="preserve"
         style="font-style:normal;font-variant:normal;font-weight:normal;font-stretch:normal;font-size:148.144px;font-family:Amiri;-inkscape-font-specification:'Amiri, Normal';font-variant-ligatures:normal;font-variant-caps:normal;font-variant-numeric:normal;font-variant-east-asian:normal;fill:#000000;fill-opacity:1;stroke:#000000;stroke-width:0.269288;stroke-dasharray:none;stroke-opacity:1;paint-order:markers fill stroke"
         x="513.04822"
         y="778.5697"
         id="text1-9"><tspan
           sodipodi:role="line"
           id="tspan1"
           x="513.04822"
           y="778.5697">Speed:-1*</tspan></text><path
         fill="#fefefe"
         d="m 423.87315,743.60565 0.21512,0.052 c 1.71719,3.76403 3.49119,3.70519 5.98388,7.35145 -7.82361,-0.10797 -11.69949,-1.08864 -18.76246,-4.29382 -1.34963,-0.0879 -4.75661,-3.11408 -5.45151,-3.66689 -1.44497,-1.14935 -2.73119,-2.33754 -3.98746,-3.59097 2.82341,0.88799 5.73821,1.52855 8.60636,2.10838 4.47579,0.90536 8.94267,1.61647 13.39636,2.03887 z"
         id="path2-5"
         style="stroke:#000000;stroke-width:2.32259;stroke-dasharray:none;stroke-opacity:1"
         sodipodi:nodetypes="ccccccccc" /><path
         fill="#fefefe"
         d="m 420.73098,732.74924 c 0.16605,0.0376 0.32327,0.0615 0.4746,0.14245 0.19084,1.49259 0.48354,2.93964 1.01378,4.35123 l 0.69132,1.64881 c 0.11304,0.25498 0.3131,0.59092 0.35053,0.86427 -3.38586,1.31875 -5.88595,0.53798 -8.86795,-0.96306 -4.84177,-2.84555 -9.02471,-7.42607 -10.99427,-12.72672 3.75169,2.83784 8.23961,4.29963 12.72721,5.52821 z"
         id="path3-4"
         style="stroke:#000000;stroke-width:2.32259;stroke-dasharray:none;stroke-opacity:1"
         sodipodi:nodetypes="ccccccccc" /><path
         fill="#fefefe"
         d="m 419.63719,727.11092 c -0.99006,-0.26054 -2.01274,-0.4366 -2.97937,-0.7825 -0.85278,-0.30505 -1.72241,-0.79395 -2.50264,-1.25578 -2.16532,-1.2816 -4.13288,-2.88937 -5.79407,-4.78297 -4.41276,-5.02993 -6.03531,-11.58112 -5.60542,-18.1506 1.44243,3.24637 3.5683,6.08982 6.39823,8.27104 l 1.57984,1.10672 c 0.28142,0.18129 0.70379,0.34916 0.93296,0.58562 0.21062,0.21732 0.3861,0.48811 0.57442,0.72644 l 1.38168,1.69296 c 2.2089,2.46776 4.80215,4.73075 7.62498,6.46811 l 0.12898,0.13734 c -0.62085,1.97648 -1.04172,4.00744 -1.0594,6.08448 z"
         id="path6-5"
         style="stroke:#000000;stroke-width:2.32259;stroke-dasharray:none;stroke-opacity:1" /><path
         fill="#fefefe"
         d="m 422.50359,716.14959 c -6.06305,-3.90641 -11.27396,-9.80969 -14.03576,-16.50113 -0.43606,-1.05665 -0.75161,-2.15168 -1.06003,-3.25081 -2.00973,-7.16318 -1.47637,-15.1216 1.38236,-21.98689 0.2891,0.72521 0.42082,1.57216 0.62475,2.33043 0.35788,1.33073 0.7986,2.60686 1.35738,3.86748 0.47228,1.06564 0.9832,2.14161 1.58175,3.1412 l 0.90316,1.40505 c 0.18746,0.2736 0.50729,0.62227 0.60871,0.93662 0.21288,0.6592 0.26249,1.40777 0.42808,2.08389 0.33393,1.36262 0.78211,2.71126 1.23813,4.03775 0.45987,1.33772 1.06344,2.61477 1.67154,3.88916 l 1.49177,2.99798 c 1.87192,3.37951 4.15198,6.55044 6.51068,9.6034 l 0.23463,0.30861 c -0.0517,0.33478 -0.27329,0.71011 -0.41015,1.02434 l -0.66812,1.64046 -1.60838,4.55102 z"
         id="path8-9"
         style="stroke:#000000;stroke-width:2.32259;stroke-dasharray:none;stroke-opacity:1" /><path
         fill="#fefefe"
         d="m 427.82911,704.30477 c -1.48769,-2.03108 -2.99773,-4.05116 -4.324,-6.19379 -0.96557,-1.5597 -1.79369,-3.1602 -2.59468,-4.80719 -1.11105,-2.2848 -2.10439,-4.7802 -2.55777,-7.29184 -0.24624,-1.36401 -0.45268,-2.72558 -0.51351,-4.11224 -0.24301,-5.54139 1.1937,-11.18988 3.82779,-16.05429 0.72352,-1.33628 1.55305,-2.58504 2.42036,-3.83035 0.042,0.0418 0.0238,0.31948 0.0245,0.39377 0.0211,2.54183 0.12403,5.04409 0.42467,7.56995 0.69681,5.85525 2.16034,11.48155 3.87478,17.11022 l 3.27489,9.76808 c -0.12526,0.3865 -0.4152,0.75921 -0.61716,1.11385 l -0.73083,1.39548 -2.32068,4.9936 -0.078,0.039 z"
         id="path9-5"
         style="stroke:#000000;stroke-width:2.32259;stroke-dasharray:none;stroke-opacity:1" /><path
         fill="#0f0f0f"
         d="m 432.78711,753.3154 c 6.28761,7.956 12.85273,15.64753 20.25674,22.5946 5.03214,4.72143 10.49456,9.17358 16.60299,12.43754 7.93511,4.24005 17.11673,6.68524 26.01566,7.74271 2.47919,0.29452 4.96743,0.37534 7.45739,0.50978 2.29621,0.12402 4.63384,0.35136 6.93082,0.15841 -0.31138,0.39113 -0.97692,0.55687 -1.44822,0.75118 -3.40429,1.40427 -7.02194,2.24905 -10.67808,2.66433 -10.79379,1.22587 -22.09365,-1.38775 -31.6759,-6.36425 -4.33537,-2.25144 -8.33793,-4.99995 -12.15002,-8.04259 -5.94588,-4.74606 -11.37367,-10.20987 -16.25291,-16.04008 l -4.06298,-5.01213 -9.08906,8.41029 -21.3164,-10.37972 2.49671,-15.7079 c 0.38126,0.21008 0.7698,0.4604 1.18359,0.59783 2.32478,1.18832 4.66524,2.35494 7.11431,3.26873 5.93832,2.21617 7.44568,2.96323 13.74108,2.45884 z"
         id="path10-6"
         style="fill:none;fill-opacity:1;stroke:#000000;stroke-width:2.32259;stroke-dasharray:none;stroke-opacity:1"
         sodipodi:nodetypes="ccccccccccccccccccc" /><path
         fill="#dc9308"
         d="m 463.02874,689.96939 0.14384,0.035 c 0.49063,0.11195 1.1488,0.0313 1.65643,0.0217 l 3.58408,-0.053 c 2.39392,-0.0242 4.86943,0.10962 7.24971,-0.0434 -6.31985,10.20788 -9.878,22.14022 -9.54579,34.17661 0.11685,4.25601 0.74673,8.39684 1.7215,12.53376 3.77093,16.00471 11.61851,30.25771 21.33565,40.94937 12.10107,12.64047 8.48263,7.78003 20.17454,16.94792 -17.32365,-3.71452 -21.55024,-4.23093 -26.35187,-6.3316 -9.89964,-6.18762 -14.97824,-6.89097 -26.89975,-18.41407 -12.79352,-12.36596 -18.29357,-15.79526 -23.00912,-27.19435 l -3.2569,-19.42517 c -2.88158,-22.76633 4.41888,-31.58046 4.03571,-32.91484 l 21.28156,-0.26223 5.32127,0.0602 c 0.85201,-0.008 1.71303,0.0204 2.55906,-0.0844 z"
         id="path11-6"
         style="fill:none;stroke:#000000;stroke-width:2.32259;stroke-dasharray:none;stroke-opacity:1"
         sodipodi:nodetypes="cccccsccccsccccccc" /><path
         id="path2-9"
         inkscape:transform-center-x="-0.01494134"
         inkscape:transform-center-y="-3.7500871"
         d="m 427.40161,748.51285 c 20.36512,-7.37419 13.98417,-9.56844 21.66325,-57.74338 8.14056,47.72615 2.64335,50.64631 21.89168,57.54181 z"
         sodipodi:nodetypes="cccc"
         style="stroke-width:10.6897" /><path
         id="path2-0"
         inkscape:transform-center-x="-0.0034207367"
         inkscape:transform-center-y="-1.3106034"
         d="m 444.38529,757.43968 c 4.11726,-2.61102 3.85157,-6.32045 4.96018,-20.18053 1.20756,13.97013 0.83807,17.62212 5.01247,20.11007 z"
         sodipodi:nodetypes="cccc"
         style="stroke-width:3.02394" /></g></g></svg>
