<?xml version="1.0" encoding="UTF-8" standalone="no"?>
<!-- Created with Inkscape (http://www.inkscape.org/) -->

<svg
   width="63mm"
   height="88mm"
   viewBox="0 0 63 88"
   version="1.1"
   id="svg1"
   inkscape:version="1.3.2 (091e20e, 2023-11-25, custom)"
   xml:space="preserve"
   sodipodi:docname="card-disorder-nerve-head.svg"
   xmlns:inkscape="http://www.inkscape.org/namespaces/inkscape"
   xmlns:sodipodi="http://sodipodi.sourceforge.net/DTD/sodipodi-0.dtd"
   xmlns="http://www.w3.org/2000/svg"
   xmlns:svg="http://www.w3.org/2000/svg"><sodipodi:namedview
     id="namedview1"
     pagecolor="#ffffff"
     bordercolor="#000000"
     borderopacity="0.25"
     inkscape:showpageshadow="2"
     inkscape:pageopacity="0.0"
     inkscape:pagecheckerboard="0"
     inkscape:deskcolor="#d1d1d1"
     inkscape:document-units="mm"
     inkscape:zoom="1.0343421"
     inkscape:cx="89.428826"
     inkscape:cy="286.65564"
     inkscape:window-width="1350"
     inkscape:window-height="1017"
     inkscape:window-x="228"
     inkscape:window-y="0"
     inkscape:window-maximized="0"
     inkscape:current-layer="layer1" /><defs
     id="defs1" /><g
     inkscape:label="Layer 1"
     inkscape:groupmode="layer"
     id="layer1"><g
       id="hitlocation"
       transform="matrix(0.06087197,0,0,0.06087197,0.03359486,0.54402301)"
       style="stroke-width:4.92837673;stroke-dasharray:none"><path
         id="path2"
         style="fill:none;stroke:#e5e5e5;stroke-width:4.92837673;stroke-dasharray:none;stroke-opacity:1"
         d="m 1201.2411,1630.7458 -159.9305,67.7788 4.0049,46.291 c 3.1041,24.9043 8.3232,50.2373 14.2317,74.6255 6.5705,27.1198 16.8469,54.5124 28.313,79.9867 25.2527,56.1171 80.4053,145.1297 63.8601,208.5684 -0.5051,1.9398 -1.0467,3.7931 -1.8301,5.641 -7.6998,18.1825 -24.462,32.5571 -33.4588,50.1451 -7.0299,13.7355 -8.2953,29.5659 -10.2485,44.6332 l -6.524,59.7693 c -0.7184,10.0261 -3.0826,21.0734 -0.6889,30.8967 l 4.5215,4.4998 c 7.8052,-1.4966 15.8621,-6.8045 20.971,-12.8968 3.269,-22.1863 4.994,-59.3536 24.2435,-73.6997 2.9638,-2.2073 3.2049,-2.0356 6.8253,-1.7655 10.3583,20.4006 10.8595,45.6092 3.854,66.8959 -4.5875,13.9381 -12.2994,30.6297 -20.7342,42.717 -7.5323,10.7933 -25.8339,24.5388 -29.3894,36.6884 -0.5984,2.0424 -0.037,6.2353 -0.042,8.5047 4.0174,4.7766 4.3665,5.4792 10.3562,6.9544 41.228,-12.101 95.4371,-41.6991 116.6751,-79.7499 6.1923,-11.0985 9.7575,-24.3894 11.519,-36.9252 l 0.409,-2.7129 c 2.0047,-14.6 -0.9583,-31.3626 -2.2605,-46.0113 -1.9129,-21.4891 -3.0522,-42.6422 -2.3255,-64.2262 l 8.6771,-108.3856 c 9.6504,-110.2402 17.8922,-223.0304 -16.5788,-330.0232 -8.6265,-26.7718 -20.2344,-53.5684 -34.4491,-78.1996 z" /><path
         id="path5"
         style="fill:none;stroke:#e5e5e5;stroke-width:4.92837673;stroke-dasharray:none;stroke-opacity:1"
         d="m 875.20102,1051.9994 17.87053,373.623 c 22.97795,62.965 62.63197,115.2789 89.65397,154.8922 l 35.07358,49.5636 c 6.1329,8.3564 15.6139,18.5685 19.4422,28.1837 3.0288,7.6027 2.3581,19.0261 2.9498,27.1934 l 1.1195,13.0693 159.9305,-67.7788 c -2.4355,-4.2201 -4.7872,-8.524 -7.3851,-12.5956 l -18.4733,-27.1933 c -2.2208,-3.1448 -6.7989,-7.9618 -8.0526,-11.2606 -1.0753,-2.8313 -0.5295,-9.663 -0.7104,-12.8753 l -2.4331,-35.3965 c -3.8337,-36.0246 -10.8005,-72.3716 -23.4038,-106.4265 -10.7231,-28.9649 -24.1067,-57.8581 -39.5305,-84.6374 -6.5517,-11.3715 -16.343,-22.7212 -21.6599,-34.4277 -1.6778,-3.6905 -1.5072,-7.7385 -1.5072,-11.6911 0,-68.0316 -19.5159,-140.7924 -69.1352,-189.8797 -28.03015,-27.7248 -67.75888,-47.7242 -107.33075,-50.8986 -6.46637,-0.521 -18.75565,-0.066 -26.41823,-1.4641 z" /><path
         id="path3"
         style="fill:none;stroke:#e5e5e5;stroke-width:4.92837673;stroke-dasharray:none;stroke-opacity:1"
         d="m 11.280081,1717.7085 -171.470821,-68.188 c -5.96412,12.8719 -11.14632,26.0733 -15.41604,39.7889 -13.87046,44.5564 -19.69797,91.7316 -23.18859,138.1197 -5.88702,78.2708 -3.08247,155.8144 2.75594,233.9744 l 7.53575,78.0705 c 1.89382,31.3317 -5.20934,61.0962 -5.49033,92.001 -0.27556,30.2373 9.39865,61.1534 28.22679,84.8527 20.17365,25.3931 59.14093,53.0565 91.807071,57.4225 2.96111,0.397 4.76924,0.077 7.53578,-0.8829 2.36129,-4.1445 2.37639,-4.3693 0.99041,-8.9568 -2.73142,-9.056 -12.43025,-19.7688 -17.61215,-27.9253 -20.651751,-32.515 -37.275261,-74.7105 -23.899121,-112.9719 l 4.09085,-3.0788 c 7.310741,2.2803 12.445101,8.4521 15.868161,15.1146 10.08538,19.6223 3.09439,51.9003 22.93023,65.0875 5.29263,0.5105 5.55786,0.6731 10.39934,-2.2392 9.43977,-23.1402 4.73422,-102.8087 -5.12432,-126.1918 -6.55963,-15.5563 -18.21853,-26.7668 -26.41822,-41.1237 -23.472341,-41.0983 -11.89862,-91.4713 4.28463,-132.694 24.67461,-62.8577 64.08336,-118.5303 82.3981304,-184.2816 8.7168396,-31.2914 8.0445,-63.8937 9.7965096,-95.8978 z" /><path
         id="path6"
         style="fill:none;stroke:#e5e5e5;stroke-width:4.92837673;stroke-dasharray:none;stroke-opacity:1"
         d="m 192.99953,1046.9182 c -0.10133,0.043 -0.22238,0.1527 -0.32297,0.1937 -6.50302,2.6477 -20.75354,0.6782 -28.33444,1.378 -10.35026,0.9537 -20.73083,3.1592 -30.70285,6.0501 -60.842189,17.6312 -111.466029,62.8052 -134.9761986,121.7994 -9.2074404,23.1049 -13.7599604,48.7643 -16.7940004,73.3768 l -3.68175,43.5783 c -0.30528,3.9985 0.18564,12.5255 -1.20571,16.0188 -3.98501,9.9962 -16.86981,22.6914 -23.05944,32.3607 -18.3607,28.6785 -33.65602,59.5624 -44.69782,91.7856 -9.647811,28.157 -15.715491,57.2482 -20.432671,86.5966 -3.49064,21.7298 -5.81077,44.8752 -12.07874,65.9917 -3.64732,12.2873 -15.7082,24.3542 -22.32738,35.5257 -5.4027,9.1161 -10.17742,18.4532 -14.5763,27.9469 l 171.470821,68.188 c 1.39588,-25.4988 4.29547,-50.6272 14.96384,-74.3458 11.43095,-25.4149 37.23977,-45.9306 54.19287,-68.3385 25.959949,-34.3113 78.884109,-104.0552 99.644289,-143.8469 z" /><path
         id="path4"
         style="fill:none;stroke:#e5e5e5;stroke-width:4.92837673;stroke-dasharray:none;stroke-opacity:1"
         d="m 908.83196,2895.1814 -213.56328,3.4021 c -0.95804,8.7439 -1.70587,17.5395 -2.66979,26.2029 -4.66591,41.9304 -9.5569,85.2668 -5.36117,127.4405 7.92406,79.5643 46.25374,152.3362 62.30992,230.6588 6.39494,31.1776 12.06133,62.6126 13.11223,94.5198 0.86182,26.1258 -1.35214,53.0328 1.03346,78.9963 1.69671,18.4796 7.11562,36.3654 10.01177,54.6019 2.53694,15.9672 -3.07401,34.7988 -6.43763,50.5758 -6.90279,32.3396 -14.92507,66.3005 -15.91122,99.4505 -0.32425,10.9148 -0.91215,22.3566 1.83012,33.0281 2.12093,8.2405 5.92047,16.1207 12.35867,21.8753 5.44933,4.8902 12.42843,7.5133 19.48527,9.1077 17.82042,4.0254 38.57476,3.1044 56.88424,3.4017 26.67377,0.4053 54.78028,1.7597 81.29987,-0.9688 8.26465,-0.8376 19.23238,-4.4915 24.8681,-10.8946 6.20578,-7.0513 5.84974,-19.1932 4.80155,-28.0547 -4.09035,-34.446 -23.57985,-60.8346 -39.50895,-90.3644 -19.24693,-35.7166 -38.72775,-81.0153 -41.72657,-121.5411 -1.98838,-26.882 -0.18256,-55.0047 0.86126,-81.9675 2.55581,-66.138 8.05955,-135.7416 24.45878,-200.0422 11.75521,-46.0642 32.62221,-93.1209 35.99946,-140.7248 3.82885,-53.9408 -6.7963,-107.5868 -24.13609,-158.7033 z" /><path
         id="path7"
         style="fill:none;stroke:#e5e5e5;stroke-width:4.92837673;stroke-dasharray:none;stroke-opacity:1"
         d="m 362.64024,2902.6957 -213.24046,-9.129 c -14.82248,48.8632 -25.52499,101.0849 -21.98289,150.3922 3.68773,51.4134 20.88632,101.568 32.4253,151.5767 16.24525,70.4053 23.90738,139.7 27.36557,211.7548 1.11851,23.3426 3.28372,47.7628 1.80858,71.0513 -0.99964,15.8052 -5.08284,31.7297 -10.98069,46.3987 -11.81983,29.4216 -27.61937,58.6597 -41.46818,87.2424 -13.14653,27.1522 -28.89163,48.8076 -30.98276,80.4175 -0.41606,6.3219 -0.9194,14.2734 1.61481,20.2173 2.89353,6.8081 9.03349,8.9596 15.69591,11.0669 25.52292,8.0241 140.45097,9.1212 162.08342,-2.9281 10.9041,-6.0789 16.86033,-17.1098 19.91596,-28.8083 10.03134,-38.3359 -3.90109,-90.6548 -11.97111,-128.6676 -3.23933,-15.2379 -7.95584,-31.493 -7.19127,-47.217 1.0699,-21.9377 9.34301,-43.854 11.08832,-66.2499 1.95603,-25.1259 -0.28936,-50.8345 0.77512,-76.0683 1.93173,-45.7658 10.58575,-91.7618 21.65991,-136.0957 15.02962,-60.1671 42.17455,-117.6112 49.58532,-179.4804 6.13203,-51.2289 -1.71509,-104.2504 -6.20086,-155.4735 z" /><path
         id="path8"
         style="fill:none;stroke:#e5e5e5;stroke-width:4.92837673;stroke-dasharray:none;stroke-opacity:1"
         d="m 888.48546,2241.336 -718.3731,-22.0258 c -2.61219,11.8514 -5.40692,23.7042 -7.49269,35.5472 -8.09705,45.9881 -10.4811,92.3121 -11.62662,138.9163 -1.02666,41.7953 -1.1192,84.7306 2.28225,126.407 l 16.96623,133.469 c 7.05685,42.6304 19.04209,84.8975 16.01888,128.603 -1.56971,22.6862 -13.89869,43.7903 -21.46616,64.9583 -5.34236,14.946 -10.57899,30.481 -15.39447,46.3557 l 213.24046,9.129 c -0.0895,-1.0217 -0.19322,-2.0799 -0.27989,-3.1002 -1.89105,-22.2351 -4.69646,-45.2396 -1.8732,-67.5421 3.20964,-25.3423 12.15473,-51.3957 20.41114,-75.4868 l 32.23156,-94.4337 58.36979,-222.1112 c 14.98895,-69.8766 27.51305,-137.4311 30.46599,-208.9989 l 51.45848,0.2153 2.60519,38.0664 c 13.88134,132.3344 48.01593,265.6876 87.43641,392.57 16.45594,52.9646 41.18259,104.6617 51.80297,159.1769 4.99015,25.6086 2.83617,51.6459 0,77.5321 l 213.56328,-3.4021 c -5.46646,-16.1146 -11.52717,-32.0056 -18.10714,-47.5397 l -16.21277,-37.6357 c -2.63124,-6.1168 -6.72533,-13.6175 -7.49268,-20.1311 -2.14514,-18.2341 1.31797,-38.6219 4.34921,-56.583 l 22.67191,-108.7302 c 23.6459,-128.8842 19.98577,-257.1895 -5.55503,-383.2257 z" /><path
         id="path9"
         style="fill:none;stroke:#e5e5e5;stroke-width:4.92837673;stroke-dasharray:none;stroke-opacity:1"
         d="M 790.13317,1912.9062 277.8737,1903.691 c -0.52745,3.5222 -1.06835,6.7001 -1.6794,8.6983 -3.07453,10.0637 -9.70515,20.1071 -13.8658,29.9924 l -36.02091,90.6875 c -21.87965,60.1253 -42.2823,123.1176 -56.19523,186.241 l 718.3731,22.0258 c -9.26426,-45.7171 -21.22531,-91.1468 -36.06396,-136.1819 -19.94118,-60.5179 -44.43939,-119.8693 -59.91994,-181.784 -0.87639,-3.5043 -1.57978,-6.975 -2.36839,-10.4639 z" /><path
         id="path10"
         style="fill:none;stroke:#e5e5e5;stroke-width:4.92837673;stroke-dasharray:none;stroke-opacity:1"
         d="m 798.74541,1609.6026 -543.43592,-10.1411 c 1.46693,2.8638 2.93179,5.7261 4.54301,8.3971 23.25983,79.2308 27.54909,91.6877 24.60962,175.5617 -0.60707,17.2743 -2.24861,91.2905 -6.58842,120.2707 l 512.25947,9.2152 c -12.25759,-54.224 -14.25888,-106.799 -11.66969,-162.7725 2.68006,-57.9243 7.37408,-52.9015 17.26765,-123.8879 1.0247,-6.1173 2.01172,-11.5454 3.01428,-16.6432 z" /><path
         id="path11"
         style="fill:none;stroke:#e5e5e5;stroke-width:4.92837673;stroke-dasharray:none;stroke-opacity:1"
         d="m 885.79416,1273.6369 -700.09357,-9.6459 -5.61951,167.1863 c 0.4694,-0.8997 1.37322,-2.1894 1.80859,-3.0574 9.3126,18.5038 20.66439,68.6924 33.22194,85.2618 17.86077,23.5624 26.16338,58.6821 40.19788,86.0798 l 543.43592,10.1411 c 7.65055,-38.9024 16.0917,-52.1082 47.23846,-98.5678 33.48576,-49.9488 42.46949,-82.9174 46.65709,-86.5104 0.13469,0.3727 0.29471,0.7256 0.43059,1.098 z" /><path
         id="path12"
         style="fill:none;stroke:#e5e5e5;stroke-width:4.92837673;stroke-dasharray:none;stroke-opacity:1"
         d="m 415.62744,917.2385 c -0.0127,0.0317 -0.008,0.31604 -0.0215,0.34449 -52.50723,41.17901 -113.33026,62.40332 -170.82488,94.95061 -11.86591,6.7164 -23.10554,14.3389 -34.23389,22.1981 -5.0966,3.5993 -11.85406,9.7485 -17.54755,12.1865 l -7.29894,217.0728 700.09365,9.6459 -10.59322,-221.6375 c -1.27902,-0.2333 -3.35207,-0.1187 -4.26303,-0.4952 -4.70094,-1.9452 -10.32878,-6.852 -14.68396,-9.7104 -11.47391,-7.5296 -22.83584,-15.331 -34.8152,-22.0474 L 740.74177,977.33078 C 705.87113,959.97521 671.56514,943.50883 641.59258,918.1643 l 0.0215,-0.9258 z" /><path
         id="path1"
         style="fill:none;stroke:#000000;stroke-width:4.92837673;stroke-dasharray:none;stroke-opacity:1"
         d="m 531.71031,452.4113 c -5.73831,-0.25948 -11.69613,-0.53512 -17.41835,0.0432 -39.23419,4.74691 -75.19754,19.69909 -100.0748,51.67377 -30.54015,39.25038 -33.81587,114.11341 -27.73162,162.40639 -3.64461,3.63384 -4.7985,1.74963 -8.35392,3.78941 -5.44666,3.12316 -7.57069,11.67984 -7.60036,17.4399 -0.0622,12.12796 3.10506,23.59547 5.40421,35.39656 4.00933,20.58969 6.70103,48.46455 22.95176,63.49413 2.56393,2.36942 5.71507,4.20637 8.87067,5.66257 1.99099,12.21483 5.85694,117.29092 2.54064,124.92139 h 225.98664 l 2.60519,-80.63263 c 0.22167,-12.11176 -2.20407,-33.2146 1.9809,-44.24567 l 1.59324,-1.39951 c 19.22259,-17.17205 23.05073,-38.93519 28.14068,-62.91282 2.49098,-11.72811 5.42115,-23.76429 5.89945,-35.76256 0.27821,-6.91637 0.7362,-13.47388 -3.16498,-19.5284 -3.02869,-2.2613 -6.21254,-4.40315 -8.80619,-7.16971 3.07194,-54.82034 4.16363,-123.62937 -34.42762,-167.16469 -24.49096,-27.62766 -61.71438,-44.36314 -98.39554,-46.01119 z" /></g><g
       id="mind"
       transform="matrix(0.05173302,0,0,0.05173302,-4.0292855,-11.374572)"
       inkscape:label="mind"><path
         fill="#8751D1"
         d="m 411.69208,747.05319 c -0.24812,-0.0337 -0.61135,0.0446 -0.86853,0.0689 l -1.88364,0.18649 c -3.72501,0.33108 -8.57419,0.88378 -11.91731,-1.09865 -2.31419,-1.37162 -3.71541,-3.91758 -3.77797,-6.58974 -0.0316,-1.35445 0.21513,-2.71607 0.33824,-4.0627 0.155,-1.69621 0.11689,-3.55812 -0.36243,-5.20298 -0.34838,-1.19595 -1.45608,-1.90027 -2.27878,-2.7777 -0.32433,-0.34581 -0.66149,-0.6965 -0.75798,-1.17919 -0.0843,-0.42203 0.004,-0.78231 0.23041,-1.14312 0.70459,-1.12593 2.04783,-1.75635 3.29176,-2.05337 -1.46785,-0.66041 -2.98109,-1.155 -3.73973,-2.6996 -0.0738,-0.9685 0.67715,-1.48648 1.22594,-2.20552 0.44256,-0.57988 0.90959,-1.29285 1.14594,-1.98636 0.30595,-0.89757 0.39325,-2.0065 -0.0624,-2.87055 -0.32352,-0.61365 -0.91203,-0.94972 -1.54743,-1.15905 -1.07176,-0.35298 -2.44501,-0.17271 -3.57501,-0.2446 -1.08391,-0.069 -2.38392,-0.43067 -3.12283,-1.2777 -1.58244,-1.81365 -0.5669,-3.34163 0.31594,-5.1823 l 4.40663,-9.12569 c 1.32702,-2.79188 2.80864,-5.68878 3.46581,-8.72446 0.23121,-1.06798 0.27838,-2.21095 0.16162,-3.29905 -0.15554,-1.45068 -0.55595,-2.89231 -0.77594,-4.33731 -0.50258,-3.30135 -0.63447,-6.64149 -0.43325,-9.97311 l 5.83284,-17.18719 c 3.39416,-6.96905 6.91022,-12.09437 11.932,-16.32738 9.62457,-8.97887 13.47758,-9.65632 15.94441,-10.766 10.19556,-3.45889 25.31639,-3.25762 29.84348,-1.68229 4.3097,1.27835 11.02166,3.75073 14.87564,7.31267 8.36058,7.72704 13.11125,14.18473 17.04402,28.18178 1.13234,11.82468 2.47464,18.22573 -8.91699,38.68708 -4.82517,4.50903 -3.58578,9.81468 -4.72292,21.93709 -2.70104,8.57625 1.50951,26.66266 -1.8586,27.09779 z"
         id="path2-3"
         style="fill:none;fill-opacity:1;stroke:#d15151;stroke-width:2.32259;stroke-dasharray:none;stroke-opacity:1"
         sodipodi:nodetypes="ccccccccccccscccccccscccccccsccccc" /><text
         xml:space="preserve"
         style="font-style:normal;font-variant:normal;font-weight:normal;font-stretch:normal;font-size:148.144px;font-family:Amiri;-inkscape-font-specification:'Amiri, Normal';font-variant-ligatures:normal;font-variant-caps:normal;font-variant-numeric:normal;font-variant-east-asian:normal;fill:#d15151;fill-opacity:1;stroke:none;stroke-width:0.269287;stroke-dasharray:none;stroke-opacity:1;paint-order:markers fill stroke"
         x="489.6109"
         y="732.83862"
         id="text1-3"><tspan
           sodipodi:role="line"
           id="tspan1-4"
           x="489.6109"
           y="732.83862">Mind: -1</tspan></text><path
         style="fill:#d80000;fill-opacity:1;stroke-width:3.49882"
         id="path1-3"
         sodipodi:type="arc"
         sodipodi:cx="441.53137"
         sodipodi:cy="667.83423"
         sodipodi:rx="37.176922"
         sodipodi:ry="39.043968"
         sodipodi:start="0.027304543"
         sodipodi:end="6.2831853"
         sodipodi:open="true"
         sodipodi:arc-type="arc"
         d="m 478.69444,668.90017 a 37.176922,39.043968 0 0 1 -37.92434,37.96984 37.176922,39.043968 0 0 1 -36.41219,-39.5688 37.176922,39.043968 0 0 1 37.42723,-38.51004 37.176922,39.043968 0 0 1 36.92315,39.04306" /><path
         style="fill:#ffffff;fill-opacity:1;stroke-width:3.34545"
         id="path1-93"
         sodipodi:type="arc"
         sodipodi:cx="441.50256"
         sodipodi:cy="667.05212"
         sodipodi:rx="35.50272"
         sodipodi:ry="37.379631"
         sodipodi:start="0.027304543"
         sodipodi:end="6.2831853"
         sodipodi:open="true"
         sodipodi:arc-type="arc"
         d="m 476.99205,668.07263 a 35.50272,37.379631 0 0 1 -36.21647,36.35129 35.50272,37.379631 0 0 1 -34.77243,-37.8821 35.50272,37.379631 0 0 1 35.74176,-36.86846 35.50272,37.379631 0 0 1 35.26037,37.37876" /><rect
         style="fill:#cc0400;fill-opacity:1;stroke-width:4.1036"
         id="rect1-6"
         width="43.670288"
         height="44.625092"
         x="787.51117"
         y="-45.42012"
         transform="matrix(0.5298425,0.84809606,-0.5441132,0.83901181,0,0)" /><path
         id="path3-2"
         style="fill:#ffffff;stroke-width:4.17674"
         d="m 465.39785,667.3739 -23.72874,2.71407 -23.72873,-2.71407 23.72873,-0.5428 z"
         sodipodi:nodetypes="ccccc" /><path
         id="path4-6"
         style="fill:#ffffff;stroke-width:2.36508"
         inkscape:transform-center-x="-0.00029899198"
         inkscape:transform-center-y="-0.42374246"
         d="m 440.73859,667.76163 0.9542,-40.11665 0.98143,39.74202 z" /></g></g></svg>
