<?xml version="1.0" encoding="UTF-8" standalone="no"?>
<!-- Created with Inkscape (http://www.inkscape.org/) -->

<svg
   width="63mm"
   height="88mm"
   viewBox="0 0 63 88"
   version="1.1"
   id="svg1"
   inkscape:version="1.4 (86a8ad7, 2024-10-11)"
   xml:space="preserve"
   sodipodi:docname="card-restrain-chest.svg"
   xmlns:inkscape="http://www.inkscape.org/namespaces/inkscape"
   xmlns:sodipodi="http://sodipodi.sourceforge.net/DTD/sodipodi-0.dtd"
   xmlns="http://www.w3.org/2000/svg"
   xmlns:svg="http://www.w3.org/2000/svg"><sodipodi:namedview
     id="namedview1"
     pagecolor="#ffffff"
     bordercolor="#000000"
     borderopacity="0.25"
     inkscape:showpageshadow="2"
     inkscape:pageopacity="0.0"
     inkscape:pagecheckerboard="0"
     inkscape:deskcolor="#d1d1d1"
     inkscape:document-units="mm"
     inkscape:zoom="2.0686842"
     inkscape:cx="134.14324"
     inkscape:cy="87.736931"
     inkscape:window-width="1350"
     inkscape:window-height="1017"
     inkscape:window-x="228"
     inkscape:window-y="0"
     inkscape:window-maximized="0"
     inkscape:current-layer="layer1" /><defs
     id="defs1" /><g
     inkscape:label="Layer 1"
     inkscape:groupmode="layer"
     id="layer1"><g
       id="g1"
       transform="matrix(0.06087197,0,0,0.06087197,0.03359486,0.54402301)"><path
         id="path2"
         style="fill:none;stroke:#e6e6e6;stroke-width:4.92837673;stroke-dasharray:none;stroke-opacity:1"
         d="m 1191.6331,880.39539 -160.7477,68.12512 4.0253,46.52756 c 3.12,25.03163 8.3658,50.49393 14.3045,75.00693 6.604,27.2583 16.933,54.7908 28.4576,80.3953 25.3818,56.4039 80.8162,145.8713 64.1865,209.6341 -0.5077,1.9497 -1.0521,3.8125 -1.8395,5.6698 -7.7391,18.2755 -24.587,32.7235 -33.6298,50.4014 -7.0658,13.8057 -8.3376,29.717 -10.3009,44.8613 l -6.5573,60.0747 c -0.7221,10.0773 -3.0983,21.1811 -0.6924,31.0546 l 4.5446,4.5227 c 7.8451,-1.5042 15.9431,-6.8392 21.0781,-12.9626 3.2857,-22.2997 5.0196,-59.657 24.3675,-74.0764 2.9789,-2.2185 3.2212,-2.046 6.8601,-1.7744 10.4112,20.5048 10.915,45.8422 3.8737,67.2377 -4.611,14.0093 -12.3622,30.7861 -20.8401,42.9353 -7.5708,10.8484 -25.9659,24.6641 -29.5396,36.8759 -0.6014,2.0528 -0.038,6.2671 -0.042,8.5481 4.038,4.801 4.3888,5.5072 10.4091,6.9899 41.4387,-12.1628 95.9247,-41.9122 117.2713,-80.1574 6.2239,-11.1552 9.8073,-24.514 11.5778,-37.1139 l 0.4111,-2.7267 c 2.015,-14.6746 -0.9633,-31.5229 -2.2721,-46.2464 -1.9227,-21.5989 -3.0677,-42.8601 -2.3373,-64.5544 l 8.7214,-108.9395 c 9.6997,-110.8035 17.9836,-224.17 -16.6635,-331.70949 -8.6706,-26.90862 -20.3379,-53.84213 -34.6252,-78.59922 z" /><path
         id="path5"
         style="fill:none;stroke:#e6e6e6;stroke-width:4.92837673;stroke-dasharray:none;stroke-opacity:1"
         d="m 863.927,298.69169 17.96184,375.5322 c 23.09538,63.2867 62.95202,115.86794 90.1121,155.68359 l 35.25276,49.81696 c 6.1643,8.3991 15.6937,18.66338 19.5416,28.3277 3.0442,7.64153 2.3701,19.12331 2.9649,27.33236 l 1.1252,13.13601 160.7477,-68.12512 c -2.448,-4.24166 -4.8116,-8.56754 -7.4229,-12.6599 l -18.5677,-27.33228 c -2.2321,-3.1609 -6.8335,-8.00251 -8.0937,-11.31815 -1.0808,-2.84579 -0.5322,-9.71237 -0.7141,-12.94115 l -2.4455,-35.57735 c -3.8533,-36.20861 -10.8556,-72.74136 -23.5234,-106.97032 -10.7778,-29.11291 -24.2298,-58.15377 -39.7324,-85.06983 -6.5852,-11.42958 -16.4265,-22.83731 -21.7706,-34.60362 -1.6864,-3.70936 -1.5149,-7.7781 -1.5149,-11.75085 0,-68.37922 -19.6156,-141.51182 -69.48849,-190.84994 -28.17336,-27.8665 -68.1051,-47.96803 -107.87919,-51.1587 -6.49941,-0.52366 -18.85149,-0.0665 -26.55322,-1.47161 z" /><path
         id="path3"
         style="fill:none;stroke:#e6e6e6;stroke-width:4.92837673;stroke-dasharray:none;stroke-opacity:1"
         d="M -4.4084438,967.80249 -176.75545,899.26604 c -5.9946,12.9377 -11.20328,26.20652 -15.49481,39.99218 -13.94134,44.78408 -19.79863,92.20038 -23.30708,138.82548 -5.9171,78.6708 -3.09822,156.6106 2.77002,235.17 l 7.57426,78.4694 c 1.90349,31.4918 -5.23597,61.4084 -5.51839,92.4711 -0.27697,30.3918 9.44668,61.4659 28.37103,85.2863 20.27673,25.5229 59.44313,53.3276 92.276186,57.7159 2.97624,0.3991 4.7936,0.077 7.57428,-0.8873 2.37336,-4.1657 2.38854,-4.3917 0.99547,-9.0026 -2.74538,-9.1024 -12.49377,-19.8699 -17.70214,-28.0681 -20.757276,-32.6811 -37.465736,-75.0922 -24.021236,-113.5491 l 4.11175,-3.0946 c 7.34809,2.292 12.50869,8.4953 15.94924,15.1919 10.136916,19.7226 3.11021,52.1655 23.047396,65.42 5.31968,0.5132 5.58626,0.6766 10.45248,-2.2506 9.48801,-23.2584 4.75841,-103.334 -5.1505,-126.8366 -6.59315,-15.6358 -18.31163,-26.9036 -26.553216,-41.3338 -23.59228,-41.3083 -11.95942,-91.9387 4.306526,-133.372 24.8007,-63.179 64.41081,-119.1361 82.81917,-185.2233 8.7613802,-31.4513 8.0856102,-64.22017 9.8465702,-96.38781 z" /><path
         id="path6"
         style="fill:none;stroke:#e6e6e6;stroke-width:4.92837673;stroke-dasharray:none;stroke-opacity:1"
         d="m 178.23956,293.58453 c -0.10185,0.0432 -0.22351,0.15355 -0.32461,0.1947 -6.53625,2.66125 -20.8596,0.68168 -28.47923,1.38506 -10.40315,0.95853 -20.83676,3.17539 -30.85974,6.08106 -61.153084,17.72127 -112.0356038,63.12611 -135.665904,122.42173 -9.2545,23.22295 -13.83028,49.01349 -16.87982,73.75176 l -3.70056,43.8009 c -0.30684,4.01894 0.18659,12.58953 -1.21188,16.10067 -4.00536,10.04732 -16.95601,22.80738 -23.17726,32.52606 -18.45452,28.82511 -33.828,59.86675 -44.926216,92.25463 -9.69711,28.30089 -15.79579,57.54069 -20.53708,87.03907 -3.50847,21.84085 -5.84046,45.10455 -12.14046,66.32896 -3.66596,12.35009 -15.78846,24.47865 -22.44147,35.70721 -5.4303,9.16269 -10.22942,18.54754 -14.65078,28.0897 l 172.3470062,68.53645 c 1.40301,-25.62915 4.31742003,-50.88595 15.0403098,-74.72566 11.48935,-25.54476 37.43005,-46.16538 54.46978,-68.68776 C 91.194243,789.90249 144.38884,719.80213 165.2551,679.80715 Z" /><path
         id="path4"
         style="fill:none;stroke:#e6e6e6;stroke-width:4.92837673;stroke-dasharray:none;stroke-opacity:1"
         d="m 897.72977,2151.2921 -214.65455,3.4194 c -0.96292,8.7886 -1.71458,17.6291 -2.68343,26.3368 -4.68974,42.1447 -9.60572,85.7025 -5.38856,128.0917 7.96456,79.9709 46.4901,153.1147 62.62832,231.8374 6.42762,31.337 12.12296,62.9326 13.17923,95.0028 0.86622,26.2593 -1.35905,53.3038 1.03874,79.4 1.70538,18.574 7.15198,36.5512 10.06293,54.8809 2.5499,16.0488 -3.08972,34.9766 -6.47053,50.8342 -6.93806,32.5048 -15.00133,66.6393 -15.99252,99.9588 -0.32591,10.9705 -0.91681,22.4708 1.83947,33.1968 2.13176,8.2826 5.95072,16.2031 12.42182,21.987 5.47718,4.9152 12.49194,7.5517 19.58483,9.1542 17.91149,4.046 38.77188,3.1203 57.17491,3.4192 26.81007,0.4073 55.0602,1.7687 81.71532,-0.9738 8.30688,-0.8418 19.33066,-4.5144 24.99517,-10.9502 6.23749,-7.0874 5.87964,-19.2913 4.82608,-28.1981 -4.11125,-34.622 -23.70033,-61.1454 -39.71086,-90.8261 -19.34526,-35.8992 -38.92562,-81.4293 -41.93977,-122.1622 -1.99854,-27.0193 -0.18349,-55.2858 0.86566,-82.3863 2.56887,-66.476 8.10073,-136.4352 24.58376,-201.0644 11.81526,-46.2996 32.78893,-93.5968 36.18343,-141.4439 3.84842,-54.2164 -6.83103,-108.1366 -24.25945,-159.5142 z" /><path
         id="path7"
         style="fill:none;stroke:#e6e6e6;stroke-width:4.92837673;stroke-dasharray:none;stroke-opacity:1"
         d="m 348.74711,2158.8447 -214.33009,-9.1756 c -14.89821,49.1129 -25.65542,101.6014 -22.09521,151.1607 3.70657,51.6761 20.99305,102.087 32.59098,152.3512 16.32826,70.7651 24.02954,140.4138 27.50541,212.8368 1.12422,23.4619 3.30049,48.0069 1.81782,71.4144 -1.00475,15.886 -5.10882,31.8918 -11.0368,46.6357 -11.88023,29.5721 -27.7605,58.9595 -41.68008,87.6883 -13.2137,27.2909 -29.03926,49.057 -31.141078,80.8284 -0.418186,6.3542 -0.924091,14.3464 1.62306,20.3206 2.908321,6.8429 9.079658,9.0054 15.776118,11.1235 25.65334,8.0651 141.16865,9.1678 162.91164,-2.9431 10.95983,-6.1099 16.94649,-17.1972 20.01773,-28.9555 10.0826,-38.5318 -3.92102,-91.118 -12.03228,-129.3251 -3.25588,-15.3157 -7.99649,-31.6539 -7.22802,-47.4582 1.07537,-22.0498 9.39075,-44.0781 11.14499,-66.5884 1.96601,-25.2544 -0.29084,-51.0943 0.77907,-76.4571 1.9416,-45.9996 10.63985,-92.2307 21.7706,-136.7911 15.10641,-60.4745 42.39005,-118.2122 49.83869,-180.3975 6.16336,-51.4907 -1.72386,-104.7831 -6.23255,-156.268 z" /><path
         id="path8"
         style="fill:none;stroke:#e6e6e6;stroke-width:4.92837673;stroke-dasharray:none;stroke-opacity:1"
         d="m 877.27931,1494.1056 -722.04387,-22.1384 c -2.62554,11.912 -5.43455,23.8254 -7.53098,35.7289 -8.13841,46.2231 -10.53465,92.7838 -11.68602,139.6261 -1.03191,42.0089 -1.12492,85.1636 2.2939,127.0529 l 17.05293,134.151 c 7.09291,42.8483 19.13939,85.3314 16.10074,129.2602 -1.57774,22.8021 -13.96971,44.0141 -21.57585,65.2902 -5.36966,15.0224 -10.63305,30.6368 -15.47314,46.5926 l 214.33009,9.1756 c -0.0899,-1.0269 -0.19421,-2.0905 -0.28132,-3.116 -1.90071,-22.3487 -4.72046,-45.4707 -1.88277,-67.8872 3.22604,-25.4718 12.21684,-51.6583 20.51544,-75.8725 l 32.39626,-94.9163 58.66805,-223.2462 c 15.06554,-70.2336 27.65363,-138.1333 30.62166,-210.0668 l 51.72143,0.2164 2.6185,38.2609 c 13.95227,133.0106 48.26128,267.0452 87.8832,394.576 16.54002,53.2352 41.39302,105.1965 52.06766,159.9902 5.01566,25.7395 2.85068,51.9098 0,77.9283 l 214.65455,-3.4194 c -5.49438,-16.197 -11.58606,-32.1692 -18.19965,-47.7827 l -16.29562,-37.828 c -2.64468,-6.1481 -6.75969,-13.687 -7.53096,-20.2339 -2.1561,-18.3274 1.3247,-38.8193 4.37143,-56.8722 l 22.78776,-109.2858 c 23.76674,-129.5427 20.08788,-258.5037 -5.58342,-385.1839 z" /><path
         id="path9"
         style="fill:none;stroke:#e6e6e6;stroke-width:4.92837673;stroke-dasharray:none;stroke-opacity:1"
         d="m 778.42446,1163.9976 -514.87703,-9.2623 c -0.53015,3.5402 -1.07382,6.7343 -1.68798,8.7428 -3.09025,10.1151 -9.75475,20.2097 -13.93666,30.1456 l -36.20497,91.1509 c -21.99145,60.4325 -42.49835,123.7467 -56.48238,187.1926 l 722.04387,22.1384 c -9.31159,-45.9507 -21.33376,-91.6125 -36.24823,-136.8778 -20.04309,-60.8271 -44.66647,-120.4818 -60.22612,-182.7129 -0.88087,-3.5222 -1.58786,-7.0106 -2.3805,-10.5173 z" /><path
         id="path10"
         style="fill:none;stroke:#e6e6e6;stroke-width:4.92837673;stroke-dasharray:none;stroke-opacity:1"
         d="M 787.08071,859.14417 240.86792,848.9513 c 1.47442,2.87837 2.94676,5.75531 4.56622,8.43994 23.37869,79.63563 27.68985,92.15624 24.73537,176.45876 -0.61017,17.3626 -2.2601,91.757 -6.62208,120.8853 l 514.87703,9.2623 c -12.32022,-54.5011 -14.33173,-107.3448 -11.72932,-163.6042 2.69376,-58.2203 7.41176,-53.17182 17.35589,-124.52099 1.02993,-6.14854 2.022,-11.60443 3.02968,-16.72824 z" /><path
         id="path12"
         style="fill:none;stroke:#e6e6e6;stroke-width:4.92838;stroke-dasharray:none;stroke-opacity:1"
         d="m 402.00507,163.24221 c -0.0128,0.0319 -0.008,0.31766 -0.0216,0.34625 -52.77554,41.38943 -113.90936,62.7222 -171.69778,95.43576 -11.92654,6.75073 -23.2236,14.41219 -34.40882,22.31158 -5.12263,3.6177 -11.91462,9.79834 -17.63721,12.24873 l -7.33626,218.18206 701.44246,2.75452 -8.41878,-215.82942 c -1.28556,-0.23449 -3.3692,-0.11929 -4.28482,-0.49772 -4.72496,-1.95515 -10.38156,-6.88699 -14.759,-9.75999 -11.53253,-7.56812 -22.95251,-15.40939 -34.99309,-22.16012 l -81.10949,-42.6323 C 693.73186,206.1973 659.25057,189.64678 629.12485,164.17274 l 0.0216,-0.93053 z"
         sodipodi:nodetypes="cccsccccccccccc" /><path
         id="path11"
         style="fill:none;stroke:#000000;stroke-width:4.92838;stroke-dasharray:none;stroke-opacity:1"
         d="m 873.52371,514.5211 -702.62039,-2.75451 -5.12294,163.83832 c -0.0535,-4.58129 0.85496,3.31483 3.65631,8.22053 2.53155,5.20365 18.40622,61.95208 31.02794,78.60611 17.95203,23.68288 26.29707,58.98204 40.40329,86.51975 l 546.21279,10.19287 c 7.68964,-39.10124 16.17393,-52.37446 47.47984,-99.0715 33.65686,-50.20402 43.47442,-79.92675 45.05702,-82.75021 0,0 0.82149,-18.42794 0.69543,-21.20527 z"
         sodipodi:nodetypes="cccccccsccc" /><path
         id="path1"
         style="fill:none;stroke:#e6e6e6;stroke-width:4.92837673;stroke-dasharray:none;stroke-opacity:1"
         d="m 518.6811,-303.96017 c -5.76763,-0.26081 -11.7559,-0.53786 -17.50736,0.0434 -39.43466,4.77116 -75.58178,19.79974 -100.58616,51.93781 -30.6962,39.45095 -33.98867,114.69652 -27.87332,163.236256 -3.66323,3.65241 -4.82302,1.75858 -8.39661,3.80877 -5.47449,3.13913 -7.60938,11.73953 -7.6392,17.52902 -0.0625,12.18993 3.12093,23.71604 5.43183,35.57743 4.02982,20.6949 6.73527,48.7122 23.06904,63.818575 2.57703,2.381529 5.74427,4.227869 8.916,5.691512 2.00116,12.277246 5.88687,117.890247 2.55362,125.559717 h 227.14139 l 2.61851,-81.044655 c 0.2228,-12.173644 -2.21534,-33.384321 1.99102,-44.471759 l 1.60138,-1.406658 c 19.32081,-17.259802 23.16851,-39.1341421 28.28448,-63.234302 2.5037,-11.78803 5.44884,-23.88572 5.92958,-35.9453 0.27964,-6.9517 0.73997,-13.54272 -3.18114,-19.62818 -3.04417,-2.27286 -6.24429,-4.42565 -8.85119,-7.20635 3.08764,-55.100456 4.1849,-124.261096 -34.60354,-168.018866 -24.61611,-27.76883 -62.02973,-44.58983 -98.89833,-46.2463 z" /></g><g
       id="move"
       transform="matrix(0.04824098,0,0,0.05181757,-3.7105651,-10.750118)"
       inkscape:label="move"><text
         xml:space="preserve"
         style="font-style:normal;font-variant:normal;font-weight:normal;font-stretch:normal;font-size:148.144px;font-family:Amiri;-inkscape-font-specification:'Amiri, Normal';font-variant-ligatures:normal;font-variant-caps:normal;font-variant-numeric:normal;font-variant-east-asian:normal;fill:#000000;fill-opacity:1;stroke:#000000;stroke-width:0.269288;stroke-dasharray:none;stroke-opacity:1;paint-order:markers fill stroke"
         x="513.04822"
         y="778.5697"
         id="text1-5"><tspan
           sodipodi:role="line"
           id="tspan1">Speed:-1*</tspan></text><path
         fill="#fefefe"
         d="m 423.87315,743.60565 0.21512,0.052 c 1.71719,3.76403 3.49119,3.70519 5.98388,7.35145 -7.82361,-0.10797 -11.69949,-1.08864 -18.76246,-4.29382 -1.34963,-0.0879 -4.75661,-3.11408 -5.45151,-3.66689 -1.44497,-1.14935 -2.73119,-2.33754 -3.98746,-3.59097 2.82341,0.88799 5.73821,1.52855 8.60636,2.10838 4.47579,0.90536 8.94267,1.61647 13.39636,2.03887 z"
         id="path2-5"
         style="stroke:#000000;stroke-width:2.32259;stroke-dasharray:none;stroke-opacity:1"
         sodipodi:nodetypes="ccccccccc" /><path
         fill="#fefefe"
         d="m 420.73098,732.74924 c 0.16605,0.0376 0.32327,0.0615 0.4746,0.14245 0.19084,1.49259 0.48354,2.93964 1.01378,4.35123 l 0.69132,1.64881 c 0.11304,0.25498 0.3131,0.59092 0.35053,0.86427 -3.38586,1.31875 -5.88595,0.53798 -8.86795,-0.96306 -4.84177,-2.84555 -9.02471,-7.42607 -10.99427,-12.72672 3.75169,2.83784 8.23961,4.29963 12.72721,5.52821 z"
         id="path3-1"
         style="stroke:#000000;stroke-width:2.32259;stroke-dasharray:none;stroke-opacity:1"
         sodipodi:nodetypes="ccccccccc" /><path
         fill="#fefefe"
         d="m 419.63719,727.11092 c -0.99006,-0.26054 -2.01274,-0.4366 -2.97937,-0.7825 -0.85278,-0.30505 -1.72241,-0.79395 -2.50264,-1.25578 -2.16532,-1.2816 -4.13288,-2.88937 -5.79407,-4.78297 -4.41276,-5.02993 -6.03531,-11.58112 -5.60542,-18.1506 1.44243,3.24637 3.5683,6.08982 6.39823,8.27104 l 1.57984,1.10672 c 0.28142,0.18129 0.70379,0.34916 0.93296,0.58562 0.21062,0.21732 0.3861,0.48811 0.57442,0.72644 l 1.38168,1.69296 c 2.2089,2.46776 4.80215,4.73075 7.62498,6.46811 l 0.12898,0.13734 c -0.62085,1.97648 -1.04172,4.00744 -1.0594,6.08448 z"
         id="path6-0"
         style="stroke:#000000;stroke-width:2.32259;stroke-dasharray:none;stroke-opacity:1" /><path
         fill="#fefefe"
         d="m 422.50359,716.14959 c -6.06305,-3.90641 -11.27396,-9.80969 -14.03576,-16.50113 -0.43606,-1.05665 -0.75161,-2.15168 -1.06003,-3.25081 -2.00973,-7.16318 -1.47637,-15.1216 1.38236,-21.98689 0.2891,0.72521 0.42082,1.57216 0.62475,2.33043 0.35788,1.33073 0.7986,2.60686 1.35738,3.86748 0.47228,1.06564 0.9832,2.14161 1.58175,3.1412 l 0.90316,1.40505 c 0.18746,0.2736 0.50729,0.62227 0.60871,0.93662 0.21288,0.6592 0.26249,1.40777 0.42808,2.08389 0.33393,1.36262 0.78211,2.71126 1.23813,4.03775 0.45987,1.33772 1.06344,2.61477 1.67154,3.88916 l 1.49177,2.99798 c 1.87192,3.37951 4.15198,6.55044 6.51068,9.6034 l 0.23463,0.30861 c -0.0517,0.33478 -0.27329,0.71011 -0.41015,1.02434 l -0.66812,1.64046 -1.60838,4.55102 z"
         id="path8-6"
         style="stroke:#000000;stroke-width:2.32259;stroke-dasharray:none;stroke-opacity:1" /><path
         fill="#fefefe"
         d="m 427.82911,704.30477 c -1.48769,-2.03108 -2.99773,-4.05116 -4.324,-6.19379 -0.96557,-1.5597 -1.79369,-3.1602 -2.59468,-4.80719 -1.11105,-2.2848 -2.10439,-4.7802 -2.55777,-7.29184 -0.24624,-1.36401 -0.45268,-2.72558 -0.51351,-4.11224 -0.24301,-5.54139 1.1937,-11.18988 3.82779,-16.05429 0.72352,-1.33628 1.55305,-2.58504 2.42036,-3.83035 0.042,0.0418 0.0238,0.31948 0.0245,0.39377 0.0211,2.54183 0.12403,5.04409 0.42467,7.56995 0.69681,5.85525 2.16034,11.48155 3.87478,17.11022 l 3.27489,9.76808 c -0.12526,0.3865 -0.4152,0.75921 -0.61716,1.11385 l -0.73083,1.39548 -2.32068,4.9936 -0.078,0.039 z"
         id="path9-2"
         style="stroke:#000000;stroke-width:2.32259;stroke-dasharray:none;stroke-opacity:1" /><path
         fill="#0f0f0f"
         d="m 432.78711,753.3154 c 6.28761,7.956 12.85273,15.64753 20.25674,22.5946 5.03214,4.72143 10.49456,9.17358 16.60299,12.43754 7.93511,4.24005 17.11673,6.68524 26.01566,7.74271 2.47919,0.29452 4.96743,0.37534 7.45739,0.50978 2.29621,0.12402 4.63384,0.35136 6.93082,0.15841 -0.31138,0.39113 -0.97692,0.55687 -1.44822,0.75118 -3.40429,1.40427 -7.02194,2.24905 -10.67808,2.66433 -10.79379,1.22587 -22.09365,-1.38775 -31.6759,-6.36425 -4.33537,-2.25144 -8.33793,-4.99995 -12.15002,-8.04259 -5.94588,-4.74606 -11.37367,-10.20987 -16.25291,-16.04008 l -4.06298,-5.01213 -9.08906,8.41029 -21.3164,-10.37972 2.49671,-15.7079 c 0.38126,0.21008 0.7698,0.4604 1.18359,0.59783 2.32478,1.18832 4.66524,2.35494 7.11431,3.26873 5.93832,2.21617 7.44568,2.96323 13.74108,2.45884 z"
         id="path10-3"
         style="fill:none;fill-opacity:1;stroke:#000000;stroke-width:2.32259;stroke-dasharray:none;stroke-opacity:1"
         sodipodi:nodetypes="ccccccccccccccccccc" /><path
         fill="#dc9308"
         d="m 463.02874,689.96939 0.14384,0.035 c 0.49063,0.11195 1.1488,0.0313 1.65643,0.0217 l 3.58408,-0.053 c 2.39392,-0.0242 4.86943,0.10962 7.24971,-0.0434 -6.31985,10.20788 -9.878,22.14022 -9.54579,34.17661 0.11685,4.25601 0.74673,8.39684 1.7215,12.53376 3.77093,16.00471 11.61851,30.25771 21.33565,40.94937 12.10107,12.64047 8.48263,7.78003 20.17454,16.94792 -17.32365,-3.71452 -21.55024,-4.23093 -26.35187,-6.3316 -9.89964,-6.18762 -14.97824,-6.89097 -26.89975,-18.41407 -12.79352,-12.36596 -18.29357,-15.79526 -23.00912,-27.19435 l -3.2569,-19.42517 c -2.88158,-22.76633 4.41888,-31.58046 4.03571,-32.91484 l 21.28156,-0.26223 5.32127,0.0602 c 0.85201,-0.008 1.71303,0.0204 2.55906,-0.0844 z"
         id="path11-9"
         style="fill:none;stroke:#000000;stroke-width:2.32259;stroke-dasharray:none;stroke-opacity:1"
         sodipodi:nodetypes="cccccsccccsccccccc" /><path
         id="path2-8"
         inkscape:transform-center-x="-0.01494134"
         inkscape:transform-center-y="-3.7500871"
         d="m 427.40161,748.51285 c 20.36512,-7.37419 13.98417,-9.56844 21.66325,-57.74338 8.14056,47.72615 2.64335,50.64631 21.89168,57.54181 z"
         sodipodi:nodetypes="cccc"
         style="stroke-width:10.6897" /><path
         id="path2-0"
         inkscape:transform-center-x="-0.0034207367"
         inkscape:transform-center-y="-1.3106034"
         d="m 444.38529,757.43968 c 4.11726,-2.61102 3.85157,-6.32045 4.96018,-20.18053 1.20756,13.97013 0.83807,17.62212 5.01247,20.11007 z"
         sodipodi:nodetypes="cccc"
         style="stroke-width:3.02394" /></g></g></svg>
