<?xml version="1.0" encoding="UTF-8" standalone="no"?>
<!-- Created with Inkscape (http://www.inkscape.org/) -->

<svg
   width="63mm"
   height="88mm"
   viewBox="0 0 63 88"
   version="1.1"
   id="svg1"
   sodipodi:docname="card-hitlocation-jester-black.svg"
   inkscape:version="1.3.2 (091e20e, 2023-11-25, custom)"
   xmlns:inkscape="http://www.inkscape.org/namespaces/inkscape"
   xmlns:sodipodi="http://sodipodi.sourceforge.net/DTD/sodipodi-0.dtd"
   xmlns="http://www.w3.org/2000/svg"
   xmlns:svg="http://www.w3.org/2000/svg">
  <sodipodi:namedview
     id="namedview1"
     pagecolor="#ffffff"
     bordercolor="#000000"
     borderopacity="0.25"
     inkscape:showpageshadow="2"
     inkscape:pageopacity="0.0"
     inkscape:pagecheckerboard="0"
     inkscape:deskcolor="#d1d1d1"
     inkscape:document-units="mm"
     inkscape:zoom="1.4627806"
     inkscape:cx="61.184843"
     inkscape:cy="150.05668"
     inkscape:window-width="1920"
     inkscape:window-height="1017"
     inkscape:window-x="-8"
     inkscape:window-y="-8"
     inkscape:window-maximized="1"
     inkscape:current-layer="layer1" />
  <defs
     id="defs1" />
  <g
     inkscape:label="Layer 1"
     inkscape:groupmode="layer"
     id="layer1">
    <path
       id="path1"
       style="fill:#000000;fill-opacity:1;stroke-width:1.75322"
       inkscape:transform-center-x="-0.31494015"
       inkscape:transform-center-y="-1.1518388"
       d="m 36.70624,49.412133 c 0.320436,-0.39376 -4.853229,-0.132155 -6.826551,-0.198245 1.494058,-4.665387 1.001876,-3.117153 0.740233,-4.663017 -0.163625,-0.966839 -1.447671,-0.835794 -4.756879,1.060799 0.878141,-2.189991 1.539842,-2.818609 3.049631,-3.121542 1.956954,-0.392654 3.201129,1.669759 2.747315,1.265375 -0.971917,-0.866052 0.402475,-1.96538 -0.412881,-3.769397 -0.757427,-1.675845 -0.031,-1.74353 -3.572892,-1.898624 2.622636,-2.39047 4.646579,-0.24483 5.409738,0.792937 1.620317,2.203363 0.725409,3.270674 1.74807,2.444126 1.057235,-0.854493 1.291522,-0.833855 2.326375,-0.94725 1.382471,-0.151491 1.284151,-0.686015 3.229108,2.141489 -2.47968,-1.371914 -2.777253,-1.099018 -3.790154,-0.442345 -2.668561,1.730054 -1.885543,2.798769 0.108876,7.335684 z"
       sodipodi:nodetypes="ccscssscssscsc" />
    <path
       style="fill:#000000;fill-opacity:1;stroke-width:0.947797"
       id="path2"
       sodipodi:type="arc"
       sodipodi:cx="39.72522"
       sodipodi:cy="43.840256"
       sodipodi:rx="0.80179125"
       sodipodi:ry="0.80179125"
       sodipodi:start="0.027304543"
       sodipodi:end="6.2831853"
       sodipodi:open="true"
       sodipodi:arc-type="arc"
       d="m 40.526712,43.862146 a 0.80179125,0.80179125 0 0 1 -0.817911,0.779733 0.80179125,0.80179125 0 0 1 -0.785298,-0.812569 0.80179125,0.80179125 0 0 1 0.80719,-0.790827 0.80179125,0.80179125 0 0 1 0.796318,0.801773"
       inkscape:transform-center-x="0.084402616"
       inkscape:transform-center-y="-1.1484635e-06" />
    <path
       style="fill:#000000;fill-opacity:1;stroke-width:0.947797"
       id="path2-4"
       sodipodi:type="arc"
       sodipodi:cx="26.328804"
       sodipodi:cy="46.472134"
       sodipodi:rx="0.80179125"
       sodipodi:ry="0.80179125"
       sodipodi:start="0.027304543"
       sodipodi:end="6.2831853"
       sodipodi:open="true"
       sodipodi:arc-type="arc"
       d="m 27.130296,46.494023 a 0.80179125,0.80179125 0 0 1 -0.81791,0.779734 0.80179125,0.80179125 0 0 1 -0.785299,-0.812569 0.80179125,0.80179125 0 0 1 0.80719,-0.790827 0.80179125,0.80179125 0 0 1 0.796318,0.801773" />
    <path
       style="fill:#000000;fill-opacity:1;stroke-width:0.848034"
       id="path2-5"
       sodipodi:type="arc"
       sodipodi:cx="27.559982"
       sodipodi:cy="39.032215"
       sodipodi:rx="0.71739209"
       sodipodi:ry="0.71739209"
       sodipodi:start="0.027304543"
       sodipodi:end="6.2831853"
       sodipodi:open="true"
       sodipodi:arc-type="arc"
       d="m 28.277107,39.051801 a 0.71739209,0.71739209 0 0 1 -0.731815,0.697656 0.71739209,0.71739209 0 0 1 -0.702635,-0.727036 0.71739209,0.71739209 0 0 1 0.722222,-0.707581 0.71739209,0.71739209 0 0 1 0.712495,0.717375" />
  </g>
</svg>
