<?xml version="1.0" encoding="UTF-8" standalone="no"?>
<svg
   width="63mm"
   height="88mm"
   version="1.1"
   id="svg132"
   sodipodi:docname="card-trauma-rage.svg"
   viewBox="0 0 975.48891 1362.5877"
   inkscape:version="1.4 (86a8ad7, 2024-10-11)"
   xmlns:inkscape="http://www.inkscape.org/namespaces/inkscape"
   xmlns:sodipodi="http://sodipodi.sourceforge.net/DTD/sodipodi-0.dtd"
   xmlns="http://www.w3.org/2000/svg"
   xmlns:svg="http://www.w3.org/2000/svg">
  <defs
     id="defs132" />
  <sodipodi:namedview
     id="namedview132"
     pagecolor="#ffffff"
     bordercolor="#000000"
     borderopacity="0.25"
     inkscape:showpageshadow="2"
     inkscape:pageopacity="0.0"
     inkscape:pagecheckerboard="0"
     inkscape:deskcolor="#d1d1d1"
     inkscape:zoom="1.1450488"
     inkscape:cx="282.52071"
     inkscape:cy="347.14678"
     inkscape:window-width="1920"
     inkscape:window-height="1009"
     inkscape:window-x="-8"
     inkscape:window-y="-8"
     inkscape:window-maximized="1"
     inkscape:current-layer="svg132"
     inkscape:document-units="mm" />
  <g
     id="g8"
     transform="matrix(2.3987603,0,0,2.3987603,325.73771,450.59954)"
     style="opacity:0.5">
    <path
       transform="matrix(0.142578,0,0,0.142578,0,-7.62939e-6)"
       d="m 120.966,358.496 0.621,-0.759 0.379,-0.297 c 4.698,-3.881 6.816,-10.424 11.208,-14.578 3.271,-3.093 9.07,-4.397 13.295,-5.838 l 21.676,-7.596 c -4.556,7.381 -9.241,12.876 -15.858,18.531 -2.91,2.488 -6.419,4.76 -8.939,7.637 -2.331,2.663 -4.28,6.182 -6.194,9.169 4.587,-3.485 10.32,-9.057 15.513,-11.268 l 32.192,12.431 c -6.043,1.586 -12.178,3.435 -18.318,4.578 -3.877,0.722 -7.895,1.021 -11.817,1.466 -0.762,0.087 -2.91,0.089 -3.423,0.386 -1.449,0.838 -3.506,3.937 -4.585,5.394 -4.855,6.556 -9.333,13.542 -13.46,20.578 -2.242,3.821 -1.192,7.384 -0.01,11.577 0.863,3.06 2.418,5.88 3.976,8.631 8.106,0.289 12.466,-1.5 19.743,-4.711 1.067,-3.022 2.071,-6.019 2.761,-9.15 0.269,-1.222 0.418,-3.708 0.979,-4.734 0.505,-0.925 2.831,-2.493 3.689,-3.23 5.581,-4.788 11.336,-8.794 17.969,-11.988 0.786,-0.379 1.301,-0.549 2.176,-0.694 l -0.119,0.531 c -1.496,6.156 -5.318,11.638 -7.368,17.605 -1.384,4.03 0.728,11.972 -1.212,15.073 -1.348,2.154 -4.974,4.714 -6.861,6.601 -2.775,2.777 -4.973,6.145 -7.948,8.7 -2.54,2.181 -6.002,4.143 -8.007,6.841 -2.548,3.429 -3.656,8.938 -5.034,12.972 -2.033,5.954 -4.529,11.872 -7.945,17.175 -2.832,4.397 -9.434,11.349 -10.077,16.356 -0.125,0.967 1.215,4.239 1.571,5.396 4.068,13.226 10.648,26.187 16.82,38.541 l 24.362,45.613 c 4.517,7.648 11.904,14.505 18.381,20.496 3.58,3.312 7.512,6.59 10.519,10.444 9.681,12.409 14.102,28.306 18.421,43.119 l 0.473,0.089 c 5.737,-6.34 11.707,-14.101 19.08,-18.591 3.35,-2.04 7.542,-3.594 11.217,-4.98 3.605,-1.359 7.409,-2.764 11.288,-2.978 5.082,-0.281 9.196,0.665 14.041,2.095 1.341,0.395 4.577,1.802 5.856,1.746 1.099,-0.048 3.281,-1.333 4.406,-1.831 5.727,-2.535 11.035,-5.984 16.591,-8.869 6.035,-3.134 11.903,-5.879 18.425,-7.861 -14.599,-6.059 -26.979,-15.681 -37.882,-27.107 10.07,4.322 20.547,9.227 31.478,10.854 5.43,0.808 11.451,0.633 16.922,0.331 -4.477,-4.42 -9.538,-8.88 -13.245,-13.962 -9.849,-13.504 -11.35,-29.971 -11.482,-46.213 -0.048,-5.891 -0.094,-12.507 1.512,-18.204 3.101,16.748 5.292,31.773 20.51,42.181 4.937,3.376 10.013,5.082 15.689,6.686 0.543,-6.428 1.328,-13.175 0.558,-19.612 -0.594,-4.955 -2.529,-9.779 -3.513,-14.682 -1.108,-5.519 -1.141,-11.628 -0.555,-17.213 0.635,-6.061 1.964,-11.954 4.15,-17.652 3.513,-9.154 7.764,-16.337 7.337,-26.525 -0.244,-5.802 -1.627,-10.013 -5.064,-14.713 -1.033,-1.413 -2.801,-3.091 -3.46,-4.656 7.556,2.515 14.598,11.516 18.064,18.414 4.443,8.842 4.222,19.252 2.24,28.728 -2.204,10.54 -6.547,21.257 -1.497,31.714 3.138,6.498 11.552,8.711 17.225,12.4 2.851,1.854 5.541,4.303 8.033,6.612 5.098,4.725 8.526,10.726 12.071,16.625 -2.626,-15.135 -6.968,-30.167 -8.124,-45.482 l 9.878,27.781 c 3.613,11.056 7.531,25.402 15.213,34.311 l 0.92,-0.68 c 0.281,-7.531 -1.13,-13.944 -4.405,-20.756 -0.939,-1.952 -2.467,-4.076 -2.87,-6.19 3.484,0.574 6.139,2.929 8.622,5.285 4.301,4.08 7.761,8.619 10.878,13.633 4.836,7.779 10.307,22.339 19.58,25.736 1.534,0.561 1.842,0.372 3.284,-0.296 L 453.914,594 c -4.008,-18.21 -16.654,-30.162 -25.575,-45.548 -3.565,-6.148 -5.256,-13.281 -8.533,-19.575 -3.032,-5.825 -7.684,-10.085 -11.324,-15.397 l -0.315,-0.47 c 1.839,0.338 3.737,2.022 5.223,3.107 7.417,5.414 12.6,12.609 19.631,18.258 1.695,1.363 3.43,1.816 5.572,1.615 -0.603,-3.639 -8.335,-10.161 -10.59,-13.533 -4.849,-7.251 -9.657,-15.815 -12.756,-23.973 -5.099,-13.422 -6.035,-29.154 -5.851,-43.354 0.235,-18.221 2.264,-38.483 9.868,-55.234 -2.477,18.076 -3.544,33.987 -0.304,52.082 2.515,14.045 6.999,25.117 18.988,33.44 l -3.589,-8.373 c -4.316,-11.137 -5.648,-22.273 -6.878,-34.018 -1.808,-17.247 -3.125,-35.622 2.408,-52.376 3.057,-9.255 8.876,-16.478 12.698,-25.274 4.927,-11.34 3.603,-24.722 -1.688,-35.752 -1.5,-3.126 -3.496,-5.82 -4.793,-9.074 l 0.794,0.386 c 4.885,2.837 9.071,8.519 11.734,13.395 7.591,13.904 6.578,29.482 3.013,44.418 -1.095,4.586 -2.889,9.102 -2.957,13.875 -0.057,3.952 1.902,8.698 3.067,12.493 1.296,-7.51 2.588,-14.959 4.987,-22.21 4.008,-12.114 11.154,-25.288 17.958,-36.064 9.076,-14.375 22.114,-27.339 26.96,-43.997 1.872,-6.436 2.073,-13.075 2.396,-19.722 5.73,26.328 -7.589,47.989 -13.694,72.695 -1.291,5.224 -1.631,10.738 -2.149,16.085 4.25,-10.512 7.17,-21.39 12.582,-31.422 6.464,-11.979 15.474,-22.198 21.893,-34.042 3.85,-7.103 5.945,-14.486 7.932,-22.255 1.938,8.732 -2.112,19.833 -4.606,28.082 l -6.284,22.284 c 3.932,-5.086 7.9,-10.24 12.361,-14.878 8.527,-8.865 20.357,-17.937 25.95,-28.878 9.522,-18.625 -6.407,-39.829 3.919,-57.93 4.239,-7.432 11.553,-12.071 18.305,-16.974 8.232,-5.977 16.561,-11.967 23.653,-19.303 3.591,-3.716 6.25,-8.292 9.041,-12.612 -1.06,6.231 -3.577,13.294 -7.277,18.463 -7.674,10.723 -18.596,17.803 -23.099,30.969 -3.617,10.574 -1.754,21.549 -0.805,32.407 0.727,8.318 0.933,17.289 0.028,25.596 -1.345,12.332 -5.833,22.191 -9.858,33.666 -3.413,9.728 -5.872,19.564 -6.811,29.838 3.665,-5.975 8.205,-11.326 11.844,-17.287 4.801,-7.865 7.631,-16.068 10.254,-24.861 2.746,9.562 -1.909,20.655 -4.083,30.012 -1.232,5.303 -1.784,10.629 -2.25,16.039 5.041,-10.6 9.996,-20.996 16.368,-30.893 3.234,-5.024 6.603,-10.364 12.445,-12.569 6.447,-2.433 13.516,-3.023 19.257,-7.149 9.369,-6.732 11.486,-19.043 13.252,-29.681 1.112,6.863 1.914,13.401 1.378,20.364 -1.154,15.002 -15.739,27.282 -26.318,36.441 -18.913,16.372 -9.373,41.989 -10.416,63.085 -0.542,10.961 -3.769,21.612 -4.53,32.46 8.973,-13.595 16.641,-28.762 16.624,-45.458 -0.005,-4.826 -1.174,-9.778 -2.104,-14.501 2.771,5.683 5.324,11.054 6.686,17.277 3.362,15.363 0.256,37.533 -6.22,51.68 -4.268,9.322 -10.107,17.841 -14.484,27.144 -3.234,6.873 -5.353,14.126 -7.765,21.306 -1.948,5.799 -4.203,11.361 -5.778,17.293 5.071,-5.653 8.052,-12.098 11.842,-18.601 8.819,-15.131 17.872,-29.313 31.267,-40.874 -2.084,5.053 -6.375,10.166 -9.194,14.971 -5.941,10.13 -10.464,20.096 -14.492,31.102 4.937,-4.273 7.887,-11.096 13.126,-15.66 2.991,-2.606 6.281,-5.258 9.719,-7.253 3.782,-2.193 7.991,-3.619 11.389,-6.476 8.15,-6.853 7.02,-21.059 7.641,-30.468 0.935,-14.149 7.983,-22.451 18.177,-31.445 -3.166,6.184 -6.167,12.275 -7.406,19.189 -1.044,5.827 -0.291,11.904 0.08,17.773 0.74,11.703 1.452,24.514 -3.047,35.585 -3.915,9.632 -9.679,14.533 -18.316,19.824 -3.043,1.865 -6.423,3.612 -8.63,6.502 -4.999,6.546 -6.522,19.42 -9.09,27.397 -1.864,5.792 -4.557,11.31 -7.786,16.461 -11.531,18.393 -30.924,30.442 -42.551,48.766 -1.553,2.449 -2.647,4.294 -1.996,7.214 l 1.983,0.239 c 21.208,-8.992 33.844,-35.864 44.83,-54.828 l -2.313,36.771 c 3.062,-4.026 5.042,-8.777 7.569,-13.147 11.45,-19.798 26.109,-26.81 47.302,-32.49 -2.04,2.283 -6.276,4.174 -8.905,5.937 -11.309,7.58 -17.927,17.185 -21.476,30.142 6.17,-5.88 12.247,-11.509 20.036,-15.257 19.264,-9.268 33.708,-4.996 34.037,-32.352 0.122,-10.092 -1.558,-21.523 3.716,-30.559 6.605,-11.317 16.757,-17.724 29.106,-20.999 -4.295,2.633 -8.36,5.07 -11.639,8.981 -10.667,12.725 -9.063,24.265 -7.827,39.498 0.584,7.192 1.018,15.236 -0.133,22.372 -2.44,15.124 -11.843,28.727 -21.526,40.159 6.38,0.69 13.865,2.021 20.175,0.631 15.787,-3.476 24.468,-16.975 32.679,-29.492 -1.081,7.053 -4.059,14.386 -7.24,20.757 -6.241,12.501 -16.271,22.617 -29.665,27.01 6.755,2.449 13.498,4.957 19.81,8.435 3.503,1.931 6.736,4.382 10.157,6.469 0.43,0.261 2.126,1.522 2.561,1.56 1.417,0.123 8.203,-3.737 10.134,-4.471 8.033,-3.052 18.059,-4.171 26.493,-2.127 5.671,1.374 10.993,3.589 15.921,6.716 6.073,3.855 11.227,8.529 18.379,10.182 0.375,-0.236 0.863,-0.35 1.126,-0.707 1.964,-2.676 3.242,-8.649 4.611,-11.905 3.55,-8.449 7.492,-16.445 12.694,-24.01 8.258,-12.008 18.846,-20.32 28.307,-31.035 9.043,-10.241 15.572,-23.5 21.248,-35.838 3.914,-8.508 21.206,-52.561 18.633,-59.067 l -0.295,-0.7 c -2.932,-8.478 -9.669,-15.848 -13.774,-23.994 -2.822,-5.601 -3.54,-11.36 -5.814,-17.045 -1.389,-3.473 -3.896,-6.705 -6.024,-9.761 -4.207,-6.041 -11.566,-10.359 -15.163,-16.486 -1.819,-3.1 -2.417,-7.466 -3.564,-10.893 l -7.64,-21.555 c 10.378,3.751 17.737,4.647 24.545,14.532 0.126,1.616 0.274,3.365 0.833,4.896 2.587,7.092 13.591,12.738 20.172,15.594 l 1.125,-5.222 c 0.518,-2.466 1.482,-5.732 1.297,-8.224 -0.55,-7.408 -7.688,-18.278 -11.856,-24.51 -1.264,-1.89 -2.883,-3.632 -4.942,-4.658 -2.981,-1.487 -7.018,-1.722 -10.305,-2.297 l -24.142,-4.015 c 1.55,-1.656 4.854,-2.841 6.917,-3.847 l 23.301,-10.686 c 7.719,3.994 14.528,7.841 20.916,13.811 -1.08,-2.458 -2.212,-5.841 -3.857,-7.935 -4.813,-6.13 -13.708,-10.419 -19.425,-16.08 -3.29,-3.256 -5.847,-7.704 -8.333,-11.606 l 0.542,0.092 c 5.279,1.078 10.662,3.237 15.829,4.822 5.02,1.539 15.052,3.5 18.914,6.949 3.679,3.286 6.707,8.998 9.491,13.141 L 895.049,327 c -0.567,-1.66 -1.788,-3.751 -2.103,-5.414 -0.322,-1.696 2.603,-8.899 3.216,-10.994 l 10.019,15.659 c 1.539,2.62 3.198,6.767 5.394,8.707 1.964,1.735 4.862,3.283 7.05,4.855 l 0.087,0.841 c 1.162,11.053 4.461,28.085 13.435,35.233 l 0.496,0.386 c 0.474,4.292 -1.182,9.057 -1.227,13.461 -0.054,5.388 0.635,10.809 0.793,16.202 l 0.689,24.589 c 0.383,5.021 0.87,9.926 2.053,14.836 1.732,7.182 4.264,13.62 3.597,21.139 -0.247,2.791 -1.364,4.813 -2.618,7.245 -5.778,11.212 -8.017,24.172 -11.017,36.4 -3.5,14.267 -5.509,28.674 -8.039,43.123 -5.313,30.344 -11.148,61.775 -22.661,90.437 -4.489,11.177 -10.065,21.631 -16.931,31.539 -3.731,5.383 -8.013,10.314 -11.208,16.07 -4.046,7.293 -5.48,15.783 -8.842,23.414 -4.047,9.185 -10.822,15.395 -20.12,19.07 -4.913,-0.938 -10.138,-2.227 -15.155,-2.008 -7.8,0.339 -15.984,3.82 -23.565,5.761 -20.303,5.198 -45.811,9.779 -66.373,4.487 -7.457,-1.919 -14.386,-5.424 -21.225,-8.878 -6.398,1.327 -11.381,4.148 -16.561,8.035 -4.735,3.554 -11.087,8.846 -13.825,14.154 -3.625,7.026 -4.254,16.928 -5.977,24.651 -1.865,8.356 -4.759,16.494 -8.409,24.232 -2.624,5.561 -5.836,10.905 -9.245,16.019 l -6.982,9.857 c -0.352,0.485 -1.916,2.244 -2.001,2.746 -0.26,1.53 1.627,6.429 1.879,8.387 0.63,4.895 0.422,10.146 -0.43,15.014 -1.884,10.763 -8.31,18.416 -11.596,28.502 -3.337,10.242 -2.921,22.373 -4.42,33.078 9.746,-6.319 13.822,-21.091 16.925,-31.528 0.501,16.879 -3.084,33.617 -11.41,48.48 -2.548,4.55 -6.154,8.414 -7.915,13.411 -1.707,4.845 -1.598,10.805 -2.185,15.9 -0.802,6.956 -2.145,13.718 -2.69,20.731 8.133,-7.564 15.452,-13.851 25.844,-18.188 l -3.361,4.19 c -8.661,11.731 -12.308,25.603 -14.437,39.789 -0.789,5.26 -1.59,11.35 -0.542,16.61 1.28,6.43 5.713,13.14 8.005,19.4 2.646,7.22 3.351,15.65 4.516,23.24 2.948,-2.27 5.573,-5.12 8.028,-7.91 12.945,-14.7 10.512,-18.79 9.461,-36.7 -1.081,-18.43 11.115,-40.336 23.075,-53.781 -2.896,6.008 -6.202,12.068 -8.197,18.432 -4.266,13.609 -2.681,28.659 2.503,41.799 3.693,9.37 5.64,15.62 3.852,25.86 -2.204,12.62 -10.909,24.4 -16.257,35.84 -3.683,7.88 -5.441,15.82 -5.957,24.47 -0.692,11.58 2.46,22.44 5.059,33.61 l 4.655,25.72 2.535,18.99 c 0.257,2.4 -0.1,5.65 1.556,7.52 6.477,-7.26 2.918,-21.95 4.885,-31.24 2.112,-9.96 7.183,-19.04 12.24,-27.78 2.536,-4.38 4.92,-8.9 8.302,-12.7 -5.441,18.26 -9.687,35.49 -5.186,54.58 1.533,6.5 4.682,11.72 4.103,18.67 -1.429,17.15 -15.869,32.24 -19.673,49.13 -2.061,9.15 0.649,20.37 1.673,29.6 l 4.101,38.31 -53.971,27.95 c -5.071,-0.93 -10.352,-3.56 -15.287,-5.18 l -32.082,-10.49 c -2.143,-0.71 -7.759,-1.88 -9.339,-3.15 -0.286,-0.23 -0.993,-2.84 -1.148,-3.29 l -5.94,-18.78 -8.307,-21.72 c -4.371,-10.41 -9.603,-20.28 -16.062,-29.54 -4.257,-6.1 -9.252,-12 -12.966,-18.44 -3.105,-5.38 -5.355,-11.74 -7.479,-17.57 -3.285,-9.03 -6.953,-26.11 -16.537,-30.49 -2.44,-1.11 -6.582,-0.78 -9.061,0.13 -11.824,4.32 -17.544,29.1 -24.153,39.37 -3.589,5.58 -8.237,10.72 -12.323,15.94 l -16.25,22.19 c -13.247,19.06 -23.019,39.11 -33.463,59.71 -0.388,0.76 -0.64,1.07 -1.454,1.4 -9.186,3.77 -19.38,6.46 -28.858,9.44 l -37.63,12.28 -42.463,-28.88 c -1.164,-0.86 -5.724,-3.6 -6.281,-4.7 -0.091,-0.18 -0.072,-0.39 -0.088,-0.59 -0.387,-4.87 1.207,-11.2 1.868,-16.09 2.691,-19.93 5.384,-40.21 10.825,-59.6 2.434,-8.67 7.345,-18.48 8.265,-27.33 0.539,-5.19 0.278,-11.57 -1.078,-16.59 -3.65,-13.49 -11.738,-23.68 -12.417,-38.39 -0.495,-10.74 0.589,-22.02 5.177,-31.88 2.998,-6.45 6.599,-12.14 7.43,-19.36 1.333,-11.58 -1.871,-22.89 -4.49,-34.06 6.952,10.05 14.775,23.4 15.659,35.76 0.529,7.39 -0.488,15.04 -0.564,22.46 -0.062,5.99 0.145,11.28 2.352,16.94 0.643,1.65 0.592,1.53 2.211,2.25 l 1.686,-1.11 c 3.772,-7.27 4.883,-15.54 7.37,-23.26 3.439,-10.66 8.555,-22.12 13.091,-32.44 l 8.5,-17.19 c 0.535,-1.11 2.202,-3.73 2.239,-4.74 0.176,-4.75 -6.222,-11.22 -8.693,-15.03 -1.999,-3.07 -3.256,-6.1 -4.006,-9.7 -1.467,-7.04 0.258,-13.65 0.655,-20.64 l 0.978,-28.97 c 2.883,7.07 4.873,14.62 7.311,21.86 1.332,3.96 2.957,9.05 6.167,11.92 1.88,1.67 2.863,1.61 5.212,1.56 4.672,-3.14 7.286,-9.23 8.404,-14.59 2.287,-10.97 1.914,-25.25 -4.046,-34.95 -5.043,-8.206 -12.185,-15.218 -17.468,-23.404 -3.085,-4.779 -5.386,-9.587 -6.331,-15.238 -1.15,-6.87 0.511,-14.657 1.516,-21.487 l 5.273,-31.13 4.313,25.041 c 1.56,11.277 1.591,21.753 9.055,31.147 5.584,7.029 13.679,13.308 20.172,19.58 0.093,-4.714 0.445,-9.778 -0.412,-14.424 -1.224,-6.633 -4.07,-12.922 -4.737,-19.68 -0.826,-8.36 0.214,-17.155 0.072,-25.585 -0.132,-7.867 -1.563,-16.139 -3.883,-23.646 -2.94,-9.519 -10.927,-17.674 -13.064,-27.038 -1.18,-5.169 -1.575,-10.552 -1.088,-15.846 0.16,-1.744 1.657,-6.759 1.348,-8.051 -0.284,-1.188 -2.006,-3.021 -2.757,-3.988 l -7.328,-9.835 c -3.375,-4.831 -6.414,-9.786 -9.086,-15.04 -5.87,-11.544 -8.211,-23.36 -11.345,-35.725 -1.967,-7.758 -4.866,-11.282 -10.476,-16.585 -1.903,-1.799 -3.942,-4.094 -6.286,-5.314 -9.592,-4.992 -23.413,3.424 -32.219,6.536 -20.153,7.121 -43.694,5.943 -63.579,-1.447 -6.67,-2.479 -12.684,-6.274 -19.845,-7.188 -4.885,-0.624 -10.31,0.753 -15.122,1.638 -2.231,0.41 -5.36,1.468 -7.49,0.393 -1.954,-0.986 -3.999,-1.652 -5.81,-2.929 -7.497,-5.288 -11.138,-15.364 -13.455,-23.875 -0.935,-3.436 -1.535,-7.535 -3.123,-10.715 -2.097,-4.2 -6.944,-8.364 -9.796,-12.347 -6.722,-9.387 -11.955,-19.611 -16.542,-30.18 -20.923,-48.21 -25.092,-101.814 -37.2294,-152.534 -1.4018,-5.858 -3.0534,-11.827 -5.2381,-17.439 -2.197,-5.644 -6.186,-11.649 -7.1384,-17.574 -0.9603,-5.975 1.5984,-13.78 2.6623,-19.736 1.3737,-7.69 2.3621,-15.023 2.7321,-22.823 l 1.2016,-34.742 -0.373,-10.817 c -0.0387,-0.785 -0.4068,-2.845 -0.1878,-3.534 0.918,-2.888 5.2052,-5.638 6.4613,-9.045 2.8264,-7.666 4.7724,-16.062 6.6804,-23.999 0.524,-2.177 1.496,-8.893 2.633,-10.379 1.695,-2.213 5.591,-3.936 7.647,-6.106 4.503,-4.753 8.37,-11.105 12.252,-16.431 0.041,4.926 0.782,11.254 -0.466,15.999 -1.649,6.269 -5.458,12 -6.256,18.549 z m 354.025,100.879 c -2.208,2.094 -3.041,6.112 -3.063,9.136 -0.016,2.047 0.609,4.14 2.08,5.625 3.106,3.138 13.507,3.683 17.737,3.636 l 2.344,-1.897 -0.093,-1.042 -12.471,-10.936 c -1.787,-1.617 -4.102,-4.187 -6.534,-4.522 z m 70.707,0 -17.712,15 0.415,1.598 c 0.949,0.291 1.932,0.68 2.917,0.803 4.9,-0.288 12.596,0.235 16.135,-3.623 1.981,-2.16 2.015,-4.411 1.838,-7.211 -0.155,-2.456 -0.567,-3.936 -2.032,-5.964 z m -41.544,50.25 -13.207,5.676 c 0.818,3.433 1.644,10.846 4.174,12.877 2.696,-2.607 2.974,-9.144 4.126,-12.905 l 0.878,-1.523 c 1.436,4.979 3.042,10.758 5.531,15.321 2.185,-4.846 3.827,-8.653 4.177,-14.08 l -3.716,-5.469 z m 9.208,0 c -1.53,2.665 -1.304,6.309 -0.569,9.213 0.717,2.832 1.762,5.951 3.333,8.403 l 1.553,-0.366 0.857,-1.41 c 2.033,-5.164 3.279,-9.773 4.024,-15.273 z m 11.687,2.25 c -2.345,5.979 1.778,14.433 2.51,20.625 0.593,5.014 0.533,9.98 0.04,15 -0.331,3.366 -3.048,11.014 -2.096,13.425 1.198,-1.095 2.49,-2.146 3.474,-3.443 4.266,-8.315 9.304,-26.325 6.564,-35.236 -1.019,-3.314 -3.583,-7.431 -6.695,-9.074 -1.056,-0.558 -2.59,-1.285 -3.797,-1.297 z m -36.751,5.25 -5.558,3.752 c -1.658,8.555 -0.371,19.142 3.664,26.998 l 1.59,1.762 2.067,-32.102 z m 131.975,-0.539 -12.505,15.245 c -5.528,6.217 -13.667,12.694 -17.701,19.869 l 0.702,1.03 c 7.808,-1.704 16.069,-9.767 20.294,-16.277 3.846,-5.927 7.678,-12.948 9.21,-19.867 z m -83.791,79.002 c -3.027,7.438 -5.307,15.042 -7.721,22.693 -1.167,3.698 -2.11,8.375 -4.137,11.621 -1.238,1.983 -3.186,3.777 -5.389,4.605 -4.13,1.554 -13.083,1.281 -17.006,-0.654 -1.59,-0.785 -2.847,-2.853 -3.668,-4.385 -5.099,-9.51 -7.059,-22.093 -10.919,-32.356 0.117,2.518 0.117,5.087 0.603,7.564 1.89,9.776 4.744,30.364 13.625,36.001 2.872,1.823 13.725,1.589 16.911,0.722 3.59,-0.978 6.8,-4.428 8.426,-7.652 2.388,-4.737 3.56,-10.243 4.867,-15.367 1.872,-7.345 4.014,-15.2 4.408,-22.792 z"
       id="path2-8" />
    <path
       transform="matrix(0.142578,0,0,0.142578,0,-7.62939e-6)"
       d="m 184.539,384.031 0.624,-0.63 z"
       id="path3-5" />
    <path
       transform="matrix(0.142578,0,0,0.142578,0,-7.62939e-6)"
       d="m 343.588,447.182 0.786,0.645 z"
       id="path4-2" />
    <path
       transform="matrix(0.142578,0,0,0.142578,0,-7.62939e-6)"
       d="m 406.603,511.679 0.754,0.589 z"
       id="path5-1" />
    <path
       transform="matrix(0.142578,0,0,0.142578,0,-7.62939e-6)"
       d="m 408.167,513.01 -0.81,-0.742 z"
       id="path6-6" />
    <path
       transform="matrix(0.142578,0,0,0.142578,0,-7.62939e-6)"
       d="m 391.782,516.004 0.604,0.834 z"
       id="path7-9" />
    <path
       transform="matrix(0.142578,0,0,0.142578,0,-7.62939e-6)"
       d="m 410.45,550.682 0.672,0.622 z"
       id="path8-8" />
  </g>
  <g
     id="g2"
     transform="matrix(1.0002239,0,0,0.84912065,-169.20287,-139.95637)">
    <path
       fill="#af1613"
       d="m 461.16123,652.42104 c 2.56653,-3.12101 6.14616,-5.35639 10.22627,-5.76015 4.01835,-0.39765 7.92893,0.78519 11.04533,3.35574 3.22021,2.6563 5.20029,6.52172 5.58451,10.66457 0.37196,4.0101 -0.89963,8.14599 -3.47952,11.24073 l -23.33381,23.51814 -15.36322,-15.5709 3.63398,0.0134 11.69975,11.95503 c 0.24492,-0.17777 0.46411,-0.44137 0.67826,-0.65592 l 1.20217,-1.2047 4.25912,-4.24794 10.14427,-10.14134 3.0463,-3.04114 c 1.11112,-1.11234 2.22372,-2.16855 3.07867,-3.50103 1.88486,-2.93766 2.38752,-6.44509 1.65165,-9.83401 -0.74255,-3.4199 -2.74177,-6.34953 -5.69247,-8.24005 -2.64969,-1.69769 -5.9675,-2.41777 -9.0636,-1.7252 -4.12997,0.92379 -7.08392,3.61388 -9.28401,7.10435 l -0.0802,-0.037 z"
       id="path2-9"
       style="stroke-width:0.0681122" />
    <path
       fill="#e7342a"
       d="m 445.84079,679.86917 -7.69367,-7.87095 c -2.67216,-2.91792 -3.96793,-6.86188 -3.78279,-10.7901 0.18833,-3.99681 1.94793,-7.94344 4.92075,-10.64394 2.98617,-2.7125 6.8456,-4.12582 10.88008,-3.92074 3.32407,0.16892 6.65155,1.52388 9.12007,3.76203 0.44803,0.40617 0.88579,0.8318 1.28547,1.28596 0.20011,0.22742 0.36536,0.48407 0.56941,0.70693 l 0.0211,0.0227 -0.0465,3.89254 0.0802,0.037 c 2.20008,-3.49046 5.15403,-6.18054 9.284,-7.10434 3.09611,-0.69257 6.41392,0.0275 9.06361,1.7252 2.95067,1.89052 4.9499,4.82015 5.69247,8.24006 0.73588,3.38891 0.23322,6.89634 -1.65166,9.83401 -0.85493,1.33247 -1.96754,2.38868 -3.07866,3.50103 l -3.0463,3.04113 -10.14428,10.14134 -4.25911,4.24795 -1.20218,1.20469 c -0.21415,0.21456 -0.43334,0.47815 -0.67826,0.65594 l -11.69975,-11.95504 z"
       id="path3-4"
       style="stroke-width:0.0681122" />
    <path
       fill="#ef957e"
       d="m 442.91348,673.17642 -0.039,-0.0157 c -0.13541,-0.0683 -0.26993,-0.21592 -0.38334,-0.31924 l -0.89343,-0.864 c -0.51724,-0.50124 -1.07358,-0.9704 -1.56576,-1.49622 -1.16519,-1.24454 -2.07462,-2.86512 -2.62285,-4.4753 -1.07719,-3.16407 -0.87096,-6.77633 0.62309,-9.77584 1.49873,-3.00886 4.17874,-5.39938 7.37523,-6.47099 3.06614,-1.02787 6.42589,-0.79596 9.32835,0.64795 2.29545,1.14197 3.91154,2.81065 5.38488,4.87587 0.21843,0.30624 0.62737,0.74045 0.74357,1.08639 l -0.0331,-0.0227 c -0.62533,-0.43476 -1.17439,-0.94157 -1.82887,-1.34439 -2.6589,-1.63646 -5.88012,-2.19989 -8.94706,-1.66835 -3.19433,0.55362 -5.97622,2.40014 -7.82805,5.045 -1.83235,2.61707 -2.56081,6.11006 -1.99698,9.24621 0.35534,1.97675 1.26566,4.09605 2.6834,5.55126 z"
       id="path4-8"
       style="stroke-width:0.0681122" />
    <text
       xml:space="preserve"
       style="font-style:normal;font-variant:normal;font-weight:normal;font-stretch:normal;font-size:148.144px;font-family:Amiri;-inkscape-font-specification:'Amiri, Normal';font-variant-ligatures:normal;font-variant-caps:normal;font-variant-numeric:normal;font-variant-east-asian:normal;fill:#e8312c;fill-opacity:1;stroke:#000000;stroke-width:0.269287;stroke-dasharray:none;stroke-opacity:1;paint-order:markers fill stroke"
       x="529.0498"
       y="735.26105"
       id="text1-8"><tspan
         sodipodi:role="line"
         id="tspan1-2"
         x="529.0498"
         y="735.26105">Will:-1</tspan></text>
    <rect
       style="fill:#ef957e;fill-opacity:1;stroke:none;stroke-width:0.499792;paint-order:markers fill stroke"
       id="rect1-4"
       width="53.548679"
       height="2.2158067"
       x="434.49335"
       y="658.38293" />
    <path
       fill="#37b2df"
       d="m 451.8193,621.49996 c 9.12913,0.41534 11.10891,-0.10056 20.02396,0.10644 0.30265,2.94642 0.41682,5.84348 1.15743,8.73237 0.27275,1.06425 0.61602,2.21895 1.24563,3.13052 l 20.02884,5.67374 5.0134,1.3092 c 2.4174,0.5843 4.7771,1.07225 6.9577,2.33525 2.7378,1.58558 4.8963,4.10145 6.3336,6.89444 2.214,4.30246 2.235,9.22697 2.9408,13.91725 l -13.8195,6.29428 -1.7786,0.84889 c -0.3688,0.15858 -0.7997,0.27486 -1.1342,0.49022 l -0.7422,4.52128 -1.6516,7.02915 -2.98662,10.1381 -4.0143,11.95049 c -2.4754,8.25136 -3.13596,17.05139 -1.53106,25.53428 1.09839,5.80527 3.23882,11.34021 5.01966,16.95369 -0.16778,0.24465 -0.70284,0.45156 -0.97665,0.592 -1.38457,0.70679 -2.82743,1.29124 -4.29838,1.79263 -8.84685,3.01439 -17.89169,4.05946 -27.20701,3.88277 -10.17825,-0.19331 -20.3618,-1.88475 -29.56369,-6.40633 0.62054,-1.19912 1.09989,-2.52811 1.57137,-3.79519 l 2.35534,-7.14634 c 1.12315,-3.7982 2.08093,-7.66434 2.43099,-11.6196 1.0934,-12.35357 -4.13421,-23.93164 -7.99266,-35.33 -1.64403,-4.85611 -2.88845,-9.96094 -3.9983,-14.96369 l -0.45321,-2.97542 c -2.0761,-0.74983 -4.10025,-1.95633 -6.09102,-2.91955 l -10.46625,-5.06814 0.87396,-6.47174 c 1.06531,-6.33323 3.94665,-12.25872 10.16603,-14.85583 2.8019,-1.17013 6.02002,-1.80351 8.95663,-2.57946 l 14.12989,-3.98607 4.17907,-1.24714 c 1.00385,-0.30219 2.19661,-0.563 3.05049,-1.17011 1.8186,-3.50748 2.15855,-7.70241 2.27046,-11.59242 z"
       id="path5-5"
       sodipodi:nodetypes="ccccccccccccccccccccccccscccccccccccc"
       style="fill:none;stroke:#e8312c;stroke-width:2.63227;stroke-dasharray:none;stroke-opacity:1" />
    <path
       fill="#26A4D4"
       d="m 461.94295,697.78874 0.0784,0.0662 0.0552,43.01425 -0.1015,0.20348 c -0.15236,-1.15785 -0.11118,-2.40653 -0.14255,-3.57649 l -0.18045,-4.66046 -0.29976,-14.06493 0.27638,-11.09147 0.18543,-7.45781 c 0.0372,-0.81352 -0.019,-1.6279 0.12886,-2.43282 z"
       id="path6-5"
       style="fill:#e8312c;fill-opacity:1;stroke-width:0.121114" />
    <path
       fill="#26A4D4"
       d="m 498.70556,662.30772 c -0.1814,1.4787 -0.5573,2.95829 -0.9148,4.40314 -0.3709,1.49901 -0.7611,3.0717 -1.3682,4.49489 -0.4939,1.15757 -1.2068,2.27603 -1.8363,3.36681 -1.93611,3.35477 -3.88966,6.53748 -6.71934,9.23149 -3.79353,3.61168 -8.49658,5.38909 -13.72699,5.26891 l -0.0838,-0.0492 -0.0192,-0.0953 1.0028,-0.2745 c 5.57078,-1.49358 10.40469,-4.98147 13.94297,-9.50209 2.51006,-3.20692 4.46767,-6.85905 6.3643,-10.44982 z"
       id="path7-1"
       style="fill:#e8312c;fill-opacity:1;stroke-width:0.15484;stroke-dasharray:none" />
    <path
       fill="#26A4D4"
       d="m 423.26805,660.79202 c 0.32229,0.38209 0.50517,1.23929 0.69274,1.71833 l 1.42927,3.42003 c 1.01804,2.27621 2.08243,4.53564 3.32202,6.70114 3.66394,6.40014 8.63542,13.00945 15.92373,15.44257 1.08448,0.362 2.2851,0.68246 3.41777,0.84119 0.9762,0.13668 1.97309,0.15978 2.9268,0.41848 l -1.51732,0.11069 c -5.67932,0.26579 -11.36211,-1.78055 -15.56459,-5.59687 -3.96477,-3.60035 -6.4521,-8.3373 -8.33277,-13.28296 -1.16725,-3.06996 -2.14512,-6.47731 -2.29765,-9.77261 z"
       id="path8-7"
       style="fill:#e8312c;fill-opacity:1;stroke-width:0.151022" />
  </g>
</svg>
