<?xml version="1.0" encoding="UTF-8" standalone="no"?>
<svg
   width="63mm"
   height="88mm"
   version="1.1"
   id="svg49"
   sodipodi:docname="card-fate-strong-evade.svg"
   inkscape:version="1.3.2 (091e20e, 2023-11-25, custom)"
   viewBox="0 0 238.11054 332.59885"
   xml:space="preserve"
   xmlns:inkscape="http://www.inkscape.org/namespaces/inkscape"
   xmlns:sodipodi="http://sodipodi.sourceforge.net/DTD/sodipodi-0.dtd"
   xmlns="http://www.w3.org/2000/svg"
   xmlns:svg="http://www.w3.org/2000/svg"><sodipodi:namedview
     id="namedview49"
     pagecolor="#ffffff"
     bordercolor="#000000"
     borderopacity="0.25"
     inkscape:showpageshadow="2"
     inkscape:pageopacity="0.0"
     inkscape:pagecheckerboard="0"
     inkscape:deskcolor="#d1d1d1"
     inkscape:zoom="1.8488365"
     inkscape:cx="65.446566"
     inkscape:cy="194.17618"
     inkscape:window-width="2560"
     inkscape:window-height="1476"
     inkscape:window-x="-12"
     inkscape:window-y="-12"
     inkscape:window-maximized="1"
     inkscape:current-layer="svg49"
     inkscape:document-units="mm" /><defs
     id="defs17"><linearGradient
       id="gradient_0"
       gradientUnits="userSpaceOnUse"
       x1="787.83301"
       y1="417.13614"
       x2="896.2948"
       y2="336.46844"><stop
         offset="0"
         stop-color="#167F8A"
         id="stop16" /><stop
         offset="1"
         stop-color="#159BA9"
         id="stop17" /></linearGradient><linearGradient
       id="gradient_0-2"
       gradientUnits="userSpaceOnUse"
       x1="439.11206"
       y1="464.522"
       x2="373.02579"
       y2="386.0676"><stop
         offset="0"
         stop-color="#FEA902"
         id="stop24-7" /><stop
         offset="1"
         stop-color="#FEC100"
         id="stop25-8" /></linearGradient><linearGradient
       id="gradient_0-8"
       gradientUnits="userSpaceOnUse"
       x1="505.63708"
       y1="183.79691"
       x2="171.41376"
       y2="155.43059"><stop
         offset="0"
         stop-color="#EEA800"
         id="stop3" /><stop
         offset="1"
         stop-color="#FEF49E"
         id="stop4" /></linearGradient><linearGradient
       id="gradient_1-2"
       gradientUnits="userSpaceOnUse"
       x1="297.28619"
       y1="286.58209"
       x2="163.5318"
       y2="635.06488"><stop
         offset="0"
         stop-color="#BE8500"
         id="stop5" /><stop
         offset="1"
         stop-color="#FFEA5F"
         id="stop6" /></linearGradient><linearGradient
       id="gradient_2"
       gradientUnits="userSpaceOnUse"
       x1="690.96869"
       y1="886.34503"
       x2="530.02826"
       y2="327.17783"><stop
         offset="0"
         stop-color="#936602"
         id="stop7" /><stop
         offset="1"
         stop-color="#E6AB0B"
         id="stop8" /></linearGradient><linearGradient
       id="gradient_0-6"
       gradientUnits="userSpaceOnUse"
       x1="756.237"
       y1="543.65344"
       x2="570.92169"
       y2="327.42014"><stop
         offset="0"
         stop-color="#9650B5"
         id="stop1" /><stop
         offset="1"
         stop-color="#B262D0"
         id="stop2" /></linearGradient><linearGradient
       id="gradient_1-21"
       gradientUnits="userSpaceOnUse"
       x1="431.04391"
       y1="954.88794"
       x2="538.14734"
       y2="89.44886"><stop
         offset="0"
         stop-color="#002757"
         id="stop3-8"
         style="stop-color:#000000;stop-opacity:1;" /><stop
         offset="1"
         stop-color="#4B448F"
         id="stop4-0" /></linearGradient></defs><defs
     id="defs25"><linearGradient
       id="gradient_1"
       gradientUnits="userSpaceOnUse"
       x1="567.4491"
       y1="699.04437"
       x2="868.41522"
       y2="779.63495"><stop
         offset="0"
         stop-color="#176366"
         id="stop24"
         style="stop-color:#000000;stop-opacity:1;" /><stop
         offset="1"
         stop-color="#157C89"
         id="stop25" /></linearGradient></defs><g
     id="g54"
     transform="matrix(0.45363362,0,0,0.41404913,71.2204,189.86629)"><path
       fill="url(#gradient_1)"
       transform="matrix(0.15332,0,0,0.15332,3.05176e-5,-1.52588e-5)"
       d="m 700.17887,737.969 c -3.5693,28.14359 0.94813,44.789 1.57413,67.734 1.426,52.315 23.401,99.902 57.568,138.992 5.883,6.729 12.386,12.96 18.791,19.186 -76.874,27.234 -161.188,24.811 -235.179,-10.351 -6.913,-3.285 -14.525,-6.663 -20.861,-10.923 34.184,-1.976 68.506,-12.477 100.011,-25.454 l 10.45,-4.544 c 1.617,-0.724 3.536,-1.351 4.924,-2.451 -4.325,1.008 -8.644,2.966 -12.871,4.362 -7.07,2.337 -14.285,4.306 -21.571,5.845 -38.202,8.073 -79.075,8.445 -116.56,-3.331 -16.17,-5.079 -31.793,-12.757 -46.182,-21.664 -9.595,-5.94 -18.149,-12.74 -26.541,-20.232 -3.538,-3.159 -7.274,-6.253 -10.486,-9.743 9.345,0.921 18.587,2.444 27.979,2.945 34.961,1.865 71.83,-3.149 104.951,-14.492 -11.748,0.751 -23.255,2.573 -35.092,2.752 -15.522,0.236 -31.474,-0.338 -46.834,-2.726 -43.016,-6.691 -84.107,-26.59 -116.699,-55.338 -11.301,-9.968 -21.977,-21.434 -31.233,-33.293 -3.208,-4.11 -7.023,-8.702 -9.229,-13.459 18.772,7.806 37.874,13.644 57.963,16.97 35.124,5.815 70.614,3.765 105.729,-0.852 l -31.469,-2.832 c -21.934,-2.663 -44.647,-7.034 -65.72,-13.743 -12.236,-3.896 -23.82,-9.381 -35.186,-15.295 -30.781,-16.015 -57.58,-36.636 -79.843,-63.403 -17.762,-21.357 -32.205,-45.675 -41.874,-71.745 l 29.937,17.651 c 34.525,18.194 72.64,32.19 111.012,39.503 10.964,2.09 22.352,4.187 33.54,4.455 -10.745,-2.956 -21.45,-5.338 -31.998,-9.042 -45.88,-16.112 -88.929,-42.307 -122.244,-77.916 -15.257,-16.308 -28.423,-34.767 -39.405,-54.193 -13.554,-23.976 -23.59,-51.41 -30.089,-78.108 -0.9,-3.697 -2.703,-8.967 -2.62,-12.769 l 0.119,-0.379 c 17.105,20.094 38.936,36.966 61.009,51.232 23.818,15.394 48.544,28.381 75.115,38.35 7.559,2.836 15.022,5.769 22.843,7.823 L 293.801,517.078 C 275.517,506.476 258.351,493.88 242.044,480.466 217.918,460.619 195.576,438.415 177.03,413.2 c -19.174,-26.071 -34.27,-55.866 -44.339,-86.599 -7.428,-22.674 -12.299,-45.931 -13.945,-69.757 -0.536,-7.745 -0.412,-15.568 -0.437,-23.329 20.701,33.078 44.83,63.049 73.019,90.048 l 27.715,24.866 c -2.072,-4.446 -6.964,-8.32 -10.166,-12.076 l -13.606,-16.481 -17.576,-23.819 c -16.572,-24.202 -30.136,-48.761 -40.57,-76.233 -3.478,-9.157 -6.146,-18.859 -8.663,-28.32 -6.719,-25.26 -10.624,-50.702 -11.211,-76.847 -0.498,-22.1986 1.396,-44.4173 9.059,-65.4091 l 4.504,-10.568 4.423,14.4483 c 3.968,11.5865 8.795,23.0326 14.311,33.9679 10.893,21.5959 24.843,41.3329 39.088,60.7989 23.996,32.79 50.774,64.277 79.536,92.971 42.543,42.44 90.652,80.557 140.319,114.298 l 94.518,60.013 c 28.28,16.888 56.816,33.345 83.842,52.225 l 31.718,24.583 c 40.431,33.675 77.121,76.082 86.189,129.524 3.027,17.836 4.96585,55.86282 -2.58385,73.72382 1.384,-2.905 4.71985,-26.35982 5.55685,-29.45282 z"
       id="path4"
       style="fill:#000000;fill-opacity:0.200737"
       sodipodi:nodetypes="ccccsccccccccccscccssccccccccccccccsccssccccccccccccscccccccccccccccc" /><path
       fill="#1aaaa1"
       transform="matrix(0.15332,0,0,0.15332,3.05176e-5,-1.52588e-5)"
       d="m 351.177,785.663 c 19.135,7.049 38.355,11.596 58.323,15.477 41.992,8.162 84.524,11.7 127.25,12.636 31.701,0.695 63.289,-0.144 94.86,3.433 -1.745,1.317 -4.634,2.129 -6.689,2.94 l -13.797,5.448 c -38.525,14.033 -81.818,22.277 -122.899,20.366 -38.775,-1.805 -80.17,-13.98 -111.725,-36.993 -9.295,-6.779 -17.585,-14.815 -25.323,-23.307 z"
       id="path5"
       style="fill:#ffffff;fill-opacity:1" /><path
       fill="#1aaaa1"
       transform="matrix(0.15332,0,0,0.15332,3.05176e-5,-1.52588e-5)"
       d="m 253.964,647.923 30.379,16.163 c 23.686,11.605 48.806,20.971 74.043,28.597 l 50.864,13.018 43.51,10.6 53.019,12.921 c 28.1,7.709 55.623,18.44 82.744,29.028 l 24.175,9.425 c 3.054,1.231 6.677,2.219 9.384,4.075 -1.736,0.089 -3.751,-0.714 -5.459,-1.091 l -8.385,-1.553 c -11.718,-2.025 -23.376,-3.983 -35.242,-4.926 l -75.838,-2.232 c -20.316,-0.643 -40.605,-2.3 -60.667,-5.581 -33.549,-5.488 -66.049,-15.687 -95.991,-31.931 -34.036,-18.464 -63.93,-45.141 -86.536,-76.513 z"
       id="path6"
       style="fill:#ffffff;fill-opacity:1" /><path
       fill="#1aaaa1"
       transform="matrix(0.15332,0,0,0.15332,3.05176e-5,-1.52588e-5)"
       d="m 197.363,494.384 18.287,12.948 c 10.575,7.281 21.429,14.159 32.687,20.335 62.968,34.544 131.144,58.686 195.276,90.869 l 58.321,31.635 c 29.424,17.916 57.334,38.176 85.149,58.446 l 37.564,27.114 c -3.985,-1.344 -7.647,-3.326 -11.47,-5.049 L 587.02,718.735 c -19.362,-8.6 -39.412,-16.033 -59.464,-22.851 L 386.25,655.3 C 322.766,634.93 262.583,596.23 223.92,541.079 213.488,526.199 205.643,510.465 197.363,494.384 Z"
       id="path7"
       style="fill:#ffffff;fill-opacity:1" /><path
       fill="#1aaaa1"
       transform="matrix(0.15332,0,0,0.15332,3.05176e-5,-1.52588e-5)"
       d="m 137.685,287.666 c 3.601,2.863 6.714,6.667 9.882,10.007 8.604,9.071 16.766,18.62 25.825,27.248 27.645,26.331 59.016,49.407 91.007,70.19 l 127.559,74.963 73.389,39.597 32.097,18.155 c 26.522,16.482 52.05,35.586 74.426,57.389 23.092,22.5 42.158,50.36 48.575,82.446 1.874,9.368 2.243,18.693 2.363,28.211 -3.559,-2.755 -6.711,-6.57 -9.986,-9.693 L 595.056,670.216 C 575.591,653.576 553.846,639.011 532.055,625.625 476.49,591.491 413.184,572.408 355.214,542.945 317.033,523.54 282.735,497.631 251.628,468.316 229.651,447.604 208.867,424.821 191.94,399.75 c -16.689,-24.719 -30.15,-51.234 -41.438,-78.792 -4.486,-10.951 -9.144,-22.046 -12.817,-33.292 z"
       id="path9"
       style="fill:#ffffff;fill-opacity:1" /><path
       fill="#6cdac5"
       transform="matrix(0.15332,0,0,0.15332,3.05176e-5,-1.52588e-5)"
       d="m 138.553,114.431 c 2.696,3.962 4.572,8.746 6.697,13.051 l 10.912,21.454 c 8.62,16.473 18.968,32.497 29.57,47.777 16.588,23.907 35.006,46.897 55.017,68.041 63.883,67.502 142.757,120.793 222.751,167.254 l 67,40.484 c 34.697,21.785 69.202,44.248 96.705,75.095 16.888,18.943 31.634,40.736 39.637,64.975 7.874,23.85 9.445,48.965 8.515,73.922 l -3.648,55.266 c -0.946,17.897 -1.385,36.226 0.455,54.067 5.28,51.197 28.059,97.079 62.309,135.039 l 1.277,1.886 c -1.448,-0.294 -2.308,-1.023 -3.488,-1.856 -45.685,-32.266 -79.397,-78.671 -93.646,-133.018 -4.511,-17.206 -6.728,-35.262 -7.436,-53.023 -1.085,-27.208 2.411,-54.751 -2.376,-81.714 C 625.576,644.948 617.764,627.523 607.939,612 595.988,593.117 580.411,576.521 563.663,561.835 531.487,533.622 494.954,511.948 457.922,490.834 L 402.621,459.288 333.942,415.961 C 307.558,397.496 282.296,377.396 259.455,354.642 248.63,343.858 238.627,332.186 228.963,320.361 201.067,286.228 176.604,247.317 161.156,205.895 155.392,190.442 150.445,174.412 146.75,158.335 Z"
       id="path10"
       style="fill:#ffffff;fill-opacity:1" /></g><path
     fill="#020102"
     d="m 151.42821,61.502243 c 2.8022,-0.07033 5.60361,-0.159616 8.4042,-0.267892 1.49318,-0.05092 3.01982,-0.169813 4.5102,-0.144262 0.32715,0.0056 0.71102,0.0096 1.01294,0.123227 0.73741,0.277584 4.53827,2.635468 5.10889,3.17682 0.20458,0.194051 0.349,0.36588 0.39779,0.630636 0.25157,1.364656 0.016,3.624091 -0.0284,5.098875 l -0.18932,7.906041 c -0.0305,0.887021 -0.21485,1.930945 -1.02629,2.550522 -0.34423,0.263031 -0.89821,0.334901 -1.34168,0.389261 -0.82105,0.10052 -1.67221,0.116 -2.50026,0.1578 -1.72176,0.0822 -3.44413,0.151831 -5.16715,0.208741 -1.67531,0.0638 -3.40795,0.25695 -5.07992,0.18787 -0.11057,0.39072 -0.20984,0.73096 -0.50361,1.05602 -0.27476,0.30379 -0.64992,0.51123 -1.07635,0.61533 -0.87238,0.21285 -1.93686,0.11129 -2.84153,0.12859 -0.93123,0.02 -1.81282,0.0268 -2.74016,0.10349 0.20329,2.12728 0.15532,2.62567 0.21489,4.55205 l 0.10994,10.89972 -0.44683,28.412548 0.076,13.52493 c -0.0858,5.15093 -0.0962,6.94798 -0.48945,12.5845 l -3.00043,1.37508 c -2.64948,0.58073 -3.44617,0.56393 -6.498,-0.8037 l -1.33613,-3.52192 c -0.13344,-1.79494 -0.65994,-15.03563 -0.65795,-17.02057 l -0.1413,-12.0942 -0.0233,-18.7624 0.55659,-12.665998 c 0.0567,-1.57819 0.28305,-4.42725 -0.17564,-5.86302 -0.53806,0.02 -1.09748,0.0832 -1.63081,-3.5e-4 -1.41102,-0.22127 -2.33708,-0.94012 -3.98434,-1.02968 -1.2283,-0.0669 -2.52125,0.0581 -3.75454,0.10367 -2.95344,0.10918 -5.90509,0.27801 -8.85938,0.35987 -1.25805,0.035 -2.17181,0.52618 -5.16671,0.002 -1.37843,-1.39161 -2.00321,-2.03794 -3.39881,-6.922547 -0.37271,-5.064575 0.0403,-4.808302 0.0706,-5.933625 0.54676,-2.541633 0.88085,-4.971061 2.65767,-6.914293 0.28626,-0.295198 0.63611,-0.538704 1.06878,-0.640426 1.28094,-0.301086 2.85537,-0.191396 4.18253,-0.248136 l 7.9127,-0.313866 c 1.41487,-0.05253 2.84794,-0.05871 4.25787,-0.170307 0.5603,-0.415607 1.19346,-0.855924 1.93019,-0.995366 1.41797,-0.268198 3.87887,-0.208613 5.43831,-0.290723 l 7.79705,-0.396017 c 1.35475,-0.06703 2.72377,-0.195345 4.08087,-0.176065 0.91226,0.01305 1.66123,0.48069 2.27026,1.02832 z"
     id="path2"
     sodipodi:nodetypes="ccccccccccccccccccccccccccccccccscccccccccccccc"
     style="fill:#020102;fill-opacity:0.198171;stroke-width:0.131892" /><path
     fill="#fef796"
     d="m 167.95138,62.997567 q 1.12137,0.676084 2.19766,1.405727 c -1.13507,0.08029 -2.29508,0.0519 -3.43569,0.108062 q -5.23306,0.300224 -10.47066,0.532495 c -0.31163,-1.190325 -1.36939,-1.636263 -2.45161,-2.260793 -0.57142,-0.352142 -1.23419,-0.35947 -1.90703,-0.357994 l -0.34308,-0.719781 c 2.38111,-0.09638 4.76436,-0.142744 7.14611,-0.226545 1.29705,-0.04556 5.36469,-0.34188 6.36998,-0.120302 0.76922,0.169469 2.16546,1.211325 2.89432,1.639131 z"
     id="path3"
     style="fill:#ffffff;fill-opacity:1;stroke-width:0.131892" /><path
     fill="#fef796"
     d="m 153.5151,62.782655 c 0.64331,0.358324 1.25495,0.79381 1.86894,1.191289 -2.08769,0.11325 -4.17426,0.160614 -6.26181,0.256257 l -12.16052,0.56767 c -0.44166,0.01923 -2.69565,0.243715 -2.92295,0.197874 -0.33223,-0.06699 -0.99938,-0.712273 -1.2898,-0.933037 -0.80548,-0.612249 -1.66156,-1.193693 -2.57069,-1.685014 0.4951,-0.343414 1.05062,-0.692755 1.67325,-0.823022 1.43013,-0.299336 3.12669,-0.197271 4.60186,-0.265644 l 9.55179,-0.47657 c 1.24478,-0.03085 2.86693,-0.370771 4.0464,0.06312 0.28417,0.104521 0.55226,0.296233 0.80171,0.453781 -4.38622,0.165251 -8.8013,0.350266 -13.17769,0.643172 -1.43571,0.096 -2.94414,0.0508 -4.35473,0.310431 0.38343,0.509054 0.79062,0.873622 1.32927,1.260304 q 7.28918,-0.221563 14.5676,-0.630002 c 1.14586,-0.05715 2.29671,-0.295809 3.43611,-0.322868 0.3039,-0.0072 0.5824,0.09838 0.86129,0.192223 z"
     id="path4-6"
     style="fill:#ffffff;fill-opacity:1;stroke-width:0.131892" /><path
     fill="#fef796"
     d="m 130.74875,62.853987 c 1.0382,0.635012 2.38217,1.431731 3.14689,2.31059 0.007,0.127359 0.002,0.198913 -0.097,0.307094 -0.0925,0.100642 -0.26955,0.154573 -0.41044,0.17517 -0.52813,0.07737 -1.1347,0.03966 -1.67471,0.06805 -1.44354,0.07596 -2.87933,0.163441 -4.32513,0.21454 l -10.02368,0.431595 -0.34626,-0.432008 c -0.90398,-1.228131 -1.83656,-2.017547 -3.32495,-2.692123 0.0417,-0.0091 0.0832,-0.01861 0.12489,-0.02705 0.92896,-0.186815 1.9974,-0.131913 2.95337,-0.165696 l 4.84453,-0.186384 5.77341,-0.22278 c 0.84361,-0.03194 1.75941,-0.133347 2.59996,-0.09775 0.27268,0.01163 0.53242,0.190663 0.75915,0.316749 z"
     id="path5-3"
     style="fill:#ffffff;fill-opacity:1;stroke-width:0.131892" /><path
     fill="#a13be1"
     d="m 114.09619,63.570711 c 1.26394,0.68614 2.56619,1.787469 3.12711,3.011228 0.86927,1.896087 0.45198,8.809829 0.36175,11.177406 -0.0472,1.239957 -0.003,2.526486 -0.18809,3.755537 -0.0711,0.4716 -0.20605,0.87098 -0.42936,1.30375 -0.71942,0.50968 -1.41547,0.54569 -2.30227,0.56726 -0.27756,-0.0193 -0.559,-0.0345 -0.822,-0.12071 -1.07258,-0.35162 -1.78584,-1.55441 -2.20612,-2.421071 -2.11588,-4.363874 -1.98781,-11.129127 0.0681,-15.471398 0.29393,-0.620801 0.77149,-1.694763 1.55862,-1.940524 0.313,-0.09773 0.55431,0.02311 0.8323,0.138522 z"
     id="path6-0"
     style="fill:#ffffff;fill-opacity:1;stroke-width:0.131892" /><path
     fill="#fd898a"
     d="m 147.97365,83.486062 c 0.33066,3.09642 -0.01,6.92545 -0.0495,9.74193 -0.0159,1.13672 0.164,3.0701 -0.0443,4.10777 l -0.37289,33.980958 c -0.0125,0.28769 -0.01,0.58281 -0.0438,0.86882 0.0654,0.7223 0.077,1.55399 0.0281,2.27812 0.10199,1.32761 0.0393,2.65645 0.0378,3.98599 0.0103,2.00409 0.005,4.0081 -0.0159,6.01207 -0.005,2.13708 0.0259,4.26886 -0.0593,6.4054 -0.0316,0.78906 -0.0106,1.65052 -0.17481,2.42742 -0.18536,0.0972 -0.39359,0.2317 -0.59449,0.29634 -1.06961,0.46927 -2.22631,0.80626 -3.43266,0.82898 -0.31338,0.0141 -1.33683,0.13196 -1.57193,-0.0599 -0.012,-0.01 -0.0194,-0.0234 -0.0292,-0.035 -0.0833,0.0619 -0.17908,0.0678 -0.28359,0.0905 -0.19776,-0.0602 -0.23348,-0.10634 -0.33541,-0.26984 -0.0137,-0.0219 -0.0262,-0.0442 -0.0394,-0.0663 l -0.0787,0.15923 c -0.12797,0.055 -0.19946,0.0384 -0.33876,0.0311 -0.22359,-0.0848 -0.30128,-0.21247 -0.43099,-0.38781 -0.0707,-0.0955 -0.0201,-0.0636 -0.13921,-0.0972 l -0.0365,0.16032 c -0.25885,-0.0258 -0.60049,-0.34774 -0.80324,-0.49447 0.0363,-0.29076 0.0778,-0.56105 0.0299,-0.85312 l -0.11817,0.74268 c -0.0663,-0.0788 -0.13047,-0.1588 -0.19253,-0.24005 -0.53956,-0.71196 -1.08596,-2.54511 -0.86622,-3.47545 -1.09903,-19.78507 -0.8513,-26.89666 -0.42445,-62.937598 -0.0326,-0.33115 -0.19672,-2.55795 0.0577,-2.81965 l 4.3869,-0.21683 z"
     id="path36"
     style="fill:#ffffff;fill-opacity:1;stroke-width:0.131892"
     sodipodi:nodetypes="cccccccccccccccccccsccccccccccc" /></svg>
