<?xml version="1.0" encoding="UTF-8" standalone="no"?>
<!-- Created with Inkscape (http://www.inkscape.org/) -->

<svg
   width="63mm"
   height="88mm"
   viewBox="0 0 63 88"
   version="1.1"
   id="svg1"
   inkscape:version="1.3.2 (091e20e, 2023-11-25, custom)"
   xml:space="preserve"
   sodipodi:docname="card-disorder-foot-left.svg"
   xmlns:inkscape="http://www.inkscape.org/namespaces/inkscape"
   xmlns:sodipodi="http://sodipodi.sourceforge.net/DTD/sodipodi-0.dtd"
   xmlns="http://www.w3.org/2000/svg"
   xmlns:svg="http://www.w3.org/2000/svg"><sodipodi:namedview
     id="namedview1"
     pagecolor="#ffffff"
     bordercolor="#000000"
     borderopacity="0.25"
     inkscape:showpageshadow="2"
     inkscape:pageopacity="0.0"
     inkscape:pagecheckerboard="0"
     inkscape:deskcolor="#d1d1d1"
     inkscape:document-units="mm"
     inkscape:zoom="2.0686842"
     inkscape:cx="110.94008"
     inkscape:cy="151.06221"
     inkscape:window-width="1350"
     inkscape:window-height="1017"
     inkscape:window-x="228"
     inkscape:window-y="0"
     inkscape:window-maximized="0"
     inkscape:current-layer="layer1" /><defs
     id="defs1" /><g
     inkscape:label="Layer 1"
     inkscape:groupmode="layer"
     id="layer1"><g
       id="g1"
       transform="matrix(0.06087197,0,0,0.06087197,0.03359486,0.54402301)"><path
         id="path8"
         style="fill:none;stroke:#e6e6e6;stroke-width:4.92838;stroke-dasharray:none;stroke-opacity:1"
         d="m 591.09783,-326.16731 -721.76276,-22.12973 c -2.62451,11.90738 -5.43243,23.81612 -7.52805,35.71501 -8.13524,46.20513 -10.53054,92.7477 -11.68147,139.57173 -1.0315,41.99255 -1.12448,85.130421 2.29302,127.003491 l 17.04628,134.098741 c 7.09014,42.831598 19.13194,85.298138 16.09446,129.209858 -1.57711,22.7932 -13.96426,43.99693 -21.56744,65.26478 -5.36757,15.01653 -10.62891,30.62486 -15.4671,46.57442 l 214.246629,9.17208 c -0.08989,-1.02657 -0.194135,-2.08971 -0.281211,-3.11484 -1.899975,-22.34003 -4.718622,-45.45302 -1.882033,-67.86076 3.22478,-25.46191 12.212078,-51.63819 20.507449,-75.84298 L 113.49924,96.615152 172.14445,-126.54407 c 15.05967,-70.20623 27.64286,-138.07954 30.60974,-209.98506 l 51.70128,0.2163 2.61748,38.24608 c 13.94684,132.95877 48.24249,266.941226 87.84902,394.422312 16.53358,53.214488 41.3769,105.155528 52.0474,159.927938 5.0137,25.72944 2.84955,51.88959 0,77.89792 l 210.36867,-7.62031 c -5.49217,-16.19067 -7.37925,-27.9544 -13.99027,-43.56185 l -16.28928,-37.81327 c -2.64365,-6.14566 -6.75706,-13.6817 -7.52803,-20.22605 -2.15525,-18.32015 1.32419,-38.80414 4.36974,-56.84997 L 596.67908,58.866702 c 23.75744,-129.492291 20.08001,-258.403022 -5.58125,-385.034012 z"
         sodipodi:nodetypes="cccccccccccccccccccccccccccc" /><path
         id="path2"
         style="fill:none;stroke:#000000;stroke-width:4.92838;stroke-dasharray:none;stroke-opacity:1"
         d="m 905.32915,-939.63859 -160.68509,68.09871 4.02378,46.5094 c 3.11877,25.0217 8.36246,50.4743 14.29886,74.9776 6.6015,27.2477 16.92644,54.7695 28.44657,80.3641 25.37188,56.38192 80.78468,145.81456 64.16146,209.55254 -0.50751,1.94895 -1.05161,3.811 -1.83875,5.66759 -7.73609,18.26831 -24.57747,32.71075 -33.61671,50.38174 -7.063,13.80031 -8.33437,29.70545 -10.29685,44.84386 l -6.55476,60.0513 c -0.72183,10.07342 -3.09716,21.17285 -0.69215,31.04252 l 4.54283,4.52098 c 7.84206,-1.50368 15.93692,-6.83661 21.06994,-12.95763 3.28442,-22.29097 5.01762,-59.63372 24.35796,-74.0475 2.97776,-2.21768 3.22,-2.04522 6.85741,-1.77377 10.40721,20.49679 10.91081,45.82434 3.87222,67.21153 -4.60917,14.00389 -12.35743,30.77419 -20.83202,42.91859 -7.56781,10.84423 -25.95575,24.65454 -29.52803,36.86153 -0.60124,2.05202 -0.0376,6.26466 -0.0424,8.54476 4.03635,4.79915 4.3871,5.50506 10.40505,6.98722 41.42252,-12.15809 95.88734,-41.89587 117.22564,-80.12616 6.22146,-11.15088 9.80342,-24.50448 11.57326,-37.09946 l 0.41095,-2.72569 c 2.01422,-14.66891 -0.96289,-31.51059 -2.27116,-46.22839 -1.92192,-21.5905 -3.06656,-42.84346 -2.33647,-64.52927 l 8.71805,-108.89706 c 9.69587,-110.76042 17.97657,-224.08273 -16.65697,-331.58033 -8.66725,-26.8982 -20.32998,-53.8212 -34.61172,-78.56871 z" /><path
         id="path5"
         style="fill:none;stroke:#000000;stroke-width:4.92838;stroke-dasharray:none;stroke-opacity:1"
         d="m 577.75072,-1521.1158 17.95485,375.386 c 23.08634,63.2621 62.92747,115.8229 90.07697,155.62301 l 35.23907,49.7975 c 6.16184,8.39591 15.68757,18.65621 19.53393,28.31671 3.04306,7.6385 2.36925,19.1159 2.96376,27.3218 l 1.12476,13.1309 160.68509,-68.09871 c -2.44695,-4.2399 -4.80971,-8.5642 -7.41992,-12.6549 l -18.56049,-27.3217 c -2.23128,-3.1596 -6.83092,-7.9994 -8.09062,-11.3137 -1.08033,-2.8447 -0.53192,-9.70861 -0.71374,-12.93611 l -2.44455,-35.5635 c -3.8518,-36.1945 -10.85143,-72.713 -23.51424,-106.9287 -10.77365,-29.1015 -24.2204,-58.1311 -39.71701,-85.0366 -6.58261,-11.4252 -16.42011,-22.8285 -21.76208,-34.5902 -1.68575,-3.7079 -1.51433,-7.7751 -1.51433,-11.7463 0,-68.3525 -19.60794,-141.4567 -69.46142,-190.7756 -28.1624,-27.8557 -68.07858,-47.9494 -107.83712,-51.1388 -6.4969,-0.5234 -18.84418,-0.066 -26.54291,-1.4711 z" /><path
         id="path3"
         style="fill:none;stroke:#000000;stroke-width:4.92838;stroke-dasharray:none;stroke-opacity:1"
         d="m -290.24664,-852.26548 -172.2799,-68.5097 c -5.99227,12.9326 -11.19891,26.1962 -15.48878,39.9765 -13.93591,44.7667 -19.79092,92.1645 -23.298,138.7714 -5.91481,78.64027 -3.09702,156.54965 2.76893,235.07854 l 7.57131,78.43889 c 1.90277,31.47946 -5.23392,61.38441 -5.51624,92.43502 -0.27686,30.37998 9.443,61.44198 28.35998,85.25312 20.26884,25.51297 59.41999,53.30684 92.24026,57.69346 2.97509,0.39893 4.79174,0.0768 7.57134,-0.88701 2.37243,-4.16406 2.3876,-4.38998 0.99508,-8.99906 -2.74431,-9.09878 -12.4889,-19.86211 -17.69525,-28.05716 -20.7492,-32.66833 -37.45115,-75.06303 -24.01189,-113.5049 l 4.11016,-3.09341 c 7.34523,2.29106 12.50381,8.49203 15.94302,15.18596 10.13298,19.71494 3.10901,52.14522 23.03844,65.39462 5.3176,0.51297 5.58408,0.6763 10.44841,-2.24976 9.4843,-23.24936 4.75655,-103.29377 -5.1485,-126.78729 -6.5906,-15.62961 -18.3045,-26.89309 -26.54288,-41.31768 -23.58309,-41.29224 -11.95477,-91.90293 4.30485,-133.3201 24.79104,-63.15433 64.38573,-119.08964 82.78692,-185.15114 8.75797,-31.4391 8.08245,-64.1952 9.84274,-96.3503 z" /><path
         id="path6"
         style="fill:none;stroke:#000000;stroke-width:4.92838;stroke-dasharray:none;stroke-opacity:1"
         d="m -107.66975,-1526.2209 c -0.10182,0.043 -0.22343,0.1534 -0.3245,0.1946 -6.53371,2.6603 -20.85147,0.6814 -28.46814,1.3845 -10.3991,0.9582 -20.82865,3.1742 -30.84773,6.0787 -61.12927,17.7144 -111.99196,63.1015 -135.61307,122.3741 -9.25088,23.214 -13.82489,48.9944 -16.87324,73.723 l -3.69912,43.7839 c -0.30672,4.0174 0.18651,12.5846 -1.2114,16.0944 -4.00382,10.0434 -16.94942,22.7984 -23.16825,32.5133 -18.44733,28.8139 -33.81483,59.8435 -44.90872,92.2187 -9.69334,28.2899 -15.78965,57.5184 -20.52909,87.0053 -3.5071,21.8323 -5.83819,45.087 -12.13573,66.30311 -3.66453,12.3453 -15.78231,24.4692 -22.43272,35.6933 -5.4282,9.1592 -10.22545,18.54031 -14.64508,28.07881 l 172.2799,68.5097 c 1.40246,-25.6192 4.31573,-50.8661 15.03445,-74.6965 11.48488,-25.53481 37.41547,-46.14741 54.44856,-68.66101 26.08244,-34.47321 79.25633,-104.54631 100.11446,-144.52561 z" /><path
         id="path4"
         style="fill:none;stroke:#000000;stroke-width:4.92838;stroke-dasharray:none;stroke-opacity:1"
         d="m 611.54028,330.76335 -214.57091,3.41807 c -0.96255,8.78524 -1.71391,17.62225 -2.68239,26.3266 -4.68792,42.12825 -9.60199,85.66906 -5.38647,128.0418 7.96146,79.93969 46.472,153.05503 62.60393,231.74712 6.42512,31.32477 12.11824,62.9081 13.17411,94.96583 0.86588,26.24905 -1.35853,53.283 1.03834,79.36903 1.7047,18.5668 7.14918,36.53702 10.059,54.8595 2.54891,16.04261 -3.08852,34.96311 -6.46801,50.8145 -6.93536,32.4922 -14.99549,66.6134 -15.98629,99.9199 -0.32579,10.9662 -0.91646,22.462 1.83876,33.1839 2.13092,8.2793 5.9484,16.1967 12.41697,21.9784 5.47505,4.9133 12.48708,7.5488 19.57722,9.1506 17.9045,4.0445 38.75677,3.1192 57.15264,3.4179 26.79963,0.4071 55.03876,1.7679 81.68346,-0.9734 8.30364,-0.8415 19.32313,-4.5128 24.98545,-10.946 6.23505,-7.0846 5.87734,-19.2837 4.8242,-28.1872 -4.10966,-34.6083 -23.69111,-61.1214 -39.69541,-90.7906 -19.33769,-35.8852 -38.91042,-81.39769 -41.92339,-122.11469 -1.99777,-27.00881 -0.18343,-55.26428 0.86531,-82.35424 2.56787,-66.45013 8.09759,-136.3821 24.57419,-200.98612 11.81063,-46.28153 32.77612,-93.56034 36.1693,-141.38885 3.84693,-54.19529 -6.82837,-108.0944 -24.25001,-159.45205 z" /><path
         id="path7"
         style="fill:none;stroke:#e5e5e5;stroke-width:4.92838;stroke-dasharray:none;stroke-opacity:1"
         d="m 62.771399,338.31307 -214.246629,-9.17208 c -14.89243,49.09379 -25.64544,101.56189 -22.08663,151.10182 3.70513,51.65599 20.98488,102.04725 32.5783,152.2919 16.3219,70.73752 24.02019,140.35916 27.49469,212.75393 1.12379,23.45279 3.29922,47.98817 1.81712,71.38661 -1.00435,15.87977 -5.10683,31.87936 -11.0325,46.61756 -11.8756,29.5606 -27.74969,58.93659 -41.66385,87.65419 -13.20856,27.2803 -29.02795,49.0379 -31.12895,80.7968 -0.41802,6.3518 -0.92373,14.3408 1.62243,20.3129 2.90718,6.8402 9.07612,9.0018 15.76997,11.119 25.64334,8.062 141.11369,9.1643 162.848209,-2.942 10.9555604,-6.1074 16.9398996,-17.1903 20.0099296,-28.9441 10.0786804,-38.5168 -3.9194898,-91.0826 -12.0275892,-129.2748 -3.2546204,-15.30969 -7.9933704,-31.64159 -7.2252004,-47.43979 1.07494,-22.04118 9.3870904,-44.06087 11.1406404,-66.56247 1.9652594,-25.24449 -0.29072,-51.07436 0.77878,-76.42728 C -0.6390412,765.60359 8.0558186,719.39048 19.18223,674.84744 34.28277,614.39644 61.555782,556.68129 69.001517,494.52015 75.162479,443.0495 67.278337,389.77788 62.771399,338.31307 Z" /><path
         id="path9"
         style="fill:none;stroke:#000000;stroke-width:4.92838;stroke-dasharray:none;stroke-opacity:1"
         d="m 492.28147,-656.1467 -514.67658,-9.25872 c -0.52994,3.53877 -1.0734,6.73165 -1.68732,8.73935 -3.08904,10.11118 -9.75095,20.20185 -13.93123,30.13391 l -36.19087,91.11541 c -21.982888,60.40898 -42.48181,123.6985 -56.4604,187.11971 l 721.76276,22.12973 c -9.30796,-45.93278 -21.32545,-91.57682 -36.23411,-136.82442 -20.03529,-60.80342 -44.64909,-120.43501 -60.20267,-182.64175 -0.88053,-3.52089 -1.58724,-7.00793 -2.37958,-10.51322 z" /><path
         id="path10"
         style="fill:none;stroke:#000000;stroke-width:4.92838;stroke-dasharray:none;stroke-opacity:1"
         d="m 500.93436,-960.88149 -546.00016,-10.1889 c 1.47386,2.8773 2.94562,5.7531 4.56446,8.4366 23.369569,79.60471 27.679069,92.12041 24.725739,176.39011 -0.60993,17.3558 -2.25923,91.7213 -6.619509,120.83826 l 514.67658,9.25872 c -12.31542,-54.47998 -14.32616,-107.30298 -11.72475,-163.54058 2.69272,-58.1976 7.40888,-53.1511 17.34913,-124.47241 1.02954,-6.1463 2.02122,-11.6 3.02851,-16.7218 z" /><path
         id="path11"
         style="fill:none;stroke:#000000;stroke-width:4.92838;stroke-dasharray:none;stroke-opacity:1"
         d="m 588.39384,-1298.4325 -703.39699,-9.6913 -5.64602,167.9752 c 0.47161,-0.904 1.37969,-2.1998 1.81712,-3.0719 9.35655,18.5911 20.761902,69.0165 33.378695,85.664 17.945045,23.6737 26.286845,58.95921 40.387555,86.48611 l 546.00016,10.1889 c 7.68663,-39.086 16.16762,-52.35401 47.46134,-99.03291 33.64377,-50.1844 42.66989,-83.3086 46.87724,-86.9186 0.13533,0.3745 0.2961,0.7291 0.43263,1.1032 z" /><path
         id="path12"
         style="fill:none;stroke:#000000;stroke-width:4.92838;stroke-dasharray:none;stroke-opacity:1"
         d="m 116.00862,-1656.5124 c -0.0128,0.032 -0.008,0.3176 -0.0216,0.3462 -52.754992,41.3732 -113.8650014,62.6977 -171.63092,95.3985 -11.9219,6.748 -23.214565,14.4065 -34.395425,22.3029 -5.120643,3.6162 -11.909985,9.7945 -17.630345,12.2439 l -7.33338,218.0971 703.39705,9.6913 -10.6432,-222.6833 c -1.28506,-0.2344 -3.36789,-0.1192 -4.28315,-0.4974 -4.72312,-1.9544 -10.37752,-6.8844 -14.75325,-9.7562 -11.52805,-7.5652 -22.94358,-15.4034 -34.97947,-22.1515 l -81.0779,-42.6157 c -35.03518,-17.4374 -69.50304,-33.9815 -99.61702,-59.4457 l 0.0216,-0.9301 z" /><path
         id="path1"
         style="fill:none;stroke:#000000;stroke-width:4.92838;stroke-dasharray:none;stroke-opacity:1"
         d="m 232.63922,-2123.5329 c -5.76539,-0.2608 -11.75132,-0.5377 -17.50054,0.044 -39.41931,4.7692 -75.55236,19.792 -100.547,51.9175 -30.684245,39.4356 -33.975429,114.6518 -27.862468,163.1728 -3.661801,3.6509 -4.821136,1.7578 -8.393339,3.8072 -5.472354,3.1379 -7.606411,11.735 -7.636222,17.5222 -0.06251,12.1852 3.119714,23.7068 5.429716,35.5636 4.028247,20.6868 6.732641,48.6932 23.060052,63.7938 2.576031,2.3806 5.742041,4.2262 8.912531,5.6892 2.00038,12.2724 5.88457,117.8444 2.55262,125.5109 h 227.05299 l 2.61748,-81.0131 c 0.22272,-12.1689 -2.21447,-33.3714 1.99025,-44.4545 l 1.60077,-1.4061 c 19.31327,-17.253 23.15947,-39.119 28.27346,-63.2097 2.50272,-11.7834 5.44671,-23.8765 5.92727,-35.9313 0.27953,-6.949 0.73967,-13.5375 -3.17991,-19.6206 -3.04298,-2.2719 -6.24186,-4.4239 -8.84774,-7.2035 3.08644,-55.0791 4.18328,-124.2127 -34.59007,-167.9535 -24.60656,-27.758 -62.00562,-44.5725 -98.85985,-46.2283 z" /></g><g
       id="mind"
       transform="matrix(0.05173302,0,0,0.05173302,-5.5418986,-18.106924)"
       inkscape:label="mind"><path
         fill="#8751D1"
         d="m 411.69208,747.05319 c -0.24812,-0.0337 -0.61135,0.0446 -0.86853,0.0689 l -1.88364,0.18649 c -3.72501,0.33108 -8.57419,0.88378 -11.91731,-1.09865 -2.31419,-1.37162 -3.71541,-3.91758 -3.77797,-6.58974 -0.0316,-1.35445 0.21513,-2.71607 0.33824,-4.0627 0.155,-1.69621 0.11689,-3.55812 -0.36243,-5.20298 -0.34838,-1.19595 -1.45608,-1.90027 -2.27878,-2.7777 -0.32433,-0.34581 -0.66149,-0.6965 -0.75798,-1.17919 -0.0843,-0.42203 0.004,-0.78231 0.23041,-1.14312 0.70459,-1.12593 2.04783,-1.75635 3.29176,-2.05337 -1.46785,-0.66041 -2.98109,-1.155 -3.73973,-2.6996 -0.0738,-0.9685 0.67715,-1.48648 1.22594,-2.20552 0.44256,-0.57988 0.90959,-1.29285 1.14594,-1.98636 0.30595,-0.89757 0.39325,-2.0065 -0.0624,-2.87055 -0.32352,-0.61365 -0.91203,-0.94972 -1.54743,-1.15905 -1.07176,-0.35298 -2.44501,-0.17271 -3.57501,-0.2446 -1.08391,-0.069 -2.38392,-0.43067 -3.12283,-1.2777 -1.58244,-1.81365 -0.5669,-3.34163 0.31594,-5.1823 l 4.40663,-9.12569 c 1.32702,-2.79188 2.80864,-5.68878 3.46581,-8.72446 0.23121,-1.06798 0.27838,-2.21095 0.16162,-3.29905 -0.15554,-1.45068 -0.55595,-2.89231 -0.77594,-4.33731 -0.50258,-3.30135 -0.63447,-6.64149 -0.43325,-9.97311 l 5.83284,-17.18719 c 3.39416,-6.96905 6.91022,-12.09437 11.932,-16.32738 9.62457,-8.97887 13.47758,-9.65632 15.94441,-10.766 10.19556,-3.45889 25.31639,-3.25762 29.84348,-1.68229 4.3097,1.27835 11.02166,3.75073 14.87564,7.31267 8.36058,7.72704 13.11125,14.18473 17.04402,28.18178 1.13234,11.82468 2.47464,18.22573 -8.91699,38.68708 -4.82517,4.50903 -3.58578,9.81468 -4.72292,21.93709 -2.70104,8.57625 1.50951,26.66266 -1.8586,27.09779 z"
         id="path2-3"
         style="fill:none;fill-opacity:1;stroke:#d15151;stroke-width:2.32259;stroke-dasharray:none;stroke-opacity:1"
         sodipodi:nodetypes="ccccccccccccscccccccscccccccsccccc" /><text
         xml:space="preserve"
         style="font-style:normal;font-variant:normal;font-weight:normal;font-stretch:normal;font-size:148.144px;font-family:Amiri;-inkscape-font-specification:'Amiri, Normal';font-variant-ligatures:normal;font-variant-caps:normal;font-variant-numeric:normal;font-variant-east-asian:normal;fill:#d15151;fill-opacity:1;stroke:none;stroke-width:0.269287;stroke-dasharray:none;stroke-opacity:1;paint-order:markers fill stroke"
         x="489.6109"
         y="732.83862"
         id="text1-3"><tspan
           sodipodi:role="line"
           id="tspan1-4"
           x="489.6109"
           y="732.83862">Mind: -1</tspan></text><path
         style="fill:#d80000;fill-opacity:1;stroke-width:3.49882"
         id="path1-3"
         sodipodi:type="arc"
         sodipodi:cx="441.53137"
         sodipodi:cy="667.83423"
         sodipodi:rx="37.176922"
         sodipodi:ry="39.043968"
         sodipodi:start="0.027304543"
         sodipodi:end="6.2831853"
         sodipodi:open="true"
         sodipodi:arc-type="arc"
         d="m 478.69444,668.90017 a 37.176922,39.043968 0 0 1 -37.92434,37.96984 37.176922,39.043968 0 0 1 -36.41219,-39.5688 37.176922,39.043968 0 0 1 37.42723,-38.51004 37.176922,39.043968 0 0 1 36.92315,39.04306" /><path
         style="fill:#ffffff;fill-opacity:1;stroke-width:3.34545"
         id="path1-93"
         sodipodi:type="arc"
         sodipodi:cx="441.50256"
         sodipodi:cy="667.05212"
         sodipodi:rx="35.50272"
         sodipodi:ry="37.379631"
         sodipodi:start="0.027304543"
         sodipodi:end="6.2831853"
         sodipodi:open="true"
         sodipodi:arc-type="arc"
         d="m 476.99205,668.07263 a 35.50272,37.379631 0 0 1 -36.21647,36.35129 35.50272,37.379631 0 0 1 -34.77243,-37.8821 35.50272,37.379631 0 0 1 35.74176,-36.86846 35.50272,37.379631 0 0 1 35.26037,37.37876" /><rect
         style="fill:#cc0400;fill-opacity:1;stroke-width:4.1036"
         id="rect1-6"
         width="43.670288"
         height="44.625092"
         x="787.51117"
         y="-45.42012"
         transform="matrix(0.5298425,0.84809606,-0.5441132,0.83901181,0,0)" /><path
         id="path3-2"
         style="fill:#ffffff;stroke-width:4.17674"
         d="m 465.39785,667.3739 -23.72874,2.71407 -23.72873,-2.71407 23.72873,-0.5428 z"
         sodipodi:nodetypes="ccccc" /><path
         id="path4-6"
         style="fill:#ffffff;stroke-width:2.36508"
         inkscape:transform-center-x="-0.00029899198"
         inkscape:transform-center-y="-0.42374246"
         d="m 440.73859,667.76163 0.9542,-40.11665 0.98143,39.74202 z" /></g></g></svg>
