<?xml version="1.0" encoding="UTF-8" standalone="no"?>
<!-- Created with Inkscape (http://www.inkscape.org/) -->

<svg
   width="63mm"
   height="88mm"
   viewBox="0 0 63 88"
   version="1.1"
   id="svg1"
   inkscape:version="1.4 (86a8ad7, 2024-10-11)"
   xml:space="preserve"
   sodipodi:docname="card-disorder-abdomen.svg"
   xmlns:inkscape="http://www.inkscape.org/namespaces/inkscape"
   xmlns:sodipodi="http://sodipodi.sourceforge.net/DTD/sodipodi-0.dtd"
   xmlns="http://www.w3.org/2000/svg"
   xmlns:svg="http://www.w3.org/2000/svg"><sodipodi:namedview
     id="namedview1"
     pagecolor="#ffffff"
     bordercolor="#000000"
     borderopacity="0.25"
     inkscape:showpageshadow="2"
     inkscape:pageopacity="0.0"
     inkscape:pagecheckerboard="0"
     inkscape:deskcolor="#d1d1d1"
     inkscape:document-units="mm"
     inkscape:zoom="2.9255611"
     inkscape:cx="80.497379"
     inkscape:cy="103.22806"
     inkscape:window-width="1678"
     inkscape:window-height="1008"
     inkscape:window-x="226"
     inkscape:window-y="0"
     inkscape:window-maximized="0"
     inkscape:current-layer="layer1" /><defs
     id="defs1" /><g
     inkscape:label="Layer 1"
     inkscape:groupmode="layer"
     id="layer1"><g
       id="g1"
       transform="matrix(0.06087197,0,0,0.06087197,0.03359486,0.54402301)"><path
         id="path2"
         style="fill:none;stroke:#e4e4e4;stroke-width:4.92837673;stroke-dasharray:none;stroke-opacity:1"
         d="m 1183.0497,537.00114 -159.7735,67.71229 4.0009,46.24561 c 3.1011,24.87992 8.3151,50.18801 14.2178,74.55237 6.564,27.09313 16.8304,54.45887 28.2852,79.9082 25.2279,56.06208 80.3264,144.9874 63.7975,208.36379 -0.5047,1.9379 -1.0457,3.7894 -1.8283,5.6355 -7.6923,18.1646 -24.4381,32.5251 -33.4261,50.0959 -7.0229,13.722 -8.2871,29.5369 -10.2384,44.5895 l -6.5176,59.7106 c -0.7177,10.0163 -3.0796,21.0527 -0.6882,30.8664 l 4.5171,4.4954 c 7.7975,-1.4952 15.8465,-6.7979 20.9504,-12.8842 3.2658,-22.1645 4.9891,-59.2954 24.2198,-73.6274 2.9608,-2.2051 3.2017,-2.0336 6.8185,-1.7637 10.3482,20.3805 10.8489,45.5644 3.8502,66.8302 -4.583,13.9245 -12.2873,30.5996 -20.7138,42.6752 -7.5249,10.7827 -25.8085,24.5146 -29.3605,36.6524 -0.5979,2.0404 -0.037,6.2291 -0.042,8.4963 4.0134,4.7719 4.3622,5.4738 10.346,6.9476 41.1875,-12.0892 95.3434,-41.6582 116.5606,-79.6717 6.1863,-11.0876 9.7479,-24.3654 11.5077,-36.889 l 0.4086,-2.7102 c 2.0028,-14.5857 -0.9574,-31.3318 -2.2583,-45.9661 -1.911,-21.4681 -3.0491,-42.6005 -2.3232,-64.1633 l 8.6686,-108.27928 c 9.6409,-110.1321 17.8746,-222.8116 -16.5625,-329.69945 -8.6181,-26.74556 -20.2147,-53.51586 -34.4154,-78.12293 z" /><path
         id="path5"
         style="fill:none;stroke:#e4e4e4;stroke-width:4.92837673;stroke-dasharray:none;stroke-opacity:1"
         d="M 857.32953,-41.177551 875.18252,332.079 c 22.95543,62.9032 62.57055,115.1658 89.56605,154.74018 l 35.03917,49.51507 c 6.12686,8.34821 15.59856,18.55029 19.42306,28.15605 3.0259,7.59522 2.3559,19.00743 2.947,27.16673 l 1.1184,13.0564 159.7735,-67.71229 c -2.433,-4.21595 -4.7824,-8.51562 -7.3778,-12.58318 l -18.4552,-27.16665 c -2.2186,-3.14175 -6.7921,-7.95402 -8.0447,-11.24957 -1.0742,-2.82854 -0.5289,-9.65351 -0.7097,-12.86272 l -2.4307,-35.36177 c -3.8299,-35.98919 -10.7898,-72.30056 -23.3808,-106.3221 -10.7126,-28.93649 -24.083,-57.80136 -39.4917,-84.55432 -6.5453,-11.36033 -16.327,-22.69893 -21.6387,-34.39393 -1.6761,-3.68689 -1.5057,-7.73097 -1.5057,-11.67965 0,-67.96484 -19.4967,-140.654271 -69.0674,-189.693421 -28.00263,-27.69764 -67.69239,-47.67735 -107.22546,-50.84869 -6.46002,-0.52048 -18.73725,-0.0661 -26.39231,-1.46269 z" /><path
         id="path3"
         style="fill:none;stroke:#e4e4e4;stroke-width:4.92837673;stroke-dasharray:none;stroke-opacity:1"
         d="M -5.7439738,623.87857 -177.04659,555.75744 c -5.95827,12.8593 -11.13538,26.04771 -15.40092,39.74984 -13.85685,44.51269 -19.67864,91.64163 -23.16584,137.98424 -5.88124,78.19406 -3.07945,155.66155 2.75323,233.74495 l 7.52837,77.99393 c 1.89195,31.3009 -5.20424,61.0362 -5.48495,91.9107 -0.27529,30.2076 9.38943,61.0934 28.1991,84.7695 20.15386,25.3682 59.08292,53.0044 91.717016,57.3661 2.9582,0.3967 4.76456,0.076 7.52838,-0.8819 2.35898,-4.1405 2.37406,-4.3651 0.98944,-8.9481 -2.72874,-9.0471 -12.41806,-19.7494 -17.59487,-27.898 -20.631486,-32.483 -37.238696,-74.6371 -23.875676,-112.861 l 4.08684,-3.0758 c 7.30357,2.2781 12.43289,8.4438 15.85259,15.0998 10.075486,19.6031 3.09136,51.8494 22.907736,65.0236 5.28744,0.5101 5.55241,0.6725 10.38914,-2.237 9.43051,-23.1175 4.72957,-102.7078 -5.11929,-126.068 -6.5532,-15.541 -18.20066,-26.7406 -26.392306,-41.0833 -23.44932,-41.05801 -11.88695,-91.3816 4.280426,-132.56381 24.65041,-62.79612 64.02049,-118.41411 82.3173,-184.1009 8.7082902,-31.2607 8.0366102,-63.831 9.7869002,-95.80372 z" /><path
         id="path6"
         style="fill:none;stroke:#e4e4e4;stroke-width:4.92837673;stroke-dasharray:none;stroke-opacity:1"
         d="m 175.79722,-46.253761 c -0.10123,0.043 -0.22215,0.15262 -0.32264,0.19352 -6.49665,2.64513 -20.7332,0.67755 -28.30665,1.37667 -10.34011,0.95271 -20.7105,3.15614 -30.67274,6.0442 -60.782504,17.61389 -111.3566838,62.74358 -134.843794,121.67988 -9.19842,23.082231 -13.74647,48.716481 -16.77753,73.304851 l -3.67813,43.53546 c -0.30499,3.99459 0.18545,12.51325 -1.20454,16.00311 -3.98109,9.98644 -16.85326,22.66917 -23.03681,32.32896 -18.34269,28.65043 -33.62302,59.50397 -44.653976,91.69559 -9.63834,28.12939 -15.70007,57.192 -20.41263,86.51163 -3.48721,21.70849 -5.80507,44.83122 -12.06689,65.92701 -3.64374,12.27525 -15.69279,24.33032 -22.30548,35.49084 -5.39739,9.10717 -10.16744,18.43514 -14.562,27.91948 l 171.3026162,68.12113 c 1.39451,-25.47384 4.29125,-50.57759 14.94917,-74.27283 C 20.624926,524.21577 46.408436,503.72011 63.344906,481.33421 89.279382,447.05661 142.15163,377.38104 162.89144,337.62842 Z" /><path
         id="path4"
         style="fill:none;stroke:#e4e4e4;stroke-width:4.92837673;stroke-dasharray:none;stroke-opacity:1"
         d="m 890.92746,1800.1965 -213.35378,3.3987 c -0.95709,8.7354 -1.70419,17.5223 -2.66717,26.1773 -4.66132,41.8892 -9.54752,85.1831 -5.35591,127.3154 7.9163,79.4863 46.20838,152.1868 62.2488,230.4325 6.38867,31.1471 12.0495,62.5513 13.09937,94.4272 0.86097,26.1001 -1.35081,52.9807 1.03245,78.9188 1.69504,18.4615 7.10864,36.3297 10.00195,54.5483 2.53445,15.9515 -3.071,34.7646 -6.43132,50.5262 -6.89602,32.3078 -14.91043,66.2355 -15.89561,99.353 -0.32393,10.904 -0.91125,22.3346 1.82833,32.9957 2.11884,8.2323 5.91466,16.1049 12.34654,21.8538 5.44399,4.8854 12.41624,7.5059 19.46615,9.0987 17.80295,4.0215 38.53693,3.1014 56.82844,3.3984 26.64761,0.4049 54.72655,1.758 81.22014,-0.9679 8.25655,-0.8367 19.21352,-4.487 24.84371,-10.8838 6.19969,-7.0444 5.844,-19.1744 4.79684,-28.0272 -4.08634,-34.4122 -23.55672,-60.7749 -39.47023,-90.2757 -19.22803,-35.6817 -38.68974,-80.9359 -41.68562,-121.4219 -1.98643,-26.8557 -0.18238,-54.9508 0.86041,-81.8871 2.55331,-66.0732 8.05165,-135.6085 24.43479,-199.846 11.74366,-46.019 32.59023,-93.0296 35.96416,-140.5868 3.82511,-53.8879 -6.78963,-107.4813 -24.11244,-158.5476 z" /><path
         id="path7"
         style="fill:none;stroke:#e4e4e4;stroke-width:4.92837673;stroke-dasharray:none;stroke-opacity:1"
         d="m 345.27153,1807.7034 -213.03129,-9.12 c -14.80794,48.8153 -25.49995,100.9857 -21.96132,150.2447 3.6841,51.3629 20.86583,101.4683 32.39349,151.428 16.22931,70.3362 23.88393,139.5629 27.33872,211.547 1.11742,23.3198 3.2805,47.716 1.80681,70.9817 -0.99866,15.7897 -5.07786,31.6985 -10.96992,46.3531 -11.80823,29.3928 -27.59227,58.6022 -41.4275,87.1569 -13.13363,27.1255 -28.863292,48.7597 -30.952374,80.3386 -0.415652,6.3157 -0.918491,14.2594 1.613226,20.1975 2.890697,6.8014 9.024634,8.9508 15.680518,11.056 25.49788,8.0163 140.3132,9.1123 161.92442,-2.9253 10.89342,-6.0728 16.84381,-17.0929 19.89643,-28.78 10.02151,-38.2983 -3.89726,-90.5659 -11.95937,-128.5414 -3.23615,-15.2229 -7.94803,-31.4621 -7.18421,-47.1706 1.06885,-21.9162 9.33384,-43.811 11.07745,-66.1849 1.9541,-25.1013 -0.28908,-50.7847 0.77435,-75.9938 1.92984,-45.7208 10.57537,-91.6718 21.63867,-135.9621 15.01488,-60.1081 42.13318,-117.4959 49.53668,-179.3044 6.12601,-51.1787 -1.71341,-104.1481 -6.19478,-155.321 z" /><path
         id="path8"
         style="fill:none;stroke:#e4e4e4;stroke-width:4.92837673;stroke-dasharray:none;stroke-opacity:1"
         d="M 870.60093,1146.9924 152.9325,1124.9882 c -2.60963,11.8398 -5.40161,23.681 -7.48534,35.5124 -8.0891,45.943 -10.47081,92.2216 -11.61521,138.78 -1.02565,41.7543 -1.1181,84.6475 2.28001,126.283 l 16.94959,133.3381 c 7.04992,42.5886 19.0234,84.8142 16.00316,128.4769 -1.56817,22.6639 -13.88505,43.7473 -21.4451,64.8945 -5.33712,14.9314 -10.56861,30.4512 -15.37937,46.3103 l 213.03129,9.12 c -0.0894,-1.0207 -0.19303,-2.0778 -0.27962,-3.0972 -1.88919,-22.2133 -4.69185,-45.1951 -1.87135,-67.4758 3.20648,-25.3174 12.1428,-51.3453 20.39112,-75.4127 l 32.19994,-94.3411 58.31253,-221.8934 c 14.97425,-69.808 27.48606,-137.2963 30.43611,-208.7939 l 51.408,0.2151 2.60263,38.0291 c 13.86772,132.2046 47.96883,265.427 87.35064,392.1849 16.4398,52.9126 41.14219,104.559 51.75215,159.0208 4.98526,25.5835 2.8334,51.5952 0,77.456 l 213.35378,-3.3987 c -5.46108,-16.0988 -11.51585,-31.9742 -18.08936,-47.4931 l -16.19687,-37.5988 c -2.62866,-6.1108 -6.71873,-13.6041 -7.48533,-20.1113 -2.14303,-18.2163 1.31668,-38.584 4.34495,-56.5275 l 22.64967,-108.6236 c 23.62271,-128.7577 19.96614,-256.9372 -5.54959,-382.8498 z" /><path
         id="path9"
         style="fill:none;stroke:#e4e4e4;stroke-width:4.92837673;stroke-dasharray:none;stroke-opacity:1"
         d="m 772.34512,818.88477 -511.75698,-9.20615 c -0.52693,3.51875 -1.06731,6.69351 -1.67775,8.68981 -3.07152,10.05383 -9.69563,20.0873 -13.8522,29.96297 l -35.98558,90.59855 c -21.85819,60.0663 -42.24082,122.99675 -56.14011,186.05825 l 717.66843,22.0042 c -9.25517,-45.6722 -21.20448,-91.0573 -36.02858,-136.0483 -19.92162,-60.45848 -44.3958,-119.75174 -59.86116,-181.60572 -0.87553,-3.50085 -1.57823,-6.96812 -2.36607,-10.45361 z" /><path
         id="path11"
         style="fill:none;stroke:#e4e4e4;stroke-width:4.92838;stroke-dasharray:none;stroke-opacity:1"
         d="m 867.91228,180.24255 -699.40684,-9.63639 -5.614,167.02226 c 0.46894,-0.89884 1.37188,-2.18727 1.80682,-3.05437 9.30347,18.4856 20.64412,68.62498 33.18935,85.17809 17.84325,23.53937 26.13771,58.62462 40.15845,85.99546 l 542.37757,5.92886 c 9.21889,-30.45981 16.6012,-47.85484 47.7174,-94.2689 33.45292,-49.8998 42.42783,-82.83605 46.61133,-86.42554 0.13455,0.37239 0.29441,0.7249 0.43016,1.09698 z"
         sodipodi:nodetypes="cccccccsccc" /><path
         id="path12"
         style="fill:none;stroke:#e4e4e4;stroke-width:4.92837673;stroke-dasharray:none;stroke-opacity:1"
         d="m 398.20675,-175.80622 c -0.0127,0.0317 -0.008,0.31573 -0.0215,0.34414 -52.45573,41.13863 -113.21909,62.34212 -170.65733,94.857429 -11.85426,6.70983 -23.08286,14.32486 -34.2003,22.17638 -5.0916,3.59578 -11.84243,9.73897 -17.53034,12.17451 l -7.29178,216.859921 699.40692,9.63639 -10.58283,-221.420101 c -1.27777,-0.23307 -3.34879,-0.11856 -4.25885,-0.4947 -4.69634,-1.94331 -10.31865,-6.84525 -14.66956,-9.70085 -11.46266,-7.52225 -22.81343,-15.31601 -34.78105,-22.02583 l -80.61798,-42.373959 c -34.83643,-17.33855 -69.10878,-33.78877 -99.05193,-59.10845 l 0.0215,-0.92488 z" /><path
         id="path10"
         style="fill:none;stroke:#000000;stroke-width:4.92838;stroke-dasharray:none;stroke-opacity:1"
         d="M 771.86209,509.75559 248.44608,505.7476 c -3.73452,0.81807 -9.32826,0.33471 -8.27575,5.04593 21.75129,82.12449 15.07918,53.34059 28.48549,140.10373 5.33638,82.62885 -6.51785,146.91533 -6.76768,154.50992 1.75106,2.82353 -1.32396,0.99228 3.32423,4.38594 l 502.91493,7.35391 c 5.65482,-1.3723 3.40614,-3.03922 4.0321,-4.76227 -0.54554,-6.07074 -22.97347,-89.79422 -20.38682,-153.14135 5.64886,-56.38177 26.967,-125.5777 28.43865,-137.75326 -1.25589,-7.28074 -0.7885,-9.82966 -8.34914,-11.73456 z"
         sodipodi:nodetypes="ccccccccccc" /><path
         id="path1"
         style="fill:none;stroke:#e4e4e4;stroke-width:4.92837673;stroke-dasharray:none;stroke-opacity:1"
         d="m 514.17575,-640.17746 c -5.73268,-0.25923 -11.68466,-0.5346 -17.40126,0.0431 -39.1957,4.74225 -75.12378,19.67976 -99.97664,51.62307 -30.51018,39.21189 -33.7827,114.00148 -27.70441,162.24709 -3.64103,3.63028 -4.79379,1.74792 -8.34573,3.78569 -5.44131,3.1201 -7.56326,11.66839 -7.5929,17.42279 -0.0621,12.11607 3.10201,23.57233 5.39891,35.36185 4.0054,20.5695 6.69445,48.41701 22.92924,63.43185 2.56142,2.36709 5.70947,4.20224 8.86198,5.65702 1.98903,12.20285 5.85119,117.17585 2.53814,124.79884 h 225.76496 l 2.60264,-80.55353 c 0.22145,-12.09988 -2.20191,-33.18202 1.97896,-44.20227 l 1.59167,-1.39814 c 19.20373,-17.1552 23.02812,-38.89699 28.11308,-62.85111 2.48854,-11.7166 5.41583,-23.74098 5.89366,-35.72748 0.27794,-6.90958 0.73548,-13.46066 -3.16187,-19.50924 -3.02572,-2.25909 -6.20645,-4.39883 -8.79755,-7.16268 3.06893,-54.76657 4.15954,-123.5081 -34.39386,-167.00072 -24.46693,-27.60055 -61.65384,-44.31962 -98.29902,-45.96605 z" /></g><g
       id="mind-2"
       transform="matrix(0.06382477,0,0,0.06382477,-11.920342,-16.874002)"
       inkscape:label="mind"><path
         fill="#8751D1"
         d="m 411.69208,747.05319 c -0.24812,-0.0337 -0.61135,0.0446 -0.86853,0.0689 l -1.88364,0.18649 c -3.72501,0.33108 -8.57419,0.88378 -11.91731,-1.09865 -2.31419,-1.37162 -3.71541,-3.91758 -3.77797,-6.58974 -0.0316,-1.35445 0.21513,-2.71607 0.33824,-4.0627 0.155,-1.69621 0.11689,-3.55812 -0.36243,-5.20298 -0.34838,-1.19595 -1.45608,-1.90027 -2.27878,-2.7777 -0.32433,-0.34581 -0.66149,-0.6965 -0.75798,-1.17919 -0.0843,-0.42203 0.004,-0.78231 0.23041,-1.14312 0.70459,-1.12593 2.04783,-1.75635 3.29176,-2.05337 -1.46785,-0.66041 -2.98109,-1.155 -3.73973,-2.6996 -0.0738,-0.9685 0.67715,-1.48648 1.22594,-2.20552 0.44256,-0.57988 0.90959,-1.29285 1.14594,-1.98636 0.30595,-0.89757 0.39325,-2.0065 -0.0624,-2.87055 -0.32352,-0.61365 -0.91203,-0.94972 -1.54743,-1.15905 -1.07176,-0.35298 -2.44501,-0.17271 -3.57501,-0.2446 -1.08391,-0.069 -2.38392,-0.43067 -3.12283,-1.2777 -1.58244,-1.81365 -0.5669,-3.34163 0.31594,-5.1823 l 4.40663,-9.12569 c 1.32702,-2.79188 2.80864,-5.68878 3.46581,-8.72446 0.23121,-1.06798 0.27838,-2.21095 0.16162,-3.29905 -0.15554,-1.45068 -0.55595,-2.89231 -0.77594,-4.33731 -0.50258,-3.30135 -0.63447,-6.64149 -0.43325,-9.97311 l 5.83284,-17.18719 c 3.39416,-6.96905 6.91022,-12.09437 11.932,-16.32738 9.62457,-8.97887 13.47758,-9.65632 15.94441,-10.766 10.19556,-3.45889 25.31639,-3.25762 29.84348,-1.68229 4.3097,1.27835 11.02166,3.75073 14.87564,7.31267 8.36058,7.72704 13.11125,14.18473 17.04402,28.18178 1.13234,11.82468 2.47464,18.22573 -8.91699,38.68708 -4.82517,4.50903 -3.58578,9.81468 -4.72292,21.93709 -2.70104,8.57625 1.50951,26.66266 -1.8586,27.09779 z"
         id="path2-32"
         style="fill:none;fill-opacity:1;stroke:#e8312c;stroke-width:2.32259;stroke-dasharray:none;stroke-opacity:1"
         sodipodi:nodetypes="ccccccccccccscccccccscccccccsccccc" /><text
         xml:space="preserve"
         style="font-style:normal;font-variant:normal;font-weight:normal;font-stretch:normal;font-size:148.144px;font-family:Amiri;-inkscape-font-specification:'Amiri, Normal';font-variant-ligatures:normal;font-variant-caps:normal;font-variant-numeric:normal;font-variant-east-asian:normal;fill:#e8312c;fill-opacity:1;stroke:none;stroke-width:0.269287;stroke-dasharray:none;stroke-opacity:1;paint-order:markers fill stroke"
         x="489.6109"
         y="732.83862"
         id="text1"><tspan
           sodipodi:role="line"
           id="tspan1"
           x="489.6109"
           y="732.83862">Mind:-1</tspan></text><path
         style="fill:#e7322c;fill-opacity:1;stroke-width:3.49882"
         id="path1-3-2"
         sodipodi:type="arc"
         sodipodi:cx="441.53137"
         sodipodi:cy="667.83423"
         sodipodi:rx="37.176922"
         sodipodi:ry="39.043968"
         sodipodi:start="0.027304543"
         sodipodi:end="6.2831853"
         sodipodi:open="true"
         sodipodi:arc-type="arc"
         d="m 478.69444,668.90017 a 37.176922,39.043968 0 0 1 -37.92434,37.96984 37.176922,39.043968 0 0 1 -36.41219,-39.5688 37.176922,39.043968 0 0 1 37.42723,-38.51004 37.176922,39.043968 0 0 1 36.92315,39.04306" /><path
         style="fill:#ffffff;fill-opacity:1;stroke-width:3.34545"
         id="path1-1"
         sodipodi:type="arc"
         sodipodi:cx="441.50256"
         sodipodi:cy="667.05212"
         sodipodi:rx="35.50272"
         sodipodi:ry="37.379631"
         sodipodi:start="0.027304543"
         sodipodi:end="6.2831853"
         sodipodi:open="true"
         sodipodi:arc-type="arc"
         d="m 476.99205,668.07263 a 35.50272,37.379631 0 0 1 -36.21647,36.35129 35.50272,37.379631 0 0 1 -34.77243,-37.8821 35.50272,37.379631 0 0 1 35.74176,-36.86846 35.50272,37.379631 0 0 1 35.26037,37.37876" /><rect
         style="fill:#e8322b;fill-opacity:1;stroke-width:4.1036"
         id="rect1"
         width="43.670288"
         height="44.625092"
         x="787.51117"
         y="-45.42012"
         transform="matrix(0.5298425,0.84809606,-0.5441132,0.83901181,0,0)" /><path
         id="path3-2-6"
         style="fill:#ffffff;stroke-width:4.17674"
         d="m 465.39785,667.3739 -23.72874,2.71407 -23.72873,-2.71407 23.72873,-0.5428 z"
         sodipodi:nodetypes="ccccc" /><path
         id="path4-8"
         style="fill:#ffffff;stroke-width:2.36508"
         inkscape:transform-center-x="-0.00029899198"
         inkscape:transform-center-y="-0.42374246"
         d="m 440.73859,667.76163 0.9542,-40.11665 0.98143,39.74202 z" /></g></g></svg>
