<?xml version="1.0" encoding="UTF-8" standalone="no"?>
<!-- Created with Inkscape (http://www.inkscape.org/) -->

<svg
   width="63mm"
   height="88mm"
   viewBox="0 0 63 88"
   version="1.1"
   id="svg1"
   inkscape:version="1.4 (86a8ad7, 2024-10-11)"
   xml:space="preserve"
   sodipodi:docname="card-restrain-head.svg"
   xmlns:inkscape="http://www.inkscape.org/namespaces/inkscape"
   xmlns:sodipodi="http://sodipodi.sourceforge.net/DTD/sodipodi-0.dtd"
   xmlns="http://www.w3.org/2000/svg"
   xmlns:svg="http://www.w3.org/2000/svg"><sodipodi:namedview
     id="namedview1"
     pagecolor="#ffffff"
     bordercolor="#000000"
     borderopacity="0.25"
     inkscape:showpageshadow="2"
     inkscape:pageopacity="0.0"
     inkscape:pagecheckerboard="0"
     inkscape:deskcolor="#d1d1d1"
     inkscape:document-units="mm"
     inkscape:zoom="1.0343421"
     inkscape:cx="46.889709"
     inkscape:cy="62.358479"
     inkscape:window-width="1350"
     inkscape:window-height="1017"
     inkscape:window-x="228"
     inkscape:window-y="0"
     inkscape:window-maximized="0"
     inkscape:current-layer="layer1" /><defs
     id="defs1" /><g
     inkscape:label="Layer 1"
     inkscape:groupmode="layer"
     id="layer1"><g
       id="hitlocation"
       transform="matrix(0.06087197,0,0,0.06087197,0.03359486,0.54402301)"
       style="stroke-width:4.92837673;stroke-dasharray:none"><path
         id="path2"
         style="fill:none;stroke:#e5e5e5;stroke-width:4.92837673;stroke-dasharray:none;stroke-opacity:1"
         d="m 1201.2411,1630.7458 -159.9305,67.7788 4.0049,46.291 c 3.1041,24.9043 8.3232,50.2373 14.2317,74.6255 6.5705,27.1198 16.8469,54.5124 28.313,79.9867 25.2527,56.1171 80.4053,145.1297 63.8601,208.5684 -0.5051,1.9398 -1.0467,3.7931 -1.8301,5.641 -7.6998,18.1825 -24.462,32.5571 -33.4588,50.1451 -7.0299,13.7355 -8.2953,29.5659 -10.2485,44.6332 l -6.524,59.7693 c -0.7184,10.0261 -3.0826,21.0734 -0.6889,30.8967 l 4.5215,4.4998 c 7.8052,-1.4966 15.8621,-6.8045 20.971,-12.8968 3.269,-22.1863 4.994,-59.3536 24.2435,-73.6997 2.9638,-2.2073 3.2049,-2.0356 6.8253,-1.7655 10.3583,20.4006 10.8595,45.6092 3.854,66.8959 -4.5875,13.9381 -12.2994,30.6297 -20.7342,42.717 -7.5323,10.7933 -25.8339,24.5388 -29.3894,36.6884 -0.5984,2.0424 -0.037,6.2353 -0.042,8.5047 4.0174,4.7766 4.3665,5.4792 10.3562,6.9544 41.228,-12.101 95.4371,-41.6991 116.6751,-79.7499 6.1923,-11.0985 9.7575,-24.3894 11.519,-36.9252 l 0.409,-2.7129 c 2.0047,-14.6 -0.9583,-31.3626 -2.2605,-46.0113 -1.9129,-21.4891 -3.0522,-42.6422 -2.3255,-64.2262 l 8.6771,-108.3856 c 9.6504,-110.2402 17.8922,-223.0304 -16.5788,-330.0232 -8.6265,-26.7718 -20.2344,-53.5684 -34.4491,-78.1996 z" /><path
         id="path5"
         style="fill:none;stroke:#e5e5e5;stroke-width:4.92837673;stroke-dasharray:none;stroke-opacity:1"
         d="m 875.20102,1051.9994 17.87053,373.623 c 22.97795,62.965 62.63197,115.2789 89.65397,154.8922 l 35.07358,49.5636 c 6.1329,8.3564 15.6139,18.5685 19.4422,28.1837 3.0288,7.6027 2.3581,19.0261 2.9498,27.1934 l 1.1195,13.0693 159.9305,-67.7788 c -2.4355,-4.2201 -4.7872,-8.524 -7.3851,-12.5956 l -18.4733,-27.1933 c -2.2208,-3.1448 -6.7989,-7.9618 -8.0526,-11.2606 -1.0753,-2.8313 -0.5295,-9.663 -0.7104,-12.8753 l -2.4331,-35.3965 c -3.8337,-36.0246 -10.8005,-72.3716 -23.4038,-106.4265 -10.7231,-28.9649 -24.1067,-57.8581 -39.5305,-84.6374 -6.5517,-11.3715 -16.343,-22.7212 -21.6599,-34.4277 -1.6778,-3.6905 -1.5072,-7.7385 -1.5072,-11.6911 0,-68.0316 -19.5159,-140.7924 -69.1352,-189.8797 -28.03015,-27.7248 -67.75888,-47.7242 -107.33075,-50.8986 -6.46637,-0.521 -18.75565,-0.066 -26.41823,-1.4641 z" /><path
         id="path3"
         style="fill:none;stroke:#e5e5e5;stroke-width:4.92837673;stroke-dasharray:none;stroke-opacity:1"
         d="m 11.280081,1717.7085 -171.470821,-68.188 c -5.96412,12.8719 -11.14632,26.0733 -15.41604,39.7889 -13.87046,44.5564 -19.69797,91.7316 -23.18859,138.1197 -5.88702,78.2708 -3.08247,155.8144 2.75594,233.9744 l 7.53575,78.0705 c 1.89382,31.3317 -5.20934,61.0962 -5.49033,92.001 -0.27556,30.2373 9.39865,61.1534 28.22679,84.8527 20.17365,25.3931 59.14093,53.0565 91.807071,57.4225 2.96111,0.397 4.76924,0.077 7.53578,-0.8829 2.36129,-4.1445 2.37639,-4.3693 0.99041,-8.9568 -2.73142,-9.056 -12.43025,-19.7688 -17.61215,-27.9253 -20.651751,-32.515 -37.275261,-74.7105 -23.899121,-112.9719 l 4.09085,-3.0788 c 7.310741,2.2803 12.445101,8.4521 15.868161,15.1146 10.08538,19.6223 3.09439,51.9003 22.93023,65.0875 5.29263,0.5105 5.55786,0.6731 10.39934,-2.2392 9.43977,-23.1402 4.73422,-102.8087 -5.12432,-126.1918 -6.55963,-15.5563 -18.21853,-26.7668 -26.41822,-41.1237 -23.472341,-41.0983 -11.89862,-91.4713 4.28463,-132.694 24.67461,-62.8577 64.08336,-118.5303 82.3981304,-184.2816 8.7168396,-31.2914 8.0445,-63.8937 9.7965096,-95.8978 z" /><path
         id="path6"
         style="fill:none;stroke:#e5e5e5;stroke-width:4.92837673;stroke-dasharray:none;stroke-opacity:1"
         d="m 192.99953,1046.9182 c -0.10133,0.043 -0.22238,0.1527 -0.32297,0.1937 -6.50302,2.6477 -20.75354,0.6782 -28.33444,1.378 -10.35026,0.9537 -20.73083,3.1592 -30.70285,6.0501 -60.842189,17.6312 -111.466029,62.8052 -134.9761986,121.7994 -9.2074404,23.1049 -13.7599604,48.7643 -16.7940004,73.3768 l -3.68175,43.5783 c -0.30528,3.9985 0.18564,12.5255 -1.20571,16.0188 -3.98501,9.9962 -16.86981,22.6914 -23.05944,32.3607 -18.3607,28.6785 -33.65602,59.5624 -44.69782,91.7856 -9.647811,28.157 -15.715491,57.2482 -20.432671,86.5966 -3.49064,21.7298 -5.81077,44.8752 -12.07874,65.9917 -3.64732,12.2873 -15.7082,24.3542 -22.32738,35.5257 -5.4027,9.1161 -10.17742,18.4532 -14.5763,27.9469 l 171.470821,68.188 c 1.39588,-25.4988 4.29547,-50.6272 14.96384,-74.3458 11.43095,-25.4149 37.23977,-45.9306 54.19287,-68.3385 25.959949,-34.3113 78.884109,-104.0552 99.644289,-143.8469 z" /><path
         id="path4"
         style="fill:none;stroke:#e5e5e5;stroke-width:4.92837673;stroke-dasharray:none;stroke-opacity:1"
         d="m 908.83196,2895.1814 -213.56328,3.4021 c -0.95804,8.7439 -1.70587,17.5395 -2.66979,26.2029 -4.66591,41.9304 -9.5569,85.2668 -5.36117,127.4405 7.92406,79.5643 46.25374,152.3362 62.30992,230.6588 6.39494,31.1776 12.06133,62.6126 13.11223,94.5198 0.86182,26.1258 -1.35214,53.0328 1.03346,78.9963 1.69671,18.4796 7.11562,36.3654 10.01177,54.6019 2.53694,15.9672 -3.07401,34.7988 -6.43763,50.5758 -6.90279,32.3396 -14.92507,66.3005 -15.91122,99.4505 -0.32425,10.9148 -0.91215,22.3566 1.83012,33.0281 2.12093,8.2405 5.92047,16.1207 12.35867,21.8753 5.44933,4.8902 12.42843,7.5133 19.48527,9.1077 17.82042,4.0254 38.57476,3.1044 56.88424,3.4017 26.67377,0.4053 54.78028,1.7597 81.29987,-0.9688 8.26465,-0.8376 19.23238,-4.4915 24.8681,-10.8946 6.20578,-7.0513 5.84974,-19.1932 4.80155,-28.0547 -4.09035,-34.446 -23.57985,-60.8346 -39.50895,-90.3644 -19.24693,-35.7166 -38.72775,-81.0153 -41.72657,-121.5411 -1.98838,-26.882 -0.18256,-55.0047 0.86126,-81.9675 2.55581,-66.138 8.05955,-135.7416 24.45878,-200.0422 11.75521,-46.0642 32.62221,-93.1209 35.99946,-140.7248 3.82885,-53.9408 -6.7963,-107.5868 -24.13609,-158.7033 z" /><path
         id="path7"
         style="fill:none;stroke:#e5e5e5;stroke-width:4.92837673;stroke-dasharray:none;stroke-opacity:1"
         d="m 362.64024,2902.6957 -213.24046,-9.129 c -14.82248,48.8632 -25.52499,101.0849 -21.98289,150.3922 3.68773,51.4134 20.88632,101.568 32.4253,151.5767 16.24525,70.4053 23.90738,139.7 27.36557,211.7548 1.11851,23.3426 3.28372,47.7628 1.80858,71.0513 -0.99964,15.8052 -5.08284,31.7297 -10.98069,46.3987 -11.81983,29.4216 -27.61937,58.6597 -41.46818,87.2424 -13.14653,27.1522 -28.89163,48.8076 -30.98276,80.4175 -0.41606,6.3219 -0.9194,14.2734 1.61481,20.2173 2.89353,6.8081 9.03349,8.9596 15.69591,11.0669 25.52292,8.0241 140.45097,9.1212 162.08342,-2.9281 10.9041,-6.0789 16.86033,-17.1098 19.91596,-28.8083 10.03134,-38.3359 -3.90109,-90.6548 -11.97111,-128.6676 -3.23933,-15.2379 -7.95584,-31.493 -7.19127,-47.217 1.0699,-21.9377 9.34301,-43.854 11.08832,-66.2499 1.95603,-25.1259 -0.28936,-50.8345 0.77512,-76.0683 1.93173,-45.7658 10.58575,-91.7618 21.65991,-136.0957 15.02962,-60.1671 42.17455,-117.6112 49.58532,-179.4804 6.13203,-51.2289 -1.71509,-104.2504 -6.20086,-155.4735 z" /><path
         id="path8"
         style="fill:none;stroke:#e5e5e5;stroke-width:4.92837673;stroke-dasharray:none;stroke-opacity:1"
         d="m 888.48546,2241.336 -718.3731,-22.0258 c -2.61219,11.8514 -5.40692,23.7042 -7.49269,35.5472 -8.09705,45.9881 -10.4811,92.3121 -11.62662,138.9163 -1.02666,41.7953 -1.1192,84.7306 2.28225,126.407 l 16.96623,133.469 c 7.05685,42.6304 19.04209,84.8975 16.01888,128.603 -1.56971,22.6862 -13.89869,43.7903 -21.46616,64.9583 -5.34236,14.946 -10.57899,30.481 -15.39447,46.3557 l 213.24046,9.129 c -0.0895,-1.0217 -0.19322,-2.0799 -0.27989,-3.1002 -1.89105,-22.2351 -4.69646,-45.2396 -1.8732,-67.5421 3.20964,-25.3423 12.15473,-51.3957 20.41114,-75.4868 l 32.23156,-94.4337 58.36979,-222.1112 c 14.98895,-69.8766 27.51305,-137.4311 30.46599,-208.9989 l 51.45848,0.2153 2.60519,38.0664 c 13.88134,132.3344 48.01593,265.6876 87.43641,392.57 16.45594,52.9646 41.18259,104.6617 51.80297,159.1769 4.99015,25.6086 2.83617,51.6459 0,77.5321 l 213.56328,-3.4021 c -5.46646,-16.1146 -11.52717,-32.0056 -18.10714,-47.5397 l -16.21277,-37.6357 c -2.63124,-6.1168 -6.72533,-13.6175 -7.49268,-20.1311 -2.14514,-18.2341 1.31797,-38.6219 4.34921,-56.583 l 22.67191,-108.7302 c 23.6459,-128.8842 19.98577,-257.1895 -5.55503,-383.2257 z" /><path
         id="path9"
         style="fill:none;stroke:#e5e5e5;stroke-width:4.92837673;stroke-dasharray:none;stroke-opacity:1"
         d="M 790.13317,1912.9062 277.8737,1903.691 c -0.52745,3.5222 -1.06835,6.7001 -1.6794,8.6983 -3.07453,10.0637 -9.70515,20.1071 -13.8658,29.9924 l -36.02091,90.6875 c -21.87965,60.1253 -42.2823,123.1176 -56.19523,186.241 l 718.3731,22.0258 c -9.26426,-45.7171 -21.22531,-91.1468 -36.06396,-136.1819 -19.94118,-60.5179 -44.43939,-119.8693 -59.91994,-181.784 -0.87639,-3.5043 -1.57978,-6.975 -2.36839,-10.4639 z" /><path
         id="path10"
         style="fill:none;stroke:#e5e5e5;stroke-width:4.92837673;stroke-dasharray:none;stroke-opacity:1"
         d="m 798.74541,1609.6026 -543.43592,-10.1411 c 1.46693,2.8638 2.93179,5.7261 4.54301,8.3971 23.25983,79.2308 27.54909,91.6877 24.60962,175.5617 -0.60707,17.2743 -2.24861,91.2905 -6.58842,120.2707 l 512.25947,9.2152 c -12.25759,-54.224 -14.25888,-106.799 -11.66969,-162.7725 2.68006,-57.9243 7.37408,-52.9015 17.26765,-123.8879 1.0247,-6.1173 2.01172,-11.5454 3.01428,-16.6432 z" /><path
         id="path11"
         style="fill:none;stroke:#e5e5e5;stroke-width:4.92837673;stroke-dasharray:none;stroke-opacity:1"
         d="m 885.79416,1273.6369 -700.09357,-9.6459 -5.61951,167.1863 c 0.4694,-0.8997 1.37322,-2.1894 1.80859,-3.0574 9.3126,18.5038 20.66439,68.6924 33.22194,85.2618 17.86077,23.5624 26.16338,58.6821 40.19788,86.0798 l 543.43592,10.1411 c 7.65055,-38.9024 16.0917,-52.1082 47.23846,-98.5678 33.48576,-49.9488 42.46949,-82.9174 46.65709,-86.5104 0.13469,0.3727 0.29471,0.7256 0.43059,1.098 z" /><path
         id="path12"
         style="fill:none;stroke:#e5e5e5;stroke-width:4.92837673;stroke-dasharray:none;stroke-opacity:1"
         d="m 415.62744,917.2385 c -0.0127,0.0317 -0.008,0.31604 -0.0215,0.34449 -52.50723,41.17901 -113.33026,62.40332 -170.82488,94.95061 -11.86591,6.7164 -23.10554,14.3389 -34.23389,22.1981 -5.0966,3.5993 -11.85406,9.7485 -17.54755,12.1865 l -7.29894,217.0728 700.09365,9.6459 -10.59322,-221.6375 c -1.27902,-0.2333 -3.35207,-0.1187 -4.26303,-0.4952 -4.70094,-1.9452 -10.32878,-6.852 -14.68396,-9.7104 -11.47391,-7.5296 -22.83584,-15.331 -34.8152,-22.0474 L 740.74177,977.33078 C 705.87113,959.97521 671.56514,943.50883 641.59258,918.1643 l 0.0215,-0.9258 z" /><path
         id="path1"
         style="fill:none;stroke:#000000;stroke-width:4.92837673;stroke-dasharray:none;stroke-opacity:1"
         d="m 531.71031,452.4113 c -5.73831,-0.25948 -11.69613,-0.53512 -17.41835,0.0432 -39.23419,4.74691 -75.19754,19.69909 -100.0748,51.67377 -30.54015,39.25038 -33.81587,114.11341 -27.73162,162.40639 -3.64461,3.63384 -4.7985,1.74963 -8.35392,3.78941 -5.44666,3.12316 -7.57069,11.67984 -7.60036,17.4399 -0.0622,12.12796 3.10506,23.59547 5.40421,35.39656 4.00933,20.58969 6.70103,48.46455 22.95176,63.49413 2.56393,2.36942 5.71507,4.20637 8.87067,5.66257 1.99099,12.21483 5.85694,117.29092 2.54064,124.92139 h 225.98664 l 2.60519,-80.63263 c 0.22167,-12.11176 -2.20407,-33.2146 1.9809,-44.24567 l 1.59324,-1.39951 c 19.22259,-17.17205 23.05073,-38.93519 28.14068,-62.91282 2.49098,-11.72811 5.42115,-23.76429 5.89945,-35.76256 0.27821,-6.91637 0.7362,-13.47388 -3.16498,-19.5284 -3.02869,-2.2613 -6.21254,-4.40315 -8.80619,-7.16971 3.07194,-54.82034 4.16363,-123.62937 -34.42762,-167.16469 -24.49096,-27.62766 -61.71438,-44.36314 -98.39554,-46.01119 z" /></g><g
       id="move"
       transform="matrix(0.04824098,0,0,0.05181757,-3.7819299,-13.219788)"
       inkscape:label="move"><text
         xml:space="preserve"
         style="font-style:normal;font-variant:normal;font-weight:normal;font-stretch:normal;font-size:148.144px;font-family:Amiri;-inkscape-font-specification:'Amiri, Normal';font-variant-ligatures:normal;font-variant-caps:normal;font-variant-numeric:normal;font-variant-east-asian:normal;fill:#000000;fill-opacity:1;stroke:#000000;stroke-width:0.269288;stroke-dasharray:none;stroke-opacity:1;paint-order:markers fill stroke"
         x="513.04822"
         y="778.5697"
         id="text1-5"><tspan
           sodipodi:role="line"
           id="tspan1"
           x="513.04822"
           y="778.5697">Speed:-1*</tspan></text><path
         fill="#fefefe"
         d="m 423.87315,743.60565 0.21512,0.052 c 1.71719,3.76403 3.49119,3.70519 5.98388,7.35145 -7.82361,-0.10797 -11.69949,-1.08864 -18.76246,-4.29382 -1.34963,-0.0879 -4.75661,-3.11408 -5.45151,-3.66689 -1.44497,-1.14935 -2.73119,-2.33754 -3.98746,-3.59097 2.82341,0.88799 5.73821,1.52855 8.60636,2.10838 4.47579,0.90536 8.94267,1.61647 13.39636,2.03887 z"
         id="path2-5"
         style="stroke:#000000;stroke-width:2.32259;stroke-dasharray:none;stroke-opacity:1"
         sodipodi:nodetypes="ccccccccc" /><path
         fill="#fefefe"
         d="m 420.73098,732.74924 c 0.16605,0.0376 0.32327,0.0615 0.4746,0.14245 0.19084,1.49259 0.48354,2.93964 1.01378,4.35123 l 0.69132,1.64881 c 0.11304,0.25498 0.3131,0.59092 0.35053,0.86427 -3.38586,1.31875 -5.88595,0.53798 -8.86795,-0.96306 -4.84177,-2.84555 -9.02471,-7.42607 -10.99427,-12.72672 3.75169,2.83784 8.23961,4.29963 12.72721,5.52821 z"
         id="path3-1"
         style="stroke:#000000;stroke-width:2.32259;stroke-dasharray:none;stroke-opacity:1"
         sodipodi:nodetypes="ccccccccc" /><path
         fill="#fefefe"
         d="m 419.63719,727.11092 c -0.99006,-0.26054 -2.01274,-0.4366 -2.97937,-0.7825 -0.85278,-0.30505 -1.72241,-0.79395 -2.50264,-1.25578 -2.16532,-1.2816 -4.13288,-2.88937 -5.79407,-4.78297 -4.41276,-5.02993 -6.03531,-11.58112 -5.60542,-18.1506 1.44243,3.24637 3.5683,6.08982 6.39823,8.27104 l 1.57984,1.10672 c 0.28142,0.18129 0.70379,0.34916 0.93296,0.58562 0.21062,0.21732 0.3861,0.48811 0.57442,0.72644 l 1.38168,1.69296 c 2.2089,2.46776 4.80215,4.73075 7.62498,6.46811 l 0.12898,0.13734 c -0.62085,1.97648 -1.04172,4.00744 -1.0594,6.08448 z"
         id="path6-0"
         style="stroke:#000000;stroke-width:2.32259;stroke-dasharray:none;stroke-opacity:1" /><path
         fill="#fefefe"
         d="m 422.50359,716.14959 c -6.06305,-3.90641 -11.27396,-9.80969 -14.03576,-16.50113 -0.43606,-1.05665 -0.75161,-2.15168 -1.06003,-3.25081 -2.00973,-7.16318 -1.47637,-15.1216 1.38236,-21.98689 0.2891,0.72521 0.42082,1.57216 0.62475,2.33043 0.35788,1.33073 0.7986,2.60686 1.35738,3.86748 0.47228,1.06564 0.9832,2.14161 1.58175,3.1412 l 0.90316,1.40505 c 0.18746,0.2736 0.50729,0.62227 0.60871,0.93662 0.21288,0.6592 0.26249,1.40777 0.42808,2.08389 0.33393,1.36262 0.78211,2.71126 1.23813,4.03775 0.45987,1.33772 1.06344,2.61477 1.67154,3.88916 l 1.49177,2.99798 c 1.87192,3.37951 4.15198,6.55044 6.51068,9.6034 l 0.23463,0.30861 c -0.0517,0.33478 -0.27329,0.71011 -0.41015,1.02434 l -0.66812,1.64046 -1.60838,4.55102 z"
         id="path8-6"
         style="stroke:#000000;stroke-width:2.32259;stroke-dasharray:none;stroke-opacity:1" /><path
         fill="#fefefe"
         d="m 427.82911,704.30477 c -1.48769,-2.03108 -2.99773,-4.05116 -4.324,-6.19379 -0.96557,-1.5597 -1.79369,-3.1602 -2.59468,-4.80719 -1.11105,-2.2848 -2.10439,-4.7802 -2.55777,-7.29184 -0.24624,-1.36401 -0.45268,-2.72558 -0.51351,-4.11224 -0.24301,-5.54139 1.1937,-11.18988 3.82779,-16.05429 0.72352,-1.33628 1.55305,-2.58504 2.42036,-3.83035 0.042,0.0418 0.0238,0.31948 0.0245,0.39377 0.0211,2.54183 0.12403,5.04409 0.42467,7.56995 0.69681,5.85525 2.16034,11.48155 3.87478,17.11022 l 3.27489,9.76808 c -0.12526,0.3865 -0.4152,0.75921 -0.61716,1.11385 l -0.73083,1.39548 -2.32068,4.9936 -0.078,0.039 z"
         id="path9-2"
         style="stroke:#000000;stroke-width:2.32259;stroke-dasharray:none;stroke-opacity:1" /><path
         fill="#0f0f0f"
         d="m 432.78711,753.3154 c 6.28761,7.956 12.85273,15.64753 20.25674,22.5946 5.03214,4.72143 10.49456,9.17358 16.60299,12.43754 7.93511,4.24005 17.11673,6.68524 26.01566,7.74271 2.47919,0.29452 4.96743,0.37534 7.45739,0.50978 2.29621,0.12402 4.63384,0.35136 6.93082,0.15841 -0.31138,0.39113 -0.97692,0.55687 -1.44822,0.75118 -3.40429,1.40427 -7.02194,2.24905 -10.67808,2.66433 -10.79379,1.22587 -22.09365,-1.38775 -31.6759,-6.36425 -4.33537,-2.25144 -8.33793,-4.99995 -12.15002,-8.04259 -5.94588,-4.74606 -11.37367,-10.20987 -16.25291,-16.04008 l -4.06298,-5.01213 -9.08906,8.41029 -21.3164,-10.37972 2.49671,-15.7079 c 0.38126,0.21008 0.7698,0.4604 1.18359,0.59783 2.32478,1.18832 4.66524,2.35494 7.11431,3.26873 5.93832,2.21617 7.44568,2.96323 13.74108,2.45884 z"
         id="path10-3"
         style="fill:none;fill-opacity:1;stroke:#000000;stroke-width:2.32259;stroke-dasharray:none;stroke-opacity:1"
         sodipodi:nodetypes="ccccccccccccccccccc" /><path
         fill="#dc9308"
         d="m 463.02874,689.96939 0.14384,0.035 c 0.49063,0.11195 1.1488,0.0313 1.65643,0.0217 l 3.58408,-0.053 c 2.39392,-0.0242 4.86943,0.10962 7.24971,-0.0434 -6.31985,10.20788 -9.878,22.14022 -9.54579,34.17661 0.11685,4.25601 0.74673,8.39684 1.7215,12.53376 3.77093,16.00471 11.61851,30.25771 21.33565,40.94937 12.10107,12.64047 8.48263,7.78003 20.17454,16.94792 -17.32365,-3.71452 -21.55024,-4.23093 -26.35187,-6.3316 -9.89964,-6.18762 -14.97824,-6.89097 -26.89975,-18.41407 -12.79352,-12.36596 -18.29357,-15.79526 -23.00912,-27.19435 l -3.2569,-19.42517 c -2.88158,-22.76633 4.41888,-31.58046 4.03571,-32.91484 l 21.28156,-0.26223 5.32127,0.0602 c 0.85201,-0.008 1.71303,0.0204 2.55906,-0.0844 z"
         id="path11-9"
         style="fill:none;stroke:#000000;stroke-width:2.32259;stroke-dasharray:none;stroke-opacity:1"
         sodipodi:nodetypes="cccccsccccsccccccc" /><path
         id="path2-8"
         inkscape:transform-center-x="-0.01494134"
         inkscape:transform-center-y="-3.7500871"
         d="m 427.40161,748.51285 c 20.36512,-7.37419 13.98417,-9.56844 21.66325,-57.74338 8.14056,47.72615 2.64335,50.64631 21.89168,57.54181 z"
         sodipodi:nodetypes="cccc"
         style="stroke-width:10.6897" /><path
         id="path2-0"
         inkscape:transform-center-x="-0.0034207367"
         inkscape:transform-center-y="-1.3106034"
         d="m 444.38529,757.43968 c 4.11726,-2.61102 3.85157,-6.32045 4.96018,-20.18053 1.20756,13.97013 0.83807,17.62212 5.01247,20.11007 z"
         sodipodi:nodetypes="cccc"
         style="stroke-width:3.02394" /></g></g></svg>
