<?xml version="1.0" encoding="UTF-8" standalone="no"?>
<svg
   width="63mm"
   height="88mm"
   version="1.1"
   id="svg132"
   sodipodi:docname="card-trauma-desire.svg"
   viewBox="0 0 975.48891 1362.5877"
   inkscape:version="1.3.2 (091e20e, 2023-11-25, custom)"
   xmlns:inkscape="http://www.inkscape.org/namespaces/inkscape"
   xmlns:sodipodi="http://sodipodi.sourceforge.net/DTD/sodipodi-0.dtd"
   xmlns="http://www.w3.org/2000/svg"
   xmlns:svg="http://www.w3.org/2000/svg">
  <defs
     id="defs132" />
  <sodipodi:namedview
     id="namedview132"
     pagecolor="#ffffff"
     bordercolor="#000000"
     borderopacity="0.25"
     inkscape:showpageshadow="2"
     inkscape:pageopacity="0.0"
     inkscape:pagecheckerboard="0"
     inkscape:deskcolor="#d1d1d1"
     inkscape:zoom="1.1450488"
     inkscape:cx="282.52071"
     inkscape:cy="347.14678"
     inkscape:window-width="1920"
     inkscape:window-height="1017"
     inkscape:window-x="-8"
     inkscape:window-y="-8"
     inkscape:window-maximized="1"
     inkscape:current-layer="svg132"
     inkscape:document-units="mm" />
  <g
     id="g1"
     transform="matrix(1.0002374,0,0,0.84912054,-227.25434,-139.51318)">
    <path
       fill="#af1613"
       d="m 461.16123,652.42104 c 2.56653,-3.12101 6.14616,-5.35639 10.22627,-5.76015 4.01835,-0.39765 7.92893,0.78519 11.04533,3.35574 3.22021,2.6563 5.20029,6.52172 5.58451,10.66457 0.37196,4.0101 -0.89963,8.14599 -3.47952,11.24073 l -23.33381,23.51814 -15.36322,-15.5709 3.63398,0.0134 11.69975,11.95503 c 0.24492,-0.17777 0.46411,-0.44137 0.67826,-0.65592 l 1.20217,-1.2047 4.25912,-4.24794 10.14427,-10.14134 3.0463,-3.04114 c 1.11112,-1.11234 2.22372,-2.16855 3.07867,-3.50103 1.88486,-2.93766 2.38752,-6.44509 1.65165,-9.83401 -0.74255,-3.4199 -2.74177,-6.34953 -5.69247,-8.24005 -2.64969,-1.69769 -5.9675,-2.41777 -9.0636,-1.7252 -4.12997,0.92379 -7.08392,3.61388 -9.28401,7.10435 l -0.0802,-0.037 z"
       id="path2"
       style="stroke-width:0.0681122" />
    <path
       fill="#e7342a"
       d="m 445.84079,679.86917 -7.69367,-7.87095 c -2.67216,-2.91792 -3.96793,-6.86188 -3.78279,-10.7901 0.18833,-3.99681 1.94793,-7.94344 4.92075,-10.64394 2.98617,-2.7125 6.8456,-4.12582 10.88008,-3.92074 3.32407,0.16892 6.65155,1.52388 9.12007,3.76203 0.44803,0.40617 0.88579,0.8318 1.28547,1.28596 0.20011,0.22742 0.36536,0.48407 0.56941,0.70693 l 0.0211,0.0227 -0.0465,3.89254 0.0802,0.037 c 2.20008,-3.49046 5.15403,-6.18054 9.284,-7.10434 3.09611,-0.69257 6.41392,0.0275 9.06361,1.7252 2.95067,1.89052 4.9499,4.82015 5.69247,8.24006 0.73588,3.38891 0.23322,6.89634 -1.65166,9.83401 -0.85493,1.33247 -1.96754,2.38868 -3.07866,3.50103 l -3.0463,3.04113 -10.14428,10.14134 -4.25911,4.24795 -1.20218,1.20469 c -0.21415,0.21456 -0.43334,0.47815 -0.67826,0.65594 l -11.69975,-11.95504 z"
       id="path3"
       style="stroke-width:0.0681122" />
    <path
       fill="#ef957e"
       d="m 442.91348,673.17642 -0.039,-0.0157 c -0.13541,-0.0683 -0.26993,-0.21592 -0.38334,-0.31924 l -0.89343,-0.864 c -0.51724,-0.50124 -1.07358,-0.9704 -1.56576,-1.49622 -1.16519,-1.24454 -2.07462,-2.86512 -2.62285,-4.4753 -1.07719,-3.16407 -0.87096,-6.77633 0.62309,-9.77584 1.49873,-3.00886 4.17874,-5.39938 7.37523,-6.47099 3.06614,-1.02787 6.42589,-0.79596 9.32835,0.64795 2.29545,1.14197 3.91154,2.81065 5.38488,4.87587 0.21843,0.30624 0.62737,0.74045 0.74357,1.08639 l -0.0331,-0.0227 c -0.62533,-0.43476 -1.17439,-0.94157 -1.82887,-1.34439 -2.6589,-1.63646 -5.88012,-2.19989 -8.94706,-1.66835 -3.19433,0.55362 -5.97622,2.40014 -7.82805,5.045 -1.83235,2.61707 -2.56081,6.11006 -1.99698,9.24621 0.35534,1.97675 1.26566,4.09605 2.6834,5.55126 z"
       id="path4"
       style="stroke-width:0.0681122" />
    <text
       xml:space="preserve"
       style="font-style:normal;font-variant:normal;font-weight:normal;font-stretch:normal;font-size:148.144px;font-family:Amiri;-inkscape-font-specification:'Amiri, Normal';font-variant-ligatures:normal;font-variant-caps:normal;font-variant-numeric:normal;font-variant-east-asian:normal;fill:#d15151;fill-opacity:1;stroke:#000000;stroke-width:0.269287;stroke-dasharray:none;stroke-opacity:1;paint-order:markers fill stroke"
       x="546.08429"
       y="735.26105"
       id="text1"><tspan
         sodipodi:role="line"
         id="tspan1"
         x="546.08429"
         y="735.26105">Will: -1</tspan></text>
    <rect
       style="fill:#ef957e;fill-opacity:1;stroke:none;stroke-width:0.499792;paint-order:markers fill stroke"
       id="rect1"
       width="53.548679"
       height="2.2158067"
       x="434.49335"
       y="658.38293" />
    <path
       fill="#37b2df"
       d="m 451.8193,621.49996 c 9.12913,0.41534 11.10891,-0.10056 20.02396,0.10644 0.30265,2.94642 0.41682,5.84348 1.15743,8.73237 0.27275,1.06425 0.61602,2.21895 1.24563,3.13052 l 20.02884,5.67374 5.0134,1.3092 c 2.4174,0.5843 4.7771,1.07225 6.9577,2.33525 2.7378,1.58558 4.8963,4.10145 6.3336,6.89444 2.214,4.30246 2.235,9.22697 2.9408,13.91725 l -13.8195,6.29428 -1.7786,0.84889 c -0.3688,0.15858 -0.7997,0.27486 -1.1342,0.49022 l -0.7422,4.52128 -1.6516,7.02915 -2.98662,10.1381 -4.0143,11.95049 c -2.4754,8.25136 -3.13596,17.05139 -1.53106,25.53428 1.09839,5.80527 3.23882,11.34021 5.01966,16.95369 -0.16778,0.24465 -0.70284,0.45156 -0.97665,0.592 -1.38457,0.70679 -2.82743,1.29124 -4.29838,1.79263 -8.84685,3.01439 -17.89169,4.05946 -27.20701,3.88277 -10.17825,-0.19331 -20.3618,-1.88475 -29.56369,-6.40633 0.62054,-1.19912 1.09989,-2.52811 1.57137,-3.79519 l 2.35534,-7.14634 c 1.12315,-3.7982 2.08093,-7.66434 2.43099,-11.6196 1.0934,-12.35357 -4.13421,-23.93164 -7.99266,-35.33 -1.64403,-4.85611 -2.88845,-9.96094 -3.9983,-14.96369 l -0.45321,-2.97542 c -2.0761,-0.74983 -4.10025,-1.95633 -6.09102,-2.91955 l -10.46625,-5.06814 0.87396,-6.47174 c 1.06531,-6.33323 3.94665,-12.25872 10.16603,-14.85583 2.8019,-1.17013 6.02002,-1.80351 8.95663,-2.57946 l 14.12989,-3.98607 4.17907,-1.24714 c 1.00385,-0.30219 2.19661,-0.563 3.05049,-1.17011 1.8186,-3.50748 2.15855,-7.70241 2.27046,-11.59242 z"
       id="path5"
       sodipodi:nodetypes="ccccccccccccccccccccccccscccccccccccc"
       style="fill:none;stroke:#f19494;stroke-width:2.63227;stroke-dasharray:none;stroke-opacity:1" />
    <path
       fill="#26A4D4"
       d="m 461.94295,697.78874 0.0784,0.0662 0.0552,43.01425 -0.1015,0.20348 c -0.15236,-1.15785 -0.11118,-2.40653 -0.14255,-3.57649 l -0.18045,-4.66046 -0.29976,-14.06493 0.27638,-11.09147 0.18543,-7.45781 c 0.0372,-0.81352 -0.019,-1.6279 0.12886,-2.43282 z"
       id="path6"
       style="fill:#6f838b;fill-opacity:1;stroke-width:0.121114" />
    <path
       fill="#26A4D4"
       d="m 498.70556,662.30772 c -0.1814,1.4787 -0.5573,2.95829 -0.9148,4.40314 -0.3709,1.49901 -0.7611,3.0717 -1.3682,4.49489 -0.4939,1.15757 -1.2068,2.27603 -1.8363,3.36681 -1.93611,3.35477 -3.88966,6.53748 -6.71934,9.23149 -3.79353,3.61168 -8.49658,5.38909 -13.72699,5.26891 l -0.0838,-0.0492 -0.0192,-0.0953 1.0028,-0.2745 c 5.57078,-1.49358 10.40469,-4.98147 13.94297,-9.50209 2.51006,-3.20692 4.46767,-6.85905 6.3643,-10.44982 z"
       id="path7"
       style="fill:#f19494;fill-opacity:1;stroke-width:0.15484;stroke-dasharray:none" />
    <path
       fill="#26A4D4"
       d="m 423.26805,660.79202 c 0.32229,0.38209 0.50517,1.23929 0.69274,1.71833 l 1.42927,3.42003 c 1.01804,2.27621 2.08243,4.53564 3.32202,6.70114 3.66394,6.40014 8.63542,13.00945 15.92373,15.44257 1.08448,0.362 2.2851,0.68246 3.41777,0.84119 0.9762,0.13668 1.97309,0.15978 2.9268,0.41848 l -1.51732,0.11069 c -5.67932,0.26579 -11.36211,-1.78055 -15.56459,-5.59687 -3.96477,-3.60035 -6.4521,-8.3373 -8.33277,-13.28296 -1.16725,-3.06996 -2.14512,-6.47731 -2.29765,-9.77261 z"
       id="path8"
       style="fill:#f29494;fill-opacity:0.745098;stroke-width:0.151022" />
  </g>
  <g
     id="g4"
     transform="matrix(4.0967955,0,0,4.0967955,280.35691,507.38156)"
     style="opacity:0.5">
    <path
       transform="matrix(0.0976562,0,0,0.0976562,6.10352e-5,0)"
       d="m 653.383,404.368 3.867,-3.89 c 8.969,-9.886 14.025,-22.138 14.796,-35.43 0.494,-8.533 -0.505,-17.129 -1.022,-25.642 -1.353,-22.28 6.993,-42.362 17.49,-61.576 9.212,-16.862 20.209,-32.611 32.962,-46.969 -1.604,7.454 -4.299,14.733 -5.966,22.203 -7.38,33.087 -9.366,69.494 4.692,101.164 3.915,8.821 9.117,16.765 13.642,25.24 3.125,5.853 5.705,11.998 7.897,18.257 9.46,27.008 10.817,59.802 3.783,87.525 -1.26,4.966 -2.605,10.207 -4.823,14.836 -2.673,-2.078 -4.83,-5.035 -7.37,-7.341 -8.853,-8.036 -18.257,-15.925 -28.528,-22.096 -19.835,-11.92 -41.503,-19.287 -64.838,-18.126 -7.708,0.384 -15.746,2.112 -23.223,3.975 -42.625,10.625 -82.248,39.042 -104.888,76.699 -9.633,-16.69 -21.427,-30.385 -36.399,-42.479 -20.952,-16.925 -46.16,-29.426 -72.455,-35.323 -9.567,-2.146 -20.202,-3.796 -30.026,-2.647 -28.115,3.288 -53.744,15.566 -75.24,33.847 -6.604,5.616 -12.544,11.938 -18.57,18.155 -1.663,-7.673 -2.389,-15.671 -2.937,-23.487 -1.822,-25.991 0.985,-52.863 8.76,-77.763 4.319,-13.832 10.433,-27.561 19.606,-38.899 6.184,-7.644 14.06,-13.914 21.326,-20.481 20.595,-18.611 39.907,-39.644 44.628,-68.061 4.517,-27.194 -0.246,-57.301 -13.921,-81.351 -2.801,-4.926 -6.278,-9.134 -9.576,-13.7 l 0.385,0.053 c 3.016,0.927 6.157,3.328 8.726,5.123 14.436,10.088 26.724,23.61 37.144,37.716 14.138,19.139 26.577,40.085 27.051,64.543 0.264,13.632 -3.231,27.372 -7.781,40.123 -4.868,13.639 -10.632,27.234 -12.698,41.675 -2.261,15.803 1.475,27.999 10.876,40.616 0.572,-16.95 5.619,-32.614 17.619,-44.965 4.858,-5 10.357,-9.731 14.117,-15.658 5.058,-7.97 6.852,-16.088 9.668,-24.892 1.025,4.247 1.836,8.745 3.287,12.858 5.311,15.051 15.893,26.137 26.267,37.851 8.515,9.615 14.978,21.212 16.837,34.056 0.942,6.509 0.639,12.792 0.235,19.317 3.446,-5.488 6.565,-10.838 8.674,-17.009 7.977,-23.344 1.376,-48.269 -12.386,-68.018 -9.634,-13.825 -21.628,-25.908 -30.881,-40.064 -7.828,-11.975 -13.649,-25.842 -16.615,-39.837 -7.465,-35.219 4.264,-79.434 28.659,-105.975 9.809,-10.673 21.672,-18.344 29.655,-30.857 18.319,-28.7113 18.206,-62.3969 11.092,-94.5684 6.535,10.336 12.792,20.0048 17.675,31.3264 7.221,16.7424 11.96,33.497 14.073,51.626 1.296,11.116 1.478,22.867 -1.591,33.718 -2.498,8.83 -7.82,16.615 -11.149,25.135 -12.535,32.085 8.386,63.9 33.442,82.564 13.03,9.706 28.289,16.965 40.475,27.608 13.797,12.05 24.332,26.699 31.559,43.517 7.731,17.991 10.693,39.412 7.306,58.811 -1.577,9.04 -4.539,17.241 -7.917,25.716 4.541,-2.381 8.565,-5.525 12.529,-8.749 z M 507.231,225.75 c -0.416,0.387 -1.355,1.043 -1.615,1.5 -0.691,1.211 -0.817,4.014 -0.976,5.417 l -1.331,15.739 c -0.537,14.121 3.008,27.954 12.828,38.529 6.635,7.146 14.243,12.44 23.262,16.134 1.856,0.76 4.53,2.005 6.526,2.015 0.664,0.004 1.201,-0.057 1.825,-0.257 1.252,-1.148 1.841,-1.35 2.005,-3.187 0.089,-1.009 -0.282,-1.741 -0.66,-2.653 -2.755,-2.849 -8.32,-4.104 -11.914,-6.039 -15.801,-8.508 -25.927,-23.517 -25.468,-41.698 l 1.001,-15.68 c 0.142,-1.991 0.698,-4.48 0.422,-6.441 -0.164,-1.171 -1.062,-2.104 -1.803,-2.954 -1.602,-0.725 -2.382,-0.733 -4.102,-0.425 z"
       id="path2-3" />
    <path
       transform="matrix(0.0976562,0,0,0.0976562,6.10352e-5,0)"
       d="m 346.52,180.566 0.53,0.442 z"
       id="path3-8" />
    <path
       transform="matrix(0.0976562,0,0,0.0976562,6.10352e-5,0)"
       d="m 618.344,875.037 c -28.771,21.607 -55.68,45.482 -78.569,73.335 -7.468,9.087 -14.82,18.466 -20.568,28.759 -2.618,4.688 -5.824,9.831 -6.883,15.14 l -0.106,0.59 c -5.572,-14.322 -13.75,-26.466 -23.123,-38.575 -17.3,-22.349 -37.782,-41.752 -59.686,-59.519 l -31.627,-24.36 C 339.217,823.715 279.581,771.672 251.441,700.198 c -6.676,-16.955 -11.563,-34.636 -13.561,-52.781 -4.95,-44.963 7.9,-87.137 33.345,-124.167 3.17,-4.613 6.261,-9.418 9.787,-13.763 22.533,-27.765 56.715,-48.938 92.549,-52.788 13.035,-0.854 25.686,1.457 38.122,5.225 35.522,10.76 69.11,32.436 90.316,63.343 3.75,5.467 6.681,11.366 9.802,17.198 3.261,-4.479 5.381,-9.949 8.361,-14.668 8.21,-13.001 19.277,-24.286 31.288,-33.818 20.118,-15.967 44.177,-27.852 69.108,-33.998 11.068,-2.729 22.949,-4.481 34.348,-3.094 36.052,4.388 69.742,28.639 91.781,56.689 29.899,38.054 43.935,90.772 38.005,138.665 -2.495,20.151 -8.529,39.23 -16.711,57.761 -7.496,16.977 -16.722,33.758 -27.52,48.862 -16.082,22.495 -35.409,42.01 -55.738,60.647 z"
       id="path4-5" />
  </g>
</svg>
