<?xml version="1.0" encoding="UTF-8" standalone="no"?>
<svg
   width="63mm"
   height="88mm"
   version="1.1"
   id="svg33"
   sodipodi:docname="card-burden-slow.svg"
   viewBox="0 0 975.48891 1362.5877"
   inkscape:version="1.4 (86a8ad7, 2024-10-11)"
   xml:space="preserve"
   xmlns:inkscape="http://www.inkscape.org/namespaces/inkscape"
   xmlns:sodipodi="http://sodipodi.sourceforge.net/DTD/sodipodi-0.dtd"
   xmlns="http://www.w3.org/2000/svg"
   xmlns:svg="http://www.w3.org/2000/svg"><defs
     id="defs33"><linearGradient
       id="gradient_0"
       gradientUnits="userSpaceOnUse"
       x1="848.26208"
       y1="410.36462"
       x2="843.86401"
       y2="443.68008"><stop
         offset="0"
         stop-color="#FFFDDF"
         id="stop7" /><stop
         offset="1"
         stop-color="white"
         id="stop8" /></linearGradient><linearGradient
       id="gradient_1"
       gradientUnits="userSpaceOnUse"
       x1="801.59741"
       y1="398.55792"
       x2="794.77374"
       y2="435.64236"><stop
         offset="0"
         stop-color="#FFF5D5"
         id="stop10" /><stop
         offset="1"
         stop-color="white"
         id="stop11" /></linearGradient><linearGradient
       id="gradient_0-5"
       gradientUnits="userSpaceOnUse"
       x1="498.96158"
       y1="524.7522"
       x2="482.88898"
       y2="488.75446"><stop
         offset="0"
         stop-color="#786E67"
         id="stop10-2" /><stop
         offset="1"
         stop-color="#BF9D7D"
         id="stop11-7" /></linearGradient><linearGradient
       id="gradient_1-4"
       gradientUnits="userSpaceOnUse"
       x1="546.62543"
       y1="578.42651"
       x2="395.18832"
       y2="546.83398"><stop
         offset="0"
         stop-color="#494A4C"
         id="stop12" /><stop
         offset="1"
         stop-color="#696B5D"
         id="stop13" /></linearGradient><linearGradient
       id="gradient_2"
       gradientUnits="userSpaceOnUse"
       x1="624.06439"
       y1="627.91064"
       x2="585.09515"
       y2="550.37427"><stop
         offset="0"
         stop-color="#A7552A"
         id="stop17"
         style="stop-color:#d6835c;stop-opacity:1;" /><stop
         offset="1"
         stop-color="#CB793B"
         id="stop18" /></linearGradient><linearGradient
       id="gradient_3"
       gradientUnits="userSpaceOnUse"
       x1="342.72119"
       y1="774.01965"
       x2="321.09616"
       y2="685.42163"><stop
         offset="0"
         stop-color="#240504"
         id="stop37" /><stop
         offset="1"
         stop-color="#3B1406"
         id="stop38" /></linearGradient><filter
       style="color-interpolation-filters:sRGB;"
       inkscape:label="Greyscale"
       id="filter1"
       x="0"
       y="0"
       width="1"
       height="1"><feColorMatrix
         values="0.21 0.72 0.072 0 0 0.21 0.72 0.072 0 0 0.21 0.72 0.072 0 0 0 0 0 1 0 "
         id="feColorMatrix1" /></filter></defs><sodipodi:namedview
     id="namedview33"
     pagecolor="#ffffff"
     bordercolor="#000000"
     borderopacity="0.25"
     inkscape:showpageshadow="2"
     inkscape:pageopacity="0.0"
     inkscape:pagecheckerboard="0"
     inkscape:deskcolor="#d1d1d1"
     inkscape:zoom="3.238687"
     inkscape:cx="16.827807"
     inkscape:cy="144.96615"
     inkscape:window-width="1904"
     inkscape:window-height="1001"
     inkscape:window-x="0"
     inkscape:window-y="0"
     inkscape:window-maximized="0"
     inkscape:current-layer="svg33"
     inkscape:document-units="mm" /><g
     id="g1"
     transform="matrix(0.74696101,0,0,0.80234064,-50.890305,427.68301)"><text
       xml:space="preserve"
       style="font-style:normal;font-variant:normal;font-weight:normal;font-stretch:normal;font-size:148.144px;font-family:Amiri;-inkscape-font-specification:'Amiri, Normal';font-variant-ligatures:normal;font-variant-caps:normal;font-variant-numeric:normal;font-variant-east-asian:normal;fill:#000000;fill-opacity:1;stroke:#000000;stroke-width:0.269288;stroke-dasharray:none;stroke-opacity:1;paint-order:markers fill stroke"
       x="513.04822"
       y="778.5697"
       id="text1"><tspan
         sodipodi:role="line"
         id="tspan1"
         x="513.04822"
         y="778.5697">Speed:-1*</tspan></text><path
       fill="#fefefe"
       d="m 423.87315,743.60565 0.21512,0.052 c 1.71719,3.76403 3.49119,3.70519 5.98388,7.35145 -7.82361,-0.10797 -11.69949,-1.08864 -18.76246,-4.29382 -1.34963,-0.0879 -4.75661,-3.11408 -5.45151,-3.66689 -1.44497,-1.14935 -2.73119,-2.33754 -3.98746,-3.59097 2.82341,0.88799 5.73821,1.52855 8.60636,2.10838 4.47579,0.90536 8.94267,1.61647 13.39636,2.03887 z"
       id="path2-5"
       style="stroke:#000000;stroke-width:2.32259;stroke-dasharray:none;stroke-opacity:1"
       sodipodi:nodetypes="ccccccccc" /><path
       fill="#fefefe"
       d="m 420.73098,732.74924 c 0.16605,0.0376 0.32327,0.0615 0.4746,0.14245 0.19084,1.49259 0.48354,2.93964 1.01378,4.35123 l 0.69132,1.64881 c 0.11304,0.25498 0.3131,0.59092 0.35053,0.86427 -3.38586,1.31875 -5.88595,0.53798 -8.86795,-0.96306 -4.84177,-2.84555 -9.02471,-7.42607 -10.99427,-12.72672 3.75169,2.83784 8.23961,4.29963 12.72721,5.52821 z"
       id="path3"
       style="stroke:#000000;stroke-width:2.32259;stroke-dasharray:none;stroke-opacity:1"
       sodipodi:nodetypes="ccccccccc" /><path
       fill="#fefefe"
       d="m 419.63719,727.11092 c -0.99006,-0.26054 -2.01274,-0.4366 -2.97937,-0.7825 -0.85278,-0.30505 -1.72241,-0.79395 -2.50264,-1.25578 -2.16532,-1.2816 -4.13288,-2.88937 -5.79407,-4.78297 -4.41276,-5.02993 -6.03531,-11.58112 -5.60542,-18.1506 1.44243,3.24637 3.5683,6.08982 6.39823,8.27104 l 1.57984,1.10672 c 0.28142,0.18129 0.70379,0.34916 0.93296,0.58562 0.21062,0.21732 0.3861,0.48811 0.57442,0.72644 l 1.38168,1.69296 c 2.2089,2.46776 4.80215,4.73075 7.62498,6.46811 l 0.12898,0.13734 c -0.62085,1.97648 -1.04172,4.00744 -1.0594,6.08448 z"
       id="path6"
       style="stroke:#000000;stroke-width:2.32259;stroke-dasharray:none;stroke-opacity:1" /><path
       fill="#fefefe"
       d="m 422.50359,716.14959 c -6.06305,-3.90641 -11.27396,-9.80969 -14.03576,-16.50113 -0.43606,-1.05665 -0.75161,-2.15168 -1.06003,-3.25081 -2.00973,-7.16318 -1.47637,-15.1216 1.38236,-21.98689 0.2891,0.72521 0.42082,1.57216 0.62475,2.33043 0.35788,1.33073 0.7986,2.60686 1.35738,3.86748 0.47228,1.06564 0.9832,2.14161 1.58175,3.1412 l 0.90316,1.40505 c 0.18746,0.2736 0.50729,0.62227 0.60871,0.93662 0.21288,0.6592 0.26249,1.40777 0.42808,2.08389 0.33393,1.36262 0.78211,2.71126 1.23813,4.03775 0.45987,1.33772 1.06344,2.61477 1.67154,3.88916 l 1.49177,2.99798 c 1.87192,3.37951 4.15198,6.55044 6.51068,9.6034 l 0.23463,0.30861 c -0.0517,0.33478 -0.27329,0.71011 -0.41015,1.02434 l -0.66812,1.64046 -1.60838,4.55102 z"
       id="path8"
       style="stroke:#000000;stroke-width:2.32259;stroke-dasharray:none;stroke-opacity:1" /><path
       fill="#fefefe"
       d="m 427.82911,704.30477 c -1.48769,-2.03108 -2.99773,-4.05116 -4.324,-6.19379 -0.96557,-1.5597 -1.79369,-3.1602 -2.59468,-4.80719 -1.11105,-2.2848 -2.10439,-4.7802 -2.55777,-7.29184 -0.24624,-1.36401 -0.45268,-2.72558 -0.51351,-4.11224 -0.24301,-5.54139 1.1937,-11.18988 3.82779,-16.05429 0.72352,-1.33628 1.55305,-2.58504 2.42036,-3.83035 0.042,0.0418 0.0238,0.31948 0.0245,0.39377 0.0211,2.54183 0.12403,5.04409 0.42467,7.56995 0.69681,5.85525 2.16034,11.48155 3.87478,17.11022 l 3.27489,9.76808 c -0.12526,0.3865 -0.4152,0.75921 -0.61716,1.11385 l -0.73083,1.39548 -2.32068,4.9936 -0.078,0.039 z"
       id="path9"
       style="stroke:#000000;stroke-width:2.32259;stroke-dasharray:none;stroke-opacity:1" /><path
       fill="#0f0f0f"
       d="m 432.78711,753.3154 c 6.28761,7.956 12.85273,15.64753 20.25674,22.5946 5.03214,4.72143 10.49456,9.17358 16.60299,12.43754 7.93511,4.24005 17.11673,6.68524 26.01566,7.74271 2.47919,0.29452 4.96743,0.37534 7.45739,0.50978 2.29621,0.12402 4.63384,0.35136 6.93082,0.15841 -0.31138,0.39113 -0.97692,0.55687 -1.44822,0.75118 -3.40429,1.40427 -7.02194,2.24905 -10.67808,2.66433 -10.79379,1.22587 -22.09365,-1.38775 -31.6759,-6.36425 -4.33537,-2.25144 -8.33793,-4.99995 -12.15002,-8.04259 -5.94588,-4.74606 -11.37367,-10.20987 -16.25291,-16.04008 l -4.06298,-5.01213 -9.08906,8.41029 -21.3164,-10.37972 2.49671,-15.7079 c 0.38126,0.21008 0.7698,0.4604 1.18359,0.59783 2.32478,1.18832 4.66524,2.35494 7.11431,3.26873 5.93832,2.21617 7.44568,2.96323 13.74108,2.45884 z"
       id="path10"
       style="fill:none;fill-opacity:1;stroke:#000000;stroke-width:2.32259;stroke-dasharray:none;stroke-opacity:1"
       sodipodi:nodetypes="ccccccccccccccccccc" /><path
       fill="#dc9308"
       d="m 463.02874,689.96939 0.14384,0.035 c 0.49063,0.11195 1.1488,0.0313 1.65643,0.0217 l 3.58408,-0.053 c 2.39392,-0.0242 4.86943,0.10962 7.24971,-0.0434 -6.31985,10.20788 -9.878,22.14022 -9.54579,34.17661 0.11685,4.25601 0.74673,8.39684 1.7215,12.53376 3.77093,16.00471 11.61851,30.25771 21.33565,40.94937 12.10107,12.64047 8.48263,7.78003 20.17454,16.94792 -17.32365,-3.71452 -21.55024,-4.23093 -26.35187,-6.3316 -9.89964,-6.18762 -14.97824,-6.89097 -26.89975,-18.41407 -12.79352,-12.36596 -18.29357,-15.79526 -23.00912,-27.19435 l -3.2569,-19.42517 c -2.88158,-22.76633 4.41888,-31.58046 4.03571,-32.91484 l 21.28156,-0.26223 5.32127,0.0602 c 0.85201,-0.008 1.71303,0.0204 2.55906,-0.0844 z"
       id="path11"
       style="fill:none;stroke:#000000;stroke-width:2.32259;stroke-dasharray:none;stroke-opacity:1"
       sodipodi:nodetypes="cccccsccccsccccccc" /><path
       id="path2"
       inkscape:transform-center-x="-0.01494134"
       inkscape:transform-center-y="-3.7500871"
       d="m 427.40161,748.51285 c 20.36512,-7.37419 13.98417,-9.56844 21.66325,-57.74338 8.14056,47.72615 2.64335,50.64631 21.89168,57.54181 z"
       sodipodi:nodetypes="cccc"
       style="stroke-width:10.6897" /><path
       id="path2-0"
       inkscape:transform-center-x="-0.0034207367"
       inkscape:transform-center-y="-1.3106034"
       d="m 444.38529,757.43968 c 4.11726,-2.61102 3.85157,-6.32045 4.96018,-20.18053 1.20756,13.97013 0.83807,17.62212 5.01247,20.11007 z"
       sodipodi:nodetypes="cccc"
       style="stroke-width:3.02394" /></g><text
     xml:space="preserve"
     style="font-style:normal;font-variant:normal;font-weight:normal;font-stretch:normal;font-size:114.687px;font-family:Amiri;-inkscape-font-specification:'Amiri, Normal';font-variant-ligatures:normal;font-variant-caps:normal;font-variant-numeric:normal;font-variant-east-asian:normal;fill:#000000;fill-opacity:1;stroke:#000000;stroke-width:0.208471;stroke-dasharray:none;stroke-opacity:1;paint-order:markers fill stroke"
     x="471.50336"
     y="679.073"
     id="text1-6"
     transform="scale(0.96487172,1.0364072)"><tspan
       sodipodi:role="line"
       id="tspan2"
       x="471.50336"
       y="679.073">Slow</tspan></text><g
     id="g2"
     transform="matrix(0.91891455,0,0,0.91891455,284.99254,583.54851)"><path
       transform="scale(0.177734)"
       d="m 5.32868,575.899 c 0.99241,-3.529 1.9012,-6.579 5.21572,-8.606 4.0394,-2.471 10.2369,-2.532 14.8722,-3.506 20.5438,-4.318 40.2765,-12.364 53.5078,-29.421 6.0738,-7.829 6.2758,-18.261 8.7362,-27.542 1.543,-5.821 3.5342,-11.53 5.5941,-17.187 13.1893,-36.215 41.1183,-82.773 67.0743,-111.013 5.814,-6.325 12.298,-11.758 18.738,-17.409 8.09,-7.097 16.121,-14.209 24.588,-20.858 14.963,-11.751 30.179,-22.929 46.672,-32.457 61.644,-35.614 133.364,-49.41 203.752,-52.179 15.848,-0.863 32.085,0.103 47.89,1.302 85.778,6.506 171.343,38.173 232.861,99.825 9.084,9.029 17.759,18.461 25.997,28.268 12.253,14.771 10.373,20.479 29.312,30.743 11.794,-5.285 26.182,-12.963 32.919,-24.503 2.565,-4.392 2.606,-11.529 3.668,-16.509 4.67,-21.901 14.893,-42.005 33.167,-55.493 19.355,-14.286 45.906,-18.677 69.367,-15.009 24.7,3.862 43.212,17.8 57.717,37.563 7.171,2.34 15.493,4.45 21.873,8.507 4.72,3.003 7.05,7.686 8.16,13.047 0.53,2.54 0.66,5.221 0.54,7.808 -0.23,4.903 -1.6,9.729 -2.17,14.6 -0.85,7.228 -0.64,14.48 -2.36,21.609 -0.92,3.863 -2.43,7.746 -4.66,11.05 -1.59,2.353 -3.57,4.335 -6.48,4.795 -3.175,0.503 -4.903,-1.128 -7.306,-2.867 -5.746,2.051 -11.745,3.691 -17.814,4.419 -7.814,0.938 -16.051,-0.514 -21.945,-6.148 -1.884,-1.801 -3.311,-4.456 -5.483,-5.907 -0.973,-0.65 -1.461,-0.79 -2.618,-0.505 -0.727,1.066 -0.824,1.951 -0.674,3.206 0.48,3.997 4.22,7.413 7.293,9.669 13.078,9.598 27.652,3.82 41.949,1.741 -7.469,28.435 -22.256,34.053 -49.591,36.543 -11.796,1.013 -23.621,1.663 -35.458,1.951 -6.439,0.154 -14.993,-0.883 -21.015,1.565 -1.934,0.786 -3.549,2.408 -5,3.873 -3.652,3.688 -6.766,7.99 -10.196,11.892 -7.542,8.576 -15.885,17.151 -24.801,24.292 -1.134,5.779 -2.114,11.645 -4.023,17.23 -5.8,16.964 -18.278,35.815 -31.641,47.765 26.526,20.578 44.95,47.637 55.313,79.499 6.44,19.799 11.297,43.089 1.259,62.552 -2.424,4.66 -5.481,8.961 -9.086,12.781 -9.991,10.7 -37.448,31.798 -51.003,36.045 -11.009,3.449 -22.169,0.403 -32.032,-4.874 -12.198,-6.526 -28.417,-19.439 -32.38,-33.37 -2.983,-10.485 2.401,-19.067 7.344,-27.725 -0.541,0.337 -1.069,0.685 -1.603,1.032 -10.128,6.586 -20.005,20.183 -27.56,29.65 0.908,0.683 1.773,1.397 2.576,2.205 4.011,4.034 6.653,9.408 6.488,15.183 -0.163,5.698 -3.206,10.81 -7.266,14.65 -6.873,6.5 -14.368,8.289 -23.65,8.023 -20.859,-0.599 -50.834,-1.626 -65.136,-19.078 -4.364,-5.325 -6.288,-12.946 -10.957,-17.699 l -3.51,-3.523 c -1.9,-2.914 -3.261,-6.205 -3.746,-9.659 -0.737,-5.245 0.347,-10.781 1.039,-15.984 3.568,-26.856 14.656,-35.926 30.59,-56.256 -56.326,28.979 -176.295,40.171 -239.938,37.209 -20.804,-0.974 -41.483,-3.749 -61.807,-8.295 -0.728,1.958 -1.507,3.897 -2.337,5.814 -13.366,30.271 -41.441,55.488 -72.188,67.076 -18.641,7.026 -41.174,8.498 -59.622,0.079 -13.515,-6.167 -25.746,-17.267 -30.999,-31.408 -2.537,-6.828 -3.424,-14.419 -0.167,-21.196 3.568,-7.423 10.203,-9.777 17.385,-12.418 -3.229,-9.144 -4.266,-16.12 -2.33,-25.655 l -8.798,0.281 c -2.454,6.103 -4.626,12.421 -7.517,18.331 -9.728,19.887 -24.031,37.132 -38.091,54.058 4.654,3.317 8.584,6.866 9.668,12.804 0.891,4.877 -0.802,9.753 -3.568,13.748 -4.68,6.76 -12.036,10.191 -19.946,11.414 -17.629,2.727 -47.344,-0.542 -61.8799,-11.241 -6.4117,-4.719 -15.7642,-21.531 -18.7641,-29.254 -1.4307,-3.764 -2.4302,-7.678 -2.9791,-11.667 -4.306,-29.364 9.3276,-61.229 26.4314,-84.464 C 65.9441,627.412 59.2201,623.865 52.6316,620.078 37.3321,611.118 9.89426,593.433 5.32868,575.899 Z M 399.817,270.197 c -9.99,1.339 -20.653,3.337 -27.076,11.828 -4.587,6.063 -7.002,13.685 -8.693,21.003 -1.956,8.463 -2.203,17.233 -3.989,25.73 -3.909,18.603 -13.593,25.555 -29.253,34.544 -6.612,3.854 -13.315,7.55 -20.104,11.085 -9.342,4.832 -30.341,16.978 -39.941,18.587 -12.947,2.171 -62.841,-10.438 -73.172,-18.1 -4.198,-3.113 -6.259,-6.25 -8.016,-11.115 l -6.128,5.986 c 5.813,11.985 16.199,16.879 28.195,21.053 10.683,3.716 21.683,6.54 32.607,9.448 7.678,2.045 15.933,4.883 23.896,5.253 2.714,0.126 4.949,-0.107 7.405,-1.326 6.177,-3.065 11.321,-8.699 17.262,-12.345 13.993,-8.589 28.373,-16.693 42.624,-24.857 6.83,-3.912 14.938,-7.345 20.87,-12.472 4.495,-3.885 7.231,-9.713 8.979,-15.279 0.932,-2.967 1.604,-6.073 2.15,-9.134 4.761,11.943 11.733,18.749 23.54,23.806 5.244,2.246 10.722,3.931 16.148,5.674 9.734,2.957 19.054,6.482 28.46,10.354 8.635,3.555 17.275,7.812 26.51,9.561 4.776,0.905 10.524,0.228 15.228,-0.847 10.718,-2.447 21.478,-7.234 31.774,-11.111 12.749,-4.802 26.256,-9.141 38.294,-15.546 17.391,-9.255 15.484,-23.629 24.764,-38.477 6.739,-10.782 16.119,-19.121 25.876,-27.074 -14.34,3.357 -28.801,13.457 -36.565,26.037 -4.94,8.004 -6.118,17.958 -11.693,25.411 -9.39,12.555 -36.513,19.733 -51.22,24.748 -7.025,2.395 -14.133,5.231 -21.347,6.963 -4.459,1.071 -8.819,1.589 -13.389,0.943 -13.855,-1.959 -66.649,-20.996 -78.765,-28.432 -4.954,-3.041 -8.494,-7.05 -9.792,-12.814 -2.75,-12.21 -0.471,-33.429 6.499,-44.18 4.534,-6.994 11.171,-10.963 18.482,-14.528 l -0.129,-0.376 z m 538.422,68.094 c -8.168,0.865 -15.236,6.068 -18.489,13.61 -3.254,7.543 -2.188,16.254 2.788,22.789 4.976,6.536 13.09,9.881 21.226,8.751 12.301,-1.707 20.959,-12.966 19.451,-25.293 -1.509,-12.327 -12.626,-21.166 -24.976,-19.857 z m -390.491,27.334 c -8.546,1.455 -16.639,5.038 -24.658,8.229 -16.747,6.663 -41.109,15.37 -51.661,30.564 -3.248,4.676 -2.947,12.744 -3.418,18.225 -1.724,20.07 -3.108,40.54 0.899,60.469 3.565,17.731 10.424,38.219 22.84,51.657 -15.682,-29.004 -20.181,-54.489 -19.497,-87.146 0.223,-10.644 0.749,-21.818 3.767,-32.083 2.314,-7.868 6.972,-11.772 13.561,-16.172 22.915,-14.41 52.889,-26.829 80.256,-20.744 27.176,6.043 48.702,24.422 71.591,39.037 8.663,5.484 17.721,10.318 27.098,14.464 -9.393,-7.585 -19.507,-14.392 -28.994,-21.905 -26.194,-20.744 -55.739,-48.218 -91.784,-44.595 z m -175.581,1.046 c -5.908,0.753 -11.369,2.219 -16.913,4.405 -17.608,6.943 -59.178,30.387 -70.287,44.592 -10.963,14.019 -7.958,48.83 -5.671,66.229 2.687,20.444 12.952,50.385 26.274,66.362 -15.907,-32.278 -21.817,-60.488 -20.271,-96.438 0.33,-7.665 0.355,-16.307 2.842,-23.615 4.97,-14.608 27.715,-26.499 41.248,-32.971 4.926,-2.347 9.919,-4.549 14.974,-6.603 23.114,-9.535 31.089,-13.767 55.782,-6.835 8.538,2.397 16.897,5.108 25.09,8.519 8.961,3.731 17.939,8.369 21.752,17.898 3.733,9.328 2.583,20.678 2.696,30.546 0.36,31.23 5.356,54.103 20.574,81.756 0.272,-1.29 -1.249,-3.519 -1.856,-4.769 -5.516,-11.371 -10.133,-22.937 -12.053,-35.512 -2.397,-15.693 -2.301,-31.276 -1.666,-47.105 0.33,-8.195 1.519,-17.116 0.47,-25.226 -0.505,-3.904 -1.787,-7.536 -3.973,-10.819 -9.297,-13.968 -45.295,-26.415 -61.37,-29.367 -5.928,-1.088 -11.636,-1.435 -17.642,-1.047 z m 365.936,25.521 c -16.669,1.372 -30.547,11.618 -41.08,24.055 -19.598,23.139 -27.024,52.553 -37.015,80.493 -6.161,17.229 -15.873,34.391 -27.466,48.488 -28.33,34.45 -63.125,48.258 -105.64,56.357 -18.502,3.532 -37.178,6.075 -55.95,7.619 -35.035,2.917 -70.261,2.681 -105.254,-0.704 -24.748,-2.287 -49.321,-6.347 -74.237,-6.524 -17.031,-0.122 -30.383,2.603 -46.918,4.868 -18.624,2.551 -38.371,3.751 -56.968,0.585 -25.237,-4.297 -48.664,-15.924 -68.247,-32.268 -12.919,-10.782 -22.2775,-23.653 -31.0632,-37.803 -16.6682,21.194 -34.9607,29.64 -60.7966,34.991 -3.9427,0.817 -10.1349,1.346 -13.3273,3.749 1.401,7.1 26.0889,25.09 33.2206,29.865 17.2711,11.565 36.5361,20.174 56.0165,27.26 40.514,15.134 74.742,17.308 117.313,12.841 16.597,-1.741 33.687,-4.682 50.4,-3.381 10.833,0.844 31.317,9.571 42.398,13.227 13.8,4.591 27.879,8.301 42.15,11.106 61.363,12.35 125.166,7.759 186.625,-1.727 22.277,-3.439 44.605,-7.341 66.303,-13.565 13.963,-4.005 26.826,-9.871 40.38,-14.88 -2.475,-17.813 6.143,-40.239 16.684,-54.303 14.161,-18.751 35.192,-31.109 58.465,-34.353 28.876,-4.054 57.545,3.895 82.173,18.882 15.612,-15.918 33.013,-37.535 32.748,-61.036 -0.264,-23.282 -18.697,-51.995 -34.964,-67.796 -5.177,-5.029 -10.952,-9.8 -17.095,-13.605 -7.697,-4.769 -15.764,-8.625 -22.436,-14.898 -5.303,-4.986 -9.308,-11.173 -13.456,-17.108 -4.337,-0.405 -8.607,-0.711 -12.963,-0.435 z m -538.517,8.454 c -33.465,5.108 -62.705,41.027 -81.778,66.97 -1.574,2.141 -9.64,12.001 -9.821,13.856 l 0.894,-0.661 -0.737,0.073 0.525,0.132 c 23.407,-26.056 59.61,-66.134 97.022,-68.38 11.414,-0.685 24.023,3.31 34.14,8.362 6.962,3.549 14.683,6.439 17.261,14.519 2.664,8.352 3.179,18.146 4.479,26.859 4.351,29.158 8.541,46.425 23.021,72.561 l 0.316,-0.18 c -9.725,-22.863 -16.747,-39.452 -18.973,-64.526 -0.79,-8.895 0.704,-37.798 -2.405,-43.654 -4.249,-8 -19.133,-13.569 -27.031,-16.756 -11.498,-4.639 -24.322,-9.812 -36.913,-9.175 z m 531.755,155.551 c -22.7,2.33 -42.431,11.854 -56.962,29.7 -10.271,12.614 -18.635,31.647 -17.052,48.25 0.025,0.26 0.057,0.52 0.086,0.78 10.074,4.952 19.447,10.923 29.213,16.424 14.204,8 28.704,15.496 42.917,23.506 l 27.641,15.685 c 4.275,2.465 8.999,4.757 12.944,7.678 l 1.275,5.949 c -3.222,-1.502 -6.366,-2.743 -9.762,-3.8 -4.307,2.892 -7.571,8.498 -8.589,13.541 -1.148,5.69 0.528,10.621 3.748,15.302 5.454,7.927 13.341,14.744 21.618,19.576 8.303,4.515 17.532,9.283 27.256,6.579 12.493,-3.473 38.576,-23.445 47.976,-33.088 3.372,-3.406 6.249,-7.268 8.548,-11.474 8.8,-16.251 4.201,-38.739 -0.847,-55.452 -7.266,-24.054 -22.457,-49.638 -40.978,-66.777 -7.986,-7.391 -17.491,-13.81 -27.092,-18.882 -16.049,-8.478 -43.787,-16.605 -61.94,-13.497 z m -476.873,95.511 -30.76,2.807 c -5.231,0.495 -10.91,0.636 -16.012,1.836 -2.693,8.409 -2.147,14.683 1.13,22.736 0.716,1.761 1.808,3.73 1.785,5.666 -0.029,2.405 -2.001,4.068 -3.998,5.008 -5.565,2.621 -13.644,3.326 -16.104,9.868 -1.968,5.235 -0.123,11.55 2.254,16.377 5.755,11.689 18.054,21.281 30.271,25.37 14.645,4.902 30.19,3.493 44.648,-1.345 33.57,-11.968 56.849,-35.84 72.31,-67.41 -14.633,-2.996 -28.706,-7.656 -42.779,-12.616 -7.613,-2.684 -15.478,-6.274 -23.386,-7.811 -5.874,-1.142 -13.409,-1.314 -19.359,-0.486 z M 95.966,728.941 c -2.0193,1.572 -3.591,2.902 -3.9129,5.577 -0.2195,1.825 0.1515,3.879 0.41,5.698 -6.0813,-3.41 -17.2055,-11.968 -24.5578,-9.341 -1.1934,0.427 -2.1042,1.028 -2.5474,2.268 -1.0393,2.908 0.9746,7.304 2.475,9.727 5.1702,8.351 13.0971,11.558 22.331,13.513 9.0791,1.923 18.5821,2.584 27.8571,2.678 8.072,-0.06 18.186,-0.196 24.217,-6.488 1.784,-1.862 2.896,-4.413 2.713,-7.02 -0.329,-4.677 -4.568,-8.002 -7.952,-10.722 -3.11,-2.501 -7.075,-5.413 -11.292,-5.053 -1.647,0.14 -3.005,0.929 -4.012,2.242 -2.22,2.896 -2.254,7.597 -2.915,11.089 -5.861,-4.669 -15.322,-13.806 -22.814,-14.168 z m 574.346,1.525 c -1.809,3.07 -1.765,6.744 -2.081,10.219 l -0.668,-0.191 c -7.44,-2.182 -19.313,-10.314 -26.902,-7.099 -0.892,1.084 -1.193,1.302 -0.999,2.803 0.677,5.227 7.245,11.42 11.455,13.857 12.478,7.221 28.718,7.818 42.76,8.865 9.009,0.606 18.237,2.171 25.688,-4.242 2.607,-2.244 4.973,-5.16 5.131,-8.744 0.135,-3.057 -1.417,-5.862 -3.516,-7.983 -4.048,-4.091 -11.449,-6.831 -17.244,-6.761 -1.816,0.022 -3.369,0.407 -4.755,1.623 -1.987,1.741 -1.477,5.045 -3.679,6.464 -2.302,-0.445 -4.251,-2.057 -6.226,-3.28 -5.818,-3.606 -12.095,-5.606 -18.964,-5.531 z"
       id="path2-51"
       style="fill:#ffffff;fill-opacity:1;stroke:#000000;stroke-width:6.62788;stroke-dasharray:none;stroke-opacity:1" /><path
       fill="white"
       transform="scale(0.177734)"
       d="m 189.573,363.759 c 1.757,4.865 3.818,8.002 8.016,11.115 10.331,7.662 60.225,20.271 73.172,18.1 9.6,-1.609 30.599,-13.755 39.941,-18.587 6.789,-3.535 13.492,-7.231 20.104,-11.085 15.66,-8.989 25.344,-15.941 29.253,-34.544 1.786,-8.497 2.033,-17.267 3.989,-25.73 1.691,-7.318 4.106,-14.94 8.693,-21.003 6.423,-8.491 17.086,-10.489 27.076,-11.828 l 0.291,10e-4 0.129,0.376 c -7.311,3.565 -13.948,7.534 -18.482,14.528 -6.97,10.751 -9.249,31.97 -6.499,44.18 1.298,5.764 4.838,9.773 9.792,12.814 12.116,7.436 64.91,26.473 78.765,28.432 4.57,0.646 8.93,0.128 13.389,-0.943 7.214,-1.732 14.322,-4.568 21.347,-6.963 14.707,-5.015 41.83,-12.193 51.22,-24.748 5.575,-7.453 6.753,-17.407 11.693,-25.411 7.764,-12.58 22.225,-22.68 36.565,-26.037 -9.757,7.953 -19.137,16.292 -25.876,27.074 -9.28,14.848 -7.373,29.222 -24.764,38.477 -12.038,6.405 -25.545,10.744 -38.294,15.546 -10.296,3.877 -21.056,8.664 -31.774,11.111 -4.704,1.075 -10.452,1.752 -15.228,0.847 -9.235,-1.749 -17.875,-6.006 -26.51,-9.561 -9.406,-3.872 -18.726,-7.397 -28.46,-10.354 -5.426,-1.743 -10.904,-3.428 -16.148,-5.674 -11.807,-5.057 -18.779,-11.863 -23.54,-23.806 -0.546,3.061 -1.218,6.167 -2.15,9.134 -1.748,5.566 -4.484,11.394 -8.979,15.279 -5.932,5.127 -14.04,8.56 -20.87,12.472 -14.251,8.164 -28.631,16.268 -42.624,24.857 -5.941,3.646 -11.085,9.28 -17.262,12.345 -2.456,1.219 -4.691,1.452 -7.405,1.326 -7.963,-0.37 -16.218,-3.208 -23.896,-5.253 -10.924,-2.908 -21.924,-5.732 -32.607,-9.448 -11.996,-4.174 -22.382,-9.068 -28.195,-21.053 z"
       id="path3-7"
       style="fill:#000000;fill-opacity:1" /><path
       fill="#ffffff"
       transform="scale(0.177734)"
       d="m 943.764,383.441 c -8.136,1.13 -16.25,-2.215 -21.226,-8.751 -4.976,-6.535 -6.042,-15.246 -2.788,-22.789 3.253,-7.542 10.321,-12.745 18.489,-13.61 12.35,-1.309 23.467,7.53 24.976,19.857 1.508,12.327 -7.15,23.586 -19.451,25.293 z m 0.72,-28.378 c -2.743,1.255 -4.765,2.54 -5.876,5.479 -0.912,2.415 -0.9,5.155 0.323,7.46 0.962,1.813 2.946,3.39 4.974,3.81 1.198,0.248 2.608,0.07 3.816,-0.084 2.857,-1.554 5.286,-3.351 6.244,-6.614 0.625,-2.127 0.49,-4.308 -0.695,-6.219 -1.176,-1.896 -3.196,-3.2 -5.368,-3.637 -1.115,-0.225 -2.285,-0.203 -3.418,-0.195 z"
       id="path4"
       style="stroke:#000000;stroke-opacity:1" /><path
       transform="scale(0.177734)"
       d="m 947.721,371.728 c -1.208,0.154 -2.618,0.332 -3.816,0.084 -2.028,-0.42 -4.012,-1.997 -4.974,-3.81 -1.223,-2.305 -1.235,-5.045 -0.323,-7.46 1.111,-2.939 3.133,-4.224 5.876,-5.479 1.133,-0.008 2.303,-0.03 3.418,0.195 2.172,0.437 4.192,1.741 5.368,3.637 1.185,1.911 1.32,4.092 0.695,6.219 -0.958,3.263 -3.387,5.06 -6.244,6.614 z"
       id="path5" /><path
       fill="white"
       transform="scale(0.177734)"
       d="m 491.75,534.769 c -12.416,-13.438 -19.275,-33.926 -22.84,-51.657 -4.007,-19.929 -2.623,-40.399 -0.899,-60.469 0.471,-5.481 0.17,-13.549 3.418,-18.225 10.552,-15.194 34.914,-23.901 51.661,-30.564 8.019,-3.191 16.112,-6.774 24.658,-8.229 36.045,-3.623 65.59,23.851 91.784,44.595 9.487,7.513 19.601,14.32 28.994,21.905 -9.377,-4.146 -18.435,-8.98 -27.098,-14.464 -22.889,-14.615 -44.415,-32.994 -71.591,-39.037 -27.367,-6.085 -57.341,6.334 -80.256,20.744 -6.589,4.4 -11.247,8.304 -13.561,16.172 -3.018,10.265 -3.544,21.439 -3.767,32.083 -0.684,32.657 3.815,58.142 19.497,87.146 z"
       id="path6-1"
       style="fill:#000000;fill-opacity:1" /><path
       fill="white"
       transform="scale(0.177734)"
       d="m 305.57,548.259 c -13.322,-15.977 -23.587,-45.918 -26.274,-66.362 -2.287,-17.399 -5.292,-52.21 5.671,-66.229 11.109,-14.205 52.679,-37.649 70.287,-44.592 5.544,-2.186 11.005,-3.652 16.913,-4.405 6.006,-0.388 11.714,-0.041 17.642,1.047 16.075,2.952 52.073,15.399 61.37,29.367 2.186,3.283 3.468,6.915 3.973,10.819 1.049,8.11 -0.14,17.031 -0.47,25.226 -0.635,15.829 -0.731,31.412 1.666,47.105 1.92,12.575 6.537,24.141 12.053,35.512 0.607,1.25 2.128,3.479 1.856,4.769 -15.218,-27.653 -20.214,-50.526 -20.574,-81.756 -0.113,-9.868 1.037,-21.218 -2.696,-30.546 -3.813,-9.529 -12.791,-14.167 -21.752,-17.898 -8.193,-3.411 -16.552,-6.122 -25.09,-8.519 -24.693,-6.932 -32.668,-2.7 -55.782,6.835 -5.055,2.054 -10.048,4.256 -14.974,6.603 -13.533,6.472 -36.278,18.363 -41.248,32.971 -2.487,7.308 -2.512,15.95 -2.842,23.615 -1.546,35.95 4.364,64.16 20.271,96.438 z"
       id="path7"
       style="fill:#000000;fill-opacity:1" /><path
       fill="#ffffff"
       transform="scale(0.177734)"
       d="m 88.2648,537.358 c 8.7857,14.15 18.1442,27.021 31.0632,37.803 19.583,16.344 43.01,27.971 68.247,32.268 18.597,3.166 38.344,1.966 56.968,-0.585 16.535,-2.265 29.887,-4.99 46.918,-4.868 24.916,0.177 49.489,4.237 74.237,6.524 34.993,3.385 70.219,3.621 105.254,0.704 18.772,-1.544 37.448,-4.087 55.95,-7.619 42.515,-8.099 77.31,-21.907 105.64,-56.357 11.593,-14.097 21.305,-31.259 27.466,-48.488 9.991,-27.94 17.417,-57.354 37.015,-80.493 10.533,-12.437 24.411,-22.683 41.08,-24.055 4.356,-0.276 8.626,0.03 12.963,0.435 4.148,5.935 8.153,12.122 13.456,17.108 6.672,6.273 14.739,10.129 22.436,14.898 6.143,3.805 11.918,8.576 17.095,13.605 16.267,15.801 34.7,44.514 34.964,67.796 0.265,23.501 -17.136,45.118 -32.748,61.036 -24.628,-14.987 -53.297,-22.936 -82.173,-18.882 -23.273,3.244 -44.304,15.602 -58.465,34.353 -10.541,14.064 -19.159,36.49 -16.684,54.303 -13.554,5.009 -26.417,10.875 -40.38,14.88 -21.698,6.224 -44.026,10.126 -66.303,13.565 -61.459,9.486 -125.262,14.077 -186.625,1.727 -14.271,-2.805 -28.35,-6.515 -42.15,-11.106 -11.081,-3.656 -31.565,-12.383 -42.398,-13.227 -16.713,-1.301 -33.803,1.64 -50.4,3.381 -42.571,4.467 -76.799,2.293 -117.313,-12.841 -19.4804,-7.086 -38.7454,-15.695 -56.0165,-27.26 -7.1317,-4.775 -31.8196,-22.765 -33.2206,-29.865 3.1924,-2.403 9.3846,-2.932 13.3273,-3.749 25.8359,-5.351 44.1284,-13.797 60.7966,-34.991 z"
       id="path8-1"
       style="stroke:#000000;stroke-width:3.25205;stroke-dasharray:none;stroke-opacity:1" /><path
       fill="white"
       transform="scale(0.177734)"
       d="m 239.831,420.998 c -10.117,-5.052 -22.726,-9.047 -34.14,-8.362 -37.412,2.246 -73.615,42.324 -97.022,68.38 l -0.525,-0.132 0.737,-0.073 -0.894,0.661 c 0.181,-1.855 8.247,-11.715 9.821,-13.856 19.073,-25.943 48.313,-61.862 81.778,-66.97 12.591,-0.637 25.415,4.536 36.913,9.175 7.898,3.187 22.782,8.756 27.031,16.756 3.109,5.856 1.615,34.759 2.405,43.654 2.226,25.074 9.248,41.663 18.973,64.526 l -0.316,0.18 c -14.48,-26.136 -18.67,-43.403 -23.021,-72.561 -1.3,-8.713 -1.815,-18.507 -4.479,-26.859 -2.578,-8.08 -10.299,-10.97 -17.261,-14.519 z"
       id="path9-5"
       style="fill:#000000;fill-opacity:1" /><path
       fill="#ffffff"
       transform="scale(0.177734)"
       d="m 657.413,634.927 c -0.029,-0.26 -0.061,-0.52 -0.086,-0.78 -1.583,-16.603 6.781,-35.636 17.052,-48.25 14.531,-17.846 34.262,-27.37 56.962,-29.7 18.153,-3.108 45.891,5.019 61.94,13.497 9.601,5.072 19.106,11.491 27.092,18.882 18.521,17.139 33.712,42.723 40.978,66.777 5.048,16.713 9.647,39.201 0.847,55.452 -2.299,4.206 -5.176,8.068 -8.548,11.474 -9.4,9.643 -35.483,29.615 -47.976,33.088 -9.724,2.704 -18.953,-2.064 -27.256,-6.579 -8.277,-4.832 -16.164,-11.649 -21.618,-19.576 -3.22,-4.681 -4.896,-9.612 -3.748,-15.302 1.018,-5.043 4.282,-10.649 8.589,-13.541 3.396,1.057 6.54,2.298 9.762,3.8 l -1.275,-5.949 c -3.945,-2.921 -8.669,-5.213 -12.944,-7.678 l -27.641,-15.685 c -14.213,-8.01 -28.713,-15.506 -42.917,-23.506 -9.766,-5.501 -19.139,-11.472 -29.213,-16.424 z"
       id="path10-2"
       style="stroke:#000000;stroke-opacity:1" /><path
       fill="#ffffff"
       transform="scale(0.177734)"
       d="m 207.696,656.351 c 5.102,-1.2 10.781,-1.341 16.012,-1.836 l 30.76,-2.807 c 5.95,-0.828 13.485,-0.656 19.359,0.486 7.908,1.537 15.773,5.127 23.386,7.811 14.073,4.96 28.146,9.62 42.779,12.616 -15.461,31.57 -38.74,55.442 -72.31,67.41 -14.458,4.838 -30.003,6.247 -44.648,1.345 -12.217,-4.089 -24.516,-13.681 -30.271,-25.37 -2.377,-4.827 -4.222,-11.142 -2.254,-16.377 2.46,-6.542 10.539,-7.247 16.104,-9.868 1.997,-0.94 3.969,-2.603 3.998,-5.008 0.023,-1.936 -1.069,-3.905 -1.785,-5.666 -3.277,-8.053 -3.823,-14.327 -1.13,-22.736 z"
       id="path11-7"
       style="stroke:#000000;stroke-opacity:1" /><path
       fill="#ffffff"
       transform="scale(0.177734)"
       d="m 92.4631,740.216 c -0.2585,-1.819 -0.6295,-3.873 -0.41,-5.698 0.3219,-2.675 1.8936,-4.005 3.9129,-5.577 7.492,0.362 16.953,9.499 22.814,14.168 0.661,-3.492 0.695,-8.193 2.915,-11.089 1.007,-1.313 2.365,-2.102 4.012,-2.242 4.217,-0.36 8.182,2.552 11.292,5.053 3.384,2.72 7.623,6.045 7.952,10.722 0.183,2.607 -0.929,5.158 -2.713,7.02 -6.031,6.292 -16.145,6.428 -24.217,6.488 -9.275,-0.094 -18.778,-0.755 -27.8571,-2.678 -9.2339,-1.955 -17.1608,-5.162 -22.331,-13.513 -1.5004,-2.423 -3.5143,-6.819 -2.475,-9.727 0.4432,-1.24 1.354,-1.841 2.5474,-2.268 7.3523,-2.627 18.4765,5.931 24.5578,9.341 z"
       id="path12"
       style="stroke:#000000;stroke-opacity:1" /><path
       fill="#ffffff"
       transform="scale(0.177734)"
       d="m 668.231,740.685 c 0.316,-3.475 0.272,-7.149 2.081,-10.219 6.869,-0.075 13.146,1.925 18.964,5.531 1.975,1.223 3.924,2.835 6.226,3.28 2.202,-1.419 1.692,-4.723 3.679,-6.464 1.386,-1.216 2.939,-1.601 4.755,-1.623 5.795,-0.07 13.196,2.67 17.244,6.761 2.099,2.121 3.651,4.926 3.516,7.983 -0.158,3.584 -2.524,6.5 -5.131,8.744 -7.451,6.413 -16.679,4.848 -25.688,4.242 -14.042,-1.047 -30.282,-1.644 -42.76,-8.865 -4.21,-2.437 -10.778,-8.63 -11.455,-13.857 -0.194,-1.501 0.107,-1.719 0.999,-2.803 7.589,-3.215 19.462,4.917 26.902,7.099 z"
       id="path13"
       style="stroke:#000000;stroke-opacity:1" /></g></svg>
