<?xml version="1.0" encoding="UTF-8" standalone="no"?>
<!-- Created with Inkscape (http://www.inkscape.org/) -->

<svg
   width="63mm"
   height="88mm"
   viewBox="0 0 63 88"
   version="1.1"
   id="svg1"
   inkscape:version="1.3.2 (091e20e, 2023-11-25, custom)"
   xml:space="preserve"
   sodipodi:docname="card-restraint-leg-left.svg"
   xmlns:inkscape="http://www.inkscape.org/namespaces/inkscape"
   xmlns:sodipodi="http://sodipodi.sourceforge.net/DTD/sodipodi-0.dtd"
   xmlns="http://www.w3.org/2000/svg"
   xmlns:svg="http://www.w3.org/2000/svg"><sodipodi:namedview
     id="namedview1"
     pagecolor="#ffffff"
     bordercolor="#000000"
     borderopacity="0.25"
     inkscape:showpageshadow="2"
     inkscape:pageopacity="0.0"
     inkscape:pagecheckerboard="0"
     inkscape:deskcolor="#d1d1d1"
     inkscape:document-units="mm"
     inkscape:zoom="1.4627805"
     inkscape:cx="154.8421"
     inkscape:cy="246.44846"
     inkscape:window-width="1350"
     inkscape:window-height="1017"
     inkscape:window-x="228"
     inkscape:window-y="0"
     inkscape:window-maximized="0"
     inkscape:current-layer="layer1" /><defs
     id="defs1" /><g
     inkscape:label="Layer 1"
     inkscape:groupmode="layer"
     id="layer1"><g
       id="g1"
       transform="matrix(0.06087197,0,0,0.06087197,0.03359486,0.54402301)"><path
         id="path2"
         style="fill:none;stroke:#e6e6e6;stroke-width:4.92837673;stroke-dasharray:none;stroke-opacity:1"
         d="m 969.46567,-254.63804 -162.11945,68.70646 4.0597,46.92461 c 3.1466,25.2452 8.43711,50.924881 14.4265,75.646971 6.66042,27.490917 17.07753,55.2584469 28.70049,81.081427 25.59836,56.88519 81.50582,147.116132 64.73422,211.423062 -0.51206,1.96635 -1.06101,3.84501 -1.85517,5.71819 -7.80516,18.43138 -24.79686,33.00273 -33.91681,50.83146 -7.12605,13.92349 -8.40877,29.97061 -10.38876,45.24416 l -6.61327,60.58734 c -0.72828,10.16334 -3.12481,21.36184 -0.69833,31.31961 l 4.58339,4.56134 c 7.91205,-1.51711 16.07917,-6.89764 21.25802,-13.07329 3.31375,-22.48995 5.06242,-60.16604 24.57539,-74.70848 3.00435,-2.23748 3.24875,-2.06348 6.91863,-1.78961 10.50011,20.67975 11.00821,46.23339 3.90678,67.81149 -4.65031,14.12889 -12.46774,31.04889 -21.01797,43.30171 -7.63536,10.94103 -26.18747,24.87461 -29.79163,37.19056 -0.6066,2.07034 -0.038,6.32059 -0.0428,8.62104 4.07237,4.84199 4.42626,5.5542 10.49792,7.04959 41.7923,-12.26662 96.74329,-42.26985 118.27198,-80.8414 6.2771,-11.25042 9.891,-24.72322 11.6767,-37.43063 l 0.4146,-2.75001 c 2.0321,-14.79985 -0.9715,-31.79187 -2.2915,-46.64105 -1.9391,-21.78323 -3.0939,-43.22589 -2.3573,-65.10528 l 8.7959,-109.86913 c 9.7825,-111.749082 18.137,-226.082979 -16.8057,-334.54019 -8.74458,-27.13825 -20.51142,-54.3016 -34.92065,-79.26995 z" /><path
         id="path5"
         style="fill:none;stroke:#e6e6e6;stroke-width:4.92837673;stroke-dasharray:none;stroke-opacity:1"
         d="m 638.96312,-841.30579 18.11512,378.73688 c 23.29242,63.82676 63.48919,116.8567 90.88104,157.01212 l 35.55363,50.24206 c 6.21684,8.47079 15.82759,18.82265 19.70829,28.56945 3.07023,7.70674 2.39039,19.2865 2.99021,27.5656 l 1.13481,13.2481 162.11945,-68.70646 c -2.4688,-4.27786 -4.85265,-8.64066 -7.48616,-12.76794 l -18.72616,-27.56552 c -2.2512,-3.18787 -6.8919,-8.07079 -8.16284,-11.41473 -1.08999,-2.87007 -0.53668,-9.79524 -0.72012,-13.05158 l -2.46637,-35.88095 c -3.88619,-36.5176 -10.94829,-73.36211 -23.72414,-107.88316 -10.86982,-29.36134 -24.43661,-58.65007 -40.07155,-85.79577 -6.64137,-11.5271 -16.56669,-23.0322 -21.95634,-34.8989 -1.70079,-3.741 -1.52785,-7.8445 -1.52785,-11.8512 0,-68.9627 -19.78297,-142.7194 -70.08147,-192.4785 -28.41377,-28.1043 -68.68627,-48.3774 -108.79971,-51.5953 -6.5549,-0.5281 -19.01239,-0.067 -26.77984,-1.4842 z" /><path
         id="path3"
         style="fill:none;stroke:#e6e6e6;stroke-width:4.92837673;stroke-dasharray:none;stroke-opacity:1"
         d="m -236.78235,-166.48505 -173.81774,-69.12131 c -6.04575,13.04811 -11.29888,26.43015 -15.62703,40.33346 -14.06031,45.16624 -19.96759,92.98715 -23.50598,140.010171 -5.9676,79.342127 -3.12466,157.947009 2.79365,237.176849 l 7.63891,79.13907 c 1.91974,31.76046 -5.28065,61.93236 -5.56549,93.26013 -0.27933,30.65117 9.5273,61.99044 28.61313,86.01413 20.44977,25.74071 59.9504,53.78268 93.06364,58.20846 3.00164,0.40249 4.83451,0.0775 7.63892,-0.89493 2.39361,-4.20123 2.40892,-4.42916 1.00396,-9.0794 -2.7688,-9.18 -12.60038,-20.0394 -17.8532,-28.3076 -20.93441,-32.95994 -37.78545,-75.73307 -24.22623,-114.5181 l 4.14684,-3.12101 c 7.4108,2.31151 12.61544,8.56783 16.08535,15.32151 10.22342,19.89092 3.13675,52.61068 23.24407,65.97836 5.36508,0.51754 5.63394,0.68233 10.54168,-2.26985 9.56897,-23.45689 4.79902,-104.2158 -5.19445,-127.91903 -6.64942,-15.76914 -18.46789,-27.13316 -26.77982,-41.68651 -23.7936,-41.66082 -12.06147,-92.72329 4.34329,-134.51015 25.01233,-63.718102 64.96046,-120.1526917 83.52591,-186.803909 8.83614,-31.719681 8.1546,-64.768191 9.93059,-97.210341 z" /><path
         id="path6"
         style="fill:none;stroke:#e6e6e6;stroke-width:4.92837673;stroke-dasharray:none;stroke-opacity:1"
         d="m -52.575692,-846.45649 c -0.10272,0.044 -0.22542,0.1549 -0.32739,0.1964 -6.59204,2.6839 -21.03761,0.6875 -28.722263,1.3969 -10.49193,0.9667 -21.014585,3.2024 -31.123085,6.1329 -61.67494,17.8725 -112.99166,63.6648 -136.82362,123.4664 -9.33347,23.4211 -13.94829,49.4318 -17.02386,74.3812 l -3.73214,44.1746 c -0.30946,4.0533 0.18818,12.697 -1.22222,16.2381 -4.03954,10.1331 -17.1007,23.002 -23.37504,32.8036 -18.61201,29.0711 -34.11668,60.37764 -45.3096,93.04191 -9.77986,28.5424 -15.93059,58.03172 -20.71234,87.78182 -3.53841,22.02723 -5.8903,45.48945 -12.24406,66.89498 -3.69724,12.45547 -15.9232,24.68753 -22.63298,36.01192 -5.47664,9.24088 -10.31672,18.70581 -14.7758,28.3294 l 173.81774,69.12131 c 1.41498,-25.84786 4.35426,-51.32019 15.16865,-75.36334 11.58741,-25.76275 37.74947,-46.55933 54.93461,-69.2739 26.31525,-34.78087 79.963795,-105.47944 101.008118,-145.81572 z" /><path
         id="path4"
         style="fill:none;stroke:#e6e6e6;stroke-width:4.92837673;stroke-dasharray:none;stroke-opacity:1"
         d="m 673.05431,1027.1039 -216.48627,3.4486 c -0.97115,8.8637 -1.72922,17.7796 -2.70633,26.5616 -4.72977,42.5043 -9.6877,86.4338 -5.43455,129.1848 8.03252,80.6533 46.88682,154.4213 63.16276,233.8158 6.48247,31.6044 12.22641,63.4696 13.2917,95.8135 0.87361,26.4834 -1.37065,53.7586 1.0476,80.0775 1.71993,18.7326 7.21301,36.8632 10.14881,55.3492 2.57165,16.1858 -3.11609,35.2752 -6.52575,51.2681 -6.99727,32.7823 -15.12935,67.208 -16.12899,100.8118 -0.3287,11.0641 -0.92464,22.6626 1.85517,33.4801 2.14995,8.3533 6.0015,16.3414 12.52781,22.1747 5.52392,4.9571 12.59854,7.6161 19.75197,9.2323 18.06433,4.0805 39.10273,3.147 57.66281,3.4484 27.03885,0.4108 55.53006,1.7837 82.4126,-0.9822 8.37777,-0.849 19.49562,-4.5529 25.20847,-11.0436 6.29072,-7.1479 5.92981,-19.4559 4.86727,-28.4387 -4.14634,-34.9174 -23.90258,-61.6673 -40.04974,-91.6012 -19.51031,-36.2055 -39.25776,-82.1243 -42.29763,-123.2047 -2.0156,-27.25 -0.18505,-55.7576 0.87305,-83.0894 2.59079,-67.0433 8.16986,-137.5995 24.79354,-202.7802 11.91605,-46.6947 33.0687,-94.3955 36.49217,-142.651 3.88126,-54.679 -6.88933,-109.0593 -24.46647,-160.8754 z" /><path
         id="path7"
         style="fill:none;stroke:#e6e6e6;stroke-width:4.92837673;stroke-dasharray:none;stroke-opacity:1"
         d="m 119.38688,1034.721 -216.159089,-9.2539 c -15.025351,49.532 -25.874351,102.4685 -22.283771,152.4506 3.7382,52.1171 21.172191,102.9582 32.869105,153.6514 16.467603,71.3689 24.234603,141.612 27.740133,214.653 1.13381,23.6621 3.32866,48.4165 1.83333,72.0238 -1.01332,16.0216 -5.15241,32.164 -11.13098,47.0337 -11.981613,29.8245 -27.997403,59.4627 -42.035768,88.4367 -13.32646,27.5237 -29.28707,49.4755 -31.40682,81.5181 -0.42176,6.4084 -0.93198,14.4688 1.63691,20.4941 2.93314,6.9012 9.15714,9.0822 15.91074,11.2183 25.872251,8.134 142.373337,9.2461 164.301868,-2.9682 11.05335,-6.162 17.09111,-17.3439 20.18855,-29.2025 10.16865,-38.8607 -3.95448,-91.8957 -12.13495,-130.4288 -3.28367,-15.4464 -8.06473,-31.9241 -7.2897,-47.8633 1.08454,-22.2379 9.47089,-44.4542 11.24009,-67.1566 1.98279,-25.4699 -0.29332,-51.5303 0.78572,-77.1095 1.95817,-46.3921 10.73065,-93.0178 21.95638,-137.9584 15.23533,-60.9906 42.751792,-119.221 50.263982,-181.937 6.21596,-51.9301 -1.73856,-105.6772 -6.28573,-157.6015 z" /><path
         id="path8"
         style="fill:none;stroke:#e4e4e4;stroke-width:4.92837673;stroke-dasharray:none;stroke-opacity:1"
         d="M 289.74194,353.18522 -75.776121,341.97926 c -2.647938,12.01365 -5.483664,24.03225 -7.597984,36.03735 -8.20786,46.61753 -10.62204,93.57114 -11.78323,140.81308 -1.040714,42.36735 -1.130404,85.89167 2.31759,128.13847 l 17.190964,135.29499 c 7.153423,43.21391 19.304731,86.05902 16.240154,130.36268 -1.591199,22.9966 -14.087195,44.39433 -21.758238,65.852 -5.41548,15.15061 -10.72207,30.89667 -15.603454,46.98857 l 216.156189,9.2534 c -0.0907,-1.0357 -0.1923,-2.1068 -0.28015,-3.141 -1.91693,-22.5395 -4.76352,-45.85896 -1.90162,-68.46672 3.25357,-25.68918 12.31917,-52.1023 20.68858,-76.52313 l 32.67556,-95.72607 59.17087,-225.14643 C 244.9332,494.8836 257.63005,426.4032 260.62342,353.85588 l 29.12701,0.12734 z" /><path
         id="path9"
         style="fill:none;stroke:#e6e6e6;stroke-width:4.92837673;stroke-dasharray:none;stroke-opacity:1"
         d="M 552.73094,31.384298 33.460148,22.042968 c -0.53467,3.57042 -1.08298,6.79179 -1.70238,8.8174 -3.116621,10.20145 -9.837991,20.38223 -14.055591,30.4029 L -18.811752,153.192 c -22.17912,60.94821 -42.86102,124.80267 -56.96438,188.79003 l 728.205512,22.32726 c -9.39106,-46.3428 -21.51582,-92.39428 -36.55756,-138.04577 -20.21413,-61.34618 -45.04764,-121.51001 -60.74007,-184.272142 -0.88838,-3.55225 -1.6014,-7.07042 -2.40081,-10.60708 z" /><path
         id="path10"
         style="fill:none;stroke:#e6e6e6;stroke-width:4.92837673;stroke-dasharray:none;stroke-opacity:1"
         d="M 561.46106,-276.07062 10.587098,-286.35046 c 1.487009,2.90293 2.971909,5.80441 4.605189,8.51196 23.578191,80.31521 27.926151,92.94266 24.946461,177.964621 -0.61538,17.5107 -2.2794,92.5400069 -6.6786,121.916847 l 519.270792,9.34133 c -12.42536,-54.96617 -14.45403,-108.260777 -11.82941,-165.000328 2.71675,-58.71712 7.47501,-53.62556 17.50399,-125.58359 1.03873,-6.20101 2.03926,-11.70346 3.05554,-16.871 z" /><path
         id="path11"
         style="fill:none;stroke:#e6e6e6;stroke-width:4.92837673;stroke-dasharray:none;stroke-opacity:1"
         d="m 649.70125,-616.63469 -709.675792,-9.7779 -5.69643,169.47458 c 0.47583,-0.91204 1.39202,-2.21939 1.83335,-3.09921 9.44006,18.757 20.94722,69.63255 33.67665,86.4287 18.10523,23.88497 26.5214795,59.48536 40.74807,87.25806 l 550.873962,10.27984 c 7.75526,-39.4349 16.31195,-52.82138 47.88501,-99.91692 33.94408,-50.63243 43.05077,-84.05227 47.29569,-87.69446 0.13653,0.37786 0.29873,0.73554 0.43648,1.11309 z" /><path
         id="path12"
         style="fill:none;stroke:#e6e6e6;stroke-width:4.92837673;stroke-dasharray:none;stroke-opacity:1"
         d="m 173.09931,-977.91101 c -0.0129,0.032 -0.008,0.3203 -0.0218,0.3492 -53.22589,41.74262 -114.881402,63.25742 -173.16296248,96.25012 -12.02830952,6.8083 -23.42177952,14.5352 -34.70244952,22.502 -5.16635,3.6485 -12.0163,9.8819 -17.78771,12.3532 l -7.39885,220.0439 709.675872,9.7779 -10.73821,-224.6711 c -1.29653,-0.2364 -3.39795,-0.1203 -4.32138,-0.5019 -4.76529,-1.9718 -10.47015,-6.9458 -14.88495,-9.8433 -11.63095,-7.6327 -23.14838,-15.5409 -35.29171,-22.3492 l -81.80164,-42.9961 c -35.34791,-17.5931 -70.12345,-34.28482 -100.50624,-59.97632 l 0.0218,-0.9384 z" /><path
         id="path13"
         style="fill:none;stroke:#000000;stroke-width:4.92837673;stroke-dasharray:none;stroke-opacity:1"
         d="m 312.78207,354.0766 2.6402,38.58416 c 14.0713,134.14548 48.67741,269.32005 88.63745,397.93895 16.68115,53.68945 41.74099,106.09609 52.50671,161.35734 5.05845,25.9591 2.875,52.35405 0,78.59455 l 216.48728,-3.4467 c -5.5412,-16.3352 -11.68398,-32.44736 -18.354,-48.19411 L 638.2643,940.75958 c -2.66726,-6.20052 -6.82014,-13.79718 -7.59798,-20.39994 -2.17449,-18.48367 1.34174,-39.15573 4.41446,-57.36263 l 22.98071,-110.21742 c 23.9695,-130.64806 20.26185,-260.71209 -5.62844,-388.4733 z"
         sodipodi:nodetypes="ccccccccccccc" /><path
         id="path1"
         style="fill:none;stroke:#e6e6e6;stroke-width:4.92837673;stroke-dasharray:none;stroke-opacity:1"
         d="m 290.77101,-1449.1003 c -5.81685,-0.2631 -11.85622,-0.5425 -17.65676,0.044 -39.77118,4.8118 -76.22677,19.9686 -101.44452,52.381 -30.95814,39.7876 -34.27871,115.6752 -28.11118,164.6292 -3.69449,3.6836 -4.86417,1.7736 -8.46826,3.8413 -5.5212,3.1659 -7.67431,11.8397 -7.70439,17.6786 -0.0631,12.294 3.14756,23.9184 5.47819,35.881 4.0642,20.8715 6.79274,49.128 23.26589,64.3632 2.59903,2.4019 5.7933,4.264 8.99209,5.7401 2.01824,12.382 5.9371,118.89629 2.57541,126.63119 h 229.07975 l 2.64086,-81.73619 c 0.2247,-12.2776 -2.23425,-33.6693 2.008,-44.8513 l 1.61505,-1.4187 c 19.48569,-17.407 23.36622,-39.4681 28.52585,-63.7739 2.52507,-11.8887 5.49534,-24.0896 5.98018,-36.252 0.28203,-7.0111 0.74629,-13.6584 -3.20829,-19.7958 -3.07015,-2.2922 -6.29758,-4.4634 -8.92672,-7.2678 3.11399,-55.5707 4.22061,-125.3215 -34.89883,-169.4527 -24.82621,-28.0058 -62.55911,-44.9703 -99.74232,-46.6409 z" /></g><g
       id="move"
       transform="matrix(0.04824098,0,0,0.05181757,-3.116502,-19.896485)"
       inkscape:label="move"><text
         xml:space="preserve"
         style="font-style:normal;font-variant:normal;font-weight:normal;font-stretch:normal;font-size:148.144px;font-family:Amiri;-inkscape-font-specification:'Amiri, Normal';font-variant-ligatures:normal;font-variant-caps:normal;font-variant-numeric:normal;font-variant-east-asian:normal;fill:#000000;fill-opacity:1;stroke:#000000;stroke-width:0.269288;stroke-dasharray:none;stroke-opacity:1;paint-order:markers fill stroke"
         x="513.04822"
         y="778.5697"
         id="text1-9"><tspan
           sodipodi:role="line"
           id="tspan1-8"
           x="513.04822"
           y="778.5697">Move: -1*</tspan></text><path
         fill="#fefefe"
         d="m 423.87315,743.60565 0.21512,0.052 c 1.71719,3.76403 3.49119,3.70519 5.98388,7.35145 -7.82361,-0.10797 -11.69949,-1.08864 -18.76246,-4.29382 -1.34963,-0.0879 -4.75661,-3.11408 -5.45151,-3.66689 -1.44497,-1.14935 -2.73119,-2.33754 -3.98746,-3.59097 2.82341,0.88799 5.73821,1.52855 8.60636,2.10838 4.47579,0.90536 8.94267,1.61647 13.39636,2.03887 z"
         id="path2-5"
         style="stroke:#000000;stroke-width:2.32259;stroke-dasharray:none;stroke-opacity:1"
         sodipodi:nodetypes="ccccccccc" /><path
         fill="#fefefe"
         d="m 420.73098,732.74924 c 0.16605,0.0376 0.32327,0.0615 0.4746,0.14245 0.19084,1.49259 0.48354,2.93964 1.01378,4.35123 l 0.69132,1.64881 c 0.11304,0.25498 0.3131,0.59092 0.35053,0.86427 -3.38586,1.31875 -5.88595,0.53798 -8.86795,-0.96306 -4.84177,-2.84555 -9.02471,-7.42607 -10.99427,-12.72672 3.75169,2.83784 8.23961,4.29963 12.72721,5.52821 z"
         id="path3-4"
         style="stroke:#000000;stroke-width:2.32259;stroke-dasharray:none;stroke-opacity:1"
         sodipodi:nodetypes="ccccccccc" /><path
         fill="#fefefe"
         d="m 419.63719,727.11092 c -0.99006,-0.26054 -2.01274,-0.4366 -2.97937,-0.7825 -0.85278,-0.30505 -1.72241,-0.79395 -2.50264,-1.25578 -2.16532,-1.2816 -4.13288,-2.88937 -5.79407,-4.78297 -4.41276,-5.02993 -6.03531,-11.58112 -5.60542,-18.1506 1.44243,3.24637 3.5683,6.08982 6.39823,8.27104 l 1.57984,1.10672 c 0.28142,0.18129 0.70379,0.34916 0.93296,0.58562 0.21062,0.21732 0.3861,0.48811 0.57442,0.72644 l 1.38168,1.69296 c 2.2089,2.46776 4.80215,4.73075 7.62498,6.46811 l 0.12898,0.13734 c -0.62085,1.97648 -1.04172,4.00744 -1.0594,6.08448 z"
         id="path6-5"
         style="stroke:#000000;stroke-width:2.32259;stroke-dasharray:none;stroke-opacity:1" /><path
         fill="#fefefe"
         d="m 422.50359,716.14959 c -6.06305,-3.90641 -11.27396,-9.80969 -14.03576,-16.50113 -0.43606,-1.05665 -0.75161,-2.15168 -1.06003,-3.25081 -2.00973,-7.16318 -1.47637,-15.1216 1.38236,-21.98689 0.2891,0.72521 0.42082,1.57216 0.62475,2.33043 0.35788,1.33073 0.7986,2.60686 1.35738,3.86748 0.47228,1.06564 0.9832,2.14161 1.58175,3.1412 l 0.90316,1.40505 c 0.18746,0.2736 0.50729,0.62227 0.60871,0.93662 0.21288,0.6592 0.26249,1.40777 0.42808,2.08389 0.33393,1.36262 0.78211,2.71126 1.23813,4.03775 0.45987,1.33772 1.06344,2.61477 1.67154,3.88916 l 1.49177,2.99798 c 1.87192,3.37951 4.15198,6.55044 6.51068,9.6034 l 0.23463,0.30861 c -0.0517,0.33478 -0.27329,0.71011 -0.41015,1.02434 l -0.66812,1.64046 -1.60838,4.55102 z"
         id="path8-9"
         style="stroke:#000000;stroke-width:2.32259;stroke-dasharray:none;stroke-opacity:1" /><path
         fill="#fefefe"
         d="m 427.82911,704.30477 c -1.48769,-2.03108 -2.99773,-4.05116 -4.324,-6.19379 -0.96557,-1.5597 -1.79369,-3.1602 -2.59468,-4.80719 -1.11105,-2.2848 -2.10439,-4.7802 -2.55777,-7.29184 -0.24624,-1.36401 -0.45268,-2.72558 -0.51351,-4.11224 -0.24301,-5.54139 1.1937,-11.18988 3.82779,-16.05429 0.72352,-1.33628 1.55305,-2.58504 2.42036,-3.83035 0.042,0.0418 0.0238,0.31948 0.0245,0.39377 0.0211,2.54183 0.12403,5.04409 0.42467,7.56995 0.69681,5.85525 2.16034,11.48155 3.87478,17.11022 l 3.27489,9.76808 c -0.12526,0.3865 -0.4152,0.75921 -0.61716,1.11385 l -0.73083,1.39548 -2.32068,4.9936 -0.078,0.039 z"
         id="path9-5"
         style="stroke:#000000;stroke-width:2.32259;stroke-dasharray:none;stroke-opacity:1" /><path
         fill="#0f0f0f"
         d="m 432.78711,753.3154 c 6.28761,7.956 12.85273,15.64753 20.25674,22.5946 5.03214,4.72143 10.49456,9.17358 16.60299,12.43754 7.93511,4.24005 17.11673,6.68524 26.01566,7.74271 2.47919,0.29452 4.96743,0.37534 7.45739,0.50978 2.29621,0.12402 4.63384,0.35136 6.93082,0.15841 -0.31138,0.39113 -0.97692,0.55687 -1.44822,0.75118 -3.40429,1.40427 -7.02194,2.24905 -10.67808,2.66433 -10.79379,1.22587 -22.09365,-1.38775 -31.6759,-6.36425 -4.33537,-2.25144 -8.33793,-4.99995 -12.15002,-8.04259 -5.94588,-4.74606 -11.37367,-10.20987 -16.25291,-16.04008 l -4.06298,-5.01213 -9.08906,8.41029 -21.3164,-10.37972 2.49671,-15.7079 c 0.38126,0.21008 0.7698,0.4604 1.18359,0.59783 2.32478,1.18832 4.66524,2.35494 7.11431,3.26873 5.93832,2.21617 7.44568,2.96323 13.74108,2.45884 z"
         id="path10-6"
         style="fill:none;fill-opacity:1;stroke:#000000;stroke-width:2.32259;stroke-dasharray:none;stroke-opacity:1"
         sodipodi:nodetypes="ccccccccccccccccccc" /><path
         fill="#dc9308"
         d="m 463.02874,689.96939 0.14384,0.035 c 0.49063,0.11195 1.1488,0.0313 1.65643,0.0217 l 3.58408,-0.053 c 2.39392,-0.0242 4.86943,0.10962 7.24971,-0.0434 -6.31985,10.20788 -9.878,22.14022 -9.54579,34.17661 0.11685,4.25601 0.74673,8.39684 1.7215,12.53376 3.77093,16.00471 11.61851,30.25771 21.33565,40.94937 12.10107,12.64047 8.48263,7.78003 20.17454,16.94792 -17.32365,-3.71452 -21.55024,-4.23093 -26.35187,-6.3316 -9.89964,-6.18762 -14.97824,-6.89097 -26.89975,-18.41407 -12.79352,-12.36596 -18.29357,-15.79526 -23.00912,-27.19435 l -3.2569,-19.42517 c -2.88158,-22.76633 4.41888,-31.58046 4.03571,-32.91484 l 21.28156,-0.26223 5.32127,0.0602 c 0.85201,-0.008 1.71303,0.0204 2.55906,-0.0844 z"
         id="path11-6"
         style="fill:none;stroke:#000000;stroke-width:2.32259;stroke-dasharray:none;stroke-opacity:1"
         sodipodi:nodetypes="cccccsccccsccccccc" /><path
         id="path2-9"
         inkscape:transform-center-x="-0.01494134"
         inkscape:transform-center-y="-3.7500871"
         d="m 427.40161,748.51285 c 20.36512,-7.37419 13.98417,-9.56844 21.66325,-57.74338 8.14056,47.72615 2.64335,50.64631 21.89168,57.54181 z"
         sodipodi:nodetypes="cccc"
         style="stroke-width:10.6897" /><path
         id="path2-0"
         inkscape:transform-center-x="-0.0034207367"
         inkscape:transform-center-y="-1.3106034"
         d="m 444.38529,757.43968 c 4.11726,-2.61102 3.85157,-6.32045 4.96018,-20.18053 1.20756,13.97013 0.83807,17.62212 5.01247,20.11007 z"
         sodipodi:nodetypes="cccc"
         style="stroke-width:3.02394" /></g></g></svg>
