<?xml version="1.0" encoding="UTF-8" standalone="no"?>
<!-- Created with Inkscape (http://www.inkscape.org/) -->

<svg
   width="63mm"
   height="88mm"
   viewBox="0 0 63 88"
   version="1.1"
   id="svg1"
   inkscape:version="1.3.2 (091e20e, 2023-11-25, custom)"
   xml:space="preserve"
   sodipodi:docname="card-hitlocation2.svg"
   xmlns:inkscape="http://www.inkscape.org/namespaces/inkscape"
   xmlns:sodipodi="http://sodipodi.sourceforge.net/DTD/sodipodi-0.dtd"
   xmlns="http://www.w3.org/2000/svg"
   xmlns:svg="http://www.w3.org/2000/svg"><sodipodi:namedview
     id="namedview1"
     pagecolor="#ffffff"
     bordercolor="#000000"
     borderopacity="0.25"
     inkscape:showpageshadow="2"
     inkscape:pageopacity="0.0"
     inkscape:pagecheckerboard="0"
     inkscape:deskcolor="#d1d1d1"
     inkscape:document-units="mm"
     inkscape:zoom="2.0686841"
     inkscape:cx="101.75551"
     inkscape:cy="183.93335"
     inkscape:window-width="1350"
     inkscape:window-height="1017"
     inkscape:window-x="228"
     inkscape:window-y="13"
     inkscape:window-maximized="0"
     inkscape:current-layer="g1" /><defs
     id="defs1" /><g
     inkscape:label="Layer 1"
     inkscape:groupmode="layer"
     id="layer1"><g
       id="g1"
       transform="matrix(0.06087197,0,0,0.06087197,0.03359486,0.54402301)"><path
         id="path2"
         style="fill:none;stroke:#000000;stroke-width:4.68195787;stroke-dasharray:none;stroke-opacity:1"
         d="M 776.28436 585.46265 L 713.22536 612.18716 L 714.80438 630.4393 C 716.02836 640.25882 718.08613 650.24738 720.41585 659.86343 C 723.00655 670.55646 727.05844 681.35713 731.57936 691.40142 C 741.5363 713.52783 763.28243 748.62465 756.75882 773.63789 C 756.55962 774.40274 756.34614 775.13348 756.03722 775.86211 C 753.00126 783.03127 746.39206 788.69903 742.84475 795.63383 C 740.07295 801.0496 739.57399 807.29134 738.80381 813.23229 L 736.23154 836.79876 C 735.9482 840.75193 735.01606 845.10773 735.95988 848.981 L 737.74264 850.75528 C 740.82017 850.16512 743.99691 848.07231 746.01128 845.67015 C 747.30024 836.92228 747.98038 822.26756 755.57031 816.61105 C 756.7389 815.74073 756.83399 815.80841 758.26144 815.91493 C 762.34561 823.95866 762.54324 833.89825 759.78103 842.29138 C 757.97222 847.78705 754.9315 854.36832 751.60577 859.13428 C 748.63586 863.38996 741.41967 868.8097 740.01779 873.60016 C 739.78189 874.40547 740.00281 876.05867 740.00081 876.95345 C 741.58484 878.83683 741.72253 879.11389 744.0842 879.69552 C 760.33998 874.92423 781.7141 863.25398 790.08806 848.25091 C 792.52963 843.87486 793.93532 838.63445 794.62987 833.69165 L 794.79117 832.62199 C 795.58159 826.86536 794.41325 820.25605 793.89979 814.48022 C 793.14559 806.00719 792.69638 797.66677 792.98294 789.15645 L 796.40415 746.42099 C 800.20925 702.95433 803.45894 658.48222 789.86734 616.29602 C 786.46603 605.74015 781.88907 595.17451 776.28436 585.46265 z " /><path
         id="path5"
         style="fill:none;stroke:#000000;stroke-width:4.68195787;stroke-dasharray:none;stroke-opacity:1"
         d="M 647.72991 357.26854 L 654.77609 504.58447 C 663.83608 529.41097 679.47127 550.03786 690.1258 565.65696 L 703.95497 585.19948 C 706.37311 588.4943 710.1114 592.52083 711.62087 596.31205 C 712.81504 599.30968 712.55062 603.81384 712.78391 607.03412 L 713.22536 612.18716 L 776.28436 585.46265 C 775.32409 583.7987 774.39684 582.10174 773.3725 580.49637 L 766.08863 569.7743 C 765.21299 568.53434 763.40789 566.63504 762.91361 565.33436 C 762.48964 564.21797 762.70486 561.52431 762.63346 560.25772 L 761.67416 546.30121 C 760.16256 532.09709 757.41565 517.76582 752.44622 504.33828 C 748.21824 492.91768 742.94128 481.5254 736.85975 470.96659 C 734.2765 466.48292 730.41588 462.00783 728.31945 457.3921 C 727.6579 455.93695 727.72519 454.34084 727.72519 452.78237 C 727.72719 425.9582 720.03031 397.26929 700.46584 377.91467 C 689.41385 366.98303 673.74916 359.09748 658.14636 357.84581 C 655.59672 357.64041 650.7512 357.81965 647.72991 357.26854 z " /><path
         id="path3"
         style="fill:none;stroke:#000000;stroke-width:4.68195787;stroke-dasharray:none;stroke-opacity:1"
         d="M 307.09418 619.75119 L 239.48488 592.86537 C 237.13329 597.94062 235.09 603.14579 233.40649 608.55372 C 227.9375 626.12188 225.63977 644.72259 224.26345 663.01299 C 221.94226 693.87446 223.04806 724.44912 225.35009 755.26691 L 228.32137 786.04934 C 229.06808 798.40309 226.26737 810.13895 226.15658 822.3244 C 226.04793 834.24669 229.86238 846.43658 237.28613 855.78098 C 245.24041 865.7933 260.60483 876.7007 273.48478 878.42211 C 274.65231 878.57871 275.36524 878.45221 276.45606 878.07405 C 277.3871 876.43994 277.39305 876.35125 276.84657 874.54248 C 275.7696 870.97174 271.94544 866.74778 269.90227 863.53177 C 261.75948 850.71143 255.20499 834.07418 260.47908 818.98808 L 262.09206 817.7741 C 264.97461 818.67317 266.99904 821.1067 268.34872 823.73363 C 272.32529 831.47055 269.56881 844.19746 277.38989 849.39698 C 279.47673 849.59832 279.5813 849.66243 281.49025 848.51408 C 285.21226 839.39019 283.35691 807.97768 279.46978 798.75792 C 276.88338 792.6242 272.28639 788.20398 269.05333 782.54324 C 259.79841 766.33858 264.36182 746.47695 270.74272 730.22328 C 280.47168 705.43911 296.01017 683.48788 303.23151 657.56282 C 306.66848 645.22488 306.40338 632.37017 307.09418 619.75119 z " /><path
         id="path6"
         style="fill:none;stroke:#000000;stroke-width:4.68195787;stroke-dasharray:none;stroke-opacity:1"
         d="M 378.74441 355.26505 C 378.70447 355.28215 378.65673 355.32531 378.61707 355.34145 C 376.05299 356.38541 370.43414 355.60887 367.44507 355.88477 C 363.36406 356.26081 359.2711 357.13045 355.33923 358.27028 C 331.34974 365.22211 311.38925 383.03376 302.11941 406.29461 C 298.48901 415.40465 296.69399 425.5219 295.4977 435.22637 L 294.04602 452.40884 C 293.92565 453.98542 294.11922 457.34755 293.57062 458.72493 C 291.99937 462.66634 286.91902 467.67192 284.47851 471.48444 C 277.23906 482.79211 271.20826 494.96931 266.85459 507.6746 C 263.05055 518.77668 260.65812 530.247 258.79818 541.81882 C 257.42186 550.38669 256.50705 559.51268 254.03565 567.83873 C 252.59755 572.68349 247.84206 577.44134 245.23218 581.84618 C 243.10195 585.44055 241.21932 589.12207 239.48488 592.86537 L 307.09418 619.75119 C 307.64456 609.69726 308.78784 599.78938 312.99428 590.43741 C 317.50139 580.41657 327.67756 572.32738 334.36201 563.49217 C 344.59776 549.96361 365.46525 522.4642 373.65079 506.77473 L 378.74441 355.26505 z " /><path
         id="path4"
         style="fill:none;stroke:#000000;stroke-width:4.68195787;stroke-dasharray:none;stroke-opacity:1"
         d="m 660.99029,1084.0175 -84.20599,1.3414 c -0.37774,3.4476 -0.67263,6.9156 -1.05268,10.3315 -1.8397,16.5328 -3.76817,33.6199 -2.11386,50.2486 3.1244,31.3714 18.23743,60.0647 24.56822,90.9465 2.52146,12.2931 4.75564,24.6876 5.17003,37.2683 0.33979,10.3011 -0.53313,20.9103 0.40749,31.1475 0.66898,7.2863 2.80559,14.3385 3.94755,21.529 1.00028,6.2957 -1.21207,13.7208 -2.53832,19.9415 -2.72173,12.7512 -5.88482,26.1417 -6.27364,39.2124 -0.12783,4.3036 -0.35963,8.815 0.7216,13.0227 0.83623,3.2491 2.33438,6.3562 4.87289,8.6252 2.14863,1.9281 4.90043,2.9624 7.68288,3.591 7.02641,1.5872 15.20964,1.2241 22.4289,1.3413 10.51723,0.1598 21.59933,0.6939 32.05583,-0.382 3.2586,-0.3302 7.5831,-1.7709 9.8052,-4.2956 2.4469,-2.7803 2.3065,-7.5677 1.8932,-11.0617 -1.6128,-13.5817 -9.2973,-23.9865 -15.578,-35.6298 -7.5889,-14.0827 -15.27,-31.9436 -16.4524,-47.9225 -0.784,-10.5993 -0.072,-21.6878 0.3396,-32.319 1.0077,-26.0776 3.1778,-53.5216 9.6439,-78.8747 4.6349,-18.1627 12.8626,-36.7167 14.1942,-55.4865 1.5097,-21.2683 -2.6797,-42.4204 -9.5166,-62.5751 z" /><path
         id="path7"
         style="fill:none;stroke:#000000;stroke-width:4.68195787;stroke-dasharray:none;stroke-opacity:1"
         d="M 445.63211 1086.9803 L 361.55345 1083.3808 C 355.70909 1102.6471 351.48919 1123.2376 352.88581 1142.679 C 354.33984 1162.9508 361.12108 1182.7263 365.67079 1202.4442 C 372.07614 1230.2044 375.09724 1257.5266 376.46077 1285.9371 C 376.90179 1295.1409 377.75551 1304.7695 377.17388 1313.952 C 376.77973 1320.1838 375.16976 1326.4627 372.8443 1332.2465 C 368.18385 1343.8472 361.95425 1355.3755 356.49379 1366.6454 C 351.31024 1377.3512 345.1021 1385.8897 344.27759 1398.3532 C 344.11354 1400.8459 343.91508 1403.9811 344.91429 1406.3247 C 346.05518 1409.0091 348.47611 1409.8574 351.10304 1410.6883 C 361.16648 1413.8521 406.4815 1414.2847 415.01097 1409.5337 C 419.31035 1407.1369 421.65884 1402.7875 422.86364 1398.1749 C 426.8189 1383.0594 421.32548 1362.4306 418.14355 1347.4425 C 416.86631 1341.4344 415.00664 1335.0251 415.3081 1328.8253 C 415.72995 1320.1755 418.99196 1311.5341 419.68012 1302.7036 C 420.45136 1292.7967 419.56603 1282.6601 419.98574 1272.7106 C 420.7474 1254.6656 424.1596 1236.5298 428.52604 1219.0494 C 434.45207 1195.3261 445.15505 1172.6764 448.07705 1148.282 C 450.49485 1128.0829 447.40081 1107.1771 445.63211 1086.9803 z " /><path
         id="path8"
         style="fill:none;stroke:#000000;stroke-width:4.68195787;stroke-dasharray:none;stroke-opacity:1"
         d="M 652.96785 826.21252 L 369.72022 817.52791 C 368.69026 822.20084 367.58832 826.87428 366.76592 831.54385 C 363.57334 849.67655 362.63333 867.94164 362.18166 886.31722 C 361.77686 902.7967 361.74037 919.72573 363.08153 936.15828 L 369.77115 988.78385 C 372.5536 1005.5926 377.27926 1022.2581 376.08724 1039.4908 C 375.46832 1048.4357 370.60712 1056.7569 367.62334 1065.1032 C 365.5169 1070.9963 363.45215 1077.1216 361.55345 1083.3808 L 445.63211 1086.9803 C 445.59683 1086.5774 445.55592 1086.1602 445.52175 1085.7579 C 444.77613 1076.9908 443.66998 1067.9204 444.78317 1059.1267 C 446.0487 1049.1345 449.57566 1038.8619 452.83109 1029.363 L 465.53967 992.12866 L 488.55434 904.55238 C 494.46433 877.00072 499.40246 850.36463 500.56679 822.14612 L 520.85637 822.23101 L 521.88358 837.24021 C 527.35681 889.41837 540.81577 941.99831 556.35889 992.02679 C 562.84731 1012.9102 572.59677 1033.2939 576.7843 1054.7887 C 578.75189 1064.8859 577.90259 1075.1522 576.7843 1085.3589 L 660.9903 1084.0175 C 658.8349 1077.6636 656.44517 1071.398 653.85075 1065.273 L 647.45825 1050.4336 C 646.42075 1048.0218 644.8065 1045.0644 644.50396 1042.4961 C 643.65815 1035.3066 645.02359 1027.2679 646.21881 1020.186 L 655.15811 977.31472 C 664.4815 926.49695 663.03833 875.90739 652.96785 826.21252 z " /><path
         id="path9"
         style="fill:none;stroke:#000000;stroke-width:4.68195787;stroke-dasharray:none;stroke-opacity:1"
         d="M 614.18844 696.71576 L 412.20948 693.08232 C 412.00151 694.47109 411.78824 695.72415 411.54731 696.51202 C 410.33505 700.48003 407.72066 704.44 406.08016 708.3377 L 391.87746 744.0949 C 383.25052 767.80172 375.20595 792.63901 369.72022 817.52791 L 652.96785 826.21252 C 649.31499 808.1867 644.59887 790.27417 638.74817 772.5173 C 630.88551 748.65566 621.22612 725.25397 615.12227 700.84159 C 614.77677 699.45993 614.49941 698.09143 614.18844 696.71576 z " /><path
         id="path10"
         style="fill:none;stroke:#000000;stroke-width:4.68195787;stroke-dasharray:none;stroke-opacity:1"
         d="M 617.58418 577.12609 L 403.31263 573.1276 C 403.89102 574.25673 404.4686 575.38533 405.10389 576.43845 C 414.27502 607.67841 415.96623 612.59003 414.80723 645.66073 C 414.56787 652.4718 413.92062 681.65569 412.20948 693.08232 L 614.18844 696.71576 C 609.35541 675.33581 608.56633 654.60595 609.5872 632.53617 C 610.64394 609.6972 612.49473 611.67762 616.39567 583.68837 C 616.79973 581.27635 617.18889 579.1361 617.58418 577.12609 z " /><path
         id="path11"
         style="fill:none;stroke:#000000;stroke-width:4.68195787;stroke-dasharray:none;stroke-opacity:1"
         d="M 651.90668 444.65805 L 375.86651 440.85482 L 373.65079 506.77473 C 373.83587 506.41998 374.19224 505.91145 374.3639 505.56924 C 378.03577 512.8651 382.51167 532.65398 387.46299 539.18712 C 394.50532 548.47759 397.77896 562.32493 403.31263 573.1276 L 617.58418 577.12609 C 620.60074 561.78725 623.92898 556.58037 636.20985 538.26178 C 649.41295 518.56745 652.95515 505.56824 654.6063 504.15152 C 654.65941 504.29854 654.72251 504.43767 654.77609 504.58447 L 651.90668 444.65805 z " /><path
         id="path12"
         style="fill:none;stroke:#000000;stroke-width:4.68195787;stroke-dasharray:none;stroke-opacity:1"
         d="M 466.52444 304.13361 C 466.51944 304.14611 466.52095 304.25823 466.51595 304.26944 C 445.81284 320.50593 421.83091 328.87446 399.16133 341.70753 C 394.48272 344.35576 390.05104 347.36124 385.66324 350.46007 C 383.6537 351.87923 380.9893 354.3038 378.74441 355.26505 L 375.86651 440.85482 L 651.90668 444.65805 L 647.72991 357.26854 C 647.22558 357.17654 646.40819 357.2217 646.04902 357.07328 C 644.19547 356.30629 641.97647 354.37163 640.25927 353.24458 C 635.73521 350.27571 631.25532 347.1997 626.53197 344.55147 L 594.71383 327.82742 C 580.96473 320.98429 567.4382 314.49175 555.62031 304.49865 L 555.6288 304.13361 L 466.52444 304.13361 z " /><path
         id="path1"
         style="fill:none;stroke:#000000;stroke-width:4.68195787;stroke-dasharray:none;stroke-opacity:1"
         d="m 512.29484,120.85672 c -2.2626,-0.10231 -4.61169,-0.21099 -6.8679,0.017 -15.46966,1.87166 -29.64968,7.76716 -39.45856,20.37447 -12.04167,15.47605 -13.33326,44.99382 -10.9343,64.03528 -1.43703,1.43279 -1.892,0.68986 -3.29387,1.49413 -2.14756,1.23143 -2.98505,4.60525 -2.99675,6.87638 -0.0245,4.78194 1.2243,9.30347 2.13083,13.95652 1.58084,8.11832 2.64215,19.10911 9.04966,25.03513 1.01093,0.93424 2.2534,1.65853 3.49762,2.2327 0.78503,4.81619 2.30932,46.24668 1.00175,49.2553 h 89.10436 l 1.02721,-31.79267 c 0.0874,-4.77555 -0.86905,-13.0962 0.78103,-17.44565 l 0.62821,-0.55181 c 7.5793,-6.77077 9.08866,-15.35177 11.0956,-24.80592 0.98217,-4.62428 2.13753,-9.37003 2.32608,-14.10083 0.10972,-2.72706 0.2903,-5.31262 -1.24793,-7.69986 -1.19416,-0.89161 -2.4495,-1.73612 -3.47215,-2.82695 1.2112,-21.61513 1.64163,-48.74587 -13.5745,-65.91143 -9.65655,-10.89332 -24.33339,-17.49196 -38.79639,-18.14177 z" /></g></g></svg>
