<?xml version="1.0" encoding="UTF-8" standalone="no"?>
<!-- Created with Inkscape (http://www.inkscape.org/) -->

<svg
   width="63mm"
   height="88mm"
   viewBox="0 0 63 88"
   version="1.1"
   id="svg1"
   inkscape:version="1.3.2 (091e20e, 2023-11-25, custom)"
   xml:space="preserve"
   sodipodi:docname="card-restraint-vitals.svg"
   xmlns:inkscape="http://www.inkscape.org/namespaces/inkscape"
   xmlns:sodipodi="http://sodipodi.sourceforge.net/DTD/sodipodi-0.dtd"
   xmlns="http://www.w3.org/2000/svg"
   xmlns:svg="http://www.w3.org/2000/svg"><sodipodi:namedview
     id="namedview1"
     pagecolor="#ffffff"
     bordercolor="#000000"
     borderopacity="0.25"
     inkscape:showpageshadow="2"
     inkscape:pageopacity="0.0"
     inkscape:pagecheckerboard="0"
     inkscape:deskcolor="#d1d1d1"
     inkscape:document-units="mm"
     inkscape:zoom="2.0686841"
     inkscape:cx="113.84048"
     inkscape:cy="103.6891"
     inkscape:window-width="1350"
     inkscape:window-height="1017"
     inkscape:window-x="228"
     inkscape:window-y="0"
     inkscape:window-maximized="0"
     inkscape:current-layer="layer1" /><defs
     id="defs1" /><g
     inkscape:label="Layer 1"
     inkscape:groupmode="layer"
     id="layer1"><g
       id="g1"
       transform="matrix(0.06087197,0,0,0.06087197,0.03359486,0.54402301)"><path
         id="path2"
         style="fill:none;stroke:#e5e5e5;stroke-width:4.92837673;stroke-dasharray:none;stroke-opacity:1"
         d="m 1204.8416,221.81931 -160.3391,67.95194 4.0151,46.40929 c 3.1121,24.96797 8.3445,50.36564 14.2681,74.81624 6.5873,27.18902 16.89,54.65162 28.3853,80.19102 25.3172,56.2605 80.6107,145.50055 64.0233,209.10127 -0.5064,1.94476 -1.0494,3.80279 -1.8348,5.65539 -7.7194,18.22897 -24.5245,32.6403 -33.5443,50.27325 -7.0478,13.77058 -8.3165,29.64148 -10.2747,44.7473 l -6.5406,59.92198 c -0.7203,10.05172 -3.0905,21.12725 -0.6907,30.97567 l 4.533,4.51125 c 7.8252,-1.50045 15.9026,-6.82189 21.0246,-12.92973 3.2774,-22.24297 5.0068,-59.50531 24.3055,-73.88805 2.9714,-2.2129 3.2131,-2.04082 6.8427,-1.76995 10.3848,20.45265 10.8873,45.72566 3.8638,67.0668 -4.5992,13.97373 -12.3308,30.70792 -20.7871,42.82618 -7.5515,10.82087 -25.8999,24.60144 -29.4645,36.78214 -0.5999,2.04761 -0.037,6.25118 -0.042,8.52637 4.0277,4.78881 4.3777,5.4932 10.3827,6.97217 41.3333,-12.13191 95.6808,-41.80565 116.9731,-79.95361 6.2082,-11.12688 9.7824,-24.45172 11.5485,-37.01959 l 0.41,-2.71981 c 2.0098,-14.63732 -0.9608,-31.44274 -2.2663,-46.12884 -1.9178,-21.54401 -3.0599,-42.7512 -2.3314,-64.39032 l 8.6992,-108.66256 c 9.6751,-110.5219 17.9379,-223.60021 -16.6211,-330.86638 -8.6485,-26.84022 -20.2861,-53.70527 -34.5371,-78.39942 z" /><path
         id="path5"
         style="fill:none;stroke:#e5e5e5;stroke-width:4.92837673;stroke-dasharray:none;stroke-opacity:1"
         d="m 877.9685,-358.40575 17.91618,374.577626 c 23.03667,63.12583 62.79201,115.573414 89.88305,155.287864 l 35.16317,49.69031 c 6.1486,8.37776 15.6538,18.61594 19.4919,28.25571 3.0365,7.6221 2.3641,19.07469 2.9573,27.26288 l 1.1224,13.10261 160.3391,-67.95194 c -2.4417,-4.23088 -4.7994,-8.54577 -7.404,-12.62772 l -18.5205,-27.2628 c -2.2265,-3.15287 -6.8162,-7.98217 -8.0732,-11.28939 -1.078,-2.83855 -0.5308,-9.68767 -0.7122,-12.90825 l -2.4393,-35.48691 c -3.8435,-36.116574 -10.8281,-72.556464 -23.4636,-106.698414 -10.7504,-29.03891 -24.1682,-58.00595 -39.6315,-84.85359 -6.5684,-11.40054 -16.3847,-22.77927 -21.7152,-34.515666 -1.6821,-3.69993 -1.5111,-7.75833 -1.5111,-11.72098 0,-68.20539 -19.5657,-141.15209 -69.3118,-190.36481 -28.10175,-27.79567 -67.93199,-47.8461 -107.60498,-51.02866 -6.48289,-0.52232 -18.80357,-0.0663 -26.48572,-1.46787 z" /><path
         id="path3"
         style="fill:none;stroke:#e5e5e5;stroke-width:4.92837673;stroke-dasharray:none;stroke-opacity:1"
         d="m 11.8403,309.00422 -171.90892,-68.36223 c -5.97935,12.90481 -11.17479,26.1399 -15.45542,39.89052 -13.9059,44.67024 -19.7483,91.96599 -23.24783,138.47262 -5.90207,78.47082 -3.09035,156.21249 2.76297,234.57225 l 7.55501,78.26998 c 1.89865,31.41167 -5.22265,61.25223 -5.50436,92.23597 -0.27626,30.31457 9.42266,61.30968 28.29891,85.06954 20.22519,25.45804 59.29203,53.19205 92.04163,57.56923 2.96867,0.39807 4.78142,0.0767 7.55503,-0.8851 2.36732,-4.1551 2.38246,-4.38053 0.99294,-8.97969 -2.7384,-9.07919 -12.46201,-19.81933 -17.65715,-27.99674 -20.70451,-32.59798 -37.37049,-74.90139 -23.96018,-113.26048 l 4.10131,-3.08674 c 7.32941,2.28612 12.47689,8.47374 15.90869,15.15325 10.11116,19.67248 3.10231,52.03293 22.98882,65.2538 5.30616,0.51186 5.57206,0.67484 10.42591,-2.24492 9.46389,-23.1993 4.74632,-103.07133 -5.13741,-126.51426 -6.57639,-15.59596 -18.26508,-26.83519 -26.48572,-41.22871 -23.53231,-41.20332 -11.92902,-91.70502 4.29559,-133.03299 C -55.85223,526.88114 -16.3428,471.0663 2.0187597,405.14702 10.75787,373.77567 10.08381,341.0901 11.8403,309.00422 Z" /><path
         id="path6"
         style="fill:none;stroke:#e5e5e5;stroke-width:4.92837673;stroke-dasharray:none;stroke-opacity:1"
         d="m 194.02403,-363.49993 c -0.10159,0.0431 -0.22294,0.15316 -0.32379,0.19421 -6.51964,2.65449 -20.80657,0.67995 -28.40683,1.38154 -10.37671,0.95609 -20.7838,3.16731 -30.7813,6.0656 -60.99764,17.67622 -111.75082,62.96566 -135.32106032,122.11055 -9.23095968,23.16392 -13.79510968,48.8889 -16.83689968,73.56429 l -3.69115,43.68955 c -0.30607,4.00873 0.1861,12.55753 -1.2088,16.05975 -3.99519,10.021776 -16.91291,22.749396 -23.11835,32.443376 -18.40761,28.75183 -33.74202,59.7145796 -44.81202,92.02013 -9.67246,28.22895 -15.75564,57.39443 -20.48488,86.817834 -3.49955,21.78532 -5.82561,44.98989 -12.1096,66.16034 -3.65664,12.3187 -15.74833,24.41643 -22.38442,35.61645 -5.4165,9.1394 -10.20343,18.50039 -14.61355,28.0183 L 11.8403,309.00422 c 1.39945,-25.564 4.30644,-50.7566 15.00208,-74.53571 11.46015,-25.47983 37.33491,-46.04803 54.33132,-68.51316 26.02627,-34.39891 79.08566,-104.321084 99.89887,-144.214404 z" /><path
         id="path4"
         style="fill:none;stroke:#e5e5e5;stroke-width:4.92837673;stroke-dasharray:none;stroke-opacity:1"
         d="m 911.68534,1489.4856 -214.1089,3.4107 c -0.96048,8.7663 -1.71023,17.5843 -2.67661,26.2699 -4.67783,42.0375 -9.58131,85.4846 -5.37487,127.7661 7.94431,79.7675 46.37192,152.7254 62.46912,231.248 6.41128,31.2574 12.09215,62.7727 13.14573,94.7614 0.86402,26.1925 -1.35559,53.1682 1.0361,79.1981 1.70104,18.5268 7.1338,36.4583 10.03736,54.7414 2.54341,16.008 -3.08187,34.8877 -6.45409,50.705 -6.92043,32.4222 -14.9632,66.4699 -15.95186,99.7046 -0.32509,10.9427 -0.91449,22.4137 1.83479,33.1125 2.12634,8.2615 5.9356,16.1619 12.39024,21.9312 5.46326,4.9027 12.46019,7.5325 19.53505,9.1309 17.86596,4.0357 38.67332,3.1124 57.02958,3.4105 26.74192,0.4063 54.92024,1.7642 81.5076,-0.9714 8.28577,-0.8396 19.28152,-4.5029 24.93164,-10.9223 6.22163,-7.0694 5.86468,-19.2423 4.81381,-28.1265 -4.1008,-34.5339 -23.64008,-60.99 -39.60992,-90.5952 -19.29609,-35.8079 -38.82667,-81.2223 -41.83316,-121.8516 -1.99346,-26.9507 -0.18303,-55.1453 0.86346,-82.1769 2.56234,-66.3071 8.08014,-136.0885 24.52127,-200.5534 11.78522,-46.1818 32.70558,-93.3588 36.09145,-141.0843 3.83864,-54.0786 -6.81367,-107.8617 -24.19779,-159.1087 z" /><path
         id="path7"
         style="fill:none;stroke:#e5e5e5;stroke-width:4.92837673;stroke-dasharray:none;stroke-opacity:1"
         d="m 364.09816,1497.019 -213.78527,-9.1523 c -14.86035,48.9881 -25.59021,101.3432 -22.03906,150.7764 3.69715,51.5448 20.93969,101.8275 32.50815,151.964 16.28675,70.5852 23.96846,140.0569 27.43548,212.2958 1.12137,23.4023 3.29211,47.8848 1.81321,71.2329 -1.0022,15.8456 -5.09584,31.8107 -11.00875,46.5171 -11.85003,29.4969 -27.68993,58.8096 -41.57413,87.4654 -13.18012,27.2215 -28.96545,48.9323 -31.06192,80.623 -0.41713,6.338 -0.92174,14.3099 1.61893,20.2689 2.90093,6.8255 9.05658,8.9825 15.73602,11.0952 25.58813,8.0446 140.80981,9.1445 162.49752,-2.9356 10.93197,-6.0944 16.90342,-17.1535 19.96685,-28.8819 10.05697,-38.4339 -3.91105,-90.8864 -12.00169,-128.9964 -3.24761,-15.2768 -7.97617,-31.5734 -7.20964,-47.3376 1.07263,-21.9937 9.36687,-43.966 11.11665,-66.4191 1.96102,-25.1901 -0.2901,-50.9644 0.77709,-76.2627 1.93667,-45.8827 10.61281,-91.9963 21.71526,-136.4434 15.06802,-60.3208 42.2823,-117.9117 49.712,-179.939 6.1477,-51.3598 -1.71947,-104.5167 -6.2167,-155.8707 z" /><path
         id="path8"
         style="fill:none;stroke:#e5e5e5;stroke-width:4.92838;stroke-dasharray:none;stroke-opacity:1"
         d="M 891.28687,833.96952 171.07838,822.28748 c -2.61886,11.88173 -5.42073,13.36479 -7.51183,25.23806 -8.11773,46.10564 -10.50788,92.54799 -11.65632,139.27118 -1.02928,41.90208 -1.12206,84.94708 2.28807,126.72998 l 17.00959,133.81 c 7.07487,42.7394 19.09073,85.1144 16.0598,128.9316 -1.57372,22.7441 -13.9342,43.9022 -21.521,65.1243 -5.35601,14.9842 -10.60602,30.5589 -15.4338,46.4741 l 213.78527,9.1523 c -0.0897,-1.0243 -0.19372,-2.0852 -0.28061,-3.1081 -1.89588,-22.2919 -4.70846,-45.3552 -1.87798,-67.7146 3.21784,-25.4071 12.18578,-51.5271 20.46329,-75.6797 l 32.31391,-94.675 58.51892,-222.6787 C 488.26293,963.10785 500.81903,895.38069 503.77952,823.63 l 51.58995,0.21584 2.61185,38.16373 c 13.9168,132.67245 48.1386,266.36643 87.6598,393.57293 16.49798,53.0999 41.2878,104.9291 51.93532,159.5836 5.0029,25.674 2.84342,51.7778 0,77.7302 l 214.1089,-3.4107 c -5.48041,-16.1559 -11.5566,-32.0874 -18.15338,-47.6613 l -16.2542,-37.7318 c -2.63796,-6.1325 -6.74251,-13.6523 -7.51182,-20.1825 -2.15062,-18.2807 1.32134,-38.7206 4.36032,-56.7276 l 22.72984,-109.008 c 23.70633,-129.2134 20.03681,-257.84658 -5.56923,-384.20488 z"
         sodipodi:nodetypes="cccccccccccccccccccccccccccc" /><path
         id="path10"
         style="fill:none;stroke:#e5e5e5;stroke-width:4.92837673;stroke-dasharray:none;stroke-opacity:1"
         d="M 801.31755,200.6221 256.49319,190.45515 c 1.47067,2.87105 2.93927,5.74067 4.55462,8.41848 23.31925,79.4332 27.61946,91.92198 24.67249,176.01025 -0.60862,17.3184 -2.25436,91.52376 -6.60525,120.578 l 513.56825,9.23874 C 780.3944,450.33807 778.388,397.62873 780.9838,341.51228 c 2.68691,-58.0723 7.39292,-53.03665 17.31177,-124.20446 1.02732,-6.13291 2.01686,-11.57493 3.02198,-16.68572 z" /><path
         id="path11"
         style="fill:none;stroke:#e5e5e5;stroke-width:4.92837673;stroke-dasharray:none;stroke-opacity:1"
         d="m 888.5887,-136.20197 -701.88226,-9.67049 -5.63387,167.613406 c 0.4706,-0.90203 1.37673,-2.19502 1.81321,-3.06518 9.3364,18.55102 20.71719,68.86786 33.30682,85.479564 17.9064,23.62268 26.23023,58.8321 40.30059,86.29982 l 544.82436,10.16695 c 7.67009,-39.00184 16.13281,-52.24132 47.35915,-98.81966 33.57131,-50.076404 42.57799,-83.129234 46.77629,-86.731424 0.13504,0.37371 0.29546,0.72746 0.43169,1.10086 z" /><path
         id="path12"
         style="fill:none;stroke:#e5e5e5;stroke-width:4.92837673;stroke-dasharray:none;stroke-opacity:1"
         d="m 417.22074,-493.51092 c -0.0128,0.0318 -0.008,0.31685 -0.0216,0.34537 -52.64139,41.28422 -113.61981,62.56276 -171.26134,95.19316 -11.89622,6.73357 -23.16456,14.37556 -34.32135,22.25487 -5.10961,3.6085 -11.88434,9.77344 -17.59238,12.21759 l -7.31759,217.62747 701.88234,9.67049 -10.62028,-222.20378 c -1.28229,-0.23389 -3.36064,-0.11898 -4.27392,-0.49645 -4.71296,-1.95018 -10.35517,-6.86948 -14.72149,-9.73519 -11.50322,-7.54887 -22.89417,-15.37021 -34.90415,-22.10378 l -80.90331,-42.52394 c -34.95973,-17.39991 -69.35337,-33.90836 -99.40251,-59.31765 l 0.0216,-0.92816 z" /><path
         id="path9"
         style="fill:none;stroke:#000000;stroke-width:4.92838;stroke-dasharray:none;stroke-opacity:1"
         d="m 788.48106,496.55878 -505.68905,-0.83426 c -2.89256,2.218 -3.69749,1.4644 -5.09801,5.30625 -4.94329,7.58941 -53.75682,158.28801 -70.23745,199.78024 -21.93555,60.2789 -19.45826,58.19179 -33.40674,121.47646 l 714.08538,10.63149 C 878.84727,787.08509 870.00734,742.5899 855.13078,697.43974 835.13864,636.76725 794.81944,518.17012 792.95663,507.57466 c -1.92919,-4.5638 -1.58382,-8.83126 -4.47557,-11.01588 z"
         sodipodi:nodetypes="ccccccccc" /><path
         id="path1"
         style="fill:none;stroke:#e5e5e5;stroke-width:4.92837673;stroke-dasharray:none;stroke-opacity:1"
         d="m 533.60019,-959.52569 c -5.75297,-0.2602 -11.72601,-0.5365 -17.46285,0.043 -39.33443,4.759 -75.38967,19.7494 -100.33049,51.8058 -30.61817,39.3506 -33.90227,114.4049 -27.80247,162.8213 -3.65391,3.6431 -4.81075,1.7541 -8.37526,3.7991 -5.46057,3.1311 -7.59004,11.7097 -7.61978,17.4845 -0.0624,12.1589 3.11299,23.6557 5.41802,35.487 4.01958,20.64226 6.71815,48.58834 23.0104,63.65632 2.57048,2.37547 5.72967,4.21712 8.89333,5.67704 1.99608,12.24604 5.87191,117.59058 2.54713,125.24055 h 226.56402 l 2.61185,-80.83864 c 0.22223,-12.1427 -2.20971,-33.29946 1.98596,-44.35872 l 1.59731,-1.40308 c 19.2717,-17.21592 23.10962,-39.03466 28.21258,-63.07357 2.49734,-11.7581 5.435,-23.825 5.91452,-35.8539 0.27892,-6.9341 0.73808,-13.5083 -3.17307,-19.5783 -3.03643,-2.2671 -6.22841,-4.4144 -8.82868,-7.188 3.07979,-54.9605 4.17426,-123.9453 -34.51559,-167.5918 -24.55353,-27.6983 -61.87205,-44.4765 -98.64693,-46.1288 z" /></g><g
       id="move"
       transform="matrix(0.04824098,0,0,0.05181757,-2.1866319,-11.7401)"
       inkscape:label="move"><text
         xml:space="preserve"
         style="font-style:normal;font-variant:normal;font-weight:normal;font-stretch:normal;font-size:148.144px;font-family:Amiri;-inkscape-font-specification:'Amiri, Normal';font-variant-ligatures:normal;font-variant-caps:normal;font-variant-numeric:normal;font-variant-east-asian:normal;fill:#000000;fill-opacity:1;stroke:#000000;stroke-width:0.269288;stroke-dasharray:none;stroke-opacity:1;paint-order:markers fill stroke"
         x="513.04822"
         y="778.5697"
         id="text1-9"><tspan
           sodipodi:role="line"
           id="tspan1-8"
           x="513.04822"
           y="778.5697">Move: -1*</tspan></text><path
         fill="#fefefe"
         d="m 423.87315,743.60565 0.21512,0.052 c 1.71719,3.76403 3.49119,3.70519 5.98388,7.35145 -7.82361,-0.10797 -11.69949,-1.08864 -18.76246,-4.29382 -1.34963,-0.0879 -4.75661,-3.11408 -5.45151,-3.66689 -1.44497,-1.14935 -2.73119,-2.33754 -3.98746,-3.59097 2.82341,0.88799 5.73821,1.52855 8.60636,2.10838 4.47579,0.90536 8.94267,1.61647 13.39636,2.03887 z"
         id="path2-5"
         style="stroke:#000000;stroke-width:2.32259;stroke-dasharray:none;stroke-opacity:1"
         sodipodi:nodetypes="ccccccccc" /><path
         fill="#fefefe"
         d="m 420.73098,732.74924 c 0.16605,0.0376 0.32327,0.0615 0.4746,0.14245 0.19084,1.49259 0.48354,2.93964 1.01378,4.35123 l 0.69132,1.64881 c 0.11304,0.25498 0.3131,0.59092 0.35053,0.86427 -3.38586,1.31875 -5.88595,0.53798 -8.86795,-0.96306 -4.84177,-2.84555 -9.02471,-7.42607 -10.99427,-12.72672 3.75169,2.83784 8.23961,4.29963 12.72721,5.52821 z"
         id="path3-4"
         style="stroke:#000000;stroke-width:2.32259;stroke-dasharray:none;stroke-opacity:1"
         sodipodi:nodetypes="ccccccccc" /><path
         fill="#fefefe"
         d="m 419.63719,727.11092 c -0.99006,-0.26054 -2.01274,-0.4366 -2.97937,-0.7825 -0.85278,-0.30505 -1.72241,-0.79395 -2.50264,-1.25578 -2.16532,-1.2816 -4.13288,-2.88937 -5.79407,-4.78297 -4.41276,-5.02993 -6.03531,-11.58112 -5.60542,-18.1506 1.44243,3.24637 3.5683,6.08982 6.39823,8.27104 l 1.57984,1.10672 c 0.28142,0.18129 0.70379,0.34916 0.93296,0.58562 0.21062,0.21732 0.3861,0.48811 0.57442,0.72644 l 1.38168,1.69296 c 2.2089,2.46776 4.80215,4.73075 7.62498,6.46811 l 0.12898,0.13734 c -0.62085,1.97648 -1.04172,4.00744 -1.0594,6.08448 z"
         id="path6-5"
         style="stroke:#000000;stroke-width:2.32259;stroke-dasharray:none;stroke-opacity:1" /><path
         fill="#fefefe"
         d="m 422.50359,716.14959 c -6.06305,-3.90641 -11.27396,-9.80969 -14.03576,-16.50113 -0.43606,-1.05665 -0.75161,-2.15168 -1.06003,-3.25081 -2.00973,-7.16318 -1.47637,-15.1216 1.38236,-21.98689 0.2891,0.72521 0.42082,1.57216 0.62475,2.33043 0.35788,1.33073 0.7986,2.60686 1.35738,3.86748 0.47228,1.06564 0.9832,2.14161 1.58175,3.1412 l 0.90316,1.40505 c 0.18746,0.2736 0.50729,0.62227 0.60871,0.93662 0.21288,0.6592 0.26249,1.40777 0.42808,2.08389 0.33393,1.36262 0.78211,2.71126 1.23813,4.03775 0.45987,1.33772 1.06344,2.61477 1.67154,3.88916 l 1.49177,2.99798 c 1.87192,3.37951 4.15198,6.55044 6.51068,9.6034 l 0.23463,0.30861 c -0.0517,0.33478 -0.27329,0.71011 -0.41015,1.02434 l -0.66812,1.64046 -1.60838,4.55102 z"
         id="path8-9"
         style="stroke:#000000;stroke-width:2.32259;stroke-dasharray:none;stroke-opacity:1" /><path
         fill="#fefefe"
         d="m 427.82911,704.30477 c -1.48769,-2.03108 -2.99773,-4.05116 -4.324,-6.19379 -0.96557,-1.5597 -1.79369,-3.1602 -2.59468,-4.80719 -1.11105,-2.2848 -2.10439,-4.7802 -2.55777,-7.29184 -0.24624,-1.36401 -0.45268,-2.72558 -0.51351,-4.11224 -0.24301,-5.54139 1.1937,-11.18988 3.82779,-16.05429 0.72352,-1.33628 1.55305,-2.58504 2.42036,-3.83035 0.042,0.0418 0.0238,0.31948 0.0245,0.39377 0.0211,2.54183 0.12403,5.04409 0.42467,7.56995 0.69681,5.85525 2.16034,11.48155 3.87478,17.11022 l 3.27489,9.76808 c -0.12526,0.3865 -0.4152,0.75921 -0.61716,1.11385 l -0.73083,1.39548 -2.32068,4.9936 -0.078,0.039 z"
         id="path9-5"
         style="stroke:#000000;stroke-width:2.32259;stroke-dasharray:none;stroke-opacity:1" /><path
         fill="#0f0f0f"
         d="m 432.78711,753.3154 c 6.28761,7.956 12.85273,15.64753 20.25674,22.5946 5.03214,4.72143 10.49456,9.17358 16.60299,12.43754 7.93511,4.24005 17.11673,6.68524 26.01566,7.74271 2.47919,0.29452 4.96743,0.37534 7.45739,0.50978 2.29621,0.12402 4.63384,0.35136 6.93082,0.15841 -0.31138,0.39113 -0.97692,0.55687 -1.44822,0.75118 -3.40429,1.40427 -7.02194,2.24905 -10.67808,2.66433 -10.79379,1.22587 -22.09365,-1.38775 -31.6759,-6.36425 -4.33537,-2.25144 -8.33793,-4.99995 -12.15002,-8.04259 -5.94588,-4.74606 -11.37367,-10.20987 -16.25291,-16.04008 l -4.06298,-5.01213 -9.08906,8.41029 -21.3164,-10.37972 2.49671,-15.7079 c 0.38126,0.21008 0.7698,0.4604 1.18359,0.59783 2.32478,1.18832 4.66524,2.35494 7.11431,3.26873 5.93832,2.21617 7.44568,2.96323 13.74108,2.45884 z"
         id="path10-6"
         style="fill:none;fill-opacity:1;stroke:#000000;stroke-width:2.32259;stroke-dasharray:none;stroke-opacity:1"
         sodipodi:nodetypes="ccccccccccccccccccc" /><path
         fill="#dc9308"
         d="m 463.02874,689.96939 0.14384,0.035 c 0.49063,0.11195 1.1488,0.0313 1.65643,0.0217 l 3.58408,-0.053 c 2.39392,-0.0242 4.86943,0.10962 7.24971,-0.0434 -6.31985,10.20788 -9.878,22.14022 -9.54579,34.17661 0.11685,4.25601 0.74673,8.39684 1.7215,12.53376 3.77093,16.00471 11.61851,30.25771 21.33565,40.94937 12.10107,12.64047 8.48263,7.78003 20.17454,16.94792 -17.32365,-3.71452 -21.55024,-4.23093 -26.35187,-6.3316 -9.89964,-6.18762 -14.97824,-6.89097 -26.89975,-18.41407 -12.79352,-12.36596 -18.29357,-15.79526 -23.00912,-27.19435 l -3.2569,-19.42517 c -2.88158,-22.76633 4.41888,-31.58046 4.03571,-32.91484 l 21.28156,-0.26223 5.32127,0.0602 c 0.85201,-0.008 1.71303,0.0204 2.55906,-0.0844 z"
         id="path11-6"
         style="fill:none;stroke:#000000;stroke-width:2.32259;stroke-dasharray:none;stroke-opacity:1"
         sodipodi:nodetypes="cccccsccccsccccccc" /><path
         id="path2-9"
         inkscape:transform-center-x="-0.01494134"
         inkscape:transform-center-y="-3.7500871"
         d="m 427.40161,748.51285 c 20.36512,-7.37419 13.98417,-9.56844 21.66325,-57.74338 8.14056,47.72615 2.64335,50.64631 21.89168,57.54181 z"
         sodipodi:nodetypes="cccc"
         style="stroke-width:10.6897" /><path
         id="path2-0"
         inkscape:transform-center-x="-0.0034207367"
         inkscape:transform-center-y="-1.3106034"
         d="m 444.38529,757.43968 c 4.11726,-2.61102 3.85157,-6.32045 4.96018,-20.18053 1.20756,13.97013 0.83807,17.62212 5.01247,20.11007 z"
         sodipodi:nodetypes="cccc"
         style="stroke-width:3.02394" /></g></g></svg>
