<?xml version="1.0" encoding="UTF-8" standalone="no"?>
<svg
   width="63mm"
   height="88mm"
   version="1.1"
   id="svg49"
   sodipodi:docname="card-burden-deck.svg"
   inkscape:version="1.4 (86a8ad7, 2024-10-11)"
   viewBox="0 0 238.11054 332.59885"
   xml:space="preserve"
   inkscape:export-filename="..\..\work\cards\rule-round.png"
   inkscape:export-xdpi="96"
   inkscape:export-ydpi="96"
   xmlns:inkscape="http://www.inkscape.org/namespaces/inkscape"
   xmlns:sodipodi="http://sodipodi.sourceforge.net/DTD/sodipodi-0.dtd"
   xmlns="http://www.w3.org/2000/svg"
   xmlns:svg="http://www.w3.org/2000/svg"><sodipodi:namedview
     id="namedview49"
     pagecolor="#ffffff"
     bordercolor="#000000"
     borderopacity="0.25"
     inkscape:showpageshadow="2"
     inkscape:pageopacity="0.0"
     inkscape:pagecheckerboard="0"
     inkscape:deskcolor="#d1d1d1"
     inkscape:zoom="0.92441825"
     inkscape:cx="88.704437"
     inkscape:cy="249.88689"
     inkscape:window-width="1147"
     inkscape:window-height="986"
     inkscape:window-x="337"
     inkscape:window-y="7"
     inkscape:window-maximized="0"
     inkscape:current-layer="svg49"
     inkscape:document-units="mm"
     showgrid="false" /><defs
     id="defs17"><linearGradient
       id="gradient_0"
       gradientUnits="userSpaceOnUse"
       x1="787.83301"
       y1="417.13614"
       x2="896.2948"
       y2="336.46844"><stop
         offset="0"
         stop-color="#167F8A"
         id="stop16" /><stop
         offset="1"
         stop-color="#159BA9"
         id="stop17" /></linearGradient><linearGradient
       id="gradient_0-2"
       gradientUnits="userSpaceOnUse"
       x1="439.11206"
       y1="464.522"
       x2="373.02579"
       y2="386.0676"><stop
         offset="0"
         stop-color="#FEA902"
         id="stop24-7" /><stop
         offset="1"
         stop-color="#FEC100"
         id="stop25-8" /></linearGradient><linearGradient
       id="gradient_0-8"
       gradientUnits="userSpaceOnUse"
       x1="505.63708"
       y1="183.79691"
       x2="171.41376"
       y2="155.43059"><stop
         offset="0"
         stop-color="#EEA800"
         id="stop3" /><stop
         offset="1"
         stop-color="#FEF49E"
         id="stop4" /></linearGradient><linearGradient
       id="gradient_1-2"
       gradientUnits="userSpaceOnUse"
       x1="297.28619"
       y1="286.58209"
       x2="163.5318"
       y2="635.06488"><stop
         offset="0"
         stop-color="#BE8500"
         id="stop5" /><stop
         offset="1"
         stop-color="#FFEA5F"
         id="stop6" /></linearGradient><linearGradient
       id="gradient_2"
       gradientUnits="userSpaceOnUse"
       x1="690.96869"
       y1="886.34503"
       x2="530.02826"
       y2="327.17783"><stop
         offset="0"
         stop-color="#936602"
         id="stop7" /><stop
         offset="1"
         stop-color="#E6AB0B"
         id="stop8" /></linearGradient><linearGradient
       id="gradient_0-6"
       gradientUnits="userSpaceOnUse"
       x1="756.237"
       y1="543.65344"
       x2="570.92169"
       y2="327.42014"><stop
         offset="0"
         stop-color="#9650B5"
         id="stop1" /><stop
         offset="1"
         stop-color="#B262D0"
         id="stop2" /></linearGradient><linearGradient
       id="gradient_1-21"
       gradientUnits="userSpaceOnUse"
       x1="431.04391"
       y1="954.88794"
       x2="538.14734"
       y2="89.44886"><stop
         offset="0"
         stop-color="#002757"
         id="stop3-8"
         style="stop-color:#000000;stop-opacity:1;" /><stop
         offset="1"
         stop-color="#4B448F"
         id="stop4-0" /></linearGradient><linearGradient
       id="linearGradient1"
       gradientUnits="userSpaceOnUse"
       x1="567.4491"
       y1="699.04437"
       x2="868.41522"
       y2="779.63495"><stop
         offset="0"
         stop-color="#176366"
         id="stop24-1"
         style="stop-color:#000000;stop-opacity:1;" /><stop
         offset="1"
         stop-color="#157C89"
         id="stop25-1" /></linearGradient><linearGradient
       id="gradient_0-0"
       gradientUnits="userSpaceOnUse"
       x1="1203.2562"
       y1="365.60925"
       x2="713.99847"
       y2="606.26434"><stop
         offset="0"
         stop-color="#000018"
         id="stop1-9" /><stop
         offset="1"
         stop-color="#264F6B"
         id="stop2-4" /></linearGradient><linearGradient
       id="gradient_1-8"
       gradientUnits="userSpaceOnUse"
       x1="580.32581"
       y1="651.20123"
       x2="776.40106"
       y2="561.36353"><stop
         offset="0"
         stop-color="#B39580"
         id="stop10" /><stop
         offset="1"
         stop-color="#1E5B96"
         id="stop11" /></linearGradient><linearGradient
       id="gradient_2-8"
       gradientUnits="userSpaceOnUse"
       x1="698.77161"
       y1="768.71899"
       x2="597.22839"
       y2="805.56323"><stop
         offset="0"
         stop-color="#B2967D"
         id="stop12" /><stop
         offset="1"
         stop-color="#E9B282"
         id="stop13" /></linearGradient><linearGradient
       id="gradient_3"
       gradientUnits="userSpaceOnUse"
       x1="834.83234"
       y1="453.01718"
       x2="784.56146"
       y2="458.84158"><stop
         offset="0"
         stop-color="#156662"
         id="stop18" /><stop
         offset="1"
         stop-color="#388970"
         id="stop19" /></linearGradient><linearGradient
       id="gradient_4"
       gradientUnits="userSpaceOnUse"
       x1="1016.6917"
       y1="237.08151"
       x2="645.8609"
       y2="523.74127"><stop
         offset="0"
         stop-color="#0B1A3D"
         id="stop39" /><stop
         offset="1"
         stop-color="#0B4961"
         id="stop40" /></linearGradient><linearGradient
       id="gradient_5"
       gradientUnits="userSpaceOnUse"
       x1="794.68036"
       y1="761.65906"
       x2="955.13507"
       y2="828.36414"><stop
         offset="0"
         stop-color="#376462"
         id="stop64" /><stop
         offset="1"
         stop-color="#6E9072"
         id="stop65" /></linearGradient><linearGradient
       id="gradient_6"
       gradientUnits="userSpaceOnUse"
       x1="971.35596"
       y1="969.78015"
       x2="914.33557"
       y2="805.48529"><stop
         offset="0"
         stop-color="#CE7550"
         id="stop66" /><stop
         offset="1"
         stop-color="#FFC265"
         id="stop67" /></linearGradient><linearGradient
       id="gradient_7"
       gradientUnits="userSpaceOnUse"
       x1="1014.0444"
       y1="916.31604"
       x2="963.09863"
       y2="999.04688"><stop
         offset="0"
         stop-color="#34405F"
         id="stop69" /><stop
         offset="1"
         stop-color="#716F6B"
         id="stop70" /></linearGradient><linearGradient
       id="gradient_8"
       gradientUnits="userSpaceOnUse"
       x1="-161.40541"
       y1="461.72156"
       x2="396.74554"
       y2="728.84857"><stop
         offset="0"
         stop-color="#001A35"
         id="stop71" /><stop
         offset="1"
         stop-color="#5E4A6D"
         id="stop72" /></linearGradient><linearGradient
       id="gradient_9"
       gradientUnits="userSpaceOnUse"
       x1="119.54299"
       y1="-9.3152733"
       x2="317.97641"
       y2="236.45277"><stop
         offset="0"
         stop-color="#09112F"
         id="stop73" /><stop
         offset="1"
         stop-color="#05325C"
         id="stop74" /></linearGradient><linearGradient
       id="gradient_10"
       gradientUnits="userSpaceOnUse"
       x1="112.80656"
       y1="335.07019"
       x2="186.52678"
       y2="368.09143"><stop
         offset="0"
         stop-color="#093B5C"
         id="stop75" /><stop
         offset="1"
         stop-color="#086F6E"
         id="stop76" /></linearGradient><linearGradient
       id="gradient_11"
       gradientUnits="userSpaceOnUse"
       x1="164.27153"
       y1="27.853531"
       x2="263.06363"
       y2="123.79062"><stop
         offset="0"
         stop-color="#09264B"
         id="stop77" /><stop
         offset="1"
         stop-color="#0D4866"
         id="stop78" /></linearGradient><linearGradient
       id="gradient_12"
       gradientUnits="userSpaceOnUse"
       x1="32.023575"
       y1="1066.6332"
       x2="83.590164"
       y2="1190.2156"><stop
         offset="0"
         stop-color="#10153A"
         id="stop82" /><stop
         offset="1"
         stop-color="#2A3E68"
         id="stop83" /></linearGradient><linearGradient
       id="gradient_13"
       gradientUnits="userSpaceOnUse"
       x1="-2.6396108"
       y1="1162.1647"
       x2="51.313461"
       y2="1156.2856"><stop
         offset="0"
         stop-color="#0F1641"
         id="stop84" /><stop
         offset="1"
         stop-color="#4B334F"
         id="stop85" /></linearGradient><linearGradient
       id="gradient_14"
       gradientUnits="userSpaceOnUse"
       x1="39.087193"
       y1="1131.0325"
       x2="51.436378"
       y2="1185.7673"><stop
         offset="0"
         stop-color="#5F434D"
         id="stop86" /><stop
         offset="1"
         stop-color="#706573"
         id="stop87" /></linearGradient><linearGradient
       id="gradient_15"
       gradientUnits="userSpaceOnUse"
       x1="91.195694"
       y1="1151.0029"
       x2="106.12475"
       y2="1149.2095"><stop
         offset="0"
         stop-color="#44445F"
         id="stop89" /><stop
         offset="1"
         stop-color="#6C5B68"
         id="stop90" /></linearGradient><linearGradient
       id="gradient_16"
       gradientUnits="userSpaceOnUse"
       x1="259.32956"
       y1="921.64124"
       x2="288.43649"
       y2="886.20221"><stop
         offset="0"
         stop-color="#E89A5C"
         id="stop97" /><stop
         offset="1"
         stop-color="#FED97D"
         id="stop98" /></linearGradient><linearGradient
       id="gradient_17"
       gradientUnits="userSpaceOnUse"
       x1="143.34169"
       y1="693.16785"
       x2="170.65887"
       y2="693.16028"><stop
         offset="0"
         stop-color="#F97847"
         id="stop109" /><stop
         offset="1"
         stop-color="#D86750"
         id="stop110" /></linearGradient><linearGradient
       id="gradient_18"
       gradientUnits="userSpaceOnUse"
       x1="449.18393"
       y1="232.60884"
       x2="583.13116"
       y2="380.36691"><stop
         offset="0"
         stop-color="#96E1E8"
         id="stop112" /><stop
         offset="1"
         stop-color="#CDF5EA"
         id="stop113" /></linearGradient><linearGradient
       id="gradient_19"
       gradientUnits="userSpaceOnUse"
       x1="332.3316"
       y1="44.074871"
       x2="397.43076"
       y2="92.795059"><stop
         offset="0"
         stop-color="#07235B"
         id="stop114" /><stop
         offset="1"
         stop-color="#107E97"
         id="stop115" /></linearGradient><linearGradient
       id="gradient_20"
       gradientUnits="userSpaceOnUse"
       x1="700.2951"
       y1="104.56772"
       x2="649.112"
       y2="161.43372"><stop
         offset="0"
         stop-color="#0A4467"
         id="stop120" /><stop
         offset="1"
         stop-color="#0C5A73"
         id="stop121" /></linearGradient><linearGradient
       id="gradient_21"
       gradientUnits="userSpaceOnUse"
       x1="758.98419"
       y1="287.33972"
       x2="743.19904"
       y2="294.14084"><stop
         offset="0"
         stop-color="#237470"
         id="stop122" /><stop
         offset="1"
         stop-color="#308B75"
         id="stop123" /></linearGradient><linearGradient
       id="gradient_22"
       gradientUnits="userSpaceOnUse"
       x1="263.0441"
       y1="693.8631"
       x2="316.85687"
       y2="850.02216"><stop
         offset="0"
         stop-color="#154B7F"
         id="stop137" /><stop
         offset="1"
         stop-color="#566889"
         id="stop138" /></linearGradient><linearGradient
       id="gradient_23"
       gradientUnits="userSpaceOnUse"
       x1="355.0838"
       y1="1141.8605"
       x2="370.20099"
       y2="1165.4512"><stop
         offset="0"
         stop-color="#FFF6B4"
         id="stop145" /><stop
         offset="1"
         stop-color="#FFD"
         id="stop146" /></linearGradient><linearGradient
       id="gradient_24"
       gradientUnits="userSpaceOnUse"
       x1="352.28159"
       y1="1097.1383"
       x2="371.45291"
       y2="1109.3077"><stop
         offset="0"
         stop-color="#4D4A54"
         id="stop153" /><stop
         offset="1"
         stop-color="#757171"
         id="stop154" /></linearGradient><linearGradient
       id="gradient_25"
       gradientUnits="userSpaceOnUse"
       x1="416.94"
       y1="1072.3423"
       x2="438.02576"
       y2="1025.3041"><stop
         offset="0"
         stop-color="#F1CC87"
         id="stop159" /><stop
         offset="1"
         stop-color="#FFF8B8"
         id="stop160" /></linearGradient><linearGradient
       id="gradient_26"
       gradientUnits="userSpaceOnUse"
       x1="441.1145"
       y1="1082.2289"
       x2="438.48962"
       y2="1140.6636"><stop
         offset="0"
         stop-color="#F0854B"
         id="stop161" /><stop
         offset="1"
         stop-color="#F8EBB3"
         id="stop162" /></linearGradient><linearGradient
       id="gradient_27"
       gradientUnits="userSpaceOnUse"
       x1="478.15134"
       y1="1072.7877"
       x2="457.98553"
       y2="1068.2281"><stop
         offset="0"
         stop-color="#041D3C"
         id="stop163" /><stop
         offset="1"
         stop-color="#143A6E"
         id="stop164" /></linearGradient><linearGradient
       id="gradient_28"
       gradientUnits="userSpaceOnUse"
       x1="427.44531"
       y1="942.95258"
       x2="440.84729"
       y2="1032.2871"><stop
         offset="0"
         stop-color="#B88179"
         id="stop167" /><stop
         offset="1"
         stop-color="#EBBB90"
         id="stop168" /></linearGradient><linearGradient
       id="gradient_29"
       gradientUnits="userSpaceOnUse"
       x1="384.65228"
       y1="980.42316"
       x2="401.74664"
       y2="1011.0742"><stop
         offset="0"
         stop-color="#B69683"
         id="stop169" /><stop
         offset="1"
         stop-color="#DEB391"
         id="stop170" /></linearGradient><linearGradient
       id="gradient_30"
       gradientUnits="userSpaceOnUse"
       x1="412.82632"
       y1="885.59003"
       x2="442.00034"
       y2="891.00208"><stop
         offset="0"
         stop-color="#987276"
         id="stop179" /><stop
         offset="1"
         stop-color="#B3867C"
         id="stop180" /></linearGradient><linearGradient
       id="gradient_31"
       gradientUnits="userSpaceOnUse"
       x1="508.97589"
       y1="909.02386"
       x2="521.30701"
       y2="761.20087"><stop
         offset="0"
         stop-color="#FDEF94"
         id="stop195" /><stop
         offset="1"
         stop-color="white"
         id="stop196" /></linearGradient><linearGradient
       id="gradient_32"
       gradientUnits="userSpaceOnUse"
       x1="252.40335"
       y1="586.52972"
       x2="334.39069"
       y2="557.27704"><stop
         offset="0"
         stop-color="#1F487A"
         id="stop197" /><stop
         offset="1"
         stop-color="#246593"
         id="stop198" /></linearGradient><linearGradient
       id="gradient_33"
       gradientUnits="userSpaceOnUse"
       x1="495.37836"
       y1="825.1806"
       x2="413.9144"
       y2="799.6236"><stop
         offset="0"
         stop-color="#FFCB9C"
         id="stop199" /><stop
         offset="1"
         stop-color="#ABB8AA"
         id="stop200" /></linearGradient><linearGradient
       id="gradient_34"
       gradientUnits="userSpaceOnUse"
       x1="33.306793"
       y1="1170.4702"
       x2="391.53204"
       y2="1322.2754"><stop
         offset="0"
         stop-color="#2D5174"
         id="stop211" /><stop
         offset="1"
         stop-color="#4B9087"
         id="stop212" /></linearGradient><linearGradient
       id="gradient_35"
       gradientUnits="userSpaceOnUse"
       x1="364.56952"
       y1="1237.785"
       x2="372.63635"
       y2="1164.4946"><stop
         offset="0"
         stop-color="#E8D8A1"
         id="stop213" /><stop
         offset="1"
         stop-color="#FFFDC3"
         id="stop214" /></linearGradient><linearGradient
       id="gradient_36"
       gradientUnits="userSpaceOnUse"
       x1="233.00121"
       y1="1129.0487"
       x2="243.10144"
       y2="1180.9965"><stop
         offset="0"
         stop-color="#11264F"
         id="stop217" /><stop
         offset="1"
         stop-color="#225776"
         id="stop218" /></linearGradient><linearGradient
       id="gradient_37"
       gradientUnits="userSpaceOnUse"
       x1="1001.8273"
       y1="991.09113"
       x2="881.27496"
       y2="1207.0852"><stop
         offset="0"
         stop-color="#121843"
         id="stop252" /><stop
         offset="1"
         stop-color="#396481"
         id="stop253" /></linearGradient><linearGradient
       id="gradient_38"
       gradientUnits="userSpaceOnUse"
       x1="1023.7244"
       y1="1363.9673"
       x2="928.80963"
       y2="1262.6836"><stop
         offset="0"
         stop-color="#00051D"
         id="stop254" /><stop
         offset="1"
         stop-color="#0E1C47"
         id="stop255" /></linearGradient><linearGradient
       id="gradient_39"
       gradientUnits="userSpaceOnUse"
       x1="884.20715"
       y1="1189.8439"
       x2="769.76361"
       y2="1165.6781"><stop
         offset="0"
         stop-color="#C2CE9C"
         id="stop257" /><stop
         offset="1"
         stop-color="#FFF7BC"
         id="stop258" /></linearGradient><linearGradient
       id="gradient_40"
       gradientUnits="userSpaceOnUse"
       x1="851.49432"
       y1="1235.9153"
       x2="855.49713"
       y2="1198.9602"><stop
         offset="0"
         stop-color="#467786"
         id="stop259" /><stop
         offset="1"
         stop-color="#3C9886"
         id="stop260" /></linearGradient><linearGradient
       id="gradient_41"
       gradientUnits="userSpaceOnUse"
       x1="705.32892"
       y1="1192.6616"
       x2="655.3407"
       y2="1191.8951"><stop
         offset="0"
         stop-color="#BFC691"
         id="stop280" /><stop
         offset="1"
         stop-color="#FFF7B7"
         id="stop281" /></linearGradient><linearGradient
       id="gradient_42"
       gradientUnits="userSpaceOnUse"
       x1="507.90146"
       y1="1379.5242"
       x2="514.71216"
       y2="1307.2701"><stop
         offset="0"
         stop-color="#387674"
         id="stop302" /><stop
         offset="1"
         stop-color="#7AB998"
         id="stop303" /></linearGradient><linearGradient
       id="gradient_43"
       gradientUnits="userSpaceOnUse"
       x1="585.83118"
       y1="1091.636"
       x2="573.26111"
       y2="1093.1138"><stop
         offset="0"
         stop-color="#80232A"
         id="stop322" /><stop
         offset="1"
         stop-color="#A53233"
         id="stop323" /></linearGradient><linearGradient
       id="gradient_44"
       gradientUnits="userSpaceOnUse"
       x1="582.74414"
       y1="1087.2253"
       x2="571.92255"
       y2="1091.5759"><stop
         offset="0"
         stop-color="#ECAA56"
         id="stop328" /><stop
         offset="1"
         stop-color="#F3D372"
         id="stop329" /></linearGradient><linearGradient
       id="gradient_45"
       gradientUnits="userSpaceOnUse"
       x1="711.61951"
       y1="1037.6094"
       x2="717.84729"
       y2="1041.9763"><stop
         offset="0"
         stop-color="#275365"
         id="stop342" /><stop
         offset="1"
         stop-color="#204568"
         id="stop343" /></linearGradient><linearGradient
       id="gradient_46"
       gradientUnits="userSpaceOnUse"
       x1="611.24982"
       y1="1065.4238"
       x2="628.44702"
       y2="1075.4287"><stop
         offset="0"
         stop-color="#281B2B"
         id="stop344" /><stop
         offset="1"
         stop-color="#4C2336"
         id="stop345" /></linearGradient><linearGradient
       id="gradient_47"
       gradientUnits="userSpaceOnUse"
       x1="568.54639"
       y1="1093.2037"
       x2="553.84247"
       y2="1036.2786"><stop
         offset="0"
         stop-color="#F6D484"
         id="stop358" /><stop
         offset="1"
         stop-color="#FFFAAF"
         id="stop359" /></linearGradient><linearGradient
       id="gradient_48"
       gradientUnits="userSpaceOnUse"
       x1="610.95123"
       y1="914.66962"
       x2="491.06555"
       y2="940.75598"><stop
         offset="0"
         stop-color="#DD8F70"
         id="stop372" /><stop
         offset="1"
         stop-color="#F6D1A4"
         id="stop373" /></linearGradient><linearGradient
       id="gradient_49"
       gradientUnits="userSpaceOnUse"
       x1="285.82596"
       y1="1118.8264"
       x2="324.65918"
       y2="1176.6824"><stop
         offset="0"
         stop-color="#D4C893"
         id="stop395" /><stop
         offset="1"
         stop-color="#FFF9BE"
         id="stop396" /></linearGradient><linearGradient
       id="gradient_0-9"
       gradientUnits="userSpaceOnUse"
       x1="240.19795"
       y1="1096.5271"
       x2="285.29114"
       y2="950.71881"><stop
         offset="0"
         stop-color="#E08143"
         id="stop5-2" /><stop
         offset="1"
         stop-color="#F8D344"
         id="stop6-4" /></linearGradient><linearGradient
       id="gradient_1-4"
       gradientUnits="userSpaceOnUse"
       x1="424.08087"
       y1="1061.3082"
       x2="405.70071"
       y2="1116.4596"><stop
         offset="0"
         stop-color="#C35F36"
         id="stop7-5" /><stop
         offset="1"
         stop-color="#763D45"
         id="stop8-5" /></linearGradient><linearGradient
       id="gradient_2-8-1"
       gradientUnits="userSpaceOnUse"
       x1="-8.2290096"
       y1="1334.5552"
       x2="52.44175"
       y2="1377.7407"><stop
         offset="0"
         stop-color="#082D5D"
         id="stop81" /><stop
         offset="1"
         stop-color="#0B4981"
         id="stop82-7" /></linearGradient><linearGradient
       id="gradient_3-8"
       gradientUnits="userSpaceOnUse"
       x1="72.018326"
       y1="1306.5427"
       x2="123.73866"
       y2="1249.5227"><stop
         offset="0"
         stop-color="#406635"
         id="stop85-1" /><stop
         offset="1"
         stop-color="#7B7C3C"
         id="stop86-1" /></linearGradient><linearGradient
       id="gradient_4-2"
       gradientUnits="userSpaceOnUse"
       x1="24.294689"
       y1="1390.2211"
       x2="42.211521"
       y2="1433.6025"><stop
         offset="0"
         stop-color="#061D46"
         id="stop94" /><stop
         offset="1"
         stop-color="#0C4C86"
         id="stop95" /></linearGradient><linearGradient
       id="gradient_5-4"
       gradientUnits="userSpaceOnUse"
       x1="171.23807"
       y1="1446.5951"
       x2="206.20535"
       y2="1445.4211"><stop
         offset="0"
         stop-color="#0D5E99"
         id="stop101" /><stop
         offset="1"
         stop-color="#187BB7"
         id="stop102" /></linearGradient><linearGradient
       id="gradient_6-5"
       gradientUnits="userSpaceOnUse"
       x1="280.12958"
       y1="1227.8064"
       x2="308.76422"
       y2="1229.1936"><stop
         offset="0"
         stop-color="#152F40"
         id="stop118" /><stop
         offset="1"
         stop-color="#244B52"
         id="stop119" /></linearGradient><linearGradient
       id="gradient_7-5"
       gradientUnits="userSpaceOnUse"
       x1="186.89235"
       y1="1430.9391"
       x2="215.72659"
       y2="1437.3441"><stop
         offset="0"
         stop-color="#2176B2"
         id="stop130" /><stop
         offset="1"
         stop-color="#539FBE"
         id="stop131" /></linearGradient><linearGradient
       id="gradient_8-1"
       gradientUnits="userSpaceOnUse"
       x1="789.91577"
       y1="861.62708"
       x2="833.30457"
       y2="970.3175"><stop
         offset="0"
         stop-color="#EFB943"
         id="stop135" /><stop
         offset="1"
         stop-color="#CB8A4B"
         id="stop136" /></linearGradient><linearGradient
       id="gradient_9-7"
       gradientUnits="userSpaceOnUse"
       x1="526.94458"
       y1="949.40002"
       x2="561.52521"
       y2="975.86102"><stop
         offset="0"
         stop-color="#B55749"
         id="stop137-5" /><stop
         offset="1"
         stop-color="#CE8454"
         id="stop138-2" /></linearGradient><linearGradient
       id="gradient_10-1"
       gradientUnits="userSpaceOnUse"
       x1="798.37622"
       y1="1168.915"
       x2="826.78979"
       y2="1161.3593"><stop
         offset="0"
         stop-color="#001F36"
         id="stop142" /><stop
         offset="1"
         stop-color="#074547"
         id="stop143" /></linearGradient><linearGradient
       id="gradient_11-1"
       gradientUnits="userSpaceOnUse"
       x1="857.80145"
       y1="1145.0248"
       x2="863.96722"
       y2="1170.7411"><stop
         offset="0"
         stop-color="#F4A225"
         id="stop145-7" /><stop
         offset="1"
         stop-color="#B7843D"
         id="stop146-6" /></linearGradient><linearGradient
       id="gradient_12-5"
       gradientUnits="userSpaceOnUse"
       x1="1003.6277"
       y1="1235.484"
       x2="761.39551"
       y2="1210.9916"><stop
         offset="0"
         stop-color="#043A44"
         id="stop148" /><stop
         offset="1"
         stop-color="#045672"
         id="stop149" /></linearGradient><linearGradient
       id="gradient_13-2"
       gradientUnits="userSpaceOnUse"
       x1="722.28357"
       y1="1385.6235"
       x2="825.59711"
       y2="1556.376"><stop
         offset="0"
         stop-color="#E08630"
         id="stop176" /><stop
         offset="1"
         stop-color="#503E5A"
         id="stop177" /></linearGradient><linearGradient
       id="gradient_14-7"
       gradientUnits="userSpaceOnUse"
       x1="640.23981"
       y1="1327.7925"
       x2="658.67053"
       y2="1517.1494"><stop
         offset="0"
         stop-color="#053651"
         id="stop180-1" /><stop
         offset="1"
         stop-color="#095B5D"
         id="stop181" /></linearGradient><linearGradient
       id="gradient_15-6"
       gradientUnits="userSpaceOnUse"
       x1="493.07037"
       y1="-65.096619"
       x2="515.62762"
       y2="105.67834"><stop
         offset="0"
         stop-color="#00799D"
         id="stop262" /><stop
         offset="1"
         stop-color="#31A0AF"
         id="stop263" /></linearGradient><linearGradient
       id="gradient_16-1"
       gradientUnits="userSpaceOnUse"
       x1="17.938828"
       y1="567.20111"
       x2="305.98645"
       y2="916.1944"><stop
         offset="0"
         stop-color="#001F4D"
         id="stop268" /><stop
         offset="1"
         stop-color="#717875"
         id="stop269" /></linearGradient><linearGradient
       id="gradient_17-4"
       gradientUnits="userSpaceOnUse"
       x1="356.74765"
       y1="527.67657"
       x2="354.28671"
       y2="691.02368"><stop
         offset="0"
         stop-color="#005D97"
         id="stop270" /><stop
         offset="1"
         stop-color="#A8CB9D"
         id="stop271" /></linearGradient><linearGradient
       id="gradient_18-2"
       gradientUnits="userSpaceOnUse"
       x1="-36.394646"
       y1="723.90851"
       x2="240.37593"
       y2="967.57196"><stop
         offset="0"
         stop-color="#000021"
         id="stop282" /><stop
         offset="1"
         stop-color="#416369"
         id="stop283" /></linearGradient><linearGradient
       id="gradient_19-3"
       gradientUnits="userSpaceOnUse"
       x1="308.29556"
       y1="923.51172"
       x2="424.66321"
       y2="777.18097"><stop
         offset="0"
         stop-color="#CC8146"
         id="stop333-2" /><stop
         offset="1"
         stop-color="#FBC570"
         id="stop334" /></linearGradient><linearGradient
       id="gradient_20-2"
       gradientUnits="userSpaceOnUse"
       x1="176.76315"
       y1="842.71472"
       x2="183.58492"
       y2="855.14258"><stop
         offset="0"
         stop-color="#102D4A"
         id="stop344-4" /><stop
         offset="1"
         stop-color="#22445C"
         id="stop345-2" /></linearGradient><linearGradient
       id="gradient_21-1"
       gradientUnits="userSpaceOnUse"
       x1="533.22131"
       y1="419.63553"
       x2="505.64569"
       y2="224.74113"><stop
         offset="0"
         stop-color="#FFD147"
         id="stop354" /><stop
         offset="1"
         stop-color="#C4A079"
         id="stop355" /></linearGradient><linearGradient
       id="gradient_22-6"
       gradientUnits="userSpaceOnUse"
       x1="794.74353"
       y1="385.49197"
       x2="789.78607"
       y2="473.73016"><stop
         offset="0"
         stop-color="#FDDF60"
         id="stop356" /><stop
         offset="1"
         stop-color="#FAC569"
         id="stop357" /></linearGradient><linearGradient
       id="gradient_23-8"
       gradientUnits="userSpaceOnUse"
       x1="904.88562"
       y1="290.1813"
       x2="904.12885"
       y2="252.6008"><stop
         offset="0"
         stop-color="#E16E5E"
         id="stop365" /><stop
         offset="1"
         stop-color="#B1636A"
         id="stop366" /></linearGradient><linearGradient
       id="gradient_24-5"
       gradientUnits="userSpaceOnUse"
       x1="171.67015"
       y1="332.73404"
       x2="229.81168"
       y2="528.89954"><stop
         offset="0"
         stop-color="#092C64"
         id="stop376" /><stop
         offset="1"
         stop-color="#0E6B99"
         id="stop377" /></linearGradient><linearGradient
       id="gradient_25-7"
       gradientUnits="userSpaceOnUse"
       x1="114.13753"
       y1="462.93832"
       x2="57.077511"
       y2="345.74695"><stop
         offset="0"
         stop-color="#B79981"
         id="stop378" /><stop
         offset="1"
         stop-color="#896E89"
         id="stop379" /></linearGradient><linearGradient
       id="gradient_26-6"
       gradientUnits="userSpaceOnUse"
       x1="32.31472"
       y1="340.22122"
       x2="61.148846"
       y2="436.57837"><stop
         offset="0"
         stop-color="#5B527C"
         id="stop380" /><stop
         offset="1"
         stop-color="#A88C8F"
         id="stop381" /></linearGradient><linearGradient
       id="gradient_27-1"
       gradientUnits="userSpaceOnUse"
       x1="544.36682"
       y1="926.58466"
       x2="540.9613"
       y2="855.86273"><stop
         offset="0"
         stop-color="#D98547"
         id="stop391" /><stop
         offset="1"
         stop-color="#F5BC61"
         id="stop392" /></linearGradient><linearGradient
       id="gradient_28-8"
       gradientUnits="userSpaceOnUse"
       x1="603.51135"
       y1="504.27734"
       x2="559.86157"
       y2="376.50089"><stop
         offset="0"
         stop-color="#D89E7B"
         id="stop401" /><stop
         offset="1"
         stop-color="#926D89"
         id="stop402" /></linearGradient><linearGradient
       id="gradient_29-9"
       gradientUnits="userSpaceOnUse"
       x1="589.57507"
       y1="585.72778"
       x2="563.19714"
       y2="522.26404"><stop
         offset="0"
         stop-color="#C1AC89"
         id="stop403" /><stop
         offset="1"
         stop-color="#99A296"
         id="stop404" /></linearGradient><linearGradient
       id="gradient_30-2"
       gradientUnits="userSpaceOnUse"
       x1="910.65057"
       y1="379.99741"
       x2="900.90039"
       y2="504.37549"><stop
         offset="0"
         stop-color="#C97B71"
         id="stop405" /><stop
         offset="1"
         stop-color="#DF9B84"
         id="stop406" /></linearGradient><linearGradient
       id="gradient_31-7"
       gradientUnits="userSpaceOnUse"
       x1="490.18948"
       y1="641.61823"
       x2="491.31277"
       y2="615.20416"><stop
         offset="0"
         stop-color="#B6B692"
         id="stop407" /><stop
         offset="1"
         stop-color="#96AA94"
         id="stop408" /></linearGradient><linearGradient
       id="gradient_32-9"
       gradientUnits="userSpaceOnUse"
       x1="703.50232"
       y1="437.95029"
       x2="692.16406"
       y2="510.95279"><stop
         offset="0"
         stop-color="#B27C85"
         id="stop409" /><stop
         offset="1"
         stop-color="#D69887"
         id="stop410" /></linearGradient><clipPath
       clipPathUnits="userSpaceOnUse"
       id="clipPath1"><rect
         style="fill:#000000;fill-opacity:0;stroke:none;stroke-width:5.16031"
         id="rect1"
         width="1002.2786"
         height="1288.6439"
         x="-1009.3376"
         y="66.526764"
         rx="2.2322257"
         ry="2.0994558"
         inkscape:label="mask"
         transform="scale(-1,1)" /></clipPath></defs><defs
     id="defs25"><linearGradient
       id="gradient_1"
       gradientUnits="userSpaceOnUse"
       x1="567.4491"
       y1="699.04437"
       x2="868.41522"
       y2="779.63495"><stop
         offset="0"
         stop-color="#176366"
         id="stop24"
         style="stop-color:#000000;stop-opacity:1;" /><stop
         offset="1"
         stop-color="#157C89"
         id="stop25" /></linearGradient></defs><text
     xml:space="preserve"
     style="font-style:normal;font-variant:normal;font-weight:normal;font-stretch:normal;font-size:16px;font-family:Caladea;-inkscape-font-specification:'Caladea, Normal';font-variant-ligatures:normal;font-variant-caps:normal;font-variant-numeric:normal;font-variant-east-asian:normal;text-align:start;writing-mode:lr-tb;direction:ltr;text-anchor:start;fill:#000000;fill-opacity:1;stroke:none;stroke-width:1.28882;stroke-dasharray:none"
     x="157.24875"
     y="104.61983"
     id="text9-8-7-1"
     inkscape:label="pierce"><tspan
       sodipodi:role="line"
       id="tspan15"
       x="157.24875"
       y="104.61983">Restrain</tspan></text><text
     xml:space="preserve"
     style="font-style:normal;font-variant:normal;font-weight:normal;font-stretch:normal;font-size:16px;font-family:Caladea;-inkscape-font-specification:'Caladea, Normal';font-variant-ligatures:normal;font-variant-caps:normal;font-variant-numeric:normal;font-variant-east-asian:normal;text-align:start;writing-mode:lr-tb;direction:ltr;text-anchor:start;fill:#000000;fill-opacity:1;stroke:none;stroke-width:1.28882;stroke-dasharray:none"
     x="48.811607"
     y="104.65008"
     id="text9-8-7"
     inkscape:label="bash"><tspan
       sodipodi:role="line"
       id="tspan14">Constrict</tspan></text><text
     xml:space="preserve"
     style="font-style:normal;font-variant:normal;font-weight:normal;font-stretch:normal;font-size:16px;font-family:Caladea;-inkscape-font-specification:'Caladea, Normal';font-variant-ligatures:normal;font-variant-caps:normal;font-variant-numeric:normal;font-variant-east-asian:normal;text-align:start;writing-mode:lr-tb;direction:ltr;text-anchor:start;fill:#000000;fill-opacity:1;stroke:none;stroke-width:1.28882;stroke-dasharray:none"
     x="116.19717"
     y="58.827305"
     id="text9"
     inkscape:label="stun"><tspan
       sodipodi:role="line"
       id="tspan12"
       x="116.19717"
       y="58.827305">Slow</tspan></text><text
     xml:space="preserve"
     style="font-style:normal;font-variant:normal;font-weight:normal;font-stretch:normal;font-size:16px;font-family:Caladea;-inkscape-font-specification:'Caladea, Normal';font-variant-ligatures:normal;font-variant-caps:normal;font-variant-numeric:normal;font-variant-east-asian:normal;text-align:start;writing-mode:lr-tb;direction:ltr;text-anchor:start;fill:#000000;fill-opacity:1;stroke:none;stroke-width:1.28882;stroke-dasharray:none"
     x="164.42848"
     y="253.52487"
     id="text9-8-5"
     inkscape:label="slash"><tspan
       sodipodi:role="line"
       id="tspan17">Disable</tspan></text><text
     xml:space="preserve"
     style="font-style:normal;font-variant:normal;font-weight:normal;font-stretch:normal;font-size:16px;font-family:Caladea;-inkscape-font-specification:'Caladea, Normal';font-variant-ligatures:normal;font-variant-caps:normal;font-variant-numeric:normal;font-variant-east-asian:normal;text-align:start;writing-mode:lr-tb;direction:ltr;text-anchor:start;fill:#000000;fill-opacity:1;stroke:none;stroke-width:1.28882;stroke-dasharray:none"
     x="48.702641"
     y="253.7599"
     id="text9-8"
     inkscape:label="hack"><tspan
       sodipodi:role="line"
       id="tspan16">Hold</tspan></text><text
     xml:space="preserve"
     style="font-style:normal;font-variant:normal;font-weight:normal;font-stretch:normal;font-size:16px;font-family:Caladea;-inkscape-font-specification:'Caladea, Normal';font-variant-ligatures:normal;font-variant-caps:normal;font-variant-numeric:normal;font-variant-east-asian:normal;text-align:start;writing-mode:lr-tb;direction:ltr;text-anchor:start;fill:#000000;fill-opacity:1;stroke:none;stroke-width:1.28882;stroke-dasharray:none"
     x="117.9899"
     y="179.69418"
     id="text9-0-4"
     inkscape:label="damage1"><tspan
       sodipodi:role="line"
       id="tspan7"
       x="117.9899"
       y="179.69418">Damage</tspan></text><text
     xml:space="preserve"
     style="font-style:normal;font-variant:normal;font-weight:normal;font-stretch:normal;font-size:16px;font-family:Caladea;-inkscape-font-specification:'Caladea, Normal';font-variant-ligatures:normal;font-variant-caps:normal;font-variant-numeric:normal;font-variant-east-asian:normal;text-align:start;writing-mode:lr-tb;direction:ltr;text-anchor:start;fill:#000000;fill-opacity:1;stroke:none;stroke-width:1.28882;stroke-dasharray:none"
     x="93.371208"
     y="23.291786"
     id="text9-0"
     inkscape:label="wound"><tspan
       sodipodi:role="line"
       id="tspan13"
       x="93.371208"
       y="23.291786">Burden</tspan></text><rect
     style="opacity:0.5;fill:none;fill-opacity:1;stroke:#000000;stroke-width:1.28895;stroke-dasharray:none"
     id="rect16"
     width="236.82127"
     height="331.30948"
     x="0.64447498"
     y="0.64447498"
     rx="0.5444507"
     ry="0.53704244"
     inkscape:label="background" /><g
     inkscape:label="Layer 1"
     id="layer1"
     transform="matrix(3.7795325,0,0,3.7795325,133.55781,87.130629)"><path
       style="fill:#e8322b;fill-opacity:1;stroke-width:0.232652"
       id="path1-3"
       sodipodi:type="arc"
       sodipodi:cx="2.9299388"
       sodipodi:cy="3.1140828"
       sodipodi:rx="2.4720631"
       sodipodi:ry="2.5962114"
       sodipodi:start="0.027304543"
       sodipodi:end="6.2831853"
       sodipodi:open="true"
       sodipodi:arc-type="arc"
       d="M 5.4010804,3.1849624 A 2.4720631,2.5962114 0 0 1 2.8793184,5.7097499 2.4720631,2.5962114 0 0 1 0.4581061,3.0786397 2.4720631,2.5962114 0 0 1 2.9468133,0.51793187 2.4720631,2.5962114 0 0 1 5.4020019,3.1140828" /><path
       style="fill:#ffffff;fill-opacity:1;stroke-width:0.222454"
       id="path1"
       sodipodi:type="arc"
       sodipodi:cx="2.928021"
       sodipodi:cy="3.0620804"
       sodipodi:rx="2.360738"
       sodipodi:ry="2.4855421"
       sodipodi:start="0.027304543"
       sodipodi:end="6.2831853"
       sodipodi:open="true"
       sodipodi:arc-type="arc"
       d="M 5.287879,3.1299385 A 2.360738,2.4855421 0 0 1 2.8796802,5.5471013 2.360738,2.4855421 0 0 1 0.56750291,3.0281482 2.360738,2.4855421 0 0 1 2.9441355,0.57659623 2.360738,2.4855421 0 0 1 5.288759,3.0620804" /><rect
       style="fill:#e8322b;fill-opacity:1;stroke-width:0.272867"
       id="rect1-6"
       width="2.9038363"
       height="2.9673259"
       x="3.0907626"
       y="-2.4287744"
       transform="matrix(0.52984251,0.84809605,-0.54411321,0.83901181,0,0)" /><path
       id="path3"
       style="fill:#ffffff;stroke-width:0.277731"
       d="M 4.5169308,3.0834755 2.9390985,3.2639464 1.3612668,3.0834755 2.9390985,3.0473815 Z"
       sodipodi:nodetypes="ccccc" /><path
       id="path4"
       style="fill:#ffffff;stroke-width:0.157265"
       inkscape:transform-center-x="-0.00030167401"
       inkscape:transform-center-y="-0.43628615"
       d="m 2.8772231,3.1092569 0.063449,-2.66753913 0.06526,2.64262783 z" /></g><g
     inkscape:label="Layer 1"
     id="layer1-1"
     transform="translate(26.642636,234.9409)"><path
       fill="#af1613"
       d="m 11.746861,2.9237307 c 0.764108,-0.9291927 1.829836,-1.594708 3.04457,-1.714917 1.196341,-0.1183857 2.360599,0.233768 3.288413,0.9990727 0.958723,0.7908338 1.548234,1.9416506 1.662624,3.1750596 0.110741,1.1938877 -0.267839,2.4252277 -1.035921,3.3465939 l -6.946951,7.0018281 -4.5739403,-4.635773 1.0819092,0.004 3.4832511,3.559255 c 0.07292,-0.05292 0.138176,-0.131405 0.201931,-0.195281 l 0.357913,-0.358665 1.268025,-1.264697 3.020154,-3.0192827 0.906947,-0.9054065 C 17.836587,8.5843249 18.167833,8.2698692 18.422369,7.873164 18.983531,6.9985597 19.133183,5.9543275 18.914098,4.9453777 18.693024,3.9272041 18.097813,3.0549924 17.219335,2.492147 16.430467,1.9867096 15.44269,1.7723271 14.520917,1.9785172 13.291341,2.2535514 12.411889,3.0544453 11.756879,4.093628 l -0.02387,-0.011025 z"
       id="path2"
       style="stroke-width:0.0202784" /><path
       fill="#e7342a"
       d="M 7.1856557,11.095595 4.8950952,8.7522523 C 4.0995357,7.8835282 3.7137605,6.7093309 3.7688781,5.539819 3.8249479,4.3498866 4.3488168,3.1748992 5.2338859,2.370903 6.1229293,1.5633387 7.2719591,1.1425637 8.4731057,1.203621 c 0.9896437,0.050291 1.9803023,0.453687 2.7152293,1.120034 0.133391,0.1209196 0.26372,0.2476392 0.382712,0.3828552 0.05958,0.067711 0.108773,0.1441172 0.169527,0.2104679 l 0.0063,0.00675 -0.01385,1.1588882 0.02387,0.011025 c 0.655012,-1.0391827 1.534463,-1.8400748 2.76404,-2.1151108 0.921774,-0.2061892 1.909551,0.00822 2.69842,0.5136307 0.878474,0.5628445 1.473685,1.4350563 1.694761,2.4532317 0.219087,1.0089489 0.06943,2.053182 -0.491728,2.9277863 -0.254535,0.3967061 -0.585781,0.7111608 -0.916582,1.0423267 l -0.906947,0.9054074 -3.020156,3.0192837 -1.268026,1.264699 -0.357913,0.358661 c -0.06376,0.06388 -0.12901,0.142354 -0.20193,0.195285 L 8.2675627,11.099581 Z"
       id="path3-4"
       style="stroke-width:0.0202784" /><path
       fill="#ef957e"
       d="m 6.3141327,9.1030263 -0.011619,-0.00462 C 6.2622003,9.0780655 6.2221503,9.0341231 6.1883864,9.0033635 L 5.9223963,8.7461327 C 5.7684021,8.5969041 5.6027687,8.4572264 5.4562376,8.3006778 5.109336,7.9301524 4.8385798,7.4476695 4.6753595,6.9682898 4.3546579,6.0262803 4.4160603,4.9508393 4.8608655,4.0578226 5.3070703,3.1620261 6.1049618,2.4503172 7.0566242,2.1312787 7.969473,1.8252576 8.9697428,1.8943059 9.8338635,2.3241863 c 0.6834005,0.3399876 1.1645445,0.8367853 1.6031855,1.4516453 0.06503,0.091175 0.186783,0.2204457 0.221378,0.3234391 l -0.0099,-0.00675 C 11.462379,3.9630872 11.298915,3.8121961 11.10406,3.6922708 10.312454,3.2050628 9.3534304,3.0373193 8.4403378,3.195572 7.4893244,3.3603943 6.661097,3.910141 6.1097692,4.6975684 5.5642418,5.4767231 5.3473646,6.5166562 5.5152291,7.4503522 5.6210208,8.0388708 5.8920407,8.6698309 6.314134,9.1030771 Z"
       id="path4-2"
       style="stroke-width:0.0202784" /><path
       id="path1-32"
       style="fill:#af1613;fill-opacity:1;stroke:none;stroke-width:0.254002;paint-order:markers fill stroke"
       inkscape:transform-center-x="0.052989315"
       inkscape:transform-center-y="-4.4962255"
       d="M 6.8342007,21.275077 11.765731,15.151278"
       sodipodi:nodetypes="cc" /><rect
       style="fill:#ef957e;fill-opacity:1;stroke:none;stroke-width:0.148798;paint-order:markers fill stroke"
       id="rect1-2"
       width="15.94253"
       height="0.65969068"
       x="3.8072884"
       y="4.6987095" /><path
       id="path5"
       style="fill:#af1613;stroke-width:0.156953;paint-order:markers fill stroke"
       inkscape:transform-center-x="-0.02726417"
       inkscape:transform-center-y="-1.7448446"
       d="m 6.2760003,21.774195 0.6872143,-0.450333 2.8628951,-0.70479 1.1272853,-0.576365 0.8306,-5.3687 0.716826,5.386265 1.013509,0.509112 3.432186,0.910131 0.267559,0.358802 c -4.781508,-0.104359 -5.955307,-0.01453 -10.9380747,-0.06412 z"
       sodipodi:nodetypes="cccccccccc" /></g><g
     inkscape:label="Layer 1"
     id="layer1-16"
     transform="translate(26.824124,86.199935)"><path
       id="rect1-8"
       d="m 7.9786979,17.021463 h 6.7057531 l -2.00462,0.495364 -0.187639,4.843827 -2.7080926,-0.02473 -0.0317,-4.81909 z"
       sodipodi:nodetypes="ccccccc"
       style="stroke-width:0.965689" /><path
       style="fill:#000000;fill-opacity:1;stroke-width:0.803158"
       id="path2-6-0"
       sodipodi:type="arc"
       sodipodi:cx="11.21264"
       sodipodi:cy="7.8970418"
       sodipodi:rx="3.2634902"
       sodipodi:ry="3.2634902"
       sodipodi:start="0.027304543"
       sodipodi:end="6.2831853"
       sodipodi:open="true"
       sodipodi:arc-type="arc"
       d="M 14.474914,7.9861388 A 3.2634902,3.2634902 0 0 1 11.145813,11.159848 3.2634902,3.2634902 0 0 1 7.9494537,7.8524891 3.2634902,3.2634902 0 0 1 11.234917,4.6336276 3.2634902,3.2634902 0 0 1 14.47613,7.8970418" /><path
       style="fill:#000000;fill-opacity:1;stroke-width:0.803158"
       id="path2-6-0-7"
       sodipodi:type="arc"
       sodipodi:cx="7.9833441"
       sodipodi:cy="13.659798"
       sodipodi:rx="3.2634902"
       sodipodi:ry="3.2634902"
       sodipodi:start="0.027304543"
       sodipodi:end="6.2831853"
       sodipodi:open="true"
       sodipodi:arc-type="arc"
       d="M 11.245618,13.748895 A 3.2634902,3.2634902 0 0 1 7.9165177,16.922604 3.2634902,3.2634902 0 0 1 4.720158,13.615245 3.2634902,3.2634902 0 0 1 8.0056209,10.396384 3.2634902,3.2634902 0 0 1 11.246834,13.659798" /><path
       style="fill:#000000;fill-opacity:1;stroke-width:0.803158"
       id="path2-6-0-9"
       sodipodi:type="arc"
       sodipodi:cx="14.511786"
       sodipodi:cy="13.659798"
       sodipodi:rx="3.2634902"
       sodipodi:ry="3.2634902"
       sodipodi:start="0.027304543"
       sodipodi:end="6.2831853"
       sodipodi:open="true"
       sodipodi:arc-type="arc"
       d="m 17.77406,13.748895 a 3.2634902,3.2634902 0 0 1 -3.3291,3.173709 3.2634902,3.2634902 0 0 1 -3.19636,-3.307359 3.2634902,3.2634902 0 0 1 3.285463,-3.218861 3.2634902,3.2634902 0 0 1 3.241214,3.263414" /><path
       sodipodi:type="star"
       style="fill:#000000"
       id="path1-57"
       inkscape:flatsided="false"
       sodipodi:sides="3"
       sodipodi:cx="-4.2679658"
       sodipodi:cy="5.2618756"
       sodipodi:r1="0.76004869"
       sodipodi:r2="0.33594152"
       sodipodi:arg1="1.5707963"
       sodipodi:arg2="2.6179939"
       inkscape:rounded="0"
       inkscape:randomized="0"
       d="m -4.2679658,6.0219243 -0.2909339,-0.5920779 -0.3672876,-0.5479951 0.6582215,0.044083 0.6582215,-0.044083 -0.3672876,0.5479951 z"
       inkscape:transform-center-y="0.32888909"
       transform="matrix(1.7308841,0,0,1.7308841,18.556532,-8.1283593)" /><path
       sodipodi:type="star"
       style="fill:#000000"
       id="path1-7"
       inkscape:flatsided="false"
       sodipodi:sides="3"
       sodipodi:cx="-4.2679658"
       sodipodi:cy="5.2618756"
       sodipodi:r1="0.76004869"
       sodipodi:r2="0.33594152"
       sodipodi:arg1="1.5707963"
       sodipodi:arg2="2.6179939"
       inkscape:rounded="0"
       inkscape:randomized="0"
       d="m -4.2679658,6.0219243 -0.2909339,-0.5920779 -0.3672876,-0.5479951 0.6582215,0.044083 0.6582215,-0.044083 -0.3672876,0.5479951 z"
       inkscape:transform-center-y="-0.30975177"
       transform="matrix(0.81508483,1.5269565,-1.5269565,0.81508483,22.565368,6.0852408)"
       inkscape:transform-center-x="0.021887611" /><path
       sodipodi:type="star"
       style="fill:#000000"
       id="path1-9"
       inkscape:flatsided="false"
       sodipodi:sides="3"
       sodipodi:cx="-4.2679658"
       sodipodi:cy="5.2618756"
       sodipodi:r1="0.76004869"
       sodipodi:r2="0.33594152"
       sodipodi:arg1="1.5707963"
       sodipodi:arg2="2.6179939"
       inkscape:rounded="0"
       inkscape:randomized="0"
       d="m -4.2679658,6.0219243 -0.2909339,-0.5920779 -0.3672876,-0.5479951 0.6582215,0.044083 0.6582215,-0.044083 -0.3672876,0.5479951 z"
       inkscape:transform-center-y="0.0074915146"
       transform="matrix(-0.01971129,-1.730772,1.730772,-0.01971129,0.64636557,-4.8427922)"
       inkscape:transform-center-x="-0.3223813" /><path
       sodipodi:type="star"
       style="fill:#000000"
       id="path1-5"
       inkscape:flatsided="false"
       sodipodi:sides="3"
       sodipodi:cx="-4.2679658"
       sodipodi:cy="5.2618756"
       sodipodi:r1="0.76004869"
       sodipodi:r2="0.33594152"
       sodipodi:arg1="1.5707963"
       sodipodi:arg2="2.6179939"
       inkscape:rounded="0"
       inkscape:randomized="0"
       d="m -4.2679658,6.0219243 -0.2909339,-0.5920779 -0.3672876,-0.5479951 0.6582215,0.044083 0.6582215,-0.044083 -0.3672876,0.5479951 z"
       inkscape:transform-center-y="0.038563865"
       transform="matrix(-0.10147722,1.7279069,-1.7279069,-0.10147722,21.026444,10.46071)"
       inkscape:transform-center-x="0.29492659" /></g><g
     inkscape:label="Layer 1"
     id="layer1-6"
     transform="matrix(0.62204681,0,0,0.62204681,144.03603,234.95745)"><path
       id="path2-1"
       inkscape:transform-center-x="-0.020609428"
       inkscape:transform-center-y="-5.172673"
       d="M 6.1033962,31.257104 C 17.126244,27.265743 13.67248,26.078077 17.828866,0.00285597 22.235039,25.835166 19.259613,27.415731 29.67799,31.147997 Z"
       sodipodi:nodetypes="cccc"
       style="stroke-width:5.78597" /><path
       id="path2-0"
       inkscape:transform-center-x="-0.0047190459"
       inkscape:transform-center-y="-1.8077773"
       d="m 15.296007,36.08884 c 2.228506,-1.413232 2.084699,-3.421004 2.684749,-10.922925 0.653613,7.561489 0.453658,9.538166 2.713063,10.884795 z"
       sodipodi:nodetypes="cccc"
       style="stroke-width:1.63673" /></g><text
     xml:space="preserve"
     style="font-style:normal;font-variant:normal;font-weight:normal;font-stretch:normal;font-size:16px;font-family:Caladea;-inkscape-font-specification:'Caladea, Normal';font-variant-ligatures:normal;font-variant-caps:normal;font-variant-numeric:normal;font-variant-east-asian:normal;text-align:start;writing-mode:lr-tb;direction:ltr;text-anchor:start;fill:#000000;fill-opacity:1;stroke:none;stroke-width:1.28882;stroke-dasharray:none"
     x="-147.78484"
     y="-304.20676"
     id="text9-0-7"
     inkscape:label="wound"
     transform="scale(-1)"><tspan
       sodipodi:role="line"
       id="tspan19"
       x="-147.78484"
       y="-304.20676">Burden</tspan></text><text
     xml:space="preserve"
     style="font-style:normal;font-variant:normal;font-weight:normal;font-stretch:normal;font-size:16px;font-family:Caladea;-inkscape-font-specification:'Caladea, Normal';font-variant-ligatures:normal;font-variant-caps:normal;font-variant-numeric:normal;font-variant-east-asian:normal;text-align:start;writing-mode:lr-tb;direction:ltr;text-anchor:start;fill:#000000;fill-opacity:1;stroke:none;stroke-width:1.28882;stroke-dasharray:none"
     x="89.940147"
     y="160.48981"
     id="text9-0-4-2"
     inkscape:label="damage1"><tspan
       sodipodi:role="line"
       id="tspan18"
       x="89.940147"
       y="160.48981">Mobility</tspan></text><g
     id="move"
     inkscape:label="move"
     transform="matrix(1.807472,0,0,1.807472,59.382998,165.918)"><text
       xml:space="preserve"
       style="font-style:normal;font-variant:normal;font-weight:normal;font-stretch:normal;font-size:9.51525px;font-family:Amiri;-inkscape-font-specification:'Amiri, Normal';font-variant-ligatures:normal;font-variant-caps:normal;font-variant-numeric:normal;font-variant-east-asian:normal;fill:#000000;fill-opacity:1;stroke:none;stroke-width:0.0173914;stroke-dasharray:none;stroke-opacity:1;paint-order:markers fill stroke"
       x="8.4406309"
       y="7.7900329"
       id="text1-96"
       inkscape:label="text1-96"><tspan
         sodipodi:role="line"
         id="tspan2"
         x="8.4406309"
         y="7.7900329">Speed</tspan></text><path
       fill="#fefefe"
       d="m 2.6887754,5.1530799 0.012867,0.00311 C 2.8043794,5.3813888 2.9105149,5.3778684 3.0596493,5.5960186 2.5915739,5.5895617 2.3596868,5.5308866 1.9371198,5.3391259 1.8563764,5.333864 1.6525392,5.1528152 1.6109641,5.1197415 1.5245142,5.0509771 1.4475607,4.9798899 1.3724006,4.9048992 c 0.16892,0.053127 0.3433085,0.09145 0.5149049,0.1261412 0.2677798,0.054166 0.5350269,0.096711 0.8014838,0.1219824 z"
       id="path2-5-1"
       style="stroke:#000000;stroke-width:0.138957;stroke-dasharray:none;stroke-opacity:1"
       sodipodi:nodetypes="ccccccccc" /><path
       fill="#fefefe"
       d="m 2.5007839,4.5035574 c 0.00993,0.00225 0.019343,0.00368 0.028394,0.00852 0.011422,0.089299 0.028931,0.1758742 0.06065,0.2603275 l 0.041363,0.098646 c 0.00676,0.015255 0.018731,0.035354 0.020973,0.051708 C 2.449593,5.0016602 2.3000158,4.9549474 2.1216077,4.8651431 1.831932,4.6948982 1.5816729,4.4208527 1.4638372,4.1037228 1.6882947,4.2735064 1.9568008,4.3609631 2.2252864,4.4344672 Z"
       id="path3-9"
       style="stroke:#000000;stroke-width:0.138957;stroke-dasharray:none;stroke-opacity:1"
       sodipodi:nodetypes="ccccccccc" /><path
       fill="#fefefe"
       d="M 2.4353443,4.1662252 C 2.3761115,4.1506379 2.3149249,4.140104 2.2570928,4.1194096 2.206077,4.101159 2.154044,4.0719085 2.1073637,4.0442782 1.9778157,3.9676016 1.8600995,3.8714116 1.7607137,3.7581204 1.4967043,3.4571873 1.3996297,3.0652395 1.4253497,2.6721975 1.5116514,2.8664229 1.6388352,3.0365423 1.8081462,3.1670413 l 0.094519,0.066213 c 0.016832,0.010846 0.042104,0.02089 0.055815,0.035037 0.012599,0.013002 0.023095,0.029203 0.034369,0.043462 l 0.082661,0.1012872 C 2.2076639,3.5606827 2.3628142,3.696074 2.5317,3.8000176 l 0.00769,0.00822 C 2.5022411,3.9264844 2.477062,4.0479937 2.476006,4.1722598 Z"
       id="path6-5-5"
       style="stroke:#000000;stroke-width:0.138957;stroke-dasharray:none;stroke-opacity:1" /><path
       fill="#fefefe"
       d="M 2.606836,3.5104255 C 2.2440929,3.2767109 1.9323323,2.9235266 1.7670983,2.5231879 1.7410114,2.4599698 1.7221317,2.3944562 1.7036782,2.3286969 1.5834395,1.9001347 1.6153478,1.4239946 1.7863855,1.0132547 c 0.017296,0.043388 0.025179,0.09406 0.03738,0.1394261 0.021409,0.079616 0.047783,0.1559645 0.081207,0.2313854 0.028255,0.063756 0.058825,0.1281293 0.094633,0.1879332 l 0.054036,0.084062 c 0.011218,0.016369 0.030348,0.037229 0.036416,0.056037 0.012738,0.039439 0.015702,0.084225 0.025615,0.124676 0.019982,0.081523 0.046791,0.1622106 0.074073,0.2415725 0.027513,0.080034 0.063624,0.1564377 0.1000056,0.2326825 l 0.089248,0.1793645 C 2.490992,2.6925844 2.6274045,2.8822963 2.768522,3.0649503 l 0.014035,0.018464 c -0.00306,0.020029 -0.016351,0.042485 -0.02454,0.061285 L 2.718044,3.2428453 2.621817,3.5151259 Z"
       id="path8-0"
       style="stroke:#000000;stroke-width:0.138957;stroke-dasharray:none;stroke-opacity:1" /><path
       fill="#fefefe"
       d="M 2.9254537,2.8017679 C 2.836447,2.6802515 2.7461045,2.5593931 2.6667562,2.4312029 2.6089871,2.3378884 2.5594423,2.2421329 2.5115197,2.143596 2.4450519,2.0068999 2.3856171,1.8576039 2.3584927,1.7073362 2.3437632,1.6257295 2.3314053,1.544269 2.3277739,1.4613073 2.3132389,1.1297743 2.3991886,0.79183373 2.5567846,0.50080347 c 0.04329,-0.0799476 0.092917,-0.15465908 0.1448063,-0.22916403 0.0025,0.002501 0.00139,0.019114 0.00148,0.0235588 0.0013,0.15207382 0.00741,0.30178028 0.025411,0.45289863 C 2.7701709,1.0984076 2.8577334,1.4350205 2.960306,1.7717753 l 0.1959315,0.5844094 c -0.0075,0.023123 -0.024836,0.045422 -0.036926,0.06664 l -0.043725,0.083489 -0.1388433,0.2987595 -0.00463,0.00233 z"
       id="path9-5"
       style="stroke:#000000;stroke-width:0.138957;stroke-dasharray:none;stroke-opacity:1" /><path
       fill="#0f0f0f"
       d="M 3.2220838,5.7339995 C 3.5982622,6.2099948 3.9910432,6.6701674 4.4340137,7.0858 c 0.3010656,0.282476 0.6278735,0.5488414 0.9933318,0.7441192 0.4747454,0.2536757 1.0240681,0.3999677 1.5564771,0.4632345 0.1483266,0.017621 0.2971942,0.022456 0.4461646,0.030499 0.1373787,0.00742 0.2772354,0.021021 0.4146603,0.00948 -0.018629,0.0234 -0.058445,0.033316 -0.086644,0.044943 C 7.5543289,8.4620886 7.337891,8.5126305 7.1191493,8.537476 6.4733735,8.6108177 5.7973199,8.4544491 5.2240289,8.1567127 4.9646495,8.0220124 4.7251828,7.8575733 4.4971114,7.6755367 4.1413782,7.3915872 3.8166418,7.0646957 3.5247242,6.7158831 L 3.2816427,6.416015 2.7378578,6.9191898 1.4625301,6.298187 1.6119044,5.3584072 c 0.022808,0.012569 0.04606,0.027545 0.070813,0.035768 0.1390878,0.071095 0.279114,0.1408925 0.4256379,0.1955631 0.3552811,0.1325901 0.4454634,0.1772856 0.8221078,0.1471087 z"
       id="path10-2"
       style="fill:none;fill-opacity:1;stroke:#000000;stroke-width:0.138957;stroke-dasharray:none;stroke-opacity:1"
       sodipodi:nodetypes="ccccccccccccccccccc" /><path
       fill="#dc9308"
       d="m 5.0313944,1.9441039 0.00862,0.00209 c 0.029357,0.0067 0.068728,0.00187 0.099102,0.0013 l 0.2144304,-0.00317 c 0.1432241,-0.00145 0.2913302,0.00656 0.4337391,-0.00259 C 5.4091736,2.5524543 5.1962949,3.2663481 5.2161704,3.986467 5.2231183,4.2410976 5.2608498,4.4888372 5.3191645,4.7363428 5.5447736,5.6938803 6.014283,6.5466157 6.5956447,7.1862815 7.319633,7.9425415 7.1031469,7.6517488 7.8026565,8.2002497 6.7661998,7.978012 6.5133293,7.947116 6.2260547,7.8214361 5.6337747,7.4512402 5.32993,7.4091598 4.6166841,6.7197503 3.8512671,5.9799137 3.5222072,5.7747439 3.2400834,5.0927537 L 3.0452274,3.9305752 C 2.8728269,2.5685003 3.3096027,2.0411642 3.2866785,1.9613303 l 1.2732434,-0.015689 0.318363,0.0036 c 0.050979,-4.787e-4 0.1024883,0.00122 0.1531049,-0.00505 z"
       id="path11-9"
       style="fill:none;stroke:#000000;stroke-width:0.138957;stroke-dasharray:none;stroke-opacity:1"
       sodipodi:nodetypes="cccccsccccsccccccc" /><path
       id="path2-05"
       inkscape:transform-center-x="-0.01384138"
       inkscape:transform-center-y="-3.4740104"
       d="M 2.8998773,5.4466702 C 4.1182919,5.0054836 3.7365292,4.8742049 4.1959569,1.9919714 4.6829944,4.8473545 4.3541041,5.0220633 5.5057025,5.4346106 Z"
       sodipodi:nodetypes="cccc"
       style="stroke-width:0.639549" /><path
       id="path2-0-5"
       inkscape:transform-center-x="-0.0031689084"
       inkscape:transform-center-y="-1.2141184"
       d="M 3.915985,5.9807489 C 4.1623144,5.8245355 4.1464187,5.6026059 4.2127448,4.7733784 4.2849933,5.6091901 4.2628898,5.8276831 4.5126339,5.9765333 Z"
       sodipodi:nodetypes="cccc"
       style="stroke-width:0.180918" /></g><g
     id="g2"
     transform="matrix(0.16457242,0,0,0.16457242,85.127657,37.670688)"><path
       transform="scale(0.177734)"
       d="m 5.32868,575.899 c 0.99241,-3.529 1.9012,-6.579 5.21572,-8.606 4.0394,-2.471 10.2369,-2.532 14.8722,-3.506 20.5438,-4.318 40.2765,-12.364 53.5078,-29.421 6.0738,-7.829 6.2758,-18.261 8.7362,-27.542 1.543,-5.821 3.5342,-11.53 5.5941,-17.187 13.1893,-36.215 41.1183,-82.773 67.0743,-111.013 5.814,-6.325 12.298,-11.758 18.738,-17.409 8.09,-7.097 16.121,-14.209 24.588,-20.858 14.963,-11.751 30.179,-22.929 46.672,-32.457 61.644,-35.614 133.364,-49.41 203.752,-52.179 15.848,-0.863 32.085,0.103 47.89,1.302 85.778,6.506 171.343,38.173 232.861,99.825 9.084,9.029 17.759,18.461 25.997,28.268 12.253,14.771 10.373,20.479 29.312,30.743 11.794,-5.285 26.182,-12.963 32.919,-24.503 2.565,-4.392 2.606,-11.529 3.668,-16.509 4.67,-21.901 14.893,-42.005 33.167,-55.493 19.355,-14.286 45.906,-18.677 69.367,-15.009 24.7,3.862 43.212,17.8 57.717,37.563 7.171,2.34 15.493,4.45 21.873,8.507 4.72,3.003 7.05,7.686 8.16,13.047 0.53,2.54 0.66,5.221 0.54,7.808 -0.23,4.903 -1.6,9.729 -2.17,14.6 -0.85,7.228 -0.64,14.48 -2.36,21.609 -0.92,3.863 -2.43,7.746 -4.66,11.05 -1.59,2.353 -3.57,4.335 -6.48,4.795 -3.175,0.503 -4.903,-1.128 -7.306,-2.867 -5.746,2.051 -11.745,3.691 -17.814,4.419 -7.814,0.938 -16.051,-0.514 -21.945,-6.148 -1.884,-1.801 -3.311,-4.456 -5.483,-5.907 -0.973,-0.65 -1.461,-0.79 -2.618,-0.505 -0.727,1.066 -0.824,1.951 -0.674,3.206 0.48,3.997 4.22,7.413 7.293,9.669 13.078,9.598 27.652,3.82 41.949,1.741 -7.469,28.435 -22.256,34.053 -49.591,36.543 -11.796,1.013 -23.621,1.663 -35.458,1.951 -6.439,0.154 -14.993,-0.883 -21.015,1.565 -1.934,0.786 -3.549,2.408 -5,3.873 -3.652,3.688 -6.766,7.99 -10.196,11.892 -7.542,8.576 -15.885,17.151 -24.801,24.292 -1.134,5.779 -2.114,11.645 -4.023,17.23 -5.8,16.964 -18.278,35.815 -31.641,47.765 26.526,20.578 44.95,47.637 55.313,79.499 6.44,19.799 11.297,43.089 1.259,62.552 -2.424,4.66 -5.481,8.961 -9.086,12.781 -9.991,10.7 -37.448,31.798 -51.003,36.045 -11.009,3.449 -22.169,0.403 -32.032,-4.874 -12.198,-6.526 -28.417,-19.439 -32.38,-33.37 -2.983,-10.485 2.401,-19.067 7.344,-27.725 -0.541,0.337 -1.069,0.685 -1.603,1.032 -10.128,6.586 -20.005,20.183 -27.56,29.65 0.908,0.683 1.773,1.397 2.576,2.205 4.011,4.034 6.653,9.408 6.488,15.183 -0.163,5.698 -3.206,10.81 -7.266,14.65 -6.873,6.5 -14.368,8.289 -23.65,8.023 -20.859,-0.599 -50.834,-1.626 -65.136,-19.078 -4.364,-5.325 -6.288,-12.946 -10.957,-17.699 l -3.51,-3.523 c -1.9,-2.914 -3.261,-6.205 -3.746,-9.659 -0.737,-5.245 0.347,-10.781 1.039,-15.984 3.568,-26.856 14.656,-35.926 30.59,-56.256 -56.326,28.979 -176.295,40.171 -239.938,37.209 -20.804,-0.974 -41.483,-3.749 -61.807,-8.295 -0.728,1.958 -1.507,3.897 -2.337,5.814 -13.366,30.271 -41.441,55.488 -72.188,67.076 -18.641,7.026 -41.174,8.498 -59.622,0.079 -13.515,-6.167 -25.746,-17.267 -30.999,-31.408 -2.537,-6.828 -3.424,-14.419 -0.167,-21.196 3.568,-7.423 10.203,-9.777 17.385,-12.418 -3.229,-9.144 -4.266,-16.12 -2.33,-25.655 l -8.798,0.281 c -2.454,6.103 -4.626,12.421 -7.517,18.331 -9.728,19.887 -24.031,37.132 -38.091,54.058 4.654,3.317 8.584,6.866 9.668,12.804 0.891,4.877 -0.802,9.753 -3.568,13.748 -4.68,6.76 -12.036,10.191 -19.946,11.414 -17.629,2.727 -47.344,-0.542 -61.8799,-11.241 -6.4117,-4.719 -15.7642,-21.531 -18.7641,-29.254 -1.4307,-3.764 -2.4302,-7.678 -2.9791,-11.667 -4.306,-29.364 9.3276,-61.229 26.4314,-84.464 C 65.9441,627.412 59.2201,623.865 52.6316,620.078 37.3321,611.118 9.89426,593.433 5.32868,575.899 Z M 399.817,270.197 c -9.99,1.339 -20.653,3.337 -27.076,11.828 -4.587,6.063 -7.002,13.685 -8.693,21.003 -1.956,8.463 -2.203,17.233 -3.989,25.73 -3.909,18.603 -13.593,25.555 -29.253,34.544 -6.612,3.854 -13.315,7.55 -20.104,11.085 -9.342,4.832 -30.341,16.978 -39.941,18.587 -12.947,2.171 -62.841,-10.438 -73.172,-18.1 -4.198,-3.113 -6.259,-6.25 -8.016,-11.115 l -6.128,5.986 c 5.813,11.985 16.199,16.879 28.195,21.053 10.683,3.716 21.683,6.54 32.607,9.448 7.678,2.045 15.933,4.883 23.896,5.253 2.714,0.126 4.949,-0.107 7.405,-1.326 6.177,-3.065 11.321,-8.699 17.262,-12.345 13.993,-8.589 28.373,-16.693 42.624,-24.857 6.83,-3.912 14.938,-7.345 20.87,-12.472 4.495,-3.885 7.231,-9.713 8.979,-15.279 0.932,-2.967 1.604,-6.073 2.15,-9.134 4.761,11.943 11.733,18.749 23.54,23.806 5.244,2.246 10.722,3.931 16.148,5.674 9.734,2.957 19.054,6.482 28.46,10.354 8.635,3.555 17.275,7.812 26.51,9.561 4.776,0.905 10.524,0.228 15.228,-0.847 10.718,-2.447 21.478,-7.234 31.774,-11.111 12.749,-4.802 26.256,-9.141 38.294,-15.546 17.391,-9.255 15.484,-23.629 24.764,-38.477 6.739,-10.782 16.119,-19.121 25.876,-27.074 -14.34,3.357 -28.801,13.457 -36.565,26.037 -4.94,8.004 -6.118,17.958 -11.693,25.411 -9.39,12.555 -36.513,19.733 -51.22,24.748 -7.025,2.395 -14.133,5.231 -21.347,6.963 -4.459,1.071 -8.819,1.589 -13.389,0.943 -13.855,-1.959 -66.649,-20.996 -78.765,-28.432 -4.954,-3.041 -8.494,-7.05 -9.792,-12.814 -2.75,-12.21 -0.471,-33.429 6.499,-44.18 4.534,-6.994 11.171,-10.963 18.482,-14.528 l -0.129,-0.376 z m 538.422,68.094 c -8.168,0.865 -15.236,6.068 -18.489,13.61 -3.254,7.543 -2.188,16.254 2.788,22.789 4.976,6.536 13.09,9.881 21.226,8.751 12.301,-1.707 20.959,-12.966 19.451,-25.293 -1.509,-12.327 -12.626,-21.166 -24.976,-19.857 z m -390.491,27.334 c -8.546,1.455 -16.639,5.038 -24.658,8.229 -16.747,6.663 -41.109,15.37 -51.661,30.564 -3.248,4.676 -2.947,12.744 -3.418,18.225 -1.724,20.07 -3.108,40.54 0.899,60.469 3.565,17.731 10.424,38.219 22.84,51.657 -15.682,-29.004 -20.181,-54.489 -19.497,-87.146 0.223,-10.644 0.749,-21.818 3.767,-32.083 2.314,-7.868 6.972,-11.772 13.561,-16.172 22.915,-14.41 52.889,-26.829 80.256,-20.744 27.176,6.043 48.702,24.422 71.591,39.037 8.663,5.484 17.721,10.318 27.098,14.464 -9.393,-7.585 -19.507,-14.392 -28.994,-21.905 -26.194,-20.744 -55.739,-48.218 -91.784,-44.595 z m -175.581,1.046 c -5.908,0.753 -11.369,2.219 -16.913,4.405 -17.608,6.943 -59.178,30.387 -70.287,44.592 -10.963,14.019 -7.958,48.83 -5.671,66.229 2.687,20.444 12.952,50.385 26.274,66.362 -15.907,-32.278 -21.817,-60.488 -20.271,-96.438 0.33,-7.665 0.355,-16.307 2.842,-23.615 4.97,-14.608 27.715,-26.499 41.248,-32.971 4.926,-2.347 9.919,-4.549 14.974,-6.603 23.114,-9.535 31.089,-13.767 55.782,-6.835 8.538,2.397 16.897,5.108 25.09,8.519 8.961,3.731 17.939,8.369 21.752,17.898 3.733,9.328 2.583,20.678 2.696,30.546 0.36,31.23 5.356,54.103 20.574,81.756 0.272,-1.29 -1.249,-3.519 -1.856,-4.769 -5.516,-11.371 -10.133,-22.937 -12.053,-35.512 -2.397,-15.693 -2.301,-31.276 -1.666,-47.105 0.33,-8.195 1.519,-17.116 0.47,-25.226 -0.505,-3.904 -1.787,-7.536 -3.973,-10.819 -9.297,-13.968 -45.295,-26.415 -61.37,-29.367 -5.928,-1.088 -11.636,-1.435 -17.642,-1.047 z m 365.936,25.521 c -16.669,1.372 -30.547,11.618 -41.08,24.055 -19.598,23.139 -27.024,52.553 -37.015,80.493 -6.161,17.229 -15.873,34.391 -27.466,48.488 -28.33,34.45 -63.125,48.258 -105.64,56.357 -18.502,3.532 -37.178,6.075 -55.95,7.619 -35.035,2.917 -70.261,2.681 -105.254,-0.704 -24.748,-2.287 -49.321,-6.347 -74.237,-6.524 -17.031,-0.122 -30.383,2.603 -46.918,4.868 -18.624,2.551 -38.371,3.751 -56.968,0.585 -25.237,-4.297 -48.664,-15.924 -68.247,-32.268 -12.919,-10.782 -22.2775,-23.653 -31.0632,-37.803 -16.6682,21.194 -34.9607,29.64 -60.7966,34.991 -3.9427,0.817 -10.1349,1.346 -13.3273,3.749 1.401,7.1 26.0889,25.09 33.2206,29.865 17.2711,11.565 36.5361,20.174 56.0165,27.26 40.514,15.134 74.742,17.308 117.313,12.841 16.597,-1.741 33.687,-4.682 50.4,-3.381 10.833,0.844 31.317,9.571 42.398,13.227 13.8,4.591 27.879,8.301 42.15,11.106 61.363,12.35 125.166,7.759 186.625,-1.727 22.277,-3.439 44.605,-7.341 66.303,-13.565 13.963,-4.005 26.826,-9.871 40.38,-14.88 -2.475,-17.813 6.143,-40.239 16.684,-54.303 14.161,-18.751 35.192,-31.109 58.465,-34.353 28.876,-4.054 57.545,3.895 82.173,18.882 15.612,-15.918 33.013,-37.535 32.748,-61.036 -0.264,-23.282 -18.697,-51.995 -34.964,-67.796 -5.177,-5.029 -10.952,-9.8 -17.095,-13.605 -7.697,-4.769 -15.764,-8.625 -22.436,-14.898 -5.303,-4.986 -9.308,-11.173 -13.456,-17.108 -4.337,-0.405 -8.607,-0.711 -12.963,-0.435 z m -538.517,8.454 c -33.465,5.108 -62.705,41.027 -81.778,66.97 -1.574,2.141 -9.64,12.001 -9.821,13.856 l 0.894,-0.661 -0.737,0.073 0.525,0.132 c 23.407,-26.056 59.61,-66.134 97.022,-68.38 11.414,-0.685 24.023,3.31 34.14,8.362 6.962,3.549 14.683,6.439 17.261,14.519 2.664,8.352 3.179,18.146 4.479,26.859 4.351,29.158 8.541,46.425 23.021,72.561 l 0.316,-0.18 c -9.725,-22.863 -16.747,-39.452 -18.973,-64.526 -0.79,-8.895 0.704,-37.798 -2.405,-43.654 -4.249,-8 -19.133,-13.569 -27.031,-16.756 -11.498,-4.639 -24.322,-9.812 -36.913,-9.175 z m 531.755,155.551 c -22.7,2.33 -42.431,11.854 -56.962,29.7 -10.271,12.614 -18.635,31.647 -17.052,48.25 0.025,0.26 0.057,0.52 0.086,0.78 10.074,4.952 19.447,10.923 29.213,16.424 14.204,8 28.704,15.496 42.917,23.506 l 27.641,15.685 c 4.275,2.465 8.999,4.757 12.944,7.678 l 1.275,5.949 c -3.222,-1.502 -6.366,-2.743 -9.762,-3.8 -4.307,2.892 -7.571,8.498 -8.589,13.541 -1.148,5.69 0.528,10.621 3.748,15.302 5.454,7.927 13.341,14.744 21.618,19.576 8.303,4.515 17.532,9.283 27.256,6.579 12.493,-3.473 38.576,-23.445 47.976,-33.088 3.372,-3.406 6.249,-7.268 8.548,-11.474 8.8,-16.251 4.201,-38.739 -0.847,-55.452 -7.266,-24.054 -22.457,-49.638 -40.978,-66.777 -7.986,-7.391 -17.491,-13.81 -27.092,-18.882 -16.049,-8.478 -43.787,-16.605 -61.94,-13.497 z m -476.873,95.511 -30.76,2.807 c -5.231,0.495 -10.91,0.636 -16.012,1.836 -2.693,8.409 -2.147,14.683 1.13,22.736 0.716,1.761 1.808,3.73 1.785,5.666 -0.029,2.405 -2.001,4.068 -3.998,5.008 -5.565,2.621 -13.644,3.326 -16.104,9.868 -1.968,5.235 -0.123,11.55 2.254,16.377 5.755,11.689 18.054,21.281 30.271,25.37 14.645,4.902 30.19,3.493 44.648,-1.345 33.57,-11.968 56.849,-35.84 72.31,-67.41 -14.633,-2.996 -28.706,-7.656 -42.779,-12.616 -7.613,-2.684 -15.478,-6.274 -23.386,-7.811 -5.874,-1.142 -13.409,-1.314 -19.359,-0.486 z M 95.966,728.941 c -2.0193,1.572 -3.591,2.902 -3.9129,5.577 -0.2195,1.825 0.1515,3.879 0.41,5.698 -6.0813,-3.41 -17.2055,-11.968 -24.5578,-9.341 -1.1934,0.427 -2.1042,1.028 -2.5474,2.268 -1.0393,2.908 0.9746,7.304 2.475,9.727 5.1702,8.351 13.0971,11.558 22.331,13.513 9.0791,1.923 18.5821,2.584 27.8571,2.678 8.072,-0.06 18.186,-0.196 24.217,-6.488 1.784,-1.862 2.896,-4.413 2.713,-7.02 -0.329,-4.677 -4.568,-8.002 -7.952,-10.722 -3.11,-2.501 -7.075,-5.413 -11.292,-5.053 -1.647,0.14 -3.005,0.929 -4.012,2.242 -2.22,2.896 -2.254,7.597 -2.915,11.089 -5.861,-4.669 -15.322,-13.806 -22.814,-14.168 z m 574.346,1.525 c -1.809,3.07 -1.765,6.744 -2.081,10.219 l -0.668,-0.191 c -7.44,-2.182 -19.313,-10.314 -26.902,-7.099 -0.892,1.084 -1.193,1.302 -0.999,2.803 0.677,5.227 7.245,11.42 11.455,13.857 12.478,7.221 28.718,7.818 42.76,8.865 9.009,0.606 18.237,2.171 25.688,-4.242 2.607,-2.244 4.973,-5.16 5.131,-8.744 0.135,-3.057 -1.417,-5.862 -3.516,-7.983 -4.048,-4.091 -11.449,-6.831 -17.244,-6.761 -1.816,0.022 -3.369,0.407 -4.755,1.623 -1.987,1.741 -1.477,5.045 -3.679,6.464 -2.302,-0.445 -4.251,-2.057 -6.226,-3.28 -5.818,-3.606 -12.095,-5.606 -18.964,-5.531 z"
       id="path2-51"
       style="fill:#ffffff;fill-opacity:1;stroke:#000000;stroke-width:6.62788;stroke-dasharray:none;stroke-opacity:1" /><path
       fill="white"
       transform="scale(0.177734)"
       d="m 189.573,363.759 c 1.757,4.865 3.818,8.002 8.016,11.115 10.331,7.662 60.225,20.271 73.172,18.1 9.6,-1.609 30.599,-13.755 39.941,-18.587 6.789,-3.535 13.492,-7.231 20.104,-11.085 15.66,-8.989 25.344,-15.941 29.253,-34.544 1.786,-8.497 2.033,-17.267 3.989,-25.73 1.691,-7.318 4.106,-14.94 8.693,-21.003 6.423,-8.491 17.086,-10.489 27.076,-11.828 l 0.291,10e-4 0.129,0.376 c -7.311,3.565 -13.948,7.534 -18.482,14.528 -6.97,10.751 -9.249,31.97 -6.499,44.18 1.298,5.764 4.838,9.773 9.792,12.814 12.116,7.436 64.91,26.473 78.765,28.432 4.57,0.646 8.93,0.128 13.389,-0.943 7.214,-1.732 14.322,-4.568 21.347,-6.963 14.707,-5.015 41.83,-12.193 51.22,-24.748 5.575,-7.453 6.753,-17.407 11.693,-25.411 7.764,-12.58 22.225,-22.68 36.565,-26.037 -9.757,7.953 -19.137,16.292 -25.876,27.074 -9.28,14.848 -7.373,29.222 -24.764,38.477 -12.038,6.405 -25.545,10.744 -38.294,15.546 -10.296,3.877 -21.056,8.664 -31.774,11.111 -4.704,1.075 -10.452,1.752 -15.228,0.847 -9.235,-1.749 -17.875,-6.006 -26.51,-9.561 -9.406,-3.872 -18.726,-7.397 -28.46,-10.354 -5.426,-1.743 -10.904,-3.428 -16.148,-5.674 -11.807,-5.057 -18.779,-11.863 -23.54,-23.806 -0.546,3.061 -1.218,6.167 -2.15,9.134 -1.748,5.566 -4.484,11.394 -8.979,15.279 -5.932,5.127 -14.04,8.56 -20.87,12.472 -14.251,8.164 -28.631,16.268 -42.624,24.857 -5.941,3.646 -11.085,9.28 -17.262,12.345 -2.456,1.219 -4.691,1.452 -7.405,1.326 -7.963,-0.37 -16.218,-3.208 -23.896,-5.253 -10.924,-2.908 -21.924,-5.732 -32.607,-9.448 -11.996,-4.174 -22.382,-9.068 -28.195,-21.053 z"
       id="path3-7"
       style="fill:#000000;fill-opacity:1" /><path
       fill="#ffffff"
       transform="scale(0.177734)"
       d="m 943.764,383.441 c -8.136,1.13 -16.25,-2.215 -21.226,-8.751 -4.976,-6.535 -6.042,-15.246 -2.788,-22.789 3.253,-7.542 10.321,-12.745 18.489,-13.61 12.35,-1.309 23.467,7.53 24.976,19.857 1.508,12.327 -7.15,23.586 -19.451,25.293 z m 0.72,-28.378 c -2.743,1.255 -4.765,2.54 -5.876,5.479 -0.912,2.415 -0.9,5.155 0.323,7.46 0.962,1.813 2.946,3.39 4.974,3.81 1.198,0.248 2.608,0.07 3.816,-0.084 2.857,-1.554 5.286,-3.351 6.244,-6.614 0.625,-2.127 0.49,-4.308 -0.695,-6.219 -1.176,-1.896 -3.196,-3.2 -5.368,-3.637 -1.115,-0.225 -2.285,-0.203 -3.418,-0.195 z"
       id="path4-6"
       style="stroke:#000000;stroke-opacity:1" /><path
       transform="scale(0.177734)"
       d="m 947.721,371.728 c -1.208,0.154 -2.618,0.332 -3.816,0.084 -2.028,-0.42 -4.012,-1.997 -4.974,-3.81 -1.223,-2.305 -1.235,-5.045 -0.323,-7.46 1.111,-2.939 3.133,-4.224 5.876,-5.479 1.133,-0.008 2.303,-0.03 3.418,0.195 2.172,0.437 4.192,1.741 5.368,3.637 1.185,1.911 1.32,4.092 0.695,6.219 -0.958,3.263 -3.387,5.06 -6.244,6.614 z"
       id="path5-1" /><path
       fill="white"
       transform="scale(0.177734)"
       d="m 491.75,534.769 c -12.416,-13.438 -19.275,-33.926 -22.84,-51.657 -4.007,-19.929 -2.623,-40.399 -0.899,-60.469 0.471,-5.481 0.17,-13.549 3.418,-18.225 10.552,-15.194 34.914,-23.901 51.661,-30.564 8.019,-3.191 16.112,-6.774 24.658,-8.229 36.045,-3.623 65.59,23.851 91.784,44.595 9.487,7.513 19.601,14.32 28.994,21.905 -9.377,-4.146 -18.435,-8.98 -27.098,-14.464 -22.889,-14.615 -44.415,-32.994 -71.591,-39.037 -27.367,-6.085 -57.341,6.334 -80.256,20.744 -6.589,4.4 -11.247,8.304 -13.561,16.172 -3.018,10.265 -3.544,21.439 -3.767,32.083 -0.684,32.657 3.815,58.142 19.497,87.146 z"
       id="path6-1"
       style="fill:#000000;fill-opacity:1" /><path
       fill="white"
       transform="scale(0.177734)"
       d="m 305.57,548.259 c -13.322,-15.977 -23.587,-45.918 -26.274,-66.362 -2.287,-17.399 -5.292,-52.21 5.671,-66.229 11.109,-14.205 52.679,-37.649 70.287,-44.592 5.544,-2.186 11.005,-3.652 16.913,-4.405 6.006,-0.388 11.714,-0.041 17.642,1.047 16.075,2.952 52.073,15.399 61.37,29.367 2.186,3.283 3.468,6.915 3.973,10.819 1.049,8.11 -0.14,17.031 -0.47,25.226 -0.635,15.829 -0.731,31.412 1.666,47.105 1.92,12.575 6.537,24.141 12.053,35.512 0.607,1.25 2.128,3.479 1.856,4.769 -15.218,-27.653 -20.214,-50.526 -20.574,-81.756 -0.113,-9.868 1.037,-21.218 -2.696,-30.546 -3.813,-9.529 -12.791,-14.167 -21.752,-17.898 -8.193,-3.411 -16.552,-6.122 -25.09,-8.519 -24.693,-6.932 -32.668,-2.7 -55.782,6.835 -5.055,2.054 -10.048,4.256 -14.974,6.603 -13.533,6.472 -36.278,18.363 -41.248,32.971 -2.487,7.308 -2.512,15.95 -2.842,23.615 -1.546,35.95 4.364,64.16 20.271,96.438 z"
       id="path7"
       style="fill:#000000;fill-opacity:1" /><path
       fill="#ffffff"
       transform="scale(0.177734)"
       d="m 88.2648,537.358 c 8.7857,14.15 18.1442,27.021 31.0632,37.803 19.583,16.344 43.01,27.971 68.247,32.268 18.597,3.166 38.344,1.966 56.968,-0.585 16.535,-2.265 29.887,-4.99 46.918,-4.868 24.916,0.177 49.489,4.237 74.237,6.524 34.993,3.385 70.219,3.621 105.254,0.704 18.772,-1.544 37.448,-4.087 55.95,-7.619 42.515,-8.099 77.31,-21.907 105.64,-56.357 11.593,-14.097 21.305,-31.259 27.466,-48.488 9.991,-27.94 17.417,-57.354 37.015,-80.493 10.533,-12.437 24.411,-22.683 41.08,-24.055 4.356,-0.276 8.626,0.03 12.963,0.435 4.148,5.935 8.153,12.122 13.456,17.108 6.672,6.273 14.739,10.129 22.436,14.898 6.143,3.805 11.918,8.576 17.095,13.605 16.267,15.801 34.7,44.514 34.964,67.796 0.265,23.501 -17.136,45.118 -32.748,61.036 -24.628,-14.987 -53.297,-22.936 -82.173,-18.882 -23.273,3.244 -44.304,15.602 -58.465,34.353 -10.541,14.064 -19.159,36.49 -16.684,54.303 -13.554,5.009 -26.417,10.875 -40.38,14.88 -21.698,6.224 -44.026,10.126 -66.303,13.565 -61.459,9.486 -125.262,14.077 -186.625,1.727 -14.271,-2.805 -28.35,-6.515 -42.15,-11.106 -11.081,-3.656 -31.565,-12.383 -42.398,-13.227 -16.713,-1.301 -33.803,1.64 -50.4,3.381 -42.571,4.467 -76.799,2.293 -117.313,-12.841 -19.4804,-7.086 -38.7454,-15.695 -56.0165,-27.26 -7.1317,-4.775 -31.8196,-22.765 -33.2206,-29.865 3.1924,-2.403 9.3846,-2.932 13.3273,-3.749 25.8359,-5.351 44.1284,-13.797 60.7966,-34.991 z"
       id="path8-1"
       style="stroke:#000000;stroke-width:3.25205;stroke-dasharray:none;stroke-opacity:1" /><path
       fill="white"
       transform="scale(0.177734)"
       d="m 239.831,420.998 c -10.117,-5.052 -22.726,-9.047 -34.14,-8.362 -37.412,2.246 -73.615,42.324 -97.022,68.38 l -0.525,-0.132 0.737,-0.073 -0.894,0.661 c 0.181,-1.855 8.247,-11.715 9.821,-13.856 19.073,-25.943 48.313,-61.862 81.778,-66.97 12.591,-0.637 25.415,4.536 36.913,9.175 7.898,3.187 22.782,8.756 27.031,16.756 3.109,5.856 1.615,34.759 2.405,43.654 2.226,25.074 9.248,41.663 18.973,64.526 l -0.316,0.18 c -14.48,-26.136 -18.67,-43.403 -23.021,-72.561 -1.3,-8.713 -1.815,-18.507 -4.479,-26.859 -2.578,-8.08 -10.299,-10.97 -17.261,-14.519 z"
       id="path9-5-4"
       style="fill:#000000;fill-opacity:1" /><path
       fill="#ffffff"
       transform="scale(0.177734)"
       d="m 657.413,634.927 c -0.029,-0.26 -0.061,-0.52 -0.086,-0.78 -1.583,-16.603 6.781,-35.636 17.052,-48.25 14.531,-17.846 34.262,-27.37 56.962,-29.7 18.153,-3.108 45.891,5.019 61.94,13.497 9.601,5.072 19.106,11.491 27.092,18.882 18.521,17.139 33.712,42.723 40.978,66.777 5.048,16.713 9.647,39.201 0.847,55.452 -2.299,4.206 -5.176,8.068 -8.548,11.474 -9.4,9.643 -35.483,29.615 -47.976,33.088 -9.724,2.704 -18.953,-2.064 -27.256,-6.579 -8.277,-4.832 -16.164,-11.649 -21.618,-19.576 -3.22,-4.681 -4.896,-9.612 -3.748,-15.302 1.018,-5.043 4.282,-10.649 8.589,-13.541 3.396,1.057 6.54,2.298 9.762,3.8 l -1.275,-5.949 c -3.945,-2.921 -8.669,-5.213 -12.944,-7.678 l -27.641,-15.685 c -14.213,-8.01 -28.713,-15.506 -42.917,-23.506 -9.766,-5.501 -19.139,-11.472 -29.213,-16.424 z"
       id="path10-2-2"
       style="stroke:#000000;stroke-opacity:1" /><path
       fill="#ffffff"
       transform="scale(0.177734)"
       d="m 207.696,656.351 c 5.102,-1.2 10.781,-1.341 16.012,-1.836 l 30.76,-2.807 c 5.95,-0.828 13.485,-0.656 19.359,0.486 7.908,1.537 15.773,5.127 23.386,7.811 14.073,4.96 28.146,9.62 42.779,12.616 -15.461,31.57 -38.74,55.442 -72.31,67.41 -14.458,4.838 -30.003,6.247 -44.648,1.345 -12.217,-4.089 -24.516,-13.681 -30.271,-25.37 -2.377,-4.827 -4.222,-11.142 -2.254,-16.377 2.46,-6.542 10.539,-7.247 16.104,-9.868 1.997,-0.94 3.969,-2.603 3.998,-5.008 0.023,-1.936 -1.069,-3.905 -1.785,-5.666 -3.277,-8.053 -3.823,-14.327 -1.13,-22.736 z"
       id="path11-7"
       style="stroke:#000000;stroke-opacity:1" /><path
       fill="#ffffff"
       transform="scale(0.177734)"
       d="m 92.4631,740.216 c -0.2585,-1.819 -0.6295,-3.873 -0.41,-5.698 0.3219,-2.675 1.8936,-4.005 3.9129,-5.577 7.492,0.362 16.953,9.499 22.814,14.168 0.661,-3.492 0.695,-8.193 2.915,-11.089 1.007,-1.313 2.365,-2.102 4.012,-2.242 4.217,-0.36 8.182,2.552 11.292,5.053 3.384,2.72 7.623,6.045 7.952,10.722 0.183,2.607 -0.929,5.158 -2.713,7.02 -6.031,6.292 -16.145,6.428 -24.217,6.488 -9.275,-0.094 -18.778,-0.755 -27.8571,-2.678 -9.2339,-1.955 -17.1608,-5.162 -22.331,-13.513 -1.5004,-2.423 -3.5143,-6.819 -2.475,-9.727 0.4432,-1.24 1.354,-1.841 2.5474,-2.268 7.3523,-2.627 18.4765,5.931 24.5578,9.341 z"
       id="path12"
       style="stroke:#000000;stroke-opacity:1" /><path
       fill="#ffffff"
       transform="scale(0.177734)"
       d="m 668.231,740.685 c 0.316,-3.475 0.272,-7.149 2.081,-10.219 6.869,-0.075 13.146,1.925 18.964,5.531 1.975,1.223 3.924,2.835 6.226,3.28 2.202,-1.419 1.692,-4.723 3.679,-6.464 1.386,-1.216 2.939,-1.601 4.755,-1.623 5.795,-0.07 13.196,2.67 17.244,6.761 2.099,2.121 3.651,4.926 3.516,7.983 -0.158,3.584 -2.524,6.5 -5.131,8.744 -7.451,6.413 -16.679,4.848 -25.688,4.242 -14.042,-1.047 -30.282,-1.644 -42.76,-8.865 -4.21,-2.437 -10.778,-8.63 -11.455,-13.857 -0.194,-1.501 0.107,-1.719 0.999,-2.803 7.589,-3.215 19.462,4.917 26.902,7.099 z"
       id="path13"
       style="stroke:#000000;stroke-opacity:1" /></g></svg>
