<?xml version="1.0" encoding="UTF-8" standalone="no"?>
<!-- Created with Inkscape (http://www.inkscape.org/) -->

<svg
   width="63mm"
   height="88mm"
   viewBox="0 0 63 88"
   version="1.1"
   id="svg1"
   inkscape:version="1.4 (86a8ad7, 2024-10-11)"
   xml:space="preserve"
   sodipodi:docname="card-disorder-loss.svg"
   xmlns:inkscape="http://www.inkscape.org/namespaces/inkscape"
   xmlns:sodipodi="http://sodipodi.sourceforge.net/DTD/sodipodi-0.dtd"
   xmlns="http://www.w3.org/2000/svg"
   xmlns:svg="http://www.w3.org/2000/svg"><sodipodi:namedview
     id="namedview1"
     pagecolor="#ffffff"
     bordercolor="#000000"
     borderopacity="0.25"
     inkscape:showpageshadow="2"
     inkscape:pageopacity="0.0"
     inkscape:pagecheckerboard="0"
     inkscape:deskcolor="#d1d1d1"
     inkscape:document-units="mm"
     inkscape:zoom="1.0343421"
     inkscape:cx="90.395624"
     inkscape:cy="94.262817"
     inkscape:window-width="1350"
     inkscape:window-height="1017"
     inkscape:window-x="228"
     inkscape:window-y="0"
     inkscape:window-maximized="0"
     inkscape:current-layer="layer1" /><defs
     id="defs1" /><g
     inkscape:label="Layer 1"
     inkscape:groupmode="layer"
     id="layer1"><g
       id="g17"
       transform="matrix(0.34218637,0,0,0.34218637,17.565573,24.677472)"
       style="opacity:0.5"><path
         transform="matrix(0.0976562,0,0,0.0976562,6.10352e-5,0)"
         d="m 430.933,975.077 c -0.614,0.127 -5.155,1.215 -5.346,1.106 -0.15,-0.086 -2.426,-6.866 -2.632,-7.431 l -34.205,-91.316 -6.971,-18.141 c -2.198,-5.718 -4.29,-11.414 -8.07,-16.321 -15.317,-19.88 -42.408,-17.642 -64.786,-16.782 l -33.668,0.857 c -11.823,0.025 -24.855,-0.148 -35.103,-6.895 -14.298,-9.413 -18.675,-29.722 -14.954,-45.619 2.003,-8.559 9.337,-17.472 7.061,-26.49 -1.73,-6.852 -7.979,-9.516 -13.398,-12.883 -2.374,-1.474 -4.687,-3.861 -5.163,-6.724 -0.803,-4.835 0.44,-9.961 3.197,-13.973 3.45,-5.021 7.952,-5.774 13.519,-6.892 -5.537,-3.906 -12.376,-7.139 -17.424,-11.507 -3.689,-3.194 -5.583,-6.87 -5.584,-11.769 -0.001,-4.718 1.072,-8.871 3.187,-13.073 3.443,-6.843 9.223,-13.388 8.233,-21.568 -2.664,-22.011 -33.74,-19.866 -47.089,-31.248 -3.557,-3.034 -6.394,-7.628 -6.505,-12.408 -0.095,-4.075 1.336,-7.844 3.507,-11.25 4.782,-7.501 12.356,-13.916 18.584,-20.24 l 33.263,-34.432 c 4.304,-4.729 8.271,-9.762 12.133,-14.856 3.857,-5.087 8.114,-10.747 9.67,-17.055 1.603,-6.499 0.654,-13.369 -1.361,-19.669 -1.386,-4.335 -3.12,-8.596 -4.294,-12.991 -1.731,-6.482 -2.455,-13.1 -2.758,-19.785 -0.498,-11.015 -0.04,-22.053 1.913,-32.923 2.759,-15.356 8.019,-29.98 14.098,-44.299 9.476,-22.321 20.752,-43.323 37.256,-61.324 36.099,-39.373 87.982,-66.438 140.064,-77.246 18.637,-3.868 37.373,-5.425 56.356,-6.211 46.981,-1.332 94.793,9.84 136.837,30.561 62.068,30.589 110.761,86.102 132.986,151.613 6.081,17.923 10.321,36.325 11.789,55.226 3.216,41.393 -5.459,81.062 -21.202,119.201 -3.204,7.764 -6.401,15.558 -10.195,23.055 l -47.234,86.181 c -19.5,39.68 -32.667,83.055 -23.781,127.493 2.727,13.638 7.309,26.788 11.737,39.941 l 16.114,47.112 z"
         id="path8" /><path
         d="m 45.060335,53.368751 c 0.918654,-1.522037 2.157104,-2.708862 3.40602,-3.951838 1.367161,-1.360513 2.79415,-2.718197 3.267126,-4.660877 0.266332,-1.093332 0.190096,-2.40816 -0.418945,-3.376035 -0.62757,-0.997577 -1.674086,-1.593182 -2.80985,-1.835044 l -0.133803,-0.02758 c -0.648927,-0.139743 -1.385265,-0.178498 -2.041405,-0.05488 -2.122876,0.400417 -3.546471,1.592475 -3.899081,3.788191 -0.151341,0.942416 -0.170011,2.029242 -0.751047,2.832198 -0.614558,0.849348 -1.655133,1.216951 -2.652993,1.376496 -1.166174,0.186418 -2.756952,0.103675 -3.721008,-0.647231 -0.863067,-0.672406 -1.232651,-2.044517 -1.324445,-3.092447 -0.233518,-2.666854 0.478492,-5.347145 2.238997,-7.398168 2.8049,-3.267692 6.682199,-4.721556 10.88481,-5.024238 l 2.200809,0.06789 c 3.869095,0.397729 7.658701,2.00944 10.137864,5.091279 3.398807,4.225101 3.157085,10.190197 -0.245682,14.325342 -1.875355,2.279025 -4.469226,4.038682 -6.103001,6.489698 -1.149484,1.724438 -1.670832,3.584801 -1.885821,5.630308 l -6.193381,0.05431 c -0.617811,-0.515691 -0.968441,-1.044252 -1.191775,-1.818354 -0.750765,-2.603206 -0.05304,-5.459307 1.236611,-7.769025 z"
         id="path4"
         style="fill:#ffffff;fill-opacity:1;stroke-width:0.14144" /><path
         d="m 48.23114,73.490451 c -1.214263,0.05247 -2.299534,-0.138187 -3.297252,-0.874241 -0.899277,-0.663638 -1.613833,-1.628967 -1.765315,-2.757659 -0.163222,-1.215678 0.113576,-2.464029 0.884284,-3.434025 0.834497,-1.050194 1.950742,-1.578048 3.26656,-1.75301 1.035625,-0.07327 2.069694,0.154594 2.949169,0.714414 0.958964,0.610315 1.668145,1.676632 1.892045,2.786371 0.225172,1.116105 0.01259,2.317073 -0.615548,3.272218 -0.7857,1.194887 -1.951167,1.777337 -3.313943,2.045932 z"
         id="path11"
         style="fill:#ffffff;fill-opacity:1;stroke-width:0.14144" /></g><g
       id="mind-2"
       transform="matrix(0.06382477,0,0,0.06382477,-10.667972,-15.953913)"
       inkscape:label="mind"><path
         fill="#8751D1"
         d="m 411.69208,747.05319 c -0.24812,-0.0337 -0.61135,0.0446 -0.86853,0.0689 l -1.88364,0.18649 c -3.72501,0.33108 -8.57419,0.88378 -11.91731,-1.09865 -2.31419,-1.37162 -3.71541,-3.91758 -3.77797,-6.58974 -0.0316,-1.35445 0.21513,-2.71607 0.33824,-4.0627 0.155,-1.69621 0.11689,-3.55812 -0.36243,-5.20298 -0.34838,-1.19595 -1.45608,-1.90027 -2.27878,-2.7777 -0.32433,-0.34581 -0.66149,-0.6965 -0.75798,-1.17919 -0.0843,-0.42203 0.004,-0.78231 0.23041,-1.14312 0.70459,-1.12593 2.04783,-1.75635 3.29176,-2.05337 -1.46785,-0.66041 -2.98109,-1.155 -3.73973,-2.6996 -0.0738,-0.9685 0.67715,-1.48648 1.22594,-2.20552 0.44256,-0.57988 0.90959,-1.29285 1.14594,-1.98636 0.30595,-0.89757 0.39325,-2.0065 -0.0624,-2.87055 -0.32352,-0.61365 -0.91203,-0.94972 -1.54743,-1.15905 -1.07176,-0.35298 -2.44501,-0.17271 -3.57501,-0.2446 -1.08391,-0.069 -2.38392,-0.43067 -3.12283,-1.2777 -1.58244,-1.81365 -0.5669,-3.34163 0.31594,-5.1823 l 4.40663,-9.12569 c 1.32702,-2.79188 2.80864,-5.68878 3.46581,-8.72446 0.23121,-1.06798 0.27838,-2.21095 0.16162,-3.29905 -0.15554,-1.45068 -0.55595,-2.89231 -0.77594,-4.33731 -0.50258,-3.30135 -0.63447,-6.64149 -0.43325,-9.97311 l 5.83284,-17.18719 c 3.39416,-6.96905 6.91022,-12.09437 11.932,-16.32738 9.62457,-8.97887 13.47758,-9.65632 15.94441,-10.766 10.19556,-3.45889 25.31639,-3.25762 29.84348,-1.68229 4.3097,1.27835 11.02166,3.75073 14.87564,7.31267 8.36058,7.72704 13.11125,14.18473 17.04402,28.18178 1.13234,11.82468 2.47464,18.22573 -8.91699,38.68708 -4.82517,4.50903 -3.58578,9.81468 -4.72292,21.93709 -2.70104,8.57625 1.50951,26.66266 -1.8586,27.09779 z"
         id="path2-32"
         style="fill:none;fill-opacity:1;stroke:#e8312c;stroke-width:2.32259;stroke-dasharray:none;stroke-opacity:1"
         sodipodi:nodetypes="ccccccccccccscccccccscccccccsccccc" /><text
         xml:space="preserve"
         style="font-style:normal;font-variant:normal;font-weight:normal;font-stretch:normal;font-size:148.144px;font-family:Amiri;-inkscape-font-specification:'Amiri, Normal';font-variant-ligatures:normal;font-variant-caps:normal;font-variant-numeric:normal;font-variant-east-asian:normal;fill:#e8312c;fill-opacity:1;stroke:none;stroke-width:0.269287;stroke-dasharray:none;stroke-opacity:1;paint-order:markers fill stroke"
         x="489.6109"
         y="732.83862"
         id="text1"><tspan
           sodipodi:role="line"
           id="tspan1"
           x="489.6109"
           y="732.83862">Mind:-1</tspan></text><path
         style="fill:#e7322c;fill-opacity:1;stroke-width:3.49882"
         id="path1-3-2"
         sodipodi:type="arc"
         sodipodi:cx="441.53137"
         sodipodi:cy="667.83423"
         sodipodi:rx="37.176922"
         sodipodi:ry="39.043968"
         sodipodi:start="0.027304543"
         sodipodi:end="6.2831853"
         sodipodi:open="true"
         sodipodi:arc-type="arc"
         d="m 478.69444,668.90017 a 37.176922,39.043968 0 0 1 -37.92434,37.96984 37.176922,39.043968 0 0 1 -36.41219,-39.5688 37.176922,39.043968 0 0 1 37.42723,-38.51004 37.176922,39.043968 0 0 1 36.92315,39.04306" /><path
         style="fill:#ffffff;fill-opacity:1;stroke-width:3.34545"
         id="path1-1"
         sodipodi:type="arc"
         sodipodi:cx="441.50256"
         sodipodi:cy="667.05212"
         sodipodi:rx="35.50272"
         sodipodi:ry="37.379631"
         sodipodi:start="0.027304543"
         sodipodi:end="6.2831853"
         sodipodi:open="true"
         sodipodi:arc-type="arc"
         d="m 476.99205,668.07263 a 35.50272,37.379631 0 0 1 -36.21647,36.35129 35.50272,37.379631 0 0 1 -34.77243,-37.8821 35.50272,37.379631 0 0 1 35.74176,-36.86846 35.50272,37.379631 0 0 1 35.26037,37.37876" /><rect
         style="fill:#e8322b;fill-opacity:1;stroke-width:4.1036"
         id="rect1"
         width="43.670288"
         height="44.625092"
         x="787.51117"
         y="-45.42012"
         transform="matrix(0.5298425,0.84809606,-0.5441132,0.83901181,0,0)" /><path
         id="path3-2-6"
         style="fill:#ffffff;stroke-width:4.17674"
         d="m 465.39785,667.3739 -23.72874,2.71407 -23.72873,-2.71407 23.72873,-0.5428 z"
         sodipodi:nodetypes="ccccc" /><path
         id="path4-8"
         style="fill:#ffffff;stroke-width:2.36508"
         inkscape:transform-center-x="-0.00029899198"
         inkscape:transform-center-y="-0.42374246"
         d="m 440.73859,667.76163 0.9542,-40.11665 0.98143,39.74202 z" /></g></g></svg>
