<?xml version="1.0" encoding="UTF-8" standalone="no"?>
<svg
   width="63mm"
   height="88mm"
   version="1.1"
   id="svg132"
   sodipodi:docname="card-trauma-fear.svg"
   viewBox="0 0 975.48891 1362.5877"
   inkscape:version="1.4 (86a8ad7, 2024-10-11)"
   xmlns:inkscape="http://www.inkscape.org/namespaces/inkscape"
   xmlns:sodipodi="http://sodipodi.sourceforge.net/DTD/sodipodi-0.dtd"
   xmlns="http://www.w3.org/2000/svg"
   xmlns:svg="http://www.w3.org/2000/svg">
  <defs
     id="defs132" />
  <sodipodi:namedview
     id="namedview132"
     pagecolor="#ffffff"
     bordercolor="#000000"
     borderopacity="0.25"
     inkscape:showpageshadow="2"
     inkscape:pageopacity="0.0"
     inkscape:pagecheckerboard="0"
     inkscape:deskcolor="#d1d1d1"
     inkscape:zoom="1.1450488"
     inkscape:cx="282.52071"
     inkscape:cy="347.14678"
     inkscape:window-width="1920"
     inkscape:window-height="1009"
     inkscape:window-x="-8"
     inkscape:window-y="-8"
     inkscape:window-maximized="1"
     inkscape:current-layer="svg132"
     inkscape:document-units="mm" />
  <g
     id="g4"
     transform="matrix(1.9220841,0,0,1.9220841,368.20719,518.97738)"
     style="opacity:0.5">
    <path
       transform="matrix(0.142578,0,0,0.142578,0,-7.62939e-6)"
       d="m 225.07,1110.7 c 0.644,-5 4.123,-10.51 6.425,-14.96 l 10.506,-20.86 15.837,-34.52 12.743,-31.61 c 41.585,-105.47 62.82,-218.396 70.508,-331.214 l 2.03,-41.369 c 0.282,-8.034 1.047,-16.487 0.029,-24.455 -0.885,2.807 -1.709,7.354 -3.315,9.716 -1.724,2.535 -2.019,5.555 -2.908,8.462 l -4.737,14.741 -21.639,63.557 -27.895,67.104 c -10.579,22.902 -22.213,45.574 -30.73,69.35 -4.664,13.019 -7.01,26.51 -8.631,40.195 -5.452,-28.66 -6.572,-61.474 -0.225,-89.957 -24.76,39.461 -28.469,92.225 -23.401,137.409 l 3.462,21.811 c 0.985,4.862 2.458,9.889 2.616,14.857 l -0.327,-0.326 c -3.282,-3.459 -6.343,-9.702 -8.009,-14.173 -1.757,-4.715 -4.518,-9.454 -6.585,-14.102 -3.923,-8.827 -7.365,-17.76 -10.184,-26.997 l -4.689,-17.399 c -0.441,-1.689 -0.737,-4.375 -1.803,-5.664 -3.365,15.183 -7.319,30.17 -9.81,45.54 -7.653,47.239 -4.524,94.494 3.574,141.414 3.22,18.65 8.861,36.74 11.378,55.53 -55.449,-117.85 -83.302,-253.932 -37.448,-379.72 2.903,-7.962 11.443,-14.502 17.151,-20.685 l 12.736,-14.996 c 20.449,-24.764 38.372,-50.754 54.998,-78.205 35.96,-59.37 59.282,-126.606 86.447,-190.251 l 26.597,-55.378 c 16.444,-35.762 30.09,-72.281 40.95,-110.108 l 17.603,-72.008 12.422,-64.471 c 7.233,-33.551 17.577,-71.4905 44.545,-94.9081 4.651,-4.039 9.605,-7.8106 15.219,-10.4107 13.27,-6.1464 28.921,-7.0367 42.679,-1.9041 22.576,8.4224 37.738,30.8864 47.124,52.012 8.125,18.2889 13.806,37.0359 17.435,56.7389 6.509,35.332 7.467,71.597 13.69,107.017 2.928,16.662 7.721,33.14 13.207,49.115 3.861,11.242 8.834,23.212 15.151,33.305 16.449,26.283 40.287,46.299 52.634,75.327 9.028,21.225 10.655,43.161 14.045,65.639 6.576,43.62 20.175,89.901 44.937,126.825 22.921,34.181 49.003,64.906 77.331,94.642 l 27.658,26.753 c 2.832,2.638 8.378,6.308 10.276,9.477 0.825,1.377 1.095,4.88 1.517,6.646 l 5.239,21.44 c 5.867,25.197 8.757,51.405 10.36,77.203 4.378,70.435 -2.521,142.155 -18.133,210.925 -3.242,14.28 -5.541,29.62 -10.764,43.33 l -2.141,4.82 c -0.733,-8.08 0.912,-16.98 1.355,-25.11 l 0.494,-32.92 c -0.237,-50.211 -6.664,-103.195 -20.117,-151.661 -4.767,12.211 -10.181,23.99 -16.71,35.363 -2.761,4.808 -6.659,11.364 -11.243,14.624 3.028,-8.786 7.229,-17.126 9.77,-26.072 8.57,-30.178 3.77,-63.535 -9.871,-91.602 l -21.401,-38.955 c -2.715,13.896 -4.626,28.758 -3.93,42.933 l 2.51,30.393 c -5.111,-12.7 -8.366,-25.906 -12.592,-38.897 -4.453,-13.689 -9.971,-27.301 -16.284,-40.23 -10.267,-21.024 -25.435,-38.433 -37.047,-58.47 -22.747,-39.248 -36.597,-81.721 -49.809,-124.859 -0.552,22.816 2.996,46.544 6.6,69.013 7.212,44.97 17.413,88.196 31.704,131.477 l 7.59,21.898 c 0.877,2.615 1.376,5.03 2.66,7.529 l 7.186,19.117 c 8.361,23.331 19.141,45.565 29.854,67.868 l 48.941,98.941 c 22.3,45.09 42.573,90.61 50.86,140.59 -22.132,-46.36 -48.967,-90.55 -84.656,-127.85 -10.04,-10.49 -20.932,-21.22 -32.53,-29.998 l 7.638,31.618 c 11.545,57.3 16.555,115.09 13.766,173.46 -0.939,19.64 -1.974,39.82 -5.833,59.13 -2.285,-15.72 -6.238,-31.32 -10.348,-46.66 -13.265,-49.48 -33.186,-96.85 -70.419,-133.23 4.752,21.27 12.649,41.66 16.675,63.23 6.992,37.47 9.972,75.51 8.368,113.61 -1.227,29.14 -5.358,58.47 -10.399,87.17 -2.596,14.79 -4.56,30.59 -9.053,44.89 -0.975,-17.99 -1.685,-36.2 -4.088,-54.07 -8.58,-63.8 -33.446,-126.02 -67.249,-180.63 4.389,33.56 7.558,68.32 6.136,102.2 -1.532,36.48 -7.835,72.18 -14.624,107.96 l -9.379,42.53 c -2.246,8.9 -4.421,18 -7.824,26.55 0.69,-13.21 -0.3,-26.99 -0.493,-40.27 -0.659,-45.26 -3.959,-90.02 -16.174,-133.85 -4.855,-17.42 -11.887,-35.35 -19.179,-51.88 -7.155,28.69 -14.827,57.87 -19.076,87.16 -9.397,64.78 -3.222,137.98 25.944,197.31 -16.471,-12.43 -30.484,-28.57 -43.458,-44.51 -53.188,-65.36 -87.652,-145.67 -99.307,-229.05 l -1.773,-10.46 -6.771,32.98 c -5.675,34.67 -7.319,69.28 -5.911,104.36 l 2.947,36.56 c 0.977,7.56 3.225,16.07 3.099,23.6 -40.605,-60.29 -62.842,-129.3 -68.539,-201.53 -1.342,-17.01 -2.326,-34.42 -1.523,-51.49 l -8.724,20.52 c -1.772,4.58 -3.223,9.46 -5.62,13.73 -4.14,7.38 -6.635,17.59 -9.287,25.7 l -16.045,52.62 c -3.879,14.44 -6.848,29.93 -12.199,43.87 -3.358,-16.18 -2.841,-34.5 -2.33,-50.95 1.448,-46.61 8.64,-91.62 18.208,-137.18 l 29.192,-117.08 c -17.413,16.39 -32.135,36.31 -47.31,54.76 l -35.632,39.31 c -4.462,4.55 -9.221,11.19 -14.425,14.64 z M 470.533,176.625 c -6.433,8.808 -5.774,24.176 -4.079,34.577 1.179,7.229 3.909,18.793 10.375,23.208 2.311,1.579 4.634,2.243 7.43,1.747 1.347,-0.239 2.458,-0.958 3.57,-1.711 3.314,-3.538 7.046,-8.184 6.588,-13.406 -0.267,-3.037 -2.084,-6.672 -3.061,-9.61 -3.095,-9.312 -8.562,-28.261 -16.949,-34.055 -1.4,-0.967 -2.248,-0.94 -3.874,-0.75 z m 84.742,1.5 c -7.969,7.021 -12.061,21.41 -15.252,31.242 -1.126,3.471 -2.837,7.478 -3.074,11.133 -0.259,4.01 1.382,9.587 4.119,12.576 1.657,1.81 3.9,2.552 6.191,3.199 3.866,-0.412 6.914,-2.399 9.355,-5.343 8.4,-10.128 9.254,-26.745 7.921,-39.37 -0.491,-4.651 -0.899,-9.563 -3.862,-13.347 -2.021,-0.916 -3.266,-0.831 -5.398,-0.09 z m 29.286,56.25 c -2.704,9.369 -5.808,18.938 -9.546,27.949 -2.055,4.956 -5.786,10.774 -6.769,15.918 -1.681,8.8 -0.362,21.063 0.101,30.024 5.123,-15.733 8.81,-31.922 12.56,-48.03 1.606,-6.898 5.289,-18.78 3.994,-25.649 z m -137.918,0.436 c 1.281,27.033 7.565,56.491 17.842,81.606 -0.446,-10.285 0.056,-21.458 -1.389,-31.578 -1.364,-9.548 -5.154,-18.014 -8.499,-26.953 z m 33.427,38.564 -0.047,0.605 c -0.138,1.625 -0.592,2.429 -0.984,3.895 -0.106,0.395 -0.06,1.086 -0.047,1.507 l -0.782,0.372 0.008,0.558 c 0.012,7.301 -1.391,14.496 -1.26,21.938 0.232,13.22 4.153,25.972 8.329,38.407 2.112,6.289 4.101,12.877 6.711,18.968 l 0.9,1.947 0.57,-0.447 c -1.37,-14.118 -0.395,-28.628 -2.414,-42.619 -2.188,-15.165 -7.414,-29.771 -9.788,-44.99 z m 69.269,0.75 c -0.13,6.024 -0.133,12.172 -0.895,18.152 l -3.106,20.098 c -0.944,8.996 -0.541,18.178 -0.482,27.212 0.037,5.593 -0.456,11.486 0.152,17.031 0.932,-1.268 1.169,-2.048 1.475,-3.547 7.386,-26.508 12.845,-51.634 3.535,-78.617 z m -17.12,12.37 c -1.475,6.928 -2.872,13.856 -5.067,20.6 -1.934,5.937 -4.641,11.805 -6.42,17.659 l -5.507,12.81 -4.87,-35.51 c -7.125,18.514 -1.426,47.77 3.737,66.417 l 8.426,39.01 c 0.639,-14.74 0.863,-29.617 2.75,-44.262 3.38,-26.245 9.624,-49.944 6.951,-76.724 z m -95.916,12.037 c -4.517,15.314 -4.269,34.209 -4.338,50.153 -0.26,59.342 12.417,117.088 34.344,172.074 l 22.435,50.529 1.501,2.08 c 0.348,-3.003 -15.026,-44.702 -17.303,-52.128 L 459.456,469.662 C 450.228,428.492 442.301,386.27 438.388,344.25 Z m 165.345,27.343 -0.893,5.242 c -1.677,7.09 -1.879,15.25 -3.031,22.537 l -10.964,66.248 -18.532,99.72 c -3.968,20.961 -8.895,42.318 -11.345,63.51 -0.111,0.967 -0.082,2.132 0.449,2.993 L 569.275,541.5 c 8.352,-31.585 16.149,-63.416 21.486,-95.673 5.018,-30.331 7.752,-60.859 9.852,-91.506 l 1.164,-20.675 c 0.104,-1.96 0.773,-5.542 0.094,-7.35 z"
       id="path2-3" />
    <path
       transform="matrix(0.142578,0,0,0.142578,0,-7.62939e-6)"
       d="m 226.369,969.746 -0.624,-0.789 z"
       id="path3-1" />
    <path
       transform="matrix(0.142578,0,0,0.142578,0,-7.62939e-6)"
       d="m 225.07,1110.7 -0.593,0.72 z"
       id="path4-0" />
  </g>
  <g
     id="g2"
     transform="matrix(1.0002239,0,0,0.84912065,-190.5052,-143.42445)">
    <path
       fill="#af1613"
       d="m 461.16123,652.42104 c 2.56653,-3.12101 6.14616,-5.35639 10.22627,-5.76015 4.01835,-0.39765 7.92893,0.78519 11.04533,3.35574 3.22021,2.6563 5.20029,6.52172 5.58451,10.66457 0.37196,4.0101 -0.89963,8.14599 -3.47952,11.24073 l -23.33381,23.51814 -15.36322,-15.5709 3.63398,0.0134 11.69975,11.95503 c 0.24492,-0.17777 0.46411,-0.44137 0.67826,-0.65592 l 1.20217,-1.2047 4.25912,-4.24794 10.14427,-10.14134 3.0463,-3.04114 c 1.11112,-1.11234 2.22372,-2.16855 3.07867,-3.50103 1.88486,-2.93766 2.38752,-6.44509 1.65165,-9.83401 -0.74255,-3.4199 -2.74177,-6.34953 -5.69247,-8.24005 -2.64969,-1.69769 -5.9675,-2.41777 -9.0636,-1.7252 -4.12997,0.92379 -7.08392,3.61388 -9.28401,7.10435 l -0.0802,-0.037 z"
       id="path2-9"
       style="stroke-width:0.0681122" />
    <path
       fill="#e7342a"
       d="m 445.84079,679.86917 -7.69367,-7.87095 c -2.67216,-2.91792 -3.96793,-6.86188 -3.78279,-10.7901 0.18833,-3.99681 1.94793,-7.94344 4.92075,-10.64394 2.98617,-2.7125 6.8456,-4.12582 10.88008,-3.92074 3.32407,0.16892 6.65155,1.52388 9.12007,3.76203 0.44803,0.40617 0.88579,0.8318 1.28547,1.28596 0.20011,0.22742 0.36536,0.48407 0.56941,0.70693 l 0.0211,0.0227 -0.0465,3.89254 0.0802,0.037 c 2.20008,-3.49046 5.15403,-6.18054 9.284,-7.10434 3.09611,-0.69257 6.41392,0.0275 9.06361,1.7252 2.95067,1.89052 4.9499,4.82015 5.69247,8.24006 0.73588,3.38891 0.23322,6.89634 -1.65166,9.83401 -0.85493,1.33247 -1.96754,2.38868 -3.07866,3.50103 l -3.0463,3.04113 -10.14428,10.14134 -4.25911,4.24795 -1.20218,1.20469 c -0.21415,0.21456 -0.43334,0.47815 -0.67826,0.65594 l -11.69975,-11.95504 z"
       id="path3-4"
       style="stroke-width:0.0681122" />
    <path
       fill="#ef957e"
       d="m 442.91348,673.17642 -0.039,-0.0157 c -0.13541,-0.0683 -0.26993,-0.21592 -0.38334,-0.31924 l -0.89343,-0.864 c -0.51724,-0.50124 -1.07358,-0.9704 -1.56576,-1.49622 -1.16519,-1.24454 -2.07462,-2.86512 -2.62285,-4.4753 -1.07719,-3.16407 -0.87096,-6.77633 0.62309,-9.77584 1.49873,-3.00886 4.17874,-5.39938 7.37523,-6.47099 3.06614,-1.02787 6.42589,-0.79596 9.32835,0.64795 2.29545,1.14197 3.91154,2.81065 5.38488,4.87587 0.21843,0.30624 0.62737,0.74045 0.74357,1.08639 l -0.0331,-0.0227 c -0.62533,-0.43476 -1.17439,-0.94157 -1.82887,-1.34439 -2.6589,-1.63646 -5.88012,-2.19989 -8.94706,-1.66835 -3.19433,0.55362 -5.97622,2.40014 -7.82805,5.045 -1.83235,2.61707 -2.56081,6.11006 -1.99698,9.24621 0.35534,1.97675 1.26566,4.09605 2.6834,5.55126 z"
       id="path4-8"
       style="stroke-width:0.0681122" />
    <text
       xml:space="preserve"
       style="font-style:normal;font-variant:normal;font-weight:normal;font-stretch:normal;font-size:148.144px;font-family:Amiri;-inkscape-font-specification:'Amiri, Normal';font-variant-ligatures:normal;font-variant-caps:normal;font-variant-numeric:normal;font-variant-east-asian:normal;fill:#e8312c;fill-opacity:1;stroke:#000000;stroke-width:0.269287;stroke-dasharray:none;stroke-opacity:1;paint-order:markers fill stroke"
       x="529.0498"
       y="735.26105"
       id="text1-8"><tspan
         sodipodi:role="line"
         id="tspan1-2"
         x="529.0498"
         y="735.26105">Will:-1</tspan></text>
    <rect
       style="fill:#ef957e;fill-opacity:1;stroke:none;stroke-width:0.499792;paint-order:markers fill stroke"
       id="rect1-4"
       width="53.548679"
       height="2.2158067"
       x="434.49335"
       y="658.38293" />
    <path
       fill="#37b2df"
       d="m 451.8193,621.49996 c 9.12913,0.41534 11.10891,-0.10056 20.02396,0.10644 0.30265,2.94642 0.41682,5.84348 1.15743,8.73237 0.27275,1.06425 0.61602,2.21895 1.24563,3.13052 l 20.02884,5.67374 5.0134,1.3092 c 2.4174,0.5843 4.7771,1.07225 6.9577,2.33525 2.7378,1.58558 4.8963,4.10145 6.3336,6.89444 2.214,4.30246 2.235,9.22697 2.9408,13.91725 l -13.8195,6.29428 -1.7786,0.84889 c -0.3688,0.15858 -0.7997,0.27486 -1.1342,0.49022 l -0.7422,4.52128 -1.6516,7.02915 -2.98662,10.1381 -4.0143,11.95049 c -2.4754,8.25136 -3.13596,17.05139 -1.53106,25.53428 1.09839,5.80527 3.23882,11.34021 5.01966,16.95369 -0.16778,0.24465 -0.70284,0.45156 -0.97665,0.592 -1.38457,0.70679 -2.82743,1.29124 -4.29838,1.79263 -8.84685,3.01439 -17.89169,4.05946 -27.20701,3.88277 -10.17825,-0.19331 -20.3618,-1.88475 -29.56369,-6.40633 0.62054,-1.19912 1.09989,-2.52811 1.57137,-3.79519 l 2.35534,-7.14634 c 1.12315,-3.7982 2.08093,-7.66434 2.43099,-11.6196 1.0934,-12.35357 -4.13421,-23.93164 -7.99266,-35.33 -1.64403,-4.85611 -2.88845,-9.96094 -3.9983,-14.96369 l -0.45321,-2.97542 c -2.0761,-0.74983 -4.10025,-1.95633 -6.09102,-2.91955 l -10.46625,-5.06814 0.87396,-6.47174 c 1.06531,-6.33323 3.94665,-12.25872 10.16603,-14.85583 2.8019,-1.17013 6.02002,-1.80351 8.95663,-2.57946 l 14.12989,-3.98607 4.17907,-1.24714 c 1.00385,-0.30219 2.19661,-0.563 3.05049,-1.17011 1.8186,-3.50748 2.15855,-7.70241 2.27046,-11.59242 z"
       id="path5-5"
       sodipodi:nodetypes="ccccccccccccccccccccccccscccccccccccc"
       style="fill:none;stroke:#e8312c;stroke-width:2.63227;stroke-dasharray:none;stroke-opacity:1" />
    <path
       fill="#26A4D4"
       d="m 461.94295,697.78874 0.0784,0.0662 0.0552,43.01425 -0.1015,0.20348 c -0.15236,-1.15785 -0.11118,-2.40653 -0.14255,-3.57649 l -0.18045,-4.66046 -0.29976,-14.06493 0.27638,-11.09147 0.18543,-7.45781 c 0.0372,-0.81352 -0.019,-1.6279 0.12886,-2.43282 z"
       id="path6-5"
       style="fill:#e8312c;fill-opacity:1;stroke-width:0.121114" />
    <path
       fill="#26A4D4"
       d="m 498.70556,662.30772 c -0.1814,1.4787 -0.5573,2.95829 -0.9148,4.40314 -0.3709,1.49901 -0.7611,3.0717 -1.3682,4.49489 -0.4939,1.15757 -1.2068,2.27603 -1.8363,3.36681 -1.93611,3.35477 -3.88966,6.53748 -6.71934,9.23149 -3.79353,3.61168 -8.49658,5.38909 -13.72699,5.26891 l -0.0838,-0.0492 -0.0192,-0.0953 1.0028,-0.2745 c 5.57078,-1.49358 10.40469,-4.98147 13.94297,-9.50209 2.51006,-3.20692 4.46767,-6.85905 6.3643,-10.44982 z"
       id="path7-1"
       style="fill:#e8312c;fill-opacity:1;stroke-width:0.15484;stroke-dasharray:none" />
    <path
       fill="#26A4D4"
       d="m 423.26805,660.79202 c 0.32229,0.38209 0.50517,1.23929 0.69274,1.71833 l 1.42927,3.42003 c 1.01804,2.27621 2.08243,4.53564 3.32202,6.70114 3.66394,6.40014 8.63542,13.00945 15.92373,15.44257 1.08448,0.362 2.2851,0.68246 3.41777,0.84119 0.9762,0.13668 1.97309,0.15978 2.9268,0.41848 l -1.51732,0.11069 c -5.67932,0.26579 -11.36211,-1.78055 -15.56459,-5.59687 -3.96477,-3.60035 -6.4521,-8.3373 -8.33277,-13.28296 -1.16725,-3.06996 -2.14512,-6.47731 -2.29765,-9.77261 z"
       id="path8-7"
       style="fill:#e8312c;fill-opacity:1;stroke-width:0.151022" />
  </g>
</svg>
