<?xml version="1.0" encoding="UTF-8" standalone="no"?>
<svg
   width="63mm"
   height="88mm"
   version="1.1"
   id="svg21"
   sodipodi:docname="card-wound-fatigue.svg"
   viewBox="0 0 63 88"
   inkscape:version="1.4 (86a8ad7, 2024-10-11)"
   xmlns:inkscape="http://www.inkscape.org/namespaces/inkscape"
   xmlns:sodipodi="http://sodipodi.sourceforge.net/DTD/sodipodi-0.dtd"
   xmlns="http://www.w3.org/2000/svg"
   xmlns:svg="http://www.w3.org/2000/svg">
  <defs
     id="defs21" />
  <sodipodi:namedview
     id="namedview21"
     pagecolor="#ffffff"
     bordercolor="#000000"
     borderopacity="0.25"
     inkscape:showpageshadow="2"
     inkscape:pageopacity="0.0"
     inkscape:pagecheckerboard="0"
     inkscape:deskcolor="#d1d1d1"
     inkscape:document-units="mm"
     inkscape:zoom="1.1450489"
     inkscape:cx="78.162601"
     inkscape:cy="220.95126"
     inkscape:window-width="1350"
     inkscape:window-height="1040"
     inkscape:window-x="58"
     inkscape:window-y="0"
     inkscape:window-maximized="0"
     inkscape:current-layer="svg21" />
  <g
     id="body"
     transform="matrix(0.06442787,0,0,0.06442853,0.54434944,20.535389)">
    <path
       fill="#37b2df"
       d="m 283.17389,596.49529 c 7.29878,0.33206 8.88162,-0.0804 16.00924,0.0851 0.24196,2.35569 0.33325,4.67189 0.92537,6.98158 0.21806,0.85086 0.4925,1.77406 0.99588,2.50285 l 16.01311,4.53618 4.00828,1.04672 c 1.93273,0.46715 3.81933,0.85727 5.56272,1.86704 2.18883,1.26767 3.9146,3.27912 5.0637,5.51213 1.77008,3.43983 1.78687,7.37701 2.35122,11.1269 l -11.04878,5.03231 -1.42198,0.67869 c -0.29486,0.12678 -0.63934,0.21975 -0.90678,0.39192 l -0.59345,3.61479 -1.32044,5.61984 -2.38781,8.10544 -3.20945,9.55447 c -1.97909,6.59701 -2.50721,13.63264 -1.22409,20.41476 0.87817,4.64136 2.58945,9.06653 4.01324,13.55455 -0.13414,0.19564 -0.56192,0.36106 -0.78083,0.47331 -1.10697,0.56509 -2.26054,1.03232 -3.43657,1.43319 -7.0731,2.41002 -14.30448,3.24558 -21.75211,3.10431 -8.13756,-0.15454 -16.27934,-1.50682 -23.6363,-5.12186 0.49613,-0.95869 0.87937,-2.02123 1.25632,-3.03428 l 1.8831,-5.71358 c 0.89796,-3.03667 1.66371,-6.12763 1.94359,-9.28991 0.87418,-9.87668 -3.30531,-19.13342 -6.39017,-28.24646 -1.3144,-3.88248 -2.30932,-7.96381 -3.19666,-11.96352 l -0.36234,-2.37887 c -1.65985,-0.59948 -3.27817,-1.56409 -4.86979,-2.33418 l -8.36781,-4.052 0.69873,-5.17419 c 0.85173,-5.06344 3.15536,-9.80089 8.12778,-11.8773 2.24013,-0.93552 4.81304,-1.44191 7.16087,-2.06228 l 11.29691,-3.18688 3.34118,-0.99709 c 0.80258,-0.24161 1.7562,-0.45013 2.43888,-0.93551 1.45398,-2.80425 1.72577,-6.15811 1.81524,-9.2682 z"
       id="path5-3"
       sodipodi:nodetypes="ccccccccccccccccccccccccscccccccccccc"
       style="fill:none;stroke:#000000;stroke-width:2.10451;stroke-dasharray:none;stroke-opacity:1" />
    <path
       fill="#26A4D4"
       d="m 291.26778,657.48848 0.0627,0.0529 0.0441,34.39004 -0.0811,0.1627 c -0.12182,-0.92567 -0.0889,-1.92401 -0.11397,-2.85943 l -0.14428,-3.72601 -0.23966,-11.24502 0.22097,-8.86765 0.14825,-5.96255 c 0.0297,-0.65042 -0.0152,-1.30151 0.10303,-1.94505 z"
       id="path6-7"
       style="fill:#6f838b;fill-opacity:1;stroke-width:0.0990362;stroke-dasharray:none" />
    <path
       fill="#26A4D4"
       d="m 320.65964,629.12126 c -0.14503,1.18222 -0.44555,2.36517 -0.73139,3.52033 -0.29654,1.19846 -0.60848,2.45583 -1.09383,3.59369 -0.39492,0.92548 -0.96492,1.81969 -1.46818,2.69177 -1.54792,2.68216 -3.10979,5.22674 -5.37214,7.38061 -3.03293,2.88755 -6.79305,4.3086 -10.97477,4.21251 l -0.067,-0.0393 -0.0154,-0.0762 0.80173,-0.21946 c 4.45387,-1.19413 8.3186,-3.98271 11.14747,-7.59696 2.0068,-2.56394 3.57192,-5.48384 5.08832,-8.35467 z"
       id="path7-7"
       style="fill:#768084;fill-opacity:1;stroke-width:0.123795;stroke-dasharray:none" />
    <path
       fill="#26A4D4"
       d="m 260.34705,627.90946 c 0.25767,0.30548 0.40388,0.99081 0.55385,1.37381 l 1.14271,2.73433 c 0.81392,1.81983 1.66491,3.62625 2.65596,5.35758 2.92933,5.11694 6.90406,10.40111 12.73109,12.34639 0.86705,0.28943 1.82695,0.54564 2.73252,0.67255 0.78048,0.10927 1.5775,0.12774 2.33998,0.33457 l -1.21309,0.0885 c -4.54064,0.21251 -9.08406,-1.42355 -12.44396,-4.47471 -3.16985,-2.8785 -5.15847,-6.66571 -6.66209,-10.61978 -0.93322,-2.45445 -1.71502,-5.17864 -1.83697,-7.81324 z"
       id="path8-0"
       style="fill:#6c858e;fill-opacity:1;stroke-width:0.120743" />
    <text
       xml:space="preserve"
       style="font-style:normal;font-variant:normal;font-weight:normal;font-stretch:normal;font-size:113.547px;font-family:Amiri;-inkscape-font-specification:'Amiri, Normal';font-variant-ligatures:normal;font-variant-caps:normal;font-variant-numeric:normal;font-variant-east-asian:normal;fill:#000000;fill-opacity:1;stroke:none;stroke-width:0.215296;stroke-dasharray:none;stroke-opacity:1;paint-order:markers fill stroke"
       x="339.74225"
       y="684.15222"
       id="text1"><tspan
         sodipodi:role="line"
         id="tspan1"
         x="339.74225"
         y="684.15222">Body:-1</tspan></text>
    <path
       id="rect1"
       d="m 282.50527,648.92026 h 17.61435 l -5.26564,1.30119 -0.49288,12.72354 -7.11349,-0.0649 -0.0833,-12.65856 z"
       sodipodi:nodetypes="ccccccc"
       style="stroke-width:2.53663" />
    <path
       style="fill:#000000;fill-opacity:1;stroke-width:2.10969"
       id="path2-6-0"
       sodipodi:type="arc"
       sodipodi:cx="291.00009"
       sodipodi:cy="624.9527"
       sodipodi:rx="8.5723772"
       sodipodi:ry="8.5723772"
       sodipodi:start="0.027304543"
       sodipodi:end="6.2831853"
       sodipodi:open="true"
       sodipodi:arc-type="arc"
       d="m 299.56927,625.18673 a 8.5723772,8.5723772 0 0 1 -8.74471,8.33655 8.5723772,8.5723772 0 0 1 -8.39605,-8.68761 8.5723772,8.5723772 0 0 1 8.6301,-8.45515 8.5723772,8.5723772 0 0 1 8.51386,8.57218" />
    <path
       style="fill:#000000;fill-opacity:1;stroke-width:2.10969"
       id="path2-6-0-7"
       sodipodi:type="arc"
       sodipodi:cx="282.51749"
       sodipodi:cy="640.08997"
       sodipodi:rx="8.5723772"
       sodipodi:ry="8.5723772"
       sodipodi:start="0.027304543"
       sodipodi:end="6.2831853"
       sodipodi:open="true"
       sodipodi:arc-type="arc"
       d="m 291.08667,640.324 a 8.5723772,8.5723772 0 0 1 -8.74472,8.33655 8.5723772,8.5723772 0 0 1 -8.39604,-8.68761 8.5723772,8.5723772 0 0 1 8.63009,-8.45515 8.5723772,8.5723772 0 0 1 8.51386,8.57218" />
    <path
       style="fill:#000000;fill-opacity:1;stroke-width:2.10969"
       id="path2-6-0-9"
       sodipodi:type="arc"
       sodipodi:cx="299.66608"
       sodipodi:cy="640.08997"
       sodipodi:rx="8.5723772"
       sodipodi:ry="8.5723772"
       sodipodi:start="0.027304543"
       sodipodi:end="6.2831853"
       sodipodi:open="true"
       sodipodi:arc-type="arc"
       d="m 308.23526,640.324 a 8.5723772,8.5723772 0 0 1 -8.74472,8.33655 8.5723772,8.5723772 0 0 1 -8.39604,-8.68761 8.5723772,8.5723772 0 0 1 8.63009,-8.45515 8.5723772,8.5723772 0 0 1 8.51386,8.57218" />
    <path
       sodipodi:type="star"
       style="fill:#000000"
       id="path1"
       inkscape:flatsided="false"
       sodipodi:sides="3"
       sodipodi:cx="-4.2679658"
       sodipodi:cy="5.2618756"
       sodipodi:r1="0.76004869"
       sodipodi:r2="0.33594152"
       sodipodi:arg1="1.5707963"
       sodipodi:arg2="2.6179939"
       inkscape:rounded="0"
       inkscape:randomized="0"
       d="m -4.2679658,6.0219243 -0.2909339,-0.5920779 -0.3672876,-0.5479951 0.6582215,0.044083 0.6582215,-0.044083 -0.3672876,0.5479951 z"
       inkscape:transform-center-y="0.21087664"
       transform="matrix(4.5466021,0,0,4.5466021,310.29061,582.85793)" />
    <path
       sodipodi:type="star"
       style="fill:#000000"
       id="path1-7"
       inkscape:flatsided="false"
       sodipodi:sides="3"
       sodipodi:cx="-4.2679658"
       sodipodi:cy="5.2618756"
       sodipodi:r1="0.76004869"
       sodipodi:r2="0.33594152"
       sodipodi:arg1="1.5707963"
       sodipodi:arg2="2.6179939"
       inkscape:rounded="0"
       inkscape:randomized="0"
       d="m -4.2679658,6.0219243 -0.2909339,-0.5920779 -0.3672876,-0.5479951 0.6582215,0.044083 0.6582215,-0.044083 -0.3672876,0.5479951 z"
       inkscape:transform-center-y="-0.1986054"
       transform="matrix(2.1410252,4.0109351,-4.0109351,2.1410252,320.82082,620.19352)"
       inkscape:transform-center-x="0.014034468" />
    <path
       sodipodi:type="star"
       style="fill:#000000"
       id="path1-9"
       inkscape:flatsided="false"
       sodipodi:sides="3"
       sodipodi:cx="-4.2679658"
       sodipodi:cy="5.2618756"
       sodipodi:r1="0.76004869"
       sodipodi:r2="0.33594152"
       sodipodi:arg1="1.5707963"
       sodipodi:arg2="2.6179939"
       inkscape:rounded="0"
       inkscape:randomized="0"
       d="m -4.2679658,6.0219243 -0.2909339,-0.5920779 -0.3672876,-0.5479951 0.6582215,0.044083 0.6582215,-0.044083 -0.3672876,0.5479951 z"
       inkscape:transform-center-y="0.0047987713"
       transform="matrix(-0.05177666,-4.5463077,4.5463077,-0.05177666,263.24506,591.48829)"
       inkscape:transform-center-x="-0.2066996" />
    <path
       sodipodi:type="star"
       style="fill:#000000"
       id="path1-5"
       inkscape:flatsided="false"
       sodipodi:sides="3"
       sodipodi:cx="-4.2679658"
       sodipodi:cy="5.2618756"
       sodipodi:r1="0.76004869"
       sodipodi:r2="0.33594152"
       sodipodi:arg1="1.5707963"
       sodipodi:arg2="2.6179939"
       inkscape:rounded="0"
       inkscape:randomized="0"
       d="m -4.2679658,6.0219243 -0.2909339,-0.5920779 -0.3672876,-0.5479951 0.6582215,0.044083 0.6582215,-0.044083 -0.3672876,0.5479951 z"
       inkscape:transform-center-y="0.024724087"
       transform="matrix(-0.26655543,4.5387818,-4.5387818,-0.26655543,316.77845,631.68679)"
       inkscape:transform-center-x="0.18910257" />
  </g>
  <path
     fill="#FEFEFE"
     d="m 19.935174,36.200443 c 0.02888,-0.0013 -0.0123,-0.01541 0.01111,0.0046 0.02905,0.02491 0.08752,0.188909 0.09893,0.223942 l 0.04267,0.123958 0.254362,0.615291 0.214355,0.439984 0.579743,1.061711 c 0.166277,0.305245 0.333875,0.613335 0.468351,0.934217 0.112672,0.268859 0.214952,0.548906 0.271942,0.835338 0.01385,0.06962 0.02814,0.141857 0.03043,0.212871 0.0017,0.05407 -0.0046,0.108266 -0.0091,0.162044 -0.03552,0.418483 -0.218463,0.842164 -0.507513,1.148767 -0.107485,0.114022 -0.224811,0.216269 -0.355643,0.302721 -0.310492,0.205171 -0.678337,0.313832 -1.049207,0.324451 -0.240449,5.85e-4 -0.479867,-0.03537 -0.707134,-0.116164 -0.478955,-0.170281 -0.892655,-0.538885 -1.109347,-0.999525 -0.149563,-0.31794 -0.217238,-0.682869 -0.161429,-1.031975 0.02618,-0.163806 0.07532,-0.322085 0.132744,-0.47728 0.07912,-0.213818 0.175738,-0.42194 0.274854,-0.627164 l 0.396186,-0.771382 0.557952,-1.030628 c 0.137928,-0.270519 0.264533,-0.545376 0.372903,-0.829074 l 0.0878,-0.243311 0.03556,-0.111442 c 0.01019,-0.02731 0.04407,-0.140633 0.06951,-0.152045 z"
     id="path2-5"
     style="fill:none;fill-opacity:1;stroke:#000000;stroke-width:0.234182;stroke-dasharray:none;stroke-opacity:1"
     sodipodi:nodetypes="cscccccssccsscssssccccccc" />
  <path
     fill="#29b5e6"
     d="m 20.460778,38.546567 c 0.06688,0.145122 0.432394,0.614155 0.383394,0.886726 -0.02426,0.134985 -0.03931,0.153002 -0.115569,0.235948 -0.06787,0.07381 -0.165287,0.11029 -0.263711,0.114048 -0.07119,0.0024 -0.140525,-0.01835 -0.201029,-0.05538 -0.09062,-0.05548 -0.155041,-0.148517 -0.179215,-0.251339 -0.06876,-0.292402 0.306974,-0.774409 0.376128,-0.92999 z"
     id="path3-7"
     style="fill:none;fill-opacity:1;stroke:#000000;stroke-width:0.185229;stroke-dasharray:none;stroke-opacity:1"
     sodipodi:nodetypes="csscccc" />
  <path
     fill="#fefefe"
     d="m 20.150309,39.302692 c 0.0015,0.0071 9.5e-4,0.01257 5.03e-4,0.0197 -0.0066,0.104641 0.01761,0.201403 0.08821,0.280642 0.06425,0.07213 0.149403,0.101293 0.243724,0.106268 l -0.003,0.0033 c -0.02875,-1.15e-4 -0.05886,1.7e-4 -0.08699,-0.0061 -0.02632,-0.0058 -0.05128,-0.01191 -0.076,-0.02307 -0.07115,-0.03212 -0.129197,-0.0894 -0.156787,-0.163023 -0.01962,-0.05238 -0.02609,-0.113771 -0.01952,-0.169138 0.0019,-0.01593 0.0033,-0.03382 0.0099,-0.04852 z"
     id="path4-6"
     style="fill:#000000;fill-opacity:1;stroke-width:0.00620939" />
  <path
     fill="#29b5e6"
     d="m 19.60561,40.140719 c 0.09562,0.207463 0.618139,0.877981 0.54809,1.267641 -0.03469,0.192972 -0.05619,0.21873 -0.165211,0.337306 -0.09702,0.105514 -0.236289,0.157662 -0.376994,0.163032 -0.10177,0.0034 -0.200891,-0.02624 -0.287386,-0.07919 -0.129541,-0.0793 -0.221643,-0.212317 -0.256201,-0.359308 -0.0983,-0.418012 0.438841,-1.107074 0.537702,-1.32949 z"
     id="path3-7-6"
     style="fill:none;fill-opacity:1;stroke:#000000;stroke-width:0.207721;stroke-dasharray:none;stroke-opacity:1"
     sodipodi:nodetypes="csscccc" />
  <path
     fill="#fefefe"
     d="m 19.161772,41.221657 c 0.002,0.01019 0.0013,0.01803 7.18e-4,0.02815 -0.0095,0.149583 0.02519,0.287921 0.126101,0.401197 0.09186,0.10312 0.213583,0.1448 0.348422,0.15191 l -0.0045,0.0046 c -0.04109,-1.64e-4 -0.08415,2.74e-4 -0.124367,-0.0087 -0.03763,-0.0085 -0.07331,-0.01704 -0.10865,-0.033 -0.101717,-0.04592 -0.18469,-0.127794 -0.224139,-0.233051 -0.02806,-0.07489 -0.03731,-0.162643 -0.02789,-0.241798 0.0026,-0.02278 0.0046,-0.04834 0.01424,-0.06936 z"
     id="path4-6-6"
     style="fill:#000000;fill-opacity:1;stroke-width:0.00887683" />
  <text
     xml:space="preserve"
     style="font-style:normal;font-variant:normal;font-weight:normal;font-stretch:normal;font-size:7.31563px;font-family:Amiri;-inkscape-font-specification:'Amiri, Normal';font-variant-ligatures:normal;font-variant-caps:normal;font-variant-numeric:normal;font-variant-east-asian:normal;fill:#000000;fill-opacity:1;stroke:none;stroke-width:0.0138711;stroke-dasharray:none;stroke-opacity:1;paint-order:markers fill stroke"
     x="22.932367"
     y="41.957424"
     id="text1-3"><tspan
       sodipodi:role="line"
       id="tspan2"
       x="22.932367"
       y="41.957424">Fatigue</tspan></text>
</svg>
