<?xml version="1.0" encoding="UTF-8" standalone="no"?>
<svg
   width="63mm"
   height="88mm"
   version="1.1"
   id="svg49"
   sodipodi:docname="card-fate-strong-block.svg"
   inkscape:version="1.3.2 (091e20e, 2023-11-25, custom)"
   viewBox="0 0 238.11054 332.59885"
   xml:space="preserve"
   xmlns:inkscape="http://www.inkscape.org/namespaces/inkscape"
   xmlns:sodipodi="http://sodipodi.sourceforge.net/DTD/sodipodi-0.dtd"
   xmlns="http://www.w3.org/2000/svg"
   xmlns:svg="http://www.w3.org/2000/svg"><sodipodi:namedview
     id="namedview49"
     pagecolor="#ffffff"
     bordercolor="#000000"
     borderopacity="0.25"
     inkscape:showpageshadow="2"
     inkscape:pageopacity="0.0"
     inkscape:pagecheckerboard="0"
     inkscape:deskcolor="#d1d1d1"
     inkscape:zoom="1.8488365"
     inkscape:cx="-24.339632"
     inkscape:cy="194.17618"
     inkscape:window-width="1904"
     inkscape:window-height="1001"
     inkscape:window-x="39"
     inkscape:window-y="26"
     inkscape:window-maximized="0"
     inkscape:current-layer="svg49"
     inkscape:document-units="mm" /><defs
     id="defs17"><linearGradient
       id="gradient_0"
       gradientUnits="userSpaceOnUse"
       x1="787.83301"
       y1="417.13614"
       x2="896.2948"
       y2="336.46844"><stop
         offset="0"
         stop-color="#167F8A"
         id="stop16" /><stop
         offset="1"
         stop-color="#159BA9"
         id="stop17" /></linearGradient><linearGradient
       id="gradient_0-2"
       gradientUnits="userSpaceOnUse"
       x1="439.11206"
       y1="464.522"
       x2="373.02579"
       y2="386.0676"><stop
         offset="0"
         stop-color="#FEA902"
         id="stop24-7" /><stop
         offset="1"
         stop-color="#FEC100"
         id="stop25-8" /></linearGradient><linearGradient
       id="gradient_0-8"
       gradientUnits="userSpaceOnUse"
       x1="505.63708"
       y1="183.79691"
       x2="171.41376"
       y2="155.43059"><stop
         offset="0"
         stop-color="#EEA800"
         id="stop3" /><stop
         offset="1"
         stop-color="#FEF49E"
         id="stop4" /></linearGradient><linearGradient
       id="gradient_1-2"
       gradientUnits="userSpaceOnUse"
       x1="297.28619"
       y1="286.58209"
       x2="163.5318"
       y2="635.06488"><stop
         offset="0"
         stop-color="#BE8500"
         id="stop5" /><stop
         offset="1"
         stop-color="#FFEA5F"
         id="stop6" /></linearGradient><linearGradient
       id="gradient_2"
       gradientUnits="userSpaceOnUse"
       x1="690.96869"
       y1="886.34503"
       x2="530.02826"
       y2="327.17783"><stop
         offset="0"
         stop-color="#936602"
         id="stop7" /><stop
         offset="1"
         stop-color="#E6AB0B"
         id="stop8" /></linearGradient><linearGradient
       id="gradient_0-6"
       gradientUnits="userSpaceOnUse"
       x1="756.237"
       y1="543.65344"
       x2="570.92169"
       y2="327.42014"><stop
         offset="0"
         stop-color="#9650B5"
         id="stop1" /><stop
         offset="1"
         stop-color="#B262D0"
         id="stop2" /></linearGradient><linearGradient
       id="gradient_1-21"
       gradientUnits="userSpaceOnUse"
       x1="431.04391"
       y1="954.88794"
       x2="538.14734"
       y2="89.44886"><stop
         offset="0"
         stop-color="#002757"
         id="stop3-8"
         style="stop-color:#000000;stop-opacity:1;" /><stop
         offset="1"
         stop-color="#4B448F"
         id="stop4-0" /></linearGradient></defs><defs
     id="defs25"><linearGradient
       id="gradient_1"
       gradientUnits="userSpaceOnUse"
       x1="567.4491"
       y1="699.04437"
       x2="868.41522"
       y2="779.63495"><stop
         offset="0"
         stop-color="#176366"
         id="stop24"
         style="stop-color:#000000;stop-opacity:1;" /><stop
         offset="1"
         stop-color="#157C89"
         id="stop25" /></linearGradient></defs><g
     id="g55"
     transform="matrix(1.4262461,0,0,1.4262461,74.67673,182.14661)"
     style="stroke-width:0.999547;stroke-dasharray:none"><path
       transform="matrix(0.0546875,0,0,0.0546875,3.05176e-5,-7.62939e-6)"
       d="m 511.976,48.617 29.979,33.7115 C 612.81,154.259 705.12,200.357 803.75,219.654 c 24.25,4.744 49.978,8.799 74.745,9.012 l -0.144,104.884 0.191,43.15 -0.156,22.871 c -4.246,79.493 -21.472,159.16 -50.057,233.412 -12.574,32.662 -27.91,65.33 -45.871,95.392 -21.108,35.331 -46.073,67.968 -73.843,98.313 l -28.136,29.506 C 632.091,903.008 573.98,943.593 512.417,970.983 L 477,953.928 C 436.764,932.234 399.776,905.566 365.134,875.814 336.21,850.972 309.505,822.005 285.984,792 L 256.622,751.882 C 206.18,675.484 173.181,587.779 157.062,497.814 151.44,466.44 148.184,435.068 145.807,403.311 144.132,380.93 144.576,358.348 144.532,335.916 L 144.48,230.884 c 0,-0.356 -0.251,-0.813 -0.002,-1.068 0.842,-0.866 24.764,-2.634 28.275,-2.993 36.612,-3.743 72.837,-11.373 107.997,-22.191 74.414,-22.893 144.125,-64.428 199.021,-119.6331 11.523,-11.5882 21.594,-24.031 32.205,-36.3819 z"
       id="path2"
       style="fill:none;stroke:#000000;stroke-width:18.2774;stroke-dasharray:none;stroke-opacity:0.193598" /><path
       fill="#fefefe"
       transform="matrix(0.0546875,0,0,0.0546875,3.05176e-5,-7.62939e-6)"
       d="m 510.285,159.691 c 1.863,-0.148 3.731,0.021 5.588,0.196 l 1.377,0.15 c 3.14,0.413 6.526,1.31 9.31,2.813 3.445,1.859 6.666,4.48 9.866,6.739 l 16.944,11.567 c 20.639,13.484 41.69,26.515 63.461,38.096 39.308,20.909 81.013,37.998 124.113,49.313 l 32.806,7.622 c 6.674,1.364 13.76,2.274 20.243,4.308 7.523,2.361 13.937,8.551 17.359,15.588 3.744,7.699 2.878,15.769 2.842,24.054 l 0.016,20.351 -0.219,48.702 c -2.109,61.41 -11.535,122.811 -31.477,181.06 -12.055,35.21 -26.932,69.893 -45.183,102.342 -15.767,28.034 -34.159,54.576 -54.252,79.661 -33.849,42.257 -72.522,79.756 -116.888,110.885 -16.727,11.736 -34.502,23.107 -52.861,32.112 l -1.83,0.284 c -8.417,-3.729 -16.261,-8.45 -24.126,-13.205 -14.604,-8.828 -28.525,-18.411 -42.219,-28.591 -55.7,-41.409 -104.993,-93.331 -142.102,-152.052 -46.095,-72.94 -73.981,-156.421 -86.489,-241.532 -6.025,-40.996 -8.095,-81.793 -8.085,-123.199 0.003,-10.39 -1.035,-22.183 0.665,-32.393 0.821,-4.935 2.919,-10.358 6.013,-14.34 3.233,-4.16 7.883,-7.901 12.733,-9.997 3.627,-1.568 7.652,-2.038 11.521,-2.675 l 15.029,-2.715 41.637,-9.995 c 48.594,-13.933 96.238,-34.787 139.554,-60.835 l 37.869,-23.999 15.495,-10.92 c 3.283,-2.336 6.576,-4.931 10.183,-6.74 3.552,-1.781 7.225,-2.225 11.107,-2.655 z"
       id="path3"
       style="fill:none;stroke:#000000;stroke-width:18.2774;stroke-dasharray:none;stroke-opacity:0.193598" /></g><path
     fill="#020102"
     d="m 124.97147,61.502243 c 2.8022,-0.07032 5.60362,-0.159616 8.40421,-0.267892 1.49317,-0.05092 3.01981,-0.169813 4.5102,-0.144262 0.32715,0.0056 0.71102,0.0096 1.01294,0.123227 0.73741,0.277584 4.53826,2.635468 5.10888,3.17682 0.20459,0.194051 0.34901,0.36588 0.3978,0.630636 0.25157,1.364656 0.016,3.624091 -0.0284,5.098875 l -0.18933,7.906041 c -0.0305,0.887021 -0.21485,1.930945 -1.02629,2.550522 -0.34423,0.263026 -0.8982,0.334905 -1.34168,0.38926 -0.82104,0.100525 -1.6722,0.115999 -2.50025,0.157798 -1.72176,0.0822 -3.44413,0.15183 -5.16715,0.20874 -1.67531,0.0638 -3.40795,0.25695 -5.07992,0.18787 -0.11057,0.39072 -0.20984,0.73097 -0.50361,1.05603 -0.27476,0.30378 -0.64992,0.51122 -1.07635,0.61532 -0.87238,0.21285 -1.93687,0.1113 -2.84153,0.12859 -0.93124,0.02 -1.81283,0.0268 -2.74016,0.1035 0.20329,2.12728 0.15532,2.62566 0.21489,4.55204 l 0.10994,10.89972 -0.44684,28.412562 0.076,13.52492 c -0.0858,5.15094 -0.0962,6.94798 -0.48945,12.58451 l -3.00043,1.37508 c -2.64948,0.58072 -3.44617,0.56392 -6.498,-0.80371 l -1.33613,-3.52192 c -0.13344,-1.79494 -0.65994,-15.03562 -0.65795,-17.02057 l -0.1413,-12.0942 -0.0233,-18.7624 0.55659,-12.666002 c 0.0567,-1.57819 0.28305,-4.42725 -0.17564,-5.86302 -0.53806,0.02 -1.09748,0.0832 -1.63081,-3.5e-4 -1.41102,-0.22127 -2.33708,-0.94011 -3.98434,-1.02968 -1.2283,-0.0669 -2.52125,0.0581 -3.75454,0.10367 -2.953437,0.10918 -5.905082,0.27801 -8.859372,0.35987 -1.25805,0.0349 -2.17181,0.52618 -5.16671,0.002 -1.37843,-1.39161 -2.00321,-2.03794 -3.39881,-6.922543 -0.37271,-5.064575 0.0403,-4.808302 0.0706,-5.933625 0.54676,-2.541633 0.88085,-4.971061 2.65767,-6.914293 0.28626,-0.295198 0.63611,-0.538704 1.06878,-0.640426 1.28094,-0.301086 2.85537,-0.191396 4.18253,-0.248136 l 7.912695,-0.313866 c 1.414867,-0.05253 2.847937,-0.05871 4.257867,-0.170307 0.5603,-0.415607 1.19346,-0.855924 1.93019,-0.995366 1.41797,-0.268198 3.87887,-0.208613 5.43831,-0.290723 l 7.79705,-0.396017 c 1.35475,-0.06703 2.72378,-0.195345 4.08087,-0.176065 0.91227,0.01305 1.66123,0.48069 2.27026,1.02832 z"
     id="path2-9"
     sodipodi:nodetypes="ccccccccccccccccccccccccccccccccscccccccccccccc"
     style="fill:#020102;fill-opacity:0.198171;stroke-width:0.131892" /><path
     fill="#fef796"
     d="m 141.49465,62.997567 q 1.12136,0.676084 2.19766,1.405727 c -1.13507,0.08029 -2.29509,0.0519 -3.4357,0.108062 q -5.23306,0.300224 -10.47066,0.532495 c -0.31162,-1.190325 -1.36939,-1.636263 -2.45161,-2.260793 -0.57142,-0.352142 -1.23418,-0.35947 -1.90702,-0.357994 l -0.34308,-0.719781 c 2.3811,-0.09638 4.76435,-0.142744 7.14611,-0.226545 1.29704,-0.04556 5.36469,-0.34188 6.36997,-0.120302 0.76922,0.169469 2.16546,1.211325 2.89433,1.639131 z"
     id="path3-3"
     style="fill:#ffffff;fill-opacity:1;stroke-width:0.131892" /><path
     fill="#fef796"
     d="m 127.05836,62.782655 c 0.64331,0.358324 1.25495,0.79381 1.86894,1.191289 -2.08769,0.11325 -4.17425,0.160614 -6.26181,0.256257 l -12.16052,0.56767 c -0.44166,0.01923 -2.69565,0.243715 -2.92295,0.197874 -0.33223,-0.06699 -0.99938,-0.712273 -1.2898,-0.933037 -0.80548,-0.612249 -1.66156,-1.193693 -2.57069,-1.685014 0.4951,-0.343414 1.05062,-0.692755 1.67325,-0.823022 1.43013,-0.299336 3.12669,-0.197271 4.60186,-0.265644 l 9.55179,-0.47657 c 1.24479,-0.03085 2.86693,-0.370771 4.0464,0.06312 0.28417,0.104521 0.55226,0.296233 0.80172,0.453781 -4.38622,0.165251 -8.80131,0.350266 -13.1777,0.643172 -1.43571,0.09599 -2.94414,0.0508 -4.35473,0.310431 0.38343,0.509054 0.79062,0.873622 1.32927,1.260304 q 7.28918,-0.221563 14.5676,-0.630002 c 1.14587,-0.05714 2.29671,-0.295809 3.43611,-0.322868 0.30391,-0.0072 0.5824,0.09838 0.86129,0.192223 z"
     id="path4-6"
     style="fill:#ffffff;fill-opacity:1;stroke-width:0.131892" /><path
     fill="#fef796"
     d="m 104.29201,62.853987 c 1.0382,0.635012 2.38217,1.431731 3.14689,2.31059 0.007,0.127359 0.002,0.198913 -0.097,0.307094 -0.0925,0.100642 -0.26955,0.154573 -0.41044,0.17517 -0.52813,0.07737 -1.1347,0.03966 -1.67471,0.06805 -1.44354,0.07596 -2.87933,0.163441 -4.32513,0.21454 l -10.023672,0.431595 -0.34626,-0.432008 c -0.90398,-1.228131 -1.83656,-2.017547 -3.32495,-2.692123 0.0417,-0.0091 0.0832,-0.01861 0.12489,-0.02705 0.92896,-0.186815 1.9974,-0.131913 2.95337,-0.165696 l 4.84453,-0.186384 5.773402,-0.22278 c 0.84361,-0.03194 1.75941,-0.133347 2.59996,-0.09775 0.27268,0.01163 0.53242,0.190663 0.75915,0.316749 z"
     id="path5"
     style="fill:#ffffff;fill-opacity:1;stroke-width:0.131892" /><path
     fill="#a13be1"
     d="m 87.639458,63.570711 c 1.26394,0.68614 2.56619,1.787469 3.12711,3.011228 0.86927,1.896087 0.45198,8.809829 0.36175,11.177406 -0.0472,1.239957 -0.003,2.526486 -0.18809,3.755533 -0.0711,0.4716 -0.20605,0.87098 -0.42936,1.30376 -0.71942,0.50967 -1.41547,0.54568 -2.30227,0.56726 -0.27756,-0.0193 -0.559,-0.0345 -0.822,-0.12072 -1.07258,-0.35161 -1.78584,-1.55441 -2.20612,-2.421072 -2.11588,-4.363869 -1.98781,-11.129122 0.0681,-15.471393 0.29393,-0.620801 0.77149,-1.694763 1.55862,-1.940524 0.313,-0.09773 0.55431,0.02311 0.8323,0.138522 z"
     id="path6"
     style="fill:#ffffff;fill-opacity:1;stroke-width:0.131892" /><path
     fill="#fd898a"
     d="m 121.51691,83.486068 c 0.33066,3.09642 -0.01,6.92544 -0.0495,9.74192 -0.0159,1.13672 0.16401,3.0701 -0.0443,4.10777 l -0.3729,33.980962 c -0.0125,0.2877 -0.01,0.58281 -0.0438,0.86882 0.0655,0.7223 0.077,1.55399 0.0282,2.27812 0.10199,1.32761 0.0393,2.65645 0.0378,3.986 0.0103,2.00408 0.005,4.0081 -0.0159,6.01206 -0.005,2.13708 0.0259,4.26886 -0.0593,6.40541 -0.0316,0.78905 -0.0106,1.65051 -0.17481,2.42741 -0.18536,0.0972 -0.39359,0.2317 -0.59448,0.29635 -1.06962,0.46926 -2.22632,0.80625 -3.43267,0.82897 -0.31338,0.0141 -1.33683,0.13196 -1.57193,-0.0599 -0.012,-0.01 -0.0194,-0.0234 -0.0292,-0.035 -0.0833,0.0619 -0.17908,0.0678 -0.28359,0.0905 -0.19776,-0.0602 -0.23348,-0.10634 -0.33541,-0.26984 -0.0137,-0.0219 -0.0262,-0.0442 -0.0393,-0.0663 l -0.0787,0.15924 c -0.12797,0.055 -0.19946,0.0383 -0.33876,0.031 -0.22359,-0.0848 -0.30128,-0.21247 -0.43099,-0.38781 -0.0707,-0.0955 -0.0201,-0.0636 -0.13921,-0.0972 l -0.0365,0.16032 c -0.25885,-0.0258 -0.60049,-0.34774 -0.80324,-0.49447 0.0363,-0.29076 0.0778,-0.56105 0.0299,-0.85312 l -0.11817,0.74268 c -0.0663,-0.0788 -0.13047,-0.1588 -0.19253,-0.24005 -0.53956,-0.71196 -1.08596,-2.54511 -0.86622,-3.47545 -1.09903,-19.78506 -0.8513,-26.89666 -0.42445,-62.937602 -0.0326,-0.33115 -0.19672,-2.55795 0.0577,-2.81964 l 4.3869,-0.21684 z"
     id="path36"
     style="fill:#ffffff;fill-opacity:1;stroke-width:0.131892"
     sodipodi:nodetypes="cccccccccccccccccccsccccccccccc" /></svg>
