<?xml version="1.0" encoding="UTF-8" standalone="no"?>
<svg
   width="63mm"
   height="88mm"
   version="1.1"
   id="svg49"
   sodipodi:docname="card-fate-focus-evade.svg"
   inkscape:version="1.3.2 (091e20e, 2023-11-25, custom)"
   viewBox="0 0 238.11054 332.59885"
   xml:space="preserve"
   xmlns:inkscape="http://www.inkscape.org/namespaces/inkscape"
   xmlns:sodipodi="http://sodipodi.sourceforge.net/DTD/sodipodi-0.dtd"
   xmlns="http://www.w3.org/2000/svg"
   xmlns:svg="http://www.w3.org/2000/svg"><sodipodi:namedview
     id="namedview49"
     pagecolor="#ffffff"
     bordercolor="#000000"
     borderopacity="0.25"
     inkscape:showpageshadow="2"
     inkscape:pageopacity="0.0"
     inkscape:pagecheckerboard="0"
     inkscape:deskcolor="#d1d1d1"
     inkscape:zoom="1.8488365"
     inkscape:cx="65.176124"
     inkscape:cy="194.44661"
     inkscape:window-width="1920"
     inkscape:window-height="1017"
     inkscape:window-x="-8"
     inkscape:window-y="-8"
     inkscape:window-maximized="1"
     inkscape:current-layer="svg49"
     inkscape:document-units="mm" /><defs
     id="defs17"><linearGradient
       id="gradient_0"
       gradientUnits="userSpaceOnUse"
       x1="787.83301"
       y1="417.13614"
       x2="896.2948"
       y2="336.46844"><stop
         offset="0"
         stop-color="#167F8A"
         id="stop16" /><stop
         offset="1"
         stop-color="#159BA9"
         id="stop17" /></linearGradient><linearGradient
       id="gradient_0-2"
       gradientUnits="userSpaceOnUse"
       x1="439.11206"
       y1="464.522"
       x2="373.02579"
       y2="386.0676"><stop
         offset="0"
         stop-color="#FEA902"
         id="stop24-7" /><stop
         offset="1"
         stop-color="#FEC100"
         id="stop25-8" /></linearGradient><linearGradient
       id="gradient_0-8"
       gradientUnits="userSpaceOnUse"
       x1="505.63708"
       y1="183.79691"
       x2="171.41376"
       y2="155.43059"><stop
         offset="0"
         stop-color="#EEA800"
         id="stop3" /><stop
         offset="1"
         stop-color="#FEF49E"
         id="stop4" /></linearGradient><linearGradient
       id="gradient_1-2"
       gradientUnits="userSpaceOnUse"
       x1="297.28619"
       y1="286.58209"
       x2="163.5318"
       y2="635.06488"><stop
         offset="0"
         stop-color="#BE8500"
         id="stop5" /><stop
         offset="1"
         stop-color="#FFEA5F"
         id="stop6" /></linearGradient><linearGradient
       id="gradient_2"
       gradientUnits="userSpaceOnUse"
       x1="690.96869"
       y1="886.34503"
       x2="530.02826"
       y2="327.17783"><stop
         offset="0"
         stop-color="#936602"
         id="stop7" /><stop
         offset="1"
         stop-color="#E6AB0B"
         id="stop8" /></linearGradient><linearGradient
       id="gradient_0-6"
       gradientUnits="userSpaceOnUse"
       x1="756.237"
       y1="543.65344"
       x2="570.92169"
       y2="327.42014"><stop
         offset="0"
         stop-color="#9650B5"
         id="stop1" /><stop
         offset="1"
         stop-color="#B262D0"
         id="stop2" /></linearGradient><linearGradient
       id="gradient_1-21"
       gradientUnits="userSpaceOnUse"
       x1="431.04391"
       y1="954.88794"
       x2="538.14734"
       y2="89.44886"><stop
         offset="0"
         stop-color="#002757"
         id="stop3-8"
         style="stop-color:#000000;stop-opacity:1;" /><stop
         offset="1"
         stop-color="#4B448F"
         id="stop4-0" /></linearGradient></defs><defs
     id="defs25"><linearGradient
       id="gradient_1"
       gradientUnits="userSpaceOnUse"
       x1="567.4491"
       y1="699.04437"
       x2="868.41522"
       y2="779.63495"><stop
         offset="0"
         stop-color="#176366"
         id="stop24"
         style="stop-color:#000000;stop-opacity:1;" /><stop
         offset="1"
         stop-color="#157C89"
         id="stop25" /></linearGradient></defs><path
     style="fill:none;fill-opacity:1;stroke:#000000;stroke-width:3.40158;stroke-linecap:round;stroke-dasharray:none;stroke-opacity:0.198895;paint-order:markers fill stroke"
     id="path50"
     sodipodi:type="arc"
     sodipodi:cx="118.55093"
     sodipodi:cy="129.48492"
     sodipodi:rx="32.99884"
     sodipodi:ry="32.99884"
     sodipodi:start="0.027304543"
     sodipodi:end="6.2831853"
     sodipodi:open="true"
     sodipodi:arc-type="arc"
     d="M 151.53747,130.38583 A 32.99884,32.99884 0 0 1 117.87521,162.47685 32.99884,32.99884 0 0 1 85.555161,129.03443 32.99884,32.99884 0 0 1 118.77618,96.486853 32.99884,32.99884 0 0 1 151.54977,129.48492" /><path
     style="fill:none;fill-opacity:1;stroke:#000000;stroke-width:3.40158;stroke-linecap:round;stroke-miterlimit:0;stroke-dasharray:none;stroke-opacity:0.198895;paint-order:normal"
     id="path51"
     sodipodi:type="arc"
     sodipodi:cx="118.41573"
     sodipodi:cy="129.07928"
     sodipodi:rx="19.411423"
     sodipodi:ry="19.411423"
     sodipodi:start="0.027304543"
     sodipodi:end="6.2831853"
     sodipodi:open="true"
     sodipodi:arc-type="arc"
     d="m 137.81992,129.60924 a 19.411423,19.411423 0 0 1 -19.80167,18.8774 19.411423,19.411423 0 0 1 -19.01213,-19.67236 19.411423,19.411423 0 0 1 19.54212,-19.14597 19.411423,19.411423 0 0 1 19.27892,19.41097" /><path
     style="fill:none;fill-opacity:1;stroke:#000000;stroke-width:3.40157;stroke-linecap:round;stroke-miterlimit:0;stroke-dasharray:none;stroke-opacity:0.198895;paint-order:normal"
     id="path52"
     sodipodi:type="arc"
     sodipodi:cx="118.9566"
     sodipodi:cy="129.07925"
     sodipodi:rx="6.7610173"
     sodipodi:ry="6.7610173"
     sodipodi:start="0.027304543"
     sodipodi:end="6.2831853"
     sodipodi:open="true"
     sodipodi:arc-type="arc"
     d="m 125.71509,129.26384 a 6.7610173,6.7610173 0 0 1 -6.89694,6.57501 6.7610173,6.7610173 0 0 1 -6.62194,-6.8519 6.7610173,6.7610173 0 0 1 6.80654,-6.66856 6.7610173,6.7610173 0 0 1 6.71486,6.76086" /><rect
     style="fill:none;fill-opacity:1;stroke:#000000;stroke-width:2.71653;stroke-linecap:round;stroke-miterlimit:0;stroke-dasharray:none;stroke-opacity:0.198895;paint-order:normal"
     id="rect52"
     width="36.715984"
     height="0.64792913"
     x="74.740364"
     y="128.34962" /><rect
     style="fill:none;fill-opacity:1;stroke:#000000;stroke-width:2.71652;stroke-linecap:round;stroke-miterlimit:0;stroke-dasharray:none;stroke-opacity:0.198895;paint-order:normal"
     id="rect52-4"
     width="36.715984"
     height="0.64792913"
     x="85.258675"
     y="-119.11345"
     transform="rotate(90)" /><rect
     style="fill:none;fill-opacity:1;stroke:#000000;stroke-width:2.61113;stroke-linecap:round;stroke-miterlimit:0;stroke-dasharray:none;stroke-opacity:0.198895;paint-order:normal"
     id="rect52-4-3"
     width="35.291531"
     height="0.62279177"
     x="136.69922"
     y="-119.28641"
     transform="rotate(90)" /><rect
     style="fill:none;fill-opacity:1;stroke:#000000;stroke-width:2.69018;stroke-linecap:round;stroke-miterlimit:0;stroke-dasharray:none;stroke-opacity:0.198895;paint-order:normal"
     id="rect52-0"
     width="36.359871"
     height="0.64164478"
     x="126.21997"
     y="128.1541" /><g
     id="g54"
     transform="matrix(0.57106035,0,0,0.57106035,73.093445,183.77598)"><path
       fill="url(#gradient_1)"
       transform="matrix(0.15332,0,0,0.15332,3.05176e-5,-1.52588e-5)"
       d="m 700.17887,737.969 c -3.5693,28.14359 0.94813,44.789 1.57413,67.734 1.426,52.315 23.401,99.902 57.568,138.992 5.883,6.729 12.386,12.96 18.791,19.186 -76.874,27.234 -161.188,24.811 -235.179,-10.351 -6.913,-3.285 -14.525,-6.663 -20.861,-10.923 34.184,-1.976 68.506,-12.477 100.011,-25.454 l 10.45,-4.544 c 1.617,-0.724 3.536,-1.351 4.924,-2.451 -4.325,1.008 -8.644,2.966 -12.871,4.362 -7.07,2.337 -14.285,4.306 -21.571,5.845 -38.202,8.073 -79.075,8.445 -116.56,-3.331 -16.17,-5.079 -31.793,-12.757 -46.182,-21.664 -9.595,-5.94 -18.149,-12.74 -26.541,-20.232 -3.538,-3.159 -7.274,-6.253 -10.486,-9.743 9.345,0.921 18.587,2.444 27.979,2.945 34.961,1.865 71.83,-3.149 104.951,-14.492 -11.748,0.751 -23.255,2.573 -35.092,2.752 -15.522,0.236 -31.474,-0.338 -46.834,-2.726 -43.016,-6.691 -84.107,-26.59 -116.699,-55.338 -11.301,-9.968 -21.977,-21.434 -31.233,-33.293 -3.208,-4.11 -7.023,-8.702 -9.229,-13.459 18.772,7.806 37.874,13.644 57.963,16.97 35.124,5.815 70.614,3.765 105.729,-0.852 l -31.469,-2.832 c -21.934,-2.663 -44.647,-7.034 -65.72,-13.743 -12.236,-3.896 -23.82,-9.381 -35.186,-15.295 -30.781,-16.015 -57.58,-36.636 -79.843,-63.403 -17.762,-21.357 -32.205,-45.675 -41.874,-71.745 l 29.937,17.651 c 34.525,18.194 72.64,32.19 111.012,39.503 10.964,2.09 22.352,4.187 33.54,4.455 -10.745,-2.956 -21.45,-5.338 -31.998,-9.042 -45.88,-16.112 -88.929,-42.307 -122.244,-77.916 -15.257,-16.308 -28.423,-34.767 -39.405,-54.193 -13.554,-23.976 -23.59,-51.41 -30.089,-78.108 -0.9,-3.697 -2.703,-8.967 -2.62,-12.769 l 0.119,-0.379 c 17.105,20.094 38.936,36.966 61.009,51.232 23.818,15.394 48.544,28.381 75.115,38.35 7.559,2.836 15.022,5.769 22.843,7.823 L 293.801,517.078 C 275.517,506.476 258.351,493.88 242.044,480.466 217.918,460.619 195.576,438.415 177.03,413.2 c -19.174,-26.071 -34.27,-55.866 -44.339,-86.599 -7.428,-22.674 -12.299,-45.931 -13.945,-69.757 -0.536,-7.745 -0.412,-15.568 -0.437,-23.329 20.701,33.078 44.83,63.049 73.019,90.048 l 27.715,24.866 c -2.072,-4.446 -6.964,-8.32 -10.166,-12.076 l -13.606,-16.481 -17.576,-23.819 c -16.572,-24.202 -30.136,-48.761 -40.57,-76.233 -3.478,-9.157 -6.146,-18.859 -8.663,-28.32 -6.719,-25.26 -10.624,-50.702 -11.211,-76.847 -0.498,-22.1986 1.396,-44.4173 9.059,-65.4091 l 4.504,-10.568 4.423,14.4483 c 3.968,11.5865 8.795,23.0326 14.311,33.9679 10.893,21.5959 24.843,41.3329 39.088,60.7989 23.996,32.79 50.774,64.277 79.536,92.971 42.543,42.44 90.652,80.557 140.319,114.298 l 94.518,60.013 c 28.28,16.888 56.816,33.345 83.842,52.225 l 31.718,24.583 c 40.431,33.675 77.121,76.082 86.189,129.524 3.027,17.836 4.96585,55.86282 -2.58385,73.72382 1.384,-2.905 4.71985,-26.35982 5.55685,-29.45282 z"
       id="path4"
       style="fill:#000000;fill-opacity:0.200737"
       sodipodi:nodetypes="ccccsccccccccccscccssccccccccccccccsccssccccccccccccscccccccccccccccc" /><path
       fill="#1aaaa1"
       transform="matrix(0.15332,0,0,0.15332,3.05176e-5,-1.52588e-5)"
       d="m 351.177,785.663 c 19.135,7.049 38.355,11.596 58.323,15.477 41.992,8.162 84.524,11.7 127.25,12.636 31.701,0.695 63.289,-0.144 94.86,3.433 -1.745,1.317 -4.634,2.129 -6.689,2.94 l -13.797,5.448 c -38.525,14.033 -81.818,22.277 -122.899,20.366 -38.775,-1.805 -80.17,-13.98 -111.725,-36.993 -9.295,-6.779 -17.585,-14.815 -25.323,-23.307 z"
       id="path5"
       style="fill:#ffffff;fill-opacity:1" /><path
       fill="#1aaaa1"
       transform="matrix(0.15332,0,0,0.15332,3.05176e-5,-1.52588e-5)"
       d="m 253.964,647.923 30.379,16.163 c 23.686,11.605 48.806,20.971 74.043,28.597 l 50.864,13.018 43.51,10.6 53.019,12.921 c 28.1,7.709 55.623,18.44 82.744,29.028 l 24.175,9.425 c 3.054,1.231 6.677,2.219 9.384,4.075 -1.736,0.089 -3.751,-0.714 -5.459,-1.091 l -8.385,-1.553 c -11.718,-2.025 -23.376,-3.983 -35.242,-4.926 l -75.838,-2.232 c -20.316,-0.643 -40.605,-2.3 -60.667,-5.581 -33.549,-5.488 -66.049,-15.687 -95.991,-31.931 -34.036,-18.464 -63.93,-45.141 -86.536,-76.513 z"
       id="path6"
       style="fill:#ffffff;fill-opacity:1" /><path
       fill="#1aaaa1"
       transform="matrix(0.15332,0,0,0.15332,3.05176e-5,-1.52588e-5)"
       d="m 197.363,494.384 18.287,12.948 c 10.575,7.281 21.429,14.159 32.687,20.335 62.968,34.544 131.144,58.686 195.276,90.869 l 58.321,31.635 c 29.424,17.916 57.334,38.176 85.149,58.446 l 37.564,27.114 c -3.985,-1.344 -7.647,-3.326 -11.47,-5.049 L 587.02,718.735 c -19.362,-8.6 -39.412,-16.033 -59.464,-22.851 L 386.25,655.3 C 322.766,634.93 262.583,596.23 223.92,541.079 213.488,526.199 205.643,510.465 197.363,494.384 Z"
       id="path7"
       style="fill:#ffffff;fill-opacity:1" /><path
       fill="#1aaaa1"
       transform="matrix(0.15332,0,0,0.15332,3.05176e-5,-1.52588e-5)"
       d="m 137.685,287.666 c 3.601,2.863 6.714,6.667 9.882,10.007 8.604,9.071 16.766,18.62 25.825,27.248 27.645,26.331 59.016,49.407 91.007,70.19 l 127.559,74.963 73.389,39.597 32.097,18.155 c 26.522,16.482 52.05,35.586 74.426,57.389 23.092,22.5 42.158,50.36 48.575,82.446 1.874,9.368 2.243,18.693 2.363,28.211 -3.559,-2.755 -6.711,-6.57 -9.986,-9.693 L 595.056,670.216 C 575.591,653.576 553.846,639.011 532.055,625.625 476.49,591.491 413.184,572.408 355.214,542.945 317.033,523.54 282.735,497.631 251.628,468.316 229.651,447.604 208.867,424.821 191.94,399.75 c -16.689,-24.719 -30.15,-51.234 -41.438,-78.792 -4.486,-10.951 -9.144,-22.046 -12.817,-33.292 z"
       id="path9"
       style="fill:#ffffff;fill-opacity:1" /><path
       fill="#6cdac5"
       transform="matrix(0.15332,0,0,0.15332,3.05176e-5,-1.52588e-5)"
       d="m 138.553,114.431 c 2.696,3.962 4.572,8.746 6.697,13.051 l 10.912,21.454 c 8.62,16.473 18.968,32.497 29.57,47.777 16.588,23.907 35.006,46.897 55.017,68.041 63.883,67.502 142.757,120.793 222.751,167.254 l 67,40.484 c 34.697,21.785 69.202,44.248 96.705,75.095 16.888,18.943 31.634,40.736 39.637,64.975 7.874,23.85 9.445,48.965 8.515,73.922 l -3.648,55.266 c -0.946,17.897 -1.385,36.226 0.455,54.067 5.28,51.197 28.059,97.079 62.309,135.039 l 1.277,1.886 c -1.448,-0.294 -2.308,-1.023 -3.488,-1.856 -45.685,-32.266 -79.397,-78.671 -93.646,-133.018 -4.511,-17.206 -6.728,-35.262 -7.436,-53.023 -1.085,-27.208 2.411,-54.751 -2.376,-81.714 C 625.576,644.948 617.764,627.523 607.939,612 595.988,593.117 580.411,576.521 563.663,561.835 531.487,533.622 494.954,511.948 457.922,490.834 L 402.621,459.288 333.942,415.961 C 307.558,397.496 282.296,377.396 259.455,354.642 248.63,343.858 238.627,332.186 228.963,320.361 201.067,286.228 176.604,247.317 161.156,205.895 155.392,190.442 150.445,174.412 146.75,158.335 Z"
       id="path10"
       style="fill:#ffffff;fill-opacity:1" /></g></svg>
