<?xml version="1.0" encoding="UTF-8" standalone="no"?>
<!-- Created with Inkscape (http://www.inkscape.org/) -->

<svg
   width="63mm"
   height="88mm"
   viewBox="0 0 63 88"
   version="1.1"
   id="svg1"
   inkscape:version="1.4 (86a8ad7, 2024-10-11)"
   xml:space="preserve"
   sodipodi:docname="card-disorder-leg-left.svg"
   xmlns:inkscape="http://www.inkscape.org/namespaces/inkscape"
   xmlns:sodipodi="http://sodipodi.sourceforge.net/DTD/sodipodi-0.dtd"
   xmlns="http://www.w3.org/2000/svg"
   xmlns:svg="http://www.w3.org/2000/svg"><sodipodi:namedview
     id="namedview1"
     pagecolor="#ffffff"
     bordercolor="#000000"
     borderopacity="0.25"
     inkscape:showpageshadow="2"
     inkscape:pageopacity="0.0"
     inkscape:pagecheckerboard="0"
     inkscape:deskcolor="#d1d1d1"
     inkscape:document-units="mm"
     inkscape:zoom="1.4627805"
     inkscape:cx="154.8421"
     inkscape:cy="-23.58522"
     inkscape:window-width="1350"
     inkscape:window-height="1017"
     inkscape:window-x="228"
     inkscape:window-y="0"
     inkscape:window-maximized="0"
     inkscape:current-layer="layer1" /><defs
     id="defs1" /><g
     inkscape:label="Layer 1"
     inkscape:groupmode="layer"
     id="layer1"><g
       id="g1"
       transform="matrix(0.06087197,0,0,0.06087197,0.03359486,0.54402301)"><path
         id="path2"
         style="fill:none;stroke:#e6e6e6;stroke-width:4.92837673;stroke-dasharray:none;stroke-opacity:1"
         d="m 969.46567,-254.63804 -162.11945,68.70646 4.0597,46.92461 c 3.1466,25.2452 8.43711,50.924881 14.4265,75.646971 6.66042,27.490917 17.07753,55.2584469 28.70049,81.081427 25.59836,56.88519 81.50582,147.116132 64.73422,211.423062 -0.51206,1.96635 -1.06101,3.84501 -1.85517,5.71819 -7.80516,18.43138 -24.79686,33.00273 -33.91681,50.83146 -7.12605,13.92349 -8.40877,29.97061 -10.38876,45.24416 l -6.61327,60.58734 c -0.72828,10.16334 -3.12481,21.36184 -0.69833,31.31961 l 4.58339,4.56134 c 7.91205,-1.51711 16.07917,-6.89764 21.25802,-13.07329 3.31375,-22.48995 5.06242,-60.16604 24.57539,-74.70848 3.00435,-2.23748 3.24875,-2.06348 6.91863,-1.78961 10.50011,20.67975 11.00821,46.23339 3.90678,67.81149 -4.65031,14.12889 -12.46774,31.04889 -21.01797,43.30171 -7.63536,10.94103 -26.18747,24.87461 -29.79163,37.19056 -0.6066,2.07034 -0.038,6.32059 -0.0428,8.62104 4.07237,4.84199 4.42626,5.5542 10.49792,7.04959 41.7923,-12.26662 96.74329,-42.26985 118.27198,-80.8414 6.2771,-11.25042 9.891,-24.72322 11.6767,-37.43063 l 0.4146,-2.75001 c 2.0321,-14.79985 -0.9715,-31.79187 -2.2915,-46.64105 -1.9391,-21.78323 -3.0939,-43.22589 -2.3573,-65.10528 l 8.7959,-109.86913 c 9.7825,-111.749082 18.137,-226.082979 -16.8057,-334.54019 -8.74458,-27.13825 -20.51142,-54.3016 -34.92065,-79.26995 z" /><path
         id="path5"
         style="fill:none;stroke:#e6e6e6;stroke-width:4.92837673;stroke-dasharray:none;stroke-opacity:1"
         d="m 638.96312,-841.30579 18.11512,378.73688 c 23.29242,63.82676 63.48919,116.8567 90.88104,157.01212 l 35.55363,50.24206 c 6.21684,8.47079 15.82759,18.82265 19.70829,28.56945 3.07023,7.70674 2.39039,19.2865 2.99021,27.5656 l 1.13481,13.2481 162.11945,-68.70646 c -2.4688,-4.27786 -4.85265,-8.64066 -7.48616,-12.76794 l -18.72616,-27.56552 c -2.2512,-3.18787 -6.8919,-8.07079 -8.16284,-11.41473 -1.08999,-2.87007 -0.53668,-9.79524 -0.72012,-13.05158 l -2.46637,-35.88095 c -3.88619,-36.5176 -10.94829,-73.36211 -23.72414,-107.88316 -10.86982,-29.36134 -24.43661,-58.65007 -40.07155,-85.79577 -6.64137,-11.5271 -16.56669,-23.0322 -21.95634,-34.8989 -1.70079,-3.741 -1.52785,-7.8445 -1.52785,-11.8512 0,-68.9627 -19.78297,-142.7194 -70.08147,-192.4785 -28.41377,-28.1043 -68.68627,-48.3774 -108.79971,-51.5953 -6.5549,-0.5281 -19.01239,-0.067 -26.77984,-1.4842 z" /><path
         id="path3"
         style="fill:none;stroke:#e6e6e6;stroke-width:4.92837673;stroke-dasharray:none;stroke-opacity:1"
         d="m -236.78235,-166.48505 -173.81774,-69.12131 c -6.04575,13.04811 -11.29888,26.43015 -15.62703,40.33346 -14.06031,45.16624 -19.96759,92.98715 -23.50598,140.010171 -5.9676,79.342127 -3.12466,157.947009 2.79365,237.176849 l 7.63891,79.13907 c 1.91974,31.76046 -5.28065,61.93236 -5.56549,93.26013 -0.27933,30.65117 9.5273,61.99044 28.61313,86.01413 20.44977,25.74071 59.9504,53.78268 93.06364,58.20846 3.00164,0.40249 4.83451,0.0775 7.63892,-0.89493 2.39361,-4.20123 2.40892,-4.42916 1.00396,-9.0794 -2.7688,-9.18 -12.60038,-20.0394 -17.8532,-28.3076 -20.93441,-32.95994 -37.78545,-75.73307 -24.22623,-114.5181 l 4.14684,-3.12101 c 7.4108,2.31151 12.61544,8.56783 16.08535,15.32151 10.22342,19.89092 3.13675,52.61068 23.24407,65.97836 5.36508,0.51754 5.63394,0.68233 10.54168,-2.26985 9.56897,-23.45689 4.79902,-104.2158 -5.19445,-127.91903 -6.64942,-15.76914 -18.46789,-27.13316 -26.77982,-41.68651 -23.7936,-41.66082 -12.06147,-92.72329 4.34329,-134.51015 25.01233,-63.718102 64.96046,-120.1526917 83.52591,-186.803909 8.83614,-31.719681 8.1546,-64.768191 9.93059,-97.210341 z" /><path
         id="path6"
         style="fill:none;stroke:#e6e6e6;stroke-width:4.92837673;stroke-dasharray:none;stroke-opacity:1"
         d="m -52.575692,-846.45649 c -0.10272,0.044 -0.22542,0.1549 -0.32739,0.1964 -6.59204,2.6839 -21.03761,0.6875 -28.722263,1.3969 -10.49193,0.9667 -21.014585,3.2024 -31.123085,6.1329 -61.67494,17.8725 -112.99166,63.6648 -136.82362,123.4664 -9.33347,23.4211 -13.94829,49.4318 -17.02386,74.3812 l -3.73214,44.1746 c -0.30946,4.0533 0.18818,12.697 -1.22222,16.2381 -4.03954,10.1331 -17.1007,23.002 -23.37504,32.8036 -18.61201,29.0711 -34.11668,60.37764 -45.3096,93.04191 -9.77986,28.5424 -15.93059,58.03172 -20.71234,87.78182 -3.53841,22.02723 -5.8903,45.48945 -12.24406,66.89498 -3.69724,12.45547 -15.9232,24.68753 -22.63298,36.01192 -5.47664,9.24088 -10.31672,18.70581 -14.7758,28.3294 l 173.81774,69.12131 c 1.41498,-25.84786 4.35426,-51.32019 15.16865,-75.36334 11.58741,-25.76275 37.74947,-46.55933 54.93461,-69.2739 26.31525,-34.78087 79.963795,-105.47944 101.008118,-145.81572 z" /><path
         id="path4"
         style="fill:none;stroke:#e6e6e6;stroke-width:4.92837673;stroke-dasharray:none;stroke-opacity:1"
         d="m 673.05431,1027.1039 -216.48627,3.4486 c -0.97115,8.8637 -1.72922,17.7796 -2.70633,26.5616 -4.72977,42.5043 -9.6877,86.4338 -5.43455,129.1848 8.03252,80.6533 46.88682,154.4213 63.16276,233.8158 6.48247,31.6044 12.22641,63.4696 13.2917,95.8135 0.87361,26.4834 -1.37065,53.7586 1.0476,80.0775 1.71993,18.7326 7.21301,36.8632 10.14881,55.3492 2.57165,16.1858 -3.11609,35.2752 -6.52575,51.2681 -6.99727,32.7823 -15.12935,67.208 -16.12899,100.8118 -0.3287,11.0641 -0.92464,22.6626 1.85517,33.4801 2.14995,8.3533 6.0015,16.3414 12.52781,22.1747 5.52392,4.9571 12.59854,7.6161 19.75197,9.2323 18.06433,4.0805 39.10273,3.147 57.66281,3.4484 27.03885,0.4108 55.53006,1.7837 82.4126,-0.9822 8.37777,-0.849 19.49562,-4.5529 25.20847,-11.0436 6.29072,-7.1479 5.92981,-19.4559 4.86727,-28.4387 -4.14634,-34.9174 -23.90258,-61.6673 -40.04974,-91.6012 -19.51031,-36.2055 -39.25776,-82.1243 -42.29763,-123.2047 -2.0156,-27.25 -0.18505,-55.7576 0.87305,-83.0894 2.59079,-67.0433 8.16986,-137.5995 24.79354,-202.7802 11.91605,-46.6947 33.0687,-94.3955 36.49217,-142.651 3.88126,-54.679 -6.88933,-109.0593 -24.46647,-160.8754 z" /><path
         id="path7"
         style="fill:none;stroke:#e6e6e6;stroke-width:4.92837673;stroke-dasharray:none;stroke-opacity:1"
         d="m 119.38688,1034.721 -216.159089,-9.2539 c -15.025351,49.532 -25.874351,102.4685 -22.283771,152.4506 3.7382,52.1171 21.172191,102.9582 32.869105,153.6514 16.467603,71.3689 24.234603,141.612 27.740133,214.653 1.13381,23.6621 3.32866,48.4165 1.83333,72.0238 -1.01332,16.0216 -5.15241,32.164 -11.13098,47.0337 -11.981613,29.8245 -27.997403,59.4627 -42.035768,88.4367 -13.32646,27.5237 -29.28707,49.4755 -31.40682,81.5181 -0.42176,6.4084 -0.93198,14.4688 1.63691,20.4941 2.93314,6.9012 9.15714,9.0822 15.91074,11.2183 25.872251,8.134 142.373337,9.2461 164.301868,-2.9682 11.05335,-6.162 17.09111,-17.3439 20.18855,-29.2025 10.16865,-38.8607 -3.95448,-91.8957 -12.13495,-130.4288 -3.28367,-15.4464 -8.06473,-31.9241 -7.2897,-47.8633 1.08454,-22.2379 9.47089,-44.4542 11.24009,-67.1566 1.98279,-25.4699 -0.29332,-51.5303 0.78572,-77.1095 1.95817,-46.3921 10.73065,-93.0178 21.95638,-137.9584 15.23533,-60.9906 42.751792,-119.221 50.263982,-181.937 6.21596,-51.9301 -1.73856,-105.6772 -6.28573,-157.6015 z" /><path
         id="path8"
         style="fill:none;stroke:#e4e4e4;stroke-width:4.92837673;stroke-dasharray:none;stroke-opacity:1"
         d="M 289.74194,353.18522 -75.776121,341.97926 c -2.647938,12.01365 -5.483664,24.03225 -7.597984,36.03735 -8.20786,46.61753 -10.62204,93.57114 -11.78323,140.81308 -1.040714,42.36735 -1.130404,85.89167 2.31759,128.13847 l 17.190964,135.29499 c 7.153423,43.21391 19.304731,86.05902 16.240154,130.36268 -1.591199,22.9966 -14.087195,44.39433 -21.758238,65.852 -5.41548,15.15061 -10.72207,30.89667 -15.603454,46.98857 l 216.156189,9.2534 c -0.0907,-1.0357 -0.1923,-2.1068 -0.28015,-3.141 -1.91693,-22.5395 -4.76352,-45.85896 -1.90162,-68.46672 3.25357,-25.68918 12.31917,-52.1023 20.68858,-76.52313 l 32.67556,-95.72607 59.17087,-225.14643 C 244.9332,494.8836 257.63005,426.4032 260.62342,353.85588 l 29.12701,0.12734 z" /><path
         id="path9"
         style="fill:none;stroke:#e6e6e6;stroke-width:4.92837673;stroke-dasharray:none;stroke-opacity:1"
         d="M 552.73094,31.384298 33.460148,22.042968 c -0.53467,3.57042 -1.08298,6.79179 -1.70238,8.8174 -3.116621,10.20145 -9.837991,20.38223 -14.055591,30.4029 L -18.811752,153.192 c -22.17912,60.94821 -42.86102,124.80267 -56.96438,188.79003 l 728.205512,22.32726 c -9.39106,-46.3428 -21.51582,-92.39428 -36.55756,-138.04577 -20.21413,-61.34618 -45.04764,-121.51001 -60.74007,-184.272142 -0.88838,-3.55225 -1.6014,-7.07042 -2.40081,-10.60708 z" /><path
         id="path10"
         style="fill:none;stroke:#e6e6e6;stroke-width:4.92837673;stroke-dasharray:none;stroke-opacity:1"
         d="M 561.46106,-276.07062 10.587098,-286.35046 c 1.487009,2.90293 2.971909,5.80441 4.605189,8.51196 23.578191,80.31521 27.926151,92.94266 24.946461,177.964621 -0.61538,17.5107 -2.2794,92.5400069 -6.6786,121.916847 l 519.270792,9.34133 c -12.42536,-54.96617 -14.45403,-108.260777 -11.82941,-165.000328 2.71675,-58.71712 7.47501,-53.62556 17.50399,-125.58359 1.03873,-6.20101 2.03926,-11.70346 3.05554,-16.871 z" /><path
         id="path11"
         style="fill:none;stroke:#e6e6e6;stroke-width:4.92837673;stroke-dasharray:none;stroke-opacity:1"
         d="m 649.70125,-616.63469 -709.675792,-9.7779 -5.69643,169.47458 c 0.47583,-0.91204 1.39202,-2.21939 1.83335,-3.09921 9.44006,18.757 20.94722,69.63255 33.67665,86.4287 18.10523,23.88497 26.5214795,59.48536 40.74807,87.25806 l 550.873962,10.27984 c 7.75526,-39.4349 16.31195,-52.82138 47.88501,-99.91692 33.94408,-50.63243 43.05077,-84.05227 47.29569,-87.69446 0.13653,0.37786 0.29873,0.73554 0.43648,1.11309 z" /><path
         id="path12"
         style="fill:none;stroke:#e6e6e6;stroke-width:4.92837673;stroke-dasharray:none;stroke-opacity:1"
         d="m 173.09931,-977.91101 c -0.0129,0.032 -0.008,0.3203 -0.0218,0.3492 -53.22589,41.74262 -114.881402,63.25742 -173.16296248,96.25012 -12.02830952,6.8083 -23.42177952,14.5352 -34.70244952,22.502 -5.16635,3.6485 -12.0163,9.8819 -17.78771,12.3532 l -7.39885,220.0439 709.675872,9.7779 -10.73821,-224.6711 c -1.29653,-0.2364 -3.39795,-0.1203 -4.32138,-0.5019 -4.76529,-1.9718 -10.47015,-6.9458 -14.88495,-9.8433 -11.63095,-7.6327 -23.14838,-15.5409 -35.29171,-22.3492 l -81.80164,-42.9961 c -35.34791,-17.5931 -70.12345,-34.28482 -100.50624,-59.97632 l 0.0218,-0.9384 z" /><path
         id="path13"
         style="fill:none;stroke:#000000;stroke-width:4.92837673;stroke-dasharray:none;stroke-opacity:1"
         d="m 312.78207,354.0766 2.6402,38.58416 c 14.0713,134.14548 48.67741,269.32005 88.63745,397.93895 16.68115,53.68945 41.74099,106.09609 52.50671,161.35734 5.05845,25.9591 2.875,52.35405 0,78.59455 l 216.48728,-3.4467 c -5.5412,-16.3352 -11.68398,-32.44736 -18.354,-48.19411 L 638.2643,940.75958 c -2.66726,-6.20052 -6.82014,-13.79718 -7.59798,-20.39994 -2.17449,-18.48367 1.34174,-39.15573 4.41446,-57.36263 l 22.98071,-110.21742 c 23.9695,-130.64806 20.26185,-260.71209 -5.62844,-388.4733 z"
         sodipodi:nodetypes="ccccccccccccc" /><path
         id="path1"
         style="fill:none;stroke:#e6e6e6;stroke-width:4.92837673;stroke-dasharray:none;stroke-opacity:1"
         d="m 290.77101,-1449.1003 c -5.81685,-0.2631 -11.85622,-0.5425 -17.65676,0.044 -39.77118,4.8118 -76.22677,19.9686 -101.44452,52.381 -30.95814,39.7876 -34.27871,115.6752 -28.11118,164.6292 -3.69449,3.6836 -4.86417,1.7736 -8.46826,3.8413 -5.5212,3.1659 -7.67431,11.8397 -7.70439,17.6786 -0.0631,12.294 3.14756,23.9184 5.47819,35.881 4.0642,20.8715 6.79274,49.128 23.26589,64.3632 2.59903,2.4019 5.7933,4.264 8.99209,5.7401 2.01824,12.382 5.9371,118.89629 2.57541,126.63119 h 229.07975 l 2.64086,-81.73619 c 0.2247,-12.2776 -2.23425,-33.6693 2.008,-44.8513 l 1.61505,-1.4187 c 19.48569,-17.407 23.36622,-39.4681 28.52585,-63.7739 2.52507,-11.8887 5.49534,-24.0896 5.98018,-36.252 0.28203,-7.0111 0.74629,-13.6584 -3.20829,-19.7958 -3.07015,-2.2922 -6.29758,-4.4634 -8.92672,-7.2678 3.11399,-55.5707 4.22061,-125.3215 -34.89883,-169.4527 -24.82621,-28.0058 -62.55911,-44.9703 -99.74232,-46.6409 z" /></g><g
       id="mind-2-4"
       transform="matrix(0.06382477,0,0,0.06382477,-11.665808,-25.458926)"
       inkscape:label="mind"><path
         fill="#8751D1"
         d="m 411.69208,747.05319 c -0.24812,-0.0337 -0.61135,0.0446 -0.86853,0.0689 l -1.88364,0.18649 c -3.72501,0.33108 -8.57419,0.88378 -11.91731,-1.09865 -2.31419,-1.37162 -3.71541,-3.91758 -3.77797,-6.58974 -0.0316,-1.35445 0.21513,-2.71607 0.33824,-4.0627 0.155,-1.69621 0.11689,-3.55812 -0.36243,-5.20298 -0.34838,-1.19595 -1.45608,-1.90027 -2.27878,-2.7777 -0.32433,-0.34581 -0.66149,-0.6965 -0.75798,-1.17919 -0.0843,-0.42203 0.004,-0.78231 0.23041,-1.14312 0.70459,-1.12593 2.04783,-1.75635 3.29176,-2.05337 -1.46785,-0.66041 -2.98109,-1.155 -3.73973,-2.6996 -0.0738,-0.9685 0.67715,-1.48648 1.22594,-2.20552 0.44256,-0.57988 0.90959,-1.29285 1.14594,-1.98636 0.30595,-0.89757 0.39325,-2.0065 -0.0624,-2.87055 -0.32352,-0.61365 -0.91203,-0.94972 -1.54743,-1.15905 -1.07176,-0.35298 -2.44501,-0.17271 -3.57501,-0.2446 -1.08391,-0.069 -2.38392,-0.43067 -3.12283,-1.2777 -1.58244,-1.81365 -0.5669,-3.34163 0.31594,-5.1823 l 4.40663,-9.12569 c 1.32702,-2.79188 2.80864,-5.68878 3.46581,-8.72446 0.23121,-1.06798 0.27838,-2.21095 0.16162,-3.29905 -0.15554,-1.45068 -0.55595,-2.89231 -0.77594,-4.33731 -0.50258,-3.30135 -0.63447,-6.64149 -0.43325,-9.97311 l 5.83284,-17.18719 c 3.39416,-6.96905 6.91022,-12.09437 11.932,-16.32738 9.62457,-8.97887 13.47758,-9.65632 15.94441,-10.766 10.19556,-3.45889 25.31639,-3.25762 29.84348,-1.68229 4.3097,1.27835 11.02166,3.75073 14.87564,7.31267 8.36058,7.72704 13.11125,14.18473 17.04402,28.18178 1.13234,11.82468 2.47464,18.22573 -8.91699,38.68708 -4.82517,4.50903 -3.58578,9.81468 -4.72292,21.93709 -2.70104,8.57625 1.50951,26.66266 -1.8586,27.09779 z"
         id="path2-32-2"
         style="fill:none;fill-opacity:1;stroke:#e8312c;stroke-width:2.32259;stroke-dasharray:none;stroke-opacity:1"
         sodipodi:nodetypes="ccccccccccccscccccccscccccccsccccc" /><text
         xml:space="preserve"
         style="font-style:normal;font-variant:normal;font-weight:normal;font-stretch:normal;font-size:148.144px;font-family:Amiri;-inkscape-font-specification:'Amiri, Normal';font-variant-ligatures:normal;font-variant-caps:normal;font-variant-numeric:normal;font-variant-east-asian:normal;fill:#e8312c;fill-opacity:1;stroke:none;stroke-width:0.269287;stroke-dasharray:none;stroke-opacity:1;paint-order:markers fill stroke"
         x="489.6109"
         y="732.83862"
         id="text1-7"><tspan
           sodipodi:role="line"
           id="tspan1-7"
           x="489.6109"
           y="732.83862">Mind:-1</tspan></text><path
         style="fill:#e7322c;fill-opacity:1;stroke-width:3.49882"
         id="path1-3-2-9"
         sodipodi:type="arc"
         sodipodi:cx="441.53137"
         sodipodi:cy="667.83423"
         sodipodi:rx="37.176922"
         sodipodi:ry="39.043968"
         sodipodi:start="0.027304543"
         sodipodi:end="6.2831853"
         sodipodi:open="true"
         sodipodi:arc-type="arc"
         d="m 478.69444,668.90017 a 37.176922,39.043968 0 0 1 -37.92434,37.96984 37.176922,39.043968 0 0 1 -36.41219,-39.5688 37.176922,39.043968 0 0 1 37.42723,-38.51004 37.176922,39.043968 0 0 1 36.92315,39.04306" /><path
         style="fill:#ffffff;fill-opacity:1;stroke-width:3.34545"
         id="path1-1-3"
         sodipodi:type="arc"
         sodipodi:cx="441.50256"
         sodipodi:cy="667.05212"
         sodipodi:rx="35.50272"
         sodipodi:ry="37.379631"
         sodipodi:start="0.027304543"
         sodipodi:end="6.2831853"
         sodipodi:open="true"
         sodipodi:arc-type="arc"
         d="m 476.99205,668.07263 a 35.50272,37.379631 0 0 1 -36.21647,36.35129 35.50272,37.379631 0 0 1 -34.77243,-37.8821 35.50272,37.379631 0 0 1 35.74176,-36.86846 35.50272,37.379631 0 0 1 35.26037,37.37876" /><rect
         style="fill:#e8322b;fill-opacity:1;stroke-width:4.1036"
         id="rect1-1"
         width="43.670288"
         height="44.625092"
         x="787.51117"
         y="-45.42012"
         transform="matrix(0.5298425,0.84809606,-0.5441132,0.83901181,0,0)" /><path
         id="path3-2-6-9"
         style="fill:#ffffff;stroke-width:4.17674"
         d="m 465.39785,667.3739 -23.72874,2.71407 -23.72873,-2.71407 23.72873,-0.5428 z"
         sodipodi:nodetypes="ccccc" /><path
         id="path4-8-8"
         style="fill:#ffffff;stroke-width:2.36508"
         inkscape:transform-center-x="-0.00029899198"
         inkscape:transform-center-y="-0.42374246"
         d="m 440.73859,667.76163 0.9542,-40.11665 0.98143,39.74202 z" /></g></g></svg>
