<?xml version="1.0" encoding="UTF-8" standalone="no"?>
<!-- Created with Inkscape (http://www.inkscape.org/) -->

<svg
   width="63mm"
   height="88mm"
   viewBox="0 0 63 88"
   version="1.1"
   id="svg1"
   inkscape:version="1.3.2 (091e20e, 2023-11-25, custom)"
   sodipodi:docname="card-hitlocation-jester-red.svg"
   xmlns:inkscape="http://www.inkscape.org/namespaces/inkscape"
   xmlns:sodipodi="http://sodipodi.sourceforge.net/DTD/sodipodi-0.dtd"
   xmlns="http://www.w3.org/2000/svg"
   xmlns:svg="http://www.w3.org/2000/svg">
  <sodipodi:namedview
     id="namedview1"
     pagecolor="#ffffff"
     bordercolor="#000000"
     borderopacity="0.25"
     inkscape:showpageshadow="2"
     inkscape:pageopacity="0.0"
     inkscape:pagecheckerboard="0"
     inkscape:deskcolor="#d1d1d1"
     inkscape:document-units="mm"
     inkscape:zoom="1.4627806"
     inkscape:cx="-77.591952"
     inkscape:cy="129.5478"
     inkscape:window-width="1920"
     inkscape:window-height="1017"
     inkscape:window-x="-8"
     inkscape:window-y="-8"
     inkscape:window-maximized="1"
     inkscape:current-layer="layer1" />
  <defs
     id="defs1" />
  <g
     inkscape:label="Layer 1"
     inkscape:groupmode="layer"
     id="layer1">
    <path
       id="path1"
       style="fill:#e23e3e;stroke-width:1.75335"
       inkscape:transform-center-x="-0.31493951"
       inkscape:transform-center-y="-1.1520071"
       d="m 36.179225,49.41398 c 0.320435,-0.393816 -4.853227,-0.132164 -6.826546,-0.19826 1.494056,-4.666087 1.001872,-3.11762 0.740231,-4.663714 -0.163639,-0.966984 -1.447669,-0.835922 -4.756875,1.060956 0.87814,-2.19032 1.539839,-2.819029 3.049629,-3.122009 1.956952,-0.392714 3.201127,1.67001 2.747313,1.265565 -0.971917,-0.866183 0.402476,-1.965674 -0.41288,-3.769963 -0.757426,-1.676095 -0.03099,-1.743791 -3.572891,-1.898909 2.622637,-2.390826 4.646576,-0.244877 5.409735,0.793058 1.620315,2.203692 0.725408,3.271161 1.74807,2.444491 1.057233,-0.85462 1.291519,-0.83398 2.326374,-0.947393 1.382469,-0.151502 1.28415,-0.686115 3.229102,2.141812 -2.479675,-1.372119 -2.777248,-1.099184 -3.79015,-0.442412 -2.668558,1.730314 -1.885539,2.799187 0.108885,7.336784 z"
       sodipodi:nodetypes="ccscssscssscsc" />
    <path
       style="fill:#e23e3e;fill-opacity:1;stroke-width:0.947869"
       id="path2"
       sodipodi:type="arc"
       sodipodi:cx="39.198208"
       sodipodi:cy="43.84127"
       sodipodi:rx="0.80179071"
       sodipodi:ry="0.80191147"
       sodipodi:start="0.027304543"
       sodipodi:end="6.2831853"
       sodipodi:open="true"
       sodipodi:arc-type="arc"
       d="m 39.9997,43.863164 a 0.80179071,0.80191147 0 0 1 -0.81791,0.77985 0.80179071,0.80191147 0 0 1 -0.785298,-0.812691 0.80179071,0.80191147 0 0 1 0.807189,-0.790945 0.80179071,0.80191147 0 0 1 0.796318,0.801892"
       inkscape:transform-center-x="0.084396382" />
    <path
       style="fill:#e23e3e;fill-opacity:1;stroke-width:0.947869"
       id="path2-4"
       sodipodi:type="arc"
       sodipodi:cx="25.80179"
       sodipodi:cy="46.473541"
       sodipodi:rx="0.80179071"
       sodipodi:ry="0.80191147"
       sodipodi:start="0.027304543"
       sodipodi:end="6.2831853"
       sodipodi:open="true"
       sodipodi:arc-type="arc"
       d="m 26.603282,46.495434 a 0.80179071,0.80191147 0 0 1 -0.81791,0.779851 0.80179071,0.80191147 0 0 1 -0.785298,-0.812691 0.80179071,0.80191147 0 0 1 0.807189,-0.790946 0.80179071,0.80191147 0 0 1 0.796318,0.801893" />
    <path
       style="fill:#e23e3e;fill-opacity:1;stroke-width:0.848098"
       id="path2-5"
       sodipodi:type="arc"
       sodipodi:cx="27.03297"
       sodipodi:cy="39.032516"
       sodipodi:rx="0.71739167"
       sodipodi:ry="0.71749967"
       sodipodi:start="0.027304543"
       sodipodi:end="6.2831853"
       sodipodi:open="true"
       sodipodi:arc-type="arc"
       d="m 27.750095,39.052105 a 0.71739167,0.71749967 0 0 1 -0.731815,0.697761 0.71739167,0.71749967 0 0 1 -0.702634,-0.727145 0.71739167,0.71749967 0 0 1 0.722221,-0.707687 0.71739167,0.71749967 0 0 1 0.712495,0.717482" />
  </g>
</svg>
