<?xml version="1.0" encoding="UTF-8" standalone="no"?>
<svg
   width="63mm"
   height="88mm"
   version="1.1"
   id="svg49"
   sodipodi:docname="card-fate-strong-counter.svg"
   inkscape:version="1.3.2 (091e20e, 2023-11-25, custom)"
   viewBox="0 0 238.11054 332.59885"
   xml:space="preserve"
   xmlns:inkscape="http://www.inkscape.org/namespaces/inkscape"
   xmlns:sodipodi="http://sodipodi.sourceforge.net/DTD/sodipodi-0.dtd"
   xmlns="http://www.w3.org/2000/svg"
   xmlns:svg="http://www.w3.org/2000/svg"><sodipodi:namedview
     id="namedview49"
     pagecolor="#ffffff"
     bordercolor="#000000"
     borderopacity="0.25"
     inkscape:showpageshadow="2"
     inkscape:pageopacity="0.0"
     inkscape:pagecheckerboard="0"
     inkscape:deskcolor="#d1d1d1"
     inkscape:zoom="1.8488365"
     inkscape:cx="65.446566"
     inkscape:cy="193.90573"
     inkscape:window-width="2560"
     inkscape:window-height="1476"
     inkscape:window-x="-12"
     inkscape:window-y="-12"
     inkscape:window-maximized="1"
     inkscape:current-layer="g2"
     inkscape:document-units="mm" /><defs
     id="defs17"><linearGradient
       id="gradient_0"
       gradientUnits="userSpaceOnUse"
       x1="787.83301"
       y1="417.13614"
       x2="896.2948"
       y2="336.46844"><stop
         offset="0"
         stop-color="#167F8A"
         id="stop16" /><stop
         offset="1"
         stop-color="#159BA9"
         id="stop17" /></linearGradient><linearGradient
       id="gradient_0-2"
       gradientUnits="userSpaceOnUse"
       x1="439.11206"
       y1="464.522"
       x2="373.02579"
       y2="386.0676"><stop
         offset="0"
         stop-color="#FEA902"
         id="stop24-7" /><stop
         offset="1"
         stop-color="#FEC100"
         id="stop25-8" /></linearGradient><linearGradient
       id="gradient_0-8"
       gradientUnits="userSpaceOnUse"
       x1="505.63708"
       y1="183.79691"
       x2="171.41376"
       y2="155.43059"><stop
         offset="0"
         stop-color="#EEA800"
         id="stop3" /><stop
         offset="1"
         stop-color="#FEF49E"
         id="stop4" /></linearGradient><linearGradient
       id="gradient_1-2"
       gradientUnits="userSpaceOnUse"
       x1="297.28619"
       y1="286.58209"
       x2="163.5318"
       y2="635.06488"><stop
         offset="0"
         stop-color="#BE8500"
         id="stop5" /><stop
         offset="1"
         stop-color="#FFEA5F"
         id="stop6" /></linearGradient><linearGradient
       id="gradient_2"
       gradientUnits="userSpaceOnUse"
       x1="690.96869"
       y1="886.34503"
       x2="530.02826"
       y2="327.17783"><stop
         offset="0"
         stop-color="#936602"
         id="stop7" /><stop
         offset="1"
         stop-color="#E6AB0B"
         id="stop8" /></linearGradient><linearGradient
       id="gradient_0-6"
       gradientUnits="userSpaceOnUse"
       x1="756.237"
       y1="543.65344"
       x2="570.92169"
       y2="327.42014"><stop
         offset="0"
         stop-color="#9650B5"
         id="stop1" /><stop
         offset="1"
         stop-color="#B262D0"
         id="stop2" /></linearGradient><linearGradient
       id="gradient_1-21"
       gradientUnits="userSpaceOnUse"
       x1="431.04391"
       y1="954.88794"
       x2="538.14734"
       y2="89.44886"><stop
         offset="0"
         stop-color="#002757"
         id="stop3-8"
         style="stop-color:#000000;stop-opacity:1;" /><stop
         offset="1"
         stop-color="#4B448F"
         id="stop4-0" /></linearGradient></defs><defs
     id="defs25"><linearGradient
       id="gradient_1"
       gradientUnits="userSpaceOnUse"
       x1="567.4491"
       y1="699.04437"
       x2="868.41522"
       y2="779.63495"><stop
         offset="0"
         stop-color="#176366"
         id="stop24"
         style="stop-color:#000000;stop-opacity:1;" /><stop
         offset="1"
         stop-color="#157C89"
         id="stop25" /></linearGradient></defs><path
     style="fill:none;fill-opacity:0.200737;stroke:#000000;stroke-width:2.31271;stroke-linecap:round;stroke-miterlimit:0;stroke-dasharray:none;stroke-opacity:0.198895"
     id="path1"
     sodipodi:type="arc"
     sodipodi:cx="-88.447067"
     sodipodi:cy="242.68546"
     sodipodi:rx="28.159634"
     sodipodi:ry="28.159634"
     sodipodi:start="0.027304543"
     sodipodi:end="5.1136159"
     sodipodi:open="true"
     sodipodi:arc-type="arc"
     d="m -60.29793,243.45425 a 28.159634,28.159634 0 0 1 -20.586148,26.35622 28.159634,28.159634 0 0 1 -31.253392,-11.90234 28.159634,28.159634 0 0 1 2.16081,-33.3732 28.159634,28.159634 0 0 1 32.527285,-7.77274"
     transform="rotate(-47.107537)" /><path
     id="path4"
     style="fill:#000000;fill-opacity:0.200737;stroke:none;stroke-width:1.66597;stroke-linecap:round;stroke-miterlimit:0;stroke-dasharray:none;stroke-opacity:0.198895"
     inkscape:transform-center-x="-2.6184868"
     inkscape:transform-center-y="-4.2784728"
     d="m 133.08988,207.71552 -20.33923,6.20403 -15.272135,6.04197 10.809035,-15.65707 -9.110571,-14.87656 17.463891,9.23991 z"
     sodipodi:nodetypes="ccccccc" /><g
     id="g2"
     transform="matrix(0.09513116,0.07131765,-0.07135465,0.09508183,-102.56572,52.976364)"><path
       fill="#020102"
       d="m 1587.5196,-1101.0699 c 18.4957,-14.6126 36.8904,-29.349 55.1837,-44.2089 9.7877,-7.877 19.4574,-16.3803 29.6124,-23.7285 2.2291,-1.613 4.8314,-3.5233 7.4363,-4.2817 6.362,-1.8525 43.8344,-5.1608 50.406,-4.3964 2.3559,0.2738 4.1949,0.7016 5.8597,2.2374 8.5817,7.9156 18.4033,24.3118 25.5502,34.4618 l 38.6393,54.1679 c 4.2729,6.124 8.3029,14.0805 5.9721,22.345 -0.9878,3.5072 -4.3516,6.7863 -7.0605,9.3898 -5.0158,4.8194 -10.6635,9.2183 -16.0229,13.6778 -11.1673,9.2412 -22.4026,18.4003 -33.7063,27.4773 -10.9478,8.8828 -21.6285,18.92529 -33.2248,26.89671 1.2287,3.18768 2.2786,5.97864 1.9434,9.64881 -0.3147,3.43102 -1.7912,6.7202 -4.1343,9.57256 -4.7941,5.83444 -12.4677,10.5221 -18.4662,15.20325 -6.1636,4.83337 -12.0598,9.3275 -17.9109,14.52284 12.1069,13.29218 14.3003,16.88866 24.4262,29.5538 l 55.7658,72.8071 140.4322,193.48867 68.7907,90.64756 c 25.4267,35.10197 34.4293,47.24944 60.2391,87.17114 l -13.2423,24.39466 c -14.8917,17.27736 -20.3359,21.18425 -47.7703,27.37809 l -26.7684,-16.96281 c -9.9593,-11.40778 -80.3455,-97.86912 -90.3529,-111.23908 l -62.007,-80.68846 -94.8768,-126.16508 -60.1989,-88.05841 c -7.5856,-10.90858 -20.4465,-31.22635 -30.7805,-38.57548 -3.5188,2.84931 -6.9628,6.0977 -10.9724,8.22634 -10.6092,5.63043 -20.4679,5.46484 -32.0014,13.17376 -8.6004,5.7478 -16.6676,13.11261 -24.7339,19.64234 -19.317,15.63735 -38.3208,31.66702 -57.7814,47.12475 -8.2866,6.58309 -11.9537,14.49998 -34.7498,26.07991 -16.2983,-2.41116 -23.7642,-3.60884 -57.8121,-29.4433 -28.0753,-32.2071 -24.0031,-32.56623 -29.4805,-40.29313 -9.1531,-19.86558 -19.1704,-37.90286 -17.0277,-59.9475 0.4354,-3.43125 1.5596,-6.83549 3.9567,-9.70331 7.097,-8.48982 18.2422,-15.69581 26.8837,-22.77426 l 51.6452,-42.03832 c 9.2528,-7.4927 18.8621,-14.76526 27.7835,-22.63062 1.671,-5.6244 3.7075,-11.78284 7.9596,-16.43873 8.1849,-8.9599 25.0405,-20.9761 35.1165,-29.3973 l 50.4525,-42.0077 c 8.7752,-7.2869 17.337,-15.0584 26.5637,-21.7763 6.2028,-4.5152 13.602,-5.1468 20.4637,-4.534 z"
       id="path2"
       sodipodi:nodetypes="ccccccccccccccccccccccccccccccccscccccccccccccc"
       style="fill:#020102;fill-opacity:0.198171;stroke-width:1.10939" /><path
       fill="#fef796"
       d="m 1706.2221,-1174.3779 q 10.9567,-1.1077 21.8806,-1.6275 c -7.2304,6.2677 -15.1773,11.9298 -22.5668,18.0631 q -33.6878,28.4256 -67.7492,56.4167 c -8.1056,-6.4392 -17.4726,-4.1033 -27.9057,-2.8462 -5.6218,0.5132 -10.1173,3.808 -14.6361,7.213 l -5.9417,-3.1135 c 15.5314,-12.6633 31.3298,-25.0007 46.9291,-37.5826 8.4954,-6.8512 34.363,-29.3701 42.2443,-32.9512 6.0302,-2.7407 20.6826,-2.7735 27.7455,-3.5718 z"
       id="path3"
       style="fill:#ffffff;fill-opacity:1;stroke-width:1.10939" /><path
       fill="#fef796"
       d="m 1608.0224,-1102.9819 c 6.1366,-0.8343 12.4497,-0.9894 18.5867,-1.4122 -13.4724,11.2963 -27.2699,22.1434 -40.8303,33.3205 l -78.9395,65.1802 c -2.874,2.358 -16.9036,15.24204 -18.6641,16.08041 -2.5732,1.22548 -10.3188,0.24862 -13.387,0.22815 -8.5095,-0.0565 -17.2038,0.34961 -25.8,1.62998 1.5969,-4.80956 3.5703,-9.96385 7.1012,-13.98234 8.1095,-9.2308 20.0377,-17.1043 29.6162,-25.0079 l 61.8502,-51.404 c 8.2181,-6.4885 17.4144,-16.9614 27.5393,-19.9924 2.4393,-0.7304 5.2106,-0.7928 7.6841,-0.9911 -28.6724,23.2442 -57.4392,46.7671 -85.401,70.8208 -9.1736,7.8904 -19.5492,15.1975 -27.7277,24.0625 5.1493,1.4915 9.729,1.8907 15.3047,1.7754 q 47.9167,-38.2709 94.8176,-77.7453 c 7.4199,-6.1665 13.9569,-13.5797 21.4852,-19.511 2.008,-1.582 4.4145,-2.2766 6.7644,-3.0521 z"
       id="path4-6"
       style="fill:#ffffff;fill-opacity:1;stroke-width:1.10939" /><path
       fill="#fef796"
       d="m 1455.2304,-987.62763 c 10.1899,-0.96452 23.2531,-2.38348 32.8343,-0.32683 0.6918,0.82057 1.0199,1.32703 0.8976,2.55653 -0.1144,1.14429 -1.0329,2.40043 -1.8767,3.24996 -3.1622,3.18562 -7.4331,5.99246 -10.9225,8.90826 -9.3274,7.79504 -18.5445,15.62855 -28.0126,23.26767 l -65.2517,53.48228 -4.5103,-1.16052 c -12.2813,-3.70478 -22.5402,-4.31242 -35.9583,-1.34264 0.2349,-0.27151 0.4655,-0.54488 0.7036,-0.81222 5.3061,-5.94471 12.7708,-10.96631 19.0312,-16.01733 l 31.6488,-25.69893 37.7138,-30.63088 c 5.5138,-4.47164 11.1626,-9.77513 16.9968,-13.77674 1.8931,-1.29759 4.5442,-1.4032 6.706,-1.69861 z"
       id="path5"
       style="fill:#ffffff;fill-opacity:1;stroke-width:1.10939" /><path
       fill="#a13be1"
       d="m 1346.8248,-898.7783 c 11.9666,-1.75943 26.287,-0.91772 36.2384,4.48866 15.4199,8.37569 47.5161,57.01502 58.8616,73.40556 5.9422,8.5839 12.7339,17.02044 17.6942,26.22612 1.9028,3.5327 3.0109,6.90191 3.6935,10.94153 -2.2666,7.06047 -6.7672,10.81496 -12.6239,15.43479 -1.9645,1.27074 -3.9345,2.58851 -6.1391,3.33514 -8.9905,3.04544 -19.8609,-1.45115 -27.0634,-5.16372 -36.2644,-18.69523 -69.5566,-64.87579 -77.6481,-104.47541 -1.1567,-5.66152 -3.3659,-15.29961 0.6885,-20.9254 1.6122,-2.23708 3.8456,-2.64138 6.2983,-3.26727 z"
       id="path6"
       style="fill:#ffffff;fill-opacity:1;stroke-width:1.10939" /><path
       fill="#fd898a"
       d="m 1675.2636,-935.6742 c 17.8564,19.17235 34.8963,46.66212 48.8485,65.81873 5.6317,7.731 16.6024,19.83613 20.4397,27.8713 l 169.0412,230.59442 c 1.3684,1.99936 2.8776,3.97116 4.0917,6.06851 4.0868,4.53126 8.363,10.07095 11.6903,15.19112 7.3884,8.42101 13.6754,17.6811 20.3772,26.63749 10.1865,13.43688 20.268,26.95186 30.2446,40.54495 10.752,14.41151 21.7254,28.60125 31.9383,43.41147 3.7708,5.47037 8.2614,11.1623 11.0786,17.22004 -0.756,1.58981 -1.478,3.54552 -2.5031,4.99426 -4.8264,8.55546 -10.9064,16.66014 -18.907,22.90003 -2.037,1.6761 -8.3268,7.63355 -10.8769,7.52847 -0.1305,-0.006 -0.2487,-0.0599 -0.3732,-0.0887 -0.2482,0.83698 -0.8624,1.35999 -1.451,2.03987 -1.6345,0.59241 -2.1075,0.46238 -3.6186,-0.12377 -0.2024,-0.078 -0.3997,-0.1652 -0.5995,-0.2478 l 0.2746,1.46872 c -0.5831,1.01613 -1.1482,1.26451 -2.1221,1.91834 -1.9323,0.55742 -3.0994,0.0901 -4.8572,-0.4355 -0.9579,-0.28645 -0.4565,-0.32657 -1.4273,0.048 l 0.5638,1.26321 c -1.8717,1.13224 -5.7951,0.68943 -7.8998,0.72488 -1.2236,-2.14016 -2.3091,-4.16873 -4.1058,-5.89279 l 2.9544,5.59496 c -0.8437,-0.19578 -1.6794,-0.41053 -2.507,-0.64428 -7.224,-2.06937 -20.1542,-11.65059 -23.3727,-19.02116 -107.2764,-127.62021 -141.5121,-176.73563 -320.59,-421.46719 -1.8911,-2.06431 -14.2369,-16.22395 -13.8467,-19.26897 l 28.4165,-23.59478 z"
       id="path36"
       style="fill:#ffffff;fill-opacity:1;stroke-width:1.10939"
       sodipodi:nodetypes="cccccccccccccccccccsccccccccccc" /></g></svg>
