<?xml version="1.0" encoding="UTF-8" standalone="no"?>
<svg
   width="63mm"
   height="88mm"
   version="1.1"
   id="svg49"
   sodipodi:docname="damage-wound-as.svg"
   inkscape:version="1.4.2 (ebf0e94, 2025-05-08)"
   viewBox="0 0 238.11024 332.59843"
   xml:space="preserve"
   inkscape:export-filename="card-conflict-sa.png"
   inkscape:export-xdpi="96"
   inkscape:export-ydpi="96"
   xmlns:inkscape="http://www.inkscape.org/namespaces/inkscape"
   xmlns:sodipodi="http://sodipodi.sourceforge.net/DTD/sodipodi-0.dtd"
   xmlns="http://www.w3.org/2000/svg"
   xmlns:svg="http://www.w3.org/2000/svg"><sodipodi:namedview
     id="namedview49"
     pagecolor="#ffffff"
     bordercolor="#000000"
     borderopacity="0.25"
     inkscape:showpageshadow="2"
     inkscape:pageopacity="0.0"
     inkscape:pagecheckerboard="0"
     inkscape:deskcolor="#d1d1d1"
     inkscape:zoom="1.8488366"
     inkscape:cx="190.11956"
     inkscape:cy="193.36484"
     inkscape:window-width="1904"
     inkscape:window-height="1041"
     inkscape:window-x="0"
     inkscape:window-y="0"
     inkscape:window-maximized="0"
     inkscape:current-layer="svg49"
     inkscape:document-units="mm"
     showgrid="false" /><defs
     id="defs17"><linearGradient
       id="gradient_0"
       gradientUnits="userSpaceOnUse"
       x1="787.83301"
       y1="417.13614"
       x2="896.2948"
       y2="336.46844"><stop
         offset="0"
         stop-color="#167F8A"
         id="stop16" /><stop
         offset="1"
         stop-color="#159BA9"
         id="stop17" /></linearGradient><linearGradient
       id="gradient_0-2"
       gradientUnits="userSpaceOnUse"
       x1="439.11206"
       y1="464.522"
       x2="373.02579"
       y2="386.0676"><stop
         offset="0"
         stop-color="#FEA902"
         id="stop24-7" /><stop
         offset="1"
         stop-color="#FEC100"
         id="stop25-8" /></linearGradient><linearGradient
       id="gradient_0-8"
       gradientUnits="userSpaceOnUse"
       x1="505.63708"
       y1="183.79691"
       x2="171.41376"
       y2="155.43059"><stop
         offset="0"
         stop-color="#EEA800"
         id="stop3" /><stop
         offset="1"
         stop-color="#FEF49E"
         id="stop4" /></linearGradient><linearGradient
       id="gradient_1-2"
       gradientUnits="userSpaceOnUse"
       x1="297.28619"
       y1="286.58209"
       x2="163.5318"
       y2="635.06488"><stop
         offset="0"
         stop-color="#BE8500"
         id="stop5" /><stop
         offset="1"
         stop-color="#FFEA5F"
         id="stop6" /></linearGradient><linearGradient
       id="gradient_2"
       gradientUnits="userSpaceOnUse"
       x1="690.96869"
       y1="886.34503"
       x2="530.02826"
       y2="327.17783"><stop
         offset="0"
         stop-color="#936602"
         id="stop7" /><stop
         offset="1"
         stop-color="#E6AB0B"
         id="stop8" /></linearGradient><linearGradient
       id="gradient_0-6"
       gradientUnits="userSpaceOnUse"
       x1="756.237"
       y1="543.65344"
       x2="570.92169"
       y2="327.42014"><stop
         offset="0"
         stop-color="#9650B5"
         id="stop1" /><stop
         offset="1"
         stop-color="#B262D0"
         id="stop2" /></linearGradient><linearGradient
       id="gradient_1-21"
       gradientUnits="userSpaceOnUse"
       x1="431.04391"
       y1="954.88794"
       x2="538.14734"
       y2="89.44886"><stop
         offset="0"
         stop-color="#002757"
         id="stop3-8"
         style="stop-color:#000000;stop-opacity:1;" /><stop
         offset="1"
         stop-color="#4B448F"
         id="stop4-0" /></linearGradient><clipPath
       clipPathUnits="userSpaceOnUse"
       id="clipPath2"><rect
         style="fill:#ffffff;fill-opacity:1;stroke:none;stroke-width:3.09986;stroke-opacity:0.498188"
         id="rect2"
         width="456.7182"
         height="624.02332"
         x="141.22937"
         y="278.96655" /></clipPath><clipPath
       clipPathUnits="userSpaceOnUse"
       id="clipPath3"><rect
         style="display:inline;fill:#ffffff;fill-opacity:1;stroke:none;stroke-width:3.52442;stroke-opacity:0.498188"
         id="rect3"
         width="519.271"
         height="709.49048"
         x="119.16489"
         y="235.23164" /></clipPath><clipPath
       clipPathUnits="userSpaceOnUse"
       id="clipPath81"><path
         fill="none"
         stroke="#2ba6de"
         stroke-dasharray="3.64393"
         d="m 183.41226,284.61622 c 0,-5.45579 4.33729,-9.869 9.68679,-9.869 h 389.91148 c 5.34951,0 9.68681,4.41321 9.68681,9.869 v 572.37155 c 0,5.45075 -4.3373,9.86902 -9.68681,9.86902 H 193.09905 c -5.3495,0 -9.68679,-4.41827 -9.68679,-9.86902 z"
         id="path81"
         style="display:inline;stroke-width:2.53051" /></clipPath><clipPath
       clipPathUnits="userSpaceOnUse"
       id="clipPath4"><rect
         style="fill:#ffffff;fill-opacity:1;stroke:none;stroke-width:0.999997;stroke-dasharray:none;stroke-opacity:1"
         id="rect5"
         width="825.00012"
         height="1125"
         x="0.49988478"
         y="0.49890059"
         inkscape:label="clip" /></clipPath><clipPath
       clipPathUnits="userSpaceOnUse"
       id="clipPath5"><rect
         style="fill:#ffffff;fill-opacity:1;stroke:none;stroke-width:0.999997;stroke-dasharray:none;stroke-opacity:1"
         id="rect6"
         width="825.00012"
         height="1125"
         x="0.49988478"
         y="0.49890059"
         inkscape:label="clip" /></clipPath><clipPath
       clipPathUnits="userSpaceOnUse"
       id="clipPath6"><rect
         style="fill:#ffffff;fill-opacity:1;stroke:none;stroke-width:0.999997;stroke-dasharray:none;stroke-opacity:1"
         id="rect7"
         width="825.00012"
         height="1125"
         x="0.49988478"
         y="0.49890059"
         inkscape:label="clip" /></clipPath><clipPath
       clipPathUnits="userSpaceOnUse"
       id="clipPath7"><rect
         style="fill:#ffffff;fill-opacity:1;stroke:none;stroke-width:0.999997;stroke-dasharray:none;stroke-opacity:1"
         id="rect8"
         width="825.00012"
         height="1125"
         x="0.49988478"
         y="0.49890059"
         inkscape:label="clip" /></clipPath><clipPath
       clipPathUnits="userSpaceOnUse"
       id="clipPath8"><rect
         style="fill:#ffffff;fill-opacity:1;stroke:none;stroke-width:0.999997;stroke-dasharray:none;stroke-opacity:1"
         id="rect9"
         width="825.00012"
         height="1125"
         x="0.49988478"
         y="0.49890059"
         inkscape:label="clip" /></clipPath><clipPath
       clipPathUnits="userSpaceOnUse"
       id="clipPath10"><rect
         style="fill:#ffffff;fill-opacity:1;stroke:none;stroke-width:0.999997;stroke-dasharray:none;stroke-opacity:1"
         id="rect11"
         width="825.00012"
         height="1125"
         x="0.49988478"
         y="0.49890059"
         inkscape:label="clip" /></clipPath><clipPath
       clipPathUnits="userSpaceOnUse"
       id="clipPath12"><rect
         style="fill:#ffffff;fill-opacity:1;stroke:none;stroke-width:0.999997;stroke-dasharray:none;stroke-opacity:1"
         id="rect13"
         width="825.00012"
         height="1125"
         x="0.49988478"
         y="0.49890059"
         inkscape:label="clip" /></clipPath><clipPath
       clipPathUnits="userSpaceOnUse"
       id="clipPath14"><rect
         style="display:inline;fill:#ffffff;fill-opacity:1;stroke:none;stroke-width:0.292109;stroke-dasharray:none;stroke-opacity:1"
         id="rect14"
         width="238.11024"
         height="332.59845"
         x="0"
         y="0"
         inkscape:label="clip" /></clipPath></defs><defs
     id="defs25"><linearGradient
       id="gradient_1"
       gradientUnits="userSpaceOnUse"
       x1="567.4491"
       y1="699.04437"
       x2="868.41522"
       y2="779.63495"><stop
         offset="0"
         stop-color="#176366"
         id="stop24"
         style="stop-color:#000000;stop-opacity:1;" /><stop
         offset="1"
         stop-color="#157C89"
         id="stop25" /></linearGradient></defs><rect
     style="display:inline;fill:#ffffff;fill-opacity:1;stroke:none;stroke-width:1.29498;stroke-dasharray:none"
     id="rect16-4-2"
     width="238.11023"
     height="332.59842"
     x="0"
     y="0"
     rx="0.547414"
     ry="0.53913176"
     inkscape:label="background"
     sodipodi:insensitive="true" /><g
     id="g1"
     transform="matrix(1.3155287,0,0,1.3146165,-11.1814,-11.174012)"
     inkscape:label="template"
     style="display:none"><g
       id="g104">
	
	<path
   fill="none"
   stroke="#ec1e28"
   d="m 9,252 c 0,4.971 4.029,9 9,9 h 162 c 4.971,0 9,-4.029 9,-9 V 18 c 0,-4.971 -4.029,-9 -9,-9 H 18 c -4.971,0 -9,4.029 -9,9 z"
   id="path104" />
</g><g
       id="g105">
	<path
   fill="none"
   stroke="#2ba6de"
   stroke-dasharray="1.44"
   d="m 18.13,21.906 c 0,-2.156 1.714,-3.9 3.828,-3.9 h 154.084 c 2.114,0 3.828,1.744 3.828,3.9 v 226.188 c 0,2.154 -1.714,3.9 -3.828,3.9 H 21.958 c -2.114,0 -3.828,-1.746 -3.828,-3.9 z"
   id="path105" />
</g></g><g
     id="g13"
     inkscape:label="figure"
     clip-path="url(#clipPath14)"><path
       id="path5"
       style="fill:none;stroke:#e5e5e5;stroke-width:2.92842;stroke-dasharray:none;stroke-opacity:1"
       d="m 627.63765,794.90043 10.6186,222.00537 c 13.65341,37.4136 37.21568,68.4983 53.27205,92.0363 l 20.84059,29.4505 c 3.64414,4.9654 9.27772,11.0334 11.55248,16.7467 1.7997,4.5175 1.40117,11.3052 1.75276,16.1582 l 0.6652,7.7657 95.03009,-40.2739 c -1.44716,-2.5075 -2.84453,-5.0649 -4.38819,-7.4842 l -10.97677,-16.1582 c -1.31959,-1.8686 -4.03988,-4.7309 -4.78482,-6.691 -0.63894,-1.6823 -0.31463,-5.7417 -0.42212,-7.6504 l -1.44574,-21.0325 c -2.27797,-21.4057 -6.41761,-43.0029 -13.90645,-63.2382 -6.37162,-17.21086 -14.32411,-34.37909 -23.48887,-50.29125 -3.89299,-6.7569 -9.71095,-13.50085 -12.87023,-20.45681 -0.99694,-2.19288 -0.89557,-4.59818 -0.89557,-6.9468 0,-40.42412 -11.59628,-83.65831 -41.07987,-112.8258 -16.65541,-16.47397 -40.26207,-28.35754 -63.77553,-30.24375 -3.84229,-0.30958 -11.14453,-0.0392 -15.69761,-0.86996 z"
       clip-path="none"
       transform="matrix(0.31646153,0,0,0.31646257,-12.14184,-12.142705)" /><path
       id="path6"
       style="fill:none;stroke:#e5e5e5;stroke-width:2.92842;stroke-dasharray:none;stroke-opacity:1"
       d="m 222.27613,791.8812 c -0.0602,0.0255 -0.13214,0.0907 -0.19191,0.11509 -3.86407,1.57325 -12.33168,0.40299 -16.83622,0.8188 -6.15008,0.56669 -12.31818,1.87719 -18.24351,3.59495 -36.1522,10.47639 -66.23269,37.31861 -80.20235,72.37274 -5.47102,13.72884 -8.176114,28.97556 -9.978929,43.60021 l -2.187682,25.89406 c -0.181396,2.3759 0.110307,7.44261 -0.716428,9.51831 -2.367878,5.93971 -10.023977,13.48315 -13.701831,19.22861 -10.909858,17.04065 -19.998279,35.39173 -26.559275,54.53863 -5.732692,16.7308 -9.338085,34.0167 -12.141015,51.4554 -2.074125,12.9118 -3.452737,26.6647 -7.177141,39.212 -2.167224,7.3011 -9.333753,14.4712 -13.266844,21.1092 -3.210264,5.4168 -6.047385,10.9649 -8.661182,16.606 l 101.887307,40.517 c 0.82943,-15.1513 2.55235,-30.0825 8.89146,-44.176 6.79222,-15.1014 22.12773,-27.2917 32.20119,-40.6064 15.42531,-20.3877 46.87264,-61.8292 59.20826,-85.4733 z"
       clip-path="none"
       transform="matrix(0.31646153,0,0,0.31646257,-12.14184,-12.142705)" /><path
       id="path11"
       style="fill:none;stroke:#e5e5e5;stroke-width:2.92842;stroke-dasharray:none;stroke-opacity:1"
       d="m 633.93205,926.59658 -415.99293,-5.73155 -3.33909,99.34147 c 0.27892,-0.5346 0.81596,-1.3009 1.07466,-1.8167 5.53351,10.9949 12.2787,40.8168 19.74035,50.6622 10.6128,14.0007 15.54618,34.8687 23.88543,51.1483 l 322.90755,6.0258 c 4.54593,-23.1156 9.56163,-30.9625 28.06891,-58.5686 19.89711,-29.6794 25.23521,-49.2692 27.72347,-51.4041 0.08,0.2214 0.17511,0.4311 0.25585,0.6524 z"
       clip-path="none"
       transform="matrix(0.31646153,0,0,0.31646257,-12.14184,-12.142705)" /><path
       id="path12"
       style="fill:none;stroke:#e5e5e5;stroke-width:0.926734;stroke-dasharray:none;stroke-opacity:1"
       d="m 100.06305,214.07297 c -0.002,0.006 -0.002,0.0594 -0.004,0.0647 -9.873516,7.74333 -21.310688,11.73437 -32.121991,17.85459 -2.231269,1.26296 -4.34477,2.6963 -6.437346,4.17415 -0.958366,0.67682 -2.229042,1.83312 -3.299647,2.29156 l -1.372493,40.81856 131.645837,1.81382 -1.99196,-41.67691 c -0.24051,-0.0439 -0.63032,-0.0223 -0.80162,-0.0931 -0.88397,-0.36578 -1.94223,-1.28845 -2.76118,-1.82595 -2.15756,-1.41587 -4.29405,-2.88286 -6.54665,-4.14581 l -15.17429,-7.97588 c -6.55707,-3.26356 -13.00798,-6.35992 -18.64403,-11.12572 l 0.004,-0.17409 z" /><path
       id="path1"
       style="fill:none;stroke:#000000;stroke-width:0.926734;stroke-dasharray:none;stroke-opacity:1"
       d="m 121.89131,126.66647 c -1.07903,-0.0488 -2.19934,-0.10063 -3.27536,0.008 -7.3776,0.89261 -14.14016,3.70422 -18.818097,9.71678 -5.742817,7.38067 -6.358781,21.45798 -5.214692,30.53903 -0.685341,0.68331 -0.902325,0.329 -1.570874,0.71257 -1.024199,0.58727 -1.423598,2.19628 -1.429183,3.27941 -0.01176,2.28055 0.583881,4.43691 1.016212,6.656 0.75392,3.8717 1.26006,9.11331 4.315876,11.93949 0.482132,0.44554 1.07468,0.79096 1.668049,1.06479 0.374397,2.29689 1.101352,22.05549 0.477745,23.49032 H 141.5556 l 0.48988,-15.16222 c 0.0417,-2.27751 -0.41445,-6.24571 0.37248,-8.32 l 0.29959,-0.26316 c 3.61462,-3.22905 4.33446,-7.32141 5.29159,-11.83018 0.46839,-2.20537 1.01939,-4.46866 1.10933,-6.72483 0.0524,-1.30055 0.13843,-2.53363 -0.59515,-3.67213 -0.5695,-0.42522 -1.16821,-0.82797 -1.65591,-1.3482 0.57764,-10.30846 0.78293,-23.24737 -6.47378,-31.43379 -4.60528,-5.19513 -11.60478,-8.34208 -18.50232,-8.65198 z" /></g><g
     id="body"
     transform="matrix(0.19950402,0,0,0.19950467,27.619316,-15.380822)"><path
       fill="#37b2df"
       d="m 283.17389,596.49529 c 7.29878,0.33206 8.88162,-0.0804 16.00924,0.0851 0.24196,2.35569 0.33325,4.67189 0.92537,6.98158 0.21806,0.85086 0.4925,1.77406 0.99588,2.50285 l 16.01311,4.53618 4.00828,1.04672 c 1.93273,0.46715 3.81933,0.85727 5.56272,1.86704 2.18883,1.26767 3.9146,3.27912 5.0637,5.51213 1.77008,3.43983 1.78687,7.37701 2.35122,11.1269 l -11.04878,5.03231 -1.42198,0.67869 c -0.29486,0.12678 -0.63934,0.21975 -0.90678,0.39192 l -0.59345,3.61479 -1.32044,5.61984 -2.38781,8.10544 -3.20945,9.55447 c -1.97909,6.59701 -2.50721,13.63264 -1.22409,20.41476 0.87817,4.64136 2.58945,9.06653 4.01324,13.55455 -0.13414,0.19564 -0.56192,0.36106 -0.78083,0.47331 -1.10697,0.56509 -2.26054,1.03232 -3.43657,1.43319 -7.0731,2.41002 -14.30448,3.24558 -21.75211,3.10431 -8.13756,-0.15454 -16.27934,-1.50682 -23.6363,-5.12186 0.49613,-0.95869 0.87937,-2.02123 1.25632,-3.03428 l 1.8831,-5.71358 c 0.89796,-3.03667 1.66371,-6.12763 1.94359,-9.28991 0.87418,-9.87668 -3.30531,-19.13342 -6.39017,-28.24646 -1.3144,-3.88248 -2.30932,-7.96381 -3.19666,-11.96352 l -0.36234,-2.37887 c -1.65985,-0.59948 -3.27817,-1.56409 -4.86979,-2.33418 l -8.36781,-4.052 0.69873,-5.17419 c 0.85173,-5.06344 3.15536,-9.80089 8.12778,-11.8773 2.24013,-0.93552 4.81304,-1.44191 7.16087,-2.06228 l 11.29691,-3.18688 3.34118,-0.99709 c 0.80258,-0.24161 1.7562,-0.45013 2.43888,-0.93551 1.45398,-2.80425 1.72577,-6.15811 1.81524,-9.2682 z"
       id="path5-3"
       sodipodi:nodetypes="ccccccccccccccccccccccccscccccccccccc"
       style="fill:none;stroke:#000000;stroke-width:2.10451;stroke-dasharray:none;stroke-opacity:1" /><path
       fill="#26A4D4"
       d="m 291.26778,657.48848 0.0627,0.0529 0.0441,34.39004 -0.0811,0.1627 c -0.12182,-0.92567 -0.0889,-1.92401 -0.11397,-2.85943 l -0.14428,-3.72601 -0.23966,-11.24502 0.22097,-8.86765 0.14825,-5.96255 c 0.0297,-0.65042 -0.0152,-1.30151 0.10303,-1.94505 z"
       id="path6-7"
       style="fill:#6f838b;fill-opacity:1;stroke-width:0.0990362;stroke-dasharray:none" /><path
       fill="#26A4D4"
       d="m 320.65964,629.12126 c -0.14503,1.18222 -0.44555,2.36517 -0.73139,3.52033 -0.29654,1.19846 -0.60848,2.45583 -1.09383,3.59369 -0.39492,0.92548 -0.96492,1.81969 -1.46818,2.69177 -1.54792,2.68216 -3.10979,5.22674 -5.37214,7.38061 -3.03293,2.88755 -6.79305,4.3086 -10.97477,4.21251 l -0.067,-0.0393 -0.0154,-0.0762 0.80173,-0.21946 c 4.45387,-1.19413 8.3186,-3.98271 11.14747,-7.59696 2.0068,-2.56394 3.57192,-5.48384 5.08832,-8.35467 z"
       id="path7-7"
       style="fill:#768084;fill-opacity:1;stroke-width:0.123795;stroke-dasharray:none" /><path
       fill="#26A4D4"
       d="m 260.34705,627.90946 c 0.25767,0.30548 0.40388,0.99081 0.55385,1.37381 l 1.14271,2.73433 c 0.81392,1.81983 1.66491,3.62625 2.65596,5.35758 2.92933,5.11694 6.90406,10.40111 12.73109,12.34639 0.86705,0.28943 1.82695,0.54564 2.73252,0.67255 0.78048,0.10927 1.5775,0.12774 2.33998,0.33457 l -1.21309,0.0885 c -4.54064,0.21251 -9.08406,-1.42355 -12.44396,-4.47471 -3.16985,-2.8785 -5.15847,-6.66571 -6.66209,-10.61978 -0.93322,-2.45445 -1.71502,-5.17864 -1.83697,-7.81324 z"
       id="path8-0"
       style="fill:#6c858e;fill-opacity:1;stroke-width:0.120743" /><text
       xml:space="preserve"
       style="font-style:normal;font-variant:normal;font-weight:normal;font-stretch:normal;font-size:113.547px;font-family:Amiri;-inkscape-font-specification:'Amiri, Normal';font-variant-ligatures:normal;font-variant-caps:normal;font-variant-numeric:normal;font-variant-east-asian:normal;fill:#000000;fill-opacity:1;stroke:none;stroke-width:0.215296;stroke-dasharray:none;stroke-opacity:1;paint-order:markers fill stroke"
       x="339.74225"
       y="684.15222"
       id="text1-4"><tspan
         sodipodi:role="line"
         id="tspan1-55"
         x="339.74225"
         y="684.15222">Body:-1</tspan></text><path
       id="rect1"
       d="m 282.50527,648.92026 h 17.61435 l -5.26564,1.30119 -0.49288,12.72354 -7.11349,-0.0649 -0.0833,-12.65856 z"
       sodipodi:nodetypes="ccccccc"
       style="stroke-width:2.53663" /><path
       style="fill:#000000;fill-opacity:1;stroke-width:2.10969"
       id="path2-6-0"
       sodipodi:type="arc"
       sodipodi:cx="291.00009"
       sodipodi:cy="624.9527"
       sodipodi:rx="8.5723772"
       sodipodi:ry="8.5723772"
       sodipodi:start="0.027304543"
       sodipodi:end="6.2831853"
       sodipodi:open="true"
       sodipodi:arc-type="arc"
       d="m 299.56927,625.18673 a 8.5723772,8.5723772 0 0 1 -8.74471,8.33655 8.5723772,8.5723772 0 0 1 -8.39605,-8.68761 8.5723772,8.5723772 0 0 1 8.6301,-8.45515 8.5723772,8.5723772 0 0 1 8.51386,8.57218" /><path
       style="fill:#000000;fill-opacity:1;stroke-width:2.10969"
       id="path2-6-0-7"
       sodipodi:type="arc"
       sodipodi:cx="282.51749"
       sodipodi:cy="640.08997"
       sodipodi:rx="8.5723772"
       sodipodi:ry="8.5723772"
       sodipodi:start="0.027304543"
       sodipodi:end="6.2831853"
       sodipodi:open="true"
       sodipodi:arc-type="arc"
       d="m 291.08667,640.324 a 8.5723772,8.5723772 0 0 1 -8.74472,8.33655 8.5723772,8.5723772 0 0 1 -8.39604,-8.68761 8.5723772,8.5723772 0 0 1 8.63009,-8.45515 8.5723772,8.5723772 0 0 1 8.51386,8.57218" /><path
       style="fill:#000000;fill-opacity:1;stroke-width:2.10969"
       id="path2-6-0-9"
       sodipodi:type="arc"
       sodipodi:cx="299.66608"
       sodipodi:cy="640.08997"
       sodipodi:rx="8.5723772"
       sodipodi:ry="8.5723772"
       sodipodi:start="0.027304543"
       sodipodi:end="6.2831853"
       sodipodi:open="true"
       sodipodi:arc-type="arc"
       d="m 308.23526,640.324 a 8.5723772,8.5723772 0 0 1 -8.74472,8.33655 8.5723772,8.5723772 0 0 1 -8.39604,-8.68761 8.5723772,8.5723772 0 0 1 8.63009,-8.45515 8.5723772,8.5723772 0 0 1 8.51386,8.57218" /><path
       sodipodi:type="star"
       style="fill:#000000"
       id="path1-99"
       inkscape:flatsided="false"
       sodipodi:sides="3"
       sodipodi:cx="-4.2679658"
       sodipodi:cy="5.2618756"
       sodipodi:r1="0.76004869"
       sodipodi:r2="0.33594152"
       sodipodi:arg1="1.5707963"
       sodipodi:arg2="2.6179939"
       inkscape:rounded="0"
       inkscape:randomized="0"
       d="m -4.2679658,6.0219243 -0.2909339,-0.5920779 -0.3672876,-0.5479951 0.6582215,0.044083 0.6582215,-0.044083 -0.3672876,0.5479951 z"
       inkscape:transform-center-y="0.21087664"
       transform="matrix(4.5466021,0,0,4.5466021,310.29061,582.85793)" /><path
       sodipodi:type="star"
       style="fill:#000000"
       id="path1-7"
       inkscape:flatsided="false"
       sodipodi:sides="3"
       sodipodi:cx="-4.2679658"
       sodipodi:cy="5.2618756"
       sodipodi:r1="0.76004869"
       sodipodi:r2="0.33594152"
       sodipodi:arg1="1.5707963"
       sodipodi:arg2="2.6179939"
       inkscape:rounded="0"
       inkscape:randomized="0"
       d="m -4.2679658,6.0219243 -0.2909339,-0.5920779 -0.3672876,-0.5479951 0.6582215,0.044083 0.6582215,-0.044083 -0.3672876,0.5479951 z"
       inkscape:transform-center-y="-0.1986054"
       transform="matrix(2.1410252,4.0109351,-4.0109351,2.1410252,320.82082,620.19352)"
       inkscape:transform-center-x="0.014034468" /><path
       sodipodi:type="star"
       style="fill:#000000"
       id="path1-9"
       inkscape:flatsided="false"
       sodipodi:sides="3"
       sodipodi:cx="-4.2679658"
       sodipodi:cy="5.2618756"
       sodipodi:r1="0.76004869"
       sodipodi:r2="0.33594152"
       sodipodi:arg1="1.5707963"
       sodipodi:arg2="2.6179939"
       inkscape:rounded="0"
       inkscape:randomized="0"
       d="m -4.2679658,6.0219243 -0.2909339,-0.5920779 -0.3672876,-0.5479951 0.6582215,0.044083 0.6582215,-0.044083 -0.3672876,0.5479951 z"
       inkscape:transform-center-y="0.0047987713"
       transform="matrix(-0.05177666,-4.5463077,4.5463077,-0.05177666,263.24506,591.48829)"
       inkscape:transform-center-x="-0.2066996" /><path
       sodipodi:type="star"
       style="fill:#000000"
       id="path1-5"
       inkscape:flatsided="false"
       sodipodi:sides="3"
       sodipodi:cx="-4.2679658"
       sodipodi:cy="5.2618756"
       sodipodi:r1="0.76004869"
       sodipodi:r2="0.33594152"
       sodipodi:arg1="1.5707963"
       sodipodi:arg2="2.6179939"
       inkscape:rounded="0"
       inkscape:randomized="0"
       d="m -4.2679658,6.0219243 -0.2909339,-0.5920779 -0.3672876,-0.5479951 0.6582215,0.044083 0.6582215,-0.044083 -0.3672876,0.5479951 z"
       inkscape:transform-center-y="0.024724087"
       transform="matrix(-0.26655543,4.5387818,-4.5387818,-0.26655543,316.77845,631.68679)"
       inkscape:transform-center-x="0.18910257" /></g><path
     style="fill:#fe0000;fill-opacity:1;stroke:none;stroke-width:0.316462;stroke-dasharray:none;stroke-opacity:1"
     d="M 149.79971,200.39371 C 84.441288,152.46409 91.703338,146.65443 91.703338,146.65443 Z"
     id="path18"
     inkscape:label="slash" /><text
     xml:space="preserve"
     style="font-style:normal;font-variant:normal;font-weight:normal;font-stretch:normal;font-size:10.1268px;font-family:Caladea;-inkscape-font-specification:'Caladea, Normal';font-variant-ligatures:normal;font-variant-caps:normal;font-variant-numeric:normal;font-variant-east-asian:normal;text-align:start;writing-mode:lr-tb;direction:ltr;text-anchor:start;fill:#000000;fill-opacity:1;stroke:none;stroke-width:0.407865;stroke-opacity:1"
     x="-200.66006"
     y="35.234581"
     id="text1-8-1-1-7-4-2-6-7"
     transform="matrix(0,-0.99999551,1.0000045,0,0,0)"
     inkscape:label="extreme1"><tspan
       sodipodi:role="line"
       id="tspan14"
       x="-200.66006"
       y="35.234581"
       style="stroke-width:0.407865">Beheaded. Dead.</tspan></text><text
     xml:space="preserve"
     style="font-style:normal;font-variant:normal;font-weight:normal;font-stretch:normal;font-size:13.5024px;font-family:Caladea;-inkscape-font-specification:'Caladea, Normal';font-variant-ligatures:normal;font-variant-caps:normal;font-variant-numeric:normal;font-variant-east-asian:normal;text-align:start;writing-mode:lr-tb;direction:ltr;text-anchor:start;fill:#000000;fill-opacity:1;stroke:none;stroke-width:0.407865;stroke-opacity:1"
     x="-191.46739"
     y="23.044746"
     id="text1-8-1-1-7-4-2-6"
     transform="matrix(0,-0.99999551,1.0000045,0,0,0)"
     inkscape:label="extreme"><tspan
       sodipodi:role="line"
       id="tspan13"
       x="-191.46739"
       y="23.044746"
       style="stroke-width:0.407865">Extreme</tspan></text><text
     xml:space="preserve"
     style="font-style:normal;font-variant:normal;font-weight:normal;font-stretch:normal;font-size:10.1268px;font-family:Caladea;-inkscape-font-specification:'Caladea, Normal';font-variant-ligatures:normal;font-variant-caps:normal;font-variant-numeric:normal;font-variant-east-asian:normal;text-align:start;writing-mode:lr-tb;direction:ltr;text-anchor:start;fill:#000000;fill-opacity:1;stroke:none;stroke-width:0.407865;stroke-opacity:1"
     x="-191.13222"
     y="-270.12448"
     id="text1-8-1-1-7-4-2-7"
     transform="scale(-0.9999923,-1.0000077)"
     inkscape:label="critical1"><tspan
       sodipodi:role="line"
       id="tspan16"
       x="-191.13222"
       y="-270.12448"
       style="stroke-width:0.407865">Throat Slash. Bleeding:3. Stress:2</tspan></text><text
     xml:space="preserve"
     style="font-style:normal;font-variant:normal;font-weight:normal;font-stretch:normal;font-size:13.5024px;font-family:Caladea;-inkscape-font-specification:'Caladea, Normal';font-variant-ligatures:normal;font-variant-caps:normal;font-variant-numeric:normal;font-variant-east-asian:normal;text-align:start;writing-mode:lr-tb;direction:ltr;text-anchor:start;fill:#000000;fill-opacity:1;stroke:none;stroke-width:0.407865;stroke-opacity:1"
     x="-138.93787"
     y="-279.97574"
     id="text1-8-1-1-7-4-2"
     transform="scale(-0.9999923,-1.0000077)"
     inkscape:label="critical"><tspan
       sodipodi:role="line"
       id="tspan17"
       x="-138.93787"
       y="-279.97574"
       style="font-style:normal;font-variant:normal;font-weight:normal;font-stretch:normal;font-size:13.5024px;font-family:Caladea;-inkscape-font-specification:'Caladea, Normal';font-variant-ligatures:normal;font-variant-caps:normal;font-variant-numeric:normal;font-variant-east-asian:normal;stroke-width:0.407865">Critical</tspan></text><text
     xml:space="preserve"
     style="font-style:normal;font-variant:normal;font-weight:normal;font-stretch:normal;font-size:10.1268px;font-family:Caladea;-inkscape-font-specification:'Caladea, Normal';font-variant-ligatures:normal;font-variant-caps:normal;font-variant-numeric:normal;font-variant-east-asian:normal;text-align:start;writing-mode:lr-tb;direction:ltr;text-anchor:start;fill:#000000;fill-opacity:1;stroke:none;stroke-width:0.407865;stroke-opacity:1"
     x="101.24574"
     y="-204.74663"
     id="text1-8-1-1-7-4-4"
     transform="matrix(0,0.99999551,-1.0000045,0,0,0)"
     inkscape:label="major1"><tspan
       sodipodi:role="line"
       id="tspan18"
       x="101.24574"
       y="-204.74663"
       style="stroke-width:0.407865">Face Gash. Stress:1. Bleeding:1</tspan></text><text
     xml:space="preserve"
     style="font-style:normal;font-variant:normal;font-weight:normal;font-stretch:normal;font-size:13.5024px;font-family:Caladea;-inkscape-font-specification:'Caladea, Normal';font-variant-ligatures:normal;font-variant-caps:normal;font-variant-numeric:normal;font-variant-east-asian:normal;text-align:start;writing-mode:lr-tb;direction:ltr;text-anchor:start;fill:#000000;fill-opacity:1;stroke:none;stroke-width:0.407865;stroke-opacity:1"
     x="151.72368"
     y="-215.63872"
     id="text1-8-1-1-7-4"
     transform="matrix(0,0.99999551,-1.0000045,0,0,0)"
     inkscape:label="major"><tspan
       sodipodi:role="line"
       id="tspan15"
       x="151.72368"
       y="-215.63872"
       style="stroke-width:0.407865">Major</tspan></text><text
     xml:space="preserve"
     style="font-style:normal;font-variant:normal;font-weight:normal;font-stretch:normal;font-size:10.1268px;font-family:Caladea;-inkscape-font-specification:'Caladea, Normal';font-variant-ligatures:normal;font-variant-caps:normal;font-variant-numeric:normal;font-variant-east-asian:normal;text-align:start;writing-mode:lr-tb;direction:ltr;text-anchor:start;fill:#000000;fill-opacity:1;stroke:none;stroke-width:0.407865;stroke-opacity:1"
     x="73.024315"
     y="58.187828"
     id="text1-8-1-1-7-8"
     inkscape:label="minor1"><tspan
       sodipodi:role="line"
       id="tspan12"
       x="73.024315"
       y="58.187828"
       style="stroke-width:0.407865">Head Cut. Bleeding:1</tspan></text><text
     xml:space="preserve"
     style="font-style:normal;font-variant:normal;font-weight:normal;font-stretch:normal;font-size:13.5024px;font-family:Caladea;-inkscape-font-specification:'Caladea, Normal';font-variant-ligatures:normal;font-variant-caps:normal;font-variant-numeric:normal;font-variant-east-asian:normal;text-align:start;writing-mode:lr-tb;direction:ltr;text-anchor:start;fill:#000000;fill-opacity:1;stroke:none;stroke-width:0.407865;stroke-opacity:1"
     x="101.02305"
     y="46.045471"
     id="text1-8-1-1-7"
     inkscape:label="minor"><tspan
       sodipodi:role="line"
       id="tspan11"
       x="101.02305"
       y="46.045471"
       style="font-style:normal;font-variant:normal;font-weight:normal;font-stretch:normal;font-size:13.5024px;font-family:Caladea;-inkscape-font-specification:'Caladea, Normal';font-variant-ligatures:normal;font-variant-caps:normal;font-variant-numeric:normal;font-variant-east-asian:normal;stroke-width:0.407865">Minor</tspan></text><g
     id="g3"
     inkscape:label="ranksuit2"
     transform="matrix(0.31646153,0,0,0.31646257,-12.14184,-12.142705)"><g
       inkscape:label="suit2"
       id="layer1-7"
       transform="matrix(-5.3037294,0,0,-5.3037294,764.29301,953.58493)"><path
         id="path2-8"
         inkscape:transform-center-x="-0.020609428"
         inkscape:transform-center-y="-5.172673"
         d="M 6.1033962,31.257104 C 17.126244,27.265743 13.67248,26.078077 17.828866,0.00285597 22.235039,25.835166 19.259613,27.415731 29.67799,31.147997 Z"
         sodipodi:nodetypes="cccc"
         style="stroke-width:5.78597"
         transform="matrix(0.62032434,0,0,0.62032434,-0.14297856,-0.05433059)" /><path
         id="path2-0-8"
         inkscape:transform-center-x="-0.0047190459"
         inkscape:transform-center-y="-1.8077773"
         d="m 15.296007,36.08884 c 2.228506,-1.413232 2.084699,-3.421004 2.684749,-10.922925 0.653613,7.561489 0.453658,9.538166 2.713063,10.884795 z"
         sodipodi:nodetypes="cccc"
         style="stroke-width:1.63673"
         transform="matrix(0.62032434,0,0,0.62032434,-0.14297856,-0.05433059)" /></g><text
       xml:space="preserve"
       style="font-style:italic;font-variant:normal;font-weight:normal;font-stretch:normal;font-size:96.0002px;font-family:Caladea;-inkscape-font-specification:'Caladea, Italic';font-variant-ligatures:normal;font-variant-caps:normal;font-variant-numeric:normal;font-variant-east-asian:normal;text-align:start;writing-mode:lr-tb;direction:ltr;text-anchor:start;fill:#000000;fill-opacity:1;stroke:#000000;stroke-width:1.28882;stroke-opacity:0.498188"
       x="-733.18628"
       y="-962.96686"
       id="text1-5"
       transform="scale(-1)"
       inkscape:label="rank2"><tspan
         sodipodi:role="line"
         id="tspan1-5"
         style="font-style:italic;font-variant:normal;font-weight:normal;font-stretch:normal;font-size:96.0002px;font-family:Caladea;-inkscape-font-specification:'Caladea, Italic';font-variant-ligatures:normal;font-variant-caps:normal;font-variant-numeric:normal;font-variant-east-asian:normal;fill:#000000;fill-opacity:1;stroke-width:1.28882"
         x="-733.18628"
         y="-962.96686">A</tspan></text></g><g
     id="g2"
     inkscape:label="ranksuit1"
     transform="matrix(0.31646153,0,0,0.31646257,-12.14184,-12.142705)"><g
       inkscape:label="suit1"
       id="layer1"
       transform="matrix(5.3037294,0,0,5.3037294,60.612537,171.97072)"><path
         id="path2"
         inkscape:transform-center-x="-0.020609428"
         inkscape:transform-center-y="-5.172673"
         d="M 6.1033962,31.257104 C 17.126244,27.265743 13.67248,26.078077 17.828866,0.00285597 22.235039,25.835166 19.259613,27.415731 29.67799,31.147997 Z"
         sodipodi:nodetypes="cccc"
         style="stroke-width:5.78597"
         transform="matrix(0.62032434,0,0,0.62032434,0.2964921,-0.47594204)" /><path
         id="path2-0"
         inkscape:transform-center-x="-0.0047190459"
         inkscape:transform-center-y="-1.8077773"
         d="m 15.296007,36.08884 c 2.228506,-1.413232 2.084699,-3.421004 2.684749,-10.922925 0.653613,7.561489 0.453658,9.538166 2.713063,10.884795 z"
         sodipodi:nodetypes="cccc"
         style="stroke-width:1.63673"
         transform="matrix(0.62032434,0,0,0.62032434,0.2964921,-0.47594204)" /></g><text
       xml:space="preserve"
       style="font-style:italic;font-variant:normal;font-weight:normal;font-stretch:normal;font-size:96.0001px;font-family:Caladea;-inkscape-font-specification:'Caladea, Italic';font-variant-ligatures:normal;font-variant-caps:normal;font-variant-numeric:normal;font-variant-east-asian:normal;text-align:start;writing-mode:lr-tb;direction:ltr;text-anchor:start;fill:#000000;fill-opacity:1;stroke:#000000;stroke-width:1.28882;stroke-opacity:0.498188"
       x="92.926743"
       y="159.10373"
       id="text1"
       inkscape:label="rank1"><tspan
         sodipodi:role="line"
         id="tspan1"
         style="font-style:italic;font-variant:normal;font-weight:normal;font-stretch:normal;font-size:96.0001px;font-family:Caladea;-inkscape-font-specification:'Caladea, Italic';font-variant-ligatures:normal;font-variant-caps:normal;font-variant-numeric:normal;font-variant-east-asian:normal;fill:#000000;fill-opacity:1;stroke-width:1.28882"
         x="92.926743"
         y="159.10373">A</tspan></text></g><text
     xml:space="preserve"
     style="font-style:normal;font-variant:normal;font-weight:normal;font-stretch:normal;font-size:16.878px;font-family:Caladea;-inkscape-font-specification:'Caladea, Normal';font-variant-ligatures:normal;font-variant-caps:normal;font-variant-numeric:normal;font-variant-east-asian:normal;text-align:start;writing-mode:lr-tb;direction:ltr;text-anchor:start;fill:#000000;fill-opacity:1;stroke:none;stroke-width:0.407864;stroke-opacity:1"
     x="-160.13092"
     y="-307.62808"
     id="text1-8-1-1-2"
     inkscape:label="title2"
     transform="scale(-1)"><tspan
       sodipodi:role="line"
       id="tspan4-3"
       x="-160.13092"
       y="-307.62808"
       style="font-style:normal;font-variant:normal;font-weight:normal;font-stretch:normal;font-size:16.878px;font-family:Caladea;-inkscape-font-specification:'Caladea, Normal';font-variant-ligatures:normal;font-variant-caps:normal;font-variant-numeric:normal;font-variant-east-asian:normal;stroke-width:0.407864">Slash: Head</tspan></text><text
     xml:space="preserve"
     style="font-style:normal;font-variant:normal;font-weight:normal;font-stretch:normal;font-size:16.878px;font-family:Caladea;-inkscape-font-specification:'Caladea, Normal';font-variant-ligatures:normal;font-variant-caps:normal;font-variant-numeric:normal;font-variant-east-asian:normal;text-align:start;writing-mode:lr-tb;direction:ltr;text-anchor:start;fill:#000000;fill-opacity:1;stroke:none;stroke-width:0.407865;stroke-opacity:1"
     x="75.608681"
     y="25.761335"
     id="text1-8-1-1"
     inkscape:label="title1"><tspan
       sodipodi:role="line"
       id="tspan4"
       x="75.608681"
       y="25.761335"
       style="stroke-width:0.407865">Slash: Head</tspan></text></svg>
