<?xml version="1.0" encoding="UTF-8" standalone="no"?>
<svg
   width="825"
   height="1125"
   version="1.1"
   id="svg49"
   sodipodi:docname="damage-wound-as.svg"
   inkscape:version="1.4 (86a8ad7, 2024-10-11)"
   viewBox="0 0 825 1125"
   xml:space="preserve"
   inkscape:export-filename="card-conflict-sa.png"
   inkscape:export-xdpi="96"
   inkscape:export-ydpi="96"
   xmlns:inkscape="http://www.inkscape.org/namespaces/inkscape"
   xmlns:sodipodi="http://sodipodi.sourceforge.net/DTD/sodipodi-0.dtd"
   xmlns="http://www.w3.org/2000/svg"
   xmlns:svg="http://www.w3.org/2000/svg"><sodipodi:namedview
     id="namedview49"
     pagecolor="#ffffff"
     bordercolor="#000000"
     borderopacity="0.25"
     inkscape:showpageshadow="2"
     inkscape:pageopacity="0.0"
     inkscape:pagecheckerboard="0"
     inkscape:deskcolor="#d1d1d1"
     inkscape:zoom="0.46220914"
     inkscape:cx="274.76739"
     inkscape:cy="539.79893"
     inkscape:window-width="1904"
     inkscape:window-height="1041"
     inkscape:window-x="0"
     inkscape:window-y="0"
     inkscape:window-maximized="0"
     inkscape:current-layer="g4"
     inkscape:document-units="px"
     showgrid="false" /><defs
     id="defs17"><linearGradient
       id="gradient_0"
       gradientUnits="userSpaceOnUse"
       x1="787.83301"
       y1="417.13614"
       x2="896.2948"
       y2="336.46844"><stop
         offset="0"
         stop-color="#167F8A"
         id="stop16" /><stop
         offset="1"
         stop-color="#159BA9"
         id="stop17" /></linearGradient><linearGradient
       id="gradient_0-2"
       gradientUnits="userSpaceOnUse"
       x1="439.11206"
       y1="464.522"
       x2="373.02579"
       y2="386.0676"><stop
         offset="0"
         stop-color="#FEA902"
         id="stop24-7" /><stop
         offset="1"
         stop-color="#FEC100"
         id="stop25-8" /></linearGradient><linearGradient
       id="gradient_0-8"
       gradientUnits="userSpaceOnUse"
       x1="505.63708"
       y1="183.79691"
       x2="171.41376"
       y2="155.43059"><stop
         offset="0"
         stop-color="#EEA800"
         id="stop3" /><stop
         offset="1"
         stop-color="#FEF49E"
         id="stop4" /></linearGradient><linearGradient
       id="gradient_1-2"
       gradientUnits="userSpaceOnUse"
       x1="297.28619"
       y1="286.58209"
       x2="163.5318"
       y2="635.06488"><stop
         offset="0"
         stop-color="#BE8500"
         id="stop5" /><stop
         offset="1"
         stop-color="#FFEA5F"
         id="stop6" /></linearGradient><linearGradient
       id="gradient_2"
       gradientUnits="userSpaceOnUse"
       x1="690.96869"
       y1="886.34503"
       x2="530.02826"
       y2="327.17783"><stop
         offset="0"
         stop-color="#936602"
         id="stop7" /><stop
         offset="1"
         stop-color="#E6AB0B"
         id="stop8" /></linearGradient><linearGradient
       id="gradient_0-6"
       gradientUnits="userSpaceOnUse"
       x1="756.237"
       y1="543.65344"
       x2="570.92169"
       y2="327.42014"><stop
         offset="0"
         stop-color="#9650B5"
         id="stop1" /><stop
         offset="1"
         stop-color="#B262D0"
         id="stop2" /></linearGradient><linearGradient
       id="gradient_1-21"
       gradientUnits="userSpaceOnUse"
       x1="431.04391"
       y1="954.88794"
       x2="538.14734"
       y2="89.44886"><stop
         offset="0"
         stop-color="#002757"
         id="stop3-8"
         style="stop-color:#000000;stop-opacity:1;" /><stop
         offset="1"
         stop-color="#4B448F"
         id="stop4-0" /></linearGradient><clipPath
       clipPathUnits="userSpaceOnUse"
       id="clipPath2"><rect
         style="fill:#ffffff;fill-opacity:1;stroke:none;stroke-width:3.09986;stroke-opacity:0.498188"
         id="rect2"
         width="456.7182"
         height="624.02332"
         x="141.22937"
         y="278.96655" /></clipPath><clipPath
       clipPathUnits="userSpaceOnUse"
       id="clipPath3"><rect
         style="display:inline;fill:#ffffff;fill-opacity:1;stroke:none;stroke-width:3.52442;stroke-opacity:0.498188"
         id="rect3"
         width="519.271"
         height="709.49048"
         x="119.16489"
         y="235.23164" /></clipPath><clipPath
       clipPathUnits="userSpaceOnUse"
       id="clipPath81"><path
         fill="none"
         stroke="#2ba6de"
         stroke-dasharray="3.64393"
         d="m 183.41226,284.61622 c 0,-5.45579 4.33729,-9.869 9.68679,-9.869 h 389.91148 c 5.34951,0 9.68681,4.41321 9.68681,9.869 v 572.37155 c 0,5.45075 -4.3373,9.86902 -9.68681,9.86902 H 193.09905 c -5.3495,0 -9.68679,-4.41827 -9.68679,-9.86902 z"
         id="path81"
         style="display:inline;stroke-width:2.53051" /></clipPath><clipPath
       clipPathUnits="userSpaceOnUse"
       id="clipPath36"><rect
         style="fill:#ffffff;fill-opacity:1;stroke:none;stroke-width:1.68294;stroke-dasharray:none;stroke-opacity:1"
         id="rect36"
         width="1388.4305"
         height="1893.3141"
         x="-180.23787"
         y="-284.93533"
         inkscape:label="clip" /></clipPath></defs><defs
     id="defs25"><linearGradient
       id="gradient_1"
       gradientUnits="userSpaceOnUse"
       x1="567.4491"
       y1="699.04437"
       x2="868.41522"
       y2="779.63495"><stop
         offset="0"
         stop-color="#176366"
         id="stop24"
         style="stop-color:#000000;stop-opacity:1;" /><stop
         offset="1"
         stop-color="#157C89"
         id="stop25" /></linearGradient></defs><g
     id="g4"
     inkscape:label="slashhead"><rect
       style="display:none;fill:#ffffff;fill-opacity:1;stroke:#000000;stroke-width:0.993025;stroke-dasharray:none;stroke-opacity:1"
       id="rect307"
       width="818.44116"
       height="1118.2526"
       x="3.2773619"
       y="3.2773619"
       transform="matrix(1.0067923,0,0,1.0048147,-2.7997376,-2.7942383)"
       inkscape:label="background" /><g
       id="g1"
       transform="matrix(4.143996,0,0,4.143996,3.1461504,3.1461475)"
       inkscape:label="template"
       style="display:inline"><g
         id="g104">
	
	<path
   fill="none"
   stroke="#ec1e28"
   d="m 9,252 c 0,4.971 4.029,9 9,9 h 162 c 4.971,0 9,-4.029 9,-9 V 18 c 0,-4.971 -4.029,-9 -9,-9 H 18 c -4.971,0 -9,4.029 -9,9 z"
   id="path104" />
</g><g
         id="g105">
	<path
   fill="none"
   stroke="#2ba6de"
   stroke-dasharray="1.44"
   d="m 18.13,21.906 c 0,-2.156 1.714,-3.9 3.828,-3.9 h 154.084 c 2.114,0 3.828,1.744 3.828,3.9 v 226.188 c 0,2.154 -1.714,3.9 -3.828,3.9 H 21.958 c -2.114,0 -3.828,-1.746 -3.828,-3.9 z"
   id="path105" />
</g></g><g
       id="hitlocation"
       transform="matrix(0.59419619,0,0,0.59419619,107.59654,169.80639)"
       style="stroke-width:4.92838;stroke-dasharray:none"
       clip-path="url(#clipPath36)"><path
         id="path2-82"
         style="fill:none;stroke:#e5e5e5;stroke-width:4.92838;stroke-dasharray:none;stroke-opacity:1"
         d="m 1201.2411,1630.7458 -159.9305,67.7788 4.0049,46.291 c 3.1041,24.9043 8.3232,50.2373 14.2317,74.6255 6.5705,27.1198 16.8469,54.5124 28.313,79.9867 25.2527,56.1171 80.4053,145.1297 63.8601,208.5684 -0.5051,1.9398 -1.0467,3.7931 -1.8301,5.641 -7.6998,18.1825 -24.462,32.5571 -33.4588,50.1451 -7.0299,13.7355 -8.2953,29.5659 -10.2485,44.6332 l -6.524,59.7693 c -0.7184,10.0261 -3.0826,21.0734 -0.6889,30.8967 l 4.5215,4.4998 c 7.8052,-1.4966 15.8621,-6.8045 20.971,-12.8968 3.269,-22.1863 4.994,-59.3536 24.2435,-73.6997 2.9638,-2.2073 3.2049,-2.0356 6.8253,-1.7655 10.3583,20.4006 10.8595,45.6092 3.854,66.8959 -4.5875,13.9381 -12.2994,30.6297 -20.7342,42.717 -7.5323,10.7933 -25.8339,24.5388 -29.3894,36.6884 -0.5984,2.0424 -0.037,6.2353 -0.042,8.5047 4.0174,4.7766 4.3665,5.4792 10.3562,6.9544 41.228,-12.101 95.4371,-41.6991 116.6751,-79.7499 6.1923,-11.0985 9.7575,-24.3894 11.519,-36.9252 l 0.409,-2.7129 c 2.0047,-14.6 -0.9583,-31.3626 -2.2605,-46.0113 -1.9129,-21.4891 -3.0522,-42.6422 -2.3255,-64.2262 l 8.6771,-108.3856 c 9.6504,-110.2402 17.8922,-223.0304 -16.5788,-330.0232 -8.6265,-26.7718 -20.2344,-53.5684 -34.4491,-78.1996 z" /><path
         id="path5"
         style="fill:none;stroke:#e5e5e5;stroke-width:4.92838;stroke-dasharray:none;stroke-opacity:1"
         d="m 875.20102,1051.9994 17.87053,373.623 c 22.97795,62.965 62.63197,115.2789 89.65397,154.8922 l 35.07358,49.5636 c 6.1329,8.3564 15.6139,18.5685 19.4422,28.1837 3.0288,7.6027 2.3581,19.0261 2.9498,27.1934 l 1.1195,13.0693 159.9305,-67.7788 c -2.4355,-4.2201 -4.7872,-8.524 -7.3851,-12.5956 l -18.4733,-27.1933 c -2.2208,-3.1448 -6.7989,-7.9618 -8.0526,-11.2606 -1.0753,-2.8313 -0.5295,-9.663 -0.7104,-12.8753 l -2.4331,-35.3965 c -3.8337,-36.0246 -10.8005,-72.3716 -23.4038,-106.4265 -10.7231,-28.9649 -24.1067,-57.8581 -39.5305,-84.6374 -6.5517,-11.3715 -16.343,-22.7212 -21.6599,-34.4277 -1.6778,-3.6905 -1.5072,-7.7385 -1.5072,-11.6911 0,-68.0316 -19.5159,-140.7924 -69.1352,-189.8797 -28.03015,-27.7248 -67.75888,-47.7242 -107.33075,-50.8986 -6.46637,-0.521 -18.75565,-0.066 -26.41823,-1.4641 z" /><path
         id="path3"
         style="fill:none;stroke:#e5e5e5;stroke-width:4.92838;stroke-dasharray:none;stroke-opacity:1"
         d="m 11.280081,1717.7085 -171.470821,-68.188 c -5.96412,12.8719 -11.14632,26.0733 -15.41604,39.7889 -13.87046,44.5564 -19.69797,91.7316 -23.18859,138.1197 -5.88702,78.2708 -3.08247,155.8144 2.75594,233.9744 l 7.53575,78.0705 c 1.89382,31.3317 -5.20934,61.0962 -5.49033,92.001 -0.27556,30.2373 9.39865,61.1534 28.22679,84.8527 20.17365,25.3931 59.14093,53.0565 91.807071,57.4225 2.96111,0.397 4.76924,0.077 7.53578,-0.8829 2.36129,-4.1445 2.37639,-4.3693 0.99041,-8.9568 -2.73142,-9.056 -12.43025,-19.7688 -17.61215,-27.9253 -20.651751,-32.515 -37.275261,-74.7105 -23.899121,-112.9719 l 4.09085,-3.0788 c 7.310741,2.2803 12.445101,8.4521 15.868161,15.1146 10.08538,19.6223 3.09439,51.9003 22.93023,65.0875 5.29263,0.5105 5.55786,0.6731 10.39934,-2.2392 9.43977,-23.1402 4.73422,-102.8087 -5.12432,-126.1918 -6.55963,-15.5563 -18.21853,-26.7668 -26.41822,-41.1237 -23.472341,-41.0983 -11.89862,-91.4713 4.28463,-132.694 24.67461,-62.8577 64.08336,-118.5303 82.3981304,-184.2816 8.7168396,-31.2914 8.0445,-63.8937 9.7965096,-95.8978 z" /><path
         id="path6"
         style="fill:none;stroke:#e5e5e5;stroke-width:4.92838;stroke-dasharray:none;stroke-opacity:1"
         d="m 192.99953,1046.9182 c -0.10133,0.043 -0.22238,0.1527 -0.32297,0.1937 -6.50302,2.6477 -20.75354,0.6782 -28.33444,1.378 -10.35026,0.9537 -20.73083,3.1592 -30.70285,6.0501 -60.842189,17.6312 -111.466029,62.8052 -134.9761986,121.7994 -9.2074404,23.1049 -13.7599604,48.7643 -16.7940004,73.3768 l -3.68175,43.5783 c -0.30528,3.9985 0.18564,12.5255 -1.20571,16.0188 -3.98501,9.9962 -16.86981,22.6914 -23.05944,32.3607 -18.3607,28.6785 -33.65602,59.5624 -44.69782,91.7856 -9.647811,28.157 -15.715491,57.2482 -20.432671,86.5966 -3.49064,21.7298 -5.81077,44.8752 -12.07874,65.9917 -3.64732,12.2873 -15.7082,24.3542 -22.32738,35.5257 -5.4027,9.1161 -10.17742,18.4532 -14.5763,27.9469 l 171.470821,68.188 c 1.39588,-25.4988 4.29547,-50.6272 14.96384,-74.3458 11.43095,-25.4149 37.23977,-45.9306 54.19287,-68.3385 25.959949,-34.3113 78.884109,-104.0552 99.644289,-143.8469 z" /><path
         id="path4"
         style="fill:none;stroke:#e5e5e5;stroke-width:4.92838;stroke-dasharray:none;stroke-opacity:1"
         d="m 908.83196,2895.1814 -213.56328,3.4021 c -0.95804,8.7439 -1.70587,17.5395 -2.66979,26.2029 -4.66591,41.9304 -9.5569,85.2668 -5.36117,127.4405 7.92406,79.5643 46.25374,152.3362 62.30992,230.6588 6.39494,31.1776 12.06133,62.6126 13.11223,94.5198 0.86182,26.1258 -1.35214,53.0328 1.03346,78.9963 1.69671,18.4796 7.11562,36.3654 10.01177,54.6019 2.53694,15.9672 -3.07401,34.7988 -6.43763,50.5758 -6.90279,32.3396 -14.92507,66.3005 -15.91122,99.4505 -0.32425,10.9148 -0.91215,22.3566 1.83012,33.0281 2.12093,8.2405 5.92047,16.1207 12.35867,21.8753 5.44933,4.8902 12.42843,7.5133 19.48527,9.1077 17.82042,4.0254 38.57476,3.1044 56.88424,3.4017 26.67377,0.4053 54.78028,1.7597 81.29987,-0.9688 8.26465,-0.8376 19.23238,-4.4915 24.8681,-10.8946 6.20578,-7.0513 5.84974,-19.1932 4.80155,-28.0547 -4.09035,-34.446 -23.57985,-60.8346 -39.50895,-90.3644 -19.24693,-35.7166 -38.72775,-81.0153 -41.72657,-121.5411 -1.98838,-26.882 -0.18256,-55.0047 0.86126,-81.9675 2.55581,-66.138 8.05955,-135.7416 24.45878,-200.0422 11.75521,-46.0642 32.62221,-93.1209 35.99946,-140.7248 3.82885,-53.9408 -6.7963,-107.5868 -24.13609,-158.7033 z" /><path
         id="path7"
         style="fill:none;stroke:#e5e5e5;stroke-width:4.92838;stroke-dasharray:none;stroke-opacity:1"
         d="m 362.64024,2902.6957 -213.24046,-9.129 c -14.82248,48.8632 -25.52499,101.0849 -21.98289,150.3922 3.68773,51.4134 20.88632,101.568 32.4253,151.5767 16.24525,70.4053 23.90738,139.7 27.36557,211.7548 1.11851,23.3426 3.28372,47.7628 1.80858,71.0513 -0.99964,15.8052 -5.08284,31.7297 -10.98069,46.3987 -11.81983,29.4216 -27.61937,58.6597 -41.46818,87.2424 -13.14653,27.1522 -28.89163,48.8076 -30.98276,80.4175 -0.41606,6.3219 -0.9194,14.2734 1.61481,20.2173 2.89353,6.8081 9.03349,8.9596 15.69591,11.0669 25.52292,8.0241 140.45097,9.1212 162.08342,-2.9281 10.9041,-6.0789 16.86033,-17.1098 19.91596,-28.8083 10.03134,-38.3359 -3.90109,-90.6548 -11.97111,-128.6676 -3.23933,-15.2379 -7.95584,-31.493 -7.19127,-47.217 1.0699,-21.9377 9.34301,-43.854 11.08832,-66.2499 1.95603,-25.1259 -0.28936,-50.8345 0.77512,-76.0683 1.93173,-45.7658 10.58575,-91.7618 21.65991,-136.0957 15.02962,-60.1671 42.17455,-117.6112 49.58532,-179.4804 6.13203,-51.2289 -1.71509,-104.2504 -6.20086,-155.4735 z" /><path
         id="path8"
         style="fill:none;stroke:#e5e5e5;stroke-width:4.92838;stroke-dasharray:none;stroke-opacity:1"
         d="m 888.48546,2241.336 -718.3731,-22.0258 c -2.61219,11.8514 -5.40692,23.7042 -7.49269,35.5472 -8.09705,45.9881 -10.4811,92.3121 -11.62662,138.9163 -1.02666,41.7953 -1.1192,84.7306 2.28225,126.407 l 16.96623,133.469 c 7.05685,42.6304 19.04209,84.8975 16.01888,128.603 -1.56971,22.6862 -13.89869,43.7903 -21.46616,64.9583 -5.34236,14.946 -10.57899,30.481 -15.39447,46.3557 l 213.24046,9.129 c -0.0895,-1.0217 -0.19322,-2.0799 -0.27989,-3.1002 -1.89105,-22.2351 -4.69646,-45.2396 -1.8732,-67.5421 3.20964,-25.3423 12.15473,-51.3957 20.41114,-75.4868 l 32.23156,-94.4337 58.36979,-222.1112 c 14.98895,-69.8766 27.51305,-137.4311 30.46599,-208.9989 l 51.45848,0.2153 2.60519,38.0664 c 13.88134,132.3344 48.01593,265.6876 87.43641,392.57 16.45594,52.9646 41.18259,104.6617 51.80297,159.1769 4.99015,25.6086 2.83617,51.6459 0,77.5321 l 213.56328,-3.4021 c -5.46646,-16.1146 -11.52717,-32.0056 -18.10714,-47.5397 l -16.21277,-37.6357 c -2.63124,-6.1168 -6.72533,-13.6175 -7.49268,-20.1311 -2.14514,-18.2341 1.31797,-38.6219 4.34921,-56.583 l 22.67191,-108.7302 c 23.6459,-128.8842 19.98577,-257.1895 -5.55503,-383.2257 z" /><path
         id="path9"
         style="fill:none;stroke:#e5e5e5;stroke-width:4.92838;stroke-dasharray:none;stroke-opacity:1"
         d="M 790.13317,1912.9062 277.8737,1903.691 c -0.52745,3.5222 -1.06835,6.7001 -1.6794,8.6983 -3.07453,10.0637 -9.70515,20.1071 -13.8658,29.9924 l -36.02091,90.6875 c -21.87965,60.1253 -42.2823,123.1176 -56.19523,186.241 l 718.3731,22.0258 c -9.26426,-45.7171 -21.22531,-91.1468 -36.06396,-136.1819 -19.94118,-60.5179 -44.43939,-119.8693 -59.91994,-181.784 -0.87639,-3.5043 -1.57978,-6.975 -2.36839,-10.4639 z" /><path
         id="path10"
         style="fill:none;stroke:#e5e5e5;stroke-width:4.92838;stroke-dasharray:none;stroke-opacity:1"
         d="m 798.74541,1609.6026 -543.43592,-10.1411 c 1.46693,2.8638 2.93179,5.7261 4.54301,8.3971 23.25983,79.2308 27.54909,91.6877 24.60962,175.5617 -0.60707,17.2743 -2.24861,91.2905 -6.58842,120.2707 l 512.25947,9.2152 c -12.25759,-54.224 -14.25888,-106.799 -11.66969,-162.7725 2.68006,-57.9243 7.37408,-52.9015 17.26765,-123.8879 1.0247,-6.1173 2.01172,-11.5454 3.01428,-16.6432 z" /><path
         id="path11"
         style="fill:none;stroke:#e5e5e5;stroke-width:4.92838;stroke-dasharray:none;stroke-opacity:1"
         d="m 885.79416,1273.6369 -700.09357,-9.6459 -5.61951,167.1863 c 0.4694,-0.8997 1.37322,-2.1894 1.80859,-3.0574 9.3126,18.5038 20.66439,68.6924 33.22194,85.2618 17.86077,23.5624 26.16338,58.6821 40.19788,86.0798 l 543.43592,10.1411 c 7.65055,-38.9024 16.0917,-52.1082 47.23846,-98.5678 33.48576,-49.9488 42.46949,-82.9174 46.65709,-86.5104 0.13469,0.3727 0.29471,0.7256 0.43059,1.098 z" /><path
         id="path12"
         style="fill:none;stroke:#e5e5e5;stroke-width:4.92838;stroke-dasharray:none;stroke-opacity:1"
         d="m 415.62744,917.2385 c -0.0127,0.0317 -0.008,0.31604 -0.0215,0.34449 -52.50723,41.17901 -113.33026,62.40332 -170.82488,94.95061 -11.86591,6.7164 -23.10554,14.3389 -34.23389,22.1981 -5.0966,3.5993 -11.85406,9.7485 -17.54755,12.1865 l -7.29894,217.0728 700.09365,9.6459 -10.59322,-221.6375 c -1.27902,-0.2333 -3.35207,-0.1187 -4.26303,-0.4952 -4.70094,-1.9452 -10.32878,-6.852 -14.68396,-9.7104 -11.47391,-7.5296 -22.83584,-15.331 -34.8152,-22.0474 L 740.74177,977.33078 C 705.87113,959.97521 671.56514,943.50883 641.59258,918.1643 l 0.0215,-0.9258 z" /><path
         id="path1"
         style="fill:none;stroke:#000000;stroke-width:4.92838;stroke-dasharray:none;stroke-opacity:1"
         d="m 531.71031,452.4113 c -5.73831,-0.25948 -11.69613,-0.53512 -17.41835,0.0432 -39.23419,4.74691 -75.19754,19.69909 -100.0748,51.67377 -30.54015,39.25038 -33.81587,114.11341 -27.73162,162.40639 -3.64461,3.63384 -4.7985,1.74963 -8.35392,3.78941 -5.44666,3.12316 -7.57069,11.67984 -7.60036,17.4399 -0.0622,12.12796 3.10506,23.59547 5.40421,35.39656 4.00933,20.58969 6.70103,48.46455 22.95176,63.49413 2.56393,2.36942 5.71507,4.20637 8.87067,5.66257 1.99099,12.21483 5.85694,117.29092 2.54064,124.92139 h 225.98664 l 2.60519,-80.63263 c 0.22167,-12.11176 -2.20407,-33.2146 1.9809,-44.24567 l 1.59324,-1.39951 c 19.22259,-17.17205 23.05073,-38.93519 28.14068,-62.91282 2.49098,-11.72811 5.42115,-23.76429 5.89945,-35.76256 0.27821,-6.91637 0.7362,-13.47388 -3.16498,-19.5284 -3.02869,-2.2613 -6.21254,-4.40315 -8.80619,-7.16971 3.07194,-54.82034 4.16363,-123.62937 -34.42762,-167.16469 -24.49096,-27.62766 -61.71438,-44.36314 -98.39554,-46.01119 z" /></g><g
       id="body"
       transform="matrix(0.63042107,0,0,0.63042107,125.64295,-10.232225)"><path
         fill="#37b2df"
         d="m 283.17389,596.49529 c 7.29878,0.33206 8.88162,-0.0804 16.00924,0.0851 0.24196,2.35569 0.33325,4.67189 0.92537,6.98158 0.21806,0.85086 0.4925,1.77406 0.99588,2.50285 l 16.01311,4.53618 4.00828,1.04672 c 1.93273,0.46715 3.81933,0.85727 5.56272,1.86704 2.18883,1.26767 3.9146,3.27912 5.0637,5.51213 1.77008,3.43983 1.78687,7.37701 2.35122,11.1269 l -11.04878,5.03231 -1.42198,0.67869 c -0.29486,0.12678 -0.63934,0.21975 -0.90678,0.39192 l -0.59345,3.61479 -1.32044,5.61984 -2.38781,8.10544 -3.20945,9.55447 c -1.97909,6.59701 -2.50721,13.63264 -1.22409,20.41476 0.87817,4.64136 2.58945,9.06653 4.01324,13.55455 -0.13414,0.19564 -0.56192,0.36106 -0.78083,0.47331 -1.10697,0.56509 -2.26054,1.03232 -3.43657,1.43319 -7.0731,2.41002 -14.30448,3.24558 -21.75211,3.10431 -8.13756,-0.15454 -16.27934,-1.50682 -23.6363,-5.12186 0.49613,-0.95869 0.87937,-2.02123 1.25632,-3.03428 l 1.8831,-5.71358 c 0.89796,-3.03667 1.66371,-6.12763 1.94359,-9.28991 0.87418,-9.87668 -3.30531,-19.13342 -6.39017,-28.24646 -1.3144,-3.88248 -2.30932,-7.96381 -3.19666,-11.96352 l -0.36234,-2.37887 c -1.65985,-0.59948 -3.27817,-1.56409 -4.86979,-2.33418 l -8.36781,-4.052 0.69873,-5.17419 c 0.85173,-5.06344 3.15536,-9.80089 8.12778,-11.8773 2.24013,-0.93552 4.81304,-1.44191 7.16087,-2.06228 l 11.29691,-3.18688 3.34118,-0.99709 c 0.80258,-0.24161 1.7562,-0.45013 2.43888,-0.93551 1.45398,-2.80425 1.72577,-6.15811 1.81524,-9.2682 z"
         id="path5-3"
         sodipodi:nodetypes="ccccccccccccccccccccccccscccccccccccc"
         style="fill:none;stroke:#000000;stroke-width:2.10451;stroke-dasharray:none;stroke-opacity:1" /><path
         fill="#26A4D4"
         d="m 291.26778,657.48848 0.0627,0.0529 0.0441,34.39004 -0.0811,0.1627 c -0.12182,-0.92567 -0.0889,-1.92401 -0.11397,-2.85943 l -0.14428,-3.72601 -0.23966,-11.24502 0.22097,-8.86765 0.14825,-5.96255 c 0.0297,-0.65042 -0.0152,-1.30151 0.10303,-1.94505 z"
         id="path6-7"
         style="fill:#6f838b;fill-opacity:1;stroke-width:0.0990362;stroke-dasharray:none" /><path
         fill="#26A4D4"
         d="m 320.65964,629.12126 c -0.14503,1.18222 -0.44555,2.36517 -0.73139,3.52033 -0.29654,1.19846 -0.60848,2.45583 -1.09383,3.59369 -0.39492,0.92548 -0.96492,1.81969 -1.46818,2.69177 -1.54792,2.68216 -3.10979,5.22674 -5.37214,7.38061 -3.03293,2.88755 -6.79305,4.3086 -10.97477,4.21251 l -0.067,-0.0393 -0.0154,-0.0762 0.80173,-0.21946 c 4.45387,-1.19413 8.3186,-3.98271 11.14747,-7.59696 2.0068,-2.56394 3.57192,-5.48384 5.08832,-8.35467 z"
         id="path7-7"
         style="fill:#768084;fill-opacity:1;stroke-width:0.123795;stroke-dasharray:none" /><path
         fill="#26A4D4"
         d="m 260.34705,627.90946 c 0.25767,0.30548 0.40388,0.99081 0.55385,1.37381 l 1.14271,2.73433 c 0.81392,1.81983 1.66491,3.62625 2.65596,5.35758 2.92933,5.11694 6.90406,10.40111 12.73109,12.34639 0.86705,0.28943 1.82695,0.54564 2.73252,0.67255 0.78048,0.10927 1.5775,0.12774 2.33998,0.33457 l -1.21309,0.0885 c -4.54064,0.21251 -9.08406,-1.42355 -12.44396,-4.47471 -3.16985,-2.8785 -5.15847,-6.66571 -6.66209,-10.61978 -0.93322,-2.45445 -1.71502,-5.17864 -1.83697,-7.81324 z"
         id="path8-0"
         style="fill:#6c858e;fill-opacity:1;stroke-width:0.120743" /><text
         xml:space="preserve"
         style="font-style:normal;font-variant:normal;font-weight:normal;font-stretch:normal;font-size:113.547px;font-family:Amiri;-inkscape-font-specification:'Amiri, Normal';font-variant-ligatures:normal;font-variant-caps:normal;font-variant-numeric:normal;font-variant-east-asian:normal;fill:#000000;fill-opacity:1;stroke:none;stroke-width:0.215296;stroke-dasharray:none;stroke-opacity:1;paint-order:markers fill stroke"
         x="339.74225"
         y="684.15222"
         id="text1-4"><tspan
           sodipodi:role="line"
           id="tspan1-55"
           x="339.74225"
           y="684.15222">Body:-1</tspan></text><path
         id="rect1"
         d="m 282.50527,648.92026 h 17.61435 l -5.26564,1.30119 -0.49288,12.72354 -7.11349,-0.0649 -0.0833,-12.65856 z"
         sodipodi:nodetypes="ccccccc"
         style="stroke-width:2.53663" /><path
         style="fill:#000000;fill-opacity:1;stroke-width:2.10969"
         id="path2-6-0"
         sodipodi:type="arc"
         sodipodi:cx="291.00009"
         sodipodi:cy="624.9527"
         sodipodi:rx="8.5723772"
         sodipodi:ry="8.5723772"
         sodipodi:start="0.027304543"
         sodipodi:end="6.2831853"
         sodipodi:open="true"
         sodipodi:arc-type="arc"
         d="m 299.56927,625.18673 a 8.5723772,8.5723772 0 0 1 -8.74471,8.33655 8.5723772,8.5723772 0 0 1 -8.39605,-8.68761 8.5723772,8.5723772 0 0 1 8.6301,-8.45515 8.5723772,8.5723772 0 0 1 8.51386,8.57218" /><path
         style="fill:#000000;fill-opacity:1;stroke-width:2.10969"
         id="path2-6-0-7"
         sodipodi:type="arc"
         sodipodi:cx="282.51749"
         sodipodi:cy="640.08997"
         sodipodi:rx="8.5723772"
         sodipodi:ry="8.5723772"
         sodipodi:start="0.027304543"
         sodipodi:end="6.2831853"
         sodipodi:open="true"
         sodipodi:arc-type="arc"
         d="m 291.08667,640.324 a 8.5723772,8.5723772 0 0 1 -8.74472,8.33655 8.5723772,8.5723772 0 0 1 -8.39604,-8.68761 8.5723772,8.5723772 0 0 1 8.63009,-8.45515 8.5723772,8.5723772 0 0 1 8.51386,8.57218" /><path
         style="fill:#000000;fill-opacity:1;stroke-width:2.10969"
         id="path2-6-0-9"
         sodipodi:type="arc"
         sodipodi:cx="299.66608"
         sodipodi:cy="640.08997"
         sodipodi:rx="8.5723772"
         sodipodi:ry="8.5723772"
         sodipodi:start="0.027304543"
         sodipodi:end="6.2831853"
         sodipodi:open="true"
         sodipodi:arc-type="arc"
         d="m 308.23526,640.324 a 8.5723772,8.5723772 0 0 1 -8.74472,8.33655 8.5723772,8.5723772 0 0 1 -8.39604,-8.68761 8.5723772,8.5723772 0 0 1 8.63009,-8.45515 8.5723772,8.5723772 0 0 1 8.51386,8.57218" /><path
         sodipodi:type="star"
         style="fill:#000000"
         id="path1-99"
         inkscape:flatsided="false"
         sodipodi:sides="3"
         sodipodi:cx="-4.2679658"
         sodipodi:cy="5.2618756"
         sodipodi:r1="0.76004869"
         sodipodi:r2="0.33594152"
         sodipodi:arg1="1.5707963"
         sodipodi:arg2="2.6179939"
         inkscape:rounded="0"
         inkscape:randomized="0"
         d="m -4.2679658,6.0219243 -0.2909339,-0.5920779 -0.3672876,-0.5479951 0.6582215,0.044083 0.6582215,-0.044083 -0.3672876,0.5479951 z"
         inkscape:transform-center-y="0.21087664"
         transform="matrix(4.5466021,0,0,4.5466021,310.29061,582.85793)" /><path
         sodipodi:type="star"
         style="fill:#000000"
         id="path1-7"
         inkscape:flatsided="false"
         sodipodi:sides="3"
         sodipodi:cx="-4.2679658"
         sodipodi:cy="5.2618756"
         sodipodi:r1="0.76004869"
         sodipodi:r2="0.33594152"
         sodipodi:arg1="1.5707963"
         sodipodi:arg2="2.6179939"
         inkscape:rounded="0"
         inkscape:randomized="0"
         d="m -4.2679658,6.0219243 -0.2909339,-0.5920779 -0.3672876,-0.5479951 0.6582215,0.044083 0.6582215,-0.044083 -0.3672876,0.5479951 z"
         inkscape:transform-center-y="-0.1986054"
         transform="matrix(2.1410252,4.0109351,-4.0109351,2.1410252,320.82082,620.19352)"
         inkscape:transform-center-x="0.014034468" /><path
         sodipodi:type="star"
         style="fill:#000000"
         id="path1-9"
         inkscape:flatsided="false"
         sodipodi:sides="3"
         sodipodi:cx="-4.2679658"
         sodipodi:cy="5.2618756"
         sodipodi:r1="0.76004869"
         sodipodi:r2="0.33594152"
         sodipodi:arg1="1.5707963"
         sodipodi:arg2="2.6179939"
         inkscape:rounded="0"
         inkscape:randomized="0"
         d="m -4.2679658,6.0219243 -0.2909339,-0.5920779 -0.3672876,-0.5479951 0.6582215,0.044083 0.6582215,-0.044083 -0.3672876,0.5479951 z"
         inkscape:transform-center-y="0.0047987713"
         transform="matrix(-0.05177666,-4.5463077,4.5463077,-0.05177666,263.24506,591.48829)"
         inkscape:transform-center-x="-0.2066996" /><path
         sodipodi:type="star"
         style="fill:#000000"
         id="path1-5"
         inkscape:flatsided="false"
         sodipodi:sides="3"
         sodipodi:cx="-4.2679658"
         sodipodi:cy="5.2618756"
         sodipodi:r1="0.76004869"
         sodipodi:r2="0.33594152"
         sodipodi:arg1="1.5707963"
         sodipodi:arg2="2.6179939"
         inkscape:rounded="0"
         inkscape:randomized="0"
         d="m -4.2679658,6.0219243 -0.2909339,-0.5920779 -0.3672876,-0.5479951 0.6582215,0.044083 0.6582215,-0.044083 -0.3672876,0.5479951 z"
         inkscape:transform-center-y="0.024724087"
         transform="matrix(-0.26655543,4.5387818,-4.5387818,-0.26655543,316.77845,631.68679)"
         inkscape:transform-center-x="0.18910257" /></g><path
       style="fill:#fe0000;fill-opacity:1;stroke:none;stroke-width:1;stroke-dasharray:none;stroke-opacity:1"
       d="M 511.7257,671.60048 C 305.19708,520.14616 328.14471,501.78806 328.14471,501.78806 Z"
       id="path18"
       inkscape:label="slash" /><text
       xml:space="preserve"
       style="font-style:normal;font-variant:normal;font-weight:normal;font-stretch:normal;font-size:32px;font-family:Caladea;-inkscape-font-specification:'Caladea, Normal';font-variant-ligatures:normal;font-variant-caps:normal;font-variant-numeric:normal;font-variant-east-asian:normal;text-align:start;writing-mode:lr-tb;direction:ltr;text-anchor:start;fill:#000000;fill-opacity:1;stroke:none;stroke-width:1.28883;stroke-opacity:1"
       x="-672.44342"
       y="153.70639"
       id="text1-8-1-1-7-4-2-6-7"
       transform="matrix(0,-0.99999394,1.0000061,0,0,0)"
       inkscape:label="extreme1"><tspan
         sodipodi:role="line"
         id="tspan14"
         x="-672.44342"
         y="153.70639"
         style="stroke-width:1.28883">Beheaded. Dead.</tspan></text><text
       xml:space="preserve"
       style="font-style:normal;font-variant:normal;font-weight:normal;font-stretch:normal;font-size:42.6667px;font-family:Caladea;-inkscape-font-specification:'Caladea, Normal';font-variant-ligatures:normal;font-variant-caps:normal;font-variant-numeric:normal;font-variant-east-asian:normal;text-align:start;writing-mode:lr-tb;direction:ltr;text-anchor:start;fill:#000000;fill-opacity:1;stroke:none;stroke-width:1.28883;stroke-opacity:1"
       x="-643.39514"
       y="115.18713"
       id="text1-8-1-1-7-4-2-6"
       transform="matrix(0,-0.99999392,1.0000061,0,0,0)"
       inkscape:label="extreme"><tspan
         sodipodi:role="line"
         id="tspan13"
         x="-643.39514"
         y="115.18713"
         style="stroke-width:1.28883">Extreme</tspan></text><text
       xml:space="preserve"
       style="font-style:normal;font-variant:normal;font-weight:normal;font-stretch:normal;font-size:32px;font-family:Caladea;-inkscape-font-specification:'Caladea, Normal';font-variant-ligatures:normal;font-variant-caps:normal;font-variant-numeric:normal;font-variant-east-asian:normal;text-align:start;writing-mode:lr-tb;direction:ltr;text-anchor:start;fill:#000000;fill-opacity:1;stroke:none;stroke-width:1.28883;stroke-opacity:1"
       x="-659.04871"
       y="-891.94604"
       id="text1-8-1-1-7-4-2-7"
       transform="scale(-0.9999939,-1.0000061)"
       inkscape:label="critical1"><tspan
         sodipodi:role="line"
         id="tspan16"
         x="-659.04871"
         y="-891.94604"
         style="stroke-width:1.28883">Throat Slash. Bleeding:3. Stress:2</tspan></text><text
       xml:space="preserve"
       style="font-style:normal;font-variant:normal;font-weight:normal;font-stretch:normal;font-size:42.6667px;font-family:Caladea;-inkscape-font-specification:'Caladea, Normal';font-variant-ligatures:normal;font-variant-caps:normal;font-variant-numeric:normal;font-variant-east-asian:normal;text-align:start;writing-mode:lr-tb;direction:ltr;text-anchor:start;fill:#000000;fill-opacity:1;stroke:none;stroke-width:1.28883;stroke-opacity:1"
       x="-501.29102"
       y="-923.07544"
       id="text1-8-1-1-7-4-2"
       transform="scale(-0.9999939,-1.0000061)"
       inkscape:label="critical"><tspan
         sodipodi:role="line"
         id="tspan17"
         x="-501.29102"
         y="-923.07544"
         style="font-style:normal;font-variant:normal;font-weight:normal;font-stretch:normal;font-size:42.6667px;font-family:Caladea;-inkscape-font-specification:'Caladea, Normal';font-variant-ligatures:normal;font-variant-caps:normal;font-variant-numeric:normal;font-variant-east-asian:normal;stroke-width:1.28883">Critical</tspan></text><text
       xml:space="preserve"
       style="font-style:normal;font-variant:normal;font-weight:normal;font-stretch:normal;font-size:32px;font-family:Caladea;-inkscape-font-specification:'Caladea, Normal';font-variant-ligatures:normal;font-variant-caps:normal;font-variant-numeric:normal;font-variant-east-asian:normal;text-align:start;writing-mode:lr-tb;direction:ltr;text-anchor:start;fill:#000000;fill-opacity:1;stroke:none;stroke-width:1.28883;stroke-opacity:1"
       x="358.30048"
       y="-676.16992"
       id="text1-8-1-1-7-4-4"
       transform="matrix(0,0.99999391,-1.0000061,0,0,0)"
       inkscape:label="major1"><tspan
         sodipodi:role="line"
         id="tspan18"
         x="358.30048"
         y="-676.16992"
         style="stroke-width:1.28883">Face Gash. Stress:1. Bleeding:1</tspan></text><text
       xml:space="preserve"
       style="font-style:normal;font-variant:normal;font-weight:normal;font-stretch:normal;font-size:42.6667px;font-family:Caladea;-inkscape-font-specification:'Caladea, Normal';font-variant-ligatures:normal;font-variant-caps:normal;font-variant-numeric:normal;font-variant-east-asian:normal;text-align:start;writing-mode:lr-tb;direction:ltr;text-anchor:start;fill:#000000;fill-opacity:1;stroke:none;stroke-width:1.28883;stroke-opacity:1"
       x="517.80756"
       y="-710.59039"
       id="text1-8-1-1-7-4"
       transform="matrix(0,0.99999392,-1.0000061,0,0,0)"
       inkscape:label="major"><tspan
         sodipodi:role="line"
         id="tspan15"
         x="517.80756"
         y="-710.59039"
         style="stroke-width:1.28883">Major</tspan></text><text
       xml:space="preserve"
       style="font-style:normal;font-variant:normal;font-weight:normal;font-stretch:normal;font-size:31.8154px;font-family:Caladea;-inkscape-font-specification:'Caladea, Normal';font-variant-ligatures:normal;font-variant-caps:normal;font-variant-numeric:normal;font-variant-east-asian:normal;text-align:start;writing-mode:lr-tb;direction:ltr;text-anchor:start;fill:#000000;fill-opacity:1;stroke:none;stroke-width:1.28139;stroke-opacity:1"
       x="286.97653"
       y="230.00127"
       id="text1-8-1-1-7-8"
       transform="matrix(1.0057969,0,0,1.0058092,-2.7997376,-2.7942383)"
       inkscape:label="minor1"><tspan
         sodipodi:role="line"
         id="tspan12"
         x="286.97653"
         y="230.00127">Head Cut. Bleeding:1</tspan></text><text
       xml:space="preserve"
       style="font-style:normal;font-variant:normal;font-weight:normal;font-stretch:normal;font-size:42.6667px;font-family:Caladea;-inkscape-font-specification:'Caladea, Normal';font-variant-ligatures:normal;font-variant-caps:normal;font-variant-numeric:normal;font-variant-east-asian:normal;text-align:start;writing-mode:lr-tb;direction:ltr;text-anchor:start;fill:#000000;fill-opacity:1;stroke:none;stroke-width:1.28883;stroke-opacity:1"
       x="371.9213"
       y="190.17268"
       id="text1-8-1-1-7"
       inkscape:label="minor"><tspan
         sodipodi:role="line"
         id="tspan11"
         x="371.9213"
         y="190.17268"
         style="stroke-width:1.28883;-inkscape-font-specification:'Caladea, Normal';font-family:Caladea;font-weight:normal;font-style:normal;font-stretch:normal;font-variant:normal;font-size:42.66666667px;font-variant-ligatures:normal;font-variant-caps:normal;font-variant-numeric:normal;font-variant-east-asian:normal">Minor</tspan></text><g
       id="g3"
       inkscape:label="ranksuit2"><g
         inkscape:label="suit2"
         id="layer1-7"
         transform="matrix(-5.3037294,0,0,-5.3037294,764.29301,953.58493)"><path
           id="path2-8"
           inkscape:transform-center-x="-0.020609428"
           inkscape:transform-center-y="-5.172673"
           d="M 6.1033962,31.257104 C 17.126244,27.265743 13.67248,26.078077 17.828866,0.00285597 22.235039,25.835166 19.259613,27.415731 29.67799,31.147997 Z"
           sodipodi:nodetypes="cccc"
           style="stroke-width:5.78597"
           transform="matrix(0.62032434,0,0,0.62032434,-0.14297856,-0.05433059)" /><path
           id="path2-0-8"
           inkscape:transform-center-x="-0.0047190459"
           inkscape:transform-center-y="-1.8077773"
           d="m 15.296007,36.08884 c 2.228506,-1.413232 2.084699,-3.421004 2.684749,-10.922925 0.653613,7.561489 0.453658,9.538166 2.713063,10.884795 z"
           sodipodi:nodetypes="cccc"
           style="stroke-width:1.63673"
           transform="matrix(0.62032434,0,0,0.62032434,-0.14297856,-0.05433059)" /></g><text
         xml:space="preserve"
         style="font-style:italic;font-variant:normal;font-weight:normal;font-stretch:normal;font-size:96.0002px;font-family:Caladea;-inkscape-font-specification:'Caladea, Italic';font-variant-ligatures:normal;font-variant-caps:normal;font-variant-numeric:normal;font-variant-east-asian:normal;text-align:start;writing-mode:lr-tb;direction:ltr;text-anchor:start;fill:#000000;fill-opacity:1;stroke:#000000;stroke-width:1.28882;stroke-opacity:0.498188"
         x="-733.18628"
         y="-962.96686"
         id="text1-5"
         transform="scale(-1)"
         inkscape:label="rank2"><tspan
           sodipodi:role="line"
           id="tspan1-5"
           style="font-style:italic;font-variant:normal;font-weight:normal;font-stretch:normal;font-size:96.0002px;font-family:Caladea;-inkscape-font-specification:'Caladea, Italic';font-variant-ligatures:normal;font-variant-caps:normal;font-variant-numeric:normal;font-variant-east-asian:normal;fill:#000000;fill-opacity:1;stroke-width:1.28882"
           x="-733.18628"
           y="-962.96686">A</tspan></text></g><g
       id="g2"
       inkscape:label="ranksuit1"><g
         inkscape:label="suit1"
         id="layer1"
         transform="matrix(5.3037294,0,0,5.3037294,60.612537,171.97072)"><path
           id="path2"
           inkscape:transform-center-x="-0.020609428"
           inkscape:transform-center-y="-5.172673"
           d="M 6.1033962,31.257104 C 17.126244,27.265743 13.67248,26.078077 17.828866,0.00285597 22.235039,25.835166 19.259613,27.415731 29.67799,31.147997 Z"
           sodipodi:nodetypes="cccc"
           style="stroke-width:5.78597"
           transform="matrix(0.62032434,0,0,0.62032434,0.2964921,-0.47594204)" /><path
           id="path2-0"
           inkscape:transform-center-x="-0.0047190459"
           inkscape:transform-center-y="-1.8077773"
           d="m 15.296007,36.08884 c 2.228506,-1.413232 2.084699,-3.421004 2.684749,-10.922925 0.653613,7.561489 0.453658,9.538166 2.713063,10.884795 z"
           sodipodi:nodetypes="cccc"
           style="stroke-width:1.63673"
           transform="matrix(0.62032434,0,0,0.62032434,0.2964921,-0.47594204)" /></g><text
         xml:space="preserve"
         style="font-style:italic;font-variant:normal;font-weight:normal;font-stretch:normal;font-size:96.0001px;font-family:Caladea;-inkscape-font-specification:'Caladea, Italic';font-variant-ligatures:normal;font-variant-caps:normal;font-variant-numeric:normal;font-variant-east-asian:normal;text-align:start;writing-mode:lr-tb;direction:ltr;text-anchor:start;fill:#000000;fill-opacity:1;stroke:#000000;stroke-width:1.28882;stroke-opacity:0.498188"
         x="92.926743"
         y="159.10373"
         id="text1"
         inkscape:label="rank1"><tspan
           sodipodi:role="line"
           id="tspan1"
           style="font-style:italic;font-variant:normal;font-weight:normal;font-stretch:normal;font-size:96.0001px;font-family:Caladea;-inkscape-font-specification:'Caladea, Italic';font-variant-ligatures:normal;font-variant-caps:normal;font-variant-numeric:normal;font-variant-east-asian:normal;fill:#000000;fill-opacity:1;stroke-width:1.28882"
           x="92.926743"
           y="159.10373">A</tspan></text></g><text
       xml:space="preserve"
       style="font-style:normal;font-variant:normal;font-weight:normal;font-stretch:normal;font-size:53.3333px;font-family:Caladea;-inkscape-font-specification:'Caladea, Normal';font-variant-ligatures:normal;font-variant-caps:normal;font-variant-numeric:normal;font-variant-east-asian:normal;text-align:start;writing-mode:lr-tb;direction:ltr;text-anchor:start;fill:#000000;fill-opacity:1;stroke:none;stroke-width:1.28883;stroke-opacity:1"
       x="-571.84027"
       y="-1002.1643"
       id="text1-8-1-1-2"
       inkscape:label="title2"
       transform="scale(-1)"><tspan
         sodipodi:role="line"
         id="tspan4-3"
         x="-571.84027"
         y="-1002.1643"
         style="font-style:normal;font-variant:normal;font-weight:normal;font-stretch:normal;font-size:53.3333px;font-family:Caladea;-inkscape-font-specification:'Caladea, Normal';font-variant-ligatures:normal;font-variant-caps:normal;font-variant-numeric:normal;font-variant-east-asian:normal;stroke-width:1.28883">Slash: Head</tspan></text><text
       xml:space="preserve"
       style="font-style:normal;font-variant:normal;font-weight:normal;font-stretch:normal;font-size:53.3333px;font-family:Caladea;-inkscape-font-specification:'Caladea, Normal';font-variant-ligatures:normal;font-variant-caps:normal;font-variant-numeric:normal;font-variant-east-asian:normal;text-align:start;writing-mode:lr-tb;direction:ltr;text-anchor:start;fill:#000000;fill-opacity:1;stroke:none;stroke-width:1.28883;stroke-opacity:1"
       x="296.39282"
       y="119.77431"
       id="text1-8-1-1"
       inkscape:label="title1"><tspan
         sodipodi:role="line"
         id="tspan4"
         x="296.39282"
         y="119.77431"
         style="stroke-width:1.28883">Slash: Head</tspan></text></g></svg>
