<?xml version="1.0" encoding="UTF-8" standalone="no"?>
<!-- Created with Inkscape (http://www.inkscape.org/) -->

<svg
   width="215.89999mm"
   height="279.39999mm"
   viewBox="0 0 215.89999 279.39999"
   version="1.1"
   id="svg1"
   inkscape:version="1.4 (86a8ad7, 2024-10-11)"
   sodipodi:docname="page-map-dirt.svg"
   xml:space="preserve"
   xmlns:inkscape="http://www.inkscape.org/namespaces/inkscape"
   xmlns:sodipodi="http://sodipodi.sourceforge.net/DTD/sodipodi-0.dtd"
   xmlns:xlink="http://www.w3.org/1999/xlink"
   xmlns="http://www.w3.org/2000/svg"
   xmlns:svg="http://www.w3.org/2000/svg"><sodipodi:namedview
     id="namedview1"
     pagecolor="#ffffff"
     bordercolor="#000000"
     borderopacity="0.25"
     inkscape:showpageshadow="2"
     inkscape:pageopacity="0.0"
     inkscape:pagecheckerboard="0"
     inkscape:deskcolor="#d1d1d1"
     inkscape:document-units="mm"
     inkscape:zoom="0.27487437"
     inkscape:cx="572.98904"
     inkscape:cy="1458.8483"
     inkscape:window-width="1350"
     inkscape:window-height="1040"
     inkscape:window-x="494"
     inkscape:window-y="0"
     inkscape:window-maximized="0"
     inkscape:current-layer="svg1" /><defs
     id="defs1"><linearGradient
       id="gradient_0"
       gradientUnits="userSpaceOnUse"
       x1="50.089081"
       y1="1359.5132"
       x2="17.752125"
       y2="1330.2487"><stop
         offset="0"
         stop-color="#D7BE5C"
         id="stop132" /><stop
         offset="1"
         stop-color="#FFF18C"
         id="stop133" /></linearGradient><linearGradient
       id="gradient_1"
       gradientUnits="userSpaceOnUse"
       x1="376.30267"
       y1="1323.552"
       x2="349.27353"
       y2="1438.2639"><stop
         offset="0"
         stop-color="#786D5F"
         id="stop173" /><stop
         offset="1"
         stop-color="#82825D"
         id="stop174" /></linearGradient><linearGradient
       id="gradient_2"
       gradientUnits="userSpaceOnUse"
       x1="891.43683"
       y1="1255.2534"
       x2="906.07812"
       y2="1281.5365"><stop
         offset="0"
         stop-color="#1E1E56"
         id="stop230" /><stop
         offset="1"
         stop-color="#383976"
         id="stop231" /></linearGradient><linearGradient
       id="gradient_3"
       gradientUnits="userSpaceOnUse"
       x1="615.57208"
       y1="1094.6171"
       x2="768.92432"
       y2="1255.5616"><stop
         offset="0"
         stop-color="#78515E"
         id="stop323" /><stop
         offset="1"
         stop-color="#9D646D"
         id="stop324" /></linearGradient><clipPath
       clipPathUnits="userSpaceOnUse"
       id="clipPath4"><rect
         style="fill:#ffffff;fill-opacity:1;stroke-width:0.0164969;stroke-linecap:round;stroke-miterlimit:0"
         id="rect4"
         width="395.64157"
         height="512.00665"
         x="-462.20203"
         y="3.3030753"
         transform="rotate(-90)" /></clipPath></defs><g
     inkscape:groupmode="layer"
     id="layer3"
     inkscape:label="Layer 3"><rect
       style="fill:#000000;fill-opacity:1;stroke-width:0.00900228;stroke-linecap:round;stroke-miterlimit:0"
       id="rect1"
       width="215.89999"
       height="279.39999"
       x="0"
       y="0" /></g><g
     id="g4"
     transform="matrix(0,0.54569603,-0.54569603,0,252.2218,-1.8024843)"
     inkscape:label="dirt"
     clip-path="url(#clipPath4)"><path
       fill="#a28666"
       transform="scale(0.545788,0.545898)"
       d="m 0,0 h 1363.83 c 1.2,2.1331 1.13,3.85518 1.16,6.23944 0.87,65.87746 0.04,131.89256 0.03,197.78456 0,10.573 1.1,62.55 -0.43,67.144 -0.18,0.539 -0.47,0.984 -0.75,1.48 0.76,1.936 0.55,2.108 0,4.021 1.94,3.439 1.95,37.795 0.99,42.979 -0.16,0.853 -0.52,1.497 -0.94,2.242 l -0.02,2.845 c 1.88,3.337 1.87,14.227 0.73,17.825 -0.17,0.549 -0.45,1.038 -0.71,1.55 1.57,2.825 1.58,7.434 0.75,10.532 -0.19,0.692 -0.24,0.741 -0.5,1.296 l -0.07,2.066 c 2.39,5.22 0.95,160.202 0.95,177.511 L 1365,916.877 c 0,11.588 1.16,100.873 -0.41,105.613 -0.2,0.59 -0.44,0.95 -0.76,1.51 H 0 v -434.526 -3.116 -146.993 -2.203 -27.502 -17.548 -2.762 -46.17 -4.182 z"
       id="path1" /><path
       fill="#1b1713"
       transform="scale(0.545788,0.545898)"
       d="m 848.076,907.634 0.647,-0.069 c 6.703,-0.642 30.223,-1.637 34.838,2.202 -5.527,0.955 -31.012,0.483 -35.485,-2.133 z"
       id="path2" /><path
       fill="#271e18"
       transform="scale(0.545788,0.545898)"
       d="m 957.666,968.983 2.159,-1.439 c 10.848,4.843 22.199,4.201 33.751,5.679 2.865,-0.059 5.284,-0.311 7.724,1.478 -10.68,2.255 -34.172,-0.267 -43.634,-5.718 z"
       id="path3" /><path
       fill="#271e18"
       transform="scale(0.545788,0.545898)"
       d="m 1201.36,421.134 c -10.59,-5.79 -38.91,-5.201 -51.81,-5.67 -4.13,-0.15 -9.06,0.235 -13.05,-0.788 12.71,-1.717 57.18,-1.533 67.29,5.193 l 0.55,1.329 c -1.55,2.552 -5.28,3.448 -8.05,4.102 -8.52,2.018 -17.52,2.977 -26.18,4.413 -8.77,1.454 -17.52,3.218 -26.32,4.444 -22.48,3.133 -45.17,5.152 -67.7,8.132 l -260.278,32.066 -173.838,21.801 -238.052,28.329 c -27.601,3.323 -55.446,5.523 -82.977,9.239 -17.112,2.31 -33.77,6.454 -50.678,9.787 -13.14,2.591 -26.525,4.496 -39.792,6.317 -40.22,5.519 -80.548,10.315 -120.707,16.327 -10.2876,1.54 -20.4679,3.736 -30.7364,5.387 -13.2997,2.137 -28.3205,1.963 -41.1504,5.906 -5.3534,1.646 -9.6677,5.527 -13.778,9.171 C 16.1533,588.001 8.0247,588.631 0,589.474 v -3.116 c 6.8657,-0.274 15.3164,0.291 21.7578,-2.106 7.9952,-2.974 12.802,-8.852 21.7603,-10.25 11.2475,-1.756 22.6713,-2.584 33.9478,-4.227 L 246.968,545.36 c 23.396,-3.542 46.291,-9.634 69.644,-13.098 15.96,-2.367 32.105,-3.678 48.146,-5.397 q 34.79,-3.778 69.508,-8.174 l 463.891,-56.09 c 31.703,-3.855 63.53,-6.629 95.226,-10.493 23.107,-2.816 46.107,-6.906 69.187,-10.073 18.93,-2.598 129.87,-14.939 138.79,-20.901 z"
       id="path13" /><path
       fill="#271e18"
       transform="scale(0.545788,0.545898)"
       d="m 0,437.162 c 27.3065,3.23 57.164,-3.838 84.7213,-5.41 14.8469,-0.846 29.7337,-0.962 44.5767,-1.889 18.257,-1.141 36.449,-3.168 54.74,-3.742 17.849,-0.56 35.723,0.771 53.549,-0.274 30.01,-1.759 59.876,-6.265 89.888,-8.115 17.962,-1.108 35.906,-0.833 53.885,-1.207 q 31.56,-0.81 63.054,-3.004 l 135.354,-11.057 c 23.16,-1.793 46.377,-3.869 69.604,-4.446 34.268,-0.851 68.517,0.8 102.808,-0.283 25.546,-0.807 51.069,-4.418 76.627,-4.56 21.401,-0.119 43.64,5.078 64.81,3.714 10.296,-0.664 20.775,-2.715 31.023,-4.09 22.55,-3.028 45.138,-6.202 67.76,-8.643 37.69,-4.068 75.71,-5.476 113.49,-8.531 13.47,-1.089 26.86,-3.227 40.27,-4.908 q 23.8,-2.907 47.7,-4.887 c 25.81,-2.203 51.78,-2.056 77.64,-3.542 19.98,-1.149 39.96,-2.963 59.92,-4.468 10.84,-0.817 21.85,-1.973 32.72,-1.882 l -0.07,2.066 c -25.74,1.004 -51.44,3.42 -77.13,5.279 -25.9,1.873 -51.75,3.173 -77.58,6.069 -28.82,3.233 -57.48,8.116 -86.27,11.268 -38.58,4.224 -77.48,6.189 -116.12,10.073 -25.642,2.577 -51.109,7.529 -76.853,9.221 12.968,1.638 26.037,2.34 39.068,3.3 q 43.155,3.317 86.415,4.369 c 41,1.109 82.02,-1.283 123.02,-0.248 12.32,0.311 67.41,3.362 75.04,10.213 0.37,1.274 0.6,1.588 -0.09,2.835 -2.12,3.875 -10.5,5.631 -14.43,6.548 -22.48,5.248 -46.15,6.325 -68.95,10.101 -15.23,2.523 -30.3,5.851 -45.58,8.15 -20.37,3.067 -40.91,5.13 -61.34,7.806 L 879.843,476.46 c -39.441,5.128 -78.382,13.86 -117.682,19.89 -34.053,5.225 -68.464,8.09 -102.643,12.409 -20.338,2.569 -40.472,6.55 -60.784,9.315 -28.439,3.872 -56.859,2.269 -85.229,6.578 -10.601,1.61 -21.134,3.697 -31.394,6.849 -10.818,3.324 -21.148,7.693 -32.428,9.301 -18.881,2.692 -37.978,0.645 -56.809,2.793 -13.084,1.492 -26.117,3.552 -39.164,5.338 -11.182,1.531 -22.645,2.689 -33.67,5.107 -6.805,1.492 -11.628,6.786 -18.571,7.815 -9.947,1.473 -20.643,0.073 -30.816,1.231 -17.199,1.957 -33.975,6.08 -51.071,8.624 -21.549,3.207 -43.643,4.03 -64.905,8.922 -14.789,3.402 -29.033,9.319 -43.21,14.637 -5.1,1.912 -17.2487,5.095 -19.9847,9.796 -0.445,0.765 -0.0021,1.194 0.2813,1.947 3.4132,2.32 8.0057,3.498 11.9034,4.904 15.179,5.478 31.827,8.978 45.929,16.992 -28.361,10.119 -92.9031,19.584 -113.6876,37.081 l 0.6808,0.535 c 12.6056,9.809 27.9699,10.887 40.3709,19.027 8.6895,5.704 9.7863,14.069 21.312,19.899 5.6399,2.853 11.8969,4.791 17.9619,6.554 3.378,0.981 7.883,1.022 10.773,2.866 -0.994,0.841 -0.974,0.703 -2.317,0.593 -12.38,-1.014 -30.8214,-6.736 -39.0021,-16.733 -2.4117,-2.947 -4.4598,-6.75 -7.3489,-9.215 -13.0063,-11.099 -33.3724,-10.054 -45.07,-23.625 14.3529,-14.365 60.2744,-24.773 81.269,-29.629 10.001,-2.313 20.404,-3.976 30.094,-7.392 l -0.722,-0.399 c -8.752,-4.776 -53.6245,-16.49 -55.7338,-22.429 1.0053,-3.171 4.9533,-5.175 7.7476,-6.639 7.7812,-4.077 16.5412,-7.002 24.7942,-10.036 11.38,-4.183 23.012,-8.64 34.873,-11.211 20.549,-4.452 41.682,-5.105 62.429,-8.23 17.948,-2.703 35.599,-7.153 53.655,-9.126 9.567,-1.045 19.561,0.289 28.957,-1.111 7.663,-1.142 13.846,-6.643 21.437,-8.374 8.138,-1.856 16.995,-2.388 25.292,-3.557 14.675,-2.068 29.399,-4.546 44.123,-6.158 19.073,-2.089 38.338,-0.311 57.425,-2.88 11.891,-1.601 22.644,-6.229 34.038,-9.632 11.387,-3.401 23.018,-5.524 34.769,-7.2 25.68,-3.661 51.355,-2.082 77.059,-5.362 23.82,-3.039 47.432,-7.566 71.262,-10.637 32.534,-4.193 65.195,-6.97 97.621,-12.004 37.246,-5.783 74.183,-13.522 111.519,-18.852 43.273,-6.178 86.635,-10.86 130.003,-16.1 21.15,-2.555 42.24,-5.888 63.36,-8.721 17.43,-2.338 34.94,-4.155 52.35,-6.584 17.56,-2.448 34.83,-6.507 52.35,-9.148 13.95,-2.103 69.45,-7.201 77.33,-13.957 l 0.33,-1.395 c -1.64,-2.553 -5.19,-3.37 -8,-4.005 -9.31,-2.096 -19.76,-2.347 -29.31,-3.279 -58.92,-5.753 -118.66,-0.683 -177.84,-2.753 -54.307,-1.9 -108.425,-7.304 -162.62,-10.945 -11.511,-0.774 -23.019,-2.207 -34.543,-2.686 -13.066,-0.543 -26.248,0.63 -39.281,1.487 -19.513,1.282 -38.983,2.708 -58.535,3.297 -36.974,1.114 -73.919,-1.491 -110.881,0.747 -66.838,4.047 -133.454,11.324 -200.281,15.455 -34.582,2.137 -69.221,1.313 -103.756,3.487 -31.251,1.967 -62.384,6.822 -93.648,8.286 -19.892,0.931 -39.774,-0.504 -59.703,0.637 -16.344,0.935 -32.65,2.548 -48.992,3.424 -15.945,0.855 -31.9398,0.935 -47.8609,2.204 -25.0655,1.998 -50.5,7.012 -75.6491,4.882 z"
       id="path14" /><path
       fill="#9a7e61"
       transform="scale(0.545788,0.545898)"
       d="m 1221.5,365.668 c 0.64,0.101 0.33,-0.031 0.88,0.484 -20.15,2.79 -40.5,4.632 -60.69,7.18 -13.83,1.746 -27.61,4.283 -41.48,5.653 -36.66,3.62 -73.48,5.822 -110.16,9.563 q -25.851,2.881 -51.632,6.34 c -18.788,2.433 -33.989,5.024 -53.146,3.425 -1.011,-0.188 -1.32,-0.261 -2.198,-0.866 13.048,-2.945 28.736,-3.829 42.169,-5.579 16.665,-2.171 33.369,-4.6 50.099,-6.201 33.488,-3.205 67.148,-4.865 100.698,-7.35 22.67,-1.681 44.97,-5.526 67.56,-7.89 13.83,-1.449 27.74,-2.406 41.61,-3.467 5.11,-0.391 11.38,-0.044 16.29,-1.292 z"
       id="path15" /><path
       fill="#312116"
       transform="scale(0.545788,0.545898)"
       d="m 0,338.998 c 29.5838,2.575 59.4729,0.195 89.0342,2.724 17.7258,1.517 34.7898,9.353 52.5328,8.807 37.46,-1.154 75.039,-4.717 112.31,-8.558 29.44,-3.034 59.646,-6.876 89.281,-6.534 24.966,0.287 49.621,5.459 74.486,7.146 11.749,0.797 23.425,0.192 35.182,0.219 q 21.335,0.221 42.636,1.429 c 15.873,0.872 37.877,4.258 53.097,2.807 17.659,-1.683 35.237,-4.52 52.847,-6.673 l 142.868,-17.907 c 58.339,-7.242 117.103,-12.278 175.268,-20.811 q 47.779,-7.297 95.218,-16.554 c 19.65,-3.635 39.55,-7.933 59.47,-9.668 15.96,-1.39 32.1,0.195 48.04,1.089 q 30.45,1.821 60.96,2.202 c 60.46,0.364 120.27,-3.6 180.61,-6.068 0.76,1.936 0.55,2.108 0,4.021 -25.06,0.182 -50.3,2.553 -75.33,3.893 -14.34,0.767 -29.72,-0.054 -43.84,2.459 -7.41,1.317 -14.7,3.934 -21.86,6.213 -19.7,6.269 -38.79,14.069 -58.41,20.489 -7.39,2.419 -14.94,4.705 -22.53,6.426 -6.46,1.464 -13.14,2.352 -19.44,4.426 l -0.97,-0.228 c 13.39,-5.203 27.92,-8.498 41.62,-13.02 14.69,-4.847 28.93,-10.933 43.6,-15.817 5.9,-1.964 21.79,-5.932 26.26,-8.698 -26.25,-0.067 -52.26,0.227 -78.51,-1.037 l -43.94,-2.182 c -9.62,-0.47 -19.78,-1.592 -29.36,-0.449 -8.04,0.959 -14.53,4.907 -21.74,8.31 -12.97,6.127 -27.76,12.34 -42.21,13.013 10.97,-3.697 42.22,-13.326 49.28,-20.696 -15.46,3.697 -31.82,5.565 -47.5,8.49 -37.3,6.954 -74.529,13.957 -112.157,18.962 q -88.694,11.105 -177.54,20.925 -118.225,14.201 -236.186,30.462 c -8.083,1.169 -40.065,4.654 -44.732,7.279 -2.425,0.406 -4.841,0.815 -7.246,1.331 l 0.455,0.131 c -4.719,0.191 -10.173,-0.093 -14.71,1.259 -2.016,-0.047 -3.996,-0.057 -5.985,-0.435 3.298,-0.586 8.466,-0.815 10.879,-2.994 5.893,-2.508 14.792,-3.049 21.188,-4.14 q 37.829,-6.443 75.916,-11.122 c -22.319,-2.098 -45.35,-3.055 -67.779,-3.3 -13.191,-0.144 -26.511,0.537 -39.678,-0.227 -30.764,-1.783 -60.436,-8.024 -91.476,-6.968 -27.831,0.947 -55.618,4.236 -83.315,7.013 q -46.607,5.032 -93.424,7.4 c 31.209,4.814 63.181,9.923 94.68,12.324 8.472,0.646 17.017,0.636 25.51,0.976 -6.889,2.198 -13.852,2.453 -21.03,2.316 -15.404,-0.293 -31.071,-2.898 -46.362,-4.756 -24.734,-3.006 -49.764,-5.931 -74.26,-10.515 -8.991,-1.683 -17.706,-5.022 -26.67,-6.462 -1.34,-0.215 -1.541,-0.395 -2.681,0.434 l -2.5864,-0.278 -0.5595,-0.709 C 87.4656,343.242 17.7732,343.894 0,343.18 Z"
       id="path55" /><path
       fill="#312116"
       transform="scale(0.545788,0.545898)"
       d="m 8.03505,388.82 q 6.02745,-0.368 12.05895,-0.662 c 2.1453,1.708 4.285,1.766 6.8982,2.021 -3.9366,0.349 -7.8444,0.612 -11.7951,0.727 -2.7976,-0.945 -4.4789,-0.031 -7.16205,-2.086 z"
       id="path57" /><path
       fill="#2c1c10"
       transform="scale(0.545788,0.545898)"
       d="m 0,389.35 8.03505,-0.53 c 2.68315,2.055 4.36445,1.141 7.16205,2.086 C 10.3702,391.984 4.9472,391.841 0,392.112 Z"
       id="path58" /><path
       fill="#271e18"
       transform="scale(0.545788,0.545898)"
       d="m 20.094,388.158 q 7.2567,-0.629 14.5395,-0.757 l 1.48,2.28 c -3.0279,0.18 -6.0904,0.465 -9.1213,0.498 -2.6132,-0.255 -4.7529,-0.313 -6.8982,-2.021 z"
       id="path59" /><path
       fill="#271e18"
       transform="scale(0.545788,0.545898)"
       d="m 191.578,378.316 q 10.187,-0.663 20.392,-0.957 l -0.479,1.767 0.955,0.444 c -3.207,0.599 -6.469,0.5 -9.718,0.517 -3.886,-0.231 -7.346,-0.954 -11.15,-1.771 z"
       id="path60" /><path
       fill="#2c1c10"
       transform="scale(0.545788,0.545898)"
       d="m 242.928,375.906 c 9.939,-1.695 21.615,-1.217 31.7,-1.369 l -0.626,2.119 c -6.069,0.379 -12.547,1.103 -18.609,0.716 -3.068,-2.108 -8.724,-1.169 -12.465,-1.466 z"
       id="path61" /><path
       fill="#312116"
       transform="scale(0.545788,0.545898)"
       d="m 171.298,379.434 c 6.712,-0.705 13.537,-0.824 20.28,-1.118 3.804,0.817 7.264,1.54 11.15,1.771 -9.503,1.094 -19.249,1.146 -28.808,1.57 z"
       id="path62" /><path
       fill="#271e18"
       transform="scale(0.545788,0.545898)"
       d="m 99.7706,347.876 2.5864,0.278 c -20.0643,21.927 -59.6902,26.474 -86.8177,35.076 -3.4467,1.189 -6.45633,2.5 -10.15839,1.784 l 0.15909,-1.241 -0.63608,0.839 1.62101,0.461 c 0.37736,-0.825 0.73008,-1.675 1.1416,-2.482 l 5.60967,-1.676 C 42.1903,369.849 75.607,369.658 99.7706,347.876 Z"
       id="path63" /><path
       fill="#271e18"
       transform="scale(0.545788,0.545898)"
       d="m 111.907,383.165 c 5.483,-1.626 50.994,-3.682 59.391,-3.731 l 2.622,2.223 -41.371,2.448 c -7.181,0.416 -14.618,1.259 -21.795,1.241 -12.9463,0.776 -26.0138,1.952 -38.9746,2.182 -3.9064,0.297 -7.7767,0.574 -11.6961,0.552 -2.9114,-0.14 -6.2906,0.136 -8.8055,-1.471 7.2365,-1.369 15.5567,-1.099 22.9521,-1.447 12.3448,-1.413 25.2426,-1.511 37.6771,-1.997 z"
       id="path64" /><path
       fill="#2c1c10"
       transform="scale(0.545788,0.545898)"
       d="m 792.139,349.258 c 4.599,-0.888 9.646,-0.749 14.332,-0.968 l 3.357,2.234 -9.365,0.552 c -0.093,-0.141 -0.166,-0.299 -0.28,-0.424 -1.451,-1.58 -5.868,-1.223 -8.044,-1.394 z"
       id="path66" /><path
       fill="#312116"
       transform="scale(0.545788,0.545898)"
       d="m 779.775,349.928 c 4.085,-0.648 8.238,-0.602 12.364,-0.67 2.176,0.171 6.593,-0.186 8.044,1.394 0.114,0.125 0.187,0.283 0.28,0.424 l -13.366,0.652 -0.874,-1.121 c -2.164,-0.471 -4.246,-0.576 -6.448,-0.679 z"
       id="path67" /><path
       fill="#271e18"
       transform="scale(0.545788,0.545898)"
       d="m 806.471,348.29 c 3.896,-0.286 7.751,-0.385 11.657,-0.391 2.16,0.176 6.435,-0.156 8.019,0.904 l -0.884,1.149 -15.435,0.572 z"
       id="path68" /><path
       fill="#312116"
       transform="scale(0.545788,0.545898)"
       d="m 818.128,347.899 c 7.146,-1.128 15.093,-0.998 22.353,-1.12 0.546,1.472 0.409,1.531 1.801,2.202 -5.671,0.407 -11.35,0.587 -17.019,0.971 l 0.884,-1.149 c -1.584,-1.06 -5.859,-0.728 -8.019,-0.904 z"
       id="path69" /><path
       fill="#271e18"
       transform="scale(0.545788,0.545898)"
       d="m 1208.29,330.08 c 6.35,-0.478 12.69,-0.693 19.06,-0.852 1.54,0.114 5.35,-0.173 6.38,0.829 l -0.73,1.216 c -5.2,0.574 -10.24,0.835 -15.47,0.831 -3.01,-0.772 -6.28,0.37 -9.19,-0.916 z"
       id="path70" /><path
       fill="#2c1c10"
       transform="scale(0.545788,0.545898)"
       d="m 1135.37,333.891 c 9.31,-1.547 19.56,-1.352 29.01,-1.759 2.02,2.339 3.78,1.261 6.52,2.01 -8.82,1.917 -19.59,1.215 -28.69,1.561 0.14,-0.403 0.08,-0.854 0.09,-1.279 z"
       id="path71" /><path
       fill="#2c1c10"
       transform="scale(0.545788,0.545898)"
       d="m 630.462,357.92 c 10.356,-1.816 22.679,-1.407 33.256,-1.8 l 0.265,1.493 1.788,0.746 c -8.257,0.517 -16.969,1.497 -25.234,1.023 -2.315,-1.661 -7.175,-1.257 -10.075,-1.462 z"
       id="path72" /><path
       fill="#312116"
       transform="scale(0.545788,0.545898)"
       d="m 604.115,359.079 c 8.485,-1.041 17.801,-1.234 26.347,-1.159 2.9,0.205 7.76,-0.199 10.075,1.462 -10.688,1.383 -21.741,1.26 -32.511,1.838 0.117,-1.015 0.193,-0.482 -0.435,-1.556 z"
       id="path73" /><path
       fill="#271e18"
       transform="scale(0.545788,0.545898)"
       d="m 840.481,346.779 q 18.163,-0.894 36.342,-1.332 c -1.735,1.207 -3.371,1.532 -5.178,2.426 -9.774,0.359 -19.603,0.51 -29.363,1.108 -1.392,-0.671 -1.255,-0.73 -1.801,-2.202 z"
       id="path74" /><path
       fill="#312116"
       transform="scale(0.545788,0.545898)"
       d="m 1122.06,334.555 c 4.44,-0.53 8.85,-0.595 13.31,-0.664 l 6.93,0.533 c -0.01,0.425 0.05,0.876 -0.09,1.279 -3.93,0.499 -8.08,0.429 -12.04,0.609 q -15.97,0.861 -31.95,1.455 l 0.24,-0.86 c -1.29,-1.194 -6.39,-0.938 -8.39,-1.048 10.22,-1.448 21.65,-1.405 31.99,-1.304 z"
       id="path75" /><path
       fill="#312116"
       transform="scale(0.545788,0.545898)"
       d="m 1171.5,331.831 c 11.96,-1.322 24.75,-1.628 36.79,-1.751 l 0.05,1.108 c 2.91,1.286 6.18,0.144 9.19,0.916 -7.43,1.889 -27.59,1.322 -36.01,1.699 -3.47,0.409 -7.11,0.281 -10.62,0.339 -2.74,-0.749 -4.5,0.329 -6.52,-2.01 z"
       id="path76" /><path
       fill="#271e18"
       transform="scale(0.545788,0.545898)"
       d="m 1164.38,332.132 7.12,-0.301 c 2.58,0.106 8.21,-0.564 10.27,0.621 l -0.25,1.351 c -3.47,0.409 -7.11,0.281 -10.62,0.339 -2.74,-0.749 -4.5,0.329 -6.52,-2.01 z"
       id="path77" /><path
       fill="#271e18"
       transform="scale(0.545788,0.545898)"
       d="m 696.567,354.608 c 6.709,-1.184 14.16,-1.033 20.984,-1.423 11.615,-0.664 23.273,-1.558 34.905,-1.792 l 1.446,2.271 c -16.284,0.868 -32.968,2.493 -49.257,2.401 -12.725,1.633 -26.042,1.582 -38.874,2.294 l -1.788,-0.746 -0.265,-1.493 c 10.892,-0.64 21.94,-1.71 32.849,-1.512 z"
       id="path78" /><path
       fill="#271e18"
       transform="scale(0.545788,0.545898)"
       d="m 901.994,308.944 c 1.764,-0.342 2.623,-0.443 4.281,0.303 -4.66,5.441 -64.633,13.915 -74.983,15.089 -1.152,0.25 -2.562,0.192 -3.751,0.272 2.488,-1.932 68.131,-15.214 74.453,-15.664 z"
       id="path79" /><path
       fill="#312116"
       transform="scale(0.545788,0.545898)"
       d="m 1227.35,329.228 c 5.25,-1.009 11.22,-0.845 16.58,-1.117 l 32.8,-1.633 53.64,-2.599 c 11.17,-0.618 22.34,-1.689 33.52,-1.989 l -0.02,2.845 c -7.67,1.055 -15.58,1.093 -23.31,1.465 l -42.4,1.933 -42.74,2.207 c -7.35,0.382 -15.08,1.272 -22.42,0.933 l 0.73,-1.216 c -1.03,-1.002 -4.84,-0.715 -6.38,-0.829 z"
       id="path80" /><path
       fill="#271e18"
       transform="scale(0.545788,0.545898)"
       d="m 945.4,323.421 c 17.972,-5.41 39.024,-10.619 57.74,-11.653 l 0.53,-0.024 c -15.13,6.457 -32.46,7.209 -48.204,12.004 l 0.785,-0.019 c 8.768,-0.25 22.15,-4.866 30.153,-2.67 -8.413,4.089 -26.206,5.188 -35.929,6.098 -18.66,0.843 -36.892,7.126 -55.613,7.056 16.105,-4.725 33.955,-8.086 50.538,-10.792 z"
       id="path81" /><path
       fill="#a28666"
       transform="scale(0.545788,0.545898)"
       d="m 1363.87,324.735 c 1.88,3.337 1.87,14.227 0.73,17.825 -0.17,0.549 -0.45,1.038 -0.71,1.55 1.57,2.825 1.58,7.434 0.75,10.532 -0.19,0.692 -0.24,0.741 -0.5,1.296 -10.87,-0.091 -21.88,1.065 -32.72,1.882 -19.96,1.505 -39.94,3.319 -59.92,4.468 -25.86,1.486 -51.83,1.339 -77.64,3.542 q -23.9,1.98 -47.7,4.887 c -13.41,1.681 -26.8,3.819 -40.27,4.908 -37.78,3.055 -75.8,4.463 -113.49,8.531 -22.622,2.441 -45.21,5.615 -67.76,8.643 -10.248,1.375 -20.727,3.426 -31.023,4.09 -21.17,1.364 -43.409,-3.833 -64.81,-3.714 -25.558,0.142 -51.081,3.753 -76.627,4.56 -34.291,1.083 -68.54,-0.568 -102.808,0.283 -23.227,0.577 -46.444,2.653 -69.604,4.446 l -135.354,11.057 q -31.494,2.194 -63.054,3.004 c -17.979,0.374 -35.923,0.099 -53.885,1.207 -30.012,1.85 -59.878,6.356 -89.888,8.115 -17.826,1.045 -35.7,-0.286 -53.549,0.274 -18.291,0.574 -36.483,2.601 -54.74,3.742 -14.843,0.927 -29.7298,1.043 -44.5767,1.889 C 57.164,433.324 27.3065,440.392 0,437.162 V 409.66 392.112 c 4.9472,-0.271 10.3702,-0.128 15.1971,-1.206 3.9507,-0.115 7.8585,-0.378 11.7951,-0.727 3.0309,-0.033 6.0934,-0.318 9.1213,-0.498 l -1.48,-2.28 c 5.5711,-0.466 11.0476,-0.851 16.6443,-0.792 2.5149,1.607 5.8941,1.331 8.8055,1.471 3.9194,0.022 7.7897,-0.255 11.6961,-0.552 12.9608,-0.23 26.0283,-1.406 38.9746,-2.182 7.177,0.018 14.614,-0.825 21.795,-1.241 l 41.371,-2.448 c 9.559,-0.424 19.305,-0.476 28.808,-1.57 3.249,-0.017 6.511,0.082 9.718,-0.517 l -0.955,-0.444 0.479,-1.767 c 6.701,-0.515 13.439,-0.728 20.154,-1.033 3.609,-0.326 7.182,-0.397 10.804,-0.42 3.741,0.297 9.397,-0.642 12.465,1.466 6.062,0.387 12.54,-0.337 18.609,-0.716 l 0.626,-2.119 c 5.15,-1.343 12.049,-0.881 17.439,-1.15 q 19.924,-1.05 39.859,-1.884 13.953,-0.744 27.915,-1.281 c 23.916,-0.875 48.284,-0.914 71.897,-5.041 -2.413,2.179 -7.581,2.408 -10.879,2.994 1.989,0.378 3.969,0.388 5.985,0.435 4.537,-1.352 9.991,-1.068 14.71,-1.259 l -0.455,-0.131 c 2.405,-0.516 4.821,-0.925 7.246,-1.331 l 10.735,-0.079 c 16.666,-1.949 34.219,-1.611 51.044,-2.302 q 47.012,-1.851 93.991,-4.429 l 3.476,0.585 c 0.628,1.074 0.552,0.541 0.435,1.556 10.77,-0.578 21.823,-0.455 32.511,-1.838 8.265,0.474 16.977,-0.506 25.234,-1.023 12.832,-0.712 26.149,-0.661 38.874,-2.294 16.289,0.092 32.973,-1.533 49.257,-2.401 l -1.446,-2.271 c 5.72,-0.486 11.425,-0.704 17.161,-0.888 3.346,-0.531 6.777,-0.487 10.158,-0.577 2.202,0.103 4.284,0.208 6.448,0.679 l 0.874,1.121 13.366,-0.652 9.365,-0.552 15.435,-0.572 c 5.669,-0.384 11.348,-0.564 17.019,-0.971 9.76,-0.598 19.589,-0.749 29.363,-1.108 1.807,-0.894 3.443,-1.219 5.178,-2.426 l 25.508,-1.101 c 4.189,-0.301 8.327,-0.46 12.527,-0.441 11.145,-1.805 23.74,-1.237 35.072,-1.734 2.447,-0.099 5.097,-0.414 7.525,-0.256 4.165,-0.657 8.453,-0.573 12.662,-0.655 6.278,-1.289 13.837,-1.052 20.278,-1.12 q 23.005,-1.189 46.035,-1.953 c 3.02,-0.115 6.19,-0.433 9.2,-0.281 5.06,-0.617 10.15,-0.593 15.24,-0.662 6.37,-0.969 13.13,-0.829 19.56,-1.054 3.16,-0.114 6.5,-0.464 9.64,-0.331 2,0.11 7.1,-0.146 8.39,1.048 l -0.24,0.86 q 15.98,-0.594 31.95,-1.455 c 3.96,-0.18 8.11,-0.11 12.04,-0.609 9.1,-0.346 19.87,0.356 28.69,-1.561 3.51,-0.058 7.15,0.07 10.62,-0.339 8.42,-0.377 28.58,0.19 36.01,-1.699 5.23,0.004 10.27,-0.257 15.47,-0.831 7.34,0.339 15.07,-0.551 22.42,-0.933 l 42.74,-2.207 42.4,-1.933 c 7.73,-0.372 15.64,-0.41 23.31,-1.465 z"
       id="path82" /><path
       fill="#9a7e61"
       transform="scale(0.545788,0.545898)"
       d="m 1363.87,324.735 c 1.88,3.337 1.87,14.227 0.73,17.825 -0.17,0.549 -0.45,1.038 -0.71,1.55 -13.74,1.5 -27.8,1.497 -41.6,2.024 -22.41,0.856 -44.74,1.793 -67.16,2.24 -34.22,0.682 -68.69,2.635 -102.91,4.125 l -433.322,21.706 -474.986,24.538 q -92.584,4.863 -185.255,7.598 C 39.2542,407.061 19.4424,410.236 0,409.66 v -17.548 c 4.9472,-0.271 10.3702,-0.128 15.1971,-1.206 3.9507,-0.115 7.8585,-0.378 11.7951,-0.727 3.0309,-0.033 6.0934,-0.318 9.1213,-0.498 l -1.48,-2.28 c 5.5711,-0.466 11.0476,-0.851 16.6443,-0.792 2.5149,1.607 5.8941,1.331 8.8055,1.471 3.9194,0.022 7.7897,-0.255 11.6961,-0.552 12.9608,-0.23 26.0283,-1.406 38.9746,-2.182 7.177,0.018 14.614,-0.825 21.795,-1.241 l 41.371,-2.448 c 9.559,-0.424 19.305,-0.476 28.808,-1.57 3.249,-0.017 6.511,0.082 9.718,-0.517 l -0.955,-0.444 0.479,-1.767 c 6.701,-0.515 13.439,-0.728 20.154,-1.033 3.609,-0.326 7.182,-0.397 10.804,-0.42 3.741,0.297 9.397,-0.642 12.465,1.466 6.062,0.387 12.54,-0.337 18.609,-0.716 l 0.626,-2.119 c 5.15,-1.343 12.049,-0.881 17.439,-1.15 q 19.924,-1.05 39.859,-1.884 13.953,-0.744 27.915,-1.281 c 23.916,-0.875 48.284,-0.914 71.897,-5.041 -2.413,2.179 -7.581,2.408 -10.879,2.994 1.989,0.378 3.969,0.388 5.985,0.435 4.537,-1.352 9.991,-1.068 14.71,-1.259 l -0.455,-0.131 c 2.405,-0.516 4.821,-0.925 7.246,-1.331 l 10.735,-0.079 c 16.666,-1.949 34.219,-1.611 51.044,-2.302 q 47.012,-1.851 93.991,-4.429 l 3.476,0.585 c 0.628,1.074 0.552,0.541 0.435,1.556 10.77,-0.578 21.823,-0.455 32.511,-1.838 8.265,0.474 16.977,-0.506 25.234,-1.023 12.832,-0.712 26.149,-0.661 38.874,-2.294 16.289,0.092 32.973,-1.533 49.257,-2.401 l -1.446,-2.271 c 5.72,-0.486 11.425,-0.704 17.161,-0.888 3.346,-0.531 6.777,-0.487 10.158,-0.577 2.202,0.103 4.284,0.208 6.448,0.679 l 0.874,1.121 13.366,-0.652 9.365,-0.552 15.435,-0.572 c 5.669,-0.384 11.348,-0.564 17.019,-0.971 9.76,-0.598 19.589,-0.749 29.363,-1.108 1.807,-0.894 3.443,-1.219 5.178,-2.426 l 25.508,-1.101 c 4.189,-0.301 8.327,-0.46 12.527,-0.441 11.145,-1.805 23.74,-1.237 35.072,-1.734 2.447,-0.099 5.097,-0.414 7.525,-0.256 4.165,-0.657 8.453,-0.573 12.662,-0.655 6.278,-1.289 13.837,-1.052 20.278,-1.12 q 23.005,-1.189 46.035,-1.953 c 3.02,-0.115 6.19,-0.433 9.2,-0.281 5.06,-0.617 10.15,-0.593 15.24,-0.662 6.37,-0.969 13.13,-0.829 19.56,-1.054 3.16,-0.114 6.5,-0.464 9.64,-0.331 2,0.11 7.1,-0.146 8.39,1.048 l -0.24,0.86 q 15.98,-0.594 31.95,-1.455 c 3.96,-0.18 8.11,-0.11 12.04,-0.609 9.1,-0.346 19.87,0.356 28.69,-1.561 3.51,-0.058 7.15,0.07 10.62,-0.339 8.42,-0.377 28.58,0.19 36.01,-1.699 5.23,0.004 10.27,-0.257 15.47,-0.831 7.34,0.339 15.07,-0.551 22.42,-0.933 l 42.74,-2.207 42.4,-1.933 c 7.73,-0.372 15.64,-0.41 23.31,-1.465 z"
       id="path83" /><path
       fill="#271e18"
       transform="scale(0.545788,0.545898)"
       d="m 769.617,350.505 c 3.346,-0.531 6.777,-0.487 10.158,-0.577 2.202,0.103 4.284,0.208 6.448,0.679 l 0.874,1.121 -11.998,0.662 c -0.046,-0.067 -0.081,-0.142 -0.137,-0.201 -1.496,-1.579 -3.284,-1.406 -5.345,-1.684 z"
       id="path84" /><path
       fill="#271e18"
       transform="scale(0.545788,0.545898)"
       d="m 949.93,342.171 c 2.447,-0.099 5.097,-0.414 7.525,-0.256 2.869,0.217 7.567,-0.2 9.639,1.789 l -11.327,0.581 c -2.321,-0.319 -3.835,-0.904 -5.837,-2.114 z"
       id="path85" /><path
       fill="#271e18"
       transform="scale(0.545788,0.545898)"
       d="m 1080.43,336.19 c 3.16,-0.114 6.5,-0.464 9.64,-0.331 2,0.11 7.1,-0.146 8.39,1.048 l -0.24,0.86 c -3.71,0.46 -7.63,0.277 -11.37,0.325 -2.54,-0.731 -4.12,0.02 -6.42,-1.902 z"
       id="path86" /><path
       fill="#312116"
       transform="scale(0.545788,0.545898)"
       d="m 957.455,341.915 c 4.165,-0.657 8.453,-0.573 12.662,-0.655 2.181,0.166 7.838,-0.197 9.393,0.859 l 0.227,1.059 c -4.194,0.169 -8.466,0.17 -12.643,0.526 -2.072,-1.989 -6.77,-1.572 -9.639,-1.789 z"
       id="path87" /><path
       fill="#312116"
       transform="scale(0.545788,0.545898)"
       d="m 1060.87,337.244 c 6.37,-0.969 13.13,-0.829 19.56,-1.054 2.3,1.922 3.88,1.171 6.42,1.902 -4.91,1.414 -12.11,0.874 -17.31,1.051 l 0.31,-0.895 c -1.35,-1.085 -6.94,-0.825 -8.98,-1.004 z"
       id="path88-8" /><path
       fill="#312116"
       transform="scale(0.545788,0.545898)"
       d="m 34.6335,387.401 c 5.5711,-0.466 11.0476,-0.851 16.6443,-0.792 2.5149,1.607 5.8941,1.331 8.8055,1.471 -7.9383,0.892 -15.9941,1.144 -23.9698,1.601 z"
       id="path89" /><path
       fill="#2c1c10"
       transform="scale(0.545788,0.545898)"
       d="m 752.456,351.393 c 5.72,-0.486 11.425,-0.704 17.161,-0.888 2.061,0.278 3.849,0.105 5.345,1.684 0.056,0.059 0.091,0.134 0.137,0.201 l -21.197,1.274 z"
       id="path90" /><path
       fill="#271e18"
       transform="scale(0.545788,0.545898)"
       d="m 232.124,376.326 c 3.609,-0.326 7.182,-0.397 10.804,-0.42 3.741,0.297 9.397,-0.642 12.465,1.466 -7.048,0.954 -14.946,1.345 -22.063,1.226 z"
       id="path91" /><path
       fill="#2c1c10"
       transform="scale(0.545788,0.545898)"
       d="m 970.117,341.26 c 6.278,-1.289 13.837,-1.052 20.278,-1.12 1.44,1.662 1.908,1.432 4.025,1.588 2.952,0.217 5.95,-0.095 8.87,0.376 -7.829,0.736 -15.705,0.641 -23.553,1.074 l -0.227,-1.059 c -1.555,-1.056 -7.212,-0.693 -9.393,-0.859 z"
       id="path92" /><path
       fill="#2c1c10"
       transform="scale(0.545788,0.545898)"
       d="m 211.97,377.359 c 6.701,-0.515 13.439,-0.728 20.154,-1.033 l 1.206,2.272 c -6.958,0.394 -13.916,0.851 -20.884,0.972 l -0.955,-0.444 z"
       id="path93" /><path
       fill="#271e18"
       transform="scale(0.545788,0.545898)"
       d="m 902.331,344.346 c 4.189,-0.301 8.327,-0.46 12.527,-0.441 2.94,0.224 8.586,-0.364 11.003,0.987 l 0.554,0.841 c -7.814,0.316 -15.648,0.768 -23.466,0.893 z"
       id="path94" /><path
       fill="#312116"
       transform="scale(0.545788,0.545898)"
       d="m 876.823,345.447 25.508,-1.101 0.618,2.28 c -10.429,0.433 -20.869,0.994 -31.304,1.247 1.807,-0.894 3.443,-1.219 5.178,-2.426 z"
       id="path95" /><path
       fill="#2c1c10"
       transform="scale(0.545788,0.545898)"
       d="m 1045.63,337.906 c 5.06,-0.617 10.15,-0.593 15.24,-0.662 2.04,0.179 7.63,-0.081 8.98,1.004 l -0.31,0.895 -14.65,0.638 c -3.46,0.459 -7.19,0.264 -10.68,0.316 -1.35,-0.308 -2.78,-0.142 -4.16,-0.243 -1.99,-0.144 -2.33,-0.133 -3.62,-1.667 3.02,-0.115 6.19,-0.433 9.2,-0.281 z"
       id="path96" /><path
       fill="#271e18"
       transform="scale(0.545788,0.545898)"
       d="m 1036.43,338.187 c 3.02,-0.115 6.19,-0.433 9.2,-0.281 2.31,0.219 7.82,-0.208 9.55,0.838 l -0.29,1.037 c -3.46,0.459 -7.19,0.264 -10.68,0.316 -1.35,-0.308 -2.78,-0.142 -4.16,-0.243 -1.99,-0.144 -2.33,-0.133 -3.62,-1.667 z"
       id="path97" /><path
       fill="#312116"
       transform="scale(0.545788,0.545898)"
       d="m 331.926,371.503 q 13.953,-0.744 27.915,-1.281 c 2.745,1.933 5.639,1.55 8.936,1.859 -11.348,1.25 -22.89,0.883 -34.283,1.598 -1.267,-0.384 -1.783,-1.186 -2.568,-2.176 z"
       id="path98" /><path
       fill="#312116"
       transform="scale(0.545788,0.545898)"
       d="m 914.858,343.905 c 11.145,-1.805 23.74,-1.237 35.072,-1.734 2.002,1.21 3.516,1.795 5.837,2.114 l -29.352,1.448 -0.554,-0.841 c -2.417,-1.351 -8.063,-0.763 -11.003,-0.987 z"
       id="path99" /><path
       fill="#312116"
       transform="scale(0.545788,0.545898)"
       d="m 990.395,340.14 q 23.005,-1.189 46.035,-1.953 c 1.29,1.534 1.63,1.523 3.62,1.667 1.38,0.101 2.81,-0.065 4.16,0.243 -5.88,1.691 -34.23,2.507 -40.92,2.007 -2.92,-0.471 -5.918,-0.159 -8.87,-0.376 -2.117,-0.156 -2.585,0.074 -4.025,-1.588 z"
       id="path100" /><path
       fill="#271e18"
       transform="scale(0.545788,0.545898)"
       d="m 274.628,374.537 c 5.15,-1.343 12.049,-0.881 17.439,-1.15 q 19.924,-1.05 39.859,-1.884 c 0.785,0.99 1.301,1.792 2.568,2.176 -19.985,1.26 -40.49,2.781 -60.492,2.977 z"
       id="path101" /><path
       fill="#271e18"
       transform="scale(0.545788,0.545898)"
       d="m 459.08,365.81 c 16.666,-1.949 34.219,-1.611 51.044,-2.302 q 47.012,-1.851 93.991,-4.429 l 3.476,0.585 c 0.628,1.074 0.552,0.541 0.435,1.556 q -48.003,2.787 -96.058,4.454 c -14.714,0.55 -29.915,1.923 -44.613,1.536 -13.341,1.185 -26.812,1.674 -40.198,2.116 q -18.2,1.186 -36.421,2 c -7.219,0.354 -14.754,1.131 -21.959,0.755 -3.297,-0.309 -6.191,0.074 -8.936,-1.859 23.916,-0.875 48.284,-0.914 71.897,-5.041 -2.413,2.179 -7.581,2.408 -10.879,2.994 1.989,0.378 3.969,0.388 5.985,0.435 4.537,-1.352 9.991,-1.068 14.71,-1.259 l -0.455,-0.131 c 2.405,-0.516 4.821,-0.925 7.246,-1.331 z"
       id="path102" /></g><g
     id="g2"
     transform="matrix(1.0484341,0,0,1.0484328,-4.9151693,-5.415164)"
     inkscape:label="dots"><g
       inkscape:label="Layer 1"
       id="layer1-5"><path
         style="fill:#000000;fill-opacity:1;stroke:none;stroke-width:0.7366;stroke-dasharray:none;paint-order:markers fill stroke"
         id="path14625-1"
         sodipodi:type="arc"
         sodipodi:cx="5.3542447"
         sodipodi:cy="5.3542447"
         sodipodi:rx="1.1430411"
         sodipodi:ry="1.1430411"
         sodipodi:start="0.027304543"
         sodipodi:end="6.2831853"
         sodipodi:open="true"
         sodipodi:arc-type="arc"
         d="M 6.4968598,5.385451 A 1.1430411,1.1430411 0 0 1 5.3308387,6.4970462 1.1430411,1.1430411 0 0 1 4.2113101,5.3386401 1.1430411,1.1430411 0 0 1 5.3620472,4.2112302 1.1430411,1.1430411 0 0 1 6.4972858,5.3542447"
         inkscape:tile-cx="5.3542447"
         inkscape:tile-cy="5.3542447"
         inkscape:tile-w="2.2860823"
         inkscape:tile-h="2.2860823"
         inkscape:tile-x0="4.2112036"
         inkscape:tile-y0="4.2112036" /><use
         x="0"
         y="0"
         inkscape:tiled-clone-of="#path14625-1"
         xlink:href="#path14625-1"
         id="use15766-71" /><use
         x="0"
         y="0"
         inkscape:tiled-clone-of="#path14625-1"
         xlink:href="#path14625-1"
         transform="translate(0,40.920873)"
         id="use15767-1" /><use
         x="0"
         y="0"
         inkscape:tiled-clone-of="#path14625-1"
         xlink:href="#path14625-1"
         transform="translate(0,81.841746)"
         id="use15768-5" /><use
         x="0"
         y="0"
         inkscape:tiled-clone-of="#path14625-1"
         xlink:href="#path14625-1"
         transform="translate(0,122.76262)"
         id="use15769-2" /><use
         x="0"
         y="0"
         inkscape:tiled-clone-of="#path14625-1"
         xlink:href="#path14625-1"
         transform="translate(0,163.68349)"
         id="use15770-76" /><use
         x="0"
         y="0"
         inkscape:tiled-clone-of="#path14625-1"
         xlink:href="#path14625-1"
         transform="translate(0,204.60437)"
         id="use15771-1" /><use
         x="0"
         y="0"
         inkscape:tiled-clone-of="#path14625-1"
         xlink:href="#path14625-1"
         transform="translate(0,245.52524)"
         id="use15772-4" /><use
         x="0"
         y="0"
         inkscape:tiled-clone-of="#path14625-1"
         xlink:href="#path14625-1"
         transform="translate(40.920873)"
         id="use15773-2" /><use
         x="0"
         y="0"
         inkscape:tiled-clone-of="#path14625-1"
         xlink:href="#path14625-1"
         transform="translate(40.920873,40.920873)"
         id="use15774-3" /><use
         x="0"
         y="0"
         inkscape:tiled-clone-of="#path14625-1"
         xlink:href="#path14625-1"
         transform="translate(40.920873,81.841746)"
         id="use15775-2" /><use
         x="0"
         y="0"
         inkscape:tiled-clone-of="#path14625-1"
         xlink:href="#path14625-1"
         transform="translate(40.920873,122.76262)"
         id="use15776-2" /><use
         x="0"
         y="0"
         inkscape:tiled-clone-of="#path14625-1"
         xlink:href="#path14625-1"
         transform="translate(40.920873,163.68349)"
         id="use15777-1" /><use
         x="0"
         y="0"
         inkscape:tiled-clone-of="#path14625-1"
         xlink:href="#path14625-1"
         transform="translate(40.920873,204.60437)"
         id="use15778-6" /><use
         x="0"
         y="0"
         inkscape:tiled-clone-of="#path14625-1"
         xlink:href="#path14625-1"
         transform="translate(40.920873,245.52524)"
         id="use15779-8" /><use
         x="0"
         y="0"
         inkscape:tiled-clone-of="#path14625-1"
         xlink:href="#path14625-1"
         transform="translate(81.841746)"
         id="use15780-5" /><use
         x="0"
         y="0"
         inkscape:tiled-clone-of="#path14625-1"
         xlink:href="#path14625-1"
         transform="translate(81.841746,40.920873)"
         id="use15781-7" /><use
         x="0"
         y="0"
         inkscape:tiled-clone-of="#path14625-1"
         xlink:href="#path14625-1"
         transform="translate(81.841746,81.841746)"
         id="use15782-61" /><use
         x="0"
         y="0"
         inkscape:tiled-clone-of="#path14625-1"
         xlink:href="#path14625-1"
         transform="translate(81.841746,122.76262)"
         id="use15783-8" /><use
         x="0"
         y="0"
         inkscape:tiled-clone-of="#path14625-1"
         xlink:href="#path14625-1"
         transform="translate(81.841746,163.68349)"
         id="use15784-9" /><use
         x="0"
         y="0"
         inkscape:tiled-clone-of="#path14625-1"
         xlink:href="#path14625-1"
         transform="translate(81.841746,204.60437)"
         id="use15785-2" /><use
         x="0"
         y="0"
         inkscape:tiled-clone-of="#path14625-1"
         xlink:href="#path14625-1"
         transform="translate(81.841746,245.52524)"
         id="use15786-7" /><use
         x="0"
         y="0"
         inkscape:tiled-clone-of="#path14625-1"
         xlink:href="#path14625-1"
         transform="translate(122.76262)"
         id="use15787-9" /><use
         x="0"
         y="0"
         inkscape:tiled-clone-of="#path14625-1"
         xlink:href="#path14625-1"
         transform="translate(122.76262,40.920873)"
         id="use15788-5" /><use
         x="0"
         y="0"
         inkscape:tiled-clone-of="#path14625-1"
         xlink:href="#path14625-1"
         transform="translate(122.76262,81.841746)"
         id="use15789-4" /><use
         x="0"
         y="0"
         inkscape:tiled-clone-of="#path14625-1"
         xlink:href="#path14625-1"
         transform="translate(122.76262,122.76262)"
         id="use15790-3" /><use
         x="0"
         y="0"
         inkscape:tiled-clone-of="#path14625-1"
         xlink:href="#path14625-1"
         transform="translate(122.76262,163.68349)"
         id="use15791-1" /><use
         x="0"
         y="0"
         inkscape:tiled-clone-of="#path14625-1"
         xlink:href="#path14625-1"
         transform="translate(122.76262,204.60437)"
         id="use15792-2" /><use
         x="0"
         y="0"
         inkscape:tiled-clone-of="#path14625-1"
         xlink:href="#path14625-1"
         transform="translate(122.76262,245.52524)"
         id="use15793-3" /><use
         x="0"
         y="0"
         inkscape:tiled-clone-of="#path14625-1"
         xlink:href="#path14625-1"
         transform="translate(163.68349)"
         id="use15794-3" /><use
         x="0"
         y="0"
         inkscape:tiled-clone-of="#path14625-1"
         xlink:href="#path14625-1"
         transform="translate(163.68349,40.920873)"
         id="use15795-4" /><use
         x="0"
         y="0"
         inkscape:tiled-clone-of="#path14625-1"
         xlink:href="#path14625-1"
         transform="translate(163.68349,81.841746)"
         id="use15796-1" /><use
         x="0"
         y="0"
         inkscape:tiled-clone-of="#path14625-1"
         xlink:href="#path14625-1"
         transform="translate(163.68349,122.76262)"
         id="use15797-1" /><use
         x="0"
         y="0"
         inkscape:tiled-clone-of="#path14625-1"
         xlink:href="#path14625-1"
         transform="translate(163.68349,163.68349)"
         id="use15798-3" /><use
         x="0"
         y="0"
         inkscape:tiled-clone-of="#path14625-1"
         xlink:href="#path14625-1"
         transform="translate(163.68349,204.60437)"
         id="use15799-87" /><use
         x="0"
         y="0"
         inkscape:tiled-clone-of="#path14625-1"
         xlink:href="#path14625-1"
         transform="translate(163.68349,245.52524)"
         id="use15800-4" /><use
         x="0"
         y="0"
         inkscape:tiled-clone-of="#path14625-1"
         xlink:href="#path14625-1"
         transform="translate(204.60437)"
         id="use15801-2" /><use
         x="0"
         y="0"
         inkscape:tiled-clone-of="#path14625-1"
         xlink:href="#path14625-1"
         transform="translate(204.60437,40.920873)"
         id="use15802-7" /><use
         x="0"
         y="0"
         inkscape:tiled-clone-of="#path14625-1"
         xlink:href="#path14625-1"
         transform="translate(204.60437,81.841746)"
         id="use15803-7" /><use
         x="0"
         y="0"
         inkscape:tiled-clone-of="#path14625-1"
         xlink:href="#path14625-1"
         transform="translate(204.60437,122.76262)"
         id="use15804-9" /><use
         x="0"
         y="0"
         inkscape:tiled-clone-of="#path14625-1"
         xlink:href="#path14625-1"
         transform="translate(204.60437,163.68349)"
         id="use15805-3" /><use
         x="0"
         y="0"
         inkscape:tiled-clone-of="#path14625-1"
         xlink:href="#path14625-1"
         transform="translate(204.60437,204.60437)"
         id="use15806-1" /><use
         x="0"
         y="0"
         inkscape:tiled-clone-of="#path14625-1"
         xlink:href="#path14625-1"
         transform="translate(204.60437,245.52524)"
         id="use15807-9" /></g><g
       id="layer2-8"
       inkscape:label="Layer 2"><path
         style="fill:#000000;fill-opacity:1;stroke:none;stroke-width:0.7366;stroke-dasharray:none;paint-order:markers fill stroke"
         id="path14625-4-6"
         sodipodi:type="arc"
         sodipodi:cx="25.44342"
         sodipodi:cy="25.843681"
         sodipodi:rx="1.1430411"
         sodipodi:ry="1.1430411"
         sodipodi:start="0.027304543"
         sodipodi:end="6.2831853"
         sodipodi:open="true"
         sodipodi:arc-type="arc"
         d="m 26.586035,25.874888 a 1.1430411,1.1430411 0 0 1 -1.166021,1.111595 1.1430411,1.1430411 0 0 1 -1.119528,-1.158406 1.1430411,1.1430411 0 0 1 1.150737,-1.12741 1.1430411,1.1430411 0 0 1 1.135239,1.143014"
         inkscape:tile-cx="5.3542447"
         inkscape:tile-cy="5.3542447"
         inkscape:tile-w="2.2860823"
         inkscape:tile-h="2.2860823"
         inkscape:tile-x0="4.2112036"
         inkscape:tile-y0="4.2112036" /><use
         x="0"
         y="0"
         inkscape:tiled-clone-of="#path14625-4-6"
         xlink:href="#path14625-4-6"
         id="use15766-7-5" /><use
         x="0"
         y="0"
         inkscape:tiled-clone-of="#path14625-4-6"
         xlink:href="#path14625-4-6"
         transform="translate(-1.7930673e-7,40.920873)"
         id="use15767-6-0" /><use
         x="0"
         y="0"
         inkscape:tiled-clone-of="#path14625-4-6"
         xlink:href="#path14625-4-6"
         transform="translate(-1.7930673e-7,81.841745)"
         id="use15768-0-2" /><use
         x="0"
         y="0"
         inkscape:tiled-clone-of="#path14625-4-6"
         xlink:href="#path14625-4-6"
         transform="translate(-1.7930673e-7,122.76262)"
         id="use15769-1-8" /><use
         x="0"
         y="0"
         inkscape:tiled-clone-of="#path14625-4-6"
         xlink:href="#path14625-4-6"
         transform="translate(-1.7930673e-7,163.68349)"
         id="use15770-7-6" /><use
         x="0"
         y="0"
         inkscape:tiled-clone-of="#path14625-4-6"
         xlink:href="#path14625-4-6"
         transform="translate(-1.7930673e-7,204.60437)"
         id="use15771-3-0" /><use
         x="0"
         y="0"
         inkscape:tiled-clone-of="#path14625-4-6"
         xlink:href="#path14625-4-6"
         transform="translate(-1.7930673e-7,245.52524)"
         id="use15772-8-2" /><use
         x="0"
         y="0"
         inkscape:tiled-clone-of="#path14625-4-6"
         xlink:href="#path14625-4-6"
         transform="translate(40.920873)"
         id="use15773-7-4" /><use
         x="0"
         y="0"
         inkscape:tiled-clone-of="#path14625-4-6"
         xlink:href="#path14625-4-6"
         transform="translate(40.920873,40.920873)"
         id="use15774-4-8" /><use
         x="0"
         y="0"
         inkscape:tiled-clone-of="#path14625-4-6"
         xlink:href="#path14625-4-6"
         transform="translate(40.920873,81.841745)"
         id="use15775-0-6" /><use
         x="0"
         y="0"
         inkscape:tiled-clone-of="#path14625-4-6"
         xlink:href="#path14625-4-6"
         transform="translate(40.920873,122.76262)"
         id="use15776-5-5" /><use
         x="0"
         y="0"
         inkscape:tiled-clone-of="#path14625-4-6"
         xlink:href="#path14625-4-6"
         transform="translate(40.920873,163.68349)"
         id="use15777-5-0" /><use
         x="0"
         y="0"
         inkscape:tiled-clone-of="#path14625-4-6"
         xlink:href="#path14625-4-6"
         transform="translate(40.920873,204.60437)"
         id="use15778-0-9" /><use
         x="0"
         y="0"
         inkscape:tiled-clone-of="#path14625-4-6"
         xlink:href="#path14625-4-6"
         transform="translate(40.920873,245.52524)"
         id="use15779-0-0" /><use
         x="0"
         y="0"
         inkscape:tiled-clone-of="#path14625-4-6"
         xlink:href="#path14625-4-6"
         transform="translate(81.841746)"
         id="use15780-6-0" /><use
         x="0"
         y="0"
         inkscape:tiled-clone-of="#path14625-4-6"
         xlink:href="#path14625-4-6"
         transform="translate(81.841746,40.920873)"
         id="use15781-1-6" /><use
         x="0"
         y="0"
         inkscape:tiled-clone-of="#path14625-4-6"
         xlink:href="#path14625-4-6"
         transform="translate(81.841746,81.841745)"
         id="use15782-6-1" /><use
         x="0"
         y="0"
         inkscape:tiled-clone-of="#path14625-4-6"
         xlink:href="#path14625-4-6"
         transform="translate(81.841746,122.76262)"
         id="use15783-9-3" /><use
         x="0"
         y="0"
         inkscape:tiled-clone-of="#path14625-4-6"
         xlink:href="#path14625-4-6"
         transform="translate(81.841746,163.68349)"
         id="use15784-1-8" /><use
         x="0"
         y="0"
         inkscape:tiled-clone-of="#path14625-4-6"
         xlink:href="#path14625-4-6"
         transform="translate(81.841746,204.60437)"
         id="use15785-6-9" /><use
         x="0"
         y="0"
         inkscape:tiled-clone-of="#path14625-4-6"
         xlink:href="#path14625-4-6"
         transform="translate(81.841746,245.52524)"
         id="use15786-6-3" /><use
         x="0"
         y="0"
         inkscape:tiled-clone-of="#path14625-4-6"
         xlink:href="#path14625-4-6"
         transform="translate(122.76262)"
         id="use15787-1-4" /><use
         x="0"
         y="0"
         inkscape:tiled-clone-of="#path14625-4-6"
         xlink:href="#path14625-4-6"
         transform="translate(122.76262,40.920873)"
         id="use15788-1-4" /><use
         x="0"
         y="0"
         inkscape:tiled-clone-of="#path14625-4-6"
         xlink:href="#path14625-4-6"
         transform="translate(122.76262,81.841745)"
         id="use15789-6-6" /><use
         x="0"
         y="0"
         inkscape:tiled-clone-of="#path14625-4-6"
         xlink:href="#path14625-4-6"
         transform="translate(122.76262,122.76262)"
         id="use15790-7-0" /><use
         x="0"
         y="0"
         inkscape:tiled-clone-of="#path14625-4-6"
         xlink:href="#path14625-4-6"
         transform="translate(122.76262,163.68349)"
         id="use15791-3-6" /><use
         x="0"
         y="0"
         inkscape:tiled-clone-of="#path14625-4-6"
         xlink:href="#path14625-4-6"
         transform="translate(122.76262,204.60437)"
         id="use15792-7-6" /><use
         x="0"
         y="0"
         inkscape:tiled-clone-of="#path14625-4-6"
         xlink:href="#path14625-4-6"
         transform="translate(122.76262,245.52524)"
         id="use15793-7-1" /><use
         x="0"
         y="0"
         inkscape:tiled-clone-of="#path14625-4-6"
         xlink:href="#path14625-4-6"
         transform="translate(163.68349)"
         id="use15794-9-8" /><use
         x="0"
         y="0"
         inkscape:tiled-clone-of="#path14625-4-6"
         xlink:href="#path14625-4-6"
         transform="translate(163.68349,40.920873)"
         id="use15795-0-4" /><use
         x="0"
         y="0"
         inkscape:tiled-clone-of="#path14625-4-6"
         xlink:href="#path14625-4-6"
         transform="translate(163.68349,81.841745)"
         id="use15796-2-9" /><use
         x="0"
         y="0"
         inkscape:tiled-clone-of="#path14625-4-6"
         xlink:href="#path14625-4-6"
         transform="translate(163.68349,122.76262)"
         id="use15797-7-6" /><use
         x="0"
         y="0"
         inkscape:tiled-clone-of="#path14625-4-6"
         xlink:href="#path14625-4-6"
         transform="translate(163.68349,163.68349)"
         id="use15798-0-3" /><use
         x="0"
         y="0"
         inkscape:tiled-clone-of="#path14625-4-6"
         xlink:href="#path14625-4-6"
         transform="translate(163.68349,204.60437)"
         id="use15799-8-7" /><use
         x="0"
         y="0"
         inkscape:tiled-clone-of="#path14625-4-6"
         xlink:href="#path14625-4-6"
         transform="translate(163.68349,245.52524)"
         id="use15800-5-8" /></g></g></svg>
