<?xml version="1.0" encoding="UTF-8" standalone="no"?>
<!-- Created with Inkscape (http://www.inkscape.org/) -->

<svg
   width="63mm"
   height="88mm"
   viewBox="0 0 63 88"
   version="1.1"
   id="svg1"
   inkscape:version="1.3.2 (091e20e, 2023-11-25, custom)"
   xml:space="preserve"
   sodipodi:docname="card-hitlocation.svg"
   xmlns:inkscape="http://www.inkscape.org/namespaces/inkscape"
   xmlns:sodipodi="http://sodipodi.sourceforge.net/DTD/sodipodi-0.dtd"
   xmlns="http://www.w3.org/2000/svg"
   xmlns:svg="http://www.w3.org/2000/svg"><sodipodi:namedview
     id="namedview1"
     pagecolor="#ffffff"
     bordercolor="#000000"
     borderopacity="0.25"
     inkscape:showpageshadow="2"
     inkscape:pageopacity="0.0"
     inkscape:pagecheckerboard="0"
     inkscape:deskcolor="#d1d1d1"
     inkscape:document-units="mm"
     inkscape:zoom="2.0686841"
     inkscape:cx="124.47526"
     inkscape:cy="146.22822"
     inkscape:window-width="1920"
     inkscape:window-height="1017"
     inkscape:window-x="-8"
     inkscape:window-y="-8"
     inkscape:window-maximized="1"
     inkscape:current-layer="g1" /><defs
     id="defs1" /><g
     inkscape:label="Layer 1"
     inkscape:groupmode="layer"
     id="layer1"><g
       id="g1"
       transform="matrix(0.06087197,0,0,0.06087197,0.03359486,0.54402301)"><path
         d="m 521.88556,837.2424 -1.02585,-15.00736 -20.29422,-0.0884 c -1.16433,28.21869 -6.09754,54.85333 -12.00759,82.40517 l -23.02236,87.57912 -12.70213,37.23397 c -3.25543,9.4989 -6.78676,19.7722 -8.05229,29.7644 -1.11319,8.7937 -10e-4,17.859 0.74462,26.6261 1.74702,20.5701 5.01843,41.9285 2.55235,62.5306 -2.922,24.3944 -13.62678,47.0418 -19.55281,70.7651 -4.36649,17.4809 -7.77851,35.6116 -8.54017,53.6571 -0.41971,9.9495 0.46445,20.0907 -0.30679,29.9976 -0.68816,8.831 -3.94891,17.4703 -4.37076,26.1201 -0.30146,6.1998 1.55848,12.6127 2.83572,18.6208 3.18193,14.9881 8.67227,35.6115 4.71696,50.7275 -1.2048,4.6126 -3.55263,8.9589 -7.85201,11.3557 -8.52952,4.751 -53.84347,4.3249 -63.90696,1.1611 -2.62693,-0.8309 -5.04826,-1.6831 -6.18915,-4.3675 -0.99921,-2.3436 -0.80214,-5.4755 -0.63809,-7.9682 0.82451,-12.4635 7.03496,-21.0069 12.21851,-31.7127 5.46051,-11.2704 11.69014,-22.7965 16.35064,-34.3972 2.32546,-5.7843 3.94039,-12.0587 4.33454,-18.2905 0.58163,-9.1825 -0.27803,-18.8124 -0.71905,-28.0162 -1.36353,-28.4105 -4.3846,-55.7343 -10.79,-83.495 -4.54971,-19.7179 -11.33221,-39.4891 -12.78629,-59.7609 -1.85035,-25.758 6.14973,-53.5505 14.73998,-77.5828 2.98378,-8.3463 7.84775,-16.6617 8.46667,-25.6066 1.19202,-17.2327 -3.53773,-33.9008 -6.32018,-50.70952 l -6.68449,-52.6248 c -1.34116,-16.43267 -1.30388,-33.35962 -0.89908,-49.83916 0.45167,-18.3757 1.38803,-36.64062 4.58061,-54.77344 5.20272,-29.54067 14.8678,-59.29652 25.11452,-87.45448 l 14.19882,-35.75113 c 1.6405,-3.89777 4.25997,-7.8648 5.47223,-11.83288 2.2232,-7.27039 1.93877,-17.99647 2.20722,-25.63543 1.159,-33.07094 0.51345,-70.54671 -17.06224,-99.68578 -6.71325,-11.12875 -16.16955,-19.63377 -23.94806,-29.8954 -4.95132,-6.53323 -8.37506,-13.71626 -12.04701,-21.01221 -7.7636,15.47713 -15.86914,29.37875 -26.33637,43.21325 -6.68449,8.83525 -16.86516,16.92802 -21.37227,26.9489 -9.48612,21.08998 -3.58992,44.95708 -9.76522,67.1251 -7.22138,25.92518 -22.75391,47.87269 -32.48291,72.65698 -6.3809,16.25371 -10.94659,36.11758 -1.69163,52.32228 3.23306,5.66078 7.83391,10.0816 10.42035,16.21536 3.88713,9.2198 5.74068,40.62681 2.01867,49.75074 -1.90895,1.14835 -2.01654,1.08976 -4.10338,0.88842 -7.82112,-5.19952 -5.06423,-17.92616 -9.04084,-25.66312 -1.34968,-2.62693 -3.37261,-5.06105 -6.2552,-5.96012 l -1.6096,1.21333 c -5.27409,15.08618 1.27298,31.71699 9.41581,44.53737 2.04317,3.21601 5.86745,7.44402 6.94442,11.01476 0.54648,1.80881 0.54222,1.89616 -0.38882,3.53027 -1.09082,0.37817 -1.80454,0.50387 -2.97207,0.34727 -12.88003,-1.72145 -28.24105,-12.62863 -36.19533,-22.64099 -7.42379,-9.34444 -11.23634,-21.53099 -11.12769,-33.45336 0.11079,-12.18549 2.90496,-23.9257 2.15821,-36.27949 l -2.9678,-30.7785 c -2.30203,-30.81791 -3.40776,-61.39508 -1.08657,-92.25667 1.37632,-18.29048 3.67621,-36.88988 9.14524,-54.45812 2.9252,-9.39664 6.80913,-18.23934 11.82756,-26.70708 2.60988,-4.40484 7.36306,-9.16015 8.80116,-14.00495 2.4714,-8.32605 3.38752,-17.45531 4.76384,-26.02318 1.85994,-11.5719 4.24931,-23.03834 8.05335,-34.14046 4.35371,-12.70533 10.38307,-24.88229 17.62256,-36.19 2.44051,-3.81256 7.52605,-8.82141 9.0973,-12.76286 0.54861,-1.37738 0.35367,-4.74253 0.47404,-6.31911 l 1.45088,-17.17515 c 1.19629,-9.70451 2.98592,-19.82233 6.61632,-28.93241 9.26988,-23.26097 29.23494,-41.07422 53.22455,-48.02609 3.93187,-1.13983 8.02565,-2.01014 12.10666,-2.38618 2.98911,-0.2759 8.60941,0.49961 11.17349,-0.54435 2.269,-0.92358 5.00032,-3.43652 7.04561,-4.88101 4.3878,-3.09883 8.81395,-6.1018 13.49256,-8.75003 22.66976,-12.83316 46.6583,-21.20715 67.36159,-37.44382 1.3369,-2.69723 -0.20772,-44.55121 -0.99602,-49.38749 -1.24422,-0.57417 -2.48631,-1.29641 -3.49724,-2.23065 -6.40752,-5.92603 -7.46959,-16.91736 -9.05043,-25.03569 -0.90653,-4.65305 -2.15502,-9.1772 -2.13052,-13.95914 0.0117,-2.27113 0.85221,-5.64161 2.99977,-6.87304 1.40188,-0.80427 1.85355,-0.0671 3.29058,-1.49989 -2.39896,-19.04148 -1.1068,-48.55446 10.93488,-64.03052 9.80889,-12.60733 23.98428,-18.50566 39.45396,-20.37732 2.25621,-0.22797 4.60511,-0.11931 6.86771,-0.017 14.46301,0.64981 29.14227,7.24908 38.79883,18.14241 15.21614,17.16557 14.79004,44.29449 13.57884,65.90964 1.02265,1.09083 2.27539,1.93558 3.46955,2.8272 1.53823,2.38724 1.35394,4.97262 1.24422,7.69968 -0.18855,4.73081 -1.34116,9.47973 -2.32333,14.10402 -2.00694,9.45416 -3.51428,18.03268 -11.09359,24.80346 l -0.62851,0.55394 c -1.65008,4.34945 -0.69561,12.67337 -0.78296,17.44892 l -1.03437,32.15375 c 11.81798,9.99319 25.34143,16.48167 39.09071,23.32489 l 31.81926,16.72775 c 4.72335,2.64823 9.20382,5.72043 13.72797,8.6893 1.7172,1.12705 3.93294,3.06475 5.78649,3.83174 2.51081,1.03756 9.1218,0.53795 12.09707,0.77764 15.60283,1.25167 31.26958,9.12926 42.32163,20.06093 19.56453,19.35468 27.26421,48.04527 27.26208,74.86953 0,1.55847 -0.0682,3.15529 0.59335,4.61044 2.09643,4.61576 5.95799,9.08878 8.54124,13.57245 6.08156,10.55884 11.35565,21.95497 15.58366,33.3756 4.96943,13.42757 7.72099,27.75423 9.23259,41.95838 l 0.95554,13.95701 c 0.0714,1.26659 -0.14488,3.96063 0.27909,5.07702 0.49428,1.30068 2.29883,3.20003 3.17447,4.43999 l 7.2853,10.72715 c 7.00301,10.97535 12.51572,23.43461 16.49978,35.79906 13.59163,42.18635 10.3362,86.65874 6.5311,130.12552 l -3.42374,42.73176 c -0.28656,8.51035 0.16405,16.85025 0.91825,25.32331 0.51346,5.77583 1.68098,12.38895 0.89056,18.14561 l -0.15766,1.06845 c -0.69455,4.9428 -2.09856,10.18493 -4.54013,14.56101 -8.37399,15.0031 -29.74946,26.6698 -46.0053,31.44109 -2.36167,-0.58163 -2.4959,-0.85753 -4.07993,-2.74091 0.002,-0.89481 -0.2269,-2.55129 0.009,-3.35663 1.40188,-4.79046 8.62433,-10.21049 11.59427,-14.4662 3.32573,-4.76596 6.36065,-11.3418 8.16946,-16.83747 2.76221,-8.39316 2.56834,-18.33096 -1.51586,-26.37472 -1.42745,-0.10652 -1.52332,-0.1747 -2.69191,0.69562 -7.58996,5.65651 -8.26534,20.30594 -9.5543,29.05384 -2.0144,2.40216 -5.1942,4.49645 -8.27173,5.08661 l -1.7875,-1.77153 c -0.94382,-3.87327 -0.0117,-8.23231 0.27164,-12.18548 l 2.57473,-23.56883 c 0.77018,-5.94095 1.27298,-12.17484 4.04478,-17.59061 3.54731,-6.93483 10.15404,-12.60413 13.19003,-19.77332 0.30892,-0.72863 0.52624,-1.46473 0.72544,-2.22958 6.52364,-25.01333 -15.22893,-60.10825 -25.1859,-82.23472 -4.52095,-10.04432 -8.57426,-20.84391 -11.16496,-31.53697 -2.32972,-9.61608 -4.38354,-19.60607 -5.60752,-29.42562 l -2.02399,-23.40158 c -0.23329,-3.22028 0.0341,-7.72952 -1.16007,-10.72715 -1.50947,-3.79125 -5.24426,-7.81473 -7.6624,-11.10958 l -13.83237,-19.54322 c -10.71756,-15.71149 -19.13204,-32.28477 -26.0658,-49.95421 -1.65115,1.4168 -2.63865,4.80219 -3.69325,6.80594 -2.25302,4.2802 -4.95984,8.51673 -7.7391,12.46991 -7.50155,10.67282 -16.72029,19.56665 -24.67457,29.79952 -14.40655,18.53443 -18.36185,42.81272 -19.41859,65.65185 -1.08656,23.49001 0.87032,47.55418 6.58543,70.40929 6.10392,24.41252 15.77008,47.81624 23.63274,71.67802 21.98054,66.71071 29.10924,135.54662 16.40391,204.79797 l -8.93751,42.8724 c -1.19522,7.0819 -2.56301,15.1224 -1.7172,22.3119 0.30254,2.5683 1.91747,5.5265 2.95503,7.9383 l 6.39794,14.8358 c 10.82408,25.5534 18.63562,53.346 16.64998,81.3197 -1.33157,18.7698 -9.55323,37.3266 -14.18817,55.4893 -6.46612,25.3531 -8.63605,52.7941 -9.64378,78.8717 -0.41119,10.6312 -1.12811,21.7206 -0.34408,32.3199 1.18244,15.9789 8.86721,33.8432 16.4561,47.9259 6.28077,11.6433 13.96128,22.0402 15.57408,35.6223 0.41332,3.494 0.55713,8.2877 -1.88977,11.068 -2.22213,2.5247 -6.54708,3.9628 -9.8057,4.293 -10.45657,1.0759 -21.53632,0.5433 -32.05361,0.3835 -7.21926,-0.1172 -15.40576,0.245 -22.43221,-1.3422 -2.78245,-0.6286 -5.53188,-1.6619 -7.68051,-3.59 -2.53851,-2.269 -4.04052,-5.3795 -4.87675,-8.6286 -1.08123,-4.2077 -0.84581,-8.7138 -0.71798,-13.0174 0.38882,-13.0707 3.55157,-26.461 6.2733,-39.2122 1.32625,-6.2211 3.53986,-13.6459 2.53958,-19.9416 -1.14196,-7.1905 -3.28526,-14.2425 -3.95424,-21.5288 -0.94062,-10.2372 -0.0682,-20.8471 -0.40799,-31.1482 -0.41439,-12.5807 -2.64504,-24.9803 -5.1665,-37.2734 -6.33083,-30.8818 -21.44791,-59.5692 -24.57231,-90.941 -1.65435,-16.6287 0.2759,-33.7155 2.1156,-50.2483 1.50521,-13.5287 3.69112,-27.3984 1.05887,-40.9069 -4.18753,-21.4948 -13.94423,-41.8753 -20.43271,-62.75869 -15.54318,-50.02878 -28.99633,-102.60778 -34.46962,-154.78624 z"
         id="path2"
         sodipodi:nodetypes="cccccccccssccccccccccccsccccccccccccccccccsccccccccccsccccscsccccccccccscccccsccccccccccccccccscccscccccccccccccccccccccccccccccccscccccccccccccccccccccccsccscccccccccsccc"
         style="fill:none;stroke:#000000;stroke-width:6.31749;stroke-dasharray:none;stroke-opacity:1" /></g></g></svg>
