<?xml version="1.0" encoding="UTF-8" standalone="no"?>
<!-- Created with Inkscape (http://www.inkscape.org/) -->

<svg
   width="63mm"
   height="88mm"
   viewBox="0 0 63 88"
   version="1.1"
   id="svg1"
   inkscape:version="1.4 (86a8ad7, 2024-10-11)"
   sodipodi:docname="rule-item-clothes-wool.svg"
   xml:space="preserve"
   xmlns:inkscape="http://www.inkscape.org/namespaces/inkscape"
   xmlns:sodipodi="http://sodipodi.sourceforge.net/DTD/sodipodi-0.dtd"
   xmlns:xlink="http://www.w3.org/1999/xlink"
   xmlns="http://www.w3.org/2000/svg"
   xmlns:svg="http://www.w3.org/2000/svg"><sodipodi:namedview
     id="namedview1"
     pagecolor="#ffffff"
     bordercolor="#000000"
     borderopacity="0.25"
     inkscape:showpageshadow="2"
     inkscape:pageopacity="0.0"
     inkscape:pagecheckerboard="0"
     inkscape:deskcolor="#d1d1d1"
     inkscape:document-units="mm"
     inkscape:zoom="2.4684422"
     inkscape:cx="101.68356"
     inkscape:cy="166.50177"
     inkscape:window-width="1617"
     inkscape:window-height="1008"
     inkscape:window-x="130"
     inkscape:window-y="0"
     inkscape:window-maximized="0"
     inkscape:current-layer="g3" /><defs
     id="defs1"><radialGradient
       inkscape:collect="always"
       xlink:href="#linearGradient1"
       id="radialGradient2"
       cx="58.925697"
       cy="3.3495736"
       fx="58.925697"
       fy="3.3495736"
       r="3.7013359"
       gradientTransform="matrix(1.707443,0,0,0.89394564,-44.199046,-0.16694138)"
       gradientUnits="userSpaceOnUse" /><linearGradient
       id="linearGradient1"
       inkscape:collect="always"><stop
         style="stop-color:#e6da46;stop-opacity:1;"
         offset="0.52019387"
         id="stop1" /><stop
         style="stop-color:#e1d55f;stop-opacity:0;"
         offset="1"
         id="stop2" /></linearGradient><linearGradient
       id="gradient_0"
       gradientUnits="userSpaceOnUse"
       x1="655.57092"
       y1="304.57126"
       x2="812.69318"
       y2="268.40381"
       gradientTransform="matrix(-0.04969211,0.26737138,-0.26737138,-0.04969211,283.42828,58.888855)"><stop
         offset="0"
         stop-color="#AF6538"
         id="stop19" /><stop
         offset="1"
         stop-color="#C57B53"
         id="stop20" /></linearGradient></defs><g
     id="g3"
     inkscape:label="item"><g
       inkscape:label="item"
       inkscape:groupmode="layer"
       id="layer1"><g
         id="body"
         transform="matrix(0.03392854,0,0,0.03392854,5.5728898,11.788504)"
         inkscape:label="body"><path
           fill="#37b2df"
           d="m 858.77252,-88.874237 c 8.05919,0.366653 9.80694,-0.08878 17.67714,0.09396 0.26718,2.601107 0.36797,5.158622 1.02178,7.708938 0.24077,0.939514 0.54382,1.958888 1.09963,2.763618 l 17.68142,5.008774 4.42588,1.155764 c 2.13409,0.515821 4.21724,0.946583 6.14227,2.061563 2.41687,1.399742 4.32243,3.620751 5.59125,6.086402 1.9545,3.798209 1.97303,8.14557 2.59618,12.286147 l -12.19989,5.556583 -1.57013,0.749401 c -0.32557,0.139995 -0.70594,0.242649 -1.00124,0.432763 l -0.65528,3.991389 -1.45801,6.20533 -2.63658,8.949904 -3.54382,10.549893 c -2.18528,7.2842982 -2.76843,15.05296047 -1.35162,22.5416518 0.96966,5.1248892 2.85923,10.0111322 4.43135,14.9667092 -0.14811,0.215977 -0.62046,0.398637 -0.86218,0.522618 -1.2223,0.623954 -2.49606,1.139906 -3.79461,1.582533 -7.81,2.661102 -15.79478,3.583689 -24.01833,3.427707 -8.98536,-0.170654 -17.97539,-1.663856 -26.09882,-5.655505 0.54782,-1.058582 0.97098,-2.231814 1.38721,-3.350392 l 2.07929,-6.308785 c 0.99152,-3.3530497 1.83704,-6.7660763 2.14608,-10.2577779 0.96526,-10.9057258 -3.64967,-21.1268431 -7.05592,-31.1893141 -1.45134,-4.28697 -2.54991,-8.793513 -3.5297,-13.209936 l -0.40009,-2.626702 c -1.83278,-0.661942 -3.6197,-1.727047 -5.37714,-2.577375 l -9.23961,-4.474149 0.77153,-5.713247 c 0.94046,-5.590978 3.4841,-10.821994 8.97458,-13.114728 2.4735,-1.032985 5.31447,-1.59213 7.9069,-2.277141 l 12.47386,-3.518901 3.68929,-1.100972 c 0.88618,-0.266774 1.93916,-0.49702 2.69297,-1.032976 1.60546,-3.096398 1.90556,-6.799682 2.00436,-10.233787 z"
           id="path5"
           sodipodi:nodetypes="ccccccccccccccccccccccccscccccccccccc"
           style="fill:none;stroke:#000000;stroke-width:2.32377;stroke-dasharray:none;stroke-opacity:1" /><path
           fill="#26A4D4"
           d="m 867.70966,-21.526539 0.0692,0.05849 0.0487,37.972961 -0.0896,0.179632 c -0.1345,-1.02215 -0.0982,-2.124484 -0.12584,-3.157324 l -0.15931,-4.1142518 -0.26462,-12.4165133 0.24398,-9.7915479 0.16369,-6.583755 c 0.0328,-0.718174 -0.0168,-1.437105 0.11377,-2.147687 z"
           id="path6"
           style="fill:#6f838b;fill-opacity:1;stroke-width:0.106919" /><path
           fill="#26A4D4"
           d="m 900.16368,-52.849167 c -0.16014,1.305391 -0.49197,2.611573 -0.8076,3.887091 -0.32743,1.323319 -0.67187,2.711689 -1.20778,3.968086 -0.43607,1.021901 -1.06545,2.009275 -1.62115,2.972215 -1.70919,2.961593 -3.43378,5.771282 -5.93182,8.149553 -3.34892,3.188391 -7.50078,4.757486 -12.11817,4.651391 l -0.074,-0.0434 -0.017,-0.08417 0.88526,-0.242326 c 4.91789,-1.318533 9.18527,-4.397642 12.30885,-8.388439 2.21588,-2.831067 3.94406,-6.055168 5.61845,-9.225094 z"
           id="path7"
           style="fill:#768084;fill-opacity:1;stroke-width:0.132784" /><path
           fill="#26A4D4"
           d="m 833.56749,-54.187229 c 0.28451,0.337309 0.44595,1.094043 0.61155,1.516942 l 1.26176,3.0192 c 0.89871,2.009433 1.83836,4.004057 2.93267,5.915762 3.23453,5.650045 7.62335,11.484738 14.05746,13.632694 0.95738,0.319574 2.01729,0.602478 3.0172,0.742604 0.8618,0.120655 1.74185,0.141052 2.58378,0.369429 l -1.33948,0.09772 c -5.0137,0.234645 -10.03047,-1.571867 -13.74042,-4.94091 -3.5001,-3.178391 -5.6959,-7.360169 -7.35617,-11.726188 -1.03044,-2.710168 -1.8937,-5.718173 -2.02835,-8.627261 z"
           id="path8"
           style="fill:#6c858e;fill-opacity:1;stroke-width:0.133322" /><text
           xml:space="preserve"
           style="font-style:normal;font-variant:normal;font-weight:normal;font-stretch:normal;font-size:134.119px;font-family:Amiri;-inkscape-font-specification:'Amiri, Normal';font-variant-ligatures:normal;font-variant-caps:normal;font-variant-numeric:normal;font-variant-east-asian:normal;fill:#000000;fill-opacity:1;stroke:none;stroke-width:0.243793;stroke-dasharray:none;stroke-opacity:1;paint-order:markers fill stroke"
           x="927.79181"
           y="7.6085768"
           id="text1"><tspan
             sodipodi:role="line"
             id="tspan1"
             style="font-style:normal;font-variant:normal;font-weight:normal;font-stretch:normal;font-size:134.119px;font-family:Amiri;-inkscape-font-specification:'Amiri, Normal';font-variant-ligatures:normal;font-variant-caps:normal;font-variant-numeric:normal;font-variant-east-asian:normal;fill:#000000;fill-opacity:1;stroke:none;stroke-width:0.243796"
             x="927.79181"
             y="7.6085768">Body</tspan></text><path
           id="rect1"
           d="m 858.03424,-30.987439 h 19.44948 l -5.81424,1.436759 -0.54423,14.049122 -7.8546,-0.07168 -0.0919,-13.977373 z"
           sodipodi:nodetypes="ccccccc"
           style="stroke-width:2.8009" /><path
           style="fill:#000000;fill-opacity:1;stroke-width:2.32949"
           id="path2-6-0"
           sodipodi:type="arc"
           sodipodi:cx="867.41406"
           sodipodi:cy="-57.452061"
           sodipodi:rx="9.4654808"
           sodipodi:ry="9.4654808"
           sodipodi:start="0.027304543"
           sodipodi:end="6.2831853"
           sodipodi:open="true"
           sodipodi:arc-type="arc"
           d="m 876.87602,-57.193642 a 9.4654808,9.4654808 0 0 1 -9.65578,9.205077 9.4654808,9.4654808 0 0 1 -9.27078,-9.592717 9.4654808,9.4654808 0 0 1 9.52921,-9.336039 9.4654808,9.4654808 0 0 1 9.40087,9.46526" /><path
           style="fill:#000000;fill-opacity:1;stroke-width:2.32949"
           id="path2-6-0-7"
           sodipodi:type="arc"
           sodipodi:cx="858.04773"
           sodipodi:cy="-40.737667"
           sodipodi:rx="9.4654808"
           sodipodi:ry="9.4654808"
           sodipodi:start="0.027304543"
           sodipodi:end="6.2831853"
           sodipodi:open="true"
           sodipodi:arc-type="arc"
           d="m 867.50968,-40.479249 a 9.4654808,9.4654808 0 0 1 -9.65577,9.205078 9.4654808,9.4654808 0 0 1 -9.27078,-9.592717 9.4654808,9.4654808 0 0 1 9.52921,-9.336039 9.4654808,9.4654808 0 0 1 9.40087,9.46526" /><path
           style="fill:#000000;fill-opacity:1;stroke-width:2.32949"
           id="path2-6-0-9"
           sodipodi:type="arc"
           sodipodi:cx="876.98291"
           sodipodi:cy="-40.737667"
           sodipodi:rx="9.4654808"
           sodipodi:ry="9.4654808"
           sodipodi:start="0.027304543"
           sodipodi:end="6.2831853"
           sodipodi:open="true"
           sodipodi:arc-type="arc"
           d="m 886.44486,-40.479249 a 9.4654808,9.4654808 0 0 1 -9.65577,9.205078 9.4654808,9.4654808 0 0 1 -9.27078,-9.592717 9.4654808,9.4654808 0 0 1 9.52921,-9.336039 9.4654808,9.4654808 0 0 1 9.40087,9.46526" /><path
           sodipodi:type="star"
           style="fill:#000000"
           id="path1"
           inkscape:flatsided="false"
           sodipodi:sides="3"
           sodipodi:cx="-4.2679658"
           sodipodi:cy="5.2618756"
           sodipodi:r1="0.76004869"
           sodipodi:r2="0.33594152"
           sodipodi:arg1="1.5707963"
           sodipodi:arg2="2.6179939"
           inkscape:rounded="0"
           inkscape:randomized="0"
           d="m -4.2679658,6.0219243 -0.2909339,-0.5920779 -0.3672876,-0.5479951 0.6582215,0.044083 0.6582215,-0.044083 -0.3672876,0.5479951 z"
           inkscape:transform-center-y="0.23284431"
           transform="matrix(5.0202848,0,0,5.0202848,888.71436,-103.93239)" /><path
           sodipodi:type="star"
           style="fill:#000000"
           id="path1-7"
           inkscape:flatsided="false"
           sodipodi:sides="3"
           sodipodi:cx="-4.2679658"
           sodipodi:cy="5.2618756"
           sodipodi:r1="0.76004869"
           sodipodi:r2="0.33594152"
           sodipodi:arg1="1.5707963"
           sodipodi:arg2="2.6179939"
           inkscape:rounded="0"
           inkscape:randomized="0"
           d="m -4.2679658,6.0219243 -0.2909339,-0.5920779 -0.3672876,-0.5479951 0.6582215,0.044083 0.6582215,-0.044083 -0.3672876,0.5479951 z"
           inkscape:transform-center-y="-0.21929518"
           transform="matrix(2.3640855,4.4288099,-4.4288099,2.3640855,900.34165,-62.707035)"
           inkscape:transform-center-x="0.015494775" /><path
           sodipodi:type="star"
           style="fill:#000000"
           id="path1-9"
           inkscape:flatsided="false"
           sodipodi:sides="3"
           sodipodi:cx="-4.2679658"
           sodipodi:cy="5.2618756"
           sodipodi:r1="0.76004869"
           sodipodi:r2="0.33594152"
           sodipodi:arg1="1.5707963"
           sodipodi:arg2="2.6179939"
           inkscape:rounded="0"
           inkscape:randomized="0"
           d="m -4.2679658,6.0219243 -0.2909339,-0.5920779 -0.3672876,-0.5479951 0.6582215,0.044083 0.6582215,-0.044083 -0.3672876,0.5479951 z"
           inkscape:transform-center-y="0.0053040322"
           transform="matrix(-0.05717095,-5.0199598,5.0199598,-0.05717095,836.76742,-94.402881)"
           inkscape:transform-center-x="-0.22823685" /><path
           sodipodi:type="star"
           style="fill:#000000"
           id="path1-5"
           inkscape:flatsided="false"
           sodipodi:sides="3"
           sodipodi:cx="-4.2679658"
           sodipodi:cy="5.2618756"
           sodipodi:r1="0.76004869"
           sodipodi:r2="0.33594152"
           sodipodi:arg1="1.5707963"
           sodipodi:arg2="2.6179939"
           inkscape:rounded="0"
           inkscape:randomized="0"
           d="m -4.2679658,6.0219243 -0.2909339,-0.5920779 -0.3672876,-0.5479951 0.6582215,0.044083 0.6582215,-0.044083 -0.3672876,0.5479951 z"
           inkscape:transform-center-y="0.027302655"
           transform="matrix(-0.29432621,5.0116498,-5.0116498,-0.29432621,895.87813,-50.016353)"
           inkscape:transform-center-x="0.20880535" /></g><path
         style="fill:#000000;fill-opacity:1;stroke:#000000;stroke-width:0.00572897;stroke-linecap:round;stroke-miterlimit:0"
         id="path9"
         sodipodi:type="arc"
         sodipodi:cx="31.084013"
         sodipodi:cy="26.367844"
         sodipodi:rx="0.10866871"
         sodipodi:ry="17.151642"
         sodipodi:start="0.027304543"
         sodipodi:end="5.1136159"
         sodipodi:open="true"
         sodipodi:arc-type="arc"
         d="m 31.192641,26.836103 a 0.10866871,17.151642 0 0 1 -0.07944,16.053208 0.10866871,17.151642 0 0 1 -0.120608,-7.249545 0.10866871,17.151642 0 0 1 0.0083,-20.327155 0.10866871,17.151642 0 0 1 0.125523,-4.734269" /><path
         style="fill:#000000;fill-opacity:1;stroke:#000000;stroke-width:0.00572897;stroke-linecap:round;stroke-miterlimit:0"
         id="path9-4"
         sodipodi:type="arc"
         sodipodi:cx="-47.854034"
         sodipodi:cy="30.88131"
         sodipodi:rx="0.10866871"
         sodipodi:ry="17.151642"
         sodipodi:start="0.027304543"
         sodipodi:end="5.1136159"
         sodipodi:open="true"
         sodipodi:arc-type="arc"
         d="m -47.745406,31.349569 a 0.10866871,17.151642 0 0 1 -0.07944,16.053207 0.10866871,17.151642 0 0 1 -0.120607,-7.249544 0.10866871,17.151642 0 0 1 0.0083,-20.327155 0.10866871,17.151642 0 0 1 0.125524,-4.734269"
         transform="rotate(-90)" /><rect
         style="fill:url(#radialGradient2);fill-opacity:1;stroke:none;stroke-width:0.162987;stroke-linecap:round;stroke-miterlimit:0;stroke-dasharray:none;stroke-opacity:1"
         id="rect10"
         width="12.439079"
         height="6.4851332"
         x="50.193684"
         y="-0.41517097" /><text
         xml:space="preserve"
         style="font-style:normal;font-variant:normal;font-weight:normal;font-stretch:normal;font-size:4.23333px;font-family:Caladea;-inkscape-font-specification:'Caladea, Normal';font-variant-ligatures:normal;font-variant-caps:normal;font-variant-numeric:normal;font-variant-east-asian:normal;text-align:start;writing-mode:lr-tb;direction:ltr;text-anchor:start;fill:#000000;fill-opacity:1;stroke-width:0.264583"
         x="53.347073"
         y="4.4512143"
         id="text3-3"><tspan
           sodipodi:role="line"
           id="tspan15"
           x="53.347073"
           y="4.4512143">1x0</tspan></text><rect
         style="opacity:0.5;fill:none;fill-opacity:1;stroke:#000000;stroke-width:0.341035;stroke-dasharray:none"
         id="rect16"
         width="62.658962"
         height="87.658966"
         x="0.1705175"
         y="0.1705175"
         rx="0.14405258"
         ry="0.14209248" /></g><text
       xml:space="preserve"
       style="font-style:normal;font-variant:normal;font-weight:normal;font-stretch:normal;font-size:2.82222px;font-family:Caladea;-inkscape-font-specification:'Caladea, Normal';font-variant-ligatures:normal;font-variant-caps:normal;font-variant-numeric:normal;font-variant-east-asian:normal;text-align:start;writing-mode:lr-tb;direction:ltr;text-anchor:start;fill:#000000;fill-opacity:1;stroke-width:0.264583"
       x="22.8216"
       y="4.8940873"
       id="text6"
       inkscape:label="titles"><tspan
         sodipodi:role="line"
         id="tspan8"
         x="22.8216"
         y="4.8940873">Clothes: Wool</tspan></text><text
       xml:space="preserve"
       style="font-style:normal;font-variant:normal;font-weight:normal;font-stretch:normal;font-size:1.94028px;font-family:Caladea;-inkscape-font-specification:'Caladea, Normal';font-variant-ligatures:normal;font-variant-caps:normal;font-variant-numeric:normal;font-variant-east-asian:normal;text-align:start;writing-mode:lr-tb;direction:ltr;text-anchor:start;fill:#000000;fill-opacity:1;stroke-width:0.264583"
       x="33.768822"
       y="14.912853"
       id="text6-7"><tspan
         sodipodi:role="line"
         id="tspan9">mass:3kg/7lb</tspan></text><text
       xml:space="preserve"
       style="font-style:normal;font-variant:normal;font-weight:normal;font-stretch:normal;font-size:4.23333px;font-family:Caladea;-inkscape-font-specification:'Caladea, Normal';font-variant-ligatures:normal;font-variant-caps:normal;font-variant-numeric:normal;font-variant-east-asian:normal;text-align:start;writing-mode:lr-tb;direction:ltr;text-anchor:start;fill:#000000;fill-opacity:1;stroke-width:0.264583"
       x="50.245846"
       y="12.100981"
       id="text3"><tspan
         sodipodi:role="line"
         id="tspan10">3x0</tspan></text><g
       id="g4"
       transform="matrix(0.82573143,0,0,0.82573143,3.0524214,8.9588799)"><path
         fill="#495c57"
         transform="scale(0.0332031,0.0336996)"
         d="m 381.055,540.051 127.774,-0.083 c 1.515,6.11 0.972,25.852 0.387,33.097 l 2.055,0.007 0.04,98.608 c 0.011,8.088 1.212,36.4 -0.587,42.294 -5.888,31.425 -10.173,63.184 -16.119,94.61 -6.583,34.797 -15.291,69.366 -23.893,103.707 -6.788,27.099 -13.005,54.462 -21.202,81.178 -9.015,29.381 -20.688,57.361 -33.67,85.191 -13.843,29.67 -28.339,57.68 -47.443,84.36 -5.578,7.78 -22.68,33.08 -29.685,36.91 -0.215,0.12 -0.453,0.19 -0.679,0.28 l -1.383,-0.28 c 1.321,-35.72 4.864,-71.43 7.052,-107.11 l 26.64,-382.408 c 3.313,-45.779 8.115,-91.535 10.627,-137.356 -0.351,-10.944 0.055,-22.046 0.086,-33.005 z"
         id="path3" /><path
         fill="#efb37c"
         transform="scale(0.0332031,0.0336996)"
         d="m 381.055,540.051 127.774,-0.083 c 1.515,6.11 0.972,25.852 0.387,33.097 l -128.247,-0.009 c -0.351,-10.944 0.055,-22.046 0.086,-33.005 z"
         id="path4" /><path
         fill="#384547"
         transform="scale(0.0332031,0.0336996)"
         d="m 511.271,573.072 c 43.88,-1.159 87.851,1 131.754,-0.6 l 37.724,485.598 7.838,102.32 c 0.614,8.02 3.852,33.06 2.59,39.13 -0.505,-0.05 -1.017,-0.17 -1.469,-0.42 -7.7,-4.13 -28.466,-33.49 -34.586,-41.88 -49.468,-67.81 -76.847,-144.76 -97.734,-225.256 -5.359,-20.653 -10.727,-41.202 -15.174,-62.076 Q 536.615,844.146 532.17,818.18 c -1.983,-11.165 -3.398,-22.992 -6.487,-33.875 l -0.145,-0.492 c -1.827,-16.833 -6.637,-34.278 -10.544,-50.733 l -0.558,0.158 c -1.854,-5.581 -1.516,-12.357 -3.181,-18.249 l -0.531,-1.015 c 1.799,-5.894 0.598,-34.206 0.587,-42.294 z"
         id="path5-1" /><path
         fill="#491918"
         transform="scale(0.0332031,0.0336996)"
         d="m 520.179,788.795 c 2.165,-7.33 -0.867,-16.453 0.799,-24.163 0.059,0.35 0.199,1.258 0.305,1.568 0.692,2.039 3.394,15.043 3.346,16.928 -0.007,0.243 -0.038,0.484 -0.057,0.727 l 0.966,-0.042 0.145,0.492 c 3.089,10.883 4.504,22.71 6.487,33.875 q 4.445,25.966 10.044,51.708 c 4.447,20.874 9.815,41.423 15.174,62.076 20.887,80.496 48.266,157.446 97.734,225.256 6.12,8.39 26.886,37.75 34.586,41.88 0.452,0.25 0.964,0.37 1.469,0.42 -5.372,4.06 -21.675,-2.05 -23.706,3.96 -0.146,-0.72 -0.046,-1.43 -0.737,-1.84 -1.341,-0.79 -69.809,-1.45 -73.634,-0.5 l -0.535,1.68 -0.401,-0.03 c -0.215,-0.68 -0.402,-1.34 -1.177,-1.61 -6.657,-2.31 -34.191,2.26 -40.348,-1.29 -1.081,-23.51 -1.757,-47.09 -3.252,-70.56 q -4.369,-59.36 -9.576,-118.65 -4.213,-50.736 -7.907,-101.513 -3.809,-43.043 -6.816,-86.15 c -0.875,-11.058 -3.287,-23.194 -2.909,-34.222 z"
         id="path11" /><path
         fill="#491918"
         transform="scale(0.0332031,0.0336996)"
         d="m 510.724,713.974 0.531,1.015 c -4.835,60.93 -11.46,121.755 -16.641,182.672 q -13.397,150.959 -20.099,302.369 c -6.007,2.67 -34.516,1 -42.4,0.93 -4.229,-1.02 -9.703,-0.3 -14.063,-0.23 -11.553,0.16 -50.929,1.92 -58.234,-0.64 -0.036,2.2 0.332,5.35 -0.38,7.39 l -0.244,-7.31 c -0.282,0.09 -0.562,0.18 -0.846,0.26 -4.159,1.2 -16.595,1.79 -20.315,-0.22 0.226,-0.09 0.464,-0.16 0.679,-0.28 7.005,-3.83 24.107,-29.13 29.685,-36.91 19.104,-26.68 33.6,-54.69 47.443,-84.36 12.982,-27.83 24.655,-55.81 33.67,-85.191 8.197,-26.716 14.414,-54.079 21.202,-81.178 8.602,-34.341 17.31,-68.91 23.893,-103.707 5.946,-31.426 10.231,-63.185 16.119,-94.61 z"
         id="path12" /><path
         fill="#2d1316"
         transform="scale(0.0332031,0.0336996)"
         d="m 514.436,733.238 0.558,-0.158 c 3.907,16.455 8.717,33.9 10.544,50.733 l -0.966,0.042 c 0.019,-0.243 0.05,-0.484 0.057,-0.727 0.048,-1.885 -2.654,-14.889 -3.346,-16.928 -0.106,-0.31 -0.246,-1.218 -0.305,-1.568 -1.666,7.71 1.366,16.833 -0.799,24.163 -1.479,-18.527 -3.923,-37.052 -5.743,-55.557 z"
         id="path13" /><path
         fill="#8d3224"
         transform="scale(0.0332031,0.0336996)"
         d="m 431.086,99.3615 c 2.939,-1.7597 91.526,-0.7196 103.236,-0.8829 l 36.405,-0.4837 c 6.517,-0.0975 13.426,-0.6745 19.901,-0.0688 l 0.529,0.8244 c 1.252,12.2685 0.276,25.6075 0.262,38.0085 -0.013,10.947 0.935,22.935 -0.318,33.726 20.033,12.132 42.027,22.008 62.987,32.561 8.469,4.264 18.439,8.217 26.004,13.926 -3.739,5.77 -27.09,79.779 -29.954,90.675 -2.387,9.213 -4.939,18.451 -6.089,27.919 -1.987,16.373 -0.896,33.768 -0.834,50.26 0.045,11.867 -0.667,24.232 0.207,36.053 -1.318,10.493 -0.424,21.932 -0.408,32.53 0.042,28.394 1.287,57.234 0.168,85.575 0.039,10.483 1.173,22.205 -0.157,32.488 -43.903,1.6 -87.874,-0.559 -131.754,0.6 l -2.055,-0.007 c 0.585,-7.245 1.128,-26.987 -0.387,-33.097 l -127.774,0.083 c -0.349,-14.484 1.961,-105.672 -1.054,-112.398 2.561,-13.511 1.252,-28.703 1.329,-42.44 0.093,-16.388 1.277,-33.511 -0.761,-49.764 -1.33,-10.601 -4.263,-20.7 -7.414,-30.881 -7.095,-29.809 -17.346,-59.409 -26.643,-88.591 0.514,-1.172 1.093,-1.614 2.142,-2.28 7.131,-4.524 15.294,-8.122 22.788,-12.07 12.263,-6.46 24.166,-13.563 36.3,-20.256 7.702,-4.247 15.864,-7.958 23.241,-12.742 0.995,-7.643 0.341,-16.117 0.325,-23.843 q 0.01,-22.713 -0.222,-45.4245 z"
         id="path14" /><path
         fill="#d66638"
         transform="scale(0.0332031,0.0336996)"
         d="m 430.983,168.629 c 5.586,18.812 29.866,41.803 46.987,50.959 q 3.518,1.904 7.204,3.458 3.687,1.555 7.506,2.745 3.819,1.19 7.736,2.005 3.917,0.814 7.894,1.246 c 2.143,9.803 0.751,24.074 0.728,34.228 l -0.293,71.598 c -0.318,68.323 1.15,136.682 0.476,205.006 l -0.392,0.094 -127.774,0.083 c -0.349,-14.484 1.961,-105.672 -1.054,-112.398 2.561,-13.511 1.252,-28.703 1.329,-42.44 0.093,-16.388 1.277,-33.511 -0.761,-49.764 -1.33,-10.601 -4.263,-20.7 -7.414,-30.881 -7.095,-29.809 -17.346,-59.409 -26.643,-88.591 0.514,-1.172 1.093,-1.614 2.142,-2.28 7.131,-4.524 15.294,-8.122 22.788,-12.07 12.263,-6.46 24.166,-13.563 36.3,-20.256 7.702,-4.247 15.864,-7.958 23.241,-12.742 z"
         id="path15" /><path
         fill="#8d3224"
         transform="scale(0.0332031,0.0336996)"
         d="m 487.358,340.29 q 0.263,-0.111 0.532,-0.203 0.27,-0.093 0.545,-0.167 0.275,-0.074 0.555,-0.129 0.279,-0.055 0.562,-0.092 0.283,-0.036 0.567,-0.053 0.285,-0.017 0.57,-0.015 0.285,0.002 0.569,0.024 0.284,0.022 0.566,0.062 0.282,0.041 0.561,0.101 0.279,0.059 0.553,0.138 0.274,0.078 0.542,0.175 0.268,0.097 0.529,0.211 0.26,0.115 0.513,0.247 0.253,0.132 0.496,0.281 0.243,0.149 0.475,0.314 0.232,0.165 0.453,0.345 0.221,0.18 0.429,0.375 0.208,0.195 0.402,0.403 0.194,0.209 0.374,0.43 0.18,0.221 0.344,0.454 0.165,0.232 0.313,0.476 0.148,0.243 0.28,0.496 0.131,0.253 0.245,0.514 0.114,0.261 0.21,0.529 0.097,0.269 0.174,0.543 0.078,0.274 0.137,0.553 0.059,0.278 0.099,0.56 0.04,0.283 0.061,0.567 0.021,0.284 0.022,0.569 0.002,0.285 -0.016,0.569 -0.018,0.285 -0.055,0.567 -0.037,0.283 -0.093,0.562 -0.056,0.279 -0.131,0.554 -0.075,0.275 -0.168,0.545 -0.093,0.269 -0.204,0.531 -0.112,0.262 -0.24,0.517 -0.129,0.254 -0.275,0.499 -0.146,0.245 -0.308,0.479 -0.161,0.235 -0.339,0.458 -0.177,0.223 -0.369,0.433 -0.192,0.211 -0.398,0.408 -0.206,0.197 -0.425,0.379 -0.219,0.183 -0.45,0.35 -0.23,0.168 -0.472,0.319 -0.241,0.151 -0.492,0.286 -0.251,0.135 -0.511,0.252 -0.26,0.118 -0.527,0.217 -0.267,0.1 -0.54,0.181 -0.191,0.057 -0.385,0.105 -0.193,0.047 -0.389,0.086 -0.195,0.038 -0.392,0.068 -0.198,0.029 -0.396,0.049 -0.198,0.019 -0.397,0.03 -0.199,0.01 -0.399,0.011 -0.199,0.001 -0.398,-0.007 -0.199,-0.009 -0.398,-0.027 -0.199,-0.017 -0.396,-0.045 -0.197,-0.027 -0.393,-0.064 -0.196,-0.036 -0.39,-0.082 -0.194,-0.046 -0.386,-0.101 -0.192,-0.055 -0.38,-0.119 -0.189,-0.064 -0.375,-0.136 -0.185,-0.073 -0.367,-0.155 -0.182,-0.081 -0.36,-0.171 -0.178,-0.09 -0.351,-0.189 -0.173,-0.098 -0.342,-0.205 -0.169,-0.106 -0.332,-0.22 -0.163,-0.115 -0.321,-0.237 -0.157,-0.122 -0.309,-0.251 -0.152,-0.129 -0.297,-0.265 -0.146,-0.137 -0.285,-0.28 -0.138,-0.143 -0.27,-0.292 -0.132,-0.15 -0.257,-0.305 -0.124,-0.156 -0.242,-0.317 -0.117,-0.161 -0.226,-0.328 -0.109,-0.166 -0.211,-0.338 -0.101,-0.172 -0.194,-0.348 -0.093,-0.176 -0.178,-0.356 -0.085,-0.181 -0.161,-0.365 -0.076,-0.184 -0.143,-0.372 -0.067,-0.188 -0.125,-0.378 -0.059,-0.191 -0.108,-0.384 -0.049,-0.193 -0.089,-0.388 -0.04,-0.196 -0.071,-0.393 -0.03,-0.196 -0.052,-0.395 -0.021,-0.198 -0.033,-0.397 -0.012,-0.199 -0.014,-0.398 -0.003,-0.199 0.004,-0.398 0.007,-0.2 0.024,-0.398 0.016,-0.199 0.042,-0.396 0.026,-0.198 0.061,-0.394 0.035,-0.196 0.08,-0.391 0.044,-0.194 0.098,-0.386 0.053,-0.192 0.116,-0.381 0.062,-0.189 0.134,-0.375 0.071,-0.186 0.151,-0.369 0.081,-0.182 0.169,-0.361 0.089,-0.178 0.186,-0.352 0.097,-0.174 0.203,-0.343 0.105,-0.17 0.218,-0.334 0.113,-0.164 0.234,-0.322 0.121,-0.159 0.249,-0.312 0.128,-0.152 0.263,-0.299 0.136,-0.146 0.278,-0.286 0.142,-0.14 0.29,-0.273 0.149,-0.133 0.303,-0.258 0.155,-0.126 0.316,-0.244 0.16,-0.119 0.326,-0.229 0.166,-0.111 0.337,-0.213 0.17,-0.103 0.346,-0.197 0.176,-0.095 0.355,-0.181 0.18,-0.086 0.364,-0.163 z"
         id="path16" /><path
         fill="#8d3224"
         transform="scale(0.0332031,0.0336996)"
         d="m 488.862,253.824 q 0.191,-0.05 0.384,-0.091 0.192,-0.04 0.387,-0.072 0.194,-0.031 0.39,-0.053 0.196,-0.022 0.393,-0.035 0.197,-0.013 0.394,-0.016 0.197,-0.004 0.394,0.002 0.197,0.006 0.393,0.022 0.197,0.015 0.392,0.04 0.196,0.025 0.39,0.059 0.194,0.034 0.386,0.077 0.192,0.044 0.382,0.096 0.19,0.052 0.378,0.114 0.187,0.061 0.371,0.132 0.184,0.07 0.365,0.149 0.18,0.079 0.357,0.166 0.176,0.088 0.349,0.184 0.172,0.096 0.339,0.2 0.168,0.104 0.33,0.215 0.162,0.112 0.319,0.232 0.157,0.119 0.308,0.246 0.15,0.127 0.295,0.26 0.145,0.134 0.283,0.275 0.138,0.141 0.269,0.288 0.131,0.147 0.255,0.3 0.125,0.153 0.241,0.312 0.117,0.158 0.226,0.323 0.109,0.164 0.209,0.333 0.101,0.169 0.194,0.343 0.093,0.174 0.177,0.352 0.085,0.178 0.16,0.36 0.076,0.182 0.143,0.367 0.067,0.186 0.125,0.374 0.058,0.188 0.107,0.379 0.049,0.191 0.089,0.384 0.04,0.193 0.07,0.388 0.031,0.194 0.052,0.39 0.021,0.196 0.033,0.393 0.012,0.196 0.015,0.394 0.002,0.197 -0.005,0.393 -0.007,0.197 -0.023,0.394 -0.017,0.196 -0.042,0.391 -0.026,0.196 -0.061,0.39 -0.035,0.194 -0.079,0.386 -0.044,0.192 -0.098,0.381 -0.053,0.19 -0.115,0.377 -0.062,0.187 -0.134,0.371 -0.071,0.184 -0.151,0.364 -0.08,0.18 -0.168,0.356 -0.088,0.176 -0.185,0.348 -0.097,0.172 -0.201,0.338 -0.105,0.167 -0.218,0.329 -0.112,0.162 -0.233,0.318 -0.12,0.156 -0.247,0.306 -0.128,0.151 -0.262,0.295 -0.135,0.144 -0.276,0.281 -0.141,0.137 -0.289,0.268 -0.148,0.13 -0.301,0.254 -0.154,0.123 -0.313,0.239 -0.16,0.116 -0.325,0.224 -0.164,0.108 -0.334,0.208 -0.17,0.1 -0.344,0.192 -0.175,0.092 -0.353,0.176 -0.179,0.083 -0.361,0.158 -0.182,0.075 -0.368,0.141 -0.262,0.093 -0.529,0.169 -0.267,0.075 -0.539,0.132 -0.272,0.057 -0.547,0.096 -0.275,0.039 -0.552,0.059 -0.277,0.02 -0.554,0.022 -0.278,0.002 -0.555,-0.015 -0.277,-0.017 -0.553,-0.053 -0.275,-0.036 -0.548,-0.09 -0.272,-0.054 -0.54,-0.126 -0.268,-0.072 -0.531,-0.162 -0.263,-0.09 -0.519,-0.198 -0.256,-0.108 -0.504,-0.232 -0.248,-0.125 -0.487,-0.265 -0.24,-0.141 -0.469,-0.298 -0.229,-0.157 -0.448,-0.328 -0.218,-0.172 -0.424,-0.358 -0.206,-0.186 -0.399,-0.385 -0.194,-0.2 -0.373,-0.412 -0.179,-0.211 -0.344,-0.435 -0.165,-0.223 -0.314,-0.457 -0.15,-0.235 -0.283,-0.478 -0.133,-0.244 -0.25,-0.496 -0.116,-0.251 -0.216,-0.511 -0.099,-0.259 -0.181,-0.524 -0.082,-0.266 -0.145,-0.536 -0.064,-0.27 -0.11,-0.544 -0.045,-0.274 -0.072,-0.55 -0.027,-0.276 -0.035,-0.554 -0.008,-0.277 0.002,-0.555 0.01,-0.277 0.039,-0.553 0.029,-0.276 0.077,-0.55 0.047,-0.273 0.113,-0.543 0.066,-0.27 0.15,-0.534 0.083,-0.265 0.185,-0.523 0.101,-0.259 0.219,-0.51 0.119,-0.251 0.254,-0.494 0.135,-0.242 0.286,-0.475 0.151,-0.233 0.318,-0.455 0.166,-0.222 0.347,-0.433 0.181,-0.21 0.376,-0.408 0.194,-0.198 0.402,-0.383 0.207,-0.184 0.427,-0.354 0.219,-0.17 0.45,-0.325 0.23,-0.155 0.471,-0.294 0.24,-0.139 0.489,-0.262 0.249,-0.122 0.506,-0.228 0.257,-0.106 0.52,-0.194 0.263,-0.088 0.532,-0.158 z"
         id="path17" /><path
         fill="#8d3224"
         transform="scale(0.0332031,0.0336996)"
         d="m 488.467,423.726 q 0.249,-0.082 0.503,-0.148 0.255,-0.065 0.513,-0.114 0.258,-0.048 0.518,-0.08 0.261,-0.031 0.523,-0.045 0.262,-0.015 0.525,-0.011 0.262,0.003 0.524,0.023 0.262,0.021 0.521,0.059 0.26,0.038 0.517,0.093 0.257,0.054 0.509,0.126 0.253,0.072 0.5,0.16 0.247,0.088 0.488,0.193 0.241,0.104 0.474,0.224 0.234,0.12 0.459,0.256 0.225,0.135 0.44,0.285 0.216,0.15 0.421,0.313 0.205,0.164 0.399,0.341 0.194,0.177 0.376,0.366 0.181,0.19 0.35,0.391 0.169,0.201 0.324,0.412 0.155,0.212 0.296,0.433 0.141,0.222 0.267,0.452 0.126,0.231 0.236,0.469 0.111,0.238 0.205,0.483 0.095,0.244 0.173,0.495 0.078,0.251 0.139,0.506 0.061,0.255 0.106,0.514 0.044,0.258 0.071,0.519 0.027,0.262 0.037,0.524 0.01,0.262 0.002,0.524 -0.008,0.263 -0.033,0.524 -0.025,0.261 -0.067,0.52 -0.042,0.259 -0.101,0.515 -0.059,0.256 -0.135,0.507 -0.076,0.251 -0.168,0.497 -0.093,0.245 -0.201,0.484 -0.109,0.239 -0.233,0.471 -0.124,0.231 -0.263,0.454 -0.139,0.222 -0.292,0.435 -0.153,0.213 -0.321,0.415 -0.167,0.203 -0.347,0.394 -0.18,0.19 -0.372,0.369 -0.193,0.178 -0.397,0.344 -0.203,0.165 -0.418,0.317 -0.214,0.151 -0.438,0.289 -0.224,0.137 -0.456,0.259 -0.232,0.122 -0.472,0.228 -0.24,0.107 -0.487,0.197 -0.246,0.09 -0.498,0.164 -0.185,0.054 -0.372,0.099 -0.188,0.046 -0.377,0.082 -0.189,0.036 -0.38,0.062 -0.191,0.027 -0.383,0.045 -0.192,0.017 -0.384,0.025 -0.193,0.008 -0.386,0.007 -0.192,-0.001 -0.385,-0.012 -0.192,-0.01 -0.384,-0.03 -0.192,-0.02 -0.382,-0.049 -0.19,-0.029 -0.379,-0.068 -0.189,-0.038 -0.376,-0.085 -0.187,-0.048 -0.371,-0.104 -0.184,-0.057 -0.365,-0.122 -0.182,-0.066 -0.36,-0.14 -0.177,-0.074 -0.352,-0.157 -0.174,-0.082 -0.344,-0.173 -0.169,-0.091 -0.335,-0.19 -0.165,-0.099 -0.325,-0.206 -0.16,-0.107 -0.315,-0.222 -0.155,-0.115 -0.304,-0.237 -0.149,-0.122 -0.292,-0.251 -0.143,-0.129 -0.28,-0.265 -0.136,-0.136 -0.266,-0.279 -0.13,-0.142 -0.253,-0.291 -0.122,-0.148 -0.238,-0.302 -0.115,-0.155 -0.223,-0.315 -0.108,-0.159 -0.207,-0.324 -0.1,-0.165 -0.192,-0.334 -0.092,-0.17 -0.175,-0.343 -0.084,-0.174 -0.158,-0.352 -0.075,-0.177 -0.142,-0.358 -0.066,-0.181 -0.123,-0.365 -0.057,-0.184 -0.106,-0.371 -0.048,-0.186 -0.087,-0.375 -0.039,-0.188 -0.069,-0.379 -0.03,-0.19 -0.051,-0.382 -0.021,-0.191 -0.032,-0.383 -0.011,-0.193 -0.013,-0.385 -0.002,-0.193 0.005,-0.386 0.007,-0.192 0.024,-0.384 0.017,-0.192 0.043,-0.383 0.026,-0.191 0.061,-0.38 0.035,-0.19 0.079,-0.377 0.045,-0.188 0.098,-0.373 0.054,-0.185 0.116,-0.367 0.063,-0.183 0.134,-0.362 0.071,-0.179 0.151,-0.354 0.079,-0.175 0.167,-0.347 0.089,-0.171 0.185,-0.338 0.096,-0.167 0.201,-0.329 0.104,-0.162 0.216,-0.318 0.112,-0.157 0.232,-0.308 0.12,-0.151 0.246,-0.296 0.127,-0.145 0.261,-0.284 0.133,-0.139 0.274,-0.271 0.14,-0.132 0.287,-0.257 0.146,-0.126 0.298,-0.243 0.153,-0.118 0.311,-0.229 0.158,-0.11 0.321,-0.213 0.163,-0.102 0.331,-0.197 0.168,-0.094 0.34,-0.181 0.173,-0.086 0.349,-0.164 0.176,-0.077 0.356,-0.147 0.18,-0.069 0.363,-0.129 z"
         id="path18" /><path
         fill="#8d3224"
         transform="scale(0.0332031,0.0336996)"
         d="m 488.017,507.518 q 0.173,-0.079 0.35,-0.149 0.177,-0.07 0.357,-0.131 0.18,-0.061 0.363,-0.114 0.182,-0.052 0.368,-0.095 0.185,-0.043 0.372,-0.077 0.187,-0.035 0.376,-0.059 0.188,-0.025 0.378,-0.041 0.189,-0.015 0.379,-0.021 0.191,-0.006 0.381,-0.003 0.19,0.003 0.38,0.016 0.189,0.012 0.378,0.034 0.189,0.022 0.377,0.053 0.187,0.032 0.373,0.072 0.186,0.04 0.37,0.09 0.183,0.05 0.364,0.108 0.181,0.059 0.359,0.126 0.178,0.067 0.352,0.143 0.175,0.076 0.345,0.161 0.17,0.084 0.336,0.177 0.166,0.093 0.327,0.194 0.162,0.101 0.318,0.21 0.156,0.108 0.306,0.225 0.151,0.116 0.295,0.239 0.145,0.124 0.283,0.254 0.138,0.131 0.27,0.268 0.132,0.137 0.256,0.281 0.125,0.143 0.243,0.293 0.117,0.149 0.227,0.304 0.11,0.155 0.213,0.316 0.102,0.16 0.196,0.325 0.094,0.165 0.18,0.335 0.086,0.169 0.164,0.343 0.078,0.174 0.146,0.351 0.069,0.177 0.129,0.358 0.06,0.18 0.111,0.363 0.052,0.183 0.094,0.369 0.042,0.185 0.074,0.372 0.033,0.188 0.057,0.376 0.023,0.189 0.037,0.379 0.015,0.189 0.019,0.379 0.005,0.19 10e-4,0.381 -0.005,0.19 -0.019,0.379 -0.014,0.19 -0.037,0.379 -0.023,0.188 -0.056,0.376 -0.032,0.187 -0.074,0.373 -0.042,0.185 -0.092,0.368 -0.051,0.184 -0.111,0.364 -0.06,0.181 -0.128,0.358 -0.069,0.177 -0.146,0.351 -0.077,0.174 -0.163,0.344 -0.086,0.169 -0.18,0.334 -0.094,0.166 -0.196,0.326 -0.102,0.161 -0.212,0.316 -0.109,0.155 -0.227,0.305 -0.117,0.15 -0.242,0.293 -0.124,0.144 -0.256,0.281 -0.131,0.138 -0.269,0.268 -0.138,0.131 -0.283,0.255 -0.144,0.124 -0.295,0.24 -0.15,0.117 -0.306,0.226 -0.156,0.109 -0.317,0.21 -0.161,0.101 -0.326,0.194 -0.166,0.093 -0.337,0.178 -0.17,0.085 -0.344,0.161 -0.173,0.076 -0.349,0.143 -0.176,0.067 -0.355,0.125 -0.179,0.059 -0.361,0.108 -0.182,0.05 -0.366,0.091 -0.184,0.04 -0.37,0.072 -0.186,0.031 -0.373,0.054 -0.187,0.022 -0.375,0.036 -0.188,0.013 -0.377,0.017 -0.188,0.004 -0.377,-0.001 -0.188,-0.005 -0.376,-0.019 -0.188,-0.014 -0.375,-0.038 -0.187,-0.023 -0.373,-0.056 -0.186,-0.032 -0.37,-0.074 -0.184,-0.041 -0.365,-0.092 -0.182,-0.05 -0.361,-0.11 -0.179,-0.059 -0.354,-0.127 -0.176,-0.068 -0.349,-0.144 -0.172,-0.077 -0.34,-0.162 -0.169,-0.085 -0.333,-0.177 -0.164,-0.093 -0.323,-0.194 -0.159,-0.101 -0.313,-0.21 -0.155,-0.108 -0.303,-0.224 -0.149,-0.116 -0.292,-0.239 -0.142,-0.123 -0.279,-0.253 -0.137,-0.129 -0.267,-0.266 -0.13,-0.136 -0.253,-0.279 -0.124,-0.142 -0.24,-0.291 -0.116,-0.148 -0.225,-0.302 -0.109,-0.154 -0.21,-0.313 -0.101,-0.159 -0.194,-0.323 -0.094,-0.164 -0.179,-0.332 -0.085,-0.168 -0.162,-0.34 -0.077,-0.172 -0.145,-0.348 -0.069,-0.175 -0.128,-0.354 -0.06,-0.179 -0.111,-0.36 -0.051,-0.182 -0.093,-0.366 -0.042,-0.184 -0.075,-0.369 -0.033,-0.186 -0.056,-0.373 -0.024,-0.187 -0.039,-0.375 -0.014,-0.188 -0.02,-0.376 -0.005,-0.188 -0.002,-0.377 0.004,-0.188 0.017,-0.376 0.013,-0.188 0.035,-0.376 0.022,-0.187 0.054,-0.373 0.031,-0.185 0.071,-0.37 0.041,-0.184 0.09,-0.366 0.049,-0.182 0.107,-0.361 0.058,-0.179 0.125,-0.355 0.067,-0.177 0.142,-0.35 0.076,-0.172 0.159,-0.341 0.084,-0.169 0.176,-0.334 0.092,-0.164 0.191,-0.324 0.1,-0.16 0.208,-0.315 0.107,-0.155 0.222,-0.305 0.115,-0.149 0.237,-0.293 0.122,-0.143 0.251,-0.281 0.129,-0.137 0.264,-0.268 0.136,-0.131 0.278,-0.256 0.141,-0.124 0.289,-0.241 0.148,-0.117 0.301,-0.227 0.153,-0.11 0.311,-0.212 0.159,-0.103 0.322,-0.197 0.163,-0.094 0.331,-0.181 0.167,-0.086 0.339,-0.164 z"
         id="path19" /><path
         fill="#efb37c"
         transform="scale(0.0332031,0.0336996)"
         d="m 431.086,99.3615 c 2.939,-1.7597 91.526,-0.7196 103.236,-0.8829 l 36.405,-0.4837 c 6.517,-0.0975 13.426,-0.6745 19.901,-0.0688 l 0.529,0.8244 c -6.584,4.4115 -68.921,48.6545 -69.417,49.5945 -0.195,0.369 -0.398,1.551 -0.475,2.03 -0.098,0.605 -0.116,1.236 -0.151,1.846 -3.993,0.532 -9.588,0.344 -13.07,-1.814 l -0.155,51.395 c -0.011,8.873 -0.655,18.437 0.421,27.24 q -3.977,-0.432 -7.894,-1.246 -3.917,-0.815 -7.736,-2.005 -3.819,-1.19 -7.506,-2.745 -3.686,-1.554 -7.204,-3.458 c -17.121,-9.156 -41.401,-32.147 -46.987,-50.959 0.995,-7.643 0.341,-16.117 0.325,-23.843 q 0.01,-22.713 -0.222,-45.4245 z"
         id="path20" /><path
         fill="#6e2221"
         transform="scale(0.0332031,0.0336996)"
         d="m 431.086,99.3615 c 2.939,-1.7597 91.526,-0.7196 103.236,-0.8829 l 36.405,-0.4837 c 6.517,-0.0975 13.426,-0.6745 19.901,-0.0688 l 0.529,0.8244 c -6.584,4.4115 -68.921,48.6545 -69.417,49.5945 -0.195,0.369 -0.398,1.551 -0.475,2.03 -0.098,0.605 -0.116,1.236 -0.151,1.846 -3.993,0.532 -9.588,0.344 -13.07,-1.814 -5.626,-5.387 -15.721,-10.563 -22.408,-14.926 -18.239,-11.898 -36.696,-23.654 -54.55,-36.1195 z"
         id="path21" /><path
         fill="#b68d6b"
         transform="scale(0.0332031,0.0336996)"
         d="m 591.157,98.7505 c 1.252,12.2685 0.276,25.6075 0.262,38.0085 -0.013,10.947 0.935,22.935 -0.318,33.726 -3.839,4.868 -6.501,11.126 -10.194,16.238 -15.283,21.161 -34.254,35.513 -59.641,42.325 0.019,-25.506 0.922,-51.362 -0.152,-76.827 0.035,-0.61 0.053,-1.241 0.151,-1.846 0.077,-0.479 0.28,-1.661 0.475,-2.03 0.496,-0.94 62.833,-45.183 69.417,-49.5945 z"
         id="path22" /><path
         fill="#d66638"
         transform="scale(0.0332031,0.0336996)"
         d="m 509.221,539.874 c 17.987,0.629 36.107,0.239 54.107,0.242 l 79.854,-0.132 c 0.039,10.483 1.173,22.205 -0.157,32.488 -43.903,1.6 -87.874,-0.559 -131.754,0.6 l -2.055,-0.007 c 0.585,-7.245 1.128,-26.987 -0.387,-33.097 z"
         id="path23" /><path
         fill="#491918"
         transform="scale(0.0332031,0.0336996)"
         d="m 534.114,253.716 q 0.199,-0.041 0.4,-0.073 0.201,-0.031 0.403,-0.052 0.202,-0.022 0.405,-0.034 0.203,-0.011 0.406,-0.013 0.203,-0.002 0.406,0.006 0.203,0.008 0.406,0.026 0.202,0.018 0.403,0.046 0.202,0.028 0.401,0.066 0.2,0.037 0.398,0.084 0.197,0.048 0.393,0.105 0.195,0.057 0.387,0.123 0.192,0.066 0.381,0.142 0.188,0.075 0.373,0.16 0.185,0.085 0.365,0.178 0.18,0.094 0.356,0.196 0.176,0.102 0.346,0.213 0.17,0.111 0.335,0.23 0.165,0.119 0.324,0.245 0.159,0.127 0.311,0.262 0.153,0.134 0.298,0.276 0.146,0.141 0.285,0.29 0.138,0.148 0.27,0.303 0.131,0.156 0.254,0.317 0.124,0.161 0.24,0.328 0.115,0.168 0.222,0.34 0.108,0.173 0.206,0.35 0.099,0.178 0.189,0.36 0.09,0.182 0.171,0.369 0.081,0.186 0.152,0.376 0.072,0.19 0.134,0.384 0.063,0.193 0.116,0.389 0.053,0.196 0.096,0.395 0.043,0.199 0.077,0.399 0.033,0.2 0.057,0.402 0.024,0.202 0.038,0.405 0.014,0.202 0.018,0.406 0.004,0.203 -0.002,0.406 -0.006,0.203 -0.022,0.406 -0.016,0.202 -0.042,0.404 -0.025,0.201 -0.061,0.401 -0.035,0.2 -0.08,0.398 -0.046,0.199 -0.101,0.394 -0.054,0.196 -0.119,0.389 -0.064,0.192 -0.137,0.382 -0.074,0.189 -0.157,0.375 -0.082,0.186 -0.174,0.367 -0.092,0.181 -0.192,0.358 -0.101,0.177 -0.209,0.348 -0.109,0.172 -0.227,0.338 -0.117,0.166 -0.242,0.326 -0.125,0.16 -0.258,0.314 -0.132,0.154 -0.272,0.301 -0.141,0.147 -0.288,0.287 -0.147,0.141 -0.301,0.274 -0.153,0.132 -0.313,0.258 -0.16,0.125 -0.326,0.242 -0.166,0.117 -0.338,0.227 -0.171,0.109 -0.348,0.209 -0.177,0.101 -0.358,0.193 -0.181,0.091 -0.367,0.174 -0.185,0.083 -0.375,0.157 -0.189,0.074 -0.382,0.138 -0.193,0.065 -0.388,0.12 -0.196,0.055 -0.394,0.1 -0.268,0.061 -0.539,0.105 -0.271,0.043 -0.545,0.069 -0.274,0.026 -0.548,0.033 -0.275,0.008 -0.549,-0.003 -0.275,-0.01 -0.548,-0.039 -0.273,-0.028 -0.544,-0.075 -0.271,-0.047 -0.538,-0.111 -0.267,-0.064 -0.53,-0.146 -0.262,-0.081 -0.518,-0.18 -0.257,-0.099 -0.506,-0.214 -0.249,-0.116 -0.491,-0.248 -0.241,-0.131 -0.473,-0.278 -0.232,-0.148 -0.453,-0.31 -0.222,-0.162 -0.433,-0.338 -0.21,-0.177 -0.409,-0.367 -0.198,-0.189 -0.384,-0.392 -0.186,-0.203 -0.357,-0.417 -0.172,-0.214 -0.33,-0.439 -0.157,-0.225 -0.299,-0.46 -0.143,-0.235 -0.269,-0.479 -0.126,-0.244 -0.236,-0.496 -0.111,-0.252 -0.204,-0.51 -0.093,-0.258 -0.169,-0.522 -0.076,-0.264 -0.135,-0.533 -0.058,-0.268 -0.099,-0.54 -0.041,-0.271 -0.063,-0.545 -0.023,-0.274 -0.028,-0.548 -0.004,-0.275 0.009,-0.549 0.014,-0.275 0.045,-0.548 0.032,-0.273 0.081,-0.543 0.049,-0.27 0.116,-0.536 0.068,-0.267 0.152,-0.528 0.084,-0.261 0.186,-0.517 0.102,-0.255 0.22,-0.503 0.118,-0.248 0.252,-0.488 0.134,-0.239 0.284,-0.47 0.15,-0.23 0.314,-0.45 0.165,-0.22 0.344,-0.429 0.178,-0.208 0.37,-0.405 0.192,-0.196 0.397,-0.379 0.205,-0.184 0.421,-0.353 0.216,-0.17 0.443,-0.325 0.227,-0.155 0.463,-0.294 0.237,-0.14 0.482,-0.264 0.246,-0.123 0.498,-0.231 0.253,-0.107 0.513,-0.198 0.259,-0.09 0.524,-0.163 0.265,-0.073 0.534,-0.129 z"
         id="path24" /><path
         fill="#491918"
         transform="scale(0.0332031,0.0336996)"
         d="m 533.442,339.619 q 0.193,-0.058 0.388,-0.106 0.196,-0.049 0.394,-0.087 0.197,-0.039 0.397,-0.069 0.199,-0.029 0.4,-0.048 0.2,-0.02 0.401,-0.03 0.201,-0.009 0.403,-0.009 0.201,0 0.402,0.009 0.202,0.01 0.402,0.03 0.201,0.019 0.4,0.048 0.199,0.029 0.397,0.068 0.198,0.039 0.393,0.087 0.196,0.049 0.389,0.107 0.193,0.057 0.383,0.124 0.19,0.067 0.376,0.144 0.186,0.076 0.369,0.161 0.183,0.085 0.361,0.179 0.178,0.094 0.352,0.196 0.173,0.103 0.341,0.213 0.169,0.111 0.331,0.23 0.163,0.118 0.32,0.245 0.157,0.126 0.307,0.26 0.15,0.134 0.294,0.275 0.144,0.141 0.281,0.289 0.136,0.148 0.266,0.302 0.129,0.155 0.251,0.315 0.122,0.16 0.236,0.327 0.114,0.166 0.219,0.337 0.106,0.172 0.203,0.348 0.098,0.176 0.186,0.357 0.089,0.181 0.169,0.366 0.079,0.185 0.15,0.374 0.071,0.188 0.132,0.38 0.061,0.192 0.113,0.386 0.053,0.195 0.095,0.392 0.043,0.197 0.076,0.395 0.033,0.199 0.056,0.399 0.023,0.2 0.037,0.401 0.013,0.201 0.017,0.403 0.004,0.201 -0.002,0.402 -0.006,0.202 -0.022,0.402 -0.016,0.201 -0.041,0.401 -0.026,0.2 -0.061,0.398 -0.035,0.199 -0.079,0.395 -0.045,0.196 -0.099,0.39 -0.055,0.194 -0.118,0.385 -0.064,0.192 -0.136,0.379 -0.073,0.188 -0.155,0.372 -0.082,0.184 -0.172,0.364 -0.091,0.18 -0.19,0.356 -0.099,0.175 -0.207,0.345 -0.107,0.171 -0.223,0.335 -0.116,0.165 -0.239,0.324 -0.124,0.16 -0.255,0.312 -0.131,0.153 -0.269,0.3 -0.139,0.146 -0.284,0.286 -0.146,0.139 -0.297,0.271 -0.152,0.133 -0.311,0.257 -0.158,0.125 -0.322,0.242 -0.164,0.117 -0.333,0.226 -0.17,0.109 -0.344,0.209 -0.175,0.101 -0.354,0.193 -0.18,0.092 -0.363,0.175 -0.184,0.083 -0.371,0.157 -0.187,0.074 -0.378,0.139 -0.26,0.089 -0.526,0.16 -0.266,0.071 -0.536,0.125 -0.269,0.053 -0.542,0.089 -0.273,0.035 -0.548,0.053 -0.274,0.017 -0.549,0.017 -0.275,-10e-4 -0.55,-0.02 -0.274,-0.019 -0.547,-0.056 -0.272,-0.037 -0.542,-0.092 -0.269,-0.055 -0.535,-0.128 -0.265,-0.073 -0.525,-0.163 -0.26,-0.09 -0.513,-0.197 -0.253,-0.107 -0.499,-0.231 -0.246,-0.124 -0.483,-0.263 -0.237,-0.14 -0.464,-0.295 -0.227,-0.155 -0.444,-0.325 -0.216,-0.169 -0.421,-0.353 -0.205,-0.184 -0.397,-0.38 -0.192,-0.197 -0.371,-0.406 -0.179,-0.209 -0.343,-0.43 -0.165,-0.22 -0.314,-0.451 -0.15,-0.231 -0.284,-0.471 -0.133,-0.241 -0.251,-0.489 -0.118,-0.249 -0.219,-0.505 -0.101,-0.255 -0.185,-0.517 -0.084,-0.262 -0.15,-0.529 -0.066,-0.267 -0.115,-0.538 -0.049,-0.271 -0.079,-0.544 -0.03,-0.273 -0.043,-0.548 -0.012,-0.275 -0.006,-0.55 0.006,-0.275 0.03,-0.549 0.024,-0.274 0.066,-0.546 0.042,-0.272 0.102,-0.54 0.06,-0.268 0.138,-0.532 0.078,-0.264 0.172,-0.522 0.095,-0.258 0.207,-0.51 0.112,-0.251 0.24,-0.494 0.129,-0.243 0.273,-0.478 0.144,-0.234 0.303,-0.458 0.159,-0.225 0.333,-0.438 0.174,-0.213 0.361,-0.414 0.188,-0.202 0.388,-0.39 0.201,-0.188 0.413,-0.363 0.213,-0.175 0.436,-0.335 0.224,-0.16 0.457,-0.306 0.234,-0.145 0.477,-0.274 0.242,-0.13 0.493,-0.243 0.251,-0.113 0.509,-0.209 0.258,-0.096 0.521,-0.175 z"
         id="path25" /><path
         fill="#491918"
         transform="scale(0.0332031,0.0336996)"
         d="m 533.98,423.027 q 0.259,-0.069 0.522,-0.12 0.263,-0.051 0.529,-0.085 0.266,-0.033 0.533,-0.049 0.268,-0.016 0.536,-0.014 0.268,0.002 0.535,0.022 0.267,0.02 0.533,0.058 0.265,0.037 0.527,0.092 0.262,0.055 0.52,0.128 0.258,0.072 0.511,0.162 0.253,0.089 0.499,0.196 0.246,0.106 0.484,0.228 0.239,0.122 0.468,0.26 0.23,0.138 0.45,0.291 0.22,0.153 0.43,0.32 0.209,0.167 0.407,0.348 0.198,0.181 0.383,0.374 0.185,0.193 0.357,0.399 0.172,0.205 0.33,0.422 0.158,0.216 0.302,0.442 0.143,0.227 0.271,0.462 0.127,0.236 0.239,0.479 0.112,0.244 0.208,0.494 0.095,0.25 0.173,0.507 0.079,0.256 0.14,0.516 0.062,0.261 0.105,0.526 0.044,0.264 0.07,0.53 0.026,0.267 0.035,0.535 0.008,0.268 -0.002,0.535 -0.009,0.268 -0.037,0.535 -0.027,0.266 -0.072,0.53 -0.045,0.264 -0.108,0.525 -0.062,0.26 -0.142,0.516 -0.08,0.256 -0.176,0.506 -0.097,0.25 -0.21,0.492 -0.113,0.243 -0.242,0.478 -0.129,0.235 -0.273,0.461 -0.145,0.226 -0.304,0.441 -0.159,0.216 -0.332,0.42 -0.173,0.205 -0.359,0.397 -0.186,0.193 -0.385,0.373 -0.199,0.18 -0.409,0.346 -0.21,0.166 -0.431,0.318 -0.221,0.151 -0.451,0.288 -0.231,0.137 -0.47,0.258 -0.239,0.121 -0.485,0.226 -0.247,0.105 -0.5,0.193 -0.253,0.089 -0.511,0.16 -0.259,0.071 -0.521,0.125 -0.19,0.039 -0.381,0.069 -0.192,0.03 -0.385,0.05 -0.192,0.021 -0.386,0.032 -0.193,0.011 -0.387,0.013 -0.194,0.002 -0.388,-0.006 -0.194,-0.007 -0.387,-0.024 -0.193,-0.017 -0.385,-0.043 -0.192,-0.026 -0.382,-0.061 -0.191,-0.035 -0.38,-0.08 -0.188,-0.044 -0.375,-0.098 -0.186,-0.053 -0.37,-0.116 -0.183,-0.062 -0.363,-0.133 -0.181,-0.071 -0.357,-0.151 -0.177,-0.08 -0.35,-0.168 -0.172,-0.088 -0.34,-0.185 -0.169,-0.096 -0.332,-0.2 -0.163,-0.105 -0.321,-0.217 -0.159,-0.112 -0.311,-0.232 -0.153,-0.119 -0.299,-0.246 -0.147,-0.127 -0.287,-0.261 -0.14,-0.133 -0.274,-0.274 -0.134,-0.14 -0.26,-0.287 -0.127,-0.146 -0.247,-0.299 -0.119,-0.152 -0.231,-0.31 -0.112,-0.158 -0.217,-0.322 -0.104,-0.163 -0.2,-0.331 -0.097,-0.169 -0.185,-0.341 -0.088,-0.173 -0.168,-0.349 -0.079,-0.177 -0.15,-0.357 -0.071,-0.181 -0.134,-0.364 -0.062,-0.184 -0.115,-0.37 -0.054,-0.186 -0.098,-0.375 -0.044,-0.189 -0.08,-0.379 -0.035,-0.191 -0.061,-0.383 -0.026,-0.192 -0.042,-0.385 -0.017,-0.193 -0.025,-0.387 -0.007,-0.193 -0.005,-0.387 0.002,-0.194 0.013,-0.387 0.012,-0.194 0.032,-0.387 0.021,-0.192 0.051,-0.384 0.03,-0.191 0.069,-0.381 0.039,-0.19 0.087,-0.378 0.048,-0.187 0.106,-0.372 0.057,-0.186 0.123,-0.368 0.066,-0.182 0.141,-0.361 0.074,-0.179 0.158,-0.354 0.083,-0.175 0.175,-0.346 0.091,-0.17 0.191,-0.337 0.1,-0.166 0.207,-0.327 0.108,-0.161 0.223,-0.317 0.115,-0.156 0.238,-0.306 0.123,-0.15 0.252,-0.294 0.13,-0.144 0.267,-0.281 0.136,-0.138 0.279,-0.269 0.143,-0.131 0.293,-0.254 0.149,-0.124 0.304,-0.241 0.154,-0.116 0.315,-0.225 0.16,-0.109 0.326,-0.21 0.165,-0.101 0.335,-0.194 0.17,-0.093 0.345,-0.177 0.174,-0.085 0.352,-0.161 0.179,-0.076 0.36,-0.144 0.182,-0.067 0.367,-0.126 0.185,-0.058 0.372,-0.108 z"
         id="path26" /><path
         fill="#491918"
         transform="scale(0.0332031,0.0336996)"
         d="m 533.149,506.948 q 0.242,-0.09 0.489,-0.164 0.247,-0.074 0.499,-0.131 0.251,-0.058 0.506,-0.099 0.255,-0.04 0.512,-0.064 0.257,-0.024 0.515,-0.031 0.258,-0.007 0.516,0.003 0.257,0.01 0.514,0.038 0.257,0.027 0.511,0.071 0.254,0.044 0.505,0.104 0.251,0.061 0.497,0.138 0.247,0.077 0.487,0.17 0.241,0.094 0.475,0.202 0.234,0.109 0.46,0.233 0.226,0.124 0.444,0.263 0.218,0.138 0.426,0.291 0.208,0.153 0.405,0.319 0.197,0.166 0.383,0.345 0.187,0.178 0.361,0.369 0.173,0.191 0.334,0.392 0.161,0.202 0.309,0.414 0.147,0.212 0.28,0.433 0.133,0.221 0.251,0.45 0.118,0.23 0.221,0.466 0.103,0.237 0.19,0.48 0.086,0.243 0.157,0.491 0.071,0.248 0.125,0.501 0.054,0.252 0.091,0.507 0.038,0.255 0.058,0.513 0.021,0.257 0.024,0.515 0.004,0.258 -0.01,0.515 -0.014,0.258 -0.044,0.514 -0.031,0.256 -0.078,0.51 -0.047,0.254 -0.111,0.503 -0.065,0.25 -0.145,0.496 -0.08,0.245 -0.177,0.484 -0.096,0.239 -0.208,0.472 -0.112,0.232 -0.239,0.457 -0.127,0.224 -0.269,0.44 -0.141,0.216 -0.297,0.421 -0.155,0.206 -0.324,0.401 -0.169,0.196 -0.35,0.379 -0.181,0.184 -0.374,0.355 -0.193,0.171 -0.397,0.33 -0.204,0.158 -0.418,0.302 -0.214,0.145 -0.437,0.275 -0.223,0.13 -0.454,0.245 -0.231,0.114 -0.469,0.214 -0.238,0.099 -0.482,0.183 -0.18,0.062 -0.363,0.114 -0.183,0.053 -0.368,0.097 -0.185,0.044 -0.372,0.079 -0.187,0.035 -0.375,0.06 -0.189,0.026 -0.378,0.042 -0.19,0.017 -0.38,0.024 -0.19,0.007 -0.38,0.005 -0.191,-0.002 -0.38,-0.013 -0.19,-0.011 -0.379,-0.032 -0.19,-0.02 -0.377,-0.05 -0.188,-0.03 -0.375,-0.068 -0.186,-0.039 -0.37,-0.087 -0.184,-0.048 -0.366,-0.104 -0.181,-0.057 -0.36,-0.122 -0.179,-0.066 -0.354,-0.14 -0.175,-0.074 -0.346,-0.156 -0.172,-0.083 -0.339,-0.174 -0.167,-0.091 -0.33,-0.189 -0.163,-0.099 -0.32,-0.206 -0.158,-0.106 -0.31,-0.22 -0.152,-0.114 -0.299,-0.236 -0.146,-0.121 -0.286,-0.249 -0.141,-0.129 -0.275,-0.264 -0.134,-0.135 -0.261,-0.276 -0.127,-0.141 -0.248,-0.289 -0.12,-0.147 -0.233,-0.3 -0.113,-0.153 -0.218,-0.312 -0.105,-0.158 -0.203,-0.321 -0.097,-0.164 -0.187,-0.332 -0.089,-0.167 -0.17,-0.339 -0.082,-0.172 -0.154,-0.348 -0.073,-0.176 -0.137,-0.355 -0.064,-0.179 -0.119,-0.361 -0.056,-0.182 -0.102,-0.367 -0.046,-0.184 -0.084,-0.371 -0.037,-0.186 -0.065,-0.374 -0.028,-0.188 -0.047,-0.378 -0.019,-0.189 -0.029,-0.379 -0.01,-0.19 -0.01,-0.38 -10e-4,-0.19 0.008,-0.38 0.008,-0.19 0.026,-0.38 0.019,-0.189 0.046,-0.377 0.027,-0.189 0.063,-0.375 0.036,-0.187 0.082,-0.372 0.045,-0.185 0.099,-0.367 0.055,-0.182 0.118,-0.362 0.063,-0.179 0.135,-0.355 0.071,-0.176 0.152,-0.349 0.08,-0.172 0.168,-0.341 0.089,-0.168 0.186,-0.332 0.096,-0.164 0.201,-0.323 0.104,-0.159 0.216,-0.313 0.112,-0.153 0.232,-0.301 0.119,-0.148 0.246,-0.29 0.126,-0.143 0.26,-0.278 0.133,-0.136 0.273,-0.265 0.139,-0.129 0.285,-0.251 0.146,-0.123 0.298,-0.237 0.151,-0.115 0.308,-0.223 0.157,-0.107 0.319,-0.207 0.163,-0.099 0.329,-0.191 0.167,-0.092 0.338,-0.175 0.171,-0.084 0.346,-0.159 0.175,-0.075 0.353,-0.141 z"
         id="path27" /><path
         fill="#384547"
         transform="scale(0.0332031,0.0336996)"
         d="m 680.092,216.972 c 5.23,5.248 9.794,10.326 12.269,17.461 4.618,13.317 7.864,27.223 11.464,40.84 l 16.136,60.858 47.095,175.705 18.028,66.201 c 1.795,6.431 6.761,20.092 7.306,26.075 3.377,7.996 8.667,25.309 9.936,34.061 2.12,8.159 4.657,16.136 7.281,24.146 -27.39,11.615 -55.252,22.538 -82.182,35.167 l -7.838,-24.83 c -2.931,-11.036 -6.83,-21.953 -10.368,-32.814 -2.793,-11.417 -6.798,-22.769 -10.17,-34.044 l -19.052,-64.15 c -11.916,-39.885 -22.567,-80.584 -36.575,-119.769 -0.874,-11.821 -0.162,-24.186 -0.207,-36.053 -0.062,-16.492 -1.153,-33.887 0.834,-50.26 1.15,-9.468 3.702,-18.706 6.089,-27.919 2.864,-10.896 26.215,-84.905 29.954,-90.675 z"
         id="path28" /><path
         fill="#293237"
         transform="scale(0.0332031,0.0336996)"
         d="m 650.138,307.647 c 3.014,5.696 4.675,12.866 6.639,19.034 4.959,15.576 9.415,31.259 14.101,46.913 q 24.302,83.9 50.565,167.207 c 7.429,23.811 16.804,59.833 27.989,81.607 -13.253,6.065 -26.656,12.086 -40.213,17.434 -2.793,-11.417 -6.798,-22.769 -10.17,-34.044 l -19.052,-64.15 c -11.916,-39.885 -22.567,-80.584 -36.575,-119.769 -0.874,-11.821 -0.162,-24.186 -0.207,-36.053 -0.062,-16.492 -1.153,-33.887 0.834,-50.26 1.15,-9.468 3.702,-18.706 6.089,-27.919 z"
         id="path29" /><path
         fill="#8d3224"
         transform="scale(0.0332031,0.0336996)"
         d="m 749.432,622.408 1.302,-0.405 c 3.262,6.819 7.94,28.528 12.532,32.372 l 39.06,-16.202 c 2.12,8.159 4.657,16.136 7.281,24.146 -27.39,11.615 -55.252,22.538 -82.182,35.167 l -7.838,-24.83 c -2.931,-11.036 -6.83,-21.953 -10.368,-32.814 13.557,-5.348 26.96,-11.369 40.213,-17.434 z"
         id="path30" /><path
         fill="#b26541"
         transform="scale(0.0332031,0.0336996)"
         d="m 749.432,622.408 1.302,-0.405 c 3.262,6.819 7.94,28.528 12.532,32.372 -14.541,6.091 -29.019,12.495 -43.679,18.281 -2.931,-11.036 -6.83,-21.953 -10.368,-32.814 13.557,-5.348 26.96,-11.369 40.213,-17.434 z"
         id="path31" /><path
         fill="#d66638"
         transform="scale(0.0332031,0.0336996)"
         d="m 792.39,604.112 c 3.377,7.996 8.667,25.309 9.936,34.061 l -39.06,16.202 c -4.592,-3.844 -9.27,-25.553 -12.532,-32.372 q 20.942,-8.679 41.656,-17.891 z"
         id="path32" /><path
         fill="#495c57"
         transform="scale(0.0332031,0.0336996)"
         d="m 230.221,605.971 c 4.41,-13.085 7.853,-26.642 11.572,-39.943 q 11.816,-42.197 22.73,-84.635 c 12.026,-45.492 25.229,-90.703 37.452,-136.153 9.777,-36.35 18.236,-74.462 32.122,-109.476 2.226,-5.611 6.61,-17.279 12.415,-19.787 9.297,29.182 19.548,58.782 26.643,88.591 3.151,10.181 6.084,20.28 7.414,30.881 2.038,16.253 0.854,33.376 0.761,49.764 -0.077,13.737 1.232,28.929 -1.329,42.44 q -24.007,82.368 -48.846,164.489 -5.083,16.299 -9.925,32.671 c -1.583,5.36 -2.798,12.151 -5.289,17.098 -11.328,-6.291 -25.396,-10.987 -37.456,-16.085 l -0.367,0.039 c -16.128,-6.152 -32.082,-12.976 -47.897,-19.894 z"
         id="path33" /><path
         fill="#293237"
         transform="scale(0.0332031,0.0336996)"
         d="m 373.155,304.568 c 3.151,10.181 6.084,20.28 7.414,30.881 2.038,16.253 0.854,33.376 0.761,49.764 -0.077,13.737 1.232,28.929 -1.329,42.44 q -24.007,82.368 -48.846,164.489 -5.083,16.299 -9.925,32.671 c -1.583,5.36 -2.798,12.151 -5.289,17.098 -11.328,-6.291 -25.396,-10.987 -37.456,-16.085 0.977,-6.332 3.654,-12.776 5.541,-18.923 q 5.831,-18.963 11.467,-37.984 l 52.534,-179.358 q 7.844,-27.536 15.985,-54.985 c 2.26,-7.883 5.309,-23.727 9.143,-30.008 z"
         id="path34" /><path
         fill="#efb37c"
         transform="scale(0.0332031,0.0336996)"
         d="m 220.062,638.572 c 3.74,-10.758 5.697,-22.047 10.159,-32.601 15.815,6.918 31.769,13.742 47.897,19.894 l 0.367,-0.039 c 12.06,5.098 26.128,9.794 37.456,16.085 l -9.569,30.924 c -1.925,7.131 -4.097,14.098 -6.512,21.079 -12.931,-4.665 -26.551,-8.569 -39.24,-13.791 -15.019,-6.975 -31.582,-11.535 -47.078,-17.567 q 3.39,-11.957 6.52,-23.984 z"
         id="path35" /><path
         fill="#d66638"
         transform="scale(0.0332031,0.0336996)"
         d="m 278.485,625.826 c 12.06,5.098 26.128,9.794 37.456,16.085 l -9.569,30.924 c -1.925,7.131 -4.097,14.098 -6.512,21.079 -12.931,-4.665 -26.551,-8.569 -39.24,-13.791 1.795,-7.317 4.992,-14.603 7.595,-21.686 2.706,-10.976 7.745,-21.416 9.903,-32.572 z"
         id="path36" /><path
         fill="#8d3224"
         transform="scale(0.0332031,0.0336996)"
         d="m 268.215,658.437 c 12.627,4.875 25.286,10.236 38.157,14.398 -1.925,7.131 -4.097,14.098 -6.512,21.079 -12.931,-4.665 -26.551,-8.569 -39.24,-13.791 1.795,-7.317 4.992,-14.603 7.595,-21.686 z"
         id="path37" /><path
         fill="#d66638"
         transform="scale(0.0332031,0.0336996)"
         d="m 213.542,662.556 q 3.39,-11.957 6.52,-23.984 c 11.078,5.399 22.75,9.626 34.217,14.116 4.633,1.814 9.25,4.173 13.936,5.749 -2.603,7.083 -5.8,14.369 -7.595,21.686 -15.019,-6.975 -31.582,-11.535 -47.078,-17.567 z"
         id="path38" /></g></g></svg>
