<?xml version="1.0" encoding="UTF-8" standalone="no"?>
<!-- Created with Inkscape (http://www.inkscape.org/) -->

<svg
   width="63mm"
   height="88mm"
   viewBox="0 0 63 88"
   version="1.1"
   id="svg1"
   inkscape:version="1.4 (86a8ad7, 2024-10-11)"
   sodipodi:docname="rule-item-longsword.svg"
   xml:space="preserve"
   xmlns:inkscape="http://www.inkscape.org/namespaces/inkscape"
   xmlns:sodipodi="http://sodipodi.sourceforge.net/DTD/sodipodi-0.dtd"
   xmlns:xlink="http://www.w3.org/1999/xlink"
   xmlns="http://www.w3.org/2000/svg"
   xmlns:svg="http://www.w3.org/2000/svg"><sodipodi:namedview
     id="namedview1"
     pagecolor="#ffffff"
     bordercolor="#000000"
     borderopacity="0.25"
     inkscape:showpageshadow="2"
     inkscape:pageopacity="0.0"
     inkscape:pagecheckerboard="0"
     inkscape:deskcolor="#d1d1d1"
     inkscape:document-units="mm"
     inkscape:zoom="1.7454522"
     inkscape:cx="165.00022"
     inkscape:cy="140.93769"
     inkscape:window-width="1617"
     inkscape:window-height="1008"
     inkscape:window-x="130"
     inkscape:window-y="0"
     inkscape:window-maximized="0"
     inkscape:current-layer="svg1" /><defs
     id="defs1"><radialGradient
       inkscape:collect="always"
       xlink:href="#linearGradient1"
       id="radialGradient2"
       cx="58.925697"
       cy="3.3495736"
       fx="58.925697"
       fy="3.3495736"
       r="3.7013359"
       gradientTransform="matrix(1.707443,0,0,0.89394564,-44.199046,-0.16694138)"
       gradientUnits="userSpaceOnUse" /><linearGradient
       id="linearGradient1"
       inkscape:collect="always"><stop
         style="stop-color:#e6da46;stop-opacity:1;"
         offset="0.52019387"
         id="stop1" /><stop
         style="stop-color:#e1d55f;stop-opacity:0;"
         offset="1"
         id="stop2" /></linearGradient><linearGradient
       id="gradient_0"
       gradientUnits="userSpaceOnUse"
       x1="655.57092"
       y1="304.57126"
       x2="812.69318"
       y2="268.40381"
       gradientTransform="matrix(-0.04969211,0.26737138,-0.26737138,-0.04969211,283.42828,58.888855)"><stop
         offset="0"
         stop-color="#AF6538"
         id="stop19" /><stop
         offset="1"
         stop-color="#C57B53"
         id="stop20" /></linearGradient></defs><g
     id="g3"
     inkscape:label="longsword"><g
       inkscape:label="item"
       inkscape:groupmode="layer"
       id="layer1"><g
         id="body"
         transform="matrix(0.03392854,0,0,0.03392854,5.5728898,11.788504)"
         inkscape:label="body"><path
           fill="#37b2df"
           d="m 858.77252,-88.874237 c 8.05919,0.366653 9.80694,-0.08878 17.67714,0.09396 0.26718,2.601107 0.36797,5.158622 1.02178,7.708938 0.24077,0.939514 0.54382,1.958888 1.09963,2.763618 l 17.68142,5.008774 4.42588,1.155764 c 2.13409,0.515821 4.21724,0.946583 6.14227,2.061563 2.41687,1.399742 4.32243,3.620751 5.59125,6.086402 1.9545,3.798209 1.97303,8.14557 2.59618,12.286147 l -12.19989,5.556583 -1.57013,0.749401 c -0.32557,0.139995 -0.70594,0.242649 -1.00124,0.432763 l -0.65528,3.991389 -1.45801,6.20533 -2.63658,8.949904 -3.54382,10.549893 c -2.18528,7.2842982 -2.76843,15.05296047 -1.35162,22.5416518 0.96966,5.1248892 2.85923,10.0111322 4.43135,14.9667092 -0.14811,0.215977 -0.62046,0.398637 -0.86218,0.522618 -1.2223,0.623954 -2.49606,1.139906 -3.79461,1.582533 -7.81,2.661102 -15.79478,3.583689 -24.01833,3.427707 -8.98536,-0.170654 -17.97539,-1.663856 -26.09882,-5.655505 0.54782,-1.058582 0.97098,-2.231814 1.38721,-3.350392 l 2.07929,-6.308785 c 0.99152,-3.3530497 1.83704,-6.7660763 2.14608,-10.2577779 0.96526,-10.9057258 -3.64967,-21.1268431 -7.05592,-31.1893141 -1.45134,-4.28697 -2.54991,-8.793513 -3.5297,-13.209936 l -0.40009,-2.626702 c -1.83278,-0.661942 -3.6197,-1.727047 -5.37714,-2.577375 l -9.23961,-4.474149 0.77153,-5.713247 c 0.94046,-5.590978 3.4841,-10.821994 8.97458,-13.114728 2.4735,-1.032985 5.31447,-1.59213 7.9069,-2.277141 l 12.47386,-3.518901 3.68929,-1.100972 c 0.88618,-0.266774 1.93916,-0.49702 2.69297,-1.032976 1.60546,-3.096398 1.90556,-6.799682 2.00436,-10.233787 z"
           id="path5"
           sodipodi:nodetypes="ccccccccccccccccccccccccscccccccccccc"
           style="fill:none;stroke:#000000;stroke-width:2.32377;stroke-dasharray:none;stroke-opacity:1" /><path
           fill="#26A4D4"
           d="m 867.70966,-21.526539 0.0692,0.05849 0.0487,37.972961 -0.0896,0.179632 c -0.1345,-1.02215 -0.0982,-2.124484 -0.12584,-3.157324 l -0.15931,-4.1142518 -0.26462,-12.4165133 0.24398,-9.7915479 0.16369,-6.583755 c 0.0328,-0.718174 -0.0168,-1.437105 0.11377,-2.147687 z"
           id="path6"
           style="fill:#6f838b;fill-opacity:1;stroke-width:0.106919" /><path
           fill="#26A4D4"
           d="m 900.16368,-52.849167 c -0.16014,1.305391 -0.49197,2.611573 -0.8076,3.887091 -0.32743,1.323319 -0.67187,2.711689 -1.20778,3.968086 -0.43607,1.021901 -1.06545,2.009275 -1.62115,2.972215 -1.70919,2.961593 -3.43378,5.771282 -5.93182,8.149553 -3.34892,3.188391 -7.50078,4.757486 -12.11817,4.651391 l -0.074,-0.0434 -0.017,-0.08417 0.88526,-0.242326 c 4.91789,-1.318533 9.18527,-4.397642 12.30885,-8.388439 2.21588,-2.831067 3.94406,-6.055168 5.61845,-9.225094 z"
           id="path7"
           style="fill:#768084;fill-opacity:1;stroke-width:0.132784" /><path
           fill="#26A4D4"
           d="m 833.56749,-54.187229 c 0.28451,0.337309 0.44595,1.094043 0.61155,1.516942 l 1.26176,3.0192 c 0.89871,2.009433 1.83836,4.004057 2.93267,5.915762 3.23453,5.650045 7.62335,11.484738 14.05746,13.632694 0.95738,0.319574 2.01729,0.602478 3.0172,0.742604 0.8618,0.120655 1.74185,0.141052 2.58378,0.369429 l -1.33948,0.09772 c -5.0137,0.234645 -10.03047,-1.571867 -13.74042,-4.94091 -3.5001,-3.178391 -5.6959,-7.360169 -7.35617,-11.726188 -1.03044,-2.710168 -1.8937,-5.718173 -2.02835,-8.627261 z"
           id="path8"
           style="fill:#6c858e;fill-opacity:1;stroke-width:0.133322" /><text
           xml:space="preserve"
           style="font-style:normal;font-variant:normal;font-weight:normal;font-stretch:normal;font-size:134.119px;font-family:Amiri;-inkscape-font-specification:'Amiri, Normal';font-variant-ligatures:normal;font-variant-caps:normal;font-variant-numeric:normal;font-variant-east-asian:normal;fill:#000000;fill-opacity:1;stroke:none;stroke-width:0.243793;stroke-dasharray:none;stroke-opacity:1;paint-order:markers fill stroke"
           x="927.79181"
           y="7.6085768"
           id="text1"><tspan
             sodipodi:role="line"
             id="tspan1"
             style="font-style:normal;font-variant:normal;font-weight:normal;font-stretch:normal;font-size:134.119px;font-family:Amiri;-inkscape-font-specification:'Amiri, Normal';font-variant-ligatures:normal;font-variant-caps:normal;font-variant-numeric:normal;font-variant-east-asian:normal;fill:#000000;fill-opacity:1;stroke:none;stroke-width:0.243796"
             x="927.79181"
             y="7.6085768">Body</tspan></text><path
           id="rect1"
           d="m 858.03424,-30.987439 h 19.44948 l -5.81424,1.436759 -0.54423,14.049122 -7.8546,-0.07168 -0.0919,-13.977373 z"
           sodipodi:nodetypes="ccccccc"
           style="stroke-width:2.8009" /><path
           style="fill:#000000;fill-opacity:1;stroke-width:2.32949"
           id="path2-6-0"
           sodipodi:type="arc"
           sodipodi:cx="867.41406"
           sodipodi:cy="-57.452061"
           sodipodi:rx="9.4654808"
           sodipodi:ry="9.4654808"
           sodipodi:start="0.027304543"
           sodipodi:end="6.2831853"
           sodipodi:open="true"
           sodipodi:arc-type="arc"
           d="m 876.87602,-57.193642 a 9.4654808,9.4654808 0 0 1 -9.65578,9.205077 9.4654808,9.4654808 0 0 1 -9.27078,-9.592717 9.4654808,9.4654808 0 0 1 9.52921,-9.336039 9.4654808,9.4654808 0 0 1 9.40087,9.46526" /><path
           style="fill:#000000;fill-opacity:1;stroke-width:2.32949"
           id="path2-6-0-7"
           sodipodi:type="arc"
           sodipodi:cx="858.04773"
           sodipodi:cy="-40.737667"
           sodipodi:rx="9.4654808"
           sodipodi:ry="9.4654808"
           sodipodi:start="0.027304543"
           sodipodi:end="6.2831853"
           sodipodi:open="true"
           sodipodi:arc-type="arc"
           d="m 867.50968,-40.479249 a 9.4654808,9.4654808 0 0 1 -9.65577,9.205078 9.4654808,9.4654808 0 0 1 -9.27078,-9.592717 9.4654808,9.4654808 0 0 1 9.52921,-9.336039 9.4654808,9.4654808 0 0 1 9.40087,9.46526" /><path
           style="fill:#000000;fill-opacity:1;stroke-width:2.32949"
           id="path2-6-0-9"
           sodipodi:type="arc"
           sodipodi:cx="876.98291"
           sodipodi:cy="-40.737667"
           sodipodi:rx="9.4654808"
           sodipodi:ry="9.4654808"
           sodipodi:start="0.027304543"
           sodipodi:end="6.2831853"
           sodipodi:open="true"
           sodipodi:arc-type="arc"
           d="m 886.44486,-40.479249 a 9.4654808,9.4654808 0 0 1 -9.65577,9.205078 9.4654808,9.4654808 0 0 1 -9.27078,-9.592717 9.4654808,9.4654808 0 0 1 9.52921,-9.336039 9.4654808,9.4654808 0 0 1 9.40087,9.46526" /><path
           sodipodi:type="star"
           style="fill:#000000"
           id="path1"
           inkscape:flatsided="false"
           sodipodi:sides="3"
           sodipodi:cx="-4.2679658"
           sodipodi:cy="5.2618756"
           sodipodi:r1="0.76004869"
           sodipodi:r2="0.33594152"
           sodipodi:arg1="1.5707963"
           sodipodi:arg2="2.6179939"
           inkscape:rounded="0"
           inkscape:randomized="0"
           d="m -4.2679658,6.0219243 -0.2909339,-0.5920779 -0.3672876,-0.5479951 0.6582215,0.044083 0.6582215,-0.044083 -0.3672876,0.5479951 z"
           inkscape:transform-center-y="0.23284431"
           transform="matrix(5.0202848,0,0,5.0202848,888.71436,-103.93239)" /><path
           sodipodi:type="star"
           style="fill:#000000"
           id="path1-7"
           inkscape:flatsided="false"
           sodipodi:sides="3"
           sodipodi:cx="-4.2679658"
           sodipodi:cy="5.2618756"
           sodipodi:r1="0.76004869"
           sodipodi:r2="0.33594152"
           sodipodi:arg1="1.5707963"
           sodipodi:arg2="2.6179939"
           inkscape:rounded="0"
           inkscape:randomized="0"
           d="m -4.2679658,6.0219243 -0.2909339,-0.5920779 -0.3672876,-0.5479951 0.6582215,0.044083 0.6582215,-0.044083 -0.3672876,0.5479951 z"
           inkscape:transform-center-y="-0.21929518"
           transform="matrix(2.3640855,4.4288099,-4.4288099,2.3640855,900.34165,-62.707035)"
           inkscape:transform-center-x="0.015494775" /><path
           sodipodi:type="star"
           style="fill:#000000"
           id="path1-9"
           inkscape:flatsided="false"
           sodipodi:sides="3"
           sodipodi:cx="-4.2679658"
           sodipodi:cy="5.2618756"
           sodipodi:r1="0.76004869"
           sodipodi:r2="0.33594152"
           sodipodi:arg1="1.5707963"
           sodipodi:arg2="2.6179939"
           inkscape:rounded="0"
           inkscape:randomized="0"
           d="m -4.2679658,6.0219243 -0.2909339,-0.5920779 -0.3672876,-0.5479951 0.6582215,0.044083 0.6582215,-0.044083 -0.3672876,0.5479951 z"
           inkscape:transform-center-y="0.0053040322"
           transform="matrix(-0.05717095,-5.0199598,5.0199598,-0.05717095,836.76742,-94.402881)"
           inkscape:transform-center-x="-0.22823685" /><path
           sodipodi:type="star"
           style="fill:#000000"
           id="path1-5"
           inkscape:flatsided="false"
           sodipodi:sides="3"
           sodipodi:cx="-4.2679658"
           sodipodi:cy="5.2618756"
           sodipodi:r1="0.76004869"
           sodipodi:r2="0.33594152"
           sodipodi:arg1="1.5707963"
           sodipodi:arg2="2.6179939"
           inkscape:rounded="0"
           inkscape:randomized="0"
           d="m -4.2679658,6.0219243 -0.2909339,-0.5920779 -0.3672876,-0.5479951 0.6582215,0.044083 0.6582215,-0.044083 -0.3672876,0.5479951 z"
           inkscape:transform-center-y="0.027302655"
           transform="matrix(-0.29432621,5.0116498,-5.0116498,-0.29432621,895.87813,-50.016353)"
           inkscape:transform-center-x="0.20880535" /></g><path
         style="fill:#000000;fill-opacity:1;stroke:#000000;stroke-width:0.00572897;stroke-linecap:round;stroke-miterlimit:0"
         id="path9"
         sodipodi:type="arc"
         sodipodi:cx="31.084013"
         sodipodi:cy="26.367844"
         sodipodi:rx="0.10866871"
         sodipodi:ry="17.151642"
         sodipodi:start="0.027304543"
         sodipodi:end="5.1136159"
         sodipodi:open="true"
         sodipodi:arc-type="arc"
         d="m 31.192641,26.836103 a 0.10866871,17.151642 0 0 1 -0.07944,16.053208 0.10866871,17.151642 0 0 1 -0.120608,-7.249545 0.10866871,17.151642 0 0 1 0.0083,-20.327155 0.10866871,17.151642 0 0 1 0.125523,-4.734269" /><path
         style="fill:#000000;fill-opacity:1;stroke:#000000;stroke-width:0.00572897;stroke-linecap:round;stroke-miterlimit:0"
         id="path9-4"
         sodipodi:type="arc"
         sodipodi:cx="-47.854034"
         sodipodi:cy="30.88131"
         sodipodi:rx="0.10866871"
         sodipodi:ry="17.151642"
         sodipodi:start="0.027304543"
         sodipodi:end="5.1136159"
         sodipodi:open="true"
         sodipodi:arc-type="arc"
         d="m -47.745406,31.349569 a 0.10866871,17.151642 0 0 1 -0.07944,16.053207 0.10866871,17.151642 0 0 1 -0.120607,-7.249544 0.10866871,17.151642 0 0 1 0.0083,-20.327155 0.10866871,17.151642 0 0 1 0.125524,-4.734269"
         transform="rotate(-90)" /><rect
         style="fill:url(#radialGradient2);fill-opacity:1;stroke:none;stroke-width:0.162987;stroke-linecap:round;stroke-miterlimit:0;stroke-dasharray:none;stroke-opacity:1"
         id="rect10"
         width="12.439079"
         height="6.4851332"
         x="50.193684"
         y="-0.41517097" /><text
         xml:space="preserve"
         style="font-style:normal;font-variant:normal;font-weight:normal;font-stretch:normal;font-size:4.23333px;font-family:Caladea;-inkscape-font-specification:'Caladea, Normal';font-variant-ligatures:normal;font-variant-caps:normal;font-variant-numeric:normal;font-variant-east-asian:normal;text-align:start;writing-mode:lr-tb;direction:ltr;text-anchor:start;fill:#000000;fill-opacity:1;stroke-width:0.264583"
         x="53.347073"
         y="4.4512143"
         id="text3-3"><tspan
           sodipodi:role="line"
           id="tspan15"
           x="53.347073"
           y="4.4512143">1x0</tspan></text><rect
         style="opacity:0.5;fill:none;fill-opacity:1;stroke:#000000;stroke-width:0.341035;stroke-dasharray:none"
         id="rect16"
         width="62.658962"
         height="87.658966"
         x="0.1705175"
         y="0.1705175"
         rx="0.14405258"
         ry="0.14209248" /></g><g
       id="g2"
       inkscape:label="longsword"
       transform="matrix(0.41673898,0,0,0.41673898,5.9183131,22.731344)"><g
         id="g1"
         transform="matrix(0.26458333,0,0,0.26458333,-1.4020429,-30.01977)"><path
           fill="#aa826d"
           d="m 219.5597,302.06292 c 0.26151,1.63796 0.18166,3.47832 0.17448,5.13996 l 0.0189,5.97823 c -0.49075,-0.56532 -0.46843,-1.39292 -0.67835,-2.10798 -0.73459,-2.50095 -1.52723,-4.95904 -2.02022,-7.52409 z"
           id="path2"
           style="stroke-width:0.27195" /><path
           fill="#61210f"
           d="m 212.98954,306.19555 c 0.98802,2.10437 1.64978,4.74172 2.15199,7.01444 l -7.05503,-3.81395 z"
           id="path3"
           style="stroke-width:0.27195" /><path
           fill="#ac6c45"
           d="m 219.7531,313.18111 0.1151,2.75979 -4.72221,-2.70491 -0.004,-0.0261 c -0.50219,-2.27272 -1.16396,-4.91006 -2.15198,-7.01446 l 0.0207,-0.0739 4.0448,-2.57224 c 0.49301,2.56504 1.28566,5.02314 2.02023,7.52411 0.20991,0.71502 0.18757,1.54263 0.67836,2.10795 z"
           id="path4"
           style="stroke-width:0.27195" /><path
           fill="#455966"
           d="m 213.00973,306.12128 -0.0207,0.0739 -4.90305,3.2005 c -0.678,0.56134 -1.28077,0.99757 -2.0831,1.36764 L 205.23156,309.63 c -0.50065,-0.86341 -0.99813,-1.74807 -1.57945,-2.55978 l -2.3074,-2.94265 c -0.32888,-0.4019 -0.93059,-0.96101 -1.1026,-1.44055 l 2.51569,-1.56687 c 1.69872,-0.77577 3.42486,-2.1799 4.87014,-3.3571 l 0.10021,0.003 c 0.004,0.35343 0.11891,0.5225 0.27575,0.82769 0.44265,0.43411 0.85343,1.20943 1.21045,1.73219 1.05614,1.54752 2.1606,3.12062 3.04909,4.77084 l 0.0795,0.0958 c 0.19441,0.33734 0.42317,0.62632 0.66639,0.92821 z"
           id="path5-0"
           style="stroke-width:0.27195" /><path
           fill="#82a0b4"
           d="m 213.00973,306.12128 -0.0207,0.0739 -4.90305,3.2005 c -0.678,0.56134 -1.28077,0.99757 -2.0831,1.36764 L 205.23156,309.63 c 1.173,-0.33301 2.33866,-1.33177 3.34628,-2.00723 1.22109,-0.81808 2.55873,-1.58325 3.68547,-2.5259 l 0.0795,0.0958 c 0.19441,0.33734 0.42316,0.62633 0.66639,0.92822 z"
           id="path6-9"
           style="stroke-width:0.27195" /><path
           fill="#99bdcc"
           d="m 216.4758,292.77136 1.40594,2.5281 2.09016,3.3086 c 0.1143,0.17637 0.55223,0.71063 0.58224,0.89488 0.0198,0.11779 -0.0368,0.23576 -0.0553,0.35347 -0.0941,0.59382 -0.23457,0.88719 -0.58251,1.37268 -0.16974,0.23677 -0.23125,0.43086 -0.31565,0.70616 l -0.0401,0.12787 -2.50521,1.48613 -4.04478,2.57226 c -0.24325,-0.3019 -0.47199,-0.59088 -0.6664,-0.92824 l -0.0795,-0.0958 c -0.88849,-1.65022 -1.99294,-3.22331 -3.04906,-4.77083 -0.35705,-0.52276 -0.76784,-1.29809 -1.21049,-1.73219 l 4.02508,-2.70813 2.52043,-1.66975 c 0.69004,-0.41556 1.49112,-0.73608 1.92603,-1.44496 z"
           id="path7-4"
           style="stroke-width:0.27195" /><path
           fill="#daeaf7"
           d="m 220.49859,299.85636 c -0.0941,0.59382 -0.23458,0.8872 -0.58251,1.3727 -0.16976,0.23677 -0.23126,0.43084 -0.31565,0.70614 l -0.0401,0.12788 -2.50518,1.48611 -4.04479,2.57227 c -0.24324,-0.30191 -0.47201,-0.59089 -0.66641,-0.92824 1.47793,-0.68237 2.89895,-1.81708 4.27455,-2.69771 1.31501,-0.87807 2.47703,-1.8825 3.88072,-2.63898 z"
           id="path8-8"
           style="stroke-width:0.27195" /><path
           fill="#b9d4e2"
           d="m 216.4758,292.77136 1.40594,2.5281 2.09016,3.3086 c 0.1143,0.17637 0.55223,0.71063 0.58224,0.89488 0.0198,0.11779 -0.0368,0.23576 -0.0553,0.35347 -1.40367,0.75647 -2.5657,1.7609 -3.88072,2.63897 -0.8066,-1.7238 -1.77455,-3.19657 -2.87756,-4.74395 -0.47747,-0.66986 -0.93886,-1.52017 -1.71096,-1.8653 l 2.52044,-1.66975 c 0.69004,-0.41555 1.4911,-0.73607 1.92601,-1.44497 z"
           id="path9-8"
           style="stroke-width:0.27195" /><path
           fill="#4c0904"
           d="m 207.62843,297.76341 c -1.44526,1.17721 -3.17142,2.58132 -4.87014,3.35709 l -35.28163,-51.96614 3.99868,-3.77161 c 0.43183,1.09072 1.11274,2.15384 1.69811,3.16993 l 4.33745,7.0458 3.70893,5.98941 c 0.55814,0.88432 1.09101,2.03997 1.91719,2.68175 l 0.40029,0.79745 c 0.47475,1.19466 1.5819,2.49302 2.29704,3.56697 0.65488,0.98306 1.23134,2.12302 1.99882,3.01362 l 0.63518,1.08146 c 0.43837,1.32786 1.78952,2.89537 2.56133,4.10347 l 2.37135,4.02582 4.38678,6.44259 c 0.19561,0.73341 4.48654,7.5413 5.1336,8.21947 0.17947,0.23553 0.23696,0.25205 0.49989,0.36287 0.6936,-7.5e-4 1.3645,0.0179 2.05712,-0.0594 0.71205,-0.0792 1.27554,-0.3073 1.9719,-0.055 l -0.0113,0.18627 -0.0308,0.11624 c -0.0991,0.62053 -0.15538,1.17988 0.2199,1.69193 z"
           id="path10"
           style="stroke-width:0.27195" /><path
           fill="#773c2c"
           d="m 216.4758,292.77136 c -0.43491,0.7089 -1.23597,1.02942 -1.92603,1.44498 l -2.52041,1.66974 -4.02508,2.70811 c -0.15683,-0.3052 -0.27173,-0.47425 -0.27574,-0.82767 l -0.10021,-0.003 c -0.37535,-0.51208 -0.31898,-1.0714 -0.2199,-1.69196 l 0.0308,-0.11624 0.0113,-0.18626 c -0.69634,-0.25228 -1.25985,-0.0242 -1.9719,0.0551 -0.69262,0.0774 -1.36351,0.0586 -2.05712,0.0595 -0.26296,-0.11071 -0.32043,-0.12739 -0.49987,-0.36286 -0.64707,-0.67821 -4.93803,-7.48609 -5.13362,-8.21949 l -4.38678,-6.44259 -2.37135,-4.02581 c -0.77182,-1.20813 -2.12297,-2.77562 -2.56133,-4.10347 l -0.63518,-1.08147 c -0.76748,-0.89059 -1.34394,-2.03056 -1.99882,-3.01363 -0.71514,-1.07394 -1.82229,-2.3723 -2.29701,-3.56696 l -0.40032,-0.79744 c -0.82618,-0.64176 -1.35905,-1.79745 -1.91719,-2.68176 l -3.70894,-5.98939 -4.33743,-7.04584 c -0.58538,-1.01606 -1.26629,-2.0792 -1.69812,-3.1699 l 0.0114,-0.0795 c 0.31288,-0.1847 0.58428,-0.46175 0.85897,-0.70004 l 0.19775,0.0299 3.5607,-1.73946 1.16337,-0.63516 c 0.82106,-0.45152 1.68954,-0.82619 2.45021,-1.37688 l 32.34395,50.39672 1.58554,2.20493 0.0343,-0.0471 c 0.43148,-0.39527 1.75215,-1.40066 2.29165,-1.45308 z"
           id="path11"
           style="stroke-width:0.27195" /><path
           fill="#597489"
           d="m 216.4758,292.77136 c -0.43491,0.7089 -1.23597,1.02942 -1.92603,1.44498 l -2.52041,1.66974 -4.02508,2.70811 c -0.15683,-0.3052 -0.27173,-0.47425 -0.27574,-0.82767 l -0.10021,-0.003 c -0.37535,-0.51208 -0.31898,-1.0714 -0.2199,-1.69196 l 0.0308,-0.11624 0.15775,0.0589 0.1975,-0.41415 c 0.36083,-0.17497 0.75683,-0.2784 1.13857,-0.39915 0.26947,-0.0927 0.49733,-0.21572 0.74731,-0.34931 0.54793,-0.0788 1.11463,0.0511 1.6581,0.13171 0.45427,-0.30393 0.86817,-0.55948 1.3861,-0.74176 l 0.12589,-0.0424 c 0.33056,-0.20301 0.63583,-0.34348 0.79662,-0.71689 l 0.0343,-0.0471 c 0.43148,-0.39529 1.75217,-1.40067 2.29166,-1.45309 z"
           id="path12"
           style="stroke-width:0.27195" /><path
           fill="#4c0904"
           d="m 212.85032,294.19893 -5.05401,3.4842 -0.0678,0.0834 -0.10031,-0.003 c -0.37535,-0.51207 -0.31897,-1.07141 -0.21991,-1.69197 l 0.0308,-0.11622 0.15775,0.0588 0.19747,-0.41418 c 0.36086,-0.17495 0.75683,-0.2784 1.13858,-0.39912 0.26949,-0.0927 0.49733,-0.21573 0.74731,-0.34933 0.54794,-0.0789 1.11463,0.0511 1.65811,0.13172 0.45426,-0.30393 0.86818,-0.55948 1.38609,-0.74176 z"
           id="path13"
           style="stroke-width:0.27195" /><path
           fill="#61210f"
           d="m 208.93288,295.20077 c -0.12082,1.20623 -0.71898,1.46044 -1.13657,2.48236 l -0.0678,0.0834 -0.10031,-0.003 c -0.37535,-0.51207 -0.31897,-1.07141 -0.21991,-1.69197 l 0.0308,-0.11622 0.15775,0.0588 0.19747,-0.41418 c 0.36086,-0.17495 0.75683,-0.2784 1.13858,-0.39912 z"
           id="path14"
           style="stroke-width:0.27195" /><path
           fill="#61210f"
           d="m 203.4213,295.88336 c 0.68359,-0.69559 0.93287,-1.91776 1.1747,-2.83788 0.65949,-2.5066 1.06189,-5.05158 1.47143,-7.60735 1.11818,2.51747 1.0492,5.17309 1.14002,7.87388 0.0238,0.70536 -0.0365,1.53447 0.16188,2.20546 l 0.0805,0.25146 c -0.69636,-0.25227 -1.25985,-0.0242 -1.97191,0.055 -0.69262,0.0774 -1.36351,0.0587 -2.05712,0.0594 z"
           id="path15"
           style="stroke-width:0.27195" /><path
           fill="#61210f"
           d="m 183.53731,265.06709 c 0.47944,-0.66851 0.76559,-1.61141 1.04394,-2.3859 0.85887,-2.38874 1.40953,-4.84697 1.94016,-7.32549 0.48466,1.85262 0.71096,3.75901 0.70464,5.67279 -0.007,2.30327 -0.28598,4.59413 -0.13091,6.89718 0.0862,1.28067 0.47743,2.47338 0.73803,3.72201 -0.76748,-0.8906 -1.34394,-2.03056 -1.99882,-3.01362 -0.71514,-1.07395 -1.82229,-2.37231 -2.29704,-3.56697 z"
           id="path16"
           style="stroke-width:0.27195" /><path
           fill="#61210f"
           d="m 177.26724,242.25727 c 0.67655,3.51834 -0.13559,7.10683 0.25592,10.62752 0.0877,0.79021 0.35826,1.59068 0.58291,2.35104 0.11597,0.39276 0.22628,1.0268 0.49247,1.32991 1.49031,-3.0567 2.11014,-6.01957 2.75539,-9.33373 0.35096,1.0198 0.69615,1.97987 0.82277,3.05923 0.42133,3.59095 -0.37771,7.29337 0.11937,10.86379 0.14699,1.05629 0.52621,2.09795 0.84095,3.11461 -0.82618,-0.64178 -1.35905,-1.79743 -1.91719,-2.68175 l -3.70893,-5.98941 -4.33745,-7.0458 c -0.58537,-1.01609 -1.26628,-2.07921 -1.69811,-3.16993 l 0.0113,-0.0795 c 0.31287,-0.1847 0.58427,-0.46176 0.85895,-0.70006 l 0.19776,0.0299 3.56071,-1.73945 z"
           id="path17"
           style="stroke-width:0.27195" /><path
           fill="#773c2c"
           d="m 176.10388,242.89246 c -0.63246,2.13791 -1.32986,4.10138 -2.2221,6.13982 l -1.33861,-4.40037 z"
           id="path18"
           style="stroke-width:0.27195" /><path
           fill="#61210f"
           d="m 197.82508,286.28036 0.69746,1.49663 c 1.47009,-3.19516 2.07845,-6.90758 2.51026,-10.36927 1.82847,4.50443 0.32469,9.27967 0.77795,13.93565 0.0789,0.81022 0.26339,1.56089 0.53935,2.32638 0.24442,0.67775 0.56537,1.10142 0.57131,1.85074 -0.64706,-0.67817 -4.93799,-7.48606 -5.1336,-8.21947 l -4.38678,-6.44259 -2.37135,-4.02582 c -0.77181,-1.2081 -2.12296,-2.77561 -2.56133,-4.10347 0.53715,-1.45995 1.16714,-2.85231 1.58635,-4.35933 l 1.21551,-5.2468 c 1.11131,2.96072 0.79307,6.83411 0.75993,9.95335 -0.014,1.3002 -0.0845,2.62588 0.18045,3.90769 0.22445,1.0859 0.79047,2.19574 1.26214,3.19841 0.91642,-2.04198 1.76377,-3.90897 2.20858,-6.12659 0.27361,-1.36535 0.37462,-2.73876 0.70319,-4.0989 0.62761,2.26671 0.83934,4.63702 0.82641,6.98662 -0.0125,2.24734 -0.37865,4.65681 -0.0864,6.88224 0.11266,0.85686 0.40295,1.64934 0.7006,2.45453 z"
           id="path19"
           style="stroke-width:0.27195" /><path
           fill="url(#gradient_0)"
           d="m 200.42833,220.30938 0.65084,0.87223 c -4.05269,5.73516 -9.31185,11.0768 -14.93485,15.27897 l -3.73992,2.60706 c -0.81884,0.53023 -2.03817,1.11847 -2.68696,1.81278 -0.76067,0.55068 -1.62915,0.92534 -2.4502,1.37685 l -1.16336,0.63519 -3.56071,1.73945 -0.19775,-0.0299 c -0.27469,0.2383 -0.54611,0.51537 -0.85897,0.70006 l -0.0113,0.0795 -3.99866,3.77161 c -3.86595,3.23451 -7.99578,6.14914 -12.36848,8.65739 -2.7088,1.55369 -5.53735,2.86772 -8.34655,4.2235 -1.5011,0.72453 -3.59115,2.04025 -5.26365,2.16894 l -1.13567,-1.26991 c -0.79837,-0.83161 -1.61284,-1.68804 -2.24511,-2.65722 l -0.6622,-0.73824 -1.54973,-1.73137 c 2.22239,-0.62728 4.29149,-1.59367 6.34731,-2.63584 5.51905,-2.79754 10.38311,-6.40775 14.30495,-11.21403 1.00206,-0.99377 1.78542,-2.40769 2.49697,-3.62279 l 0.51469,-0.84648 c 1.08152,-2.72494 1.74476,-5.44823 2.20394,-8.33999 0.0914,-0.57967 0.0402,-1.53213 0.4695,-1.90904 l 0.18711,0.102 c 2.84226,1.14674 5.92505,2.13791 9.03069,2.02691 l 1.23696,-0.0476 c 1.58887,-0.36636 2.97252,-0.67622 4.51321,-1.28333 4.45458,-2.11409 8.46567,-5.16366 12.18971,-8.36973 2.41664,-2.08043 4.8665,-4.33641 6.86863,-6.81918 l 2.19986,2.90661 z"
           id="path20"
           style="fill:url(#gradient_0);stroke-width:0.27195" /><path
           fill="#aa826d"
           d="m 200.42833,220.30938 0.65084,0.87223 c -4.05269,5.73516 -9.31185,11.0768 -14.93485,15.27897 l -3.73992,2.60706 c -0.81884,0.53023 -2.03817,1.11847 -2.68696,1.81278 -0.76067,0.55068 -1.62915,0.92534 -2.4502,1.37685 l -1.16336,0.63519 -3.56071,1.73945 -0.19775,-0.0299 -0.64507,-1.03572 c 1.90956,-1.00243 3.86173,-1.94683 5.7103,-3.06154 5.58622,-3.36895 10.95668,-7.51903 15.58532,-12.11736 l 4.08986,-4.48987 c 1.05528,-1.23254 1.92826,-2.73715 3.34269,-3.58926 z"
           id="path21"
           style="stroke-width:0.27195" /><path
           fill="#773c2c"
           d="m 167.65338,237.37611 4.00914,6.09164 c -0.26739,0.40892 -0.74927,0.74975 -1.11575,1.0772 l -5.44083,4.68192 c -4.28001,3.3849 -8.93687,6.56919 -13.80475,9.04656 -3.23164,1.64488 -6.52464,2.92181 -9.93435,4.13169 l -1.00451,0.52915 c -0.79837,-0.83159 -1.61285,-1.68803 -2.24512,-2.65721 l -0.66218,-0.73825 c 1.69598,-0.069 3.8357,-0.76641 5.47022,-1.25787 8.25775,-2.48214 16.49839,-7.8085 21.44795,-14.95061 1.30551,-1.8839 2.20121,-3.94689 3.28018,-5.95422 z"
           id="path22"
           style="stroke-width:0.27195" /><path
           fill="#ac6c45"
           d="m 141.36684,262.40512 -1.00451,0.52915 c -0.79837,-0.83159 -1.61285,-1.68803 -2.24512,-2.65721 1.27132,0.40172 2.10895,1.48926 3.24963,2.12806 z"
           id="path23"
           style="stroke-width:0.27195" /><path
           fill="#773c2c"
           d="m 198.46892,217.75505 c -0.38275,1.28867 -1.42388,2.42399 -2.27619,3.4395 -4.04945,4.8246 -9.19624,8.99606 -14.72444,12.01402 -2.59231,1.41517 -5.10578,2.43287 -8.07375,2.67234 -2.33282,0.18772 -4.82576,-0.68416 -6.8436,-1.79608 -0.58061,-0.3198 -1.14959,-0.81251 -1.76087,-1.04921 -0.71491,-0.90708 -2.10713,-2.59896 -2.36022,-3.69433 2.84228,1.14675 5.92505,2.13791 9.03068,2.02692 l 1.23697,-0.0476 c 1.58886,-0.36635 2.97253,-0.67622 4.51319,-1.28332 4.45463,-2.1141 8.4657,-5.16366 12.18972,-8.36975 2.41667,-2.08043 4.86652,-4.33641 6.86867,-6.81917 z"
           id="path24"
           style="stroke-width:0.27195" /><path
           fill="#61210f"
           d="m 167.65338,237.37611 c -1.07897,2.00733 -1.97467,4.07032 -3.28018,5.95422 -4.94956,7.14211 -13.1902,12.46847 -21.44795,14.95061 -1.63452,0.49146 -3.77424,1.18886 -5.47022,1.25787 l -1.54974,-1.73136 c 2.22239,-0.62729 4.2915,-1.59367 6.3473,-2.63585 5.51906,-2.7975 10.38312,-6.40774 14.30495,-11.21403 1.00208,-0.99375 1.78544,-2.40768 2.49697,-3.62279 l 0.51471,-0.84645 c 1.08151,-2.72496 1.74475,-5.44825 2.20393,-8.34002 0.0914,-0.57965 0.0402,-1.53212 0.46948,-1.90903 l 0.18714,0.102 c 0.25308,1.09537 1.64531,2.78725 2.36021,3.69432 z"
           id="path25"
           style="stroke-width:0.27195" /><path
           fill="#AA826D"
           d="m 177.21071,230.03734 c -1.54068,0.60711 -2.92435,0.91698 -4.51321,1.28333 L 83.573062,101.00082 63.346025,71.32347 58.964246,64.964235 C 58.084814,63.678872 57.206744,62.094472 56.07381,61.033068 53.671732,58.782881 35.063963,42.747231 33.490391,42.627932 32.181809,40.925071 22.554331,27.626566 22.147795,27.516019 c -0.145322,-0.2837 -0.114326,-0.24804 -0.07606,-0.535818 1.064053,0.27861 2.250744,1.177292 3.227552,1.699091 3.849385,2.056165 7.379929,4.516692 10.907573,7.073164 6.830777,4.950254 13.564168,10.461707 19.084161,16.873155 2.56689,2.98119 4.781738,6.20454 7.00126,9.445907 l 7.083007,10.394643 22.116316,32.256279 51.609636,75.50728 24.1881,35.39356 z"
           id="path26"
           style="fill:#d2bcb1;fill-opacity:1;stroke-width:0.27195" /><path
           fill="#773C2C"
           d="m 159.56922,239.48833 -0.51471,0.84645 c -0.71153,1.21511 -1.49489,2.62904 -2.49697,3.62279 L 146.57838,229.42741 134.11606,211.12612 67.934877,114.41754 46.907624,83.294993 C 43.776951,78.581743 40.390117,74.093344 37.665313,69.119171 31.962832,58.709751 27.361984,48.114782 24.241395,36.639511 c -0.806786,-2.966605 -1.661874,-6.079605 -2.0936,-9.123492 0.406536,0.110547 10.034014,13.409052 11.342596,15.111913 l 2.448629,3.52819 c 0.174145,1.223989 0.802395,2.500564 1.1826,3.685953 l 5.164179,14.941433 c 0.760495,2.161953 1.337815,4.495384 2.271875,6.579231 L 137.16266,207.03012 c 0.30347,0.21851 0.62848,0.88689 0.85753,1.22155 l 2.34881,3.40453 11.10732,16.27364 c 2.59062,3.86853 5.09635,7.98848 8.0929,11.55849 z"
           id="path27"
           style="fill:#c5b3af;fill-opacity:1;stroke-width:0.27195" /><path
           fill="#4c3634"
           d="m 159.56922,239.48833 -0.51471,0.84645 c -1.54057,-1.87736 -2.82408,-3.99793 -4.16264,-6.02171 l -6.53556,-9.97509 -7.71725,-11.14041 -2.58013,-3.91746 c -0.14988,-0.22203 -0.78212,-0.98597 -0.80168,-1.21117 l -9.26842,-13.44297 -17.0545,-24.89463 -2.93867,-4.60039 -4.07978,-5.97947 c -0.92743,-1.40659 -1.71719,-2.96461 -2.80764,-4.25159 -0.838,-0.98887 -1.575174,-2.12445 -2.350724,-3.16948 L 92.587193,142.97499 78.907205,122.87018 52.498616,84.075199 46.665137,75.531487 C 45.905689,74.341722 44.708163,72.772082 44.557674,71.362739 L 137.16266,207.03012 c 0.30347,0.21851 0.62848,0.88689 0.85753,1.22155 l 2.34881,3.40453 11.10732,16.27364 c 2.59062,3.86853 5.09635,7.98848 8.0929,11.55849 z"
           id="path28"
           style="stroke-width:0.27195" /><path
           fill="#bab9ba"
           d="m 33.490391,42.627932 c 1.573574,0.119297 20.181341,16.154949 22.583419,18.405136 1.132934,1.061404 2.011004,2.645804 2.890436,3.931167 l 4.381779,6.359235 20.227037,29.67735 89.124438,130.31985 -1.23696,0.0476 c -3.10564,0.11099 -6.18841,-0.88016 -9.03069,-2.02692 l -0.18711,-0.102 c -0.83385,-0.91151 -1.46058,-2.16789 -2.15053,-3.20034 l -5.21049,-7.75386 -20.42014,-29.9987 L 62.274274,83.050739 44.279181,57.314394 38.35803,49.252833 C 37.587796,48.23422 36.855372,47.031502 35.93902,46.156122 Z"
           id="path29"
           style="stroke-width:0.27195" /><path
           fill="#908e8c"
           d="m 35.93902,46.156122 c 0.916352,0.87538 1.648776,2.078098 2.41901,3.096711 l 5.921151,8.061561 17.995093,25.736345 72.187306,105.235711 20.42015,29.9987 5.21047,7.75383 c 0.68995,1.03244 1.31668,2.28883 2.15053,3.20032 -0.42935,0.37689 -0.3777,1.32944 -0.4695,1.90902 -0.45911,2.8918 -1.12239,5.61508 -2.20392,8.34002 -2.99657,-3.57001 -5.50229,-7.68995 -8.0929,-11.5585 l -11.10736,-16.27363 -2.34882,-3.40452 c -0.22905,-0.33468 -0.55406,-1.00307 -0.85753,-1.22155 L 44.557674,71.362739 c -0.93406,-2.083847 -1.51138,-4.417278 -2.271875,-6.579231 L 37.12162,49.842075 c -0.380205,-1.185389 -1.00845,-2.461965 -1.1826,-3.685953 z"
           id="path30"
           style="stroke-width:0.27195" /></g></g><text
       xml:space="preserve"
       style="font-style:normal;font-variant:normal;font-weight:normal;font-stretch:normal;font-size:2.82222px;font-family:Caladea;-inkscape-font-specification:'Caladea, Normal';font-variant-ligatures:normal;font-variant-caps:normal;font-variant-numeric:normal;font-variant-east-asian:normal;text-align:start;writing-mode:lr-tb;direction:ltr;text-anchor:start;fill:#000000;fill-opacity:1;stroke-width:0.264583"
       x="23.521418"
       y="7.8944912"
       id="text6"
       inkscape:label="titles"><tspan
         sodipodi:role="line"
         id="tspan2">Sword: Long</tspan></text><text
       xml:space="preserve"
       style="font-style:normal;font-variant:normal;font-weight:normal;font-stretch:normal;font-size:1.94028px;font-family:Caladea;-inkscape-font-specification:'Caladea, Normal';font-variant-ligatures:normal;font-variant-caps:normal;font-variant-numeric:normal;font-variant-east-asian:normal;text-align:start;writing-mode:lr-tb;direction:ltr;text-anchor:start;fill:#000000;fill-opacity:1;stroke-width:0.264583"
       x="33.768822"
       y="14.912853"
       id="text6-7"><tspan
         sodipodi:role="line"
         id="tspan4">mass:1.25kg/5lb length:0.1m/4ft</tspan></text><text
       xml:space="preserve"
       style="font-style:normal;font-variant:normal;font-weight:normal;font-stretch:normal;font-size:4.23333px;font-family:Caladea;-inkscape-font-specification:'Caladea, Normal';font-variant-ligatures:normal;font-variant-caps:normal;font-variant-numeric:normal;font-variant-east-asian:normal;text-align:start;writing-mode:lr-tb;direction:ltr;text-anchor:start;fill:#000000;fill-opacity:1;stroke-width:0.264583"
       x="50.245846"
       y="12.100981"
       id="text3"><tspan
         sodipodi:role="line"
         id="tspan3"
         x="50.245846"
         y="12.100981">10x-1</tspan></text><text
       xml:space="preserve"
       style="font-style:normal;font-variant:normal;font-weight:normal;font-stretch:normal;font-size:2.82222px;font-family:Caladea;-inkscape-font-specification:'Caladea, Normal';font-variant-ligatures:normal;font-variant-caps:normal;font-variant-numeric:normal;font-variant-east-asian:normal;text-align:start;writing-mode:lr-tb;direction:ltr;text-anchor:start;fill:#000000;fill-opacity:1;stroke-width:0.264583"
       x="4.9348831"
       y="52.328762"
       id="text6-0"><tspan
         sodipodi:role="line"
         id="tspan7">* [Weapon]: Rating:[Body]+2 [Pierce] [Slash]</tspan></text><text
       xml:space="preserve"
       style="font-style:normal;font-variant:normal;font-weight:normal;font-stretch:normal;font-size:2.82222px;font-family:Caladea;-inkscape-font-specification:'Caladea, Normal';font-variant-ligatures:normal;font-variant-caps:normal;font-variant-numeric:normal;font-variant-east-asian:normal;text-align:start;writing-mode:lr-tb;direction:ltr;text-anchor:start;fill:#000000;fill-opacity:1;stroke-width:0.264583"
       x="6.6865454"
       y="55.547207"
       id="text6-0-1"><tspan
         sodipodi:role="line"
         id="tspan6"
         x="6.6865454"
         y="55.547207">[1-Handed] [Melee Weapon]</tspan></text><text
       xml:space="preserve"
       style="font-style:normal;font-variant:normal;font-weight:normal;font-stretch:normal;font-size:2.82222px;font-family:Caladea;-inkscape-font-specification:'Caladea, Normal';font-variant-ligatures:normal;font-variant-caps:normal;font-variant-numeric:normal;font-variant-east-asian:normal;text-align:start;writing-mode:lr-tb;direction:ltr;text-anchor:start;fill:#000000;fill-opacity:1;stroke-width:0.264583"
       x="4.6500759"
       y="59.037003"
       id="text6-0-1-8"><tspan
         sodipodi:role="line"
         id="tspan5">* [Armor]: 2x1</tspan></text></g></svg>
