<?xml version="1.0" encoding="UTF-8" standalone="no"?>
<!-- Created with Inkscape (http://www.inkscape.org/) -->

<svg
   width="63mm"
   height="88mm"
   viewBox="0 0 63 88"
   version="1.1"
   id="svg1"
   inkscape:version="1.3.2 (091e20e, 2023-11-25, custom)"
   xml:space="preserve"
   sodipodi:docname="card-hitlocation-chest.svg"
   xmlns:inkscape="http://www.inkscape.org/namespaces/inkscape"
   xmlns:sodipodi="http://sodipodi.sourceforge.net/DTD/sodipodi-0.dtd"
   xmlns="http://www.w3.org/2000/svg"
   xmlns:svg="http://www.w3.org/2000/svg"><sodipodi:namedview
     id="namedview1"
     pagecolor="#ffffff"
     bordercolor="#000000"
     borderopacity="0.25"
     inkscape:showpageshadow="2"
     inkscape:pageopacity="0.0"
     inkscape:pagecheckerboard="0"
     inkscape:deskcolor="#d1d1d1"
     inkscape:document-units="mm"
     inkscape:zoom="2.9255611"
     inkscape:cx="25.465201"
     inkscape:cy="240.12488"
     inkscape:window-width="1350"
     inkscape:window-height="1017"
     inkscape:window-x="228"
     inkscape:window-y="0"
     inkscape:window-maximized="0"
     inkscape:current-layer="g1" /><defs
     id="defs1" /><g
     inkscape:label="Layer 1"
     inkscape:groupmode="layer"
     id="layer1"><g
       id="g1"
       transform="matrix(0.06087197,0,0,0.06087197,0.03359486,0.54402301)"><path
         id="path2"
         style="fill:none;stroke:#e6e6e6;stroke-width:4.92837673;stroke-dasharray:none;stroke-opacity:1"
         d="m 1191.6331,880.39539 -160.7477,68.12512 4.0253,46.52756 c 3.12,25.03163 8.3658,50.49393 14.3045,75.00693 6.604,27.2583 16.933,54.7908 28.4576,80.3953 25.3818,56.4039 80.8162,145.8713 64.1865,209.6341 -0.5077,1.9497 -1.0521,3.8125 -1.8395,5.6698 -7.7391,18.2755 -24.587,32.7235 -33.6298,50.4014 -7.0658,13.8057 -8.3376,29.717 -10.3009,44.8613 l -6.5573,60.0747 c -0.7221,10.0773 -3.0983,21.1811 -0.6924,31.0546 l 4.5446,4.5227 c 7.8451,-1.5042 15.9431,-6.8392 21.0781,-12.9626 3.2857,-22.2997 5.0196,-59.657 24.3675,-74.0764 2.9789,-2.2185 3.2212,-2.046 6.8601,-1.7744 10.4112,20.5048 10.915,45.8422 3.8737,67.2377 -4.611,14.0093 -12.3622,30.7861 -20.8401,42.9353 -7.5708,10.8484 -25.9659,24.6641 -29.5396,36.8759 -0.6014,2.0528 -0.038,6.2671 -0.042,8.5481 4.038,4.801 4.3888,5.5072 10.4091,6.9899 41.4387,-12.1628 95.9247,-41.9122 117.2713,-80.1574 6.2239,-11.1552 9.8073,-24.514 11.5778,-37.1139 l 0.4111,-2.7267 c 2.015,-14.6746 -0.9633,-31.5229 -2.2721,-46.2464 -1.9227,-21.5989 -3.0677,-42.8601 -2.3373,-64.5544 l 8.7214,-108.9395 c 9.6997,-110.8035 17.9836,-224.17 -16.6635,-331.70949 -8.6706,-26.90862 -20.3379,-53.84213 -34.6252,-78.59922 z" /><path
         id="path5"
         style="fill:none;stroke:#e6e6e6;stroke-width:4.92837673;stroke-dasharray:none;stroke-opacity:1"
         d="m 863.927,298.69169 17.96184,375.5322 c 23.09538,63.2867 62.95202,115.86794 90.1121,155.68359 l 35.25276,49.81696 c 6.1643,8.3991 15.6937,18.66338 19.5416,28.3277 3.0442,7.64153 2.3701,19.12331 2.9649,27.33236 l 1.1252,13.13601 160.7477,-68.12512 c -2.448,-4.24166 -4.8116,-8.56754 -7.4229,-12.6599 l -18.5677,-27.33228 c -2.2321,-3.1609 -6.8335,-8.00251 -8.0937,-11.31815 -1.0808,-2.84579 -0.5322,-9.71237 -0.7141,-12.94115 l -2.4455,-35.57735 c -3.8533,-36.20861 -10.8556,-72.74136 -23.5234,-106.97032 -10.7778,-29.11291 -24.2298,-58.15377 -39.7324,-85.06983 -6.5852,-11.42958 -16.4265,-22.83731 -21.7706,-34.60362 -1.6864,-3.70936 -1.5149,-7.7781 -1.5149,-11.75085 0,-68.37922 -19.6156,-141.51182 -69.48849,-190.84994 -28.17336,-27.8665 -68.1051,-47.96803 -107.87919,-51.1587 -6.49941,-0.52366 -18.85149,-0.0665 -26.55322,-1.47161 z" /><path
         id="path3"
         style="fill:none;stroke:#e6e6e6;stroke-width:4.92837673;stroke-dasharray:none;stroke-opacity:1"
         d="M -4.4084438,967.80249 -176.75545,899.26604 c -5.9946,12.9377 -11.20328,26.20652 -15.49481,39.99218 -13.94134,44.78408 -19.79863,92.20038 -23.30708,138.82548 -5.9171,78.6708 -3.09822,156.6106 2.77002,235.17 l 7.57426,78.4694 c 1.90349,31.4918 -5.23597,61.4084 -5.51839,92.4711 -0.27697,30.3918 9.44668,61.4659 28.37103,85.2863 20.27673,25.5229 59.44313,53.3276 92.276186,57.7159 2.97624,0.3991 4.7936,0.077 7.57428,-0.8873 2.37336,-4.1657 2.38854,-4.3917 0.99547,-9.0026 -2.74538,-9.1024 -12.49377,-19.8699 -17.70214,-28.0681 -20.757276,-32.6811 -37.465736,-75.0922 -24.021236,-113.5491 l 4.11175,-3.0946 c 7.34809,2.292 12.50869,8.4953 15.94924,15.1919 10.136916,19.7226 3.11021,52.1655 23.047396,65.42 5.31968,0.5132 5.58626,0.6766 10.45248,-2.2506 9.48801,-23.2584 4.75841,-103.334 -5.1505,-126.8366 -6.59315,-15.6358 -18.31163,-26.9036 -26.553216,-41.3338 -23.59228,-41.3083 -11.95942,-91.9387 4.306526,-133.372 24.8007,-63.179 64.41081,-119.1361 82.81917,-185.2233 8.7613802,-31.4513 8.0856102,-64.22017 9.8465702,-96.38781 z" /><path
         id="path6"
         style="fill:none;stroke:#e6e6e6;stroke-width:4.92837673;stroke-dasharray:none;stroke-opacity:1"
         d="m 178.23956,293.58453 c -0.10185,0.0432 -0.22351,0.15355 -0.32461,0.1947 -6.53625,2.66125 -20.8596,0.68168 -28.47923,1.38506 -10.40315,0.95853 -20.83676,3.17539 -30.85974,6.08106 -61.153084,17.72127 -112.0356038,63.12611 -135.665904,122.42173 -9.2545,23.22295 -13.83028,49.01349 -16.87982,73.75176 l -3.70056,43.8009 c -0.30684,4.01894 0.18659,12.58953 -1.21188,16.10067 -4.00536,10.04732 -16.95601,22.80738 -23.17726,32.52606 -18.45452,28.82511 -33.828,59.86675 -44.926216,92.25463 -9.69711,28.30089 -15.79579,57.54069 -20.53708,87.03907 -3.50847,21.84085 -5.84046,45.10455 -12.14046,66.32896 -3.66596,12.35009 -15.78846,24.47865 -22.44147,35.70721 -5.4303,9.16269 -10.22942,18.54754 -14.65078,28.0897 l 172.3470062,68.53645 c 1.40301,-25.62915 4.31742003,-50.88595 15.0403098,-74.72566 11.48935,-25.54476 37.43005,-46.16538 54.46978,-68.68776 C 91.194243,789.90249 144.38884,719.80213 165.2551,679.80715 Z" /><path
         id="path4"
         style="fill:none;stroke:#e6e6e6;stroke-width:4.92837673;stroke-dasharray:none;stroke-opacity:1"
         d="m 897.72977,2151.2921 -214.65455,3.4194 c -0.96292,8.7886 -1.71458,17.6291 -2.68343,26.3368 -4.68974,42.1447 -9.60572,85.7025 -5.38856,128.0917 7.96456,79.9709 46.4901,153.1147 62.62832,231.8374 6.42762,31.337 12.12296,62.9326 13.17923,95.0028 0.86622,26.2593 -1.35905,53.3038 1.03874,79.4 1.70538,18.574 7.15198,36.5512 10.06293,54.8809 2.5499,16.0488 -3.08972,34.9766 -6.47053,50.8342 -6.93806,32.5048 -15.00133,66.6393 -15.99252,99.9588 -0.32591,10.9705 -0.91681,22.4708 1.83947,33.1968 2.13176,8.2826 5.95072,16.2031 12.42182,21.987 5.47718,4.9152 12.49194,7.5517 19.58483,9.1542 17.91149,4.046 38.77188,3.1203 57.17491,3.4192 26.81007,0.4073 55.0602,1.7687 81.71532,-0.9738 8.30688,-0.8418 19.33066,-4.5144 24.99517,-10.9502 6.23749,-7.0874 5.87964,-19.2913 4.82608,-28.1981 -4.11125,-34.622 -23.70033,-61.1454 -39.71086,-90.8261 -19.34526,-35.8992 -38.92562,-81.4293 -41.93977,-122.1622 -1.99854,-27.0193 -0.18349,-55.2858 0.86566,-82.3863 2.56887,-66.476 8.10073,-136.4352 24.58376,-201.0644 11.81526,-46.2996 32.78893,-93.5968 36.18343,-141.4439 3.84842,-54.2164 -6.83103,-108.1366 -24.25945,-159.5142 z" /><path
         id="path7"
         style="fill:none;stroke:#e6e6e6;stroke-width:4.92837673;stroke-dasharray:none;stroke-opacity:1"
         d="m 348.74711,2158.8447 -214.33009,-9.1756 c -14.89821,49.1129 -25.65542,101.6014 -22.09521,151.1607 3.70657,51.6761 20.99305,102.087 32.59098,152.3512 16.32826,70.7651 24.02954,140.4138 27.50541,212.8368 1.12422,23.4619 3.30049,48.0069 1.81782,71.4144 -1.00475,15.886 -5.10882,31.8918 -11.0368,46.6357 -11.88023,29.5721 -27.7605,58.9595 -41.68008,87.6883 -13.2137,27.2909 -29.03926,49.057 -31.141078,80.8284 -0.418186,6.3542 -0.924091,14.3464 1.62306,20.3206 2.908321,6.8429 9.079658,9.0054 15.776118,11.1235 25.65334,8.0651 141.16865,9.1678 162.91164,-2.9431 10.95983,-6.1099 16.94649,-17.1972 20.01773,-28.9555 10.0826,-38.5318 -3.92102,-91.118 -12.03228,-129.3251 -3.25588,-15.3157 -7.99649,-31.6539 -7.22802,-47.4582 1.07537,-22.0498 9.39075,-44.0781 11.14499,-66.5884 1.96601,-25.2544 -0.29084,-51.0943 0.77907,-76.4571 1.9416,-45.9996 10.63985,-92.2307 21.7706,-136.7911 15.10641,-60.4745 42.39005,-118.2122 49.83869,-180.3975 6.16336,-51.4907 -1.72386,-104.7831 -6.23255,-156.268 z" /><path
         id="path8"
         style="fill:none;stroke:#e6e6e6;stroke-width:4.92837673;stroke-dasharray:none;stroke-opacity:1"
         d="m 877.27931,1494.1056 -722.04387,-22.1384 c -2.62554,11.912 -5.43455,23.8254 -7.53098,35.7289 -8.13841,46.2231 -10.53465,92.7838 -11.68602,139.6261 -1.03191,42.0089 -1.12492,85.1636 2.2939,127.0529 l 17.05293,134.151 c 7.09291,42.8483 19.13939,85.3314 16.10074,129.2602 -1.57774,22.8021 -13.96971,44.0141 -21.57585,65.2902 -5.36966,15.0224 -10.63305,30.6368 -15.47314,46.5926 l 214.33009,9.1756 c -0.0899,-1.0269 -0.19421,-2.0905 -0.28132,-3.116 -1.90071,-22.3487 -4.72046,-45.4707 -1.88277,-67.8872 3.22604,-25.4718 12.21684,-51.6583 20.51544,-75.8725 l 32.39626,-94.9163 58.66805,-223.2462 c 15.06554,-70.2336 27.65363,-138.1333 30.62166,-210.0668 l 51.72143,0.2164 2.6185,38.2609 c 13.95227,133.0106 48.26128,267.0452 87.8832,394.576 16.54002,53.2352 41.39302,105.1965 52.06766,159.9902 5.01566,25.7395 2.85068,51.9098 0,77.9283 l 214.65455,-3.4194 c -5.49438,-16.197 -11.58606,-32.1692 -18.19965,-47.7827 l -16.29562,-37.828 c -2.64468,-6.1481 -6.75969,-13.687 -7.53096,-20.2339 -2.1561,-18.3274 1.3247,-38.8193 4.37143,-56.8722 l 22.78776,-109.2858 c 23.76674,-129.5427 20.08788,-258.5037 -5.58342,-385.1839 z" /><path
         id="path9"
         style="fill:none;stroke:#e6e6e6;stroke-width:4.92837673;stroke-dasharray:none;stroke-opacity:1"
         d="m 778.42446,1163.9976 -514.87703,-9.2623 c -0.53015,3.5402 -1.07382,6.7343 -1.68798,8.7428 -3.09025,10.1151 -9.75475,20.2097 -13.93666,30.1456 l -36.20497,91.1509 c -21.99145,60.4325 -42.49835,123.7467 -56.48238,187.1926 l 722.04387,22.1384 c -9.31159,-45.9507 -21.33376,-91.6125 -36.24823,-136.8778 -20.04309,-60.8271 -44.66647,-120.4818 -60.22612,-182.7129 -0.88087,-3.5222 -1.58786,-7.0106 -2.3805,-10.5173 z" /><path
         id="path10"
         style="fill:none;stroke:#e6e6e6;stroke-width:4.92837673;stroke-dasharray:none;stroke-opacity:1"
         d="M 787.08071,859.14417 240.86792,848.9513 c 1.47442,2.87837 2.94676,5.75531 4.56622,8.43994 23.37869,79.63563 27.68985,92.15624 24.73537,176.45876 -0.61017,17.3626 -2.2601,91.757 -6.62208,120.8853 l 514.87703,9.2623 c -12.32022,-54.5011 -14.33173,-107.3448 -11.72932,-163.6042 2.69376,-58.2203 7.41176,-53.17182 17.35589,-124.52099 1.02993,-6.14854 2.022,-11.60443 3.02968,-16.72824 z" /><path
         id="path12"
         style="fill:none;stroke:#e6e6e6;stroke-width:4.92837673;stroke-dasharray:none;stroke-opacity:1"
         d="m 402.00507,163.24221 c -0.0128,0.0319 -0.008,0.31766 -0.0216,0.34625 -52.77554,41.38943 -113.90936,62.7222 -171.69778,95.43576 -11.92654,6.75073 -23.2236,14.41219 -34.40882,22.31158 -5.12263,3.6177 -11.91462,9.79834 -17.63721,12.24873 l -7.33626,218.18206 703.67103,9.69515 -10.64735,-222.77005 c -1.28556,-0.23449 -3.3692,-0.11929 -4.28482,-0.49772 -4.72496,-1.95515 -10.38156,-6.88699 -14.759,-9.75999 -11.53253,-7.56812 -22.95251,-15.40939 -34.99309,-22.16012 l -81.10949,-42.6323 C 693.73186,206.1973 659.25057,189.64678 629.12485,164.17274 l 0.0216,-0.93053 z" /><path
         id="path11"
         style="fill:none;stroke:#000000;stroke-width:4.92838;stroke-dasharray:none;stroke-opacity:1"
         d="m 874.57427,515.51887 -703.67095,-3.75228 -5.12294,163.83832 c -0.0535,-4.58129 0.85496,3.31483 3.65631,8.22053 2.53155,5.20365 18.40622,61.95208 31.02794,78.60611 17.95203,23.68288 26.29707,58.98204 40.40329,86.51975 l 546.21279,10.19287 c 7.68964,-39.10124 16.17393,-52.37446 47.47984,-99.0715 33.65686,-50.20402 43.47442,-79.92675 45.05702,-82.75021 0,0 1.60941,-7.67516 1.74599,-7.30081 z"
         sodipodi:nodetypes="cccccccsccc" /><path
         id="path1"
         style="fill:none;stroke:#e6e6e6;stroke-width:4.92837673;stroke-dasharray:none;stroke-opacity:1"
         d="m 518.6811,-303.96017 c -5.76763,-0.26081 -11.7559,-0.53786 -17.50736,0.0434 -39.43466,4.77116 -75.58178,19.79974 -100.58616,51.93781 -30.6962,39.45095 -33.98867,114.69652 -27.87332,163.236256 -3.66323,3.65241 -4.82302,1.75858 -8.39661,3.80877 -5.47449,3.13913 -7.60938,11.73953 -7.6392,17.52902 -0.0625,12.18993 3.12093,23.71604 5.43183,35.57743 4.02982,20.6949 6.73527,48.7122 23.06904,63.818575 2.57703,2.381529 5.74427,4.227869 8.916,5.691512 2.00116,12.277246 5.88687,117.890247 2.55362,125.559717 h 227.14139 l 2.61851,-81.044655 c 0.2228,-12.173644 -2.21534,-33.384321 1.99102,-44.471759 l 1.60138,-1.406658 c 19.32081,-17.259802 23.16851,-39.1341421 28.28448,-63.234302 2.5037,-11.78803 5.44884,-23.88572 5.92958,-35.9453 0.27964,-6.9517 0.73997,-13.54272 -3.18114,-19.62818 -3.04417,-2.27286 -6.24429,-4.42565 -8.85119,-7.20635 3.08764,-55.100456 4.1849,-124.261096 -34.60354,-168.018866 -24.61611,-27.76883 -62.02973,-44.58983 -98.89833,-46.2463 z" /><g
         id="body"
         transform="matrix(1.0609646,0,0,1.0609646,-1.9754528,-249.73455)"><path
           fill="#37b2df"
           d="m 283.17389,596.49529 c 7.29878,0.33206 8.88162,-0.0804 16.00924,0.0851 0.24196,2.35569 0.33325,4.67189 0.92537,6.98158 0.21806,0.85086 0.4925,1.77406 0.99588,2.50285 l 16.01311,4.53618 4.00828,1.04672 c 1.93273,0.46715 3.81933,0.85727 5.56272,1.86704 2.18883,1.26767 3.9146,3.27912 5.0637,5.51213 1.77008,3.43983 1.78687,7.37701 2.35122,11.1269 l -11.04878,5.03231 -1.42198,0.67869 c -0.29486,0.12678 -0.63934,0.21975 -0.90678,0.39192 l -0.59345,3.61479 -1.32044,5.61984 -2.38781,8.10544 -3.20945,9.55447 c -1.97909,6.59701 -2.50721,13.63264 -1.22409,20.41476 0.87817,4.64136 2.58945,9.06653 4.01324,13.55455 -0.13414,0.19564 -0.56192,0.36106 -0.78083,0.47331 -1.10697,0.56509 -2.26054,1.03232 -3.43657,1.43319 -7.0731,2.41002 -14.30448,3.24558 -21.75211,3.10431 -8.13756,-0.15454 -16.27934,-1.50682 -23.6363,-5.12186 0.49613,-0.95869 0.87937,-2.02123 1.25632,-3.03428 l 1.8831,-5.71358 c 0.89796,-3.03667 1.66371,-6.12763 1.94359,-9.28991 0.87418,-9.87668 -3.30531,-19.13342 -6.39017,-28.24646 -1.3144,-3.88248 -2.30932,-7.96381 -3.19666,-11.96352 l -0.36234,-2.37887 c -1.65985,-0.59948 -3.27817,-1.56409 -4.86979,-2.33418 l -8.36781,-4.052 0.69873,-5.17419 c 0.85173,-5.06344 3.15536,-9.80089 8.12778,-11.8773 2.24013,-0.93552 4.81304,-1.44191 7.16087,-2.06228 l 11.29691,-3.18688 3.34118,-0.99709 c 0.80258,-0.24161 1.7562,-0.45013 2.43888,-0.93551 1.45398,-2.80425 1.72577,-6.15811 1.81524,-9.2682 z"
           id="path5-3"
           sodipodi:nodetypes="ccccccccccccccccccccccccscccccccccccc"
           style="fill:none;stroke:#000000;stroke-width:2.10451;stroke-dasharray:none;stroke-opacity:1" /><path
           fill="#26A4D4"
           d="m 291.26778,657.48848 0.0627,0.0529 0.0441,34.39004 -0.0811,0.1627 c -0.12182,-0.92567 -0.0889,-1.92401 -0.11397,-2.85943 l -0.14428,-3.72601 -0.23966,-11.24502 0.22097,-8.86765 0.14825,-5.96255 c 0.0297,-0.65042 -0.0152,-1.30151 0.10303,-1.94505 z"
           id="path6-7"
           style="fill:#6f838b;fill-opacity:1;stroke-width:0.0990362;stroke-dasharray:none" /><path
           fill="#26A4D4"
           d="m 320.65964,629.12126 c -0.14503,1.18222 -0.44555,2.36517 -0.73139,3.52033 -0.29654,1.19846 -0.60848,2.45583 -1.09383,3.59369 -0.39492,0.92548 -0.96492,1.81969 -1.46818,2.69177 -1.54792,2.68216 -3.10979,5.22674 -5.37214,7.38061 -3.03293,2.88755 -6.79305,4.3086 -10.97477,4.21251 l -0.067,-0.0393 -0.0154,-0.0762 0.80173,-0.21946 c 4.45387,-1.19413 8.3186,-3.98271 11.14747,-7.59696 2.0068,-2.56394 3.57192,-5.48384 5.08832,-8.35467 z"
           id="path7-7"
           style="fill:#768084;fill-opacity:1;stroke-width:0.123795;stroke-dasharray:none" /><path
           fill="#26A4D4"
           d="m 260.34705,627.90946 c 0.25767,0.30548 0.40388,0.99081 0.55385,1.37381 l 1.14271,2.73433 c 0.81392,1.81983 1.66491,3.62625 2.65596,5.35758 2.92933,5.11694 6.90406,10.40111 12.73109,12.34639 0.86705,0.28943 1.82695,0.54564 2.73252,0.67255 0.78048,0.10927 1.5775,0.12774 2.33998,0.33457 l -1.21309,0.0885 c -4.54064,0.21251 -9.08406,-1.42355 -12.44396,-4.47471 -3.16985,-2.8785 -5.15847,-6.66571 -6.66209,-10.61978 -0.93322,-2.45445 -1.71502,-5.17864 -1.83697,-7.81324 z"
           id="path8-0"
           style="fill:#6c858e;fill-opacity:1;stroke-width:0.120743" /><text
           xml:space="preserve"
           style="font-style:normal;font-variant:normal;font-weight:normal;font-stretch:normal;font-size:113.547px;font-family:Amiri;-inkscape-font-specification:'Amiri, Normal';font-variant-ligatures:normal;font-variant-caps:normal;font-variant-numeric:normal;font-variant-east-asian:normal;fill:#000000;fill-opacity:1;stroke:none;stroke-width:0.215296;stroke-dasharray:none;stroke-opacity:1;paint-order:markers fill stroke"
           x="339.74225"
           y="684.15222"
           id="text1"><tspan
             sodipodi:role="line"
             id="tspan1"
             x="339.74225"
             y="684.15222"
             style="stroke-width:0.215296;stroke:none">Body: -1</tspan></text><path
           id="rect1"
           d="m 282.50527,648.92026 h 17.61435 l -5.26564,1.30119 -0.49288,12.72354 -7.11349,-0.0649 -0.0833,-12.65856 z"
           sodipodi:nodetypes="ccccccc"
           style="stroke-width:2.53663" /><path
           style="fill:#000000;fill-opacity:1;stroke-width:2.10969"
           id="path2-6-0"
           sodipodi:type="arc"
           sodipodi:cx="291.00009"
           sodipodi:cy="624.9527"
           sodipodi:rx="8.5723772"
           sodipodi:ry="8.5723772"
           sodipodi:start="0.027304543"
           sodipodi:end="6.2831853"
           sodipodi:open="true"
           sodipodi:arc-type="arc"
           d="m 299.56927,625.18673 a 8.5723772,8.5723772 0 0 1 -8.74471,8.33655 8.5723772,8.5723772 0 0 1 -8.39605,-8.68761 8.5723772,8.5723772 0 0 1 8.6301,-8.45515 8.5723772,8.5723772 0 0 1 8.51386,8.57218" /><path
           style="fill:#000000;fill-opacity:1;stroke-width:2.10969"
           id="path2-6-0-7"
           sodipodi:type="arc"
           sodipodi:cx="282.51749"
           sodipodi:cy="640.08997"
           sodipodi:rx="8.5723772"
           sodipodi:ry="8.5723772"
           sodipodi:start="0.027304543"
           sodipodi:end="6.2831853"
           sodipodi:open="true"
           sodipodi:arc-type="arc"
           d="m 291.08667,640.324 a 8.5723772,8.5723772 0 0 1 -8.74472,8.33655 8.5723772,8.5723772 0 0 1 -8.39604,-8.68761 8.5723772,8.5723772 0 0 1 8.63009,-8.45515 8.5723772,8.5723772 0 0 1 8.51386,8.57218" /><path
           style="fill:#000000;fill-opacity:1;stroke-width:2.10969"
           id="path2-6-0-9"
           sodipodi:type="arc"
           sodipodi:cx="299.66608"
           sodipodi:cy="640.08997"
           sodipodi:rx="8.5723772"
           sodipodi:ry="8.5723772"
           sodipodi:start="0.027304543"
           sodipodi:end="6.2831853"
           sodipodi:open="true"
           sodipodi:arc-type="arc"
           d="m 308.23526,640.324 a 8.5723772,8.5723772 0 0 1 -8.74472,8.33655 8.5723772,8.5723772 0 0 1 -8.39604,-8.68761 8.5723772,8.5723772 0 0 1 8.63009,-8.45515 8.5723772,8.5723772 0 0 1 8.51386,8.57218" /><path
           sodipodi:type="star"
           style="fill:#000000"
           id="path1-99"
           inkscape:flatsided="false"
           sodipodi:sides="3"
           sodipodi:cx="-4.2679658"
           sodipodi:cy="5.2618756"
           sodipodi:r1="0.76004869"
           sodipodi:r2="0.33594152"
           sodipodi:arg1="1.5707963"
           sodipodi:arg2="2.6179939"
           inkscape:rounded="0"
           inkscape:randomized="0"
           d="m -4.2679658,6.0219243 -0.2909339,-0.5920779 -0.3672876,-0.5479951 0.6582215,0.044083 0.6582215,-0.044083 -0.3672876,0.5479951 z"
           inkscape:transform-center-y="0.21087664"
           transform="matrix(4.5466021,0,0,4.5466021,310.29061,582.85793)" /><path
           sodipodi:type="star"
           style="fill:#000000"
           id="path1-7"
           inkscape:flatsided="false"
           sodipodi:sides="3"
           sodipodi:cx="-4.2679658"
           sodipodi:cy="5.2618756"
           sodipodi:r1="0.76004869"
           sodipodi:r2="0.33594152"
           sodipodi:arg1="1.5707963"
           sodipodi:arg2="2.6179939"
           inkscape:rounded="0"
           inkscape:randomized="0"
           d="m -4.2679658,6.0219243 -0.2909339,-0.5920779 -0.3672876,-0.5479951 0.6582215,0.044083 0.6582215,-0.044083 -0.3672876,0.5479951 z"
           inkscape:transform-center-y="-0.1986054"
           transform="matrix(2.1410252,4.0109351,-4.0109351,2.1410252,320.82082,620.19352)"
           inkscape:transform-center-x="0.014034468" /><path
           sodipodi:type="star"
           style="fill:#000000"
           id="path1-9"
           inkscape:flatsided="false"
           sodipodi:sides="3"
           sodipodi:cx="-4.2679658"
           sodipodi:cy="5.2618756"
           sodipodi:r1="0.76004869"
           sodipodi:r2="0.33594152"
           sodipodi:arg1="1.5707963"
           sodipodi:arg2="2.6179939"
           inkscape:rounded="0"
           inkscape:randomized="0"
           d="m -4.2679658,6.0219243 -0.2909339,-0.5920779 -0.3672876,-0.5479951 0.6582215,0.044083 0.6582215,-0.044083 -0.3672876,0.5479951 z"
           inkscape:transform-center-y="0.0047987713"
           transform="matrix(-0.05177666,-4.5463077,4.5463077,-0.05177666,263.24506,591.48829)"
           inkscape:transform-center-x="-0.2066996" /><path
           sodipodi:type="star"
           style="fill:#000000"
           id="path1-5"
           inkscape:flatsided="false"
           sodipodi:sides="3"
           sodipodi:cx="-4.2679658"
           sodipodi:cy="5.2618756"
           sodipodi:r1="0.76004869"
           sodipodi:r2="0.33594152"
           sodipodi:arg1="1.5707963"
           sodipodi:arg2="2.6179939"
           inkscape:rounded="0"
           inkscape:randomized="0"
           d="m -4.2679658,6.0219243 -0.2909339,-0.5920779 -0.3672876,-0.5479951 0.6582215,0.044083 0.6582215,-0.044083 -0.3672876,0.5479951 z"
           inkscape:transform-center-y="0.024724087"
           transform="matrix(-0.26655543,4.5387818,-4.5387818,-0.26655543,316.77845,631.68679)"
           inkscape:transform-center-x="0.18910257" /></g></g></g></svg>
