<?xml version="1.0" encoding="UTF-8" standalone="no"?>
<svg
   width="63mm"
   height="88mm"
   version="1.1"
   id="svg132"
   sodipodi:docname="card-stun.svg"
   viewBox="0 0 975.48891 1362.5877"
   inkscape:version="1.3.2 (091e20e, 2023-11-25, custom)"
   xmlns:inkscape="http://www.inkscape.org/namespaces/inkscape"
   xmlns:sodipodi="http://sodipodi.sourceforge.net/DTD/sodipodi-0.dtd"
   xmlns="http://www.w3.org/2000/svg"
   xmlns:svg="http://www.w3.org/2000/svg">
  <defs
     id="defs132" />
  <sodipodi:namedview
     id="namedview132"
     pagecolor="#ffffff"
     bordercolor="#000000"
     borderopacity="0.25"
     inkscape:showpageshadow="2"
     inkscape:pageopacity="0.0"
     inkscape:pagecheckerboard="0"
     inkscape:deskcolor="#d1d1d1"
     inkscape:zoom="12.954749"
     inkscape:cx="110.03687"
     inkscape:cy="169.86049"
     inkscape:window-width="1920"
     inkscape:window-height="1017"
     inkscape:window-x="-8"
     inkscape:window-y="-8"
     inkscape:window-maximized="1"
     inkscape:current-layer="svg132"
     inkscape:document-units="mm" />
  <rect
     style="fill:#dfefe9;fill-opacity:1;stroke:#383838;stroke-width:0.15484;stroke-opacity:1;paint-order:markers fill stroke"
     id="rect132"
     width="976.54572"
     height="1358.5623"
     x="-0.85415846"
     y="2.1852751" />
  <path
     fill="#8751D1"
     d="m 422.42558,743.47536 c -0.24812,-0.0337 -0.61135,0.0446 -0.86853,0.0689 l -1.88364,0.18649 c -3.72501,0.33108 -8.57419,0.88378 -11.91731,-1.09865 -2.31419,-1.37162 -3.71541,-3.91758 -3.77797,-6.58974 -0.0316,-1.35445 0.21513,-2.71607 0.33824,-4.0627 0.155,-1.69621 0.11689,-3.55812 -0.36243,-5.20298 -0.34838,-1.19595 -1.45608,-1.90027 -2.27878,-2.7777 -0.32433,-0.34581 -0.66149,-0.6965 -0.75798,-1.17919 -0.0843,-0.42203 0.004,-0.78231 0.23041,-1.14312 0.70459,-1.12593 2.04783,-1.75635 3.29176,-2.05337 -1.46785,-0.66041 -2.98109,-1.155 -3.73973,-2.6996 -0.0738,-0.9685 0.67715,-1.48648 1.22594,-2.20552 0.44256,-0.57988 0.90959,-1.29285 1.14594,-1.98636 0.30595,-0.89757 0.39325,-2.0065 -0.0624,-2.87055 -0.32352,-0.61365 -0.91203,-0.94972 -1.54743,-1.15905 -1.07176,-0.35298 -2.44501,-0.17271 -3.57501,-0.2446 -1.08391,-0.069 -2.38392,-0.43067 -3.12283,-1.2777 -1.58244,-1.81365 -0.5669,-3.34163 0.31594,-5.1823 l 4.40663,-9.12569 c 1.32702,-2.79188 2.80864,-5.68878 3.46581,-8.72446 0.23121,-1.06798 0.27838,-2.21095 0.16162,-3.29905 -0.15554,-1.45068 -0.55595,-2.89231 -0.77594,-4.33731 -0.50258,-3.30135 -0.63447,-6.64149 -0.43325,-9.97311 0.43716,-7.23825 2.59595,-14.66785 6.67663,-20.71475 0.70257,-1.04108 1.44202,-2.20689 2.38905,-3.04594 l -0.0304,0.077 c -0.32635,0.79189 -0.85163,1.54013 -1.25973,2.29798 -0.73203,1.35959 -1.38379,2.75919 -1.94271,4.19852 -3.66134,9.42906 -4.57824,20.64758 -0.71756,30.15974 8.91111,17.45614 15.3876,16.8128 26.95522,20.26378 10.01222,2.8616 13.25778,1.13669 21.9567,2.94948 l -0.11932,0.12244 c 3.33527,5.09054 4.52879,11.78568 3.2996,17.73608 -1.39757,6.76486 -5.74757,11.90094 -11.4469,15.60163 -4.50893,2.92783 -9.91055,4.75486 -15.1588,5.80891 -3.33352,0.67028 -6.7127,1.04731 -10.08081,1.48244 z"
     id="path2"
     style="fill:none;fill-opacity:1;stroke:#d15151;stroke-width:2.32259269;stroke-dasharray:none;stroke-opacity:1"
     sodipodi:nodetypes="ccccccccccccscccccccsccssccccccccccccc" />
  <path
     fill="#8751d1"
     d="m 487.82664,692.26709 0.7243,-0.73635 c 1.03141,6.67908 0.17635,8.12435 -0.69795,12.07451 l -0.71417,2.93376 c -0.14946,0.56896 -0.3758,1.18807 -0.3954,1.77534 l -0.0339,0.0695 c -0.23147,0.49049 -0.35918,1.01867 -0.53903,1.52881 l -1.04402,2.5975 -1.32241,2.64221 c -0.28608,0.52561 -0.67078,1.07546 -0.84011,1.65093 -0.28594,0.97177 0.0137,3.13602 -0.1568,4.1357 -0.22679,3.91949 0.37141,-5.65372 -0.675,13.7383 -0.0798,7.10516 0.2035,3.83698 0.0437,9.61958 -33.96777,0.30038 -21.97916,1.29476 -56.8547,0.56081 -0.5289,-0.27512 -1.09429,-0.50825 -1.66131,-0.69391 -0.40431,-0.13284 -0.85403,-0.20602 -1.18483,-0.48928 l -0.0485,-0.0447 c 3.36802,-0.43641 6.74712,-0.81455 10.08054,-1.4868 5.24811,-1.05716 10.64959,-2.88956 15.15839,-5.82602 5.69918,-3.71157 10.04906,-8.86279 11.44659,-15.64757 1.22916,-5.96792 0.0357,-12.68277 -3.29951,-17.7883 l 0.11932,-0.1228 4.56299,0.54064 c 6.84888,0.25454 14.23422,-1.47893 20.05691,-5.16516 2.64925,-1.67709 4.98769,-3.73557 7.27493,-5.86669 z"
     id="path3"
     sodipodi:nodetypes="cccccccccscccccccccccccccc"
     style="fill:none;fill-opacity:1;stroke:#d15151;stroke-width:2.32259269;stroke-dasharray:none;stroke-opacity:1" />
  <path
     fill="#7CC2F6"
     d="m 410.97029,642.77733 c 1.27947,-1.83325 2.45649,-3.69392 3.8946,-5.41298 7.01893,-8.38933 16.68447,-13.90136 27.43759,-15.82568 13.57758,-2.4296 27.65948,0.23 39.03597,8.16622 8.62275,9.20798 12.62393,13.59531 14.7902,23.81862 2.39361,11.29617 1.21487,17.44807 1.61518,19.38778 -1.2041,9.38938 -3.97899,12.97912 -8.96838,18.61796 l -8.89392,7.03089 c -5.82284,3.67541 -12.53754,4.95656 -19.3866,4.70277 l -4.56312,-0.53905 c -8.32547,-0.54973 -7.03013,-0.84939 -13.7562,-1.48513 -10.44278,-0.73648 -10.35893,-1.51244 -21.83867,-5.8228 -6.01446,-2.5296 -10.87354,-9.88452 -13.31705,-15.90533 -3.86068,-9.51217 -2.94379,-20.73069 0.71756,-30.15975 0.55892,-1.43933 1.21068,-2.83893 1.94271,-4.19852 0.4081,-0.75784 0.93338,-1.50608 1.25973,-2.29798 z"
     id="path5"
     style="fill:none;fill-opacity:1;stroke:#d15151;stroke-width:2.32259269;stroke-dasharray:none;stroke-opacity:1"
     sodipodi:nodetypes="ccccscccccccccccc" />
  <text
     xml:space="preserve"
     style="font-size:148.144px;font-family:Gabriola;-inkscape-font-specification:'Gabriola, Normal';fill:#d15151;fill-opacity:1;stroke:#000000;stroke-width:0.269287;stroke-dasharray:none;stroke-opacity:1;paint-order:markers fill stroke"
     x="500.34439"
     y="729.2608"
     id="text1"><tspan
       sodipodi:role="line"
       id="tspan1"
       style="stroke-width:0.269291"
       x="500.34439"
       y="729.2608">Mind</tspan></text>
  <path
     style="fill:#d80000;fill-opacity:1;stroke-width:3.49882"
     id="path1-3"
     sodipodi:type="arc"
     sodipodi:cx="452.26486"
     sodipodi:cy="659.78412"
     sodipodi:rx="37.176922"
     sodipodi:ry="39.043968"
     sodipodi:start="0.027304543"
     sodipodi:end="6.2831853"
     sodipodi:open="true"
     sodipodi:arc-type="arc"
     d="m 489.42793,660.85006 a 37.176922,39.043968 0 0 1 -37.92434,37.96984 37.176922,39.043968 0 0 1 -36.41219,-39.5688 37.176922,39.043968 0 0 1 37.42723,-38.51004 37.176922,39.043968 0 0 1 36.92315,39.04306" />
  <path
     style="fill:#ffffff;fill-opacity:1;stroke-width:3.34545"
     id="path1"
     sodipodi:type="arc"
     sodipodi:cx="452.23605"
     sodipodi:cy="659.00201"
     sodipodi:rx="35.50272"
     sodipodi:ry="37.379631"
     sodipodi:start="0.027304543"
     sodipodi:end="6.2831853"
     sodipodi:open="true"
     sodipodi:arc-type="arc"
     d="m 487.72554,660.02252 a 35.50272,37.379631 0 0 1 -36.21647,36.35129 35.50272,37.379631 0 0 1 -34.77243,-37.8821 35.50272,37.379631 0 0 1 35.74176,-36.86846 35.50272,37.379631 0 0 1 35.26037,37.37876" />
  <rect
     style="fill:#cc0400;fill-opacity:1;stroke-width:4.1036"
     id="rect1"
     width="43.670288"
     height="44.625092"
     x="792.61639"
     y="-60.175392"
     transform="matrix(0.5298425,0.84809606,-0.5441132,0.83901181,0,0)" />
  <path
     id="path3-2"
     style="fill:#ffffff;stroke-width:4.17674"
     d="m 476.13135,659.32378 -23.72874,2.71407 -23.72873,-2.71407 23.72873,-0.5428 z"
     sodipodi:nodetypes="ccccc" />
  <path
     id="path4"
     style="fill:#ffffff;stroke-width:2.36508"
     inkscape:transform-center-x="-0.00029899198"
     inkscape:transform-center-y="-0.42374246"
     d="m 451.47209,659.71151 0.9542,-40.11665 0.98143,39.74202 z" />
  <text
     xml:space="preserve"
     style="font-style:normal;font-variant:normal;font-weight:normal;font-stretch:normal;font-size:128.707px;font-family:'DejaVu Math TeX Gyre';-inkscape-font-specification:'DejaVu Math TeX Gyre, Normal';font-variant-ligatures:normal;font-variant-caps:normal;font-variant-numeric:normal;font-variant-east-asian:normal;fill:#d15151;fill-opacity:1;stroke:#000000;stroke-width:0.233955;stroke-dasharray:none;stroke-opacity:1;paint-order:markers fill stroke"
     x="263.54718"
     y="733.1665"
     id="text1-9"><tspan
       sodipodi:role="line"
       id="tspan2"
       x="263.54718"
       y="733.1665"
       style="fill:#d15151;fill-opacity:1;stroke-width:0.233955">-1</tspan></text>
</svg>
