<?xml version="1.0" encoding="UTF-8" standalone="no"?>
<!-- Created with Inkscape (http://www.inkscape.org/) -->

<svg
   width="63mm"
   height="88mm"
   viewBox="0 0 63 88"
   version="1.1"
   id="svg1"
   inkscape:version="1.3.2 (091e20e, 2023-11-25, custom)"
   sodipodi:docname="card-fate-yellow.svg"
   xmlns:inkscape="http://www.inkscape.org/namespaces/inkscape"
   xmlns:sodipodi="http://sodipodi.sourceforge.net/DTD/sodipodi-0.dtd"
   xmlns="http://www.w3.org/2000/svg"
   xmlns:svg="http://www.w3.org/2000/svg">
  <sodipodi:namedview
     id="namedview1"
     pagecolor="#ffffff"
     bordercolor="#000000"
     borderopacity="0.25"
     inkscape:showpageshadow="2"
     inkscape:pageopacity="0.0"
     inkscape:pagecheckerboard="0"
     inkscape:deskcolor="#d1d1d1"
     inkscape:document-units="mm"
     inkscape:zoom="2.0686841"
     inkscape:cx="142.36103"
     inkscape:cy="170.88158"
     inkscape:window-width="1920"
     inkscape:window-height="1017"
     inkscape:window-x="-8"
     inkscape:window-y="-8"
     inkscape:window-maximized="1"
     inkscape:current-layer="layer1" />
  <defs
     id="defs1" />
  <g
     inkscape:label="Layer 1"
     inkscape:groupmode="layer"
     id="layer1">
    <rect
       style="fill:#fdfd96;fill-opacity:1;stroke:#000000;stroke-width:0.0100136;paint-order:markers fill stroke"
       id="rect1"
       width="62.989986"
       height="87.989983"
       x="0.0050068218"
       y="0.0050068218" />
    <path
       d="M 32.119508,62.553821 28.387932,50.71703 17.533665,54.387401 24.727914,43.238128 16.810782,31.681005 l 11.41956,3.776952 3.922619,-12.437858 c 0.05629,0.117873 0.0869,0.2629 0.12635,0.388239 l 0.22671,0.718757 0.809327,2.646144 2.721867,8.69087 11.359444,-3.737837 -7.864442,11.497342 c 0.0085,0.109436 1.301189,2.010081 1.47393,2.272382 l 3.913622,5.97542 1.86093,2.912234 c -0.46486,-0.211147 -1.01061,-0.34991 -1.49812,-0.508476 l -2.54691,-0.838993 -6.836692,-2.25997 -3.746541,11.830116 z M 18.479395,32.921212 c 0.0606,0.157402 0.182454,0.303515 0.278276,0.441568 l 0.555655,0.788701 1.702853,2.431399 2.978351,4.328897 1.415801,2.085127 2.490616,-0.24265 -0.969242,-0.351482 c 0.23316,0.0081 0.465831,0.06038 0.694641,0.10366 l 1.298339,0.255062 c 0.405677,0.0677 0.805578,0.117575 1.217332,0.130024 l 0.92889,-0.0034 0.536002,0.01522 c 0.07407,0.0024 0.171879,0.01935 0.241823,-3.29e-4 -0.354597,-0.178892 -0.784427,-0.351296 -1.172589,-0.439504 -1.199218,-0.272426 -2.447038,-0.12215 -3.661406,-0.213998 -0.308881,-0.02333 -0.614573,-0.06927 -0.919965,-0.119747 -0.03289,-0.0054 -0.187669,-0.0165 -0.208857,-0.03165 -0.05866,-0.04189 -0.137603,-0.180916 -0.183918,-0.242047 L 24.956798,40.85299 22.15404,37.14748 c -0.764399,-1.057453 -1.474606,-2.180013 -2.308912,-3.182674 l 2.777106,1.058279 3.328561,1.304677 1.583067,0.655227 c 0.306631,0.134525 0.61791,0.264888 0.907362,0.434705 l 0.427017,0.974418 c 0.05416,0.112474 0.162393,0.243099 0.195658,0.354523 -0.221122,-0.124286 -0.373611,-0.388351 -0.60111,-0.515 -0.578418,-0.322082 -1.228131,-0.560943 -1.833627,-0.830894 l -5.168902,-2.137483 4.872399,6.07668 c 0.279439,0.01391 0.562066,0.07414 0.837867,0.11971 l 1.189954,0.195021 c -0.593608,-0.475773 -1.196591,-0.992235 -1.731919,-1.531651 l -1.347767,-1.408524 -1.790725,-1.748158 c -0.201657,-0.200571 -0.439131,-0.389662 -0.620911,-0.605795 0.118062,0.02712 0.224909,0.101108 0.329283,0.160815 l 0.533752,0.301117 1.596118,0.828305 2.1832,1.080179 c 0.759037,0.359848 1.579427,0.717859 2.271445,1.195617 -0.196331,-0.362509 -0.377325,-0.773101 -0.635236,-1.094769 0.02393,-0.164003 -0.552917,-1.338917 -0.656277,-1.598217 l -0.387487,-1.112471 -7.107091,-2.397421 -1.719881,-0.560491 c -0.255811,-0.08262 -0.532253,-0.205747 -0.797589,-0.241973 l -0.02442,-0.02149 z m 25.845224,1.103246 -0.008,0.01508 c -0.079,0.148514 -0.19314,0.288067 -0.2914,0.424917 l -0.72968,0.971719 -3.765698,5.013076 -0.563457,0.752847 c -0.109999,0.144165 -0.240134,0.290392 -0.335206,0.444157 -0.0195,0.03158 -0.02685,0.03728 -0.02082,0.07497 0.01583,0.0983 0.01595,0.184928 0.0075,0.28379 -0.01466,0.01785 -0.02531,0.04001 -0.04403,0.05352 -0.02442,0.01766 -0.12935,0.02482 -0.164753,0.0297 l -0.576207,0.06916 c -0.750557,0.07276 -1.504683,0.08221 -2.258131,0.0989 -0.569079,0.01259 -1.155075,0.0027 -1.713956,0.126163 -0.529812,0.117048 -1.013458,0.332581 -1.511357,0.539639 0.71602,-0.01407 1.450303,0.0034 2.162235,-0.07336 l 2.13122,-0.277864 c 0.294141,-0.03248 0.629161,-0.0881 0.923378,-0.06027 l -0.791629,0.297105 2.149934,0.0926 4.334487,-6.285874 2.54912,-3.727976 -9.577605,3.226552 c -0.112474,0.414829 -0.218836,0.84822 -0.401102,1.238706 l -0.997447,1.922251 -0.251014,0.460696 c -0.0375,0.06829 -0.09496,0.149826 -0.111047,0.225546 0.09215,-0.04793 0.218383,-0.101897 0.284914,-0.182491 0.154855,-0.187558 0.266577,-0.531803 0.373538,-0.757201 l 0.66359,-1.351218 c 0.0462,-0.09061 0.11716,-0.288479 0.182266,-0.356697 0.03615,-0.03784 0.20417,-0.08817 0.257913,-0.111124 l 1.929339,-0.752884 4.434765,-1.749435 1.11934,-0.44753 c 0.17334,-0.07077 0.42491,-0.210096 0.60875,-0.227159 z m -3.072297,2.388007 -0.01002,0.01422 c -0.132014,0.181181 -0.328796,0.344284 -0.488073,0.503337 l -0.790689,0.805129 -2.872181,2.844613 -0.747934,0.634112 c -0.131076,0.105723 -0.293542,0.211858 -0.403239,0.338809 l 1.331079,-0.100322 c 0.133551,-0.0091 0.407064,0.0038 0.521301,-0.04474 0.04703,-0.02003 0.179605,-0.213808 0.218534,-0.260502 l 4.419919,-5.38781 0.39506,-0.496587 -6.072701,2.531346 -0.919216,0.398252 c -0.07317,0.03293 -0.213696,0.07478 -0.272839,0.123837 -0.06766,0.05611 -0.167304,0.317469 -0.206608,0.402639 l -0.450343,0.939204 c 0.317731,-0.149602 0.61071,-0.341508 0.925216,-0.497373 l 4.128813,-2.082877 0.958255,-0.494111 c 0.09789,-0.05089 0.231098,-0.151441 0.335659,-0.171166 z M 27.493284,39.69816 c 0.268076,0.299015 0.649001,0.566979 0.961406,0.820428 0.575718,0.467072 1.155187,0.959906 1.771633,1.372558 0.302357,0.20237 0.629013,0.364086 0.951956,0.530377 0.276664,0.142477 0.551078,0.29493 0.840158,0.410928 -0.353172,-0.382761 -0.69153,-0.78739 -1.084719,-1.130323 -0.424653,-0.370386 -0.93279,-0.652564 -1.423939,-0.923676 l -1.175927,-0.643077 -0.56334,-0.296241 c -0.08424,-0.04527 -0.186058,-0.120949 -0.277228,-0.140974 l -0.03045,-0.02479 z m 4.818656,3.141603 c 0.439054,-0.252324 0.910251,-0.446968 1.343043,-0.707693 0.859772,-0.517925 1.62702,-1.194416 2.380394,-1.853544 0.20192,-0.176678 0.428141,-0.335542 0.615884,-0.526662 l 0.03135,-0.0261 -0.03135,0.0261 c -0.346459,0.125486 -0.690217,0.365399 -1.016647,0.54054 -0.730311,0.391875 -1.496511,0.762261 -2.14716,1.280826 -0.432493,0.344694 -0.855122,0.815365 -1.175514,1.266533 z m -9.099885,7.121793 c 0.05611,-0.09833 0.186957,-0.200944 0.2683,-0.283002 l 0.553817,-0.580595 1.907622,-2.116142 c 0.74036,-0.820356 1.458594,-1.617645 2.304751,-2.333663 l -1.485559,0.365621 c -0.113784,0.0291 -0.405977,0.06736 -0.475432,0.152153 l -4.418456,5.833353 6.688552,-3.026768 0.714855,-1.160662 c 0.09819,-0.165579 0.248988,-0.365961 0.294856,-0.548679 l 0.0234,-0.02554 -0.0234,0.02554 -0.802953,0.526702 -1.620647,0.879609 -2.420072,1.354146 -1.015111,0.618659 c -0.149828,0.09612 -0.332358,0.254877 -0.494523,0.319268 z m 5.719194,-2.388045 0.02873,-0.05337 0.01984,-0.02614 -0.01984,0.02614 -0.02873,0.05337 c -0.06526,0.04789 -0.125339,0.167341 -0.169294,0.236949 -0.218382,0.345632 -0.388873,0.711368 -0.576243,1.074029 -0.04103,0.07947 -0.101483,0.234173 -0.163702,0.292116 -0.09758,0.09087 -0.402564,0.163254 -0.534013,0.214184 l -1.811502,0.700867 -3.342888,1.327179 -2.004909,0.791779 1.526212,-2.188264 2.661783,-3.783856 0.946255,-1.355005 c 0.09953,-0.14004 0.227084,-0.37455 0.361984,-0.472396 0.06511,-0.04718 0.252775,-0.07448 0.338358,-0.09759 l 0.996399,-0.277826 c 0.418878,-0.128115 0.813752,-0.318894 1.217479,-0.485372 l -2.385456,-0.04084 -0.59282,-0.009 -6.349217,9.673954 9.25035,-3.132905 c -0.06338,-0.263459 -0.157404,-0.582579 -0.128227,-0.853841 0.01141,-0.105723 0.09961,-0.242612 0.146152,-0.338961 l 0.385577,-0.779924 c 0.08082,-0.159239 0.180129,-0.322531 0.227722,-0.495237 z m 6.520158,0.213359 c 0.03056,0.161454 0.125563,0.32017 0.196257,0.467857 l 0.367123,0.7692 c 0.03597,0.07497 0.124924,0.219509 0.124776,0.303481 -3.3e-4,0.214071 -0.128602,0.513499 -0.194006,0.717669 l 5.75437,1.966805 1.965192,0.645738 c 0.52768,0.166366 1.11011,0.313606 1.61303,0.541514 l -6.416122,-9.771464 -2.344579,0.08364 c 0.125788,0.03825 0.751723,0.194269 0.795753,0.270552 -0.547328,-0.05149 -1.126085,-0.207772 -1.6622,-0.334422 -0.609133,-0.137675 -1.229668,-0.272913 -1.85118,-0.340794 -0.452631,-0.04947 -0.915839,-0.05686 -1.370757,-0.08056 l 0.03769,0.02629 0.01601,0.01112 c 0.154439,0.103811 0.359135,0.174842 0.532027,0.244712 0.228209,0.09218 0.463769,0.189019 0.701316,0.254123 0.837833,0.22956 1.750334,0.279141 2.609581,0.386775 l 1.539674,0.237661 c 0.100772,0.0171 0.393302,0.0327 0.469958,0.09016 0.05472,0.04099 0.137564,0.193257 0.181367,0.253823 l 0.593535,0.813116 4.806657,6.820002 -2.266762,-0.849082 -4.002164,-1.603131 -1.043427,-0.403839 c -0.087,-0.03413 -0.247819,-0.07234 -0.318101,-0.124513 -0.03758,-0.02794 -0.109211,-0.183917 -0.138424,-0.233196 -0.225211,-0.380063 -0.424616,-0.818517 -0.696594,-1.163251 l -0.02359,-0.03026 z m -3.30437,-22.575132 -2.382946,7.603225 -0.773175,2.505131 c -0.108198,0.344622 -0.193105,0.756376 -0.358084,1.07448 0.180766,0.327858 0.386776,0.643188 0.59882,0.951693 0.140114,0.203871 0.301717,0.408041 0.413291,0.628411 l 1.197942,2.652333 c 0.141201,0.314844 0.272125,0.643376 0.433615,0.947868 0.206159,0.388725 0.489873,0.764061 0.728435,1.134897 -0.09571,-0.64075 -0.246475,-1.300851 -0.476596,-1.907735 -0.216585,-0.571106 -0.528429,-1.110183 -0.805654,-1.653723 l -1.118996,-2.364232 c -0.02078,-0.04905 -0.09054,-0.174392 -0.08855,-0.218006 0.0069,-0.153052 0.0971,-0.372112 0.137753,-0.524376 l 0.400537,-1.493247 1.242986,-4.645424 0.568629,-1.959269 c 0.09005,-0.307266 0.205144,-0.612321 0.272689,-0.925139 l 0.196107,0.66869 2.118956,7.727439 0.238074,0.867873 c 0.01916,0.06582 0.09593,0.243774 0.09121,0.304154 -0.0024,0.03045 -0.0624,0.124287 -0.07879,0.157439 l -0.220635,0.473223 -0.788101,1.679188 c -0.332994,0.656462 -0.705368,1.316565 -0.967969,2.00442 -0.141052,0.369522 -0.226109,0.739384 -0.329395,1.119558 -0.06301,0.231996 -0.158491,0.492498 -0.170717,0.73316 0.297741,-0.411041 0.591583,-0.828493 0.834494,-1.27505 0.246099,-0.452407 0.423378,-0.944454 0.6289,-1.416401 l 0.684102,-1.526848 0.745235,-1.713503 -0.108947,0.671652 c 0.252549,-0.254837 0.492384,-0.625524 0.662502,-0.940628 l -1.402787,-4.57207 -0.880586,-2.74298 -0.847695,-2.782433 c -0.123199,-0.399599 -0.211858,-0.870048 -0.394649,-1.24377 z m -0.02205,3.677008 -1.551713,6.61133 -0.175067,0.712117 c -0.02805,0.103099 -0.09796,0.274153 -0.09151,0.375976 0.0018,0.02831 0.04347,0.09702 0.05592,0.124398 l 0.188382,0.393752 0.618771,1.305426 0.929229,-7.233776 c 0.04163,0.03356 0.03342,0.05036 0.04084,0.100433 l 0.957055,7.185399 0.574858,-1.193291 c 0.08558,-0.176454 0.180169,-0.352534 0.253261,-0.534539 0.01935,-0.04823 0.05798,-0.127325 0.05749,-0.178105 -0.0012,-0.102272 -0.0653,-0.261738 -0.09065,-0.364725 L 33.647626,35.17342 32.674633,31.12625 32.150969,28.897933 Z m -8.23e-4,8.508188 -0.178218,2.284873 c -0.02663,0.391351 -0.07081,0.784576 -0.0528,1.177203 0.02745,0.598858 0.168242,1.1844 0.23751,1.778272 l 0.02082,0.02355 c 0.0183,-0.536341 0.172741,-1.055578 0.217144,-1.589819 0.07396,-0.889211 -0.05805,-1.816901 -0.1331,-2.703373 L 32.1724,37.738328 c -0.01144,-0.110936 -0.0075,-0.237774 -0.04823,-0.341397 z m -0.450798,5.644149 c -0.599722,0.04977 -1.204655,0.06533 -1.798787,0.165692 -0.397502,0.06709 -0.756861,0.20417 -1.138574,0.326544 -0.487848,0.156389 -0.996021,0.308467 -1.465006,0.515976 l -0.0054,0.01957 0.202482,-0.02104 c 1.020361,-0.124061 2.118469,-0.152078 3.103465,-0.454283 0.424391,-0.13021 0.842707,-0.328381 1.240209,-0.524449 l 0.0075,-0.02963 z m 0.20762,0.106775 c -0.492498,0.284503 -1.008586,0.56379 -1.472544,0.892848 -0.405863,0.287877 -0.776962,0.624999 -1.154025,0.948954 l -1.676113,1.465942 0.04092,0.0012 1.878483,-1.08948 c 0.375409,-0.23267 0.769572,-0.476931 1.105904,-0.763498 0.309294,-0.263575 0.570619,-0.558916 0.835657,-0.86536 0.162878,-0.188342 0.343119,-0.373723 0.479371,-0.582469 z m 0.434779,-0.01076 c 0.426454,0.508662 0.870759,1.040913 1.379159,1.469353 0.87995,0.741485 1.960842,1.240885 2.941938,1.834866 L 35.221886,45.13638 c -0.331308,-0.300142 -0.658301,-0.606997 -1.015599,-0.876423 -0.575193,-0.43373 -1.238334,-0.819154 -1.890522,-1.122859 z m -0.108648,0.02978 c 0.182343,0.673642 0.383251,1.349645 0.658226,1.992381 0.186694,0.436394 0.421466,0.857522 0.628411,1.285178 l 0.826692,1.761395 c 0.180657,0.374734 0.39784,0.750897 0.546281,1.139361 0.02693,0.07051 0.04369,0.148477 0.0288,0.22322 -0.03904,0.01305 -0.03773,0.0147 -0.0752,-0.0036 -0.06312,-0.03072 -0.112174,-0.07891 -0.163552,-0.125713 l -2.510488,9.344094 c -0.111536,-0.590309 -0.299429,-1.176491 -0.456458,-1.757047 l -0.94179,-3.416919 -0.886926,-3.270621 c -0.09342,-0.315854 -0.161527,-0.693853 -0.302879,-0.98912 l -0.02423,0.02404 c -0.06079,0.05978 -0.106811,0.106621 -0.193218,0.126087 l -0.03972,-0.02314 0.513463,-1.038213 0.789077,-1.629235 c 0.299992,-0.595409 0.6526,-1.190928 0.908752,-1.803812 0.134075,-0.320844 0.223673,-0.654517 0.324557,-0.986459 0.08236,-0.270966 0.178064,-0.554156 0.210956,-0.836669 l -1.101481,1.744742 -1.479893,3.095329 -0.55108,1.037802 c -0.04268,0.07763 -0.162241,0.231319 -0.179117,0.308729 -0.02877,0.132012 0.03023,0.34087 0.06766,0.467857 l 0.744748,2.287909 1.267659,4.010977 0.899639,2.879907 c 0.140901,0.468796 0.246022,0.960093 0.4053,1.421763 l 0.0192,0.04538 2.741553,-8.754929 0.400427,-1.266874 0.240921,-0.674539 c 0.0222,-0.06293 0.08105,-0.188944 0.07164,-0.254014 -0.009,-0.06181 -0.06822,-0.156839 -0.09654,-0.216058 l -0.284273,-0.561728 -1.01496,-2.047323 -0.828417,-1.74317 C 33.191962,44.62564 32.981531,44.302059 32.777435,43.97859 32.605444,43.706015 32.426963,43.403058 32.207117,43.16686 Z m -0.06046,0.124063 c -0.09702,0.509562 -0.225467,1.049539 -0.263273,1.565591 -0.05183,0.707919 0.03544,1.428439 0.102611,2.132531 l 0.164342,1.703941 c 0.06387,-0.39859 0.06938,-0.813979 0.107485,-1.217106 0.07925,-0.838395 0.219771,-1.730155 0.153165,-2.571626 -0.04309,-0.544516 -0.178628,-1.075003 -0.264326,-1.613331 z m 3.790756,1.307151 5.368199,5.515963 -6.60972,-3.869925 0.766538,1.449064 c 0.0309,0.05108 0.07606,0.156841 0.117349,0.194081 0.03642,0.03282 0.152414,0.06548 0.200719,0.08633 l 0.603921,0.271717 6.06738,2.788019 c -1.14581,-1.703676 -2.457538,-3.308496 -3.709373,-4.934279 l -0.703228,-0.894123 c -0.03555,-0.04467 -0.100885,-0.166555 -0.141614,-0.193408 -0.06286,-0.0414 -0.283866,-0.0615 -0.365248,-0.07895 l -1.406873,-0.30108 z m -4.840896,2.646184 -0.558166,1.159199 -0.193482,0.3744 c -0.02561,0.04932 -0.07928,0.127664 -0.08941,0.180243 -0.01414,0.07343 0.08221,0.290203 0.105198,0.370947 l 0.316568,1.21703 1.46583,6.208919 1.612431,-6.897298 0.171693,-0.644198 c 0.01496,-0.05059 0.07632,-0.190819 0.07193,-0.237398 -0.0017,-0.01808 -0.04328,-0.07973 -0.05352,-0.09879 l -0.163806,-0.315405 c -0.207882,-0.423454 -0.379762,-0.880848 -0.601859,-1.294138 l -1.045189,7.499905 z m 4.297695,0.472807 h 0.0405 z"
       id="path2"
       style="stroke-width:0.0375035" />
  </g>
</svg>
