<?xml version="1.0" encoding="UTF-8" standalone="no"?>
<svg
   width="63mm"
   height="88mm"
   version="1.1"
   id="svg6"
   sodipodi:docname="card-bleeding.svg"
   inkscape:version="1.3.2 (091e20e, 2023-11-25, custom)"
   xmlns:inkscape="http://www.inkscape.org/namespaces/inkscape"
   xmlns:sodipodi="http://sodipodi.sourceforge.net/DTD/sodipodi-0.dtd"
   xmlns="http://www.w3.org/2000/svg"
   xmlns:svg="http://www.w3.org/2000/svg">
  <defs
     id="defs6" />
  <sodipodi:namedview
     id="namedview6"
     pagecolor="#ffffff"
     bordercolor="#000000"
     borderopacity="0.25"
     inkscape:showpageshadow="2"
     inkscape:pageopacity="0.0"
     inkscape:pagecheckerboard="0"
     inkscape:deskcolor="#d1d1d1"
     inkscape:document-units="mm"
     inkscape:zoom="1.8244444"
     inkscape:cx="-49.05603"
     inkscape:cy="134.0134"
     inkscape:window-width="1920"
     inkscape:window-height="1017"
     inkscape:window-x="-8"
     inkscape:window-y="-8"
     inkscape:window-maximized="1"
     inkscape:current-layer="svg6" />
  <path
     fill="#b81c1a"
     d="m 120.22322,118.11906 c 0.85196,1.13522 1.59607,2.4004 2.36441,3.59515 l 5.99755,9.91221 7.37923,13.60157 c 2.68659,5.4268 5.06769,10.95397 6.5675,16.83489 0.55849,2.18981 1.02301,4.427 1.24787,6.67846 0.28818,2.88516 0.17877,5.74461 -0.23052,8.61209 -0.84268,5.90309 -3.45119,11.68974 -7.51324,16.07658 -0.95533,1.03179 -1.9718,2.02062 -3.09825,2.86623 -1.19606,0.89792 -2.42917,1.72547 -3.76241,2.40856 -2.78541,1.42721 -5.86124,2.17506 -8.99087,2.18004 l -0.0299,-5.71566 0.007,-0.0716 3.7e-4,-1.08348 c 2.25637,0.0106 4.37638,-0.40786 6.42123,-1.39918 3.85301,-1.86806 6.73587,-5.14465 8.83097,-8.80917 0.87344,-1.52746 1.64508,-3.15891 2.22237,-4.82148 0.94188,-2.71243 1.53119,-5.58421 1.52671,-8.46296 -0.009,-5.56566 -2.07581,-10.92066 -4.34258,-15.9107 l -3.58663,-7.3263 -1.35509,-2.52351 c -0.41646,-0.74225 -0.86847,-1.49128 -1.23859,-2.25606 -0.25599,-0.32511 -0.45506,-0.73316 -0.67089,-1.08815 l -1.60685,-2.68292 -3.44589,-5.66167 c -0.88559,-1.49227 -1.70661,-3.05385 -2.6704,-4.49475 -0.0618,-0.58595 -0.0148,-1.23112 -0.0192,-1.82293 l -0.0263,-3.79061 -0.0116,-3.14913 c -0.001,-0.54559 -0.0582,-1.16056 0.0338,-1.69551 z"
     id="path2"
     style="stroke-width:0.0622689" />
  <path
     fill="#a20e11"
     d="m 128.6406,142.50473 c 0.26402,0.1213 0.96585,1.53885 1.15851,1.86962 2.17169,3.72835 4.24941,7.50041 6.06044,11.41942 0.68932,1.49172 1.38094,3.00279 1.95325,4.54408 0.73851,1.98892 1.46208,3.96982 1.94036,6.04188 0.27834,1.2059 0.50432,2.46448 0.59411,3.69977 0.32355,4.45128 -0.67885,8.92344 -2.53241,12.9597 -2.18552,4.75921 -5.9275,9.40136 -10.95671,11.26756 -2.06166,0.76528 -4.512,1.19057 -6.70362,0.86242 l 0.007,-0.0716 3.8e-4,-1.08348 c 2.25637,0.0106 4.37638,-0.40786 6.42123,-1.39918 3.85301,-1.86806 6.73587,-5.14465 8.83097,-8.80917 0.87344,-1.52746 1.64508,-3.15891 2.22237,-4.82148 0.94188,-2.71243 1.53119,-5.58421 1.52671,-8.46296 -0.009,-5.56566 -2.07581,-10.92066 -4.34258,-15.9107 l -3.58663,-7.3263 -1.35509,-2.52351 c -0.41646,-0.74225 -0.86847,-1.49128 -1.23859,-2.25606 z"
     id="path3"
     style="stroke-width:0.0622689" />
  <path
     fill="#db1a18"
     d="m 120.18449,200.88484 c -2.91008,-0.004 -5.80247,-0.52306 -8.45095,-1.76408 -6.26163,-2.93411 -11.06748,-8.76621 -13.401623,-15.21913 -1.69882,-4.69694 -2.419644,-9.6797 -2.002007,-14.66712 0.325853,-3.89187 1.361384,-7.80422 2.617904,-11.49047 0.99743,-2.92608 2.160476,-5.79761 3.470806,-8.59778 l 8.34845,-15.97788 7.74406,-12.83729 c 0.24696,-0.3733 1.37191,-2.20394 1.63992,-2.30118 l 0.0722,0.0892 c -0.092,0.53495 -0.0352,1.14992 -0.0338,1.69551 l 0.0116,3.14913 0.0263,3.79061 c 0.004,0.59181 -0.0426,1.23698 0.0192,1.82293 0.96379,1.4409 1.78481,3.00248 2.6704,4.49475 l 3.44589,5.66167 1.60685,2.68292 c 0.21583,0.35499 0.4149,0.76304 0.67089,1.08815 0.37012,0.76478 0.82213,1.51381 1.23859,2.25606 l 1.35509,2.52351 3.58663,7.3263 c 2.26677,4.99004 4.33385,10.34504 4.34257,15.91069 0.005,2.87876 -0.58483,5.75053 -1.52671,8.46297 -0.5773,1.66257 -1.34893,3.29402 -2.22238,4.82148 -2.0951,3.66452 -4.97796,6.9411 -8.83097,8.80917 -2.04485,0.99132 -4.16485,1.40977 -6.42123,1.39918 l -3.7e-4,1.08348 -0.007,0.0716 z"
     id="path4"
     style="stroke-width:0.0622689" />
  <path
     fill="#b81c1a"
     d="m 108.48603,188.60168 c 2.9518,2.73859 6.23013,4.71998 10.2834,5.27791 l 0.0738,0.0181 1.31897,0.11644 -3.7e-4,1.08348 -0.007,0.0716 c -0.14378,-0.0878 -0.46154,-0.0778 -0.63527,-0.10087 -0.47019,-0.0623 -0.94057,-0.1233 -1.40478,-0.22231 -2.24697,-0.47947 -4.20421,-1.41537 -6.05515,-2.76909 -0.60762,-0.44398 -3.47641,-2.85129 -3.5733,-3.47523 z"
     id="path5"
     style="stroke-width:0.0622689" />
  <path
     fill="#e3584c"
     d="m 120.19302,128.59287 c 0.024,0.76677 -0.15424,1.51307 -0.31203,2.25892 -0.63353,2.9952 -1.71115,5.86716 -2.81406,8.71571 l -5.08923,12.86718 -2.21273,6.21381 c -0.85794,2.65701 -1.5863,5.32884 -1.89832,8.11083 -0.19179,1.70972 -0.20468,3.42983 -0.14403,5.14746 0.10143,2.87495 0.57088,5.73932 1.48318,8.47043 1.51357,4.53131 4.09847,8.48787 7.57501,11.75387 l 1.98862,1.74851 c -4.05327,-0.55793 -7.3316,-2.53932 -10.2834,-5.27791 -0.0298,-0.0679 -0.15019,-0.16128 -0.20692,-0.21794 l -0.59049,-0.59405 c -0.56528,-0.57598 -1.08199,-1.20116 -1.56787,-1.84502 -2.90023,-3.84386 -4.61605,-8.47978 -4.99571,-13.27498 -0.15436,-1.94957 -0.18537,-3.91926 0.1251,-5.85495 0.65252,-4.06846 2.22973,-7.8673 3.93365,-11.59104 2.9338,-6.41145 6.49857,-12.46149 10.11645,-18.50151 l 3.51713,-5.74704 0.78334,-1.36518 c 0.18027,-0.33352 0.34753,-0.73005 0.59231,-1.0171 z"
     id="path6"
     style="stroke-width:0.0622689" />
</svg>
