<?xml version="1.0" encoding="UTF-8" standalone="no"?>
<!-- Created with Inkscape (http://www.inkscape.org/) -->

<svg
   width="63mm"
   height="88mm"
   viewBox="0 0 63 88"
   version="1.1"
   id="svg1"
   inkscape:version="1.3.2 (091e20e, 2023-11-25, custom)"
   xml:space="preserve"
   sodipodi:docname="card-disorder-vitals.svg"
   xmlns:inkscape="http://www.inkscape.org/namespaces/inkscape"
   xmlns:sodipodi="http://sodipodi.sourceforge.net/DTD/sodipodi-0.dtd"
   xmlns="http://www.w3.org/2000/svg"
   xmlns:svg="http://www.w3.org/2000/svg"><sodipodi:namedview
     id="namedview1"
     pagecolor="#ffffff"
     bordercolor="#000000"
     borderopacity="0.25"
     inkscape:showpageshadow="2"
     inkscape:pageopacity="0.0"
     inkscape:pagecheckerboard="0"
     inkscape:deskcolor="#d1d1d1"
     inkscape:document-units="mm"
     inkscape:zoom="2.0686841"
     inkscape:cx="113.84048"
     inkscape:cy="103.6891"
     inkscape:window-width="1350"
     inkscape:window-height="1017"
     inkscape:window-x="228"
     inkscape:window-y="0"
     inkscape:window-maximized="0"
     inkscape:current-layer="layer1" /><defs
     id="defs1" /><g
     inkscape:label="Layer 1"
     inkscape:groupmode="layer"
     id="layer1"><g
       id="g1"
       transform="matrix(0.06087197,0,0,0.06087197,0.03359486,0.54402301)"><path
         id="path2"
         style="fill:none;stroke:#e5e5e5;stroke-width:4.92837673;stroke-dasharray:none;stroke-opacity:1"
         d="m 1204.8416,221.81931 -160.3391,67.95194 4.0151,46.40929 c 3.1121,24.96797 8.3445,50.36564 14.2681,74.81624 6.5873,27.18902 16.89,54.65162 28.3853,80.19102 25.3172,56.2605 80.6107,145.50055 64.0233,209.10127 -0.5064,1.94476 -1.0494,3.80279 -1.8348,5.65539 -7.7194,18.22897 -24.5245,32.6403 -33.5443,50.27325 -7.0478,13.77058 -8.3165,29.64148 -10.2747,44.7473 l -6.5406,59.92198 c -0.7203,10.05172 -3.0905,21.12725 -0.6907,30.97567 l 4.533,4.51125 c 7.8252,-1.50045 15.9026,-6.82189 21.0246,-12.92973 3.2774,-22.24297 5.0068,-59.50531 24.3055,-73.88805 2.9714,-2.2129 3.2131,-2.04082 6.8427,-1.76995 10.3848,20.45265 10.8873,45.72566 3.8638,67.0668 -4.5992,13.97373 -12.3308,30.70792 -20.7871,42.82618 -7.5515,10.82087 -25.8999,24.60144 -29.4645,36.78214 -0.5999,2.04761 -0.037,6.25118 -0.042,8.52637 4.0277,4.78881 4.3777,5.4932 10.3827,6.97217 41.3333,-12.13191 95.6808,-41.80565 116.9731,-79.95361 6.2082,-11.12688 9.7824,-24.45172 11.5485,-37.01959 l 0.41,-2.71981 c 2.0098,-14.63732 -0.9608,-31.44274 -2.2663,-46.12884 -1.9178,-21.54401 -3.0599,-42.7512 -2.3314,-64.39032 l 8.6992,-108.66256 c 9.6751,-110.5219 17.9379,-223.60021 -16.6211,-330.86638 -8.6485,-26.84022 -20.2861,-53.70527 -34.5371,-78.39942 z" /><path
         id="path5"
         style="fill:none;stroke:#e5e5e5;stroke-width:4.92837673;stroke-dasharray:none;stroke-opacity:1"
         d="m 877.9685,-358.40575 17.91618,374.577626 c 23.03667,63.12583 62.79201,115.573414 89.88305,155.287864 l 35.16317,49.69031 c 6.1486,8.37776 15.6538,18.61594 19.4919,28.25571 3.0365,7.6221 2.3641,19.07469 2.9573,27.26288 l 1.1224,13.10261 160.3391,-67.95194 c -2.4417,-4.23088 -4.7994,-8.54577 -7.404,-12.62772 l -18.5205,-27.2628 c -2.2265,-3.15287 -6.8162,-7.98217 -8.0732,-11.28939 -1.078,-2.83855 -0.5308,-9.68767 -0.7122,-12.90825 l -2.4393,-35.48691 c -3.8435,-36.116574 -10.8281,-72.556464 -23.4636,-106.698414 -10.7504,-29.03891 -24.1682,-58.00595 -39.6315,-84.85359 -6.5684,-11.40054 -16.3847,-22.77927 -21.7152,-34.515666 -1.6821,-3.69993 -1.5111,-7.75833 -1.5111,-11.72098 0,-68.20539 -19.5657,-141.15209 -69.3118,-190.36481 -28.10175,-27.79567 -67.93199,-47.8461 -107.60498,-51.02866 -6.48289,-0.52232 -18.80357,-0.0663 -26.48572,-1.46787 z" /><path
         id="path3"
         style="fill:none;stroke:#e5e5e5;stroke-width:4.92837673;stroke-dasharray:none;stroke-opacity:1"
         d="m 11.8403,309.00422 -171.90892,-68.36223 c -5.97935,12.90481 -11.17479,26.1399 -15.45542,39.89052 -13.9059,44.67024 -19.7483,91.96599 -23.24783,138.47262 -5.90207,78.47082 -3.09035,156.21249 2.76297,234.57225 l 7.55501,78.26998 c 1.89865,31.41167 -5.22265,61.25223 -5.50436,92.23597 -0.27626,30.31457 9.42266,61.30968 28.29891,85.06954 20.22519,25.45804 59.29203,53.19205 92.04163,57.56923 2.96867,0.39807 4.78142,0.0767 7.55503,-0.8851 2.36732,-4.1551 2.38246,-4.38053 0.99294,-8.97969 -2.7384,-9.07919 -12.46201,-19.81933 -17.65715,-27.99674 -20.70451,-32.59798 -37.37049,-74.90139 -23.96018,-113.26048 l 4.10131,-3.08674 c 7.32941,2.28612 12.47689,8.47374 15.90869,15.15325 10.11116,19.67248 3.10231,52.03293 22.98882,65.2538 5.30616,0.51186 5.57206,0.67484 10.42591,-2.24492 9.46389,-23.1993 4.74632,-103.07133 -5.13741,-126.51426 -6.57639,-15.59596 -18.26508,-26.83519 -26.48572,-41.22871 -23.53231,-41.20332 -11.92902,-91.70502 4.29559,-133.03299 C -55.85223,526.88114 -16.3428,471.0663 2.0187597,405.14702 10.75787,373.77567 10.08381,341.0901 11.8403,309.00422 Z" /><path
         id="path6"
         style="fill:none;stroke:#e5e5e5;stroke-width:4.92837673;stroke-dasharray:none;stroke-opacity:1"
         d="m 194.02403,-363.49993 c -0.10159,0.0431 -0.22294,0.15316 -0.32379,0.19421 -6.51964,2.65449 -20.80657,0.67995 -28.40683,1.38154 -10.37671,0.95609 -20.7838,3.16731 -30.7813,6.0656 -60.99764,17.67622 -111.75082,62.96566 -135.32106032,122.11055 -9.23095968,23.16392 -13.79510968,48.8889 -16.83689968,73.56429 l -3.69115,43.68955 c -0.30607,4.00873 0.1861,12.55753 -1.2088,16.05975 -3.99519,10.021776 -16.91291,22.749396 -23.11835,32.443376 -18.40761,28.75183 -33.74202,59.7145796 -44.81202,92.02013 -9.67246,28.22895 -15.75564,57.39443 -20.48488,86.817834 -3.49955,21.78532 -5.82561,44.98989 -12.1096,66.16034 -3.65664,12.3187 -15.74833,24.41643 -22.38442,35.61645 -5.4165,9.1394 -10.20343,18.50039 -14.61355,28.0183 L 11.8403,309.00422 c 1.39945,-25.564 4.30644,-50.7566 15.00208,-74.53571 11.46015,-25.47983 37.33491,-46.04803 54.33132,-68.51316 26.02627,-34.39891 79.08566,-104.321084 99.89887,-144.214404 z" /><path
         id="path4"
         style="fill:none;stroke:#e5e5e5;stroke-width:4.92837673;stroke-dasharray:none;stroke-opacity:1"
         d="m 911.68534,1489.4856 -214.1089,3.4107 c -0.96048,8.7663 -1.71023,17.5843 -2.67661,26.2699 -4.67783,42.0375 -9.58131,85.4846 -5.37487,127.7661 7.94431,79.7675 46.37192,152.7254 62.46912,231.248 6.41128,31.2574 12.09215,62.7727 13.14573,94.7614 0.86402,26.1925 -1.35559,53.1682 1.0361,79.1981 1.70104,18.5268 7.1338,36.4583 10.03736,54.7414 2.54341,16.008 -3.08187,34.8877 -6.45409,50.705 -6.92043,32.4222 -14.9632,66.4699 -15.95186,99.7046 -0.32509,10.9427 -0.91449,22.4137 1.83479,33.1125 2.12634,8.2615 5.9356,16.1619 12.39024,21.9312 5.46326,4.9027 12.46019,7.5325 19.53505,9.1309 17.86596,4.0357 38.67332,3.1124 57.02958,3.4105 26.74192,0.4063 54.92024,1.7642 81.5076,-0.9714 8.28577,-0.8396 19.28152,-4.5029 24.93164,-10.9223 6.22163,-7.0694 5.86468,-19.2423 4.81381,-28.1265 -4.1008,-34.5339 -23.64008,-60.99 -39.60992,-90.5952 -19.29609,-35.8079 -38.82667,-81.2223 -41.83316,-121.8516 -1.99346,-26.9507 -0.18303,-55.1453 0.86346,-82.1769 2.56234,-66.3071 8.08014,-136.0885 24.52127,-200.5534 11.78522,-46.1818 32.70558,-93.3588 36.09145,-141.0843 3.83864,-54.0786 -6.81367,-107.8617 -24.19779,-159.1087 z" /><path
         id="path7"
         style="fill:none;stroke:#e5e5e5;stroke-width:4.92837673;stroke-dasharray:none;stroke-opacity:1"
         d="m 364.09816,1497.019 -213.78527,-9.1523 c -14.86035,48.9881 -25.59021,101.3432 -22.03906,150.7764 3.69715,51.5448 20.93969,101.8275 32.50815,151.964 16.28675,70.5852 23.96846,140.0569 27.43548,212.2958 1.12137,23.4023 3.29211,47.8848 1.81321,71.2329 -1.0022,15.8456 -5.09584,31.8107 -11.00875,46.5171 -11.85003,29.4969 -27.68993,58.8096 -41.57413,87.4654 -13.18012,27.2215 -28.96545,48.9323 -31.06192,80.623 -0.41713,6.338 -0.92174,14.3099 1.61893,20.2689 2.90093,6.8255 9.05658,8.9825 15.73602,11.0952 25.58813,8.0446 140.80981,9.1445 162.49752,-2.9356 10.93197,-6.0944 16.90342,-17.1535 19.96685,-28.8819 10.05697,-38.4339 -3.91105,-90.8864 -12.00169,-128.9964 -3.24761,-15.2768 -7.97617,-31.5734 -7.20964,-47.3376 1.07263,-21.9937 9.36687,-43.966 11.11665,-66.4191 1.96102,-25.1901 -0.2901,-50.9644 0.77709,-76.2627 1.93667,-45.8827 10.61281,-91.9963 21.71526,-136.4434 15.06802,-60.3208 42.2823,-117.9117 49.712,-179.939 6.1477,-51.3598 -1.71947,-104.5167 -6.2167,-155.8707 z" /><path
         id="path8"
         style="fill:none;stroke:#e5e5e5;stroke-width:4.92838;stroke-dasharray:none;stroke-opacity:1"
         d="M 891.28687,833.96952 171.07838,822.28748 c -2.61886,11.88173 -5.42073,13.36479 -7.51183,25.23806 -8.11773,46.10564 -10.50788,92.54799 -11.65632,139.27118 -1.02928,41.90208 -1.12206,84.94708 2.28807,126.72998 l 17.00959,133.81 c 7.07487,42.7394 19.09073,85.1144 16.0598,128.9316 -1.57372,22.7441 -13.9342,43.9022 -21.521,65.1243 -5.35601,14.9842 -10.60602,30.5589 -15.4338,46.4741 l 213.78527,9.1523 c -0.0897,-1.0243 -0.19372,-2.0852 -0.28061,-3.1081 -1.89588,-22.2919 -4.70846,-45.3552 -1.87798,-67.7146 3.21784,-25.4071 12.18578,-51.5271 20.46329,-75.6797 l 32.31391,-94.675 58.51892,-222.6787 C 488.26293,963.10785 500.81903,895.38069 503.77952,823.63 l 51.58995,0.21584 2.61185,38.16373 c 13.9168,132.67245 48.1386,266.36643 87.6598,393.57293 16.49798,53.0999 41.2878,104.9291 51.93532,159.5836 5.0029,25.674 2.84342,51.7778 0,77.7302 l 214.1089,-3.4107 c -5.48041,-16.1559 -11.5566,-32.0874 -18.15338,-47.6613 l -16.2542,-37.7318 c -2.63796,-6.1325 -6.74251,-13.6523 -7.51182,-20.1825 -2.15062,-18.2807 1.32134,-38.7206 4.36032,-56.7276 l 22.72984,-109.008 c 23.70633,-129.2134 20.03681,-257.84658 -5.56923,-384.20488 z"
         sodipodi:nodetypes="cccccccccccccccccccccccccccc" /><path
         id="path10"
         style="fill:none;stroke:#e5e5e5;stroke-width:4.92837673;stroke-dasharray:none;stroke-opacity:1"
         d="M 801.31755,200.6221 256.49319,190.45515 c 1.47067,2.87105 2.93927,5.74067 4.55462,8.41848 23.31925,79.4332 27.61946,91.92198 24.67249,176.01025 -0.60862,17.3184 -2.25436,91.52376 -6.60525,120.578 l 513.56825,9.23874 C 780.3944,450.33807 778.388,397.62873 780.9838,341.51228 c 2.68691,-58.0723 7.39292,-53.03665 17.31177,-124.20446 1.02732,-6.13291 2.01686,-11.57493 3.02198,-16.68572 z" /><path
         id="path11"
         style="fill:none;stroke:#e5e5e5;stroke-width:4.92837673;stroke-dasharray:none;stroke-opacity:1"
         d="m 888.5887,-136.20197 -701.88226,-9.67049 -5.63387,167.613406 c 0.4706,-0.90203 1.37673,-2.19502 1.81321,-3.06518 9.3364,18.55102 20.71719,68.86786 33.30682,85.479564 17.9064,23.62268 26.23023,58.8321 40.30059,86.29982 l 544.82436,10.16695 c 7.67009,-39.00184 16.13281,-52.24132 47.35915,-98.81966 33.57131,-50.076404 42.57799,-83.129234 46.77629,-86.731424 0.13504,0.37371 0.29546,0.72746 0.43169,1.10086 z" /><path
         id="path12"
         style="fill:none;stroke:#e5e5e5;stroke-width:4.92837673;stroke-dasharray:none;stroke-opacity:1"
         d="m 417.22074,-493.51092 c -0.0128,0.0318 -0.008,0.31685 -0.0216,0.34537 -52.64139,41.28422 -113.61981,62.56276 -171.26134,95.19316 -11.89622,6.73357 -23.16456,14.37556 -34.32135,22.25487 -5.10961,3.6085 -11.88434,9.77344 -17.59238,12.21759 l -7.31759,217.62747 701.88234,9.67049 -10.62028,-222.20378 c -1.28229,-0.23389 -3.36064,-0.11898 -4.27392,-0.49645 -4.71296,-1.95018 -10.35517,-6.86948 -14.72149,-9.73519 -11.50322,-7.54887 -22.89417,-15.37021 -34.90415,-22.10378 l -80.90331,-42.52394 c -34.95973,-17.39991 -69.35337,-33.90836 -99.40251,-59.31765 l 0.0216,-0.92816 z" /><path
         id="path9"
         style="fill:none;stroke:#000000;stroke-width:4.92838;stroke-dasharray:none;stroke-opacity:1"
         d="m 788.48106,496.55878 -505.68905,-0.83426 c -2.89256,2.218 -3.69749,1.4644 -5.09801,5.30625 -4.94329,7.58941 -53.75682,158.28801 -70.23745,199.78024 -21.93555,60.2789 -19.45826,58.19179 -33.40674,121.47646 l 714.08538,10.63149 C 878.84727,787.08509 870.00734,742.5899 855.13078,697.43974 835.13864,636.76725 794.81944,518.17012 792.95663,507.57466 c -1.92919,-4.5638 -1.58382,-8.83126 -4.47557,-11.01588 z"
         sodipodi:nodetypes="ccccccccc" /><path
         id="path1"
         style="fill:none;stroke:#e5e5e5;stroke-width:4.92837673;stroke-dasharray:none;stroke-opacity:1"
         d="m 533.60019,-959.52569 c -5.75297,-0.2602 -11.72601,-0.5365 -17.46285,0.043 -39.33443,4.759 -75.38967,19.7494 -100.33049,51.8058 -30.61817,39.3506 -33.90227,114.4049 -27.80247,162.8213 -3.65391,3.6431 -4.81075,1.7541 -8.37526,3.7991 -5.46057,3.1311 -7.59004,11.7097 -7.61978,17.4845 -0.0624,12.1589 3.11299,23.6557 5.41802,35.487 4.01958,20.64226 6.71815,48.58834 23.0104,63.65632 2.57048,2.37547 5.72967,4.21712 8.89333,5.67704 1.99608,12.24604 5.87191,117.59058 2.54713,125.24055 h 226.56402 l 2.61185,-80.83864 c 0.22223,-12.1427 -2.20971,-33.29946 1.98596,-44.35872 l 1.59731,-1.40308 c 19.2717,-17.21592 23.10962,-39.03466 28.21258,-63.07357 2.49734,-11.7581 5.435,-23.825 5.91452,-35.8539 0.27892,-6.9341 0.73808,-13.5083 -3.17307,-19.5783 -3.03643,-2.2671 -6.22841,-4.4144 -8.82868,-7.188 3.07979,-54.9605 4.17426,-123.9453 -34.51559,-167.5918 -24.55353,-27.6983 -61.87205,-44.4765 -98.64693,-46.1288 z" /></g><g
       id="mind"
       transform="matrix(0.05173302,0,0,0.05173302,-3.2910709,-8.7390055)"
       inkscape:label="mind"><path
         fill="#8751D1"
         d="m 411.69208,747.05319 c -0.24812,-0.0337 -0.61135,0.0446 -0.86853,0.0689 l -1.88364,0.18649 c -3.72501,0.33108 -8.57419,0.88378 -11.91731,-1.09865 -2.31419,-1.37162 -3.71541,-3.91758 -3.77797,-6.58974 -0.0316,-1.35445 0.21513,-2.71607 0.33824,-4.0627 0.155,-1.69621 0.11689,-3.55812 -0.36243,-5.20298 -0.34838,-1.19595 -1.45608,-1.90027 -2.27878,-2.7777 -0.32433,-0.34581 -0.66149,-0.6965 -0.75798,-1.17919 -0.0843,-0.42203 0.004,-0.78231 0.23041,-1.14312 0.70459,-1.12593 2.04783,-1.75635 3.29176,-2.05337 -1.46785,-0.66041 -2.98109,-1.155 -3.73973,-2.6996 -0.0738,-0.9685 0.67715,-1.48648 1.22594,-2.20552 0.44256,-0.57988 0.90959,-1.29285 1.14594,-1.98636 0.30595,-0.89757 0.39325,-2.0065 -0.0624,-2.87055 -0.32352,-0.61365 -0.91203,-0.94972 -1.54743,-1.15905 -1.07176,-0.35298 -2.44501,-0.17271 -3.57501,-0.2446 -1.08391,-0.069 -2.38392,-0.43067 -3.12283,-1.2777 -1.58244,-1.81365 -0.5669,-3.34163 0.31594,-5.1823 l 4.40663,-9.12569 c 1.32702,-2.79188 2.80864,-5.68878 3.46581,-8.72446 0.23121,-1.06798 0.27838,-2.21095 0.16162,-3.29905 -0.15554,-1.45068 -0.55595,-2.89231 -0.77594,-4.33731 -0.50258,-3.30135 -0.63447,-6.64149 -0.43325,-9.97311 l 5.83284,-17.18719 c 3.39416,-6.96905 6.91022,-12.09437 11.932,-16.32738 9.62457,-8.97887 13.47758,-9.65632 15.94441,-10.766 10.19556,-3.45889 25.31639,-3.25762 29.84348,-1.68229 4.3097,1.27835 11.02166,3.75073 14.87564,7.31267 8.36058,7.72704 13.11125,14.18473 17.04402,28.18178 1.13234,11.82468 2.47464,18.22573 -8.91699,38.68708 -4.82517,4.50903 -3.58578,9.81468 -4.72292,21.93709 -2.70104,8.57625 1.50951,26.66266 -1.8586,27.09779 z"
         id="path2-3"
         style="fill:none;fill-opacity:1;stroke:#d15151;stroke-width:2.32259;stroke-dasharray:none;stroke-opacity:1"
         sodipodi:nodetypes="ccccccccccccscccccccscccccccsccccc" /><text
         xml:space="preserve"
         style="font-style:normal;font-variant:normal;font-weight:normal;font-stretch:normal;font-size:148.144px;font-family:Amiri;-inkscape-font-specification:'Amiri, Normal';font-variant-ligatures:normal;font-variant-caps:normal;font-variant-numeric:normal;font-variant-east-asian:normal;fill:#d15151;fill-opacity:1;stroke:none;stroke-width:0.269287;stroke-dasharray:none;stroke-opacity:1;paint-order:markers fill stroke"
         x="489.6109"
         y="732.83862"
         id="text1-3"><tspan
           sodipodi:role="line"
           id="tspan1-4"
           x="489.6109"
           y="732.83862">Mind: -1</tspan></text><path
         style="fill:#d80000;fill-opacity:1;stroke-width:3.49882"
         id="path1-3"
         sodipodi:type="arc"
         sodipodi:cx="441.53137"
         sodipodi:cy="667.83423"
         sodipodi:rx="37.176922"
         sodipodi:ry="39.043968"
         sodipodi:start="0.027304543"
         sodipodi:end="6.2831853"
         sodipodi:open="true"
         sodipodi:arc-type="arc"
         d="m 478.69444,668.90017 a 37.176922,39.043968 0 0 1 -37.92434,37.96984 37.176922,39.043968 0 0 1 -36.41219,-39.5688 37.176922,39.043968 0 0 1 37.42723,-38.51004 37.176922,39.043968 0 0 1 36.92315,39.04306" /><path
         style="fill:#ffffff;fill-opacity:1;stroke-width:3.34545"
         id="path1-93"
         sodipodi:type="arc"
         sodipodi:cx="441.50256"
         sodipodi:cy="667.05212"
         sodipodi:rx="35.50272"
         sodipodi:ry="37.379631"
         sodipodi:start="0.027304543"
         sodipodi:end="6.2831853"
         sodipodi:open="true"
         sodipodi:arc-type="arc"
         d="m 476.99205,668.07263 a 35.50272,37.379631 0 0 1 -36.21647,36.35129 35.50272,37.379631 0 0 1 -34.77243,-37.8821 35.50272,37.379631 0 0 1 35.74176,-36.86846 35.50272,37.379631 0 0 1 35.26037,37.37876" /><rect
         style="fill:#cc0400;fill-opacity:1;stroke-width:4.1036"
         id="rect1-6"
         width="43.670288"
         height="44.625092"
         x="787.51117"
         y="-45.42012"
         transform="matrix(0.5298425,0.84809606,-0.5441132,0.83901181,0,0)" /><path
         id="path3-2"
         style="fill:#ffffff;stroke-width:4.17674"
         d="m 465.39785,667.3739 -23.72874,2.71407 -23.72873,-2.71407 23.72873,-0.5428 z"
         sodipodi:nodetypes="ccccc" /><path
         id="path4-6"
         style="fill:#ffffff;stroke-width:2.36508"
         inkscape:transform-center-x="-0.00029899198"
         inkscape:transform-center-y="-0.42374246"
         d="m 440.73859,667.76163 0.9542,-40.11665 0.98143,39.74202 z" /></g></g></svg>
