<?xml version="1.0" encoding="UTF-8" standalone="no"?>
<!-- Created with Inkscape (http://www.inkscape.org/) -->

<svg
   width="63mm"
   height="88mm"
   viewBox="0 0 63 88"
   version="1.1"
   id="svg1"
   inkscape:version="1.3.2 (091e20e, 2023-11-25, custom)"
   xml:space="preserve"
   sodipodi:docname="card-hitlocation-hand-left.svg"
   xmlns:inkscape="http://www.inkscape.org/namespaces/inkscape"
   xmlns:sodipodi="http://sodipodi.sourceforge.net/DTD/sodipodi-0.dtd"
   xmlns="http://www.w3.org/2000/svg"
   xmlns:svg="http://www.w3.org/2000/svg"><sodipodi:namedview
     id="namedview1"
     pagecolor="#ffffff"
     bordercolor="#000000"
     borderopacity="0.25"
     inkscape:showpageshadow="2"
     inkscape:pageopacity="0.0"
     inkscape:pagecheckerboard="0"
     inkscape:deskcolor="#d1d1d1"
     inkscape:document-units="mm"
     inkscape:zoom="1.4627806"
     inkscape:cx="171.93282"
     inkscape:cy="237.56126"
     inkscape:window-width="1350"
     inkscape:window-height="1017"
     inkscape:window-x="228"
     inkscape:window-y="0"
     inkscape:window-maximized="0"
     inkscape:current-layer="g1" /><defs
     id="defs1" /><g
     inkscape:label="Layer 1"
     inkscape:groupmode="layer"
     id="layer1"><g
       id="g1"
       transform="matrix(0.06087197,0,0,0.06087197,0.03359486,0.54402301)"><path
         id="path5"
         style="fill:none;stroke:#e6e6e6;stroke-width:4.92837673;stroke-dasharray:none;stroke-opacity:1"
         d="m 224.76249,-222.62328 17.95484,375.38598 c 23.08635,63.26206 62.92748,115.82282 90.07698,155.62297 l 35.23908,49.79755 c 6.16183,8.39584 15.68755,18.65612 19.53392,28.31668 3.04306,7.63854 2.36924,19.11586 2.96375,27.32171 l 1.12477,13.13089 160.68511,-68.09858 c -2.44695,-4.24001 -4.80972,-8.56421 -7.41992,-12.65497 l -18.56048,-27.32164 c -2.23129,-3.15966 -6.83093,-7.99939 -8.09062,-11.31374 -1.08035,-2.84468 -0.53193,-9.70858 -0.71375,-12.93611 l -2.44455,-35.5635 c -3.85181,-36.1945 -10.85143,-72.71303 -23.51425,-106.92866 -10.77364,-29.10157 -24.22041,-58.131121 -39.71702,-85.036711 -6.58261,-11.42513 -16.42011,-22.82842 -21.76208,-34.59015 -1.68575,-3.70792 -1.51433,-7.77507 -1.51433,-11.74628 0,-68.35258 -19.60794,-141.456709 -69.46143,-190.775619 -28.16239,-27.85565 -68.07858,-47.94935 -107.83712,-51.13878 -6.4969,-0.52345 -18.84417,-0.0664 -26.5429,-1.47104 z" /><path
         id="path3"
         style="fill:none;stroke:#e6e6e6;stroke-width:4.92837673;stroke-dasharray:none;stroke-opacity:1"
         d="m -643.23488,446.22697 -172.27995,-68.50975 c -5.9922,12.93266 -11.1989,26.19631 -15.4887,39.9766 -13.9359,44.76664 -19.7909,92.16445 -23.2981,138.77145 -5.9148,78.64015 -3.097,156.54959 2.769,235.07843 l 7.5713,78.43889 c 1.9027,31.47947 -5.2339,61.38442 -5.5162,92.43503 -0.2769,30.37999 9.4429,61.44198 28.3599,85.25318 20.2689,25.513 59.4201,53.3068 92.2403,57.6935 2.9751,0.3989 4.7918,0.077 7.5713,-0.8871 2.3725,-4.164 2.3877,-4.3899 0.9951,-8.999 -2.7443,-9.0988 -12.4889,-19.8621 -17.6952,-28.0572 -20.7492,-32.6683 -37.4512,-75.06306 -24.0119,-113.50493 l 4.1102,-3.0934 c 7.3451,2.29106 12.5038,8.49203 15.943,15.18595 10.1329,19.71494 3.109,52.14528 23.0384,65.39468 5.3176,0.513 5.5841,0.6763 10.4484,-2.2498 9.4843,-23.2493 4.7566,-103.29379 -5.1485,-126.78731 -6.5906,-15.62962 -18.3044,-26.8931 -26.5429,-41.31769 -23.583,-41.29223 -11.9547,-91.90292 4.3049,-133.32008 24.791,-63.15434 64.3857,-119.08964 82.78692,-185.15116 8.75796,-31.43905 8.08245,-64.19517 9.84273,-96.35029 z" /><path
         id="path6"
         style="fill:none;stroke:#e6e6e6;stroke-width:4.92837673;stroke-dasharray:none;stroke-opacity:1"
         d="m -460.65799,-227.72845 c -0.10181,0.0432 -0.22343,0.15349 -0.32449,0.19462 -6.53371,2.66022 -20.85148,0.68142 -28.46815,1.38453 -10.39909,0.95815 -20.82864,3.17415 -30.84772,6.07869 -61.12927,17.71437 -111.99197,63.10153 -135.61308,122.374059 -9.2509,23.21391 -13.8249,48.99441 -16.8732,73.72305 l -3.6992,43.78384 c -0.3067,4.01738 0.1866,12.58463 -1.2114,16.0944 -4.0038,10.04341 -16.9494,22.7985 -23.1682,32.5134 -18.4473,28.81388 -33.8148,59.843441 -44.9087,92.218711 -9.6933,28.28987 -15.7897,57.51828 -20.5291,87.00518 -3.5071,21.83234 -5.8382,45.08698 -12.1357,66.30312 -3.6646,12.34528 -15.7824,24.46912 -22.4327,35.69331 -5.4283,9.15912 -10.2255,18.54031 -14.6452,28.07876 l 172.27995,68.50975 c 1.40246,-25.61917 4.31573,-50.86613 15.03445,-74.69655 11.48488,-25.53482 37.41548,-46.14741 54.44857,-68.66101 26.08244,-34.47315 79.25632,-104.54621 100.11445,-144.52562 z" /><path
         id="path4"
         style="fill:none;stroke:#e6e6e6;stroke-width:4.92837673;stroke-dasharray:none;stroke-opacity:1"
         d="m 258.55206,1629.2558 -214.570931,3.4181 c -0.96255,8.7852 -1.71391,17.6223 -2.68238,26.3266 -4.68792,42.1283 -9.60199,85.6691 -5.38647,128.0418 7.96146,79.9397 46.47199,153.055 62.60393,231.7471 6.425121,31.3248 12.118241,62.9081 13.174101,94.9659 0.86588,26.249 -1.35852,53.2829 1.03834,79.369 1.70471,18.5668 7.14919,36.537 10.05901,54.8595 2.54891,16.0425 -3.08852,34.9631 -6.46801,50.8145 -6.93536,32.4922 -14.99549,66.6134 -15.98629,99.9198 -0.32579,10.9663 -0.916461,22.4621 1.83875,33.184 2.13093,8.2793 5.94841,16.1967 12.41698,21.9784 5.47505,4.9133 12.48708,7.5488 19.57721,9.1507 17.90451,4.0444 38.75678,3.1191 57.15265,3.4178 26.79963,0.4072 55.03876,1.768 81.68346,-0.9734 8.30365,-0.8415 19.32313,-4.5127 24.98544,-10.946 6.23506,-7.0846 5.87734,-19.2837 4.8242,-28.1871 -4.10965,-34.6085 -23.6911,-61.1216 -39.6954,-90.7907 -19.33769,-35.8852 -38.91042,-81.3977 -41.9234,-122.1147 -1.99776,-27.0088 -0.18342,-55.2643 0.86532,-82.3542 2.56787,-66.4502 8.09758,-136.3822 24.57419,-200.9862 11.81062,-46.2815 32.77612,-93.5603 36.1693,-141.3888 3.84692,-54.1953 -6.82837,-108.0944 -24.25,-159.4521 z" /><path
         id="path7"
         style="fill:none;stroke:#e6e6e6;stroke-width:4.92837673;stroke-dasharray:none;stroke-opacity:1"
         d="m -290.21684,1636.8055 -214.24663,-9.172 c -14.89242,49.0938 -25.64543,101.5619 -22.08662,151.1018 3.70513,51.656 20.98488,102.0472 32.5783,152.2919 16.3219,70.7375 24.02018,140.3592 27.49469,212.7539 1.12379,23.4528 3.29921,47.9882 1.81712,71.3866 -1.00436,15.8798 -5.10683,31.8794 -11.03251,46.6176 -11.8756,29.5606 -27.74968,58.9366 -41.66384,87.6542 -13.20856,27.2803 -29.02796,49.0378 -31.12896,80.7969 -0.41802,6.3518 -0.92373,14.3408 1.62243,20.3128 2.90719,6.8402 9.07612,9.0018 15.76997,11.1191 25.64335,8.0619 141.11369,9.1642 162.84821,-2.942 10.95556,-6.1075 16.9399,-17.1905 20.00994,-28.9442 10.07867,-38.5168 -3.91949,-91.0826 -12.0276,-129.2748 -3.25461,-15.3097 -7.99337,-31.6416 -7.2252,-47.4398 1.07495,-22.0412 9.3871,-44.0609 11.14065,-66.5625 1.96525,-25.2445 -0.29073,-51.0743 0.77877,-76.4273 1.94084,-45.9816 10.6357,-92.1947 21.76212,-136.7378 15.10053,-60.451 42.37354,-118.1661 49.81928,-180.3273 6.16096,-51.4706 -1.72318,-104.7422 -6.23012,-156.2071 z" /><path
         id="path8"
         style="fill:none;stroke:#e6e6e6;stroke-width:4.92837673;stroke-dasharray:none;stroke-opacity:1"
         d="m 238.1096,972.32514 -721.76277,-22.12971 c -2.62451,11.90737 -5.43243,23.8161 -7.52804,35.71499 -8.13525,46.20518 -10.53055,92.74778 -11.68147,139.57178 -1.0315,41.9925 -1.12449,85.1304 2.29301,127.0035 l 17.04629,134.0987 c 7.09014,42.8317 19.13193,85.2982 16.09446,129.2099 -1.57712,22.7932 -13.96427,43.9969 -21.56745,65.2647 -5.36756,15.0166 -10.6289,30.6249 -15.4671,46.5745 l 214.24663,9.172 c -0.0899,-1.0265 -0.19413,-2.0897 -0.28121,-3.1148 -1.89998,-22.34 -4.71862,-45.453 -1.88203,-67.8607 3.22478,-25.462 12.21207,-51.6382 20.50745,-75.843 l 32.38364,-94.8793 58.64521,-223.1593 c 15.05967,-70.2062 27.64286,-138.0795 30.60974,-209.98509 l 51.701279,0.21631 2.61749,38.24608 c 13.94683,132.9588 48.24248,266.9413 87.8490098,394.4224 16.53359,53.2145 41.3769002,105.1555 52.0473902,159.9279 5.0137,25.7294 2.84956,51.8896 0,77.8979 l 214.570931,-3.4181 c -5.49218,-16.1907 -11.58151,-32.1566 -18.19253,-47.7641 l -16.28927,-37.8132 c -2.64365,-6.1457 -6.75706,-13.6817 -7.52803,-20.2261 -2.15526,-18.3201 1.32419,-38.8041 4.36973,-56.8499 l 22.77889,-109.2433 c 23.75744,-129.4923 20.08001,-258.403 -5.58125,-385.03406 z" /><path
         id="path9"
         style="fill:none;stroke:#e6e6e6;stroke-width:4.92837673;stroke-dasharray:none;stroke-opacity:1"
         d="m 139.29324,642.34569 -514.67659,-9.25868 c -0.52994,3.53883 -1.07339,6.7317 -1.68732,8.73939 -3.08904,10.11119 -9.75094,20.20189 -13.93122,30.1339 l -36.19088,91.1154 c -21.98289,60.40897 -42.48181,123.69849 -56.4604,187.11973 L 238.1096,972.32514 C 228.80163,926.39236 216.78415,880.74832 201.87549,835.50072 181.84021,774.69729 157.2264,715.06577 141.67281,652.85893 c -0.88052,-3.52082 -1.58723,-7.00787 -2.37957,-10.51324 z" /><path
         id="path10"
         style="fill:none;stroke:#e6e6e6;stroke-width:4.92837673;stroke-dasharray:none;stroke-opacity:1"
         d="m 147.94612,337.61097 -546.00014,-10.1889 c 1.47384,2.87725 2.94561,5.75306 4.56444,8.43665 23.36958,79.60462 27.67907,92.12035 24.72574,176.39009 -0.60993,17.35577 -2.25922,91.72126 -6.61951,120.8382 l 514.67659,9.25868 c -12.31542,-54.47987 -14.32615,-107.30295 -11.72475,-163.5405 2.69271,-58.19763 7.40888,-53.15111 17.34913,-124.47249 1.02953,-6.14615 2.02121,-11.59992 3.0285,-16.72173 z" /><path
         id="path11"
         style="fill:none;stroke:#e6e6e6;stroke-width:4.92837673;stroke-dasharray:none;stroke-opacity:1"
         d="M 235.40561,0.06002916 -467.99138,-9.6313508 -473.63741,158.34379 c 0.47162,-0.90398 1.37971,-2.19975 1.81713,-3.0718 9.35654,18.59106 20.7619,69.01648 33.3787,85.66403 17.94504,23.67366 26.28683,58.95907 40.38756,86.48605 l 546.00014,10.1889 c 7.68665,-39.086 16.16763,-52.35406 47.46135,-99.03291 33.64377,-50.18447 42.66988,-83.30863 46.87724,-86.91859 0.13533,0.37452 0.2961,0.72903 0.43262,1.10323 z" /><path
         id="path12"
         style="fill:none;stroke:#e6e6e6;stroke-width:4.92837673;stroke-dasharray:none;stroke-opacity:1"
         d="m -236.97962,-358.01995 c -0.0128,0.032 -0.008,0.31754 -0.0216,0.34611 -52.75499,41.3733 -113.865,62.69772 -171.63092,95.39854 -11.92189,6.7481 -23.21456,14.40658 -34.39542,22.30289 -5.12064,3.61629 -11.90999,9.79453 -17.63034,12.24396 L -467.99129,-9.6313508 235.40578,0.06002916 224.76258,-222.62328 c -1.28506,-0.23439 -3.36789,-0.11924 -4.28315,-0.49752 -4.72312,-1.95439 -10.37751,-6.88431 -14.75325,-9.75619 -11.52805,-7.56517 -22.94358,-15.40339 -34.97948,-22.15149 l -81.077901,-42.6157 c -35.03517,-17.4374 -69.50304,-33.98147 -99.6170202,-59.44563 l 0.0216,-0.93014 z" /><path
         id="path2"
         style="fill:none;stroke:#000000;stroke-width:4.92837673;stroke-dasharray:none;stroke-opacity:1"
         d="m 552.34094,358.85392 -160.68511,68.09858 4.02378,46.50944 c 3.11877,25.02185 8.36246,50.47433 14.29886,74.97769 6.6015,27.2477 16.92644,54.76956 28.44657,80.36408 25.37188,56.38191 80.7847,145.81452 64.16149,209.55249 -0.50753,1.94895 -1.05162,3.811 -1.83876,5.6676 -7.7361,18.26831 -24.57747,32.71074 -33.61673,50.38173 -7.063,13.80031 -8.33437,29.70545 -10.29685,44.84387 l -6.55476,60.05135 c -0.72183,10.07345 -3.09716,21.17285 -0.69214,31.04255 l 4.54283,4.5209 c 7.84205,-1.5036 15.93691,-6.8366 21.06995,-12.9576 3.28442,-22.29095 5.01762,-59.63375 24.35796,-74.04753 2.97776,-2.21768 3.22,-2.04522 6.85741,-1.77377 10.40721,20.49679 10.91081,45.82434 3.87222,67.2116 -4.60917,14.0039 -12.35744,30.7742 -20.83202,42.9186 -7.56781,10.8442 -25.95577,24.6545 -29.52805,36.8615 -0.60123,2.052 -0.0376,6.2647 -0.0424,8.5448 4.03634,4.7991 4.3871,5.505 10.40504,6.9872 41.42254,-12.1581 95.88735,-41.8959 117.22562,-80.1262 6.22153,-11.1509 9.80349,-24.5045 11.57334,-37.09949 l 0.41093,-2.72568 c 2.01417,-14.66891 -0.96287,-31.5106 -2.27121,-46.2284 -1.9219,-21.59051 -3.06651,-42.84346 -2.33644,-64.52928 l 8.71802,-108.89706 c 9.69594,-110.76038 17.97662,-224.08272 -16.65699,-331.58037 -8.6672,-26.89814 -20.32993,-53.82116 -34.61167,-78.5686 z" /><path
         id="path1"
         style="fill:none;stroke:#e6e6e6;stroke-width:4.92837673;stroke-dasharray:none;stroke-opacity:1"
         d="m -120.34902,-825.04044 c -5.76538,-0.2607 -11.75132,-0.5377 -17.50054,0.043 -39.41931,4.7693 -75.55235,19.792 -100.547,51.9176 -30.68424,39.4356 -33.97543,114.6518 -27.86247,163.1727 -3.6618,3.65094 -4.82113,1.75785 -8.39334,3.80731 -5.47235,3.13789 -7.60641,11.73491 -7.63622,17.52215 -0.0625,12.18522 3.11972,23.70678 5.42972,35.56358 4.02825,20.68685 6.73264,48.69327 23.06005,63.79375 2.57603,2.38061 5.74204,4.22625 8.91253,5.68928 2.00038,12.27245 5.88458,117.84436 2.55263,125.51084 h 227.052989 l 2.61748,-81.01308 c 0.22272,-12.1689 -2.21447,-33.37136 1.99025,-44.45446 l 1.6007598,-1.40614 c 19.3132802,-17.25302 23.1594902,-39.11889 28.2734602,-63.20964 2.50273,-11.78349 5.44672,-23.87645 5.92728,-35.9313 0.27953,-6.94905 0.73967,-13.5375 -3.17991,-19.62059 -3.04299,-2.27194 -6.24186,-4.42391 -8.84774,-7.20353 3.08644,-55.07897 4.18327,-124.21277 -34.59007,-167.95347 -24.60656,-27.758 -62.00562,-44.5725 -98.859859,-46.2283 z" /><g
         id="body"
         transform="matrix(1.0609646,0,0,1.0609646,-11.342685,-403.52843)"><path
           fill="#37b2df"
           d="m 283.17389,596.49529 c 7.29878,0.33206 8.88162,-0.0804 16.00924,0.0851 0.24196,2.35569 0.33325,4.67189 0.92537,6.98158 0.21806,0.85086 0.4925,1.77406 0.99588,2.50285 l 16.01311,4.53618 4.00828,1.04672 c 1.93273,0.46715 3.81933,0.85727 5.56272,1.86704 2.18883,1.26767 3.9146,3.27912 5.0637,5.51213 1.77008,3.43983 1.78687,7.37701 2.35122,11.1269 l -11.04878,5.03231 -1.42198,0.67869 c -0.29486,0.12678 -0.63934,0.21975 -0.90678,0.39192 l -0.59345,3.61479 -1.32044,5.61984 -2.38781,8.10544 -3.20945,9.55447 c -1.97909,6.59701 -2.50721,13.63264 -1.22409,20.41476 0.87817,4.64136 2.58945,9.06653 4.01324,13.55455 -0.13414,0.19564 -0.56192,0.36106 -0.78083,0.47331 -1.10697,0.56509 -2.26054,1.03232 -3.43657,1.43319 -7.0731,2.41002 -14.30448,3.24558 -21.75211,3.10431 -8.13756,-0.15454 -16.27934,-1.50682 -23.6363,-5.12186 0.49613,-0.95869 0.87937,-2.02123 1.25632,-3.03428 l 1.8831,-5.71358 c 0.89796,-3.03667 1.66371,-6.12763 1.94359,-9.28991 0.87418,-9.87668 -3.30531,-19.13342 -6.39017,-28.24646 -1.3144,-3.88248 -2.30932,-7.96381 -3.19666,-11.96352 l -0.36234,-2.37887 c -1.65985,-0.59948 -3.27817,-1.56409 -4.86979,-2.33418 l -8.36781,-4.052 0.69873,-5.17419 c 0.85173,-5.06344 3.15536,-9.80089 8.12778,-11.8773 2.24013,-0.93552 4.81304,-1.44191 7.16087,-2.06228 l 11.29691,-3.18688 3.34118,-0.99709 c 0.80258,-0.24161 1.7562,-0.45013 2.43888,-0.93551 1.45398,-2.80425 1.72577,-6.15811 1.81524,-9.2682 z"
           id="path5-3"
           sodipodi:nodetypes="ccccccccccccccccccccccccscccccccccccc"
           style="fill:none;stroke:#000000;stroke-width:2.10451;stroke-dasharray:none;stroke-opacity:1" /><path
           fill="#26A4D4"
           d="m 291.26778,657.48848 0.0627,0.0529 0.0441,34.39004 -0.0811,0.1627 c -0.12182,-0.92567 -0.0889,-1.92401 -0.11397,-2.85943 l -0.14428,-3.72601 -0.23966,-11.24502 0.22097,-8.86765 0.14825,-5.96255 c 0.0297,-0.65042 -0.0152,-1.30151 0.10303,-1.94505 z"
           id="path6-7"
           style="fill:#6f838b;fill-opacity:1;stroke-width:0.0990362;stroke-dasharray:none" /><path
           fill="#26A4D4"
           d="m 320.65964,629.12126 c -0.14503,1.18222 -0.44555,2.36517 -0.73139,3.52033 -0.29654,1.19846 -0.60848,2.45583 -1.09383,3.59369 -0.39492,0.92548 -0.96492,1.81969 -1.46818,2.69177 -1.54792,2.68216 -3.10979,5.22674 -5.37214,7.38061 -3.03293,2.88755 -6.79305,4.3086 -10.97477,4.21251 l -0.067,-0.0393 -0.0154,-0.0762 0.80173,-0.21946 c 4.45387,-1.19413 8.3186,-3.98271 11.14747,-7.59696 2.0068,-2.56394 3.57192,-5.48384 5.08832,-8.35467 z"
           id="path7-7"
           style="fill:#768084;fill-opacity:1;stroke-width:0.123795;stroke-dasharray:none" /><path
           fill="#26A4D4"
           d="m 260.34705,627.90946 c 0.25767,0.30548 0.40388,0.99081 0.55385,1.37381 l 1.14271,2.73433 c 0.81392,1.81983 1.66491,3.62625 2.65596,5.35758 2.92933,5.11694 6.90406,10.40111 12.73109,12.34639 0.86705,0.28943 1.82695,0.54564 2.73252,0.67255 0.78048,0.10927 1.5775,0.12774 2.33998,0.33457 l -1.21309,0.0885 c -4.54064,0.21251 -9.08406,-1.42355 -12.44396,-4.47471 -3.16985,-2.8785 -5.15847,-6.66571 -6.66209,-10.61978 -0.93322,-2.45445 -1.71502,-5.17864 -1.83697,-7.81324 z"
           id="path8-0"
           style="fill:#6c858e;fill-opacity:1;stroke-width:0.120743" /><text
           xml:space="preserve"
           style="font-style:normal;font-variant:normal;font-weight:normal;font-stretch:normal;font-size:113.547px;font-family:Amiri;-inkscape-font-specification:'Amiri, Normal';font-variant-ligatures:normal;font-variant-caps:normal;font-variant-numeric:normal;font-variant-east-asian:normal;fill:#000000;fill-opacity:1;stroke:none;stroke-width:0.215296;stroke-dasharray:none;stroke-opacity:1;paint-order:markers fill stroke"
           x="339.74225"
           y="684.15222"
           id="text1"><tspan
             sodipodi:role="line"
             id="tspan1"
             x="339.74225"
             y="684.15222"
             style="stroke-width:0.215296;stroke:none">Body: -1</tspan></text><path
           id="rect1"
           d="m 282.50527,648.92026 h 17.61435 l -5.26564,1.30119 -0.49288,12.72354 -7.11349,-0.0649 -0.0833,-12.65856 z"
           sodipodi:nodetypes="ccccccc"
           style="stroke-width:2.53663" /><path
           style="fill:#000000;fill-opacity:1;stroke-width:2.10969"
           id="path2-6-0"
           sodipodi:type="arc"
           sodipodi:cx="291.00009"
           sodipodi:cy="624.9527"
           sodipodi:rx="8.5723772"
           sodipodi:ry="8.5723772"
           sodipodi:start="0.027304543"
           sodipodi:end="6.2831853"
           sodipodi:open="true"
           sodipodi:arc-type="arc"
           d="m 299.56927,625.18673 a 8.5723772,8.5723772 0 0 1 -8.74471,8.33655 8.5723772,8.5723772 0 0 1 -8.39605,-8.68761 8.5723772,8.5723772 0 0 1 8.6301,-8.45515 8.5723772,8.5723772 0 0 1 8.51386,8.57218" /><path
           style="fill:#000000;fill-opacity:1;stroke-width:2.10969"
           id="path2-6-0-7"
           sodipodi:type="arc"
           sodipodi:cx="282.51749"
           sodipodi:cy="640.08997"
           sodipodi:rx="8.5723772"
           sodipodi:ry="8.5723772"
           sodipodi:start="0.027304543"
           sodipodi:end="6.2831853"
           sodipodi:open="true"
           sodipodi:arc-type="arc"
           d="m 291.08667,640.324 a 8.5723772,8.5723772 0 0 1 -8.74472,8.33655 8.5723772,8.5723772 0 0 1 -8.39604,-8.68761 8.5723772,8.5723772 0 0 1 8.63009,-8.45515 8.5723772,8.5723772 0 0 1 8.51386,8.57218" /><path
           style="fill:#000000;fill-opacity:1;stroke-width:2.10969"
           id="path2-6-0-9"
           sodipodi:type="arc"
           sodipodi:cx="299.66608"
           sodipodi:cy="640.08997"
           sodipodi:rx="8.5723772"
           sodipodi:ry="8.5723772"
           sodipodi:start="0.027304543"
           sodipodi:end="6.2831853"
           sodipodi:open="true"
           sodipodi:arc-type="arc"
           d="m 308.23526,640.324 a 8.5723772,8.5723772 0 0 1 -8.74472,8.33655 8.5723772,8.5723772 0 0 1 -8.39604,-8.68761 8.5723772,8.5723772 0 0 1 8.63009,-8.45515 8.5723772,8.5723772 0 0 1 8.51386,8.57218" /><path
           sodipodi:type="star"
           style="fill:#000000"
           id="path1-99"
           inkscape:flatsided="false"
           sodipodi:sides="3"
           sodipodi:cx="-4.2679658"
           sodipodi:cy="5.2618756"
           sodipodi:r1="0.76004869"
           sodipodi:r2="0.33594152"
           sodipodi:arg1="1.5707963"
           sodipodi:arg2="2.6179939"
           inkscape:rounded="0"
           inkscape:randomized="0"
           d="m -4.2679658,6.0219243 -0.2909339,-0.5920779 -0.3672876,-0.5479951 0.6582215,0.044083 0.6582215,-0.044083 -0.3672876,0.5479951 z"
           inkscape:transform-center-y="0.21087664"
           transform="matrix(4.5466021,0,0,4.5466021,310.29061,582.85793)" /><path
           sodipodi:type="star"
           style="fill:#000000"
           id="path1-7"
           inkscape:flatsided="false"
           sodipodi:sides="3"
           sodipodi:cx="-4.2679658"
           sodipodi:cy="5.2618756"
           sodipodi:r1="0.76004869"
           sodipodi:r2="0.33594152"
           sodipodi:arg1="1.5707963"
           sodipodi:arg2="2.6179939"
           inkscape:rounded="0"
           inkscape:randomized="0"
           d="m -4.2679658,6.0219243 -0.2909339,-0.5920779 -0.3672876,-0.5479951 0.6582215,0.044083 0.6582215,-0.044083 -0.3672876,0.5479951 z"
           inkscape:transform-center-y="-0.1986054"
           transform="matrix(2.1410252,4.0109351,-4.0109351,2.1410252,320.82082,620.19352)"
           inkscape:transform-center-x="0.014034468" /><path
           sodipodi:type="star"
           style="fill:#000000"
           id="path1-9"
           inkscape:flatsided="false"
           sodipodi:sides="3"
           sodipodi:cx="-4.2679658"
           sodipodi:cy="5.2618756"
           sodipodi:r1="0.76004869"
           sodipodi:r2="0.33594152"
           sodipodi:arg1="1.5707963"
           sodipodi:arg2="2.6179939"
           inkscape:rounded="0"
           inkscape:randomized="0"
           d="m -4.2679658,6.0219243 -0.2909339,-0.5920779 -0.3672876,-0.5479951 0.6582215,0.044083 0.6582215,-0.044083 -0.3672876,0.5479951 z"
           inkscape:transform-center-y="0.0047987713"
           transform="matrix(-0.05177666,-4.5463077,4.5463077,-0.05177666,263.24506,591.48829)"
           inkscape:transform-center-x="-0.2066996" /><path
           sodipodi:type="star"
           style="fill:#000000"
           id="path1-5"
           inkscape:flatsided="false"
           sodipodi:sides="3"
           sodipodi:cx="-4.2679658"
           sodipodi:cy="5.2618756"
           sodipodi:r1="0.76004869"
           sodipodi:r2="0.33594152"
           sodipodi:arg1="1.5707963"
           sodipodi:arg2="2.6179939"
           inkscape:rounded="0"
           inkscape:randomized="0"
           d="m -4.2679658,6.0219243 -0.2909339,-0.5920779 -0.3672876,-0.5479951 0.6582215,0.044083 0.6582215,-0.044083 -0.3672876,0.5479951 z"
           inkscape:transform-center-y="0.024724087"
           transform="matrix(-0.26655543,4.5387818,-4.5387818,-0.26655543,316.77845,631.68679)"
           inkscape:transform-center-x="0.18910257" /></g></g></g></svg>
