<?xml version="1.0" encoding="UTF-8" standalone="no"?>
<svg
   width="63mm"
   height="88mm"
   version="1.1"
   id="svg132"
   sodipodi:docname="card-trauma-despair.svg"
   viewBox="0 0 975.48891 1362.5877"
   inkscape:version="1.3.2 (091e20e, 2023-11-25, custom)"
   xmlns:inkscape="http://www.inkscape.org/namespaces/inkscape"
   xmlns:sodipodi="http://sodipodi.sourceforge.net/DTD/sodipodi-0.dtd"
   xmlns="http://www.w3.org/2000/svg"
   xmlns:svg="http://www.w3.org/2000/svg">
  <defs
     id="defs132" />
  <sodipodi:namedview
     id="namedview132"
     pagecolor="#ffffff"
     bordercolor="#000000"
     borderopacity="0.25"
     inkscape:showpageshadow="2"
     inkscape:pageopacity="0.0"
     inkscape:pagecheckerboard="0"
     inkscape:deskcolor="#d1d1d1"
     inkscape:zoom="1.6193435"
     inkscape:cx="73.177803"
     inkscape:cy="280.6693"
     inkscape:window-width="1920"
     inkscape:window-height="1017"
     inkscape:window-x="-8"
     inkscape:window-y="-8"
     inkscape:window-maximized="1"
     inkscape:current-layer="svg132"
     inkscape:document-units="mm" />
  <g
     id="g1"
     transform="matrix(1.0002239,0,0,0.84912065,-227.24883,-139.51326)">
    <path
       fill="#af1613"
       d="m 461.16123,652.42104 c 2.56653,-3.12101 6.14616,-5.35639 10.22627,-5.76015 4.01835,-0.39765 7.92893,0.78519 11.04533,3.35574 3.22021,2.6563 5.20029,6.52172 5.58451,10.66457 0.37196,4.0101 -0.89963,8.14599 -3.47952,11.24073 l -23.33381,23.51814 -15.36322,-15.5709 3.63398,0.0134 11.69975,11.95503 c 0.24492,-0.17777 0.46411,-0.44137 0.67826,-0.65592 l 1.20217,-1.2047 4.25912,-4.24794 10.14427,-10.14134 3.0463,-3.04114 c 1.11112,-1.11234 2.22372,-2.16855 3.07867,-3.50103 1.88486,-2.93766 2.38752,-6.44509 1.65165,-9.83401 -0.74255,-3.4199 -2.74177,-6.34953 -5.69247,-8.24005 -2.64969,-1.69769 -5.9675,-2.41777 -9.0636,-1.7252 -4.12997,0.92379 -7.08392,3.61388 -9.28401,7.10435 l -0.0802,-0.037 z"
       id="path2"
       style="stroke-width:0.0681122" />
    <path
       fill="#e7342a"
       d="m 445.84079,679.86917 -7.69367,-7.87095 c -2.67216,-2.91792 -3.96793,-6.86188 -3.78279,-10.7901 0.18833,-3.99681 1.94793,-7.94344 4.92075,-10.64394 2.98617,-2.7125 6.8456,-4.12582 10.88008,-3.92074 3.32407,0.16892 6.65155,1.52388 9.12007,3.76203 0.44803,0.40617 0.88579,0.8318 1.28547,1.28596 0.20011,0.22742 0.36536,0.48407 0.56941,0.70693 l 0.0211,0.0227 -0.0465,3.89254 0.0802,0.037 c 2.20008,-3.49046 5.15403,-6.18054 9.284,-7.10434 3.09611,-0.69257 6.41392,0.0275 9.06361,1.7252 2.95067,1.89052 4.9499,4.82015 5.69247,8.24006 0.73588,3.38891 0.23322,6.89634 -1.65166,9.83401 -0.85493,1.33247 -1.96754,2.38868 -3.07866,3.50103 l -3.0463,3.04113 -10.14428,10.14134 -4.25911,4.24795 -1.20218,1.20469 c -0.21415,0.21456 -0.43334,0.47815 -0.67826,0.65594 l -11.69975,-11.95504 z"
       id="path3"
       style="stroke-width:0.0681122" />
    <path
       fill="#ef957e"
       d="m 442.91348,673.17642 -0.039,-0.0157 c -0.13541,-0.0683 -0.26993,-0.21592 -0.38334,-0.31924 l -0.89343,-0.864 c -0.51724,-0.50124 -1.07358,-0.9704 -1.56576,-1.49622 -1.16519,-1.24454 -2.07462,-2.86512 -2.62285,-4.4753 -1.07719,-3.16407 -0.87096,-6.77633 0.62309,-9.77584 1.49873,-3.00886 4.17874,-5.39938 7.37523,-6.47099 3.06614,-1.02787 6.42589,-0.79596 9.32835,0.64795 2.29545,1.14197 3.91154,2.81065 5.38488,4.87587 0.21843,0.30624 0.62737,0.74045 0.74357,1.08639 l -0.0331,-0.0227 c -0.62533,-0.43476 -1.17439,-0.94157 -1.82887,-1.34439 -2.6589,-1.63646 -5.88012,-2.19989 -8.94706,-1.66835 -3.19433,0.55362 -5.97622,2.40014 -7.82805,5.045 -1.83235,2.61707 -2.56081,6.11006 -1.99698,9.24621 0.35534,1.97675 1.26566,4.09605 2.6834,5.55126 z"
       id="path4"
       style="stroke-width:0.0681122" />
    <text
       xml:space="preserve"
       style="font-style:normal;font-variant:normal;font-weight:normal;font-stretch:normal;font-size:148.144px;font-family:Amiri;-inkscape-font-specification:'Amiri, Normal';font-variant-ligatures:normal;font-variant-caps:normal;font-variant-numeric:normal;font-variant-east-asian:normal;fill:#d15151;fill-opacity:1;stroke:#000000;stroke-width:0.269287;stroke-dasharray:none;stroke-opacity:1;paint-order:markers fill stroke"
       x="546.08429"
       y="735.26105"
       id="text1"><tspan
         sodipodi:role="line"
         id="tspan1"
         x="546.08429"
         y="735.26105">Will: -1</tspan></text>
    <rect
       style="fill:#ef957e;fill-opacity:1;stroke:none;stroke-width:0.499792;paint-order:markers fill stroke"
       id="rect1"
       width="53.548679"
       height="2.2158067"
       x="434.49335"
       y="658.38293" />
    <path
       fill="#37b2df"
       d="m 451.8193,621.49996 c 9.12913,0.41534 11.10891,-0.10056 20.02396,0.10644 0.30265,2.94642 0.41682,5.84348 1.15743,8.73237 0.27275,1.06425 0.61602,2.21895 1.24563,3.13052 l 20.02884,5.67374 5.0134,1.3092 c 2.4174,0.5843 4.7771,1.07225 6.9577,2.33525 2.7378,1.58558 4.8963,4.10145 6.3336,6.89444 2.214,4.30246 2.235,9.22697 2.9408,13.91725 l -13.8195,6.29428 -1.7786,0.84889 c -0.3688,0.15858 -0.7997,0.27486 -1.1342,0.49022 l -0.7422,4.52128 -1.6516,7.02915 -2.98662,10.1381 -4.0143,11.95049 c -2.4754,8.25136 -3.13596,17.05139 -1.53106,25.53428 1.09839,5.80527 3.23882,11.34021 5.01966,16.95369 -0.16778,0.24465 -0.70284,0.45156 -0.97665,0.592 -1.38457,0.70679 -2.82743,1.29124 -4.29838,1.79263 -8.84685,3.01439 -17.89169,4.05946 -27.20701,3.88277 -10.17825,-0.19331 -20.3618,-1.88475 -29.56369,-6.40633 0.62054,-1.19912 1.09989,-2.52811 1.57137,-3.79519 l 2.35534,-7.14634 c 1.12315,-3.7982 2.08093,-7.66434 2.43099,-11.6196 1.0934,-12.35357 -4.13421,-23.93164 -7.99266,-35.33 -1.64403,-4.85611 -2.88845,-9.96094 -3.9983,-14.96369 l -0.45321,-2.97542 c -2.0761,-0.74983 -4.10025,-1.95633 -6.09102,-2.91955 l -10.46625,-5.06814 0.87396,-6.47174 c 1.06531,-6.33323 3.94665,-12.25872 10.16603,-14.85583 2.8019,-1.17013 6.02002,-1.80351 8.95663,-2.57946 l 14.12989,-3.98607 4.17907,-1.24714 c 1.00385,-0.30219 2.19661,-0.563 3.05049,-1.17011 1.8186,-3.50748 2.15855,-7.70241 2.27046,-11.59242 z"
       id="path5"
       sodipodi:nodetypes="ccccccccccccccccccccccccscccccccccccc"
       style="fill:none;stroke:#f19494;stroke-width:2.63227;stroke-dasharray:none;stroke-opacity:1" />
    <path
       fill="#26A4D4"
       d="m 461.94295,697.78874 0.0784,0.0662 0.0552,43.01425 -0.1015,0.20348 c -0.15236,-1.15785 -0.11118,-2.40653 -0.14255,-3.57649 l -0.18045,-4.66046 -0.29976,-14.06493 0.27638,-11.09147 0.18543,-7.45781 c 0.0372,-0.81352 -0.019,-1.6279 0.12886,-2.43282 z"
       id="path6"
       style="fill:#6f838b;fill-opacity:1;stroke-width:0.121114" />
    <path
       fill="#26A4D4"
       d="m 498.70556,662.30772 c -0.1814,1.4787 -0.5573,2.95829 -0.9148,4.40314 -0.3709,1.49901 -0.7611,3.0717 -1.3682,4.49489 -0.4939,1.15757 -1.2068,2.27603 -1.8363,3.36681 -1.93611,3.35477 -3.88966,6.53748 -6.71934,9.23149 -3.79353,3.61168 -8.49658,5.38909 -13.72699,5.26891 l -0.0838,-0.0492 -0.0192,-0.0953 1.0028,-0.2745 c 5.57078,-1.49358 10.40469,-4.98147 13.94297,-9.50209 2.51006,-3.20692 4.46767,-6.85905 6.3643,-10.44982 z"
       id="path7"
       style="fill:#f19494;fill-opacity:1;stroke-width:0.15484;stroke-dasharray:none" />
    <path
       fill="#26A4D4"
       d="m 423.26805,660.79202 c 0.32229,0.38209 0.50517,1.23929 0.69274,1.71833 l 1.42927,3.42003 c 1.01804,2.27621 2.08243,4.53564 3.32202,6.70114 3.66394,6.40014 8.63542,13.00945 15.92373,15.44257 1.08448,0.362 2.2851,0.68246 3.41777,0.84119 0.9762,0.13668 1.97309,0.15978 2.9268,0.41848 l -1.51732,0.11069 c -5.67932,0.26579 -11.36211,-1.78055 -15.56459,-5.59687 -3.96477,-3.60035 -6.4521,-8.3373 -8.33277,-13.28296 -1.16725,-3.06996 -2.14512,-6.47731 -2.29765,-9.77261 z"
       id="path8"
       style="fill:#f29494;fill-opacity:0.745098;stroke-width:0.151022" />
  </g>
  <g
     id="g2"
     transform="matrix(1.4776905,0,0,1.4776905,-1971.9264,-87.43618)"
     style="opacity:0.5">
    <path
       d="m 1680.7254,680.67831 c -9.3186,0.0408 -18.0851,-2.81534 -25.1329,-9.04455 -4.6237,-4.08639 -8.2664,-9.17378 -10.3548,-15.00291 -1.8663,-5.20901 -2.5421,-10.75608 -3.289,-16.21154 l -2.3757,-14.96129 c -3.9115,-20.24792 -9.0449,-40.11577 -15.8018,-59.61155 -2.7982,-8.07316 -5.7792,-16.14472 -9.303,-23.93063 -0.6522,-1.44068 -1.9368,-2.78214 -2.7442,-4.18841 -3.2082,-5.58629 -5.4082,-11.65906 -5.7895,-18.13111 -0.252,-4.26923 0.07,-10.12757 2.927,-13.58544 0.5505,-0.66612 1.213,-1.21263 1.9231,-1.69912 0.2109,-0.14483 0.8066,-0.44849 0.9446,-0.62133 0.068,-0.0852 0.088,-0.62452 0.1073,-0.77334 0.216,-1.69953 0.218,-3.42907 0.3852,-5.1358 0.3405,-3.48067 0.8974,-6.90774 1.5595,-10.34 3.3291,-17.25894 10.6645,-34.35225 22.504,-47.52241 9.1021,-10.12556 21.4125,-18.6182 34.934,-21.278 2.4312,-0.47829 4.9241,-0.60599 7.3942,-0.73742 4.4588,-0.19508 9.1738,0.56947 13.4526,1.75926 26.3631,7.33086 44.587,33.62475 50.8094,59.12489 1.3031,5.33864 2.2445,10.70247 2.7642,16.17313 l 0.4136,6.64529 c 0.027,0.37047 -0.016,1.44468 0.1377,1.75034 0.2452,0.4901 1.4042,1.05821 1.8631,1.50629 0.7694,0.75055 1.4035,1.63072 1.9268,2.5665 5.0874,9.09176 2.6705,21.60618 -2.4753,30.11183 -0.8849,1.46268 -1.8775,2.84415 -2.8781,4.22882 -0.5073,0.70254 -1.3583,1.65552 -1.5619,2.50568 -0.5617,2.34806 -1.5887,4.6453 -2.4173,6.91814 l -5.2374,14.25276 c -3.6659,10.20358 -6.6441,20.44076 -9.305,30.9524 l -8.0012,38.44945 c -1.1482,6.64568 -1.5451,13.61063 -3.4122,20.09669 -1.3647,4.74012 -4.064,9.39462 -7.3579,13.04972 -7.1521,7.93754 -15.955,12.11715 -26.6091,12.68366 z m 22.2691,-192.86015 0.1852,0.21324 0.2001,0.21684 c 0.1132,0.54691 0.7345,1.28745 1.0542,1.76155 1.8039,2.67411 3.257,5.53347 4.406,8.54605 3.2543,8.53525 4.9646,17.69143 5.9752,26.74158 1.4979,13.4126 1.4387,26.38391 -0.5713,39.7541 -1.4751,9.8095 -3.9524,19.6134 -4.9078,29.47451 -1.1946,12.32758 0.9722,25.63736 -4.2936,37.28122 -3.0026,6.63928 -8.6517,12.26197 -15.5202,14.77966 -7.1158,2.6077 -14.4884,2.5981 -21.3989,-0.63692 -7.4999,-3.51028 -12.8333,-9.98594 -15.5539,-17.75064 -1.7775,-5.07258 -2.3672,-10.62926 -2.3024,-15.9823 0.076,-6.30402 0.887,-12.54523 0.3317,-18.86205 -0.4893,-5.56868 -1.9056,-10.89291 -3.1394,-16.31716 l -2.0913,-10.8625 c -2.2744,-13.04493 -2.4692,-26.48673 -1.0514,-39.62808 1.0178,-9.42982 2.8302,-18.81724 6.238,-27.69776 0.9406,-2.45048 2.0693,-4.77693 3.3683,-7.05457 0.6069,-1.0638 1.3787,-2.0856 1.8868,-3.19742 l 0.1608,-0.36327 0.1976,-0.20284 0.2017,-0.34927 -0.2017,0.34927 -0.1976,0.20284 c -1.4519,1.0422 -2.8634,3.20342 -3.8575,4.68491 -6.2557,9.323 -9.9104,20.69761 -11.7391,31.71934 -0.7722,4.6537 -1.1398,9.38702 -0.967,14.10273 0.1836,5.00537 1.0094,10.04515 1.7447,14.99371 l 2.4605,15.33417 c 1.5163,8.31121 3.1626,16.5356 3.8235,24.97803 0.2689,3.43347 0.4085,6.86293 0.2909,10.3068 -0.2584,7.56226 -1.0726,15.40658 0.3141,22.90284 1.0138,5.47946 3.413,10.3652 6.6605,14.85287 4.7253,6.53007 12.4544,11.25378 20.4071,12.49682 7.8823,1.23224 15.8231,-0.91778 22.1871,-5.64709 7.9891,-5.93755 13.3342,-15.25296 14.7377,-25.08326 0.9277,-6.49646 -0.01,-13.01772 -0.1989,-19.52218 -0.091,-3.1034 0.2269,-6.35763 0.5373,-9.44663 l 2.5297,-20.08429 c 2.4373,-15.17094 5.7543,-30.52431 4.5673,-45.9753 -0.5121,-6.66689 -2.0016,-13.35299 -4.124,-19.68702 -2.0796,-6.2072 -4.7073,-12.01632 -8.6833,-17.25414 -0.7757,-1.0218 -2.1464,-3.1006 -3.2814,-3.65831 l -0.2001,-0.21684 -0.1852,-0.21324 -0.1716,-0.18603 z m -44.3174,-28.72836 c -6.5144,0.88937 -12.3276,4.93295 -16.2611,10.10755 -1.7536,2.30685 -3.9824,5.6571 -3.8632,8.63208 l 0.2213,0.34686 c 1.3782,-0.086 2.9809,-0.84736 4.2696,-1.34466 6.6693,-2.68332 12.6468,-6.47725 17.7966,-11.51543 0.9678,-0.94658 2.2933,-2.14921 2.8194,-3.41626 0.2308,-0.55531 0.1956,-0.89697 0.063,-1.47108 -0.4565,-0.71334 -1.1102,-0.97819 -1.9196,-1.16903 -1.0034,-0.23645 -2.102,-0.24485 -3.1258,-0.17003 z m 39.2168,-0.0332 c -0.9606,0.29966 -1.8663,0.5141 -2.3756,1.45588 -0.2197,0.40608 -0.1941,0.80856 -0.062,1.24664 0.2769,0.91778 1.3015,1.95078 1.9372,2.66452 4.5941,5.1602 10.6461,9.09936 16.9881,11.77948 l 4.5037,1.64152 c 0.6169,0.17723 1.4387,0.58291 2.0056,0.29606 0.1216,-3.77753 -3.3143,-8.44084 -5.7992,-11.06815 -3.6483,-3.85674 -9.6486,-7.81031 -15.1129,-8.04876 z m -20.69,19.6262 c -5.0562,0.84657 -10.1079,3.02299 -13.1749,7.31302 -1.4471,2.02399 -2.5921,4.43686 -3.0994,6.87893 3.5238,-4.45606 8.5748,-7.33342 14.2219,-8.02635 l 2.4305,-0.22125 1.3274,4.6157 c 0.2077,0.83096 0.3373,1.91997 0.7046,2.68292 l 0.6465,-3.04659 c 0.3221,-1.16463 0.6673,-3.29784 1.3699,-4.23162 6.9341,0.39727 12.1363,3.08099 16.7832,8.24279 -1.5135,-5.1662 -4.0588,-9.19738 -8.8781,-11.8699 -3.8375,-2.12801 -8.0008,-2.70532 -12.3316,-2.33765 z m -0.907,22.83202 c -6.9849,0.67413 -14.8228,2.94857 -19.4957,8.55206 -2.1949,2.63211 -3.4063,5.51547 -4.5157,8.72409 -2.9734,8.59926 -3.6843,18.572 -2.771,27.59734 l 1.9968,10.74088 -0.1048,-8.04715 c 0.2321,-8.34482 1.2943,-16.46119 3.2526,-24.57796 0.577,-2.39127 1.0843,-5.03698 2.05,-7.29142 0.044,3.73033 0.056,7.34463 0.6678,11.04014 0.2128,1.28625 0.4585,2.84535 1.0146,4.02118 l 0.059,-0.24085 c 1.247,-4.87974 3.7111,-9.45783 5.9567,-13.92909 0.5017,-0.9986 0.9578,-2.42567 1.6804,-3.24143 l -0.1669,3.15221 c 5.1374,-3.30824 11.3418,-4.37365 17.361,-3.51148 3.3186,0.62812 6.5645,1.41947 9.4862,3.19582 -0.022,-1.013 -0.2144,-2.42527 -0.01,-3.39306 2.4693,4.95336 5.0094,9.67707 6.8165,14.93329 0.2889,0.84017 0.5381,2.14282 1.0582,2.84335 1.3367,-5.01257 2.028,-10.13796 1.0907,-15.28576 2.0055,3.84395 2.9589,8.47805 3.7239,12.72287 1.6311,9.05135 2.3276,17.98708 1.8139,27.17686 -0.015,0.26885 -0.011,0.17563 0.05,0.48769 2.3397,-9.14177 3.2103,-17.82305 2.1085,-27.24487 -0.6642,-5.6767 -2.1533,-11.67226 -5.0866,-16.63522 -3.4783,-5.88474 -8.5045,-9.10177 -15.0882,-10.73328 -4.0387,-1.001 -8.7989,-1.5435 -12.9517,-1.05621 z m 23.3598,98.15421 c 1.2286,9.05896 0.7297,18.24154 -4.9786,25.7978 -2.9346,3.88395 -7.5743,6.25041 -12.3668,6.90454 -5.1138,0.69773 -10.7269,-0.71414 -14.8025,-3.89636 -5.8187,-4.54248 -8.0495,-12.56163 -8.8817,-19.56899 l -0.3417,-8.05036 c -1.3178,3.98797 -2.2148,7.66589 -2.496,11.8683 -0.065,8.18839 0.7365,15.39138 6.7513,21.50096 4.5156,4.58729 10.6596,6.74851 17.0345,6.79932 6.3088,0.0504 12.3088,-2.21043 16.7928,-6.66449 5.0726,-5.03898 6.5737,-11.25818 6.5269,-18.20352 -0.036,-5.35184 -0.9634,-11.63826 -3.2382,-16.4872 z"
       id="path2-1"
       style="stroke-width:0.400077" />
  </g>
</svg>
