<?xml version="1.0" encoding="UTF-8" standalone="no"?>
<!-- Created with Inkscape (http://www.inkscape.org/) -->

<svg
   width="63mm"
   height="88mm"
   viewBox="0 0 63 88"
   version="1.1"
   id="svg1"
   inkscape:version="1.3.2 (091e20e, 2023-11-25, custom)"
   xml:space="preserve"
   sodipodi:docname="card-restraint-abdomen.svg"
   xmlns:inkscape="http://www.inkscape.org/namespaces/inkscape"
   xmlns:sodipodi="http://sodipodi.sourceforge.net/DTD/sodipodi-0.dtd"
   xmlns="http://www.w3.org/2000/svg"
   xmlns:svg="http://www.w3.org/2000/svg"><sodipodi:namedview
     id="namedview1"
     pagecolor="#ffffff"
     bordercolor="#000000"
     borderopacity="0.25"
     inkscape:showpageshadow="2"
     inkscape:pageopacity="0.0"
     inkscape:pagecheckerboard="0"
     inkscape:deskcolor="#d1d1d1"
     inkscape:document-units="mm"
     inkscape:zoom="2.9255611"
     inkscape:cx="80.497379"
     inkscape:cy="102.88625"
     inkscape:window-width="1678"
     inkscape:window-height="1008"
     inkscape:window-x="226"
     inkscape:window-y="0"
     inkscape:window-maximized="0"
     inkscape:current-layer="layer1" /><defs
     id="defs1" /><g
     inkscape:label="Layer 1"
     inkscape:groupmode="layer"
     id="layer1"><g
       id="g1"
       transform="matrix(0.06087197,0,0,0.06087197,0.03359486,0.54402301)"><path
         id="path2"
         style="fill:none;stroke:#e4e4e4;stroke-width:4.92837673;stroke-dasharray:none;stroke-opacity:1"
         d="m 1183.0497,537.00114 -159.7735,67.71229 4.0009,46.24561 c 3.1011,24.87992 8.3151,50.18801 14.2178,74.55237 6.564,27.09313 16.8304,54.45887 28.2852,79.9082 25.2279,56.06208 80.3264,144.9874 63.7975,208.36379 -0.5047,1.9379 -1.0457,3.7894 -1.8283,5.6355 -7.6923,18.1646 -24.4381,32.5251 -33.4261,50.0959 -7.0229,13.722 -8.2871,29.5369 -10.2384,44.5895 l -6.5176,59.7106 c -0.7177,10.0163 -3.0796,21.0527 -0.6882,30.8664 l 4.5171,4.4954 c 7.7975,-1.4952 15.8465,-6.7979 20.9504,-12.8842 3.2658,-22.1645 4.9891,-59.2954 24.2198,-73.6274 2.9608,-2.2051 3.2017,-2.0336 6.8185,-1.7637 10.3482,20.3805 10.8489,45.5644 3.8502,66.8302 -4.583,13.9245 -12.2873,30.5996 -20.7138,42.6752 -7.5249,10.7827 -25.8085,24.5146 -29.3605,36.6524 -0.5979,2.0404 -0.037,6.2291 -0.042,8.4963 4.0134,4.7719 4.3622,5.4738 10.346,6.9476 41.1875,-12.0892 95.3434,-41.6582 116.5606,-79.6717 6.1863,-11.0876 9.7479,-24.3654 11.5077,-36.889 l 0.4086,-2.7102 c 2.0028,-14.5857 -0.9574,-31.3318 -2.2583,-45.9661 -1.911,-21.4681 -3.0491,-42.6005 -2.3232,-64.1633 l 8.6686,-108.27928 c 9.6409,-110.1321 17.8746,-222.8116 -16.5625,-329.69945 -8.6181,-26.74556 -20.2147,-53.51586 -34.4154,-78.12293 z" /><path
         id="path5"
         style="fill:none;stroke:#e4e4e4;stroke-width:4.92837673;stroke-dasharray:none;stroke-opacity:1"
         d="M 857.32953,-41.177551 875.18252,332.079 c 22.95543,62.9032 62.57055,115.1658 89.56605,154.74018 l 35.03917,49.51507 c 6.12686,8.34821 15.59856,18.55029 19.42306,28.15605 3.0259,7.59522 2.3559,19.00743 2.947,27.16673 l 1.1184,13.0564 159.7735,-67.71229 c -2.433,-4.21595 -4.7824,-8.51562 -7.3778,-12.58318 l -18.4552,-27.16665 c -2.2186,-3.14175 -6.7921,-7.95402 -8.0447,-11.24957 -1.0742,-2.82854 -0.5289,-9.65351 -0.7097,-12.86272 l -2.4307,-35.36177 c -3.8299,-35.98919 -10.7898,-72.30056 -23.3808,-106.3221 -10.7126,-28.93649 -24.083,-57.80136 -39.4917,-84.55432 -6.5453,-11.36033 -16.327,-22.69893 -21.6387,-34.39393 -1.6761,-3.68689 -1.5057,-7.73097 -1.5057,-11.67965 0,-67.96484 -19.4967,-140.654271 -69.0674,-189.693421 -28.00263,-27.69764 -67.69239,-47.67735 -107.22546,-50.84869 -6.46002,-0.52048 -18.73725,-0.0661 -26.39231,-1.46269 z" /><path
         id="path3"
         style="fill:none;stroke:#e4e4e4;stroke-width:4.92837673;stroke-dasharray:none;stroke-opacity:1"
         d="M -5.7439738,623.87857 -177.04659,555.75744 c -5.95827,12.8593 -11.13538,26.04771 -15.40092,39.74984 -13.85685,44.51269 -19.67864,91.64163 -23.16584,137.98424 -5.88124,78.19406 -3.07945,155.66155 2.75323,233.74495 l 7.52837,77.99393 c 1.89195,31.3009 -5.20424,61.0362 -5.48495,91.9107 -0.27529,30.2076 9.38943,61.0934 28.1991,84.7695 20.15386,25.3682 59.08292,53.0044 91.717016,57.3661 2.9582,0.3967 4.76456,0.076 7.52838,-0.8819 2.35898,-4.1405 2.37406,-4.3651 0.98944,-8.9481 -2.72874,-9.0471 -12.41806,-19.7494 -17.59487,-27.898 -20.631486,-32.483 -37.238696,-74.6371 -23.875676,-112.861 l 4.08684,-3.0758 c 7.30357,2.2781 12.43289,8.4438 15.85259,15.0998 10.075486,19.6031 3.09136,51.8494 22.907736,65.0236 5.28744,0.5101 5.55241,0.6725 10.38914,-2.237 9.43051,-23.1175 4.72957,-102.7078 -5.11929,-126.068 -6.5532,-15.541 -18.20066,-26.7406 -26.392306,-41.0833 -23.44932,-41.05801 -11.88695,-91.3816 4.280426,-132.56381 24.65041,-62.79612 64.02049,-118.41411 82.3173,-184.1009 8.7082902,-31.2607 8.0366102,-63.831 9.7869002,-95.80372 z" /><path
         id="path6"
         style="fill:none;stroke:#e4e4e4;stroke-width:4.92837673;stroke-dasharray:none;stroke-opacity:1"
         d="m 175.79722,-46.253761 c -0.10123,0.043 -0.22215,0.15262 -0.32264,0.19352 -6.49665,2.64513 -20.7332,0.67755 -28.30665,1.37667 -10.34011,0.95271 -20.7105,3.15614 -30.67274,6.0442 -60.782504,17.61389 -111.3566838,62.74358 -134.843794,121.67988 -9.19842,23.082231 -13.74647,48.716481 -16.77753,73.304851 l -3.67813,43.53546 c -0.30499,3.99459 0.18545,12.51325 -1.20454,16.00311 -3.98109,9.98644 -16.85326,22.66917 -23.03681,32.32896 -18.34269,28.65043 -33.62302,59.50397 -44.653976,91.69559 -9.63834,28.12939 -15.70007,57.192 -20.41263,86.51163 -3.48721,21.70849 -5.80507,44.83122 -12.06689,65.92701 -3.64374,12.27525 -15.69279,24.33032 -22.30548,35.49084 -5.39739,9.10717 -10.16744,18.43514 -14.562,27.91948 l 171.3026162,68.12113 c 1.39451,-25.47384 4.29125,-50.57759 14.94917,-74.27283 C 20.624926,524.21577 46.408436,503.72011 63.344906,481.33421 89.279382,447.05661 142.15163,377.38104 162.89144,337.62842 Z" /><path
         id="path4"
         style="fill:none;stroke:#e4e4e4;stroke-width:4.92837673;stroke-dasharray:none;stroke-opacity:1"
         d="m 890.92746,1800.1965 -213.35378,3.3987 c -0.95709,8.7354 -1.70419,17.5223 -2.66717,26.1773 -4.66132,41.8892 -9.54752,85.1831 -5.35591,127.3154 7.9163,79.4863 46.20838,152.1868 62.2488,230.4325 6.38867,31.1471 12.0495,62.5513 13.09937,94.4272 0.86097,26.1001 -1.35081,52.9807 1.03245,78.9188 1.69504,18.4615 7.10864,36.3297 10.00195,54.5483 2.53445,15.9515 -3.071,34.7646 -6.43132,50.5262 -6.89602,32.3078 -14.91043,66.2355 -15.89561,99.353 -0.32393,10.904 -0.91125,22.3346 1.82833,32.9957 2.11884,8.2323 5.91466,16.1049 12.34654,21.8538 5.44399,4.8854 12.41624,7.5059 19.46615,9.0987 17.80295,4.0215 38.53693,3.1014 56.82844,3.3984 26.64761,0.4049 54.72655,1.758 81.22014,-0.9679 8.25655,-0.8367 19.21352,-4.487 24.84371,-10.8838 6.19969,-7.0444 5.844,-19.1744 4.79684,-28.0272 -4.08634,-34.4122 -23.55672,-60.7749 -39.47023,-90.2757 -19.22803,-35.6817 -38.68974,-80.9359 -41.68562,-121.4219 -1.98643,-26.8557 -0.18238,-54.9508 0.86041,-81.8871 2.55331,-66.0732 8.05165,-135.6085 24.43479,-199.846 11.74366,-46.019 32.59023,-93.0296 35.96416,-140.5868 3.82511,-53.8879 -6.78963,-107.4813 -24.11244,-158.5476 z" /><path
         id="path7"
         style="fill:none;stroke:#e4e4e4;stroke-width:4.92837673;stroke-dasharray:none;stroke-opacity:1"
         d="m 345.27153,1807.7034 -213.03129,-9.12 c -14.80794,48.8153 -25.49995,100.9857 -21.96132,150.2447 3.6841,51.3629 20.86583,101.4683 32.39349,151.428 16.22931,70.3362 23.88393,139.5629 27.33872,211.547 1.11742,23.3198 3.2805,47.716 1.80681,70.9817 -0.99866,15.7897 -5.07786,31.6985 -10.96992,46.3531 -11.80823,29.3928 -27.59227,58.6022 -41.4275,87.1569 -13.13363,27.1255 -28.863292,48.7597 -30.952374,80.3386 -0.415652,6.3157 -0.918491,14.2594 1.613226,20.1975 2.890697,6.8014 9.024634,8.9508 15.680518,11.056 25.49788,8.0163 140.3132,9.1123 161.92442,-2.9253 10.89342,-6.0728 16.84381,-17.0929 19.89643,-28.78 10.02151,-38.2983 -3.89726,-90.5659 -11.95937,-128.5414 -3.23615,-15.2229 -7.94803,-31.4621 -7.18421,-47.1706 1.06885,-21.9162 9.33384,-43.811 11.07745,-66.1849 1.9541,-25.1013 -0.28908,-50.7847 0.77435,-75.9938 1.92984,-45.7208 10.57537,-91.6718 21.63867,-135.9621 15.01488,-60.1081 42.13318,-117.4959 49.53668,-179.3044 6.12601,-51.1787 -1.71341,-104.1481 -6.19478,-155.321 z" /><path
         id="path8"
         style="fill:none;stroke:#e4e4e4;stroke-width:4.92837673;stroke-dasharray:none;stroke-opacity:1"
         d="M 870.60093,1146.9924 152.9325,1124.9882 c -2.60963,11.8398 -5.40161,23.681 -7.48534,35.5124 -8.0891,45.943 -10.47081,92.2216 -11.61521,138.78 -1.02565,41.7543 -1.1181,84.6475 2.28001,126.283 l 16.94959,133.3381 c 7.04992,42.5886 19.0234,84.8142 16.00316,128.4769 -1.56817,22.6639 -13.88505,43.7473 -21.4451,64.8945 -5.33712,14.9314 -10.56861,30.4512 -15.37937,46.3103 l 213.03129,9.12 c -0.0894,-1.0207 -0.19303,-2.0778 -0.27962,-3.0972 -1.88919,-22.2133 -4.69185,-45.1951 -1.87135,-67.4758 3.20648,-25.3174 12.1428,-51.3453 20.39112,-75.4127 l 32.19994,-94.3411 58.31253,-221.8934 c 14.97425,-69.808 27.48606,-137.2963 30.43611,-208.7939 l 51.408,0.2151 2.60263,38.0291 c 13.86772,132.2046 47.96883,265.427 87.35064,392.1849 16.4398,52.9126 41.14219,104.559 51.75215,159.0208 4.98526,25.5835 2.8334,51.5952 0,77.456 l 213.35378,-3.3987 c -5.46108,-16.0988 -11.51585,-31.9742 -18.08936,-47.4931 l -16.19687,-37.5988 c -2.62866,-6.1108 -6.71873,-13.6041 -7.48533,-20.1113 -2.14303,-18.2163 1.31668,-38.584 4.34495,-56.5275 l 22.64967,-108.6236 c 23.62271,-128.7577 19.96614,-256.9372 -5.54959,-382.8498 z" /><path
         id="path9"
         style="fill:none;stroke:#e4e4e4;stroke-width:4.92837673;stroke-dasharray:none;stroke-opacity:1"
         d="m 772.34512,818.88477 -511.75698,-9.20615 c -0.52693,3.51875 -1.06731,6.69351 -1.67775,8.68981 -3.07152,10.05383 -9.69563,20.0873 -13.8522,29.96297 l -35.98558,90.59855 c -21.85819,60.0663 -42.24082,122.99675 -56.14011,186.05825 l 717.66843,22.0042 c -9.25517,-45.6722 -21.20448,-91.0573 -36.02858,-136.0483 -19.92162,-60.45848 -44.3958,-119.75174 -59.86116,-181.60572 -0.87553,-3.50085 -1.57823,-6.96812 -2.36607,-10.45361 z" /><path
         id="path11"
         style="fill:none;stroke:#e4e4e4;stroke-width:4.92838;stroke-dasharray:none;stroke-opacity:1"
         d="m 867.91228,180.24255 -699.40684,-9.63639 -5.614,167.02226 c 0.46894,-0.89884 1.37188,-2.18727 1.80682,-3.05437 9.30347,18.4856 20.64412,68.62498 33.18935,85.17809 17.84325,23.53937 26.13771,58.62462 40.15845,85.99546 l 542.37757,5.92886 c 9.21889,-30.45981 16.6012,-47.85484 47.7174,-94.2689 33.45292,-49.8998 42.42783,-82.83605 46.61133,-86.42554 0.13455,0.37239 0.29441,0.7249 0.43016,1.09698 z"
         sodipodi:nodetypes="cccccccsccc" /><path
         id="path12"
         style="fill:none;stroke:#e4e4e4;stroke-width:4.92837673;stroke-dasharray:none;stroke-opacity:1"
         d="m 398.20675,-175.80622 c -0.0127,0.0317 -0.008,0.31573 -0.0215,0.34414 -52.45573,41.13863 -113.21909,62.34212 -170.65733,94.857429 -11.85426,6.70983 -23.08286,14.32486 -34.2003,22.17638 -5.0916,3.59578 -11.84243,9.73897 -17.53034,12.17451 l -7.29178,216.859921 699.40692,9.63639 -10.58283,-221.420101 c -1.27777,-0.23307 -3.34879,-0.11856 -4.25885,-0.4947 -4.69634,-1.94331 -10.31865,-6.84525 -14.66956,-9.70085 -11.46266,-7.52225 -22.81343,-15.31601 -34.78105,-22.02583 l -80.61798,-42.373959 c -34.83643,-17.33855 -69.10878,-33.78877 -99.05193,-59.10845 l 0.0215,-0.92488 z" /><path
         id="path10"
         style="fill:none;stroke:#000000;stroke-width:4.92838;stroke-dasharray:none;stroke-opacity:1"
         d="M 771.86209,509.75559 248.44608,505.7476 c -3.73452,0.81807 -9.32826,0.33471 -8.27575,5.04593 21.75129,82.12449 15.07918,53.34059 28.48549,140.10373 5.33638,82.62885 -6.51785,146.91533 -6.76768,154.50992 1.75106,2.82353 -1.32396,0.99228 3.32423,4.38594 l 502.91493,7.35391 c 5.65482,-1.3723 3.40614,-3.03922 4.0321,-4.76227 -0.54554,-6.07074 -22.97347,-89.79422 -20.38682,-153.14135 5.64886,-56.38177 26.967,-125.5777 28.43865,-137.75326 -1.25589,-7.28074 -0.7885,-9.82966 -8.34914,-11.73456 z"
         sodipodi:nodetypes="ccccccccccc" /><path
         id="path1"
         style="fill:none;stroke:#e4e4e4;stroke-width:4.92837673;stroke-dasharray:none;stroke-opacity:1"
         d="m 514.17575,-640.17746 c -5.73268,-0.25923 -11.68466,-0.5346 -17.40126,0.0431 -39.1957,4.74225 -75.12378,19.67976 -99.97664,51.62307 -30.51018,39.21189 -33.7827,114.00148 -27.70441,162.24709 -3.64103,3.63028 -4.79379,1.74792 -8.34573,3.78569 -5.44131,3.1201 -7.56326,11.66839 -7.5929,17.42279 -0.0621,12.11607 3.10201,23.57233 5.39891,35.36185 4.0054,20.5695 6.69445,48.41701 22.92924,63.43185 2.56142,2.36709 5.70947,4.20224 8.86198,5.65702 1.98903,12.20285 5.85119,117.17585 2.53814,124.79884 h 225.76496 l 2.60264,-80.55353 c 0.22145,-12.09988 -2.20191,-33.18202 1.97896,-44.20227 l 1.59167,-1.39814 c 19.20373,-17.1552 23.02812,-38.89699 28.11308,-62.85111 2.48854,-11.7166 5.41583,-23.74098 5.89366,-35.72748 0.27794,-6.90958 0.73548,-13.46066 -3.16187,-19.50924 -3.02572,-2.25909 -6.20645,-4.39883 -8.79755,-7.16268 3.06893,-54.76657 4.15954,-123.5081 -34.39386,-167.00072 -24.46693,-27.60055 -61.65384,-44.31962 -98.29902,-45.96605 z" /></g><g
       id="move"
       transform="matrix(0.04824098,0,0,0.05181757,-3.7778867,-11.309382)"
       inkscape:label="move"><text
         xml:space="preserve"
         style="font-style:normal;font-variant:normal;font-weight:normal;font-stretch:normal;font-size:148.144px;font-family:Amiri;-inkscape-font-specification:'Amiri, Normal';font-variant-ligatures:normal;font-variant-caps:normal;font-variant-numeric:normal;font-variant-east-asian:normal;fill:#000000;fill-opacity:1;stroke:#000000;stroke-width:0.269288;stroke-dasharray:none;stroke-opacity:1;paint-order:markers fill stroke"
         x="513.04822"
         y="778.5697"
         id="text1-5"><tspan
           sodipodi:role="line"
           id="tspan1-4"
           x="513.04822"
           y="778.5697">Move: -1*</tspan></text><path
         fill="#fefefe"
         d="m 423.87315,743.60565 0.21512,0.052 c 1.71719,3.76403 3.49119,3.70519 5.98388,7.35145 -7.82361,-0.10797 -11.69949,-1.08864 -18.76246,-4.29382 -1.34963,-0.0879 -4.75661,-3.11408 -5.45151,-3.66689 -1.44497,-1.14935 -2.73119,-2.33754 -3.98746,-3.59097 2.82341,0.88799 5.73821,1.52855 8.60636,2.10838 4.47579,0.90536 8.94267,1.61647 13.39636,2.03887 z"
         id="path2-5"
         style="stroke:#000000;stroke-width:2.32259;stroke-dasharray:none;stroke-opacity:1"
         sodipodi:nodetypes="ccccccccc" /><path
         fill="#fefefe"
         d="m 420.73098,732.74924 c 0.16605,0.0376 0.32327,0.0615 0.4746,0.14245 0.19084,1.49259 0.48354,2.93964 1.01378,4.35123 l 0.69132,1.64881 c 0.11304,0.25498 0.3131,0.59092 0.35053,0.86427 -3.38586,1.31875 -5.88595,0.53798 -8.86795,-0.96306 -4.84177,-2.84555 -9.02471,-7.42607 -10.99427,-12.72672 3.75169,2.83784 8.23961,4.29963 12.72721,5.52821 z"
         id="path3-1"
         style="stroke:#000000;stroke-width:2.32259;stroke-dasharray:none;stroke-opacity:1"
         sodipodi:nodetypes="ccccccccc" /><path
         fill="#fefefe"
         d="m 419.63719,727.11092 c -0.99006,-0.26054 -2.01274,-0.4366 -2.97937,-0.7825 -0.85278,-0.30505 -1.72241,-0.79395 -2.50264,-1.25578 -2.16532,-1.2816 -4.13288,-2.88937 -5.79407,-4.78297 -4.41276,-5.02993 -6.03531,-11.58112 -5.60542,-18.1506 1.44243,3.24637 3.5683,6.08982 6.39823,8.27104 l 1.57984,1.10672 c 0.28142,0.18129 0.70379,0.34916 0.93296,0.58562 0.21062,0.21732 0.3861,0.48811 0.57442,0.72644 l 1.38168,1.69296 c 2.2089,2.46776 4.80215,4.73075 7.62498,6.46811 l 0.12898,0.13734 c -0.62085,1.97648 -1.04172,4.00744 -1.0594,6.08448 z"
         id="path6-0"
         style="stroke:#000000;stroke-width:2.32259;stroke-dasharray:none;stroke-opacity:1" /><path
         fill="#fefefe"
         d="m 422.50359,716.14959 c -6.06305,-3.90641 -11.27396,-9.80969 -14.03576,-16.50113 -0.43606,-1.05665 -0.75161,-2.15168 -1.06003,-3.25081 -2.00973,-7.16318 -1.47637,-15.1216 1.38236,-21.98689 0.2891,0.72521 0.42082,1.57216 0.62475,2.33043 0.35788,1.33073 0.7986,2.60686 1.35738,3.86748 0.47228,1.06564 0.9832,2.14161 1.58175,3.1412 l 0.90316,1.40505 c 0.18746,0.2736 0.50729,0.62227 0.60871,0.93662 0.21288,0.6592 0.26249,1.40777 0.42808,2.08389 0.33393,1.36262 0.78211,2.71126 1.23813,4.03775 0.45987,1.33772 1.06344,2.61477 1.67154,3.88916 l 1.49177,2.99798 c 1.87192,3.37951 4.15198,6.55044 6.51068,9.6034 l 0.23463,0.30861 c -0.0517,0.33478 -0.27329,0.71011 -0.41015,1.02434 l -0.66812,1.64046 -1.60838,4.55102 z"
         id="path8-6"
         style="stroke:#000000;stroke-width:2.32259;stroke-dasharray:none;stroke-opacity:1" /><path
         fill="#fefefe"
         d="m 427.82911,704.30477 c -1.48769,-2.03108 -2.99773,-4.05116 -4.324,-6.19379 -0.96557,-1.5597 -1.79369,-3.1602 -2.59468,-4.80719 -1.11105,-2.2848 -2.10439,-4.7802 -2.55777,-7.29184 -0.24624,-1.36401 -0.45268,-2.72558 -0.51351,-4.11224 -0.24301,-5.54139 1.1937,-11.18988 3.82779,-16.05429 0.72352,-1.33628 1.55305,-2.58504 2.42036,-3.83035 0.042,0.0418 0.0238,0.31948 0.0245,0.39377 0.0211,2.54183 0.12403,5.04409 0.42467,7.56995 0.69681,5.85525 2.16034,11.48155 3.87478,17.11022 l 3.27489,9.76808 c -0.12526,0.3865 -0.4152,0.75921 -0.61716,1.11385 l -0.73083,1.39548 -2.32068,4.9936 -0.078,0.039 z"
         id="path9-2"
         style="stroke:#000000;stroke-width:2.32259;stroke-dasharray:none;stroke-opacity:1" /><path
         fill="#0f0f0f"
         d="m 432.78711,753.3154 c 6.28761,7.956 12.85273,15.64753 20.25674,22.5946 5.03214,4.72143 10.49456,9.17358 16.60299,12.43754 7.93511,4.24005 17.11673,6.68524 26.01566,7.74271 2.47919,0.29452 4.96743,0.37534 7.45739,0.50978 2.29621,0.12402 4.63384,0.35136 6.93082,0.15841 -0.31138,0.39113 -0.97692,0.55687 -1.44822,0.75118 -3.40429,1.40427 -7.02194,2.24905 -10.67808,2.66433 -10.79379,1.22587 -22.09365,-1.38775 -31.6759,-6.36425 -4.33537,-2.25144 -8.33793,-4.99995 -12.15002,-8.04259 -5.94588,-4.74606 -11.37367,-10.20987 -16.25291,-16.04008 l -4.06298,-5.01213 -9.08906,8.41029 -21.3164,-10.37972 2.49671,-15.7079 c 0.38126,0.21008 0.7698,0.4604 1.18359,0.59783 2.32478,1.18832 4.66524,2.35494 7.11431,3.26873 5.93832,2.21617 7.44568,2.96323 13.74108,2.45884 z"
         id="path10-3"
         style="fill:none;fill-opacity:1;stroke:#000000;stroke-width:2.32259;stroke-dasharray:none;stroke-opacity:1"
         sodipodi:nodetypes="ccccccccccccccccccc" /><path
         fill="#dc9308"
         d="m 463.02874,689.96939 0.14384,0.035 c 0.49063,0.11195 1.1488,0.0313 1.65643,0.0217 l 3.58408,-0.053 c 2.39392,-0.0242 4.86943,0.10962 7.24971,-0.0434 -6.31985,10.20788 -9.878,22.14022 -9.54579,34.17661 0.11685,4.25601 0.74673,8.39684 1.7215,12.53376 3.77093,16.00471 11.61851,30.25771 21.33565,40.94937 12.10107,12.64047 8.48263,7.78003 20.17454,16.94792 -17.32365,-3.71452 -21.55024,-4.23093 -26.35187,-6.3316 -9.89964,-6.18762 -14.97824,-6.89097 -26.89975,-18.41407 -12.79352,-12.36596 -18.29357,-15.79526 -23.00912,-27.19435 l -3.2569,-19.42517 c -2.88158,-22.76633 4.41888,-31.58046 4.03571,-32.91484 l 21.28156,-0.26223 5.32127,0.0602 c 0.85201,-0.008 1.71303,0.0204 2.55906,-0.0844 z"
         id="path11-9"
         style="fill:none;stroke:#000000;stroke-width:2.32259;stroke-dasharray:none;stroke-opacity:1"
         sodipodi:nodetypes="cccccsccccsccccccc" /><path
         id="path2-8"
         inkscape:transform-center-x="-0.01494134"
         inkscape:transform-center-y="-3.7500871"
         d="m 427.40161,748.51285 c 20.36512,-7.37419 13.98417,-9.56844 21.66325,-57.74338 8.14056,47.72615 2.64335,50.64631 21.89168,57.54181 z"
         sodipodi:nodetypes="cccc"
         style="stroke-width:10.6897" /><path
         id="path2-0"
         inkscape:transform-center-x="-0.0034207367"
         inkscape:transform-center-y="-1.3106034"
         d="m 444.38529,757.43968 c 4.11726,-2.61102 3.85157,-6.32045 4.96018,-20.18053 1.20756,13.97013 0.83807,17.62212 5.01247,20.11007 z"
         sodipodi:nodetypes="cccc"
         style="stroke-width:3.02394" /></g></g></svg>
