<?xml version="1.0" encoding="UTF-8" standalone="no"?>
<svg
   width="63mm"
   height="88mm"
   version="1.1"
   id="svg40"
   sodipodi:docname="card-fateupper.svg"
   inkscape:version="1.3.2 (091e20e, 2023-11-25, custom)"
   xmlns:inkscape="http://www.inkscape.org/namespaces/inkscape"
   xmlns:sodipodi="http://sodipodi.sourceforge.net/DTD/sodipodi-0.dtd"
   xmlns="http://www.w3.org/2000/svg"
   xmlns:svg="http://www.w3.org/2000/svg">
  <defs
     id="defs40" />
  <sodipodi:namedview
     id="namedview40"
     pagecolor="#ffffff"
     bordercolor="#000000"
     borderopacity="0.25"
     inkscape:showpageshadow="2"
     inkscape:pageopacity="0.0"
     inkscape:pagecheckerboard="0"
     inkscape:deskcolor="#d1d1d1"
     inkscape:document-units="mm"
     inkscape:zoom="0.57252441"
     inkscape:cx="512.6419"
     inkscape:cy="717"
     inkscape:window-width="1920"
     inkscape:window-height="1017"
     inkscape:window-x="-8"
     inkscape:window-y="-8"
     inkscape:window-maximized="1"
     inkscape:current-layer="svg40" />
  <path
     d="m 69.768177,157.65078 49.293283,-93.785708 5.72796,10.31787 6.38127,11.929664 18.2957,35.156944 11.98114,22.96862 6.79468,12.93983 c 0.11983,0.25602 0.16886,0.39784 0.12435,0.6794 0.0584,0.11739 0.15383,0.21487 0.10987,0.34711 -0.0481,0.14482 -0.13354,0.21 -0.24154,0.31049 0.33453,0.44572 0.28738,0.55974 0.26315,1.09356 l -0.57459,-0.10781 c -0.45511,-0.0859 -0.95287,-0.4354 -1.37418,-0.6392 -0.7318,-0.35369 -1.49534,-0.65742 -2.254,-0.94874 l -16.40686,-6.81103 -9.97808,-4.25198 -4.41502,-1.88471 -0.067,121.0003 -0.18839,0.11646 -0.26316,-0.0958 -0.0956,0.0601 c -0.24737,0.10895 -0.56012,0.0601 -0.82534,0.0489 l -0.19722,-0.13148 -0.35294,0.0845 c -0.97372,0.26296 -2.23653,0.15966 -3.26041,0.18971 l -10.58083,0.0375 c -4.26025,-0.015 -8.63996,0.19159 -12.88236,-0.10331 l 9e-4,-121.43758 -35.754623,15.21863 c 0.306168,-0.74214 0.554671,-1.60335 0.982558,-2.28143 l 0.145195,-0.14369 -0.145195,0.14369 z M 115.67989,78.899809 c 0.0641,-0.171676 0.0898,-0.368149 0.12829,-0.547723 l 0.13092,-0.130729 -0.13092,0.130729 c -0.26522,0.213002 -0.32438,0.2547 -0.45399,0.583974 0.22784,0.01692 0.11946,0.03121 0.3257,-0.03628 -0.0723,0.164918 -0.13543,0.336412 -0.23423,0.487244 l -0.17713,-0.27236 c -0.42356,0.265973 -0.53043,0.811624 -0.81162,1.210207 l 0.10142,0.196094 c 0.26128,-0.251696 0.47541,-0.450233 0.65536,-0.769926 l 0.0426,-0.05148 c -0.2115,0.444416 -0.37605,0.841307 -0.69799,1.218476 h -0.26315 c -0.25564,0.553921 -0.37717,1.143531 -0.6099,1.702527 -0.34843,0.836603 -0.92451,1.725805 -1.36142,2.537627 -0.18069,0.335463 -0.42995,0.955879 -0.71376,1.207955 0.15665,-0.483299 0.87173,-1.824806 0.7117,-2.160087 -0.43934,0.435214 -2.78162,4.697144 -2.8483,5.325259 -0.012,0.114019 -0.002,0.127726 0.0204,0.224275 0.29601,-0.06559 0.43145,-0.24606 0.62811,-0.458122 -0.64972,1.496844 -1.30319,3.131364 -2.21493,4.483953 -0.0802,0.118895 -0.0428,0.06007 -0.0708,0.204742 -0.074,0.384488 -0.45211,0.903288 -0.69986,1.209828 l -0.034,-0.377921 c -0.14218,0.05048 -0.18952,0.08287 -0.30128,0.176381 l 0.0663,0.303164 0.26898,-0.101624 -0.0714,0.182577 c -0.176,0.407033 -0.51692,0.901786 -0.92659,1.058815 -0.36589,0.461695 -0.4183,0.470715 -0.39351,1.050926 -0.18671,0.09561 -0.32157,0.185581 -0.47503,0.328713 0.0227,0.08975 0.0471,0.167731 0.0494,0.262399 0.006,0.258274 -0.32081,0.558806 -0.4784,0.743817 -0.51448,0.604448 -0.79811,1.463411 -1.18167,2.160841 l -2.2461,4.26043 c -0.47184,0.88807 -0.99778,1.70609 -1.39918,2.6338 l -0.190465,0.0428 c -0.202291,0.86516 -0.757152,1.69012 -1.201378,2.45611 l 0.14895,0.26165 -0.26315,0.003 c -0.02723,0.13693 -0.06251,0.56068 -0.130358,0.65629 -0.119466,0.16905 -0.221832,0.0717 -0.335852,0.3272 l -1.208895,2.69785 -0.16679,9.1e-4 -0.263159,0.36007 0.06577,0.14425 0.07925,0.0862 -0.275182,0.39445 -0.132982,0.067 c -0.297529,0.23461 -1.179782,1.98595 -1.267122,2.41685 -0.08758,0.43202 -0.382616,0.59318 -0.434084,1.04623 l -0.0081,0.0868 c -0.138627,0.0958 -0.296217,0.20605 -0.39596,0.34374 -0.425815,0.58829 -0.789088,1.5406 -1.141269,2.19952 l -3.184714,6.14873 c -0.253198,0.50189 -0.820453,1.25829 -0.915121,1.77746 -0.02985,0.16379 0.0054,0.0943 -0.115331,0.24456 l -0.103308,0.12058 c -0.28213,0.40385 -0.766172,0.90517 -0.903668,1.36875 -0.16698,0.56331 -0.464509,1.12381 -0.785333,1.61612 -0.116453,0.17862 -0.08323,0.30786 -0.08586,0.51617 -0.715834,0.46318 -1.006976,1.6595 -1.285153,2.42285 -0.363273,0.99702 -0.748331,1.98315 -1.243645,2.92382 l -4.466301,8.56031 c -1.016557,1.93769 -2.226764,3.80306 -2.86521,5.90848 0.803925,-0.88319 1.299998,-2.06391 1.851286,-3.1184 l 2.817876,-5.34367 3.58517,-6.04354 6.784168,-12.65245 3.478479,-6.40117 0.156658,-0.067 c 0.03248,-0.0937 0.07192,-0.24324 0.130168,-0.32757 0.117764,-0.17056 0.225396,-0.24663 0.289069,-0.45175 0.156278,-0.50508 0.563311,-1.7754 0.98425,-2.09171 l 0.125843,-0.0869 c 0.03384,-0.29753 0.06369,-0.63337 0.21113,-0.89858 0.140871,-0.2532 0.484421,-0.58492 0.480477,-0.87887 -0.0027,-0.22372 0.183699,-0.35464 0.327583,-0.52406 0.009,-0.25414 0.03058,-0.38788 0.16698,-0.60464 0.282311,-0.44836 0.766362,-1.1161 0.665497,-1.63132 0.737809,-1.73089 1.805076,-3.2683 2.676996,-4.92631 l 4.41277,-8.685973 1.59151,-2.856941 4.13477,-8.334543 4.37557,-8.256204 c 0.91739,-1.762816 1.69407,-3.642284 2.67795,-5.36114 0.10725,-0.187273 0.1653,-0.290771 0.37135,-0.377169 0.45887,0.540585 0.69968,1.131697 1.12249,1.6967 -0.1775,0.590922 0.20399,0.991759 0.48048,1.517316 l 0.16491,-0.05763 c 0.0727,0.1142 0.14125,0.223895 0.19122,0.350309 0.30692,0.774251 0.85051,1.43279 1.17734,2.209855 l -0.0556,-0.0665 -1.07384,-1.451011 c 0.87512,2.408961 2.17699,4.713303 3.35113,6.980072 1.58757,3.064877 2.81788,6.165065 4.70917,9.074976 0.23892,0.367588 0.38713,0.776133 0.64464,1.138085 l 1.35278,2.051894 -0.22222,-0.06297 c -0.018,0.391445 0.39953,1.050175 0.55956,1.434301 1.37926,3.309053 3.1154,6.441553 4.65677,9.672843 0.2423,0.50771 0.31969,1.10296 0.58453,1.58024 0.83604,1.50643 2.01319,3.03783 2.62291,4.63629 0.12434,0.32589 0.32514,0.61177 0.50752,0.90574 0.19102,0.30804 0.22953,0.72446 0.40891,1.06707 l 2.02879,3.75911 c 0.25433,0.43484 0.45436,0.90798 0.77387,1.29681 0.24155,0.29414 0.42676,0.97823 0.61816,1.35145 l 2.72396,5.08334 c 0.37529,0.72353 0.67808,1.8124 1.21415,2.38397 0.13242,0.14107 0.15309,0.28175 0.20512,0.46038 0.20755,0.7117 0.54058,0.99571 0.88263,1.59509 0.7425,1.30187 1.32253,2.72602 2.02108,4.05776 0.59919,1.1424 1.77145,2.58458 2.00081,3.82991 0.0703,0.38112 0.29226,0.76862 0.48178,1.10446 l 0.1328,-0.13017 c 0.27104,0.41136 0.51223,0.78534 0.72974,1.23069 l -0.139,0.0188 -0.13092,-0.13092 0.13092,0.13092 0.0847,0.12829 0.0543,-0.14707 c 0.65253,0.85576 1.03834,1.8941 1.56352,2.83064 l 2.64545,4.84178 c 0.50076,0.9403 1.06463,1.87064 1.45627,2.86315 0.32739,0.15834 0.61252,0.21075 0.97109,0.26221 l 0.0651,-0.11345 c -0.60952,-0.49851 -0.53683,-0.72673 -0.77087,-1.44143 l 0.24531,0.11044 0.10894,0.13411 -0.10894,-0.13411 c -0.0905,-0.74363 -0.83078,-1.45853 -1.0945,-2.16684 -0.11778,-0.31669 -0.1745,-0.48085 -0.37623,-0.7673 l -0.0772,-0.10801 c 0.01,-0.57946 -0.44405,-0.77443 -0.59244,-1.29398 -0.14049,-0.49212 -0.21581,-0.67432 -0.58528,-1.02332 l -0.10293,-0.0939 0.0499,-0.4617 c -0.40798,-0.46282 -0.94142,-1.39485 -0.92677,-1.9728 -0.20643,-0.16925 -0.34072,-0.25377 -0.40384,-0.52613 l -0.0679,-0.27987 c -0.14764,-0.42807 -0.34749,-0.91737 -0.7566,-1.09976 -0.18351,-1.33024 -1.44518,-2.57783 -1.83813,-3.86861 -0.13205,-0.43372 -0.42206,-0.81953 -0.61534,-1.23952 -0.77613,-1.6873 -1.72131,-3.29516 -2.59041,-4.9325 l -5.66467,-10.87236 -7.25732,-14.13501 -4.42629,-8.055798 c -0.34618,-0.56199 -0.66549,-1.288907 -1.10183,-1.776151 -0.46207,-0.515977 -0.57045,-1.407432 -0.93823,-2.051514 -0.19929,-0.348807 -1.0111,-1.453074 -1.03139,-1.732192 -0.0253,-0.351249 0.0592,-0.415682 -0.13918,-0.789088 l -2.09923,-3.667443 c -0.48123,-0.796045 -1.69782,-2.354869 -1.7647,-3.253841 -0.03,-0.402709 -0.44873,-0.925264 -0.63825,-1.295105 l -2.09227,-3.851902 c -1.35598,-2.30227 -2.40239,-4.785615 -3.78503,-7.067222 -0.15834,-0.261087 -0.13467,-0.566694 -0.32833,-0.854271 l -0.40215,0.252076 0.0899,0.338476 c -0.19629,0.205113 -0.31049,0.464318 -0.32908,0.746259 l -0.008,0.174308 c -0.29903,0.373035 -0.50978,0.69461 -0.62831,1.162123 -0.10067,0.39671 -0.30409,0.632439 -0.56274,0.942172 -0.13655,0.163796 -0.20004,0.228409 -0.24287,0.444415 l -0.0201,0.147448 c -0.20249,0.181266 -0.38975,0.345993 -0.50489,0.596939 l -0.56181,1.098631 c 0.0276,0.530823 -0.016,0.584725 -0.31275,1.022192 z m -4.3442,15.102544 0.13092,-0.130729 c 0.38768,-0.205683 0.52743,-0.799048 0.64595,-1.183166 -0.2378,0.126794 -0.34561,0.200988 -0.47165,0.442163 l -0.0421,0.08396 c -0.1296,0.249444 -0.13373,0.382625 -0.13223,0.657047 z m 3.68303,0.52687 0.13167,-0.26315 0.11327,-0.130919 -0.11327,0.130919 -0.13167,0.26315 -0.13148,0.262969 -0.1328,0.262969 -0.12961,0.130919 0.12961,-0.130919 0.1328,-0.262969 z m -0.78928,1.446696 0.13149,-0.263159 0.10875,-0.130729 -0.10875,0.130729 -0.13149,0.263159 -0.13167,0.262969 -0.13148,0.26296 -0.13092,0.130928 0.13092,-0.130928 0.13148,-0.26296 z M 92.916566,137.78422 c 0.46582,-0.55975 0.738931,-1.31145 1.073462,-1.95779 l 2.226392,-4.27452 6.40136,-12.57506 6.04372,-12.30026 3.8549,-7.346906 c 0.38412,-0.736307 1.08756,-1.600901 1.18673,-2.428502 l 0.13092,-0.135615 -0.13092,0.135615 c -1.26918,1.421337 -2.0363,3.642658 -2.90897,5.322258 -0.16924,0.32552 -0.42958,0.55843 -0.59637,0.89672 -0.30917,0.62661 -0.70964,1.37475 -1.09864,1.96004 -0.46263,0.69611 -0.73273,1.51393 -1.17997,2.20704 -0.66849,1.03609 -1.36592,2.28987 -1.84414,3.4195 l -6.81873,13.77625 c -0.179194,0.38431 -0.475221,0.61178 -0.615531,1.01918 l -0.03854,0.10313 c -0.05111,0.15195 -0.01,0.0379 -0.04053,0.2085 -0.132041,0.73292 -0.824589,1.53685 -1.163245,2.21135 l -2.502127,5.42801 -1.314275,2.64319 c -0.247561,0.48386 -0.634682,1.13808 -0.665487,1.68787 l -0.131489,0.27799 c -0.291893,0.21075 -0.451545,0.43784 -0.530815,0.80581 -0.02289,0.10668 -0.0098,0.14989 0.0045,0.24643 l -0.13148,0.26297 -0.13167,0.26297 -0.131489,0.26315 -0.13148,0.13149 -0.13167,0.26296 -0.13148,0.26316 -0.131679,0.26297 c -0.5712,0.30447 -0.971846,1.34318 -1.15066,1.95665 -0.03718,0.12754 -0.02533,0.11871 -0.0332,0.27931 l -0.130919,0.26221 0.130919,-0.26221 0.03854,-0.0209 c 0.464328,-0.40515 1.01111,-1.60503 1.145404,-2.21511 l 0.131679,-0.26297 0.13148,-0.26316 0.131669,-0.26296 0.13148,-0.13149 0.131489,-0.26315 0.13167,-0.26297 0.13148,-0.26296 c 0.282131,-0.17337 0.453246,-0.74607 0.526309,-1.05224 z m 23.286244,-37.994351 0.13149,-0.26296 0.13092,-0.262408 -0.13092,0.262408 -0.13149,0.26296 c -0.73799,0.840741 -0.99043,2.018081 -1.61874,2.917991 -0.50208,0.71903 -0.91569,1.68468 -1.31878,2.47433 -0.60989,1.19537 -1.24627,2.37741 -1.77634,3.6094 -0.2654,0.61666 -0.68596,1.18373 -1.01504,1.76976 l -1.81673,3.36692 -2.14524,4.43624 c -0.28776,0.63657 -0.50302,1.36048 -0.92584,1.93056 -0.26522,0.35725 -0.41848,0.84431 -0.6174,1.2442 l -1.51807,2.97716 -4.667469,8.94256 -3.405234,6.54673 c -0.272351,0.55016 -0.803735,1.27313 -0.882625,1.87063 l -0.13148,0.26297 -0.131679,0.26315 -0.109315,0.13074 0.109315,-0.13074 0.131679,-0.26315 0.13148,-0.26297 0.03646,-0.0206 c 0.384678,-0.37924 0.638627,-1.01824 0.890703,-1.49252 l 1.908762,-3.65186 5.810243,-11.01943 2.77956,-4.95203 2.38342,-5.00707 5.1718,-10.26302 1.8278,-3.57559 c 0.33716,-0.66155 0.76767,-1.3695 0.89878,-2.104305 z m 2.10506,1.972811 0.13148,-0.26297 0.13092,-0.2624 -0.13092,0.2624 -0.13148,0.26297 -0.13168,0.26316 -0.13148,0.26296 -0.13167,0.26297 -0.13148,0.26316 -0.13168,0.26296 c -0.36082,0.27499 -1.00998,1.50192 -1.06707,1.98953 -0.0133,0.11533 -0.003,0.14389 0.0146,0.24644 l -0.13148,0.26296 c -0.11589,0.0772 -0.22314,0.14427 -0.30222,0.26297 -0.26128,0.39183 -0.44103,0.91663 -0.65911,1.34207 l -1.67341,3.30455 -4.16764,8.09674 c -0.37191,0.74645 -1.04247,1.72882 -1.22392,2.52504 -0.0239,0.10462 -0.0135,0.13881 -0.003,0.23311 l -0.12736,0.14876 0.12736,-0.14876 c 0.3935,-0.32909 0.72503,-1.17246 0.97898,-1.63904 l 2.60732,-4.98885 3.3639,-6.59689 c 0.37023,-0.77387 0.94443,-1.69275 1.07854,-2.5397 l 0.13148,-0.26296 c 0.45813,-0.392 0.93898,-1.64823 1.05243,-2.23597 l 0.13168,-0.26296 0.13148,-0.26316 0.13167,-0.26297 0.13148,-0.26296 z m 12.23508,0.52612 0.13148,0.26297 0.13167,0.26316 c 0.20173,1.10953 1.02745,2.36538 1.52972,3.39489 l 5.25144,10.54609 c 0.35538,0.78382 0.87305,1.50755 1.23125,2.27466 l 3.844,7.70041 6.76932,13.11508 c 0.83079,1.51526 1.57687,3.05943 2.49668,4.52923 0.78796,1.25904 1.53912,2.72245 2.24443,4.03485 0.35275,0.65609 0.7981,1.81352 1.47242,2.14336 -0.18746,-0.80787 -0.68616,-1.58438 -1.06464,-2.31749 l -1.91496,-3.75309 -5.55311,-10.64846 -4.67686,-8.55693 -3.21175,-6.42427 -4.99392,-9.52221 -2.33459,-4.57637 c -0.29677,-0.58548 -0.60143,-1.45082 -1.05449,-1.91909 l -0.0349,-0.0206 -0.13167,-0.26316 -0.13148,-0.26297 -0.13092,-0.26239 z m -10.36765,3.15579 0.10594,-0.13073 0.11251,-0.13092 -0.11251,0.13092 z m 0.77369,0.12172 0.10819,0.14144 -0.10819,-0.14144 c -0.0646,-0.27142 -0.0412,-0.34542 -0.27255,-0.51486 0.071,0.24926 0.0501,0.35952 0.27255,0.51486 z m -1.45721,1.32573 0.13167,-0.26316 0.12416,-0.26222 -0.12416,0.26222 -0.13167,0.26316 -0.10087,0.13092 z m -36.047462,41.0286 c 0.397833,-0.38863 0.671133,-1.08831 0.928647,-1.58945 l 1.594894,-3.00326 8.516551,-15.61477 3.081216,-6.14835 1.569906,-2.80058 1.998928,-4.17835 3.35996,-6.64179 c 0.57176,-1.18861 1.34319,-2.29683 1.96116,-3.46478 l 3.4103,-7.009181 c 0.4679,-0.991568 1.09,-2.015824 1.37833,-3.072576 l -0.1065,-0.160973 -1.93431,3.646219 c -0.24775,0.490627 -0.4322,1.034967 -0.75622,1.481445 l -0.13731,0.186893 -0.0651,0.172996 -0.26448,0.05826 c -0.11739,0.255637 -0.24324,0.499637 -0.29922,0.777067 -0.12002,0.5958 -0.59204,1.29867 -0.86271,1.86086 -0.1991,0.41323 -0.41981,0.62793 -0.67921,0.98707 -0.21563,0.29865 -0.44253,0.69103 -0.39539,1.05017 -0.46169,0.40459 -0.60595,1.23351 -0.98593,1.77746 l -0.19798,0.005 c -0.14538,0.23442 -0.23986,0.49683 -0.34505,0.75097 v 0.1959 l -0.18126,0.42939 -0.28363,0.0909 c -0.11551,0.26672 -0.12078,0.41586 -0.11101,0.69817 l -0.0552,0.078 c -0.28851,0.41249 -0.61873,1.30695 -1.07046,1.49892 l -0.0434,0.17262 c -0.10275,0.39238 -0.32439,0.86816 -0.54002,1.20851 -0.62943,0.99364 -1.00096,2.21137 -1.61405,3.20125 -0.17789,0.28701 -0.913442,0.99983 -0.935978,1.20777 -0.0532,0.49042 -0.218078,0.80505 -0.371913,1.25623 -0.200228,0.58697 -0.602005,1.15704 -0.89615,1.70796 l -1.946705,3.69656 c -0.71151,1.41382 -1.173015,3.0074 -2.063538,4.3474 l -7.493416,14.70829 -2.308657,4.46197 c -0.270668,0.55148 -0.801112,1.36574 -0.855023,1.96944 l -0.13167,0.26859 -0.131479,0.26316 -0.131489,0.26297 -0.13167,0.26296 -0.110446,0.13093 0.110446,-0.13093 0.13167,-0.26296 0.131489,-0.26297 0.131479,-0.26316 z m 42.493892,-39.97655 0.13168,0.26316 0.13148,0.26296 0.13167,0.26315 0.13148,0.26297 c 0.0982,0.87549 0.8862,2.28086 1.38264,3.02487 0.18728,0.28081 0.14351,0.34467 0.45926,0.52613 l 0.13148,0.26314 0.13168,0.26297 0.13148,0.26315 c 0.12772,0.91194 0.80937,1.57987 1.05712,2.44503 0.30786,1.07459 1.12719,2.25681 1.62814,3.28107 l 11.07315,21.73682 c 0.53025,1.00227 2.31711,4.99223 3.07501,5.43213 0.13374,0.0776 0.10988,0.065 0.22484,0.0947 -0.39539,-1.54944 -1.33568,-3.11183 -2.05114,-4.54199 l -4.38328,-8.48161 c -0.82815,-1.59133 -1.71323,-3.15598 -2.40032,-4.81398 -0.17675,-0.42676 -0.63957,-0.87738 -0.87229,-1.33212 l -5.29953,-10.1708 c -0.64183,-1.19029 -1.20645,-2.5904 -2.0517,-3.64922 l -0.13148,-0.26315 -0.13168,-0.26297 -0.13148,-0.26314 c -0.10631,-0.82309 -1.28328,-2.94918 -1.8419,-3.551 l -0.13148,-0.26297 -0.13167,-0.26315 -0.13148,-0.26296 -0.13168,-0.26316 -0.10743,-0.13073 z m -3.42044,0.6576 0.13149,0.26315 0.13148,0.26297 0.13486,0.26316 c 0.21,0.8058 0.68747,1.55038 1.04943,2.29777 l 2.13454,4.28691 6.99735,13.77738 5.17818,10.30604 c 0.76955,1.43861 1.58889,3.11352 2.62215,4.36975 l 0.25095,0.30016 c -0.92902,-2.69203 -17.75193,-35.02395 -18.2326,-35.33801 l -0.13486,-0.26316 -0.13148,-0.26297 -0.13149,-0.26315 -0.10725,-0.13072 z m -13.02454,17.62384 0.19027,0.0651 0.17488,0.0656 c 0.9277,-1.47956 1.62362,-3.04796 2.40295,-4.60247 l 2.73842,-5.46858 c 0.63844,-1.30694 1.77596,-2.97997 1.99234,-4.39548 l 0.13092,-0.26241 -0.13092,0.26241 c -0.75659,0.83623 -1.0853,2.11106 -1.71773,3.06262 -0.0755,0.11364 -0.0513,0.0755 -0.086,0.21337 -0.15008,0.59619 -0.58829,1.15367 -0.78928,1.75211 -0.21037,0.62643 -0.75301,1.34451 -1.10314,1.92041 -0.17318,0.28494 -0.27612,0.52198 -0.51373,0.76617 -0.43464,0.44667 -0.41867,1.15555 -0.72221,1.62326 l -2.03987,4.20934 h -0.25695 c -0.15722,0.2733 -0.28157,0.46019 -0.26992,0.78853 l -0.13092,0.2622 z m -2.10505,-2.89358 c 0.0892,-0.0511 0.10763,-0.0543 0.18727,-0.14256 0.29959,-0.33172 0.58191,-0.99627 0.60219,-1.43561 l 0.1142,-0.13092 -0.1142,0.13092 c -0.46244,0.33528 -0.70194,0.72879 -0.78683,1.30056 -0.0194,0.12998 -0.0103,0.11307 -0.003,0.27761 l -0.13148,0.26315 -0.3225,0.19422 c -0.2055,0.31914 -0.26053,0.62004 -0.33453,0.98876 0.37641,-0.23442 0.55917,-0.76786 0.65703,-1.18298 z m -2.4995,12.23133 c 0.50865,-0.29641 4.41559,-7.90177 4.72589,-8.93749 l 0.11551,-0.13673 -0.11551,0.13673 c -0.2363,0.16116 -0.43033,0.27255 -0.58041,0.5203 -0.88995,1.46848 -1.66702,3.10977 -2.44672,4.64456 -0.13204,0.25977 -0.18125,0.56669 -0.31744,0.81482 -0.53551,0.97522 -1.09243,1.8633 -1.38132,2.95781 l -0.13167,0.26315 -0.13148,0.26297 -0.13092,0.13092 0.13092,-0.13092 0.13148,-0.26297 z m 8.41981,-8.95908 0.1112,0.14669 -0.1112,-0.14669 0.0731,-0.1715 0.14219,0.055 c 0.13412,-0.27931 0.28494,-0.55335 0.3458,-0.85858 0.12096,-0.60708 0.72241,-1.17208 1.02388,-1.70534 0.23065,-0.40778 0.30335,-0.91325 0.52349,-1.34076 l 1.60992,-2.86784 c 1.18861,-2.26376 2.09265,-4.73846 3.48713,-6.88972 l 10.76377,21.28376 2.41179,4.71932 c 0.39895,0.79077 0.76842,1.73482 1.26993,2.46061 0.24175,0.34975 0.54247,0.51786 0.91156,0.7085 l 0.16511,-0.0109 c -0.1544,-0.77895 -0.7859,-1.73465 -1.14635,-2.45216 l -2.79909,-5.54879 -11.65242,-21.83786 -0.43446,0.50301 c -0.40779,0.43465 -0.54059,1.05243 -0.81707,1.57931 -0.99477,1.89542 -1.95835,4.00967 -3.12818,5.79427 -0.61534,0.9388 -1.09169,2.13435 -1.6118,3.14415 -0.19065,0.37003 -0.47108,0.69873 -0.61139,1.08454 -0.24475,0.67301 -0.70419,1.24572 -0.97786,1.90632 -0.20812,0.50246 -0.55543,0.93034 -0.79492,1.41889 -0.49456,1.00942 -0.90592,2.08345 -1.43485,3.07146 -0.66099,1.23481 -1.31353,2.30715 -1.56691,3.71421 0.63074,-0.57515 0.97035,-1.29249 1.36349,-2.03536 0.41661,-0.7874 0.94273,-1.60391 1.28384,-2.4208 0.42262,-1.01261 0.95062,-2.42925 1.60033,-3.30379 z m -8.55148,2.12007 0.13167,-0.26297 0.11683,-0.2624 -0.11683,0.2624 -0.13167,0.26297 c -0.58134,0.41586 -3.11165,5.77268 -3.27299,6.57548 l 0.14313,-0.1127 c 0.51691,-0.54697 0.95118,-1.82744 1.29416,-2.51903 0.56633,-1.14146 1.73484,-2.66104 1.8357,-3.94375 z m -0.52556,8.02217 0.13092,-0.2624 0.13055,-0.13092 -0.13055,0.13092 z m -3.00063,5.65528 0.10575,-0.13092 0.13092,-0.26222 -0.13092,0.26222 z m 28.38348,2.61483 0.13862,0.13524 -0.13862,-0.13524 c -0.0227,-0.18276 -0.15985,-0.76091 -0.11232,-0.90441 0.009,-0.026 0.18257,-0.31425 0.18445,-0.32872 0.033,-0.24756 -0.56801,-0.40102 -0.13843,-0.92075 l -0.12905,-0.19723 0.0241,-0.0871 c 0.14914,-0.60613 0.0342,-1.20532 0.0469,-1.81991 0.009,-0.4108 0.0945,-0.74307 0.0252,-1.16062 -0.0785,-0.47353 -0.0597,-1.00811 -0.062,-1.48953 -0.003,-0.6467 -0.48236,-1.39841 -0.68634,-2.02634 -0.92678,0.98519 0.32645,3.30662 -0.65648,4.15037 l 0.28626,0.13167 -0.0244,0.20698 -0.20342,0.056 0.0625,0.0782 0.17657,0.25058 -0.0361,0.14801 c -0.0366,0.17638 -0.0314,0.27273 3.8e-4,0.44516 l -0.17713,0.26184 c 0.21206,0.40366 0.27949,0.77838 0.14369,1.235 l -0.031,0.0802 0.0455,0.12191 c 0.15403,0.45662 0.0103,1.93976 -0.0646,2.46118 -0.0246,0.17111 -0.007,0.27142 0.0148,0.43746 0.0379,0.28814 -0.01,0.40591 -0.1375,0.66193 l 0.0881,0.28362 -0.22616,0.2425 0.0855,0.13148 c 0.20681,0.34261 0.0188,0.66812 0.27818,1.05225 l -0.0361,0.17618 c -0.10763,0.55955 -0.1266,0.92452 -0.005,1.46773 0.0705,0.31669 -0.0566,0.84488 -0.0614,1.18372 -0.0138,0.97411 -0.0518,2.05922 0.0133,3.02487 0.0325,0.48254 -0.066,0.96904 -0.0627,1.4512 0.002,0.25752 0.21564,0.26485 0.10048,0.51072 -0.34072,0.72729 0.16267,1.97601 -0.16735,2.83873 l 0.0475,0.16848 c 0.16172,0.60764 0.0772,1.45251 0.14802,2.10768 0.0154,0.14256 0.008,0.0733 -0.0395,0.2115 -0.14238,0.41379 0.0864,1.02557 0.0231,1.48501 -0.0222,0.16097 0.048,0.28663 0.10463,0.43314 -0.0633,0.20342 -0.12153,0.28231 -0.0736,0.49156 0.0449,0.19609 -0.005,0.23066 -0.01,0.40853 l 0.0167,0.0967 c 0.0201,0.13524 0.004,0.2147 -0.0157,0.34843 -0.066,0.46639 -0.0218,0.94349 -0.0714,1.41664 -0.0759,0.72616 0.13862,1.45571 -0.0539,2.17661 -0.0943,0.35294 -0.0413,0.74927 -0.095,1.11141 -0.033,0.22409 0.0353,0.56237 -0.025,0.75772 -0.055,0.17863 -0.20981,0.11176 -0.0905,0.31086 0.0924,0.15422 0.0501,0.21846 0.0717,0.38338 l 0.0674,0.25789 -0.0592,0.0954 c -0.17187,0.38881 0.0459,0.85314 -0.12623,1.28553 l 0.12642,0.32871 c -0.19536,0.37153 -0.1854,1.40011 -0.0363,1.8387 l 0.11664,0.26559 c 0.0241,0.0857 0.008,0.17018 7.5e-4,0.25546 l -0.008,0.10199 c -0.0169,0.12716 -0.0637,0.24569 -0.10594,0.3659 l 0.034,0.0977 c 0.0855,0.34656 -0.11852,0.83643 0.12209,1.08737 -0.19328,0.33378 -0.046,1.02087 0.052,1.39954 l 0.0323,0.1097 c 0.059,0.20417 0.0394,0.33415 0.0135,0.54152 -0.0323,0.25977 0.002,0.53101 0.0206,0.79134 0.0229,0.31782 0.0328,0.48856 -0.11853,0.77199 l 0.0246,0.11158 c 0.0309,0.17675 0.005,0.30467 -0.004,0.48161 -0.0265,0.52142 0.13824,1.27388 -0.18558,1.70984 0.0269,0.12265 0.14257,0.47766 0.11232,0.59187 -0.052,0.19722 -0.25526,0.22276 -0.098,0.40759 0.1837,0.21601 0.17919,0.312 0.15007,0.58003 l -0.17468,0.13017 c 0.20079,0.20906 0.19215,0.18689 0.1867,0.47766 -0.004,0.21075 -0.0115,0.37454 -0.086,0.57459 l 0.0537,0.096 c 0.16135,0.39783 0.004,0.9724 0.0866,1.41588 0.0693,0.36928 -0.17525,1.0483 -0.0328,1.34808 -0.0653,0.30336 -0.0327,0.38712 0.016,0.69104 l -0.004,0.26316 c -0.0135,0.46131 0.10143,1.06539 -0.0129,1.49232 -0.11721,0.43728 0.0419,0.78872 0.0812,1.21567 0.0361,0.39106 -0.019,0.76804 0.006,1.15648 0.0105,0.15591 0.10988,0.54303 0.0757,0.67282 -0.0838,0.31838 -0.20624,0.8291 -0.14275,1.16419 0.0424,0.22484 -0.0302,0.31801 -0.0537,0.5297 l 0.0282,0.27892 -0.0282,0.41117 0.13149,0.18202 -0.0466,0.0962 c -0.17695,0.48836 -0.0422,1.10952 -0.21658,1.65743 l 0.24381,0.36159 -0.0464,0.1852 h -0.32759 0.32759 c -0.0197,0.37622 -0.0733,0.68822 -0.13092,1.0528 -0.0281,0.17751 0.008,0.23048 -0.0583,0.41681 -0.15308,0.42731 0.0115,0.89089 -0.12021,1.32535 -0.10162,0.33434 -0.0251,1.87626 0.0614,2.23671 0.0714,0.29659 0.12453,1.06633 0.0166,1.34695 l 0.18652,0.26297 -0.2331,0.39464 0.12472,0.63225 c 0.0526,0.25414 -0.0452,0.44986 -0.13523,0.68296 l 0.0614,0.18069 c 0.0588,0.17995 0.0674,0.28964 0.0297,0.47823 l -0.14425,0.0651 c 0.0438,0.15158 0.0897,0.26522 0.16041,0.4076 0.24887,0.50076 -0.037,1.15142 0.12753,1.69388 0.22222,0.73217 -0.38937,1.75925 -0.17468,2.43526 0.071,0.22352 0.20568,0.20661 0.11515,0.45136 -0.14952,0.4044 0.1974,0.84393 0.0475,1.3122 -0.0473,0.14726 -0.0485,0.17356 -0.006,0.3197 0.0894,0.30635 0.004,0.68521 0.006,1.00734 v 0.2363 l 0.13149,0.12848 c -0.12022,0.23498 -0.17675,1.07027 -0.12491,1.31727 0.0328,0.15666 0.004,0.22991 -0.0485,0.37511 l 0.19366,-0.0186 -0.0656,1.24195 c -0.007,0.15026 0.0211,0.27987 0.0442,0.42826 0.0736,0.47146 0.055,0.94479 0.0539,1.4219 -3.8e-4,0.12397 -0.0302,0.23478 -0.0575,0.355 l -0.27292,1.3524 0.21187,0.0526 c 0.0952,0.20663 0.0723,0.35125 0.0658,0.57102 l -0.18521,0.29865 0.0255,0.10331 c 0.0725,0.30992 0.0705,0.41887 0.007,0.7288 l -0.004,0.37378 -0.0103,0.11458 c -0.007,0.12021 0.0246,0.21037 0.0611,0.32307 l -0.15196,0.19723 0.0597,0.16341 c 0.19159,0.556 0.0342,1.05751 0.14651,1.61162 l -0.12754,0.26297 0.23235,0.26296 -0.19328,0.32871 0.0483,0.0977 c 0.0571,0.17469 0.0283,0.2517 -0.002,0.42262 -0.0708,0.40384 -0.10105,0.97111 0.12773,1.32235 -0.24137,0.40196 -0.1837,0.52969 -0.15215,0.98613 l 0.19047,0.19722 -0.20342,0.19723 c 9e-4,0.002 0.13092,0.26297 0.13017,0.26484 l -0.15967,0.32683 0.0426,0.0845 0.0513,0.11082 0.0431,0.0864 c 0.0688,0.19723 0.0157,0.50151 -0.0838,0.67809 l -0.0635,0.092 c 0.0365,0.29678 0.0879,0.56914 0.16999,0.85652 l -0.1651,0.26109 c 0.0773,0.16341 0.20211,0.32119 0.16303,0.49963 -0.0604,0.27424 -0.10349,0.44329 0.002,0.71565 l -0.14952,0.23104 0.0838,0.13148 0.0658,0.18783 -0.0875,0.14275 0.15721,0.26297 -0.13654,0.26296 0.0915,0.26297 -0.16793,0.23667 0.1822,0.092 c -0.0614,0.18596 -0.12453,0.35313 -0.21826,0.52593 l 0.0667,0.14276 c 0.0646,0.14838 0.0933,0.24794 0.11269,0.40384 l -0.1606,0.0451 0.0503,0.0996 c 0.12246,0.26109 0.13974,0.49964 0.15064,0.78139 l -0.19404,0.0394 c 0.0323,0.18407 0.065,0.31931 0.15366,0.48461 l -0.1266,0.23854 0.14933,0.26297 -0.033,0.10706 c -0.0723,0.2517 -0.14877,0.46395 -0.0527,0.71189 0.10124,0.26297 0.0752,0.52594 0.0601,0.80205 l -0.21958,0.26296 -0.0815,0.66118 c -0.0137,0.15778 -0.0489,0.26672 -0.10556,0.41135 l 0.2038,0.26673 -0.0272,0.10519 c -0.10312,0.44328 -0.0428,0.70812 0.10161,1.12887 l 0.136,0.015 c -0.0871,0.20661 -0.17637,0.31744 -0.1482,0.54096 0.0412,0.32495 -0.16455,0.74382 -0.108,1.01805 0.0408,0.19723 0.14294,0.10144 0.10631,0.36441 -0.0515,0.36815 0.11439,0.75884 0.0712,1.1007 -0.01,0.0808 -0.25095,0.33998 -0.241,0.39445 0.005,0.0244 0.17375,0.23479 0.1837,0.26484 0.0233,0.0733 -0.10575,0.30241 -0.0997,0.39258 0.009,0.14275 0.15383,0.32306 0.15421,0.46018 7.5e-4,0.24794 -0.16492,0.54847 -0.15083,0.79078 0.006,0.11646 0.0973,0.14088 0.0885,0.29678 -0.0152,0.27048 0.0338,0.44892 0.15497,0.68934 l -0.0272,0.13525 c -0.0876,0.46958 -0.0669,1.05562 0.0117,1.52145 l -0.13956,0.11833 0.0412,0.12397 c 0.0994,0.31743 -0.19704,0.52029 -0.16473,0.65554 0.0312,0.12961 0.21244,0.3813 0.26315,0.60482 l -0.11627,0.19347 c 0.20361,0.42263 0.27123,0.46019 0.15102,0.90536 l -0.25508,0.0808 c 0.0182,0.10893 0.11233,0.43952 0.0888,0.52781 -0.0124,0.047 -0.17037,0.2329 -0.16999,0.26296 3.7e-4,0.0413 0.16116,0.14275 0.17487,0.19722 0.0349,0.13713 -0.15928,0.44141 -0.13523,0.59168 0.0438,0.27048 0.13092,0.0995 0.0896,0.44704 l 0.0431,0.278 0.0319,0.29301 -0.0298,0.13336 c -0.13337,0.61422 -0.42526,1.68487 -0.092,2.20141 l -0.0909,0.16154 c -0.005,0.23854 0.0515,0.39445 0.1497,0.60858 0.0672,0.14651 -0.11721,0.80205 -0.10275,1.09131 0.241,0.10519 0.43972,0.15215 0.70025,0.18408 0.16153,0.0206 0.26372,-0.12585 0.38787,-0.22165 0.10763,-0.46958 0.18915,-0.93728 0.12303,-1.41814 l -0.027,-0.17656 0.1003,-0.16717 c 0.1666,-0.32308 0.15853,-0.79829 0.049,-1.13828 l -0.0473,-0.14087 c -0.0954,-0.41699 -0.0239,-1.40123 0.20343,-1.74121 l -0.17393,-0.26297 c -0.11326,-2.17135 -0.0321,-4.34083 -0.006,-6.51029 0.005,-0.45081 -0.10067,-1.01994 0.0159,-1.45196 l 0.0404,-0.14275 c 0.12884,-0.69499 -0.0205,-1.27727 0.0602,-1.92529 0.10707,-0.86216 -0.0332,-1.75248 -0.052,-2.61652 -0.015,-0.6931 0.17111,-1.08192 -0.0526,-1.79569 l -0.0508,-0.15778 c 0.0581,-0.0939 0.0947,-0.13711 0.11008,-0.26296 0.0564,-0.45456 -0.10801,-1.06126 -0.11139,-1.54399 -0.0154,-2.30096 0.10706,-4.62446 -0.085,-6.91978 -0.0494,-0.59167 0.30542,-2.2277 0.0924,-2.58271 -0.0242,-0.26484 0.008,-0.44516 0.0782,-0.70061 l 0.0253,-0.0883 c -0.22972,-0.37567 -0.10368,-1.25473 -0.0881,-1.71117 0.15834,-0.22164 0.18145,-0.37003 0.20625,-0.63299 l 0.008,-0.092 0.13806,0.13336 -0.13806,-0.13336 -0.0449,-0.15402 c -0.0318,-0.16718 -0.008,-0.27049 -0.0911,-0.43202 l -0.0543,-0.0902 0.23592,-0.50527 c -0.18878,-0.34749 0.0194,-0.633 -0.16304,-1.05186 0.0622,-0.23667 0.16154,-0.5034 0.11815,-0.74946 -0.0257,-0.14651 -0.0986,-0.42074 -0.0607,-0.56538 0.0135,-0.0526 0.20699,-0.30992 0.20098,-0.3287 -0.006,-0.0225 -0.18689,-0.19535 -0.19967,-0.22164 -0.0826,-0.18033 -0.0227,-0.90725 -0.0281,-1.13452 l -0.12755,-3.89567 c -0.003,-0.38317 0.12717,-1.04435 0.0679,-1.36441 -0.23686,-1.28028 0.0509,-2.55829 -0.0346,-3.83274 -0.0332,-0.49532 -0.10593,-1.15818 0.0225,-1.6364 0.12284,-0.45738 0.13449,-1.11611 0.12209,-1.59321 -0.0109,-0.41905 -0.0223,-1.05787 0.0381,-1.45476 0.0342,-0.22428 0.10556,-0.43559 0.005,-0.65291 -0.14426,-0.31293 0.1606,-0.60595 -0.002,-1.04887 0.14425,-0.27573 0.10875,-0.53325 0.0562,-0.82965 -0.0977,-0.55036 -0.0412,-1.11292 -0.0628,-1.66909 -0.0426,-1.093 -0.12454,-2.19446 -0.0609,-3.28802 l 0.0735,0.26297 c 0.052,0.1944 0.0904,0.35087 0.19366,0.5248 0.077,-0.56575 0.13223,-1.30525 -0.0862,-1.84001 h -0.16066 c -0.12209,-0.44085 -0.24024,-1.72469 -0.14801,-2.16272 0.0393,-0.18651 0.0965,-0.21187 0.0526,-0.40966 -0.23159,-1.04454 0.11928,-2.29664 -0.005,-3.34606 -0.13656,-1.16006 0.23723,-2.47001 0.0318,-3.60903 -0.085,-0.47071 -0.10707,-1.13583 0.15515,-1.55451 l 0.2254,0.0881 0.0892,-0.1852 c -0.18445,-0.0583 -0.19234,-0.0293 -0.31086,-0.19742 l 0.30166,-0.2624 c -0.20812,-0.16905 -0.27198,-0.2902 -0.38168,-0.52668 l 0.23442,-0.32871 -0.15365,-0.19741 0.17525,-0.19723 c -0.0499,-0.0607 -0.12473,-0.14313 -0.15178,-0.21656 -0.099,-0.2688 -0.0113,-0.35727 0.12717,-0.57253 l -0.1929,-0.32889 0.19722,-0.29095 c 0.0225,-0.39689 -0.0346,-0.38563 -0.28513,-0.6717 l 0.16792,-0.48329 -0.14576,-0.0651 c 0.0167,-0.42526 -0.10669,-0.83548 -0.14012,-1.2566 -0.0213,-0.26842 0.0956,-0.4833 0.0473,-0.75491 -0.2286,-1.28609 -0.1884,-3.10808 -0.0242,-4.39454 0.018,-0.14182 0.0605,-0.25791 0.019,-0.40047 -0.17336,-0.5943 0.0821,-0.82684 0.11139,-1.34901 l -0.14501,-0.11684 -0.0165,-0.60652 0.1482,-0.0804 c 0.0749,-0.29959 0.0156,-0.41587 -0.0656,-0.70869 0.0434,-0.10932 0.0684,-0.15985 0.0917,-0.28382 0.0567,-0.30242 -9e-4,-0.45193 -0.15778,-0.70137 l 0.17562,-0.33003 -0.078,-0.16528 c -0.0545,-0.17657 0.0127,-0.50622 0.0941,-0.66212 l 0.0714,-0.10838 -0.0665,-0.24718 c -0.2085,-0.60258 0.089,-1.3107 -0.14539,-1.82856 l -0.0742,-0.14501 c 0.10444,-0.15027 0.18295,-0.29791 0.23498,-0.47353 0.0917,-0.30917 0.0441,-0.66794 -0.13262,-0.93954 l -0.0794,-0.0981 0.15384,-0.32946 -0.15384,-0.0651 0.13167,-0.2162 c -0.11119,-0.72917 -0.0344,-1.4234 -0.0509,-2.15238 -0.0126,-0.55505 -0.14821,-1.16288 -0.10331,-1.70984 0.0489,-0.59431 0.25977,-1.49084 0.176,-2.04607 -0.13449,-0.88939 0.008,-1.8342 -0.0218,-2.72471 -0.0107,-0.31218 0.0485,-0.63338 0.0188,-0.93653 -0.0201,-0.20456 0.0562,-0.28833 0.14201,-0.4741 l -0.16079,-0.1127 c -0.0178,-0.24568 -0.0562,-0.50659 0.0291,-0.74326 l 0.0511,-0.13036 -0.0803,-0.14331 c 0.0442,-0.46751 -0.0689,-0.90179 -0.0723,-1.36931 -0.002,-0.20454 0.0288,-0.13092 -0.0541,-0.2947 l -0.0564,-0.0998 c 0.14031,-0.53739 0.23273,-0.95795 0.0485,-1.49609 l -0.0297,-0.0822 0.16267,-0.26296 -0.11684,-0.19667 0.1328,-0.26428 c -0.0707,-0.12209 -0.1127,-0.21883 -0.15929,-0.34993 0.0349,-0.14821 0.0564,-0.27067 0.0365,-0.42319 -0.0534,-0.40666 0.0665,-0.73856 0.0366,-1.11836 -0.0133,-0.16717 -0.0479,-0.24681 0.0195,-0.41135 0.0539,-0.13205 0.0746,-0.1745 0.052,-0.32007 -0.1236,-0.79585 -0.14858,-2.05358 0.0122,-2.8468 0.0498,-0.24587 0.041,-0.18464 -0.0738,-0.38225 0.10913,-0.25864 0.10387,-0.51296 0.0922,-0.78908 -0.009,-0.20079 -0.0213,-0.31462 0.0309,-0.51354 l 0.0438,-0.14406 c -0.12078,-0.29903 -0.10839,-0.423 -0.0471,-0.73969 z m -20.66635,19.50498 c 0.0159,0.33716 -0.0632,0.57965 -0.17169,0.8969 0.10914,0.28852 0.0395,0.29772 0.0562,0.52613 0.0169,0.2284 0.22689,0.49493 0.24324,0.72334 0.007,0.0969 -0.1728,0.30072 -0.16229,0.39445 0.0171,0.15534 0.14219,0.16717 0.0967,0.34712 -0.10575,0.41961 0.0272,0.74419 -0.0581,1.16531 -0.11195,0.55411 -0.1651,2.04513 -0.0496,2.56468 0.11927,0.53626 -0.002,1.10821 -0.26315,1.57837 l 0.0629,0.0755 c 0.21094,0.33603 0.28869,1.60334 0.23873,2.00549 l -0.0363,1.00961 c 0.25808,0.31537 0.26936,0.31931 0.25958,0.72465 l -0.35067,-9e-4 -0.044,0.1636 0.0452,0.0775 c 0.2177,0.38976 0.12604,0.65892 0.18671,1.07403 l 0.0147,0.13938 c 0.0203,0.16378 0.005,0.0982 0.0822,0.26127 l -0.0571,0.0676 c -0.14914,0.2438 -0.10988,0.78533 -0.22615,1.11009 l 0.16773,0.3287 -0.16642,0.39464 c 0.22428,0.40685 0.20962,0.45531 0.15028,0.92058 l -0.13092,-0.26241 0.13092,0.26241 c 0.0129,0.18407 0.0982,0.56518 0.07,0.7316 -0.0241,0.14219 -0.13994,0.16981 -0.12792,0.33999 0.0128,0.17618 0.0199,0.31706 -0.01,0.49231 -0.0356,0.20906 -0.006,0.39764 0.0194,0.60613 -0.25,0.44197 0.23085,0.88263 0.0442,1.33663 -0.11833,0.28795 -0.0129,0.66436 0.0413,0.96321 l -0.0494,0.0896 c -0.0564,0.11139 -0.0712,0.18483 -0.0845,0.30617 l 0.17563,0.13205 -0.0595,0.14651 c -0.13017,0.36421 0.0128,0.94574 -0.0567,1.36611 l 0.0304,0.3287 -0.009,0.46039 -0.207,0.13148 0.18652,0.39464 -0.0548,0.12096 c -0.13825,0.33529 -0.0907,1.12437 0.0257,1.46379 -0.0877,0.29903 0.0555,0.42657 0.0152,0.65103 -0.0178,0.1003 -0.19385,0.32082 -0.25001,0.41981 -0.21657,0.38186 -0.006,0.71113 0.08,1.12098 0.0428,0.20362 -0.006,0.3026 -0.0231,0.49832 -0.0283,0.34074 0.22203,0.32947 0.10895,0.633 -0.0725,0.19497 -0.0526,0.28495 -0.018,0.48705 0.13318,0.78346 -0.0897,1.59057 0.0831,2.39169 0.0265,0.12265 0.0105,0.19591 -0.0103,0.31687 -0.0422,0.24531 0.0145,0.24925 0.0631,0.46639 l 0.0169,0.17619 -0.13092,0.13073 0.13092,-0.13073 c 0.0871,0.41192 -0.0361,0.88864 0.007,1.3152 l -0.0167,0.28476 c -0.019,0.46996 0.22032,1.03853 0.009,1.49196 -0.14764,0.31782 0.046,0.70475 0.0569,1.05863 0.006,0.20323 0.0693,0.28795 0.17864,0.45249 l -0.033,0.0822 c -0.0866,0.2224 -0.25451,0.66831 -0.213,0.90423 0.0372,0.21075 0.15008,0.15553 0.047,0.38375 -0.27724,0.61328 0.10876,1.2134 -0.36402,1.85204 l 0.28212,0.26315 c -0.13167,0.67169 -0.12059,1.1548 -0.10331,1.83287 0.004,0.15177 0.0347,0.26203 0.0831,0.40422 -0.0663,0.17319 -0.0819,0.1544 -0.0396,0.34806 0.0806,0.36965 0.074,0.76297 0.0879,1.13995 0.0286,0.77933 -0.10388,1.51112 -0.0483,2.28669 l 0.26447,-0.0935 c -0.0806,0.19121 -0.11759,0.21056 -0.27819,0.32945 l 0.0138,0.70288 0.13298,0.0857 -0.18726,0.32889 0.043,0.14181 c 0.0539,0.22484 0.0402,0.14464 0.005,0.36516 -0.0327,0.20774 -0.005,0.2562 0.0566,0.4476 0.0693,0.21413 0.056,0.48649 0.0607,0.71133 0.003,0.1358 -0.0239,0.24343 -0.0597,0.37266 l 0.0426,0.0994 c 0.0656,0.19835 -0.0327,0.31012 -0.005,0.49232 0.0564,0.36364 0.20023,0.53739 0.17337,0.93728 -0.4014,0.67639 0.34204,1.59377 -0.18107,2.35074 0.40347,0.70812 0.15515,1.38996 0.15815,2.16947 9e-4,0.30429 0.071,0.64802 -0.006,0.9448 l -0.26241,0.65366 c -0.13261,0.34937 -0.0913,0.85464 -0.10143,1.2303 l 0.15045,0.13149 c -0.0199,0.3907 -0.1373,0.40572 -0.23141,0.72316 -0.0838,0.28363 0.0688,0.89033 0.12886,1.18335 l -0.14557,0.32871 0.15045,0.26297 -0.18445,0.26296 c 0.17807,0.36815 -0.0347,0.49024 0.0909,0.79829 0.21243,0.51842 0.12565,1.47261 0.0644,2.03047 l 0.1559,0.32872 -0.1621,0.26297 0.0796,0.11081 c 0.12077,0.19347 0.15815,0.52406 0.11345,0.75134 -0.0138,0.0676 -0.0479,0.12772 -0.0791,0.18971 l 0.13035,0.13336 -0.0477,0.077 -0.20982,0.44704 0.25752,0.26485 -0.17675,0.26109 0.0436,0.0827 c 0.22033,0.43953 0.14387,0.77951 0.0169,1.23219 l 0.11759,0.26296 c -0.0672,0.13336 -0.13148,0.21602 -0.22615,0.32872 l 0.0932,0.46206 -0.15272,0.17093 0.16586,0.25733 -0.213,0.36064 0.2748,0.26297 -0.36759,0.26297 0.0295,0.26109 0.26447,-0.12961 c 0.22146,0.43389 0.10068,0.68747 0.11683,1.14203 0.0306,0.849 0.25864,2.35166 -0.0131,3.13681 l -0.12002,0.22165 c 0.0133,-0.61047 -0.012,-0.89222 -0.31387,-1.43505 l -0.11608,0.0902 0.0143,0.0789 c 0.10687,0.61985 -0.0457,1.37682 0.34204,1.89336 -0.004,0.52406 0.0888,1.1533 -0.24906,1.57968 l 0.0871,0.19723 -0.18332,0.3287 c 0.17619,0.10331 0.15383,0.0545 0.23667,0.27048 l -0.21056,0.18972 c 0.0901,0.22351 0.11214,0.21412 0.32758,0.3287 -0.32383,0.69311 -0.24174,1.04999 -0.077,1.77503 l -0.15158,0.26296 c 0.0971,0.28739 0.20718,0.52781 0.35839,0.78891 0.002,0.21788 -0.10162,0.8227 -0.0483,0.98612 0.0665,0.20662 0.19065,0.13148 0.10613,0.36628 -0.0684,0.1897 -0.031,0.31743 -0.002,0.50714 0.0231,0.15027 0.0251,0.28926 0.0259,0.44141 l 0.13919,0.002 0.004,0.94667 -0.17037,0.0395 c 0.0299,0.28175 0.17506,0.33247 0.15815,0.59167 l -0.18727,-0.0356 -0.0733,0.16717 0.1961,0.1296 c -0.063,0.19347 -0.063,0.20474 0,0.39821 l -0.21582,0.0639 c 0.092,0.1822 0.12566,0.21225 0.28156,0.33059 l -0.21957,0.26108 0.22089,0.4602 -0.0962,0.26297 0.0948,0.19909 -0.19515,0.19535 c 0.0532,0.30054 -0.0543,0.70062 0.044,0.92977 0.0829,0.1916 0.11477,0.37943 0.1512,0.58417 -0.11176,0.16905 -0.12923,0.19159 -0.13279,0.39257 l -0.28308,-0.16718 5.7e-4,0.75886 c 0.14951,-0.0658 0.22578,-0.11834 0.34956,-0.21977 0.0235,0.25358 -0.0853,0.26297 -0.14463,0.48461 -0.11608,0.43014 0.16548,0.89597 -0.007,1.42378 l -0.22258,0.22351 0.012,0.43953 0.18745,0.0413 -0.0118,0.633 c -0.19027,0.0902 -0.14876,0.0827 -0.22183,0.26297 l 0.21113,0.19534 c -0.0138,0.15403 -0.0431,0.29114 0.0192,0.43765 0.14181,0.33435 0.0813,0.40197 -0.0178,0.74758 l 0.13711,0.19722 c -0.0708,0.28926 -0.11176,0.55975 -0.13711,0.85465 l 0.33904,0.2855 c 0.35425,0.0413 0.44291,0.1127 0.73837,-0.10519 0.0171,-0.55786 0.24475,-1.70177 0.10762,-2.19013 -0.11044,-0.3907 0.0471,-1.25097 0.0405,-1.72243 l -0.0543,-7.08132 c 0.008,-1.72618 0.24081,-3.58197 0.11871,-5.2969 -0.12942,-1.81634 -0.0528,-3.76041 -0.008,-5.58992 l -0.10406,-4.69395 0.0639,-3.99897 c 0.0265,-0.6499 0.28213,-2.09058 0.0248,-2.65408 -0.0761,-0.16529 -0.0417,-0.24418 -0.01,-0.4245 0.052,-0.29302 0.11852,-0.5372 0.0503,-0.83398 -0.0494,-0.21413 -0.0725,-0.38882 -0.0517,-0.61234 0.0124,-0.13148 0.0379,-0.19158 0.0274,-0.33246 -0.0259,-0.34562 0.0258,-0.70626 -0.0173,-1.04812 -0.031,-0.24606 -0.15252,-0.49212 -0.10086,-0.73818 0.14651,-0.69686 0.0735,-1.44444 0.0494,-2.15257 -0.0468,-1.37681 -0.15721,-2.95462 -0.0178,-4.31265 0.23292,-2.27259 -0.1343,-4.6391 0.0712,-6.90569 0.0862,-0.951 0.0291,-2.12439 9.1e-4,-3.09117 l -0.14219,-6.36679 c 0,-0.43071 0.15327,-0.84319 0.14819,-1.2568 -0.01,-0.80899 0.15703,-2.23935 -0.22389,-2.91442 0.0443,-0.1559 0.0432,-0.22108 0.0126,-0.38731 l -0.0328,-0.15121 c 0.23329,-0.47484 0.11026,-1.99009 0.1189,-2.56467 0.0128,-0.84131 -0.20718,-1.98747 -0.0395,-2.79477 l 0.0297,-0.0986 c -0.0667,-0.17788 -0.0973,-0.25245 -0.0627,-0.44386 0.0321,-0.17806 0.0443,-0.11946 -0.005,-0.29828 l -0.0393,-0.11269 0.14763,-0.26316 c -0.19196,-0.78421 -0.0524,-1.91589 -0.0592,-2.73579 -0.0164,-1.98878 -0.1591,-4.10209 -0.0173,-6.07603 0.0281,-0.39182 0.0621,-0.78101 -0.0119,-1.17245 -0.0382,-0.20117 -0.0522,-0.30261 0.0192,-0.49551 l 0.0691,-0.17337 c -0.37266,-0.86216 0.312,-1.93261 -0.1465,-2.7619 0.28719,-0.42563 0.15383,-0.99964 0.22614,-1.49309 0.0205,-0.1388 -0.0494,-0.20417 -0.11326,-0.3257 0.0464,-0.23836 0.0943,-0.84619 0.0349,-1.07328 l -0.0658,-0.13994 0.10462,-0.19027 c -0.0229,-0.24493 -0.027,-0.51673 -0.14012,-0.73988 l -0.0623,-0.11495 c 0.15007,-0.36439 0.0831,-0.60783 -0.008,-0.97353 -0.0708,-0.28345 0.0909,-0.23724 0.13825,-0.47316 0.0689,-0.34298 -0.23837,-0.34862 -0.004,-0.78909 -0.0555,-0.24117 -0.16774,-0.54546 -0.10613,-0.78759 l 0.0321,-0.10236 c 0.009,-0.28382 -0.002,-0.72316 -0.0327,-1.00979 -0.0242,-0.22672 -0.0548,-0.39464 -0.005,-0.62098 0.0707,-0.32007 0.19817,-0.84431 0.0736,-1.15198 -0.0576,-0.14257 -0.0656,-0.10238 -0.056,-0.2408 0.0597,-0.86498 -0.0306,-1.72995 0.0385,-2.5844 0.0113,-0.13881 -0.0902,-0.21207 -0.17017,-0.32214 l 0.13017,-0.15045 c -0.016,-0.1452 -0.0335,-0.28118 -0.012,-0.42695 0.0431,-0.29301 -0.0682,-0.54227 -0.004,-0.81031 l 0.0447,-0.14387 -0.22522,-0.39446 0.19742,-0.15515 c -0.095,-0.66323 0.24606,-1.71229 -0.0658,-2.27165 l 0.0798,-0.0727 c 0.0279,-0.28344 0.066,-0.56181 0.0336,-0.846 -0.0663,-0.5851 0.0208,-1.19349 0.003,-1.78385 -0.0101,-0.33115 -0.0984,-0.65159 -0.0875,-0.98425 0.0157,-0.48198 0.15572,-1.04022 0.10876,-1.51037 -0.11476,-1.14766 0.0754,-2.34697 -0.0481,-3.48431 -0.0171,-0.15815 -0.0248,-0.23742 3.8e-4,-0.39858 l 0.0222,-0.13261 c -0.0119,-0.3272 0.0503,-0.86365 -0.0321,-1.15649 -0.0751,-0.26653 0.0293,-0.55692 0.0459,-0.83567 l 0.067,-2.47958 c 9.1e-4,-0.3413 -0.11551,-0.67188 -0.0947,-1.01543 0.0216,-0.35238 -0.0703,-0.7271 -0.0171,-1.07271 l 0.0489,-0.27931 -0.21432,-4.20202 c -0.29922,0.66061 -0.59036,1.31427 -0.69347,2.03856 -0.0693,0.48705 -0.0109,0.98969 -0.10163,1.47486 -0.12923,0.69066 0.009,1.40199 -0.15871,2.0703 -0.18371,0.73273 0.20604,1.62495 0.0405,2.24104 l -0.0469,0.13636 c -0.10463,0.34412 -0.0853,0.3952 0.0883,0.71265 -0.037,0.12884 -0.10556,0.31273 -0.0834,0.44779 0.21995,1.33775 -0.005,2.56561 -0.0522,3.89754 -0.0117,0.33115 0.1745,0.63074 0.11495,0.96283 -0.14633,0.81651 -0.18483,1.91552 -0.0672,2.73598 0.0436,0.30391 0.0293,0.59769 0.0592,0.89916 0.0716,0.72259 0.13994,1.68693 0.0853,2.40821 l -0.0613,1.22091 c -0.03,0.24738 0.0227,0.29171 0.11984,0.51392 -0.19328,0.28438 -0.0396,0.64483 -0.0926,0.96941 -0.0428,0.26146 -0.0358,0.39876 0.0261,0.65346 l 0.0223,0.0868 c -0.2502,0.5682 0.12416,0.84845 -0.2656,1.439 z m 3.05961,24.83288 0.11683,-0.13092 0.32514,0.0719 c -0.0648,0.31049 -0.10274,0.71753 -0.28456,0.97674 l 0.0832,0.14745 c -0.0353,0.2006 -0.0693,0.36064 -0.0459,0.565 0.022,0.19065 -0.0383,0.23873 -0.12359,0.40891 l 0.24306,0.2269 c 0.0235,0.18596 0.0276,0.28288 -0.0271,0.46583 -0.10462,0.34918 -0.0316,0.60294 0.0396,0.95138 l -0.14425,0.14256 c -0.0229,0.23009 -0.0509,0.42995 0.0569,0.64408 l 0.0747,0.13862 c -0.0346,0.15553 -0.0593,0.25677 -0.0244,0.41661 l 0.0297,0.10481 -0.1559,0.26372 0.12979,0.26166 c -0.058,0.18482 -0.0702,0.25038 -0.0152,0.4446 0.066,0.2331 0.002,0.25789 -0.0943,0.47672 0.0537,0.27179 0.20192,0.74175 0.0831,1.0004 -0.0843,0.18389 0.0242,0.61891 -0.0719,0.93147 -0.0747,0.24342 0.1005,0.30015 -0.0255,0.60576 l 0.14483,0.27892 c -0.14201,0.65573 0.0637,1.35316 -0.16661,1.9839 l 0.16661,0.26184 c -0.22465,0.93297 0.16416,2.00362 -0.0952,2.92344 l -0.0351,0.10274 c 0.31275,0.66381 -0.0436,1.28648 0.15497,1.91609 l 0.0419,0.1219 -0.0665,0.0676 c -0.005,0.50846 -0.0992,1.28309 0.11045,1.74385 l 0.0569,0.0962 -0.19234,0.34842 c -0.0164,0.32872 0.0158,0.56294 0.12454,0.87493 l 0.0332,0.0918 -0.24926,0.39464 0.14763,0.26297 c -0.005,0.46094 0.10088,0.90968 -0.0321,1.35634 -0.0592,0.19835 -0.0924,0.33227 -0.0808,0.54058 0.007,0.13731 0.0184,0.21169 -0.0186,0.35013 l -0.0314,0.0853 c 0.14256,0.24587 0.15778,0.41831 0.17073,0.69254 -0.10011,0.20155 -0.1482,0.37097 -0.19008,0.59186 0.10199,0.27875 0.23085,0.57778 0.15289,0.87718 l -0.0379,0.10933 c 0.0928,0.25789 0.12548,0.37792 0.0658,0.64933 -0.0306,0.13825 -0.0614,0.22634 -0.0396,0.36985 l 0.10988,0.81933 0.0316,0.13298 c -0.18407,0.33097 -0.029,0.59712 -0.0821,0.94612 -0.13448,0.88338 0.0595,1.83945 -0.0693,2.73541 -0.0466,0.32496 -0.041,0.51091 0.0616,0.82835 0.068,0.21225 -0.12153,0.3024 -0.12998,0.48837 -0.0145,0.32683 0.1807,0.26296 0.0204,0.65929 0.29621,0.83961 -0.006,2.0887 -0.0639,2.98467 -0.0156,0.24606 0.0471,0.47146 -0.0625,0.70626 l -0.0623,0.12208 0.2222,0.26297 -0.17881,0.26296 0.18483,0.26297 -0.10331,0.2348 0.0361,0.10893 c 0.0511,0.19347 0.27142,1.92154 0.22709,2.02298 -0.0145,0.0319 -0.22803,0.23854 -0.23611,0.26484 -0.0901,0.29302 0.22352,0.53908 0.0321,0.92038 0.13016,0.30804 0.15139,0.43953 0.0745,0.76824 l -0.0222,0.0864 0.0452,0.11082 0.0527,0.14088 c 0.13186,0.33622 -0.0878,0.56538 -0.0232,0.89784 0.0366,0.18784 -0.0555,0.31368 -0.12905,0.49401 0.0656,0.24981 0.0815,0.46018 0.0847,0.71939 l 0.007,0.33247 c 0.0381,0.21788 -0.0597,0.46019 -0.0642,0.72316 -0.0109,0.61984 0.11647,1.45758 -0.0558,2.02859 -0.0648,0.21601 0.006,0.26673 0.0885,0.46959 -0.21769,0.31556 -0.16999,0.68559 -0.17919,1.05375 -0.007,0.27798 -0.0524,0.60482 0.0714,0.86215 l 0.0663,0.12397 -0.20755,0.36251 c 0.0656,0.15778 0.0905,0.25734 0.0879,0.42639 l -0.21939,0.002 c 9e-4,0.23103 0.10086,0.37566 0.21263,0.56913 0.0806,0.13899 0.0216,0.1991 -0.0167,0.34937 0.11946,0.31743 0.0894,0.55223 0.0498,0.88657 -0.0455,0.37942 0.1065,1.20965 0.004,1.4914 -0.17244,0.47522 -0.0182,0.97673 -0.1591,1.43692 -0.17074,0.55787 -0.0105,0.88657 0.0705,1.44632 0.0265,0.18408 0.0314,0.33809 0.0947,0.51466 0.13374,0.37003 -0.15477,0.16905 -0.19234,0.40572 -0.004,0.0225 0.14501,0.20849 0.16304,0.26297 0.0413,0.12397 -0.0164,0.38318 -0.002,0.52593 0.0318,0.3212 0.0716,0.5372 -0.14238,0.8152 l -0.0965,0.10518 c 0.23798,0.29302 0.27987,0.34186 0.30861,0.72504 0.0265,0.35125 0.0383,0.54472 -0.15703,0.85277 l -0.0457,0.0676 c 0.0567,0.0958 0.10876,0.17469 0.18426,0.2592 l 0.0648,0.0695 -0.13525,0.39445 c 0.0581,0.16342 0.11064,0.278 0.0843,0.45456 -0.0337,0.2254 -0.0251,0.43577 -0.0182,0.66305 l -0.16829,0.0188 c -1.9e-4,0.31932 -1.9e-4,0.37567 0.16022,0.64803 l -0.13149,0.10894 c 0.0166,0.0583 0.0475,0.15215 0.0438,0.21037 -0.0143,0.22353 -0.0784,0.23855 -0.005,0.48461 0.0995,0.33434 0.0707,0.55223 0.0178,0.89784 l -0.0211,0.12961 c 0.25113,0.37191 0.0913,2.04175 0.10443,2.5658 h -0.2654 c -0.003,0.35877 -0.10857,0.56914 0.12565,0.86403 -0.0527,0.2085 -0.0663,0.33247 -7.5e-4,0.53722 0.10744,0.33434 -0.10142,0.35124 -0.10725,0.63675 -0.005,0.22351 0.10105,0.56162 0.14182,0.7889 l -0.1653,0.15965 c 0.20061,0.53157 -0.13561,0.39633 -0.13975,0.79266 -9e-4,0.10143 0.22184,0.31368 0.24362,0.42826 0.0335,0.17469 -0.10312,0.43202 -0.0646,0.65742 h 0.28588 c 0.39088,-0.004 0.67995,0.1127 1.02294,-0.0902 0.11683,-0.60482 0.16642,-1.5778 0.10613,-2.19765 -0.0166,-0.16905 -0.0395,-0.27235 -0.0141,-0.44704 0.0528,-0.36628 0.0766,-1.03496 -0.0714,-1.37306 l -0.0548,-0.0939 c 0.24568,-0.40009 0.0517,-0.88282 0.13317,-1.32423 0.0274,-0.14839 0.0717,-0.22351 0.0355,-0.37942 -0.13111,-0.56725 7.5e-4,-1.14954 -0.002,-1.72243 -0.003,-0.73067 -0.13242,-1.56089 -0.0192,-2.28593 l 0.0394,-0.278 c -0.0405,-0.4245 -0.0778,-1.18522 0.11251,-1.58906 l 0.0612,-0.12021 c -0.30447,-0.44141 -0.15495,-1.3355 -0.0973,-1.85956 0.0156,-0.14275 0.0412,-0.24981 0.006,-0.39256 -0.16435,-0.68184 -0.009,-1.62101 -0.005,-2.3329 0.005,-0.81707 -0.15515,-1.91965 0.0877,-2.68413 l 0.0321,-0.0958 c -0.15139,-0.31368 -0.21939,-0.71376 -0.11157,-1.05187 0.0389,-0.1202 0.0674,-0.13899 0.0487,-0.26296 -0.0335,-0.22352 -0.0958,-0.33247 -0.0761,-0.56725 0.0738,-0.87719 0.0167,-1.86519 -0.003,-2.74988 -0.009,-0.41324 -0.0883,-0.92602 0.0173,-1.31859 0.0965,-0.35877 -0.0402,-0.78139 -0.1082,-1.14579 0.29566,-0.54283 -0.1249,-1.32047 0.002,-1.87081 0.21019,-0.91664 -0.14481,-1.99292 0.11514,-2.89076 l 0.0571,-0.17656 c -0.0969,-0.23856 -0.17149,-0.42263 -0.13167,-0.68184 0.0483,-0.31744 0.081,-0.66305 0.0145,-0.97861 -0.11026,-0.52405 0.0543,-0.96358 0.0562,-1.46885 7.5e-4,-0.21037 -0.15665,-0.57478 -0.18727,-0.81708 0.0785,-0.14651 0.12472,-0.23104 0.11514,-0.40196 -0.0316,-0.56162 -0.14482,-1.24158 -0.0581,-1.78818 0.0257,-0.16153 0.0389,-0.23291 0.0117,-0.3982 -0.11269,-0.68559 0.006,-1.48764 0.004,-2.1939 l 0.0824,-6.75185 c 0.0213,-0.41699 -0.13505,-0.81031 -0.0871,-1.22749 0.0789,-0.68691 -0.0152,-1.40612 -0.0271,-2.09978 -0.0366,-2.12346 -0.15891,-4.4124 0.044,-6.52496 0.0344,-0.35801 -0.0454,-0.67714 -0.0281,-1.02914 l 0.0171,-0.86309 c 0.0107,-0.17525 0.0417,-0.26447 -0.002,-0.4354 -0.099,-0.38694 -0.10162,-1.18091 -0.0532,-1.58081 0.0319,-0.26277 0.004,-0.41229 -0.077,-0.65892 l -0.0297,-0.0869 0.0691,-0.096 c 0.13204,-0.2438 0.14406,-0.61252 0.0735,-0.87661 -0.21056,-0.78646 0.0338,-1.91816 0.0445,-2.70988 0.005,-0.38881 -0.0843,-0.5911 0.018,-1.00696 l 0.0288,-0.11102 -0.0445,-0.071 c -0.11514,-0.25056 -0.11251,-0.96339 -0.003,-1.21434 l 0.0581,-0.0956 -0.10049,-0.25357 c 0.0614,-0.22483 0.12416,-0.42957 0.0798,-0.66342 -0.0642,-0.33999 -0.14877,-0.6238 0.0377,-0.92414 -0.0487,-0.11327 -0.0699,-0.18352 -0.0731,-0.30861 l -0.0445,-0.60934 c 0.0934,-0.53306 -0.13318,-1.09638 0.046,-1.61536 l 0.0452,-0.0971 c -0.0988,-0.20511 -0.0967,-0.34467 -0.0896,-0.5665 l 0.005,-0.5342 c -0.008,-0.2237 -0.0431,-0.43182 0.0449,-0.64464 l 0.055,-0.096 c -0.25489,-0.38394 -0.0995,-1.10615 -0.0905,-1.55188 0.0171,-0.8306 0.10312,-1.7707 0.0274,-2.59097 -0.0412,-0.44685 0.0648,-0.92827 -0.0139,-1.35391 -0.0391,-0.21093 -0.0359,-0.0796 -0.0239,-0.31593 l 0.0152,-4.49222 0.002,-1.32235 c 0.006,-0.14482 0.0178,-0.2669 -0.003,-0.41229 -0.11627,-0.80825 0.0665,-1.67472 0.002,-2.49649 -0.0967,-1.23576 -0.0922,-2.73354 0.0107,-3.97286 0.0194,-0.23386 0.0359,-0.37736 -0.0753,-0.5945 -0.1018,-0.19891 0.10387,-0.70456 0.0981,-1.01918 l -0.0829,-5.32658 c 0.0141,-1.15048 0.14726,-2.433 0.0265,-3.56995 -0.0473,-0.44536 0.0389,-0.93297 -0.0355,-1.35634 -0.0235,-0.13431 -0.0672,-0.22334 -0.0203,-0.36064 0.19121,-0.56144 0.0302,-1.14429 0.0162,-1.72901 -0.0133,-0.54961 0.0747,-1.18804 -0.002,-1.72149 -0.1976,-1.38039 0.10969,-2.87048 -0.005,-4.25856 -0.0537,-0.64389 -0.062,-1.41438 -0.0278,-2.06297 0.0129,-0.24362 0.0956,-0.40197 0.0449,-0.65103 -0.0806,-0.39445 -0.006,-0.80881 -0.10575,-1.19406 -0.0524,-0.20436 0.0524,-0.33209 0.13449,-0.52237 -0.19234,-0.46168 -0.0445,-1.14315 -0.07,-1.64598 l -0.10933,-7.23158 c -0.004,-0.71001 0.15534,-1.92998 -0.0344,-2.56467 -0.0252,-0.084 -0.24475,-0.29096 -0.31105,-0.36985 -0.67639,0.76881 -0.15703,1.80358 -0.55994,2.5119 l -0.0731,0.0939 0.0593,0.3287 c 0.0389,0.19686 0.0688,0.26748 -5.6e-4,0.46545 l -0.0539,0.12642 0.13975,0.13148 c -0.0466,0.58604 0.14144,1.34602 -0.15233,1.84133 l 0.18576,0.19723 c -0.0381,0.65816 0.006,1.31558 -0.0419,1.97487 -0.0372,0.50227 -0.19084,1.28272 -0.0702,1.74967 0.0412,0.15985 0.0827,0.18145 0.0441,0.35595 -0.0556,0.25245 -0.0412,0.50658 0.0707,0.74419 0.0964,0.20493 -0.006,0.17168 -0.0241,0.37041 -0.01,0.11326 0.10856,0.28175 0.098,0.39445 -0.0122,0.13148 -0.20304,0.4168 -0.1837,0.52611 0.0438,0.24795 0.26879,0.3877 0.18427,0.72336 -0.0139,0.0552 -0.22221,0.30409 -0.21602,0.32889 0.0274,0.10612 0.16624,0.15722 0.19892,0.26165 0.0565,0.1805 9e-4,0.65103 9e-4,0.85614 -0.0646,0.0712 -0.096,0.0945 -0.13148,0.19742 -0.11251,0.32552 -0.0524,0.52669 0.13016,0.78777 -0.0295,0.2872 -0.10631,0.52049 -0.2068,0.7904 0.0708,0.17 0.12585,0.27481 0.11158,0.46245 -0.0131,0.17431 -0.0271,0.10406 0.041,0.29283 l 0.0543,0.13054 c -0.17806,0.31444 -0.0894,0.78759 -0.0899,1.14598 l -0.0583,2.92888 c -0.0138,0.23592 0.0845,0.54622 0.0485,0.76053 -0.0282,0.16624 -0.14426,0.17169 -0.0932,0.38469 0.0408,0.16998 0.1465,0.27461 0.15965,0.47015 0.0265,0.38881 -0.19065,0.76486 -0.13524,1.17057 0.29998,2.19089 -0.18596,4.51814 0.1544,6.68236 0.0316,0.20136 -0.0725,0.14538 -0.10969,0.30128 -0.0981,0.41061 0.0679,0.53796 -0.1529,0.98707 0.0821,0.13937 0.0954,0.19121 0.0934,0.35876 -0.002,0.13336 -0.0173,0.2671 0.0171,0.39877 0.11758,0.45042 0.18163,0.56744 -0.0306,1.01731 0.0434,0.24004 0.1234,0.52856 0.0892,0.77086 l -0.0503,0.24643 c 0.01,0.5483 -0.0438,1.26525 0.0265,1.80565 0.13111,1.00904 -0.20606,2.17135 -0.0565,3.20538 l 0.0251,0.15308 -0.19291,0.26315 0.15854,0.22541 c 0.004,0.35256 0.0986,0.48479 -0.0646,0.82665 l 0.10387,0.26315 c -0.12791,0.35594 0.0394,0.50546 -0.12378,0.85539 0.0663,0.15027 0.1127,0.23329 0.10669,0.40366 -0.0167,0.47916 -0.0815,1.32648 0.12002,1.75737 0.18615,0.39858 -0.21093,0.67356 0.055,1.19085 -0.13223,0.4155 0.0387,1.01431 -0.1435,1.35278 l -0.0534,0.0952 c -0.0793,0.24832 0.0262,0.45269 0.14557,0.65761 l -0.19798,0.3287 0.142,0.17094 -0.1559,0.19703 c 0.0143,0.18934 0.0293,0.31256 0.11139,0.48818 l 0.0679,0.13036 -0.11326,0.13955 c -0.0459,0.16455 -0.0314,0.21113 0.0248,0.383 0.0887,0.27067 0.0253,0.48329 0.13073,0.79265 l -0.24888,0.26297 0.19874,0.3289 -0.0761,0.29358 c 0.23386,0.44066 0.077,1.40575 0.14877,1.93149 0.0272,0.1991 0.0536,0.32044 -0.0466,0.50433 l -0.0962,0.16398 0.13186,0.19722 c -0.0593,0.14013 -0.0815,0.2363 -0.0651,0.389 0.0548,0.51448 0.15064,1.01262 -0.18258,1.45497 l -0.0511,0.0632 z m 14.34407,71.65782 c 0.0911,-0.26297 0.19855,-0.48086 0.11214,-0.76261 h -0.1249 l -0.0717,0.23667 -0.005,-0.37378 c 0.27161,-0.34374 0.29001,-0.63112 0.27573,-1.05187 l -0.13693,0.0658 c -0.10161,-1.05375 -0.0849,-2.04175 -0.0981,-3.08986 -0.004,-0.31744 -0.0773,-0.62173 -0.0358,-0.93916 0.0665,-0.51091 0.1095,-1.31296 0.0745,-1.82387 -0.0283,-0.41511 -0.10217,-0.7457 0.0996,-1.11761 -0.18539,-0.40384 -0.27574,-1.5947 -0.18145,-2.03799 0.0754,-0.35312 0.0967,-1.20964 0.0501,-1.57029 -0.0442,-0.34184 0.0499,-0.70625 0.0403,-1.05749 l -0.11776,-2.93959 c -0.003,-0.29114 -0.056,-0.7194 0.0698,-0.98049 l 0.0635,-0.0939 c -0.38525,-0.79641 -0.1405,-2.74425 -0.13938,-3.65899 3.8e-4,-0.42827 -0.0802,-1.0143 0.0449,-1.41439 l 0.0438,-0.12209 c -0.18145,-0.50339 -0.24306,-2.15445 -0.0575,-2.65596 l 0.0578,-0.139 c -0.20981,-0.53344 0.052,-1.11948 -0.0509,-1.621 -0.0466,-0.22728 0.0735,-0.42638 0.15158,-0.64802 -0.33397,-0.48461 -0.004,-0.52594 -0.0246,-0.92039 -9e-4,-0.0244 -0.15627,-0.22539 -0.16698,-0.26297 -0.13318,-0.4677 -0.005,-1.39184 -0.0101,-1.9065 l -0.034,-3.44862 c -0.0203,-0.74757 -0.12058,-1.60034 -0.0269,-2.33852 0.0524,-0.41324 -0.0327,-0.71941 -0.0363,-1.11761 l 0.0705,-2.9471 c -0.011,-0.7194 -0.15233,-1.4914 -0.0738,-2.20516 l 0.0225,-0.19554 -0.008,-0.24249 c 0.14745,-0.488 0.018,-0.75453 0.0982,-1.22242 0.0426,-0.24888 0.0215,-0.47597 0.005,-0.72673 0.12322,-0.48705 -0.15046,-0.49587 -0.12736,-0.81275 0.008,-0.11796 0.12679,-0.21075 0.13356,-0.32871 0.002,-0.041 -0.10613,-0.23066 -0.1005,-0.26447 0.0384,-0.23367 0.2393,-0.0766 0.13806,-0.40967 -0.0517,-0.17017 -0.0537,-0.27386 -0.0707,-0.44384 l -0.0206,-0.1313 c -0.0185,-0.18014 -0.0122,-0.0954 0.0415,-0.26879 0.12754,-0.41098 -0.0222,-0.94367 0.11928,-1.44125 l -0.037,-0.12509 c -0.16923,-0.5913 0.0206,-1.6133 -0.30203,-2.06561 l 0.11626,-0.45718 c 0.0506,-0.20756 0.0291,-0.3922 0,-0.60031 -0.0393,-0.28044 -0.0244,-0.58003 0.0169,-0.85915 0.0295,-0.19892 -0.0166,-0.30505 -0.0237,-0.49588 l 0.0119,-0.17901 c 0.0342,-0.56087 -0.0541,-1.19819 -0.0494,-1.77972 0.004,-0.43652 0.1234,-0.69724 -0.003,-1.13188 0.13562,-0.32045 -0.12585,-0.8229 -0.0689,-0.92639 0.20304,-0.37061 0.26353,-0.15347 0.23892,-0.6362 -0.007,-0.13749 -0.0554,-0.22445 -0.11645,-0.34448 l 0.13918,-0.26297 -0.20681,-0.59186 c 0.21244,-0.37736 0.17225,-0.43972 0.12416,-0.85427 l -0.18877,-0.13224 0.0477,-0.0954 0.0586,-0.12529 0.0509,-0.1018 c 0.14575,-0.39595 0.12303,-2.10787 -0.0145,-2.54627 -0.29621,-0.94461 0.18108,-2.07969 -0.12134,-3.04046 -0.0629,-0.20023 -0.009,-0.2423 0.0131,-0.44178 l -0.0131,-4.19564 c -0.0499,-0.5541 0.24531,-0.9369 0.005,-1.48745 l 0.20041,-0.3287 -0.21656,-0.24531 0.16942,-0.25133 -0.0421,-0.0845 c -0.16473,-0.41343 -0.10912,-0.99007 0.0588,-1.39091 -0.0195,-0.23629 -0.24644,-0.79021 -0.21676,-0.98706 0.006,-0.0396 0.15871,-0.22915 0.16078,-0.26315 9.1e-4,-0.0173 -0.11889,-0.16022 -0.13261,-0.19723 -0.13636,-0.37191 -0.0691,-1.79456 0.0738,-2.17003 l -0.20305,-0.26448 0.0607,-0.14313 c 0.0726,-0.17731 0.0747,-0.32682 0.10443,-0.51315 l 0.0532,-0.19723 -0.0607,-0.12059 c -0.13769,-0.30429 -0.0421,-0.8584 -0.0422,-1.19462 -1.9e-4,-1.08999 0.0395,-2.34905 -0.0616,-3.41894 -0.0496,-0.52518 0.037,-1.04792 -0.004,-1.57874 -0.0868,-1.15104 0.20774,-2.5179 -0.1591,-3.61691 l 0.17225,-0.26297 c -0.0708,-0.21282 -0.1251,-0.2301 -0.0377,-0.44348 0.13298,-0.32514 0.0351,-0.6792 0.10575,-1.01956 l -0.0485,-0.0648 c -0.21526,-0.40066 -0.0283,-1.58382 -0.0849,-2.08871 -0.0871,-0.77745 0.0531,-1.6334 0.0527,-2.42212 -3.8e-4,-0.69986 -0.16003,-1.43974 -0.0199,-2.11556 0.0703,-0.33904 -0.0434,-0.59055 -0.0602,-0.92076 -0.0323,-0.63318 0.037,-1.27332 0.0117,-1.90688 -0.0131,-0.32984 -0.10219,-0.60164 -0.0426,-0.93598 0.25206,-1.41551 0.0385,-2.87647 0.0372,-4.30382 l -0.0593,-11.9894 0.0896,-8.81257 c 0.0101,-1.08173 0.13974,-2.20553 0.0798,-3.28201 -0.0298,-0.53683 -0.34881,-1.14297 -0.50226,-1.66965 l -0.14858,51.61188 0.0359,5.50841 c 0.008,0.14819 0.003,0.10575 -0.0405,0.27367 -0.10989,0.42995 -0.004,0.97222 0.003,1.41588 0.0157,1.15067 0.13599,2.67024 -0.0651,3.78485 -0.10331,0.57157 0.0434,1.42114 0.0422,2.02296 -0.003,1.55018 -0.1899,3.25083 -0.0468,4.76214 l -0.0376,0.21337 c -0.0952,0.47803 0.025,0.99158 0.0599,1.4745 0.0686,0.94554 0.15478,2.25944 -0.0239,3.18095 -0.0335,0.1728 -0.0346,0.27818 -0.0182,0.45024 0.17581,1.85165 -0.0952,3.79103 0.12978,5.61452 l -0.0841,0.14801 c -0.25339,0.49193 -0.12755,1.39354 -0.0122,1.91891 l -0.14406,0.2346 0.1187,0.40797 c -0.24887,0.42432 -0.14725,0.63619 -0.0859,1.09995 l 0.0845,0.39915 c -0.17619,0.43634 -0.037,0.72147 -0.0693,1.17885 -0.0182,0.25732 0.0674,0.51315 0.0595,0.78251 l -0.15478,0.0122 0.0129,0.17055 c 0.0162,0.2363 -0.0723,0.68559 -0.0103,0.8802 0.0707,0.22239 0.19611,0.0366 0.10087,0.34748 -0.0623,0.20305 -0.0129,0.24306 -0.0302,0.42639 l -0.0736,0.25019 c 0.105,0.42506 0.0527,0.63206 -0.14558,1.01524 l 0.16925,0.26485 -0.12378,0.12959 0.16566,0.26297 -0.0607,0.17281 c -0.15816,0.51278 -0.0384,1.26412 0.1882,1.7337 -0.0793,0.21601 -0.13598,0.26297 -0.0794,0.49212 0.0611,0.24795 0.0777,0.32683 -0.0462,0.55975 0.096,0.22352 0.1296,0.19911 0.0595,0.44328 -0.0588,0.20662 -0.0213,0.28551 -0.003,0.48837 l -0.03,0.48273 c -0.0115,0.20286 0.0398,0.30993 0.11589,0.494 l -0.081,0.44141 c -0.0306,0.23855 0.14464,0.54848 0.10763,0.74195 -0.0868,0.45455 -0.20755,0.37003 0.0374,0.85651 -0.074,0.17656 -0.15328,0.25734 -0.10725,0.44705 0.0653,0.27048 0.14087,0.4677 0.0255,0.73443 l 0.17394,0.52593 -0.0716,0.13148 c -0.14462,0.29115 -0.0496,0.78702 -0.11926,1.13827 -0.0737,0.37191 0.1405,0.39069 0.13298,0.63864 -0.007,0.22915 -0.23836,0.23854 -0.16755,0.54283 0.0393,0.16906 0.041,0.25545 0.0143,0.42075 l 0.14032,0.28551 c -0.19666,0.40947 0.0704,0.66492 -0.009,0.85651 -0.0166,0.0395 -0.19328,0.0827 -0.26296,0.29114 0.29039,0.36816 0.25357,1.01431 0.21281,1.48389 -0.0218,0.24982 -0.008,0.45456 0.0237,0.70437 0.0332,0.26297 0.0351,0.37567 -0.0866,0.60859 0.0793,0.39069 0.0115,0.76259 -0.046,1.11948 -0.066,0.40572 0.30392,0.70814 0.13205,1.24534 l 0.0361,0.13336 c 0.0789,0.30992 0.1127,0.68371 0.008,0.988 0.10631,0.31368 -0.0793,0.42451 -0.016,0.63676 0.18031,0.6067 -0.10669,1.10821 0.0462,1.72994 l -0.0355,0.0845 c -0.0597,0.15591 -0.0766,0.3212 -0.12641,0.48273 -0.11138,0.35877 0.0176,0.7983 0.12867,1.14392 -0.19346,0.29301 -0.21713,0.61796 -0.1452,0.97297 l 0.044,0.10518 c 0.1219,0.30242 0.0306,0.82647 0.0875,1.17584 l -0.17169,0.17844 0.0289,0.12585 c 0.0919,0.47897 0.015,0.51279 -0.15271,0.92602 -0.0255,0.0639 -0.01,0.81332 0.0164,0.8847 0.0135,0.0356 0.12228,0.15026 0.12078,0.16717 -0.0239,0.28926 -0.15721,0.42825 -0.14012,0.78889 l 0.23273,0.0432 -0.2316,0.0902 c -0.0969,0.55223 0.26804,1.04998 0.19647,1.68674 l -0.19741,-0.0433 0.0765,0.27424 0.1358,0.0545 c 0.01,0.48273 0.056,0.98612 0.0421,1.46697 -0.0147,0.50715 -0.17712,0.89408 0.044,1.39372 l -0.18464,0.2949 c 0.13054,0.27048 0.12209,0.36064 0.11289,0.65742 -0.005,0.1465 -0.041,0.25733 -0.0878,0.39444 l 0.16078,0.26297 c -0.0888,0.2085 -0.18144,0.31932 -0.13411,0.5466 0.046,0.21977 0.0321,0.11269 0.0337,0.2855 9e-4,0.15778 -0.005,0.0733 0.0511,0.25358 0.0627,0.20286 0.0342,0.32871 0.0481,0.53156 l 0.0227,0.0958 c 0.0246,0.13712 0.009,0.0958 -0.0405,0.26673 -0.19159,0.65366 0.19685,1.39748 -0.0449,2.03235 l -0.0541,0.14839 -0.0434,0.11458 c 0.15553,0.34561 0.12303,0.355 0.0667,0.71189 -0.0318,0.20098 0.0253,0.40572 0.0652,0.60294 l -0.23329,0.39445 0.28795,0.092 c 0.004,0.22916 -0.028,0.39445 -0.0623,0.61609 l -0.006,0.10707 c -0.0128,0.14087 -0.0695,0.24231 -0.13073,0.36815 0.062,0.21038 0.11909,0.37191 0.23948,0.55411 0.50416,-0.005 0.71509,0.0432 1.13809,-0.25733 l -0.006,-0.8152 z m -10.67136,-39.40178 c 0.0824,0.65553 0.19722,1.37305 -0.0708,1.99291 l -0.064,0.14463 c 0.0729,0.20473 0.1018,0.28738 0.0747,0.50903 -0.15628,1.28102 -0.0325,2.748 -0.0328,4.05156 0,0.37191 0.10368,0.9185 -0.0145,1.26036 l -0.0466,0.0977 c 0.14331,0.5034 0.1467,1.17771 0.0746,1.69802 -0.0901,0.64802 -0.1559,1.4294 -0.12848,2.08682 l 0.0131,0.29114 c -0.005,0.18595 -0.0414,0.28175 0.0192,0.4602 0.12998,0.38317 0.10011,0.62548 0.0283,1.01242 -0.0524,0.28362 0.14445,0.33997 0.14351,0.633 l -0.1234,0.13148 0.12322,0.3287 c -0.18991,0.36816 -0.0405,1.25286 -0.037,1.70178 0.0139,1.74309 0.11946,3.63645 -0.009,5.36639 -0.0344,0.46207 0.0485,0.89409 0.0405,1.34865 -0.015,0.87529 -0.13468,1.7243 -0.10369,2.60524 0.0318,0.89596 0.17413,1.88772 0.0496,2.77054 -0.0216,0.15215 -0.0349,0.19723 0.005,0.35313 0.0481,0.18783 0.0424,0.0658 0.0186,0.29114 -0.0804,0.75884 0,1.6642 -0.003,2.43807 -0.002,0.43202 -0.0958,0.92227 -0.0745,1.33926 0.0162,0.31744 0.0838,0.40384 0.0251,0.74758 -0.25057,1.47637 -0.0166,3.33403 -0.0201,4.85173 -9e-4,0.41511 -0.11946,1.11573 -0.033,1.50267 0.0222,0.0995 0.22164,0.32682 0.28682,0.42262 0.36064,0.0169 0.55917,0.0845 0.87098,-0.10895 -0.0405,-0.57852 0.0932,-1.33173 -0.006,-1.86331 -0.0541,-0.28926 -0.10651,-0.7532 0.0223,-1.02556 0.0669,-0.14087 -0.11082,-0.98613 -0.0663,-1.31296 0.0537,-0.39445 0.0827,-1.02745 0.0428,-1.4219 -0.0274,-0.27235 -0.0455,-0.494 0.007,-0.76259 l 0.0355,-0.17469 -0.0639,-0.17844 c -0.11683,-0.46583 -0.17169,-3.24013 0.062,-3.64584 l 0.0768,-0.11834 -0.13881,-0.0658 0.14707,-0.52781 -0.14707,-0.0939 c -0.0825,-0.65366 -0.0145,-1.36742 -0.0278,-2.03048 l -0.0195,-5.27999 c 0.002,-0.68559 0.10292,-1.53647 -0.0124,-2.20141 -0.17356,-1.00302 0.01,-2.11688 0.0135,-3.13117 0.005,-1.38058 -0.16454,-2.88324 0.0213,-4.2488 0.0167,-0.12397 0.031,-0.20286 0.0131,-0.33058 -0.20794,-1.47825 -0.0843,-3.08422 -0.0641,-4.58501 l -0.0361,-5.1579 c -0.004,-0.80769 0.11064,-1.6642 0.0131,-2.46249 -0.0438,-0.36064 0.0562,-0.84713 -0.0214,-1.15518 -0.0943,-0.37754 -0.0383,-0.86216 -0.0473,-1.25472 l 0.006,-3.1774 -0.0877,-7.17091 c -0.008,-0.87473 -0.15609,-1.91815 0.0387,-2.76602 0.033,-0.14389 0.0747,-0.24607 0.0483,-0.39408 -0.0999,-0.56162 0.14764,-1.08324 0.0546,-1.64373 -0.13824,-0.83454 -0.13862,-2.13811 -0.047,-2.98467 0.0564,-0.51955 0.0147,-1.26787 -0.066,-1.78404 -0.0623,-0.39914 -9.1e-4,-0.75303 -0.009,-1.15048 l -0.0674,-3.67777 -0.0546,-8.28063 0.16472,-4.41578 -0.0962,-5.39231 c -0.005,-0.58623 -0.11965,-1.19725 -0.0712,-1.7754 0.0145,-0.17318 0.0216,-0.27104 -0.007,-0.44723 -0.11308,-0.68484 -0.0593,-1.45327 -0.0674,-2.1537 l 0.13786,-6.40831 -0.21337,-7.1679 0.0714,-9.66177 c 0.002,-0.20962 0.10275,-0.37472 0.10744,-0.58134 l -0.0257,-6.83957 0.0755,-13.95038 c -0.37284,0.48517 -0.57589,1.44181 -0.86647,2.03292 0.13561,0.70062 -0.10387,1.43862 0.002,2.13716 0.14107,0.93448 0.0391,1.99912 0.0504,2.95105 l 0.0952,5.30667 c 0.007,0.5697 -0.14125,1.27031 -0.0415,1.80902 0.0289,0.1559 0.0573,0.21526 0.008,0.37642 l -0.0417,0.0894 c 0.20811,0.59787 0.0575,1.63152 0.0642,2.29307 l -0.009,7.21129 c -0.005,0.41323 -0.16567,1.07873 -0.0635,1.44463 0.13863,0.49644 0.0826,1.11592 0.0879,1.63076 l -0.0855,4.00161 c -0.0154,0.56631 -0.11628,1.25341 -0.0161,1.79925 0.0314,0.17187 0.0761,0.23742 0.03,0.41718 -0.11046,0.43239 -0.0426,0.97354 -0.0381,1.42171 l 0.0377,3.13719 0.0278,12.329 c 0.005,1.57029 0.1914,3.3795 -0.004,4.92273 -0.0857,0.6779 -0.002,1.32104 -0.0147,1.9993 -0.0107,0.59299 -0.1405,1.25153 -0.0431,1.83513 0.10725,0.64202 -0.005,1.3524 -0.019,2.00193 -0.007,0.38149 0.0768,0.76392 0.0576,1.14165 l -0.007,8.27706 c -0.0119,0.59168 0.0913,1.23444 0.0118,1.81372 -0.0346,0.253 0.13035,0.28757 0.13242,0.47522 1.9e-4,0.0227 -0.13787,0.20267 -0.14858,0.24136 -0.065,0.23798 -0.0503,0.80299 0.0124,1.04342 0.0421,0.16115 0.0462,0.081 0.0265,0.24023 -0.0321,0.2609 -0.0203,0.51673 -0.0421,0.77726 -0.0182,0.21675 -0.0421,0.29715 0.011,0.51428 0.0428,0.17488 0.0517,0.13544 0.0483,0.28664 -0.007,0.32308 0.14331,1.1965 0.022,1.43561 -0.0239,0.047 -0.18971,0.17018 -0.19139,0.19723 -0.002,0.0253 0.14462,0.148 0.16642,0.19722 0.0283,0.0642 0.007,0.38186 -0.002,0.46037 -0.0208,0.18258 -0.048,0.23142 -0.021,0.4277 0.0651,0.47391 -0.11514,1.21998 0.0611,1.62138 0.0595,0.13562 -0.0492,0.6268 -0.0907,0.81125 -0.0501,0.2224 0.0597,0.6933 0.07,0.93955 0.015,0.35876 -0.0562,0.70963 -0.0524,1.06632 0.005,0.45606 0.11984,0.89841 0.0518,1.35484 l -0.0426,0.28551 -0.0224,0.1358 c 0.22502,0.3366 0.17882,0.8554 0.14407,1.24947 -0.0733,0.83079 0.10275,1.71774 -0.13092,2.49819 -0.12153,0.40665 0.20398,0.66756 -0.0469,1.18372 0.12903,0.40685 0.0231,0.67132 0.19778,1.05224 l -0.13524,0.26316 c 0.10688,0.45643 0.27668,1.57028 0.0922,1.98352 -0.18801,0.42262 -0.16529,0.6236 -0.0855,1.06876 l 0.0261,0.13713 z m 14.07321,2.72921 0.2348,0.26297 -0.2348,-0.26297 -0.13092,-0.13149 z m -7.62415,-75.65717 0.0255,20.60681 -0.0323,9.94239 -0.0101,2.42944 c -0.004,0.36627 -0.0765,0.86384 0.0355,1.21227 l 0.041,0.0935 c -0.17882,0.39801 -0.093,0.95888 -0.0965,1.39034 l -0.002,3.9785 c 0.0866,1.89316 -0.0494,3.76305 -0.0579,5.65096 -9.1e-4,0.25564 0.0984,0.48404 0.0997,0.72728 l -0.028,2.36727 c 9e-4,0.46902 0.0723,1.03214 -0.0271,1.48256 -0.0361,0.16342 -0.0822,0.22034 -0.0381,0.3937 0.11739,0.46189 0.0644,1.02801 0.0698,1.5053 l 0.007,3.15842 c -0.005,0.54058 -0.0717,1.18729 0.0188,1.71585 0.0257,0.14914 0.064,0.22709 0.0289,0.38225 -0.12134,0.53626 -0.0361,1.16794 -0.0676,1.7196 -0.049,0.86047 -0.19798,1.91967 -0.0231,2.76115 0.0937,0.45156 0.0515,0.75735 -0.0389,1.20345 -0.0478,0.2363 -0.0323,0.18615 0.0804,0.37567 -0.16116,0.5327 0.0265,1.20532 -0.0208,1.7754 -0.0117,0.13975 -0.0225,0.22822 -0.01,0.37191 l 0.0164,0.16041 c 0.01,0.16041 0.004,0.24719 0.0583,0.40441 l 0.0449,0.11551 c -0.0967,0.1281 -0.12585,0.18577 -0.13317,0.352 l 0.0257,0.96321 c 0.0639,0.57515 -0.18107,1.25942 -0.0169,1.77108 l 0.0487,0.13599 c -0.19347,0.49795 0.005,1.36198 0.0633,1.90669 -0.29415,0.41512 -0.22972,1.19275 -0.22935,1.6999 0,0.16529 1.9e-4,0.30617 -0.0319,0.47146 -0.0398,0.20474 0.0213,0.21601 0.12698,0.38882 l -0.17244,0.26859 c 0.0541,0.23292 0.10294,0.4433 0.0737,0.68559 -0.0272,0.22353 0.008,0.2348 0.10086,0.43202 l -0.1497,0.26297 c 0.15421,0.31368 0.24193,0.95607 0.0988,1.28478 -0.0876,0.20098 0.0101,0.40196 0.0593,0.62172 l -0.15102,0.19724 0.1405,0.18782 c 0.0216,0.51467 0.0708,0.73256 -0.19009,1.19275 0.0604,0.0996 0.12623,0.1991 0.16098,0.3118 0.12359,0.40009 0.11964,0.51466 -0.085,0.87155 l 0.14388,0.19722 c -0.005,0.35125 0.0543,0.57289 -0.15984,0.85652 0.18256,0.43014 0.26728,1.04248 0.1142,1.4914 l -0.0576,0.15214 c 0.0981,0.29303 0.12847,0.61985 0.0229,0.91475 -0.077,0.21601 -9.1e-4,0.25921 0.0841,0.46583 l -0.11927,0.26296 c 0.11119,0.72316 -0.26786,1.51957 -0.0498,2.20329 0.10312,0.32307 0.0241,0.65929 0.0374,0.99551 0.0457,1.13827 0.12867,2.31411 0.0982,3.4505 -0.0107,0.3982 -0.0674,0.66117 0.0131,1.06689 l 0.0229,0.10895 -0.10181,0.13524 -0.12603,0.12773 0.19178,0.12959 0.008,0.47898 -0.008,0.278 c 0.0513,0.40572 0.12378,0.87342 0.037,1.28478 -0.0919,0.43389 -0.10124,0.92414 0.0736,1.35051 l 0.0499,0.0958 c -0.27554,0.48085 -0.15684,1.26599 -0.0564,1.80132 l 0.0349,0.17093 -0.074,0.0658 h -0.13017 c -0.0753,0.31931 -0.0894,0.30805 0.0663,0.59167 -0.1018,0.21225 -0.17468,0.3644 -0.13279,0.60295 0.0672,0.38506 -0.0387,1.02181 0.0992,1.34113 l 0.0583,0.0958 c -0.244,0.64615 -0.0536,1.64918 -0.0192,2.33852 l -0.26992,0.0489 0.14275,0.16718 0.0204,0.33809 c 0.26596,1.08756 -0.003,2.17324 0.11251,3.27394 0.0897,0.85651 -0.0703,1.86706 0.0969,2.6879 0.0361,0.17656 0.0682,0.26296 0.0261,0.44515 -0.0573,0.24983 -0.10293,0.48086 -0.0602,0.73631 0.14558,0.87343 -0.26446,1.92717 0.27199,2.68414 l 0.36176,-0.0113 0.23911,-0.28175 c 0.0477,-0.49964 0.046,-0.93165 -0.0452,-1.42566 -0.0424,-0.22916 0.0665,-0.31744 0.17994,-0.51278 l -0.066,-0.1653 0.18126,-0.39445 -0.23573,-0.13148 c 0.0421,-0.38318 -0.0387,-1.19086 0.086,-1.51206 0.009,-0.0244 0.1328,-0.18408 0.1343,-0.19722 0.0483,-0.4076 -0.24625,-0.38881 -0.0325,-0.92039 -0.17994,-0.30617 -0.18426,-0.76448 -0.12697,-1.10821 0.0498,-0.30053 0.0293,-0.43953 -0.0746,-0.72316 l -0.0291,-0.077 0.13299,-0.10707 c 0.0222,-0.20098 0.0485,-0.31368 -0.0344,-0.50715 l -0.058,-0.10894 c 0.10838,-0.36064 0.13449,-0.58416 0.0426,-0.95607 -0.0534,-0.21414 0.10124,-0.23667 0.12322,-0.42451 0.0152,-0.13148 -0.19178,-0.38318 -0.19141,-0.52593 9.1e-4,-0.34749 -0.0223,-0.70062 0.071,-1.05187 -0.29677,-0.50151 -0.0883,-7.20152 -0.0747,-8.28532 l 0.12172,-0.11082 0.0129,-0.28363 -0.14463,-0.0658 0.0658,-0.59355 0.099,-0.12961 -0.099,0.12961 c -0.0625,-0.31745 -0.0997,-0.5898 -0.0646,-0.91475 0.0162,-0.15027 0.0363,-0.27048 0.0188,-0.42074 -0.0691,-0.59169 -0.20305,-2.0549 0.0808,-2.54327 -0.22596,-0.28927 -0.12472,-0.76448 -0.14726,-1.11573 -0.0231,-0.36252 -0.0684,-0.80769 0.0485,-1.15517 l 0.0433,-0.0977 c -0.17056,-0.58792 -0.22785,-2.56205 -0.004,-3.05981 l 0.059,-0.0958 -0.0595,-0.12961 c -0.1157,-0.27987 -0.13186,-0.96171 -5.6e-4,-1.22279 l 0.0667,-0.0939 -0.14219,-0.39445 0.15252,-0.26297 -0.0723,-0.14463 c -0.14651,-0.32495 -0.14745,-1.17208 0.0185,-1.48764 l 0.0838,-0.14463 c -0.32083,-0.36628 -0.23424,-2.57707 -0.19216,-3.1556 0.0138,-0.18783 0.0934,-0.35689 0.044,-0.54096 -0.12246,-0.45832 0.10932,-0.93353 0.0135,-1.35052 -0.0674,-0.2949 -0.011,-0.67996 0.0534,-0.97485 l 0.0366,-0.15966 -0.0513,-0.0695 c -0.22352,-0.42451 -0.0314,-1.81635 0.0785,-2.27279 0.0358,-0.15026 -0.04,-0.21789 -0.10556,-0.35312 0.0712,-0.54848 -0.0947,-1.07629 -0.0185,-1.63565 0.0309,-0.22541 0.046,-0.39746 0.018,-0.62398 -0.022,-0.1792 -0.0293,-0.23761 0.0154,-0.42319 0.0357,-0.14745 0.056,-0.11458 0.0257,-0.24344 l -0.0321,-0.0986 c -0.0785,-0.32495 -0.0507,-0.35237 0.0984,-0.64446 -0.12491,-0.20792 -0.12847,-0.32589 -0.1157,-0.55936 0.008,-0.15628 0.0192,-0.27104 -0.009,-0.42676 -0.03,-0.16811 -0.0272,-0.0639 -0.0173,-0.2408 0.0227,-0.40628 -0.0616,-0.65592 0.1405,-1.02201 -0.17807,-0.51297 -0.21544,-1.22786 -0.18257,-1.7754 0.0194,-0.32438 0.15627,-0.64314 0.065,-0.96602 l -0.0496,-0.15196 0.16849,-0.086 c -0.15834,-0.54867 -0.33115,-1.59057 -0.13806,-2.12515 l 0.0623,-0.15628 c -0.17825,-0.38111 -0.0481,-1.09206 -0.0614,-1.54999 -0.0152,-0.5188 -0.0979,-1.11386 -0.0118,-1.62157 0.0537,-0.31688 0.0639,-0.45174 -0.0637,-0.75697 l -0.0366,-0.0821 c 0.0545,-0.10912 0.0894,-0.18106 0.0949,-0.30578 l 7.5e-4,-0.1159 0.0492,-1.35447 c 0.0257,-0.39275 -0.0723,-0.67488 -0.0939,-1.05224 -0.0349,-0.61121 0.0725,-1.28591 -0.0167,-1.88903 -0.0931,-0.62887 0.14783,-1.36743 0.0674,-1.92492 -0.0422,-0.29359 -0.0838,-0.36871 -0.0278,-0.68334 l 0.0199,-0.10593 c -0.14933,-0.27875 -0.0883,-0.40817 -0.0817,-0.69856 0.0138,-0.59449 0.0876,-1.06031 -0.03,-1.65237 -0.0424,-0.21488 0.0233,-0.27855 0.10406,-0.47672 l -0.12641,-0.26297 c 0.0355,-0.30842 -0.0361,-0.78439 0.0383,-1.05149 0.0541,-0.19459 0.12097,-0.20642 0.1298,-0.46094 h -0.14031 c -0.006,-0.26804 -0.0353,-0.29528 0.13017,-0.50001 l -0.0665,-0.22277 c -0.17356,-0.49964 -0.0611,-1.10784 -0.0826,-1.64467 l 0.15778,-0.10499 c -0.0676,-0.1298 -0.14933,-0.27688 -0.17864,-0.42113 -0.0483,-0.23742 -0.006,-0.83379 0.11496,-1.03007 l 0.0834,-0.12605 c -0.10951,-0.15139 -0.19385,-0.29715 -0.21545,-0.48779 -0.12678,-1.12456 0.11551,-2.35149 0.13092,-3.48168 0.0231,-1.68186 -0.24325,-3.49295 -0.0274,-5.1579 0.0316,-0.24381 -0.0318,-0.28608 -0.13806,-0.50114 0.17187,-0.37755 0.0498,-0.54942 0.0387,-0.94256 -0.0239,-0.83867 -0.0389,-1.70683 0.0237,-2.54269 l -0.22033,-28.11751 c 0.16323,-1.5964 0.20756,-20.88856 -0.0808,-21.31645 l -0.10274,0.0483 z M 112.05997,92.490483 h 0.25 z m 3.15747,1.446877 h 0.23761 z m -8.15684,0.657608 h 0.26052 z m 7.36738,0.789087 h 0.22954 z m -8.01446,0.262969 0.24981,0.13148 z m 10.25099,2.893383 h 0.24136 z m -0.13148,0.26315 h 0.25114 z m -0.13149,0.262968 h 0.26035 z m 3.58668,6.576045 h 0.17394 z m -0.12153,0.26297 h 0.16417 z m 1.19593,0 h 0.19385 z m -1.32009,0.26315 h 0.16323 z m 1.71286,0.52612 h 0.20586 z m 0.13054,0.26296 h 0.2068 z m 0.13693,0.26297 h 0.19385 z m 3.79743,0.13167 h 0.21939 z m -3.67027,0.13149 h 0.18953 z m 3.81171,0.13148 h 0.20943 z m -3.68661,0.13148 h 0.19854 z m 7.58245,0.13149 h 0.2425 z m -7.44965,0.13167 h 0.19554 z m 7.58114,0.13148 h 0.25864 z m -7.45154,0.13149 h 0.20042 z m 7.58302,0.13148 h 0.26053 z m 0.13167,0.26315 h 0.26053 z m 0.78928,1.57818 h 0.26052 z m 0.13167,0.26296 8.66061,17.186 3.14959,6.16393 c 0.40723,0.78665 0.73913,1.6195 1.21904,2.36219 0.49945,0.77331 0.78214,1.73314 1.20345,2.55623 l 1.08192,2.07311 c 0.17318,0.31443 0.41191,0.5588 0.53776,0.8939 0.34675,0.92282 0.9649,2.11331 1.55395,2.89789 0.0915,0.12172 0.12641,0.21564 0.1807,0.35387 0.48254,1.2275 1.50735,3.12255 2.41196,4.05025 -0.58736,-1.86574 -1.56202,-3.60714 -2.44596,-5.34648 l -3.44055,-6.73777 -10.49893,-20.08707 -2.39243,-4.59647 c -0.25603,-0.49249 -0.593,-1.40724 -1.00886,-1.75586 z m -13.76423,0.92076 h 0.16491 z m -0.44442,9.07479 h 0.21733 z m 2.21474,1.70984 -0.0479,20.71426 0.044,5.86452 c 0.009,0.71547 0.19817,1.61988 -0.0501,2.2897 0.052,0.15965 0.12472,0.26334 0.0784,0.42769 -0.0793,0.27968 -0.11102,0.48818 -0.0988,0.77669 0.005,0.11007 -0.005,0.20324 -0.0173,0.31218 -0.0819,0.74232 0.0534,1.53516 0.0438,2.28518 -0.0432,3.32409 0.24288,6.65869 0.0958,9.98033 l -0.026,4.82806 c 0.004,0.2688 -0.13656,0.55731 -0.0607,0.75209 0.0947,0.24306 0.0433,0.43841 0.0133,0.68766 -0.0304,0.25583 0.0469,0.49663 0.0225,0.76598 -0.0735,0.80506 0.0688,1.71492 0.0691,2.53969 5.6e-4,1.9377 -0.15441,3.9663 -0.009,5.842 l -0.0496,0.26296 c -0.0661,0.41099 0.0321,0.89634 0.041,1.31522 0.005,0.20192 -0.12734,0.30128 -0.12678,0.49174 0.002,0.51504 0.0924,1.03252 0.0733,1.54681 -0.018,0.48085 -0.19384,1.06445 -0.11533,1.5314 0.0892,0.53157 -0.0248,1.19218 0.004,1.74986 0.007,0.14031 -9.1e-4,0.22483 -0.0213,0.35932 -0.10294,0.6963 9e-4,1.53047 -0.049,2.25682 -0.0126,0.18257 -0.0958,0.65403 -0.0363,0.81012 0.0166,0.0434 0.16361,0.24625 0.16248,0.26316 -0.002,0.033 -0.18389,0.21469 -0.19929,0.26297 -0.0873,0.27536 0.0543,0.72334 -0.0291,1.05223 l 0.0522,0.0964 c 0.1251,0.33265 -0.0263,0.77463 -0.019,1.13245 0.01,0.4754 0.11195,0.94743 0.1313,1.4219 l 0.0148,4.71593 c 1.9e-4,0.53532 0.12923,1.51318 -0.0997,1.97112 l 0.055,0.16736 c 0.0656,0.21319 0.0485,0.37848 0.0298,0.596 -0.0122,0.14275 0.006,0.26447 0.0203,0.40647 0.0376,0.38431 0.0385,0.64295 -0.11232,1.0004 l 0.10612,0.22972 -0.14425,0.0432 0.0127,0.25959 0.16098,-0.006 c -0.0167,0.16604 -0.0471,0.30241 -0.10069,0.46038 l 0.0532,0.16304 c 0.0941,0.31368 0.0622,0.71658 -0.0537,1.02069 l 0.0415,0.0971 c 0.12923,0.42019 -0.004,1.04116 0.003,1.48783 0.0293,2.11087 0.23667,4.38947 -0.0164,6.48099 l 0.0639,0.10989 c 0.10218,0.2363 0.0492,0.45531 0.0244,0.70175 l -0.0611,0.56425 c -0.0351,0.2177 -0.0148,0.33246 0.0473,0.54509 0.0746,0.25451 0.0601,0.37454 0.0255,0.62999 -0.19704,1.45721 0.18069,3.09662 -0.16585,4.50725 0.0695,0.16905 0.11758,0.21225 0.0849,0.39444 -0.0644,0.36064 -0.0954,0.57478 0.0244,0.92227 -0.0831,0.27799 0.0509,0.64802 0,0.79454 -0.0131,0.0375 -0.19872,0.22728 -0.20417,0.25733 -0.0263,0.13523 0.1204,0.19346 0.0602,0.39069 -0.0482,0.15777 -0.0234,0.24606 0.0124,0.40196 l -0.10819,0.19347 0.23967,0.1991 c -0.0791,0.2611 -0.10951,0.84901 -0.17844,0.98989 -0.1266,0.26108 -0.0676,0.82083 -0.0789,1.11197 l 0.18596,0.19722 c -0.17075,0.43765 -0.0169,0.33623 -0.0241,0.72316 -0.005,0.25733 -0.20323,0.21225 -0.0817,0.62736 0.0614,0.2085 0.0204,0.22916 9e-4,0.4245 l 0.006,0.0996 c 0.005,0.13711 -0.0426,0.22916 -0.0935,0.35313 l 0.24512,0.27048 c -0.0708,0.139 -0.16698,0.24981 -0.15234,0.40384 0.0133,0.14275 -0.0265,0.24418 -0.062,0.37942 -0.0676,0.25545 -0.12077,0.48086 0.0393,0.71752 l 0.0644,0.0789 c 0.033,0.26296 0.0558,0.40384 -0.0473,0.65742 l 0.0312,0.10518 c 0.0708,0.24983 0.13862,0.42639 0.0575,0.68372 0.0958,0.21225 0.16679,0.24606 0.10011,0.47522 -0.11721,0.40384 0.0188,0.90348 0.0128,1.32235 -0.0328,2.25963 0.0896,4.57748 -0.10087,6.81646 l 0.2068,0.13336 -0.0613,0.14276 c -0.0749,0.18408 -0.0656,0.31744 -0.0689,0.51278 l -0.0162,0.19347 c -0.0133,0.16153 -0.005,0.30805 0.008,0.4677 0.15741,2.08684 0.007,4.28636 -0.0299,6.37507 -0.006,0.3813 0.1067,0.67995 0.0408,1.07253 -0.0611,0.36251 0.0562,0.79265 0.0556,1.16456 -9.1e-4,0.90723 0.0719,2.16947 -0.11289,3.02411 l 0.009,0.20286 c 0.015,0.23667 0.033,0.12961 -0.0374,0.3043 -0.0982,0.24606 -0.056,0.58228 -0.0498,0.84712 l 0.14087,0.092 c -0.052,0.34186 0.15778,0.4076 0.0757,0.69874 -0.0688,0.24418 -0.0122,0.38506 0.0682,0.61798 l -0.20098,0.78889 0.0526,0.0714 c 0.0873,0.12586 0.0575,0.0845 0.1266,0.25922 l -0.17618,0.12961 c -0.0133,0.24981 0.12171,0.2855 0.12734,0.46018 0.005,0.17844 -0.18745,0.21413 -0.0725,0.39821 0.18352,0.29678 0.18708,0.44892 0.18671,0.78515 -3.8e-4,0.58415 -0.11177,1.38809 0.0447,1.9328 l -0.13261,0.25733 c 0.28025,0.18971 0.48987,0.1728 0.812,0.16905 l 0.22992,-0.25545 -0.0984,-1.38245 0.13863,-0.0639 c -0.0518,-0.34185 -0.1822,-0.79829 -0.0537,-1.12324 0.18934,-0.4771 -0.24982,-1.33362 -0.0849,-1.70553 0.10011,-0.2254 0.23667,0.0281 0.0658,-0.34185 l -0.0457,-0.0808 c -0.085,-0.19911 0.01,-0.54284 0.0188,-0.75885 0.0263,-0.62736 0.085,-1.41814 -0.005,-2.02859 -0.0288,-0.19347 0.019,-0.29303 0.0905,-0.47147 -0.0832,-0.17656 -0.12865,-0.20662 -0.10236,-0.40384 0.0515,-0.38881 -0.0566,-0.74194 0.12096,-1.10822 l -0.0534,-0.12021 c -0.17019,-0.42263 -0.0499,-1.28666 -0.0433,-1.75812 l -0.0257,-4.28447 c 0.005,-0.76261 0.16586,-1.76188 -0.0122,-2.4888 -0.0721,-0.29489 -0.0278,-0.7363 -0.0285,-1.04998 l 0.0402,-0.27988 c 0.11137,-0.84337 -0.23705,-1.90087 0.0434,-2.71043 l -0.0555,-0.12209 c -0.13186,-0.32871 -0.0663,-1.48576 0.0424,-1.85016 -0.24831,-0.49213 0.14464,-0.86967 -0.0263,-1.29417 -0.0899,-0.2254 -0.0603,-0.39633 -0.0319,-0.62736 0.0623,-0.51279 0.12078,-1.85955 0.005,-2.31974 -0.10311,-0.40572 -0.0653,-1.04999 0.008,-1.4651 0.0635,-0.35877 -0.002,-0.80017 0.0601,-1.19838 0.0599,-0.38693 -0.0148,-0.67996 -0.11646,-1.05187 0.0665,-0.18783 0.10969,-0.20098 0.0438,-0.39445 -0.0962,-0.28175 -0.0308,-0.65178 0.0763,-0.92226 l -0.066,-0.0939 c -0.31951,-0.64615 0.15552,-1.66233 0.0649,-2.33853 -0.025,-0.18595 -0.12415,-0.17844 -0.093,-0.40008 0.0567,-0.4076 0.10932,-0.81708 0.012,-1.21904 -0.0691,-0.2855 0.0297,-0.63488 0.005,-0.9448 -0.0541,-0.65929 -0.17487,-2.83253 0.0997,-3.3547 -0.27048,-0.56538 0.052,-1.60034 -0.0505,-2.29758 -0.037,-0.25151 0.11269,-0.87418 0.078,-0.95889 -0.14293,-0.34824 -0.1435,-0.48893 -0.11833,-0.84675 0.0119,-0.1668 -3.7e-4,-0.31425 -0.0241,-0.47878 -0.0719,-0.49852 0.0915,-1.01243 -0.005,-1.50474 -0.0924,-0.47578 -0.0517,-1.38264 0.0269,-1.85222 0.0574,-0.3443 -0.10706,-0.66268 -0.0145,-1.01129 0.15646,-0.58924 -0.19328,-1.4775 0.0555,-2.09698 l -0.0511,-0.17675 c -0.0567,-0.20624 -0.0387,-0.3349 -0.0265,-0.54678 0.0157,-0.27424 -0.0141,-0.5094 0.0509,-0.78082 0.0731,-0.30355 -0.0913,-0.58379 -0.0118,-0.94368 0.0361,-0.16341 0.0139,-0.30035 -0.004,-0.46488 -0.03,-0.27987 -0.0586,-0.51504 0.0129,-0.79248 l -0.0571,-0.17449 0.0334,-0.25715 c 0.066,-0.41097 -0.0772,-0.53908 -0.093,-0.86084 -0.009,-0.18783 0.12604,-0.15552 0.0622,-0.41097 -0.10743,-0.43089 0.11533,-0.89334 0.0443,-1.34734 -0.0707,-0.45154 0.12792,-0.82139 -0.0812,-1.26655 l 0.0203,-0.0982 c 0.0778,-0.45155 0.0511,-0.77368 0.005,-1.21697 -0.0323,-0.30635 0.0532,-0.55486 -0.0304,-0.86798 -0.0627,-0.23498 -0.022,-0.30935 0.0342,-0.53269 0.0986,-0.39239 -0.0204,-0.89766 0.0239,-1.31389 0.0323,-0.30167 -0.0687,-0.61948 -0.0644,-0.93091 0.005,-0.37623 0.14463,-0.84863 0.0383,-1.20044 -0.0873,-0.28908 0.006,-0.62642 0.065,-0.91419 0.0436,-0.21638 -0.0122,-0.34673 -0.0759,-0.55298 l 0.0424,-0.1204 c 0.0513,-0.19553 -5.6e-4,-0.24775 -0.0347,-0.42976 -0.0379,-0.20229 0.049,-0.43821 0.10294,-0.63337 l -0.17619,-0.27086 c 0.0883,-0.17525 0.139,-0.19065 0.0964,-0.38731 -0.0708,-0.32684 0.11533,-0.66287 0.0648,-0.95288 -0.13805,-0.78928 0.005,-1.76432 -0.21056,-2.53537 -0.0593,-0.21187 -0.007,-0.38487 0.0288,-0.59562 0.028,-0.16417 -0.002,-0.2902 -0.005,-0.45306 l 0.0573,-0.79397 0.0225,-0.38525 c 9e-4,-0.1604 0.0276,-0.30748 0.0555,-0.46488 l -0.0849,-0.11796 c -0.32326,-0.49381 -0.11026,-2.75288 -0.0188,-3.39941 0.0239,-0.16961 7.6e-4,-0.24568 -0.0319,-0.4074 -0.14633,-0.72241 -0.0197,-1.57968 -0.0312,-2.32445 l -0.0159,-7.95492 -0.12641,-4.32749 -0.0105,-25.28686 0.01,-11.56095 c -0.0101,-2.06109 0.0361,-4.21272 -0.11063,-6.26331 -0.0222,-0.30936 -0.10969,-0.53175 -0.23291,-0.81068 -0.0977,-0.22108 -0.10538,-0.41399 -0.0981,-0.65141 z m -12.47494,2.7619 h 0.23949 z m -0.11552,0.26297 h 0.19835 z m -9.226747,2.63042 h 0.260526 z m 11.972117,6.57604 h 0.21319 z m -0.12716,0.26297 h 0.21732 z m -0.12021,0.26316 h 0.21206 z m -7.48497,0.52593 h 0.20417 z m -0.12603,0.26315 h 0.19045 z m -0.13675,0.26296 h 0.19516 z m -0.14125,0.26316 h 0.20643 z m -0.13994,0.26297 h 0.21658 z m -0.11889,0.26296 h 0.20548 z m -0.12642,0.26316 h 0.1961 z m -0.1373,0.26296 h 0.19628 z m -0.13712,0.26297 h 0.20042 z m -0.802427,1.57837 H 99.6609 Z m 54.726347,3.15654 h 0.25771 z m 0.12885,0.26296 h 0.26053 z m -60.344062,0.13149 h 0.208868 z m 35.742232,5.78695 h 0.21469 z m -47.059749,0.78909 h 0.200608 z m -0.134303,0.26296 h 0.193099 z m -0.134863,0.26316 h 0.195161 z m -0.133362,0.26297 h 0.213943 z m -0.125473,0.26296 h 0.223334 z m 78.37287,1.18372 h 0.22784 z m 0.13148,0.26316 h 0.22916 z m 0.13167,0.26296 h 0.23423 z m -52.22948,0.92058 0.26053,0.13167 z m 21.04972,2.63041 h 0.26035 z m -3.53539,4.34027 0.24361,0.26296 z m 0.0289,0.52593 0.065,0.40422 0.15103,-0.0109 -0.005,-0.39933 z m 1.42903,15.7825 0.12848,0.25808 0.10575,0.004 -0.0459,-0.26109 z m 2.07744,7.36513 h 0.19873 z m 0,0.52612 0.25583,0.13148 z m -17.43938,2.36726 h 0.2023 z m 17.59998,16.30844 0.29753,0.13167 c -0.0913,-0.0443 -0.19836,-0.11232 -0.29753,-0.13167 z m -14.18104,16.96585 h 0.20399 z m -6.76612,17.09846 h 0.26052 z m 17.49741,4.86488 0.26053,0.13149 z m 3.28915,0.39445 h 0.24775 z m -1.84189,4.86676 h 0.1959 z m -15.7872,0.52593 h 0.26033 z m -0.0806,0.65742 h 0.20944 z m 17.578,0.92226 h 0.26053 z m -17.58551,0.13148 0.21826,0.12961 z m -2.92382,0.52594 h 0.24644 z m 14.0629,0.52593 h 0.26052 z m 6.44643,0 h 0.19253 z m -1.40762,0.39445 0.35256,0.13149 z m -19.71724,8.94274 0.12341,0.35313 0.16398,0.0413 -0.11025,-0.36064 z m 14.94158,1.97226 h 0.1929 z"
     id="path2"
     style="stroke-width:0.187834" />
  <path
     d="m 122.51777,79.141364 -0.14576,-0.267665 z"
     id="path3"
     style="stroke-width:0.187834" />
  <path
     d="m 122.65977,79.393621 -0.142,-0.252257 z"
     id="path4"
     style="stroke-width:0.187834" />
  <path
     d="m 115.44566,79.387053 -0.18933,0.312546 z"
     id="path5"
     style="stroke-width:0.187834" />
  <path
     d="m 122.77379,79.535252 -0.11402,-0.141631 z"
     id="path6"
     style="stroke-width:0.187834" />
  <path
     d="m 111.61011,86.366184 -0.1435,0.27179 z"
     id="path7"
     style="stroke-width:0.187834" />
  <path
     d="m 111.46661,86.637974 -0.13149,0.262408 z"
     id="path8"
     style="stroke-width:0.187834" />
  <path
     d="m 111.33512,86.900382 -0.13768,0.255641 z"
     id="path9"
     style="stroke-width:0.187834" />
  <path
     d="m 111.19744,87.156023 -0.102,0.138808 z"
     id="path10"
     style="stroke-width:0.187834" />
  <path
     d="m 110.1221,89.29751 0.12397,-0.160033 z"
     id="path11"
     style="stroke-width:0.187834" />
  <path
     d="M 131.46596,96.774207 131.30029,96.60122 Z"
     id="path12"
     style="stroke-width:0.187834" />
  <path
     d="m 144.72436,121.18652 c -0.46695,-0.46169 -0.76016,-1.15498 -1.09845,-1.7183 l -3.62537,-6.72349 -1.76131,-3.00158 -3.26849,-6.17896 -2.33082,-4.29142 c -0.40948,-0.774441 -0.95157,-1.651999 -1.17396,-2.498563 0.41662,0.334721 0.82703,1.179593 1.1302,1.647865 1.55507,2.402768 2.84097,4.929118 4.18567,7.449088 l 1.94445,3.48995 2.36332,4.43042 c 0.27874,0.51654 0.47653,1.07534 0.80655,1.56258 0.51185,0.75566 0.7936,1.71398 1.20026,2.53368 0.42976,0.86591 1.60297,2.35862 1.62795,3.29873 z"
     id="path13"
     style="stroke-width:0.187834" />
  <path
     d="m 144.78803,121.35989 0.0949,0.13092 z"
     id="path14"
     style="stroke-width:0.187834" />
  <path
     d="m 145.13966,122.01261 c -0.14877,-0.14745 -0.18689,-0.32795 -0.25677,-0.5218 l 0.25433,0.22314 z"
     id="path15"
     style="stroke-width:0.187834" />
  <path
     d="m 145.28636,122.27651 -0.1467,-0.2639 z"
     id="path16"
     style="stroke-width:0.187834" />
  <path
     d="m 145.39642,122.43017 -0.11006,-0.15366 z"
     id="path17"
     style="stroke-width:0.187834" />
  <path
     d="m 145.54069,122.67454 -0.14427,-0.24437 z"
     id="path18"
     style="stroke-width:0.187834" />
  <path
     d="m 145.80703,123.19671 c -0.20587,-0.18726 -0.19986,-0.24718 -0.26634,-0.52217 0.17486,0.21263 0.23516,0.25338 0.26634,0.52217 z"
     id="path19"
     style="stroke-width:0.187834" />
  <path
     d="m 145.94884,123.44578 -0.14181,-0.24907 z"
     id="path20"
     style="stroke-width:0.187834" />
  <path
     d="m 146.04483,123.5921 -0.096,-0.14632 z"
     id="path21"
     style="stroke-width:0.187834" />
  <path
     d="m 110.87324,131.02598 c -0.0873,0.047 -0.15891,0.0468 -0.25639,0.0575 l 0.1852,-0.45212 0.30241,0.0246 z"
     id="path22"
     style="stroke-width:0.187834" />
  <path
     d="m 159.77018,150.55725 0.10913,0.136 z"
     id="path23"
     style="stroke-width:0.187834" />
  <path
     d="m 160.16181,151.10047 c -0.14858,-0.092 -0.20004,-0.25545 -0.2825,-0.40722 0.11739,0.1328 0.24737,0.23122 0.2825,0.40722 z"
     id="path24"
     style="stroke-width:0.187834" />
  <path
     d="M 69.768177,157.65078 69.6305,157.79015 Z"
     id="path25"
     style="stroke-width:0.187834" />
  <path
     d="m 69.6305,157.79015 -0.129227,0.13092 z"
     id="path26"
     style="stroke-width:0.187834" />
  <path
     d="m 108.94795,164.52153 0.1172,-0.15459 z"
     id="path27"
     style="stroke-width:0.187834" />
  <path
     d="m 128.33853,173.63839 -0.22821,-0.13148 z"
     id="path28"
     style="stroke-width:0.187834" />
  <path
     d="m 128.27411,188.59819 0.12697,-0.16323 z"
     id="path29"
     style="stroke-width:0.187834" />
  <path
     d="m 112.24817,190.41961 0.1067,-0.14333 z"
     id="path30"
     style="stroke-width:0.187834" />
  <path
     d="m 126.10877,215.52822 0.12115,0.15439 z"
     id="path31"
     style="stroke-width:0.187834" />
  <path
     d="m 115.68027,221.61045 -0.0197,-0.19723 z"
     id="path32"
     style="stroke-width:0.187834" />
  <path
     d="m 128.40634,242.09366 -0.25676,-0.28551 z"
     id="path33"
     style="stroke-width:0.187834" />
  <path
     d="m 112.12514,244.85669 0.13092,0.26297 z"
     id="path34"
     style="stroke-width:0.187834" />
  <path
     d="m 108.978,245.18539 -0.20699,-0.13148 z"
     id="path35"
     style="stroke-width:0.187834" />
  <path
     d="m 112.34998,245.25114 -0.0939,-0.13148 z"
     id="path36"
     style="stroke-width:0.187834" />
  <path
     d="m 128.27486,257.64625 0.16248,-0.16342 z"
     id="path37"
     style="stroke-width:0.187834" />
  <path
     d="m 109.06798,257.87541 -0.12116,-0.15214 z"
     id="path38"
     style="stroke-width:0.187834" />
  <path
     d="m 126.35163,261.01223 -0.11081,0.15214 z"
     id="path39"
     style="stroke-width:0.187834" />
  <path
     d="m 126.26712,261.84996 -0.0798,-0.0676 0.0147,-0.28927 0.0735,0.0413 z"
     id="path40"
     style="stroke-width:0.187834" />
</svg>
