<?xml version="1.0" encoding="UTF-8" standalone="no"?>
<!-- Created with Inkscape (http://www.inkscape.org/) -->

<svg
   width="63mm"
   height="88mm"
   viewBox="0 0 63 88"
   version="1.1"
   id="svg1"
   inkscape:version="1.3.2 (091e20e, 2023-11-25, custom)"
   xml:space="preserve"
   sodipodi:docname="card-hitlocation-shoulders.svg"
   xmlns:inkscape="http://www.inkscape.org/namespaces/inkscape"
   xmlns:sodipodi="http://sodipodi.sourceforge.net/DTD/sodipodi-0.dtd"
   xmlns="http://www.w3.org/2000/svg"
   xmlns:svg="http://www.w3.org/2000/svg"><sodipodi:namedview
     id="namedview1"
     pagecolor="#ffffff"
     bordercolor="#000000"
     borderopacity="0.25"
     inkscape:showpageshadow="2"
     inkscape:pageopacity="0.0"
     inkscape:pagecheckerboard="0"
     inkscape:deskcolor="#d1d1d1"
     inkscape:document-units="mm"
     inkscape:zoom="2.9255611"
     inkscape:cx="149.88578"
     inkscape:cy="159.28568"
     inkscape:window-width="1350"
     inkscape:window-height="1008"
     inkscape:window-x="435"
     inkscape:window-y="0"
     inkscape:window-maximized="0"
     inkscape:current-layer="g1" /><defs
     id="defs1" /><g
     inkscape:label="Layer 1"
     inkscape:groupmode="layer"
     id="layer1"><g
       id="g1"
       transform="matrix(0.06087197,0,0,0.06087197,0.03359486,0.54402301)"><path
         id="path2"
         style="fill:none;stroke:#e4e4e4;stroke-width:4.92837673;stroke-dasharray:none;stroke-opacity:1"
         d="m 1193.3239,1246.3367 -160.3412,67.9528 4.0152,46.4099 c 3.1121,24.9683 8.3446,50.3662 14.2683,74.8172 6.5873,27.1893 16.8902,54.6523 28.3856,80.192 25.3176,56.2612 80.6118,145.5024 64.0242,209.104 -0.5065,1.9447 -1.0494,3.8028 -1.8348,5.6554 -7.7196,18.2292 -24.5249,32.6407 -33.5448,50.2739 -7.0479,13.7708 -8.3165,29.6419 -10.2748,44.7479 l -6.5407,59.9227 c -0.7203,10.0519 -3.0906,21.1275 -0.6907,30.9761 l 4.5331,4.5113 c 7.8253,-1.5005 15.9028,-6.822 21.0248,-12.9299 3.2774,-22.2433 5.0069,-59.5061 24.3059,-73.889 2.9713,-2.2129 3.2131,-2.0408 6.8427,-1.77 10.3849,20.453 10.8874,45.7263 3.8639,67.0677 -4.5993,13.9739 -12.331,30.7083 -20.7874,42.8267 -7.5516,10.821 -25.9002,24.6018 -29.4648,36.7826 -0.6,2.0477 -0.038,6.2513 -0.042,8.5265 4.0277,4.7889 4.3777,5.4933 10.3827,6.9723 41.3339,-12.1321 95.6821,-41.8062 116.9747,-79.9547 6.2082,-11.127 9.7825,-24.452 11.5485,-37.02 l 0.4101,-2.7199 c 2.0099,-14.6375 -0.9608,-31.4431 -2.2664,-46.1294 -1.9177,-21.5443 -3.0599,-42.7517 -2.3314,-64.3911 l 8.6994,-108.664 c 9.6751,-110.5233 17.9381,-223.6031 -16.6214,-330.8706 -8.6486,-26.8406 -20.2864,-53.706 -34.5376,-78.4004 z" /><path
         id="path5"
         style="fill:none;stroke:#e4e4e4;stroke-width:4.92837673;stroke-dasharray:none;stroke-opacity:1"
         d="m 866.44662,666.10416 17.91641,374.58244 c 23.03695,63.1266 62.7928,115.5749 89.88419,155.2898 l 35.16368,49.691 c 6.1486,8.3779 15.6539,18.6162 19.4921,28.2561 3.0365,7.6222 2.3641,19.0749 2.9574,27.2632 l 1.1223,13.1028 160.3412,-67.9528 c -2.4417,-4.231 -4.7994,-8.5459 -7.4041,-12.6279 l -18.5207,-27.2632 c -2.2265,-3.1529 -6.8163,-7.9822 -8.0733,-11.2895 -1.078,-2.8386 -0.5308,-9.6878 -0.7122,-12.9084 l -2.4393,-35.4874 c -3.8436,-36.117 -10.8283,-72.5574 -23.464,-106.6997 -10.7505,-29.0393 -24.1685,-58.00674 -39.632,-84.85473 -6.5685,-11.40068 -16.3849,-22.77956 -21.7154,-34.51611 -1.6822,-3.69998 -1.5111,-7.75843 -1.5111,-11.72113 0,-68.20628 -19.566,-141.15392 -69.3128,-190.36726 -28.10209,-27.79603 -67.93284,-47.84672 -107.60632,-51.02932 -6.48297,-0.52233 -18.80381,-0.0663 -26.48606,-1.46789 z" /><path
         id="path3"
         style="fill:none;stroke:#e4e4e4;stroke-width:4.92837673;stroke-dasharray:none;stroke-opacity:1"
         d="M 0.3072826,1333.5227 -171.60385,1265.1596 c -5.97943,12.905 -11.17494,26.1402 -15.45562,39.891 -13.90608,44.6708 -19.74855,91.9672 -23.24813,138.4744 -5.90214,78.4718 -3.09039,156.2145 2.763,234.5753 l 7.55511,78.2709 c 1.89868,31.4121 -5.22272,61.2531 -5.50443,92.2372 -0.27627,30.315 9.42278,61.3104 28.29927,85.0706 20.22545,25.4584 59.2928,53.1927 92.042823,57.57 2.96871,0.398 4.78148,0.077 7.55513,-0.8851 2.36735,-4.1552 2.38249,-4.3806 0.99295,-8.9798 -2.73844,-9.0794 -12.46217,-19.8196 -17.65737,-27.9971 -20.704783,-32.5984 -37.370983,-74.9024 -23.960493,-113.262 l 4.10135,-3.0867 c 7.32951,2.2861 12.47706,8.4738 15.908903,15.1534 10.11129,19.6728 3.10235,52.0336 22.98912,65.2546 5.30622,0.5119 5.57213,0.6749 10.42604,-2.2449 9.46401,-23.1996 4.74638,-103.0726 -5.13747,-126.5159 -6.57648,-15.5961 -18.26532,-26.8355 -26.48607,-41.2292 -23.532613,-41.2039 -11.929173,-91.7062 4.29564,-133.0347 24.73797,-63.0192 64.24791,-118.8347 82.6097196,-184.7549 8.73922,-31.3717 8.06515,-64.0577 9.82166,-96.144 z" /><path
         id="path6"
         style="fill:none;stroke:#e4e4e4;stroke-width:4.92837673;stroke-dasharray:none;stroke-opacity:1"
         d="m 182.49335,661.00992 c -0.10159,0.0431 -0.22294,0.15316 -0.32379,0.19421 -6.51972,2.65452 -20.80684,0.67996 -28.4072,1.38156 -10.37684,0.9561 -20.78407,3.16735 -30.78169,6.06567 -60.998427,17.67646 -111.752257,62.96646 -135.322797,122.11212 -9.23109,23.16422 -13.7953,48.88953 -16.83712,73.56524 l -3.6912,43.69012 c -0.30607,4.00878 0.18611,12.55769 -1.20882,16.05995 -3.99523,10.02191 -16.91313,22.74969 -23.11864,32.4438 -18.40785,28.7522 -33.74245,59.71531 -44.812603,92.02131 -9.67258,28.2293 -15.75584,57.3951 -20.48514,86.8189 -3.4996,21.7856 -5.82569,44.9905 -12.10976,66.1612 -3.65668,12.3189 -15.74853,24.4168 -22.38471,35.6169 -5.41657,9.1395 -10.20355,18.5007 -14.61373,28.0187 l 171.9111326,68.3631 c 1.39946,-25.5643 4.3065,-50.7573 15.0022704,-74.5367 11.4603,-25.4801 37.33539,-46.0486 54.33202,-68.514 26.026608,-34.3994 79.086677,-104.3224 99.900157,-144.2162 z" /><path
         id="path4"
         style="fill:none;stroke:#e4e4e4;stroke-width:4.92837673;stroke-dasharray:none;stroke-opacity:1"
         d="m 900.16391,2514.0192 -214.11167,3.4107 c -0.9605,8.7665 -1.71025,17.5846 -2.67665,26.2703 -4.67788,42.038 -9.58143,85.4856 -5.37493,127.7677 7.94441,79.7686 46.37251,152.7274 62.46992,231.251 6.41136,31.2578 12.0923,62.7735 13.1459,94.7626 0.86403,26.1929 -1.35561,53.1689 1.03611,79.1991 1.70107,18.5271 7.13389,36.4588 10.03749,54.7421 2.54344,16.0082 -3.08191,34.8882 -6.45417,50.7057 -6.92052,32.4226 -14.96339,66.4708 -15.95207,99.7059 -0.32509,10.9428 -0.9145,22.414 1.83482,33.1129 2.12636,8.2616 5.93567,16.1621 12.39039,21.9315 5.46333,4.9027 12.46035,7.5326 19.53531,9.131 17.86619,4.0358 38.67381,3.1124 57.03031,3.4105 26.74226,0.4063 54.92095,1.7642 81.50863,-0.9713 8.28588,-0.8397 19.28177,-4.503 24.93196,-10.9225 6.22171,-7.0695 5.86476,-19.2425 4.81388,-28.1268 -4.10086,-34.5344 -23.64039,-60.9908 -39.6104,-90.5964 -19.29636,-35.8084 -38.82719,-81.2234 -41.83372,-121.8532 -1.99349,-26.951 -0.18302,-55.146 0.86347,-82.178 2.56237,-66.3079 8.08025,-136.0902 24.52159,-200.5559 11.78539,-46.1825 32.70598,-93.3601 36.0919,-141.0862 3.83869,-54.0793 -6.81376,-107.863 -24.19807,-159.1107 z" /><path
         id="path7"
         style="fill:none;stroke:#e4e4e4;stroke-width:4.92837673;stroke-dasharray:none;stroke-opacity:1"
         d="m 352.56967,2521.5527 -213.78802,-9.1524 c -14.86054,48.9887 -25.59054,101.3445 -22.03934,150.7784 3.69719,51.5454 20.93995,101.8288 32.50856,151.9659 16.28697,70.5861 23.96877,140.0587 27.43584,212.2985 1.12138,23.4026 3.29215,47.8854 1.81323,71.2338 -1.00221,15.8458 -5.0959,31.8111 -11.00889,46.5178 -11.85018,29.4972 -27.69029,58.8103 -41.57466,87.4665 -13.18029,27.2218 -28.965824,48.9329 -31.062327,80.6239 -0.417128,6.3382 -0.921753,14.3101 1.618956,20.2693 2.900966,6.8256 9.056691,8.9826 15.736221,11.0953 25.58845,8.0447 140.81162,9.1446 162.49962,-2.9357 10.9321,-6.0944 16.90363,-17.1536 19.9671,-28.8822 10.0571,-38.4344 -3.91111,-90.8876 -12.00185,-128.998 -3.24765,-15.277 -7.97627,-31.5739 -7.20973,-47.3382 1.07264,-21.9941 9.36699,-43.9666 11.11679,-66.4201 1.96105,-25.1904 -0.2901,-50.965 0.77711,-76.2636 1.93669,-45.8833 10.61293,-91.9975 21.71553,-136.4452 15.06821,-60.3216 42.28284,-117.9132 49.71264,-179.9413 6.14777,-51.3604 -1.71949,-104.518 -6.21678,-155.8727 z" /><path
         id="path8"
         style="fill:none;stroke:#e4e4e4;stroke-width:4.92837673;stroke-dasharray:none;stroke-opacity:1"
         d="m 879.76516,1858.4947 -720.21775,-22.0823 c -2.6189,11.8819 -5.4208,23.7651 -7.51193,35.6385 -8.11783,46.1062 -10.50801,92.5492 -11.65647,139.273 -1.02929,41.9026 -1.12208,84.9481 2.28811,126.7316 l 17.0098,133.8117 c 7.07496,42.7399 19.09098,85.1155 16.06001,128.9333 -1.57374,22.7444 -13.93438,43.9027 -21.52128,65.125 -5.35608,14.9844 -10.60615,30.5594 -15.434,46.4748 l 213.78802,9.1524 c -0.0897,-1.0243 -0.19372,-2.0852 -0.28061,-3.1082 -1.89591,-22.2922 -4.70852,-45.3557 -1.87801,-67.7154 3.21788,-25.4075 12.18594,-51.5277 20.46356,-75.6807 l 32.31432,-94.6762 58.51968,-222.6816 c 15.02743,-70.0559 27.58369,-137.784 30.54421,-209.5355 l 51.59062,0.2158 2.61188,38.1642 c 13.91698,132.6742 48.13922,266.3698 87.66093,393.578 16.4982,53.1006 41.28833,104.9305 51.93599,159.5856 5.00297,25.6744 2.84346,51.7786 0,77.7312 l 214.11167,-3.4107 c -5.4805,-16.1561 -11.55677,-32.0878 -18.15363,-47.6619 l -16.25441,-37.7323 c -2.63799,-6.1325 -6.7426,-13.6524 -7.51192,-20.1828 -2.15064,-18.2809 1.32136,-38.7211 4.36038,-56.7283 l 22.73013,-109.0094 c 23.70662,-129.2151 20.03709,-257.8499 -5.5693,-384.2098 z" /><path
         id="path9"
         style="fill:none;stroke:#e4e4e4;stroke-width:4.92837673;stroke-dasharray:none;stroke-opacity:1"
         d="m 781.16032,1529.2216 -513.57485,-9.2389 c -0.52881,3.5313 -1.0711,6.7173 -1.68371,8.7207 -3.08243,10.0896 -9.73008,20.1587 -13.90141,30.0694 l -36.1134,90.9204 c -21.93584,60.2797 -42.39088,123.4337 -56.33954,186.7192 l 720.21775,22.0823 c -9.28804,-45.8344 -21.27981,-91.3808 -36.15655,-136.5315 -19.9924,-60.6733 -44.55351,-120.1772 -60.07381,-182.2509 -0.87864,-3.5132 -1.58384,-6.9928 -2.37448,-10.4907 z" /><path
         id="path10"
         style="fill:none;stroke:#e4e4e4;stroke-width:4.92837673;stroke-dasharray:none;stroke-opacity:1"
         d="m 789.79468,1225.1392 -544.83136,-10.1671 c 1.47069,2.8711 2.93931,5.7407 4.55467,8.4186 23.31956,79.4342 27.61983,91.9232 24.67282,176.0125 -0.60863,17.3186 -2.25439,91.5249 -6.60534,120.5795 l 513.57485,9.2389 c -12.28906,-54.3632 -14.29548,-107.0733 -11.69965,-163.1904 2.68695,-58.0731 7.39302,-53.0374 17.31199,-124.2061 1.02733,-6.133 2.01689,-11.5751 3.02202,-16.6859 z" /><path
         id="path11"
         style="fill:none;stroke:#e4e4e4;stroke-width:4.92837673;stroke-dasharray:none;stroke-opacity:1"
         d="m 877.06696,888.3108 -701.89129,-9.67063 -5.63394,167.61563 c 0.47061,-0.9021 1.37675,-2.1951 1.81323,-3.0653 9.33652,18.5513 20.71746,68.8688 33.30725,85.4807 17.90663,23.623 26.23056,58.8328 40.30111,86.3009 l 544.83136,10.1671 c 7.67019,-39.0024 16.13302,-52.242 47.35976,-98.8209 33.57174,-50.0771 42.57854,-83.1303 46.7769,-86.7326 0.13503,0.3738 0.29546,0.7275 0.43169,1.1009 z" /><path
         id="path1"
         style="fill:none;stroke:#e5e5e5;stroke-width:4.92837673;stroke-dasharray:none;stroke-opacity:1"
         d="m 522.07388,64.976471 c -5.75304,-0.260151 -11.72617,-0.536496 -17.46308,0.04328 -39.33493,4.759093 -75.39063,19.749668 -100.33177,51.806449 -30.61857,39.35118 -33.90271,114.40644 -27.80283,162.82343 -3.65396,3.64317 -4.81082,1.75412 -8.37537,3.79913 -5.46064,3.13119 -7.59013,11.70984 -7.61988,17.48468 -0.0624,12.15911 3.11303,23.65607 5.41809,35.48746 4.01963,20.64256 6.71823,48.589 23.01069,63.65717 2.57052,2.37551 5.72975,4.21718 8.89346,5.67712 1.9961,12.24619 5.87197,117.59209 2.54716,125.24216 h 226.56693 l 2.61188,-80.83968 c 0.22224,-12.14286 -2.20973,-33.29989 1.98599,-44.35929 l 1.59733,-1.4031 c 19.27194,-17.21615 23.10992,-39.03517 28.21294,-63.07437 2.49738,-11.75822 5.43507,-23.82531 5.91459,-35.85439 0.27893,-6.93413 0.7381,-13.50848 -3.1731,-19.57854 -3.03647,-2.26711 -6.2285,-4.41446 -8.8288,-7.18813 3.07983,-54.96111 4.17432,-123.94682 -34.51603,-167.59393 -24.55385,-27.698605 -61.87285,-44.477059 -98.6482,-46.129339 z" /><path
         id="path12"
         style="fill:none;stroke:#000000;stroke-width:4.92837673;stroke-dasharray:none;stroke-opacity:1"
         d="m 405.69293,530.99726 c -0.0128,0.0318 -0.008,0.31685 -0.0216,0.34537 -52.64207,41.28475 -113.62127,62.56357 -171.26353,95.19438 -11.89638,6.73366 -23.16487,14.37575 -34.3218,22.25516 -5.10968,3.60855 -11.88449,9.77356 -17.59261,12.21775 l -3.47643,200.67596 15.47306,15.46857 668.84512,6.95411 13.77484,-17.84987 -10.66332,-200.15453 c -1.28231,-0.23389 -3.36068,-0.11898 -4.27398,-0.49645 -4.71302,-1.95021 -10.3553,-6.86957 -14.72167,-9.73531 -11.50337,-7.54898 -22.89447,-15.37042 -34.9046,-22.10407 L 731.6421,591.24384 c -34.96018,-17.40013 -69.35427,-33.90879 -99.40379,-59.31841 l 0.0216,-0.92817 z"
         sodipodi:nodetypes="cccsccccccccccccc" /><g
         id="body"
         transform="matrix(1.0609646,0,0,1.0609646,10.999186,-230.12362)"><path
           fill="#37b2df"
           d="m 283.17389,596.49529 c 7.29878,0.33206 8.88162,-0.0804 16.00924,0.0851 0.24196,2.35569 0.33325,4.67189 0.92537,6.98158 0.21806,0.85086 0.4925,1.77406 0.99588,2.50285 l 16.01311,4.53618 4.00828,1.04672 c 1.93273,0.46715 3.81933,0.85727 5.56272,1.86704 2.18883,1.26767 3.9146,3.27912 5.0637,5.51213 1.77008,3.43983 1.78687,7.37701 2.35122,11.1269 l -11.04878,5.03231 -1.42198,0.67869 c -0.29486,0.12678 -0.63934,0.21975 -0.90678,0.39192 l -0.59345,3.61479 -1.32044,5.61984 -2.38781,8.10544 -3.20945,9.55447 c -1.97909,6.59701 -2.50721,13.63264 -1.22409,20.41476 0.87817,4.64136 2.58945,9.06653 4.01324,13.55455 -0.13414,0.19564 -0.56192,0.36106 -0.78083,0.47331 -1.10697,0.56509 -2.26054,1.03232 -3.43657,1.43319 -7.0731,2.41002 -14.30448,3.24558 -21.75211,3.10431 -8.13756,-0.15454 -16.27934,-1.50682 -23.6363,-5.12186 0.49613,-0.95869 0.87937,-2.02123 1.25632,-3.03428 l 1.8831,-5.71358 c 0.89796,-3.03667 1.66371,-6.12763 1.94359,-9.28991 0.87418,-9.87668 -3.30531,-19.13342 -6.39017,-28.24646 -1.3144,-3.88248 -2.30932,-7.96381 -3.19666,-11.96352 l -0.36234,-2.37887 c -1.65985,-0.59948 -3.27817,-1.56409 -4.86979,-2.33418 l -8.36781,-4.052 0.69873,-5.17419 c 0.85173,-5.06344 3.15536,-9.80089 8.12778,-11.8773 2.24013,-0.93552 4.81304,-1.44191 7.16087,-2.06228 l 11.29691,-3.18688 3.34118,-0.99709 c 0.80258,-0.24161 1.7562,-0.45013 2.43888,-0.93551 1.45398,-2.80425 1.72577,-6.15811 1.81524,-9.2682 z"
           id="path5-3"
           sodipodi:nodetypes="ccccccccccccccccccccccccscccccccccccc"
           style="fill:none;stroke:#000000;stroke-width:2.10451;stroke-dasharray:none;stroke-opacity:1" /><path
           fill="#26A4D4"
           d="m 291.26778,657.48848 0.0627,0.0529 0.0441,34.39004 -0.0811,0.1627 c -0.12182,-0.92567 -0.0889,-1.92401 -0.11397,-2.85943 l -0.14428,-3.72601 -0.23966,-11.24502 0.22097,-8.86765 0.14825,-5.96255 c 0.0297,-0.65042 -0.0152,-1.30151 0.10303,-1.94505 z"
           id="path6-7"
           style="fill:#6f838b;fill-opacity:1;stroke-width:0.0990362;stroke-dasharray:none" /><path
           fill="#26A4D4"
           d="m 320.65964,629.12126 c -0.14503,1.18222 -0.44555,2.36517 -0.73139,3.52033 -0.29654,1.19846 -0.60848,2.45583 -1.09383,3.59369 -0.39492,0.92548 -0.96492,1.81969 -1.46818,2.69177 -1.54792,2.68216 -3.10979,5.22674 -5.37214,7.38061 -3.03293,2.88755 -6.79305,4.3086 -10.97477,4.21251 l -0.067,-0.0393 -0.0154,-0.0762 0.80173,-0.21946 c 4.45387,-1.19413 8.3186,-3.98271 11.14747,-7.59696 2.0068,-2.56394 3.57192,-5.48384 5.08832,-8.35467 z"
           id="path7-7"
           style="fill:#768084;fill-opacity:1;stroke-width:0.123795;stroke-dasharray:none" /><path
           fill="#26A4D4"
           d="m 260.34705,627.90946 c 0.25767,0.30548 0.40388,0.99081 0.55385,1.37381 l 1.14271,2.73433 c 0.81392,1.81983 1.66491,3.62625 2.65596,5.35758 2.92933,5.11694 6.90406,10.40111 12.73109,12.34639 0.86705,0.28943 1.82695,0.54564 2.73252,0.67255 0.78048,0.10927 1.5775,0.12774 2.33998,0.33457 l -1.21309,0.0885 c -4.54064,0.21251 -9.08406,-1.42355 -12.44396,-4.47471 -3.16985,-2.8785 -5.15847,-6.66571 -6.66209,-10.61978 -0.93322,-2.45445 -1.71502,-5.17864 -1.83697,-7.81324 z"
           id="path8-0"
           style="fill:#6c858e;fill-opacity:1;stroke-width:0.120743" /><text
           xml:space="preserve"
           style="font-style:normal;font-variant:normal;font-weight:normal;font-stretch:normal;font-size:113.547px;font-family:Amiri;-inkscape-font-specification:'Amiri, Normal';font-variant-ligatures:normal;font-variant-caps:normal;font-variant-numeric:normal;font-variant-east-asian:normal;fill:#000000;fill-opacity:1;stroke:#000000;stroke-width:0.215296;stroke-dasharray:none;stroke-opacity:1;paint-order:markers fill stroke"
           x="339.74225"
           y="684.15222"
           id="text1"><tspan
             sodipodi:role="line"
             id="tspan1"
             x="339.74225"
             y="684.15222"
             style="stroke-width:0.215296">Body: -1</tspan></text><path
           id="rect1"
           d="m 282.50527,648.92026 h 17.61435 l -5.26564,1.30119 -0.49288,12.72354 -7.11349,-0.0649 -0.0833,-12.65856 z"
           sodipodi:nodetypes="ccccccc"
           style="stroke-width:2.53663" /><path
           style="fill:#000000;fill-opacity:1;stroke-width:2.10969"
           id="path2-6-0"
           sodipodi:type="arc"
           sodipodi:cx="291.00009"
           sodipodi:cy="624.9527"
           sodipodi:rx="8.5723772"
           sodipodi:ry="8.5723772"
           sodipodi:start="0.027304543"
           sodipodi:end="6.2831853"
           sodipodi:open="true"
           sodipodi:arc-type="arc"
           d="m 299.56927,625.18673 a 8.5723772,8.5723772 0 0 1 -8.74471,8.33655 8.5723772,8.5723772 0 0 1 -8.39605,-8.68761 8.5723772,8.5723772 0 0 1 8.6301,-8.45515 8.5723772,8.5723772 0 0 1 8.51386,8.57218" /><path
           style="fill:#000000;fill-opacity:1;stroke-width:2.10969"
           id="path2-6-0-7"
           sodipodi:type="arc"
           sodipodi:cx="282.51749"
           sodipodi:cy="640.08997"
           sodipodi:rx="8.5723772"
           sodipodi:ry="8.5723772"
           sodipodi:start="0.027304543"
           sodipodi:end="6.2831853"
           sodipodi:open="true"
           sodipodi:arc-type="arc"
           d="m 291.08667,640.324 a 8.5723772,8.5723772 0 0 1 -8.74472,8.33655 8.5723772,8.5723772 0 0 1 -8.39604,-8.68761 8.5723772,8.5723772 0 0 1 8.63009,-8.45515 8.5723772,8.5723772 0 0 1 8.51386,8.57218" /><path
           style="fill:#000000;fill-opacity:1;stroke-width:2.10969"
           id="path2-6-0-9"
           sodipodi:type="arc"
           sodipodi:cx="299.66608"
           sodipodi:cy="640.08997"
           sodipodi:rx="8.5723772"
           sodipodi:ry="8.5723772"
           sodipodi:start="0.027304543"
           sodipodi:end="6.2831853"
           sodipodi:open="true"
           sodipodi:arc-type="arc"
           d="m 308.23526,640.324 a 8.5723772,8.5723772 0 0 1 -8.74472,8.33655 8.5723772,8.5723772 0 0 1 -8.39604,-8.68761 8.5723772,8.5723772 0 0 1 8.63009,-8.45515 8.5723772,8.5723772 0 0 1 8.51386,8.57218" /><path
           sodipodi:type="star"
           style="fill:#000000"
           id="path1-99"
           inkscape:flatsided="false"
           sodipodi:sides="3"
           sodipodi:cx="-4.2679658"
           sodipodi:cy="5.2618756"
           sodipodi:r1="0.76004869"
           sodipodi:r2="0.33594152"
           sodipodi:arg1="1.5707963"
           sodipodi:arg2="2.6179939"
           inkscape:rounded="0"
           inkscape:randomized="0"
           d="m -4.2679658,6.0219243 -0.2909339,-0.5920779 -0.3672876,-0.5479951 0.6582215,0.044083 0.6582215,-0.044083 -0.3672876,0.5479951 z"
           inkscape:transform-center-y="0.21087664"
           transform="matrix(4.5466021,0,0,4.5466021,310.29061,582.85793)" /><path
           sodipodi:type="star"
           style="fill:#000000"
           id="path1-7"
           inkscape:flatsided="false"
           sodipodi:sides="3"
           sodipodi:cx="-4.2679658"
           sodipodi:cy="5.2618756"
           sodipodi:r1="0.76004869"
           sodipodi:r2="0.33594152"
           sodipodi:arg1="1.5707963"
           sodipodi:arg2="2.6179939"
           inkscape:rounded="0"
           inkscape:randomized="0"
           d="m -4.2679658,6.0219243 -0.2909339,-0.5920779 -0.3672876,-0.5479951 0.6582215,0.044083 0.6582215,-0.044083 -0.3672876,0.5479951 z"
           inkscape:transform-center-y="-0.1986054"
           transform="matrix(2.1410252,4.0109351,-4.0109351,2.1410252,320.82082,620.19352)"
           inkscape:transform-center-x="0.014034468" /><path
           sodipodi:type="star"
           style="fill:#000000"
           id="path1-9"
           inkscape:flatsided="false"
           sodipodi:sides="3"
           sodipodi:cx="-4.2679658"
           sodipodi:cy="5.2618756"
           sodipodi:r1="0.76004869"
           sodipodi:r2="0.33594152"
           sodipodi:arg1="1.5707963"
           sodipodi:arg2="2.6179939"
           inkscape:rounded="0"
           inkscape:randomized="0"
           d="m -4.2679658,6.0219243 -0.2909339,-0.5920779 -0.3672876,-0.5479951 0.6582215,0.044083 0.6582215,-0.044083 -0.3672876,0.5479951 z"
           inkscape:transform-center-y="0.0047987713"
           transform="matrix(-0.05177666,-4.5463077,4.5463077,-0.05177666,263.24506,591.48829)"
           inkscape:transform-center-x="-0.2066996" /><path
           sodipodi:type="star"
           style="fill:#000000"
           id="path1-5"
           inkscape:flatsided="false"
           sodipodi:sides="3"
           sodipodi:cx="-4.2679658"
           sodipodi:cy="5.2618756"
           sodipodi:r1="0.76004869"
           sodipodi:r2="0.33594152"
           sodipodi:arg1="1.5707963"
           sodipodi:arg2="2.6179939"
           inkscape:rounded="0"
           inkscape:randomized="0"
           d="m -4.2679658,6.0219243 -0.2909339,-0.5920779 -0.3672876,-0.5479951 0.6582215,0.044083 0.6582215,-0.044083 -0.3672876,0.5479951 z"
           inkscape:transform-center-y="0.024724087"
           transform="matrix(-0.26655543,4.5387818,-4.5387818,-0.26655543,316.77845,631.68679)"
           inkscape:transform-center-x="0.18910257" /></g></g></g></svg>
