<?xml version="1.0" encoding="UTF-8" standalone="no"?>
<!-- Created with Inkscape (http://www.inkscape.org/) -->

<svg
   width="63mm"
   height="88mm"
   viewBox="0 0 63 88"
   version="1.1"
   id="svg1"
   inkscape:version="1.3.2 (091e20e, 2023-11-25, custom)"
   xml:space="preserve"
   sodipodi:docname="card-hitlocation-hand-right.svg"
   xmlns:inkscape="http://www.inkscape.org/namespaces/inkscape"
   xmlns:sodipodi="http://sodipodi.sourceforge.net/DTD/sodipodi-0.dtd"
   xmlns="http://www.w3.org/2000/svg"
   xmlns:svg="http://www.w3.org/2000/svg"><sodipodi:namedview
     id="namedview1"
     pagecolor="#ffffff"
     bordercolor="#000000"
     borderopacity="0.25"
     inkscape:showpageshadow="2"
     inkscape:pageopacity="0.0"
     inkscape:pagecheckerboard="0"
     inkscape:deskcolor="#d1d1d1"
     inkscape:document-units="mm"
     inkscape:zoom="1.4627806"
     inkscape:cx="138.43498"
     inkscape:cy="232.77585"
     inkscape:window-width="1350"
     inkscape:window-height="1017"
     inkscape:window-x="531"
     inkscape:window-y="0"
     inkscape:window-maximized="0"
     inkscape:current-layer="g1" /><defs
     id="defs1" /><g
     inkscape:label="Layer 1"
     inkscape:groupmode="layer"
     id="layer1"><g
       id="g1"
       transform="matrix(0.06087197,0,0,0.06087197,0.03359486,0.54402301)"><path
         id="path2"
         style="fill:none;stroke:#e5e5e5;stroke-width:4.92837673;stroke-dasharray:none;stroke-opacity:1"
         d="m 1821.4176,367.25839 -160.6851,68.09858 4.0238,46.50944 c 3.1188,25.02186 8.3625,50.47433 14.2989,74.97769 6.6015,27.2477 16.9264,54.76956 28.4465,80.36408 25.3719,56.38191 80.7847,145.81452 64.1615,209.5525 -0.5075,1.94895 -1.0516,3.81099 -1.8387,5.66759 -7.7362,18.26831 -24.5775,32.71074 -33.6168,50.38173 -7.063,13.80031 -8.3343,29.70545 -10.2968,44.84387 l -6.5548,60.05133 c -0.7218,10.0735 -3.0971,21.1729 -0.6921,31.0426 l 4.5428,4.5209 c 7.8421,-1.5036 15.9369,-6.8366 21.0699,-12.9576 3.2845,-22.291 5.0177,-59.63378 24.358,-74.04756 2.9778,-2.21768 3.22,-2.04522 6.8574,-1.77377 10.4072,20.49679 10.9108,45.82433 3.8722,67.21163 -4.6091,14.0039 -12.3574,30.7742 -20.832,42.9186 -7.5678,10.8442 -25.9557,24.6545 -29.528,36.8615 -0.6012,2.052 -0.038,6.2647 -0.042,8.5447 4.0363,4.7992 4.3871,5.5051 10.405,6.9873 41.4225,-12.1581 95.8874,-41.8959 117.2256,-80.1262 6.2215,-11.1509 9.8035,-24.5045 11.5734,-37.09952 l 0.4109,-2.72568 c 2.0142,-14.66891 -0.9629,-31.51059 -2.2712,-46.2284 -1.9219,-21.59051 -3.0665,-42.84346 -2.3365,-64.52927 l 8.7181,-108.89707 c 9.6959,-110.76038 17.9766,-224.08271 -16.657,-331.58036 -8.6672,-26.89814 -20.33,-53.82116 -34.6117,-78.56861 z" /><path
         id="path5"
         style="fill:none;stroke:#e5e5e5;stroke-width:4.92837673;stroke-dasharray:none;stroke-opacity:1"
         d="m 1493.8392,-214.2188 17.9548,375.38598 c 23.0864,63.26206 62.9275,115.82282 90.077,155.62297 l 35.2391,49.79755 c 6.1618,8.39583 15.6875,18.65611 19.5339,28.31667 3.0431,7.63855 2.3693,19.11586 2.9638,27.32171 l 1.1247,13.13089 160.6851,-68.09858 c -2.4469,-4.24001 -4.8097,-8.56421 -7.4199,-12.65497 l -18.5605,-27.32164 c -2.2313,-3.15966 -6.8309,-7.99939 -8.0906,-11.31374 -1.0804,-2.84468 -0.5319,-9.70858 -0.7138,-12.9361 l -2.4445,-35.5635 c -3.8518,-36.19451 -10.8514,-72.71304 -23.5142,-106.92867 -10.7737,-29.10157 -24.2204,-58.13112 -39.7171,-85.036699 -6.5826,-11.42514 -16.4201,-22.82843 -21.762,-34.59015 -1.6858,-3.70792 -1.5144,-7.77508 -1.5144,-11.74628 0,-68.35259 -19.6079,-141.456711 -69.4614,-190.775621 -28.1624,-27.85565 -68.0786,-47.94935 -107.8371,-51.13879 -6.4969,-0.52344 -18.8442,-0.0664 -26.5429,-1.47103 z" /><path
         id="path6"
         style="fill:none;stroke:#e5e5e5;stroke-width:4.92837673;stroke-dasharray:none;stroke-opacity:1"
         d="m 808.41877,-219.32397 c -0.10181,0.0432 -0.22343,0.15349 -0.32449,0.19462 -6.53372,2.66022 -20.85148,0.68142 -28.46815,1.38453 -10.3991,0.95815 -20.82865,3.17415 -30.84772,6.07868 -61.12927,17.71437 -111.99197,63.10153 -135.61308,122.374071 -9.25089,23.2139 -13.82488,48.9944 -16.87324,73.72304 l -3.69912,43.78384 c -0.30672,4.01738 0.18651,12.58463 -1.2114,16.09441 -4.00381,10.04341 -16.94941,22.79849 -23.16824,32.5134 -18.4473,28.813879 -33.81483,59.843429 -44.90874,92.218699 -9.6933,28.28987 -15.78967,57.51829 -20.52904,87.00518 -3.50714,21.83234 -5.83821,45.08698 -12.13577,66.30313 -3.66454,12.34527 -15.7823,24.46911 -22.43269,35.6933 -5.42824,9.15912 -10.22547,18.54032 -14.64514,28.07876 l 172.27993,68.50975 c 1.40246,-25.61916 4.31573,-50.86613 15.03445,-74.69655 11.48488,-25.53482 37.41548,-46.1474 54.44857,-68.66101 26.08243,-34.47315 79.25632,-104.54621 100.11445,-144.52562 z" /><path
         id="path4"
         style="fill:none;stroke:#e5e5e5;stroke-width:4.92837673;stroke-dasharray:none;stroke-opacity:1"
         d="m 1527.6288,1637.6603 -214.571,3.4181 c -0.9625,8.7852 -1.7139,17.6222 -2.6824,26.3266 -4.6879,42.1282 -9.6019,85.669 -5.3864,128.0418 7.9614,79.9397 46.472,153.055 62.6039,231.7471 6.4251,31.3248 12.1183,62.9081 13.1741,94.9658 0.8659,26.2491 -1.3585,53.283 1.0384,79.3691 1.7047,18.5668 7.1491,36.537 10.059,54.8595 2.5489,16.0425 -3.0886,34.963 -6.468,50.8145 -6.9354,32.4922 -14.9955,66.6134 -15.9863,99.9198 -0.3258,10.9663 -0.9165,22.4621 1.8387,33.184 2.1309,8.2793 5.9484,16.1967 12.417,21.9784 5.475,4.9133 12.4871,7.5488 19.5772,9.1507 17.9045,4.0444 38.7568,3.1191 57.1526,3.4178 26.7997,0.4072 55.0388,1.768 81.6835,-0.9734 8.3037,-0.8415 19.3231,-4.5127 24.9855,-10.946 6.235,-7.0846 5.8773,-19.2837 4.8242,-28.1871 -4.1097,-34.6085 -23.6912,-61.1216 -39.6954,-90.7907 -19.3377,-35.8852 -38.9105,-81.3977 -41.9234,-122.1147 -1.9978,-27.0088 -0.1835,-55.2643 0.8653,-82.3543 2.5678,-66.4501 8.0976,-136.3821 24.5742,-200.9861 11.8106,-46.2815 32.7761,-93.5603 36.1693,-141.3888 3.8469,-54.1953 -6.8284,-108.0944 -24.25,-159.4521 z" /><path
         id="path3"
         style="fill:none;stroke:#020202;stroke-width:4.92837673;stroke-dasharray:none;stroke-opacity:1"
         d="M 625.84188,454.63144 453.56195,386.12169 c -5.99226,12.93267 -11.1989,26.19631 -15.48877,39.97661 -13.93587,44.76663 -19.79088,92.16445 -23.29801,138.77144 -5.9148,78.64016 -3.09701,156.54959 2.76897,235.07843 l 7.57133,78.43889 c 1.90269,31.47947 -5.23393,61.38442 -5.51626,92.43503 -0.27689,30.38001 9.44297,61.44201 28.35997,85.25321 20.26887,25.513 59.42002,53.3068 92.24023,57.6934 2.97512,0.399 4.79179,0.077 7.57133,-0.887 2.37245,-4.164 2.38765,-4.3899 0.99512,-8.999 -2.74432,-9.0988 -12.48892,-19.8621 -17.69524,-28.0572 -20.74919,-32.6683 -37.45115,-75.0631 -24.01193,-113.50496 l 4.11021,-3.0934 c 7.34518,2.29106 12.50381,8.49203 15.943,15.18595 10.13296,19.71494 3.109,52.14531 23.03841,65.39471 5.31764,0.5129 5.58413,0.6763 10.44842,-2.2498 9.48432,-23.2493 4.75658,-103.29382 -5.14846,-126.78734 -6.59062,-15.62962 -18.30449,-26.8931 -26.54291,-41.31769 -23.58307,-41.29223 -11.95475,-91.90292 4.30483,-133.32008 24.79106,-63.15434 64.38576,-119.08963 82.78696,-185.15116 8.75796,-31.43905 8.08245,-64.19517 9.84273,-96.35029 z" /><path
         id="path7"
         style="fill:none;stroke:#e5e5e5;stroke-width:4.92837673;stroke-dasharray:none;stroke-opacity:1"
         d="m 978.85993,1645.21 -214.24665,-9.1721 c -14.89241,49.0938 -25.64543,101.5619 -22.08661,151.1019 3.70513,51.656 20.98487,102.0472 32.5783,152.2919 16.3219,70.7375 24.02018,140.3591 27.49469,212.7539 1.12379,23.4528 3.29921,47.9882 1.81712,71.3866 -1.00436,15.8798 -5.10683,31.8794 -11.03251,46.6176 -11.8756,29.5606 -27.74969,58.9366 -41.66384,87.6542 -13.20856,27.2802 -29.02796,49.0378 -31.12896,80.7969 -0.41802,6.3517 -0.92373,14.3408 1.62243,20.3127 2.90719,6.8402 9.07612,9.0019 15.76997,11.1191 25.64335,8.062 141.11372,9.1643 162.84819,-2.9419 10.95555,-6.1075 16.93988,-17.1905 20.00992,-28.9442 10.0787,-38.5169 -3.91943,-91.0826 -12.02757,-129.2748 -3.25458,-15.3097 -7.99339,-31.6417 -7.22522,-47.4398 1.07499,-22.0412 9.38711,-44.0609 11.14064,-66.5625 1.96528,-25.2445 -0.29073,-51.0744 0.77881,-76.4273 1.94087,-45.9816 10.63568,-92.1947 21.76208,-136.7378 15.10061,-60.451 42.37351,-118.1661 49.81931,-180.3273 6.1609,-51.4706 -1.7232,-104.7423 -6.2301,-156.2071 z" /><path
         id="path8"
         style="fill:none;stroke:#e5e5e5;stroke-width:4.92837673;stroke-dasharray:none;stroke-opacity:1"
         d="M 1507.1863,980.72961 785.42359,958.5999 c -2.62451,11.90737 -5.43243,23.8161 -7.52804,35.71499 -8.13525,46.20521 -10.53055,92.74781 -11.68148,139.57181 -1.0315,41.9925 -1.12448,85.1304 2.29302,127.0035 l 17.04629,134.0987 c 7.09014,42.8317 19.13193,85.2982 16.09446,129.2099 -1.57712,22.7931 -13.96427,43.9969 -21.56745,65.2647 -5.36757,15.0166 -10.6289,30.6249 -15.46711,46.5744 l 214.24665,9.1721 c -0.09,-1.0265 -0.1941,-2.0897 -0.2812,-3.1148 -1.9,-22.34 -4.7187,-45.453 -1.8821,-67.8608 3.2248,-25.4619 12.2121,-51.6381 20.5075,-75.8429 l 32.38357,-94.8793 58.6453,-223.1593 c 15.0596,-70.2062 27.6428,-138.0795 30.6097,-209.98512 l 51.7013,0.21631 2.6175,38.24611 c 13.9468,132.9588 48.2424,266.9413 87.8489,394.4224 16.5336,53.2145 41.3769,105.1555 52.0474,159.9279 5.0137,25.7294 2.8496,51.8895 0,77.8979 l 214.571,-3.4181 c -5.4922,-16.1907 -11.5816,-32.1566 -18.1926,-47.7641 l -16.2892,-37.8132 c -2.6437,-6.1457 -6.7571,-13.6818 -7.5281,-20.2261 -2.1552,-18.3201 1.3242,-38.8041 4.3698,-56.8499 l 22.7788,-109.2433 c 23.7575,-129.4923 20.0801,-258.403 -5.5812,-385.03409 z" /><path
         id="path9"
         style="fill:none;stroke:#e5e5e5;stroke-width:4.92837673;stroke-dasharray:none;stroke-opacity:1"
         d="m 1408.3699,650.75016 -514.67647,-9.25868 c -0.52993,3.53883 -1.07338,6.7317 -1.68734,8.73939 -3.08908,10.11119 -9.75091,20.20189 -13.93123,30.13391 l -36.19087,91.11539 c -21.98289,60.40898 -42.48181,123.69849 -56.4604,187.11973 l 721.76271,22.12971 c -9.308,-45.93278 -21.3255,-91.57682 -36.2341,-136.82442 -20.0353,-60.80342 -44.6491,-120.43495 -60.2027,-182.64179 -0.8805,-3.52082 -1.5872,-7.00787 -2.3796,-10.51324 z" /><path
         id="path10"
         style="fill:none;stroke:#e5e5e5;stroke-width:4.92837673;stroke-dasharray:none;stroke-opacity:1"
         d="M 1417.0228,346.01544 871.02274,335.82655 c 1.47384,2.87725 2.94559,5.75306 4.56444,8.43664 23.36956,79.60462 27.67903,92.12035 24.72576,176.39009 -0.60996,17.35577 -2.25921,91.72127 -6.61951,120.8382 l 514.67647,9.25868 c -12.3154,-54.47986 -14.3261,-107.30295 -11.7247,-163.5405 2.6927,-58.19762 7.4089,-53.15111 17.3491,-124.47249 1.0296,-6.14615 2.0212,-11.59991 3.0285,-16.72173 z" /><path
         id="path11"
         style="fill:none;stroke:#e5e5e5;stroke-width:4.92837673;stroke-dasharray:none;stroke-opacity:1"
         d="m 1504.4823,8.4645011 -703.39692,-9.69137 -5.64603,167.9751289 c 0.47162,-0.90397 1.3797,-2.19975 1.81713,-3.07179 9.35654,18.59105 20.76189,69.01648 33.3787,85.66402 17.94504,23.67366 26.28683,58.95907 40.38756,86.48606 l 546.00006,10.18889 c 7.6867,-39.086 16.1677,-52.35405 47.4614,-99.03291 33.6437,-50.18447 42.6699,-83.30862 46.8772,-86.91859 0.1353,0.37452 0.2961,0.72904 0.4326,1.10324 z" /><path
         id="path12"
         style="fill:none;stroke:#e5e5e5;stroke-width:4.92837673;stroke-dasharray:none;stroke-opacity:1"
         d="m 1032.0971,-349.61547 c -0.013,0.032 -0.01,0.31754 -0.022,0.34611 -52.75497,41.3733 -113.86502,62.69772 -171.63089,95.39853 -11.9219,6.74811 -23.21456,14.40658 -34.39542,22.3029 -5.12064,3.61629 -11.90999,9.79453 -17.63034,12.24396 l -7.33339,218.0971011 703.39704,9.69137 -10.6432,-222.6833011 c -1.2851,-0.2344 -3.3679,-0.11924 -4.2832,-0.49752 -4.7231,-1.95439 -10.3775,-6.88431 -14.7532,-9.7562 -11.5281,-7.56516 -22.9436,-15.40338 -34.9795,-22.15148 l -81.0779,-42.61571 c -35.0352,-17.4374 -69.503,-33.98147 -99.617,-59.44562 l 0.022,-0.93014 z" /><path
         id="path1"
         style="fill:none;stroke:#e5e5e5;stroke-width:4.92837673;stroke-dasharray:none;stroke-opacity:1"
         d="m 1148.7277,-816.63596 c -5.7654,-0.2607 -11.7513,-0.5377 -17.5005,0.043 -39.4193,4.7693 -75.5524,19.792 -100.547,51.9176 -30.68427,39.4356 -33.97547,114.6518 -27.8626,163.1727 -3.66167,3.65094 -4.82097,1.75784 -8.39317,3.80731 -5.4724,3.13789 -7.6065,11.73491 -7.6363,17.52214 -0.062,12.18523 3.1198,23.70679 5.4297,35.56359 4.0283,20.68685 6.7327,48.69327 23.06007,63.79375 2.5761,2.38061 5.742,4.22625 8.9125,5.68928 2.0004,12.27245 5.8846,117.84436 2.5527,125.51084 h 227.0529 l 2.6175,-81.01309 c 0.2227,-12.16889 -2.2145,-33.37135 1.9903,-44.45445 l 1.6007,-1.40614 c 19.3133,-17.25302 23.1595,-39.11889 28.2735,-63.20964 2.5027,-11.7835 5.4467,-23.87645 5.9273,-35.93131 0.2795,-6.94904 0.7396,-13.53749 -3.18,-19.62058 -3.0429,-2.27194 -6.2418,-4.42391 -8.8477,-7.20353 3.0864,-55.07897 4.1833,-124.21277 -34.5901,-167.95347 -24.6065,-27.758 -62.0055,-44.5725 -98.8598,-46.2283 z" /><g
         id="body"
         transform="matrix(1.0609646,0,0,1.0609646,6.1398883,-363.2835)"><path
           fill="#37b2df"
           d="m 283.17389,596.49529 c 7.29878,0.33206 8.88162,-0.0804 16.00924,0.0851 0.24196,2.35569 0.33325,4.67189 0.92537,6.98158 0.21806,0.85086 0.4925,1.77406 0.99588,2.50285 l 16.01311,4.53618 4.00828,1.04672 c 1.93273,0.46715 3.81933,0.85727 5.56272,1.86704 2.18883,1.26767 3.9146,3.27912 5.0637,5.51213 1.77008,3.43983 1.78687,7.37701 2.35122,11.1269 l -11.04878,5.03231 -1.42198,0.67869 c -0.29486,0.12678 -0.63934,0.21975 -0.90678,0.39192 l -0.59345,3.61479 -1.32044,5.61984 -2.38781,8.10544 -3.20945,9.55447 c -1.97909,6.59701 -2.50721,13.63264 -1.22409,20.41476 0.87817,4.64136 2.58945,9.06653 4.01324,13.55455 -0.13414,0.19564 -0.56192,0.36106 -0.78083,0.47331 -1.10697,0.56509 -2.26054,1.03232 -3.43657,1.43319 -7.0731,2.41002 -14.30448,3.24558 -21.75211,3.10431 -8.13756,-0.15454 -16.27934,-1.50682 -23.6363,-5.12186 0.49613,-0.95869 0.87937,-2.02123 1.25632,-3.03428 l 1.8831,-5.71358 c 0.89796,-3.03667 1.66371,-6.12763 1.94359,-9.28991 0.87418,-9.87668 -3.30531,-19.13342 -6.39017,-28.24646 -1.3144,-3.88248 -2.30932,-7.96381 -3.19666,-11.96352 l -0.36234,-2.37887 c -1.65985,-0.59948 -3.27817,-1.56409 -4.86979,-2.33418 l -8.36781,-4.052 0.69873,-5.17419 c 0.85173,-5.06344 3.15536,-9.80089 8.12778,-11.8773 2.24013,-0.93552 4.81304,-1.44191 7.16087,-2.06228 l 11.29691,-3.18688 3.34118,-0.99709 c 0.80258,-0.24161 1.7562,-0.45013 2.43888,-0.93551 1.45398,-2.80425 1.72577,-6.15811 1.81524,-9.2682 z"
           id="path5-3"
           sodipodi:nodetypes="ccccccccccccccccccccccccscccccccccccc"
           style="fill:none;stroke:#000000;stroke-width:2.10451;stroke-dasharray:none;stroke-opacity:1" /><path
           fill="#26A4D4"
           d="m 291.26778,657.48848 0.0627,0.0529 0.0441,34.39004 -0.0811,0.1627 c -0.12182,-0.92567 -0.0889,-1.92401 -0.11397,-2.85943 l -0.14428,-3.72601 -0.23966,-11.24502 0.22097,-8.86765 0.14825,-5.96255 c 0.0297,-0.65042 -0.0152,-1.30151 0.10303,-1.94505 z"
           id="path6-7"
           style="fill:#6f838b;fill-opacity:1;stroke-width:0.0990362;stroke-dasharray:none" /><path
           fill="#26A4D4"
           d="m 320.65964,629.12126 c -0.14503,1.18222 -0.44555,2.36517 -0.73139,3.52033 -0.29654,1.19846 -0.60848,2.45583 -1.09383,3.59369 -0.39492,0.92548 -0.96492,1.81969 -1.46818,2.69177 -1.54792,2.68216 -3.10979,5.22674 -5.37214,7.38061 -3.03293,2.88755 -6.79305,4.3086 -10.97477,4.21251 l -0.067,-0.0393 -0.0154,-0.0762 0.80173,-0.21946 c 4.45387,-1.19413 8.3186,-3.98271 11.14747,-7.59696 2.0068,-2.56394 3.57192,-5.48384 5.08832,-8.35467 z"
           id="path7-7"
           style="fill:#768084;fill-opacity:1;stroke-width:0.123795;stroke-dasharray:none" /><path
           fill="#26A4D4"
           d="m 260.34705,627.90946 c 0.25767,0.30548 0.40388,0.99081 0.55385,1.37381 l 1.14271,2.73433 c 0.81392,1.81983 1.66491,3.62625 2.65596,5.35758 2.92933,5.11694 6.90406,10.40111 12.73109,12.34639 0.86705,0.28943 1.82695,0.54564 2.73252,0.67255 0.78048,0.10927 1.5775,0.12774 2.33998,0.33457 l -1.21309,0.0885 c -4.54064,0.21251 -9.08406,-1.42355 -12.44396,-4.47471 -3.16985,-2.8785 -5.15847,-6.66571 -6.66209,-10.61978 -0.93322,-2.45445 -1.71502,-5.17864 -1.83697,-7.81324 z"
           id="path8-0"
           style="fill:#6c858e;fill-opacity:1;stroke-width:0.120743" /><text
           xml:space="preserve"
           style="font-style:normal;font-variant:normal;font-weight:normal;font-stretch:normal;font-size:113.547px;font-family:Amiri;-inkscape-font-specification:'Amiri, Normal';font-variant-ligatures:normal;font-variant-caps:normal;font-variant-numeric:normal;font-variant-east-asian:normal;fill:#000000;fill-opacity:1;stroke:none;stroke-width:0.215296;stroke-dasharray:none;stroke-opacity:1;paint-order:markers fill stroke"
           x="339.74225"
           y="684.15222"
           id="text1"><tspan
             sodipodi:role="line"
             id="tspan1"
             x="339.74225"
             y="684.15222"
             style="stroke-width:0.215296;stroke:none">Body: -1</tspan></text><path
           id="rect1"
           d="m 282.50527,648.92026 h 17.61435 l -5.26564,1.30119 -0.49288,12.72354 -7.11349,-0.0649 -0.0833,-12.65856 z"
           sodipodi:nodetypes="ccccccc"
           style="stroke-width:2.53663" /><path
           style="fill:#000000;fill-opacity:1;stroke-width:2.10969"
           id="path2-6-0"
           sodipodi:type="arc"
           sodipodi:cx="291.00009"
           sodipodi:cy="624.9527"
           sodipodi:rx="8.5723772"
           sodipodi:ry="8.5723772"
           sodipodi:start="0.027304543"
           sodipodi:end="6.2831853"
           sodipodi:open="true"
           sodipodi:arc-type="arc"
           d="m 299.56927,625.18673 a 8.5723772,8.5723772 0 0 1 -8.74471,8.33655 8.5723772,8.5723772 0 0 1 -8.39605,-8.68761 8.5723772,8.5723772 0 0 1 8.6301,-8.45515 8.5723772,8.5723772 0 0 1 8.51386,8.57218" /><path
           style="fill:#000000;fill-opacity:1;stroke-width:2.10969"
           id="path2-6-0-7"
           sodipodi:type="arc"
           sodipodi:cx="282.51749"
           sodipodi:cy="640.08997"
           sodipodi:rx="8.5723772"
           sodipodi:ry="8.5723772"
           sodipodi:start="0.027304543"
           sodipodi:end="6.2831853"
           sodipodi:open="true"
           sodipodi:arc-type="arc"
           d="m 291.08667,640.324 a 8.5723772,8.5723772 0 0 1 -8.74472,8.33655 8.5723772,8.5723772 0 0 1 -8.39604,-8.68761 8.5723772,8.5723772 0 0 1 8.63009,-8.45515 8.5723772,8.5723772 0 0 1 8.51386,8.57218" /><path
           style="fill:#000000;fill-opacity:1;stroke-width:2.10969"
           id="path2-6-0-9"
           sodipodi:type="arc"
           sodipodi:cx="299.66608"
           sodipodi:cy="640.08997"
           sodipodi:rx="8.5723772"
           sodipodi:ry="8.5723772"
           sodipodi:start="0.027304543"
           sodipodi:end="6.2831853"
           sodipodi:open="true"
           sodipodi:arc-type="arc"
           d="m 308.23526,640.324 a 8.5723772,8.5723772 0 0 1 -8.74472,8.33655 8.5723772,8.5723772 0 0 1 -8.39604,-8.68761 8.5723772,8.5723772 0 0 1 8.63009,-8.45515 8.5723772,8.5723772 0 0 1 8.51386,8.57218" /><path
           sodipodi:type="star"
           style="fill:#000000"
           id="path1-99"
           inkscape:flatsided="false"
           sodipodi:sides="3"
           sodipodi:cx="-4.2679658"
           sodipodi:cy="5.2618756"
           sodipodi:r1="0.76004869"
           sodipodi:r2="0.33594152"
           sodipodi:arg1="1.5707963"
           sodipodi:arg2="2.6179939"
           inkscape:rounded="0"
           inkscape:randomized="0"
           d="m -4.2679658,6.0219243 -0.2909339,-0.5920779 -0.3672876,-0.5479951 0.6582215,0.044083 0.6582215,-0.044083 -0.3672876,0.5479951 z"
           inkscape:transform-center-y="0.21087664"
           transform="matrix(4.5466021,0,0,4.5466021,310.29061,582.85793)" /><path
           sodipodi:type="star"
           style="fill:#000000"
           id="path1-7"
           inkscape:flatsided="false"
           sodipodi:sides="3"
           sodipodi:cx="-4.2679658"
           sodipodi:cy="5.2618756"
           sodipodi:r1="0.76004869"
           sodipodi:r2="0.33594152"
           sodipodi:arg1="1.5707963"
           sodipodi:arg2="2.6179939"
           inkscape:rounded="0"
           inkscape:randomized="0"
           d="m -4.2679658,6.0219243 -0.2909339,-0.5920779 -0.3672876,-0.5479951 0.6582215,0.044083 0.6582215,-0.044083 -0.3672876,0.5479951 z"
           inkscape:transform-center-y="-0.1986054"
           transform="matrix(2.1410252,4.0109351,-4.0109351,2.1410252,320.82082,620.19352)"
           inkscape:transform-center-x="0.014034468" /><path
           sodipodi:type="star"
           style="fill:#000000"
           id="path1-9"
           inkscape:flatsided="false"
           sodipodi:sides="3"
           sodipodi:cx="-4.2679658"
           sodipodi:cy="5.2618756"
           sodipodi:r1="0.76004869"
           sodipodi:r2="0.33594152"
           sodipodi:arg1="1.5707963"
           sodipodi:arg2="2.6179939"
           inkscape:rounded="0"
           inkscape:randomized="0"
           d="m -4.2679658,6.0219243 -0.2909339,-0.5920779 -0.3672876,-0.5479951 0.6582215,0.044083 0.6582215,-0.044083 -0.3672876,0.5479951 z"
           inkscape:transform-center-y="0.0047987713"
           transform="matrix(-0.05177666,-4.5463077,4.5463077,-0.05177666,263.24506,591.48829)"
           inkscape:transform-center-x="-0.2066996" /><path
           sodipodi:type="star"
           style="fill:#000000"
           id="path1-5"
           inkscape:flatsided="false"
           sodipodi:sides="3"
           sodipodi:cx="-4.2679658"
           sodipodi:cy="5.2618756"
           sodipodi:r1="0.76004869"
           sodipodi:r2="0.33594152"
           sodipodi:arg1="1.5707963"
           sodipodi:arg2="2.6179939"
           inkscape:rounded="0"
           inkscape:randomized="0"
           d="m -4.2679658,6.0219243 -0.2909339,-0.5920779 -0.3672876,-0.5479951 0.6582215,0.044083 0.6582215,-0.044083 -0.3672876,0.5479951 z"
           inkscape:transform-center-y="0.024724087"
           transform="matrix(-0.26655543,4.5387818,-4.5387818,-0.26655543,316.77845,631.68679)"
           inkscape:transform-center-x="0.18910257" /></g></g></g></svg>
