<?xml version="1.0" encoding="UTF-8" standalone="no"?>
<!-- Created with Inkscape (http://www.inkscape.org/) -->

<svg
   width="63mm"
   height="88mm"
   viewBox="0 0 63 88"
   version="1.1"
   id="svg1"
   inkscape:version="1.3.2 (091e20e, 2023-11-25, custom)"
   xml:space="preserve"
   sodipodi:docname="card-disorder-foot-right.svg"
   xmlns:inkscape="http://www.inkscape.org/namespaces/inkscape"
   xmlns:sodipodi="http://sodipodi.sourceforge.net/DTD/sodipodi-0.dtd"
   xmlns="http://www.w3.org/2000/svg"
   xmlns:svg="http://www.w3.org/2000/svg"><sodipodi:namedview
     id="namedview1"
     pagecolor="#ffffff"
     bordercolor="#000000"
     borderopacity="0.25"
     inkscape:showpageshadow="2"
     inkscape:pageopacity="0.0"
     inkscape:pagecheckerboard="0"
     inkscape:deskcolor="#d1d1d1"
     inkscape:document-units="mm"
     inkscape:zoom="1.4627806"
     inkscape:cx="148.68942"
     inkscape:cy="240.29578"
     inkscape:window-width="1350"
     inkscape:window-height="1017"
     inkscape:window-x="228"
     inkscape:window-y="0"
     inkscape:window-maximized="0"
     inkscape:current-layer="layer1" /><defs
     id="defs1" /><g
     inkscape:label="Layer 1"
     inkscape:groupmode="layer"
     id="layer1"><g
       id="g1"
       transform="matrix(0.06087197,0,0,0.06087197,0.03359486,0.54402301)"><path
         id="path2"
         style="fill:none;stroke:#e4e4e4;stroke-width:4.92838;stroke-dasharray:none;stroke-opacity:1"
         d="m 1503.0992,-958.67148 -162.1195,68.70646 4.0597,46.92461 c 3.1466,25.2452 8.4371,50.92488 14.4265,75.64697 6.6604,27.49091 17.0776,55.25845 28.7005,81.08143 25.5984,56.88523 81.5058,147.11617 64.7342,211.4231 -0.512,1.96635 -1.061,3.84501 -1.8552,5.71819 -7.8051,18.43137 -24.7968,33.00273 -33.9167,50.83146 -7.1261,13.92349 -8.4088,29.97061 -10.3888,45.24416 l -6.6133,60.58734 c -0.7283,10.16333 -3.1248,21.36184 -0.6983,31.31961 l 4.5834,4.56134 c 7.912,-1.51711 16.0792,-6.89763 21.258,-13.07329 3.3137,-22.48995 5.0624,-60.16604 24.5754,-74.70848 3.0043,-2.23748 3.2487,-2.06348 6.9186,-1.78961 10.5001,20.67975 11.0082,46.23339 3.9068,67.81149 -4.6503,14.12889 -12.4678,31.04889 -21.018,43.30171 -7.6353,10.94103 -26.1874,24.87461 -29.7916,37.19056 -0.6066,2.07034 -0.038,6.32059 -0.043,8.62104 4.0724,4.84199 4.4263,5.5542 10.4979,7.04959 41.7923,-12.26662 96.7433,-42.26985 118.272,-80.84139 6.2771,-11.25043 9.891,-24.72323 11.6767,-37.43064 l 0.4146,-2.75001 c 2.0321,-14.79985 -0.9715,-31.79187 -2.2915,-46.64105 -1.9391,-21.78323 -3.0939,-43.22589 -2.3573,-65.10528 l 8.7959,-109.86913 c 9.7824,-111.7491 18.137,-226.08302 -16.8057,-334.54023 -8.7446,-27.13825 -20.5114,-54.3016 -34.9207,-79.26995 z" /><path
         id="path5"
         style="fill:none;stroke:#e4e4e4;stroke-width:4.92838;stroke-dasharray:none;stroke-opacity:1"
         d="m 1172.5966,-1545.3391 18.1151,378.7368 c 23.2925,63.8267 63.4892,116.8567 90.8811,157.0121 l 35.5536,50.24202 c 6.2169,8.4708 15.8276,18.8227 19.7083,28.56946 3.0702,7.70673 2.3904,19.2865 2.9902,27.5656 l 1.1348,13.2481 162.1195,-68.70646 c -2.4688,-4.2779 -4.8527,-8.6407 -7.4862,-12.7679 l -18.7262,-27.5656 c -2.2512,-3.18782 -6.8919,-8.07072 -8.1628,-11.41462 -1.09,-2.8701 -0.5367,-9.7953 -0.7201,-13.0516 l -2.4664,-35.8809 c -3.8862,-36.5176 -10.9483,-73.3622 -23.7241,-107.8832 -10.8698,-29.3614 -24.4366,-58.65 -40.0716,-85.7958 -6.6413,-11.5271 -16.5667,-23.0322 -21.9563,-34.8989 -1.7008,-3.741 -1.5279,-7.8445 -1.5279,-11.8511 0,-68.9628 -19.7829,-142.7195 -70.0814,-192.4786 -28.4138,-28.1043 -68.6863,-48.3774 -108.7997,-51.5953 -6.5549,-0.5281 -19.0124,-0.067 -26.7799,-1.4841 z" /><path
         id="path3"
         style="fill:none;stroke:#e4e4e4;stroke-width:4.92838;stroke-dasharray:none;stroke-opacity:1"
         d="m 296.85102,-870.51849 -173.81775,-69.12129 c -6.04574,13.04809 -11.29887,26.43013 -15.62703,40.33344 -14.060307,45.16624 -19.967577,92.98715 -23.505969,140.01017 -5.967599,79.34213 -3.124663,157.94705 2.793652,237.17689 l 7.638898,79.13907 c 1.919736,31.76046 -5.280645,61.93236 -5.565481,93.26013 -0.279329,30.65117 9.527291,61.99044 28.61314,86.01413 20.44976,25.74071 59.95039,53.78268 93.06363,58.20846 3.00164,0.40249 4.83451,0.0775 7.63892,-0.89493 2.39361,-4.20123 2.40892,-4.42916 1.00396,-9.0794 -2.7688,-9.18 -12.60038,-20.0394 -17.8532,-28.3076 -20.93441,-32.95994 -37.78545,-75.73308 -24.22623,-114.5181 l 4.14684,-3.12101 c 7.4108,2.31151 12.61544,8.56783 16.08534,15.32151 10.22343,19.89092 3.13675,52.61068 23.24408,65.97836 5.36508,0.51754 5.63394,0.68234 10.54168,-2.26985 9.56897,-23.45689 4.79902,-104.2158 -5.19445,-127.91904 -6.64942,-15.76913 -18.46789,-27.13315 -26.77982,-41.6865 -23.7936,-41.66083 -12.06147,-92.72329 4.34329,-134.51015 25.01233,-63.71811 64.96046,-120.15273 83.52591,-186.80395 8.83614,-31.71968 8.1546,-64.76819 9.93059,-97.21034 z" /><path
         id="path6"
         style="fill:none;stroke:#e4e4e4;stroke-width:4.92838;stroke-dasharray:none;stroke-opacity:1"
         d="m 481.05766,-1550.4899 c -0.10271,0.044 -0.22541,0.1549 -0.32738,0.1964 -6.59204,2.6839 -21.03761,0.6875 -28.72226,1.3969 -10.49193,0.9667 -21.01458,3.2024 -31.12308,6.1329 -61.67494,17.8725 -112.99166,63.6648 -136.82362,123.4664 -9.33347,23.4212 -13.94829,49.4318 -17.02386,74.3812 l -3.73214,44.1746 c -0.30946,4.0533 0.18818,12.697 -1.22222,16.2381 -4.03954,10.1331 -17.1007,23.002 -23.37504,32.8036 -18.61201,29.0711 -34.11668,60.3777 -45.3096,93.0419 -9.77987,28.5424 -15.93059,58.0317 -20.71234,87.7819 -3.53841,22.0272 -5.8903,45.4894 -12.24407,66.8949 -3.69724,12.45542 -15.92319,24.68752 -22.63297,36.01192 -5.47664,9.2409 -10.31672,18.7058 -14.77581,28.3294 l 173.81775,69.12129 c 1.41498,-25.84786 4.35426,-51.32019 15.16865,-75.36329 11.58741,-25.7628 37.74947,-46.5594 54.93461,-69.27392 26.31525,-34.7808 79.96379,-105.4794 101.00811,-145.8157 z" /><path
         id="path4"
         style="fill:none;stroke:#e4e4e4;stroke-width:4.92838;stroke-dasharray:none;stroke-opacity:1"
         d="m 1206.6878,323.07057 -216.48639,3.44858 c -0.97115,8.86366 -1.72922,17.77956 -2.70634,26.56159 -4.72976,42.50432 -9.68769,86.43379 -5.43454,129.18477 8.03252,80.65327 46.88677,154.42126 63.16287,233.81579 6.4825,31.60439 12.2264,63.46965 13.2917,95.81354 0.8736,26.48336 -1.3707,53.75862 1.0476,80.07751 1.7199,18.73251 7.213,36.86321 10.1488,55.34921 2.5716,16.1858 -3.1161,35.27514 -6.5258,51.26804 -6.9972,32.7823 -15.1293,67.208 -16.129,100.8118 -0.3286,11.0642 -0.9246,22.6626 1.8552,33.4801 2.15,8.3533 6.0015,16.3414 12.5278,22.1747 5.524,4.9571 12.5986,7.6161 19.752,9.2323 18.0643,4.0806 39.1028,3.147 57.6629,3.4484 27.0388,0.4108 55.53,1.7838 82.4126,-0.9822 8.3777,-0.849 19.4956,-4.5529 25.2084,-11.0436 6.2907,-7.1479 5.9298,-19.4559 4.8673,-28.4387 -4.1463,-34.9174 -23.9026,-61.6672 -40.0497,-91.6012 -19.5104,-36.2055 -39.2578,-82.12424 -42.2977,-123.20474 -2.0156,-27.24989 -0.185,-55.75757 0.8731,-83.08934 2.5908,-67.0433 8.1698,-137.59952 24.7935,-202.78022 11.9161,-46.69465 33.0687,-94.3955 36.4922,-142.65094 3.8812,-54.67906 -6.8893,-109.0593 -24.4665,-160.87539 z" /><path
         id="path8"
         style="fill:none;stroke:#e4e4e4;stroke-width:4.92838;stroke-dasharray:none;stroke-opacity:1"
         d="m 1186.0629,-339.72412 -728.20567,-22.32725 c -2.64794,12.01366 -5.48092,24.02869 -7.59524,36.0338 -8.20787,46.61758 -10.62455,93.57561 -11.78575,140.81761 -1.04071,42.36738 -1.13452,85.890327 2.31348,128.137177 L 457.98817,78.23297 c 7.15343,43.21395 19.30271,86.05955 16.23813,130.36324 -1.5912,22.99665 -14.08892,44.38966 -21.75997,65.84735 -5.41548,15.15058 -10.72378,30.89823 -15.60517,46.99016 l 216.15908,9.25396 c -0.0907,-1.03573 -0.19586,-2.10837 -0.28372,-3.14265 -1.91693,-22.53944 -4.76074,-45.85875 -1.89883,-68.4665 3.25356,-25.6892 12.32109,-52.09915 20.69051,-76.52 l 32.67271,-95.726238 59.1687,-225.151242 c 15.1941,-70.83293 27.88961,-139.3121 30.88297,-211.85949 l 52.16279,0.21824 2.64085,38.58748 c 14.07133,134.14562 48.67312,269.324067 88.63319,397.943092 16.68118,53.689498 41.74625,106.094178 52.512,161.355508 5.05845,25.95912 2.87499,52.35277 0,78.59327 l 216.48639,-3.44858 c -5.5412,-16.3352 -11.6849,-32.44368 -18.3549,-48.19045 l -16.4347,-38.15081 c -2.6672,-6.20052 -6.8174,-13.80383 -7.5952,-20.4066 -2.1745,-18.48369 1.336,-39.15052 4.4087,-57.35743 l 22.9823,-110.2184 c 23.9695,-130.648193 20.2592,-260.70965 -5.6311,-388.471 z" /><path
         id="path9"
         style="fill:none;stroke:#e4e4e4;stroke-width:4.92838;stroke-dasharray:none;stroke-opacity:1"
         d="m 1086.3644,-672.64915 -519.27089,-9.34132 c -0.53467,3.57042 -1.08298,6.79179 -1.70239,8.8174 -3.11661,10.20145 -9.83798,20.38225 -14.05558,30.40292 l -36.51393,91.92875 c -22.17912,60.94821 -42.86102,124.80267 -56.96438,188.79003 l 728.20567,22.32725 c -9.3911,-46.34279 -21.5158,-92.39427 -36.5576,-138.04576 -20.2141,-61.34618 -45.0477,-121.51001 -60.7401,-184.27218 -0.8884,-3.55225 -1.6014,-7.07042 -2.4008,-10.60709 z" /><path
         id="path10"
         style="fill:none;stroke:#e4e4e4;stroke-width:4.92838;stroke-dasharray:none;stroke-opacity:1"
         d="m 1095.0945,-980.10408 -550.87404,-10.2798 c 1.487,2.9029 2.97191,5.8044 4.60519,8.5119 23.57819,80.31525 27.92615,92.9427 24.94645,177.96466 -0.61537,17.5107 -2.27939,92.54001 -6.67859,121.91685 l 519.27089,9.34132 c -12.4254,-54.96617 -14.454,-108.26077 -11.8294,-165.00032 2.7167,-58.71712 7.475,-53.62556 17.504,-125.58361 1.0387,-6.201 2.0392,-11.7034 3.0555,-16.871 z" /><path
         id="path11"
         style="fill:none;stroke:#e4e4e4;stroke-width:4.92838;stroke-dasharray:none;stroke-opacity:1"
         d="m 1183.3348,-1320.6681 -709.67598,-9.7779 -5.69643,169.4746 c 0.47583,-0.9121 1.39202,-2.2194 1.83335,-3.0992 9.44006,18.757 20.94722,69.6325 33.67665,86.4287 18.10523,23.885 26.52147,59.4854 40.74807,87.25802 l 550.87404,10.2798 c 7.7553,-39.43482 16.312,-52.82132 47.8851,-99.91682 33.9441,-50.6325 43.0507,-84.0523 47.2957,-87.6945 0.1365,0.3779 0.2987,0.7355 0.4364,1.1131 z" /><path
         id="path12"
         style="fill:none;stroke:#e4e4e4;stroke-width:4.92838;stroke-dasharray:none;stroke-opacity:1"
         d="m 706.73268,-1681.9444 c -0.0129,0.032 -0.008,0.3204 -0.0218,0.3492 -53.2259,41.7426 -114.88141,63.2574 -173.16297,96.2501 -12.02831,6.8083 -23.42178,14.5352 -34.70245,22.502 -5.16635,3.6485 -12.0163,9.8819 -17.78771,12.3532 l -7.39885,220.0439 709.676,9.7779 -10.7382,-224.671 c -1.2965,-0.2365 -3.3979,-0.1203 -4.3214,-0.502 -4.7653,-1.9718 -10.4701,-6.9458 -14.8849,-9.8433 -11.631,-7.6327 -23.1484,-15.5409 -35.2917,-22.3492 l -81.8017,-42.9961 c -35.348,-17.5931 -70.12356,-34.2848 -100.50635,-59.9763 l 0.0218,-0.9384 z" /><path
         id="path7"
         style="fill:none;stroke:#000000;stroke-width:4.92838;stroke-dasharray:none;stroke-opacity:1"
         d="m 653.02024,330.68768 -216.15908,-9.25396 c -15.02535,49.53203 -25.87435,102.46848 -22.28377,152.45063 3.7382,52.11709 21.17219,102.95816 32.8691,153.65132 16.4676,71.36895 24.2346,141.61206 27.74012,214.65306 1.13382,23.66214 3.32867,48.41653 1.83334,72.02383 -1.01332,16.0215 -5.15241,32.1639 -11.13098,47.0337 -11.98161,29.82444 -27.9974,59.46264 -42.03576,88.43664 -13.32646,27.5237 -29.28707,49.4755 -31.40682,81.5181 -0.42176,6.4084 -0.93198,14.4688 1.63691,20.4941 2.93314,6.9012 9.15714,9.0822 15.91074,11.2183 25.87225,8.134 142.37333,9.2461 164.30186,-2.9682 11.05335,-6.162 17.09111,-17.3439 20.18855,-29.2025 10.16864,-38.8607 -3.95448,-91.8957 -12.13496,-130.4288 -3.28366,-15.4464 -8.06473,-31.92404 -7.28969,-47.86324 1.08454,-22.238 9.47088,-44.4542 11.24009,-67.15666 1.98279,-25.46983 -0.29332,-51.53027 0.78572,-77.1095 1.95817,-46.39212 10.73064,-93.01775 21.95638,-137.9584 15.23532,-60.99061 42.75179,-119.22094 50.26399,-181.93696 6.21595,-51.9301 -1.73857,-105.67725 -6.28574,-157.60146 z" /><path
         id="path1"
         style="fill:none;stroke:#e4e4e4;stroke-width:4.92838;stroke-dasharray:none;stroke-opacity:1"
         d="m 824.40438,-2153.1337 c -5.81685,-0.2631 -11.85622,-0.5425 -17.65676,0.044 -39.77118,4.8118 -76.22677,19.9686 -101.44453,52.381 -30.95814,39.7876 -34.2787,115.6752 -28.11118,164.6292 -3.69448,3.6836 -4.86417,1.7736 -8.46826,3.8413 -5.5212,3.1659 -7.67431,11.8397 -7.70438,17.6786 -0.0631,12.294 3.14756,23.9184 5.47818,35.881 4.06421,20.8715 6.79274,49.128 23.2659,64.3632 2.59902,2.4019 5.79329,4.264 8.99208,5.7401 2.01824,12.382 5.93711,118.8963 2.57541,126.6312 H 930.4106 l 2.64085,-81.7362 c 0.2247,-12.2776 -2.23424,-33.6693 2.00801,-44.8513 l 1.61505,-1.4187 c 19.48568,-17.407 23.36622,-39.4681 28.52585,-63.7739 2.52507,-11.8887 5.49534,-24.0896 5.98018,-36.252 0.28203,-7.0111 0.74628,-13.6584 -3.20829,-19.7957 -3.07015,-2.2923 -6.29758,-4.4634 -8.92672,-7.2679 3.11399,-55.5707 4.22061,-125.3215 -34.89884,-169.4526 -24.8262,-28.0058 -62.5591,-44.9704 -99.74231,-46.641 z" /></g><g
       id="mind"
       transform="matrix(0.05173302,0,0,0.05173302,-3.9566003,-18.420228)"
       inkscape:label="mind"><path
         fill="#8751D1"
         d="m 411.69208,747.05319 c -0.24812,-0.0337 -0.61135,0.0446 -0.86853,0.0689 l -1.88364,0.18649 c -3.72501,0.33108 -8.57419,0.88378 -11.91731,-1.09865 -2.31419,-1.37162 -3.71541,-3.91758 -3.77797,-6.58974 -0.0316,-1.35445 0.21513,-2.71607 0.33824,-4.0627 0.155,-1.69621 0.11689,-3.55812 -0.36243,-5.20298 -0.34838,-1.19595 -1.45608,-1.90027 -2.27878,-2.7777 -0.32433,-0.34581 -0.66149,-0.6965 -0.75798,-1.17919 -0.0843,-0.42203 0.004,-0.78231 0.23041,-1.14312 0.70459,-1.12593 2.04783,-1.75635 3.29176,-2.05337 -1.46785,-0.66041 -2.98109,-1.155 -3.73973,-2.6996 -0.0738,-0.9685 0.67715,-1.48648 1.22594,-2.20552 0.44256,-0.57988 0.90959,-1.29285 1.14594,-1.98636 0.30595,-0.89757 0.39325,-2.0065 -0.0624,-2.87055 -0.32352,-0.61365 -0.91203,-0.94972 -1.54743,-1.15905 -1.07176,-0.35298 -2.44501,-0.17271 -3.57501,-0.2446 -1.08391,-0.069 -2.38392,-0.43067 -3.12283,-1.2777 -1.58244,-1.81365 -0.5669,-3.34163 0.31594,-5.1823 l 4.40663,-9.12569 c 1.32702,-2.79188 2.80864,-5.68878 3.46581,-8.72446 0.23121,-1.06798 0.27838,-2.21095 0.16162,-3.29905 -0.15554,-1.45068 -0.55595,-2.89231 -0.77594,-4.33731 -0.50258,-3.30135 -0.63447,-6.64149 -0.43325,-9.97311 l 5.83284,-17.18719 c 3.39416,-6.96905 6.91022,-12.09437 11.932,-16.32738 9.62457,-8.97887 13.47758,-9.65632 15.94441,-10.766 10.19556,-3.45889 25.31639,-3.25762 29.84348,-1.68229 4.3097,1.27835 11.02166,3.75073 14.87564,7.31267 8.36058,7.72704 13.11125,14.18473 17.04402,28.18178 1.13234,11.82468 2.47464,18.22573 -8.91699,38.68708 -4.82517,4.50903 -3.58578,9.81468 -4.72292,21.93709 -2.70104,8.57625 1.50951,26.66266 -1.8586,27.09779 z"
         id="path2-3"
         style="fill:none;fill-opacity:1;stroke:#d15151;stroke-width:2.32259;stroke-dasharray:none;stroke-opacity:1"
         sodipodi:nodetypes="ccccccccccccscccccccscccccccsccccc" /><text
         xml:space="preserve"
         style="font-style:normal;font-variant:normal;font-weight:normal;font-stretch:normal;font-size:148.144px;font-family:Amiri;-inkscape-font-specification:'Amiri, Normal';font-variant-ligatures:normal;font-variant-caps:normal;font-variant-numeric:normal;font-variant-east-asian:normal;fill:#d15151;fill-opacity:1;stroke:none;stroke-width:0.269287;stroke-dasharray:none;stroke-opacity:1;paint-order:markers fill stroke"
         x="489.6109"
         y="732.83862"
         id="text1-3"><tspan
           sodipodi:role="line"
           id="tspan1-4"
           x="489.6109"
           y="732.83862">Mind: -1</tspan></text><path
         style="fill:#d80000;fill-opacity:1;stroke-width:3.49882"
         id="path1-3"
         sodipodi:type="arc"
         sodipodi:cx="441.53137"
         sodipodi:cy="667.83423"
         sodipodi:rx="37.176922"
         sodipodi:ry="39.043968"
         sodipodi:start="0.027304543"
         sodipodi:end="6.2831853"
         sodipodi:open="true"
         sodipodi:arc-type="arc"
         d="m 478.69444,668.90017 a 37.176922,39.043968 0 0 1 -37.92434,37.96984 37.176922,39.043968 0 0 1 -36.41219,-39.5688 37.176922,39.043968 0 0 1 37.42723,-38.51004 37.176922,39.043968 0 0 1 36.92315,39.04306" /><path
         style="fill:#ffffff;fill-opacity:1;stroke-width:3.34545"
         id="path1-93"
         sodipodi:type="arc"
         sodipodi:cx="441.50256"
         sodipodi:cy="667.05212"
         sodipodi:rx="35.50272"
         sodipodi:ry="37.379631"
         sodipodi:start="0.027304543"
         sodipodi:end="6.2831853"
         sodipodi:open="true"
         sodipodi:arc-type="arc"
         d="m 476.99205,668.07263 a 35.50272,37.379631 0 0 1 -36.21647,36.35129 35.50272,37.379631 0 0 1 -34.77243,-37.8821 35.50272,37.379631 0 0 1 35.74176,-36.86846 35.50272,37.379631 0 0 1 35.26037,37.37876" /><rect
         style="fill:#cc0400;fill-opacity:1;stroke-width:4.1036"
         id="rect1-6"
         width="43.670288"
         height="44.625092"
         x="787.51117"
         y="-45.42012"
         transform="matrix(0.5298425,0.84809606,-0.5441132,0.83901181,0,0)" /><path
         id="path3-2"
         style="fill:#ffffff;stroke-width:4.17674"
         d="m 465.39785,667.3739 -23.72874,2.71407 -23.72873,-2.71407 23.72873,-0.5428 z"
         sodipodi:nodetypes="ccccc" /><path
         id="path4-6"
         style="fill:#ffffff;stroke-width:2.36508"
         inkscape:transform-center-x="-0.00029899198"
         inkscape:transform-center-y="-0.42374246"
         d="m 440.73859,667.76163 0.9542,-40.11665 0.98143,39.74202 z" /></g></g></svg>
