<?xml version="1.0" encoding="UTF-8" standalone="no"?>
<!-- Created with Inkscape (http://www.inkscape.org/) -->

<svg
   width="63mm"
   height="88mm"
   viewBox="0 0 63 88"
   version="1.1"
   id="svg1"
   inkscape:version="1.3.2 (091e20e, 2023-11-25, custom)"
   xml:space="preserve"
   sodipodi:docname="card-restraint-shoulders.svg"
   xmlns:inkscape="http://www.inkscape.org/namespaces/inkscape"
   xmlns:sodipodi="http://sodipodi.sourceforge.net/DTD/sodipodi-0.dtd"
   xmlns="http://www.w3.org/2000/svg"
   xmlns:svg="http://www.w3.org/2000/svg"><sodipodi:namedview
     id="namedview1"
     pagecolor="#ffffff"
     bordercolor="#000000"
     borderopacity="0.25"
     inkscape:showpageshadow="2"
     inkscape:pageopacity="0.0"
     inkscape:pagecheckerboard="0"
     inkscape:deskcolor="#d1d1d1"
     inkscape:document-units="mm"
     inkscape:zoom="2.9255611"
     inkscape:cx="149.88578"
     inkscape:cy="158.94387"
     inkscape:window-width="1350"
     inkscape:window-height="1008"
     inkscape:window-x="435"
     inkscape:window-y="0"
     inkscape:window-maximized="0"
     inkscape:current-layer="layer1" /><defs
     id="defs1" /><g
     inkscape:label="Layer 1"
     inkscape:groupmode="layer"
     id="layer1"><g
       id="g1"
       transform="matrix(0.06087197,0,0,0.06087197,0.03359486,0.54402301)"><path
         id="path2"
         style="fill:none;stroke:#e4e4e4;stroke-width:4.92837673;stroke-dasharray:none;stroke-opacity:1"
         d="m 1193.3239,1246.3367 -160.3412,67.9528 4.0152,46.4099 c 3.1121,24.9683 8.3446,50.3662 14.2683,74.8172 6.5873,27.1893 16.8902,54.6523 28.3856,80.192 25.3176,56.2612 80.6118,145.5024 64.0242,209.104 -0.5065,1.9447 -1.0494,3.8028 -1.8348,5.6554 -7.7196,18.2292 -24.5249,32.6407 -33.5448,50.2739 -7.0479,13.7708 -8.3165,29.6419 -10.2748,44.7479 l -6.5407,59.9227 c -0.7203,10.0519 -3.0906,21.1275 -0.6907,30.9761 l 4.5331,4.5113 c 7.8253,-1.5005 15.9028,-6.822 21.0248,-12.9299 3.2774,-22.2433 5.0069,-59.5061 24.3059,-73.889 2.9713,-2.2129 3.2131,-2.0408 6.8427,-1.77 10.3849,20.453 10.8874,45.7263 3.8639,67.0677 -4.5993,13.9739 -12.331,30.7083 -20.7874,42.8267 -7.5516,10.821 -25.9002,24.6018 -29.4648,36.7826 -0.6,2.0477 -0.038,6.2513 -0.042,8.5265 4.0277,4.7889 4.3777,5.4933 10.3827,6.9723 41.3339,-12.1321 95.6821,-41.8062 116.9747,-79.9547 6.2082,-11.127 9.7825,-24.452 11.5485,-37.02 l 0.4101,-2.7199 c 2.0099,-14.6375 -0.9608,-31.4431 -2.2664,-46.1294 -1.9177,-21.5443 -3.0599,-42.7517 -2.3314,-64.3911 l 8.6994,-108.664 c 9.6751,-110.5233 17.9381,-223.6031 -16.6214,-330.8706 -8.6486,-26.8406 -20.2864,-53.706 -34.5376,-78.4004 z" /><path
         id="path5"
         style="fill:none;stroke:#e4e4e4;stroke-width:4.92837673;stroke-dasharray:none;stroke-opacity:1"
         d="m 866.44662,666.10416 17.91641,374.58244 c 23.03695,63.1266 62.7928,115.5749 89.88419,155.2898 l 35.16368,49.691 c 6.1486,8.3779 15.6539,18.6162 19.4921,28.2561 3.0365,7.6222 2.3641,19.0749 2.9574,27.2632 l 1.1223,13.1028 160.3412,-67.9528 c -2.4417,-4.231 -4.7994,-8.5459 -7.4041,-12.6279 l -18.5207,-27.2632 c -2.2265,-3.1529 -6.8163,-7.9822 -8.0733,-11.2895 -1.078,-2.8386 -0.5308,-9.6878 -0.7122,-12.9084 l -2.4393,-35.4874 c -3.8436,-36.117 -10.8283,-72.5574 -23.464,-106.6997 -10.7505,-29.0393 -24.1685,-58.00674 -39.632,-84.85473 -6.5685,-11.40068 -16.3849,-22.77956 -21.7154,-34.51611 -1.6822,-3.69998 -1.5111,-7.75843 -1.5111,-11.72113 0,-68.20628 -19.566,-141.15392 -69.3128,-190.36726 -28.10209,-27.79603 -67.93284,-47.84672 -107.60632,-51.02932 -6.48297,-0.52233 -18.80381,-0.0663 -26.48606,-1.46789 z" /><path
         id="path3"
         style="fill:none;stroke:#e4e4e4;stroke-width:4.92837673;stroke-dasharray:none;stroke-opacity:1"
         d="M 0.3072826,1333.5227 -171.60385,1265.1596 c -5.97943,12.905 -11.17494,26.1402 -15.45562,39.891 -13.90608,44.6708 -19.74855,91.9672 -23.24813,138.4744 -5.90214,78.4718 -3.09039,156.2145 2.763,234.5753 l 7.55511,78.2709 c 1.89868,31.4121 -5.22272,61.2531 -5.50443,92.2372 -0.27627,30.315 9.42278,61.3104 28.29927,85.0706 20.22545,25.4584 59.2928,53.1927 92.042823,57.57 2.96871,0.398 4.78148,0.077 7.55513,-0.8851 2.36735,-4.1552 2.38249,-4.3806 0.99295,-8.9798 -2.73844,-9.0794 -12.46217,-19.8196 -17.65737,-27.9971 -20.704783,-32.5984 -37.370983,-74.9024 -23.960493,-113.262 l 4.10135,-3.0867 c 7.32951,2.2861 12.47706,8.4738 15.908903,15.1534 10.11129,19.6728 3.10235,52.0336 22.98912,65.2546 5.30622,0.5119 5.57213,0.6749 10.42604,-2.2449 9.46401,-23.1996 4.74638,-103.0726 -5.13747,-126.5159 -6.57648,-15.5961 -18.26532,-26.8355 -26.48607,-41.2292 -23.532613,-41.2039 -11.929173,-91.7062 4.29564,-133.0347 24.73797,-63.0192 64.24791,-118.8347 82.6097196,-184.7549 8.73922,-31.3717 8.06515,-64.0577 9.82166,-96.144 z" /><path
         id="path6"
         style="fill:none;stroke:#e4e4e4;stroke-width:4.92837673;stroke-dasharray:none;stroke-opacity:1"
         d="m 182.49335,661.00992 c -0.10159,0.0431 -0.22294,0.15316 -0.32379,0.19421 -6.51972,2.65452 -20.80684,0.67996 -28.4072,1.38156 -10.37684,0.9561 -20.78407,3.16735 -30.78169,6.06567 -60.998427,17.67646 -111.752257,62.96646 -135.322797,122.11212 -9.23109,23.16422 -13.7953,48.88953 -16.83712,73.56524 l -3.6912,43.69012 c -0.30607,4.00878 0.18611,12.55769 -1.20882,16.05995 -3.99523,10.02191 -16.91313,22.74969 -23.11864,32.4438 -18.40785,28.7522 -33.74245,59.71531 -44.812603,92.02131 -9.67258,28.2293 -15.75584,57.3951 -20.48514,86.8189 -3.4996,21.7856 -5.82569,44.9905 -12.10976,66.1612 -3.65668,12.3189 -15.74853,24.4168 -22.38471,35.6169 -5.41657,9.1395 -10.20355,18.5007 -14.61373,28.0187 l 171.9111326,68.3631 c 1.39946,-25.5643 4.3065,-50.7573 15.0022704,-74.5367 11.4603,-25.4801 37.33539,-46.0486 54.33202,-68.514 26.026608,-34.3994 79.086677,-104.3224 99.900157,-144.2162 z" /><path
         id="path4"
         style="fill:none;stroke:#e4e4e4;stroke-width:4.92837673;stroke-dasharray:none;stroke-opacity:1"
         d="m 900.16391,2514.0192 -214.11167,3.4107 c -0.9605,8.7665 -1.71025,17.5846 -2.67665,26.2703 -4.67788,42.038 -9.58143,85.4856 -5.37493,127.7677 7.94441,79.7686 46.37251,152.7274 62.46992,231.251 6.41136,31.2578 12.0923,62.7735 13.1459,94.7626 0.86403,26.1929 -1.35561,53.1689 1.03611,79.1991 1.70107,18.5271 7.13389,36.4588 10.03749,54.7421 2.54344,16.0082 -3.08191,34.8882 -6.45417,50.7057 -6.92052,32.4226 -14.96339,66.4708 -15.95207,99.7059 -0.32509,10.9428 -0.9145,22.414 1.83482,33.1129 2.12636,8.2616 5.93567,16.1621 12.39039,21.9315 5.46333,4.9027 12.46035,7.5326 19.53531,9.131 17.86619,4.0358 38.67381,3.1124 57.03031,3.4105 26.74226,0.4063 54.92095,1.7642 81.50863,-0.9713 8.28588,-0.8397 19.28177,-4.503 24.93196,-10.9225 6.22171,-7.0695 5.86476,-19.2425 4.81388,-28.1268 -4.10086,-34.5344 -23.64039,-60.9908 -39.6104,-90.5964 -19.29636,-35.8084 -38.82719,-81.2234 -41.83372,-121.8532 -1.99349,-26.951 -0.18302,-55.146 0.86347,-82.178 2.56237,-66.3079 8.08025,-136.0902 24.52159,-200.5559 11.78539,-46.1825 32.70598,-93.3601 36.0919,-141.0862 3.83869,-54.0793 -6.81376,-107.863 -24.19807,-159.1107 z" /><path
         id="path7"
         style="fill:none;stroke:#e4e4e4;stroke-width:4.92837673;stroke-dasharray:none;stroke-opacity:1"
         d="m 352.56967,2521.5527 -213.78802,-9.1524 c -14.86054,48.9887 -25.59054,101.3445 -22.03934,150.7784 3.69719,51.5454 20.93995,101.8288 32.50856,151.9659 16.28697,70.5861 23.96877,140.0587 27.43584,212.2985 1.12138,23.4026 3.29215,47.8854 1.81323,71.2338 -1.00221,15.8458 -5.0959,31.8111 -11.00889,46.5178 -11.85018,29.4972 -27.69029,58.8103 -41.57466,87.4665 -13.18029,27.2218 -28.965824,48.9329 -31.062327,80.6239 -0.417128,6.3382 -0.921753,14.3101 1.618956,20.2693 2.900966,6.8256 9.056691,8.9826 15.736221,11.0953 25.58845,8.0447 140.81162,9.1446 162.49962,-2.9357 10.9321,-6.0944 16.90363,-17.1536 19.9671,-28.8822 10.0571,-38.4344 -3.91111,-90.8876 -12.00185,-128.998 -3.24765,-15.277 -7.97627,-31.5739 -7.20973,-47.3382 1.07264,-21.9941 9.36699,-43.9666 11.11679,-66.4201 1.96105,-25.1904 -0.2901,-50.965 0.77711,-76.2636 1.93669,-45.8833 10.61293,-91.9975 21.71553,-136.4452 15.06821,-60.3216 42.28284,-117.9132 49.71264,-179.9413 6.14777,-51.3604 -1.71949,-104.518 -6.21678,-155.8727 z" /><path
         id="path8"
         style="fill:none;stroke:#e4e4e4;stroke-width:4.92837673;stroke-dasharray:none;stroke-opacity:1"
         d="m 879.76516,1858.4947 -720.21775,-22.0823 c -2.6189,11.8819 -5.4208,23.7651 -7.51193,35.6385 -8.11783,46.1062 -10.50801,92.5492 -11.65647,139.273 -1.02929,41.9026 -1.12208,84.9481 2.28811,126.7316 l 17.0098,133.8117 c 7.07496,42.7399 19.09098,85.1155 16.06001,128.9333 -1.57374,22.7444 -13.93438,43.9027 -21.52128,65.125 -5.35608,14.9844 -10.60615,30.5594 -15.434,46.4748 l 213.78802,9.1524 c -0.0897,-1.0243 -0.19372,-2.0852 -0.28061,-3.1082 -1.89591,-22.2922 -4.70852,-45.3557 -1.87801,-67.7154 3.21788,-25.4075 12.18594,-51.5277 20.46356,-75.6807 l 32.31432,-94.6762 58.51968,-222.6816 c 15.02743,-70.0559 27.58369,-137.784 30.54421,-209.5355 l 51.59062,0.2158 2.61188,38.1642 c 13.91698,132.6742 48.13922,266.3698 87.66093,393.578 16.4982,53.1006 41.28833,104.9305 51.93599,159.5856 5.00297,25.6744 2.84346,51.7786 0,77.7312 l 214.11167,-3.4107 c -5.4805,-16.1561 -11.55677,-32.0878 -18.15363,-47.6619 l -16.25441,-37.7323 c -2.63799,-6.1325 -6.7426,-13.6524 -7.51192,-20.1828 -2.15064,-18.2809 1.32136,-38.7211 4.36038,-56.7283 l 22.73013,-109.0094 c 23.70662,-129.2151 20.03709,-257.8499 -5.5693,-384.2098 z" /><path
         id="path9"
         style="fill:none;stroke:#e4e4e4;stroke-width:4.92837673;stroke-dasharray:none;stroke-opacity:1"
         d="m 781.16032,1529.2216 -513.57485,-9.2389 c -0.52881,3.5313 -1.0711,6.7173 -1.68371,8.7207 -3.08243,10.0896 -9.73008,20.1587 -13.90141,30.0694 l -36.1134,90.9204 c -21.93584,60.2797 -42.39088,123.4337 -56.33954,186.7192 l 720.21775,22.0823 c -9.28804,-45.8344 -21.27981,-91.3808 -36.15655,-136.5315 -19.9924,-60.6733 -44.55351,-120.1772 -60.07381,-182.2509 -0.87864,-3.5132 -1.58384,-6.9928 -2.37448,-10.4907 z" /><path
         id="path10"
         style="fill:none;stroke:#e4e4e4;stroke-width:4.92837673;stroke-dasharray:none;stroke-opacity:1"
         d="m 789.79468,1225.1392 -544.83136,-10.1671 c 1.47069,2.8711 2.93931,5.7407 4.55467,8.4186 23.31956,79.4342 27.61983,91.9232 24.67282,176.0125 -0.60863,17.3186 -2.25439,91.5249 -6.60534,120.5795 l 513.57485,9.2389 c -12.28906,-54.3632 -14.29548,-107.0733 -11.69965,-163.1904 2.68695,-58.0731 7.39302,-53.0374 17.31199,-124.2061 1.02733,-6.133 2.01689,-11.5751 3.02202,-16.6859 z" /><path
         id="path11"
         style="fill:none;stroke:#e4e4e4;stroke-width:4.92837673;stroke-dasharray:none;stroke-opacity:1"
         d="m 877.06696,888.3108 -701.89129,-9.67063 -5.63394,167.61563 c 0.47061,-0.9021 1.37675,-2.1951 1.81323,-3.0653 9.33652,18.5513 20.71746,68.8688 33.30725,85.4807 17.90663,23.623 26.23056,58.8328 40.30111,86.3009 l 544.83136,10.1671 c 7.67019,-39.0024 16.13302,-52.242 47.35976,-98.8209 33.57174,-50.0771 42.57854,-83.1303 46.7769,-86.7326 0.13503,0.3738 0.29546,0.7275 0.43169,1.1009 z" /><path
         id="path1"
         style="fill:none;stroke:#e5e5e5;stroke-width:4.92837673;stroke-dasharray:none;stroke-opacity:1"
         d="m 522.07388,64.976471 c -5.75304,-0.260151 -11.72617,-0.536496 -17.46308,0.04328 -39.33493,4.759093 -75.39063,19.749668 -100.33177,51.806449 -30.61857,39.35118 -33.90271,114.40644 -27.80283,162.82343 -3.65396,3.64317 -4.81082,1.75412 -8.37537,3.79913 -5.46064,3.13119 -7.59013,11.70984 -7.61988,17.48468 -0.0624,12.15911 3.11303,23.65607 5.41809,35.48746 4.01963,20.64256 6.71823,48.589 23.01069,63.65717 2.57052,2.37551 5.72975,4.21718 8.89346,5.67712 1.9961,12.24619 5.87197,117.59209 2.54716,125.24216 h 226.56693 l 2.61188,-80.83968 c 0.22224,-12.14286 -2.20973,-33.29989 1.98599,-44.35929 l 1.59733,-1.4031 c 19.27194,-17.21615 23.10992,-39.03517 28.21294,-63.07437 2.49738,-11.75822 5.43507,-23.82531 5.91459,-35.85439 0.27893,-6.93413 0.7381,-13.50848 -3.1731,-19.57854 -3.03647,-2.26711 -6.2285,-4.41446 -8.8288,-7.18813 3.07983,-54.96111 4.17432,-123.94682 -34.51603,-167.59393 -24.55385,-27.698605 -61.87285,-44.477059 -98.6482,-46.129339 z" /><path
         id="path12"
         style="fill:none;stroke:#000000;stroke-width:4.92837673;stroke-dasharray:none;stroke-opacity:1"
         d="m 405.69293,530.99726 c -0.0128,0.0318 -0.008,0.31685 -0.0216,0.34537 -52.64207,41.28475 -113.62127,62.56357 -171.26353,95.19438 -11.89638,6.73366 -23.16487,14.37575 -34.3218,22.25516 -5.10968,3.60855 -11.88449,9.77356 -17.59261,12.21775 l -3.47643,200.67596 15.47306,15.46857 668.84512,6.95411 13.77484,-17.84987 -10.66332,-200.15453 c -1.28231,-0.23389 -3.36068,-0.11898 -4.27398,-0.49645 -4.71302,-1.95021 -10.3553,-6.86957 -14.72167,-9.73531 -11.50337,-7.54898 -22.89447,-15.37042 -34.9046,-22.10407 L 731.6421,591.24384 c -34.96018,-17.40013 -69.35427,-33.90879 -99.40379,-59.31841 l 0.0216,-0.92817 z"
         sodipodi:nodetypes="cccsccccccccccccc" /></g><g
       id="move"
       transform="matrix(0.04824098,0,0,0.05181757,-2.98567,-8.6714195)"
       inkscape:label="move"><text
         xml:space="preserve"
         style="font-style:normal;font-variant:normal;font-weight:normal;font-stretch:normal;font-size:148.144px;font-family:Amiri;-inkscape-font-specification:'Amiri, Normal';font-variant-ligatures:normal;font-variant-caps:normal;font-variant-numeric:normal;font-variant-east-asian:normal;fill:#000000;fill-opacity:1;stroke:#000000;stroke-width:0.269288;stroke-dasharray:none;stroke-opacity:1;paint-order:markers fill stroke"
         x="513.04822"
         y="778.5697"
         id="text1-5"><tspan
           sodipodi:role="line"
           id="tspan1-9"
           x="513.04822"
           y="778.5697">Move: -1*</tspan></text><path
         fill="#fefefe"
         d="m 423.87315,743.60565 0.21512,0.052 c 1.71719,3.76403 3.49119,3.70519 5.98388,7.35145 -7.82361,-0.10797 -11.69949,-1.08864 -18.76246,-4.29382 -1.34963,-0.0879 -4.75661,-3.11408 -5.45151,-3.66689 -1.44497,-1.14935 -2.73119,-2.33754 -3.98746,-3.59097 2.82341,0.88799 5.73821,1.52855 8.60636,2.10838 4.47579,0.90536 8.94267,1.61647 13.39636,2.03887 z"
         id="path2-5"
         style="stroke:#000000;stroke-width:2.32259;stroke-dasharray:none;stroke-opacity:1"
         sodipodi:nodetypes="ccccccccc" /><path
         fill="#fefefe"
         d="m 420.73098,732.74924 c 0.16605,0.0376 0.32327,0.0615 0.4746,0.14245 0.19084,1.49259 0.48354,2.93964 1.01378,4.35123 l 0.69132,1.64881 c 0.11304,0.25498 0.3131,0.59092 0.35053,0.86427 -3.38586,1.31875 -5.88595,0.53798 -8.86795,-0.96306 -4.84177,-2.84555 -9.02471,-7.42607 -10.99427,-12.72672 3.75169,2.83784 8.23961,4.29963 12.72721,5.52821 z"
         id="path3-1"
         style="stroke:#000000;stroke-width:2.32259;stroke-dasharray:none;stroke-opacity:1"
         sodipodi:nodetypes="ccccccccc" /><path
         fill="#fefefe"
         d="m 419.63719,727.11092 c -0.99006,-0.26054 -2.01274,-0.4366 -2.97937,-0.7825 -0.85278,-0.30505 -1.72241,-0.79395 -2.50264,-1.25578 -2.16532,-1.2816 -4.13288,-2.88937 -5.79407,-4.78297 -4.41276,-5.02993 -6.03531,-11.58112 -5.60542,-18.1506 1.44243,3.24637 3.5683,6.08982 6.39823,8.27104 l 1.57984,1.10672 c 0.28142,0.18129 0.70379,0.34916 0.93296,0.58562 0.21062,0.21732 0.3861,0.48811 0.57442,0.72644 l 1.38168,1.69296 c 2.2089,2.46776 4.80215,4.73075 7.62498,6.46811 l 0.12898,0.13734 c -0.62085,1.97648 -1.04172,4.00744 -1.0594,6.08448 z"
         id="path6-0"
         style="stroke:#000000;stroke-width:2.32259;stroke-dasharray:none;stroke-opacity:1" /><path
         fill="#fefefe"
         d="m 422.50359,716.14959 c -6.06305,-3.90641 -11.27396,-9.80969 -14.03576,-16.50113 -0.43606,-1.05665 -0.75161,-2.15168 -1.06003,-3.25081 -2.00973,-7.16318 -1.47637,-15.1216 1.38236,-21.98689 0.2891,0.72521 0.42082,1.57216 0.62475,2.33043 0.35788,1.33073 0.7986,2.60686 1.35738,3.86748 0.47228,1.06564 0.9832,2.14161 1.58175,3.1412 l 0.90316,1.40505 c 0.18746,0.2736 0.50729,0.62227 0.60871,0.93662 0.21288,0.6592 0.26249,1.40777 0.42808,2.08389 0.33393,1.36262 0.78211,2.71126 1.23813,4.03775 0.45987,1.33772 1.06344,2.61477 1.67154,3.88916 l 1.49177,2.99798 c 1.87192,3.37951 4.15198,6.55044 6.51068,9.6034 l 0.23463,0.30861 c -0.0517,0.33478 -0.27329,0.71011 -0.41015,1.02434 l -0.66812,1.64046 -1.60838,4.55102 z"
         id="path8-6"
         style="stroke:#000000;stroke-width:2.32259;stroke-dasharray:none;stroke-opacity:1" /><path
         fill="#fefefe"
         d="m 427.82911,704.30477 c -1.48769,-2.03108 -2.99773,-4.05116 -4.324,-6.19379 -0.96557,-1.5597 -1.79369,-3.1602 -2.59468,-4.80719 -1.11105,-2.2848 -2.10439,-4.7802 -2.55777,-7.29184 -0.24624,-1.36401 -0.45268,-2.72558 -0.51351,-4.11224 -0.24301,-5.54139 1.1937,-11.18988 3.82779,-16.05429 0.72352,-1.33628 1.55305,-2.58504 2.42036,-3.83035 0.042,0.0418 0.0238,0.31948 0.0245,0.39377 0.0211,2.54183 0.12403,5.04409 0.42467,7.56995 0.69681,5.85525 2.16034,11.48155 3.87478,17.11022 l 3.27489,9.76808 c -0.12526,0.3865 -0.4152,0.75921 -0.61716,1.11385 l -0.73083,1.39548 -2.32068,4.9936 -0.078,0.039 z"
         id="path9-2"
         style="stroke:#000000;stroke-width:2.32259;stroke-dasharray:none;stroke-opacity:1" /><path
         fill="#0f0f0f"
         d="m 432.78711,753.3154 c 6.28761,7.956 12.85273,15.64753 20.25674,22.5946 5.03214,4.72143 10.49456,9.17358 16.60299,12.43754 7.93511,4.24005 17.11673,6.68524 26.01566,7.74271 2.47919,0.29452 4.96743,0.37534 7.45739,0.50978 2.29621,0.12402 4.63384,0.35136 6.93082,0.15841 -0.31138,0.39113 -0.97692,0.55687 -1.44822,0.75118 -3.40429,1.40427 -7.02194,2.24905 -10.67808,2.66433 -10.79379,1.22587 -22.09365,-1.38775 -31.6759,-6.36425 -4.33537,-2.25144 -8.33793,-4.99995 -12.15002,-8.04259 -5.94588,-4.74606 -11.37367,-10.20987 -16.25291,-16.04008 l -4.06298,-5.01213 -9.08906,8.41029 -21.3164,-10.37972 2.49671,-15.7079 c 0.38126,0.21008 0.7698,0.4604 1.18359,0.59783 2.32478,1.18832 4.66524,2.35494 7.11431,3.26873 5.93832,2.21617 7.44568,2.96323 13.74108,2.45884 z"
         id="path10-3"
         style="fill:none;fill-opacity:1;stroke:#000000;stroke-width:2.32259;stroke-dasharray:none;stroke-opacity:1"
         sodipodi:nodetypes="ccccccccccccccccccc" /><path
         fill="#dc9308"
         d="m 463.02874,689.96939 0.14384,0.035 c 0.49063,0.11195 1.1488,0.0313 1.65643,0.0217 l 3.58408,-0.053 c 2.39392,-0.0242 4.86943,0.10962 7.24971,-0.0434 -6.31985,10.20788 -9.878,22.14022 -9.54579,34.17661 0.11685,4.25601 0.74673,8.39684 1.7215,12.53376 3.77093,16.00471 11.61851,30.25771 21.33565,40.94937 12.10107,12.64047 8.48263,7.78003 20.17454,16.94792 -17.32365,-3.71452 -21.55024,-4.23093 -26.35187,-6.3316 -9.89964,-6.18762 -14.97824,-6.89097 -26.89975,-18.41407 -12.79352,-12.36596 -18.29357,-15.79526 -23.00912,-27.19435 l -3.2569,-19.42517 c -2.88158,-22.76633 4.41888,-31.58046 4.03571,-32.91484 l 21.28156,-0.26223 5.32127,0.0602 c 0.85201,-0.008 1.71303,0.0204 2.55906,-0.0844 z"
         id="path11-9"
         style="fill:none;stroke:#000000;stroke-width:2.32259;stroke-dasharray:none;stroke-opacity:1"
         sodipodi:nodetypes="cccccsccccsccccccc" /><path
         id="path2-8"
         inkscape:transform-center-x="-0.01494134"
         inkscape:transform-center-y="-3.7500871"
         d="m 427.40161,748.51285 c 20.36512,-7.37419 13.98417,-9.56844 21.66325,-57.74338 8.14056,47.72615 2.64335,50.64631 21.89168,57.54181 z"
         sodipodi:nodetypes="cccc"
         style="stroke-width:10.6897" /><path
         id="path2-0"
         inkscape:transform-center-x="-0.0034207367"
         inkscape:transform-center-y="-1.3106034"
         d="m 444.38529,757.43968 c 4.11726,-2.61102 3.85157,-6.32045 4.96018,-20.18053 1.20756,13.97013 0.83807,17.62212 5.01247,20.11007 z"
         sodipodi:nodetypes="cccc"
         style="stroke-width:3.02394" /></g></g></svg>
