<?xml version="1.0" encoding="UTF-8" standalone="no"?>
<svg
   width="63mm"
   height="88mm"
   version="1.1"
   id="svg3"
   sodipodi:docname="card-fate-lower.svg"
   inkscape:version="1.3.2 (091e20e, 2023-11-25, custom)"
   xmlns:inkscape="http://www.inkscape.org/namespaces/inkscape"
   xmlns:sodipodi="http://sodipodi.sourceforge.net/DTD/sodipodi-0.dtd"
   xmlns="http://www.w3.org/2000/svg"
   xmlns:svg="http://www.w3.org/2000/svg">
  <defs
     id="defs3" />
  <sodipodi:namedview
     id="namedview3"
     pagecolor="#ffffff"
     bordercolor="#000000"
     borderopacity="0.25"
     inkscape:showpageshadow="2"
     inkscape:pageopacity="0.0"
     inkscape:pagecheckerboard="0"
     inkscape:deskcolor="#d1d1d1"
     inkscape:document-units="mm"
     inkscape:zoom="1.9096535"
     inkscape:cx="65.195073"
     inkscape:cy="170.44977"
     inkscape:window-width="1920"
     inkscape:window-height="1017"
     inkscape:window-x="-8"
     inkscape:window-y="-8"
     inkscape:window-maximized="1"
     inkscape:current-layer="svg3" />
  <path
     fill="#dc483c"
     d="m 121.19899,222.85114 c -0.33953,-0.36301 -0.57717,-0.87038 -0.82596,-1.30092 l -1.53682,-2.7008 -5.79169,-10.17448 -19.018017,-32.8239 16.196067,-5.7e-4 5.4e-4,-67.49592 10.9937,-9.6e-4 0.0231,80.97254 0.0115,24.32335 -0.0154,6.34325 c -0.003,0.90149 0.10625,1.97452 -0.0385,2.85841 z"
     id="path2"
     style="stroke-width:0.0946077" />
  <path
     fill="#e29057"
     d="m 121.21681,108.35359 11.12501,0.0192 -0.003,67.47394 15.80949,-0.0154 c -0.85364,1.8054 -1.96516,3.57443 -2.95615,5.30992 l -4.8937,8.60787 -13.50323,23.64421 -3.96669,6.94979 -1.03118,1.81148 c -0.14166,0.2483 -0.29834,0.62286 -0.51876,0.80144 l -0.0801,-0.10779 c 0.14282,-0.88389 0.0346,-1.95692 0.0385,-2.8584 l 0.0154,-6.34326 -0.0115,-24.32335 z"
     id="path3"
     style="stroke-width:0.0946077" />
</svg>
