<?xml version="1.0" encoding="UTF-8" standalone="no"?>
<svg
   width="63mm"
   height="88mm"
   version="1.1"
   id="svg6"
   sodipodi:docname="card-bloodloss.svg"
   inkscape:version="1.3.2 (091e20e, 2023-11-25, custom)"
   xmlns:inkscape="http://www.inkscape.org/namespaces/inkscape"
   xmlns:sodipodi="http://sodipodi.sourceforge.net/DTD/sodipodi-0.dtd"
   xmlns="http://www.w3.org/2000/svg"
   xmlns:svg="http://www.w3.org/2000/svg">
  <defs
     id="defs6" />
  <sodipodi:namedview
     id="namedview6"
     pagecolor="#ffffff"
     bordercolor="#000000"
     borderopacity="0.25"
     inkscape:showpageshadow="2"
     inkscape:pageopacity="0.0"
     inkscape:pagecheckerboard="0"
     inkscape:deskcolor="#d1d1d1"
     inkscape:document-units="mm"
     inkscape:zoom="1.8244444"
     inkscape:cx="-49.056029"
     inkscape:cy="134.56151"
     inkscape:window-width="1920"
     inkscape:window-height="1017"
     inkscape:window-x="-8"
     inkscape:window-y="-8"
     inkscape:window-maximized="1"
     inkscape:current-layer="svg6" />
  <path
     fill="#b81c1a"
     d="m 120.22322,118.11906 c 0.85196,1.13522 1.59607,2.4004 2.36441,3.59515 l 5.99755,9.91221 7.37923,13.60157 c 2.68659,5.4268 5.06769,10.95397 6.5675,16.83489 0.55849,2.18981 1.02301,4.427 1.24787,6.67846 0.28818,2.88516 0.17877,5.74461 -0.23052,8.61209 -0.84268,5.90309 -3.45119,11.68974 -7.51324,16.07658 -0.95533,1.03179 -1.9718,2.02062 -3.09825,2.86623 -1.19606,0.89792 -2.42917,1.72547 -3.76241,2.40856 -2.78541,1.42721 -5.86124,2.17506 -8.99087,2.18004 l -0.0299,-5.71566 0.007,-0.0716 3.7e-4,-1.08348 c 2.25637,0.0106 4.37638,-0.40786 6.42123,-1.39918 3.85301,-1.86806 6.73587,-5.14465 8.83097,-8.80917 0.87344,-1.52746 1.64508,-3.15891 2.22237,-4.82148 0.94188,-2.71243 1.53119,-5.58421 1.52671,-8.46296 -0.009,-5.56566 -2.07581,-10.92066 -4.34258,-15.9107 l -3.58663,-7.3263 -1.35509,-2.52351 c -0.41646,-0.74225 -0.86847,-1.49128 -1.23859,-2.25606 -0.25599,-0.32511 -0.45506,-0.73316 -0.67089,-1.08815 l -1.60685,-2.68292 -3.44589,-5.66167 c -0.88559,-1.49227 -1.70661,-3.05385 -2.6704,-4.49475 -0.0618,-0.58595 -0.0148,-1.23112 -0.0192,-1.82293 l -0.0263,-3.79061 -0.0116,-3.14913 c -0.001,-0.54559 -0.0582,-1.16056 0.0338,-1.69551 z"
     id="path2"
     style="stroke-width:0.0622689" />
  <path
     fill="#a20e11"
     d="m 128.6406,142.50473 c 0.26402,0.1213 0.96585,1.53885 1.15851,1.86962 2.17169,3.72835 4.24941,7.50041 6.06044,11.41942 0.68932,1.49172 1.38094,3.00279 1.95325,4.54408 0.73851,1.98892 1.46208,3.96982 1.94036,6.04188 0.27834,1.2059 0.50432,2.46448 0.59411,3.69977 0.32355,4.45128 -0.67885,8.92344 -2.53241,12.9597 -2.18552,4.75921 -5.9275,9.40136 -10.95671,11.26756 -2.06166,0.76528 -4.512,1.19057 -6.70362,0.86242 l 0.007,-0.0716 3.8e-4,-1.08348 c 2.25637,0.0106 4.37638,-0.40786 6.42123,-1.39918 3.85301,-1.86806 6.73587,-5.14465 8.83097,-8.80917 0.87344,-1.52746 1.64508,-3.15891 2.22237,-4.82148 0.94188,-2.71243 1.53119,-5.58421 1.52671,-8.46296 -0.009,-5.56566 -2.07581,-10.92066 -4.34258,-15.9107 l -3.58663,-7.3263 -1.35509,-2.52351 c -0.41646,-0.74225 -0.86847,-1.49128 -1.23859,-2.25606 z"
     id="path3"
     style="stroke-width:0.0622689" />
  <path
     fill="#db1a18"
     d="m 120.18449,200.88484 c -2.91008,-0.004 -5.80247,-0.52306 -8.45095,-1.76408 -6.26163,-2.93411 -11.06748,-8.76621 -13.401623,-15.21913 -1.69882,-4.69694 -2.419644,-9.6797 -2.002007,-14.66712 0.325853,-3.89187 1.361384,-7.80422 2.617904,-11.49047 0.99743,-2.92608 2.160476,-5.79761 3.470806,-8.59778 l 8.34845,-15.97788 7.74406,-12.83729 c 0.24696,-0.3733 1.37191,-2.20394 1.63992,-2.30118 l 0.0722,0.0892 c -0.092,0.53495 -0.0352,1.14992 -0.0338,1.69551 l 0.0116,3.14913 0.0263,3.79061 c 0.004,0.59181 -0.0426,1.23698 0.0192,1.82293 0.96379,1.4409 1.78481,3.00248 2.6704,4.49475 l 3.44589,5.66167 1.60685,2.68292 c 0.21583,0.35499 0.4149,0.76304 0.67089,1.08815 0.37012,0.76478 0.82213,1.51381 1.23859,2.25606 l 1.35509,2.52351 3.58663,7.3263 c 2.26677,4.99004 4.33385,10.34504 4.34257,15.91069 0.005,2.87876 -0.58483,5.75053 -1.52671,8.46297 -0.5773,1.66257 -1.34893,3.29402 -2.22238,4.82148 -2.0951,3.66452 -4.97796,6.9411 -8.83097,8.80917 -2.04485,0.99132 -4.16485,1.40977 -6.42123,1.39918 l -3.7e-4,1.08348 -0.007,0.0716 z"
     id="path4"
     style="stroke-width:0.0622689" />
  <path
     fill="#b81c1a"
     d="m 108.48603,188.60168 c 2.9518,2.73859 6.23013,4.71998 10.2834,5.27791 l 0.0738,0.0181 1.31897,0.11644 -3.7e-4,1.08348 -0.007,0.0716 c -0.14378,-0.0878 -0.46154,-0.0778 -0.63527,-0.10087 -0.47019,-0.0623 -0.94057,-0.1233 -1.40478,-0.22231 -2.24697,-0.47947 -4.20421,-1.41537 -6.05515,-2.76909 -0.60762,-0.44398 -3.47641,-2.85129 -3.5733,-3.47523 z"
     id="path5"
     style="stroke-width:0.0622689" />
  <path
     fill="#e3584c"
     d="m 120.19302,128.59287 c 0.024,0.76677 -0.15424,1.51307 -0.31203,2.25892 -0.63353,2.9952 -1.71115,5.86716 -2.81406,8.71571 l -5.08923,12.86718 -2.21273,6.21381 c -0.85794,2.65701 -1.5863,5.32884 -1.89832,8.11083 -0.19179,1.70972 -0.20468,3.42983 -0.14403,5.14746 0.10143,2.87495 0.57088,5.73932 1.48318,8.47043 1.51357,4.53131 4.09847,8.48787 7.57501,11.75387 l 1.98862,1.74851 c -4.05327,-0.55793 -7.3316,-2.53932 -10.2834,-5.27791 -0.0298,-0.0679 -0.15019,-0.16128 -0.20692,-0.21794 l -0.59049,-0.59405 c -0.56528,-0.57598 -1.08199,-1.20116 -1.56787,-1.84502 -2.90023,-3.84386 -4.61605,-8.47978 -4.99571,-13.27498 -0.15436,-1.94957 -0.18537,-3.91926 0.1251,-5.85495 0.65252,-4.06846 2.22973,-7.8673 3.93365,-11.59104 2.9338,-6.41145 6.49857,-12.46149 10.11645,-18.50151 l 3.51713,-5.74704 0.78334,-1.36518 c 0.18027,-0.33352 0.34753,-0.73005 0.59231,-1.0171 z"
     id="path6"
     style="stroke-width:0.0622689" />
  <g
     id="body"
     transform="matrix(0.24409325,0,0,0.24409325,0.49099392,-54.034512)">
    <path
       fill="#37b2df"
       d="m 283.17389,596.49529 c 7.29878,0.33206 8.88162,-0.0804 16.00924,0.0851 0.24196,2.35569 0.33325,4.67189 0.92537,6.98158 0.21806,0.85086 0.4925,1.77406 0.99588,2.50285 l 16.01311,4.53618 4.00828,1.04672 c 1.93273,0.46715 3.81933,0.85727 5.56272,1.86704 2.18883,1.26767 3.9146,3.27912 5.0637,5.51213 1.77008,3.43983 1.78687,7.37701 2.35122,11.1269 l -11.04878,5.03231 -1.42198,0.67869 c -0.29486,0.12678 -0.63934,0.21975 -0.90678,0.39192 l -0.59345,3.61479 -1.32044,5.61984 -2.38781,8.10544 -3.20945,9.55447 c -1.97909,6.59701 -2.50721,13.63264 -1.22409,20.41476 0.87817,4.64136 2.58945,9.06653 4.01324,13.55455 -0.13414,0.19564 -0.56192,0.36106 -0.78083,0.47331 -1.10697,0.56509 -2.26054,1.03232 -3.43657,1.43319 -7.0731,2.41002 -14.30448,3.24558 -21.75211,3.10431 -8.13756,-0.15454 -16.27934,-1.50682 -23.6363,-5.12186 0.49613,-0.95869 0.87937,-2.02123 1.25632,-3.03428 l 1.8831,-5.71358 c 0.89796,-3.03667 1.66371,-6.12763 1.94359,-9.28991 0.87418,-9.87668 -3.30531,-19.13342 -6.39017,-28.24646 -1.3144,-3.88248 -2.30932,-7.96381 -3.19666,-11.96352 l -0.36234,-2.37887 c -1.65985,-0.59948 -3.27817,-1.56409 -4.86979,-2.33418 l -8.36781,-4.052 0.69873,-5.17419 c 0.85173,-5.06344 3.15536,-9.80089 8.12778,-11.8773 2.24013,-0.93552 4.81304,-1.44191 7.16087,-2.06228 l 11.29691,-3.18688 3.34118,-0.99709 c 0.80258,-0.24161 1.7562,-0.45013 2.43888,-0.93551 1.45398,-2.80425 1.72577,-6.15811 1.81524,-9.2682 z"
       id="path5-3"
       sodipodi:nodetypes="ccccccccccccccccccccccccscccccccccccc"
       style="fill:none;stroke:#000000;stroke-width:2.10451;stroke-dasharray:none;stroke-opacity:1" />
    <path
       fill="#26A4D4"
       d="m 291.26778,657.48848 0.0627,0.0529 0.0441,34.39004 -0.0811,0.1627 c -0.12182,-0.92567 -0.0889,-1.92401 -0.11397,-2.85943 l -0.14428,-3.72601 -0.23966,-11.24502 0.22097,-8.86765 0.14825,-5.96255 c 0.0297,-0.65042 -0.0152,-1.30151 0.10303,-1.94505 z"
       id="path6-7"
       style="fill:#6f838b;fill-opacity:1;stroke-width:0.0990362;stroke-dasharray:none" />
    <path
       fill="#26A4D4"
       d="m 320.65964,629.12126 c -0.14503,1.18222 -0.44555,2.36517 -0.73139,3.52033 -0.29654,1.19846 -0.60848,2.45583 -1.09383,3.59369 -0.39492,0.92548 -0.96492,1.81969 -1.46818,2.69177 -1.54792,2.68216 -3.10979,5.22674 -5.37214,7.38061 -3.03293,2.88755 -6.79305,4.3086 -10.97477,4.21251 l -0.067,-0.0393 -0.0154,-0.0762 0.80173,-0.21946 c 4.45387,-1.19413 8.3186,-3.98271 11.14747,-7.59696 2.0068,-2.56394 3.57192,-5.48384 5.08832,-8.35467 z"
       id="path7-7"
       style="fill:#768084;fill-opacity:1;stroke-width:0.123795;stroke-dasharray:none" />
    <path
       fill="#26A4D4"
       d="m 260.34705,627.90946 c 0.25767,0.30548 0.40388,0.99081 0.55385,1.37381 l 1.14271,2.73433 c 0.81392,1.81983 1.66491,3.62625 2.65596,5.35758 2.92933,5.11694 6.90406,10.40111 12.73109,12.34639 0.86705,0.28943 1.82695,0.54564 2.73252,0.67255 0.78048,0.10927 1.5775,0.12774 2.33998,0.33457 l -1.21309,0.0885 c -4.54064,0.21251 -9.08406,-1.42355 -12.44396,-4.47471 -3.16985,-2.8785 -5.15847,-6.66571 -6.66209,-10.61978 -0.93322,-2.45445 -1.71502,-5.17864 -1.83697,-7.81324 z"
       id="path8-0"
       style="fill:#6c858e;fill-opacity:1;stroke-width:0.120743" />
    <text
       xml:space="preserve"
       style="font-style:normal;font-variant:normal;font-weight:normal;font-stretch:normal;font-size:113.547px;font-family:Amiri;-inkscape-font-specification:'Amiri, Normal';font-variant-ligatures:normal;font-variant-caps:normal;font-variant-numeric:normal;font-variant-east-asian:normal;fill:#000000;fill-opacity:1;stroke:none;stroke-width:0.215296;stroke-dasharray:none;stroke-opacity:1;paint-order:markers fill stroke"
       x="339.74225"
       y="684.15222"
       id="text1"><tspan
         sodipodi:role="line"
         id="tspan1"
         x="339.74225"
         y="684.15222"
         style="stroke:none;stroke-width:0.215296">Body: -1</tspan></text>
    <path
       id="rect1"
       d="m 282.50527,648.92026 h 17.61435 l -5.26564,1.30119 -0.49288,12.72354 -7.11349,-0.0649 -0.0833,-12.65856 z"
       sodipodi:nodetypes="ccccccc"
       style="stroke-width:2.53663" />
    <path
       style="fill:#000000;fill-opacity:1;stroke-width:2.10969"
       id="path2-6-0"
       sodipodi:type="arc"
       sodipodi:cx="291.00009"
       sodipodi:cy="624.9527"
       sodipodi:rx="8.5723772"
       sodipodi:ry="8.5723772"
       sodipodi:start="0.027304543"
       sodipodi:end="6.2831853"
       sodipodi:open="true"
       sodipodi:arc-type="arc"
       d="m 299.56927,625.18673 a 8.5723772,8.5723772 0 0 1 -8.74471,8.33655 8.5723772,8.5723772 0 0 1 -8.39605,-8.68761 8.5723772,8.5723772 0 0 1 8.6301,-8.45515 8.5723772,8.5723772 0 0 1 8.51386,8.57218" />
    <path
       style="fill:#000000;fill-opacity:1;stroke-width:2.10969"
       id="path2-6-0-7"
       sodipodi:type="arc"
       sodipodi:cx="282.51749"
       sodipodi:cy="640.08997"
       sodipodi:rx="8.5723772"
       sodipodi:ry="8.5723772"
       sodipodi:start="0.027304543"
       sodipodi:end="6.2831853"
       sodipodi:open="true"
       sodipodi:arc-type="arc"
       d="m 291.08667,640.324 a 8.5723772,8.5723772 0 0 1 -8.74472,8.33655 8.5723772,8.5723772 0 0 1 -8.39604,-8.68761 8.5723772,8.5723772 0 0 1 8.63009,-8.45515 8.5723772,8.5723772 0 0 1 8.51386,8.57218" />
    <path
       style="fill:#000000;fill-opacity:1;stroke-width:2.10969"
       id="path2-6-0-9"
       sodipodi:type="arc"
       sodipodi:cx="299.66608"
       sodipodi:cy="640.08997"
       sodipodi:rx="8.5723772"
       sodipodi:ry="8.5723772"
       sodipodi:start="0.027304543"
       sodipodi:end="6.2831853"
       sodipodi:open="true"
       sodipodi:arc-type="arc"
       d="m 308.23526,640.324 a 8.5723772,8.5723772 0 0 1 -8.74472,8.33655 8.5723772,8.5723772 0 0 1 -8.39604,-8.68761 8.5723772,8.5723772 0 0 1 8.63009,-8.45515 8.5723772,8.5723772 0 0 1 8.51386,8.57218" />
    <path
       sodipodi:type="star"
       style="fill:#000000"
       id="path1-99"
       inkscape:flatsided="false"
       sodipodi:sides="3"
       sodipodi:cx="-4.2679658"
       sodipodi:cy="5.2618756"
       sodipodi:r1="0.76004869"
       sodipodi:r2="0.33594152"
       sodipodi:arg1="1.5707963"
       sodipodi:arg2="2.6179939"
       inkscape:rounded="0"
       inkscape:randomized="0"
       d="m -4.2679658,6.0219243 -0.2909339,-0.5920779 -0.3672876,-0.5479951 0.6582215,0.044083 0.6582215,-0.044083 -0.3672876,0.5479951 z"
       inkscape:transform-center-y="0.21087664"
       transform="matrix(4.5466021,0,0,4.5466021,310.29061,582.85793)" />
    <path
       sodipodi:type="star"
       style="fill:#000000"
       id="path1-7"
       inkscape:flatsided="false"
       sodipodi:sides="3"
       sodipodi:cx="-4.2679658"
       sodipodi:cy="5.2618756"
       sodipodi:r1="0.76004869"
       sodipodi:r2="0.33594152"
       sodipodi:arg1="1.5707963"
       sodipodi:arg2="2.6179939"
       inkscape:rounded="0"
       inkscape:randomized="0"
       d="m -4.2679658,6.0219243 -0.2909339,-0.5920779 -0.3672876,-0.5479951 0.6582215,0.044083 0.6582215,-0.044083 -0.3672876,0.5479951 z"
       inkscape:transform-center-y="-0.1986054"
       transform="matrix(2.1410252,4.0109351,-4.0109351,2.1410252,320.82082,620.19352)"
       inkscape:transform-center-x="0.014034468" />
    <path
       sodipodi:type="star"
       style="fill:#000000"
       id="path1-9"
       inkscape:flatsided="false"
       sodipodi:sides="3"
       sodipodi:cx="-4.2679658"
       sodipodi:cy="5.2618756"
       sodipodi:r1="0.76004869"
       sodipodi:r2="0.33594152"
       sodipodi:arg1="1.5707963"
       sodipodi:arg2="2.6179939"
       inkscape:rounded="0"
       inkscape:randomized="0"
       d="m -4.2679658,6.0219243 -0.2909339,-0.5920779 -0.3672876,-0.5479951 0.6582215,0.044083 0.6582215,-0.044083 -0.3672876,0.5479951 z"
       inkscape:transform-center-y="0.0047987713"
       transform="matrix(-0.05177666,-4.5463077,4.5463077,-0.05177666,263.24506,591.48829)"
       inkscape:transform-center-x="-0.2066996" />
    <path
       sodipodi:type="star"
       style="fill:#000000"
       id="path1-5"
       inkscape:flatsided="false"
       sodipodi:sides="3"
       sodipodi:cx="-4.2679658"
       sodipodi:cy="5.2618756"
       sodipodi:r1="0.76004869"
       sodipodi:r2="0.33594152"
       sodipodi:arg1="1.5707963"
       sodipodi:arg2="2.6179939"
       inkscape:rounded="0"
       inkscape:randomized="0"
       d="m -4.2679658,6.0219243 -0.2909339,-0.5920779 -0.3672876,-0.5479951 0.6582215,0.044083 0.6582215,-0.044083 -0.3672876,0.5479951 z"
       inkscape:transform-center-y="0.024724087"
       transform="matrix(-0.26655543,4.5387818,-4.5387818,-0.26655543,316.77845,631.68679)"
       inkscape:transform-center-x="0.18910257" />
  </g>
</svg>
