<?xml version="1.0" encoding="UTF-8" standalone="no"?>
<!-- Created with Inkscape (http://www.inkscape.org/) -->

<svg
   width="63mm"
   height="88mm"
   viewBox="0 0 63 88"
   version="1.1"
   id="svg1"
   inkscape:version="1.3.2 (091e20e, 2023-11-25, custom)"
   sodipodi:docname="card-item.svg"
   xmlns:inkscape="http://www.inkscape.org/namespaces/inkscape"
   xmlns:sodipodi="http://sodipodi.sourceforge.net/DTD/sodipodi-0.dtd"
   xmlns="http://www.w3.org/2000/svg"
   xmlns:svg="http://www.w3.org/2000/svg">
  <sodipodi:namedview
     id="namedview1"
     pagecolor="#ffffff"
     bordercolor="#000000"
     borderopacity="0.25"
     inkscape:showpageshadow="2"
     inkscape:pageopacity="0.0"
     inkscape:pagecheckerboard="0"
     inkscape:deskcolor="#d1d1d1"
     inkscape:document-units="mm"
     inkscape:zoom="2.4684422"
     inkscape:cx="116.47022"
     inkscape:cy="25.724726"
     inkscape:window-width="1920"
     inkscape:window-height="1017"
     inkscape:window-x="-8"
     inkscape:window-y="-8"
     inkscape:window-maximized="1"
     inkscape:current-layer="layer1" />
  <defs
     id="defs1" />
  <g
     inkscape:label="Layer 1"
     inkscape:groupmode="layer"
     id="layer1">
    <g
       id="move"
       inkscape:label="move"
       transform="matrix(0.71786007,0,0,0.71786007,32.191057,33.121998)">
      <text
         xml:space="preserve"
         style="font-style:normal;font-variant:normal;font-weight:normal;font-stretch:normal;font-size:9.56758px;font-family:Gabriola;-inkscape-font-specification:'Gabriola, Normal';font-variant-ligatures:normal;font-variant-caps:normal;font-variant-numeric:normal;font-variant-east-asian:normal;fill:#000000;fill-opacity:1;stroke:none;stroke-width:0.0173914;stroke-dasharray:none;stroke-opacity:1;paint-order:markers fill stroke"
         x="8.5526972"
         y="7.5658994"
         id="text1-96"><tspan
           sodipodi:role="line"
           id="tspan1-8"
           x="8.5526972"
           y="7.5658994">Move</tspan></text>
      <path
         fill="#fefefe"
         d="m 2.7978912,5.5495729 0.01389,0.00336 c 0.110901,0.2430924 0.225471,0.2392923 0.386457,0.4747787 -0.505273,-0.00697 -0.755588,-0.070308 -1.211736,-0.2773078 -0.08716,-0.00568 -0.307196,-0.2011166 -0.352075,-0.2368187 -0.09332,-0.074229 -0.176389,-0.1509654 -0.257522,-0.2319156 0.182344,0.057349 0.370591,0.098718 0.555824,0.1361655 0.28906,0.058471 0.577545,0.1043964 0.865177,0.1316763 z"
         id="path2-5-1"
         style="stroke:#000000;stroke-width:0.15;stroke-dasharray:none;stroke-opacity:1"
         sodipodi:nodetypes="ccccccccc" />
      <path
         fill="#fefefe"
         d="m 2.5949602,4.8484334 c 0.01072,0.00243 0.02088,0.00397 0.03065,0.0092 0.01233,0.096396 0.03123,0.1898508 0.06547,0.2810155 l 0.04465,0.1064851 c 0.0073,0.016467 0.02022,0.038163 0.02264,0.055817 C 2.5397012,5.38612 2.3782372,5.335695 2.1856512,5.238754 1.8729552,5.0549799 1.6028082,4.7591562 1.4756082,4.4168243 c 0.242295,0.1832762 0.532139,0.277683 0.821961,0.3570284 z"
         id="path3-9"
         style="stroke:#000000;stroke-width:0.15;stroke-dasharray:none;stroke-opacity:1"
         sodipodi:nodetypes="ccccccccc" />
      <path
         fill="#fefefe"
         d="m 2.5243202,4.4842937 c -0.06394,-0.016826 -0.129989,-0.028197 -0.192417,-0.050536 -0.05507,-0.019701 -0.111238,-0.051276 -0.161628,-0.081102 -0.139843,-0.08277 -0.266914,-0.1866042 -0.374198,-0.3088985 -0.28499,-0.324848 -0.389779,-0.7479436 -0.362015,-1.1722203 0.09316,0.2096603 0.230451,0.3932989 0.413217,0.5341686 l 0.10203,0.071475 c 0.01817,0.011708 0.04545,0.02255 0.06025,0.037821 0.0136,0.014035 0.02493,0.031524 0.0371,0.046916 l 0.08923,0.1093364 c 0.142657,0.1593754 0.310137,0.3055261 0.492444,0.41773 l 0.0083,0.00887 c -0.0401,0.127647 -0.06728,0.2588125 -0.06842,0.392954 z"
         id="path6-5-5"
         style="stroke:#000000;stroke-width:0.15;stroke-dasharray:none;stroke-opacity:1" />
      <path
         fill="#fefefe"
         d="m 2.7094402,3.7763782 c -0.39157,-0.2522878 -0.728106,-0.6335393 -0.906471,-1.0656926 -0.02816,-0.068242 -0.04854,-0.1389619 -0.06846,-0.209947 -0.129794,-0.4626197 -0.09535,-0.9765983 0.08928,-1.4199793 0.01867,0.046836 0.02718,0.1015348 0.04035,0.1505062 0.02311,0.085943 0.05158,0.1683588 0.08766,0.2497734 0.0305,0.068822 0.0635,0.1383116 0.102154,0.2028681 l 0.05833,0.090742 c 0.01211,0.01767 0.03276,0.040188 0.03931,0.06049 0.01375,0.042573 0.01695,0.090918 0.02765,0.1345839 0.02157,0.088002 0.05051,0.1751013 0.07996,0.26077 0.0297,0.086394 0.06868,0.1688697 0.107953,0.2511736 l 0.09634,0.1936185 c 0.120894,0.2182589 0.268147,0.4230471 0.420479,0.6202164 l 0.01515,0.019931 c -0.0033,0.021621 -0.01765,0.045861 -0.02649,0.066155 l -0.04315,0.1059459 -0.103874,0.2939185 z"
         id="path8-0"
         style="stroke:#000000;stroke-width:0.15;stroke-dasharray:none;stroke-opacity:1" />
      <path
         fill="#fefefe"
         d="M 3.0533782,3.0114041 C 2.9572982,2.8802309 2.8597762,2.749768 2.7741222,2.6113906 2.7117622,2.5106605 2.6582802,2.4072954 2.6065492,2.3009278 2.5347992,2.1533686 2.4706412,1.9922082 2.4413612,1.8299989 c -0.0159,-0.088092 -0.02924,-0.1760261 -0.03316,-0.2655807 -0.01569,-0.3578796 0.07709,-0.72267603 0.24721,-1.03683423 0.04673,-0.086301 0.100301,-0.1669497 0.156314,-0.2473755 0.0027,0.0027 0.0015,0.020633 0.0016,0.025431 0.0014,0.164159 0.008,0.3257625 0.02743,0.4888901 0.045,0.37814963 0.139521,0.74151293 0.250245,1.10502933 l 0.211502,0.6308519 c -0.0081,0.024961 -0.02681,0.049032 -0.03986,0.071936 l -0.0472,0.090124 -0.149877,0.3225016 -0.005,0.00252 z"
         id="path9-5"
         style="stroke:#000000;stroke-width:0.15;stroke-dasharray:none;stroke-opacity:1" />
      <path
         fill="#0f0f0f"
         d="m 3.3735812,6.1766577 c 0.406073,0.5138223 0.830068,1.0105644 1.308241,1.459227 0.324991,0.3049241 0.67777,0.5924573 1.072271,0.8032537 0.512473,0.2738351 1.10545,0.4317528 1.680169,0.5000474 0.160114,0.019021 0.320812,0.024241 0.481621,0.032923 0.148296,0.00801 0.299267,0.022692 0.447613,0.010231 -0.02011,0.02526 -0.06309,0.035964 -0.09353,0.048514 -0.21986,0.090692 -0.453498,0.1452504 -0.689623,0.1720704 -0.697095,0.07917 -1.426874,-0.089625 -2.045724,-0.4110223 C 5.2546272,8.6464971 4.9961302,8.4689901 4.7499342,8.2724873 4.3659312,7.9659725 4.0153882,7.6131032 3.7002722,7.2365708 L 3.4378732,6.9128724 2.8508742,7.4560341 1.4741972,6.7856807 1.6354422,5.7712174 c 0.02462,0.013568 0.04972,0.029734 0.07644,0.03861 0.150141,0.076745 0.301295,0.1520891 0.459463,0.2111044 0.383515,0.1431269 0.480864,0.1913743 0.88744,0.1587993 z"
         id="path10-2"
         style="fill:none;fill-opacity:1;stroke:#000000;stroke-width:0.15;stroke-dasharray:none;stroke-opacity:1"
         sodipodi:nodetypes="ccccccccccccccccccc" />
      <path
         fill="#dc9308"
         d="m 5.3266762,2.0855823 0.0093,0.00226 c 0.03169,0.00723 0.07419,0.00202 0.106977,0.0014 l 0.231471,-0.00342 c 0.154606,-0.00156 0.314482,0.00708 0.468208,-0.0028 -0.408155,0.6592555 -0.637951,1.4298818 -0.616496,2.207228 0.0075,0.2748659 0.04823,0.5422931 0.111179,0.8094678 0.243538,1.0336322 0.750359,1.9541337 1.377921,2.6446332 0.781523,0.8163594 0.547833,0.5024576 1.302932,1.0945475 C 7.1993452,8.599 6.9263792,8.5656487 6.6162752,8.4299812 5.9769272,8.0303661 5.6489362,7.9849416 4.8790092,7.2407453 4.0527652,6.4421145 3.6975552,6.22064 3.3930112,5.4844526 L 3.1826702,4.2299168 C 2.9965692,2.7595989 3.4680552,2.1903559 3.4433092,2.1041777 l 1.374427,-0.016936 0.343663,0.00389 c 0.05503,-5.167e-4 0.110633,0.00132 0.165272,-0.00545 z"
         id="path11-9"
         style="fill:none;stroke:#000000;stroke-width:0.15;stroke-dasharray:none;stroke-opacity:1"
         sodipodi:nodetypes="cccccsccccsccccccc" />
      <path
         id="path2-05"
         inkscape:transform-center-x="-0.01494134"
         inkscape:transform-center-y="-3.7500871"
         d="m 3.0257692,5.8664946 c 1.315241,-0.4762473 0.90314,-0.6179586 1.399078,-3.7292408 0.525742,3.082298 0.170715,3.2708907 1.41383,3.7162228 z"
         sodipodi:nodetypes="cccc"
         style="stroke-width:0.690373" />
      <path
         id="path2-0-5"
         inkscape:transform-center-x="-0.0034207367"
         inkscape:transform-center-y="-1.3106034"
         d="m 4.1226262,6.4430161 c 0.265905,-0.1686276 0.248746,-0.4081937 0.320343,-1.3033192 0.07799,0.9022329 0.05413,1.1380894 0.323721,1.2987686 z"
         sodipodi:nodetypes="cccc"
         style="stroke-width:0.195295" />
    </g>
    <g
       id="will"
       inkscape:label="will"
       transform="matrix(0.04996181,0,0,0.04996181,31.79726,23.937647)">
      <path
         fill="#af1613"
         d="m 77.029199,40.411414 c 2.56653,-3.121018 6.146159,-5.356392 10.226273,-5.760159 4.018344,-0.397642 7.928925,0.785194 11.045326,3.355744 3.220212,2.656299 5.200292,6.521725 5.584512,10.664568 0.37196,4.010101 -0.89963,8.145998 -3.47952,11.240736 L 77.07198,83.430441 61.70876,67.859539 l 3.633982,0.01341 11.699745,11.955026 c 0.244927,-0.177768 0.464117,-0.441366 0.678261,-0.65591 l 1.202171,-1.204707 4.25912,-4.247938 10.144267,-10.141344 3.046301,-3.041131 c 1.111123,-1.112342 2.223722,-2.168551 3.078675,-3.501032 1.884858,-2.937666 2.387518,-6.445092 1.651648,-9.834013 -0.74255,-3.419898 -2.741774,-6.349533 -5.692469,-8.240052 -2.649686,-1.697684 -5.967501,-2.417765 -9.063599,-1.725202 -4.129976,0.923791 -7.083926,3.61388 -9.284016,7.104354 l -0.08021,-0.03703 z"
         id="path2-3"
         style="stroke-width:0.0681122" />
      <path
         fill="#e7342a"
         d="m 61.70876,67.859539 -7.693665,-7.870951 c -2.672166,-2.917921 -3.967932,-6.861883 -3.782799,-10.790102 0.188334,-3.99681 1.94793,-7.943432 4.920756,-10.643935 2.986165,-2.712501 6.845596,-4.125821 10.880074,-3.92074 3.324074,0.168919 6.651554,1.523876 9.12007,3.762031 0.448034,0.406164 0.885798,0.831795 1.285473,1.285956 0.200111,0.227424 0.365356,0.484075 0.569416,0.706936 l 0.02107,0.02271 -0.04655,3.892536 0.08021,0.03703 c 2.200081,-3.490465 5.154031,-6.180543 9.284006,-7.104344 3.096108,-0.692563 6.413917,0.02751 9.06361,1.725202 2.950673,1.890519 4.949899,4.820154 5.692469,8.240062 0.73588,3.388911 0.23322,6.896337 -1.651658,9.834014 -0.854933,1.33247 -1.96754,2.388679 -3.078664,3.501021 l -3.046301,3.041131 -10.144279,10.141344 -4.259108,4.247949 -1.202181,1.204687 c -0.214146,0.214565 -0.433335,0.478151 -0.678261,0.65594 L 65.342701,67.872983 Z"
         id="path3-8"
         style="stroke-width:0.0681122" />
      <path
         fill="#ef957e"
         d="m 58.781448,61.16679 -0.03899,-0.01566 c -0.135404,-0.06834 -0.269931,-0.215915 -0.38334,-0.319238 l -0.89343,-0.863998 c -0.51724,-0.50124 -1.073579,-0.970399 -1.565757,-1.496223 -1.165189,-1.244544 -2.074617,-2.865124 -2.622855,-4.475299 -1.077191,-3.164076 -0.870954,-6.77633 0.62309,-9.775846 1.49873,-3.008856 4.178742,-5.399378 7.375237,-6.470983 3.066133,-1.027873 6.425889,-0.795958 9.328352,0.647949 2.295444,1.141968 3.911533,2.810649 5.384873,4.875867 0.218431,0.306236 0.627367,0.74045 0.743569,1.086388 l -0.03314,-0.02271 c -0.625327,-0.434755 -1.174383,-0.94157 -1.828869,-1.344388 -2.658897,-1.636457 -5.880118,-2.199886 -8.94706,-1.668345 -3.194326,0.553619 -5.976218,2.400139 -7.828048,5.045 -1.832351,2.617067 -2.56081,6.110058 -1.996983,9.246205 0.355341,1.976751 1.265659,4.096053 2.683407,5.551265 z"
         id="path4-3"
         style="stroke-width:0.0681122" />
      <text
         xml:space="preserve"
         style="font-style:normal;font-variant:normal;font-weight:normal;font-stretch:normal;font-size:148.144px;font-family:Gabriola;-inkscape-font-specification:'Gabriola, Normal';font-variant-ligatures:normal;font-variant-caps:normal;font-variant-numeric:normal;font-variant-east-asian:normal;fill:#d15151;fill-opacity:1;stroke:none;stroke-width:0.269287;stroke-dasharray:none;stroke-opacity:1;paint-order:markers fill stroke"
         x="143.74818"
         y="120.21738"
         id="text1-9"><tspan
           sodipodi:role="line"
           id="tspan1-3"
           x="143.74818"
           y="120.21738">Will</tspan></text>
      <rect
         style="fill:#ef957e;fill-opacity:1;stroke:none;stroke-width:0.499792;paint-order:markers fill stroke"
         id="rect1-6"
         width="53.548679"
         height="2.2158067"
         x="50.361313"
         y="46.373329" />
      <path
         fill="#37b2df"
         d="m 67.687272,9.4903298 c 9.129131,0.41534 11.108912,-0.10056 20.023959,0.10644 0.302648,2.9464202 0.416821,5.8434802 1.157431,8.7323702 0.272745,1.06425 0.616017,2.21895 1.245626,3.13052 l 20.028802,5.67374 5.01345,1.3092 c 2.41741,0.5843 4.77712,1.07225 6.95772,2.33525 2.73773,1.58558 4.89628,4.10145 6.33354,6.89444 2.21398,4.30246 2.23498,9.22697 2.94085,13.91725 l -13.81954,6.29428 -1.77858,0.84889 c -0.3688,0.15858 -0.79966,0.27486 -1.13417,0.49022 l -0.74227,4.52128 -1.65158,7.02915 -2.9866,10.1381 -4.0143,11.95049 c -2.4754,8.25136 -3.13596,17.05139 -1.53106,25.53428 1.09839,5.80527 3.23882,11.34021 5.01966,16.95369 -0.16778,0.24465 -0.70284,0.45156 -0.97665,0.592 -1.38457,0.70679 -2.82743,1.29124 -4.29838,1.79263 -8.846855,3.01439 -17.891693,4.05946 -27.207009,3.88277 -10.178256,-0.19331 -20.361797,-1.88475 -29.563695,-6.40633 0.620547,-1.19912 1.099891,-2.52811 1.571374,-3.79519 l 2.355338,-7.14634 c 1.123148,-3.7982 2.080927,-7.66434 2.430995,-11.6196 1.093398,-12.35357 -4.134212,-23.93164 -7.992665,-35.33 -1.644025,-4.85611 -2.888447,-9.96094 -3.998301,-14.96369 L 40.618005,59.38075 C 38.541906,58.63092 36.517758,57.42442 34.526989,56.4612 L 24.060736,51.39306 24.9347,44.92132 c 1.065314,-6.33323 3.946649,-12.25872 10.16603,-14.85583 2.801896,-1.17013 6.020021,-1.80351 8.956633,-2.57946 l 14.129891,-3.98607 4.179071,-1.24714 c 1.003842,-0.30219 2.196609,-0.563 3.050487,-1.17011 1.818602,-3.50748 2.158552,-7.70241 2.27046,-11.5924202 z"
         id="path5-02"
         sodipodi:nodetypes="ccccccccccccccccccccccccscccccccccccc"
         style="fill:none;stroke:#f19494;stroke-width:2.63227;stroke-dasharray:none;stroke-opacity:1" />
      <path
         fill="#26A4D4"
         d="m 77.810917,85.77911 0.07836,0.0662 0.05523,43.01425 -0.101493,0.20348 c -0.152362,-1.15785 -0.111183,-2.40653 -0.142552,-3.57649 l -0.180454,-4.66046 -0.299758,-14.06493 0.276381,-11.09147 0.185426,-7.45781 c 0.03719,-0.81352 -0.01902,-1.6279 0.128864,-2.43282 z"
         id="path6-5"
         style="fill:#6f838b;fill-opacity:1;stroke-width:0.121114" />
      <path
         fill="#26A4D4"
         d="m 114.57352,50.29809 c -0.1814,1.4787 -0.55728,2.95829 -0.91481,4.40314 -0.3709,1.49901 -0.76107,3.0717 -1.36813,4.49489 -0.49396,1.15757 -1.20689,2.27603 -1.83636,3.36681 -1.9361,3.35477 -3.88965,6.53748 -6.71933,9.23149 -3.793528,3.61168 -8.496584,5.38909 -13.726986,5.26891 l -0.08379,-0.0492 -0.01925,-0.0953 1.002792,-0.2745 c 5.570781,-1.49358 10.404694,-4.98147 13.942974,-9.50209 2.51006,-3.20692 4.46767,-6.85905 6.36434,-10.44982 z"
         id="path7-1"
         style="fill:#f19494;fill-opacity:1;stroke-width:0.15484;stroke-dasharray:none" />
      <path
         fill="#26A4D4"
         d="m 39.136024,48.78239 c 0.322281,0.38209 0.505162,1.23929 0.692739,1.71833 l 1.429271,3.42003 c 1.018034,2.27621 2.082427,4.53564 3.322016,6.70114 3.663939,6.40014 8.635421,13.00945 15.923725,15.44257 1.084488,0.362 2.285109,0.68246 3.417772,0.84119 0.976204,0.13668 1.973098,0.15978 2.926798,0.41848 l -1.517314,0.11069 C 59.651712,77.70061 53.968918,75.65427 49.766438,71.83795 45.801666,68.2376 43.314341,63.50065 41.433666,58.55499 40.266417,55.48503 39.288552,52.07768 39.136024,48.78238 Z"
         id="path8-5"
         style="fill:#f29494;fill-opacity:0.745098;stroke-width:0.151022" />
    </g>
    <g
       id="mind"
       inkscape:label="mind"
       transform="matrix(0.04545159,0,0,0.04545159,32.556629,15.149487)">
      <path
         fill="#8751D1"
         d="m 45.069566,139.04014 c -0.248111,-0.0337 -0.611351,0.0446 -0.868522,0.0689 l -1.883644,0.18649 c -3.725007,0.33108 -8.574194,0.88378 -11.917306,-1.09865 -2.314192,-1.37162 -3.715411,-3.91758 -3.777977,-6.58974 -0.03164,-1.35445 0.215135,-2.71607 0.338241,-4.0627 0.155003,-1.69621 0.116892,-3.55812 -0.362431,-5.20298 -0.34838,-1.19595 -1.456078,-1.90027 -2.278781,-2.7777 -0.32433,-0.34581 -0.661486,-0.6965 -0.757972,-1.17919 -0.0843,-0.42203 0.0043,-0.78231 0.230402,-1.14312 0.704596,-1.12593 2.047835,-1.75635 3.29176,-2.05337 -1.467845,-0.66041 -2.981085,-1.155 -3.739731,-2.6996 -0.07379,-0.9685 0.677159,-1.48648 1.225944,-2.20552 0.442565,-0.57988 0.909594,-1.29285 1.145945,-1.98636 0.305944,-0.89757 0.393242,-2.0065 -0.06241,-2.87055 -0.32352,-0.61365 -0.912035,-0.94972 -1.547437,-1.15905 -1.071759,-0.35298 -2.445006,-0.17271 -3.575004,-0.2446 -1.083915,-0.069 -2.383923,-0.43067 -3.122838,-1.2777 -1.582435,-1.81365 -0.566896,-3.341627 0.315943,-5.182301 l 4.40663,-9.125686 c 1.327024,-2.791887 2.808644,-5.688786 3.465812,-8.724462 0.231214,-1.067976 0.278375,-2.210949 0.161623,-3.299054 -0.155546,-1.450682 -0.55595,-2.892304 -0.775948,-4.337305 -0.502571,-3.301355 -0.634462,-6.641492 -0.433247,-9.973112 0.437161,-7.238248 2.595948,-14.667849 6.676628,-20.714749 0.70257,-1.04108 1.442028,-2.206888 2.389052,-3.045943 l -0.03044,0.07699 c -0.326347,0.791894 -0.851624,1.540136 -1.259725,2.297979 -0.732035,1.359591 -1.383789,2.75919 -1.942711,4.19852 -3.661347,9.429059 -4.578243,20.647578 -0.717562,30.159746 8.911114,17.456136 15.387601,16.812794 26.955221,20.263775 10.012219,2.861604 13.257775,1.136691 21.956702,2.949485 l -0.119322,0.122433 c 3.335274,5.090544 4.528788,11.785684 3.299595,17.736084 -1.397564,6.76486 -5.747568,11.90094 -11.446896,15.60163 -4.508927,2.92783 -9.910554,4.75486 -15.1588,5.80891 -3.333517,0.67028 -6.712704,1.04731 -10.080814,1.48244 z"
         id="path2"
         style="fill:none;fill-opacity:1;stroke:#d15151;stroke-width:2.32259;stroke-dasharray:none;stroke-opacity:1"
         sodipodi:nodetypes="ccccccccccccscccccccsccssccccccccccccc" />
      <path
         fill="#8751d1"
         d="m 110.47063,87.831874 0.7243,-0.736351 c 1.03141,6.679077 0.17635,8.12435 -0.69795,12.074512 l -0.71417,2.933755 c -0.14946,0.56896 -0.3758,1.18807 -0.3954,1.77534 l -0.0339,0.0695 c -0.23147,0.49049 -0.35918,1.01867 -0.53903,1.52881 l -1.04402,2.5975 -1.32241,2.64221 c -0.28608,0.52561 -0.67078,1.07546 -0.84011,1.65093 -0.28594,0.97177 0.0137,3.13602 -0.1568,4.1357 -0.22679,3.91949 0.37141,-5.65372 -0.675,13.7383 -0.0798,7.10516 0.2035,3.83698 0.0437,9.61958 -33.967772,0.30038 -21.979159,1.29476 -56.854702,0.56081 -0.5289,-0.27512 -1.09429,-0.50825 -1.661308,-0.69391 -0.404306,-0.13284 -0.854031,-0.20602 -1.184826,-0.48928 l -0.04853,-0.0447 c 3.36802,-0.43641 6.747113,-0.81455 10.08054,-1.4868 5.248103,-1.05716 10.649585,-2.88956 15.158389,-5.82602 5.699174,-3.71157 10.04906,-8.86279 11.446585,-15.64757 1.22916,-5.96792 0.03569,-12.68277 -3.299505,-17.788303 l 0.119319,-0.122794 4.56299,0.54064 c 6.848873,0.254538 14.234216,-1.478937 20.056908,-5.165163 2.64925,-1.677087 4.98769,-3.735568 7.27493,-5.866689 z"
         id="path3"
         sodipodi:nodetypes="cccccccccscccccccccccccccc"
         style="fill:none;fill-opacity:1;stroke:#d15151;stroke-width:2.32259;stroke-dasharray:none;stroke-opacity:1" />
      <path
         fill="#7CC2F6"
         d="m 33.614281,38.342111 c 1.279466,-1.833251 2.456489,-3.693922 3.894603,-5.412979 7.018922,-8.389333 16.68447,-13.90136 27.437589,-15.825683 13.577573,-2.429603 27.659474,0.229997 39.035967,8.166222 8.62275,9.207975 12.62393,13.595311 14.7902,23.818614 2.39361,11.296173 1.21487,17.448079 1.61518,19.387788 -1.2041,9.38938 -3.97899,12.979116 -8.96838,18.617959 l -8.89392,7.030888 c -5.822842,3.675405 -12.537545,4.956561 -19.386604,4.702771 L 78.575801,98.288639 C 70.250326,97.738906 71.545665,97.439251 64.819602,96.803506 54.376821,96.067033 54.460673,95.291068 42.980934,90.980708 36.966472,88.45111 32.107394,81.096191 29.66388,75.075377 25.803198,65.56321 26.720094,54.344691 30.381441,44.915632 c 0.558922,-1.439329 1.210676,-2.838928 1.942711,-4.19852 0.408101,-0.757843 0.933378,-1.506085 1.259725,-2.297978 z"
         id="path5-0"
         style="fill:none;fill-opacity:1;stroke:#d15151;stroke-width:2.32259;stroke-dasharray:none;stroke-opacity:1"
         sodipodi:nodetypes="ccccscccccccccccc" />
      <text
         xml:space="preserve"
         style="font-size:148.144px;font-family:Gabriola;-inkscape-font-specification:'Gabriola, Normal';fill:#d15151;fill-opacity:1;stroke:none;stroke-width:0.269287;stroke-dasharray:none;stroke-opacity:1;paint-order:markers fill stroke"
         x="122.98837"
         y="124.82559"
         id="text1-5"><tspan
           sodipodi:role="line"
           id="tspan1-9"
           style="stroke:none;stroke-width:0.269291"
           x="122.98837"
           y="124.82559">Mind</tspan></text>
      <path
         style="fill:#d80000;fill-opacity:1;stroke-width:3.49882"
         id="path1-3"
         sodipodi:type="arc"
         sodipodi:cx="74.908852"
         sodipodi:cy="55.348866"
         sodipodi:rx="37.176922"
         sodipodi:ry="39.043968"
         sodipodi:start="0.027304543"
         sodipodi:end="6.2831853"
         sodipodi:open="true"
         sodipodi:arc-type="arc"
         d="M 112.07192,56.414811 A 37.176922,39.043968 0 0 1 74.147581,94.384647 37.176922,39.043968 0 0 1 37.735394,54.815843 37.176922,39.043968 0 0 1 75.162624,16.305807 37.176922,39.043968 0 0 1 112.08577,55.348866" />
      <path
         style="fill:#ffffff;fill-opacity:1;stroke-width:3.34545"
         id="path1-50"
         sodipodi:type="arc"
         sodipodi:cx="74.880028"
         sodipodi:cy="54.566803"
         sodipodi:rx="35.50272"
         sodipodi:ry="37.379631"
         sodipodi:start="0.027304543"
         sodipodi:end="6.2831853"
         sodipodi:open="true"
         sodipodi:arc-type="arc"
         d="M 110.36951,55.58731 A 35.50272,37.379631 0 0 1 74.153039,91.938596 35.50272,37.379631 0 0 1 39.380616,54.056502 35.50272,37.379631 0 0 1 75.122372,17.188043 35.50272,37.379631 0 0 1 110.38275,54.566803" />
      <rect
         style="fill:#cc0400;fill-opacity:1;stroke-width:4.1036"
         id="rect1-3"
         width="43.670288"
         height="44.625092"
         x="80.161438"
         y="-60.419685"
         transform="matrix(0.5298425,0.84809606,-0.5441132,0.83901181,0,0)" />
      <path
         id="path3-2"
         style="fill:#ffffff;stroke-width:4.17674"
         d="m 98.775343,54.888565 -23.728744,2.71407 -23.728727,-2.71407 23.728727,-0.542803 z"
         sodipodi:nodetypes="ccccc" />
      <path
         id="path4"
         style="fill:#ffffff;stroke-width:2.36508"
         inkscape:transform-center-x="-0.00029899198"
         inkscape:transform-center-y="-0.42374246"
         d="m 74.116083,55.27629 0.954195,-40.116648 0.981435,39.742019 z" />
    </g>
    <g
       id="body"
       transform="matrix(0.04139678,0,0,0.04139678,-0.32918678,11.389042)"
       inkscape:label="body">
      <path
         fill="#37b2df"
         d="m 864.05339,-88.720145 c 9.12913,0.41533 11.10891,-0.10057 20.02396,0.10643 0.30265,2.94643 0.41682,5.843481 1.15743,8.732376 0.27274,1.064244 0.61602,2.21895 1.24562,3.130516 l 20.0288,5.673739 5.01346,1.309203 c 2.41741,0.584302 4.77712,1.072252 6.95772,2.335256 2.73773,1.585572 4.89628,4.101443 6.33354,6.894433 2.21398,4.30246 2.23498,9.226976 2.94085,13.917256 l -13.81954,6.294275 -1.77858,0.848892 c -0.3688,0.15858 -0.79966,0.274863 -1.13417,0.490216 l -0.74227,4.521286 -1.65158,7.02915 -2.98661,10.138093 -4.0143,11.9504965 c -2.4754,8.2513616 -3.13596,17.0513915 -1.53106,25.5342815 1.09839,5.80527 3.23882,11.34021 5.01966,16.95369 -0.16778,0.24465 -0.70284,0.45156 -0.97665,0.592 -1.38457,0.70679 -2.82743,1.29124 -4.29838,1.79263 -8.84685,3.01439 -17.89169,4.05946 -27.207,3.88277 -10.17826,-0.19331 -20.3618,-1.88475 -29.5637,-6.40633 0.62055,-1.19912 1.09989,-2.52811 1.57138,-3.79519 l 2.35533,-7.14634 c 1.12315,-3.7982 2.08093,-7.66434 2.431,-11.6196 1.0934,-12.3535699 -4.13421,-23.9316425 -7.99267,-35.330007 -1.64402,-4.856109 -2.88844,-9.96094 -3.9983,-14.963687 l -0.45321,-2.975423 c -2.0761,-0.749822 -4.10025,-1.95633 -6.09101,-2.919548 l -10.46626,-5.068137 0.87396,-6.471737 c 1.06532,-6.333236 3.94665,-12.258722 10.16604,-14.855839 2.80189,-1.170125 6.02002,-1.803502 8.95663,-2.579455 l 14.12989,-3.98607 4.17907,-1.247137 c 1.00384,-0.302191 2.19661,-0.563005 3.05049,-1.170114 1.8186,-3.507476 2.15855,-7.702408 2.27046,-11.592425 z"
         id="path5"
         sodipodi:nodetypes="ccccccccccccccccccccccccscccccccccccc"
         style="fill:none;stroke:#000000;stroke-width:2.63227;stroke-dasharray:none;stroke-opacity:1" />
      <path
         fill="#26A4D4"
         d="m 874.17703,-12.431367 0.0784,0.06625 0.0552,43.014251 -0.10149,0.20348 c -0.15236,-1.15785 -0.11118,-2.40653 -0.14255,-3.57649 l -0.18046,-4.66046 -0.29975,-14.0649296 0.27638,-11.0914733 0.18542,-7.4578146 c 0.0372,-0.8135185 -0.019,-1.6278955 0.12887,-2.4328145 z"
         id="path6"
         style="fill:#6f838b;fill-opacity:1;stroke-width:0.121114" />
      <path
         fill="#26A4D4"
         d="m 910.93964,-47.912387 c -0.1814,1.478695 -0.55728,2.958286 -0.91481,4.403142 -0.3709,1.499002 -0.76107,3.071692 -1.36813,4.494889 -0.49396,1.157568 -1.2069,2.276026 -1.83637,3.366806 -1.9361,3.354774 -3.88965,6.537477 -6.71933,9.231488 -3.79352,3.611681 -8.49658,5.389089 -13.72698,5.268909 l -0.0838,-0.04916 -0.0192,-0.09534 1.00279,-0.274497 c 5.57078,-1.493582 10.4047,-4.981473 13.94297,-9.502088 2.51006,-3.20692 4.46767,-6.859053 6.36435,-10.449818 z"
         id="path7"
         style="fill:#768084;fill-opacity:1;stroke-width:0.150412" />
      <path
         fill="#26A4D4"
         d="m 835.50214,-49.42809 c 0.32228,0.38209 0.50516,1.239289 0.69274,1.718332 l 1.42927,3.420029 c 1.01803,2.276205 2.08243,4.535635 3.32202,6.701138 3.66394,6.400145 8.63542,13.009452 15.92372,15.44257 1.08449,0.362001 2.28511,0.682464 3.41777,0.841193 0.97621,0.136673 1.9731,0.159778 2.9268,0.418474 l -1.51731,0.110691 c -5.67932,0.265797 -11.36212,-1.780548 -15.5646,-5.596865 -3.96477,-3.600354 -6.45209,-8.337305 -8.33277,-13.282957 -1.16725,-3.06997 -2.14511,-6.477317 -2.29764,-9.772616 z"
         id="path8"
         style="fill:#6c858e;fill-opacity:1;stroke-width:0.151022" />
      <text
         xml:space="preserve"
         style="font-size:148.144px;font-family:Gabriola;-inkscape-font-specification:'Gabriola, Normal';fill:#000000;fill-opacity:1;stroke:none;stroke-width:0.269287;stroke-dasharray:none;stroke-opacity:1;paint-order:markers fill stroke"
         x="939.86749"
         y="10.799314"
         id="text1"><tspan
           sodipodi:role="line"
           id="tspan1"
           style="fill:#000000;fill-opacity:1;stroke:none;stroke-width:0.269291"
           x="939.86749"
           y="10.799314">Body</tspan></text>
      <path
         id="rect1"
         d="m 863.2171,-23.148295 h 22.03159 l -6.58614,1.627503 -0.61648,15.9142835 -8.89737,-0.0812 -0.10415,-15.8330095 z"
         sodipodi:nodetypes="ccccccc"
         style="stroke-width:3.17275" />
      <path
         style="fill:#000000;fill-opacity:1;stroke-width:2.63875"
         id="path2-6-0"
         sodipodi:type="arc"
         sodipodi:cx="873.84216"
         sodipodi:cy="-53.126362"
         sodipodi:rx="10.722118"
         sodipodi:ry="10.722118"
         sodipodi:start="0.027304543"
         sodipodi:end="6.2831853"
         sodipodi:open="true"
         sodipodi:arc-type="arc"
         d="m 884.56028,-52.833636 a 10.722118,10.722118 0 0 1 -10.93767,10.427144 10.722118,10.722118 0 0 1 -10.50157,-10.866247 10.722118,10.722118 0 0 1 10.79431,-10.575491 10.722118,10.722118 0 0 1 10.64893,10.721868" />
      <path
         style="fill:#000000;fill-opacity:1;stroke-width:2.63875"
         id="path2-6-0-7"
         sodipodi:type="arc"
         sodipodi:cx="863.23236"
         sodipodi:cy="-34.192963"
         sodipodi:rx="10.722118"
         sodipodi:ry="10.722118"
         sodipodi:start="0.027304543"
         sodipodi:end="6.2831853"
         sodipodi:open="true"
         sodipodi:arc-type="arc"
         d="m 873.95048,-33.900236 a 10.722118,10.722118 0 0 1 -10.93768,10.427144 10.722118,10.722118 0 0 1 -10.50156,-10.866247 10.722118,10.722118 0 0 1 10.79431,-10.575492 10.722118,10.722118 0 0 1 10.64893,10.721868" />
      <path
         style="fill:#000000;fill-opacity:1;stroke-width:2.63875"
         id="path2-6-0-9"
         sodipodi:type="arc"
         sodipodi:cx="884.6814"
         sodipodi:cy="-34.192963"
         sodipodi:rx="10.722118"
         sodipodi:ry="10.722118"
         sodipodi:start="0.027304543"
         sodipodi:end="6.2831853"
         sodipodi:open="true"
         sodipodi:arc-type="arc"
         d="m 895.39952,-33.900236 a 10.722118,10.722118 0 0 1 -10.93768,10.427144 10.722118,10.722118 0 0 1 -10.50156,-10.866247 10.722118,10.722118 0 0 1 10.79431,-10.575492 10.722118,10.722118 0 0 1 10.64892,10.721868" />
      <path
         sodipodi:type="star"
         style="fill:#000000"
         id="path1"
         inkscape:flatsided="false"
         sodipodi:sides="3"
         sodipodi:cx="-4.2679658"
         sodipodi:cy="5.2618756"
         sodipodi:r1="0.76004869"
         sodipodi:r2="0.33594152"
         sodipodi:arg1="1.5707963"
         sodipodi:arg2="2.6179939"
         inkscape:rounded="0"
         inkscape:randomized="0"
         d="m -4.2679658,6.0219243 -0.2909339,-0.5920779 -0.3672876,-0.5479951 0.6582215,0.044083 0.6582215,-0.044083 -0.3672876,0.5479951 z"
         inkscape:transform-center-y="0.26375665"
         transform="matrix(5.6867778,0,0,5.6867778,897.97031,-105.77742)" />
      <path
         sodipodi:type="star"
         style="fill:#000000"
         id="path1-7"
         inkscape:flatsided="false"
         sodipodi:sides="3"
         sodipodi:cx="-4.2679658"
         sodipodi:cy="5.2618756"
         sodipodi:r1="0.76004869"
         sodipodi:r2="0.33594152"
         sodipodi:arg1="1.5707963"
         sodipodi:arg2="2.6179939"
         inkscape:rounded="0"
         inkscape:randomized="0"
         d="m -4.2679658,6.0219243 -0.2909339,-0.5920779 -0.3672876,-0.5479951 0.6582215,0.044083 0.6582215,-0.044083 -0.3672876,0.5479951 z"
         inkscape:transform-center-y="-0.2484088"
         transform="matrix(2.6779415,5.0167787,-5.0167787,2.6779415,911.14124,-59.078985)"
         inkscape:transform-center-x="0.01755188" />
      <path
         sodipodi:type="star"
         style="fill:#000000"
         id="path1-9"
         inkscape:flatsided="false"
         sodipodi:sides="3"
         sodipodi:cx="-4.2679658"
         sodipodi:cy="5.2618756"
         sodipodi:r1="0.76004869"
         sodipodi:r2="0.33594152"
         sodipodi:arg1="1.5707963"
         sodipodi:arg2="2.6179939"
         inkscape:rounded="0"
         inkscape:randomized="0"
         d="m -4.2679658,6.0219243 -0.2909339,-0.5920779 -0.3672876,-0.5479951 0.6582215,0.044083 0.6582215,-0.044083 -0.3672876,0.5479951 z"
         inkscape:transform-center-y="0.0060081697"
         transform="matrix(-0.06476097,-5.6864096,5.6864096,-0.06476097,839.1269,-94.982772)"
         inkscape:transform-center-x="-0.25853771" />
      <path
         sodipodi:type="star"
         style="fill:#000000"
         id="path1-5"
         inkscape:flatsided="false"
         sodipodi:sides="3"
         sodipodi:cx="-4.2679658"
         sodipodi:cy="5.2618756"
         sodipodi:r1="0.76004869"
         sodipodi:r2="0.33594152"
         sodipodi:arg1="1.5707963"
         sodipodi:arg2="2.6179939"
         inkscape:rounded="0"
         inkscape:randomized="0"
         d="m -4.2679658,6.0219243 -0.2909339,-0.5920779 -0.3672876,-0.5479951 0.6582215,0.044083 0.6582215,-0.044083 -0.3672876,0.5479951 z"
         inkscape:transform-center-y="0.030927362"
         transform="matrix(-0.33340096,5.6769964,-5.6769964,-0.33340096,906.08514,-44.703488)"
         inkscape:transform-center-x="0.23652647" />
    </g>
    <text
       xml:space="preserve"
       style="font-size:2.67012px;font-family:Amiri;-inkscape-font-specification:'Amiri, Normal';fill:#000000;fill-opacity:1;stroke-width:0.0837243;stroke-linecap:round;stroke-miterlimit:0;stroke-opacity:0.198895;font-weight:normal;font-style:normal;font-stretch:normal;font-variant:normal;font-variant-ligatures:normal;font-variant-caps:normal;font-variant-numeric:normal;font-variant-east-asian:normal"
       x="3.7159631"
       y="42.894684"
       id="text2"><tspan
         sodipodi:role="line"
         id="tspan2">Skills/Powers:</tspan></text>
    <rect
       style="fill:#e1d300;fill-opacity:1;stroke:#000000;stroke-width:0.117463;stroke-linecap:round;stroke-miterlimit:0;stroke-dasharray:none;stroke-opacity:1"
       id="rect10"
       width="7.2852087"
       height="5.7512255"
       x="55.283092"
       y="0.47396085" />
  </g>
</svg>
