<?xml version="1.0" encoding="UTF-8" standalone="no"?>
<svg
   width="63mm"
   height="88mm"
   version="1.1"
   id="svg21"
   sodipodi:docname="card-fatigue.svg"
   viewBox="0 0 975.48891 1362.5877"
   inkscape:version="1.3.2 (091e20e, 2023-11-25, custom)"
   xmlns:inkscape="http://www.inkscape.org/namespaces/inkscape"
   xmlns:sodipodi="http://sodipodi.sourceforge.net/DTD/sodipodi-0.dtd"
   xmlns="http://www.w3.org/2000/svg"
   xmlns:svg="http://www.w3.org/2000/svg">
  <defs
     id="defs21" />
  <sodipodi:namedview
     id="namedview21"
     pagecolor="#ffffff"
     bordercolor="#000000"
     borderopacity="0.25"
     inkscape:showpageshadow="2"
     inkscape:pageopacity="0.0"
     inkscape:pagecheckerboard="0"
     inkscape:deskcolor="#d1d1d1"
     inkscape:document-units="mm"
     inkscape:zoom="12.954749"
     inkscape:cx="123.39105"
     inkscape:cy="174.60779"
     inkscape:window-width="1350"
     inkscape:window-height="1040"
     inkscape:window-x="58"
     inkscape:window-y="0"
     inkscape:window-maximized="0"
     inkscape:current-layer="svg21" />
  <rect
     style="fill:#dfefe9;fill-opacity:1;stroke:#383838;stroke-width:0.15484;stroke-opacity:1;paint-order:markers fill stroke"
     id="rect132"
     width="976.54572"
     height="1358.5623"
     x="-4.153985"
     y="-1.9272612" />
  <path
     fill="#37b2df"
     d="m 434.06276,613.16609 c 9.12913,0.41533 11.10891,-0.10056 20.02396,0.10643 0.30264,2.94643 0.41682,5.84348 1.15743,8.73238 0.27274,1.06424 0.61601,2.21895 1.24562,3.13051 l 20.0288,5.67374 5.01346,1.30921 c 2.41741,0.5843 4.77712,1.07225 6.95772,2.33525 2.73773,1.58557 4.89628,4.10144 6.33354,6.89443 2.21398,4.30246 2.23498,9.22698 2.94085,13.91726 l -13.81954,6.29428 -1.77858,0.84889 c -0.3688,0.15858 -0.79966,0.27486 -1.13417,0.49021 l -0.74227,4.52129 -1.65158,7.02915 -2.98661,10.13809 -4.0143,11.9505 c -2.4754,8.25137 -3.13596,17.05137 -1.53106,25.53427 1.09839,5.8053 3.23882,11.3402 5.01966,16.9537 -0.16778,0.2447 -0.70284,0.4516 -0.97665,0.592 -1.38457,0.7068 -2.82743,1.2912 -4.29838,1.7926 -8.84685,3.0144 -17.89169,4.0595 -27.207,3.8828 -10.17826,-0.1933 -20.3618,-1.8847 -29.5637,-6.4063 0.62055,-1.1991 1.09989,-2.5281 1.57138,-3.7952 l 2.35533,-7.1464 c 1.12315,-3.7982 2.08093,-7.6643 2.431,-11.6196 1.0934,-12.3535 -4.13421,-23.9316 -7.99267,-35.32997 -1.64402,-4.85611 -2.88844,-9.96094 -3.9983,-14.96368 l -0.45321,-2.97543 c -2.0761,-0.74982 -4.10025,-1.95633 -6.09102,-2.91954 l -10.46625,-5.06814 0.87396,-6.47174 c 1.06532,-6.33323 3.94665,-12.25872 10.16603,-14.85584 2.8019,-1.17012 6.02003,-1.8035 8.95664,-2.57945 l 14.12989,-3.98607 4.17907,-1.24714 c 1.00384,-0.30219 2.19661,-0.56301 3.05049,-1.17011 1.8186,-3.50748 2.15855,-7.70241 2.27046,-11.59243 z"
     id="path5-3"
     sodipodi:nodetypes="ccccccccccccccccccccccccscccccccccccc"
     style="fill:none;stroke:#000000;stroke-width:2.63227176;stroke-dasharray:none;stroke-opacity:1" />
  <path
     fill="#26A4D4"
     d="m 444.1864,689.45487 0.0784,0.0662 0.0552,43.01421 -0.10149,0.2035 c -0.15236,-1.1578 -0.11118,-2.4065 -0.14255,-3.5765 l -0.18046,-4.6604 -0.29976,-14.065 0.27639,-11.09143 0.18542,-7.45782 c 0.0372,-0.81352 -0.019,-1.62789 0.12887,-2.43281 z"
     id="path6-7"
     style="fill:#6f838b;fill-opacity:1;stroke-width:0.12387161;stroke-dasharray:none" />
  <path
     fill="#26A4D4"
     d="m 480.94901,653.97385 c -0.1814,1.47869 -0.55728,2.95829 -0.91481,4.40314 -0.3709,1.499 -0.76107,3.07169 -1.36813,4.49489 -0.49396,1.15757 -1.2069,2.27603 -1.83637,3.36681 -1.9361,3.35477 -3.88965,6.53747 -6.71933,9.23148 -3.79352,3.61168 -8.49658,5.38909 -13.72698,5.26891 l -0.0838,-0.0492 -0.0193,-0.0953 1.00279,-0.27449 c 5.57078,-1.49359 10.4047,-4.98148 13.94297,-9.50209 2.51006,-3.20692 4.46767,-6.85905 6.36435,-10.44982 z"
     id="path7-7"
     style="fill:#768084;fill-opacity:1;stroke-width:0.15483953;stroke-dasharray:none" />
  <path
     fill="#26A4D4"
     d="m 405.51151,652.45815 c 0.32228,0.38209 0.50516,1.23928 0.69274,1.71833 l 1.42927,3.42003 c 1.01803,2.2762 2.08243,4.53563 3.32201,6.70114 3.66394,6.40014 8.63543,13.00945 15.92373,15.44256 1.08449,0.36201 2.28511,0.68247 3.41777,0.8412 0.97621,0.13667 1.9731,0.15978 2.9268,0.41847 l -1.51731,0.11069 c -5.67932,0.2658 -11.36212,-1.78054 -15.5646,-5.59686 -3.96477,-3.60036 -6.45209,-8.33731 -8.33277,-13.28296 -1.16725,-3.06997 -2.14511,-6.47732 -2.29764,-9.77261 z"
     id="path8-0"
     style="fill:#6c858e;fill-opacity:1;stroke-width:0.151022" />
  <text
     xml:space="preserve"
     style="font-size:148.144px;font-family:Gabriola;-inkscape-font-specification:'Gabriola, Normal';fill:#000000;fill-opacity:1;stroke:#000000;stroke-width:0.269287;stroke-dasharray:none;stroke-opacity:1;paint-order:markers fill stroke"
     x="509.87683"
     y="712.68555"
     id="text1"><tspan
       sodipodi:role="line"
       id="tspan1"
       style="fill:#000000;fill-opacity:1;stroke-width:0.269291"
       x="509.87683"
       y="712.68555">Body</tspan></text>
  <path
     id="rect1"
     d="m 433.22646,678.73794 h 22.0316 l -6.58614,1.6275 -0.61648,15.91429 -8.89737,-0.0812 -0.10415,-15.83301 z"
     sodipodi:nodetypes="ccccccc"
     style="stroke-width:3.17275" />
  <path
     style="fill:#000000;fill-opacity:1;stroke-width:2.63875"
     id="path2-6-0"
     sodipodi:type="arc"
     sodipodi:cx="443.85153"
     sodipodi:cy="648.75989"
     sodipodi:rx="10.722118"
     sodipodi:ry="10.722118"
     sodipodi:start="0.027304543"
     sodipodi:end="6.2831853"
     sodipodi:open="true"
     sodipodi:arc-type="arc"
     d="m 454.56965,649.05261 a 10.722118,10.722118 0 0 1 -10.93767,10.42715 10.722118,10.722118 0 0 1 -10.50157,-10.86625 10.722118,10.722118 0 0 1 10.79431,-10.57549 10.722118,10.722118 0 0 1 10.64893,10.72187" />
  <path
     style="fill:#000000;fill-opacity:1;stroke-width:2.63875"
     id="path2-6-0-7"
     sodipodi:type="arc"
     sodipodi:cx="433.24173"
     sodipodi:cy="667.69324"
     sodipodi:rx="10.722118"
     sodipodi:ry="10.722118"
     sodipodi:start="0.027304543"
     sodipodi:end="6.2831853"
     sodipodi:open="true"
     sodipodi:arc-type="arc"
     d="m 443.95985,667.98596 a 10.722118,10.722118 0 0 1 -10.93768,10.42715 10.722118,10.722118 0 0 1 -10.50156,-10.86625 10.722118,10.722118 0 0 1 10.79431,-10.57549 10.722118,10.722118 0 0 1 10.64893,10.72187" />
  <path
     style="fill:#000000;fill-opacity:1;stroke-width:2.63875"
     id="path2-6-0-9"
     sodipodi:type="arc"
     sodipodi:cx="454.69077"
     sodipodi:cy="667.69324"
     sodipodi:rx="10.722118"
     sodipodi:ry="10.722118"
     sodipodi:start="0.027304543"
     sodipodi:end="6.2831853"
     sodipodi:open="true"
     sodipodi:arc-type="arc"
     d="m 465.40889,667.98596 a 10.722118,10.722118 0 0 1 -10.93768,10.42715 10.722118,10.722118 0 0 1 -10.50156,-10.86625 10.722118,10.722118 0 0 1 10.79431,-10.57549 10.722118,10.722118 0 0 1 10.64892,10.72187" />
  <path
     sodipodi:type="star"
     style="fill:#000000"
     id="path1"
     inkscape:flatsided="false"
     sodipodi:sides="3"
     sodipodi:cx="-4.2679658"
     sodipodi:cy="5.2618756"
     sodipodi:r1="0.76004869"
     sodipodi:r2="0.33594152"
     sodipodi:arg1="1.5707963"
     sodipodi:arg2="2.6179939"
     inkscape:rounded="0"
     inkscape:randomized="0"
     d="m -4.2679658,6.0219243 -0.2909339,-0.5920779 -0.3672876,-0.5479951 0.6582215,0.044083 0.6582215,-0.044083 -0.3672876,0.5479951 z"
     inkscape:transform-center-y="0.26375665"
     transform="matrix(5.6867778,0,0,5.6867778,467.97968,596.10881)" />
  <path
     sodipodi:type="star"
     style="fill:#000000"
     id="path1-7"
     inkscape:flatsided="false"
     sodipodi:sides="3"
     sodipodi:cx="-4.2679658"
     sodipodi:cy="5.2618756"
     sodipodi:r1="0.76004869"
     sodipodi:r2="0.33594152"
     sodipodi:arg1="1.5707963"
     sodipodi:arg2="2.6179939"
     inkscape:rounded="0"
     inkscape:randomized="0"
     d="m -4.2679658,6.0219243 -0.2909339,-0.5920779 -0.3672876,-0.5479951 0.6582215,0.044083 0.6582215,-0.044083 -0.3672876,0.5479951 z"
     inkscape:transform-center-y="-0.2484088"
     transform="matrix(2.6779415,5.0167787,-5.0167787,2.6779415,481.15061,642.80725)"
     inkscape:transform-center-x="0.01755188" />
  <path
     sodipodi:type="star"
     style="fill:#000000"
     id="path1-9"
     inkscape:flatsided="false"
     sodipodi:sides="3"
     sodipodi:cx="-4.2679658"
     sodipodi:cy="5.2618756"
     sodipodi:r1="0.76004869"
     sodipodi:r2="0.33594152"
     sodipodi:arg1="1.5707963"
     sodipodi:arg2="2.6179939"
     inkscape:rounded="0"
     inkscape:randomized="0"
     d="m -4.2679658,6.0219243 -0.2909339,-0.5920779 -0.3672876,-0.5479951 0.6582215,0.044083 0.6582215,-0.044083 -0.3672876,0.5479951 z"
     inkscape:transform-center-y="0.0060081697"
     transform="matrix(-0.06476097,-5.6864096,5.6864096,-0.06476097,409.13627,606.90346)"
     inkscape:transform-center-x="-0.25853771" />
  <path
     sodipodi:type="star"
     style="fill:#000000"
     id="path1-5"
     inkscape:flatsided="false"
     sodipodi:sides="3"
     sodipodi:cx="-4.2679658"
     sodipodi:cy="5.2618756"
     sodipodi:r1="0.76004869"
     sodipodi:r2="0.33594152"
     sodipodi:arg1="1.5707963"
     sodipodi:arg2="2.6179939"
     inkscape:rounded="0"
     inkscape:randomized="0"
     d="m -4.2679658,6.0219243 -0.2909339,-0.5920779 -0.3672876,-0.5479951 0.6582215,0.044083 0.6582215,-0.044083 -0.3672876,0.5479951 z"
     inkscape:transform-center-y="0.030927362"
     transform="matrix(-0.33340096,5.6769964,-5.6769964,-0.33340096,476.09451,657.18275)"
     inkscape:transform-center-x="0.23652647" />
  <text
     xml:space="preserve"
     style="font-style:normal;font-variant:normal;font-weight:normal;font-stretch:normal;font-size:128.707px;font-family:'DejaVu Math TeX Gyre';-inkscape-font-specification:'DejaVu Math TeX Gyre, Normal';font-variant-ligatures:normal;font-variant-caps:normal;font-variant-numeric:normal;font-variant-east-asian:normal;fill:#000000;fill-opacity:1;stroke:#000000;stroke-width:0.233955;stroke-dasharray:none;stroke-opacity:1;paint-order:markers fill stroke"
     x="246.08202"
     y="724.38043"
     id="text1-9"><tspan
       sodipodi:role="line"
       id="tspan2"
       x="246.08202"
       y="724.38043"
       style="stroke-width:0.233955">-1</tspan></text>
</svg>
