<?xml version="1.0" encoding="UTF-8" standalone="no"?>
<svg
   width="63mm"
   height="88mm"
   version="1.1"
   id="svg49"
   sodipodi:docname="card-fate-attack-counter.svg"
   inkscape:version="1.3.2 (091e20e, 2023-11-25, custom)"
   viewBox="0 0 238.11054 332.59885"
   xml:space="preserve"
   xmlns:inkscape="http://www.inkscape.org/namespaces/inkscape"
   xmlns:sodipodi="http://sodipodi.sourceforge.net/DTD/sodipodi-0.dtd"
   xmlns="http://www.w3.org/2000/svg"
   xmlns:svg="http://www.w3.org/2000/svg"><sodipodi:namedview
     id="namedview49"
     pagecolor="#ffffff"
     bordercolor="#000000"
     borderopacity="0.25"
     inkscape:showpageshadow="2"
     inkscape:pageopacity="0.0"
     inkscape:pagecheckerboard="0"
     inkscape:deskcolor="#d1d1d1"
     inkscape:zoom="1.3073248"
     inkscape:cx="-22.565165"
     inkscape:cy="308.64556"
     inkscape:window-width="1920"
     inkscape:window-height="1017"
     inkscape:window-x="-8"
     inkscape:window-y="-8"
     inkscape:window-maximized="1"
     inkscape:current-layer="svg49"
     inkscape:document-units="mm"
     showgrid="false" /><defs
     id="defs17"><linearGradient
       id="gradient_0"
       gradientUnits="userSpaceOnUse"
       x1="787.83301"
       y1="417.13614"
       x2="896.2948"
       y2="336.46844"><stop
         offset="0"
         stop-color="#167F8A"
         id="stop16" /><stop
         offset="1"
         stop-color="#159BA9"
         id="stop17" /></linearGradient><linearGradient
       id="gradient_0-2"
       gradientUnits="userSpaceOnUse"
       x1="439.11206"
       y1="464.522"
       x2="373.02579"
       y2="386.0676"><stop
         offset="0"
         stop-color="#FEA902"
         id="stop24-7" /><stop
         offset="1"
         stop-color="#FEC100"
         id="stop25-8" /></linearGradient><linearGradient
       id="gradient_0-8"
       gradientUnits="userSpaceOnUse"
       x1="505.63708"
       y1="183.79691"
       x2="171.41376"
       y2="155.43059"><stop
         offset="0"
         stop-color="#EEA800"
         id="stop3" /><stop
         offset="1"
         stop-color="#FEF49E"
         id="stop4" /></linearGradient><linearGradient
       id="gradient_1-2"
       gradientUnits="userSpaceOnUse"
       x1="297.28619"
       y1="286.58209"
       x2="163.5318"
       y2="635.06488"><stop
         offset="0"
         stop-color="#BE8500"
         id="stop5" /><stop
         offset="1"
         stop-color="#FFEA5F"
         id="stop6" /></linearGradient><linearGradient
       id="gradient_2"
       gradientUnits="userSpaceOnUse"
       x1="690.96869"
       y1="886.34503"
       x2="530.02826"
       y2="327.17783"><stop
         offset="0"
         stop-color="#936602"
         id="stop7" /><stop
         offset="1"
         stop-color="#E6AB0B"
         id="stop8" /></linearGradient><linearGradient
       id="gradient_0-6"
       gradientUnits="userSpaceOnUse"
       x1="756.237"
       y1="543.65344"
       x2="570.92169"
       y2="327.42014"><stop
         offset="0"
         stop-color="#9650B5"
         id="stop1" /><stop
         offset="1"
         stop-color="#B262D0"
         id="stop2" /></linearGradient><linearGradient
       id="gradient_1-21"
       gradientUnits="userSpaceOnUse"
       x1="431.04391"
       y1="954.88794"
       x2="538.14734"
       y2="89.44886"><stop
         offset="0"
         stop-color="#002757"
         id="stop3-8"
         style="stop-color:#000000;stop-opacity:1;" /><stop
         offset="1"
         stop-color="#4B448F"
         id="stop4-0" /></linearGradient></defs><defs
     id="defs25"><linearGradient
       id="gradient_1"
       gradientUnits="userSpaceOnUse"
       x1="567.4491"
       y1="699.04437"
       x2="868.41522"
       y2="779.63495"><stop
         offset="0"
         stop-color="#176366"
         id="stop24"
         style="stop-color:#000000;stop-opacity:1;" /><stop
         offset="1"
         stop-color="#157C89"
         id="stop25" /></linearGradient></defs><g
     id="g49"
     transform="matrix(-0.37372566,0.37428574,-0.37428574,-0.37372566,174.71307,111.61861)"
     style="fill:#000000;fill-opacity:0.19546743"><path
       fill="#f59e04"
       transform="matrix(0.15332,0,0,0.15332,3.05176e-5,-1.52588e-5)"
       d="m 947.442,30.3387 c 14.077,2.6734 27.148,10.6791 35.341,22.5739 8.461,12.286 11.283,26.2903 8.506,40.8934 -2.715,14.275 -11.655,25.95 -23.58,33.914 -8.079,5.395 -16.294,8.363 -25.886,9.512 -3.272,0.393 -10.514,-1.442 -12.689,0.266 -0.627,-2.024 -3.99,-4.809 -5.538,-6.447 l -14.585,-15.57 c 3.242,-0.435 6.7,0.62 9.945,0.894 4.422,0.374 9,0.419 13.426,0.103 11.165,-0.797 21.959,-5.989 29.224,-14.491 8.693,-10.1732 11.602,-21.7403 10.426,-34.9473 -0.904,-10.1509 -5.685,-19.9435 -12.945,-27.0611 -3.593,-3.5215 -7.782,-6.4249 -11.645,-9.6399 z"
       id="path2-8"
       style="fill:#000000;fill-opacity:0.19546743" /><path
       fill="#fed76a"
       transform="matrix(0.15332,0,0,0.15332,3.05176e-5,-1.52588e-5)"
       d="m 886.578,92.5428 c -0.822,-4.6639 -1.353,-9.8712 -0.759,-14.5789 L 885.946,77 l 0.225,-1.7812 c 2.078,-13.9647 11.469,-26.8638 22.579,-35.1834 11.48,-8.5971 24.517,-11.7681 38.692,-9.6967 3.863,3.215 8.052,6.1184 11.645,9.6399 7.26,7.1176 12.041,16.9102 12.945,27.0611 1.176,13.207 -1.733,24.7741 -10.426,34.9473 -7.265,8.502 -18.059,13.694 -29.224,14.491 -4.426,0.316 -9.004,0.271 -13.426,-0.103 -3.245,-0.274 -6.703,-1.329 -9.945,-0.894 -5.75,-4.894 -10.794,-11.26 -16.035,-16.7341 -2.03,-2.121 -4.004,-4.4909 -6.398,-6.2041 z"
       id="path3-3"
       style="fill:#000000;fill-opacity:0.19546743" /><path
       fill="#f52b4b"
       transform="matrix(0.15332,0,0,0.15332,3.05176e-5,-1.52588e-5)"
       d="m 886.578,92.5428 c 2.394,1.7132 4.368,4.0831 6.398,6.2041 5.241,5.4741 10.285,11.8401 16.035,16.7341 l 14.585,15.57 c 1.548,1.638 4.911,4.423 5.538,6.447 -4.225,5.322 -9.43,10.082 -14.234,14.896 l -23.743,23.693 -58.73,59.593 -40.614,41.447 -1.046,-0.443 -22.381,-22.064 -22.713,-22.865 41.135,-41.023 38.802,-38.49 45.402,-43.495 c 5.079,-5.067 11.478,-10.3344 15.566,-16.2042 z"
       id="path7-0"
       style="fill:#000000;fill-opacity:0.19546743" /><path
       fill="#e10522"
       transform="matrix(0.15332,0,0,0.15332,3.05176e-5,-1.52588e-5)"
       d="m 768.386,254.62 c 5.077,-3.472 9.438,-8.535 13.779,-12.87 l 22.435,-22.586 67.508,-67.53 34.845,-35.206 c 0.665,-0.631 1.165,-0.814 2.058,-0.947 l 14.585,15.57 c 1.548,1.638 4.911,4.423 5.538,6.447 -4.225,5.322 -9.43,10.082 -14.234,14.896 l -23.743,23.693 -58.73,59.593 -40.614,41.447 -1.046,-0.443 z"
       id="path8-6"
       style="fill:#3f3f3f;fill-opacity:0.19546743" /><path
       fill="#d78304"
       transform="matrix(0.15332,0,0,0.15332,3.05176e-5,-1.52588e-5)"
       d="m 790.767,276.684 1.046,0.443 c 4.428,3.426 8.017,7.866 11.937,11.845 l 20.392,20.442 75.723,75.775 c 7.386,7.285 14.332,15.409 21.936,22.394 l 2.526,9.12 -76.713,-2.629 -31.813,-1.104 c -2.03,-0.056 -7.316,0.465 -9.011,-0.234 -1.018,-0.42 -2.461,-2.271 -3.262,-3.109 l -8.511,-8.789 -44.221,-44.241 -0.06,-0.448 c -2.6,-2.879 -5.48,-5.223 -8.646,-7.457 -15.755,-11.121 -33.6,-11.318 -51.901,-8.242 l -5.832,0.542 0.345,-0.807 c 0.227,-0.606 0.066,-0.524 0.431,-1.141 1.077,-1.825 3.319,-3.109 4.972,-4.36 5.666,-4.289 11.656,-8.667 18.13,-11.645 3.291,-1.514 6.799,-2.461 10.265,-3.481 2.874,-0.845 5.236,-1.099 8.198,-1.121 6.624,0.71 12.805,2.26 19.18,4.169 l 30.614,-32.142 v -0.34 z"
       id="path9-5"
       style="fill:#000000;fill-opacity:0.19546743" /><path
       fill="#e9b352"
       transform="matrix(0.15332,0,0,0.15332,3.05176e-5,-1.52588e-5)"
       d="m 776.492,290.464 c 5.145,3.131 10.048,9.317 14.364,13.585 l 37.249,37.301 35.145,35.17 c 4.955,5.068 10.438,9.856 14.81,15.433 l -49.271,-2.475 -11.413,-0.375 c -0.865,-0.028 -2.78,0.182 -3.463,-0.111 -0.722,-0.309 -1.921,-1.851 -2.568,-2.48 l -10.082,-10.315 -28.326,-28.415 -15.005,-15.038 c -3.614,-3.577 -7.552,-7.719 -12.054,-10.138 z"
       id="path10-4"
       style="fill:#353535;fill-opacity:0.19546743" /><path
       fill="#f59e04"
       transform="matrix(0.15332,0,0,0.15332,3.05176e-5,-1.52588e-5)"
       d="m 603.073,96.243 7.067,2.2996 c 1.104,2.6734 3.861,4.8064 5.898,6.8164 l 47.775,45.281 81.86,81.115 22.713,22.865 22.381,22.064 -14.275,13.44 v 0.34 l -30.614,32.142 c -6.375,-1.909 -12.556,-3.459 -19.18,-4.169 -2.962,0.022 -5.324,0.276 -8.198,1.121 -3.466,1.02 -6.974,1.967 -10.265,3.481 -6.474,2.978 -12.464,7.356 -18.13,11.645 -1.653,1.251 -3.895,2.535 -4.972,4.36 -0.365,0.617 -0.204,0.535 -0.431,1.141 l -0.345,0.807 -3.409,0.369 c -0.597,-1.941 0.971,-7.83 1.237,-10.083 0.661,-5.604 0.755,-11.515 0.056,-17.12 -2.186,-17.547 -9.613,-31.14 -21.614,-43.973 l -42.839,-43.162 -8.401,-8.463 c -0.798,-0.804 -2.629,-2.224 -3.14,-3.161 -0.734,-1.347 -0.641,-6.231 -0.788,-7.909 l -2.482,-33.382 z"
       id="path12-0"
       style="fill:#000000;fill-opacity:0.19546743" /><path
       fill="#fed76a"
       transform="matrix(0.15332,0,0,0.15332,3.05176e-5,-1.52588e-5)"
       d="m 726.698,318.437 c -4.437,-0.953 -9.723,-1.45 -14.269,-1.719 -2.571,-0.152 -6.643,0.233 -8.945,-0.675 -2.029,-19.225 -9.143,-40.047 -21.969,-54.831 -5.352,-6.169 -11.72,-11.456 -17.575,-17.138 l -28.029,-28.15 c -1.659,-1.714 -8.238,-7.655 -8.692,-9.032 -1.065,-3.227 -0.57,-9.075 -0.807,-12.619 l -3.559,-56.719 153.639,152.57 v 0.34 l -30.614,32.142 c -6.375,-1.909 -12.556,-3.459 -19.18,-4.169 z"
       id="path13-1"
       style="fill:#6f6f6f;fill-opacity:0.19546743" /><path
       fill="#e3e4e5"
       transform="matrix(0.15332,0,0,0.15332,3.05176e-5,-1.52588e-5)"
       d="m 660.627,270.185 c 12.001,12.833 19.428,26.426 21.614,43.973 0.699,5.605 0.605,11.516 -0.056,17.12 -0.266,2.253 -1.834,8.142 -1.237,10.083 l 3.409,-0.369 5.832,-0.542 c 18.301,-3.076 36.146,-2.879 51.901,8.242 3.166,2.234 6.046,4.578 8.646,7.457 l 0.06,0.448 -31.698,33.211 -41.512,43.707 -33.591,35.694 -154.099,155.719 -43.132,44.009 -6.185,6.324 c -0.316,0.322 -1.581,1.426 -1.675,1.77 l -121.208,122.658 -54.931,54.088 -33.933,28.595 c -45.935,36.219 -96.154,67.617 -149.5449,91.596 -11.0348,4.956 -21.99,10.123 -33.3578,14.281 -2.5328,1.149 -7.5864,4.24 -10.2632,4.163 l 0.4433,-1.515 c 0.8264,-3.174 2.2718,-6.303 3.3797,-9.397 L 49.683,955.666 c 21.3093,-50.797 47.5845,-99.331 79.815,-144.081 l 25.935,-34.092 c 5.002,-6.179 10.413,-12.001 15.132,-18.413 3.428,-4.617 7.856,-8.947 11.74,-13.215 l 41.002,-41.953 367.943,-365.458 45.762,-45.599 c 7.757,-7.367 15.169,-16.193 23.615,-22.67 z"
       id="path17-9"
       style="fill:#585858;fill-opacity:0.19546743" /><path
       fill="#638bdf"
       transform="matrix(0.15332,0,0,0.15332,3.05176e-5,-1.52588e-5)"
       d="m 684.357,340.992 5.832,-0.542 c -3.042,4.516 -7.693,8.488 -11.478,12.438 L 642.017,389.723 524.057,507.376 271.931,760.326 126.965,906.205 103.023,929.73 62.9716,970.805 51.75,982.048 c -1.9997,1.947 -4.5508,3.679 -5.8207,6.201 -2.5328,1.149 -7.5864,4.24 -10.2632,4.163 l 0.4433,-1.515 C 42.7041,985.666 48.1796,978.169 53.9832,972 L 87.9542,936.972 215.316,808.454 422.38,600.664 680.948,341.361 Z"
       id="path18-6"
       style="fill:#000000;fill-opacity:0.19546743" /><path
       fill="#8aa9d4"
       transform="matrix(0.15332,0,0,0.15332,3.05176e-5,-1.52588e-5)"
       d="m 690.189,340.45 c 18.301,-3.076 36.146,-2.879 51.901,8.242 3.166,2.234 6.046,4.578 8.646,7.457 l 0.06,0.448 -31.698,33.211 -41.512,43.707 -33.591,35.694 -154.099,155.719 -43.132,44.009 -6.185,6.324 c -0.316,0.322 -1.581,1.426 -1.675,1.77 l -121.208,122.658 -54.931,54.088 -33.933,28.595 c -45.935,36.219 -96.154,67.617 -149.5449,91.596 -11.0348,4.956 -21.99,10.123 -33.3578,14.281 1.2699,-2.522 3.821,-4.254 5.8207,-6.201 l 11.2216,-11.243 40.0514,-41.075 23.942,-23.525 144.966,-145.879 252.126,-252.95 117.96,-117.653 36.694,-36.835 c 3.785,-3.95 8.436,-7.922 11.478,-12.438 z"
       id="path19-9"
       style="fill:#404040;fill-opacity:0.19830029" /></g><path
     style="fill:none;fill-opacity:0.200737;stroke:#000000;stroke-width:2.88875;stroke-linecap:round;stroke-miterlimit:0;stroke-dasharray:none;stroke-opacity:0.198895"
     id="path1"
     sodipodi:type="arc"
     sodipodi:cx="-93.812057"
     sodipodi:cy="248.82877"
     sodipodi:rx="35.173527"
     sodipodi:ry="35.173527"
     sodipodi:start="0.027304543"
     sodipodi:end="5.1136159"
     sodipodi:open="true"
     sodipodi:arc-type="arc"
     d="m -58.651642,249.78904 a 35.173527,35.173527 0 0 1 -25.713666,32.92093 35.173527,35.173527 0 0 1 -39.037862,-14.86692 35.173527,35.173527 0 0 1 2.69901,-41.68567 35.173527,35.173527 0 0 1 40.629057,-9.70875"
     transform="rotate(-47.107537)" /><path
     id="path4"
     style="fill:#000000;fill-opacity:0.200737;stroke:none;stroke-width:2.08092;stroke-linecap:round;stroke-miterlimit:0;stroke-dasharray:none;stroke-opacity:0.198895"
     inkscape:transform-center-x="-3.2706889"
     inkscape:transform-center-y="-5.3441383"
     d="m 137.79729,210.28259 -25.40525,7.74931 -19.076055,7.54688 13.501305,-19.55687 -11.379789,-18.58196 21.813719,11.54135 z"
     sodipodi:nodetypes="ccccccc" /></svg>
