<?xml version="1.0" encoding="UTF-8" standalone="no"?>
<!-- Created with Inkscape (http://www.inkscape.org/) -->

<svg
   width="63mm"
   height="88mm"
   viewBox="0 0 63 88"
   version="1.1"
   id="svg1"
   inkscape:version="1.3.2 (091e20e, 2023-11-25, custom)"
   xml:space="preserve"
   sodipodi:docname="card-disorder-compulsion.svg"
   xmlns:inkscape="http://www.inkscape.org/namespaces/inkscape"
   xmlns:sodipodi="http://sodipodi.sourceforge.net/DTD/sodipodi-0.dtd"
   xmlns="http://www.w3.org/2000/svg"
   xmlns:svg="http://www.w3.org/2000/svg"><sodipodi:namedview
     id="namedview1"
     pagecolor="#ffffff"
     bordercolor="#000000"
     borderopacity="0.25"
     inkscape:showpageshadow="2"
     inkscape:pageopacity="0.0"
     inkscape:pagecheckerboard="0"
     inkscape:deskcolor="#d1d1d1"
     inkscape:document-units="mm"
     inkscape:zoom="1.0343421"
     inkscape:cx="90.395624"
     inkscape:cy="94.262817"
     inkscape:window-width="1350"
     inkscape:window-height="1017"
     inkscape:window-x="228"
     inkscape:window-y="0"
     inkscape:window-maximized="0"
     inkscape:current-layer="layer1" /><defs
     id="defs1" /><g
     inkscape:label="Layer 1"
     inkscape:groupmode="layer"
     id="layer1"><g
       id="mind"
       transform="matrix(0.05173302,0,0,0.05173302,-4.0292855,-7.1727205)"
       inkscape:label="mind"><path
         fill="#8751D1"
         d="m 411.69208,747.05319 c -0.24812,-0.0337 -0.61135,0.0446 -0.86853,0.0689 l -1.88364,0.18649 c -3.72501,0.33108 -8.57419,0.88378 -11.91731,-1.09865 -2.31419,-1.37162 -3.71541,-3.91758 -3.77797,-6.58974 -0.0316,-1.35445 0.21513,-2.71607 0.33824,-4.0627 0.155,-1.69621 0.11689,-3.55812 -0.36243,-5.20298 -0.34838,-1.19595 -1.45608,-1.90027 -2.27878,-2.7777 -0.32433,-0.34581 -0.66149,-0.6965 -0.75798,-1.17919 -0.0843,-0.42203 0.004,-0.78231 0.23041,-1.14312 0.70459,-1.12593 2.04783,-1.75635 3.29176,-2.05337 -1.46785,-0.66041 -2.98109,-1.155 -3.73973,-2.6996 -0.0738,-0.9685 0.67715,-1.48648 1.22594,-2.20552 0.44256,-0.57988 0.90959,-1.29285 1.14594,-1.98636 0.30595,-0.89757 0.39325,-2.0065 -0.0624,-2.87055 -0.32352,-0.61365 -0.91203,-0.94972 -1.54743,-1.15905 -1.07176,-0.35298 -2.44501,-0.17271 -3.57501,-0.2446 -1.08391,-0.069 -2.38392,-0.43067 -3.12283,-1.2777 -1.58244,-1.81365 -0.5669,-3.34163 0.31594,-5.1823 l 4.40663,-9.12569 c 1.32702,-2.79188 2.80864,-5.68878 3.46581,-8.72446 0.23121,-1.06798 0.27838,-2.21095 0.16162,-3.29905 -0.15554,-1.45068 -0.55595,-2.89231 -0.77594,-4.33731 -0.50258,-3.30135 -0.63447,-6.64149 -0.43325,-9.97311 l 5.83284,-17.18719 c 3.39416,-6.96905 6.91022,-12.09437 11.932,-16.32738 9.62457,-8.97887 13.47758,-9.65632 15.94441,-10.766 10.19556,-3.45889 25.31639,-3.25762 29.84348,-1.68229 4.3097,1.27835 11.02166,3.75073 14.87564,7.31267 8.36058,7.72704 13.11125,14.18473 17.04402,28.18178 1.13234,11.82468 2.47464,18.22573 -8.91699,38.68708 -4.82517,4.50903 -3.58578,9.81468 -4.72292,21.93709 -2.70104,8.57625 1.50951,26.66266 -1.8586,27.09779 z"
         id="path2-3"
         style="fill:none;fill-opacity:1;stroke:#d15151;stroke-width:2.32259;stroke-dasharray:none;stroke-opacity:1"
         sodipodi:nodetypes="ccccccccccccscccccccscccccccsccccc" /><text
         xml:space="preserve"
         style="font-style:normal;font-variant:normal;font-weight:normal;font-stretch:normal;font-size:148.144px;font-family:Amiri;-inkscape-font-specification:'Amiri, Normal';font-variant-ligatures:normal;font-variant-caps:normal;font-variant-numeric:normal;font-variant-east-asian:normal;fill:#d15151;fill-opacity:1;stroke:none;stroke-width:0.269287;stroke-dasharray:none;stroke-opacity:1;paint-order:markers fill stroke"
         x="489.6109"
         y="732.83862"
         id="text1-3"><tspan
           sodipodi:role="line"
           id="tspan1-4"
           x="489.6109"
           y="732.83862">Mind: -1</tspan></text><path
         style="fill:#d80000;fill-opacity:1;stroke-width:3.49882"
         id="path1-3"
         sodipodi:type="arc"
         sodipodi:cx="441.53137"
         sodipodi:cy="667.83423"
         sodipodi:rx="37.176922"
         sodipodi:ry="39.043968"
         sodipodi:start="0.027304543"
         sodipodi:end="6.2831853"
         sodipodi:open="true"
         sodipodi:arc-type="arc"
         d="m 478.69444,668.90017 a 37.176922,39.043968 0 0 1 -37.92434,37.96984 37.176922,39.043968 0 0 1 -36.41219,-39.5688 37.176922,39.043968 0 0 1 37.42723,-38.51004 37.176922,39.043968 0 0 1 36.92315,39.04306" /><path
         style="fill:#ffffff;fill-opacity:1;stroke-width:3.34545"
         id="path1-93"
         sodipodi:type="arc"
         sodipodi:cx="441.50256"
         sodipodi:cy="667.05212"
         sodipodi:rx="35.50272"
         sodipodi:ry="37.379631"
         sodipodi:start="0.027304543"
         sodipodi:end="6.2831853"
         sodipodi:open="true"
         sodipodi:arc-type="arc"
         d="m 476.99205,668.07263 a 35.50272,37.379631 0 0 1 -36.21647,36.35129 35.50272,37.379631 0 0 1 -34.77243,-37.8821 35.50272,37.379631 0 0 1 35.74176,-36.86846 35.50272,37.379631 0 0 1 35.26037,37.37876" /><rect
         style="fill:#cc0400;fill-opacity:1;stroke-width:4.1036"
         id="rect1-6"
         width="43.670288"
         height="44.625092"
         x="787.51117"
         y="-45.42012"
         transform="matrix(0.5298425,0.84809606,-0.5441132,0.83901181,0,0)" /><path
         id="path3-2"
         style="fill:#ffffff;stroke-width:4.17674"
         d="m 465.39785,667.3739 -23.72874,2.71407 -23.72873,-2.71407 23.72873,-0.5428 z"
         sodipodi:nodetypes="ccccc" /><path
         id="path4-6"
         style="fill:#ffffff;stroke-width:2.36508"
         inkscape:transform-center-x="-0.00029899198"
         inkscape:transform-center-y="-0.42374246"
         d="m 440.73859,667.76163 0.9542,-40.11665 0.98143,39.74202 z" /></g><g
       id="g9"
       transform="matrix(0.25911206,0,0,0.25911206,20.853406,33.311146)"
       style="opacity:0.5"><path
         transform="matrix(0.0976562,0,0,0.0976562,6.10352e-5,0)"
         d="m 269.765,0 -16.931,546.125 c 6.22,-4.682 11.921,-10.822 17.799,-15.983 l 33.768,-28.366 c 5.6,-4.66 11.425,-10.588 17.934,-13.836 6.708,-3.348 14.163,-5.339 21.299,-7.554 l 31.667,-9.973 c -8.254,13.302 -13.044,27.055 -17.714,41.921 l -6.435,21.261 28.786,18.746 -28.01,29.779 29.29,28.85 c -4.509,3.411 -8.293,7.531 -12.196,11.597 -0.566,7.623 0.822,16.054 1.473,23.683 l 5.398,54.077 5.17,46.787 23.55,149.588 c 4.768,26.673 8.838,53.751 15.227,80.084 -7.572,-0.639 -15.295,-2.643 -22.715,-4.293 -36.208,-8.048 -71.762,-20.787 -104.61,-38.049 L 293.536,906 c 2.265,-33.58 7.196,-67.513 13.109,-100.641 l 7.779,-39.958 c 1.483,-7.266 3.533,-14.944 4.275,-22.296 0.454,-4.507 0.087,-9.316 0.026,-13.843 l -0.345,-24.431 -0.924,-67.333 c -29.005,24.366 -60.015,47.883 -84.927,76.611 -7.233,8.341 -13.841,17.646 -19.881,26.883 -12.748,19.495 -24.231,39.482 -34.95,60.158 l -11.628,24.157 -7.172,16.374 c -0.903,2.087 -2.224,5.786 -4.046,7.169 -2.664,2.023 -8.907,0.886 -12.201,0.676 l -4.488,4.447 c 0.481,2.3 2.297,4.853 3.576,6.793 l 7.622,11.133 c 2.369,3.546 4.548,7.769 5.389,11.953 2.068,10.288 -1.942,22.944 -4.013,33.168 -5.729,-6.577 -9.909,-14.486 -14.226,-22.02 -2.158,-3.767 -5.645,-11.33 -10.261,-12.341 -2.498,-0.546 -4.536,-0.077 -6.647,1.31 -7.669,5.039 -11.018,14.78 -12.629,23.359 -0.62,3.304 -0.545,6.723 -0.529,10.074 0.083,16.732 5.747,33.469 15.239,47.188 -5.975,-0.011 -11.503,-0.208 -17.297,-1.755 C 86.2997,958.007 71.4496,944.833 62.2419,928.766 57.988,921.343 54.3751,913.423 52.6557,905 c -3.9736,-19.465 1.3225,-42.385 11.1452,-59.394 3.6213,-6.27 8.8083,-11.815 12.1625,-18.103 1.0251,-1.922 1.5237,-4.41 2.0989,-6.512 -1.6648,-1.367 -3.5497,-2.735 -4.9622,-4.361 -0.6828,-0.787 -1.2118,-1.424 -1.1937,-2.509 0.0351,-2.099 1.7072,-5.163 2.4533,-7.171 l 7.4321,-19.819 C 94.2791,755.705 111.45,726.012 128.16,696.69 c 7.397,-12.98 14.193,-26.564 22.852,-38.775 4.672,-6.589 10.247,-12.72 15.453,-18.896 l 26.749,-30.924 37.292,-39.933 12.991,-12.828 c 0.961,-0.938 3.429,-2.807 3.95,-3.846 0.245,-0.487 0.085,-2.32 0.107,-2.988 L 247.908,537.965 250.19,459 261.197,106.008 264.487,0 Z M 92,951 92.3778,951.497 92,951 91.8056,950.016 c -1.1016,-5.278 -3.087,-10.413 -4.1518,-15.787 -2.1703,-10.951 -2.6241,-21.943 -3.4171,-33.048 -0.8103,0.283 -0.4818,0.088 -1.0251,0.513 -1.0918,2.97 -0.8109,6.256 -0.7603,9.372 0.1935,11.916 2.1527,25.797 7.3385,36.633 0.6126,1.28 1.0825,2.416 2.2102,3.301 z M 80.1967,822.75 c -0.5395,1.515 -0.8954,2.912 -1.1586,4.5 5.9162,10.307 26.5529,20.284 37.8599,23.342 6.518,1.762 12.224,2.662 18.765,0.483 l 2.234,-1.825 0.066,-0.747 c -4.211,-1.682 -8.848,-2.589 -13.16,-4.069 -8.894,-3.055 -17.398,-6.863 -25.7127,-11.25 C 96.0911,831.602 81.828,822.638 80.1967,822.75 Z m -18.2376,70.5 c -0.7719,2.567 -0.8074,5.382 -0.9259,8.047 -0.3902,8.776 0.9495,17.771 5.1278,25.597 l 0.2,0.356 0.4724,-0.557 c -2.9042,-9.134 -3.9346,-17.376 -3.9264,-26.943 0.0017,-2.033 0.6587,-5.274 -0.9479,-6.5 z"
         id="path2" /><path
         transform="matrix(0.0976562,0,0,0.0976562,6.10352e-5,0)"
         d="m 854.19,0 36.79,417.755 c 3.937,-2.805 8.579,-4.861 13.509,-4.373 1.982,0.196 3.902,1.166 5.03,2.868 0.701,1.057 0.835,2.148 0.933,3.39 0.667,8.439 -10.299,9.082 -11.253,16.835 -0.691,5.619 4.4,11.021 7.571,15.123 8.062,-9.266 12.593,-22.475 14.559,-34.478 1.182,-7.218 1.423,-17.811 5.672,-23.87 1.028,-1.467 1.535,-1.924 3.249,-2.283 2.438,0.969 3.732,3.099 4.964,5.32 2.75,4.958 3.938,10.369 4.671,15.924 2.055,15.579 -0.956,31.371 -5.35,46.289 l 0.532,0.839 c 1.936,-0.871 2.859,-4.303 3.491,-6.223 2.397,-7.29 3.665,-15.248 4.456,-22.866 l 1.234,-18.533 c 0.15,-2.44 -0.058,-5.975 1.002,-8.155 l 1.75,-0.063 c 2.85,1.569 5.132,4.789 7.13,7.311 4.99,6.298 9.546,15.086 10.26,23.211 0.634,7.216 -1.937,16.328 -4.319,23.094 -1.547,4.393 -4.035,8.573 -4.587,13.24 5.396,-6.889 8.393,-16.759 9.713,-25.335 0.271,-1.762 0.245,-5.55 0.962,-7.02 0.179,-0.367 0.561,-0.593 0.841,-0.889 0.7,0.183 1.337,0.381 1.95,0.783 3.446,2.259 5.69,7.617 6.422,11.549 2.755,14.801 -9.014,33.299 -17.882,44.043 -3.118,3.778 -7.534,7.343 -10.265,11.297 -1.799,2.604 -3.133,5.724 -4.708,8.484 l -7.924,12.49 c 1.484,1.798 3.705,3.112 5.429,4.702 3.658,3.377 6.777,7.59 9.436,11.782 -3.676,5.672 -6.231,12.05 -9.22,18.097 l -14.218,27.403 c -19.551,36.677 -40.924,72.049 -66.129,105.149 -11.26,14.787 -22.999,29.659 -37.72,41.203 -6.551,-0.741 -13.425,-3.286 -19.697,-5.315 -15.407,-4.982 -29.641,-11.563 -44.089,-18.798 -33.274,-16.662 -65.681,-37.54 -93.726,-62.036 l -0.465,48.874 c -0.251,15.255 -1.042,30.953 0.84,46.115 2.345,18.887 7.72,37.224 11.528,55.821 9.222,45.034 15.545,89.429 14.096,135.529 -2.472,3.058 -9.702,5.869 -13.375,7.707 -34.538,17.284 -71.457,26.608 -109.209,33.727 l 50.242,-351.756 -13.674,-13.089 c 4.765,-3.292 8.953,-8.08 13.089,-12.134 5.449,-5.342 11.78,-10.673 16.135,-16.93 l -28.304,-28.2 18.152,-13.431 c 2.463,-1.806 6.316,-3.91 8.09,-6.254 -2.054,-8.583 -4.965,-16.966 -7.747,-25.333 -4.471,-13.445 -8.659,-28.545 -18.218,-39.303 l 20.244,6.022 c 8.703,2.338 18.841,3.786 26.967,7.479 10.794,4.904 18.646,13.988 27.128,21.953 L 707.584,530.935 684.955,0 h 5.319 l 4.159,97.4677 11.024,258.7823 5.147,116.812 1.819,41.544 c 0.312,7.037 0.074,14.743 1.147,21.674 0.258,1.664 7.148,7.592 8.615,8.984 13.833,13.132 28.299,25.981 43.544,37.464 11.367,8.562 23.384,16.35 35.417,23.938 -1.974,6.039 -4.779,11.797 -7.05,17.731 -4.825,12.608 -7.478,25.639 -5.279,39.171 1.102,-8.472 1.637,-16.82 3.821,-25.13 2.476,-9.424 6.795,-18.553 10.553,-27.535 11.048,-26.403 24.138,-52.45 38.02,-77.475 l 18.921,-32.708 c 4.679,-1.598 8.582,-1.434 13.447,-1.167 1.217,-3.397 2.083,-6.789 2.893,-10.303 0.246,-1.068 0.886,-2.806 0.868,-3.836 -0.01,-0.542 -0.704,-1.867 -0.906,-2.408 l -2.608,-6.968 c -2.506,-6.922 -3.987,-14.522 -3.701,-21.902 0.307,-7.914 2.904,-16.052 7.29,-22.669 1.716,-2.589 3.679,-4.895 5.828,-7.134 0.352,-0.367 2.558,-2.376 2.617,-2.771 0.26,-1.753 -0.405,-4.698 -0.561,-6.529 L 883.998,399.422 877.235,325.82 857.509,100.25 851.476,31.9727 848.714,0 Z m 11.299,503.75 c -1.21,1.633 -1.271,3.331 -1.016,5.375 0.407,3.259 3.456,5.306 5.935,7.015 13.008,8.969 28.181,16.411 43.013,21.755 7.209,2.598 14.802,5.118 22.405,6.159 0.085,-2.138 0.908,-7.164 0.131,-9.043 -0.397,-0.962 -1.97,-2.71 -2.707,-3.521 -0.471,-0.518 -0.951,-0.902 -1.5,-1.331 l -0.969,0.213 c -2.858,0.521 -6.636,-0.578 -9.431,-1.189 -15.015,-3.28 -32.32,-9.891 -44.54,-19.406 -2.857,-2.225 -6.453,-6.9 -10.276,-6.353 -0.467,0.067 -0.647,0.163 -1.045,0.326 z"
         id="path3" /><path
         transform="matrix(0.0976562,0,0,0.0976562,6.10352e-5,0)"
         d="m 493.362,434.323 c -25.793,-0.658 -51.046,-5.12 -74.034,-17.425 -11.93,-6.386 -23.068,-14.953 -33.073,-24.022 -14.512,-13.155 -27.012,-29.363 -35.696,-46.923 -2.071,-4.187 -4.292,-8.542 -5.81,-12.961 -8.095,-23.562 -10.06,-48.591 -11.151,-73.32 -1.987,-45.039 11.398,-91.979 42.266,-125.521 21.396,-23.25 53.227,-37.4779 83.951,-42.8166 9.501,-1.6509 19.264,-2.1697 28.882,-2.6087 39.928,-1.531 81.872,11.9333 111.598,38.9223 33.133,30.083 44.228,74.579 46.374,117.817 1.436,28.935 1.166,58.938 -8.946,86.503 -7.031,19.163 -19.603,37.841 -33.26,52.893 -23.38,25.768 -54.217,41.866 -88.463,47.471 -7.496,1.227 -15.063,1.624 -22.638,1.991 z m -99.079,-83.317 c 8.496,11.342 19.478,21.386 30.59,30.139 21.357,16.825 49.009,29.133 76.748,25.607 l 18.222,-3.731 c 29.67,-9.113 57.841,-32.225 76.881,-56.422 2.52,-3.202 5.824,-6.481 7.725,-10.055 l 0.506,-0.536 -0.506,0.536 c -2.61,1.05 -5.897,4.787 -8.179,6.598 -3.534,2.806 -7.323,5.394 -11.073,7.899 -25.334,16.924 -55.814,28.467 -86.391,29.918 -42.075,1.997 -84.639,-17.587 -115.309,-45.501 z M 415.5,348 l 1.031,0.511 c 3.613,3.053 9.6,5.062 13.969,6.985 23.649,10.408 48.166,16.523 74.087,14.357 19.317,-1.615 38.713,-6.694 56.441,-14.554 2.546,-1.129 5.634,-2.145 7.865,-3.799 l 1.104,-0.498 -1.104,0.498 c -4.902,0.126 -11.594,2.929 -16.39,4.163 -6.593,1.697 -13.286,2.908 -20.039,3.756 -29.804,3.741 -60.698,2.884 -90.053,-3.728 l -25.473,-7.09 -0.407,-0.09 -1.031,-0.511 -0.498,-0.377 z m 11.99,-183.854 c -11.643,13.986 -17.569,28.845 -21.061,46.544 -7.436,-8.765 -12.485,-19.277 -18.712,-28.851 -17.378,24.251 -31.306,53.537 -35.629,83.219 -0.882,6.056 -1.747,12.919 -0.901,19.007 l 0.103,0.561 c 5.836,-22.751 12.579,-46.028 22.8,-67.228 3.9,-8.088 8.728,-15.652 12.986,-23.548 l 24.33,35.088 c 0.475,-0.739 1.582,-18.52 2.281,-21.904 2.334,-11.313 7.003,-22.405 13.664,-31.868 15.56,17.795 33.119,31.113 52.931,43.814 3.203,2.052 10.426,7.185 14.222,7.473 5.642,-2.587 11.001,-6.011 16.283,-9.273 17.183,-10.613 33.61,-23.598 46.816,-38.945 l 2.147,-1.885 c 2.745,0.695 21.133,29.697 23.922,34.379 l 8.398,14.79 c 3.91,-11.258 6.34,-22.998 7.853,-34.809 9.791,16.357 16.959,32.089 22.896,50.215 3.547,10.827 6.403,22.074 10.82,32.579 -0.771,-35.267 -15.139,-76.535 -40.646,-101.363 -0.269,3.331 0.497,6.799 0.419,10.182 -0.199,8.547 -1.311,17.502 -2.843,25.908 l -30.904,-43.907 c -1.613,1.534 -2.781,3.648 -4.134,5.426 -1.952,2.568 -4.113,4.973 -6.34,7.304 -11.055,11.568 -23.099,21.415 -36.275,30.457 -6.011,4.125 -12.341,8.426 -18.963,11.499 -9.142,-4.758 -17.702,-10.517 -26.078,-16.496 -10.142,-7.241 -19.877,-14.865 -28.457,-23.943 -4.321,-4.572 -7.742,-9.853 -11.928,-14.425 z m -4.105,83.524 c -9.999,1.404 -18.464,5.793 -24.593,13.935 -5.24,6.962 -8.046,16.563 -6.674,25.258 1.397,8.85 6.123,17.477 13.525,22.701 7.336,5.177 14.45,6.055 23.257,5.93 9.924,-1.762 17.757,-5.637 23.684,-14.036 5.43,-7.694 7.262,-17.137 5.712,-26.377 -1.377,-8.205 -6.138,-16.474 -13.086,-21.211 -6.548,-4.465 -13.915,-6.738 -21.825,-6.2 z m 136.065,0.025 c -9.896,1.062 -17.846,4.539 -24.199,12.403 -5.675,7.025 -8.462,15.873 -7.44,24.901 1.071,9.469 5.93,18.54 13.463,24.462 6.61,5.197 13.879,6.155 22.042,6.176 9.507,-0.942 17.7,-4.721 23.78,-12.249 6.156,-7.621 7.993,-16.828 6.951,-26.415 -0.901,-8.281 -6.076,-16.76 -12.596,-21.86 -6.558,-5.13 -13.732,-7.217 -22.001,-7.418 z m -68.32,63.055 c -3.731,3.285 -6.57,10.2 -9.095,14.564 -2.088,3.61 -4.506,7.025 -6.434,10.723 5.279,4.938 10.801,6.217 17.756,7.071 5.959,-1.177 10.121,-2.866 14.787,-6.751 -1.999,-4.163 -12.791,-24.596 -15.394,-25.817 z"
         id="path4" /><path
         transform="matrix(0.0976562,0,0,0.0976562,6.10352e-5,0)"
         d="m 324.409,326.372 c -8.598,-5.206 -14.411,-12.714 -17.719,-22.181 -3.34,-9.554 -2.217,-21.128 2.251,-30.138 4.218,-8.508 11.139,-13.377 19.987,-16.303 l 1.451,-0.149 c 0.866,6.009 0.02,12.711 0.377,18.863 1.119,19.292 5.055,37.198 12.292,55.113 -7.214,-0.683 -12.247,-1.629 -18.639,-5.205 z"
         id="path5" /><path
         transform="matrix(0.0976562,0,0,0.0976562,6.10352e-5,0)"
         d="m 659.659,324.043 c -6.342,4.233 -12.088,6.23 -19.664,7.096 10.38,-22.748 11.888,-48.779 9.415,-73.309 8.609,1.297 15.087,5.066 20.311,12.094 5.602,7.536 7.983,18.265 6.442,27.498 -1.85,11.08 -7.498,20.044 -16.504,26.621 z"
         id="path6" /><path
         transform="matrix(0.0976562,0,0,0.0976562,6.10352e-5,0)"
         d="m 559.919,298.047 c -2.834,0.072 -5.249,0.081 -7.881,-1.111 -3.442,-1.558 -5.785,-4.129 -7.017,-7.706 -1.035,-3.006 -1.061,-6.346 0.363,-9.23 2.047,-4.143 5.67,-5.984 9.867,-7.413 3.208,-0.165 5.759,-0.031 8.655,1.62 2.866,1.634 5.619,4.752 6.426,8.015 0.801,3.233 0.036,7.04 -1.649,9.864 -2.099,3.52 -4.967,4.902 -8.764,5.961 z"
         id="path7" /><path
         transform="matrix(0.0976562,0,0,0.0976562,6.10352e-5,0)"
         d="m 425.408,297.886 c -2.797,0.419 -5.802,0.488 -8.463,-0.6 -3.249,-1.329 -5.594,-4.144 -6.95,-7.327 -1.341,-3.148 -1.59,-6.667 -0.232,-9.845 1.687,-3.948 5.119,-5.537 8.853,-7.046 2.13,-0.196 4.058,-0.352 6.168,0.142 3.616,0.846 6.67,2.984 8.519,6.257 1.654,2.928 2.075,6.859 0.954,10.043 -1.486,4.224 -5.018,6.551 -8.849,8.376 z"
         id="path8" /><path
         transform="matrix(0.0976562,0,0,0.0976562,6.10352e-5,0)"
         d="m 434.102,979.144 -9.36,-1.3 -51.799,-353.458 13.985,-13.25 c -8.802,-10.609 -20.837,-18.575 -29.745,-29.212 3.523,-3.008 6.73,-6.723 9.959,-10.058 6.302,-6.507 12.545,-13.109 18.211,-20.184 L 354.96,532.497 c 7.405,-21.735 11.776,-43.927 25.216,-63.165 5.499,-3.176 11.736,-3.882 17.952,-4.279 1.002,-4.56 2.259,-9.119 5.919,-12.303 1.449,-1.26 4.204,-2.782 6.124,-2.947 1.877,-0.162 4.977,1.196 6.738,1.898 l 16.902,7.729 c 1.498,0.732 3.492,2.077 5.14,2.233 l -0.32,-32.584 c 20.769,7.368 44.564,10.214 66.528,8.214 13.66,-1.244 26.977,-4.457 40.033,-8.543 1.049,1.32 -0.607,28.838 -0.708,32.699 7.164,-3.219 14.417,-7.713 21.933,-9.933 3.391,-1.002 6.68,-0.588 9.736,1.175 4.553,2.628 5.395,6.326 6.631,11.063 5.511,1.793 12.597,1.686 17.655,4.436 3.397,1.847 6.234,6.65 8.096,9.949 9.246,16.379 14.39,36.362 19.729,54.348 l -15.843,11.704 c -4.155,3.035 -8.633,5.878 -12.359,9.438 l 28.485,28.081 -29.184,29.278 c 4.144,5.064 9.415,9.524 14.172,14.023 0.181,8.181 -1.637,17.081 -2.576,25.246 l -7.552,60.54 -27.753,190.804 -7.366,45.057 -5.123,29.704 c -31.556,5.034 -63.576,7.565 -95.542,6.003 z M 410.555,456.75 c -2.634,1.89 -3.854,4.303 -4.413,7.5 -0.775,4.432 0.332,8.026 3.059,11.548 6.051,7.817 17.751,15.651 27.72,16.757 9.121,1.011 17.253,-1.243 25.992,-3.357 l 4.254,-1.469 c 0.985,-3.916 2.349,-6.973 4.333,-10.509 -12.888,-3.318 -25.714,-6.865 -38.193,-11.543 l -9.488,-3.815 c -3.144,-1.397 -10.063,-5.763 -13.264,-5.112 z m 158.555,0 c -5.013,2.375 -9.811,5.137 -14.923,7.314 -13.741,5.852 -28.175,10.21 -42.674,13.694 l 0.266,0.487 c 1.676,3.175 2.733,6.759 3.102,10.326 l 4.724,0.804 c 12.999,2.723 26.512,5.676 38.39,-2.178 5.885,-3.891 14.855,-12.613 16.3,-19.565 0.539,-2.593 0.351,-5.929 -1.147,-8.178 -0.677,-1.016 -2.136,-2.314 -3.344,-2.623 z m -79.729,19.414 c -4.921,0.59 -8.937,1.729 -12.131,5.843 -1.86,2.397 -2.936,5.725 -2.474,8.743 0.502,3.279 2.061,6.254 4.724,8.29 3.552,2.714 8.472,3.411 12.812,3.412 4.835,-0.902 9.797,-2.667 12.686,-6.952 2.012,-2.983 2.422,-6.005 1.625,-9.475 -0.789,-3.434 -3.499,-6.029 -6.476,-7.704 -3.328,-1.872 -7.009,-2.235 -10.766,-2.157 z m 88.962,1.563 c -7.927,9.641 -20.23,19.53 -33.093,20.822 -10.872,1.093 -20.805,-2.23 -30.968,-5.537 l -3.113,6.719 c 8.248,10.913 15.645,22.113 25.04,32.128 7.922,7.622 15.933,15.401 25.618,20.768 3.788,2.099 7.547,3.864 11.923,4.219 1.876,-0.953 2.269,-1.96 2.931,-3.929 6.71,-19.958 8.464,-41.218 4.981,-61.994 -0.737,-4.399 -1.441,-9.127 -3.319,-13.196 z m -176.8,1.263 c -2.718,18.167 -1.797,36.157 1.617,54.168 1.209,6.378 2.789,13.822 5.812,19.592 1.378,1.018 2.087,0.777 3.778,0.468 2.928,-0.536 5.854,-2.061 8.504,-3.383 10.68,-5.329 20.856,-13.633 29.25,-22.094 7.856,-8.231 15.402,-16.641 20.772,-26.753 l -3.369,-7.992 c -14.805,5.872 -27.689,9.461 -43.035,2.922 -9.391,-4.001 -16.105,-9.909 -23.329,-16.928 z m 105.452,24.76 c -2.071,1.287 -4.08,2.408 -6.374,3.254 -1.469,0.542 -5.149,1.031 -6.115,1.952 l -0.938,205.329 c 4.826,-4.241 9.097,-8.945 12.945,-14.087 5.19,-7.037 9.786,-14.234 13.455,-22.198 4.673,-10.143 7.797,-21.342 10.074,-32.25 5.14,-24.62 6.007,-51.271 2.17,-76.151 -3.461,-22.44 -10.642,-47.227 -23.85,-65.983 z m -31.732,1.102 c -5.318,10.124 -10.61,20.395 -14.562,31.142 -14.356,39.039 -17.178,84.633 -4.746,124.554 4.536,14.567 11.059,29.735 20.642,41.721 l 5.341,6.334 8.74,7.544 -0.268,-207.099 c -5.695,-0.5 -10.066,-1.454 -15.147,-4.196 z m 16.794,230.681 c -3.312,1.369 -5.631,3.026 -6.972,6.467 -0.942,2.416 -0.672,4.886 0.36,7.229 1.172,2.662 3.37,4.53 6.088,5.527 1.498,0.55 3.295,0.527 4.86,0.331 3.122,-1.082 5.719,-2.129 7.13,-5.337 1.006,-2.287 0.852,-6.512 -0.113,-8.792 -0.925,-2.189 -2.768,-3.972 -5.01,-4.775 -2.075,-0.743 -4.171,-0.738 -6.343,-0.65 z m 1.058,81.549 c -3.181,0.843 -5.37,2.031 -7.146,4.918 -1.261,2.051 -1.554,4.828 -0.91,7.133 0.661,2.365 2.308,4.57 4.438,5.82 1.811,1.061 4.006,1.175 6.043,1.177 3.201,-0.972 5.581,-2.23 7.322,-5.204 1.284,-2.191 1.351,-5.303 0.607,-7.676 -0.63,-2.012 -2.67,-4.416 -4.619,-5.274 -1.633,-0.719 -3.966,-0.953 -5.735,-0.894 z m -0.422,83.429 c -3.416,1.318 -5.535,2.482 -7.086,5.989 -0.986,2.228 -1.094,4.892 -0.154,7.151 1.004,2.414 3.101,4.631 5.529,5.636 1.529,0.633 3.974,0.599 5.594,0.463 3.243,-1.342 5.47,-2.75 6.777,-6.147 0.851,-2.211 0.905,-5.083 -0.098,-7.259 -1.186,-2.571 -3.396,-4.43 -6.081,-5.258 -1.407,-0.434 -3.011,-0.575 -4.481,-0.575 z"
         id="path9" /></g></g></svg>
