<?xml version="1.0" encoding="UTF-8" standalone="no"?>
<!-- Created with Inkscape (http://www.inkscape.org/) -->

<svg
   width="63mm"
   height="88mm"
   viewBox="0 0 63 88"
   version="1.1"
   id="svg1"
   inkscape:version="1.3.2 (091e20e, 2023-11-25, custom)"
   xml:space="preserve"
   sodipodi:docname="card-hitlocation-leg-left.svg"
   xmlns:inkscape="http://www.inkscape.org/namespaces/inkscape"
   xmlns:sodipodi="http://sodipodi.sourceforge.net/DTD/sodipodi-0.dtd"
   xmlns="http://www.w3.org/2000/svg"
   xmlns:svg="http://www.w3.org/2000/svg"><sodipodi:namedview
     id="namedview1"
     pagecolor="#ffffff"
     bordercolor="#000000"
     borderopacity="0.25"
     inkscape:showpageshadow="2"
     inkscape:pageopacity="0.0"
     inkscape:pagecheckerboard="0"
     inkscape:deskcolor="#d1d1d1"
     inkscape:document-units="mm"
     inkscape:zoom="1.4627805"
     inkscape:cx="154.8421"
     inkscape:cy="246.44846"
     inkscape:window-width="1350"
     inkscape:window-height="1017"
     inkscape:window-x="228"
     inkscape:window-y="0"
     inkscape:window-maximized="0"
     inkscape:current-layer="g1" /><defs
     id="defs1" /><g
     inkscape:label="Layer 1"
     inkscape:groupmode="layer"
     id="layer1"><g
       id="g1"
       transform="matrix(0.06087197,0,0,0.06087197,0.03359486,0.54402301)"><path
         id="path2"
         style="fill:none;stroke:#e6e6e6;stroke-width:4.92837673;stroke-dasharray:none;stroke-opacity:1"
         d="m 969.46567,-254.63804 -162.11945,68.70646 4.0597,46.92461 c 3.1466,25.2452 8.43711,50.924881 14.4265,75.646971 6.66042,27.490917 17.07753,55.2584469 28.70049,81.081427 25.59836,56.88519 81.50582,147.116132 64.73422,211.423062 -0.51206,1.96635 -1.06101,3.84501 -1.85517,5.71819 -7.80516,18.43138 -24.79686,33.00273 -33.91681,50.83146 -7.12605,13.92349 -8.40877,29.97061 -10.38876,45.24416 l -6.61327,60.58734 c -0.72828,10.16334 -3.12481,21.36184 -0.69833,31.31961 l 4.58339,4.56134 c 7.91205,-1.51711 16.07917,-6.89764 21.25802,-13.07329 3.31375,-22.48995 5.06242,-60.16604 24.57539,-74.70848 3.00435,-2.23748 3.24875,-2.06348 6.91863,-1.78961 10.50011,20.67975 11.00821,46.23339 3.90678,67.81149 -4.65031,14.12889 -12.46774,31.04889 -21.01797,43.30171 -7.63536,10.94103 -26.18747,24.87461 -29.79163,37.19056 -0.6066,2.07034 -0.038,6.32059 -0.0428,8.62104 4.07237,4.84199 4.42626,5.5542 10.49792,7.04959 41.7923,-12.26662 96.74329,-42.26985 118.27198,-80.8414 6.2771,-11.25042 9.891,-24.72322 11.6767,-37.43063 l 0.4146,-2.75001 c 2.0321,-14.79985 -0.9715,-31.79187 -2.2915,-46.64105 -1.9391,-21.78323 -3.0939,-43.22589 -2.3573,-65.10528 l 8.7959,-109.86913 c 9.7825,-111.749082 18.137,-226.082979 -16.8057,-334.54019 -8.74458,-27.13825 -20.51142,-54.3016 -34.92065,-79.26995 z" /><path
         id="path5"
         style="fill:none;stroke:#e6e6e6;stroke-width:4.92837673;stroke-dasharray:none;stroke-opacity:1"
         d="m 638.96312,-841.30579 18.11512,378.73688 c 23.29242,63.82676 63.48919,116.8567 90.88104,157.01212 l 35.55363,50.24206 c 6.21684,8.47079 15.82759,18.82265 19.70829,28.56945 3.07023,7.70674 2.39039,19.2865 2.99021,27.5656 l 1.13481,13.2481 162.11945,-68.70646 c -2.4688,-4.27786 -4.85265,-8.64066 -7.48616,-12.76794 l -18.72616,-27.56552 c -2.2512,-3.18787 -6.8919,-8.07079 -8.16284,-11.41473 -1.08999,-2.87007 -0.53668,-9.79524 -0.72012,-13.05158 l -2.46637,-35.88095 c -3.88619,-36.5176 -10.94829,-73.36211 -23.72414,-107.88316 -10.86982,-29.36134 -24.43661,-58.65007 -40.07155,-85.79577 -6.64137,-11.5271 -16.56669,-23.0322 -21.95634,-34.8989 -1.70079,-3.741 -1.52785,-7.8445 -1.52785,-11.8512 0,-68.9627 -19.78297,-142.7194 -70.08147,-192.4785 -28.41377,-28.1043 -68.68627,-48.3774 -108.79971,-51.5953 -6.5549,-0.5281 -19.01239,-0.067 -26.77984,-1.4842 z" /><path
         id="path3"
         style="fill:none;stroke:#e6e6e6;stroke-width:4.92837673;stroke-dasharray:none;stroke-opacity:1"
         d="m -236.78235,-166.48505 -173.81774,-69.12131 c -6.04575,13.04811 -11.29888,26.43015 -15.62703,40.33346 -14.06031,45.16624 -19.96759,92.98715 -23.50598,140.010171 -5.9676,79.342127 -3.12466,157.947009 2.79365,237.176849 l 7.63891,79.13907 c 1.91974,31.76046 -5.28065,61.93236 -5.56549,93.26013 -0.27933,30.65117 9.5273,61.99044 28.61313,86.01413 20.44977,25.74071 59.9504,53.78268 93.06364,58.20846 3.00164,0.40249 4.83451,0.0775 7.63892,-0.89493 2.39361,-4.20123 2.40892,-4.42916 1.00396,-9.0794 -2.7688,-9.18 -12.60038,-20.0394 -17.8532,-28.3076 -20.93441,-32.95994 -37.78545,-75.73307 -24.22623,-114.5181 l 4.14684,-3.12101 c 7.4108,2.31151 12.61544,8.56783 16.08535,15.32151 10.22342,19.89092 3.13675,52.61068 23.24407,65.97836 5.36508,0.51754 5.63394,0.68233 10.54168,-2.26985 9.56897,-23.45689 4.79902,-104.2158 -5.19445,-127.91903 -6.64942,-15.76914 -18.46789,-27.13316 -26.77982,-41.68651 -23.7936,-41.66082 -12.06147,-92.72329 4.34329,-134.51015 25.01233,-63.718102 64.96046,-120.1526917 83.52591,-186.803909 8.83614,-31.719681 8.1546,-64.768191 9.93059,-97.210341 z" /><path
         id="path6"
         style="fill:none;stroke:#e6e6e6;stroke-width:4.92837673;stroke-dasharray:none;stroke-opacity:1"
         d="m -52.575692,-846.45649 c -0.10272,0.044 -0.22542,0.1549 -0.32739,0.1964 -6.59204,2.6839 -21.03761,0.6875 -28.722263,1.3969 -10.49193,0.9667 -21.014585,3.2024 -31.123085,6.1329 -61.67494,17.8725 -112.99166,63.6648 -136.82362,123.4664 -9.33347,23.4211 -13.94829,49.4318 -17.02386,74.3812 l -3.73214,44.1746 c -0.30946,4.0533 0.18818,12.697 -1.22222,16.2381 -4.03954,10.1331 -17.1007,23.002 -23.37504,32.8036 -18.61201,29.0711 -34.11668,60.37764 -45.3096,93.04191 -9.77986,28.5424 -15.93059,58.03172 -20.71234,87.78182 -3.53841,22.02723 -5.8903,45.48945 -12.24406,66.89498 -3.69724,12.45547 -15.9232,24.68753 -22.63298,36.01192 -5.47664,9.24088 -10.31672,18.70581 -14.7758,28.3294 l 173.81774,69.12131 c 1.41498,-25.84786 4.35426,-51.32019 15.16865,-75.36334 11.58741,-25.76275 37.74947,-46.55933 54.93461,-69.2739 26.31525,-34.78087 79.963795,-105.47944 101.008118,-145.81572 z" /><path
         id="path4"
         style="fill:none;stroke:#e6e6e6;stroke-width:4.92837673;stroke-dasharray:none;stroke-opacity:1"
         d="m 673.05431,1027.1039 -216.48627,3.4486 c -0.97115,8.8637 -1.72922,17.7796 -2.70633,26.5616 -4.72977,42.5043 -9.6877,86.4338 -5.43455,129.1848 8.03252,80.6533 46.88682,154.4213 63.16276,233.8158 6.48247,31.6044 12.22641,63.4696 13.2917,95.8135 0.87361,26.4834 -1.37065,53.7586 1.0476,80.0775 1.71993,18.7326 7.21301,36.8632 10.14881,55.3492 2.57165,16.1858 -3.11609,35.2752 -6.52575,51.2681 -6.99727,32.7823 -15.12935,67.208 -16.12899,100.8118 -0.3287,11.0641 -0.92464,22.6626 1.85517,33.4801 2.14995,8.3533 6.0015,16.3414 12.52781,22.1747 5.52392,4.9571 12.59854,7.6161 19.75197,9.2323 18.06433,4.0805 39.10273,3.147 57.66281,3.4484 27.03885,0.4108 55.53006,1.7837 82.4126,-0.9822 8.37777,-0.849 19.49562,-4.5529 25.20847,-11.0436 6.29072,-7.1479 5.92981,-19.4559 4.86727,-28.4387 -4.14634,-34.9174 -23.90258,-61.6673 -40.04974,-91.6012 -19.51031,-36.2055 -39.25776,-82.1243 -42.29763,-123.2047 -2.0156,-27.25 -0.18505,-55.7576 0.87305,-83.0894 2.59079,-67.0433 8.16986,-137.5995 24.79354,-202.7802 11.91605,-46.6947 33.0687,-94.3955 36.49217,-142.651 3.88126,-54.679 -6.88933,-109.0593 -24.46647,-160.8754 z" /><path
         id="path7"
         style="fill:none;stroke:#e6e6e6;stroke-width:4.92837673;stroke-dasharray:none;stroke-opacity:1"
         d="m 119.38688,1034.721 -216.159089,-9.2539 c -15.025351,49.532 -25.874351,102.4685 -22.283771,152.4506 3.7382,52.1171 21.172191,102.9582 32.869105,153.6514 16.467603,71.3689 24.234603,141.612 27.740133,214.653 1.13381,23.6621 3.32866,48.4165 1.83333,72.0238 -1.01332,16.0216 -5.15241,32.164 -11.13098,47.0337 -11.981613,29.8245 -27.997403,59.4627 -42.035768,88.4367 -13.32646,27.5237 -29.28707,49.4755 -31.40682,81.5181 -0.42176,6.4084 -0.93198,14.4688 1.63691,20.4941 2.93314,6.9012 9.15714,9.0822 15.91074,11.2183 25.872251,8.134 142.373337,9.2461 164.301868,-2.9682 11.05335,-6.162 17.09111,-17.3439 20.18855,-29.2025 10.16865,-38.8607 -3.95448,-91.8957 -12.13495,-130.4288 -3.28367,-15.4464 -8.06473,-31.9241 -7.2897,-47.8633 1.08454,-22.2379 9.47089,-44.4542 11.24009,-67.1566 1.98279,-25.4699 -0.29332,-51.5303 0.78572,-77.1095 1.95817,-46.3921 10.73065,-93.0178 21.95638,-137.9584 15.23533,-60.9906 42.751792,-119.221 50.263982,-181.937 6.21596,-51.9301 -1.73856,-105.6772 -6.28573,-157.6015 z" /><path
         id="path8"
         style="fill:none;stroke:#e4e4e4;stroke-width:4.92837673;stroke-dasharray:none;stroke-opacity:1"
         d="M 289.74194,353.18522 -75.776121,341.97926 c -2.647938,12.01365 -5.483664,24.03225 -7.597984,36.03735 -8.20786,46.61753 -10.62204,93.57114 -11.78323,140.81308 -1.040714,42.36735 -1.130404,85.89167 2.31759,128.13847 l 17.190964,135.29499 c 7.153423,43.21391 19.304731,86.05902 16.240154,130.36268 -1.591199,22.9966 -14.087195,44.39433 -21.758238,65.852 -5.41548,15.15061 -10.72207,30.89667 -15.603454,46.98857 l 216.156189,9.2534 c -0.0907,-1.0357 -0.1923,-2.1068 -0.28015,-3.141 -1.91693,-22.5395 -4.76352,-45.85896 -1.90162,-68.46672 3.25357,-25.68918 12.31917,-52.1023 20.68858,-76.52313 l 32.67556,-95.72607 59.17087,-225.14643 C 244.9332,494.8836 257.63005,426.4032 260.62342,353.85588 l 29.12701,0.12734 z" /><path
         id="path9"
         style="fill:none;stroke:#e6e6e6;stroke-width:4.92837673;stroke-dasharray:none;stroke-opacity:1"
         d="M 552.73094,31.384298 33.460148,22.042968 c -0.53467,3.57042 -1.08298,6.79179 -1.70238,8.8174 -3.116621,10.20145 -9.837991,20.38223 -14.055591,30.4029 L -18.811752,153.192 c -22.17912,60.94821 -42.86102,124.80267 -56.96438,188.79003 l 728.205512,22.32726 c -9.39106,-46.3428 -21.51582,-92.39428 -36.55756,-138.04577 -20.21413,-61.34618 -45.04764,-121.51001 -60.74007,-184.272142 -0.88838,-3.55225 -1.6014,-7.07042 -2.40081,-10.60708 z" /><path
         id="path10"
         style="fill:none;stroke:#e6e6e6;stroke-width:4.92837673;stroke-dasharray:none;stroke-opacity:1"
         d="M 561.46106,-276.07062 10.587098,-286.35046 c 1.487009,2.90293 2.971909,5.80441 4.605189,8.51196 23.578191,80.31521 27.926151,92.94266 24.946461,177.964621 -0.61538,17.5107 -2.2794,92.5400069 -6.6786,121.916847 l 519.270792,9.34133 c -12.42536,-54.96617 -14.45403,-108.260777 -11.82941,-165.000328 2.71675,-58.71712 7.47501,-53.62556 17.50399,-125.58359 1.03873,-6.20101 2.03926,-11.70346 3.05554,-16.871 z" /><path
         id="path11"
         style="fill:none;stroke:#e6e6e6;stroke-width:4.92837673;stroke-dasharray:none;stroke-opacity:1"
         d="m 649.70125,-616.63469 -709.675792,-9.7779 -5.69643,169.47458 c 0.47583,-0.91204 1.39202,-2.21939 1.83335,-3.09921 9.44006,18.757 20.94722,69.63255 33.67665,86.4287 18.10523,23.88497 26.5214795,59.48536 40.74807,87.25806 l 550.873962,10.27984 c 7.75526,-39.4349 16.31195,-52.82138 47.88501,-99.91692 33.94408,-50.63243 43.05077,-84.05227 47.29569,-87.69446 0.13653,0.37786 0.29873,0.73554 0.43648,1.11309 z" /><path
         id="path12"
         style="fill:none;stroke:#e6e6e6;stroke-width:4.92837673;stroke-dasharray:none;stroke-opacity:1"
         d="m 173.09931,-977.91101 c -0.0129,0.032 -0.008,0.3203 -0.0218,0.3492 -53.22589,41.74262 -114.881402,63.25742 -173.16296248,96.25012 -12.02830952,6.8083 -23.42177952,14.5352 -34.70244952,22.502 -5.16635,3.6485 -12.0163,9.8819 -17.78771,12.3532 l -7.39885,220.0439 709.675872,9.7779 -10.73821,-224.6711 c -1.29653,-0.2364 -3.39795,-0.1203 -4.32138,-0.5019 -4.76529,-1.9718 -10.47015,-6.9458 -14.88495,-9.8433 -11.63095,-7.6327 -23.14838,-15.5409 -35.29171,-22.3492 l -81.80164,-42.9961 c -35.34791,-17.5931 -70.12345,-34.28482 -100.50624,-59.97632 l 0.0218,-0.9384 z" /><path
         id="path13"
         style="fill:none;stroke:#000000;stroke-width:4.92837673;stroke-dasharray:none;stroke-opacity:1"
         d="m 312.78207,354.0766 2.6402,38.58416 c 14.0713,134.14548 48.67741,269.32005 88.63745,397.93895 16.68115,53.68945 41.74099,106.09609 52.50671,161.35734 5.05845,25.9591 2.875,52.35405 0,78.59455 l 216.48728,-3.4467 c -5.5412,-16.3352 -11.68398,-32.44736 -18.354,-48.19411 L 638.2643,940.75958 c -2.66726,-6.20052 -6.82014,-13.79718 -7.59798,-20.39994 -2.17449,-18.48367 1.34174,-39.15573 4.41446,-57.36263 l 22.98071,-110.21742 c 23.9695,-130.64806 20.26185,-260.71209 -5.62844,-388.4733 z"
         sodipodi:nodetypes="ccccccccccccc" /><path
         id="path1"
         style="fill:none;stroke:#e6e6e6;stroke-width:4.92837673;stroke-dasharray:none;stroke-opacity:1"
         d="m 290.77101,-1449.1003 c -5.81685,-0.2631 -11.85622,-0.5425 -17.65676,0.044 -39.77118,4.8118 -76.22677,19.9686 -101.44452,52.381 -30.95814,39.7876 -34.27871,115.6752 -28.11118,164.6292 -3.69449,3.6836 -4.86417,1.7736 -8.46826,3.8413 -5.5212,3.1659 -7.67431,11.8397 -7.70439,17.6786 -0.0631,12.294 3.14756,23.9184 5.47819,35.881 4.0642,20.8715 6.79274,49.128 23.26589,64.3632 2.59903,2.4019 5.7933,4.264 8.99209,5.7401 2.01824,12.382 5.9371,118.89629 2.57541,126.63119 h 229.07975 l 2.64086,-81.73619 c 0.2247,-12.2776 -2.23425,-33.6693 2.008,-44.8513 l 1.61505,-1.4187 c 19.48569,-17.407 23.36622,-39.4681 28.52585,-63.7739 2.52507,-11.8887 5.49534,-24.0896 5.98018,-36.252 0.28203,-7.0111 0.74629,-13.6584 -3.20829,-19.7958 -3.07015,-2.2922 -6.29758,-4.4634 -8.92672,-7.2678 3.11399,-55.5707 4.22061,-125.3215 -34.89883,-169.4527 -24.82621,-28.0058 -62.55911,-44.9703 -99.74232,-46.6409 z" /><g
         id="body"
         transform="matrix(1.0609646,0,0,1.0609646,3.8851821,-404.43057)"><path
           fill="#37b2df"
           d="m 283.17389,596.49529 c 7.29878,0.33206 8.88162,-0.0804 16.00924,0.0851 0.24196,2.35569 0.33325,4.67189 0.92537,6.98158 0.21806,0.85086 0.4925,1.77406 0.99588,2.50285 l 16.01311,4.53618 4.00828,1.04672 c 1.93273,0.46715 3.81933,0.85727 5.56272,1.86704 2.18883,1.26767 3.9146,3.27912 5.0637,5.51213 1.77008,3.43983 1.78687,7.37701 2.35122,11.1269 l -11.04878,5.03231 -1.42198,0.67869 c -0.29486,0.12678 -0.63934,0.21975 -0.90678,0.39192 l -0.59345,3.61479 -1.32044,5.61984 -2.38781,8.10544 -3.20945,9.55447 c -1.97909,6.59701 -2.50721,13.63264 -1.22409,20.41476 0.87817,4.64136 2.58945,9.06653 4.01324,13.55455 -0.13414,0.19564 -0.56192,0.36106 -0.78083,0.47331 -1.10697,0.56509 -2.26054,1.03232 -3.43657,1.43319 -7.0731,2.41002 -14.30448,3.24558 -21.75211,3.10431 -8.13756,-0.15454 -16.27934,-1.50682 -23.6363,-5.12186 0.49613,-0.95869 0.87937,-2.02123 1.25632,-3.03428 l 1.8831,-5.71358 c 0.89796,-3.03667 1.66371,-6.12763 1.94359,-9.28991 0.87418,-9.87668 -3.30531,-19.13342 -6.39017,-28.24646 -1.3144,-3.88248 -2.30932,-7.96381 -3.19666,-11.96352 l -0.36234,-2.37887 c -1.65985,-0.59948 -3.27817,-1.56409 -4.86979,-2.33418 l -8.36781,-4.052 0.69873,-5.17419 c 0.85173,-5.06344 3.15536,-9.80089 8.12778,-11.8773 2.24013,-0.93552 4.81304,-1.44191 7.16087,-2.06228 l 11.29691,-3.18688 3.34118,-0.99709 c 0.80258,-0.24161 1.7562,-0.45013 2.43888,-0.93551 1.45398,-2.80425 1.72577,-6.15811 1.81524,-9.2682 z"
           id="path5-3"
           sodipodi:nodetypes="ccccccccccccccccccccccccscccccccccccc"
           style="fill:none;stroke:#000000;stroke-width:2.10451;stroke-dasharray:none;stroke-opacity:1" /><path
           fill="#26A4D4"
           d="m 291.26778,657.48848 0.0627,0.0529 0.0441,34.39004 -0.0811,0.1627 c -0.12182,-0.92567 -0.0889,-1.92401 -0.11397,-2.85943 l -0.14428,-3.72601 -0.23966,-11.24502 0.22097,-8.86765 0.14825,-5.96255 c 0.0297,-0.65042 -0.0152,-1.30151 0.10303,-1.94505 z"
           id="path6-7"
           style="fill:#6f838b;fill-opacity:1;stroke-width:0.0990362;stroke-dasharray:none" /><path
           fill="#26A4D4"
           d="m 320.65964,629.12126 c -0.14503,1.18222 -0.44555,2.36517 -0.73139,3.52033 -0.29654,1.19846 -0.60848,2.45583 -1.09383,3.59369 -0.39492,0.92548 -0.96492,1.81969 -1.46818,2.69177 -1.54792,2.68216 -3.10979,5.22674 -5.37214,7.38061 -3.03293,2.88755 -6.79305,4.3086 -10.97477,4.21251 l -0.067,-0.0393 -0.0154,-0.0762 0.80173,-0.21946 c 4.45387,-1.19413 8.3186,-3.98271 11.14747,-7.59696 2.0068,-2.56394 3.57192,-5.48384 5.08832,-8.35467 z"
           id="path7-7"
           style="fill:#768084;fill-opacity:1;stroke-width:0.123795;stroke-dasharray:none" /><path
           fill="#26A4D4"
           d="m 260.34705,627.90946 c 0.25767,0.30548 0.40388,0.99081 0.55385,1.37381 l 1.14271,2.73433 c 0.81392,1.81983 1.66491,3.62625 2.65596,5.35758 2.92933,5.11694 6.90406,10.40111 12.73109,12.34639 0.86705,0.28943 1.82695,0.54564 2.73252,0.67255 0.78048,0.10927 1.5775,0.12774 2.33998,0.33457 l -1.21309,0.0885 c -4.54064,0.21251 -9.08406,-1.42355 -12.44396,-4.47471 -3.16985,-2.8785 -5.15847,-6.66571 -6.66209,-10.61978 -0.93322,-2.45445 -1.71502,-5.17864 -1.83697,-7.81324 z"
           id="path8-0"
           style="fill:#6c858e;fill-opacity:1;stroke-width:0.120743" /><text
           xml:space="preserve"
           style="font-style:normal;font-variant:normal;font-weight:normal;font-stretch:normal;font-size:113.547px;font-family:Amiri;-inkscape-font-specification:'Amiri, Normal';font-variant-ligatures:normal;font-variant-caps:normal;font-variant-numeric:normal;font-variant-east-asian:normal;fill:#000000;fill-opacity:1;stroke:#000000;stroke-width:0.215296;stroke-dasharray:none;stroke-opacity:1;paint-order:markers fill stroke"
           x="339.74225"
           y="684.15222"
           id="text1"><tspan
             sodipodi:role="line"
             id="tspan1"
             x="339.74225"
             y="684.15222"
             style="stroke-width:0.215296">Body: -1</tspan></text><path
           id="rect1"
           d="m 282.50527,648.92026 h 17.61435 l -5.26564,1.30119 -0.49288,12.72354 -7.11349,-0.0649 -0.0833,-12.65856 z"
           sodipodi:nodetypes="ccccccc"
           style="stroke-width:2.53663" /><path
           style="fill:#000000;fill-opacity:1;stroke-width:2.10969"
           id="path2-6-0"
           sodipodi:type="arc"
           sodipodi:cx="291.00009"
           sodipodi:cy="624.9527"
           sodipodi:rx="8.5723772"
           sodipodi:ry="8.5723772"
           sodipodi:start="0.027304543"
           sodipodi:end="6.2831853"
           sodipodi:open="true"
           sodipodi:arc-type="arc"
           d="m 299.56927,625.18673 a 8.5723772,8.5723772 0 0 1 -8.74471,8.33655 8.5723772,8.5723772 0 0 1 -8.39605,-8.68761 8.5723772,8.5723772 0 0 1 8.6301,-8.45515 8.5723772,8.5723772 0 0 1 8.51386,8.57218" /><path
           style="fill:#000000;fill-opacity:1;stroke-width:2.10969"
           id="path2-6-0-7"
           sodipodi:type="arc"
           sodipodi:cx="282.51749"
           sodipodi:cy="640.08997"
           sodipodi:rx="8.5723772"
           sodipodi:ry="8.5723772"
           sodipodi:start="0.027304543"
           sodipodi:end="6.2831853"
           sodipodi:open="true"
           sodipodi:arc-type="arc"
           d="m 291.08667,640.324 a 8.5723772,8.5723772 0 0 1 -8.74472,8.33655 8.5723772,8.5723772 0 0 1 -8.39604,-8.68761 8.5723772,8.5723772 0 0 1 8.63009,-8.45515 8.5723772,8.5723772 0 0 1 8.51386,8.57218" /><path
           style="fill:#000000;fill-opacity:1;stroke-width:2.10969"
           id="path2-6-0-9"
           sodipodi:type="arc"
           sodipodi:cx="299.66608"
           sodipodi:cy="640.08997"
           sodipodi:rx="8.5723772"
           sodipodi:ry="8.5723772"
           sodipodi:start="0.027304543"
           sodipodi:end="6.2831853"
           sodipodi:open="true"
           sodipodi:arc-type="arc"
           d="m 308.23526,640.324 a 8.5723772,8.5723772 0 0 1 -8.74472,8.33655 8.5723772,8.5723772 0 0 1 -8.39604,-8.68761 8.5723772,8.5723772 0 0 1 8.63009,-8.45515 8.5723772,8.5723772 0 0 1 8.51386,8.57218" /><path
           sodipodi:type="star"
           style="fill:#000000"
           id="path1-99"
           inkscape:flatsided="false"
           sodipodi:sides="3"
           sodipodi:cx="-4.2679658"
           sodipodi:cy="5.2618756"
           sodipodi:r1="0.76004869"
           sodipodi:r2="0.33594152"
           sodipodi:arg1="1.5707963"
           sodipodi:arg2="2.6179939"
           inkscape:rounded="0"
           inkscape:randomized="0"
           d="m -4.2679658,6.0219243 -0.2909339,-0.5920779 -0.3672876,-0.5479951 0.6582215,0.044083 0.6582215,-0.044083 -0.3672876,0.5479951 z"
           inkscape:transform-center-y="0.21087664"
           transform="matrix(4.5466021,0,0,4.5466021,310.29061,582.85793)" /><path
           sodipodi:type="star"
           style="fill:#000000"
           id="path1-7"
           inkscape:flatsided="false"
           sodipodi:sides="3"
           sodipodi:cx="-4.2679658"
           sodipodi:cy="5.2618756"
           sodipodi:r1="0.76004869"
           sodipodi:r2="0.33594152"
           sodipodi:arg1="1.5707963"
           sodipodi:arg2="2.6179939"
           inkscape:rounded="0"
           inkscape:randomized="0"
           d="m -4.2679658,6.0219243 -0.2909339,-0.5920779 -0.3672876,-0.5479951 0.6582215,0.044083 0.6582215,-0.044083 -0.3672876,0.5479951 z"
           inkscape:transform-center-y="-0.1986054"
           transform="matrix(2.1410252,4.0109351,-4.0109351,2.1410252,320.82082,620.19352)"
           inkscape:transform-center-x="0.014034468" /><path
           sodipodi:type="star"
           style="fill:#000000"
           id="path1-9"
           inkscape:flatsided="false"
           sodipodi:sides="3"
           sodipodi:cx="-4.2679658"
           sodipodi:cy="5.2618756"
           sodipodi:r1="0.76004869"
           sodipodi:r2="0.33594152"
           sodipodi:arg1="1.5707963"
           sodipodi:arg2="2.6179939"
           inkscape:rounded="0"
           inkscape:randomized="0"
           d="m -4.2679658,6.0219243 -0.2909339,-0.5920779 -0.3672876,-0.5479951 0.6582215,0.044083 0.6582215,-0.044083 -0.3672876,0.5479951 z"
           inkscape:transform-center-y="0.0047987713"
           transform="matrix(-0.05177666,-4.5463077,4.5463077,-0.05177666,263.24506,591.48829)"
           inkscape:transform-center-x="-0.2066996" /><path
           sodipodi:type="star"
           style="fill:#000000"
           id="path1-5"
           inkscape:flatsided="false"
           sodipodi:sides="3"
           sodipodi:cx="-4.2679658"
           sodipodi:cy="5.2618756"
           sodipodi:r1="0.76004869"
           sodipodi:r2="0.33594152"
           sodipodi:arg1="1.5707963"
           sodipodi:arg2="2.6179939"
           inkscape:rounded="0"
           inkscape:randomized="0"
           d="m -4.2679658,6.0219243 -0.2909339,-0.5920779 -0.3672876,-0.5479951 0.6582215,0.044083 0.6582215,-0.044083 -0.3672876,0.5479951 z"
           inkscape:transform-center-y="0.024724087"
           transform="matrix(-0.26655543,4.5387818,-4.5387818,-0.26655543,316.77845,631.68679)"
           inkscape:transform-center-x="0.18910257" /></g></g></g></svg>
