<?xml version="1.0" encoding="UTF-8" standalone="no"?>
<svg
   width="63mm"
   height="88mm"
   version="1.1"
   id="svg21"
   sodipodi:docname="card-damage-fatigue.svg"
   viewBox="0 0 63 88"
   inkscape:version="1.3.2 (091e20e, 2023-11-25, custom)"
   xmlns:inkscape="http://www.inkscape.org/namespaces/inkscape"
   xmlns:sodipodi="http://sodipodi.sourceforge.net/DTD/sodipodi-0.dtd"
   xmlns="http://www.w3.org/2000/svg"
   xmlns:svg="http://www.w3.org/2000/svg">
  <defs
     id="defs21" />
  <sodipodi:namedview
     id="namedview21"
     pagecolor="#ffffff"
     bordercolor="#000000"
     borderopacity="0.25"
     inkscape:showpageshadow="2"
     inkscape:pageopacity="0.0"
     inkscape:pagecheckerboard="0"
     inkscape:deskcolor="#d1d1d1"
     inkscape:document-units="mm"
     inkscape:zoom="1.1450489"
     inkscape:cx="113.96893"
     inkscape:cy="259.37757"
     inkscape:window-width="1350"
     inkscape:window-height="1040"
     inkscape:window-x="58"
     inkscape:window-y="0"
     inkscape:window-maximized="0"
     inkscape:current-layer="svg21" />
  <rect
     style="fill:#dfefe9;fill-opacity:1;stroke:#383838;stroke-width:0.010008;stroke-opacity:1;paint-order:markers fill stroke"
     id="rect132"
     width="62.989994"
     height="87.98999"
     x="0.0050041168"
     y="0.0050041168" />
  <g
     id="body"
     transform="scale(0.06442853)">
    <path
       fill="#37b2df"
       d="m 283.17389,596.49529 c 7.29878,0.33206 8.88162,-0.0804 16.00924,0.0851 0.24196,2.35569 0.33325,4.67189 0.92537,6.98158 0.21806,0.85086 0.4925,1.77406 0.99588,2.50285 l 16.01311,4.53618 4.00828,1.04672 c 1.93273,0.46715 3.81933,0.85727 5.56272,1.86704 2.18883,1.26767 3.9146,3.27912 5.0637,5.51213 1.77008,3.43983 1.78687,7.37701 2.35122,11.1269 l -11.04878,5.03231 -1.42198,0.67869 c -0.29486,0.12678 -0.63934,0.21975 -0.90678,0.39192 l -0.59345,3.61479 -1.32044,5.61984 -2.38781,8.10544 -3.20945,9.55447 c -1.97909,6.59701 -2.50721,13.63264 -1.22409,20.41476 0.87817,4.64136 2.58945,9.06653 4.01324,13.55455 -0.13414,0.19564 -0.56192,0.36106 -0.78083,0.47331 -1.10697,0.56509 -2.26054,1.03232 -3.43657,1.43319 -7.0731,2.41002 -14.30448,3.24558 -21.75211,3.10431 -8.13756,-0.15454 -16.27934,-1.50682 -23.6363,-5.12186 0.49613,-0.95869 0.87937,-2.02123 1.25632,-3.03428 l 1.8831,-5.71358 c 0.89796,-3.03667 1.66371,-6.12763 1.94359,-9.28991 0.87418,-9.87668 -3.30531,-19.13342 -6.39017,-28.24646 -1.3144,-3.88248 -2.30932,-7.96381 -3.19666,-11.96352 l -0.36234,-2.37887 c -1.65985,-0.59948 -3.27817,-1.56409 -4.86979,-2.33418 l -8.36781,-4.052 0.69873,-5.17419 c 0.85173,-5.06344 3.15536,-9.80089 8.12778,-11.8773 2.24013,-0.93552 4.81304,-1.44191 7.16087,-2.06228 l 11.29691,-3.18688 3.34118,-0.99709 c 0.80258,-0.24161 1.7562,-0.45013 2.43888,-0.93551 1.45398,-2.80425 1.72577,-6.15811 1.81524,-9.2682 z"
       id="path5-3"
       sodipodi:nodetypes="ccccccccccccccccccccccccscccccccccccc"
       style="fill:none;stroke:#000000;stroke-width:2.10451;stroke-dasharray:none;stroke-opacity:1" />
    <path
       fill="#26A4D4"
       d="m 291.26778,657.48848 0.0627,0.0529 0.0441,34.39004 -0.0811,0.1627 c -0.12182,-0.92567 -0.0889,-1.92401 -0.11397,-2.85943 l -0.14428,-3.72601 -0.23966,-11.24502 0.22097,-8.86765 0.14825,-5.96255 c 0.0297,-0.65042 -0.0152,-1.30151 0.10303,-1.94505 z"
       id="path6-7"
       style="fill:#6f838b;fill-opacity:1;stroke-width:0.0990362;stroke-dasharray:none" />
    <path
       fill="#26A4D4"
       d="m 320.65964,629.12126 c -0.14503,1.18222 -0.44555,2.36517 -0.73139,3.52033 -0.29654,1.19846 -0.60848,2.45583 -1.09383,3.59369 -0.39492,0.92548 -0.96492,1.81969 -1.46818,2.69177 -1.54792,2.68216 -3.10979,5.22674 -5.37214,7.38061 -3.03293,2.88755 -6.79305,4.3086 -10.97477,4.21251 l -0.067,-0.0393 -0.0154,-0.0762 0.80173,-0.21946 c 4.45387,-1.19413 8.3186,-3.98271 11.14747,-7.59696 2.0068,-2.56394 3.57192,-5.48384 5.08832,-8.35467 z"
       id="path7-7"
       style="fill:#768084;fill-opacity:1;stroke-width:0.123795;stroke-dasharray:none" />
    <path
       fill="#26A4D4"
       d="m 260.34705,627.90946 c 0.25767,0.30548 0.40388,0.99081 0.55385,1.37381 l 1.14271,2.73433 c 0.81392,1.81983 1.66491,3.62625 2.65596,5.35758 2.92933,5.11694 6.90406,10.40111 12.73109,12.34639 0.86705,0.28943 1.82695,0.54564 2.73252,0.67255 0.78048,0.10927 1.5775,0.12774 2.33998,0.33457 l -1.21309,0.0885 c -4.54064,0.21251 -9.08406,-1.42355 -12.44396,-4.47471 -3.16985,-2.8785 -5.15847,-6.66571 -6.66209,-10.61978 -0.93322,-2.45445 -1.71502,-5.17864 -1.83697,-7.81324 z"
       id="path8-0"
       style="fill:#6c858e;fill-opacity:1;stroke-width:0.120743" />
    <text
       xml:space="preserve"
       style="font-style:normal;font-variant:normal;font-weight:normal;font-stretch:normal;font-size:113.547px;font-family:Amiri;-inkscape-font-specification:'Amiri, Normal';font-variant-ligatures:normal;font-variant-caps:normal;font-variant-numeric:normal;font-variant-east-asian:normal;fill:#000000;fill-opacity:1;stroke:none;stroke-width:0.215296;stroke-dasharray:none;stroke-opacity:1;paint-order:markers fill stroke"
       x="339.74225"
       y="684.15222"
       id="text1"><tspan
         sodipodi:role="line"
         id="tspan1"
         x="339.74225"
         y="684.15222"
         style="stroke:none;stroke-width:0.215296">Body: -1</tspan></text>
    <path
       id="rect1"
       d="m 282.50527,648.92026 h 17.61435 l -5.26564,1.30119 -0.49288,12.72354 -7.11349,-0.0649 -0.0833,-12.65856 z"
       sodipodi:nodetypes="ccccccc"
       style="stroke-width:2.53663" />
    <path
       style="fill:#000000;fill-opacity:1;stroke-width:2.10969"
       id="path2-6-0"
       sodipodi:type="arc"
       sodipodi:cx="291.00009"
       sodipodi:cy="624.9527"
       sodipodi:rx="8.5723772"
       sodipodi:ry="8.5723772"
       sodipodi:start="0.027304543"
       sodipodi:end="6.2831853"
       sodipodi:open="true"
       sodipodi:arc-type="arc"
       d="m 299.56927,625.18673 a 8.5723772,8.5723772 0 0 1 -8.74471,8.33655 8.5723772,8.5723772 0 0 1 -8.39605,-8.68761 8.5723772,8.5723772 0 0 1 8.6301,-8.45515 8.5723772,8.5723772 0 0 1 8.51386,8.57218" />
    <path
       style="fill:#000000;fill-opacity:1;stroke-width:2.10969"
       id="path2-6-0-7"
       sodipodi:type="arc"
       sodipodi:cx="282.51749"
       sodipodi:cy="640.08997"
       sodipodi:rx="8.5723772"
       sodipodi:ry="8.5723772"
       sodipodi:start="0.027304543"
       sodipodi:end="6.2831853"
       sodipodi:open="true"
       sodipodi:arc-type="arc"
       d="m 291.08667,640.324 a 8.5723772,8.5723772 0 0 1 -8.74472,8.33655 8.5723772,8.5723772 0 0 1 -8.39604,-8.68761 8.5723772,8.5723772 0 0 1 8.63009,-8.45515 8.5723772,8.5723772 0 0 1 8.51386,8.57218" />
    <path
       style="fill:#000000;fill-opacity:1;stroke-width:2.10969"
       id="path2-6-0-9"
       sodipodi:type="arc"
       sodipodi:cx="299.66608"
       sodipodi:cy="640.08997"
       sodipodi:rx="8.5723772"
       sodipodi:ry="8.5723772"
       sodipodi:start="0.027304543"
       sodipodi:end="6.2831853"
       sodipodi:open="true"
       sodipodi:arc-type="arc"
       d="m 308.23526,640.324 a 8.5723772,8.5723772 0 0 1 -8.74472,8.33655 8.5723772,8.5723772 0 0 1 -8.39604,-8.68761 8.5723772,8.5723772 0 0 1 8.63009,-8.45515 8.5723772,8.5723772 0 0 1 8.51386,8.57218" />
    <path
       sodipodi:type="star"
       style="fill:#000000"
       id="path1"
       inkscape:flatsided="false"
       sodipodi:sides="3"
       sodipodi:cx="-4.2679658"
       sodipodi:cy="5.2618756"
       sodipodi:r1="0.76004869"
       sodipodi:r2="0.33594152"
       sodipodi:arg1="1.5707963"
       sodipodi:arg2="2.6179939"
       inkscape:rounded="0"
       inkscape:randomized="0"
       d="m -4.2679658,6.0219243 -0.2909339,-0.5920779 -0.3672876,-0.5479951 0.6582215,0.044083 0.6582215,-0.044083 -0.3672876,0.5479951 z"
       inkscape:transform-center-y="0.21087664"
       transform="matrix(4.5466021,0,0,4.5466021,310.29061,582.85793)" />
    <path
       sodipodi:type="star"
       style="fill:#000000"
       id="path1-7"
       inkscape:flatsided="false"
       sodipodi:sides="3"
       sodipodi:cx="-4.2679658"
       sodipodi:cy="5.2618756"
       sodipodi:r1="0.76004869"
       sodipodi:r2="0.33594152"
       sodipodi:arg1="1.5707963"
       sodipodi:arg2="2.6179939"
       inkscape:rounded="0"
       inkscape:randomized="0"
       d="m -4.2679658,6.0219243 -0.2909339,-0.5920779 -0.3672876,-0.5479951 0.6582215,0.044083 0.6582215,-0.044083 -0.3672876,0.5479951 z"
       inkscape:transform-center-y="-0.1986054"
       transform="matrix(2.1410252,4.0109351,-4.0109351,2.1410252,320.82082,620.19352)"
       inkscape:transform-center-x="0.014034468" />
    <path
       sodipodi:type="star"
       style="fill:#000000"
       id="path1-9"
       inkscape:flatsided="false"
       sodipodi:sides="3"
       sodipodi:cx="-4.2679658"
       sodipodi:cy="5.2618756"
       sodipodi:r1="0.76004869"
       sodipodi:r2="0.33594152"
       sodipodi:arg1="1.5707963"
       sodipodi:arg2="2.6179939"
       inkscape:rounded="0"
       inkscape:randomized="0"
       d="m -4.2679658,6.0219243 -0.2909339,-0.5920779 -0.3672876,-0.5479951 0.6582215,0.044083 0.6582215,-0.044083 -0.3672876,0.5479951 z"
       inkscape:transform-center-y="0.0047987713"
       transform="matrix(-0.05177666,-4.5463077,4.5463077,-0.05177666,263.24506,591.48829)"
       inkscape:transform-center-x="-0.2066996" />
    <path
       sodipodi:type="star"
       style="fill:#000000"
       id="path1-5"
       inkscape:flatsided="false"
       sodipodi:sides="3"
       sodipodi:cx="-4.2679658"
       sodipodi:cy="5.2618756"
       sodipodi:r1="0.76004869"
       sodipodi:r2="0.33594152"
       sodipodi:arg1="1.5707963"
       sodipodi:arg2="2.6179939"
       inkscape:rounded="0"
       inkscape:randomized="0"
       d="m -4.2679658,6.0219243 -0.2909339,-0.5920779 -0.3672876,-0.5479951 0.6582215,0.044083 0.6582215,-0.044083 -0.3672876,0.5479951 z"
       inkscape:transform-center-y="0.024724087"
       transform="matrix(-0.26655543,4.5387818,-4.5387818,-0.26655543,316.77845,631.68679)"
       inkscape:transform-center-x="0.18910257" />
  </g>
  <g
     id="g6"
     transform="matrix(0.15872371,0,0,0.15872371,20.185473,44.659952)">
    <path
       fill="#FEFEFE"
       transform="matrix(0.142578,0,0,0.142578,0,-1.52588e-5)"
       d="m 508.543,89.5573 c 3.867,-0.1684 7.212,-0.185 10.351,2.5065 3.89,3.3365 5.009,9.7292 6.536,14.4202 l 5.713,16.599 34.06,82.389 28.703,58.915 77.63,142.166 c 22.265,40.873 44.707,82.127 62.714,125.094 15.088,36.001 28.783,73.5 36.414,111.854 1.855,9.322 3.769,18.995 4.075,28.504 0.232,7.241 -0.617,14.497 -1.228,21.698 -4.756,56.036 -29.253,112.768 -67.958,153.823 -14.393,15.267 -30.103,28.959 -47.622,40.535 -41.576,27.473 -90.832,42.023 -140.493,43.445 -32.197,0.078 -64.256,-4.736 -94.688,-15.555 C 358.616,893.15 303.22,843.793 274.204,782.112 254.177,739.539 245.115,690.674 252.588,643.928 c 3.506,-21.934 10.086,-43.128 17.775,-63.909 10.594,-28.631 23.532,-56.499 36.804,-83.979 L 360.218,392.75 434.93,254.746 c 18.469,-36.223 35.422,-73.027 49.933,-111.015 l 11.757,-32.58 4.762,-14.9221 c 1.361,-3.6568 3.755,-5.1437 7.161,-6.6716 z"
       id="path2"
       style="fill:#b8dcff;fill-opacity:1;stroke:none;stroke-opacity:1" />
    <path
       fill="#29b5e6"
       transform="matrix(0.142578,0,0,0.142578,0,-1.52588e-5)"
       d="m 594.565,418.211 c 2.22,2.139 4.013,5.148 5.676,7.731 l 8.788,14.06 16,27.306 c 10.381,18.025 20.248,36.652 26.689,56.494 2.808,8.649 5.24,18.167 5.665,27.282 0.844,18.082 -5.256,34.839 -17.538,48.197 -10.93,11.887 -26.619,17.761 -42.47,18.366 -11.465,0.388 -22.631,-2.956 -32.375,-8.92 -14.594,-8.934 -24.969,-23.918 -28.862,-40.477 -11.074,-47.09 34.139,-111.244 58.427,-150.039 z"
       id="path3"
       style="stroke:none;stroke-width:1.00296;stroke-dasharray:none" />
    <path
       fill="#fefefe"
       transform="matrix(0.142578,0,0,0.142578,0,-1.52588e-5)"
       d="m 546.712,540.25 c 0.23,1.147 0.153,2.031 0.081,3.172 -1.068,16.851 2.837,32.435 14.206,45.196 10.348,11.617 24.061,16.312 39.251,17.113 l -0.5,0.527 c -4.629,-0.018 -9.48,0.027 -14.01,-0.985 -4.239,-0.947 -8.258,-1.919 -12.24,-3.717 -11.459,-5.174 -20.806,-14.397 -25.25,-26.254 -3.161,-8.436 -4.203,-18.322 -3.142,-27.239 0.305,-2.566 0.522,-5.446 1.604,-7.813 z"
       id="path4" />
    <path
       fill="#29b5e6"
       transform="matrix(0.142578,0,0,0.142578,0,-1.52588e-5)"
       d="m 442.504,554.642 c 6.055,8.184 11.02,18.01 16.254,26.805 15.792,26.533 30.677,53.745 43.48,81.854 9.976,21.9 20.21,46.2 22.093,70.449 1.715,22.078 -2.875,44.372 -17.833,61.417 -15.808,18.013 -37.322,27.218 -60.956,28.714 -14.229,0.212 -30.052,-3.011 -42.542,-9.966 -18.84,-10.491 -31.667,-26.716 -37.438,-47.413 -4.767,-17.097 -3.587,-33.338 -0.22,-50.569 5.355,-27.4 16.168,-52.297 28.644,-77.085 l 27.347,-49.886 z"
       id="path5" />
    <path
       fill="#fefefe"
       transform="matrix(0.142578,0,0,0.142578,0,-1.52588e-5)"
       d="m 382.721,704.75 c 0.213,1.135 -0.35,3.05 -0.524,4.229 l -1.519,10.407 c -1.1,9.642 -1.791,19.238 -0.424,28.889 4.043,28.544 22.265,50.742 50.608,57.67 l 9.257,1.822 c 1.665,0.245 4.314,0.015 5.611,0.983 l -2.48,0.112 c -9.888,-0.533 -18.396,-1.723 -27.678,-5.301 -15.817,-6.096 -26.767,-16.587 -33.564,-32.067 -7.07,-16.102 -6.783,-34.642 -3.331,-51.583 1.024,-5.029 2.196,-10.362 4.044,-15.161 z"
       id="path6" />
  </g>
</svg>
