<?xml version="1.0" encoding="UTF-8" standalone="no"?>
<svg
   width="63mm"
   height="88mm"
   version="1.1"
   id="svg33"
   sodipodi:docname="card-slow.svg"
   viewBox="0 0 975.48891 1362.5877"
   inkscape:version="1.3.2 (091e20e, 2023-11-25, custom)"
   xmlns:inkscape="http://www.inkscape.org/namespaces/inkscape"
   xmlns:sodipodi="http://sodipodi.sourceforge.net/DTD/sodipodi-0.dtd"
   xmlns="http://www.w3.org/2000/svg"
   xmlns:svg="http://www.w3.org/2000/svg">
  <defs
     id="defs33" />
  <sodipodi:namedview
     id="namedview33"
     pagecolor="#ffffff"
     bordercolor="#000000"
     borderopacity="0.25"
     inkscape:showpageshadow="2"
     inkscape:pageopacity="0.0"
     inkscape:pagecheckerboard="0"
     inkscape:deskcolor="#d1d1d1"
     inkscape:zoom="1.1450488"
     inkscape:cx="-147.1553"
     inkscape:cy="116.58892"
     inkscape:window-width="1904"
     inkscape:window-height="1001"
     inkscape:window-x="16"
     inkscape:window-y="24"
     inkscape:window-maximized="0"
     inkscape:current-layer="svg33"
     inkscape:document-units="mm" />
  <rect
     style="fill:#dfefe9;fill-opacity:1;stroke:#383838;stroke-width:0.15484;stroke-opacity:1;paint-order:markers fill stroke"
     id="rect132"
     width="976.54572"
     height="1358.5623"
     x="0.68127763"
     y="6.6311646" />
  <g
     id="g1"
     transform="matrix(0.74696101,0,0,0.80234064,-55.950127,80.358084)">
    <text
       xml:space="preserve"
       style="font-style:normal;font-variant:normal;font-weight:normal;font-stretch:normal;font-size:148.144px;font-family:Amiri;-inkscape-font-specification:'Amiri, Normal';font-variant-ligatures:normal;font-variant-caps:normal;font-variant-numeric:normal;font-variant-east-asian:normal;fill:#000000;fill-opacity:1;stroke:#000000;stroke-width:0.269288;stroke-dasharray:none;stroke-opacity:1;paint-order:markers fill stroke"
       x="513.04822"
       y="778.5697"
       id="text1"><tspan
         sodipodi:role="line"
         id="tspan1"
         x="513.04822"
         y="778.5697">Move: -1</tspan></text>
    <path
       fill="#fefefe"
       d="m 423.87315,743.60565 0.21512,0.052 c 1.71719,3.76403 3.49119,3.70519 5.98388,7.35145 -7.82361,-0.10797 -11.69949,-1.08864 -18.76246,-4.29382 -1.34963,-0.0879 -4.75661,-3.11408 -5.45151,-3.66689 -1.44497,-1.14935 -2.73119,-2.33754 -3.98746,-3.59097 2.82341,0.88799 5.73821,1.52855 8.60636,2.10838 4.47579,0.90536 8.94267,1.61647 13.39636,2.03887 z"
       id="path2-5"
       style="stroke:#000000;stroke-width:2.32259;stroke-dasharray:none;stroke-opacity:1"
       sodipodi:nodetypes="ccccccccc" />
    <path
       fill="#fefefe"
       d="m 420.73098,732.74924 c 0.16605,0.0376 0.32327,0.0615 0.4746,0.14245 0.19084,1.49259 0.48354,2.93964 1.01378,4.35123 l 0.69132,1.64881 c 0.11304,0.25498 0.3131,0.59092 0.35053,0.86427 -3.38586,1.31875 -5.88595,0.53798 -8.86795,-0.96306 -4.84177,-2.84555 -9.02471,-7.42607 -10.99427,-12.72672 3.75169,2.83784 8.23961,4.29963 12.72721,5.52821 z"
       id="path3"
       style="stroke:#000000;stroke-width:2.32259;stroke-dasharray:none;stroke-opacity:1"
       sodipodi:nodetypes="ccccccccc" />
    <path
       fill="#fefefe"
       d="m 419.63719,727.11092 c -0.99006,-0.26054 -2.01274,-0.4366 -2.97937,-0.7825 -0.85278,-0.30505 -1.72241,-0.79395 -2.50264,-1.25578 -2.16532,-1.2816 -4.13288,-2.88937 -5.79407,-4.78297 -4.41276,-5.02993 -6.03531,-11.58112 -5.60542,-18.1506 1.44243,3.24637 3.5683,6.08982 6.39823,8.27104 l 1.57984,1.10672 c 0.28142,0.18129 0.70379,0.34916 0.93296,0.58562 0.21062,0.21732 0.3861,0.48811 0.57442,0.72644 l 1.38168,1.69296 c 2.2089,2.46776 4.80215,4.73075 7.62498,6.46811 l 0.12898,0.13734 c -0.62085,1.97648 -1.04172,4.00744 -1.0594,6.08448 z"
       id="path6"
       style="stroke:#000000;stroke-width:2.32259;stroke-dasharray:none;stroke-opacity:1" />
    <path
       fill="#fefefe"
       d="m 422.50359,716.14959 c -6.06305,-3.90641 -11.27396,-9.80969 -14.03576,-16.50113 -0.43606,-1.05665 -0.75161,-2.15168 -1.06003,-3.25081 -2.00973,-7.16318 -1.47637,-15.1216 1.38236,-21.98689 0.2891,0.72521 0.42082,1.57216 0.62475,2.33043 0.35788,1.33073 0.7986,2.60686 1.35738,3.86748 0.47228,1.06564 0.9832,2.14161 1.58175,3.1412 l 0.90316,1.40505 c 0.18746,0.2736 0.50729,0.62227 0.60871,0.93662 0.21288,0.6592 0.26249,1.40777 0.42808,2.08389 0.33393,1.36262 0.78211,2.71126 1.23813,4.03775 0.45987,1.33772 1.06344,2.61477 1.67154,3.88916 l 1.49177,2.99798 c 1.87192,3.37951 4.15198,6.55044 6.51068,9.6034 l 0.23463,0.30861 c -0.0517,0.33478 -0.27329,0.71011 -0.41015,1.02434 l -0.66812,1.64046 -1.60838,4.55102 z"
       id="path8"
       style="stroke:#000000;stroke-width:2.32259;stroke-dasharray:none;stroke-opacity:1" />
    <path
       fill="#fefefe"
       d="m 427.82911,704.30477 c -1.48769,-2.03108 -2.99773,-4.05116 -4.324,-6.19379 -0.96557,-1.5597 -1.79369,-3.1602 -2.59468,-4.80719 -1.11105,-2.2848 -2.10439,-4.7802 -2.55777,-7.29184 -0.24624,-1.36401 -0.45268,-2.72558 -0.51351,-4.11224 -0.24301,-5.54139 1.1937,-11.18988 3.82779,-16.05429 0.72352,-1.33628 1.55305,-2.58504 2.42036,-3.83035 0.042,0.0418 0.0238,0.31948 0.0245,0.39377 0.0211,2.54183 0.12403,5.04409 0.42467,7.56995 0.69681,5.85525 2.16034,11.48155 3.87478,17.11022 l 3.27489,9.76808 c -0.12526,0.3865 -0.4152,0.75921 -0.61716,1.11385 l -0.73083,1.39548 -2.32068,4.9936 -0.078,0.039 z"
       id="path9"
       style="stroke:#000000;stroke-width:2.32259;stroke-dasharray:none;stroke-opacity:1" />
    <path
       fill="#0f0f0f"
       d="m 432.78711,753.3154 c 6.28761,7.956 12.85273,15.64753 20.25674,22.5946 5.03214,4.72143 10.49456,9.17358 16.60299,12.43754 7.93511,4.24005 17.11673,6.68524 26.01566,7.74271 2.47919,0.29452 4.96743,0.37534 7.45739,0.50978 2.29621,0.12402 4.63384,0.35136 6.93082,0.15841 -0.31138,0.39113 -0.97692,0.55687 -1.44822,0.75118 -3.40429,1.40427 -7.02194,2.24905 -10.67808,2.66433 -10.79379,1.22587 -22.09365,-1.38775 -31.6759,-6.36425 -4.33537,-2.25144 -8.33793,-4.99995 -12.15002,-8.04259 -5.94588,-4.74606 -11.37367,-10.20987 -16.25291,-16.04008 l -4.06298,-5.01213 -9.08906,8.41029 -21.3164,-10.37972 2.49671,-15.7079 c 0.38126,0.21008 0.7698,0.4604 1.18359,0.59783 2.32478,1.18832 4.66524,2.35494 7.11431,3.26873 5.93832,2.21617 7.44568,2.96323 13.74108,2.45884 z"
       id="path10"
       style="fill:none;fill-opacity:1;stroke:#000000;stroke-width:2.32259;stroke-dasharray:none;stroke-opacity:1"
       sodipodi:nodetypes="ccccccccccccccccccc" />
    <path
       fill="#dc9308"
       d="m 463.02874,689.96939 0.14384,0.035 c 0.49063,0.11195 1.1488,0.0313 1.65643,0.0217 l 3.58408,-0.053 c 2.39392,-0.0242 4.86943,0.10962 7.24971,-0.0434 -6.31985,10.20788 -9.878,22.14022 -9.54579,34.17661 0.11685,4.25601 0.74673,8.39684 1.7215,12.53376 3.77093,16.00471 11.61851,30.25771 21.33565,40.94937 12.10107,12.64047 8.48263,7.78003 20.17454,16.94792 -17.32365,-3.71452 -21.55024,-4.23093 -26.35187,-6.3316 -9.89964,-6.18762 -14.97824,-6.89097 -26.89975,-18.41407 -12.79352,-12.36596 -18.29357,-15.79526 -23.00912,-27.19435 l -3.2569,-19.42517 c -2.88158,-22.76633 4.41888,-31.58046 4.03571,-32.91484 l 21.28156,-0.26223 5.32127,0.0602 c 0.85201,-0.008 1.71303,0.0204 2.55906,-0.0844 z"
       id="path11"
       style="fill:none;stroke:#000000;stroke-width:2.32259;stroke-dasharray:none;stroke-opacity:1"
       sodipodi:nodetypes="cccccsccccsccccccc" />
    <path
       id="path2"
       inkscape:transform-center-x="-0.01494134"
       inkscape:transform-center-y="-3.7500871"
       d="m 427.40161,748.51285 c 20.36512,-7.37419 13.98417,-9.56844 21.66325,-57.74338 8.14056,47.72615 2.64335,50.64631 21.89168,57.54181 z"
       sodipodi:nodetypes="cccc"
       style="stroke-width:10.6897" />
    <path
       id="path2-0"
       inkscape:transform-center-x="-0.0034207367"
       inkscape:transform-center-y="-1.3106034"
       d="m 444.38529,757.43968 c 4.11726,-2.61102 3.85157,-6.32045 4.96018,-20.18053 1.20756,13.97013 0.83807,17.62212 5.01247,20.11007 z"
       sodipodi:nodetypes="cccc"
       style="stroke-width:3.02394" />
  </g>
</svg>
