<?xml version="1.0" encoding="UTF-8" standalone="no"?>
<svg
   width="63mm"
   height="88mm"
   version="1.1"
   id="svg40"
   sodipodi:docname="card-fatelower.svg"
   inkscape:version="1.3.2 (091e20e, 2023-11-25, custom)"
   xmlns:inkscape="http://www.inkscape.org/namespaces/inkscape"
   xmlns:sodipodi="http://sodipodi.sourceforge.net/DTD/sodipodi-0.dtd"
   xmlns="http://www.w3.org/2000/svg"
   xmlns:svg="http://www.w3.org/2000/svg">
  <defs
     id="defs40" />
  <sodipodi:namedview
     id="namedview40"
     pagecolor="#ffffff"
     bordercolor="#000000"
     borderopacity="0.25"
     inkscape:showpageshadow="2"
     inkscape:pageopacity="0.0"
     inkscape:pagecheckerboard="0"
     inkscape:deskcolor="#d1d1d1"
     inkscape:document-units="mm"
     inkscape:zoom="2.2900976"
     inkscape:cx="178.81334"
     inkscape:cy="159.60018"
     inkscape:window-width="1920"
     inkscape:window-height="1017"
     inkscape:window-x="-8"
     inkscape:window-y="-8"
     inkscape:window-maximized="1"
     inkscape:current-layer="svg40" />
  <path
     d="m 166.85907,180.97115 -50.14378,95.40387 -5.82679,-10.49589 -6.49137,-12.1355 -18.611361,-35.76354 -12.18786,-23.36491 -6.91192,-13.16309 c -0.12189,-0.26044 -0.17177,-0.40471 -0.12649,-0.69113 -0.0594,-0.11941 -0.15649,-0.21857 -0.11177,-0.35309 0.0489,-0.14732 0.13585,-0.21363 0.24571,-0.31585 -0.3403,-0.45341 -0.29234,-0.5694 -0.26769,-1.11243 l 0.5845,0.10967 c 0.46296,0.0874 0.96931,0.44291 1.39789,0.65023 0.74443,0.35979 1.52114,0.66876 2.29289,0.96511 l 16.68994,6.92854 10.15024,4.32535 4.491201,1.91722 0.0681,-123.087992 0.19164,-0.11847 0.2677,0.0974 0.0973,-0.0611 c 0.25164,-0.11083 0.56979,-0.0611 0.83958,-0.0497 l 0.20062,0.13375 0.35903,-0.086 c 0.99052,-0.26749 2.27512,-0.16241 3.31667,-0.19298 l 10.76339,-0.0382 c 4.33375,0.0153 8.78903,-0.19489 13.10463,0.1051 l -9.2e-4,123.532822 36.37153,-15.48121 c -0.31146,0.75494 -0.56425,1.63101 -0.99952,2.32079 l -0.1477,0.14617 0.1477,-0.14617 z m -46.70386,80.10973 c -0.0652,0.17463 -0.0913,0.3745 -0.13051,0.55717 l -0.13317,0.13298 0.13317,-0.13298 c 0.2698,-0.21668 0.32998,-0.2591 0.46183,-0.59405 -0.23177,-0.0172 -0.12152,-0.0318 -0.33132,0.0369 0.0735,-0.16776 0.13776,-0.34222 0.23827,-0.49565 l 0.18019,0.27706 c 0.43086,-0.27056 0.53958,-0.82563 0.82562,-1.23109 l -0.10317,-0.19948 c -0.26579,0.25604 -0.48361,0.458 -0.66667,0.78321 l -0.0433,0.0524 c 0.21515,-0.45208 0.38253,-0.85582 0.71003,-1.2395 h 0.26769 c 0.26005,-0.56347 0.38368,-1.16326 0.62042,-1.7319 0.35444,-0.85104 0.94046,-1.75558 1.38491,-2.58141 0.18381,-0.34125 0.43737,-0.97237 0.72608,-1.2288 -0.15936,0.49164 -0.88677,1.8563 -0.72398,2.19736 0.44692,-0.44272 2.82961,-4.77819 2.89744,-5.41714 0.0122,-0.11598 0.002,-0.12993 -0.0208,-0.22814 -0.30112,0.0667 -0.43889,0.2503 -0.63895,0.46602 0.66093,-1.52267 1.32568,-3.18539 2.25315,-4.56131 0.0816,-0.12095 0.0435,-0.0611 0.072,-0.20828 0.0753,-0.39112 0.45991,-0.91887 0.71193,-1.2307 l 0.0346,0.38444 c 0.14463,-0.0513 0.19279,-0.0843 0.30648,-0.17942 l -0.0674,-0.3084 -0.27363,0.10338 0.0726,-0.18573 c 0.17903,-0.41405 0.52584,-0.91734 0.94257,-1.07708 0.37221,-0.46966 0.42552,-0.47884 0.4003,-1.06906 0.18993,-0.0973 0.32712,-0.18878 0.48323,-0.33438 -0.0231,-0.0913 -0.0479,-0.17063 -0.0503,-0.26693 -0.006,-0.26273 0.32634,-0.56845 0.48665,-0.75665 0.52336,-0.61488 0.81188,-1.48866 1.20206,-2.19812 l 2.28486,-4.33395 c 0.47997,-0.90339 1.01498,-1.73552 1.42331,-2.67924 l 0.19375,-0.0435 c 0.20578,-0.88009 0.77022,-1.71928 1.22211,-2.49849 l -0.15152,-0.26616 0.26769,-0.003 c 0.0277,-0.13929 0.0636,-0.57036 0.13261,-0.66761 0.12152,-0.17197 0.22566,-0.073 0.34164,-0.33285 l 1.22976,-2.7444 0.16966,-9.2e-4 0.2677,-0.36628 -0.0669,-0.14675 -0.0806,-0.0877 0.27993,-0.40125 0.13528,-0.0682 c 0.30266,-0.23866 1.20014,-2.02022 1.28899,-2.45855 0.0891,-0.43948 0.38921,-0.60343 0.44157,-1.06429 l 0.008,-0.0883 c 0.14102,-0.0974 0.30133,-0.2096 0.40279,-0.34967 0.43316,-0.59844 0.8027,-1.56718 1.16096,-2.23747 l 3.23966,-6.25482 c 0.25757,-0.51055 0.83461,-1.28 0.93091,-1.80813 0.0304,-0.16661 -0.005,-0.0959 0.11732,-0.24878 l 0.10509,-0.12266 c 0.287,-0.41081 0.7794,-0.92078 0.91926,-1.39236 0.16986,-0.57303 0.47253,-1.1432 0.79889,-1.64401 0.11846,-0.1817 0.0847,-0.31317 0.0873,-0.52507 0.72818,-0.47117 1.02435,-1.68813 1.30732,-2.46466 0.36954,-1.01421 0.76125,-2.01735 1.26511,-2.97426 l 4.54336,-8.708 c 1.03409,-1.97113 2.26518,-3.86869 2.91464,-6.01043 -0.81779,0.89843 -1.32243,2.09953 -1.88322,3.17221 l -2.8665,5.43586 -3.64703,6.14781 -6.90122,12.87075 -3.53849,6.51162 -0.15936,0.0682 c -0.033,0.0953 -0.0732,0.24744 -0.13242,0.33323 -0.11979,0.1735 -0.22928,0.25088 -0.29405,0.45954 -0.15898,0.5138 -0.57303,1.80604 -1.00124,2.12781 l -0.12801,0.0884 c -0.0344,0.30266 -0.0648,0.6443 -0.21477,0.91409 -0.1433,0.25757 -0.49278,0.59501 -0.48877,0.89403 0.003,0.22758 -0.18687,0.36076 -0.33324,0.5331 -0.009,0.25853 -0.0311,0.39458 -0.16986,0.61507 -0.28718,0.4561 -0.77958,1.13536 -0.67698,1.65948 -0.75053,1.76075 -1.83622,3.32469 -2.72318,5.0113 l -4.48891,8.83584 -1.61897,2.90623 -4.20611,8.47835 -4.45106,8.39865 c -0.93322,1.79323 -1.7233,3.70513 -2.72415,5.45364 -0.10911,0.1905 -0.16816,0.29579 -0.37776,0.38368 -0.46679,-0.54992 -0.71175,-1.15123 -1.14186,-1.72598 0.18056,-0.60112 -0.20751,-1.00887 -0.48877,-1.54349 l -0.16775,0.0586 c -0.074,-0.11617 -0.14369,-0.22776 -0.19452,-0.35636 -0.31222,-0.78761 -0.86519,-1.45751 -1.19766,-2.24798 l 0.0566,0.0677 1.09237,1.47605 c -0.89022,-2.45053 -2.21455,-4.79463 -3.40895,-7.10051 -1.61496,-3.11775 -2.8665,-6.27143 -4.79042,-9.23155 -0.24304,-0.37393 -0.39381,-0.78952 -0.65576,-1.15772 l -1.37612,-2.0873 0.22605,0.0641 c 0.0183,-0.3982 -0.40642,-1.06829 -0.56921,-1.45905 -1.40306,-3.36615 -3.16916,-6.55269 -4.737121,-9.83974 -0.24648,-0.51646 -0.32521,-1.12198 -0.59462,-1.6075 -0.85046,-1.53241 -2.04792,-3.09024 -2.66816,-4.71628 -0.12649,-0.33151 -0.33075,-0.62233 -0.51628,-0.92137 -0.19431,-0.31335 -0.23349,-0.73696 -0.41596,-1.08548 l -2.0638,-3.82397 c -0.25871,-0.44235 -0.4622,-0.92365 -0.78722,-1.31919 -0.24572,-0.29921 -0.43412,-0.99511 -0.62882,-1.37477 l -2.77096,-5.17104 c -0.38177,-0.73602 -0.68978,-1.84367 -1.2351,-2.4251 -0.13471,-0.14351 -0.15573,-0.28662 -0.20866,-0.46833 -0.21113,-0.72398 -0.54991,-1.01289 -0.89786,-1.62261 -0.75531,-1.32433 -1.34535,-2.77305 -2.05595,-4.12777 -0.60953,-1.16211 -1.80201,-2.62917 -2.03533,-3.89599 -0.0715,-0.3877 -0.2973,-0.78188 -0.49009,-1.12352 l -0.13509,0.13242 c -0.27572,-0.41846 -0.52107,-0.79889 -0.74234,-1.25192 l 0.1414,-0.0191 0.13318,0.13318 -0.13318,-0.13318 -0.0862,-0.1305 -0.0552,0.14961 c -0.66378,-0.87053 -1.05625,-1.92678 -1.59049,-2.87948 l -2.6911,-4.92532 c -0.5094,-0.95653 -1.08299,-1.90292 -1.48139,-2.91255 -0.33304,-0.16107 -0.62309,-0.21439 -0.98785,-0.26674 l -0.0662,0.11541 c 0.62004,0.50711 0.54609,0.73927 0.78417,1.4663 l -0.24954,-0.11234 -0.11082,-0.13643 0.11082,0.13643 c 0.0921,0.75646 0.84511,1.48369 1.11338,2.20422 0.11981,0.32216 0.17751,0.48915 0.38272,0.78054 l 0.0785,0.10987 c -0.0102,0.58946 0.45171,0.7878 0.60266,1.31631 0.14291,0.50061 0.21953,0.68595 0.59538,1.04098 l 0.1047,0.0955 -0.0508,0.46966 c 0.41502,0.47081 0.95766,1.41892 0.94276,2.00684 0.20999,0.17217 0.3466,0.25815 0.41081,0.53521 l 0.0691,0.2847 c 0.15019,0.43545 0.35349,0.93319 0.76965,1.11873 0.18668,1.35319 1.47012,2.62231 1.86985,3.93536 0.13433,0.4412 0.42934,0.83367 0.62596,1.26091 0.78952,1.71641 1.751,3.35201 2.6351,5.0176 l 5.76241,11.05995 7.38253,14.3789 4.502661,8.19479 c 0.35215,0.57168 0.67697,1.31114 1.12084,1.80679 0.47004,0.52488 0.58029,1.43172 0.95442,2.08691 0.20273,0.35483 1.02855,1.47815 1.04919,1.76208 0.0257,0.35731 -0.0602,0.42286 0.14158,0.8027 l 2.13545,3.73072 c 0.48953,0.80978 1.72711,2.3955 1.79514,3.30999 0.0305,0.40965 0.45648,0.94122 0.64927,1.31745 l 2.12837,3.91836 c 1.37937,2.34199 2.44384,4.86818 3.85033,7.18916 0.16107,0.26559 0.137,0.57647 0.334,0.86901 l 0.40909,-0.25643 -0.0915,-0.34431 c 0.19968,-0.20866 0.31585,-0.47233 0.33476,-0.75914 l 0.008,-0.17731 c 0.30419,-0.37948 0.51858,-0.7066 0.63915,-1.18218 0.10241,-0.40355 0.30934,-0.64335 0.57245,-0.95843 0.13891,-0.16662 0.20349,-0.23235 0.24706,-0.45208 l 0.0204,-0.14999 c 0.20598,-0.1844 0.39647,-0.35196 0.5136,-0.60724 l 0.5715,-1.11759 c -0.0281,-0.53998 0.0163,-0.59481 0.31815,-1.03983 z m 4.41915,-15.36312 -0.13318,0.13298 c -0.39437,0.20923 -0.53653,0.81284 -0.65709,1.20358 0.2419,-0.12898 0.35157,-0.20445 0.47979,-0.44979 l 0.0428,-0.0854 c 0.13184,-0.25375 0.13604,-0.38923 0.13451,-0.66838 z m -3.74657,-0.53596 -0.13395,0.26769 -0.11522,0.13317 0.11522,-0.13317 0.13395,-0.26769 0.13374,-0.26751 0.1351,-0.26751 0.13184,-0.13317 -0.13184,0.13317 -0.1351,0.26751 z m 0.80289,-1.47166 -0.13376,0.2677 -0.11062,0.13298 0.11062,-0.13298 0.13376,-0.2677 0.13395,-0.26751 0.13374,-0.26749 0.13318,-0.13319 -0.13318,0.13319 -0.13374,0.26749 z m 21.6806,-42.52966 c -0.47386,0.56941 -0.75168,1.33408 -1.09198,1.99157 l -2.26481,4.34827 -6.5118,12.79203 -6.148,12.51249 -3.92141,7.47367 c -0.39075,0.74901 -1.10632,1.62852 -1.20721,2.4704 l -0.13317,0.13796 0.13317,-0.13796 c 1.29108,-1.44586 2.07144,-3.7055 2.95916,-5.41408 0.17216,-0.33114 0.437,-0.56807 0.60666,-0.91219 0.31451,-0.63743 0.72189,-1.39848 1.1176,-1.99386 0.47061,-0.70812 0.74537,-1.54006 1.20033,-2.24512 0.68002,-1.05397 1.38949,-2.32939 1.87596,-3.4785 l 6.93637,-14.01395 c 0.18229,-0.39094 0.48342,-0.62234 0.62616,-1.03677 l 0.0392,-0.10491 c 0.052,-0.15457 0.0102,-0.0385 0.0412,-0.21209 0.13431,-0.74557 0.83881,-1.56337 1.18331,-2.24951 l 2.5453,-5.52166 1.33695,-2.6888 c 0.25183,-0.49221 0.64563,-1.15771 0.67697,-1.71699 l 0.13376,-0.28279 c 0.29693,-0.21438 0.45933,-0.44539 0.53997,-0.81971 0.0233,-0.10852 0.01,-0.15247 -0.005,-0.25068 l 0.13375,-0.26751 0.13394,-0.2675 0.13376,-0.26769 0.13375,-0.13376 0.13394,-0.2675 0.13375,-0.2677 0.13395,-0.26751 c 0.58105,-0.30972 0.98861,-1.36635 1.17051,-1.99041 0.0378,-0.12974 0.0258,-0.12076 0.0338,-0.28413 l 0.13318,-0.26673 -0.13318,0.26673 -0.0392,0.0213 c -0.47234,0.41214 -1.02856,1.63273 -1.16517,2.25333 l -0.13395,0.26751 -0.13375,0.2677 -0.13394,0.2675 -0.13375,0.13376 -0.13375,0.26769 -0.13394,0.2675 -0.13375,0.2675 c -0.287,0.17636 -0.46107,0.75894 -0.53539,1.0704 z m -23.68801,38.6499 -0.13376,0.2675 -0.13318,0.26694 0.13318,-0.26694 0.13376,-0.2675 c 0.75072,-0.85525 1.00751,-2.0529 1.64666,-2.96833 0.51075,-0.73144 0.93149,-1.71375 1.34154,-2.51703 0.62041,-1.21599 1.26777,-2.41842 1.80699,-3.67167 0.26998,-0.6273 0.69779,-1.20415 1.03255,-1.8003 l 1.84808,-3.425 2.18225,-4.5128 c 0.29272,-0.64755 0.5117,-1.38395 0.94181,-1.96387 0.2698,-0.36341 0.4257,-0.85887 0.62806,-1.26566 l 1.54425,-3.02853 4.74801,-9.09685 3.46398,-6.65969 c 0.27705,-0.55965 0.81761,-1.29509 0.89786,-1.9029 l 0.13375,-0.26751 0.13395,-0.26769 0.1112,-0.133 -0.1112,0.133 -0.13395,0.26769 -0.13375,0.26751 -0.0371,0.0209 c -0.39132,0.38579 -0.64965,1.03581 -0.90607,1.51827 l -1.9417,3.71487 -5.91049,11.20956 -2.82752,5.03747 -2.42454,5.09346 -5.26103,10.44011 -1.85934,3.63728 c -0.34297,0.67296 -0.78091,1.39312 -0.91428,2.14061 z m -2.14138,-2.00685 -0.13375,0.26751 -0.13318,0.26692 0.13318,-0.26692 0.13375,-0.26751 0.13395,-0.2677 0.13375,-0.26749 0.13394,-0.26751 0.13375,-0.2677 0.13395,-0.2675 c 0.36704,-0.27973 1.0274,-1.52783 1.08548,-2.02386 0.0135,-0.11732 0.003,-0.14636 -0.0149,-0.25069 l 0.13375,-0.2675 c 0.11789,-0.0785 0.22699,-0.14675 0.30743,-0.2675 0.26579,-0.39859 0.44864,-0.93245 0.67048,-1.36523 l 1.70228,-3.36156 4.23955,-8.23645 c 0.37833,-0.75933 1.06046,-1.75865 1.24504,-2.56861 0.0243,-0.10642 0.0137,-0.1412 0.003,-0.23713 l 0.12956,-0.15132 -0.12956,0.15132 c -0.40029,0.33477 -0.73754,1.19269 -0.99587,1.66732 l -2.65231,5.07494 -3.42194,6.7107 c -0.37661,0.78723 -0.96072,1.72197 -1.09714,2.58352 l -0.13375,0.2675 c -0.46604,0.39877 -0.95518,1.67667 -1.07059,2.27455 l -0.13395,0.2675 -0.13375,0.2677 -0.13394,0.26751 -0.13375,0.26749 z m -12.44619,-0.53519 -0.13374,-0.26751 -0.13395,-0.2677 c -0.20521,-1.12868 -1.04517,-2.40619 -1.55611,-3.45347 l -5.342051,-10.72805 c -0.36151,-0.79734 -0.88811,-1.53356 -1.25249,-2.31391 l -3.91032,-7.83327 -6.88612,-13.34136 c -0.84512,-1.54141 -1.60408,-3.11222 -2.53976,-4.60738 -0.80155,-1.28076 -1.56567,-2.76942 -2.28315,-4.10447 -0.35884,-0.66741 -0.81187,-1.84481 -1.49782,-2.18034 0.19069,0.82181 0.69799,1.61172 1.083,2.35748 l 1.948,3.81784 5.64893,10.83219 4.75755,8.70457 3.26716,6.53511 5.080091,9.68651 2.37487,4.65533 c 0.30189,0.59558 0.6118,1.47586 1.07268,1.9522 l 0.0355,0.021 0.13395,0.2677 0.13374,0.26751 0.13318,0.26692 z m 10.54654,-3.21024 -0.10777,0.13298 -0.11445,0.13318 0.11445,-0.13318 z m -0.78704,-0.12382 -0.11006,-0.14388 0.11006,0.14388 c 0.0657,0.2761 0.0419,0.35138 0.27725,0.52374 -0.0722,-0.25356 -0.051,-0.36573 -0.27725,-0.52374 z m 1.48235,-1.3486 -0.13394,0.2677 -0.12631,0.26674 0.12631,-0.26674 0.13394,-0.2677 0.10261,-0.13318 z m 36.66941,-41.73651 c -0.4047,0.39534 -0.68271,1.10709 -0.94467,1.61687 l -1.62241,3.05508 -8.66349,15.88418 -3.13438,6.25444 -1.59699,2.8489 -2.03342,4.25045 -3.41793,6.75639 c -0.58163,1.20911 -1.36637,2.33645 -1.995,3.52455 l -3.46914,7.13012 c -0.47597,1.00867 -1.10881,2.0506 -1.40211,3.12559 l 0.10834,0.16375 1.96768,-3.70913 c 0.25203,-0.49909 0.43966,-1.05283 0.76927,-1.50701 l 0.13968,-0.19011 0.0662,-0.17599 0.26904,-0.0593 c 0.11942,-0.26005 0.24744,-0.50825 0.30439,-0.79047 0.12209,-0.60608 0.60225,-1.32108 0.87759,-1.89297 0.20254,-0.42036 0.42706,-0.63876 0.69093,-1.0041 0.21935,-0.3038 0.45017,-0.70295 0.40221,-1.06829 0.46966,-0.41157 0.61641,-1.25479 1.00294,-1.80813 l 0.2014,-0.006 c 0.14789,-0.23846 0.244,-0.5054 0.351,-0.76392 v -0.19875 l 0.18439,-0.4368 0.28852,-0.0925 c 0.11751,-0.27133 0.12287,-0.42304 0.11293,-0.71022 l 0.0562,-0.0793 c 0.29349,-0.41961 0.6294,-1.3295 1.08893,-1.52478 l 0.0442,-0.17559 c 0.10452,-0.39916 0.32998,-0.88315 0.54934,-1.22937 0.64029,-1.01078 1.01823,-2.24952 1.64189,-3.25648 0.18096,-0.29196 0.92921,-1.01708 0.95213,-1.22861 0.0541,-0.49889 0.22184,-0.81894 0.37833,-1.27791 0.20368,-0.5971 0.61239,-1.177 0.91161,-1.73743 l 1.9803,-3.76034 c 0.72378,-1.43822 1.19325,-3.05929 2.09914,-4.42241 l 7.6227,-14.96206 2.34849,-4.53896 c 0.27534,-0.56099 0.81494,-1.3893 0.86978,-2.00342 l 0.13394,-0.27322 0.13375,-0.2677 0.13376,-0.26751 0.13394,-0.2675 0.11235,-0.13319 -0.11235,0.13319 -0.13394,0.2675 -0.13376,0.26751 -0.13375,0.2677 z m -43.22707,40.66631 -0.13395,-0.2677 -0.13375,-0.26751 -0.13394,-0.26769 -0.13375,-0.26751 c -0.0999,-0.89059 -0.90149,-2.32021 -1.40649,-3.07705 -0.19051,-0.28565 -0.14599,-0.35062 -0.46719,-0.53521 l -0.13375,-0.26769 -0.13395,-0.2675 -0.13375,-0.26769 c -0.12992,-0.92767 -0.82333,-1.60713 -1.07536,-2.48722 -0.31317,-1.09313 -1.14663,-2.29575 -1.65623,-3.33768 L 92.913579,198.11317 c -0.5394,-1.01957 -2.35709,-5.07837 -3.12806,-5.52586 -0.13605,-0.0789 -0.11178,-0.0661 -0.22872,-0.0963 0.40221,1.57617 1.35872,3.16552 2.08653,4.62035 l 4.4589,8.62795 c 0.84244,1.61879 1.74279,3.21044 2.44174,4.89704 0.1798,0.43413 0.6506,0.89252 0.88734,1.35511 l 5.390961,10.34629 c 0.65291,1.21082 1.22727,2.63509 2.0871,3.71218 l 0.13375,0.26769 0.13395,0.2675 0.13375,0.26769 c 0.10815,0.83729 1.30542,3.00006 1.87368,3.61226 l 0.13375,0.26751 0.13394,0.26769 0.13375,0.26751 0.13395,0.2677 0.10929,0.13298 z m 3.47946,-0.66896 -0.13376,-0.26769 -0.13375,-0.2675 -0.13719,-0.2677 c -0.21362,-0.8197 -0.69933,-1.57713 -1.06753,-2.33742 l -2.17137,-4.36088 -7.11808,-14.01509 -5.267521,-10.48386 c -0.78283,-1.46343 -1.61631,-3.16724 -2.6674,-4.44514 l -0.25528,-0.30534 c 0.94505,2.73848 18.058221,35.62825 18.547181,35.94773 l 0.13719,0.2677 0.13375,0.2675 0.13376,0.26769 0.1091,0.13299 z m 13.24926,-17.92792 -0.19355,-0.0662 -0.1779,-0.0667 c -0.94371,1.50508 -1.65163,3.10055 -2.44441,4.68188 l -2.78567,5.56293 c -0.64945,1.3295 -1.8066,3.0314 -2.02671,4.47133 l -0.13318,0.26693 0.13318,-0.26693 c 0.76964,-0.85066 1.10402,-2.14749 1.74736,-3.11547 0.0768,-0.1156 0.0522,-0.0768 0.0875,-0.21705 0.15267,-0.60648 0.59844,-1.17358 0.8029,-1.78234 0.214,-0.63724 0.766,-1.36771 1.12217,-1.95355 0.17617,-0.28986 0.28088,-0.53099 0.52259,-0.77939 0.44214,-0.45438 0.4259,-1.17549 0.73467,-1.65127 l 2.07507,-4.28196 h 0.26138 c 0.15994,-0.27802 0.28643,-0.46813 0.27458,-0.80214 l 0.13318,-0.26672 z m 2.14137,2.94351 c -0.0907,0.052 -0.10949,0.0552 -0.1905,0.14502 -0.30476,0.33744 -0.59195,1.01346 -0.61258,1.46038 l -0.11617,0.13317 0.11617,-0.13317 c 0.47042,-0.34107 0.71405,-0.74137 0.80041,-1.323 0.0197,-0.13223 0.0105,-0.11502 0.003,-0.2824 l 0.13375,-0.26769 0.32806,-0.19757 c 0.20905,-0.32465 0.26502,-0.63074 0.3403,-1.00582 -0.3829,0.23846 -0.56882,0.7811 -0.66836,1.20339 z m 2.54263,-12.44237 c -0.51743,0.30152 -4.49178,8.03811 -4.80743,9.0917 l -0.11751,0.13908 0.11751,-0.13908 c 0.24037,-0.16394 0.43775,-0.27726 0.59042,-0.52928 0.90531,-1.49382 1.69578,-3.16343 2.48894,-4.7247 0.13431,-0.26425 0.18437,-0.57646 0.32291,-0.82888 0.54475,-0.99204 1.11128,-1.89544 1.40516,-3.00884 l 0.13394,-0.26769 0.13375,-0.26751 0.13318,-0.13318 -0.13318,0.13318 -0.13375,0.26751 z m -8.56509,9.11366 -0.11312,-0.14922 0.11312,0.14922 -0.0744,0.17446 -0.14464,-0.0559 c -0.13644,0.28413 -0.28986,0.5629 -0.35177,0.87339 -0.12304,0.61756 -0.73487,1.1923 -1.04154,1.73477 -0.23463,0.41481 -0.30859,0.929 -0.53253,1.36389 l -1.63769,2.91732 c -1.20912,2.30282 -2.12876,4.82022 -3.5473,7.0086 l -10.94948,-21.65099 -2.45341,-4.80075 c -0.40583,-0.80441 -0.78167,-1.76475 -1.29184,-2.50306 -0.24592,-0.35579 -0.551831,-0.5268 -0.927281,-0.72073 l -0.16796,0.0111 c 0.15706,0.79239 0.799461,1.76458 1.166131,2.49447 l 2.84738,5.64453 11.85347,22.21465 0.44195,-0.51169 c 0.41483,-0.44215 0.54992,-1.07059 0.83117,-1.60656 1.01193,-1.92812 1.99214,-4.07885 3.18215,-5.89425 0.62596,-0.955 1.11053,-2.17117 1.63961,-3.1984 0.19394,-0.37641 0.47921,-0.71078 0.62194,-1.10325 0.24897,-0.68462 0.71634,-1.26721 0.99473,-1.93921 0.21171,-0.51113 0.56502,-0.94639 0.80864,-1.44337 0.50309,-1.02684 0.92155,-2.1194 1.45961,-3.12446 0.67239,-1.25611 1.33619,-2.34695 1.59394,-3.77829 -0.64162,0.58507 -0.98709,1.31479 -1.38701,2.07048 -0.4238,0.80098 -0.959,1.63158 -1.306,2.46257 -0.42991,1.03008 -0.96702,2.47116 -1.62794,3.36079 z m 8.69903,-2.15665 -0.13394,0.26751 -0.11885,0.26692 0.11885,-0.26692 0.13394,-0.26751 c 0.59137,-0.42304 3.16533,-5.87228 3.32946,-6.68893 l -0.1456,0.11464 c -0.52583,0.55641 -0.9676,1.85897 -1.31649,2.56249 -0.5761,1.16116 -1.76477,2.70696 -1.86737,4.0118 z m 0.53463,-8.16058 -0.13318,0.26692 -0.13281,0.13318 0.13281,-0.13318 z m 3.0524,-5.75286 -0.10758,0.13318 -0.13318,0.26675 0.13318,-0.26675 z m -28.8732,-2.65994 -0.14101,-0.13758 0.14101,0.13758 c 0.0231,0.18591 0.16261,0.77404 0.11426,0.92001 -0.009,0.0265 -0.18572,0.31967 -0.18764,0.33439 -0.0336,0.25183 0.57781,0.40794 0.14082,0.93664 l 0.13128,0.20063 -0.0245,0.0886 c -0.15171,0.61659 -0.0348,1.22612 -0.0477,1.85132 -0.009,0.41788 -0.0961,0.75589 -0.0256,1.18064 0.0799,0.4817 0.0607,1.0255 0.0631,1.51523 0.003,0.65786 0.49068,1.42254 0.69818,2.0613 0.94277,-1.00219 -0.33208,-3.36367 0.66781,-4.22198 l -0.2912,-0.13394 0.0248,-0.21055 0.20693,-0.057 -0.0636,-0.0795 -0.17962,-0.2549 0.0367,-0.15056 c 0.0372,-0.17943 0.0319,-0.27744 -3.9e-4,-0.45284 l 0.18019,-0.26636 c -0.21572,-0.41063 -0.28432,-0.79181 -0.14617,-1.25631 l 0.0315,-0.0816 -0.0463,-0.12402 c -0.15669,-0.4645 -0.0105,-1.97322 0.0657,-2.50364 0.025,-0.17406 0.007,-0.2761 -0.0151,-0.44501 -0.0386,-0.29311 0.0102,-0.41291 0.13987,-0.67335 l -0.0896,-0.28851 0.23006,-0.24669 -0.087,-0.13375 c -0.21037,-0.34852 -0.0191,-0.67964 -0.28297,-1.0704 l 0.0367,-0.17922 c 0.10949,-0.56921 0.12878,-0.94047 0.005,-1.49305 -0.0717,-0.32216 0.0576,-0.85946 0.0625,-1.20415 0.014,-0.99092 0.0527,-2.09475 -0.0135,-3.07706 -0.0331,-0.49086 0.0671,-0.98576 0.0638,-1.47624 -0.002,-0.26196 -0.21936,-0.26942 -0.10222,-0.51953 0.3466,-0.73984 -0.16547,-2.0101 0.17024,-2.88771 l -0.0483,-0.17138 c -0.16451,-0.61813 -0.0785,-1.47758 -0.15057,-2.14405 -0.0157,-0.14502 -0.008,-0.0746 0.0402,-0.21515 0.14483,-0.42093 -0.0879,-1.04326 -0.0235,-1.51063 0.0226,-0.16375 -0.0488,-0.29158 -0.10644,-0.44061 0.0644,-0.20693 0.12363,-0.28718 0.0749,-0.50005 -0.0457,-0.19947 0.005,-0.23463 0.0102,-0.41557 l -0.017,-0.0984 c -0.0204,-0.13758 -0.004,-0.21841 0.016,-0.35444 0.0671,-0.47444 0.0222,-0.95977 0.0726,-1.44109 0.0772,-0.73869 -0.14101,-1.48082 0.0548,-2.21416 0.0959,-0.35903 0.042,-0.7622 0.0966,-1.13059 0.0336,-0.22795 -0.0359,-0.57207 0.0254,-0.77079 0.0559,-0.18171 0.21343,-0.11369 0.0921,-0.31622 -0.094,-0.15688 -0.051,-0.22223 -0.0729,-0.39 l -0.0686,-0.26234 0.0602,-0.097 c 0.17484,-0.39552 -0.0467,-0.86786 0.12841,-1.30771 l -0.1286,-0.33439 c 0.19873,-0.37794 0.1886,-1.42426 0.0369,-1.87042 l -0.11865,-0.27017 c -0.0245,-0.0872 -0.008,-0.17312 -7.7e-4,-0.25987 l 0.008,-0.10375 c 0.0172,-0.12935 0.0648,-0.24993 0.10777,-0.37221 l -0.0346,-0.0994 c -0.087,-0.35254 0.12057,-0.85086 -0.1242,-1.10613 0.19662,-0.33954 0.0468,-1.03848 -0.0529,-1.42369 l -0.0329,-0.11159 c -0.06,-0.20769 -0.0401,-0.33992 -0.0137,-0.55086 0.0329,-0.26426 -0.002,-0.54017 -0.021,-0.805 -0.0233,-0.3233 -0.0334,-0.49699 0.12058,-0.78531 l -0.025,-0.1135 c -0.0314,-0.1798 -0.005,-0.30993 0.004,-0.48992 0.027,-0.53042 -0.14062,-1.29586 0.18878,-1.73934 -0.0274,-0.12477 -0.14503,-0.4859 -0.11425,-0.60208 0.0529,-0.20063 0.25966,-0.22661 0.0997,-0.41463 -0.18687,-0.21973 -0.18229,-0.31738 -0.15266,-0.59003 l 0.17769,-0.13242 c -0.20425,-0.21267 -0.19546,-0.19011 -0.18992,-0.4859 0.004,-0.21439 0.0117,-0.381 0.0875,-0.58451 l -0.0546,-0.0976 c -0.16414,-0.4047 -0.004,-0.98918 -0.0881,-1.44031 -0.0705,-0.37565 0.17828,-1.06639 0.0334,-1.37134 0.0664,-0.30859 0.0333,-0.3938 -0.0163,-0.70296 l 0.004,-0.2677 c 0.0137,-0.46927 -0.10318,-1.08378 0.0131,-1.51807 0.11924,-0.44483 -0.0426,-0.80233 -0.0826,-1.23665 -0.0367,-0.3978 0.0193,-0.78129 -0.006,-1.17643 -0.0107,-0.1586 -0.11178,-0.5524 -0.077,-0.68443 0.0853,-0.32387 0.2098,-0.8434 0.14522,-1.18428 -0.0431,-0.22871 0.0307,-0.32349 0.0546,-0.53883 l -0.0287,-0.28374 0.0287,-0.41826 -0.13376,-0.18516 0.0474,-0.0979 c 0.18,-0.49679 0.0429,-1.12866 0.22032,-1.68603 l -0.24802,-0.36783 0.0472,-0.18839 h 0.33324 -0.33324 c 0.02,-0.38271 0.0746,-0.7001 0.13318,-1.07097 0.0286,-0.18057 -0.008,-0.23445 0.0593,-0.424 0.15573,-0.43468 -0.0117,-0.90626 0.12229,-1.34822 0.10337,-0.3401 0.0255,-1.90863 -0.0625,-2.2753 -0.0726,-0.3017 -0.12668,-1.08473 -0.0169,-1.37019 l -0.18974,-0.2675 0.23713,-0.40145 -0.12688,-0.64316 c -0.0535,-0.25853 0.046,-0.45762 0.13757,-0.69475 l -0.0625,-0.1838 c -0.0598,-0.18306 -0.0686,-0.29464 -0.0302,-0.48648 l 0.14673,-0.0662 c -0.0446,-0.15419 -0.0912,-0.26979 -0.16317,-0.41463 -0.25317,-0.5094 0.0376,-1.17129 -0.12973,-1.72311 -0.22606,-0.7448 0.39608,-1.7896 0.17769,-2.47726 -0.0722,-0.22738 -0.20923,-0.21018 -0.11714,-0.45915 0.1521,-0.41138 -0.2008,-0.85849 -0.0483,-1.33484 0.0481,-0.1498 0.0493,-0.17656 0.006,-0.32522 -0.0909,-0.31163 -0.004,-0.69703 -0.006,-1.02472 v -0.24037 l -0.13375,-0.1307 c 0.12229,-0.23904 0.17979,-1.08874 0.12706,-1.34 -0.0334,-0.15936 -0.004,-0.23388 0.0493,-0.38158 l -0.197,0.0189 0.0667,-1.26338 c 0.007,-0.15285 -0.0215,-0.2847 -0.045,-0.43565 -0.0749,-0.47959 -0.0559,-0.96109 -0.0548,-1.44643 3.8e-4,-0.12611 0.0307,-0.23883 0.0585,-0.36113 l 0.27763,-1.37573 -0.21553,-0.0535 c -0.0968,-0.21019 -0.0735,-0.35731 -0.0669,-0.58087 l 0.1884,-0.3038 -0.0259,-0.10509 c -0.0738,-0.31527 -0.0717,-0.4261 -0.007,-0.74138 l 0.004,-0.38023 0.0105,-0.11656 c 0.007,-0.12228 -0.025,-0.214 -0.0622,-0.32864 l 0.15458,-0.20063 -0.0607,-0.16623 c -0.19489,-0.5656 -0.0348,-1.07576 -0.14903,-1.63943 l 0.12974,-0.26751 -0.23636,-0.26749 0.19661,-0.33438 -0.0491,-0.0994 c -0.0581,-0.1777 -0.0288,-0.25604 0.002,-0.42991 0.072,-0.41081 0.1028,-0.98787 -0.12993,-1.34517 0.24553,-0.40889 0.18687,-0.53883 0.15478,-1.00314 l -0.19376,-0.20062 0.20693,-0.20064 c -9.2e-4,-0.002 -0.13318,-0.2675 -0.13242,-0.26941 l 0.16243,-0.33247 -0.0433,-0.0859 -0.0522,-0.11274 -0.0439,-0.0879 c -0.07,-0.20063 -0.016,-0.51016 0.0853,-0.68979 l 0.0646,-0.0936 c -0.0371,-0.3019 -0.0894,-0.57896 -0.17293,-0.8713 l 0.16795,-0.2656 c -0.0786,-0.16623 -0.2056,-0.32673 -0.16584,-0.50825 0.0614,-0.27897 0.10527,-0.45094 -0.002,-0.72799 l 0.1521,-0.23503 -0.0852,-0.13375 -0.0669,-0.19107 0.089,-0.14521 -0.15992,-0.26751 0.1389,-0.2675 -0.0931,-0.2675 0.17082,-0.24076 -0.18534,-0.0936 c 0.0625,-0.18916 0.12668,-0.359222 0.22203,-0.535002 l -0.0678,-0.14522 c -0.0657,-0.15094 -0.0949,-0.25222 -0.11464,-0.41081 l 0.16337,-0.0459 -0.0512,-0.10132 c -0.12457,-0.26559 -0.14215,-0.50826 -0.15323,-0.79487 l 0.19738,-0.0401 c -0.0328,-0.18724 -0.0661,-0.32482 -0.15631,-0.49297 l 0.12879,-0.24266 -0.15191,-0.2675 0.0336,-0.10891 c 0.0735,-0.25604 0.15134,-0.47195 0.0536,-0.72417 -0.10299,-0.26751 -0.0765,-0.53502 -0.0611,-0.81589 l 0.22337,-0.2675 0.0829,-0.67259 c 0.0139,-0.1605 0.0497,-0.27132 0.10738,-0.41844 l -0.20732,-0.27134 0.0277,-0.107 c 0.1049,-0.45093 0.0435,-0.72034 -0.10336,-1.14835 l -0.13835,-0.0153 c 0.0886,-0.21017 0.17941,-0.32291 0.15076,-0.55029 -0.0419,-0.33056 0.16739,-0.75665 0.10986,-1.03561 -0.0415,-0.20064 -0.1454,-0.10319 -0.10814,-0.3707 0.0524,-0.3745 -0.11637,-0.77193 -0.0724,-1.11969 0.0102,-0.0822 0.25528,-0.34585 0.24516,-0.40126 -0.005,-0.0248 -0.17675,-0.23884 -0.18687,-0.26941 -0.0237,-0.0746 0.10757,-0.30763 0.10142,-0.39935 -0.009,-0.14521 -0.15649,-0.32864 -0.15687,-0.46812 -7.7e-4,-0.25222 0.16776,-0.55793 0.15343,-0.80443 -0.006,-0.11847 -0.099,-0.14331 -0.09,-0.3019 0.0155,-0.27514 -0.0344,-0.45666 -0.15764,-0.70123 l 0.0277,-0.13758 c 0.0891,-0.47769 0.068,-1.07384 -0.0119,-1.5477 l 0.14196,-0.12038 -0.0419,-0.1261 c -0.10111,-0.32291 0.20044,-0.52927 0.16758,-0.66686 -0.0317,-0.13184 -0.21611,-0.38787 -0.2677,-0.61525 l 0.11828,-0.19681 c -0.20712,-0.42992 -0.27591,-0.46813 -0.15362,-0.92098 l 0.25948,-0.0822 c -0.0185,-0.11081 -0.11427,-0.44711 -0.0903,-0.53692 0.0126,-0.0478 0.17331,-0.23692 0.17293,-0.2675 -3.8e-4,-0.042 -0.16394,-0.14521 -0.17789,-0.20062 -0.0355,-0.1395 0.16203,-0.44903 0.13756,-0.60189 -0.0446,-0.27515 -0.13318,-0.10122 -0.0911,-0.45475 l -0.0438,-0.2828 -0.0324,-0.29806 0.0303,-0.13566 c 0.13567,-0.62482 0.43259,-1.71395 0.0936,-2.2394 l 0.0925,-0.16432 c 0.005,-0.24266 -0.0524,-0.40126 -0.15228,-0.61908 -0.0684,-0.14904 0.11923,-0.81589 0.10452,-1.11014 -0.24516,-0.10701 -0.4473,-0.15478 -0.71233,-0.18726 -0.16432,-0.021 -0.26827,0.12802 -0.39456,0.22547 -0.10949,0.47769 -0.19241,0.95346 -0.12515,1.44261 l 0.0275,0.17961 -0.10203,0.17005 c -0.16947,0.32866 -0.16126,0.81207 -0.0498,1.15792 l 0.0481,0.1433 c 0.097,0.42419 0.0243,1.42541 -0.20694,1.77126 l 0.17693,0.2675 c 0.11522,2.20882 0.0327,4.41573 0.006,6.62262 -0.005,0.45859 0.1024,1.03754 -0.0162,1.47701 l -0.0411,0.14521 c -0.13107,0.70699 0.0208,1.29931 -0.0612,1.95851 -0.10892,0.87704 0.0338,1.78272 0.0529,2.66167 0.0153,0.70506 -0.17406,1.10058 0.0535,1.82667 l 0.0517,0.1605 c -0.0591,0.0955 -0.0963,0.13948 -0.11198,0.2675 -0.0574,0.4624 0.10987,1.07957 0.11331,1.57063 0.0157,2.34066 -0.10891,4.704252 0.0865,7.039172 0.0502,0.60188 -0.31069,2.26614 -0.094,2.62727 0.0246,0.26941 -0.008,0.45284 -0.0795,0.7127 l -0.0257,0.0898 c 0.23368,0.38215 0.10547,1.27638 0.0896,1.7407 -0.16107,0.22546 -0.18458,0.37641 -0.20981,0.64391 l -0.008,0.0936 -0.14044,-0.13567 0.14044,0.13567 0.0457,0.15667 c 0.0323,0.17007 0.008,0.27516 0.0927,0.43948 l 0.0552,0.0917 -0.23999,0.51399 c 0.19204,0.35349 -0.0197,0.64392 0.16586,1.07001 -0.0633,0.24075 -0.16433,0.51209 -0.12019,0.76239 0.0261,0.14904 0.1003,0.428 0.0617,0.57514 -0.0137,0.0535 -0.21057,0.31526 -0.20445,0.33437 0.006,0.0229 0.19011,0.19872 0.20311,0.22546 0.084,0.18344 0.0231,0.9229 0.0286,1.1541 l 0.12975,3.96288 c 0.003,0.38978 -0.12937,1.06237 -0.0691,1.38795 0.24094,1.30237 -0.0518,2.60243 0.0352,3.89887 0.0338,0.50387 0.10776,1.17816 -0.0229,1.66462 -0.12496,0.46528 -0.13682,1.13537 -0.1242,1.6207 0.0111,0.42628 0.0227,1.07613 -0.0388,1.47986 -0.0348,0.22815 -0.10738,0.44311 -0.005,0.66418 0.14674,0.31833 -0.16338,0.6164 0.002,1.06697 -0.14674,0.28048 -0.11063,0.54245 -0.0572,0.84396 0.0994,0.55986 0.0419,1.13212 0.0639,1.69789 0.0433,1.11186 0.12669,2.23232 0.0619,3.34475 l -0.0748,-0.26751 c -0.0529,-0.19775 -0.092,-0.35692 -0.19701,-0.53385 -0.0783,0.57551 -0.13451,1.32777 0.0877,1.87175 h 0.16343 c 0.1242,0.44846 0.24439,1.75445 0.15057,2.20004 -0.04,0.18973 -0.0982,0.21552 -0.0535,0.41673 0.23559,1.06256 -0.12134,2.33626 0.005,3.40379 0.13891,1.18007 -0.24133,2.51263 -0.0323,3.6713 0.0865,0.47883 0.10892,1.15542 -0.15783,1.58133 l -0.22929,-0.0896 -0.0907,0.18839 c 0.18764,0.0593 0.19566,0.0298 0.31623,0.20083 l -0.30687,0.26693 c 0.21171,0.17196 0.27667,0.2952 0.38827,0.53576 l -0.23847,0.33439 0.1563,0.20081 -0.17827,0.20064 c 0.0508,0.0617 0.12688,0.14559 0.1544,0.22029 0.10071,0.27344 0.0115,0.36344 -0.12937,0.58241 l 0.19623,0.33456 -0.20062,0.29597 c -0.0229,0.40374 0.0352,0.39229 0.29005,0.68329 l -0.17082,0.49163 0.14828,0.0662 c -0.017,0.43259 0.10853,0.84989 0.14253,1.27828 0.0217,0.27305 -0.0972,0.49164 -0.0481,0.76793 0.23254,1.30828 0.19165,3.16171 0.0246,4.47036 -0.0183,0.14427 -0.0615,0.26236 -0.0193,0.40738 0.17635,0.60456 -0.0835,0.84111 -0.11331,1.37229 l 0.14751,0.11885 0.0168,0.61699 -0.15075,0.0818 c -0.0762,0.30476 -0.0159,0.42304 0.0667,0.72091 -0.0442,0.11121 -0.0696,0.16261 -0.0933,0.28872 -0.0577,0.30764 9.1e-4,0.45973 0.1605,0.71347 l -0.17865,0.33573 0.0793,0.16813 c 0.0554,0.17961 -0.0129,0.51495 -0.0957,0.67354 l -0.0726,0.11025 0.0677,0.25145 c 0.21209,0.61297 -0.0905,1.33331 0.14789,1.86011 l 0.0755,0.14751 c -0.10624,0.15286 -0.1861,0.30305 -0.23903,0.4817 -0.0933,0.3145 -0.0449,0.67946 0.13491,0.95575 l 0.0808,0.0998 -0.1565,0.33515 0.1565,0.0662 -0.13394,0.21993 c 0.1131,0.74175 0.035,1.44796 0.0518,2.18952 0.0128,0.56462 0.15077,1.18294 0.1051,1.73934 -0.0498,0.60456 -0.26425,1.51656 -0.17904,2.08137 0.13681,0.90473 -0.008,1.86585 0.0222,2.77172 0.0109,0.31757 -0.0493,0.64431 -0.0191,0.95269 0.0204,0.20809 -0.0572,0.2933 -0.14446,0.48228 l 0.16357,0.11464 c 0.0181,0.24992 0.0572,0.51533 -0.0296,0.75609 l -0.052,0.13261 0.0817,0.14578 c -0.045,0.47558 0.0701,0.91735 0.0735,1.39294 0.002,0.20806 -0.0293,0.13317 0.055,0.29978 l 0.0574,0.10152 c -0.14273,0.54666 -0.23674,0.97448 -0.0493,1.52191 l 0.0302,0.0836 -0.16548,0.2675 0.11886,0.20006 -0.13509,0.26884 c 0.0719,0.1242 0.11464,0.22261 0.16203,0.35597 -0.0355,0.15077 -0.0574,0.27534 -0.0371,0.43049 0.0543,0.41368 -0.0676,0.75131 -0.0372,1.13766 0.0135,0.17005 0.0487,0.25107 -0.0198,0.41845 -0.0548,0.13432 -0.0759,0.17751 -0.0529,0.32559 0.12573,0.80958 0.15114,2.08901 -0.0124,2.89592 -0.0507,0.25011 -0.0417,0.18782 0.0751,0.38884 -0.11101,0.2631 -0.10566,0.52181 -0.0938,0.8027 0.009,0.20425 0.0217,0.32004 -0.0314,0.5224 l -0.0446,0.14654 c 0.12287,0.30419 0.11026,0.4303 0.0479,0.75245 z m 21.02292,-19.84152 c -0.0162,-0.34297 0.0643,-0.58965 0.17465,-0.91237 -0.11102,-0.2935 -0.0402,-0.30286 -0.0572,-0.53521 -0.0172,-0.23234 -0.2308,-0.50347 -0.24744,-0.73582 -0.007,-0.0986 0.17579,-0.30591 0.16509,-0.40125 -0.0174,-0.15803 -0.14464,-0.17006 -0.0984,-0.35311 0.10757,-0.42685 -0.0277,-0.75703 0.0591,-1.18542 0.11388,-0.56367 0.16795,-2.08042 0.0505,-2.60893 -0.12132,-0.54551 0.002,-1.12733 0.26769,-1.6056 l -0.064,-0.0768 c -0.21458,-0.34182 -0.29367,-1.631 -0.24285,-2.04009 l 0.0369,-1.02703 c -0.26254,-0.32081 -0.27401,-0.32482 -0.26406,-0.73715 l 0.35672,9.2e-4 0.0448,-0.16643 -0.046,-0.0788 c -0.22146,-0.39649 -0.12822,-0.67029 -0.18993,-1.09257 l -0.015,-0.14178 c -0.0207,-0.16661 -0.005,-0.0999 -0.0836,-0.26578 l 0.0581,-0.0688 c 0.15171,-0.24801 0.11178,-0.79888 0.23005,-1.12925 l -0.17062,-0.33437 0.16929,-0.40145 c -0.22815,-0.41387 -0.21324,-0.46316 -0.15287,-0.93646 l 0.13317,0.26694 -0.13317,-0.26694 c -0.0131,-0.18725 -0.0999,-0.57493 -0.0712,-0.74422 0.0245,-0.14465 0.14235,-0.17274 0.13013,-0.34586 -0.013,-0.17922 -0.0203,-0.32253 0.0102,-0.5008 0.0362,-0.21267 0.006,-0.40451 -0.0197,-0.61659 0.25432,-0.4496 -0.23483,-0.89786 -0.045,-1.35969 0.12037,-0.29292 0.0131,-0.67583 -0.042,-0.97983 l 0.0503,-0.0911 c 0.0574,-0.11331 0.0724,-0.18802 0.086,-0.31145 l -0.17866,-0.13433 0.0605,-0.14904 c 0.13242,-0.37049 -0.013,-0.96206 0.0577,-1.38968 l -0.0309,-0.33437 0.009,-0.46833 0.21058,-0.13375 -0.18974,-0.40145 0.0557,-0.12305 c 0.14064,-0.34107 0.0923,-1.14377 -0.0261,-1.48904 0.0892,-0.30419 -0.0565,-0.43393 -0.0155,-0.66227 0.0181,-0.10203 0.19719,-0.32635 0.25432,-0.42705 0.22031,-0.38845 0.006,-0.7234 -0.0814,-1.14032 -0.0435,-0.20713 0.006,-0.30782 0.0235,-0.50692 0.0288,-0.34662 -0.22586,-0.33515 -0.11083,-0.64392 0.0738,-0.19833 0.0535,-0.28987 0.0183,-0.49545 -0.13548,-0.79698 0.0913,-1.61802 -0.0845,-2.43296 -0.027,-0.12477 -0.0107,-0.19929 0.0105,-0.32234 0.0429,-0.24954 -0.0147,-0.25355 -0.0642,-0.47443 l -0.0172,-0.17923 0.13318,-0.13299 -0.13318,0.13299 c -0.0886,-0.41903 0.0367,-0.90398 -0.007,-1.3379 l 0.017,-0.28967 c 0.0193,-0.47807 -0.22412,-1.05645 -0.009,-1.5177 0.15018,-0.3233 -0.0468,-0.71691 -0.0579,-1.0769 -0.006,-0.20673 -0.0705,-0.29291 -0.18172,-0.46029 l 0.0336,-0.0836 c 0.0881,-0.22624 0.2589,-0.67984 0.21668,-0.91983 -0.0378,-0.21439 -0.15267,-0.15822 -0.0478,-0.39037 0.28203,-0.62386 -0.11063,-1.23434 0.37031,-1.884 l -0.28699,-0.26769 c 0.13394,-0.68328 0.12267,-1.17472 0.10509,-1.86449 -0.004,-0.15439 -0.0353,-0.26655 -0.0845,-0.4112 0.0674,-0.17617 0.0833,-0.15706 0.0403,-0.35406 -0.082,-0.37603 -0.0753,-0.77614 -0.0894,-1.15962 -0.0291,-0.79278 0.10568,-1.53719 0.0491,-2.32614 l -0.26904,0.0951 c 0.082,-0.19451 0.11962,-0.21419 0.28299,-0.33512 l -0.014,-0.71501 -0.13528,-0.0872 0.19049,-0.33457 -0.0437,-0.14425 c -0.0548,-0.22872 -0.0409,-0.14714 -0.005,-0.37146 0.0333,-0.21133 0.005,-0.26062 -0.0576,-0.45533 -0.0705,-0.21782 -0.057,-0.49488 -0.0617,-0.7236 -0.003,-0.13814 0.0243,-0.24763 0.0607,-0.37909 l -0.0433,-0.10111 c -0.0667,-0.20178 0.0333,-0.31547 0.005,-0.50082 -0.0574,-0.36991 -0.20368,-0.54666 -0.17636,-0.95345 0.40833,-0.68806 -0.34794,-1.62127 0.18419,-2.3913 -0.41043,-0.72034 -0.15782,-1.41394 -0.16087,-2.2069 -9.2e-4,-0.30954 -0.0722,-0.6592 0.006,-0.9611 l 0.26694,-0.66494 c 0.13489,-0.3554 0.0929,-0.86938 0.10318,-1.25153 l -0.15305,-0.13375 c 0.0202,-0.39745 0.13967,-0.41272 0.2354,-0.73564 0.0853,-0.28853 -0.07,-0.90569 -0.13108,-1.20377 l 0.14808,-0.33438 -0.15304,-0.26751 0.18763,-0.26749 c -0.18114,-0.37451 0.0353,-0.4987 -0.0925,-0.81207 -0.2161,-0.52736 -0.12782,-1.49802 -0.0655,-2.0655 l -0.15859,-0.33439 0.1649,-0.26751 -0.081,-0.11272 c -0.12285,-0.19681 -0.16088,-0.5331 -0.11541,-0.76431 0.014,-0.0688 0.0487,-0.12992 0.0805,-0.19298 l -0.1326,-0.13566 0.0485,-0.0783 0.21344,-0.45475 -0.26196,-0.26942 0.1798,-0.2656 -0.0443,-0.0841 c -0.22413,-0.44712 -0.14635,-0.79296 -0.0172,-1.25345 l -0.11962,-0.2675 c 0.0684,-0.13566 0.13375,-0.21975 0.23005,-0.33439 l -0.0948,-0.47003 0.15536,-0.17388 -0.16873,-0.26177 0.21668,-0.36686 -0.27954,-0.26751 0.37393,-0.26751 -0.03,-0.26559 -0.26903,0.13184 c -0.22528,-0.44137 -0.10242,-0.69933 -0.11885,-1.161732 -0.0311,-0.86365 -0.2631,-2.39224 0.0133,-3.19093 l 0.12209,-0.22548 c -0.0135,0.62101 0.0122,0.90762 0.31928,1.45981 l 0.11809,-0.0917 -0.0145,-0.0803 c -0.10871,-0.63054 0.0465,-1.40057 -0.34794,-1.92602 0.004,-0.5331 -0.0903,-1.1732 0.25336,-1.60694 l -0.0886,-0.20063 0.18649,-0.33437 c -0.17923,-0.1051 -0.15649,-0.0554 -0.24076,-0.27515 l 0.2142,-0.19299 c -0.0917,-0.22737 -0.11408,-0.21782 -0.33324,-0.33437 0.32942,-0.70507 0.24592,-1.06811 0.0783,-1.80566 l 0.1542,-0.2675 c -0.0988,-0.29235 -0.21076,-0.53691 -0.36458,-0.80252 -0.002,-0.22164 0.10338,-0.83689 0.0491,-1.00313 -0.0677,-0.21019 -0.19394,-0.13375 -0.10796,-0.3726 0.0696,-0.19298 0.0315,-0.32291 0.002,-0.51589 -0.0235,-0.15287 -0.0255,-0.29425 -0.0264,-0.44903 l -0.14159,-0.002 -0.004,-0.96301 0.17331,-0.0402 c -0.0304,-0.28661 -0.17808,-0.3382 -0.16088,-0.60188 l 0.19051,0.0362 0.0746,-0.17006 -0.19948,-0.13183 c 0.0641,-0.19681 0.0641,-0.20828 0,-0.40508 l 0.21954,-0.065 c -0.0936,-0.18534 -0.12783,-0.21591 -0.28642,-0.33629 l 0.22336,-0.26558 -0.2247,-0.46814 0.0979,-0.26751 -0.0964,-0.20253 0.19852,-0.19872 c -0.0541,-0.30572 0.0552,-0.71271 -0.0448,-0.94581 -0.0843,-0.1949 -0.11675,-0.38598 -0.15381,-0.59425 0.11369,-0.17197 0.13146,-0.19489 0.13508,-0.39934 l 0.28797,0.17006 -5.8e-4,-0.77195 c -0.15209,0.0669 -0.22968,0.12038 -0.35559,0.22356 -0.0239,-0.25795 0.0868,-0.26751 0.14712,-0.49297 0.11809,-0.43756 -0.16833,-0.91143 0.007,-1.44835 l 0.22642,-0.22736 -0.0122,-0.44712 -0.19069,-0.042 0.012,-0.64392 c 0.19355,-0.0918 0.15132,-0.0841 0.22565,-0.26751 l -0.21477,-0.19871 c 0.014,-0.15668 0.0438,-0.29616 -0.0195,-0.4452 -0.14426,-0.34012 -0.0827,-0.4089 0.0181,-0.76048 l -0.13948,-0.20062 c 0.072,-0.29425 0.11369,-0.56941 0.13948,-0.8694 l -0.34489,-0.29042 c -0.36036,-0.042 -0.45055,-0.11465 -0.75111,0.107 -0.0174,0.56749 -0.24898,1.73114 -0.10948,2.22792 0.11235,0.39744 -0.0479,1.27256 -0.0412,1.75215 l 0.0552,7.2035 c -0.008,1.75596 -0.24497,3.64377 -0.12076,5.38829 0.13165,1.84768 0.0537,3.82529 0.008,5.68637 l 0.10585,4.774942 -0.065,4.06796 c -0.027,0.66112 -0.287,2.12665 -0.0252,2.69987 0.0774,0.16815 0.0424,0.2484 0.0102,0.43183 -0.0529,0.29807 -0.12057,0.54647 -0.0512,0.84837 0.0503,0.21782 0.0738,0.39553 0.0526,0.6229 -0.0126,0.13375 -0.0386,0.19489 -0.0279,0.3382 0.0263,0.35158 -0.0263,0.71845 0.0176,1.0662 0.0315,0.25031 0.15515,0.50061 0.1026,0.75092 -0.14904,0.70888 -0.0748,1.46936 -0.0503,2.18971 0.0476,1.40056 0.15993,3.0056 0.0181,4.38706 -0.23694,2.3118 0.13662,4.71914 -0.0724,7.02483 -0.0877,0.96741 -0.0296,2.16104 -9.2e-4,3.1445 l 0.14464,6.47664 c 0,0.43814 -0.15591,0.85774 -0.15075,1.27849 0.0102,0.82295 -0.15974,2.27798 0.22776,2.9647 -0.0451,0.15859 -0.0439,0.2249 -0.0128,0.39399 l 0.0334,0.15382 c -0.23731,0.48304 -0.11216,2.02443 -0.12095,2.60892 -0.013,0.85583 0.21076,2.02176 0.0402,2.84299 l -0.0302,0.1003 c 0.0678,0.18095 0.099,0.25681 0.0638,0.45152 -0.0326,0.18114 -0.0451,0.12152 0.005,0.30343 l 0.04,0.11463 -0.15018,0.2677 c 0.19527,0.79774 0.0533,1.94895 0.0602,2.783 0.0167,2.02309 0.16185,4.17286 0.0176,6.18086 -0.0286,0.39858 -0.0632,0.79449 0.0121,1.19268 0.0389,0.20464 0.0531,0.30783 -0.0195,0.50406 l -0.0703,0.17636 c 0.37909,0.87704 -0.31738,1.96596 0.14903,2.80955 -0.29214,0.43298 -0.15648,1.01689 -0.23004,1.51885 -0.0208,0.1412 0.0503,0.2077 0.11521,0.33132 -0.0472,0.24248 -0.0959,0.86079 -0.0355,1.0918 l 0.0669,0.14236 -0.10643,0.19355 c 0.0233,0.24916 0.0275,0.52565 0.14254,0.75265 l 0.0634,0.11693 c -0.15266,0.37068 -0.0845,0.61832 0.008,0.99033 0.072,0.28834 -0.0925,0.24133 -0.14063,0.48132 -0.0701,0.3489 0.24248,0.35463 0.004,0.8027 0.0564,0.24534 0.17063,0.55488 0.10796,0.80118 l -0.0327,0.10413 c -0.009,0.28872 0.002,0.73564 0.0333,1.02721 0.0246,0.23063 0.0557,0.40145 0.005,0.6317 -0.0719,0.32559 -0.20159,0.85887 -0.0749,1.17185 0.0586,0.14503 0.0667,0.10415 0.057,0.24496 -0.0607,0.8799 0.0311,1.75979 -0.0392,2.62899 -0.0115,0.1412 0.0918,0.21573 0.1731,0.3277 l -0.13241,0.15304 c 0.0163,0.14771 0.0341,0.28603 0.0122,0.43432 -0.0438,0.29806 0.0694,0.55162 0.004,0.82429 l -0.0455,0.14635 0.22911,0.40127 -0.20083,0.15782 c 0.0966,0.67468 -0.25031,1.74184 0.0669,2.31085 l -0.0812,0.0739 c -0.0284,0.28833 -0.0671,0.57151 -0.0342,0.8606 0.0674,0.59519 -0.0212,1.21408 -0.003,1.81463 0.0103,0.33686 0.10009,0.66283 0.089,1.00123 -0.016,0.49029 -0.15841,1.05817 -0.11064,1.53643 0.11674,1.16746 -0.0767,2.38746 0.0489,3.54443 0.0174,0.16087 0.0252,0.24151 -3.9e-4,0.40545 l -0.0226,0.1349 c 0.0121,0.33285 -0.0512,0.87855 0.0327,1.17644 0.0764,0.27113 -0.0298,0.56653 -0.0467,0.85009 l -0.0681,2.52236 c -9.3e-4,0.34719 0.1175,0.68348 0.0963,1.03295 -0.022,0.35846 0.0715,0.73965 0.0174,1.09122 l -0.0497,0.28413 0.21802,4.27452 c 0.30438,-0.67201 0.60055,-1.33694 0.70543,-2.07373 0.0705,-0.49545 0.0111,-1.00677 0.10339,-1.50031 0.13146,-0.70257 -0.009,-1.42618 0.16145,-2.10602 0.18688,-0.74537 -0.2096,-1.65298 -0.0412,-2.2797 l 0.0477,-0.13872 c 0.10643,-0.35005 0.0868,-0.40202 -0.0898,-0.72494 0.0376,-0.13107 0.10738,-0.31813 0.0848,-0.45552 -0.22374,-1.36083 0.005,-2.60987 0.0531,-3.96479 0.0119,-0.33686 -0.17751,-0.64162 -0.11693,-0.97944 0.14885,-0.8306 0.18802,-1.94857 0.0684,-2.78318 -0.0444,-0.30916 -0.0298,-0.60801 -0.0602,-0.91468 -0.0728,-0.73505 -0.14236,-1.71603 -0.0868,-2.44976 l 0.0623,-1.24197 c 0.0305,-0.25165 -0.0231,-0.29675 -0.1219,-0.52279 0.19661,-0.28929 0.0403,-0.65596 0.0942,-0.98614 0.0435,-0.26597 0.0364,-0.40564 -0.0266,-0.66473 l -0.0227,-0.0883 c 0.25452,-0.578 -0.1263,-0.86309 0.27018,-1.46383 z m -3.1124,-25.26134 -0.11885,0.13318 -0.33075,-0.0731 c 0.0659,-0.31584 0.10452,-0.72991 0.28947,-0.99359 l -0.0846,-0.14999 c 0.0359,-0.20406 0.0705,-0.36687 0.0467,-0.57475 -0.0224,-0.19394 0.039,-0.24285 0.12572,-0.41597 l -0.24725,-0.23081 c -0.0239,-0.18917 -0.0281,-0.28776 0.0276,-0.47387 0.10642,-0.3552 0.0321,-0.61334 -0.0403,-0.96779 l 0.14674,-0.14502 c 0.0233,-0.23406 0.0518,-0.43737 -0.0579,-0.6552 l -0.076,-0.14101 c 0.0352,-0.15821 0.0603,-0.2612 0.0248,-0.4238 l -0.0302,-0.10661 0.15859,-0.26828 -0.13203,-0.26617 c 0.059,-0.18801 0.0714,-0.2547 0.0155,-0.45227 -0.0671,-0.23712 -0.002,-0.26234 0.0959,-0.48495 -0.0546,-0.27648 -0.2054,-0.75454 -0.0845,-1.01766 0.0858,-0.18706 -0.0246,-0.62959 0.0731,-0.94754 0.076,-0.24762 -0.10224,-0.30533 0.0259,-0.61621 l -0.14733,-0.28373 c 0.14446,-0.66705 -0.0648,-1.37651 0.16948,-2.01813 l -0.16948,-0.26636 c 0.22852,-0.94907 -0.167,-2.03819 0.0968,-2.97388 l 0.0357,-0.10451 c -0.31815,-0.67527 0.0444,-1.30868 -0.15765,-1.94915 l -0.0426,-0.124 0.0676,-0.0688 c 0.005,-0.51723 0.10091,-1.30523 -0.11236,-1.77394 l -0.0579,-0.0979 0.19566,-0.35443 c 0.0167,-0.33439 -0.0161,-0.57265 -0.12669,-0.89003 l -0.0338,-0.0934 0.25356,-0.40145 -0.15018,-0.26751 c 0.005,-0.46889 -0.10262,-0.92537 0.0326,-1.37974 0.0602,-0.20177 0.094,-0.338 0.0822,-0.54991 -0.007,-0.13966 -0.0187,-0.21533 0.0189,-0.35616 l 0.0319,-0.0868 c -0.14502,-0.25011 -0.1605,-0.42553 -0.17368,-0.70449 0.10184,-0.20502 0.15076,-0.37737 0.19336,-0.60207 -0.10375,-0.28356 -0.23483,-0.58775 -0.15552,-0.89231 l 0.0386,-0.11122 c -0.0944,-0.26234 -0.12765,-0.38444 -0.0669,-0.66053 0.0311,-0.14064 0.0625,-0.23025 0.0403,-0.37623 l -0.11178,-0.83347 -0.0321,-0.13528 c 0.18724,-0.33668 0.0295,-0.60742 0.0835,-0.96244 0.1368,-0.89862 -0.0605,-1.87119 0.0705,-2.78261 0.0474,-0.33056 0.0417,-0.51972 -0.0627,-0.84264 -0.0692,-0.21591 0.12362,-0.30761 0.13222,-0.49679 0.0147,-0.33247 -0.18382,-0.2675 -0.0208,-0.67067 -0.30132,-0.8541 0.006,-2.12474 0.065,-3.03617 0.0159,-0.2503 -0.0479,-0.47959 0.0636,-0.71844 l 0.0634,-0.12419 -0.22603,-0.2675 0.18189,-0.2675 -0.18802,-0.26751 0.1051,-0.23885 -0.0367,-0.11081 c -0.052,-0.19681 -0.2761,-1.95469 -0.231,-2.05788 0.0147,-0.0325 0.23196,-0.24266 0.24018,-0.26941 0.0917,-0.29808 -0.22738,-0.54838 -0.0327,-0.93626 -0.13241,-0.31336 -0.15401,-0.44712 -0.0758,-0.7815 l 0.0226,-0.0879 -0.046,-0.11273 -0.0536,-0.14331 c -0.13413,-0.34202 0.0893,-0.57514 0.0236,-0.91333 -0.0372,-0.19108 0.0565,-0.31909 0.13128,-0.50254 -0.0667,-0.25412 -0.0829,-0.46812 -0.0862,-0.7318 l -0.007,-0.3382 c -0.0388,-0.22164 0.0607,-0.46813 0.0653,-0.73564 0.0111,-0.63054 -0.11848,-1.48273 0.0568,-2.06359 0.0659,-0.21974 -0.006,-0.27133 -0.09,-0.47769 0.22145,-0.321012 0.17293,-0.697422 0.18228,-1.071942 0.007,-0.28277 0.0533,-0.61525 -0.0726,-0.87702 l -0.0674,-0.12611 0.21113,-0.36876 c -0.0667,-0.16051 -0.0921,-0.26178 -0.0894,-0.43375 l 0.22318,-0.002 c -9.2e-4,-0.23501 -0.1026,-0.38214 -0.2163,-0.57895 -0.082,-0.14138 -0.022,-0.20253 0.017,-0.35539 -0.12152,-0.32291 -0.0909,-0.56176 -0.0507,-0.90187 0.0463,-0.38597 -0.10834,-1.23052 -0.004,-1.51713 0.17541,-0.48342 0.0185,-0.99358 0.16184,-1.46171 0.17369,-0.5675 0.0107,-0.90187 -0.0717,-1.47128 -0.027,-0.18725 -0.0319,-0.34392 -0.0963,-0.52354 -0.13604,-0.37641 0.15744,-0.17197 0.19566,-0.41272 0.004,-0.0229 -0.14751,-0.21209 -0.16585,-0.26751 -0.042,-0.1261 0.0167,-0.38979 0.002,-0.535 -0.0323,-0.32674 -0.0728,-0.54647 0.14484,-0.82927 l 0.0982,-0.10699 c -0.24209,-0.29808 -0.2847,-0.34776 -0.31394,-0.73755 -0.027,-0.35731 -0.039,-0.55412 0.15974,-0.86748 l 0.0465,-0.0688 c -0.0577,-0.0974 -0.11064,-0.1777 -0.18744,-0.26367 l -0.0659,-0.0707 0.13759,-0.40126 c -0.0591,-0.16624 -0.11255,-0.28279 -0.0858,-0.4624 0.0343,-0.22929 0.0255,-0.44329 0.0185,-0.67449 l 0.1712,-0.0191 c 1.9e-4,-0.32483 1.9e-4,-0.38216 -0.16299,-0.65921 l 0.13376,-0.11082 c -0.0169,-0.0593 -0.0483,-0.15478 -0.0446,-0.214 0.0145,-0.22739 0.0798,-0.24267 0.005,-0.49298 -0.10121,-0.3401 -0.0719,-0.56175 -0.0181,-0.91333 l 0.0215,-0.13184 c -0.25546,-0.37833 -0.0929,-2.07698 -0.10623,-2.61007 h 0.26998 c 0.003,-0.36496 0.11044,-0.57896 -0.12782,-0.87894 0.0536,-0.2121 0.0674,-0.33821 7.6e-4,-0.54649 -0.10929,-0.34011 0.10317,-0.3573 0.1091,-0.64774 0.005,-0.22736 -0.10279,-0.57131 -0.14426,-0.80251 l 0.16815,-0.1624 c -0.20407,-0.54074 0.13795,-0.40317 0.14216,-0.80634 9.1e-4,-0.10318 -0.22567,-0.31909 -0.24782,-0.43565 -0.0341,-0.1777 0.1049,-0.43947 0.0657,-0.66876 h -0.29081 c -0.39763,0.004 -0.69168,-0.11464 -1.04059,0.0918 -0.11885,0.61525 -0.16929,1.60502 -0.10796,2.23556 0.0169,0.17197 0.0402,0.27705 0.0143,0.45476 -0.0537,0.3726 -0.0779,1.05281 0.0726,1.39675 l 0.0558,0.0955 c -0.24992,0.40699 -0.0526,0.89805 -0.13547,1.34708 -0.0279,0.15095 -0.0729,0.22736 -0.0361,0.38596 0.13337,0.57704 -7.7e-4,1.16938 0.002,1.75215 0.003,0.74328 0.13471,1.58782 0.0195,2.32537 l -0.0401,0.2828 c 0.0412,0.43182 0.0791,1.20567 -0.11445,1.61648 l -0.0622,0.12228 c 0.30972,0.44903 0.15762,1.35854 0.099,1.89164 -0.0159,0.14522 -0.0419,0.25412 -0.006,0.39934 0.16719,0.6936 0.009,1.64898 0.005,2.37315 -0.005,0.83117 0.15783,1.95277 -0.0892,2.73044 l -0.0327,0.0975 c 0.154,0.31909 0.22318,0.72608 0.1135,1.07002 -0.0396,0.12227 -0.0686,0.14139 -0.0495,0.2675 0.0341,0.22737 0.0974,0.3382 0.0774,0.57703 -0.0751,0.89233 -0.017,1.89738 0.003,2.79733 0.009,0.42037 0.0898,0.942 -0.0176,1.341342 -0.0982,0.36496 0.0409,0.79487 0.11007,1.16556 -0.30076,0.5522 0.12705,1.34325 -0.002,1.90309 -0.21381,0.93245 0.14731,2.0273 -0.11712,2.94063 l -0.0581,0.17961 c 0.0986,0.24268 0.17445,0.42992 0.13394,0.69361 -0.0491,0.32291 -0.0824,0.67449 -0.0148,0.99549 0.11217,0.53309 -0.0552,0.98021 -0.0572,1.49419 -7.6e-4,0.214 0.15936,0.5847 0.19051,0.83118 -0.0799,0.14904 -0.12688,0.23503 -0.11713,0.4089 0.0321,0.57131 0.14732,1.263 0.0591,1.81903 -0.0261,0.16432 -0.0396,0.23693 -0.0119,0.40507 0.11463,0.69742 -0.006,1.51331 -0.004,2.23175 l -0.0838,6.86835 c -0.0217,0.42418 0.13738,0.82429 0.0886,1.24867 -0.0803,0.69876 0.0155,1.43038 0.0276,2.136 0.0372,2.16009 0.16165,4.48852 -0.0448,6.63753 -0.035,0.36419 0.0462,0.68883 0.0286,1.0469 l -0.0174,0.87798 c -0.0109,0.17828 -0.0424,0.26904 0.002,0.44291 0.10071,0.39362 0.10338,1.20129 0.0541,1.60809 -0.0324,0.2673 -0.004,0.4194 0.0783,0.67029 l 0.0302,0.0884 -0.0703,0.0977 c -0.13432,0.24801 -0.14654,0.62309 -0.0748,0.89174 0.2142,0.80003 -0.0344,1.95125 -0.0453,2.75663 -0.005,0.39552 0.0857,0.6013 -0.0183,1.02434 l -0.0293,0.11293 0.0453,0.0722 c 0.11712,0.25488 0.11445,0.98001 0.003,1.23529 l -0.0591,0.0973 0.10222,0.25794 c -0.0625,0.22871 -0.1263,0.43699 -0.0812,0.67487 0.0653,0.34586 0.15134,0.63456 -0.0384,0.94009 0.0495,0.11522 0.0711,0.18668 0.0744,0.31393 l 0.0453,0.61985 c -0.095,0.54226 0.13548,1.1153 -0.0468,1.64323 l -0.046,0.0988 c 0.1005,0.20865 0.0984,0.35062 0.0911,0.57627 l -0.005,0.54342 c 0.008,0.22756 0.0438,0.43927 -0.0457,0.65576 l -0.056,0.0977 c 0.25929,0.39056 0.10122,1.12524 0.0921,1.57866 -0.0174,0.84493 -0.10489,1.80125 -0.0279,2.63567 0.0419,0.45456 -0.0659,0.94429 0.0141,1.37727 0.0398,0.21457 0.0365,0.081 0.0243,0.32138 l -0.0155,4.56973 -0.002,1.34516 c -0.006,0.14732 -0.0181,0.27151 0.003,0.41941 0.11828,0.82219 -0.0677,1.70361 -0.002,2.53956 0.0984,1.25708 0.0938,2.7807 -0.0109,4.04141 -0.0197,0.23789 -0.0365,0.38387 0.0766,0.60475 0.10356,0.20235 -0.10566,0.71672 -0.0998,1.03677 l 0.0843,5.41848 c -0.0143,1.17033 -0.1498,2.47498 -0.027,3.63155 0.0481,0.45304 -0.0396,0.94906 0.0361,1.37974 0.0239,0.13663 0.0684,0.22719 0.0207,0.36686 -0.19451,0.57113 -0.0307,1.16404 -0.0165,1.75884 0.0135,0.5591 -0.076,1.20854 0.002,1.7512 0.20101,1.4042 -0.11159,2.92 0.005,4.33203 0.0546,0.655 0.0631,1.43878 0.0283,2.09857 -0.0131,0.24782 -0.0973,0.4089 -0.0457,0.66226 0.082,0.40125 0.006,0.82276 0.10757,1.21466 0.0533,0.20789 -0.0533,0.33782 -0.13681,0.53138 0.19566,0.46965 0.0453,1.16288 0.0712,1.67438 l 0.11122,7.35635 c 0.004,0.72226 -0.15802,1.96328 0.035,2.60892 0.0256,0.0854 0.24897,0.29598 0.31642,0.37624 0.68806,-0.78208 0.15974,-1.8347 0.5696,-2.55524 l 0.0744,-0.0955 -0.0603,-0.33438 c -0.0396,-0.20025 -0.07,-0.27209 5.7e-4,-0.47348 l 0.0548,-0.1286 -0.14217,-0.13375 c 0.0474,-0.59615 -0.14388,-1.36924 0.15496,-1.8731 l -0.18896,-0.20063 c 0.0388,-0.66951 -0.006,-1.33828 0.0426,-2.00894 0.0378,-0.51094 0.19413,-1.30485 0.0714,-1.77986 -0.0419,-0.16261 -0.0841,-0.18458 -0.0449,-0.36209 0.0566,-0.25681 0.0419,-0.51532 -0.0719,-0.75703 -0.0981,-0.20847 0.006,-0.17464 0.0245,-0.3768 0.0102,-0.11522 -0.11044,-0.28661 -0.0997,-0.40126 0.0124,-0.13375 0.20654,-0.42399 0.18687,-0.53519 -0.0446,-0.25222 -0.27343,-0.39439 -0.18745,-0.73584 0.0141,-0.0562 0.22604,-0.30933 0.21974,-0.33456 -0.0279,-0.10795 -0.1691,-0.15993 -0.20235,-0.26617 -0.0575,-0.18361 -9.1e-4,-0.66226 -9.1e-4,-0.87091 0.0657,-0.0724 0.0977,-0.0961 0.13374,-0.20082 0.11446,-0.33114 0.0533,-0.53578 -0.1324,-0.80137 0.03,-0.29215 0.10814,-0.52947 0.21037,-0.80403 -0.072,-0.17294 -0.12802,-0.27955 -0.11351,-0.47043 0.0133,-0.17732 0.0276,-0.10586 -0.0417,-0.29788 l -0.0552,-0.1328 c 0.18113,-0.31986 0.0909,-0.80118 0.0914,-1.16575 l 0.0593,-2.97941 c 0.014,-0.23999 -0.086,-0.55565 -0.0493,-0.77366 0.0287,-0.1691 0.14675,-0.17465 0.0948,-0.39132 -0.0415,-0.17292 -0.14903,-0.27935 -0.16241,-0.47826 -0.027,-0.39552 0.19394,-0.77806 0.13757,-1.19077 -0.30515,-2.22869 0.18917,-4.5961 -0.15706,-6.79766 -0.0321,-0.20483 0.0737,-0.14789 0.11158,-0.30648 0.0998,-0.41769 -0.0691,-0.54724 0.15554,-1.0041 -0.0835,-0.14177 -0.097,-0.1945 -0.095,-0.36495 0.002,-0.13566 0.0176,-0.2717 -0.0174,-0.40565 -0.1196,-0.45819 -0.18476,-0.57723 0.0311,-1.03486 -0.0442,-0.24418 -0.12553,-0.53768 -0.0907,-0.78416 l 0.0512,-0.25068 c -0.0102,-0.55776 0.0446,-1.28708 -0.027,-1.8368 -0.13337,-1.02645 0.20962,-2.20882 0.0575,-3.26069 l -0.0255,-0.15572 0.19623,-0.26769 -0.16127,-0.2293 c -0.004,-0.35864 -0.1003,-0.49315 0.0657,-0.84091 l -0.10566,-0.26769 c 0.13012,-0.36208 -0.0401,-0.51418 0.12592,-0.87015 -0.0674,-0.15286 -0.11465,-0.23732 -0.10853,-0.41063 0.017,-0.48742 0.0829,-1.34936 -0.12209,-1.78769 -0.18937,-0.40545 0.21456,-0.68518 -0.0559,-1.21139 0.13451,-0.42267 -0.0394,-1.03181 0.14597,-1.37612 l 0.0543,-0.0968 c 0.0807,-0.2526 -0.0267,-0.4605 -0.14808,-0.66895 l 0.2014,-0.33437 -0.14445,-0.17389 0.15859,-0.20043 c -0.0145,-0.19261 -0.0298,-0.31796 -0.11331,-0.49661 l -0.0691,-0.13261 0.11522,-0.14195 c 0.0467,-0.16739 0.0319,-0.21478 -0.0252,-0.38961 -0.0902,-0.27534 -0.0257,-0.49163 -0.13298,-0.80633 l 0.25317,-0.2675 -0.20217,-0.33458 0.0774,-0.29864 c -0.23789,-0.44827 -0.0783,-1.43001 -0.15133,-1.96482 -0.0277,-0.20254 -0.0545,-0.32597 0.0474,-0.51303 l 0.0979,-0.16681 -0.13413,-0.20062 c 0.0603,-0.14255 0.0829,-0.24038 0.0662,-0.39572 -0.0558,-0.52335 -0.15324,-1.03009 0.18573,-1.48007 l 0.052,-0.0643 z M 109.29934,75.826338 c -0.0927,0.26751 -0.20198,0.48916 -0.11407,0.77577 h 0.12705 l 0.0729,-0.24075 0.005,0.38022 c -0.27629,0.34968 -0.29501,0.64201 -0.28048,1.07002 l 0.13929,-0.0669 c 0.10336,1.07193 0.0864,2.07698 0.0998,3.14317 0.004,0.32292 0.0786,0.63246 0.0364,0.95536 -0.0677,0.51973 -0.11139,1.33562 -0.0758,1.85534 0.0288,0.42227 0.10394,0.75857 -0.10131,1.13689 0.18858,0.41081 0.28049,1.62222 0.18458,2.07316 -0.0767,0.35921 -0.0984,1.23051 -0.051,1.59738 0.045,0.34774 -0.0508,0.71844 -0.041,1.07574 l 0.11979,2.99031 c 0.003,0.29616 0.057,0.73181 -0.071,0.9974 l -0.0646,0.0955 c 0.3919,0.81015 0.14292,2.7916 0.14178,3.72212 -3.8e-4,0.43566 0.0816,1.0318 -0.0457,1.4388 l -0.0446,0.12419 c 0.18458,0.51208 0.24726,2.191632 0.0585,2.701792 l -0.0588,0.1414 c 0.21343,0.54264 -0.0529,1.13879 0.0518,1.64897 0.0474,0.2312 -0.0748,0.43373 -0.1542,0.6592 0.33973,0.49297 0.004,0.53501 0.025,0.93627 9.1e-4,0.0248 0.15896,0.22928 0.16986,0.2675 0.13547,0.47577 0.005,1.41586 0.0103,1.9394 l 0.0346,3.50812 c 0.0207,0.76047 0.12266,1.62795 0.0274,2.37887 -0.0533,0.42037 0.0333,0.73182 0.0369,1.13689 l -0.0717,2.99795 c 0.0112,0.73181 0.15496,1.51713 0.0751,2.24321 l -0.0229,0.19891 0.008,0.24667 c -0.14999,0.49642 -0.0183,0.76755 -0.0999,1.24352 -0.0433,0.25317 -0.0219,0.48418 -0.005,0.73926 -0.12534,0.49546 0.15306,0.50443 0.12956,0.82678 -0.008,0.11999 -0.12898,0.21438 -0.13586,0.33438 -0.002,0.0417 0.10796,0.23464 0.10223,0.26903 -0.0391,0.2377 -0.24343,0.0779 -0.14044,0.41674 0.0526,0.17311 0.0546,0.27858 0.0719,0.4515 l 0.0209,0.13356 c 0.0188,0.18325 0.0124,0.097 -0.0422,0.27343 -0.12974,0.41807 0.0226,0.95995 -0.12134,1.46611 l 0.0376,0.12725 c 0.17215,0.6015 -0.021,1.64113 0.30724,2.10125 l -0.11827,0.46506 c -0.0515,0.21114 -0.0296,0.39897 0,0.61067 0.04,0.28528 0.0248,0.59004 -0.0172,0.87397 -0.03,0.20236 0.0169,0.31032 0.0241,0.50444 l -0.0121,0.1821 c -0.0348,0.57055 0.055,1.21886 0.0503,1.81043 -0.004,0.44405 -0.12553,0.70927 0.003,1.1514 -0.13796,0.32598 0.12802,0.8371 0.0701,0.94238 -0.20654,0.377 -0.26808,0.15612 -0.24304,0.64718 0.007,0.13986 0.0564,0.22832 0.11846,0.35042 l -0.14159,0.26751 0.21038,0.60207 c -0.2161,0.38387 -0.17522,0.4473 -0.1263,0.86901 l 0.19203,0.13452 -0.0485,0.097 -0.0596,0.12746 -0.0518,0.10355 c -0.14826,0.40278 -0.12515,2.14424 0.0147,2.59021 0.30133,0.9609 -0.1842,2.11557 0.12344,3.09291 0.064,0.20369 0.009,0.24649 -0.0133,0.44941 l 0.0133,4.26803 c 0.0508,0.56366 -0.24954,0.95306 -0.005,1.51311 l -0.20387,0.33437 0.2203,0.24955 -0.17234,0.25566 0.0428,0.086 c 0.16758,0.42056 0.11101,1.00715 -0.0598,1.41491 0.0198,0.24036 0.25069,0.80384 0.2205,1.00409 -0.006,0.0403 -0.16145,0.2331 -0.16355,0.26769 -9.3e-4,0.0176 0.12094,0.16298 0.13489,0.20063 0.13872,0.37833 0.0703,1.82552 -0.0751,2.20747 l 0.20655,0.26905 -0.0617,0.1456 c -0.0739,0.18036 -0.076,0.33245 -0.10624,0.522 l -0.0541,0.20063 0.0617,0.12267 c 0.14007,0.30954 0.0428,0.87321 0.0429,1.21523 2e-4,1.1088 -0.0402,2.38958 0.0627,3.47793 0.0505,0.53424 -0.0376,1.066 0.004,1.60598 0.0883,1.1709 -0.21132,2.56135 0.16185,3.67932 l -0.17522,0.26751 c 0.072,0.21649 0.12726,0.23407 0.0383,0.45113 -0.13528,0.33075 -0.0357,0.69092 -0.10758,1.03715 l 0.0493,0.0659 c 0.21897,0.40757 0.0288,1.61114 0.0864,2.12474 0.0886,0.79087 -0.054,1.66159 -0.0536,2.46391 3.9e-4,0.71194 0.1628,1.46459 0.0202,2.15207 -0.0715,0.34489 0.0442,0.60073 0.0612,0.93664 0.0328,0.64411 -0.0376,1.29529 -0.0119,1.93978 0.0133,0.33553 0.10395,0.61202 0.0433,0.95213 -0.25641,1.43993 -0.0392,2.9261 -0.0378,4.37808 l 0.0603,12.19626 -0.0911,8.96462 c -0.0103,1.10039 -0.14216,2.24358 -0.0812,3.33864 0.0303,0.54609 0.35483,1.16269 0.51092,1.69845 l 0.15115,-52.50237 -0.0365,-5.60345 c -0.008,-0.15075 -0.003,-0.10758 0.0412,-0.27839 0.11178,-0.43737 0.004,-0.989 -0.003,-1.44031 -0.016,-1.17053 -0.13834,-2.71631 0.0662,-3.85016 0.10509,-0.58143 -0.0442,-1.44566 -0.0429,-2.05786 0.003,-1.57693 0.19318,-3.30692 0.0476,-4.8443 l 0.0383,-0.21706 c 0.0968,-0.48627 -0.0254,-1.00868 -0.0609,-1.49994 -0.0698,-0.96185 -0.15745,-2.29842 0.0243,-3.23583 0.0341,-0.17578 0.0352,-0.28298 0.0185,-0.45801 -0.17884,-1.8836 0.0968,-3.85644 -0.13202,-5.71139 l 0.0856,-0.15056 c 0.25776,-0.50042 0.12975,-1.41759 0.0124,-1.95202 l 0.14655,-0.23865 -0.12075,-0.415 c 0.25316,-0.43164 0.14979,-0.64716 0.0874,-1.11893 l -0.086,-0.40603 c 0.17923,-0.44387 0.0376,-0.73392 0.0705,-1.19919 0.0185,-0.26176 -0.0686,-0.52201 -0.0605,-0.79601 l 0.15745,-0.0124 -0.0131,-0.1735 c -0.0165,-0.24037 0.0735,-0.69742 0.0105,-0.89538 -0.0719,-0.22623 -0.19949,-0.0372 -0.10261,-0.35348 0.0634,-0.20655 0.0131,-0.24725 0.0307,-0.43375 l 0.0749,-0.2545 c -0.10681,-0.4324 -0.0536,-0.64297 0.14809,-1.03276 l -0.17217,-0.26942 0.12592,-0.13182 -0.16852,-0.26751 0.0617,-0.17579 c 0.16088,-0.52163 0.0391,-1.28593 -0.19145,-1.76362 0.0807,-0.21973 0.13832,-0.2675 0.0808,-0.50061 -0.0622,-0.25222 -0.079,-0.33247 0.047,-0.5694 -0.0977,-0.22738 -0.13184,-0.20255 -0.0605,-0.45093 0.0598,-0.21019 0.0217,-0.29044 0.003,-0.4968 l 0.0305,-0.49106 c 0.0117,-0.20636 -0.0405,-0.31528 -0.11789,-0.50252 l 0.0824,-0.44903 c 0.0311,-0.24266 -0.14714,-0.55794 -0.10949,-0.75475 0.0883,-0.46239 0.21113,-0.37641 -0.038,-0.87129 0.0753,-0.1796 0.15593,-0.26178 0.1091,-0.45476 -0.0664,-0.27515 -0.1433,-0.47577 -0.0259,-0.7471 l -0.17694,-0.53501 0.0728,-0.13374 c 0.14711,-0.29618 0.0504,-0.8006 0.12132,-1.15791 0.075,-0.37833 -0.14293,-0.39743 -0.13528,-0.64966 0.007,-0.23311 0.24247,-0.24266 0.17044,-0.5522 -0.04,-0.17198 -0.0417,-0.25986 -0.0145,-0.42801 l -0.14274,-0.29043 c 0.20005,-0.41654 -0.0716,-0.6764 0.009,-0.87129 0.0169,-0.0402 0.19662,-0.0841 0.2675,-0.29617 -0.2954,-0.37451 -0.25795,-1.03181 -0.21648,-1.50949 0.0222,-0.25413 0.008,-0.4624 -0.0241,-0.71652 -0.0338,-0.26751 -0.0357,-0.38215 0.0881,-0.61909 -0.0807,-0.39743 -0.0117,-0.77575 0.0468,-1.1388 0.0671,-0.41272 -0.30916,-0.72035 -0.13432,-1.26682 l -0.0367,-0.135662 c -0.0803,-0.31527 -0.11464,-0.69551 -0.008,-1.00505 -0.10815,-0.31909 0.0807,-0.43183 0.0163,-0.64775 -0.18342,-0.61716 0.10853,-1.12733 -0.047,-1.75978 l 0.0361,-0.086 c 0.0607,-0.1586 0.0779,-0.32674 0.12859,-0.49106 0.1133,-0.36496 -0.0179,-0.81208 -0.13089,-1.16366 0.1968,-0.29806 0.22087,-0.62862 0.1477,-0.98976 l -0.0448,-0.10699 c -0.124,-0.30764 -0.0311,-0.84073 -0.089,-1.19613 l 0.17466,-0.18152 -0.0294,-0.12802 c -0.0935,-0.48723 -0.0153,-0.52164 0.15534,-0.942 0.0259,-0.065 0.0102,-0.82735 -0.0167,-0.89996 -0.0137,-0.0362 -0.12439,-0.15285 -0.12286,-0.17005 0.0243,-0.29426 0.15992,-0.43564 0.14253,-0.80251 l -0.23674,-0.0439 0.23559,-0.0918 c 0.0986,-0.56176 -0.27266,-1.06809 -0.19986,-1.71584 l 0.20082,0.044 -0.0778,-0.27897 -0.13814,-0.0554 c -0.0102,-0.49106 -0.057,-1.00314 -0.0428,-1.49229 0.0149,-0.5159 0.18018,-0.9095 -0.0448,-1.41776 l 0.18783,-0.29999 c -0.13279,-0.27515 -0.1242,-0.36686 -0.11484,-0.66876 0.005,-0.14903 0.0417,-0.26177 0.0893,-0.40125 l -0.16355,-0.26751 c 0.0903,-0.21209 0.18457,-0.32483 0.13642,-0.55603 -0.0468,-0.22356 -0.0327,-0.11463 -0.0343,-0.29042 -9.1e-4,-0.16051 0.005,-0.0746 -0.052,-0.25796 -0.0638,-0.20636 -0.0348,-0.33438 -0.0489,-0.54073 l -0.0231,-0.0975 c -0.025,-0.13949 -0.009,-0.0975 0.0412,-0.27133 0.19489,-0.66494 -0.20025,-1.4216 0.0457,-2.06742 l 0.055,-0.15095 0.0442,-0.11656 c -0.15822,-0.35157 -0.12516,-0.36112 -0.0679,-0.72417 0.0323,-0.20445 -0.0257,-0.41272 -0.0663,-0.61334 l 0.23731,-0.40126 -0.29291,-0.0936 c -0.004,-0.23311 0.0285,-0.40125 0.0634,-0.62672 l 0.006,-0.10891 c 0.013,-0.1433 0.0707,-0.24649 0.13299,-0.37451 -0.0631,-0.214 -0.12114,-0.37832 -0.24361,-0.56367 -0.51286,0.005 -0.72743,-0.0439 -1.15773,0.26177 l 0.006,0.82927 z m 10.85548,40.081612 c -0.0838,-0.66684 -0.20062,-1.39674 0.072,-2.0273 l 0.0651,-0.14712 c -0.0742,-0.20826 -0.10356,-0.29234 -0.076,-0.51782 0.15897,-1.30312 0.0331,-2.79541 0.0334,-4.12146 0,-0.37833 -0.10546,-0.93435 0.0148,-1.28211 l 0.0474,-0.0994 c -0.14578,-0.51209 -0.14923,-1.19803 -0.0759,-1.72732 0.0917,-0.6592 0.15859,-1.45406 0.1307,-2.12282 l -0.0133,-0.29617 c 0.005,-0.18916 0.0421,-0.28661 -0.0195,-0.46814 -0.13222,-0.38978 -0.10184,-0.63627 -0.0288,-1.02989 0.0533,-0.28851 -0.14694,-0.34583 -0.14598,-0.64392 l 0.12553,-0.13375 -0.12535,-0.33437 c 0.19319,-0.37451 0.0412,-1.274472 0.0376,-1.731142 -0.0141,-1.77316 -0.12152,-3.69919 0.009,-5.45898 0.035,-0.47004 -0.0493,-0.90952 -0.0412,-1.37192 0.0153,-0.89039 0.13701,-1.75405 0.10548,-2.65019 -0.0323,-0.91142 -0.17713,-1.92029 -0.0504,-2.81834 0.022,-0.15478 0.0355,-0.20063 -0.005,-0.35922 -0.0489,-0.19107 -0.0431,-0.0669 -0.0189,-0.29617 0.0818,-0.77193 0,-1.69291 0.003,-2.48013 0.002,-0.43948 0.0975,-0.93818 0.0758,-1.36237 -0.0165,-0.32292 -0.0852,-0.41081 -0.0255,-0.76048 0.2549,-1.50184 0.0169,-3.39155 0.0204,-4.93544 9.2e-4,-0.42227 0.12152,-1.13498 0.0336,-1.52859 -0.0226,-0.10122 -0.22546,-0.33246 -0.29177,-0.42992 -0.36686,-0.0172 -0.56882,-0.086 -0.88601,0.11083 0.0412,0.58851 -0.0948,1.35471 0.006,1.89546 0.055,0.29425 0.10835,0.7662 -0.0227,1.04326 -0.068,0.1433 0.11273,1.00314 0.0675,1.33561 -0.0546,0.40126 -0.0841,1.04518 -0.0435,1.44643 0.0279,0.27705 0.0463,0.50253 -0.007,0.77575 l -0.0361,0.17771 0.065,0.18151 c 0.11884,0.47387 0.17465,3.29604 -0.0631,3.70875 l -0.0781,0.12038 0.14121,0.0669 -0.14961,0.53691 0.14961,0.0955 c 0.0839,0.66494 0.0147,1.39102 0.0283,2.06552 l 0.0198,5.37108 c -0.002,0.69742 -0.10469,1.56298 0.0126,2.2394 0.17655,1.02032 -0.0102,2.1534 -0.0137,3.18519 -0.005,1.404402 0.16738,2.932992 -0.0217,4.322112 -0.017,0.12611 -0.0315,0.20636 -0.0133,0.33628 0.21153,1.50376 0.0858,3.13744 0.0652,4.66412 l 0.0367,5.24689 c 0.004,0.82163 -0.11255,1.69292 -0.0133,2.50498 0.0446,0.36686 -0.0572,0.86175 0.0218,1.17511 0.0959,0.38406 0.039,0.87704 0.0481,1.27637 l -0.006,3.23222 0.0892,7.29463 c 0.008,0.88982 0.15878,1.95124 -0.0394,2.81374 -0.0336,0.14637 -0.076,0.25032 -0.0491,0.40088 0.10162,0.57131 -0.15019,1.10193 -0.0555,1.67209 0.14062,0.84894 0.14101,2.175 0.0478,3.03617 -0.0574,0.52851 -0.015,1.28974 0.0671,1.81482 0.0634,0.40603 9.2e-4,0.76602 0.009,1.17033 l 0.0686,3.74122 0.0555,8.42351 -0.16757,4.49197 0.0979,5.48534 c 0.005,0.59635 0.12172,1.21791 0.0724,1.80603 -0.0148,0.17617 -0.022,0.27572 0.007,0.45495 0.11503,0.69666 0.0603,1.47835 0.0686,2.19086 l -0.14024,6.51888 0.21705,7.29157 -0.0726,9.82847 c -0.002,0.21324 -0.10453,0.38119 -0.1093,0.59137 l 0.0262,6.95758 -0.0768,14.19108 c 0.37928,-0.49355 0.58583,-1.46669 0.88142,-2.068 -0.13795,-0.71271 0.10567,-1.46344 -0.002,-2.17403 -0.1435,-0.95061 -0.0398,-2.03362 -0.0513,-3.00197 l -0.0968,-5.39823 c -0.007,-0.57953 0.14368,-1.29223 0.0422,-1.84023 -0.0294,-0.15859 -0.0583,-0.21898 -0.008,-0.38292 l 0.0424,-0.0909 c -0.2117,-0.60818 -0.0585,-1.65967 -0.0653,-2.33263 l 0.009,-7.33571 c 0.005,-0.42036 0.16853,-1.09735 0.0646,-1.46956 -0.14102,-0.50501 -0.084,-1.13517 -0.0894,-1.6589 l 0.087,-4.07065 c 0.0157,-0.57608 0.11828,-1.27504 0.0164,-1.83029 -0.0319,-0.17484 -0.0774,-0.24152 -0.0305,-0.42438 0.11236,-0.43985 0.0433,-0.99034 0.0388,-1.44624 l -0.0384,-3.19132 -0.0283,-12.54172 c -0.005,-1.59738 -0.1947,-3.43781 0.004,-5.00767 0.0872,-0.68959 0.002,-1.34383 0.015,-2.03379 0.0109,-0.60322 0.14292,-1.27312 0.0438,-1.86679 -0.1091,-0.6531 0.005,-1.37574 0.0193,-2.03647 0.007,-0.38808 -0.0781,-0.7771 -0.0586,-1.16135 l 0.007,-8.41987 c 0.0121,-0.60189 -0.0929,-1.25574 -0.012,-1.84502 0.0352,-0.25736 -0.1326,-0.29253 -0.1347,-0.48341 -2e-4,-0.0231 0.14025,-0.20617 0.15114,-0.24553 0.0661,-0.24208 0.0512,-0.81684 -0.0126,-1.06142 -0.0428,-0.16393 -0.047,-0.0824 -0.027,-0.24438 0.0327,-0.2654 0.0207,-0.52564 0.0428,-0.79067 0.0185,-0.22049 0.0428,-0.30227 -0.0112,-0.52315 -0.0435,-0.1779 -0.0526,-0.13778 -0.0491,-0.29159 0.007,-0.32865 -0.14578,-1.21714 -0.0224,-1.46038 0.0243,-0.0478 0.19299,-0.17311 0.19469,-0.20063 0.002,-0.0257 -0.14711,-0.15055 -0.16929,-0.20062 -0.0288,-0.0653 -0.007,-0.38845 0.002,-0.46831 0.0212,-0.18573 0.0488,-0.23542 0.0214,-0.43508 -0.0662,-0.48209 0.11713,-1.24103 -0.0622,-1.64936 -0.0605,-0.13796 0.05,-0.63761 0.0923,-0.82525 0.051,-0.22623 -0.0607,-0.70526 -0.0712,-0.95576 -0.0153,-0.36495 0.0572,-0.72187 0.0533,-1.08471 -0.005,-0.46393 -0.12191,-0.91392 -0.0527,-1.37822 l 0.0433,-0.29044 0.0228,-0.13813 c -0.2289,-0.34241 -0.1819,-0.87016 -0.14655,-1.27103 0.0746,-0.84512 -0.10452,-1.74737 0.13318,-2.54129 0.12362,-0.41367 -0.2075,-0.67908 0.0477,-1.20414 -0.13126,-0.41387 -0.0235,-0.68291 -0.2012,-1.0704 l 0.13758,-0.2677 c -0.10873,-0.4643 -0.28146,-1.59737 -0.0938,-2.01774 0.19125,-0.42991 0.16814,-0.63436 0.087,-1.0872 l -0.0266,-0.1395 z m -14.31602,-2.7763 -0.23886,-0.26751 0.23886,0.26751 0.13317,0.13376 z m 7.75569,76.96253 -0.0259,-20.96236 0.0329,-10.11393 0.0103,-2.47136 c 0.004,-0.37259 0.0778,-0.87874 -0.0361,-1.23318 l -0.0417,-0.0951 c 0.18191,-0.40487 0.0946,-0.97542 0.0982,-1.41433 l 0.002,-4.04714 c -0.0881,-1.92582 0.0502,-3.82798 0.0589,-5.74846 9.3e-4,-0.26005 -0.1001,-0.49239 -0.10142,-0.73983 l 0.0285,-2.40811 c -9.1e-4,-0.47711 -0.0735,-1.04995 0.0276,-1.50814 0.0367,-0.16624 0.0836,-0.22414 0.0388,-0.40049 -0.11942,-0.46986 -0.0655,-1.04575 -0.071,-1.53128 l -0.007,-3.21291 c 0.005,-0.54991 0.0729,-1.20778 -0.0191,-1.74546 -0.0261,-0.15171 -0.0651,-0.231 -0.0294,-0.38884 0.12343,-0.54551 0.0367,-1.18809 0.0688,-1.74927 0.0498,-0.87532 0.20139,-1.95279 0.0235,-2.80879 -0.0953,-0.45935 -0.0524,-0.77042 0.0396,-1.22421 0.0486,-0.24038 0.0328,-0.18937 -0.0818,-0.38216 0.16394,-0.54188 -0.027,-1.2261 0.0212,-1.80602 0.0119,-0.14216 0.0229,-0.23216 0.0102,-0.37833 l -0.0167,-0.16317 c -0.0102,-0.16318 -0.004,-0.25146 -0.0593,-0.41139 l -0.0457,-0.1175 c 0.0984,-0.13031 0.12802,-0.18898 0.13547,-0.35808 l -0.0262,-0.97983 c -0.065,-0.58507 0.1842,-1.28115 0.0172,-1.80163 l -0.0495,-0.13834 c 0.19681,-0.50654 -0.005,-1.38548 -0.0644,-1.93959 0.29923,-0.42228 0.23368,-1.21333 0.23331,-1.72923 0,-0.16814 -2e-4,-0.31145 0.0324,-0.47959 0.0405,-0.20827 -0.0217,-0.21974 -0.12917,-0.39553 l 0.17541,-0.27322 c -0.055,-0.23694 -0.10471,-0.45095 -0.075,-0.69742 0.0277,-0.22739 -0.008,-0.23885 -0.1026,-0.43948 l 0.15228,-0.2675 c -0.15687,-0.3191 -0.2461,-0.97257 -0.1005,-1.30695 0.0891,-0.20445 -0.0103,-0.4089 -0.0603,-0.63245 l 0.15362,-0.20064 -0.14292,-0.19106 c -0.022,-0.52355 -0.072,-0.7452 0.19337,-1.21333 -0.0614,-0.10132 -0.12841,-0.20254 -0.16376,-0.31718 -0.12572,-0.40699 -0.1217,-0.52354 0.0865,-0.88659 l -0.14637,-0.20062 c 0.005,-0.35731 -0.0552,-0.58278 0.1626,-0.8713 -0.18571,-0.43756 -0.27189,-1.06047 -0.11617,-1.51713 l 0.0586,-0.15477 c -0.0998,-0.29808 -0.13069,-0.63054 -0.0233,-0.93053 0.0783,-0.21974 9.3e-4,-0.26368 -0.0855,-0.47387 l 0.12133,-0.26749 c -0.11311,-0.73564 0.27248,-1.54579 0.0507,-2.24131 -0.1049,-0.32864 -0.0245,-0.67066 -0.0381,-1.01269 -0.0465,-1.157902 -0.13089,-2.354032 -0.0999,-3.510032 0.0109,-0.40507 0.0686,-0.67258 -0.0133,-1.0853 l -0.0233,-0.11083 0.10356,-0.13757 0.12821,-0.12993 -0.19509,-0.13183 -0.008,-0.48724 0.008,-0.2828 c -0.0522,-0.41272 -0.12592,-0.88849 -0.0376,-1.30695 0.0935,-0.44137 0.10299,-0.94008 -0.0749,-1.37381 l -0.0508,-0.0975 c 0.28029,-0.48915 0.15954,-1.28784 0.0574,-1.8324 l -0.0355,-0.17388 0.0753,-0.0669 h 0.13241 c 0.0766,-0.32482 0.0909,-0.31336 -0.0674,-0.60187 0.10355,-0.21592 0.17769,-0.37069 0.13508,-0.61336 -0.0684,-0.3917 0.0394,-1.03944 -0.10091,-1.36427 l -0.0593,-0.0975 c 0.24821,-0.6573 0.0545,-1.67763 0.0195,-2.37887 l 0.27458,-0.0497 -0.14521,-0.17007 -0.0208,-0.34392 c -0.27055,-1.10632 0.003,-2.21074 -0.11446,-3.33043 -0.0912,-0.87129 0.0715,-1.89927 -0.0986,-2.73427 -0.0367,-0.17961 -0.0694,-0.2675 -0.0266,-0.45283 0.0583,-0.25414 0.10471,-0.48916 0.0612,-0.74902 -0.14809,-0.8885 0.26902,-1.96042 -0.27668,-2.73045 l -0.368,0.0115 -0.24324,0.28661 c -0.0485,0.50826 -0.0468,0.94772 0.046,1.45025 0.0431,0.23312 -0.0677,0.32292 -0.18304,0.52163 l 0.0671,0.16815 -0.18438,0.40126 0.23979,0.13375 c -0.0428,0.38979 0.0394,1.21141 -0.0875,1.53815 -0.009,0.0248 -0.13509,0.18725 -0.13662,0.20062 -0.0491,0.41463 0.2505,0.39552 0.0331,0.93627 0.18305,0.31145 0.18744,0.77767 0.12916,1.12733 -0.0507,0.30572 -0.0298,0.44711 0.0759,0.73564 l 0.0296,0.0783 -0.13528,0.10891 c -0.0226,0.20445 -0.0493,0.3191 0.035,0.5159 l 0.059,0.11082 c -0.11025,0.36687 -0.13681,0.59424 -0.0433,0.97257 0.0543,0.21783 -0.10299,0.24075 -0.12535,0.43183 -0.0155,0.13375 0.19509,0.38979 0.19472,0.53501 -9.3e-4,0.35348 0.0227,0.71271 -0.0722,1.07002 0.30189,0.51016 0.0898,7.32577 0.076,8.42827 l -0.12382,0.11273 -0.0131,0.28852 0.14712,0.0669 -0.0669,0.60379 -0.10071,0.13185 0.10071,-0.13185 c 0.0636,0.32293 0.10142,0.59998 0.0657,0.93053 -0.0165,0.15287 -0.0369,0.27515 -0.0191,0.428 0.0703,0.6019 0.20655,2.09036 -0.0822,2.58715 0.22986,0.29427 0.12687,0.777672 0.1498,1.134982 0.0235,0.36878 0.0696,0.82163 -0.0493,1.17511 l -0.044,0.0994 c 0.1735,0.59806 0.23178,2.60626 0.004,3.1126 l -0.06,0.0975 0.0605,0.13184 c 0.11769,0.2847 0.13413,0.97831 5.7e-4,1.24389 l -0.0679,0.0955 0.14464,0.40126 -0.15515,0.2675 0.0735,0.14713 c 0.14903,0.33056 0.14999,1.1923 -0.0188,1.51331 l -0.0853,0.14712 c 0.32637,0.3726 0.23828,2.62154 0.19548,3.21005 -0.014,0.19107 -0.095,0.36305 -0.0448,0.55029 0.12457,0.46623 -0.11121,0.94964 -0.0137,1.37382 0.0686,0.29999 0.0112,0.69169 -0.0543,0.99167 l -0.0372,0.16242 0.0522,0.0707 c 0.22737,0.43183 0.0319,1.84769 -0.0799,2.312 -0.0364,0.15285 0.0407,0.22165 0.10738,0.35921 -0.0724,0.55795 0.0963,1.09486 0.0188,1.66387 -0.0314,0.2293 -0.0468,0.40432 -0.0183,0.63475 0.0224,0.18229 0.0298,0.24171 -0.0157,0.43049 -0.0363,0.15 -0.057,0.11656 -0.0262,0.24764 l 0.0327,0.1003 c 0.0798,0.33056 0.0516,0.35845 -0.1001,0.65558 0.12706,0.21151 0.13068,0.33152 0.11769,0.56901 -0.008,0.15898 -0.0195,0.27572 0.009,0.43413 0.0305,0.17101 0.0277,0.065 0.0176,0.24495 -0.0231,0.41329 0.0627,0.66724 -0.14293,1.03965 0.18115,0.52182 0.21916,1.24904 0.18572,1.80602 -0.0197,0.32997 -0.15896,0.65423 -0.0661,0.98268 l 0.0505,0.15459 -0.1714,0.0875 c 0.16107,0.55814 0.33686,1.61801 0.14044,2.16182 l -0.0634,0.15897 c 0.18132,0.38769 0.0489,1.11091 0.0625,1.57674 0.0155,0.52775 0.0996,1.13307 0.012,1.64954 -0.0546,0.32235 -0.065,0.45954 0.0648,0.77004 l 0.0372,0.0835 c -0.0554,0.111 -0.0909,0.18419 -0.0965,0.31106 l -7.6e-4,0.1179 -0.05,1.37784 c -0.0261,0.39952 0.0735,0.68652 0.0955,1.07039 0.0355,0.62176 -0.0738,1.3081 0.017,1.92162 0.0947,0.63973 -0.15038,1.39103 -0.0686,1.95814 0.0429,0.29865 0.0852,0.37507 0.0283,0.69513 l -0.0203,0.10775 c 0.15191,0.28356 0.0898,0.41522 0.0831,0.71062 -0.014,0.60474 -0.0891,1.0786 0.0305,1.68088 0.0431,0.21858 -0.0237,0.28335 -0.10585,0.48494 l 0.12859,0.26751 c -0.0361,0.31374 0.0367,0.79792 -0.039,1.06963 -0.055,0.19795 -0.12306,0.20998 -0.13204,0.46889 h 0.14273 c 0.006,0.27267 0.0359,0.30038 -0.13242,0.50864 l 0.0677,0.22662 c 0.17655,0.50826 0.0622,1.12695 0.084,1.67304 l -0.1605,0.1068 c 0.0688,0.13204 0.15191,0.28166 0.18172,0.4284 0.0491,0.24152 0.006,0.84818 -0.11694,1.04784 l -0.0848,0.12823 c 0.1114,0.154 0.1972,0.30227 0.21917,0.4962 0.12897,1.14397 -0.1175,2.39206 -0.13318,3.54175 -0.0235,1.71088 0.24745,3.55322 0.0279,5.2469 -0.0321,0.24801 0.0324,0.29101 0.14045,0.50978 -0.17484,0.38407 -0.0507,0.5589 -0.0394,0.95883 0.0243,0.85314 0.0396,1.73628 -0.0241,2.58656 l 0.22413,28.60264 c -0.16605,1.62394 -0.21114,21.24896 0.0822,21.68424 l 0.10452,-0.0491 z m 10.24309,57.16153 h -0.25431 z m -3.21194,-1.47184 h -0.24171 z m 8.29757,-0.66895 h -0.26501 z m -7.49449,-0.8027 h -0.2335 z m 8.15274,-0.26751 -0.25412,-0.13375 z M 119.1536,241.1014 h -0.24553 z m 0.13375,-0.26769 h -0.25548 z m 0.13376,-0.2675 h -0.26485 z m -3.64857,-6.68951 h -0.17694 z m 0.12363,-0.2675 h -0.167 z m -1.21656,0 h -0.1972 z m 1.34286,-0.26769 h -0.16604 z m -1.74241,-0.53521 h -0.20941 z m -0.13279,-0.26749 h -0.21037 z m -0.1393,-0.26751 h -0.19719 z m -3.86295,-0.13394 h -0.22317 z m 3.7336,-0.13376 h -0.1928 z m -3.87748,-0.13375 h -0.21304 z m 3.75022,-0.13375 h -0.20196 z m -7.71327,-0.13375 h -0.24669 z m 7.57818,-0.13395 h -0.19891 z m -7.71194,-0.13374 h -0.2631 z m 7.5801,-0.13376 h -0.20387 z m -7.71385,-0.13375 h -0.26503 z m -0.13394,-0.26769 h -0.26503 z m -0.8029,-1.60541 h -0.26502 z m -0.13394,-0.2675 -8.810041,-17.48253 -3.20393,-6.27028 c -0.41426,-0.80022 -0.75189,-1.64744 -1.24008,-2.40295 -0.50806,-0.78665 -0.79563,-1.76304 -1.22421,-2.60033 l -1.10059,-2.10888 c -0.17616,-0.31985 -0.41901,-0.56844 -0.54703,-0.90932 -0.35274,-0.93874 -0.98155,-2.14977 -1.58077,-2.94789 -0.0931,-0.12382 -0.12859,-0.21936 -0.18381,-0.35998 -0.49087,-1.24868 -1.53336,-3.17642 -2.45358,-4.12013 0.59749,1.89793 1.58897,3.66938 2.48816,5.43873 l 3.49991,6.85402 10.680081,20.43365 2.43371,4.67578 c 0.26045,0.50099 0.60323,1.43152 1.02627,1.78616 z m 14.00171,-0.93665 h -0.16775 z m 0.45209,-9.23137 h -0.22108 z m -2.25295,-1.73934 0.0487,-21.07166 -0.0448,-5.9657 c -0.009,-0.72781 -0.20159,-1.64783 0.051,-2.32921 -0.0529,-0.1624 -0.12687,-0.26788 -0.0798,-0.43506 0.0807,-0.28451 0.11293,-0.49661 0.1005,-0.7901 -0.005,-0.11196 0.005,-0.20674 0.0176,-0.31756 0.0833,-0.75513 -0.0543,-1.56165 -0.0446,-2.32461 0.0439,-3.38144 -0.24707,-6.77358 -0.0975,-10.15253 l 0.0265,-4.91136 c -0.004,-0.27344 0.13892,-0.56692 0.0617,-0.76507 -0.0963,-0.24725 -0.044,-0.44597 -0.0135,-0.69952 0.0309,-0.26024 -0.0477,-0.5052 -0.0229,-0.7792 0.0748,-0.81895 -0.07,-1.74451 -0.0703,-2.58351 -5.7e-4,-1.97113 0.15707,-4.03473 0.009,-5.94279 l 0.0505,-0.2675 c 0.0672,-0.41808 -0.0327,-0.9118 -0.0417,-1.33791 -0.005,-0.2054 0.12954,-0.30648 0.12897,-0.50023 -0.002,-0.52392 -0.094,-1.05033 -0.0746,-1.57349 0.0183,-0.48915 0.19719,-1.08282 0.11732,-1.55783 -0.0907,-0.54074 0.0252,-1.21275 -0.004,-1.78005 -0.007,-0.14273 9.3e-4,-0.22871 0.0217,-0.36552 0.10472,-0.70831 -9.1e-4,-1.55687 0.0499,-2.29576 0.0128,-0.18572 0.0974,-0.66531 0.0369,-0.82409 -0.0169,-0.0442 -0.16643,-0.2505 -0.16528,-0.2677 0.002,-0.0336 0.18706,-0.2184 0.20273,-0.26751 0.0888,-0.28011 -0.0552,-0.73582 0.0296,-1.07039 l -0.0531,-0.0981 c -0.12726,-0.33839 0.0267,-0.78799 0.0193,-1.15199 -0.0102,-0.4836 -0.11388,-0.96377 -0.13357,-1.44643 l -0.015,-4.7973 c -2e-4,-0.54455 -0.13146,-1.53929 0.10142,-2.00513 l -0.0559,-0.17025 c -0.0667,-0.21686 -0.0493,-0.38501 -0.0303,-0.60628 0.0124,-0.14521 -0.006,-0.26903 -0.0207,-0.41348 -0.0382,-0.39094 -0.0392,-0.65404 0.11426,-1.01766 l -0.10795,-0.23369 0.14674,-0.0439 -0.0129,-0.26407 -0.16376,0.006 c 0.017,-0.1689 0.0479,-0.30762 0.10243,-0.46832 l -0.0541,-0.16585 c -0.0957,-0.31909 -0.0633,-0.72895 0.0546,-1.0383 l -0.0422,-0.0988 c -0.13146,-0.42744 0.004,-1.05912 -0.003,-1.5135 -0.0298,-2.14729 -0.24075,-4.4652 0.0167,-6.5928 l -0.065,-0.11179 c -0.10394,-0.24037 -0.05,-0.46316 -0.0248,-0.71385 l 0.0622,-0.57399 c 0.0357,-0.22146 0.0151,-0.3382 -0.0481,-0.55449 -0.0759,-0.25891 -0.0611,-0.38101 -0.0259,-0.64086 0.20044,-1.48236 -0.18381,-3.15005 0.16871,-4.58502 -0.0707,-0.17197 -0.11961,-0.21591 -0.0864,-0.40125 0.0655,-0.36686 0.0971,-0.58469 -0.0248,-0.93818 0.0845,-0.28279 -0.0518,-0.6592 0,-0.80825 0.0133,-0.0381 0.20215,-0.2312 0.2077,-0.26177 0.0267,-0.13756 -0.12248,-0.1968 -0.0612,-0.39743 0.049,-0.16049 0.0238,-0.2503 -0.0126,-0.40889 l 0.11006,-0.19681 -0.2438,-0.20254 c 0.0805,-0.2656 0.11139,-0.86366 0.18151,-1.00697 0.12879,-0.26558 0.0688,-0.83499 0.0803,-1.13115 l -0.18917,-0.20062 c 0.17369,-0.44521 0.0172,-0.34204 0.0245,-0.73564 0.005,-0.26177 0.20674,-0.21591 0.0831,-0.63819 -0.0625,-0.21209 -0.0208,-0.23311 -9.1e-4,-0.43182 l -0.006,-0.10132 c -0.005,-0.13947 0.0433,-0.23311 0.0951,-0.35922 l -0.24935,-0.27515 c 0.072,-0.1414 0.16986,-0.25412 0.15497,-0.41081 -0.0135,-0.14521 0.0269,-0.24839 0.0631,-0.38596 0.0688,-0.25986 0.12285,-0.48916 -0.04,-0.7299 l -0.0655,-0.0803 c -0.0336,-0.2675 -0.0568,-0.41081 0.0481,-0.66877 l -0.0317,-0.10699 c -0.072,-0.25414 -0.14101,-0.43375 -0.0585,-0.69552 -0.0974,-0.21591 -0.16967,-0.2503 -0.10184,-0.48342 0.11924,-0.41081 -0.0191,-0.91907 -0.013,-1.34516 0.0334,-2.29862 -0.0911,-4.656462 0.10261,-6.934072 l -0.21036,-0.13566 0.0623,-0.14523 c 0.0762,-0.18725 0.0667,-0.32291 0.0701,-0.52162 l 0.0165,-0.19681 c 0.0135,-0.16432 0.005,-0.31337 -0.008,-0.47577 -0.16012,-2.12285 -0.007,-4.36032 0.0304,-6.48506 0.006,-0.38788 -0.10854,-0.69169 -0.0415,-1.09104 0.0622,-0.36876 -0.0572,-0.80633 -0.0566,-1.18465 9.2e-4,-0.92289 -0.0731,-2.2069 0.11483,-3.07629 l -0.009,-0.20636 c -0.0153,-0.24075 -0.0336,-0.13185 0.038,-0.30955 0.0999,-0.25031 0.057,-0.59233 0.0507,-0.86174 l -0.1433,-0.0936 c 0.0529,-0.34776 -0.1605,-0.41464 -0.077,-0.7108 0.07,-0.24839 0.0124,-0.3917 -0.0694,-0.62864 l 0.20445,-0.8025 -0.0535,-0.0726 c -0.0888,-0.12803 -0.0585,-0.0859 -0.12878,-0.26369 l 0.17922,-0.13184 c 0.0135,-0.25412 -0.12381,-0.29043 -0.12954,-0.46812 -0.005,-0.18152 0.19068,-0.21783 0.0738,-0.40508 -0.18669,-0.3019 -0.19031,-0.45667 -0.18993,-0.7987 3.8e-4,-0.59423 0.1137,-1.41204 -0.0455,-1.96615 l 0.1349,-0.26177 c -0.28509,-0.19298 -0.49833,-0.17578 -0.82601,-0.17197 l -0.23389,0.25986 0.1001,1.4063 -0.14103,0.065 c 0.0527,0.34774 0.18535,0.81206 0.0546,1.14262 -0.19261,0.48533 0.25413,1.35663 0.0864,1.73495 -0.10184,0.22929 -0.24076,-0.0286 -0.0669,0.34775 l 0.0465,0.0822 c 0.0865,0.20254 -0.0102,0.5522 -0.0191,0.77194 -0.0267,0.63818 -0.0865,1.44261 0.005,2.06359 0.0293,0.19681 -0.0193,0.29809 -0.0921,0.4796 0.0846,0.17961 0.13087,0.21019 0.10413,0.41081 -0.0524,0.39552 0.0576,0.75474 -0.12305,1.12734 l 0.0543,0.12229 c 0.17313,0.42992 0.0508,1.30886 0.044,1.78845 l 0.0261,4.35839 c -0.005,0.77577 -0.16872,1.79228 0.0124,2.53174 0.0733,0.29998 0.0283,0.74901 0.029,1.0681 l -0.0409,0.28471 c -0.11329,0.85792 0.24114,1.93367 -0.0442,2.75719 l 0.0565,0.1242 c 0.13413,0.33438 0.0674,1.5114 -0.0431,1.88208 0.25259,0.500622 -0.14714,0.884682 0.0268,1.316502 0.0914,0.22929 0.0613,0.40317 0.0324,0.63819 -0.0634,0.52163 -0.12286,1.89163 -0.005,2.35976 0.10489,0.41272 0.0664,1.06811 -0.008,1.49038 -0.0646,0.36496 0.002,0.81398 -0.0611,1.21906 -0.0609,0.3936 0.0151,0.69169 0.11847,1.07001 -0.0677,0.19108 -0.11158,0.20445 -0.0446,0.40126 0.0979,0.28661 0.0313,0.66303 -0.0776,0.93817 l 0.0671,0.0955 c 0.32503,0.6573 -0.1582,1.69101 -0.066,2.37888 0.0254,0.18916 0.1263,0.18152 0.0946,0.40698 -0.0577,0.41464 -0.11121,0.83118 -0.0122,1.24008 0.0703,0.29042 -0.0302,0.64583 -0.005,0.9611 0.055,0.67066 0.17788,2.8814 -0.10142,3.41258 0.27514,0.57513 -0.0529,1.62795 0.0514,2.33722 0.0376,0.25585 -0.11464,0.88926 -0.0794,0.97544 0.1454,0.35424 0.14598,0.49736 0.12037,0.86136 -0.0121,0.16967 3.8e-4,0.31967 0.0245,0.48704 0.0731,0.50712 -0.0931,1.02989 0.005,1.5307 0.094,0.48399 0.0526,1.40649 -0.0274,1.88418 -0.0584,0.35023 0.10891,0.6741 0.0147,1.02872 -0.15916,0.59941 0.19662,1.503 -0.0565,2.13317 l 0.052,0.17979 c 0.0577,0.2098 0.0394,0.34068 0.0269,0.55622 -0.016,0.27897 0.0143,0.51819 -0.0518,0.79429 -0.0744,0.30879 0.0929,0.59386 0.012,0.95996 -0.0367,0.16623 -0.0141,0.30553 0.004,0.4729 0.0305,0.2847 0.0596,0.52393 -0.0131,0.80616 l 0.0581,0.1775 -0.034,0.26158 c -0.0671,0.41807 0.0785,0.54839 0.0946,0.8757 0.009,0.19107 -0.12822,0.1582 -0.0633,0.41806 0.10929,0.43832 -0.11732,0.90875 -0.0451,1.37058 0.0719,0.45934 -0.13013,0.83557 0.0826,1.28841 l -0.0207,0.0999 c -0.0791,0.45934 -0.052,0.78703 -0.005,1.23797 0.0329,0.31163 -0.0541,0.56443 0.0309,0.88295 0.0638,0.23904 0.0224,0.31469 -0.0348,0.54189 -0.1003,0.39916 0.0208,0.91314 -0.0243,1.33655 -0.0329,0.30688 0.0699,0.63017 0.0655,0.94698 -0.005,0.38272 -0.14713,0.86327 -0.039,1.22115 0.0888,0.29407 -0.006,0.63723 -0.0661,0.92996 -0.0444,0.22011 0.0124,0.35271 0.0772,0.56252 l -0.0431,0.12248 c -0.0522,0.1989 5.7e-4,0.25202 0.0353,0.43717 0.0386,0.20579 -0.0498,0.44578 -0.10471,0.6443 l 0.17923,0.27554 c -0.0898,0.17827 -0.1414,0.19394 -0.0981,0.39399 0.072,0.33248 -0.11732,0.67431 -0.0659,0.96932 0.14043,0.8029 -0.005,1.79476 0.21419,2.57911 0.0603,0.21553 0.007,0.39151 -0.0293,0.6059 -0.0285,0.167 0.002,0.29521 0.005,0.46088 l -0.0583,0.80767 -0.0229,0.39189 c -9.2e-4,0.16317 -0.0281,0.31279 -0.0565,0.4729 l 0.0864,0.12 c 0.32884,0.50233 0.11216,2.80038 0.0191,3.45806 -0.0243,0.17254 -7.7e-4,0.24992 0.0324,0.41443 0.14886,0.73488 0.02,1.60694 0.0317,2.36456 l 0.0162,8.09217 0.12859,4.40215 0.0107,25.72316 -0.0102,11.76042 c 0.0103,2.09665 -0.0367,4.2854 0.11254,6.37137 0.0226,0.3147 0.11159,0.54093 0.23693,0.82467 0.0994,0.22489 0.1072,0.42113 0.0998,0.66265 z m 12.69018,-2.80955 h -0.24363 z m 0.11751,-0.26751 h -0.20177 z m 9.38594,-2.6758 h -0.26502 z m -12.17868,-6.6895 h -0.21687 z m 0.12936,-0.26751 h -0.22107 z m 0.12228,-0.2677 h -0.21572 z m 7.61411,-0.535 h -0.20769 z m 0.12821,-0.2677 h -0.19374 z m 0.1391,-0.26749 h -0.19853 z m 0.14369,-0.2677 h -0.20999 z m 0.14235,-0.26751 h -0.22031 z m 0.12095,-0.2675 h -0.20903 z m 0.1286,-0.2677 h -0.19949 z m 0.13967,-0.26749 h -0.19967 z m 0.13948,-0.26751 h -0.20387 z m 0.81628,-1.6056 h -0.2291 z m -55.670581,-3.21101 h -0.26216 z m -0.13108,-0.26749 h -0.26502 z m 61.385221,-0.13376 h -0.21247 z m -36.35891,-5.8868 h -0.2184 z m 47.8717,-0.8027 h -0.20407 z m 0.13662,-0.2675 h -0.19643 z m 0.13719,-0.2677 h -0.19853 z m 0.13566,-0.26751 h -0.21763 z m 0.12764,-0.2675 h -0.22719 z m -79.725091,-1.20414 h -0.23177 z m -0.13375,-0.2677 h -0.23311 z m -0.13394,-0.2675 h -0.23827 z m 53.130631,-0.93646 -0.26502,-0.13394 z m -21.4129,-2.67579 h -0.26485 z m 3.59638,-4.41516 -0.24781,-0.2675 z m -0.0294,-0.535 -0.0661,-0.4112 -0.15363,0.0111 0.005,0.40622 z m -1.45369,-16.05481 -0.1307,-0.26253 -0.10757,-0.004 0.0467,0.26559 z m -2.11328,-7.49221 h -0.20216 z m 0,-0.53519 -0.26025,-0.13375 z m 17.74027,-2.40811 h -0.20579 z m -17.90364,-16.58982 -0.30267,-0.13394 c 0.0929,0.0451 0.20178,0.11426 0.30267,0.13394 z M 120.30044,117.748 h -0.20751 z m 6.88286,-17.39347 h -0.26501 z m -17.7993,-4.948822 -0.26503,-0.13376 z m -3.3459,-0.40126 h -0.25203 z m 1.87367,-4.95073 h -0.19928 z m 16.05958,-0.535 h -0.26482 z m 0.082,-0.66876 h -0.21305 z m -17.88128,-0.93818 h -0.26503 z m 17.88892,-0.13375 -0.22202,-0.13184 z m 2.97427,-0.53501 h -0.25069 z m -14.30554,-0.535 h -0.26501 z m -6.55765,0 h -0.19585 z m 1.43191,-0.40126 -0.35865,-0.13376 z m 20.05743,-9.09704 -0.12554,-0.35922 -0.16681,-0.042 0.11215,0.36686 z m -15.19938,-2.00628 h -0.19623 z"
     id="path2"
     style="stroke-width:0.191075" />
  <path
     d="m 114.12224,257.60542 0.14576,0.26767 z"
     id="path3"
     style="stroke-width:0.187834" />
  <path
     d="m 113.98024,257.35317 0.142,0.25225 z"
     id="path4"
     style="stroke-width:0.187834" />
  <path
     d="m 121.19435,257.35974 0.18933,-0.31255 z"
     id="path5"
     style="stroke-width:0.187834" />
  <path
     d="m 113.86622,257.21154 0.11402,0.14163 z"
     id="path6"
     style="stroke-width:0.187834" />
  <path
     d="m 125.0299,250.3806 0.1435,-0.27179 z"
     id="path7"
     style="stroke-width:0.187834" />
  <path
     d="m 125.1734,250.10881 0.13149,-0.2624 z"
     id="path8"
     style="stroke-width:0.187834" />
  <path
     d="m 125.30489,249.84641 0.13768,-0.25564 z"
     id="path9"
     style="stroke-width:0.187834" />
  <path
     d="m 125.44257,249.59077 0.102,-0.13881 z"
     id="path10"
     style="stroke-width:0.187834" />
  <path
     d="m 126.51791,247.44928 -0.12397,0.16003 z"
     id="path11"
     style="stroke-width:0.187834" />
  <path
     d="m 105.17405,239.97258 0.16567,0.17299 z"
     id="path12"
     style="stroke-width:0.187834" />
  <path
     d="m 91.915649,215.56026 c 0.46695,0.46169 0.76016,1.15498 1.09845,1.7183 l 3.62537,6.7235 1.76131,3.00157 3.268491,6.17897 2.33082,4.29142 c 0.40948,0.77444 0.95157,1.652 1.17396,2.49856 -0.41662,-0.33472 -0.82703,-1.17959 -1.1302,-1.64786 -1.55507,-2.40277 -2.84097,-4.92912 -4.185671,-7.44909 l -1.94445,-3.48995 -2.36332,-4.43042 c -0.27874,-0.51654 -0.47653,-1.07535 -0.80655,-1.56258 -0.51185,-0.75567 -0.7936,-1.71399 -1.20026,-2.53369 -0.42976,-0.86591 -1.60297,-2.35862 -1.62795,-3.29873 z"
     id="path13"
     style="stroke-width:0.187834" />
  <path
     d="m 91.851979,215.38689 -0.0949,-0.13092 z"
     id="path14"
     style="stroke-width:0.187834" />
  <path
     d="m 91.500349,214.73417 c 0.14877,0.14745 0.18689,0.32795 0.25677,0.5218 l -0.25433,-0.22314 z"
     id="path15"
     style="stroke-width:0.187834" />
  <path
     d="m 91.353649,214.47027 0.1467,0.2639 z"
     id="path16"
     style="stroke-width:0.187834" />
  <path
     d="m 91.243589,214.31661 0.11006,0.15366 z"
     id="path17"
     style="stroke-width:0.187834" />
  <path
     d="m 91.099319,214.07224 0.14427,0.24437 z"
     id="path18"
     style="stroke-width:0.187834" />
  <path
     d="m 90.832979,213.55007 c 0.20587,0.18726 0.19986,0.24718 0.26634,0.52217 -0.17486,-0.21263 -0.23516,-0.25338 -0.26634,-0.52217 z"
     id="path19"
     style="stroke-width:0.187834" />
  <path
     d="m 90.691169,213.301 0.14181,0.24907 z"
     id="path20"
     style="stroke-width:0.187834" />
  <path
     d="m 90.595179,213.15468 0.096,0.14632 z"
     id="path21"
     style="stroke-width:0.187834" />
  <path
     d="m 125.76677,205.7208 c 0.0873,-0.047 0.15891,-0.0468 0.25639,-0.0575 l -0.1852,0.45212 -0.30241,-0.0246 z"
     id="path22"
     style="stroke-width:0.187834" />
  <path
     d="m 76.869829,186.18953 -0.10913,-0.136 z"
     id="path23"
     style="stroke-width:0.187834" />
  <path
     d="m 76.478199,185.64631 c 0.14858,0.092 0.20004,0.25545 0.2825,0.40722 -0.11739,-0.1328 -0.24737,-0.23122 -0.2825,-0.40722 z"
     id="path24"
     style="stroke-width:0.187834" />
  <path
     d="m 166.87184,179.096 0.13767,-0.13937 z"
     id="path25"
     style="stroke-width:0.187834" />
  <path
     d="m 167.00951,178.95663 0.12923,-0.13092 z"
     id="path26"
     style="stroke-width:0.187834" />
  <path
     d="m 127.69206,172.22525 -0.1172,0.15459 z"
     id="path27"
     style="stroke-width:0.187834" />
  <path
     d="m 108.30148,163.10839 0.22821,0.13148 z"
     id="path28"
     style="stroke-width:0.187834" />
  <path
     d="m 108.3659,148.14859 -0.12697,0.16323 z"
     id="path29"
     style="stroke-width:0.187834" />
  <path
     d="m 124.39184,146.32717 -0.1067,0.14333 z"
     id="path30"
     style="stroke-width:0.187834" />
  <path
     d="m 110.53124,121.21857 -0.12115,-0.15439 z"
     id="path31"
     style="stroke-width:0.187834" />
  <path
     d="m 120.95974,115.13634 0.0197,0.19723 z"
     id="path32"
     style="stroke-width:0.187834" />
  <path
     d="m 108.23367,94.653128 0.25676,0.28551 z"
     id="path33"
     style="stroke-width:0.187834" />
  <path
     d="m 124.51487,91.890098 -0.13092,-0.26297 z"
     id="path34"
     style="stroke-width:0.187834" />
  <path
     d="m 127.66201,91.561398 0.20699,0.13148 z"
     id="path35"
     style="stroke-width:0.187834" />
  <path
     d="m 124.29003,91.495648 0.0939,0.13148 z"
     id="path36"
     style="stroke-width:0.187834" />
  <path
     d="m 108.36515,79.100538 -0.16248,0.16342 z"
     id="path37"
     style="stroke-width:0.187834" />
  <path
     d="m 127.57203,78.871378 0.12116,0.15214 z"
     id="path38"
     style="stroke-width:0.187834" />
  <path
     d="m 110.28838,75.734558 0.11081,-0.15214 z"
     id="path39"
     style="stroke-width:0.187834" />
  <path
     d="m 110.37289,74.896828 0.0798,0.0676 -0.0147,0.28927 -0.0735,-0.0413 z"
     id="path40"
     style="stroke-width:0.187834" />
</svg>
