<?xml version="1.0" encoding="UTF-8" standalone="no"?>
<!-- Created with Inkscape (http://www.inkscape.org/) -->

<svg
   width="63mm"
   height="88mm"
   viewBox="0 0 63 88"
   version="1.1"
   id="svg1"
   inkscape:version="1.3.2 (091e20e, 2023-11-25, custom)"
   xml:space="preserve"
   sodipodi:docname="card-hitlocation-leg-right.svg"
   xmlns:inkscape="http://www.inkscape.org/namespaces/inkscape"
   xmlns:sodipodi="http://sodipodi.sourceforge.net/DTD/sodipodi-0.dtd"
   xmlns="http://www.w3.org/2000/svg"
   xmlns:svg="http://www.w3.org/2000/svg"><sodipodi:namedview
     id="namedview1"
     pagecolor="#ffffff"
     bordercolor="#000000"
     borderopacity="0.25"
     inkscape:showpageshadow="2"
     inkscape:pageopacity="0.0"
     inkscape:pagecheckerboard="0"
     inkscape:deskcolor="#d1d1d1"
     inkscape:document-units="mm"
     inkscape:zoom="1.4627806"
     inkscape:cx="95.366321"
     inkscape:cy="226.62319"
     inkscape:window-width="1350"
     inkscape:window-height="1017"
     inkscape:window-x="228"
     inkscape:window-y="0"
     inkscape:window-maximized="0"
     inkscape:current-layer="g1" /><defs
     id="defs1" /><g
     inkscape:label="Layer 1"
     inkscape:groupmode="layer"
     id="layer1"><g
       id="g1"
       transform="matrix(0.06087197,0,0,0.06087197,0.03359486,0.54402301)"><path
         id="path2"
         style="fill:none;stroke:#e6e6e6;stroke-width:4.92837673;stroke-dasharray:none;stroke-opacity:1"
         d="m 1391.6509,-253.84691 -160.1191,67.85874 4.0095,46.34564 c 3.1078,24.93373 8.3331,50.29656 14.2485,74.71362 6.5783,27.15173 16.8669,54.57665 28.3464,80.08104 25.2826,56.183327 80.5002,145.30098 63.9356,208.81448 -0.5058,1.94207 -1.048,3.79756 -1.8323,5.64763 -7.7088,18.20396 -24.4909,32.59553 -33.4983,50.20428 -7.0382,13.7517 -8.3051,29.60083 -10.2606,44.68593 l -6.5317,59.8398 c -0.7193,10.03794 -3.0863,21.09827 -0.6897,30.93319 l 4.5268,4.50505 c 7.8144,-1.49838 15.8808,-6.81252 20.9957,-12.91198 3.2729,-22.21247 4.9999,-59.4237 24.2722,-73.78672 2.9673,-2.20986 3.2087,-2.03801 6.8333,-1.76753 10.3705,20.42461 10.8724,45.66296 3.8586,66.97482 -4.593,13.95456 -12.314,30.6658 -20.7587,42.76745 -7.5412,10.80603 -25.8644,24.56769 -29.424,36.73169 -0.5992,2.0448 -0.037,6.2426 -0.042,8.51467 4.0221,4.78225 4.3717,5.48567 10.3684,6.96261 41.2766,-12.11528 95.5496,-41.74831 116.8127,-79.84395 6.1997,-11.11162 9.769,-24.41819 11.5326,-36.96881 l 0.4095,-2.71609 c 2.0071,-14.61724 -0.9595,-31.3996 -2.2633,-46.06557 -1.9151,-21.51446 -3.0556,-42.69256 -2.3282,-64.302 l 8.6874,-108.51352 c 9.6618,-110.370313 17.9133,-223.29354 -16.5983,-330.41257 -8.6367,-26.80342 -20.2583,-53.63162 -34.4898,-78.2919 z" /><path
         id="path5"
         style="fill:none;stroke:#e6e6e6;stroke-width:4.92837673;stroke-dasharray:none;stroke-opacity:1"
         d="m 1065.2262,-833.27619 17.8916,374.0639 c 23.0051,63.03926 62.7058,115.4149 89.7598,155.07488 l 35.1149,49.62217 c 6.1402,8.36626 15.6323,18.59041 19.4652,28.21694 3.0323,7.61165 2.3609,19.04854 2.9532,27.22549 l 1.1209,13.08464 160.1191,-67.85874 c -2.4383,-4.22508 -4.7928,-8.53405 -7.3938,-12.6104 l -18.4951,-27.22541 c -2.2234,-3.14854 -6.8069,-7.97122 -8.0621,-11.2739 -1.0765,-2.83466 -0.53,-9.67439 -0.7113,-12.89055 l -2.4359,-35.43824 c -3.8382,-36.06703 -10.8132,-72.45695 -23.4314,-106.55207 -10.7357,-28.99908 -24.1351,-57.92639 -39.5772,-84.73721 -6.5593,-11.38489 -16.3622,-22.74802 -21.6853,-34.46832 -1.6799,-3.69486 -1.5091,-7.74769 -1.5091,-11.70491 0,-68.11184 -19.5389,-140.95853 -69.2168,-190.10375 -28.0632,-27.75754 -67.8388,-47.78047 -107.4573,-50.95867 -6.4739,-0.5216 -18.7777,-0.0661 -26.4494,-1.46585 z" /><path
         id="path3"
         style="fill:none;stroke:#e6e6e6;stroke-width:4.92837673;stroke-dasharray:none;stroke-opacity:1"
         d="M 200.28598,-166.78158 28.61285,-235.05005 c -5.97116,12.88712 -11.15948,26.10405 -15.43423,39.83582 -13.88683039,44.60897 -19.7212104,91.83984 -23.21595,138.28269 -5.89396,78.36319 -3.08611,155.998228 2.7591896,234.25052 l 7.54465001,78.16262 c 1.89604999,31.3686 -5.21549001,61.16822 -5.49682001,92.10947 -0.27588,30.27298 9.4097403,61.22559 28.2601004,84.95286 20.19745,25.42312 59.210707,53.1191 91.91538,57.49027 2.96461,0.39752 4.77486,0.0766 7.54466,-0.88388 2.36409,-4.14941 2.3792,-4.37452 0.99158,-8.96738 C 120.74677,471.1162 111.0365,460.39079 105.84849,452.22461 85.172387,419.67133 68.529247,377.42594 81.921167,339.11946 l 4.09569,-3.08251 c 7.31936,2.283 12.459777,8.46212 15.886863,15.13247 10.09729,19.6455 3.09805,51.96156 22.95729,65.16431 5.29889,0.51115 5.56442,0.67391 10.41162,-2.24185 9.4509,-23.16747 4.73979,-102.92996 -5.13037,-126.34074 -6.56738,-15.57457 -18.24003,-26.79837 -26.4494,-41.17216 -23.500023,-41.1468 -11.912643,-91.57924 4.2897,-132.85053 24.70371,-62.931953 64.15897,-118.6702301 82.49535,-184.49909 8.72712,-31.32832 8.05399,-63.96906 9.80807,-96.01094 z" /><path
         id="path6"
         style="fill:none;stroke:#e6e6e6;stroke-width:4.92837673;stroke-dasharray:none;stroke-opacity:1"
         d="m 382.21983,-838.36338 c -0.10145,0.043 -0.22264,0.15295 -0.32335,0.19394 -6.5107,2.65084 -20.77804,0.67902 -28.36788,1.37965 -10.36247,0.95477 -20.75528,3.16296 -30.73907,6.05727 -60.91398,17.65198 -111.59754,62.87929 -135.13545,121.94306 -9.21831,23.1322 -13.7762,48.82189 -16.81382,73.46344 l -3.68609,43.62962 c -0.30565,4.00323 0.18585,12.54031 -1.20714,16.03772 -3.98971,10.00804 -16.88971,22.7182 -23.08664,32.39889 -18.38237,28.7124 -33.69573,59.63267 -44.750556,91.89392 -9.659187,28.19023 -15.734027,57.3157 -20.456787,86.69875 -3.49474,21.75545 -5.81761,44.92819 -12.09298,66.06961 -3.65163,12.3018 -15.726727,24.38294 -22.353717,35.5676 -5.40908,9.12686 -10.18944,18.47502 -14.5935,27.97986 l 171.67313,68.26847 c 1.39752,-25.52893 4.30053,-50.68698 14.98149,-74.43347 11.44444,-25.44489 37.2837,-45.98488 54.2568,-68.4192 25.99058,-34.35173 78.97719,-104.178 99.76186,-144.01661 z" /><path
         id="path4"
         style="fill:none;stroke:#e6e6e6;stroke-width:4.92837673;stroke-dasharray:none;stroke-opacity:1"
         d="m 1098.8968,1012.0807 -213.81528,3.406 c -0.9591,8.7543 -1.7078,17.5602 -2.6729,26.2339 -4.6714,41.9799 -9.5681,85.3674 -5.3675,127.5909 7.9334,79.6582 46.3083,152.5159 62.3835,230.9309 6.4025,31.2144 12.0755,62.6865 13.1276,94.6313 0.8629,26.1566 -1.3537,53.0953 1.0348,79.0895 1.6987,18.5014 7.12398,36.4083 10.02348,54.6663 2.54,15.9861 -3.0776,34.8399 -6.44518,50.6355 -6.911,32.3777 -14.9426,66.3787 -15.93,99.5679 -0.3246,10.9276 -0.9132,22.383 1.8323,33.067 2.1235,8.2502 5.9275,16.1398 12.3733,21.9012 5.45568,4.8959 12.44308,7.5221 19.50818,9.1184 17.8415,4.0301 38.6202,3.1081 56.9514,3.4058 26.7052,0.4056 54.8449,1.7617 81.3957,-0.97 8.2744,-0.8386 19.2551,-4.4969 24.8975,-10.9075 6.2131,-7.0597 5.8566,-19.2158 4.8072,-28.0878 -4.0952,-34.4866 -23.6076,-60.9064 -39.5556,-90.471 -19.2695,-35.7588 -38.7734,-81.1109 -41.7758,-121.6845 -1.9907,-26.9136 -0.1827,-55.0697 0.8623,-82.0642 2.5589,-66.216 8.0691,-135.9017 24.4876,-200.2783 11.7691,-46.1185 32.6608,-93.2307 36.042,-140.8908 3.8333,-54.0044 -6.8044,-107.7137 -24.1646,-158.8905 z" /><path
         id="path7"
         style="fill:none;stroke:#e6e6e6;stroke-width:4.92837673;stroke-dasharray:none;stroke-opacity:1"
         d="m 552.06069,1019.6039 -213.49206,-9.1398 c -14.83997,48.9209 -25.55511,101.2041 -22.00883,150.5696 3.69208,51.4741 20.91097,101.6879 32.46356,151.7556 16.26442,70.4884 23.93558,139.8647 27.39786,212.0046 1.11983,23.3701 3.28758,47.8191 1.81071,71.1351 -1.00082,15.8239 -5.08884,31.7672 -10.99364,46.4535 -11.83378,29.4564 -27.65196,58.7288 -41.5171,87.3453 -13.16205,27.1842 -28.92573,48.8651 -31.01933,80.5123 -0.41656,6.3295 -0.92047,14.2904 1.61671,20.2413 2.89696,6.8161 9.04416,8.9702 15.71444,11.0799 25.55303,8.0336 140.61668,9.132 162.27466,-2.9316 10.91696,-6.086 16.88023,-17.1299 19.93946,-28.8422 10.04317,-38.3812 -3.90569,-90.7618 -11.98524,-128.8195 -3.24314,-15.2558 -7.96522,-31.5302 -7.19975,-47.2727 1.07116,-21.9636 9.35403,-43.9056 11.1014,-66.328 1.95833,-25.1556 -0.28969,-50.8944 0.77603,-76.1581 1.93401,-45.8198 10.59825,-91.8701 21.68547,-136.2563 15.04736,-60.2381 42.22431,-117.7499 49.64383,-179.6922 6.13926,-51.2893 -1.71712,-104.3733 -6.20818,-155.6568 z" /><path
         id="path9"
         style="fill:none;stroke:#e6e6e6;stroke-width:4.92837673;stroke-dasharray:none;stroke-opacity:1"
         d="M 980.058,28.64641 467.19413,19.42034 c -0.52806,3.52637 -1.06961,6.70799 -1.68138,8.70861 -3.07815,10.075577 -9.71659,20.130737 -13.88215,30.027777 L 415.56718,148.95123 C 393.66172,209.14745 373.235,272.21406 359.30564,335.41192 L 1078.5264,357.4637 C 1069.2511,311.69269 1057.276,266.20941 1042.4199,221.12118 1022.4551,160.5319 997.92803,101.11039 982.4292,39.122617 981.5518,35.6142 980.8475,32.13943 980.058,28.64641 Z" /><path
         id="path10"
         style="fill:none;stroke:#e6e6e6;stroke-width:4.92837673;stroke-dasharray:none;stroke-opacity:1"
         d="m 988.6804,-275.01504 -544.0771,-10.15301 c 1.46866,2.86711 2.93525,5.7328 4.54838,8.40693 23.28727,79.32425 27.58158,91.7959 24.63865,175.76885 -0.60779,17.29464 -2.25127,91.3982199 -6.5962,120.41261 L 980.058,28.64641 c -12.2721,-54.28799 -14.2757,-106.92503 -11.6835,-162.96451 2.6832,-57.99266 7.3828,-52.96392 17.288,-124.03411 1.0259,-6.1245 2.0142,-11.55905 3.0179,-16.66283 z" /><path
         id="path11"
         style="fill:none;stroke:#e6e6e6;stroke-width:4.92837673;stroke-dasharray:none;stroke-opacity:1"
         d="m 1075.8318,-611.37714 -700.91953,-9.65723 -5.62614,167.38351 c 0.46995,-0.90079 1.37484,-2.19201 1.81072,-3.06097 9.32359,18.52557 20.68878,68.77341 33.26114,85.36232 17.88185,23.59028 26.19425,58.75142 40.24531,86.18146 l 544.0771,10.15301 c 7.65963,-38.94835 16.1107,-52.16967 47.2942,-98.68413 33.5253,-50.00772 42.5195,-83.01521 46.7121,-86.61248 0.1349,0.37321 0.295,0.72648 0.4311,1.09936 z" /><path
         id="path12"
         style="fill:none;stroke:#e6e6e6;stroke-width:4.92837673;stroke-dasharray:none;stroke-opacity:1"
         d="m 605.1104,-968.196 c -0.0127,0.0319 -0.008,0.31642 -0.0215,0.34489 -52.56919,41.22759 -113.46398,62.4769 -171.02645,95.06255 -11.8799,6.72433 -23.13279,14.35584 -34.27427,22.22434 -5.10261,3.60355 -11.86804,9.76003 -17.56825,12.20084 l -7.30757,217.32901 700.91964,9.65723 -10.6057,-221.89905 c -1.2806,-0.23358 -3.356,-0.11882 -4.268,-0.49577 -4.7065,-1.94751 -10.3411,-6.86006 -14.7014,-9.72184 -11.4875,-7.53852 -22.8627,-15.34913 -34.8562,-22.07346 l -80.79238,-42.46562 c -34.9118,-17.37598 -69.2582,-33.86178 -99.2662,-59.23626 l 0.022,-0.92686 z" /><path
         id="path1"
         style="fill:none;stroke:#e6e6e6;stroke-width:4.92837673;stroke-dasharray:none;stroke-opacity:1"
         d="m 721.33024,-1433.5716 c -5.74508,-0.2598 -11.70993,-0.5358 -17.4389,0.043 -39.28048,4.7524 -75.28626,19.7222 -100.19288,51.7347 -30.57618,39.2967 -33.85576,114.248 -27.76434,162.598 -3.6489,3.6381 -4.80415,1.7516 -8.36378,3.7939 -5.45307,3.1268 -7.57962,11.6936 -7.60933,17.4604 -0.0622,12.1423 3.10873,23.6233 5.4106,35.4383 4.01406,20.614 6.70893,48.5218 22.97884,63.5691 2.56695,2.3722 5.72181,4.2114 8.88113,5.6693 1.99334,12.2292 5.86385,117.42924 2.54364,125.06872 h 226.2533 l 2.6082,-80.72772 c 0.2219,-12.126 -2.2066,-33.2538 1.9833,-44.2979 l 1.5951,-1.4012 c 19.2453,-17.1922 23.0779,-38.9811 28.1739,-62.987 2.4939,-11.742 5.4275,-23.7924 5.9063,-35.8048 0.2786,-6.9245 0.7372,-13.4898 -3.1686,-19.5514 -3.0322,-2.264 -6.2199,-4.4084 -8.8166,-7.1782 3.0756,-54.885 4.1685,-123.7752 -34.4682,-167.3618 -24.5199,-27.6604 -61.7872,-44.4156 -98.51168,-46.0656 z" /><path
         id="path13"
         style="fill:none;stroke:#e5e5e5;stroke-width:4.92837673;stroke-dasharray:none;stroke-opacity:1"
         d="m 715.73785,346.34204 0.008,0.89987 27.32726,0.11036 2.60624,38.11725 c 13.89764,132.49035 48.06687,266.00023 87.53383,393.03209 16.47528,53.02705 41.23723,104.78286 51.87001,159.36237 4.9961,25.6388 2.8396,51.70999 0,77.62672 l 213.81311,-3.4127 c -5.4729,-16.13363 -11.5372,-32.03902 -18.1248,-47.59142 l -16.2316,-37.68427 c -2.6344,-6.12399 -6.7363,-13.63235 -7.5046,-20.15375 -2.1476,-18.25558 1.3203,-38.66724 4.355,-56.64952 l 22.7006,-108.85912 c 23.6737,-129.0361 20.0017,-257.49195 -5.5691,-383.67682 z" /><path
         id="path8"
         style="fill:none;stroke:#000000;stroke-width:4.92837673;stroke-dasharray:none;stroke-opacity:1"
         d="m 359.3034,335.40774 c -2.61526,11.86542 -5.40789,23.73892 -7.49611,35.5959 -8.10659,46.04235 -10.50052,92.42219 -11.6474,139.08125 -1.02787,41.8446 -1.11334,84.82542 2.29212,126.55096 l 16.97873,133.63108 c 7.06516,42.68086 19.07167,84.99264 16.0449,128.7497 -1.57157,22.71287 -13.91867,43.84405 -21.49507,65.03705 -5.34865,14.9635 -10.58704,30.51779 -15.40819,46.41132 l 213.49053,9.1431 c -0.0896,-1.023 -0.19339,-2.0856 -0.28015,-3.1071 -1.89328,-22.26143 -4.70275,-45.29752 -1.87615,-67.62632 3.21342,-25.37223 12.16776,-51.45296 20.4339,-75.57234 l 32.26807,-94.54605 58.44078,-222.3704 c 15.00663,-69.9589 27.54586,-137.59364 30.50229,-209.24585 z"
         sodipodi:nodetypes="cccccccccccccccc" /><g
         id="body"
         transform="matrix(1.0609646,0,0,1.0609646,7.086179,-420.6043)"><path
           fill="#37b2df"
           d="m 283.17389,596.49529 c 7.29878,0.33206 8.88162,-0.0804 16.00924,0.0851 0.24196,2.35569 0.33325,4.67189 0.92537,6.98158 0.21806,0.85086 0.4925,1.77406 0.99588,2.50285 l 16.01311,4.53618 4.00828,1.04672 c 1.93273,0.46715 3.81933,0.85727 5.56272,1.86704 2.18883,1.26767 3.9146,3.27912 5.0637,5.51213 1.77008,3.43983 1.78687,7.37701 2.35122,11.1269 l -11.04878,5.03231 -1.42198,0.67869 c -0.29486,0.12678 -0.63934,0.21975 -0.90678,0.39192 l -0.59345,3.61479 -1.32044,5.61984 -2.38781,8.10544 -3.20945,9.55447 c -1.97909,6.59701 -2.50721,13.63264 -1.22409,20.41476 0.87817,4.64136 2.58945,9.06653 4.01324,13.55455 -0.13414,0.19564 -0.56192,0.36106 -0.78083,0.47331 -1.10697,0.56509 -2.26054,1.03232 -3.43657,1.43319 -7.0731,2.41002 -14.30448,3.24558 -21.75211,3.10431 -8.13756,-0.15454 -16.27934,-1.50682 -23.6363,-5.12186 0.49613,-0.95869 0.87937,-2.02123 1.25632,-3.03428 l 1.8831,-5.71358 c 0.89796,-3.03667 1.66371,-6.12763 1.94359,-9.28991 0.87418,-9.87668 -3.30531,-19.13342 -6.39017,-28.24646 -1.3144,-3.88248 -2.30932,-7.96381 -3.19666,-11.96352 l -0.36234,-2.37887 c -1.65985,-0.59948 -3.27817,-1.56409 -4.86979,-2.33418 l -8.36781,-4.052 0.69873,-5.17419 c 0.85173,-5.06344 3.15536,-9.80089 8.12778,-11.8773 2.24013,-0.93552 4.81304,-1.44191 7.16087,-2.06228 l 11.29691,-3.18688 3.34118,-0.99709 c 0.80258,-0.24161 1.7562,-0.45013 2.43888,-0.93551 1.45398,-2.80425 1.72577,-6.15811 1.81524,-9.2682 z"
           id="path5-3"
           sodipodi:nodetypes="ccccccccccccccccccccccccscccccccccccc"
           style="fill:none;stroke:#000000;stroke-width:2.10451;stroke-dasharray:none;stroke-opacity:1" /><path
           fill="#26A4D4"
           d="m 291.26778,657.48848 0.0627,0.0529 0.0441,34.39004 -0.0811,0.1627 c -0.12182,-0.92567 -0.0889,-1.92401 -0.11397,-2.85943 l -0.14428,-3.72601 -0.23966,-11.24502 0.22097,-8.86765 0.14825,-5.96255 c 0.0297,-0.65042 -0.0152,-1.30151 0.10303,-1.94505 z"
           id="path6-7"
           style="fill:#6f838b;fill-opacity:1;stroke-width:0.0990362;stroke-dasharray:none" /><path
           fill="#26A4D4"
           d="m 320.65964,629.12126 c -0.14503,1.18222 -0.44555,2.36517 -0.73139,3.52033 -0.29654,1.19846 -0.60848,2.45583 -1.09383,3.59369 -0.39492,0.92548 -0.96492,1.81969 -1.46818,2.69177 -1.54792,2.68216 -3.10979,5.22674 -5.37214,7.38061 -3.03293,2.88755 -6.79305,4.3086 -10.97477,4.21251 l -0.067,-0.0393 -0.0154,-0.0762 0.80173,-0.21946 c 4.45387,-1.19413 8.3186,-3.98271 11.14747,-7.59696 2.0068,-2.56394 3.57192,-5.48384 5.08832,-8.35467 z"
           id="path7-7"
           style="fill:#768084;fill-opacity:1;stroke-width:0.123795;stroke-dasharray:none" /><path
           fill="#26A4D4"
           d="m 260.34705,627.90946 c 0.25767,0.30548 0.40388,0.99081 0.55385,1.37381 l 1.14271,2.73433 c 0.81392,1.81983 1.66491,3.62625 2.65596,5.35758 2.92933,5.11694 6.90406,10.40111 12.73109,12.34639 0.86705,0.28943 1.82695,0.54564 2.73252,0.67255 0.78048,0.10927 1.5775,0.12774 2.33998,0.33457 l -1.21309,0.0885 c -4.54064,0.21251 -9.08406,-1.42355 -12.44396,-4.47471 -3.16985,-2.8785 -5.15847,-6.66571 -6.66209,-10.61978 -0.93322,-2.45445 -1.71502,-5.17864 -1.83697,-7.81324 z"
           id="path8-0"
           style="fill:#6c858e;fill-opacity:1;stroke-width:0.120743" /><text
           xml:space="preserve"
           style="font-style:normal;font-variant:normal;font-weight:normal;font-stretch:normal;font-size:113.547px;font-family:Amiri;-inkscape-font-specification:'Amiri, Normal';font-variant-ligatures:normal;font-variant-caps:normal;font-variant-numeric:normal;font-variant-east-asian:normal;fill:#000000;fill-opacity:1;stroke:#000000;stroke-width:0.215296;stroke-dasharray:none;stroke-opacity:1;paint-order:markers fill stroke"
           x="339.74225"
           y="684.15222"
           id="text1"><tspan
             sodipodi:role="line"
             id="tspan1"
             x="339.74225"
             y="684.15222"
             style="stroke-width:0.215296">Body: -1</tspan></text><path
           id="rect1"
           d="m 282.50527,648.92026 h 17.61435 l -5.26564,1.30119 -0.49288,12.72354 -7.11349,-0.0649 -0.0833,-12.65856 z"
           sodipodi:nodetypes="ccccccc"
           style="stroke-width:2.53663" /><path
           style="fill:#000000;fill-opacity:1;stroke-width:2.10969"
           id="path2-6-0"
           sodipodi:type="arc"
           sodipodi:cx="291.00009"
           sodipodi:cy="624.9527"
           sodipodi:rx="8.5723772"
           sodipodi:ry="8.5723772"
           sodipodi:start="0.027304543"
           sodipodi:end="6.2831853"
           sodipodi:open="true"
           sodipodi:arc-type="arc"
           d="m 299.56927,625.18673 a 8.5723772,8.5723772 0 0 1 -8.74471,8.33655 8.5723772,8.5723772 0 0 1 -8.39605,-8.68761 8.5723772,8.5723772 0 0 1 8.6301,-8.45515 8.5723772,8.5723772 0 0 1 8.51386,8.57218" /><path
           style="fill:#000000;fill-opacity:1;stroke-width:2.10969"
           id="path2-6-0-7"
           sodipodi:type="arc"
           sodipodi:cx="282.51749"
           sodipodi:cy="640.08997"
           sodipodi:rx="8.5723772"
           sodipodi:ry="8.5723772"
           sodipodi:start="0.027304543"
           sodipodi:end="6.2831853"
           sodipodi:open="true"
           sodipodi:arc-type="arc"
           d="m 291.08667,640.324 a 8.5723772,8.5723772 0 0 1 -8.74472,8.33655 8.5723772,8.5723772 0 0 1 -8.39604,-8.68761 8.5723772,8.5723772 0 0 1 8.63009,-8.45515 8.5723772,8.5723772 0 0 1 8.51386,8.57218" /><path
           style="fill:#000000;fill-opacity:1;stroke-width:2.10969"
           id="path2-6-0-9"
           sodipodi:type="arc"
           sodipodi:cx="299.66608"
           sodipodi:cy="640.08997"
           sodipodi:rx="8.5723772"
           sodipodi:ry="8.5723772"
           sodipodi:start="0.027304543"
           sodipodi:end="6.2831853"
           sodipodi:open="true"
           sodipodi:arc-type="arc"
           d="m 308.23526,640.324 a 8.5723772,8.5723772 0 0 1 -8.74472,8.33655 8.5723772,8.5723772 0 0 1 -8.39604,-8.68761 8.5723772,8.5723772 0 0 1 8.63009,-8.45515 8.5723772,8.5723772 0 0 1 8.51386,8.57218" /><path
           sodipodi:type="star"
           style="fill:#000000"
           id="path1-99"
           inkscape:flatsided="false"
           sodipodi:sides="3"
           sodipodi:cx="-4.2679658"
           sodipodi:cy="5.2618756"
           sodipodi:r1="0.76004869"
           sodipodi:r2="0.33594152"
           sodipodi:arg1="1.5707963"
           sodipodi:arg2="2.6179939"
           inkscape:rounded="0"
           inkscape:randomized="0"
           d="m -4.2679658,6.0219243 -0.2909339,-0.5920779 -0.3672876,-0.5479951 0.6582215,0.044083 0.6582215,-0.044083 -0.3672876,0.5479951 z"
           inkscape:transform-center-y="0.21087664"
           transform="matrix(4.5466021,0,0,4.5466021,310.29061,582.85793)" /><path
           sodipodi:type="star"
           style="fill:#000000"
           id="path1-7"
           inkscape:flatsided="false"
           sodipodi:sides="3"
           sodipodi:cx="-4.2679658"
           sodipodi:cy="5.2618756"
           sodipodi:r1="0.76004869"
           sodipodi:r2="0.33594152"
           sodipodi:arg1="1.5707963"
           sodipodi:arg2="2.6179939"
           inkscape:rounded="0"
           inkscape:randomized="0"
           d="m -4.2679658,6.0219243 -0.2909339,-0.5920779 -0.3672876,-0.5479951 0.6582215,0.044083 0.6582215,-0.044083 -0.3672876,0.5479951 z"
           inkscape:transform-center-y="-0.1986054"
           transform="matrix(2.1410252,4.0109351,-4.0109351,2.1410252,320.82082,620.19352)"
           inkscape:transform-center-x="0.014034468" /><path
           sodipodi:type="star"
           style="fill:#000000"
           id="path1-9"
           inkscape:flatsided="false"
           sodipodi:sides="3"
           sodipodi:cx="-4.2679658"
           sodipodi:cy="5.2618756"
           sodipodi:r1="0.76004869"
           sodipodi:r2="0.33594152"
           sodipodi:arg1="1.5707963"
           sodipodi:arg2="2.6179939"
           inkscape:rounded="0"
           inkscape:randomized="0"
           d="m -4.2679658,6.0219243 -0.2909339,-0.5920779 -0.3672876,-0.5479951 0.6582215,0.044083 0.6582215,-0.044083 -0.3672876,0.5479951 z"
           inkscape:transform-center-y="0.0047987713"
           transform="matrix(-0.05177666,-4.5463077,4.5463077,-0.05177666,263.24506,591.48829)"
           inkscape:transform-center-x="-0.2066996" /><path
           sodipodi:type="star"
           style="fill:#000000"
           id="path1-5"
           inkscape:flatsided="false"
           sodipodi:sides="3"
           sodipodi:cx="-4.2679658"
           sodipodi:cy="5.2618756"
           sodipodi:r1="0.76004869"
           sodipodi:r2="0.33594152"
           sodipodi:arg1="1.5707963"
           sodipodi:arg2="2.6179939"
           inkscape:rounded="0"
           inkscape:randomized="0"
           d="m -4.2679658,6.0219243 -0.2909339,-0.5920779 -0.3672876,-0.5479951 0.6582215,0.044083 0.6582215,-0.044083 -0.3672876,0.5479951 z"
           inkscape:transform-center-y="0.024724087"
           transform="matrix(-0.26655543,4.5387818,-4.5387818,-0.26655543,316.77845,631.68679)"
           inkscape:transform-center-x="0.18910257" /></g></g></g></svg>
