<?xml version="1.0" encoding="UTF-8" standalone="no"?>
<svg
   width="63mm"
   height="88mm"
   version="1.1"
   id="svg132"
   sodipodi:docname="card-trauma-rage.svg"
   viewBox="0 0 975.48891 1362.5877"
   inkscape:version="1.3.2 (091e20e, 2023-11-25, custom)"
   xmlns:inkscape="http://www.inkscape.org/namespaces/inkscape"
   xmlns:sodipodi="http://sodipodi.sourceforge.net/DTD/sodipodi-0.dtd"
   xmlns="http://www.w3.org/2000/svg"
   xmlns:svg="http://www.w3.org/2000/svg">
  <defs
     id="defs132" />
  <sodipodi:namedview
     id="namedview132"
     pagecolor="#ffffff"
     bordercolor="#000000"
     borderopacity="0.25"
     inkscape:showpageshadow="2"
     inkscape:pageopacity="0.0"
     inkscape:pagecheckerboard="0"
     inkscape:deskcolor="#d1d1d1"
     inkscape:zoom="1.1450488"
     inkscape:cx="282.52071"
     inkscape:cy="347.14678"
     inkscape:window-width="1920"
     inkscape:window-height="1017"
     inkscape:window-x="-8"
     inkscape:window-y="-8"
     inkscape:window-maximized="1"
     inkscape:current-layer="svg132"
     inkscape:document-units="mm" />
  <g
     id="g1"
     transform="matrix(1.0002239,0,0,0.84912065,-227.24883,34.870259)">
    <path
       fill="#af1613"
       d="m 461.16123,652.42104 c 2.56653,-3.12101 6.14616,-5.35639 10.22627,-5.76015 4.01835,-0.39765 7.92893,0.78519 11.04533,3.35574 3.22021,2.6563 5.20029,6.52172 5.58451,10.66457 0.37196,4.0101 -0.89963,8.14599 -3.47952,11.24073 l -23.33381,23.51814 -15.36322,-15.5709 3.63398,0.0134 11.69975,11.95503 c 0.24492,-0.17777 0.46411,-0.44137 0.67826,-0.65592 l 1.20217,-1.2047 4.25912,-4.24794 10.14427,-10.14134 3.0463,-3.04114 c 1.11112,-1.11234 2.22372,-2.16855 3.07867,-3.50103 1.88486,-2.93766 2.38752,-6.44509 1.65165,-9.83401 -0.74255,-3.4199 -2.74177,-6.34953 -5.69247,-8.24005 -2.64969,-1.69769 -5.9675,-2.41777 -9.0636,-1.7252 -4.12997,0.92379 -7.08392,3.61388 -9.28401,7.10435 l -0.0802,-0.037 z"
       id="path2"
       style="stroke-width:0.0681122" />
    <path
       fill="#e7342a"
       d="m 445.84079,679.86917 -7.69367,-7.87095 c -2.67216,-2.91792 -3.96793,-6.86188 -3.78279,-10.7901 0.18833,-3.99681 1.94793,-7.94344 4.92075,-10.64394 2.98617,-2.7125 6.8456,-4.12582 10.88008,-3.92074 3.32407,0.16892 6.65155,1.52388 9.12007,3.76203 0.44803,0.40617 0.88579,0.8318 1.28547,1.28596 0.20011,0.22742 0.36536,0.48407 0.56941,0.70693 l 0.0211,0.0227 -0.0465,3.89254 0.0802,0.037 c 2.20008,-3.49046 5.15403,-6.18054 9.284,-7.10434 3.09611,-0.69257 6.41392,0.0275 9.06361,1.7252 2.95067,1.89052 4.9499,4.82015 5.69247,8.24006 0.73588,3.38891 0.23322,6.89634 -1.65166,9.83401 -0.85493,1.33247 -1.96754,2.38868 -3.07866,3.50103 l -3.0463,3.04113 -10.14428,10.14134 -4.25911,4.24795 -1.20218,1.20469 c -0.21415,0.21456 -0.43334,0.47815 -0.67826,0.65594 l -11.69975,-11.95504 z"
       id="path3"
       style="stroke-width:0.0681122" />
    <path
       fill="#ef957e"
       d="m 442.91348,673.17642 -0.039,-0.0157 c -0.13541,-0.0683 -0.26993,-0.21592 -0.38334,-0.31924 l -0.89343,-0.864 c -0.51724,-0.50124 -1.07358,-0.9704 -1.56576,-1.49622 -1.16519,-1.24454 -2.07462,-2.86512 -2.62285,-4.4753 -1.07719,-3.16407 -0.87096,-6.77633 0.62309,-9.77584 1.49873,-3.00886 4.17874,-5.39938 7.37523,-6.47099 3.06614,-1.02787 6.42589,-0.79596 9.32835,0.64795 2.29545,1.14197 3.91154,2.81065 5.38488,4.87587 0.21843,0.30624 0.62737,0.74045 0.74357,1.08639 l -0.0331,-0.0227 c -0.62533,-0.43476 -1.17439,-0.94157 -1.82887,-1.34439 -2.6589,-1.63646 -5.88012,-2.19989 -8.94706,-1.66835 -3.19433,0.55362 -5.97622,2.40014 -7.82805,5.045 -1.83235,2.61707 -2.56081,6.11006 -1.99698,9.24621 0.35534,1.97675 1.26566,4.09605 2.6834,5.55126 z"
       id="path4"
       style="stroke-width:0.0681122" />
    <text
       xml:space="preserve"
       style="font-style:normal;font-variant:normal;font-weight:normal;font-stretch:normal;font-size:148.144px;font-family:Amiri;-inkscape-font-specification:'Amiri, Normal';font-variant-ligatures:normal;font-variant-caps:normal;font-variant-numeric:normal;font-variant-east-asian:normal;fill:#d15151;fill-opacity:1;stroke:#000000;stroke-width:0.269287;stroke-dasharray:none;stroke-opacity:1;paint-order:markers fill stroke"
       x="546.08429"
       y="735.26105"
       id="text1"><tspan
         sodipodi:role="line"
         id="tspan1"
         x="546.08429"
         y="735.26105">Will: -1</tspan></text>
    <rect
       style="fill:#ef957e;fill-opacity:1;stroke:none;stroke-width:0.499792;paint-order:markers fill stroke"
       id="rect1"
       width="53.548679"
       height="2.2158067"
       x="434.49335"
       y="658.38293" />
    <path
       fill="#37b2df"
       d="m 451.8193,621.49996 c 9.12913,0.41534 11.10891,-0.10056 20.02396,0.10644 0.30265,2.94642 0.41682,5.84348 1.15743,8.73237 0.27275,1.06425 0.61602,2.21895 1.24563,3.13052 l 20.02884,5.67374 5.0134,1.3092 c 2.4174,0.5843 4.7771,1.07225 6.9577,2.33525 2.7378,1.58558 4.8963,4.10145 6.3336,6.89444 2.214,4.30246 2.235,9.22697 2.9408,13.91725 l -13.8195,6.29428 -1.7786,0.84889 c -0.3688,0.15858 -0.7997,0.27486 -1.1342,0.49022 l -0.7422,4.52128 -1.6516,7.02915 -2.98662,10.1381 -4.0143,11.95049 c -2.4754,8.25136 -3.13596,17.05139 -1.53106,25.53428 1.09839,5.80527 3.23882,11.34021 5.01966,16.95369 -0.16778,0.24465 -0.70284,0.45156 -0.97665,0.592 -1.38457,0.70679 -2.82743,1.29124 -4.29838,1.79263 -8.84685,3.01439 -17.89169,4.05946 -27.20701,3.88277 -10.17825,-0.19331 -20.3618,-1.88475 -29.56369,-6.40633 0.62054,-1.19912 1.09989,-2.52811 1.57137,-3.79519 l 2.35534,-7.14634 c 1.12315,-3.7982 2.08093,-7.66434 2.43099,-11.6196 1.0934,-12.35357 -4.13421,-23.93164 -7.99266,-35.33 -1.64403,-4.85611 -2.88845,-9.96094 -3.9983,-14.96369 l -0.45321,-2.97542 c -2.0761,-0.74983 -4.10025,-1.95633 -6.09102,-2.91955 l -10.46625,-5.06814 0.87396,-6.47174 c 1.06531,-6.33323 3.94665,-12.25872 10.16603,-14.85583 2.8019,-1.17013 6.02002,-1.80351 8.95663,-2.57946 l 14.12989,-3.98607 4.17907,-1.24714 c 1.00385,-0.30219 2.19661,-0.563 3.05049,-1.17011 1.8186,-3.50748 2.15855,-7.70241 2.27046,-11.59242 z"
       id="path5"
       sodipodi:nodetypes="ccccccccccccccccccccccccscccccccccccc"
       style="fill:none;stroke:#f19494;stroke-width:2.63227;stroke-dasharray:none;stroke-opacity:1" />
    <path
       fill="#26A4D4"
       d="m 461.94295,697.78874 0.0784,0.0662 0.0552,43.01425 -0.1015,0.20348 c -0.15236,-1.15785 -0.11118,-2.40653 -0.14255,-3.57649 l -0.18045,-4.66046 -0.29976,-14.06493 0.27638,-11.09147 0.18543,-7.45781 c 0.0372,-0.81352 -0.019,-1.6279 0.12886,-2.43282 z"
       id="path6"
       style="fill:#6f838b;fill-opacity:1;stroke-width:0.121114" />
    <path
       fill="#26A4D4"
       d="m 498.70556,662.30772 c -0.1814,1.4787 -0.5573,2.95829 -0.9148,4.40314 -0.3709,1.49901 -0.7611,3.0717 -1.3682,4.49489 -0.4939,1.15757 -1.2068,2.27603 -1.8363,3.36681 -1.93611,3.35477 -3.88966,6.53748 -6.71934,9.23149 -3.79353,3.61168 -8.49658,5.38909 -13.72699,5.26891 l -0.0838,-0.0492 -0.0192,-0.0953 1.0028,-0.2745 c 5.57078,-1.49358 10.40469,-4.98147 13.94297,-9.50209 2.51006,-3.20692 4.46767,-6.85905 6.3643,-10.44982 z"
       id="path7"
       style="fill:#f19494;fill-opacity:1;stroke-width:0.15484;stroke-dasharray:none" />
    <path
       fill="#26A4D4"
       d="m 423.26805,660.79202 c 0.32229,0.38209 0.50517,1.23929 0.69274,1.71833 l 1.42927,3.42003 c 1.01804,2.27621 2.08243,4.53564 3.32202,6.70114 3.66394,6.40014 8.63542,13.00945 15.92373,15.44257 1.08448,0.362 2.2851,0.68246 3.41777,0.84119 0.9762,0.13668 1.97309,0.15978 2.9268,0.41848 l -1.51732,0.11069 c -5.67932,0.26579 -11.36211,-1.78055 -15.56459,-5.59687 -3.96477,-3.60035 -6.4521,-8.3373 -8.33277,-13.28296 -1.16725,-3.06996 -2.14512,-6.47731 -2.29765,-9.77261 z"
       id="path8"
       style="fill:#f29494;fill-opacity:0.745098;stroke-width:0.151022" />
  </g>
  <text
     xml:space="preserve"
     style="font-style:normal;font-variant:normal;font-weight:normal;font-stretch:normal;font-size:202.071px;font-family:Amiri;-inkscape-font-specification:'Amiri, Normal';font-variant-ligatures:normal;font-variant-caps:normal;font-variant-numeric:normal;font-variant-east-asian:normal;fill:#d81919;fill-opacity:1;stroke-width:0.399478;stroke-linecap:round;stroke-miterlimit:0"
     x="241.46596"
     y="898.44562"
     id="text2"
     transform="scale(1.0882804,0.91888083)"><tspan
       sodipodi:role="line"
       id="tspan2"
       x="241.46596"
       y="898.44562">#%@!</tspan></text>
</svg>
