<?xml version="1.0" encoding="UTF-8" standalone="no"?>
<!-- Created with Inkscape (http://www.inkscape.org/) -->

<svg
   width="63mm"
   height="88mm"
   viewBox="0 0 63 88"
   version="1.1"
   id="svg1"
   inkscape:version="1.3.2 (091e20e, 2023-11-25, custom)"
   xml:space="preserve"
   sodipodi:docname="card-restraint-foot-right.svg"
   xmlns:inkscape="http://www.inkscape.org/namespaces/inkscape"
   xmlns:sodipodi="http://sodipodi.sourceforge.net/DTD/sodipodi-0.dtd"
   xmlns="http://www.w3.org/2000/svg"
   xmlns:svg="http://www.w3.org/2000/svg"><sodipodi:namedview
     id="namedview1"
     pagecolor="#ffffff"
     bordercolor="#000000"
     borderopacity="0.25"
     inkscape:showpageshadow="2"
     inkscape:pageopacity="0.0"
     inkscape:pagecheckerboard="0"
     inkscape:deskcolor="#d1d1d1"
     inkscape:document-units="mm"
     inkscape:zoom="1.0343421"
     inkscape:cx="206.4114"
     inkscape:cy="293.42323"
     inkscape:window-width="1350"
     inkscape:window-height="1017"
     inkscape:window-x="228"
     inkscape:window-y="0"
     inkscape:window-maximized="0"
     inkscape:current-layer="layer1" /><defs
     id="defs1" /><g
     inkscape:label="Layer 1"
     inkscape:groupmode="layer"
     id="layer1"><g
       id="g1"
       transform="matrix(0.06087197,0,0,0.06087197,0.03359486,0.54402301)"><path
         id="path2"
         style="fill:none;stroke:#e4e4e4;stroke-width:4.92838;stroke-dasharray:none;stroke-opacity:1"
         d="m 1503.0992,-958.67148 -162.1195,68.70646 4.0597,46.92461 c 3.1466,25.2452 8.4371,50.92488 14.4265,75.64697 6.6604,27.49091 17.0776,55.25845 28.7005,81.08143 25.5984,56.88523 81.5058,147.11617 64.7342,211.4231 -0.512,1.96635 -1.061,3.84501 -1.8552,5.71819 -7.8051,18.43137 -24.7968,33.00273 -33.9167,50.83146 -7.1261,13.92349 -8.4088,29.97061 -10.3888,45.24416 l -6.6133,60.58734 c -0.7283,10.16333 -3.1248,21.36184 -0.6983,31.31961 l 4.5834,4.56134 c 7.912,-1.51711 16.0792,-6.89763 21.258,-13.07329 3.3137,-22.48995 5.0624,-60.16604 24.5754,-74.70848 3.0043,-2.23748 3.2487,-2.06348 6.9186,-1.78961 10.5001,20.67975 11.0082,46.23339 3.9068,67.81149 -4.6503,14.12889 -12.4678,31.04889 -21.018,43.30171 -7.6353,10.94103 -26.1874,24.87461 -29.7916,37.19056 -0.6066,2.07034 -0.038,6.32059 -0.043,8.62104 4.0724,4.84199 4.4263,5.5542 10.4979,7.04959 41.7923,-12.26662 96.7433,-42.26985 118.272,-80.84139 6.2771,-11.25043 9.891,-24.72323 11.6767,-37.43064 l 0.4146,-2.75001 c 2.0321,-14.79985 -0.9715,-31.79187 -2.2915,-46.64105 -1.9391,-21.78323 -3.0939,-43.22589 -2.3573,-65.10528 l 8.7959,-109.86913 c 9.7824,-111.7491 18.137,-226.08302 -16.8057,-334.54023 -8.7446,-27.13825 -20.5114,-54.3016 -34.9207,-79.26995 z" /><path
         id="path5"
         style="fill:none;stroke:#e4e4e4;stroke-width:4.92838;stroke-dasharray:none;stroke-opacity:1"
         d="m 1172.5966,-1545.3391 18.1151,378.7368 c 23.2925,63.8267 63.4892,116.8567 90.8811,157.0121 l 35.5536,50.24202 c 6.2169,8.4708 15.8276,18.8227 19.7083,28.56946 3.0702,7.70673 2.3904,19.2865 2.9902,27.5656 l 1.1348,13.2481 162.1195,-68.70646 c -2.4688,-4.2779 -4.8527,-8.6407 -7.4862,-12.7679 l -18.7262,-27.5656 c -2.2512,-3.18782 -6.8919,-8.07072 -8.1628,-11.41462 -1.09,-2.8701 -0.5367,-9.7953 -0.7201,-13.0516 l -2.4664,-35.8809 c -3.8862,-36.5176 -10.9483,-73.3622 -23.7241,-107.8832 -10.8698,-29.3614 -24.4366,-58.65 -40.0716,-85.7958 -6.6413,-11.5271 -16.5667,-23.0322 -21.9563,-34.8989 -1.7008,-3.741 -1.5279,-7.8445 -1.5279,-11.8511 0,-68.9628 -19.7829,-142.7195 -70.0814,-192.4786 -28.4138,-28.1043 -68.6863,-48.3774 -108.7997,-51.5953 -6.5549,-0.5281 -19.0124,-0.067 -26.7799,-1.4841 z" /><path
         id="path3"
         style="fill:none;stroke:#e4e4e4;stroke-width:4.92838;stroke-dasharray:none;stroke-opacity:1"
         d="m 296.85102,-870.51849 -173.81775,-69.12129 c -6.04574,13.04809 -11.29887,26.43013 -15.62703,40.33344 -14.060307,45.16624 -19.967577,92.98715 -23.505969,140.01017 -5.967599,79.34213 -3.124663,157.94705 2.793652,237.17689 l 7.638898,79.13907 c 1.919736,31.76046 -5.280645,61.93236 -5.565481,93.26013 -0.279329,30.65117 9.527291,61.99044 28.61314,86.01413 20.44976,25.74071 59.95039,53.78268 93.06363,58.20846 3.00164,0.40249 4.83451,0.0775 7.63892,-0.89493 2.39361,-4.20123 2.40892,-4.42916 1.00396,-9.0794 -2.7688,-9.18 -12.60038,-20.0394 -17.8532,-28.3076 -20.93441,-32.95994 -37.78545,-75.73308 -24.22623,-114.5181 l 4.14684,-3.12101 c 7.4108,2.31151 12.61544,8.56783 16.08534,15.32151 10.22343,19.89092 3.13675,52.61068 23.24408,65.97836 5.36508,0.51754 5.63394,0.68234 10.54168,-2.26985 9.56897,-23.45689 4.79902,-104.2158 -5.19445,-127.91904 -6.64942,-15.76913 -18.46789,-27.13315 -26.77982,-41.6865 -23.7936,-41.66083 -12.06147,-92.72329 4.34329,-134.51015 25.01233,-63.71811 64.96046,-120.15273 83.52591,-186.80395 8.83614,-31.71968 8.1546,-64.76819 9.93059,-97.21034 z" /><path
         id="path6"
         style="fill:none;stroke:#e4e4e4;stroke-width:4.92838;stroke-dasharray:none;stroke-opacity:1"
         d="m 481.05766,-1550.4899 c -0.10271,0.044 -0.22541,0.1549 -0.32738,0.1964 -6.59204,2.6839 -21.03761,0.6875 -28.72226,1.3969 -10.49193,0.9667 -21.01458,3.2024 -31.12308,6.1329 -61.67494,17.8725 -112.99166,63.6648 -136.82362,123.4664 -9.33347,23.4212 -13.94829,49.4318 -17.02386,74.3812 l -3.73214,44.1746 c -0.30946,4.0533 0.18818,12.697 -1.22222,16.2381 -4.03954,10.1331 -17.1007,23.002 -23.37504,32.8036 -18.61201,29.0711 -34.11668,60.3777 -45.3096,93.0419 -9.77987,28.5424 -15.93059,58.0317 -20.71234,87.7819 -3.53841,22.0272 -5.8903,45.4894 -12.24407,66.8949 -3.69724,12.45542 -15.92319,24.68752 -22.63297,36.01192 -5.47664,9.2409 -10.31672,18.7058 -14.77581,28.3294 l 173.81775,69.12129 c 1.41498,-25.84786 4.35426,-51.32019 15.16865,-75.36329 11.58741,-25.7628 37.74947,-46.5594 54.93461,-69.27392 26.31525,-34.7808 79.96379,-105.4794 101.00811,-145.8157 z" /><path
         id="path4"
         style="fill:none;stroke:#e4e4e4;stroke-width:4.92838;stroke-dasharray:none;stroke-opacity:1"
         d="m 1206.6878,323.07057 -216.48639,3.44858 c -0.97115,8.86366 -1.72922,17.77956 -2.70634,26.56159 -4.72976,42.50432 -9.68769,86.43379 -5.43454,129.18477 8.03252,80.65327 46.88677,154.42126 63.16287,233.81579 6.4825,31.60439 12.2264,63.46965 13.2917,95.81354 0.8736,26.48336 -1.3707,53.75862 1.0476,80.07751 1.7199,18.73251 7.213,36.86321 10.1488,55.34921 2.5716,16.1858 -3.1161,35.27514 -6.5258,51.26804 -6.9972,32.7823 -15.1293,67.208 -16.129,100.8118 -0.3286,11.0642 -0.9246,22.6626 1.8552,33.4801 2.15,8.3533 6.0015,16.3414 12.5278,22.1747 5.524,4.9571 12.5986,7.6161 19.752,9.2323 18.0643,4.0806 39.1028,3.147 57.6629,3.4484 27.0388,0.4108 55.53,1.7838 82.4126,-0.9822 8.3777,-0.849 19.4956,-4.5529 25.2084,-11.0436 6.2907,-7.1479 5.9298,-19.4559 4.8673,-28.4387 -4.1463,-34.9174 -23.9026,-61.6672 -40.0497,-91.6012 -19.5104,-36.2055 -39.2578,-82.12424 -42.2977,-123.20474 -2.0156,-27.24989 -0.185,-55.75757 0.8731,-83.08934 2.5908,-67.0433 8.1698,-137.59952 24.7935,-202.78022 11.9161,-46.69465 33.0687,-94.3955 36.4922,-142.65094 3.8812,-54.67906 -6.8893,-109.0593 -24.4665,-160.87539 z" /><path
         id="path8"
         style="fill:none;stroke:#e4e4e4;stroke-width:4.92838;stroke-dasharray:none;stroke-opacity:1"
         d="m 1186.0629,-339.72412 -728.20567,-22.32725 c -2.64794,12.01366 -5.48092,24.02869 -7.59524,36.0338 -8.20787,46.61758 -10.62455,93.57561 -11.78575,140.81761 -1.04071,42.36738 -1.13452,85.890327 2.31348,128.137177 L 457.98817,78.23297 c 7.15343,43.21395 19.30271,86.05955 16.23813,130.36324 -1.5912,22.99665 -14.08892,44.38966 -21.75997,65.84735 -5.41548,15.15058 -10.72378,30.89823 -15.60517,46.99016 l 216.15908,9.25396 c -0.0907,-1.03573 -0.19586,-2.10837 -0.28372,-3.14265 -1.91693,-22.53944 -4.76074,-45.85875 -1.89883,-68.4665 3.25356,-25.6892 12.32109,-52.09915 20.69051,-76.52 l 32.67271,-95.726238 59.1687,-225.151242 c 15.1941,-70.83293 27.88961,-139.3121 30.88297,-211.85949 l 52.16279,0.21824 2.64085,38.58748 c 14.07133,134.14562 48.67312,269.324067 88.63319,397.943092 16.68118,53.689498 41.74625,106.094178 52.512,161.355508 5.05845,25.95912 2.87499,52.35277 0,78.59327 l 216.48639,-3.44858 c -5.5412,-16.3352 -11.6849,-32.44368 -18.3549,-48.19045 l -16.4347,-38.15081 c -2.6672,-6.20052 -6.8174,-13.80383 -7.5952,-20.4066 -2.1745,-18.48369 1.336,-39.15052 4.4087,-57.35743 l 22.9823,-110.2184 c 23.9695,-130.648193 20.2592,-260.70965 -5.6311,-388.471 z" /><path
         id="path9"
         style="fill:none;stroke:#e4e4e4;stroke-width:4.92838;stroke-dasharray:none;stroke-opacity:1"
         d="m 1086.3644,-672.64915 -519.27089,-9.34132 c -0.53467,3.57042 -1.08298,6.79179 -1.70239,8.8174 -3.11661,10.20145 -9.83798,20.38225 -14.05558,30.40292 l -36.51393,91.92875 c -22.17912,60.94821 -42.86102,124.80267 -56.96438,188.79003 l 728.20567,22.32725 c -9.3911,-46.34279 -21.5158,-92.39427 -36.5576,-138.04576 -20.2141,-61.34618 -45.0477,-121.51001 -60.7401,-184.27218 -0.8884,-3.55225 -1.6014,-7.07042 -2.4008,-10.60709 z" /><path
         id="path10"
         style="fill:none;stroke:#e4e4e4;stroke-width:4.92838;stroke-dasharray:none;stroke-opacity:1"
         d="m 1095.0945,-980.10408 -550.87404,-10.2798 c 1.487,2.9029 2.97191,5.8044 4.60519,8.5119 23.57819,80.31525 27.92615,92.9427 24.94645,177.96466 -0.61537,17.5107 -2.27939,92.54001 -6.67859,121.91685 l 519.27089,9.34132 c -12.4254,-54.96617 -14.454,-108.26077 -11.8294,-165.00032 2.7167,-58.71712 7.475,-53.62556 17.504,-125.58361 1.0387,-6.201 2.0392,-11.7034 3.0555,-16.871 z" /><path
         id="path11"
         style="fill:none;stroke:#e4e4e4;stroke-width:4.92838;stroke-dasharray:none;stroke-opacity:1"
         d="m 1183.3348,-1320.6681 -709.67598,-9.7779 -5.69643,169.4746 c 0.47583,-0.9121 1.39202,-2.2194 1.83335,-3.0992 9.44006,18.757 20.94722,69.6325 33.67665,86.4287 18.10523,23.885 26.52147,59.4854 40.74807,87.25802 l 550.87404,10.2798 c 7.7553,-39.43482 16.312,-52.82132 47.8851,-99.91682 33.9441,-50.6325 43.0507,-84.0523 47.2957,-87.6945 0.1365,0.3779 0.2987,0.7355 0.4364,1.1131 z" /><path
         id="path12"
         style="fill:none;stroke:#e4e4e4;stroke-width:4.92838;stroke-dasharray:none;stroke-opacity:1"
         d="m 706.73268,-1681.9444 c -0.0129,0.032 -0.008,0.3204 -0.0218,0.3492 -53.2259,41.7426 -114.88141,63.2574 -173.16297,96.2501 -12.02831,6.8083 -23.42178,14.5352 -34.70245,22.502 -5.16635,3.6485 -12.0163,9.8819 -17.78771,12.3532 l -7.39885,220.0439 709.676,9.7779 -10.7382,-224.671 c -1.2965,-0.2365 -3.3979,-0.1203 -4.3214,-0.502 -4.7653,-1.9718 -10.4701,-6.9458 -14.8849,-9.8433 -11.631,-7.6327 -23.1484,-15.5409 -35.2917,-22.3492 l -81.8017,-42.9961 c -35.348,-17.5931 -70.12356,-34.2848 -100.50635,-59.9763 l 0.0218,-0.9384 z" /><path
         id="path7"
         style="fill:none;stroke:#000000;stroke-width:4.92838;stroke-dasharray:none;stroke-opacity:1"
         d="m 653.02024,330.68768 -216.15908,-9.25396 c -15.02535,49.53203 -25.87435,102.46848 -22.28377,152.45063 3.7382,52.11709 21.17219,102.95816 32.8691,153.65132 16.4676,71.36895 24.2346,141.61206 27.74012,214.65306 1.13382,23.66214 3.32867,48.41653 1.83334,72.02383 -1.01332,16.0215 -5.15241,32.1639 -11.13098,47.0337 -11.98161,29.82444 -27.9974,59.46264 -42.03576,88.43664 -13.32646,27.5237 -29.28707,49.4755 -31.40682,81.5181 -0.42176,6.4084 -0.93198,14.4688 1.63691,20.4941 2.93314,6.9012 9.15714,9.0822 15.91074,11.2183 25.87225,8.134 142.37333,9.2461 164.30186,-2.9682 11.05335,-6.162 17.09111,-17.3439 20.18855,-29.2025 10.16864,-38.8607 -3.95448,-91.8957 -12.13496,-130.4288 -3.28366,-15.4464 -8.06473,-31.92404 -7.28969,-47.86324 1.08454,-22.238 9.47088,-44.4542 11.24009,-67.15666 1.98279,-25.46983 -0.29332,-51.53027 0.78572,-77.1095 1.95817,-46.39212 10.73064,-93.01775 21.95638,-137.9584 15.23532,-60.99061 42.75179,-119.22094 50.26399,-181.93696 6.21595,-51.9301 -1.73857,-105.67725 -6.28574,-157.60146 z" /><path
         id="path1"
         style="fill:none;stroke:#e4e4e4;stroke-width:4.92838;stroke-dasharray:none;stroke-opacity:1"
         d="m 824.40438,-2153.1337 c -5.81685,-0.2631 -11.85622,-0.5425 -17.65676,0.044 -39.77118,4.8118 -76.22677,19.9686 -101.44453,52.381 -30.95814,39.7876 -34.2787,115.6752 -28.11118,164.6292 -3.69448,3.6836 -4.86417,1.7736 -8.46826,3.8413 -5.5212,3.1659 -7.67431,11.8397 -7.70438,17.6786 -0.0631,12.294 3.14756,23.9184 5.47818,35.881 4.06421,20.8715 6.79274,49.128 23.2659,64.3632 2.59902,2.4019 5.79329,4.264 8.99208,5.7401 2.01824,12.382 5.93711,118.8963 2.57541,126.6312 H 930.4106 l 2.64085,-81.7362 c 0.2247,-12.2776 -2.23424,-33.6693 2.00801,-44.8513 l 1.61505,-1.4187 c 19.48568,-17.407 23.36622,-39.4681 28.52585,-63.7739 2.52507,-11.8887 5.49534,-24.0896 5.98018,-36.252 0.28203,-7.0111 0.74628,-13.6584 -3.20829,-19.7957 -3.07015,-2.2923 -6.29758,-4.4634 -8.92672,-7.2679 3.11399,-55.5707 4.22061,-125.3215 -34.89884,-169.4526 -24.8262,-28.0058 -62.5591,-44.9704 -99.74231,-46.641 z" /></g><g
       id="move"
       transform="matrix(0.04824098,0,0,0.05181757,-3.1837778,-20.668045)"
       inkscape:label="move"><text
         xml:space="preserve"
         style="font-style:normal;font-variant:normal;font-weight:normal;font-stretch:normal;font-size:148.144px;font-family:Amiri;-inkscape-font-specification:'Amiri, Normal';font-variant-ligatures:normal;font-variant-caps:normal;font-variant-numeric:normal;font-variant-east-asian:normal;fill:#000000;fill-opacity:1;stroke:#000000;stroke-width:0.269288;stroke-dasharray:none;stroke-opacity:1;paint-order:markers fill stroke"
         x="513.04822"
         y="778.5697"
         id="text1-5"><tspan
           sodipodi:role="line"
           id="tspan1"
           x="513.04822"
           y="778.5697">Move: -1*</tspan></text><path
         fill="#fefefe"
         d="m 423.87315,743.60565 0.21512,0.052 c 1.71719,3.76403 3.49119,3.70519 5.98388,7.35145 -7.82361,-0.10797 -11.69949,-1.08864 -18.76246,-4.29382 -1.34963,-0.0879 -4.75661,-3.11408 -5.45151,-3.66689 -1.44497,-1.14935 -2.73119,-2.33754 -3.98746,-3.59097 2.82341,0.88799 5.73821,1.52855 8.60636,2.10838 4.47579,0.90536 8.94267,1.61647 13.39636,2.03887 z"
         id="path2-5"
         style="stroke:#000000;stroke-width:2.32259;stroke-dasharray:none;stroke-opacity:1"
         sodipodi:nodetypes="ccccccccc" /><path
         fill="#fefefe"
         d="m 420.73098,732.74924 c 0.16605,0.0376 0.32327,0.0615 0.4746,0.14245 0.19084,1.49259 0.48354,2.93964 1.01378,4.35123 l 0.69132,1.64881 c 0.11304,0.25498 0.3131,0.59092 0.35053,0.86427 -3.38586,1.31875 -5.88595,0.53798 -8.86795,-0.96306 -4.84177,-2.84555 -9.02471,-7.42607 -10.99427,-12.72672 3.75169,2.83784 8.23961,4.29963 12.72721,5.52821 z"
         id="path3-1"
         style="stroke:#000000;stroke-width:2.32259;stroke-dasharray:none;stroke-opacity:1"
         sodipodi:nodetypes="ccccccccc" /><path
         fill="#fefefe"
         d="m 419.63719,727.11092 c -0.99006,-0.26054 -2.01274,-0.4366 -2.97937,-0.7825 -0.85278,-0.30505 -1.72241,-0.79395 -2.50264,-1.25578 -2.16532,-1.2816 -4.13288,-2.88937 -5.79407,-4.78297 -4.41276,-5.02993 -6.03531,-11.58112 -5.60542,-18.1506 1.44243,3.24637 3.5683,6.08982 6.39823,8.27104 l 1.57984,1.10672 c 0.28142,0.18129 0.70379,0.34916 0.93296,0.58562 0.21062,0.21732 0.3861,0.48811 0.57442,0.72644 l 1.38168,1.69296 c 2.2089,2.46776 4.80215,4.73075 7.62498,6.46811 l 0.12898,0.13734 c -0.62085,1.97648 -1.04172,4.00744 -1.0594,6.08448 z"
         id="path6-0"
         style="stroke:#000000;stroke-width:2.32259;stroke-dasharray:none;stroke-opacity:1" /><path
         fill="#fefefe"
         d="m 422.50359,716.14959 c -6.06305,-3.90641 -11.27396,-9.80969 -14.03576,-16.50113 -0.43606,-1.05665 -0.75161,-2.15168 -1.06003,-3.25081 -2.00973,-7.16318 -1.47637,-15.1216 1.38236,-21.98689 0.2891,0.72521 0.42082,1.57216 0.62475,2.33043 0.35788,1.33073 0.7986,2.60686 1.35738,3.86748 0.47228,1.06564 0.9832,2.14161 1.58175,3.1412 l 0.90316,1.40505 c 0.18746,0.2736 0.50729,0.62227 0.60871,0.93662 0.21288,0.6592 0.26249,1.40777 0.42808,2.08389 0.33393,1.36262 0.78211,2.71126 1.23813,4.03775 0.45987,1.33772 1.06344,2.61477 1.67154,3.88916 l 1.49177,2.99798 c 1.87192,3.37951 4.15198,6.55044 6.51068,9.6034 l 0.23463,0.30861 c -0.0517,0.33478 -0.27329,0.71011 -0.41015,1.02434 l -0.66812,1.64046 -1.60838,4.55102 z"
         id="path8-6"
         style="stroke:#000000;stroke-width:2.32259;stroke-dasharray:none;stroke-opacity:1" /><path
         fill="#fefefe"
         d="m 427.82911,704.30477 c -1.48769,-2.03108 -2.99773,-4.05116 -4.324,-6.19379 -0.96557,-1.5597 -1.79369,-3.1602 -2.59468,-4.80719 -1.11105,-2.2848 -2.10439,-4.7802 -2.55777,-7.29184 -0.24624,-1.36401 -0.45268,-2.72558 -0.51351,-4.11224 -0.24301,-5.54139 1.1937,-11.18988 3.82779,-16.05429 0.72352,-1.33628 1.55305,-2.58504 2.42036,-3.83035 0.042,0.0418 0.0238,0.31948 0.0245,0.39377 0.0211,2.54183 0.12403,5.04409 0.42467,7.56995 0.69681,5.85525 2.16034,11.48155 3.87478,17.11022 l 3.27489,9.76808 c -0.12526,0.3865 -0.4152,0.75921 -0.61716,1.11385 l -0.73083,1.39548 -2.32068,4.9936 -0.078,0.039 z"
         id="path9-2"
         style="stroke:#000000;stroke-width:2.32259;stroke-dasharray:none;stroke-opacity:1" /><path
         fill="#0f0f0f"
         d="m 432.78711,753.3154 c 6.28761,7.956 12.85273,15.64753 20.25674,22.5946 5.03214,4.72143 10.49456,9.17358 16.60299,12.43754 7.93511,4.24005 17.11673,6.68524 26.01566,7.74271 2.47919,0.29452 4.96743,0.37534 7.45739,0.50978 2.29621,0.12402 4.63384,0.35136 6.93082,0.15841 -0.31138,0.39113 -0.97692,0.55687 -1.44822,0.75118 -3.40429,1.40427 -7.02194,2.24905 -10.67808,2.66433 -10.79379,1.22587 -22.09365,-1.38775 -31.6759,-6.36425 -4.33537,-2.25144 -8.33793,-4.99995 -12.15002,-8.04259 -5.94588,-4.74606 -11.37367,-10.20987 -16.25291,-16.04008 l -4.06298,-5.01213 -9.08906,8.41029 -21.3164,-10.37972 2.49671,-15.7079 c 0.38126,0.21008 0.7698,0.4604 1.18359,0.59783 2.32478,1.18832 4.66524,2.35494 7.11431,3.26873 5.93832,2.21617 7.44568,2.96323 13.74108,2.45884 z"
         id="path10-3"
         style="fill:none;fill-opacity:1;stroke:#000000;stroke-width:2.32259;stroke-dasharray:none;stroke-opacity:1"
         sodipodi:nodetypes="ccccccccccccccccccc" /><path
         fill="#dc9308"
         d="m 463.02874,689.96939 0.14384,0.035 c 0.49063,0.11195 1.1488,0.0313 1.65643,0.0217 l 3.58408,-0.053 c 2.39392,-0.0242 4.86943,0.10962 7.24971,-0.0434 -6.31985,10.20788 -9.878,22.14022 -9.54579,34.17661 0.11685,4.25601 0.74673,8.39684 1.7215,12.53376 3.77093,16.00471 11.61851,30.25771 21.33565,40.94937 12.10107,12.64047 8.48263,7.78003 20.17454,16.94792 -17.32365,-3.71452 -21.55024,-4.23093 -26.35187,-6.3316 -9.89964,-6.18762 -14.97824,-6.89097 -26.89975,-18.41407 -12.79352,-12.36596 -18.29357,-15.79526 -23.00912,-27.19435 l -3.2569,-19.42517 c -2.88158,-22.76633 4.41888,-31.58046 4.03571,-32.91484 l 21.28156,-0.26223 5.32127,0.0602 c 0.85201,-0.008 1.71303,0.0204 2.55906,-0.0844 z"
         id="path11-9"
         style="fill:none;stroke:#000000;stroke-width:2.32259;stroke-dasharray:none;stroke-opacity:1"
         sodipodi:nodetypes="cccccsccccsccccccc" /><path
         id="path2-8"
         inkscape:transform-center-x="-0.01494134"
         inkscape:transform-center-y="-3.7500871"
         d="m 427.40161,748.51285 c 20.36512,-7.37419 13.98417,-9.56844 21.66325,-57.74338 8.14056,47.72615 2.64335,50.64631 21.89168,57.54181 z"
         sodipodi:nodetypes="cccc"
         style="stroke-width:10.6897" /><path
         id="path2-0"
         inkscape:transform-center-x="-0.0034207367"
         inkscape:transform-center-y="-1.3106034"
         d="m 444.38529,757.43968 c 4.11726,-2.61102 3.85157,-6.32045 4.96018,-20.18053 1.20756,13.97013 0.83807,17.62212 5.01247,20.11007 z"
         sodipodi:nodetypes="cccc"
         style="stroke-width:3.02394" /></g></g></svg>
