<?xml version="1.0" encoding="UTF-8" standalone="no"?>
<svg
   width="63mm"
   height="88mm"
   version="1.1"
   id="svg33"
   sodipodi:docname="card-restraint-slow.svg"
   viewBox="0 0 975.48891 1362.5877"
   inkscape:version="1.3.2 (091e20e, 2023-11-25, custom)"
   xmlns:inkscape="http://www.inkscape.org/namespaces/inkscape"
   xmlns:sodipodi="http://sodipodi.sourceforge.net/DTD/sodipodi-0.dtd"
   xmlns="http://www.w3.org/2000/svg"
   xmlns:svg="http://www.w3.org/2000/svg">
  <defs
     id="defs33">
    <linearGradient
       id="gradient_0"
       gradientUnits="userSpaceOnUse"
       x1="848.26208"
       y1="410.36462"
       x2="843.86401"
       y2="443.68008">
      <stop
         offset="0"
         stop-color="#FFFDDF"
         id="stop7" />
      <stop
         offset="1"
         stop-color="white"
         id="stop8" />
    </linearGradient>
    <linearGradient
       id="gradient_1"
       gradientUnits="userSpaceOnUse"
       x1="801.59741"
       y1="398.55792"
       x2="794.77374"
       y2="435.64236">
      <stop
         offset="0"
         stop-color="#FFF5D5"
         id="stop10" />
      <stop
         offset="1"
         stop-color="white"
         id="stop11" />
    </linearGradient>
  </defs>
  <sodipodi:namedview
     id="namedview33"
     pagecolor="#ffffff"
     bordercolor="#000000"
     borderopacity="0.25"
     inkscape:showpageshadow="2"
     inkscape:pageopacity="0.0"
     inkscape:pagecheckerboard="0"
     inkscape:deskcolor="#d1d1d1"
     inkscape:zoom="1.1450488"
     inkscape:cx="-147.1553"
     inkscape:cy="116.58892"
     inkscape:window-width="1904"
     inkscape:window-height="1001"
     inkscape:window-x="0"
     inkscape:window-y="0"
     inkscape:window-maximized="0"
     inkscape:current-layer="svg33"
     inkscape:document-units="mm" />
  <rect
     style="fill:#dfefe9;fill-opacity:1;stroke:#383838;stroke-width:0.15484;stroke-opacity:1;paint-order:markers fill stroke"
     id="rect132"
     width="976.54572"
     height="1358.5623"
     x="0.68127763"
     y="6.6311646" />
  <g
     id="g1"
     transform="matrix(0.74696101,0,0,0.80234064,-63.105797,159.07045)">
    <text
       xml:space="preserve"
       style="font-style:normal;font-variant:normal;font-weight:normal;font-stretch:normal;font-size:148.144px;font-family:Amiri;-inkscape-font-specification:'Amiri, Normal';font-variant-ligatures:normal;font-variant-caps:normal;font-variant-numeric:normal;font-variant-east-asian:normal;fill:#000000;fill-opacity:1;stroke:#000000;stroke-width:0.269288;stroke-dasharray:none;stroke-opacity:1;paint-order:markers fill stroke"
       x="513.04822"
       y="778.5697"
       id="text1"><tspan
         sodipodi:role="line"
         id="tspan1"
         x="513.04822"
         y="778.5697">Move: -1*</tspan></text>
    <path
       fill="#fefefe"
       d="m 423.87315,743.60565 0.21512,0.052 c 1.71719,3.76403 3.49119,3.70519 5.98388,7.35145 -7.82361,-0.10797 -11.69949,-1.08864 -18.76246,-4.29382 -1.34963,-0.0879 -4.75661,-3.11408 -5.45151,-3.66689 -1.44497,-1.14935 -2.73119,-2.33754 -3.98746,-3.59097 2.82341,0.88799 5.73821,1.52855 8.60636,2.10838 4.47579,0.90536 8.94267,1.61647 13.39636,2.03887 z"
       id="path2-5"
       style="stroke:#000000;stroke-width:2.32259;stroke-dasharray:none;stroke-opacity:1"
       sodipodi:nodetypes="ccccccccc" />
    <path
       fill="#fefefe"
       d="m 420.73098,732.74924 c 0.16605,0.0376 0.32327,0.0615 0.4746,0.14245 0.19084,1.49259 0.48354,2.93964 1.01378,4.35123 l 0.69132,1.64881 c 0.11304,0.25498 0.3131,0.59092 0.35053,0.86427 -3.38586,1.31875 -5.88595,0.53798 -8.86795,-0.96306 -4.84177,-2.84555 -9.02471,-7.42607 -10.99427,-12.72672 3.75169,2.83784 8.23961,4.29963 12.72721,5.52821 z"
       id="path3"
       style="stroke:#000000;stroke-width:2.32259;stroke-dasharray:none;stroke-opacity:1"
       sodipodi:nodetypes="ccccccccc" />
    <path
       fill="#fefefe"
       d="m 419.63719,727.11092 c -0.99006,-0.26054 -2.01274,-0.4366 -2.97937,-0.7825 -0.85278,-0.30505 -1.72241,-0.79395 -2.50264,-1.25578 -2.16532,-1.2816 -4.13288,-2.88937 -5.79407,-4.78297 -4.41276,-5.02993 -6.03531,-11.58112 -5.60542,-18.1506 1.44243,3.24637 3.5683,6.08982 6.39823,8.27104 l 1.57984,1.10672 c 0.28142,0.18129 0.70379,0.34916 0.93296,0.58562 0.21062,0.21732 0.3861,0.48811 0.57442,0.72644 l 1.38168,1.69296 c 2.2089,2.46776 4.80215,4.73075 7.62498,6.46811 l 0.12898,0.13734 c -0.62085,1.97648 -1.04172,4.00744 -1.0594,6.08448 z"
       id="path6"
       style="stroke:#000000;stroke-width:2.32259;stroke-dasharray:none;stroke-opacity:1" />
    <path
       fill="#fefefe"
       d="m 422.50359,716.14959 c -6.06305,-3.90641 -11.27396,-9.80969 -14.03576,-16.50113 -0.43606,-1.05665 -0.75161,-2.15168 -1.06003,-3.25081 -2.00973,-7.16318 -1.47637,-15.1216 1.38236,-21.98689 0.2891,0.72521 0.42082,1.57216 0.62475,2.33043 0.35788,1.33073 0.7986,2.60686 1.35738,3.86748 0.47228,1.06564 0.9832,2.14161 1.58175,3.1412 l 0.90316,1.40505 c 0.18746,0.2736 0.50729,0.62227 0.60871,0.93662 0.21288,0.6592 0.26249,1.40777 0.42808,2.08389 0.33393,1.36262 0.78211,2.71126 1.23813,4.03775 0.45987,1.33772 1.06344,2.61477 1.67154,3.88916 l 1.49177,2.99798 c 1.87192,3.37951 4.15198,6.55044 6.51068,9.6034 l 0.23463,0.30861 c -0.0517,0.33478 -0.27329,0.71011 -0.41015,1.02434 l -0.66812,1.64046 -1.60838,4.55102 z"
       id="path8"
       style="stroke:#000000;stroke-width:2.32259;stroke-dasharray:none;stroke-opacity:1" />
    <path
       fill="#fefefe"
       d="m 427.82911,704.30477 c -1.48769,-2.03108 -2.99773,-4.05116 -4.324,-6.19379 -0.96557,-1.5597 -1.79369,-3.1602 -2.59468,-4.80719 -1.11105,-2.2848 -2.10439,-4.7802 -2.55777,-7.29184 -0.24624,-1.36401 -0.45268,-2.72558 -0.51351,-4.11224 -0.24301,-5.54139 1.1937,-11.18988 3.82779,-16.05429 0.72352,-1.33628 1.55305,-2.58504 2.42036,-3.83035 0.042,0.0418 0.0238,0.31948 0.0245,0.39377 0.0211,2.54183 0.12403,5.04409 0.42467,7.56995 0.69681,5.85525 2.16034,11.48155 3.87478,17.11022 l 3.27489,9.76808 c -0.12526,0.3865 -0.4152,0.75921 -0.61716,1.11385 l -0.73083,1.39548 -2.32068,4.9936 -0.078,0.039 z"
       id="path9"
       style="stroke:#000000;stroke-width:2.32259;stroke-dasharray:none;stroke-opacity:1" />
    <path
       fill="#0f0f0f"
       d="m 432.78711,753.3154 c 6.28761,7.956 12.85273,15.64753 20.25674,22.5946 5.03214,4.72143 10.49456,9.17358 16.60299,12.43754 7.93511,4.24005 17.11673,6.68524 26.01566,7.74271 2.47919,0.29452 4.96743,0.37534 7.45739,0.50978 2.29621,0.12402 4.63384,0.35136 6.93082,0.15841 -0.31138,0.39113 -0.97692,0.55687 -1.44822,0.75118 -3.40429,1.40427 -7.02194,2.24905 -10.67808,2.66433 -10.79379,1.22587 -22.09365,-1.38775 -31.6759,-6.36425 -4.33537,-2.25144 -8.33793,-4.99995 -12.15002,-8.04259 -5.94588,-4.74606 -11.37367,-10.20987 -16.25291,-16.04008 l -4.06298,-5.01213 -9.08906,8.41029 -21.3164,-10.37972 2.49671,-15.7079 c 0.38126,0.21008 0.7698,0.4604 1.18359,0.59783 2.32478,1.18832 4.66524,2.35494 7.11431,3.26873 5.93832,2.21617 7.44568,2.96323 13.74108,2.45884 z"
       id="path10"
       style="fill:none;fill-opacity:1;stroke:#000000;stroke-width:2.32259;stroke-dasharray:none;stroke-opacity:1"
       sodipodi:nodetypes="ccccccccccccccccccc" />
    <path
       fill="#dc9308"
       d="m 463.02874,689.96939 0.14384,0.035 c 0.49063,0.11195 1.1488,0.0313 1.65643,0.0217 l 3.58408,-0.053 c 2.39392,-0.0242 4.86943,0.10962 7.24971,-0.0434 -6.31985,10.20788 -9.878,22.14022 -9.54579,34.17661 0.11685,4.25601 0.74673,8.39684 1.7215,12.53376 3.77093,16.00471 11.61851,30.25771 21.33565,40.94937 12.10107,12.64047 8.48263,7.78003 20.17454,16.94792 -17.32365,-3.71452 -21.55024,-4.23093 -26.35187,-6.3316 -9.89964,-6.18762 -14.97824,-6.89097 -26.89975,-18.41407 -12.79352,-12.36596 -18.29357,-15.79526 -23.00912,-27.19435 l -3.2569,-19.42517 c -2.88158,-22.76633 4.41888,-31.58046 4.03571,-32.91484 l 21.28156,-0.26223 5.32127,0.0602 c 0.85201,-0.008 1.71303,0.0204 2.55906,-0.0844 z"
       id="path11"
       style="fill:none;stroke:#000000;stroke-width:2.32259;stroke-dasharray:none;stroke-opacity:1"
       sodipodi:nodetypes="cccccsccccsccccccc" />
    <path
       id="path2"
       inkscape:transform-center-x="-0.01494134"
       inkscape:transform-center-y="-3.7500871"
       d="m 427.40161,748.51285 c 20.36512,-7.37419 13.98417,-9.56844 21.66325,-57.74338 8.14056,47.72615 2.64335,50.64631 21.89168,57.54181 z"
       sodipodi:nodetypes="cccc"
       style="stroke-width:10.6897" />
    <path
       id="path2-0"
       inkscape:transform-center-x="-0.0034207367"
       inkscape:transform-center-y="-1.3106034"
       d="m 444.38529,757.43968 c 4.11726,-2.61102 3.85157,-6.32045 4.96018,-20.18053 1.20756,13.97013 0.83807,17.62212 5.01247,20.11007 z"
       sodipodi:nodetypes="cccc"
       style="stroke-width:3.02394" />
  </g>
  <g
     id="g20"
     transform="matrix(4.7616586,0,0,4.7616586,370.75795,772.76358)">
    <path
       fill="#2c3361"
       transform="matrix(0.0634766,0,0,0.0634766,0,1.52588e-5)"
       d="m 777.632,195.71 c -3.887,-3.138 -7.062,-6.492 -7.705,-11.71 -0.53,-4.305 0.76,-8.91 3.553,-12.25 2.403,-2.874 6.491,-5.072 10.237,-5.346 4.162,-0.304 8.478,0.983 11.656,3.739 3.129,2.713 5.395,6.654 5.618,10.857 0.226,4.277 -1.564,8.579 -4.5,11.67 -2.901,3.055 -6.184,4.103 -10.152,4.984 -3.391,-0.08 -5.644,-0.418 -8.707,-1.944 z"
       id="path2-7" />
    <path
       fill="#2c3361"
       transform="matrix(0.0634766,0,0,0.0634766,0,1.52588e-5)"
       d="m 950.319,266.509 c -0.873,-2.78 -1.814,-5.474 -1.784,-8.426 0.047,-4.664 1.705,-9.228 5.215,-12.421 3.188,-2.901 7.569,-4.027 11.803,-3.64 4.067,0.371 8.389,2.703 10.897,5.941 2.631,3.398 3.653,7.551 2.896,11.787 -0.803,4.491 -3.247,8.46 -7.139,10.918 -4.262,2.691 -8.417,3.16 -13.207,1.89 l -2.567,-0.732 c -0.726,-0.21 -0.423,-0.174 -1.022,-0.177 -2.22,-1.383 -3.589,-3.02 -5.092,-5.14 z"
       id="path3-4" />
    <path
       fill="#3b5d86"
       transform="matrix(0.0634766,0,0,0.0634766,0,1.52588e-5)"
       d="m 950.319,266.509 c 1.503,2.12 2.872,3.757 5.092,5.14 l -32.264,32.272 c -16.923,18.652 -31.964,39.669 -42.603,62.579 -4.096,8.821 -6.687,18.053 -10.451,26.938 -5.997,-15.445 -18.089,-27.206 -32.452,-34.997 6.116,-2.103 12.119,-5.684 17.625,-9.05 28.812,-17.612 50.661,-43.839 75.437,-66.322 6.344,-5.758 12.656,-11.546 19.616,-16.56 z"
       id="path4" />
    <path
       fill="#3b5d86"
       transform="matrix(0.0634766,0,0,0.0634766,0,1.52588e-5)"
       d="m 777.632,195.71 c 3.063,1.526 5.316,1.864 8.707,1.944 -3.48,10.093 -6.945,19.784 -8.887,30.33 -7.315,39.712 1.971,82.541 19.467,118.389 l 1.53,3.109 1.6,4.615 c -10.398,10.451 -23.013,13.605 -36.976,16.69 l -0.643,-9.318 -1.235,-39.379 c -0.37,-21.99 -0.324,-44.027 1.676,-65.944 0.823,-9.019 1.616,-18.058 3.484,-26.933 2.437,-11.577 6.402,-22.747 11.277,-33.503 z"
       id="path5" />
    <path
       fill="#add7a3"
       transform="matrix(0.0634766,0,0,0.0634766,0,1.52588e-5)"
       d="m 798.449,349.482 c 10.75,-0.176 20.392,1.885 30.479,5.508 2.848,1.023 5.819,2.769 8.713,3.451 14.363,7.791 26.455,19.552 32.452,34.997 1.317,4.33 2.642,8.799 3.19,13.305 1.921,15.777 -2.122,31.337 -9.533,45.199 -8.981,16.8 -22.92,28.068 -35.352,41.999 -8.065,9.037 -14.284,20.362 -19.864,31.059 -3.018,5.785 -6.27,11.812 -8.341,18.012 -2.385,7.141 -3.07,15.277 -3.647,22.755 -1.616,20.94 0.283,41.831 -1.233,62.733 -2.241,30.917 -9.6,60.278 -21.287,88.92 -13.055,31.993 -30.472,62.169 -57.635,84.227 -10.207,8.288 -21.521,15.118 -33.099,21.297 -17.091,9.12 -34.504,16.293 -53.075,21.835 -21.825,6.512 -43.791,9.383 -66.466,10.69 -42.59,2.456 -84.182,-1.814 -126.274,-8.112 L 332.156,831.864 c -44.246,-4.484 -89.261,-3.699 -133.332,2.269 L 158,841.024 91,854.041 c -10.6323,1.773 -21.5243,3.788 -32.3259,4.002 -3.0237,0.06 -7.7366,0.568 -10.4241,-0.896 -0.5013,-0.273 -0.7827,-0.542 -1.1999,-0.897 0.0587,-3.142 2.9165,-5.592 5.037,-7.629 7.5106,-7.214 18.3182,-12.745 27.2186,-18.15 l 44.3553,-26.401 45.614,-26.132 14.584,-8.292 47.957,-24.6 29.413,9.204 c 52.037,12.805 109.832,3.754 155.526,-24.104 7.498,-4.571 14.579,-9.795 21.344,-15.387 3.654,-3.021 7.313,-6.961 11.362,-9.364 l 0.371,-0.211 c 4.988,-1.081 9.861,-2.934 14.668,-4.621 5.624,-1.973 11.144,-3.889 16.434,-6.657 9.383,-3.293 18.536,-8.063 27.331,-12.689 44.13,-23.213 85.065,-56.369 114.466,-96.817 15.81,-21.751 33.007,-48.738 33.625,-76.459 0.146,-6.528 -1.037,-13.294 -2.053,-19.729 4.392,-4.601 7.503,-10.701 11.348,-15.812 4.071,-6.862 9.316,-13.304 13.783,-19.939 l 34.084,-47.187 c 13.061,-16.432 29.403,-35.131 48.912,-43.805 l 0.643,9.318 c 13.963,-3.085 26.578,-6.239 36.976,-16.69 z"
       id="path6-3" />
    <path
       fill="#fee985"
       transform="matrix(0.0634766,0,0,0.0634766,0,1.52588e-5)"
       d="m 804.913,375.706 c 12.884,-0.673 25.613,2.286 36.479,9.381 11.374,7.426 20.651,22.227 23.282,35.413 2.184,10.948 -0.287,23.431 -6.561,32.671 -9.833,14.482 -26.504,25.047 -43.632,28.232 -4.872,0.93 -10.502,1.01 -15.389,0.232 -14.038,-2.235 -28.262,-9.924 -36.676,-21.58 -8.208,-11.37 -10.93,-26.107 -8.382,-39.805 2.302,-12.377 10.026,-26.391 20.636,-33.499 4.803,-3.218 9.826,-6.381 15.386,-8.125 4.967,-1.557 9.675,-2.407 14.857,-2.92 z"
       id="path7" />
    <path
       fill="url(#gradient_0)"
       transform="matrix(0.0634766,0,0,0.0634766,0,1.52588e-5)"
       d="m 840.743,409.588 c 4.492,-0.472 8.701,0.038 12.502,2.662 6.748,4.659 8.804,10.324 10.161,18.157 -2.796,6.147 -6.326,10.216 -12.31,13.474 -3.091,1.112 -7.586,1.264 -10.664,0.165 -4.309,-1.538 -7.38,-4.663 -9.316,-8.727 -2.467,-5.179 -2.209,-11.442 -0.158,-16.729 1.787,-4.607 5.395,-7.128 9.785,-9.002 z"
       id="path8-5"
       style="fill:url(#gradient_0)" />
    <path
       fill="#2c3361"
       transform="matrix(0.0634766,0,0,0.0634766,0,1.52588e-5)"
       d="m 844.548,418.112 c 1.829,-0.092 4.221,0.121 5.914,0.831 3.267,1.369 5.926,4.6 7.056,7.895 1.009,2.942 0.632,6.01 -0.762,8.739 -2.002,3.923 -5.371,5.454 -9.348,6.656 -3.208,-0.063 -5.788,-0.132 -8.67,-1.793 -2.441,-1.407 -4.513,-3.766 -5.195,-6.549 -0.876,-3.574 -0.562,-7.229 1.415,-10.391 2.199,-3.517 5.737,-4.652 9.59,-5.388 z"
       id="path9-4" />
    <path
       fill="#ffffff"
       transform="matrix(0.0634766,0,0,0.0634766,0,1.52588e-5)"
       d="m 848.616,424.75 c 1.269,-0.216 1.484,-0.059 2.689,0.447 0.868,1.083 1.758,2.054 1.691,3.553 -0.063,1.443 -0.812,2.218 -1.746,3.173 -1.265,0.193 -2.615,0.375 -3.647,-0.529 -0.964,-0.845 -1.388,-2.406 -1.168,-3.644 0.278,-1.56 1.008,-2.117 2.181,-3 z"
       id="path10-1" />
    <path
       fill="url(#gradient_1)"
       transform="matrix(0.0634766,0,0,0.0634766,0,1.52588e-5)"
       d="m 798.156,398.096 c 4.025,-0.164 7.028,-0.019 10.666,1.989 3.401,1.877 6.127,5.277 7.138,9.025 l 0.165,0.64 c 0.747,2.824 1.017,5.292 0.554,8.201 l -0.132,0.799 c -0.476,3.064 -1.21,5.742 -2.618,8.525 L 813.557,428 c -0.656,1.303 -1.283,2.454 -2.274,3.539 -3.728,4.082 -7.281,4.915 -12.611,5.216 -3.586,-0.084 -7.135,-0.147 -10.146,-2.399 L 788,433.946 c -3.51,-2.713 -6.246,-7.053 -7.25,-11.399 -1.207,-5.227 -0.305,-10.403 2.5,-14.946 3.391,-5.49 8.826,-8.195 14.906,-9.505 z"
       id="path11-5"
       style="fill:url(#gradient_1)" />
    <path
       fill="#2c3361"
       transform="matrix(0.0634766,0,0,0.0634766,0,1.52588e-5)"
       d="m 796.36,408.574 4.39,0.028 c 3.272,0.439 6.738,2.54 8.667,5.207 1.925,2.662 2.932,6.304 2.328,9.559 L 811.613,424 c -0.281,1.389 -0.649,2.617 -1.325,3.875 -2,3.721 -5.101,5.395 -8.986,6.589 -3.07,0.298 -6.165,0.341 -8.934,-1.158 -3.419,-1.849 -5.824,-4.882 -6.736,-8.672 -0.872,-3.621 -0.098,-7.545 1.921,-10.634 2.114,-3.233 5.204,-4.596 8.807,-5.426 z"
       id="path12" />
    <path
       fill="#ffffff"
       transform="matrix(0.0634766,0,0,0.0634766,0,1.52588e-5)"
       d="m 802.963,415.75 c 1.969,0.23 2.421,0.362 4.035,1.5 0.612,1.142 0.926,1.93 0.662,3.25 -0.309,1.544 -1.179,2.011 -2.41,2.806 -0.402,0.076 -0.837,0.182 -1.25,0.142 -1.254,-0.122 -2.378,-0.628 -3.091,-1.698 -0.8,-1.2 -0.997,-2.418 -0.562,-3.798 0.411,-1.301 1.487,-1.723 2.616,-2.202 z"
       id="path13" />
    <path
       fill="#76ae92"
       transform="matrix(0.0634766,0,0,0.0634766,0,1.52588e-5)"
       d="m 665.651,472.4 c 6.635,12.688 10.216,27.179 11.988,41.303 3.37,26.87 0.861,54.654 -7.212,80.514 -16.517,52.911 -51.64,97.964 -95.615,131.095 -15.713,11.838 -32.789,21.726 -50.23,30.769 -67.673,35.087 -149.89,47.622 -225.385,42.364 -27.873,-1.941 -55.757,-6.242 -82.447,-14.701 -6.595,-2.09 -13.371,-4.346 -19.662,-7.245 l -13.229,-6.853 47.957,-24.6 29.413,9.204 c 52.037,12.805 109.832,3.754 155.526,-24.104 7.498,-4.571 14.579,-9.795 21.344,-15.387 3.654,-3.021 7.313,-6.961 11.362,-9.364 l 0.371,-0.211 c 4.988,-1.081 9.861,-2.934 14.668,-4.621 5.624,-1.973 11.144,-3.889 16.434,-6.657 9.383,-3.293 18.536,-8.063 27.331,-12.689 44.13,-23.213 85.065,-56.369 114.466,-96.817 15.81,-21.751 33.007,-48.738 33.625,-76.459 0.146,-6.528 -1.037,-13.294 -2.053,-19.729 4.392,-4.601 7.503,-10.701 11.348,-15.812 z"
       id="path14" />
    <path
       fill="#ae6723"
       transform="matrix(0.0634766,0,0,0.0634766,0,1.52588e-5)"
       d="m 93.8569,581.972 c -3.2995,-10.777 -4.9264,-23.04 -6.0221,-34.222 -1.0007,-10.213 -1.9161,-20.357 -1.7759,-30.632 0.4966,-36.4 9.2807,-74.295 24.3541,-107.368 30.04,-65.914 85.714,-113.381 152.914,-138.494 55.941,-20.904 122.034,-21.003 178.816,-3.265 7.421,2.318 15.408,4.467 22.466,7.692 75.192,28.881 139.63,88.251 172.403,162.003 7.246,16.308 13.57,33.029 17.291,50.526 1.016,6.435 2.199,13.201 2.053,19.729 -0.618,27.721 -17.815,54.708 -33.625,76.459 -29.401,40.448 -70.336,73.604 -114.466,96.817 -8.795,4.626 -17.948,9.396 -27.331,12.689 -5.29,2.768 -10.81,4.684 -16.434,6.657 -4.807,1.687 -9.68,3.54 -14.668,4.621 l -0.371,0.211 c -4.049,2.403 -7.708,6.343 -11.362,9.364 -6.765,5.592 -13.846,10.816 -21.344,15.387 -45.694,27.858 -103.489,36.909 -155.526,24.104 l -29.413,-9.204 -33.959,-17.279 C 145.39,694.997 107.949,642.229 93.8569,581.972 Z"
       id="path15" />
    <path
       fill="#753b0f"
       transform="matrix(0.0634766,0,0,0.0634766,0,1.52588e-5)"
       d="m 246.409,497.938 c 0.115,7.026 1.077,13.356 3.25,20.026 2.931,8.994 8.624,16.982 16.341,22.464 8.59,6.103 19.329,9.633 29.967,7.846 10.048,-1.688 19.235,-7.132 24.976,-15.564 5.327,-7.825 6.494,-16.551 4.628,-25.68 -1.129,-5.52 -5.173,-11.052 -9.829,-14.221 -5.06,-3.445 -11.413,-4.929 -17.422,-3.53 -5.203,1.211 -10.178,4.68 -12.869,9.339 -2.566,4.442 -3.812,9.553 -2.799,14.632 l -0.491,0.247 c -1.542,-5.834 0.032,-11.251 2.971,-16.37 4.477,-7.794 13.754,-13.613 22.368,-15.581 9.907,-2.263 20.313,0.18 28.756,5.658 8.441,5.476 14.222,14.09 17.57,23.446 3.356,9.38 2.747,19.721 -0.658,28.975 l -0.211,0.584 c -4.862,13.124 -15.399,23.413 -28.066,29.096 -4.815,2.16 -9.75,3.191 -14.953,3.917 -15.175,2.118 -31.306,-2.198 -43.428,-11.522 -13.893,-10.686 -23.074,-26.909 -25.297,-44.233 -0.203,-1.581 -0.318,-3.108 -0.257,-4.705 2.103,-2.509 2.82,-5.544 4.055,-8.512 0.873,-2.098 1.097,-4.073 1.398,-6.312 z"
       id="path16" />
    <path
       fill="#2c3361"
       transform="matrix(0.0634766,0,0,0.0634766,0,1.52588e-5)"
       d="m 240.956,512.762 c -0.974,-15.277 1.891,-29.802 9.611,-43.114 10.538,-18.173 28.956,-30.806 49.091,-36.093 22.592,-5.931 47.734,-2.666 67.812,9.333 22.291,13.322 38.218,34.787 44.513,59.941 6.593,26.347 2.343,56.883 -11.747,80.198 -17.206,28.472 -43.079,47.684 -75.442,55.649 -31.164,7.67 -65.446,1.106 -92.697,-15.43 -33.69,-20.441 -55.42,-53.222 -64.417,-91.297 -8.951,-37.885 0,-78.027 20.462,-110.699 25.172,-40.193 65.371,-67.234 111.418,-77.746 45.883,-10.474 94.776,-2.279 134.629,22.927 36.872,23.321 66.014,58.349 81.499,99.175 5.439,14.34 9.012,29.063 12.41,43.986 l -0.007,0.719 c -2.307,4.685 -3.285,10.216 -5.231,15.116 -4.515,11.37 -10.295,21.962 -16.607,32.41 -2.074,3.435 -4.051,7.309 -6.622,10.376 -0.728,-10.773 -0.162,-21.585 -1.103,-32.419 -3.109,-35.798 -16.206,-70.894 -36.936,-100.172 -25.121,-35.477 -64.617,-63.699 -107.987,-70.911 -39.864,-6.629 -81.251,1.614 -114.299,25.32 -29.592,21.226 -51.452,53.979 -57.28,90.195 -5.446,33.838 0.28,70.411 20.831,98.576 18.513,25.371 46.84,45.443 78.393,50.098 28.436,4.195 57.448,-2.83 80.65,-19.843 20.753,-15.218 37.465,-38.992 41.333,-64.798 3.816,-25.465 -0.691,-49.509 -16.201,-70.392 -14.084,-18.96 -34.598,-32.124 -58.097,-35.4 -19.908,-2.776 -40.563,1.151 -56.67,13.537 -15.419,11.858 -23.334,26.914 -25.856,45.934 -0.301,2.239 -0.525,4.214 -1.398,6.312 -1.235,2.968 -1.952,6.003 -4.055,8.512 z"
       id="path17" />
    <path
       fill="#753b0f"
       transform="matrix(0.0634766,0,0,0.0634766,0,1.52588e-5)"
       d="m 499.339,569.649 c 0.477,8.17 -0.683,16.748 -1.701,24.851 -4.909,39.095 -19.994,79.298 -46.312,109.03 l -1.494,1.654 -0.371,0.211 c -4.049,2.403 -7.708,6.343 -11.362,9.364 -6.765,5.592 -13.846,10.816 -21.344,15.387 -45.694,27.858 -103.489,36.909 -155.526,24.104 l -29.413,-9.204 -33.959,-17.279 C 145.39,694.997 107.949,642.229 93.8569,581.972 c 17.9321,27.159 37.0921,51.257 63.8581,70.343 50.927,36.313 106.644,48.594 168.379,38.2 55.441,-9.335 104.008,-39.546 141.668,-80.727 11.435,-12.505 21.762,-26.343 31.577,-40.139 z"
       id="path18" />
    <path
       fill="#753b0f"
       transform="matrix(0.0634766,0,0,0.0634766,0,1.52588e-5)"
       d="m 464.609,275.683 c 75.192,28.881 139.63,88.251 172.403,162.003 7.246,16.308 13.57,33.029 17.291,50.526 1.016,6.435 2.199,13.201 2.053,19.729 -0.618,27.721 -17.815,54.708 -33.625,76.459 -29.401,40.448 -70.336,73.604 -114.466,96.817 -8.795,4.626 -17.948,9.396 -27.331,12.689 -5.29,2.768 -10.81,4.684 -16.434,6.657 -4.807,1.687 -9.68,3.54 -14.668,4.621 l 1.494,-1.654 c 26.318,-29.732 41.403,-69.935 46.312,-109.03 1.018,-8.103 2.178,-16.681 1.701,-24.851 l 0.292,-1.436 c 2.571,-3.067 4.548,-6.941 6.622,-10.376 6.312,-10.448 12.092,-21.04 16.607,-32.41 1.946,-4.9 2.924,-10.431 5.231,-15.116 l 0.007,-0.719 c 1.256,-1.5 1.341,-4.142 1.821,-6.045 3.636,-14.419 5.579,-29.204 6.406,-44.047 C 539.14,409.001 523.913,357.085 496.068,315.062 486.736,300.98 475.82,288.27 464.609,275.683 Z"
       id="path19" />
    <path
       fill="#121c39"
       transform="matrix(0.0634766,0,0,0.0634766,0,1.52588e-5)"
       d="m 528.091,510.311 c 8.725,47.016 0.816,97.228 -19.936,140.159 -5.415,11.202 -12.191,22.112 -19.215,32.37 l -8.006,11.066 c -5.29,2.768 -10.81,4.684 -16.434,6.657 -4.807,1.687 -9.68,3.54 -14.668,4.621 l 1.494,-1.654 c 26.318,-29.732 41.403,-69.935 46.312,-109.03 1.018,-8.103 2.178,-16.681 1.701,-24.851 l 0.292,-1.436 c 2.571,-3.067 4.548,-6.941 6.622,-10.376 6.312,-10.448 12.092,-21.04 16.607,-32.41 1.946,-4.9 2.924,-10.431 5.231,-15.116 z"
       id="path20" />
  </g>
</svg>
