<?xml version="1.0" encoding="UTF-8" standalone="no"?>
<!-- Created with Inkscape (http://www.inkscape.org/) -->

<svg
   width="63mm"
   height="88mm"
   viewBox="0 0 63 88"
   version="1.1"
   id="svg1"
   inkscape:version="1.3.2 (091e20e, 2023-11-25, custom)"
   sodipodi:docname="card-unit.svg"
   xmlns:inkscape="http://www.inkscape.org/namespaces/inkscape"
   xmlns:sodipodi="http://sodipodi.sourceforge.net/DTD/sodipodi-0.dtd"
   xmlns:xlink="http://www.w3.org/1999/xlink"
   xmlns="http://www.w3.org/2000/svg"
   xmlns:svg="http://www.w3.org/2000/svg">
  <sodipodi:namedview
     id="namedview1"
     pagecolor="#ffffff"
     bordercolor="#000000"
     borderopacity="0.25"
     inkscape:showpageshadow="2"
     inkscape:pageopacity="0.0"
     inkscape:pagecheckerboard="0"
     inkscape:deskcolor="#d1d1d1"
     inkscape:document-units="mm"
     inkscape:zoom="1.7454522"
     inkscape:cx="39.244844"
     inkscape:cy="28.645872"
     inkscape:window-width="1350"
     inkscape:window-height="1008"
     inkscape:window-x="130"
     inkscape:window-y="0"
     inkscape:window-maximized="0"
     inkscape:current-layer="layer1" />
  <defs
     id="defs1">
    <radialGradient
       inkscape:collect="always"
       xlink:href="#linearGradient1"
       id="radialGradient2"
       cx="58.925697"
       cy="3.3495736"
       fx="58.925697"
       fy="3.3495736"
       r="3.7013359"
       gradientTransform="matrix(1.707443,0,0,0.89394564,-44.199046,-0.16694138)"
       gradientUnits="userSpaceOnUse" />
    <linearGradient
       id="linearGradient1"
       inkscape:collect="always">
      <stop
         style="stop-color:#e6da46;stop-opacity:1;"
         offset="0.52019387"
         id="stop1" />
      <stop
         style="stop-color:#e1d55f;stop-opacity:0;"
         offset="1"
         id="stop2" />
    </linearGradient>
  </defs>
  <g
     inkscape:label="Layer 1"
     inkscape:groupmode="layer"
     id="layer1">
    <g
       id="move"
       inkscape:label="move"
       transform="matrix(0.47822633,0,0,0.47822633,32.827906,35.519353)">
      <text
         xml:space="preserve"
         style="font-style:normal;font-variant:normal;font-weight:normal;font-stretch:normal;font-size:9.51525px;font-family:Amiri;-inkscape-font-specification:'Amiri, Normal';font-variant-ligatures:normal;font-variant-caps:normal;font-variant-numeric:normal;font-variant-east-asian:normal;fill:#000000;fill-opacity:1;stroke:none;stroke-width:0.0173914;stroke-dasharray:none;stroke-opacity:1;paint-order:markers fill stroke"
         x="8.4406309"
         y="7.7900329"
         id="text1-96"><tspan
           sodipodi:role="line"
           id="tspan1-8"
           x="8.4406309"
           y="7.7900329">Move</tspan></text>
      <path
         fill="#fefefe"
         d="m 2.6887754,5.1530799 0.012867,0.00311 C 2.8043794,5.3813888 2.9105149,5.3778684 3.0596493,5.5960186 2.5915739,5.5895617 2.3596868,5.5308866 1.9371198,5.3391259 1.8563764,5.333864 1.6525392,5.1528152 1.6109641,5.1197415 1.5245142,5.0509771 1.4475607,4.9798899 1.3724006,4.9048992 c 0.16892,0.053127 0.3433085,0.09145 0.5149049,0.1261412 0.2677798,0.054166 0.5350269,0.096711 0.8014838,0.1219824 z"
         id="path2-5-1"
         style="stroke:#000000;stroke-width:0.138957;stroke-dasharray:none;stroke-opacity:1"
         sodipodi:nodetypes="ccccccccc" />
      <path
         fill="#fefefe"
         d="m 2.5007839,4.5035574 c 0.00993,0.00225 0.019343,0.00368 0.028394,0.00852 0.011422,0.089299 0.028931,0.1758742 0.06065,0.2603275 l 0.041363,0.098646 c 0.00676,0.015255 0.018731,0.035354 0.020973,0.051708 C 2.449593,5.0016602 2.3000158,4.9549474 2.1216077,4.8651431 1.831932,4.6948982 1.5816729,4.4208527 1.4638372,4.1037228 1.6882947,4.2735064 1.9568008,4.3609631 2.2252864,4.4344672 Z"
         id="path3-9"
         style="stroke:#000000;stroke-width:0.138957;stroke-dasharray:none;stroke-opacity:1"
         sodipodi:nodetypes="ccccccccc" />
      <path
         fill="#fefefe"
         d="M 2.4353443,4.1662252 C 2.3761115,4.1506379 2.3149249,4.140104 2.2570928,4.1194096 2.206077,4.101159 2.154044,4.0719085 2.1073637,4.0442782 1.9778157,3.9676016 1.8600995,3.8714116 1.7607137,3.7581204 1.4967043,3.4571873 1.3996297,3.0652395 1.4253497,2.6721975 1.5116514,2.8664229 1.6388352,3.0365423 1.8081462,3.1670413 l 0.094519,0.066213 c 0.016832,0.010846 0.042104,0.02089 0.055815,0.035037 0.012599,0.013002 0.023095,0.029203 0.034369,0.043462 l 0.082661,0.1012872 C 2.2076639,3.5606827 2.3628142,3.696074 2.5317,3.8000176 l 0.00769,0.00822 C 2.5022411,3.9264844 2.477062,4.0479937 2.476006,4.1722598 Z"
         id="path6-5-5"
         style="stroke:#000000;stroke-width:0.138957;stroke-dasharray:none;stroke-opacity:1" />
      <path
         fill="#fefefe"
         d="M 2.606836,3.5104255 C 2.2440929,3.2767109 1.9323323,2.9235266 1.7670983,2.5231879 1.7410114,2.4599698 1.7221317,2.3944562 1.7036782,2.3286969 1.5834395,1.9001347 1.6153478,1.4239946 1.7863855,1.0132547 c 0.017296,0.043388 0.025179,0.09406 0.03738,0.1394261 0.021409,0.079616 0.047783,0.1559645 0.081207,0.2313854 0.028255,0.063756 0.058825,0.1281293 0.094633,0.1879332 l 0.054036,0.084062 c 0.011218,0.016369 0.030348,0.037229 0.036416,0.056037 0.012738,0.039439 0.015702,0.084225 0.025615,0.124676 0.019982,0.081523 0.046791,0.1622106 0.074073,0.2415725 0.027513,0.080034 0.063624,0.1564377 0.1000056,0.2326825 l 0.089248,0.1793645 C 2.490992,2.6925844 2.6274045,2.8822963 2.768522,3.0649503 l 0.014035,0.018464 c -0.00306,0.020029 -0.016351,0.042485 -0.02454,0.061285 L 2.718044,3.2428453 2.621817,3.5151259 Z"
         id="path8-0"
         style="stroke:#000000;stroke-width:0.138957;stroke-dasharray:none;stroke-opacity:1" />
      <path
         fill="#fefefe"
         d="M 2.9254537,2.8017679 C 2.836447,2.6802515 2.7461045,2.5593931 2.6667562,2.4312029 2.6089871,2.3378884 2.5594423,2.2421329 2.5115197,2.143596 2.4450519,2.0068999 2.3856171,1.8576039 2.3584927,1.7073362 2.3437632,1.6257295 2.3314053,1.544269 2.3277739,1.4613073 2.3132389,1.1297743 2.3991886,0.79183373 2.5567846,0.50080347 c 0.04329,-0.0799476 0.092917,-0.15465908 0.1448063,-0.22916403 0.0025,0.002501 0.00139,0.019114 0.00148,0.0235588 0.0013,0.15207382 0.00741,0.30178028 0.025411,0.45289863 C 2.7701709,1.0984076 2.8577334,1.4350205 2.960306,1.7717753 l 0.1959315,0.5844094 c -0.0075,0.023123 -0.024836,0.045422 -0.036926,0.06664 l -0.043725,0.083489 -0.1388433,0.2987595 -0.00463,0.00233 z"
         id="path9-5"
         style="stroke:#000000;stroke-width:0.138957;stroke-dasharray:none;stroke-opacity:1" />
      <path
         fill="#0f0f0f"
         d="M 3.2220838,5.7339995 C 3.5982622,6.2099948 3.9910432,6.6701674 4.4340137,7.0858 c 0.3010656,0.282476 0.6278735,0.5488414 0.9933318,0.7441192 0.4747454,0.2536757 1.0240681,0.3999677 1.5564771,0.4632345 0.1483266,0.017621 0.2971942,0.022456 0.4461646,0.030499 0.1373787,0.00742 0.2772354,0.021021 0.4146603,0.00948 -0.018629,0.0234 -0.058445,0.033316 -0.086644,0.044943 C 7.5543289,8.4620886 7.337891,8.5126305 7.1191493,8.537476 6.4733735,8.6108177 5.7973199,8.4544491 5.2240289,8.1567127 4.9646495,8.0220124 4.7251828,7.8575733 4.4971114,7.6755367 4.1413782,7.3915872 3.8166418,7.0646957 3.5247242,6.7158831 L 3.2816427,6.416015 2.7378578,6.9191898 1.4625301,6.298187 1.6119044,5.3584072 c 0.022808,0.012569 0.04606,0.027545 0.070813,0.035768 0.1390878,0.071095 0.279114,0.1408925 0.4256379,0.1955631 0.3552811,0.1325901 0.4454634,0.1772856 0.8221078,0.1471087 z"
         id="path10-2"
         style="fill:none;fill-opacity:1;stroke:#000000;stroke-width:0.138957;stroke-dasharray:none;stroke-opacity:1"
         sodipodi:nodetypes="ccccccccccccccccccc" />
      <path
         fill="#dc9308"
         d="m 5.0313944,1.9441039 0.00862,0.00209 c 0.029357,0.0067 0.068728,0.00187 0.099102,0.0013 l 0.2144304,-0.00317 c 0.1432241,-0.00145 0.2913302,0.00656 0.4337391,-0.00259 C 5.4091736,2.5524543 5.1962949,3.2663481 5.2161704,3.986467 5.2231183,4.2410976 5.2608498,4.4888372 5.3191645,4.7363428 5.5447736,5.6938803 6.014283,6.5466157 6.5956447,7.1862815 7.319633,7.9425415 7.1031469,7.6517488 7.8026565,8.2002497 6.7661998,7.978012 6.5133293,7.947116 6.2260547,7.8214361 5.6337747,7.4512402 5.32993,7.4091598 4.6166841,6.7197503 3.8512671,5.9799137 3.5222072,5.7747439 3.2400834,5.0927537 L 3.0452274,3.9305752 C 2.8728269,2.5685003 3.3096027,2.0411642 3.2866785,1.9613303 l 1.2732434,-0.015689 0.318363,0.0036 c 0.050979,-4.787e-4 0.1024883,0.00122 0.1531049,-0.00505 z"
         id="path11-9"
         style="fill:none;stroke:#000000;stroke-width:0.138957;stroke-dasharray:none;stroke-opacity:1"
         sodipodi:nodetypes="cccccsccccsccccccc" />
      <path
         id="path2-05"
         inkscape:transform-center-x="-0.01384138"
         inkscape:transform-center-y="-3.4740104"
         d="M 2.8998773,5.4466702 C 4.1182919,5.0054836 3.7365292,4.8742049 4.1959569,1.9919714 4.6829944,4.8473545 4.3541041,5.0220633 5.5057025,5.4346106 Z"
         sodipodi:nodetypes="cccc"
         style="stroke-width:0.639549" />
      <path
         id="path2-0-5"
         inkscape:transform-center-x="-0.0031689084"
         inkscape:transform-center-y="-1.2141184"
         d="M 3.915985,5.9807489 C 4.1623144,5.8245355 4.1464187,5.6026059 4.2127448,4.7733784 4.2849933,5.6091901 4.2628898,5.8276831 4.5126339,5.9765333 Z"
         sodipodi:nodetypes="cccc"
         style="stroke-width:0.180918" />
    </g>
    <g
       id="will"
       inkscape:label="will"
       transform="matrix(0.0335828,0,0,0.0335828,32.38227,26.751213)">
      <path
         fill="#af1613"
         d="m 75.740921,39.648023 c 2.505751,-3.047108 6.000609,-5.229545 9.984101,-5.62375 3.923183,-0.388225 7.741156,0.7666 10.783757,3.276275 3.143952,2.593394 5.077141,6.367282 5.452261,10.412016 0.36315,3.915136 -0.87832,7.95309 -3.397119,10.97454 L 75.782689,81.648299 60.783292,66.446138 l 3.547924,0.01309 11.422678,11.671915 c 0.239127,-0.173559 0.453126,-0.430914 0.662199,-0.640378 l 1.173702,-1.176177 4.158258,-4.147341 9.904037,-9.901183 2.97416,-2.969113 c 1.08481,-1.086 2.171061,-2.117196 3.005768,-3.418122 1.840221,-2.868098 2.330978,-6.292463 1.612534,-9.60113 -0.724965,-3.33891 -2.676845,-6.199167 -5.557663,-8.044916 -2.586938,-1.65748 -5.826182,-2.360509 -8.84896,-1.684347 -4.032173,0.901915 -6.916169,3.528299 -9.064158,6.936113 l -0.07831,-0.03615 z"
         id="path2-3"
         style="stroke-width:0.0664992" />
      <path
         fill="#e7342a"
         d="m 60.783292,66.446138 -7.511468,-7.684556 c -2.608886,-2.84882 -3.873966,-6.699384 -3.693217,-10.534577 0.183874,-3.90216 1.9018,-7.75532 4.804225,-10.391872 2.915449,-2.648265 6.683483,-4.028115 10.622419,-3.827891 3.245355,0.164919 6.494035,1.487789 8.904093,3.672941 0.437424,0.396545 0.864822,0.812097 1.255032,1.255503 0.195372,0.222038 0.356704,0.472611 0.555931,0.690194 l 0.02057,0.02217 -0.04545,3.800355 0.07831,0.03615 c 2.14798,-3.407806 5.031976,-6.034179 9.064148,-6.936103 3.022787,-0.676162 6.262026,0.02686 8.848971,1.684347 2.880796,1.845748 4.832678,4.706006 5.557663,8.044925 0.718453,3.308657 0.227697,6.733022 -1.612545,9.601131 -0.834687,1.300915 -1.920945,2.332112 -3.005756,3.418112 l -2.974161,2.969113 -9.904048,9.901182 -4.158246,4.147352 -1.173712,1.176158 c -0.209075,0.209484 -0.423073,0.466828 -0.662199,0.640407 L 64.331176,66.459264 Z"
         id="path3-8"
         style="stroke-width:0.0664992" />
      <path
         fill="#ef957e"
         d="m 57.925303,59.911883 -0.03807,-0.01529 c -0.132198,-0.06672 -0.263539,-0.210802 -0.374262,-0.311678 l -0.872272,-0.843538 c -0.504991,-0.48937 -1.048155,-0.947418 -1.528678,-1.46079 -1.137596,-1.215071 -2.025487,-2.797274 -2.560742,-4.369318 -1.051682,-3.089146 -0.850329,-6.615857 0.608334,-9.54434 1.463238,-2.937602 4.079784,-5.271513 7.200581,-6.317741 2.993523,-1.003531 6.273715,-0.777108 9.107444,0.632605 2.241084,1.114924 3.818902,2.744089 5.257351,4.760399 0.213259,0.298984 0.61251,0.722916 0.725961,1.060661 l -0.03236,-0.02217 c -0.610518,-0.424459 -1.146572,-0.919272 -1.785558,-1.312551 -2.595931,-1.597703 -5.740869,-2.14779 -8.735181,-1.628836 -3.11868,0.540508 -5.834693,2.3433 -7.642669,4.925527 -1.788959,2.555091 -2.500167,5.965363 -1.949692,9.027242 0.346926,1.929939 1.235687,3.999053 2.61986,5.419803 z"
         id="path4-3"
         style="stroke-width:0.0664992" />
      <text
         xml:space="preserve"
         style="font-style:normal;font-variant:normal;font-weight:normal;font-stretch:normal;font-size:135.499px;font-family:Amiri;-inkscape-font-specification:'Amiri, Normal';font-variant-ligatures:normal;font-variant-caps:normal;font-variant-numeric:normal;font-variant-east-asian:normal;fill:#d15151;fill-opacity:1;stroke:none;stroke-width:0.269287;stroke-dasharray:none;stroke-opacity:1;paint-order:markers fill stroke"
         x="159.70671"
         y="120.21738"
         id="text1-9"><tspan
           sodipodi:role="line"
           id="tspan1-3"
           x="159.70671"
           y="120.21738">Will</tspan></text>
      <rect
         style="fill:#ef957e;fill-opacity:1;stroke:none;stroke-width:0.487956;paint-order:markers fill stroke"
         id="rect1-6"
         width="52.280571"
         height="2.1633332"
         x="49.704567"
         y="45.468754" />
      <path
         fill="#37b2df"
         d="m 66.620224,9.4591941 c 8.91294,0.4055041 10.845837,-0.098179 19.549763,0.1039193 0.295481,2.8766446 0.406951,5.7050986 1.130022,8.5255756 0.266286,1.039047 0.601429,2.166402 1.216128,3.056385 l 19.554493,5.539377 4.89472,1.278197 c 2.36017,0.570463 4.66399,1.046857 6.79295,2.279948 2.6729,1.548031 4.78033,4.004322 6.18356,6.73117 2.16155,4.200571 2.18205,9.008462 2.8712,13.58767 l -13.49227,6.145222 -1.73646,0.828787 c -0.36007,0.154825 -0.78072,0.268351 -1.10731,0.478611 l -0.72469,4.41421 -1.61247,6.86269 -2.91588,9.898015 -3.91923,11.667486 c -2.41678,8.055956 -3.0617,16.647593 -1.4948,24.929593 1.07237,5.66779 3.16212,11.07166 4.90078,16.5522 -0.1638,0.23886 -0.68619,0.44087 -0.95352,0.57798 -1.35178,0.69005 -2.76047,1.26066 -4.19659,1.75018 -8.637345,2.94301 -17.467989,3.96333 -26.562705,3.79082 -9.93722,-0.18873 -19.879601,-1.84012 -28.863585,-6.25462 0.605852,-1.17072 1.073844,-2.46824 1.534162,-3.70531 l 2.29956,-6.97711 c 1.096551,-3.70825 2.031648,-7.48284 2.373426,-11.34443 C 53.408983,98.114741 48.30517,86.810856 44.53809,75.682425 42.932998,70.941315 41.718046,65.957374 40.634475,61.073097 l -0.442479,-2.904958 c -2.026934,-0.732073 -4.003148,-1.910002 -5.946773,-2.850411 l -10.218397,-4.94812 0.853267,-6.31848 c 1.040086,-6.18325 3.853187,-11.968416 9.925284,-14.504023 2.735544,-1.142419 5.877459,-1.7608 8.744528,-2.518374 L 57.34518,23.137056 61.425285,21.91945 c 0.980069,-0.295033 2.14459,-0.549667 2.978247,-1.1424 1.775535,-3.424418 2.107434,-7.520006 2.216692,-11.317895 z"
         id="path5-02"
         sodipodi:nodetypes="ccccccccccccccccccccccccscccccccccccc"
         style="fill:none;stroke:#f19494;stroke-width:2.56993;stroke-dasharray:none;stroke-opacity:1" />
      <path
         fill="#26A4D4"
         d="m 76.504127,83.941348 0.0765,0.06463 0.05392,41.995612 -0.09909,0.19866 c -0.148754,-1.13043 -0.10855,-2.34954 -0.139176,-3.49179 l -0.176181,-4.55009 -0.292659,-13.73186 0.269836,-10.828808 0.181034,-7.281198 c 0.03631,-0.794255 -0.01857,-1.589349 0.125813,-2.375208 z"
         id="path6-5"
         style="fill:#6f838b;fill-opacity:1;stroke-width:0.118246" />
      <path
         fill="#26A4D4"
         d="m 112.39614,49.300569 c -0.1771,1.443682 -0.54408,2.888233 -0.89315,4.298867 -0.36211,1.463512 -0.74304,2.998958 -1.33573,4.388445 -0.48226,1.130157 -1.17831,2.22213 -1.79287,3.287079 -1.89025,3.275324 -3.79754,6.382663 -6.56021,9.012875 -3.703688,3.526151 -8.295369,5.261469 -13.401908,5.144135 l -0.08181,-0.04804 -0.01879,-0.09304 0.979045,-0.267999 c 5.438857,-1.45821 10.158296,-4.863502 13.612783,-9.277067 2.45062,-3.130976 4.36187,-6.696618 6.21362,-10.202354 z"
         id="path7-1"
         style="fill:#f19494;fill-opacity:1;stroke-width:0.151173;stroke-dasharray:none" />
      <path
         fill="#26A4D4"
         d="m 38.74511,47.820763 c 0.314649,0.373041 0.493199,1.209942 0.676334,1.677637 l 1.395424,3.339039 c 0.993925,2.222306 2.033112,4.42823 3.243346,6.542448 3.577172,6.248575 8.430922,12.701368 15.546628,15.076868 1.058806,0.353427 2.230995,0.666298 3.336835,0.821269 0.953086,0.133444 1.926372,0.155996 2.857487,0.40857 l -1.481382,0.108069 C 58.774958,76.054159 53.22674,74.056279 49.123781,70.330335 45.2529,66.815246 42.824479,62.190474 40.988341,57.361934 39.848734,54.364675 38.894026,51.038016 38.74511,47.820753 Z"
         id="path8-5"
         style="fill:#f29494;fill-opacity:0.745098;stroke-width:0.147446" />
    </g>
    <g
       id="mind"
       inkscape:label="mind"
       transform="matrix(0.03371796,0,0,0.03371796,32.630501,17.041355)">
      <text
         xml:space="preserve"
         style="font-style:normal;font-variant:normal;font-weight:normal;font-stretch:normal;font-size:134.956px;font-family:Amiri;-inkscape-font-specification:'Amiri, Normal';font-variant-ligatures:normal;font-variant-caps:normal;font-variant-numeric:normal;font-variant-east-asian:normal;fill:#d15151;fill-opacity:1;stroke:none;stroke-width:0.269287;stroke-dasharray:none;stroke-opacity:1;paint-order:markers fill stroke"
         x="129.34619"
         y="120.05723"
         id="text1-5"><tspan
           sodipodi:role="line"
           id="tspan1-9"
           style="font-style:normal;font-variant:normal;font-weight:normal;font-stretch:normal;font-size:134.956px;font-family:Amiri;-inkscape-font-specification:'Amiri, Normal';font-variant-ligatures:normal;font-variant-caps:normal;font-variant-numeric:normal;font-variant-east-asian:normal;stroke:none;stroke-width:0.269291"
           x="129.34619"
           y="120.05723">Mind</tspan></text>
      <path
         fill="#8751D1"
         d="m 44.550227,132.12207 c -0.222536,-0.0303 -0.548311,0.04 -0.778971,0.0618 l -1.689408,0.16726 c -3.340906,0.29694 -7.690061,0.79265 -10.688454,-0.98537 -2.075563,-1.23018 -3.332296,-3.51361 -3.388405,-5.91024 -0.02834,-1.21478 0.192947,-2.43599 0.303363,-3.64377 0.139016,-1.5213 0.104837,-3.19122 -0.325059,-4.66647 -0.312456,-1.07263 -1.305935,-1.70432 -2.043803,-2.49128 -0.290886,-0.31015 -0.593279,-0.62467 -0.67982,-1.05759 -0.07561,-0.37851 0.0036,-0.70165 0.206651,-1.02526 0.631936,-1.00982 1.836668,-1.57524 2.952329,-1.84163 -1.316492,-0.59231 -2.673694,-1.0359 -3.354107,-2.42123 -0.06619,-0.86863 0.607325,-1.3332 1.099528,-1.9781 0.396926,-0.52009 0.815797,-1.15953 1.027776,-1.78153 0.274402,-0.80501 0.3527,-1.79961 -0.05597,-2.57456 -0.29016,-0.55037 -0.817986,-0.85179 -1.387867,-1.03953 -0.961245,-0.31658 -2.192892,-0.1549 -3.206371,-0.21937 -0.972143,-0.0619 -2.138102,-0.38626 -2.800819,-1.145965 -1.419267,-1.626634 -0.508444,-2.997042 0.283362,-4.647917 l 3.952239,-8.184696 c 1.190184,-2.503992 2.519026,-5.102179 3.108433,-7.824834 0.207368,-0.957856 0.249674,-1.982968 0.144954,-2.958868 -0.139502,-1.301092 -0.498623,-2.59407 -0.695928,-3.890067 -0.450757,-2.960931 -0.569047,-5.956652 -0.388576,-8.944731 l 5.231385,-15.41493 c 3.044171,-6.250418 6.197672,-10.84724 10.70163,-14.643762 8.63213,-8.053012 12.087838,-8.660607 14.300299,-9.655862 9.144244,-3.102226 22.705886,-2.92171 26.766165,-1.50882 3.865301,1.146532 9.885158,3.363973 13.341738,6.558622 7.498479,6.930265 11.759289,12.72207 15.286529,25.275811 1.01557,10.605376 2.21946,16.346381 -7.99752,34.697859 -4.327627,4.044077 -3.21603,8.80263 -4.235921,19.67504 -2.422518,7.69191 1.353861,23.91333 -1.666945,24.3036 z"
         id="path2-9"
         style="fill:none;fill-opacity:1;stroke:#d15151;stroke-width:2.08309;stroke-dasharray:none;stroke-opacity:1"
         sodipodi:nodetypes="ccccccccccccscccccccscccccccsccccc" />
      <path
         style="fill:#d80000;fill-opacity:1;stroke-width:3.13804"
         id="path1-3-2"
         sodipodi:type="arc"
         sodipodi:cx="71.312637"
         sodipodi:cy="61.071789"
         sodipodi:rx="33.343418"
         sodipodi:ry="35.017944"
         sodipodi:start="0.027304543"
         sodipodi:end="6.2831853"
         sodipodi:open="true"
         sodipodi:arc-type="arc"
         d="M 104.64363,62.027819 A 33.343418,35.017944 0 0 1 70.629865,96.082391 33.343418,35.017944 0 0 1 37.972327,60.593729 33.343418,35.017944 0 0 1 71.540242,26.05466 33.343418,35.017944 0 0 1 104.65606,61.071789" />
      <path
         style="fill:#ffffff;fill-opacity:1;stroke-width:3.00049"
         id="path1-8"
         sodipodi:type="arc"
         sodipodi:cx="71.286804"
         sodipodi:cy="60.370335"
         sodipodi:rx="31.841854"
         sodipodi:ry="33.525223"
         sodipodi:start="0.027304543"
         sodipodi:end="6.2831853"
         sodipodi:open="true"
         sodipodi:arc-type="arc"
         d="M 103.11679,61.285612 A 31.841854,33.525223 0 0 1 70.634779,93.888528 31.841854,33.525223 0 0 1 39.447917,59.912654 31.841854,33.525223 0 0 1 71.504159,26.845893 31.841854,33.525223 0 0 1 103.12866,60.370335" />
      <rect
         style="fill:#cc0400;fill-opacity:1;stroke-width:3.68045"
         id="rect1-0"
         width="39.167217"
         height="40.023563"
         x="82.582901"
         y="-51.369141"
         transform="matrix(0.52984252,0.84809604,-0.54411318,0.83901183,0,0)" />
      <path
         id="path3-2-2"
         style="fill:#ffffff;stroke-width:3.74606"
         d="M 92.718114,60.658931 71.43617,63.093139 50.154233,60.658931 71.43617,60.172103 Z"
         sodipodi:nodetypes="ccccc" />
      <path
         id="path4-2"
         style="fill:#ffffff;stroke-width:2.12121"
         inkscape:transform-center-x="-0.00014167674"
         inkscape:transform-center-y="-0.20077548"
         d="M 70.601602,61.006681 71.457409,25.026665 72.337638,60.67068 Z" />
    </g>
    <g
       id="body"
       transform="matrix(0.03392854,0,0,0.03392854,5.5728898,11.788504)"
       inkscape:label="body">
      <path
         fill="#37b2df"
         d="m 858.77252,-88.874237 c 8.05919,0.366653 9.80694,-0.08878 17.67714,0.09396 0.26718,2.601107 0.36797,5.158622 1.02178,7.708938 0.24077,0.939514 0.54382,1.958888 1.09963,2.763618 l 17.68142,5.008774 4.42588,1.155764 c 2.13409,0.515821 4.21724,0.946583 6.14227,2.061563 2.41687,1.399742 4.32243,3.620751 5.59125,6.086402 1.9545,3.798209 1.97303,8.14557 2.59618,12.286147 l -12.19989,5.556583 -1.57013,0.749401 c -0.32557,0.139995 -0.70594,0.242649 -1.00124,0.432763 l -0.65528,3.991389 -1.45801,6.20533 -2.63658,8.949904 -3.54382,10.549893 c -2.18528,7.2842982 -2.76843,15.05296047 -1.35162,22.5416518 0.96966,5.1248892 2.85923,10.0111322 4.43135,14.9667092 -0.14811,0.215977 -0.62046,0.398637 -0.86218,0.522618 -1.2223,0.623954 -2.49606,1.139906 -3.79461,1.582533 -7.81,2.661102 -15.79478,3.583689 -24.01833,3.427707 -8.98536,-0.170654 -17.97539,-1.663856 -26.09882,-5.655505 0.54782,-1.058582 0.97098,-2.231814 1.38721,-3.350392 l 2.07929,-6.308785 c 0.99152,-3.3530497 1.83704,-6.7660763 2.14608,-10.2577779 0.96526,-10.9057258 -3.64967,-21.1268431 -7.05592,-31.1893141 -1.45134,-4.28697 -2.54991,-8.793513 -3.5297,-13.209936 l -0.40009,-2.626702 c -1.83278,-0.661942 -3.6197,-1.727047 -5.37714,-2.577375 l -9.23961,-4.474149 0.77153,-5.713247 c 0.94046,-5.590978 3.4841,-10.821994 8.97458,-13.114728 2.4735,-1.032985 5.31447,-1.59213 7.9069,-2.277141 l 12.47386,-3.518901 3.68929,-1.100972 c 0.88618,-0.266774 1.93916,-0.49702 2.69297,-1.032976 1.60546,-3.096398 1.90556,-6.799682 2.00436,-10.233787 z"
         id="path5"
         sodipodi:nodetypes="ccccccccccccccccccccccccscccccccccccc"
         style="fill:none;stroke:#000000;stroke-width:2.32377;stroke-dasharray:none;stroke-opacity:1" />
      <path
         fill="#26A4D4"
         d="m 867.70966,-21.526539 0.0692,0.05849 0.0487,37.972961 -0.0896,0.179632 c -0.1345,-1.02215 -0.0982,-2.124484 -0.12584,-3.157324 l -0.15931,-4.1142518 -0.26462,-12.4165133 0.24398,-9.7915479 0.16369,-6.583755 c 0.0328,-0.718174 -0.0168,-1.437105 0.11377,-2.147687 z"
         id="path6"
         style="fill:#6f838b;fill-opacity:1;stroke-width:0.106919" />
      <path
         fill="#26A4D4"
         d="m 900.16368,-52.849167 c -0.16014,1.305391 -0.49197,2.611573 -0.8076,3.887091 -0.32743,1.323319 -0.67187,2.711689 -1.20778,3.968086 -0.43607,1.021901 -1.06545,2.009275 -1.62115,2.972215 -1.70919,2.961593 -3.43378,5.771282 -5.93182,8.149553 -3.34892,3.188391 -7.50078,4.757486 -12.11817,4.651391 l -0.074,-0.0434 -0.017,-0.08417 0.88526,-0.242326 c 4.91789,-1.318533 9.18527,-4.397642 12.30885,-8.388439 2.21588,-2.831067 3.94406,-6.055168 5.61845,-9.225094 z"
         id="path7"
         style="fill:#768084;fill-opacity:1;stroke-width:0.132784" />
      <path
         fill="#26A4D4"
         d="m 833.56749,-54.187229 c 0.28451,0.337309 0.44595,1.094043 0.61155,1.516942 l 1.26176,3.0192 c 0.89871,2.009433 1.83836,4.004057 2.93267,5.915762 3.23453,5.650045 7.62335,11.484738 14.05746,13.632694 0.95738,0.319574 2.01729,0.602478 3.0172,0.742604 0.8618,0.120655 1.74185,0.141052 2.58378,0.369429 l -1.33948,0.09772 c -5.0137,0.234645 -10.03047,-1.571867 -13.74042,-4.94091 -3.5001,-3.178391 -5.6959,-7.360169 -7.35617,-11.726188 -1.03044,-2.710168 -1.8937,-5.718173 -2.02835,-8.627261 z"
         id="path8"
         style="fill:#6c858e;fill-opacity:1;stroke-width:0.133322" />
      <text
         xml:space="preserve"
         style="font-style:normal;font-variant:normal;font-weight:normal;font-stretch:normal;font-size:134.119px;font-family:Amiri;-inkscape-font-specification:'Amiri, Normal';font-variant-ligatures:normal;font-variant-caps:normal;font-variant-numeric:normal;font-variant-east-asian:normal;fill:#000000;fill-opacity:1;stroke:none;stroke-width:0.243793;stroke-dasharray:none;stroke-opacity:1;paint-order:markers fill stroke"
         x="927.79181"
         y="7.6085768"
         id="text1"><tspan
           sodipodi:role="line"
           id="tspan1"
           style="font-style:normal;font-variant:normal;font-weight:normal;font-stretch:normal;font-size:134.119px;font-family:Amiri;-inkscape-font-specification:'Amiri, Normal';font-variant-ligatures:normal;font-variant-caps:normal;font-variant-numeric:normal;font-variant-east-asian:normal;fill:#000000;fill-opacity:1;stroke:none;stroke-width:0.243796"
           x="927.79181"
           y="7.6085768">Body</tspan></text>
      <path
         id="rect1"
         d="m 858.03424,-30.987439 h 19.44948 l -5.81424,1.436759 -0.54423,14.049122 -7.8546,-0.07168 -0.0919,-13.977373 z"
         sodipodi:nodetypes="ccccccc"
         style="stroke-width:2.8009" />
      <path
         style="fill:#000000;fill-opacity:1;stroke-width:2.32949"
         id="path2-6-0"
         sodipodi:type="arc"
         sodipodi:cx="867.41406"
         sodipodi:cy="-57.452061"
         sodipodi:rx="9.4654808"
         sodipodi:ry="9.4654808"
         sodipodi:start="0.027304543"
         sodipodi:end="6.2831853"
         sodipodi:open="true"
         sodipodi:arc-type="arc"
         d="m 876.87602,-57.193642 a 9.4654808,9.4654808 0 0 1 -9.65578,9.205077 9.4654808,9.4654808 0 0 1 -9.27078,-9.592717 9.4654808,9.4654808 0 0 1 9.52921,-9.336039 9.4654808,9.4654808 0 0 1 9.40087,9.46526" />
      <path
         style="fill:#000000;fill-opacity:1;stroke-width:2.32949"
         id="path2-6-0-7"
         sodipodi:type="arc"
         sodipodi:cx="858.04773"
         sodipodi:cy="-40.737667"
         sodipodi:rx="9.4654808"
         sodipodi:ry="9.4654808"
         sodipodi:start="0.027304543"
         sodipodi:end="6.2831853"
         sodipodi:open="true"
         sodipodi:arc-type="arc"
         d="m 867.50968,-40.479249 a 9.4654808,9.4654808 0 0 1 -9.65577,9.205078 9.4654808,9.4654808 0 0 1 -9.27078,-9.592717 9.4654808,9.4654808 0 0 1 9.52921,-9.336039 9.4654808,9.4654808 0 0 1 9.40087,9.46526" />
      <path
         style="fill:#000000;fill-opacity:1;stroke-width:2.32949"
         id="path2-6-0-9"
         sodipodi:type="arc"
         sodipodi:cx="876.98291"
         sodipodi:cy="-40.737667"
         sodipodi:rx="9.4654808"
         sodipodi:ry="9.4654808"
         sodipodi:start="0.027304543"
         sodipodi:end="6.2831853"
         sodipodi:open="true"
         sodipodi:arc-type="arc"
         d="m 886.44486,-40.479249 a 9.4654808,9.4654808 0 0 1 -9.65577,9.205078 9.4654808,9.4654808 0 0 1 -9.27078,-9.592717 9.4654808,9.4654808 0 0 1 9.52921,-9.336039 9.4654808,9.4654808 0 0 1 9.40087,9.46526" />
      <path
         sodipodi:type="star"
         style="fill:#000000"
         id="path1"
         inkscape:flatsided="false"
         sodipodi:sides="3"
         sodipodi:cx="-4.2679658"
         sodipodi:cy="5.2618756"
         sodipodi:r1="0.76004869"
         sodipodi:r2="0.33594152"
         sodipodi:arg1="1.5707963"
         sodipodi:arg2="2.6179939"
         inkscape:rounded="0"
         inkscape:randomized="0"
         d="m -4.2679658,6.0219243 -0.2909339,-0.5920779 -0.3672876,-0.5479951 0.6582215,0.044083 0.6582215,-0.044083 -0.3672876,0.5479951 z"
         inkscape:transform-center-y="0.23284431"
         transform="matrix(5.0202848,0,0,5.0202848,888.71436,-103.93239)" />
      <path
         sodipodi:type="star"
         style="fill:#000000"
         id="path1-7"
         inkscape:flatsided="false"
         sodipodi:sides="3"
         sodipodi:cx="-4.2679658"
         sodipodi:cy="5.2618756"
         sodipodi:r1="0.76004869"
         sodipodi:r2="0.33594152"
         sodipodi:arg1="1.5707963"
         sodipodi:arg2="2.6179939"
         inkscape:rounded="0"
         inkscape:randomized="0"
         d="m -4.2679658,6.0219243 -0.2909339,-0.5920779 -0.3672876,-0.5479951 0.6582215,0.044083 0.6582215,-0.044083 -0.3672876,0.5479951 z"
         inkscape:transform-center-y="-0.21929518"
         transform="matrix(2.3640855,4.4288099,-4.4288099,2.3640855,900.34165,-62.707035)"
         inkscape:transform-center-x="0.015494775" />
      <path
         sodipodi:type="star"
         style="fill:#000000"
         id="path1-9"
         inkscape:flatsided="false"
         sodipodi:sides="3"
         sodipodi:cx="-4.2679658"
         sodipodi:cy="5.2618756"
         sodipodi:r1="0.76004869"
         sodipodi:r2="0.33594152"
         sodipodi:arg1="1.5707963"
         sodipodi:arg2="2.6179939"
         inkscape:rounded="0"
         inkscape:randomized="0"
         d="m -4.2679658,6.0219243 -0.2909339,-0.5920779 -0.3672876,-0.5479951 0.6582215,0.044083 0.6582215,-0.044083 -0.3672876,0.5479951 z"
         inkscape:transform-center-y="0.0053040322"
         transform="matrix(-0.05717095,-5.0199598,5.0199598,-0.05717095,836.76742,-94.402881)"
         inkscape:transform-center-x="-0.22823685" />
      <path
         sodipodi:type="star"
         style="fill:#000000"
         id="path1-5"
         inkscape:flatsided="false"
         sodipodi:sides="3"
         sodipodi:cx="-4.2679658"
         sodipodi:cy="5.2618756"
         sodipodi:r1="0.76004869"
         sodipodi:r2="0.33594152"
         sodipodi:arg1="1.5707963"
         sodipodi:arg2="2.6179939"
         inkscape:rounded="0"
         inkscape:randomized="0"
         d="m -4.2679658,6.0219243 -0.2909339,-0.5920779 -0.3672876,-0.5479951 0.6582215,0.044083 0.6582215,-0.044083 -0.3672876,0.5479951 z"
         inkscape:transform-center-y="0.027302655"
         transform="matrix(-0.29432621,5.0116498,-5.0116498,-0.29432621,895.87813,-50.016353)"
         inkscape:transform-center-x="0.20880535" />
    </g>
    <path
       style="fill:#000000;fill-opacity:1;stroke:#000000;stroke-width:0.00572897;stroke-linecap:round;stroke-miterlimit:0"
       id="path9"
       sodipodi:type="arc"
       sodipodi:cx="31.084013"
       sodipodi:cy="26.367844"
       sodipodi:rx="0.10866871"
       sodipodi:ry="17.151642"
       sodipodi:start="0.027304543"
       sodipodi:end="5.1136159"
       sodipodi:open="true"
       sodipodi:arc-type="arc"
       d="m 31.192641,26.836103 a 0.10866871,17.151642 0 0 1 -0.07944,16.053208 0.10866871,17.151642 0 0 1 -0.120608,-7.249545 0.10866871,17.151642 0 0 1 0.0083,-20.327155 0.10866871,17.151642 0 0 1 0.125523,-4.734269" />
    <path
       style="fill:#000000;fill-opacity:1;stroke:#000000;stroke-width:0.00572897;stroke-linecap:round;stroke-miterlimit:0"
       id="path9-4"
       sodipodi:type="arc"
       sodipodi:cx="-47.854034"
       sodipodi:cy="30.88131"
       sodipodi:rx="0.10866871"
       sodipodi:ry="17.151642"
       sodipodi:start="0.027304543"
       sodipodi:end="5.1136159"
       sodipodi:open="true"
       sodipodi:arc-type="arc"
       d="m -47.745406,31.349569 a 0.10866871,17.151642 0 0 1 -0.07944,16.053207 0.10866871,17.151642 0 0 1 -0.120607,-7.249544 0.10866871,17.151642 0 0 1 0.0083,-20.327155 0.10866871,17.151642 0 0 1 0.125524,-4.734269"
       transform="rotate(-90)" />
    <rect
       style="fill:url(#radialGradient2);fill-opacity:1;stroke:none;stroke-width:0.162987;stroke-linecap:round;stroke-miterlimit:0;stroke-dasharray:none;stroke-opacity:1"
       id="rect10"
       width="12.439079"
       height="6.4851332"
       x="50.193684"
       y="-0.41517097" />
  </g>
</svg>
