<?xml version="1.0" encoding="UTF-8" standalone="no"?>
<!-- Created with Inkscape (http://www.inkscape.org/) -->

<svg
   width="63mm"
   height="88mm"
   viewBox="0 0 63 88"
   version="1.1"
   id="svg1"
   inkscape:version="1.3.2 (091e20e, 2023-11-25, custom)"
   xml:space="preserve"
   sodipodi:docname="card-hitlocation-arm-left.svg"
   xmlns:inkscape="http://www.inkscape.org/namespaces/inkscape"
   xmlns:sodipodi="http://sodipodi.sourceforge.net/DTD/sodipodi-0.dtd"
   xmlns="http://www.w3.org/2000/svg"
   xmlns:svg="http://www.w3.org/2000/svg"><sodipodi:namedview
     id="namedview1"
     pagecolor="#ffffff"
     bordercolor="#000000"
     borderopacity="0.25"
     inkscape:showpageshadow="2"
     inkscape:pageopacity="0.0"
     inkscape:pagecheckerboard="0"
     inkscape:deskcolor="#d1d1d1"
     inkscape:document-units="mm"
     inkscape:zoom="1.4627806"
     inkscape:cx="161.67838"
     inkscape:cy="236.87763"
     inkscape:window-width="1350"
     inkscape:window-height="1017"
     inkscape:window-x="228"
     inkscape:window-y="0"
     inkscape:window-maximized="0"
     inkscape:current-layer="g1" /><defs
     id="defs1" /><g
     inkscape:label="Layer 1"
     inkscape:groupmode="layer"
     id="layer1"><g
       id="g1"
       transform="matrix(0.06087197,0,0,0.06087197,0.03359486,0.54402301)"><path
         id="path2"
         style="fill:none;stroke:#e4e4e4;stroke-width:4.92837673;stroke-dasharray:none;stroke-opacity:1"
         d="m 694.15318,938.18238 -160.34116,67.95282 4.01517,46.4099 c 3.11209,24.9683 8.34457,50.3663 14.26826,74.8172 6.58736,27.1894 16.8902,54.6523 28.38567,80.1921 25.31758,56.2612 80.61178,145.5023 64.02415,209.1039 -0.50644,1.9447 -1.04937,3.8028 -1.83482,5.6554 -7.71954,18.2292 -24.52486,32.6407 -33.54477,50.2739 -7.04789,13.7708 -8.31654,29.6419 -10.27481,44.7479 l -6.54073,59.9228 c -0.72029,10.0518 -3.09053,21.1275 -0.69066,30.9761 l 4.5331,4.5113 c 7.82527,-1.5005 15.9028,-6.822 21.02485,-12.9299 3.27739,-22.2433 5.00688,-59.5061 24.30582,-73.8891 2.97139,-2.2129 3.21311,-2.0408 6.84274,-1.77 10.38493,20.453 10.88745,45.7263 3.86392,67.0678 -4.5993,13.9739 -12.33098,30.7083 -20.78742,42.8267 -7.55161,10.821 -25.90021,24.6018 -29.46484,36.7826 -0.59995,2.0476 -0.0375,6.2513 -0.0423,8.5265 4.02771,4.7889 4.37771,5.4933 10.38278,6.9722 41.33386,-12.132 95.6821,-41.8061 116.97468,-79.9546 6.20822,-11.127 9.78251,-24.452 11.54857,-37.0201 l 0.41006,-2.7199 c 2.00986,-14.6375 -0.96081,-31.4431 -2.26636,-46.1294 -1.91778,-21.5443 -3.05994,-42.7517 -2.33143,-64.3911 l 8.69936,-108.664 c 9.67518,-110.5233 17.93813,-223.603 -16.62134,-330.8706 -8.64865,-26.84056 -20.28641,-53.70595 -34.53758,-78.40042 z" /><path
         id="path3"
         style="fill:none;stroke:#e4e4e4;stroke-width:4.92837673;stroke-dasharray:none;stroke-opacity:1"
         d="m -498.86346,1025.3684 -171.91113,-68.36309 c -5.97943,12.90498 -11.17494,26.14023 -15.45562,39.89103 -13.90607,44.67086 -19.74855,91.96716 -23.24813,138.47446 -5.90214,78.4718 -3.09039,156.2144 2.76301,234.5752 l 7.55511,78.271 c 1.89868,31.412 -5.22273,61.253 -5.50444,92.2371 -0.27627,30.315 9.42279,61.3105 28.29927,85.0707 20.22545,25.4584 59.2928,53.1927 92.04282,57.57 2.96871,0.398 4.78148,0.077 7.55513,-0.8851 2.36735,-4.1552 2.38249,-4.3806 0.99295,-8.9799 -2.73844,-9.0793 -12.46217,-19.8195 -17.65737,-27.9971 -20.70478,-32.5983 -37.37098,-74.9024 -23.96049,-113.2619 l 4.10135,-3.0868 c 7.32951,2.2861 12.47706,8.4738 15.90891,15.1534 10.11128,19.6728 3.10234,52.0337 22.98911,65.2547 5.30622,0.5119 5.57213,0.6749 10.42604,-2.2449 9.46401,-23.1996 4.74638,-103.0727 -5.13747,-126.516 -6.57648,-15.5961 -18.26532,-26.8355 -26.48607,-41.2292 -23.53261,-41.2039 -11.92917,-91.7062 4.29564,-133.0347 24.73797,-63.0191 64.24791,-118.8347 82.60972,-184.7548 8.73922,-31.3718 8.06515,-64.0578 9.82166,-96.1441 z" /><path
         id="path6"
         style="fill:none;stroke:#e4e4e4;stroke-width:4.92837673;stroke-dasharray:none;stroke-opacity:1"
         d="m -316.67738,352.85561 c -0.10159,0.0431 -0.22295,0.15317 -0.3238,0.19421 -6.51973,2.65453 -20.80685,0.67996 -28.4072,1.38157 -10.37684,0.95609 -20.78407,3.16735 -30.7817,6.06567 -60.99842,17.67645 -111.75225,62.96646 -135.32279,122.11212 -9.23109,23.16422 -13.79529,48.88953 -16.83712,73.56524 l -3.6912,43.69012 c -0.30607,4.00878 0.18611,12.55769 -1.20882,16.05995 -3.99523,10.02191 -16.91313,22.74969 -23.11864,32.4438 -18.40785,28.7522 -33.74245,59.71534 -44.8126,92.02131 -9.67258,28.22932 -15.75584,57.39516 -20.48514,86.81894 -3.4996,21.78561 -5.82569,44.99048 -12.10976,66.16121 -3.65668,12.31884 -15.74853,24.41673 -22.38471,35.6169 -5.41657,9.13951 -10.20355,18.50063 -14.61373,28.01866 l 171.91113,68.36309 c 1.39946,-25.56432 4.3065,-50.75724 15.00227,-74.53665 11.4603,-25.48016 37.33539,-46.04863 54.33202,-68.51404 26.02661,-34.39936 79.08667,-104.32243 99.90015,-144.21626 z" /><path
         id="path4"
         style="fill:none;stroke:#e4e4e4;stroke-width:4.92837673;stroke-dasharray:none;stroke-opacity:1"
         d="m 400.99317,2205.8649 -214.11163,3.4107 c -0.96049,8.7665 -1.71025,17.5846 -2.67665,26.2703 -4.67788,42.0381 -9.58143,85.4857 -5.37493,127.7677 7.94442,79.7686 46.37252,152.7274 62.46992,231.2511 6.41137,31.2577 12.0923,62.7734 13.14591,94.7625 0.86402,26.1929 -1.35562,53.169 1.03611,79.1992 1.70106,18.527 7.13389,36.4588 10.03748,54.742 2.54345,16.0082 -3.08191,34.8883 -6.45417,50.7058 -6.92051,32.4226 -14.96339,66.4708 -15.95207,99.7059 -0.32509,10.9428 -0.91449,22.414 1.83482,33.1129 2.12637,8.2616 5.93567,16.1621 12.3904,21.9315 5.46333,4.9027 12.46035,7.5326 19.53531,9.131 17.86618,4.0358 38.67381,3.1124 57.0303,3.4105 26.74227,0.4063 54.92095,1.7642 81.50862,-0.9713 8.28587,-0.8397 19.28177,-4.503 24.93196,-10.9225 6.22171,-7.0695 5.86476,-19.2425 4.81387,-28.1268 -4.10085,-34.5344 -23.64039,-60.9908 -39.61043,-90.5964 -19.2963,-35.8084 -38.82714,-81.2235 -41.83366,-121.8533 -1.99349,-26.951 -0.18303,-55.146 0.86347,-82.178 2.56237,-66.3079 8.08024,-136.0901 24.52158,-200.5559 11.78534,-46.1824 32.70597,-93.36 36.09188,-141.0862 3.83869,-54.0793 -6.81375,-107.863 -24.19809,-159.1107 z" /><path
         id="path7"
         style="fill:none;stroke:#e4e4e4;stroke-width:4.92837673;stroke-dasharray:none;stroke-opacity:1"
         d="m -146.60107,2213.3984 -213.78803,-9.1524 c -14.86054,48.9887 -25.59053,101.3445 -22.03934,150.7784 3.6972,51.5454 20.93996,101.8288 32.50857,151.9659 16.28696,70.5861 23.96877,140.0587 27.43584,212.2985 1.12138,23.4026 3.29214,47.8855 1.81322,71.2338 -1.0022,15.8458 -5.09589,31.8111 -11.00889,46.5178 -11.85018,29.4973 -27.69028,58.8104 -41.57466,87.4666 -13.18028,27.2218 -28.96582,48.9329 -31.06232,80.6239 -0.41713,6.3382 -0.92175,14.3101 1.61895,20.2693 2.90097,6.8256 9.0567,8.9826 15.73622,11.0953 25.58846,8.0447 140.81163,9.1446 162.49963,-2.9357 10.9321,-6.0944 16.90363,-17.1536 19.9671,-28.8822 10.0571,-38.4344 -3.9111,-90.8876 -12.00185,-128.998 -3.24764,-15.277 -7.97627,-31.574 -7.20973,-47.3383 1.07264,-21.9941 9.367,-43.9666 11.11679,-66.42 1.96105,-25.1905 -0.2901,-50.9651 0.77711,-76.2637 1.93669,-45.8833 10.61294,-91.9975 21.71553,-136.4452 15.06821,-60.3215 42.28285,-117.9132 49.71265,-179.9412 6.14777,-51.3605 -1.7195,-104.5181 -6.21679,-155.8728 z" /><path
         id="path8"
         style="fill:none;stroke:#e4e4e4;stroke-width:4.92837673;stroke-dasharray:none;stroke-opacity:1"
         d="m 380.59447,1550.3404 -720.21781,-22.0823 c -2.61889,11.8819 -5.4208,23.7651 -7.51192,35.6385 -8.11784,46.1063 -10.50801,92.5492 -11.65647,139.273 -1.0293,41.9027 -1.12208,84.9482 2.2881,126.7317 l 17.0098,133.8117 c 7.07497,42.7399 19.09098,85.1155 16.06001,128.9333 -1.57374,22.7443 -13.93437,43.9026 -21.52128,65.125 -5.35608,14.9844 -10.60615,30.5593 -15.434,46.4747 l 213.78803,9.1524 c -0.0897,-1.0243 -0.19372,-2.0852 -0.28061,-3.1081 -1.8959,-22.2922 -4.70852,-45.3558 -1.878,-67.7155 3.21788,-25.4074 12.18594,-51.5276 20.46355,-75.6806 l 32.314323,-94.6762 58.51968,-222.6816 c 15.02744,-70.0559 27.5836899,-137.784 30.5442199,-209.5356 l 51.5906101,0.2158 2.61189,38.1643 c 13.91697,132.6741 48.139221,266.3698 87.660967,393.578 16.49819,53.1006 41.28833,104.9304 51.93598,159.5856 5.00297,25.6743 2.84346,51.7785 0,77.7311 l 214.11163,-3.4107 c -5.48042,-16.156 -11.55672,-32.0878 -18.15359,-47.6619 l -16.2544,-37.7323 c -2.638,-6.1325 -6.7426,-13.6524 -7.51192,-20.1828 -2.15064,-18.2808 1.32135,-38.721 4.36038,-56.7282 l 22.73013,-109.0094 c 23.70659,-129.2151 20.03703,-257.8499 -5.5693,-384.2099 z" /><path
         id="path9"
         style="fill:none;stroke:#e4e4e4;stroke-width:4.92837673;stroke-dasharray:none;stroke-opacity:1"
         d="m 281.98963,1221.0673 -513.5749,-9.2388 c -0.52881,3.5312 -1.0711,6.7173 -1.68371,8.7207 -3.08243,10.0895 -9.73008,20.1586 -13.90141,30.0694 l -36.1134,90.9203 c -21.93584,60.2797 -42.39088,123.4337 -56.33955,186.7192 l 720.21781,22.0823 c -9.28805,-45.8344 -21.27981,-91.3808 -36.15656,-136.5315 -19.99239,-60.6733 -44.55351,-120.1772 -60.0738,-182.2508 -0.87864,-3.5133 -1.58384,-6.9929 -2.37448,-10.4908 z" /><path
         id="path10"
         style="fill:none;stroke:#e4e4e4;stroke-width:4.92837673;stroke-dasharray:none;stroke-opacity:1"
         d="m 290.62399,916.9849 -544.83141,-10.16708 c 1.47069,2.87109 2.93931,5.74074 4.55467,8.41859 23.31956,79.43422 27.61983,91.92319 24.67282,176.01249 -0.60863,17.3187 -2.25439,91.525 -6.60534,120.5796 l 513.5749,9.2388 c -12.28906,-54.3632 -14.29549,-107.0732 -11.69966,-163.1904 2.68695,-58.07306 7.39302,-53.0374 17.312,-124.20606 1.02733,-6.13299 2.01689,-11.57508 3.02202,-16.68594 z" /><path
         id="path11"
         style="fill:none;stroke:#e4e4e4;stroke-width:4.92837673;stroke-dasharray:none;stroke-opacity:1"
         d="m 377.89626,580.1565 -701.89133,-9.67063 -5.63395,167.61558 c 0.47061,-0.90204 1.37675,-2.19504 1.81324,-3.06522 9.33652,18.55126 20.71746,68.86875 33.30725,85.48066 17.90663,23.62298 26.23056,58.83287 40.30111,86.30093 l 544.83141,10.16708 c 7.67019,-39.00233 16.13302,-52.24199 47.35975,-98.82093 33.57175,-50.07705 42.57855,-83.1303 46.77691,-86.73254 0.13503,0.37372 0.29546,0.72748 0.43169,1.10088 z" /><path
         id="path12"
         style="fill:none;stroke:#e4e4e4;stroke-width:4.92837673;stroke-dasharray:none;stroke-opacity:1"
         d="m -93.477807,222.843 c -0.0128,0.0319 -0.008,0.31687 -0.0216,0.34538 -52.642063,41.28474 -113.621273,62.56351 -171.263533,95.19433 -11.89638,6.73366 -23.16487,14.37574 -34.3218,22.25515 -5.10968,3.60855 -11.88449,9.77357 -17.5926,12.21775 l -7.31765,217.63026 701.89141,9.67063 L 367.276,357.94986 c -1.2823,-0.2339 -3.36068,-0.11898 -4.27397,-0.49646 -4.71302,-1.95021 -10.35531,-6.86957 -14.72168,-9.73531 -11.50337,-7.54897 -22.89447,-15.37041 -34.90459,-22.10407 L 232.4714,283.08954 C 197.51122,265.68946 163.11714,249.1808 133.06762,223.77115 l 0.0216,-0.92815 z" /><path
         id="path5"
         style="fill:none;stroke:#000000;stroke-width:4.92837673;stroke-dasharray:none;stroke-opacity:1"
         d="m 367.27592,357.94986 17.91642,374.58245 c 23.03693,63.12665 62.79277,115.5749 89.88416,155.28986 l 35.16365,49.69095 c 6.14864,8.37786 15.65397,18.61618 19.4921,28.25607 3.03655,7.62219 2.36418,19.07493 2.95742,27.26322 l 1.12235,13.10279 160.34116,-67.95282 c -2.44171,-4.23093 -4.79942,-8.54588 -7.40404,-12.62788 l -18.52075,-27.26316 c -2.22651,-3.1529 -6.81631,-7.98226 -8.0733,-11.28952 -1.07804,-2.83859 -0.53079,-9.6878 -0.71222,-12.90841 l -2.43932,-35.48738 c -3.84356,-36.11703 -10.8282,-72.55739 -23.46391,-106.69978 -10.75059,-29.03928 -24.16857,-58.00669 -39.63201,-84.85468 -6.56852,-11.40068 -16.38496,-22.77956 -21.7155,-34.51611 -1.68213,-3.69998 -1.51108,-7.75843 -1.51108,-11.72113 0,-68.20628 -19.56598,-141.15392 -69.31275,-190.36727 -28.1021,-27.79602 -67.93285,-47.84671 -107.60629,-51.02931 -6.48299,-0.52233 -18.80384,-0.0663 -26.48609,-1.46789 z" /><path
         id="path1"
         style="fill:none;stroke:#e4e4e4;stroke-width:4.92837673;stroke-dasharray:none;stroke-opacity:1"
         d="m 22.903153,-243.17781 c -5.75305,-0.26016 -11.72617,-0.53654 -17.46308,0.0431 -39.33494,4.7591 -75.39064,19.74964 -100.33178,51.80646 -30.618563,39.35115 -33.902703,114.406383 -27.802833,162.823413 -3.65396,3.64313 -4.81081,1.75409 -8.37537,3.79917 -5.46064,3.13117 -7.59013,11.70979 -7.61988,17.48464 -0.0624,12.1591299 3.11304,23.65604 5.4181,35.48745 4.01962,20.64257 6.71823,48.58904 23.01069,63.6572 2.57052,2.37552 5.72975,4.2172 8.89345,5.6771 1.996103,12.246187 5.871983,117.592107 2.547163,125.242177 H 127.74659 l 2.61188,-80.83966 c 0.22224,-12.14285 -2.20974,-33.29992 1.98598,-44.359317 l 1.59733,-1.40312 c 19.27195,-17.21609 23.10992,-39.03515 28.21295,-63.07434 2.49737,-11.75827 5.43506,-23.8253301 5.91459,-35.8543901 0.27893,-6.9341699 0.73809,-13.5085199 -3.1731,-19.5785899 -3.03647,-2.26707 -6.2285,-4.41444 -8.82881,-7.18811 3.07984,-54.96111 4.17432,-123.946843 -34.51602,-167.593923 -24.553886,-27.6986 -61.872887,-44.47709 -98.648237,-46.12936 z" /><g
         id="body"
         transform="matrix(1.0609646,0,0,1.0609646,-21.793589,-390.29559)"><path
           fill="#37b2df"
           d="m 283.17389,596.49529 c 7.29878,0.33206 8.88162,-0.0804 16.00924,0.0851 0.24196,2.35569 0.33325,4.67189 0.92537,6.98158 0.21806,0.85086 0.4925,1.77406 0.99588,2.50285 l 16.01311,4.53618 4.00828,1.04672 c 1.93273,0.46715 3.81933,0.85727 5.56272,1.86704 2.18883,1.26767 3.9146,3.27912 5.0637,5.51213 1.77008,3.43983 1.78687,7.37701 2.35122,11.1269 l -11.04878,5.03231 -1.42198,0.67869 c -0.29486,0.12678 -0.63934,0.21975 -0.90678,0.39192 l -0.59345,3.61479 -1.32044,5.61984 -2.38781,8.10544 -3.20945,9.55447 c -1.97909,6.59701 -2.50721,13.63264 -1.22409,20.41476 0.87817,4.64136 2.58945,9.06653 4.01324,13.55455 -0.13414,0.19564 -0.56192,0.36106 -0.78083,0.47331 -1.10697,0.56509 -2.26054,1.03232 -3.43657,1.43319 -7.0731,2.41002 -14.30448,3.24558 -21.75211,3.10431 -8.13756,-0.15454 -16.27934,-1.50682 -23.6363,-5.12186 0.49613,-0.95869 0.87937,-2.02123 1.25632,-3.03428 l 1.8831,-5.71358 c 0.89796,-3.03667 1.66371,-6.12763 1.94359,-9.28991 0.87418,-9.87668 -3.30531,-19.13342 -6.39017,-28.24646 -1.3144,-3.88248 -2.30932,-7.96381 -3.19666,-11.96352 l -0.36234,-2.37887 c -1.65985,-0.59948 -3.27817,-1.56409 -4.86979,-2.33418 l -8.36781,-4.052 0.69873,-5.17419 c 0.85173,-5.06344 3.15536,-9.80089 8.12778,-11.8773 2.24013,-0.93552 4.81304,-1.44191 7.16087,-2.06228 l 11.29691,-3.18688 3.34118,-0.99709 c 0.80258,-0.24161 1.7562,-0.45013 2.43888,-0.93551 1.45398,-2.80425 1.72577,-6.15811 1.81524,-9.2682 z"
           id="path5-3"
           sodipodi:nodetypes="ccccccccccccccccccccccccscccccccccccc"
           style="fill:none;stroke:#000000;stroke-width:2.10451;stroke-dasharray:none;stroke-opacity:1" /><path
           fill="#26A4D4"
           d="m 291.26778,657.48848 0.0627,0.0529 0.0441,34.39004 -0.0811,0.1627 c -0.12182,-0.92567 -0.0889,-1.92401 -0.11397,-2.85943 l -0.14428,-3.72601 -0.23966,-11.24502 0.22097,-8.86765 0.14825,-5.96255 c 0.0297,-0.65042 -0.0152,-1.30151 0.10303,-1.94505 z"
           id="path6-7"
           style="fill:#6f838b;fill-opacity:1;stroke-width:0.0990362;stroke-dasharray:none" /><path
           fill="#26A4D4"
           d="m 320.65964,629.12126 c -0.14503,1.18222 -0.44555,2.36517 -0.73139,3.52033 -0.29654,1.19846 -0.60848,2.45583 -1.09383,3.59369 -0.39492,0.92548 -0.96492,1.81969 -1.46818,2.69177 -1.54792,2.68216 -3.10979,5.22674 -5.37214,7.38061 -3.03293,2.88755 -6.79305,4.3086 -10.97477,4.21251 l -0.067,-0.0393 -0.0154,-0.0762 0.80173,-0.21946 c 4.45387,-1.19413 8.3186,-3.98271 11.14747,-7.59696 2.0068,-2.56394 3.57192,-5.48384 5.08832,-8.35467 z"
           id="path7-7"
           style="fill:#768084;fill-opacity:1;stroke-width:0.123795;stroke-dasharray:none" /><path
           fill="#26A4D4"
           d="m 260.34705,627.90946 c 0.25767,0.30548 0.40388,0.99081 0.55385,1.37381 l 1.14271,2.73433 c 0.81392,1.81983 1.66491,3.62625 2.65596,5.35758 2.92933,5.11694 6.90406,10.40111 12.73109,12.34639 0.86705,0.28943 1.82695,0.54564 2.73252,0.67255 0.78048,0.10927 1.5775,0.12774 2.33998,0.33457 l -1.21309,0.0885 c -4.54064,0.21251 -9.08406,-1.42355 -12.44396,-4.47471 -3.16985,-2.8785 -5.15847,-6.66571 -6.66209,-10.61978 -0.93322,-2.45445 -1.71502,-5.17864 -1.83697,-7.81324 z"
           id="path8-0"
           style="fill:#6c858e;fill-opacity:1;stroke-width:0.120743" /><text
           xml:space="preserve"
           style="font-style:normal;font-variant:normal;font-weight:normal;font-stretch:normal;font-size:113.547px;font-family:Amiri;-inkscape-font-specification:'Amiri, Normal';font-variant-ligatures:normal;font-variant-caps:normal;font-variant-numeric:normal;font-variant-east-asian:normal;fill:#000000;fill-opacity:1;stroke:none;stroke-width:0.215296;stroke-dasharray:none;stroke-opacity:1;paint-order:markers fill stroke"
           x="339.74225"
           y="684.15222"
           id="text1"><tspan
             sodipodi:role="line"
             id="tspan1"
             x="339.74225"
             y="684.15222"
             style="stroke-width:0.215296;stroke:none">Body: -1</tspan></text><path
           id="rect1"
           d="m 282.50527,648.92026 h 17.61435 l -5.26564,1.30119 -0.49288,12.72354 -7.11349,-0.0649 -0.0833,-12.65856 z"
           sodipodi:nodetypes="ccccccc"
           style="stroke-width:2.53663" /><path
           style="fill:#000000;fill-opacity:1;stroke-width:2.10969"
           id="path2-6-0"
           sodipodi:type="arc"
           sodipodi:cx="291.00009"
           sodipodi:cy="624.9527"
           sodipodi:rx="8.5723772"
           sodipodi:ry="8.5723772"
           sodipodi:start="0.027304543"
           sodipodi:end="6.2831853"
           sodipodi:open="true"
           sodipodi:arc-type="arc"
           d="m 299.56927,625.18673 a 8.5723772,8.5723772 0 0 1 -8.74471,8.33655 8.5723772,8.5723772 0 0 1 -8.39605,-8.68761 8.5723772,8.5723772 0 0 1 8.6301,-8.45515 8.5723772,8.5723772 0 0 1 8.51386,8.57218" /><path
           style="fill:#000000;fill-opacity:1;stroke-width:2.10969"
           id="path2-6-0-7"
           sodipodi:type="arc"
           sodipodi:cx="282.51749"
           sodipodi:cy="640.08997"
           sodipodi:rx="8.5723772"
           sodipodi:ry="8.5723772"
           sodipodi:start="0.027304543"
           sodipodi:end="6.2831853"
           sodipodi:open="true"
           sodipodi:arc-type="arc"
           d="m 291.08667,640.324 a 8.5723772,8.5723772 0 0 1 -8.74472,8.33655 8.5723772,8.5723772 0 0 1 -8.39604,-8.68761 8.5723772,8.5723772 0 0 1 8.63009,-8.45515 8.5723772,8.5723772 0 0 1 8.51386,8.57218" /><path
           style="fill:#000000;fill-opacity:1;stroke-width:2.10969"
           id="path2-6-0-9"
           sodipodi:type="arc"
           sodipodi:cx="299.66608"
           sodipodi:cy="640.08997"
           sodipodi:rx="8.5723772"
           sodipodi:ry="8.5723772"
           sodipodi:start="0.027304543"
           sodipodi:end="6.2831853"
           sodipodi:open="true"
           sodipodi:arc-type="arc"
           d="m 308.23526,640.324 a 8.5723772,8.5723772 0 0 1 -8.74472,8.33655 8.5723772,8.5723772 0 0 1 -8.39604,-8.68761 8.5723772,8.5723772 0 0 1 8.63009,-8.45515 8.5723772,8.5723772 0 0 1 8.51386,8.57218" /><path
           sodipodi:type="star"
           style="fill:#000000"
           id="path1-99"
           inkscape:flatsided="false"
           sodipodi:sides="3"
           sodipodi:cx="-4.2679658"
           sodipodi:cy="5.2618756"
           sodipodi:r1="0.76004869"
           sodipodi:r2="0.33594152"
           sodipodi:arg1="1.5707963"
           sodipodi:arg2="2.6179939"
           inkscape:rounded="0"
           inkscape:randomized="0"
           d="m -4.2679658,6.0219243 -0.2909339,-0.5920779 -0.3672876,-0.5479951 0.6582215,0.044083 0.6582215,-0.044083 -0.3672876,0.5479951 z"
           inkscape:transform-center-y="0.21087664"
           transform="matrix(4.5466021,0,0,4.5466021,310.29061,582.85793)" /><path
           sodipodi:type="star"
           style="fill:#000000"
           id="path1-7"
           inkscape:flatsided="false"
           sodipodi:sides="3"
           sodipodi:cx="-4.2679658"
           sodipodi:cy="5.2618756"
           sodipodi:r1="0.76004869"
           sodipodi:r2="0.33594152"
           sodipodi:arg1="1.5707963"
           sodipodi:arg2="2.6179939"
           inkscape:rounded="0"
           inkscape:randomized="0"
           d="m -4.2679658,6.0219243 -0.2909339,-0.5920779 -0.3672876,-0.5479951 0.6582215,0.044083 0.6582215,-0.044083 -0.3672876,0.5479951 z"
           inkscape:transform-center-y="-0.1986054"
           transform="matrix(2.1410252,4.0109351,-4.0109351,2.1410252,320.82082,620.19352)"
           inkscape:transform-center-x="0.014034468" /><path
           sodipodi:type="star"
           style="fill:#000000"
           id="path1-9"
           inkscape:flatsided="false"
           sodipodi:sides="3"
           sodipodi:cx="-4.2679658"
           sodipodi:cy="5.2618756"
           sodipodi:r1="0.76004869"
           sodipodi:r2="0.33594152"
           sodipodi:arg1="1.5707963"
           sodipodi:arg2="2.6179939"
           inkscape:rounded="0"
           inkscape:randomized="0"
           d="m -4.2679658,6.0219243 -0.2909339,-0.5920779 -0.3672876,-0.5479951 0.6582215,0.044083 0.6582215,-0.044083 -0.3672876,0.5479951 z"
           inkscape:transform-center-y="0.0047987713"
           transform="matrix(-0.05177666,-4.5463077,4.5463077,-0.05177666,263.24506,591.48829)"
           inkscape:transform-center-x="-0.2066996" /><path
           sodipodi:type="star"
           style="fill:#000000"
           id="path1-5"
           inkscape:flatsided="false"
           sodipodi:sides="3"
           sodipodi:cx="-4.2679658"
           sodipodi:cy="5.2618756"
           sodipodi:r1="0.76004869"
           sodipodi:r2="0.33594152"
           sodipodi:arg1="1.5707963"
           sodipodi:arg2="2.6179939"
           inkscape:rounded="0"
           inkscape:randomized="0"
           d="m -4.2679658,6.0219243 -0.2909339,-0.5920779 -0.3672876,-0.5479951 0.6582215,0.044083 0.6582215,-0.044083 -0.3672876,0.5479951 z"
           inkscape:transform-center-y="0.024724087"
           transform="matrix(-0.26655543,4.5387818,-4.5387818,-0.26655543,316.77845,631.68679)"
           inkscape:transform-center-x="0.18910257" /></g></g></g></svg>
