<?xml version="1.0" encoding="UTF-8" standalone="no"?>
<!-- Created with Inkscape (http://www.inkscape.org/) -->

<svg
   width="63mm"
   height="88mm"
   viewBox="0 0 63 88"
   version="1.1"
   id="svg1"
   inkscape:version="1.3.2 (091e20e, 2023-11-25, custom)"
   xml:space="preserve"
   sodipodi:docname="card-hitlocation-vitals.svg"
   xmlns:inkscape="http://www.inkscape.org/namespaces/inkscape"
   xmlns:sodipodi="http://sodipodi.sourceforge.net/DTD/sodipodi-0.dtd"
   xmlns="http://www.w3.org/2000/svg"
   xmlns:svg="http://www.w3.org/2000/svg"><sodipodi:namedview
     id="namedview1"
     pagecolor="#ffffff"
     bordercolor="#000000"
     borderopacity="0.25"
     inkscape:showpageshadow="2"
     inkscape:pageopacity="0.0"
     inkscape:pagecheckerboard="0"
     inkscape:deskcolor="#d1d1d1"
     inkscape:document-units="mm"
     inkscape:zoom="2.0686841"
     inkscape:cx="113.84048"
     inkscape:cy="103.6891"
     inkscape:window-width="1350"
     inkscape:window-height="1017"
     inkscape:window-x="228"
     inkscape:window-y="0"
     inkscape:window-maximized="0"
     inkscape:current-layer="g1" /><defs
     id="defs1" /><g
     inkscape:label="Layer 1"
     inkscape:groupmode="layer"
     id="layer1"><g
       id="g1"
       transform="matrix(0.06087197,0,0,0.06087197,0.03359486,0.54402301)"><path
         id="path2"
         style="fill:none;stroke:#e5e5e5;stroke-width:4.92837673;stroke-dasharray:none;stroke-opacity:1"
         d="m 1204.8416,221.81931 -160.3391,67.95194 4.0151,46.40929 c 3.1121,24.96797 8.3445,50.36564 14.2681,74.81624 6.5873,27.18902 16.89,54.65162 28.3853,80.19102 25.3172,56.2605 80.6107,145.50055 64.0233,209.10127 -0.5064,1.94476 -1.0494,3.80279 -1.8348,5.65539 -7.7194,18.22897 -24.5245,32.6403 -33.5443,50.27325 -7.0478,13.77058 -8.3165,29.64148 -10.2747,44.7473 l -6.5406,59.92198 c -0.7203,10.05172 -3.0905,21.12725 -0.6907,30.97567 l 4.533,4.51125 c 7.8252,-1.50045 15.9026,-6.82189 21.0246,-12.92973 3.2774,-22.24297 5.0068,-59.50531 24.3055,-73.88805 2.9714,-2.2129 3.2131,-2.04082 6.8427,-1.76995 10.3848,20.45265 10.8873,45.72566 3.8638,67.0668 -4.5992,13.97373 -12.3308,30.70792 -20.7871,42.82618 -7.5515,10.82087 -25.8999,24.60144 -29.4645,36.78214 -0.5999,2.04761 -0.037,6.25118 -0.042,8.52637 4.0277,4.78881 4.3777,5.4932 10.3827,6.97217 41.3333,-12.13191 95.6808,-41.80565 116.9731,-79.95361 6.2082,-11.12688 9.7824,-24.45172 11.5485,-37.01959 l 0.41,-2.71981 c 2.0098,-14.63732 -0.9608,-31.44274 -2.2663,-46.12884 -1.9178,-21.54401 -3.0599,-42.7512 -2.3314,-64.39032 l 8.6992,-108.66256 c 9.6751,-110.5219 17.9379,-223.60021 -16.6211,-330.86638 -8.6485,-26.84022 -20.2861,-53.70527 -34.5371,-78.39942 z" /><path
         id="path5"
         style="fill:none;stroke:#e5e5e5;stroke-width:4.92837673;stroke-dasharray:none;stroke-opacity:1"
         d="m 877.9685,-358.40575 17.91618,374.577626 c 23.03667,63.12583 62.79201,115.573414 89.88305,155.287864 l 35.16317,49.69031 c 6.1486,8.37776 15.6538,18.61594 19.4919,28.25571 3.0365,7.6221 2.3641,19.07469 2.9573,27.26288 l 1.1224,13.10261 160.3391,-67.95194 c -2.4417,-4.23088 -4.7994,-8.54577 -7.404,-12.62772 l -18.5205,-27.2628 c -2.2265,-3.15287 -6.8162,-7.98217 -8.0732,-11.28939 -1.078,-2.83855 -0.5308,-9.68767 -0.7122,-12.90825 l -2.4393,-35.48691 c -3.8435,-36.116574 -10.8281,-72.556464 -23.4636,-106.698414 -10.7504,-29.03891 -24.1682,-58.00595 -39.6315,-84.85359 -6.5684,-11.40054 -16.3847,-22.77927 -21.7152,-34.515666 -1.6821,-3.69993 -1.5111,-7.75833 -1.5111,-11.72098 0,-68.20539 -19.5657,-141.15209 -69.3118,-190.36481 -28.10175,-27.79567 -67.93199,-47.8461 -107.60498,-51.02866 -6.48289,-0.52232 -18.80357,-0.0663 -26.48572,-1.46787 z" /><path
         id="path3"
         style="fill:none;stroke:#e5e5e5;stroke-width:4.92837673;stroke-dasharray:none;stroke-opacity:1"
         d="m 11.8403,309.00422 -171.90892,-68.36223 c -5.97935,12.90481 -11.17479,26.1399 -15.45542,39.89052 -13.9059,44.67024 -19.7483,91.96599 -23.24783,138.47262 -5.90207,78.47082 -3.09035,156.21249 2.76297,234.57225 l 7.55501,78.26998 c 1.89865,31.41167 -5.22265,61.25223 -5.50436,92.23597 -0.27626,30.31457 9.42266,61.30968 28.29891,85.06954 20.22519,25.45804 59.29203,53.19205 92.04163,57.56923 2.96867,0.39807 4.78142,0.0767 7.55503,-0.8851 2.36732,-4.1551 2.38246,-4.38053 0.99294,-8.97969 -2.7384,-9.07919 -12.46201,-19.81933 -17.65715,-27.99674 -20.70451,-32.59798 -37.37049,-74.90139 -23.96018,-113.26048 l 4.10131,-3.08674 c 7.32941,2.28612 12.47689,8.47374 15.90869,15.15325 10.11116,19.67248 3.10231,52.03293 22.98882,65.2538 5.30616,0.51186 5.57206,0.67484 10.42591,-2.24492 9.46389,-23.1993 4.74632,-103.07133 -5.13741,-126.51426 -6.57639,-15.59596 -18.26508,-26.83519 -26.48572,-41.22871 -23.53231,-41.20332 -11.92902,-91.70502 4.29559,-133.03299 C -55.85223,526.88114 -16.3428,471.0663 2.0187597,405.14702 10.75787,373.77567 10.08381,341.0901 11.8403,309.00422 Z" /><path
         id="path6"
         style="fill:none;stroke:#e5e5e5;stroke-width:4.92837673;stroke-dasharray:none;stroke-opacity:1"
         d="m 194.02403,-363.49993 c -0.10159,0.0431 -0.22294,0.15316 -0.32379,0.19421 -6.51964,2.65449 -20.80657,0.67995 -28.40683,1.38154 -10.37671,0.95609 -20.7838,3.16731 -30.7813,6.0656 -60.99764,17.67622 -111.75082,62.96566 -135.32106032,122.11055 -9.23095968,23.16392 -13.79510968,48.8889 -16.83689968,73.56429 l -3.69115,43.68955 c -0.30607,4.00873 0.1861,12.55753 -1.2088,16.05975 -3.99519,10.021776 -16.91291,22.749396 -23.11835,32.443376 -18.40761,28.75183 -33.74202,59.7145796 -44.81202,92.02013 -9.67246,28.22895 -15.75564,57.39443 -20.48488,86.817834 -3.49955,21.78532 -5.82561,44.98989 -12.1096,66.16034 -3.65664,12.3187 -15.74833,24.41643 -22.38442,35.61645 -5.4165,9.1394 -10.20343,18.50039 -14.61355,28.0183 L 11.8403,309.00422 c 1.39945,-25.564 4.30644,-50.7566 15.00208,-74.53571 11.46015,-25.47983 37.33491,-46.04803 54.33132,-68.51316 26.02627,-34.39891 79.08566,-104.321084 99.89887,-144.214404 z" /><path
         id="path4"
         style="fill:none;stroke:#e5e5e5;stroke-width:4.92837673;stroke-dasharray:none;stroke-opacity:1"
         d="m 911.68534,1489.4856 -214.1089,3.4107 c -0.96048,8.7663 -1.71023,17.5843 -2.67661,26.2699 -4.67783,42.0375 -9.58131,85.4846 -5.37487,127.7661 7.94431,79.7675 46.37192,152.7254 62.46912,231.248 6.41128,31.2574 12.09215,62.7727 13.14573,94.7614 0.86402,26.1925 -1.35559,53.1682 1.0361,79.1981 1.70104,18.5268 7.1338,36.4583 10.03736,54.7414 2.54341,16.008 -3.08187,34.8877 -6.45409,50.705 -6.92043,32.4222 -14.9632,66.4699 -15.95186,99.7046 -0.32509,10.9427 -0.91449,22.4137 1.83479,33.1125 2.12634,8.2615 5.9356,16.1619 12.39024,21.9312 5.46326,4.9027 12.46019,7.5325 19.53505,9.1309 17.86596,4.0357 38.67332,3.1124 57.02958,3.4105 26.74192,0.4063 54.92024,1.7642 81.5076,-0.9714 8.28577,-0.8396 19.28152,-4.5029 24.93164,-10.9223 6.22163,-7.0694 5.86468,-19.2423 4.81381,-28.1265 -4.1008,-34.5339 -23.64008,-60.99 -39.60992,-90.5952 -19.29609,-35.8079 -38.82667,-81.2223 -41.83316,-121.8516 -1.99346,-26.9507 -0.18303,-55.1453 0.86346,-82.1769 2.56234,-66.3071 8.08014,-136.0885 24.52127,-200.5534 11.78522,-46.1818 32.70558,-93.3588 36.09145,-141.0843 3.83864,-54.0786 -6.81367,-107.8617 -24.19779,-159.1087 z" /><path
         id="path7"
         style="fill:none;stroke:#e5e5e5;stroke-width:4.92837673;stroke-dasharray:none;stroke-opacity:1"
         d="m 364.09816,1497.019 -213.78527,-9.1523 c -14.86035,48.9881 -25.59021,101.3432 -22.03906,150.7764 3.69715,51.5448 20.93969,101.8275 32.50815,151.964 16.28675,70.5852 23.96846,140.0569 27.43548,212.2958 1.12137,23.4023 3.29211,47.8848 1.81321,71.2329 -1.0022,15.8456 -5.09584,31.8107 -11.00875,46.5171 -11.85003,29.4969 -27.68993,58.8096 -41.57413,87.4654 -13.18012,27.2215 -28.96545,48.9323 -31.06192,80.623 -0.41713,6.338 -0.92174,14.3099 1.61893,20.2689 2.90093,6.8255 9.05658,8.9825 15.73602,11.0952 25.58813,8.0446 140.80981,9.1445 162.49752,-2.9356 10.93197,-6.0944 16.90342,-17.1535 19.96685,-28.8819 10.05697,-38.4339 -3.91105,-90.8864 -12.00169,-128.9964 -3.24761,-15.2768 -7.97617,-31.5734 -7.20964,-47.3376 1.07263,-21.9937 9.36687,-43.966 11.11665,-66.4191 1.96102,-25.1901 -0.2901,-50.9644 0.77709,-76.2627 1.93667,-45.8827 10.61281,-91.9963 21.71526,-136.4434 15.06802,-60.3208 42.2823,-117.9117 49.712,-179.939 6.1477,-51.3598 -1.71947,-104.5167 -6.2167,-155.8707 z" /><path
         id="path8"
         style="fill:none;stroke:#e5e5e5;stroke-width:4.92838;stroke-dasharray:none;stroke-opacity:1"
         d="M 891.28687,833.96952 171.07838,822.28748 c -2.61886,11.88173 -5.42073,13.36479 -7.51183,25.23806 -8.11773,46.10564 -10.50788,92.54799 -11.65632,139.27118 -1.02928,41.90208 -1.12206,84.94708 2.28807,126.72998 l 17.00959,133.81 c 7.07487,42.7394 19.09073,85.1144 16.0598,128.9316 -1.57372,22.7441 -13.9342,43.9022 -21.521,65.1243 -5.35601,14.9842 -10.60602,30.5589 -15.4338,46.4741 l 213.78527,9.1523 c -0.0897,-1.0243 -0.19372,-2.0852 -0.28061,-3.1081 -1.89588,-22.2919 -4.70846,-45.3552 -1.87798,-67.7146 3.21784,-25.4071 12.18578,-51.5271 20.46329,-75.6797 l 32.31391,-94.675 58.51892,-222.6787 C 488.26293,963.10785 500.81903,895.38069 503.77952,823.63 l 51.58995,0.21584 2.61185,38.16373 c 13.9168,132.67245 48.1386,266.36643 87.6598,393.57293 16.49798,53.0999 41.2878,104.9291 51.93532,159.5836 5.0029,25.674 2.84342,51.7778 0,77.7302 l 214.1089,-3.4107 c -5.48041,-16.1559 -11.5566,-32.0874 -18.15338,-47.6613 l -16.2542,-37.7318 c -2.63796,-6.1325 -6.74251,-13.6523 -7.51182,-20.1825 -2.15062,-18.2807 1.32134,-38.7206 4.36032,-56.7276 l 22.72984,-109.008 c 23.70633,-129.2134 20.03681,-257.84658 -5.56923,-384.20488 z"
         sodipodi:nodetypes="cccccccccccccccccccccccccccc" /><path
         id="path10"
         style="fill:none;stroke:#e5e5e5;stroke-width:4.92837673;stroke-dasharray:none;stroke-opacity:1"
         d="M 801.31755,200.6221 256.49319,190.45515 c 1.47067,2.87105 2.93927,5.74067 4.55462,8.41848 23.31925,79.4332 27.61946,91.92198 24.67249,176.01025 -0.60862,17.3184 -2.25436,91.52376 -6.60525,120.578 l 513.56825,9.23874 C 780.3944,450.33807 778.388,397.62873 780.9838,341.51228 c 2.68691,-58.0723 7.39292,-53.03665 17.31177,-124.20446 1.02732,-6.13291 2.01686,-11.57493 3.02198,-16.68572 z" /><path
         id="path11"
         style="fill:none;stroke:#e5e5e5;stroke-width:4.92837673;stroke-dasharray:none;stroke-opacity:1"
         d="m 888.5887,-136.20197 -701.88226,-9.67049 -5.63387,167.613406 c 0.4706,-0.90203 1.37673,-2.19502 1.81321,-3.06518 9.3364,18.55102 20.71719,68.86786 33.30682,85.479564 17.9064,23.62268 26.23023,58.8321 40.30059,86.29982 l 544.82436,10.16695 c 7.67009,-39.00184 16.13281,-52.24132 47.35915,-98.81966 33.57131,-50.076404 42.57799,-83.129234 46.77629,-86.731424 0.13504,0.37371 0.29546,0.72746 0.43169,1.10086 z" /><path
         id="path12"
         style="fill:none;stroke:#e5e5e5;stroke-width:4.92837673;stroke-dasharray:none;stroke-opacity:1"
         d="m 417.22074,-493.51092 c -0.0128,0.0318 -0.008,0.31685 -0.0216,0.34537 -52.64139,41.28422 -113.61981,62.56276 -171.26134,95.19316 -11.89622,6.73357 -23.16456,14.37556 -34.32135,22.25487 -5.10961,3.6085 -11.88434,9.77344 -17.59238,12.21759 l -7.31759,217.62747 701.88234,9.67049 -10.62028,-222.20378 c -1.28229,-0.23389 -3.36064,-0.11898 -4.27392,-0.49645 -4.71296,-1.95018 -10.35517,-6.86948 -14.72149,-9.73519 -11.50322,-7.54887 -22.89417,-15.37021 -34.90415,-22.10378 l -80.90331,-42.52394 c -34.95973,-17.39991 -69.35337,-33.90836 -99.40251,-59.31765 l 0.0216,-0.92816 z" /><path
         id="path9"
         style="fill:none;stroke:#000000;stroke-width:4.92838;stroke-dasharray:none;stroke-opacity:1"
         d="m 788.48106,496.55878 -505.68905,-0.83426 c -2.89256,2.218 -3.69749,1.4644 -5.09801,5.30625 -4.94329,7.58941 -53.75682,158.28801 -70.23745,199.78024 -21.93555,60.2789 -19.45826,58.19179 -33.40674,121.47646 l 714.08538,10.63149 C 878.84727,787.08509 870.00734,742.5899 855.13078,697.43974 835.13864,636.76725 794.81944,518.17012 792.95663,507.57466 c -1.92919,-4.5638 -1.58382,-8.83126 -4.47557,-11.01588 z"
         sodipodi:nodetypes="ccccccccc" /><path
         id="path1"
         style="fill:none;stroke:#e5e5e5;stroke-width:4.92837673;stroke-dasharray:none;stroke-opacity:1"
         d="m 533.60019,-959.52569 c -5.75297,-0.2602 -11.72601,-0.5365 -17.46285,0.043 -39.33443,4.759 -75.38967,19.7494 -100.33049,51.8058 -30.61817,39.3506 -33.90227,114.4049 -27.80247,162.8213 -3.65391,3.6431 -4.81075,1.7541 -8.37526,3.7991 -5.46057,3.1311 -7.59004,11.7097 -7.61978,17.4845 -0.0624,12.1589 3.11299,23.6557 5.41802,35.487 4.01958,20.64226 6.71815,48.58834 23.0104,63.65632 2.57048,2.37547 5.72967,4.21712 8.89333,5.67704 1.99608,12.24604 5.87191,117.59058 2.54713,125.24055 h 226.56402 l 2.61185,-80.83864 c 0.22223,-12.1427 -2.20971,-33.29946 1.98596,-44.35872 l 1.59731,-1.40308 c 19.2717,-17.21592 23.10962,-39.03466 28.21258,-63.07357 2.49734,-11.7581 5.435,-23.825 5.91452,-35.8539 0.27892,-6.9341 0.73808,-13.5083 -3.17307,-19.5783 -3.03643,-2.2671 -6.22841,-4.4144 -8.82868,-7.188 3.07979,-54.9605 4.17426,-123.9453 -34.51559,-167.5918 -24.55353,-27.6983 -61.87205,-44.4765 -98.64693,-46.1288 z" /><g
         id="body"
         transform="matrix(1.0609646,0,0,1.0609646,18.361555,-269.90089)"><path
           fill="#37b2df"
           d="m 283.17389,596.49529 c 7.29878,0.33206 8.88162,-0.0804 16.00924,0.0851 0.24196,2.35569 0.33325,4.67189 0.92537,6.98158 0.21806,0.85086 0.4925,1.77406 0.99588,2.50285 l 16.01311,4.53618 4.00828,1.04672 c 1.93273,0.46715 3.81933,0.85727 5.56272,1.86704 2.18883,1.26767 3.9146,3.27912 5.0637,5.51213 1.77008,3.43983 1.78687,7.37701 2.35122,11.1269 l -11.04878,5.03231 -1.42198,0.67869 c -0.29486,0.12678 -0.63934,0.21975 -0.90678,0.39192 l -0.59345,3.61479 -1.32044,5.61984 -2.38781,8.10544 -3.20945,9.55447 c -1.97909,6.59701 -2.50721,13.63264 -1.22409,20.41476 0.87817,4.64136 2.58945,9.06653 4.01324,13.55455 -0.13414,0.19564 -0.56192,0.36106 -0.78083,0.47331 -1.10697,0.56509 -2.26054,1.03232 -3.43657,1.43319 -7.0731,2.41002 -14.30448,3.24558 -21.75211,3.10431 -8.13756,-0.15454 -16.27934,-1.50682 -23.6363,-5.12186 0.49613,-0.95869 0.87937,-2.02123 1.25632,-3.03428 l 1.8831,-5.71358 c 0.89796,-3.03667 1.66371,-6.12763 1.94359,-9.28991 0.87418,-9.87668 -3.30531,-19.13342 -6.39017,-28.24646 -1.3144,-3.88248 -2.30932,-7.96381 -3.19666,-11.96352 l -0.36234,-2.37887 c -1.65985,-0.59948 -3.27817,-1.56409 -4.86979,-2.33418 l -8.36781,-4.052 0.69873,-5.17419 c 0.85173,-5.06344 3.15536,-9.80089 8.12778,-11.8773 2.24013,-0.93552 4.81304,-1.44191 7.16087,-2.06228 l 11.29691,-3.18688 3.34118,-0.99709 c 0.80258,-0.24161 1.7562,-0.45013 2.43888,-0.93551 1.45398,-2.80425 1.72577,-6.15811 1.81524,-9.2682 z"
           id="path5-3"
           sodipodi:nodetypes="ccccccccccccccccccccccccscccccccccccc"
           style="fill:none;stroke:#000000;stroke-width:2.10451;stroke-dasharray:none;stroke-opacity:1" /><path
           fill="#26A4D4"
           d="m 291.26778,657.48848 0.0627,0.0529 0.0441,34.39004 -0.0811,0.1627 c -0.12182,-0.92567 -0.0889,-1.92401 -0.11397,-2.85943 l -0.14428,-3.72601 -0.23966,-11.24502 0.22097,-8.86765 0.14825,-5.96255 c 0.0297,-0.65042 -0.0152,-1.30151 0.10303,-1.94505 z"
           id="path6-7"
           style="fill:#6f838b;fill-opacity:1;stroke-width:0.0990362;stroke-dasharray:none" /><path
           fill="#26A4D4"
           d="m 320.65964,629.12126 c -0.14503,1.18222 -0.44555,2.36517 -0.73139,3.52033 -0.29654,1.19846 -0.60848,2.45583 -1.09383,3.59369 -0.39492,0.92548 -0.96492,1.81969 -1.46818,2.69177 -1.54792,2.68216 -3.10979,5.22674 -5.37214,7.38061 -3.03293,2.88755 -6.79305,4.3086 -10.97477,4.21251 l -0.067,-0.0393 -0.0154,-0.0762 0.80173,-0.21946 c 4.45387,-1.19413 8.3186,-3.98271 11.14747,-7.59696 2.0068,-2.56394 3.57192,-5.48384 5.08832,-8.35467 z"
           id="path7-7"
           style="fill:#768084;fill-opacity:1;stroke-width:0.123795;stroke-dasharray:none" /><path
           fill="#26A4D4"
           d="m 260.34705,627.90946 c 0.25767,0.30548 0.40388,0.99081 0.55385,1.37381 l 1.14271,2.73433 c 0.81392,1.81983 1.66491,3.62625 2.65596,5.35758 2.92933,5.11694 6.90406,10.40111 12.73109,12.34639 0.86705,0.28943 1.82695,0.54564 2.73252,0.67255 0.78048,0.10927 1.5775,0.12774 2.33998,0.33457 l -1.21309,0.0885 c -4.54064,0.21251 -9.08406,-1.42355 -12.44396,-4.47471 -3.16985,-2.8785 -5.15847,-6.66571 -6.66209,-10.61978 -0.93322,-2.45445 -1.71502,-5.17864 -1.83697,-7.81324 z"
           id="path8-0"
           style="fill:#6c858e;fill-opacity:1;stroke-width:0.120743" /><text
           xml:space="preserve"
           style="font-style:normal;font-variant:normal;font-weight:normal;font-stretch:normal;font-size:113.547px;font-family:Amiri;-inkscape-font-specification:'Amiri, Normal';font-variant-ligatures:normal;font-variant-caps:normal;font-variant-numeric:normal;font-variant-east-asian:normal;fill:#000000;fill-opacity:1;stroke:none;stroke-width:0.215296;stroke-dasharray:none;stroke-opacity:1;paint-order:markers fill stroke"
           x="339.74225"
           y="684.15222"
           id="text1"><tspan
             sodipodi:role="line"
             id="tspan1"
             x="339.74225"
             y="684.15222"
             style="stroke-width:0.215296;stroke:none">Body: -1</tspan></text><path
           id="rect1"
           d="m 282.50527,648.92026 h 17.61435 l -5.26564,1.30119 -0.49288,12.72354 -7.11349,-0.0649 -0.0833,-12.65856 z"
           sodipodi:nodetypes="ccccccc"
           style="stroke-width:2.53663" /><path
           style="fill:#000000;fill-opacity:1;stroke-width:2.10969"
           id="path2-6-0"
           sodipodi:type="arc"
           sodipodi:cx="291.00009"
           sodipodi:cy="624.9527"
           sodipodi:rx="8.5723772"
           sodipodi:ry="8.5723772"
           sodipodi:start="0.027304543"
           sodipodi:end="6.2831853"
           sodipodi:open="true"
           sodipodi:arc-type="arc"
           d="m 299.56927,625.18673 a 8.5723772,8.5723772 0 0 1 -8.74471,8.33655 8.5723772,8.5723772 0 0 1 -8.39605,-8.68761 8.5723772,8.5723772 0 0 1 8.6301,-8.45515 8.5723772,8.5723772 0 0 1 8.51386,8.57218" /><path
           style="fill:#000000;fill-opacity:1;stroke-width:2.10969"
           id="path2-6-0-7"
           sodipodi:type="arc"
           sodipodi:cx="282.51749"
           sodipodi:cy="640.08997"
           sodipodi:rx="8.5723772"
           sodipodi:ry="8.5723772"
           sodipodi:start="0.027304543"
           sodipodi:end="6.2831853"
           sodipodi:open="true"
           sodipodi:arc-type="arc"
           d="m 291.08667,640.324 a 8.5723772,8.5723772 0 0 1 -8.74472,8.33655 8.5723772,8.5723772 0 0 1 -8.39604,-8.68761 8.5723772,8.5723772 0 0 1 8.63009,-8.45515 8.5723772,8.5723772 0 0 1 8.51386,8.57218" /><path
           style="fill:#000000;fill-opacity:1;stroke-width:2.10969"
           id="path2-6-0-9"
           sodipodi:type="arc"
           sodipodi:cx="299.66608"
           sodipodi:cy="640.08997"
           sodipodi:rx="8.5723772"
           sodipodi:ry="8.5723772"
           sodipodi:start="0.027304543"
           sodipodi:end="6.2831853"
           sodipodi:open="true"
           sodipodi:arc-type="arc"
           d="m 308.23526,640.324 a 8.5723772,8.5723772 0 0 1 -8.74472,8.33655 8.5723772,8.5723772 0 0 1 -8.39604,-8.68761 8.5723772,8.5723772 0 0 1 8.63009,-8.45515 8.5723772,8.5723772 0 0 1 8.51386,8.57218" /><path
           sodipodi:type="star"
           style="fill:#000000"
           id="path1-99"
           inkscape:flatsided="false"
           sodipodi:sides="3"
           sodipodi:cx="-4.2679658"
           sodipodi:cy="5.2618756"
           sodipodi:r1="0.76004869"
           sodipodi:r2="0.33594152"
           sodipodi:arg1="1.5707963"
           sodipodi:arg2="2.6179939"
           inkscape:rounded="0"
           inkscape:randomized="0"
           d="m -4.2679658,6.0219243 -0.2909339,-0.5920779 -0.3672876,-0.5479951 0.6582215,0.044083 0.6582215,-0.044083 -0.3672876,0.5479951 z"
           inkscape:transform-center-y="0.21087664"
           transform="matrix(4.5466021,0,0,4.5466021,310.29061,582.85793)" /><path
           sodipodi:type="star"
           style="fill:#000000"
           id="path1-7"
           inkscape:flatsided="false"
           sodipodi:sides="3"
           sodipodi:cx="-4.2679658"
           sodipodi:cy="5.2618756"
           sodipodi:r1="0.76004869"
           sodipodi:r2="0.33594152"
           sodipodi:arg1="1.5707963"
           sodipodi:arg2="2.6179939"
           inkscape:rounded="0"
           inkscape:randomized="0"
           d="m -4.2679658,6.0219243 -0.2909339,-0.5920779 -0.3672876,-0.5479951 0.6582215,0.044083 0.6582215,-0.044083 -0.3672876,0.5479951 z"
           inkscape:transform-center-y="-0.1986054"
           transform="matrix(2.1410252,4.0109351,-4.0109351,2.1410252,320.82082,620.19352)"
           inkscape:transform-center-x="0.014034468" /><path
           sodipodi:type="star"
           style="fill:#000000"
           id="path1-9"
           inkscape:flatsided="false"
           sodipodi:sides="3"
           sodipodi:cx="-4.2679658"
           sodipodi:cy="5.2618756"
           sodipodi:r1="0.76004869"
           sodipodi:r2="0.33594152"
           sodipodi:arg1="1.5707963"
           sodipodi:arg2="2.6179939"
           inkscape:rounded="0"
           inkscape:randomized="0"
           d="m -4.2679658,6.0219243 -0.2909339,-0.5920779 -0.3672876,-0.5479951 0.6582215,0.044083 0.6582215,-0.044083 -0.3672876,0.5479951 z"
           inkscape:transform-center-y="0.0047987713"
           transform="matrix(-0.05177666,-4.5463077,4.5463077,-0.05177666,263.24506,591.48829)"
           inkscape:transform-center-x="-0.2066996" /><path
           sodipodi:type="star"
           style="fill:#000000"
           id="path1-5"
           inkscape:flatsided="false"
           sodipodi:sides="3"
           sodipodi:cx="-4.2679658"
           sodipodi:cy="5.2618756"
           sodipodi:r1="0.76004869"
           sodipodi:r2="0.33594152"
           sodipodi:arg1="1.5707963"
           sodipodi:arg2="2.6179939"
           inkscape:rounded="0"
           inkscape:randomized="0"
           d="m -4.2679658,6.0219243 -0.2909339,-0.5920779 -0.3672876,-0.5479951 0.6582215,0.044083 0.6582215,-0.044083 -0.3672876,0.5479951 z"
           inkscape:transform-center-y="0.024724087"
           transform="matrix(-0.26655543,4.5387818,-4.5387818,-0.26655543,316.77845,631.68679)"
           inkscape:transform-center-x="0.18910257" /></g></g></g></svg>
