<?xml version="1.0" encoding="UTF-8" standalone="no"?>
<!-- Created with Inkscape (http://www.inkscape.org/) -->

<svg
   width="63mm"
   height="88mm"
   viewBox="0 0 63 88"
   version="1.1"
   id="svg1"
   inkscape:version="1.3.2 (091e20e, 2023-11-25, custom)"
   xml:space="preserve"
   sodipodi:docname="card-hitlocation-foot-right.svg"
   xmlns:inkscape="http://www.inkscape.org/namespaces/inkscape"
   xmlns:sodipodi="http://sodipodi.sourceforge.net/DTD/sodipodi-0.dtd"
   xmlns="http://www.w3.org/2000/svg"
   xmlns:svg="http://www.w3.org/2000/svg"><sodipodi:namedview
     id="namedview1"
     pagecolor="#ffffff"
     bordercolor="#000000"
     borderopacity="0.25"
     inkscape:showpageshadow="2"
     inkscape:pageopacity="0.0"
     inkscape:pagecheckerboard="0"
     inkscape:deskcolor="#d1d1d1"
     inkscape:document-units="mm"
     inkscape:zoom="0.73139028"
     inkscape:cx="155.18391"
     inkscape:cy="414.96313"
     inkscape:window-width="1350"
     inkscape:window-height="1017"
     inkscape:window-x="228"
     inkscape:window-y="0"
     inkscape:window-maximized="0"
     inkscape:current-layer="g1" /><defs
     id="defs1" /><g
     inkscape:label="Layer 1"
     inkscape:groupmode="layer"
     id="layer1"><g
       id="g1"
       transform="matrix(0.06087197,0,0,0.06087197,0.03359486,0.54402301)"><path
         id="path2"
         style="fill:none;stroke:#e4e4e4;stroke-width:4.92838;stroke-dasharray:none;stroke-opacity:1"
         d="m 1503.0992,-958.67148 -162.1195,68.70646 4.0597,46.92461 c 3.1466,25.2452 8.4371,50.92488 14.4265,75.64697 6.6604,27.49091 17.0776,55.25845 28.7005,81.08143 25.5984,56.88523 81.5058,147.11617 64.7342,211.4231 -0.512,1.96635 -1.061,3.84501 -1.8552,5.71819 -7.8051,18.43137 -24.7968,33.00273 -33.9167,50.83146 -7.1261,13.92349 -8.4088,29.97061 -10.3888,45.24416 l -6.6133,60.58734 c -0.7283,10.16333 -3.1248,21.36184 -0.6983,31.31961 l 4.5834,4.56134 c 7.912,-1.51711 16.0792,-6.89763 21.258,-13.07329 3.3137,-22.48995 5.0624,-60.16604 24.5754,-74.70848 3.0043,-2.23748 3.2487,-2.06348 6.9186,-1.78961 10.5001,20.67975 11.0082,46.23339 3.9068,67.81149 -4.6503,14.12889 -12.4678,31.04889 -21.018,43.30171 -7.6353,10.94103 -26.1874,24.87461 -29.7916,37.19056 -0.6066,2.07034 -0.038,6.32059 -0.043,8.62104 4.0724,4.84199 4.4263,5.5542 10.4979,7.04959 41.7923,-12.26662 96.7433,-42.26985 118.272,-80.84139 6.2771,-11.25043 9.891,-24.72323 11.6767,-37.43064 l 0.4146,-2.75001 c 2.0321,-14.79985 -0.9715,-31.79187 -2.2915,-46.64105 -1.9391,-21.78323 -3.0939,-43.22589 -2.3573,-65.10528 l 8.7959,-109.86913 c 9.7824,-111.7491 18.137,-226.08302 -16.8057,-334.54023 -8.7446,-27.13825 -20.5114,-54.3016 -34.9207,-79.26995 z" /><path
         id="path5"
         style="fill:none;stroke:#e4e4e4;stroke-width:4.92838;stroke-dasharray:none;stroke-opacity:1"
         d="m 1172.5966,-1545.3391 18.1151,378.7368 c 23.2925,63.8267 63.4892,116.8567 90.8811,157.0121 l 35.5536,50.24202 c 6.2169,8.4708 15.8276,18.8227 19.7083,28.56946 3.0702,7.70673 2.3904,19.2865 2.9902,27.5656 l 1.1348,13.2481 162.1195,-68.70646 c -2.4688,-4.2779 -4.8527,-8.6407 -7.4862,-12.7679 l -18.7262,-27.5656 c -2.2512,-3.18782 -6.8919,-8.07072 -8.1628,-11.41462 -1.09,-2.8701 -0.5367,-9.7953 -0.7201,-13.0516 l -2.4664,-35.8809 c -3.8862,-36.5176 -10.9483,-73.3622 -23.7241,-107.8832 -10.8698,-29.3614 -24.4366,-58.65 -40.0716,-85.7958 -6.6413,-11.5271 -16.5667,-23.0322 -21.9563,-34.8989 -1.7008,-3.741 -1.5279,-7.8445 -1.5279,-11.8511 0,-68.9628 -19.7829,-142.7195 -70.0814,-192.4786 -28.4138,-28.1043 -68.6863,-48.3774 -108.7997,-51.5953 -6.5549,-0.5281 -19.0124,-0.067 -26.7799,-1.4841 z" /><path
         id="path3"
         style="fill:none;stroke:#e4e4e4;stroke-width:4.92838;stroke-dasharray:none;stroke-opacity:1"
         d="m 296.85102,-870.51849 -173.81775,-69.12129 c -6.04574,13.04809 -11.29887,26.43013 -15.62703,40.33344 -14.060307,45.16624 -19.967577,92.98715 -23.505969,140.01017 -5.967599,79.34213 -3.124663,157.94705 2.793652,237.17689 l 7.638898,79.13907 c 1.919736,31.76046 -5.280645,61.93236 -5.565481,93.26013 -0.279329,30.65117 9.527291,61.99044 28.61314,86.01413 20.44976,25.74071 59.95039,53.78268 93.06363,58.20846 3.00164,0.40249 4.83451,0.0775 7.63892,-0.89493 2.39361,-4.20123 2.40892,-4.42916 1.00396,-9.0794 -2.7688,-9.18 -12.60038,-20.0394 -17.8532,-28.3076 -20.93441,-32.95994 -37.78545,-75.73308 -24.22623,-114.5181 l 4.14684,-3.12101 c 7.4108,2.31151 12.61544,8.56783 16.08534,15.32151 10.22343,19.89092 3.13675,52.61068 23.24408,65.97836 5.36508,0.51754 5.63394,0.68234 10.54168,-2.26985 9.56897,-23.45689 4.79902,-104.2158 -5.19445,-127.91904 -6.64942,-15.76913 -18.46789,-27.13315 -26.77982,-41.6865 -23.7936,-41.66083 -12.06147,-92.72329 4.34329,-134.51015 25.01233,-63.71811 64.96046,-120.15273 83.52591,-186.80395 8.83614,-31.71968 8.1546,-64.76819 9.93059,-97.21034 z" /><path
         id="path6"
         style="fill:none;stroke:#e4e4e4;stroke-width:4.92838;stroke-dasharray:none;stroke-opacity:1"
         d="m 481.05766,-1550.4899 c -0.10271,0.044 -0.22541,0.1549 -0.32738,0.1964 -6.59204,2.6839 -21.03761,0.6875 -28.72226,1.3969 -10.49193,0.9667 -21.01458,3.2024 -31.12308,6.1329 -61.67494,17.8725 -112.99166,63.6648 -136.82362,123.4664 -9.33347,23.4212 -13.94829,49.4318 -17.02386,74.3812 l -3.73214,44.1746 c -0.30946,4.0533 0.18818,12.697 -1.22222,16.2381 -4.03954,10.1331 -17.1007,23.002 -23.37504,32.8036 -18.61201,29.0711 -34.11668,60.3777 -45.3096,93.0419 -9.77987,28.5424 -15.93059,58.0317 -20.71234,87.7819 -3.53841,22.0272 -5.8903,45.4894 -12.24407,66.8949 -3.69724,12.45542 -15.92319,24.68752 -22.63297,36.01192 -5.47664,9.2409 -10.31672,18.7058 -14.77581,28.3294 l 173.81775,69.12129 c 1.41498,-25.84786 4.35426,-51.32019 15.16865,-75.36329 11.58741,-25.7628 37.74947,-46.5594 54.93461,-69.27392 26.31525,-34.7808 79.96379,-105.4794 101.00811,-145.8157 z" /><path
         id="path4"
         style="fill:none;stroke:#e4e4e4;stroke-width:4.92838;stroke-dasharray:none;stroke-opacity:1"
         d="m 1206.6878,323.07057 -216.48639,3.44858 c -0.97115,8.86366 -1.72922,17.77956 -2.70634,26.56159 -4.72976,42.50432 -9.68769,86.43379 -5.43454,129.18477 8.03252,80.65327 46.88677,154.42126 63.16287,233.81579 6.4825,31.60439 12.2264,63.46965 13.2917,95.81354 0.8736,26.48336 -1.3707,53.75862 1.0476,80.07751 1.7199,18.73251 7.213,36.86321 10.1488,55.34921 2.5716,16.1858 -3.1161,35.27514 -6.5258,51.26804 -6.9972,32.7823 -15.1293,67.208 -16.129,100.8118 -0.3286,11.0642 -0.9246,22.6626 1.8552,33.4801 2.15,8.3533 6.0015,16.3414 12.5278,22.1747 5.524,4.9571 12.5986,7.6161 19.752,9.2323 18.0643,4.0806 39.1028,3.147 57.6629,3.4484 27.0388,0.4108 55.53,1.7838 82.4126,-0.9822 8.3777,-0.849 19.4956,-4.5529 25.2084,-11.0436 6.2907,-7.1479 5.9298,-19.4559 4.8673,-28.4387 -4.1463,-34.9174 -23.9026,-61.6672 -40.0497,-91.6012 -19.5104,-36.2055 -39.2578,-82.12424 -42.2977,-123.20474 -2.0156,-27.24989 -0.185,-55.75757 0.8731,-83.08934 2.5908,-67.0433 8.1698,-137.59952 24.7935,-202.78022 11.9161,-46.69465 33.0687,-94.3955 36.4922,-142.65094 3.8812,-54.67906 -6.8893,-109.0593 -24.4665,-160.87539 z" /><path
         id="path8"
         style="fill:none;stroke:#e4e4e4;stroke-width:4.92838;stroke-dasharray:none;stroke-opacity:1"
         d="m 1186.0629,-339.72412 -728.20567,-22.32725 c -2.64794,12.01366 -5.48092,24.02869 -7.59524,36.0338 -8.20787,46.61758 -10.62455,93.57561 -11.78575,140.81761 -1.04071,42.36738 -1.13452,85.890327 2.31348,128.137177 L 457.98817,78.23297 c 7.15343,43.21395 19.30271,86.05955 16.23813,130.36324 -1.5912,22.99665 -14.08892,44.38966 -21.75997,65.84735 -5.41548,15.15058 -10.72378,30.89823 -15.60517,46.99016 l 216.15908,9.25396 c -0.0907,-1.03573 -0.19586,-2.10837 -0.28372,-3.14265 -1.91693,-22.53944 -4.76074,-45.85875 -1.89883,-68.4665 3.25356,-25.6892 12.32109,-52.09915 20.69051,-76.52 l 32.67271,-95.726238 59.1687,-225.151242 c 15.1941,-70.83293 27.88961,-139.3121 30.88297,-211.85949 l 52.16279,0.21824 2.64085,38.58748 c 14.07133,134.14562 48.67312,269.324067 88.63319,397.943092 16.68118,53.689498 41.74625,106.094178 52.512,161.355508 5.05845,25.95912 2.87499,52.35277 0,78.59327 l 216.48639,-3.44858 c -5.5412,-16.3352 -11.6849,-32.44368 -18.3549,-48.19045 l -16.4347,-38.15081 c -2.6672,-6.20052 -6.8174,-13.80383 -7.5952,-20.4066 -2.1745,-18.48369 1.336,-39.15052 4.4087,-57.35743 l 22.9823,-110.2184 c 23.9695,-130.648193 20.2592,-260.70965 -5.6311,-388.471 z" /><path
         id="path9"
         style="fill:none;stroke:#e4e4e4;stroke-width:4.92838;stroke-dasharray:none;stroke-opacity:1"
         d="m 1086.3644,-672.64915 -519.27089,-9.34132 c -0.53467,3.57042 -1.08298,6.79179 -1.70239,8.8174 -3.11661,10.20145 -9.83798,20.38225 -14.05558,30.40292 l -36.51393,91.92875 c -22.17912,60.94821 -42.86102,124.80267 -56.96438,188.79003 l 728.20567,22.32725 c -9.3911,-46.34279 -21.5158,-92.39427 -36.5576,-138.04576 -20.2141,-61.34618 -45.0477,-121.51001 -60.7401,-184.27218 -0.8884,-3.55225 -1.6014,-7.07042 -2.4008,-10.60709 z" /><path
         id="path10"
         style="fill:none;stroke:#e4e4e4;stroke-width:4.92838;stroke-dasharray:none;stroke-opacity:1"
         d="m 1095.0945,-980.10408 -550.87404,-10.2798 c 1.487,2.9029 2.97191,5.8044 4.60519,8.5119 23.57819,80.31525 27.92615,92.9427 24.94645,177.96466 -0.61537,17.5107 -2.27939,92.54001 -6.67859,121.91685 l 519.27089,9.34132 c -12.4254,-54.96617 -14.454,-108.26077 -11.8294,-165.00032 2.7167,-58.71712 7.475,-53.62556 17.504,-125.58361 1.0387,-6.201 2.0392,-11.7034 3.0555,-16.871 z" /><path
         id="path11"
         style="fill:none;stroke:#e4e4e4;stroke-width:4.92838;stroke-dasharray:none;stroke-opacity:1"
         d="m 1183.3348,-1320.6681 -709.67598,-9.7779 -5.69643,169.4746 c 0.47583,-0.9121 1.39202,-2.2194 1.83335,-3.0992 9.44006,18.757 20.94722,69.6325 33.67665,86.4287 18.10523,23.885 26.52147,59.4854 40.74807,87.25802 l 550.87404,10.2798 c 7.7553,-39.43482 16.312,-52.82132 47.8851,-99.91682 33.9441,-50.6325 43.0507,-84.0523 47.2957,-87.6945 0.1365,0.3779 0.2987,0.7355 0.4364,1.1131 z" /><path
         id="path12"
         style="fill:none;stroke:#e4e4e4;stroke-width:4.92838;stroke-dasharray:none;stroke-opacity:1"
         d="m 706.73268,-1681.9444 c -0.0129,0.032 -0.008,0.3204 -0.0218,0.3492 -53.2259,41.7426 -114.88141,63.2574 -173.16297,96.2501 -12.02831,6.8083 -23.42178,14.5352 -34.70245,22.502 -5.16635,3.6485 -12.0163,9.8819 -17.78771,12.3532 l -7.39885,220.0439 709.676,9.7779 -10.7382,-224.671 c -1.2965,-0.2365 -3.3979,-0.1203 -4.3214,-0.502 -4.7653,-1.9718 -10.4701,-6.9458 -14.8849,-9.8433 -11.631,-7.6327 -23.1484,-15.5409 -35.2917,-22.3492 l -81.8017,-42.9961 c -35.348,-17.5931 -70.12356,-34.2848 -100.50635,-59.9763 l 0.0218,-0.9384 z" /><path
         id="path7"
         style="fill:none;stroke:#000000;stroke-width:4.92838;stroke-dasharray:none;stroke-opacity:1"
         d="m 653.02024,330.68768 -216.15908,-9.25396 c -15.02535,49.53203 -25.87435,102.46848 -22.28377,152.45063 3.7382,52.11709 21.17219,102.95816 32.8691,153.65132 16.4676,71.36895 24.2346,141.61206 27.74012,214.65306 1.13382,23.66214 3.32867,48.41653 1.83334,72.02383 -1.01332,16.0215 -5.15241,32.1639 -11.13098,47.0337 -11.98161,29.82444 -27.9974,59.46264 -42.03576,88.43664 -13.32646,27.5237 -29.28707,49.4755 -31.40682,81.5181 -0.42176,6.4084 -0.93198,14.4688 1.63691,20.4941 2.93314,6.9012 9.15714,9.0822 15.91074,11.2183 25.87225,8.134 142.37333,9.2461 164.30186,-2.9682 11.05335,-6.162 17.09111,-17.3439 20.18855,-29.2025 10.16864,-38.8607 -3.95448,-91.8957 -12.13496,-130.4288 -3.28366,-15.4464 -8.06473,-31.92404 -7.28969,-47.86324 1.08454,-22.238 9.47088,-44.4542 11.24009,-67.15666 1.98279,-25.46983 -0.29332,-51.53027 0.78572,-77.1095 1.95817,-46.39212 10.73064,-93.01775 21.95638,-137.9584 15.23532,-60.99061 42.75179,-119.22094 50.26399,-181.93696 6.21595,-51.9301 -1.73857,-105.67725 -6.28574,-157.60146 z" /><path
         id="path1"
         style="fill:none;stroke:#e4e4e4;stroke-width:4.92838;stroke-dasharray:none;stroke-opacity:1"
         d="m 824.40438,-2153.1337 c -5.81685,-0.2631 -11.85622,-0.5425 -17.65676,0.044 -39.77118,4.8118 -76.22677,19.9686 -101.44453,52.381 -30.95814,39.7876 -34.2787,115.6752 -28.11118,164.6292 -3.69448,3.6836 -4.86417,1.7736 -8.46826,3.8413 -5.5212,3.1659 -7.67431,11.8397 -7.70438,17.6786 -0.0631,12.294 3.14756,23.9184 5.47818,35.881 4.06421,20.8715 6.79274,49.128 23.2659,64.3632 2.59902,2.4019 5.79329,4.264 8.99208,5.7401 2.01824,12.382 5.93711,118.8963 2.57541,126.6312 H 930.4106 l 2.64085,-81.7362 c 0.2247,-12.2776 -2.23424,-33.6693 2.00801,-44.8513 l 1.61505,-1.4187 c 19.48568,-17.407 23.36622,-39.4681 28.52585,-63.7739 2.52507,-11.8887 5.49534,-24.0896 5.98018,-36.252 0.28203,-7.0111 0.74628,-13.6584 -3.20829,-19.7957 -3.07015,-2.2923 -6.29758,-4.4634 -8.92672,-7.2679 3.11399,-55.5707 4.22061,-125.3215 -34.89884,-169.4526 -24.8262,-28.0058 -62.5591,-44.9704 -99.74231,-46.641 z" /><g
         id="body"
         transform="matrix(1.0609646,0,0,1.0609646,19.967377,-437.91133)"><path
           fill="#37b2df"
           d="m 283.17389,596.49529 c 7.29878,0.33206 8.88162,-0.0804 16.00924,0.0851 0.24196,2.35569 0.33325,4.67189 0.92537,6.98158 0.21806,0.85086 0.4925,1.77406 0.99588,2.50285 l 16.01311,4.53618 4.00828,1.04672 c 1.93273,0.46715 3.81933,0.85727 5.56272,1.86704 2.18883,1.26767 3.9146,3.27912 5.0637,5.51213 1.77008,3.43983 1.78687,7.37701 2.35122,11.1269 l -11.04878,5.03231 -1.42198,0.67869 c -0.29486,0.12678 -0.63934,0.21975 -0.90678,0.39192 l -0.59345,3.61479 -1.32044,5.61984 -2.38781,8.10544 -3.20945,9.55447 c -1.97909,6.59701 -2.50721,13.63264 -1.22409,20.41476 0.87817,4.64136 2.58945,9.06653 4.01324,13.55455 -0.13414,0.19564 -0.56192,0.36106 -0.78083,0.47331 -1.10697,0.56509 -2.26054,1.03232 -3.43657,1.43319 -7.0731,2.41002 -14.30448,3.24558 -21.75211,3.10431 -8.13756,-0.15454 -16.27934,-1.50682 -23.6363,-5.12186 0.49613,-0.95869 0.87937,-2.02123 1.25632,-3.03428 l 1.8831,-5.71358 c 0.89796,-3.03667 1.66371,-6.12763 1.94359,-9.28991 0.87418,-9.87668 -3.30531,-19.13342 -6.39017,-28.24646 -1.3144,-3.88248 -2.30932,-7.96381 -3.19666,-11.96352 l -0.36234,-2.37887 c -1.65985,-0.59948 -3.27817,-1.56409 -4.86979,-2.33418 l -8.36781,-4.052 0.69873,-5.17419 c 0.85173,-5.06344 3.15536,-9.80089 8.12778,-11.8773 2.24013,-0.93552 4.81304,-1.44191 7.16087,-2.06228 l 11.29691,-3.18688 3.34118,-0.99709 c 0.80258,-0.24161 1.7562,-0.45013 2.43888,-0.93551 1.45398,-2.80425 1.72577,-6.15811 1.81524,-9.2682 z"
           id="path5-3"
           sodipodi:nodetypes="ccccccccccccccccccccccccscccccccccccc"
           style="fill:none;stroke:#000000;stroke-width:2.10451;stroke-dasharray:none;stroke-opacity:1" /><path
           fill="#26A4D4"
           d="m 291.26778,657.48848 0.0627,0.0529 0.0441,34.39004 -0.0811,0.1627 c -0.12182,-0.92567 -0.0889,-1.92401 -0.11397,-2.85943 l -0.14428,-3.72601 -0.23966,-11.24502 0.22097,-8.86765 0.14825,-5.96255 c 0.0297,-0.65042 -0.0152,-1.30151 0.10303,-1.94505 z"
           id="path6-7"
           style="fill:#6f838b;fill-opacity:1;stroke-width:0.0990362;stroke-dasharray:none" /><path
           fill="#26A4D4"
           d="m 320.65964,629.12126 c -0.14503,1.18222 -0.44555,2.36517 -0.73139,3.52033 -0.29654,1.19846 -0.60848,2.45583 -1.09383,3.59369 -0.39492,0.92548 -0.96492,1.81969 -1.46818,2.69177 -1.54792,2.68216 -3.10979,5.22674 -5.37214,7.38061 -3.03293,2.88755 -6.79305,4.3086 -10.97477,4.21251 l -0.067,-0.0393 -0.0154,-0.0762 0.80173,-0.21946 c 4.45387,-1.19413 8.3186,-3.98271 11.14747,-7.59696 2.0068,-2.56394 3.57192,-5.48384 5.08832,-8.35467 z"
           id="path7-7"
           style="fill:#768084;fill-opacity:1;stroke-width:0.123795;stroke-dasharray:none" /><path
           fill="#26A4D4"
           d="m 260.34705,627.90946 c 0.25767,0.30548 0.40388,0.99081 0.55385,1.37381 l 1.14271,2.73433 c 0.81392,1.81983 1.66491,3.62625 2.65596,5.35758 2.92933,5.11694 6.90406,10.40111 12.73109,12.34639 0.86705,0.28943 1.82695,0.54564 2.73252,0.67255 0.78048,0.10927 1.5775,0.12774 2.33998,0.33457 l -1.21309,0.0885 c -4.54064,0.21251 -9.08406,-1.42355 -12.44396,-4.47471 -3.16985,-2.8785 -5.15847,-6.66571 -6.66209,-10.61978 -0.93322,-2.45445 -1.71502,-5.17864 -1.83697,-7.81324 z"
           id="path8-0"
           style="fill:#6c858e;fill-opacity:1;stroke-width:0.120743" /><text
           xml:space="preserve"
           style="font-style:normal;font-variant:normal;font-weight:normal;font-stretch:normal;font-size:113.547px;font-family:Amiri;-inkscape-font-specification:'Amiri, Normal';font-variant-ligatures:normal;font-variant-caps:normal;font-variant-numeric:normal;font-variant-east-asian:normal;fill:#000000;fill-opacity:1;stroke:none;stroke-width:0.215296;stroke-dasharray:none;stroke-opacity:1;paint-order:markers fill stroke"
           x="339.74225"
           y="684.15222"
           id="text1"><tspan
             sodipodi:role="line"
             id="tspan1"
             x="339.74225"
             y="684.15222"
             style="stroke-width:0.215296;stroke:none">Body: -1</tspan></text><path
           id="rect1"
           d="m 282.50527,648.92026 h 17.61435 l -5.26564,1.30119 -0.49288,12.72354 -7.11349,-0.0649 -0.0833,-12.65856 z"
           sodipodi:nodetypes="ccccccc"
           style="stroke-width:2.53663" /><path
           style="fill:#000000;fill-opacity:1;stroke-width:2.10969"
           id="path2-6-0"
           sodipodi:type="arc"
           sodipodi:cx="291.00009"
           sodipodi:cy="624.9527"
           sodipodi:rx="8.5723772"
           sodipodi:ry="8.5723772"
           sodipodi:start="0.027304543"
           sodipodi:end="6.2831853"
           sodipodi:open="true"
           sodipodi:arc-type="arc"
           d="m 299.56927,625.18673 a 8.5723772,8.5723772 0 0 1 -8.74471,8.33655 8.5723772,8.5723772 0 0 1 -8.39605,-8.68761 8.5723772,8.5723772 0 0 1 8.6301,-8.45515 8.5723772,8.5723772 0 0 1 8.51386,8.57218" /><path
           style="fill:#000000;fill-opacity:1;stroke-width:2.10969"
           id="path2-6-0-7"
           sodipodi:type="arc"
           sodipodi:cx="282.51749"
           sodipodi:cy="640.08997"
           sodipodi:rx="8.5723772"
           sodipodi:ry="8.5723772"
           sodipodi:start="0.027304543"
           sodipodi:end="6.2831853"
           sodipodi:open="true"
           sodipodi:arc-type="arc"
           d="m 291.08667,640.324 a 8.5723772,8.5723772 0 0 1 -8.74472,8.33655 8.5723772,8.5723772 0 0 1 -8.39604,-8.68761 8.5723772,8.5723772 0 0 1 8.63009,-8.45515 8.5723772,8.5723772 0 0 1 8.51386,8.57218" /><path
           style="fill:#000000;fill-opacity:1;stroke-width:2.10969"
           id="path2-6-0-9"
           sodipodi:type="arc"
           sodipodi:cx="299.66608"
           sodipodi:cy="640.08997"
           sodipodi:rx="8.5723772"
           sodipodi:ry="8.5723772"
           sodipodi:start="0.027304543"
           sodipodi:end="6.2831853"
           sodipodi:open="true"
           sodipodi:arc-type="arc"
           d="m 308.23526,640.324 a 8.5723772,8.5723772 0 0 1 -8.74472,8.33655 8.5723772,8.5723772 0 0 1 -8.39604,-8.68761 8.5723772,8.5723772 0 0 1 8.63009,-8.45515 8.5723772,8.5723772 0 0 1 8.51386,8.57218" /><path
           sodipodi:type="star"
           style="fill:#000000"
           id="path1-99"
           inkscape:flatsided="false"
           sodipodi:sides="3"
           sodipodi:cx="-4.2679658"
           sodipodi:cy="5.2618756"
           sodipodi:r1="0.76004869"
           sodipodi:r2="0.33594152"
           sodipodi:arg1="1.5707963"
           sodipodi:arg2="2.6179939"
           inkscape:rounded="0"
           inkscape:randomized="0"
           d="m -4.2679658,6.0219243 -0.2909339,-0.5920779 -0.3672876,-0.5479951 0.6582215,0.044083 0.6582215,-0.044083 -0.3672876,0.5479951 z"
           inkscape:transform-center-y="0.21087664"
           transform="matrix(4.5466021,0,0,4.5466021,310.29061,582.85793)" /><path
           sodipodi:type="star"
           style="fill:#000000"
           id="path1-7"
           inkscape:flatsided="false"
           sodipodi:sides="3"
           sodipodi:cx="-4.2679658"
           sodipodi:cy="5.2618756"
           sodipodi:r1="0.76004869"
           sodipodi:r2="0.33594152"
           sodipodi:arg1="1.5707963"
           sodipodi:arg2="2.6179939"
           inkscape:rounded="0"
           inkscape:randomized="0"
           d="m -4.2679658,6.0219243 -0.2909339,-0.5920779 -0.3672876,-0.5479951 0.6582215,0.044083 0.6582215,-0.044083 -0.3672876,0.5479951 z"
           inkscape:transform-center-y="-0.1986054"
           transform="matrix(2.1410252,4.0109351,-4.0109351,2.1410252,320.82082,620.19352)"
           inkscape:transform-center-x="0.014034468" /><path
           sodipodi:type="star"
           style="fill:#000000"
           id="path1-9"
           inkscape:flatsided="false"
           sodipodi:sides="3"
           sodipodi:cx="-4.2679658"
           sodipodi:cy="5.2618756"
           sodipodi:r1="0.76004869"
           sodipodi:r2="0.33594152"
           sodipodi:arg1="1.5707963"
           sodipodi:arg2="2.6179939"
           inkscape:rounded="0"
           inkscape:randomized="0"
           d="m -4.2679658,6.0219243 -0.2909339,-0.5920779 -0.3672876,-0.5479951 0.6582215,0.044083 0.6582215,-0.044083 -0.3672876,0.5479951 z"
           inkscape:transform-center-y="0.0047987713"
           transform="matrix(-0.05177666,-4.5463077,4.5463077,-0.05177666,263.24506,591.48829)"
           inkscape:transform-center-x="-0.2066996" /><path
           sodipodi:type="star"
           style="fill:#000000"
           id="path1-5"
           inkscape:flatsided="false"
           sodipodi:sides="3"
           sodipodi:cx="-4.2679658"
           sodipodi:cy="5.2618756"
           sodipodi:r1="0.76004869"
           sodipodi:r2="0.33594152"
           sodipodi:arg1="1.5707963"
           sodipodi:arg2="2.6179939"
           inkscape:rounded="0"
           inkscape:randomized="0"
           d="m -4.2679658,6.0219243 -0.2909339,-0.5920779 -0.3672876,-0.5479951 0.6582215,0.044083 0.6582215,-0.044083 -0.3672876,0.5479951 z"
           inkscape:transform-center-y="0.024724087"
           transform="matrix(-0.26655543,4.5387818,-4.5387818,-0.26655543,316.77845,631.68679)"
           inkscape:transform-center-x="0.18910257" /></g></g></g></svg>
