<?xml version="1.0" encoding="UTF-8" standalone="no"?>
<svg
   width="4.7704797mm"
   height="5.6880002mm"
   version="1.1"
   id="svg11"
   sodipodi:docname="icon-mind.svg"
   viewBox="0 0 73.865873 88.072716"
   inkscape:version="1.4.2 (ebf0e94, 2025-05-08)"
   xmlns:inkscape="http://www.inkscape.org/namespaces/inkscape"
   xmlns:sodipodi="http://sodipodi.sourceforge.net/DTD/sodipodi-0.dtd"
   xmlns="http://www.w3.org/2000/svg"
   xmlns:svg="http://www.w3.org/2000/svg">
  <defs
     id="defs11" />
  <sodipodi:namedview
     id="namedview11"
     pagecolor="#ffffff"
     bordercolor="#000000"
     borderopacity="0.25"
     inkscape:showpageshadow="2"
     inkscape:pageopacity="0.0"
     inkscape:pagecheckerboard="0"
     inkscape:deskcolor="#d1d1d1"
     inkscape:document-units="mm"
     inkscape:zoom="9.1603901"
     inkscape:cx="11.57156"
     inkscape:cy="32.313034"
     inkscape:window-width="1350"
     inkscape:window-height="1040"
     inkscape:window-x="366"
     inkscape:window-y="0"
     inkscape:window-maximized="0"
     inkscape:current-layer="svg11" />
  <g
     id="mind-8"
     inkscape:label="mind"
     transform="matrix(0.77365406,0,0,0.77364992,-13.900804,-15.374994)">
    <path
       fill="#8751D1"
       d="m 44.550227,132.12207 c -0.222536,-0.0303 -0.548311,0.04 -0.778971,0.0618 l -1.689408,0.16726 c -3.340906,0.29694 -7.690061,0.79265 -10.688454,-0.98537 -2.075563,-1.23018 -3.332296,-3.51361 -3.388405,-5.91024 -0.02834,-1.21478 0.192947,-2.43599 0.303363,-3.64377 0.139016,-1.5213 0.104837,-3.19122 -0.325059,-4.66647 -0.312456,-1.07263 -1.305935,-1.70432 -2.043803,-2.49128 -0.290886,-0.31015 -0.593279,-0.62467 -0.67982,-1.05759 -0.07561,-0.37851 0.0036,-0.70165 0.206651,-1.02526 0.631936,-1.00982 1.836668,-1.57524 2.952329,-1.84163 -1.316492,-0.59231 -2.673694,-1.0359 -3.354107,-2.42123 -0.06619,-0.86863 0.607325,-1.3332 1.099528,-1.9781 0.396926,-0.52009 0.815797,-1.15953 1.027776,-1.78153 0.274402,-0.80501 0.3527,-1.79961 -0.05597,-2.57456 -0.29016,-0.55037 -0.817986,-0.85179 -1.387867,-1.03953 -0.961245,-0.31658 -2.192892,-0.1549 -3.206371,-0.21937 -0.972143,-0.0619 -2.138102,-0.38626 -2.800819,-1.145965 -1.419267,-1.626634 -0.508444,-2.997042 0.283362,-4.647917 l 3.952239,-8.184696 c 1.190184,-2.503992 2.519026,-5.102179 3.108433,-7.824834 0.207368,-0.957856 0.249674,-1.982968 0.144954,-2.958868 -0.139502,-1.301092 -0.498623,-2.59407 -0.695928,-3.890067 -0.450757,-2.960931 -0.569047,-5.956652 -0.388576,-8.944731 l 5.231385,-15.41493 c 3.044171,-6.250418 6.197672,-10.84724 10.70163,-14.643762 8.63213,-8.053012 12.087838,-8.660607 14.300299,-9.655862 9.144244,-3.102226 22.705886,-2.92171 26.766165,-1.50882 3.865301,1.146532 9.885158,3.363973 13.341738,6.558622 7.498479,6.930265 11.759289,12.72207 15.286529,25.275811 1.01557,10.605376 2.21946,16.346381 -7.99752,34.697859 -4.327627,4.044077 -3.21603,8.80263 -4.235921,19.67504 -2.422518,7.69191 1.353861,23.91333 -1.666945,24.3036 z"
       id="path2-9"
       style="fill:none;fill-opacity:1;stroke:#e8322c;stroke-width:2.08309;stroke-dasharray:none;stroke-opacity:1"
       sodipodi:nodetypes="ccccccccccccscccccccscccccccsccccc" />
    <path
       style="fill:#d80000;fill-opacity:1;stroke-width:3.13804"
       id="path1-3-2"
       sodipodi:type="arc"
       sodipodi:cx="71.312637"
       sodipodi:cy="61.071789"
       sodipodi:rx="33.343418"
       sodipodi:ry="35.017944"
       sodipodi:start="0.027304543"
       sodipodi:end="6.2831853"
       sodipodi:open="true"
       sodipodi:arc-type="arc"
       d="M 104.64363,62.027819 A 33.343418,35.017944 0 0 1 70.629865,96.082391 33.343418,35.017944 0 0 1 37.972327,60.593729 33.343418,35.017944 0 0 1 71.540242,26.05466 33.343418,35.017944 0 0 1 104.65606,61.071789" />
    <path
       style="fill:#ffffff;fill-opacity:1;stroke-width:3.00049"
       id="path1-8"
       sodipodi:type="arc"
       sodipodi:cx="71.286804"
       sodipodi:cy="60.370335"
       sodipodi:rx="31.841854"
       sodipodi:ry="33.525223"
       sodipodi:start="0.027304543"
       sodipodi:end="6.2831853"
       sodipodi:open="true"
       sodipodi:arc-type="arc"
       d="M 103.11679,61.285612 A 31.841854,33.525223 0 0 1 70.634779,93.888528 31.841854,33.525223 0 0 1 39.447917,59.912654 31.841854,33.525223 0 0 1 71.504159,26.845893 31.841854,33.525223 0 0 1 103.12866,60.370335" />
    <rect
       style="fill:#e8322c;fill-opacity:1;stroke-width:3.68045"
       id="rect1-0"
       width="39.167217"
       height="40.023563"
       x="82.582901"
       y="-51.369141"
       transform="matrix(0.52984252,0.84809604,-0.54411318,0.83901183,0,0)" />
    <path
       id="path3-2-2"
       style="fill:#ffffff;stroke-width:3.74606"
       d="M 92.718114,60.658931 71.43617,63.093139 50.154233,60.658931 71.43617,60.172103 Z"
       sodipodi:nodetypes="ccccc" />
    <path
       id="path4-2"
       style="fill:#ffffff;stroke-width:2.12121"
       inkscape:transform-center-x="-0.00014167674"
       inkscape:transform-center-y="-0.20077548"
       d="M 70.601602,61.006681 71.457409,25.026665 72.337638,60.67068 Z" />
  </g>
</svg>
