<?xml version="1.0" encoding="UTF-8" standalone="no"?>
<svg
   width="4.4930549mm"
   height="5.6879997mm"
   version="1.1"
   id="svg8"
   sodipodi:docname="icon-speed.svg"
   inkscape:version="1.4.2 (ebf0e94, 2025-05-08)"
   viewBox="0 0 69.57024 88.072717"
   xmlns:inkscape="http://www.inkscape.org/namespaces/inkscape"
   xmlns:sodipodi="http://sodipodi.sourceforge.net/DTD/sodipodi-0.dtd"
   xmlns="http://www.w3.org/2000/svg"
   xmlns:svg="http://www.w3.org/2000/svg">
  <defs
     id="defs8" />
  <sodipodi:namedview
     id="namedview8"
     pagecolor="#ffffff"
     bordercolor="#000000"
     borderopacity="0.25"
     inkscape:showpageshadow="2"
     inkscape:pageopacity="0.0"
     inkscape:pagecheckerboard="0"
     inkscape:deskcolor="#d1d1d1"
     inkscape:zoom="9.16039"
     inkscape:cx="2.565393"
     inkscape:cy="14.737364"
     inkscape:window-width="1350"
     inkscape:window-height="1040"
     inkscape:window-x="325"
     inkscape:window-y="0"
     inkscape:window-maximized="0"
     inkscape:current-layer="svg8"
     inkscape:document-units="mm" />
  <path
     fill="#fefefe"
     d="m 14.292333,51.933819 0.133936,0.03237 c 1.069401,2.344111 2.174179,2.307467 3.726536,4.578205 C 13.280552,56.477191 10.866812,55.866436 6.4682609,53.870386 5.627794,53.81562 3.5060274,51.931066 3.0732676,51.5868 2.1733995,50.871026 1.3723812,50.131075 0.59003065,49.350493 c 1.75830975,0.553001 3.57353975,0.951909 5.35970805,1.313011 2.7873517,0.563817 5.5691593,1.006671 8.3427403,1.269722 z"
     id="path2-5-1"
     style="fill:none;stroke:#000000;stroke-width:1.44642;stroke-dasharray:none;stroke-opacity:1"
     sodipodi:nodetypes="ccccccccc" />
  <path
     fill="#fefefe"
     d="m 12.335507,45.172899 c 0.103362,0.02342 0.201343,0.0383 0.295557,0.08869 0.118895,0.929519 0.301145,1.830686 0.631312,2.709765 l 0.430553,1.026814 c 0.07037,0.158789 0.194974,0.368001 0.218311,0.538231 -2.108585,0.821289 -3.665552,0.335052 -5.5226229,-0.599727 -3.0152697,-1.77209 -5.620247,-4.624647 -6.8468125,-7.925673 2.3364048,1.767288 5.1313164,2.677632 7.9260157,3.44274 z"
     id="path3-9"
     style="fill:none;stroke:#000000;stroke-width:1.44642;stroke-dasharray:none;stroke-opacity:1"
     sodipodi:nodetypes="ccccccccc" />
  <path
     fill="#fefefe"
     d="M 11.654338,41.661585 C 11.037777,41.499337 10.400879,41.389688 9.7988965,41.174278 9.2678676,40.984308 8.7262495,40.679836 8.2403496,40.392232 6.8918681,39.594099 5.6665467,38.592851 4.6320268,37.413596 1.8839226,34.281165 0.8734602,30.201355 1.1411837,26.110154 c 0.8983246,2.021705 2.2221962,3.79249 3.9845742,5.150862 l 0.9838595,0.689215 c 0.1752065,0.112893 0.4382659,0.217445 0.580985,0.364702 0.1311389,0.135342 0.2403993,0.303977 0.357751,0.452399 l 0.860428,1.054305 c 1.3756047,1.536818 2.9905826,2.946114 4.7485356,4.02807 l 0.08004,0.08557 c -0.386687,1.230839 -0.64878,2.495637 -0.659771,3.789131 z"
     id="path6-5-5"
     style="fill:none;stroke:#000000;stroke-width:1.44642;stroke-dasharray:none;stroke-opacity:1" />
  <path
     fill="#fefefe"
     d="M 13.439416,34.835324 C 9.6635798,32.402574 6.4184256,28.726255 4.6984861,24.559104 4.4269432,23.901062 4.2304233,23.219127 4.0383383,22.534634 2.7867596,18.073703 3.1188971,13.11753 4.8992485,8.8421109 c 0.1800366,0.4516285 0.2620908,0.9790768 0.3890927,1.4512951 0.222849,0.828729 0.497379,1.623445 0.8452927,2.408507 0.2941102,0.663639 0.6123171,1.333706 0.9850473,1.956209 l 0.5624662,0.875006 c 0.1167725,0.170385 0.3158973,0.387519 0.3790588,0.583292 0.1325867,0.410524 0.1634449,0.876703 0.2666298,1.297761 0.2079949,0.848579 0.487054,1.688461 0.7710346,2.514545 0.2863858,0.833078 0.6622704,1.62837 1.0409704,2.422007 l 0.928993,1.867016 c 1.165748,2.104614 2.585682,4.079338 4.05459,5.980595 l 0.146093,0.192193 c -0.03185,0.208482 -0.170199,0.442228 -0.25544,0.637919 l -0.416084,1.021608 -1.001637,2.834186 z"
     id="path8-0"
     style="fill:none;stroke:#000000;stroke-width:1.44642;stroke-dasharray:none;stroke-opacity:1" />
  <path
     fill="#fefefe"
     d="m 16.755946,27.458861 c -0.926482,-1.264871 -1.866867,-2.522895 -2.692813,-3.857235 -0.601326,-0.971317 -1.117044,-1.968041 -1.615876,-2.993719 -0.69187,-1.422879 -1.310536,-2.976911 -1.592876,-4.541057 -0.153321,-0.849449 -0.281956,-1.697376 -0.319756,-2.56093 -0.151297,-3.450948 0.743365,-6.9685942 2.3838,-9.997947 0.450611,-0.8321797 0.967185,-1.6098564 1.507306,-2.3853831 0.02602,0.026034 0.01446,0.1989589 0.01541,0.2452251 0.0135,1.5829462 0.07713,3.1412503 0.264507,4.714251 0.433945,3.6464071 1.345394,7.150233 2.413084,10.655536 l 2.039475,6.083155 c -0.07807,0.240689 -0.25852,0.4728 -0.384367,0.69366 l -0.455138,0.869042 -1.445237,3.109806 -0.0482,0.02425 z"
     id="path9-5"
     style="fill:none;stroke:#000000;stroke-width:1.44642;stroke-dasharray:none;stroke-opacity:1" />
  <path
     fill="#0f0f0f"
     d="m 19.843604,57.980649 c 3.915686,4.954667 8.004191,9.744633 12.615124,14.070979 3.133827,2.940312 6.53561,5.712926 10.339709,7.745584 4.941683,2.640528 10.659648,4.163291 16.201558,4.821839 1.543948,0.183418 3.09353,0.233746 4.644181,0.317466 1.429991,0.07723 2.885776,0.218809 4.316249,0.09868 -0.193913,0.243574 -0.608361,0.34679 -0.901888,0.467816 -2.120074,0.874495 -4.373002,1.40059 -6.64991,1.659207 C 53.686668,87.92564 46.649546,86.297988 40.682091,83.198831 37.98218,81.796727 35.489542,80.085069 33.11552,78.190239 29.41265,75.23459 26.03243,71.831955 22.993824,68.201142 L 20.46356,65.079797 14.803237,70.317376 1.5281987,63.853317 3.0830542,54.07109 c 0.2374108,0.130829 0.4794435,0.286717 0.7371007,0.372311 1.447781,0.740031 2.9053303,1.466558 4.4305154,2.035629 3.6981637,1.380138 4.6368827,1.845377 8.5574197,1.531263 z"
     id="path10-2"
     style="fill:none;fill-opacity:1;stroke:#000000;stroke-width:1.44642;stroke-dasharray:none;stroke-opacity:1"
     sodipodi:nodetypes="ccccccccccccccccccc" />
  <path
     fill="#dc9308"
     d="m 38.676935,18.53138 0.08973,0.02176 c 0.30558,0.06974 0.715398,0.01947 1.031565,0.0135 l 2.23203,-0.03299 c 1.490838,-0.0151 3.032491,0.06829 4.514843,-0.02696 -3.935816,6.357029 -6.151696,13.787995 -5.944809,21.283758 0.07232,2.650467 0.465073,5.229205 1.072078,7.805507 2.348392,9.96707 7.235572,18.843247 13.287035,25.50157 7.536081,7.871959 6.618588,5.39517 13.899867,11.104552 C 58.07067,81.888816 54.102573,81.017126 51.112297,79.708917 44.947183,75.855523 41.784428,75.417505 34.360166,68.241397 26.392849,60.540391 22.967624,58.404764 20.030963,51.305885 L 18.002685,39.208693 C 16.208147,25.030768 20.754599,19.541692 20.515978,18.710696 l 13.253343,-0.163307 3.313879,0.03748 c 0.530647,-0.0049 1.066812,0.01265 1.593687,-0.05256 z"
     id="path11-9"
     style="fill:none;stroke:#000000;stroke-width:1.44642;stroke-dasharray:none;stroke-opacity:1"
     sodipodi:nodetypes="cccccsccccsccccccc" />
  <path
     id="path2-05"
     inkscape:transform-center-x="-0.019456878"
     inkscape:transform-center-y="-4.8834595"
     d="m 16.489718,54.989819 c 12.682623,-4.592339 8.708809,-5.958828 13.491048,-35.960183 5.069631,29.721869 1.646173,31.540423 13.633299,35.834655 z"
     sodipodi:nodetypes="cccc"
     style="stroke-width:6.65713" />
  <path
     id="path2-0-5"
     inkscape:transform-center-x="-0.0044542926"
     inkscape:transform-center-y="-1.7067011"
     d="m 27.066505,60.54908 c 2.564071,-1.626035 2.398612,-3.936116 3.089008,-12.567598 0.752043,8.700018 0.521965,10.974325 3.121582,12.523717 z"
     sodipodi:nodetypes="cccc"
     style="stroke-width:1.88319" />
</svg>
