<?xml version="1.0" encoding="UTF-8" standalone="no"?>
<!-- Created with Inkscape (http://www.inkscape.org/) -->

<svg
   width="7.6219659mm"
   height="9.8394413mm"
   viewBox="0 0 28.80743 37.188439"
   version="1.1"
   id="svg1"
   sodipodi:docname="icon-cup.svg"
   inkscape:version="1.4.2 (ebf0e94, 2025-05-08)"
   xmlns:inkscape="http://www.inkscape.org/namespaces/inkscape"
   xmlns:sodipodi="http://sodipodi.sourceforge.net/DTD/sodipodi-0.dtd"
   xmlns="http://www.w3.org/2000/svg"
   xmlns:svg="http://www.w3.org/2000/svg">
  <sodipodi:namedview
     id="namedview1"
     pagecolor="#ffffff"
     bordercolor="#000000"
     borderopacity="0.25"
     inkscape:showpageshadow="2"
     inkscape:pageopacity="0.0"
     inkscape:pagecheckerboard="0"
     inkscape:deskcolor="#d1d1d1"
     inkscape:document-units="mm"
     inkscape:zoom="6.0472362"
     inkscape:cx="14.800149"
     inkscape:cy="11.410171"
     inkscape:window-width="1350"
     inkscape:window-height="1040"
     inkscape:window-x="554"
     inkscape:window-y="0"
     inkscape:window-maximized="0"
     inkscape:current-layer="layer1" />
  <defs
     id="defs1" />
  <g
     inkscape:label="Layer 1"
     inkscape:groupmode="layer"
     id="layer1"
     transform="translate(-3.7637026,-1.1863591)">
    <path
       fill="#af1613"
       d="m 18.139152,4.3148825 c 1.375946,-1.6732178 3.295026,-2.8716259 5.482425,-3.0880889 2.154277,-0.2131798 4.250783,0.4209512 5.921518,1.7990523 1.726393,1.4240719 2.787939,3.4963731 2.993924,5.7174 0.199413,2.1498601 -0.482304,4.3671611 -1.865406,6.0262851 l -12.509528,12.608347 -8.2363959,-8.347739 1.9482179,0.0072 6.272367,6.409229 c 0.131309,-0.09529 0.248817,-0.236624 0.363622,-0.351647 l 0.644502,-0.645856 2.28336,-2.277367 5.438458,-5.43689 1.63316,-1.630385 c 0.595681,-0.596386 1.192163,-1.162634 1.650511,-1.87699 1.010497,-1.574919 1.279979,-3.4552908 0.885467,-5.272129 C 30.647262,6.1218593 29.575452,4.5512484 27.993557,3.5377202 26.573025,2.6275679 24.794313,2.2415246 23.134456,2.6128157 20.920332,3.1080758 19.336683,4.5502632 18.157192,6.4215424 l -0.04298,-0.019853 z"
       id="path2"
       style="stroke-width:0.0365158" />
    <path
       fill="#e7342a"
       d="M 9.9256891,19.030139 5.8010262,14.81043 C 4.3684447,13.246099 3.6737707,11.131696 3.7730222,9.0257305 3.8739883,6.882993 4.8173306,4.7671672 6.4110941,3.3193935 8.0120142,1.8651946 10.081098,1.1074957 12.244029,1.217443 c 1.782073,0.09056 3.565974,0.8169642 4.889373,2.0168699 0.2402,0.2177426 0.474887,0.4459294 0.689158,0.6894159 0.107287,0.1219287 0.19587,0.259515 0.305271,0.3789942 l 0.01134,0.012155 -0.02494,2.0868356 0.04298,0.019853 c 1.179495,-1.8712793 2.763141,-3.3134634 4.977268,-3.8087268 1.659859,-0.3712894 3.438571,0.014802 4.859104,0.9249062 1.581888,1.0135265 2.653698,2.5841376 3.051794,4.4175885 0.394515,1.8168366 0.125024,3.6972105 -0.885465,5.2721295 -0.458347,0.714357 -1.054829,1.280603 -1.65051,1.876941 l -1.633159,1.630387 -5.438462,5.436891 -2.283363,2.277371 -0.644501,0.645849 c -0.114814,0.11503 -0.232312,0.25634 -0.36362,0.351654 l -6.272402,-6.40924 z"
       id="path3"
       style="stroke-width:0.0365158" />
    <path
       fill="#ef957e"
       d="m 8.3563184,15.442077 -0.020923,-0.0083 C 8.2628026,15.397129 8.1906837,15.318001 8.1298843,15.262612 L 7.65091,14.79941 C 7.3736093,14.530691 7.0753495,14.279171 6.8114877,13.99727 6.1868144,13.330057 5.6992577,12.461239 5.4053433,11.598009 4.8278488,9.9017122 4.9384175,7.9651418 5.739388,6.3570669 6.5428789,4.7439863 7.9796598,3.4623964 9.6933393,2.8878967 c 1.6437867,-0.551059 3.4449947,-0.4267222 5.0010357,0.347373 1.230615,0.6122232 2.097021,1.5068178 2.886892,2.6140097 0.117101,0.1641809 0.336344,0.3969615 0.39864,0.582424 L 17.96208,6.4195485 C 17.626879,6.1864747 17.332526,5.9147618 16.981646,5.6988097 15.556184,4.8214835 13.829249,4.519424 12.185023,4.8043932 10.472512,5.1011923 8.9811047,6.0911334 7.9883165,7.5090713 7.0059733,8.9121124 6.6154377,10.784743 6.917715,12.46607 c 0.1905015,1.059758 0.678533,2.195942 1.4386058,2.976098 z"
       id="path4"
       style="stroke-width:0.0365158" />
    <path
       id="path1"
       style="fill:#af1613;fill-opacity:1;stroke:none;stroke-width:0.457387;paint-order:markers fill stroke"
       inkscape:transform-center-x="0.095418258"
       inkscape:transform-center-y="-8.0964515"
       d="M 9.2928164,37.360557 18.173132,26.333297"
       sodipodi:nodetypes="cc" />
    <rect
       style="fill:#ef957e;fill-opacity:1;stroke:none;stroke-width:0.267944;paint-order:markers fill stroke"
       id="rect1"
       width="28.708065"
       height="1.1879196"
       x="3.8421886"
       y="7.511126" />
    <path
       id="path5"
       style="fill:#af1613;stroke-width:0.282629;paint-order:markers fill stroke"
       inkscape:transform-center-x="-0.04909593"
       inkscape:transform-center-y="-3.1419787"
       d="m 8.2876526,38.25933 1.2374819,-0.810924 5.1552785,-1.269131 2.029928,-1.037874 1.495679,-9.667536 1.290805,9.699166 1.825048,0.916769 6.180413,1.638893 0.481799,0.646103 C 19.373918,38.186875 17.260232,38.348632 8.2876526,38.259334 Z"
       sodipodi:nodetypes="cccccccccc" />
  </g>
</svg>
