<?xml version="1.0" encoding="UTF-8" standalone="no"?>
<!-- Created with Inkscape (http://www.inkscape.org/) -->

<svg
   width="6.2514644mm"
   height="7mm"
   viewBox="0 0 6.2514644 6.9999999"
   version="1.1"
   id="svg1"
   inkscape:version="1.4.2 (ebf0e94, 2025-05-08)"
   sodipodi:docname="icon-coin.svg"
   xmlns:inkscape="http://www.inkscape.org/namespaces/inkscape"
   xmlns:sodipodi="http://sodipodi.sourceforge.net/DTD/sodipodi-0.dtd"
   xmlns="http://www.w3.org/2000/svg"
   xmlns:svg="http://www.w3.org/2000/svg">
  <sodipodi:namedview
     id="namedview1"
     pagecolor="#ffffff"
     bordercolor="#000000"
     borderopacity="0.25"
     inkscape:showpageshadow="2"
     inkscape:pageopacity="0.0"
     inkscape:pagecheckerboard="0"
     inkscape:deskcolor="#d1d1d1"
     inkscape:document-units="mm"
     inkscape:zoom="17.104167"
     inkscape:cx="11.196102"
     inkscape:cy="19.556638"
     inkscape:window-width="1609"
     inkscape:window-height="909"
     inkscape:window-x="295"
     inkscape:window-y="84"
     inkscape:window-maximized="0"
     inkscape:current-layer="layer1"
     showgrid="false" />
  <defs
     id="defs1" />
  <g
     inkscape:label="Layer 1"
     inkscape:groupmode="layer"
     id="layer1"
     transform="matrix(1.6724016,0,0,1.6724016,-0.7657521,-0.83890779)">
    <path
       id="path1-3-6"
       style="display:inline;fill:#d80000;fill-opacity:1;stroke-width:0.181625"
       d="M 2.3396574,0.50161862 A 1.8690081,2.0927987 0 0 0 0.45818472,2.5657076 1.8690081,2.0927987 0 0 0 2.2886732,4.6866517 1.8690081,2.0927987 0 0 0 4.1951745,2.6516083 l 6.18e-4,-0.057164 A 1.8690081,2.0927987 0 0 0 2.3396574,0.50161862 Z m -0.00216,0.0472763 A 1.7848406,2.0035884 0 0 1 4.1102008,2.5524208 l -6.18e-4,0.054692 A 1.7848406,2.0035884 0 0 1 2.2889822,4.5556377 1.7848406,2.0035884 0 0 1 0.54068648,2.5252292 1.7848406,2.0035884 0 0 1 2.3374945,0.54889491 Z" />
    <path
       id="rect1-0"
       style="fill:#cc0400;fill-opacity:1;stroke-width:0.220001"
       d="M 2.5135043 -1.8797655 L 2.5135591 -1.876874 L 3.7541352 -0.76418121 L 4.8549155 -1.8452129 L 4.8549148 -1.879838 L 2.5135043 -1.8797655 z M 2.513544 -1.8757536 L 2.5135116 0.51272659 L 4.8549221 0.51265412 L 4.8549248 -1.8389601 L 3.7965842 -0.60080854 L 2.5311072 0.50488598 L 3.6593822 -0.66913803 L 2.513544 -1.8757536 z "
       transform="matrix(0.53010564,0.84793161,-0.54437768,0.83884024,0,0)" />
  </g>
</svg>
