<?xml version="1.0" encoding="UTF-8" standalone="no"?>
<svg
   width="25mm"
   height="10mm"
   version="1.1"
   id="svg8"
   sodipodi:docname="icon-body.svg"
   inkscape:version="1.4 (86a8ad7, 2024-10-11)"
   viewBox="0 0 387.09877 154.83951"
   xmlns:inkscape="http://www.inkscape.org/namespaces/inkscape"
   xmlns:sodipodi="http://sodipodi.sourceforge.net/DTD/sodipodi-0.dtd"
   xmlns="http://www.w3.org/2000/svg"
   xmlns:svg="http://www.w3.org/2000/svg">
  <defs
     id="defs8" />
  <sodipodi:namedview
     id="namedview8"
     pagecolor="#ffffff"
     bordercolor="#000000"
     borderopacity="0.25"
     inkscape:showpageshadow="2"
     inkscape:pageopacity="0.0"
     inkscape:pagecheckerboard="0"
     inkscape:deskcolor="#d1d1d1"
     inkscape:zoom="2.2900976"
     inkscape:cx="23.798112"
     inkscape:cy="122.26553"
     inkscape:window-width="1350"
     inkscape:window-height="1040"
     inkscape:window-x="325"
     inkscape:window-y="0"
     inkscape:window-maximized="0"
     inkscape:current-layer="svg8"
     inkscape:document-units="mm" />
  <g
     id="body"
     transform="matrix(0.52534785,0,0,0.52534785,-337.63024,96.039541)"
     inkscape:label="body">
    <path
       fill="#37b2df"
       d="m 858.77252,-88.874237 c 8.05919,0.366653 9.80694,-0.08878 17.67714,0.09396 0.26718,2.601107 0.36797,5.158622 1.02178,7.708938 0.24077,0.939514 0.54382,1.958888 1.09963,2.763618 l 17.68142,5.008774 4.42588,1.155764 c 2.13409,0.515821 4.21724,0.946583 6.14227,2.061563 2.41687,1.399742 4.32243,3.620751 5.59125,6.086402 1.9545,3.798209 1.97303,8.14557 2.59618,12.286147 l -12.19989,5.556583 -1.57013,0.749401 c -0.32557,0.139995 -0.70594,0.242649 -1.00124,0.432763 l -0.65528,3.991389 -1.45801,6.20533 -2.63658,8.949904 -3.54382,10.549893 c -2.18528,7.2842982 -2.76843,15.05296047 -1.35162,22.5416518 0.96966,5.1248892 2.85923,10.0111322 4.43135,14.9667092 -0.14811,0.215977 -0.62046,0.398637 -0.86218,0.522618 -1.2223,0.623954 -2.49606,1.139906 -3.79461,1.582533 -7.81,2.661102 -15.79478,3.583689 -24.01833,3.427707 -8.98536,-0.170654 -17.97539,-1.663856 -26.09882,-5.655505 0.54782,-1.058582 0.97098,-2.231814 1.38721,-3.350392 l 2.07929,-6.308785 c 0.99152,-3.3530497 1.83704,-6.7660763 2.14608,-10.2577779 0.96526,-10.9057258 -3.64967,-21.1268431 -7.05592,-31.1893141 -1.45134,-4.28697 -2.54991,-8.793513 -3.5297,-13.209936 l -0.40009,-2.626702 c -1.83278,-0.661942 -3.6197,-1.727047 -5.37714,-2.577375 l -9.23961,-4.474149 0.77153,-5.713247 c 0.94046,-5.590978 3.4841,-10.821994 8.97458,-13.114728 2.4735,-1.032985 5.31447,-1.59213 7.9069,-2.277141 l 12.47386,-3.518901 3.68929,-1.100972 c 0.88618,-0.266774 1.93916,-0.49702 2.69297,-1.032976 1.60546,-3.096398 1.90556,-6.799682 2.00436,-10.233787 z"
       id="path5"
       sodipodi:nodetypes="ccccccccccccccccccccccccscccccccccccc"
       style="fill:none;stroke:#000000;stroke-width:2.32377;stroke-dasharray:none;stroke-opacity:1" />
    <path
       fill="#26A4D4"
       d="m 867.70966,-21.526539 0.0692,0.05849 0.0487,37.972961 -0.0896,0.179632 c -0.1345,-1.02215 -0.0982,-2.124484 -0.12584,-3.157324 l -0.15931,-4.1142518 -0.26462,-12.4165133 0.24398,-9.7915479 0.16369,-6.583755 c 0.0328,-0.718174 -0.0168,-1.437105 0.11377,-2.147687 z"
       id="path6"
       style="fill:#6f838b;fill-opacity:1;stroke-width:0.106919" />
    <path
       fill="#26A4D4"
       d="m 900.16368,-52.849167 c -0.16014,1.305391 -0.49197,2.611573 -0.8076,3.887091 -0.32743,1.323319 -0.67187,2.711689 -1.20778,3.968086 -0.43607,1.021901 -1.06545,2.009275 -1.62115,2.972215 -1.70919,2.961593 -3.43378,5.771282 -5.93182,8.149553 -3.34892,3.188391 -7.50078,4.757486 -12.11817,4.651391 l -0.074,-0.0434 -0.017,-0.08417 0.88526,-0.242326 c 4.91789,-1.318533 9.18527,-4.397642 12.30885,-8.388439 2.21588,-2.831067 3.94406,-6.055168 5.61845,-9.225094 z"
       id="path7"
       style="fill:#768084;fill-opacity:1;stroke-width:0.132784" />
    <path
       fill="#26A4D4"
       d="m 833.56749,-54.187229 c 0.28451,0.337309 0.44595,1.094043 0.61155,1.516942 l 1.26176,3.0192 c 0.89871,2.009433 1.83836,4.004057 2.93267,5.915762 3.23453,5.650045 7.62335,11.484738 14.05746,13.632694 0.95738,0.319574 2.01729,0.602478 3.0172,0.742604 0.8618,0.120655 1.74185,0.141052 2.58378,0.369429 l -1.33948,0.09772 c -5.0137,0.234645 -10.03047,-1.571867 -13.74042,-4.94091 -3.5001,-3.178391 -5.6959,-7.360169 -7.35617,-11.726188 -1.03044,-2.710168 -1.8937,-5.718173 -2.02835,-8.627261 z"
       id="path8"
       style="fill:#6c858e;fill-opacity:1;stroke-width:0.133322" />
    <text
       xml:space="preserve"
       style="font-style:normal;font-variant:normal;font-weight:normal;font-stretch:normal;font-size:134.119px;font-family:Amiri;-inkscape-font-specification:'Amiri, Normal';font-variant-ligatures:normal;font-variant-caps:normal;font-variant-numeric:normal;font-variant-east-asian:normal;fill:#000000;fill-opacity:1;stroke:none;stroke-width:0.243793;stroke-dasharray:none;stroke-opacity:1;paint-order:markers fill stroke"
       x="927.79181"
       y="7.6085768"
       id="text1"><tspan
         sodipodi:role="line"
         id="tspan1"
         style="font-style:normal;font-variant:normal;font-weight:normal;font-stretch:normal;font-size:134.119px;font-family:Amiri;-inkscape-font-specification:'Amiri, Normal';font-variant-ligatures:normal;font-variant-caps:normal;font-variant-numeric:normal;font-variant-east-asian:normal;fill:#000000;fill-opacity:1;stroke:none;stroke-width:0.243796"
         x="927.79181"
         y="7.6085768">Body</tspan></text>
    <path
       id="rect1"
       d="m 858.03424,-30.987439 h 19.44948 l -5.81424,1.436759 -0.54423,14.049122 -7.8546,-0.07168 -0.0919,-13.977373 z"
       sodipodi:nodetypes="ccccccc"
       style="stroke-width:2.8009" />
    <path
       style="fill:#000000;fill-opacity:1;stroke-width:2.32949"
       id="path2-6-0"
       sodipodi:type="arc"
       sodipodi:cx="867.41406"
       sodipodi:cy="-57.452061"
       sodipodi:rx="9.4654808"
       sodipodi:ry="9.4654808"
       sodipodi:start="0.027304543"
       sodipodi:end="6.2831853"
       sodipodi:open="true"
       sodipodi:arc-type="arc"
       d="m 876.87602,-57.193642 a 9.4654808,9.4654808 0 0 1 -9.65578,9.205077 9.4654808,9.4654808 0 0 1 -9.27078,-9.592717 9.4654808,9.4654808 0 0 1 9.52921,-9.336039 9.4654808,9.4654808 0 0 1 9.40087,9.46526" />
    <path
       style="fill:#000000;fill-opacity:1;stroke-width:2.32949"
       id="path2-6-0-7"
       sodipodi:type="arc"
       sodipodi:cx="858.04773"
       sodipodi:cy="-40.737667"
       sodipodi:rx="9.4654808"
       sodipodi:ry="9.4654808"
       sodipodi:start="0.027304543"
       sodipodi:end="6.2831853"
       sodipodi:open="true"
       sodipodi:arc-type="arc"
       d="m 867.50968,-40.479249 a 9.4654808,9.4654808 0 0 1 -9.65577,9.205078 9.4654808,9.4654808 0 0 1 -9.27078,-9.592717 9.4654808,9.4654808 0 0 1 9.52921,-9.336039 9.4654808,9.4654808 0 0 1 9.40087,9.46526" />
    <path
       style="fill:#000000;fill-opacity:1;stroke-width:2.32949"
       id="path2-6-0-9"
       sodipodi:type="arc"
       sodipodi:cx="876.98291"
       sodipodi:cy="-40.737667"
       sodipodi:rx="9.4654808"
       sodipodi:ry="9.4654808"
       sodipodi:start="0.027304543"
       sodipodi:end="6.2831853"
       sodipodi:open="true"
       sodipodi:arc-type="arc"
       d="m 886.44486,-40.479249 a 9.4654808,9.4654808 0 0 1 -9.65577,9.205078 9.4654808,9.4654808 0 0 1 -9.27078,-9.592717 9.4654808,9.4654808 0 0 1 9.52921,-9.336039 9.4654808,9.4654808 0 0 1 9.40087,9.46526" />
    <path
       sodipodi:type="star"
       style="fill:#000000"
       id="path1"
       inkscape:flatsided="false"
       sodipodi:sides="3"
       sodipodi:cx="-4.2679658"
       sodipodi:cy="5.2618756"
       sodipodi:r1="0.76004869"
       sodipodi:r2="0.33594152"
       sodipodi:arg1="1.5707963"
       sodipodi:arg2="2.6179939"
       inkscape:rounded="0"
       inkscape:randomized="0"
       d="m -4.2679658,6.0219243 -0.2909339,-0.5920779 -0.3672876,-0.5479951 0.6582215,0.044083 0.6582215,-0.044083 -0.3672876,0.5479951 z"
       inkscape:transform-center-y="0.23284431"
       transform="matrix(5.0202848,0,0,5.0202848,888.71436,-103.93239)" />
    <path
       sodipodi:type="star"
       style="fill:#000000"
       id="path1-7"
       inkscape:flatsided="false"
       sodipodi:sides="3"
       sodipodi:cx="-4.2679658"
       sodipodi:cy="5.2618756"
       sodipodi:r1="0.76004869"
       sodipodi:r2="0.33594152"
       sodipodi:arg1="1.5707963"
       sodipodi:arg2="2.6179939"
       inkscape:rounded="0"
       inkscape:randomized="0"
       d="m -4.2679658,6.0219243 -0.2909339,-0.5920779 -0.3672876,-0.5479951 0.6582215,0.044083 0.6582215,-0.044083 -0.3672876,0.5479951 z"
       inkscape:transform-center-y="-0.21929518"
       transform="matrix(2.3640855,4.4288099,-4.4288099,2.3640855,900.34165,-62.707035)"
       inkscape:transform-center-x="0.015494775" />
    <path
       sodipodi:type="star"
       style="fill:#000000"
       id="path1-9"
       inkscape:flatsided="false"
       sodipodi:sides="3"
       sodipodi:cx="-4.2679658"
       sodipodi:cy="5.2618756"
       sodipodi:r1="0.76004869"
       sodipodi:r2="0.33594152"
       sodipodi:arg1="1.5707963"
       sodipodi:arg2="2.6179939"
       inkscape:rounded="0"
       inkscape:randomized="0"
       d="m -4.2679658,6.0219243 -0.2909339,-0.5920779 -0.3672876,-0.5479951 0.6582215,0.044083 0.6582215,-0.044083 -0.3672876,0.5479951 z"
       inkscape:transform-center-y="0.0053040322"
       transform="matrix(-0.05717095,-5.0199598,5.0199598,-0.05717095,836.76742,-94.402881)"
       inkscape:transform-center-x="-0.22823685" />
    <path
       sodipodi:type="star"
       style="fill:#000000"
       id="path1-5"
       inkscape:flatsided="false"
       sodipodi:sides="3"
       sodipodi:cx="-4.2679658"
       sodipodi:cy="5.2618756"
       sodipodi:r1="0.76004869"
       sodipodi:r2="0.33594152"
       sodipodi:arg1="1.5707963"
       sodipodi:arg2="2.6179939"
       inkscape:rounded="0"
       inkscape:randomized="0"
       d="m -4.2679658,6.0219243 -0.2909339,-0.5920779 -0.3672876,-0.5479951 0.6582215,0.044083 0.6582215,-0.044083 -0.3672876,0.5479951 z"
       inkscape:transform-center-y="0.027302655"
       transform="matrix(-0.29432621,5.0116498,-5.0116498,-0.29432621,895.87813,-50.016353)"
       inkscape:transform-center-x="0.20880535" />
  </g>
</svg>
