<?xml version="1.0" encoding="UTF-8" standalone="no"?>
<!-- Created with Inkscape (http://www.inkscape.org/) -->

<svg
   width="6mm"
   height="6mm"
   viewBox="0 0 22.677165 22.677165"
   version="1.1"
   id="svg1"
   sodipodi:docname="icon-cup.svg"
   inkscape:version="1.3.2 (091e20e, 2023-11-25, custom)"
   xmlns:inkscape="http://www.inkscape.org/namespaces/inkscape"
   xmlns:sodipodi="http://sodipodi.sourceforge.net/DTD/sodipodi-0.dtd"
   xmlns="http://www.w3.org/2000/svg"
   xmlns:svg="http://www.w3.org/2000/svg">
  <sodipodi:namedview
     id="namedview1"
     pagecolor="#ffffff"
     bordercolor="#000000"
     borderopacity="0.25"
     inkscape:showpageshadow="2"
     inkscape:pageopacity="0.0"
     inkscape:pagecheckerboard="0"
     inkscape:deskcolor="#d1d1d1"
     inkscape:document-units="mm"
     inkscape:zoom="17.104167"
     inkscape:cx="12.657735"
     inkscape:cy="8.0097443"
     inkscape:window-width="1350"
     inkscape:window-height="1040"
     inkscape:window-x="600"
     inkscape:window-y="-6"
     inkscape:window-maximized="0"
     inkscape:current-layer="layer1" />
  <defs
     id="defs1" />
  <g
     inkscape:label="Layer 1"
     inkscape:groupmode="layer"
     id="layer1">
    <path
       fill="#af1613"
       d="m 11.746861,2.9237307 c 0.764108,-0.9291927 1.829836,-1.594708 3.04457,-1.714917 1.196341,-0.1183857 2.360599,0.233768 3.288413,0.9990727 0.958723,0.7908338 1.548234,1.9416506 1.662624,3.1750596 0.110741,1.1938877 -0.267839,2.4252277 -1.035921,3.3465939 l -6.946951,7.0018281 -4.5739403,-4.635773 1.0819092,0.004 3.4832511,3.559255 c 0.07292,-0.05292 0.138176,-0.131405 0.201931,-0.195281 l 0.357913,-0.358665 1.268025,-1.264697 3.020154,-3.0192827 0.906947,-0.9054065 C 17.836587,8.5843249 18.167833,8.2698692 18.422369,7.873164 18.983531,6.9985597 19.133183,5.9543275 18.914098,4.9453777 18.693024,3.9272041 18.097813,3.0549924 17.219335,2.492147 16.430467,1.9867096 15.44269,1.7723271 14.520917,1.9785172 13.291341,2.2535514 12.411889,3.0544453 11.756879,4.093628 l -0.02387,-0.011025 z"
       id="path2"
       style="stroke-width:0.0202784" />
    <path
       fill="#e7342a"
       d="M 7.1856557,11.095595 4.8950952,8.7522523 C 4.0995357,7.8835282 3.7137605,6.7093309 3.7688781,5.539819 3.8249479,4.3498866 4.3488168,3.1748992 5.2338859,2.370903 6.1229293,1.5633387 7.2719591,1.1425637 8.4731057,1.203621 c 0.9896437,0.050291 1.9803023,0.453687 2.7152293,1.120034 0.133391,0.1209196 0.26372,0.2476392 0.382712,0.3828552 0.05958,0.067711 0.108773,0.1441172 0.169527,0.2104679 l 0.0063,0.00675 -0.01385,1.1588882 0.02387,0.011025 c 0.655012,-1.0391827 1.534463,-1.8400748 2.76404,-2.1151108 0.921774,-0.2061892 1.909551,0.00822 2.69842,0.5136307 0.878474,0.5628445 1.473685,1.4350563 1.694761,2.4532317 0.219087,1.0089489 0.06943,2.053182 -0.491728,2.9277863 -0.254535,0.3967061 -0.585781,0.7111608 -0.916582,1.0423267 l -0.906947,0.9054074 -3.020156,3.0192837 -1.268026,1.264699 -0.357913,0.358661 c -0.06376,0.06388 -0.12901,0.142354 -0.20193,0.195285 L 8.2675627,11.099581 Z"
       id="path3"
       style="stroke-width:0.0202784" />
    <path
       fill="#ef957e"
       d="m 6.3141327,9.1030263 -0.011619,-0.00462 C 6.2622003,9.0780655 6.2221503,9.0341231 6.1883864,9.0033635 L 5.9223963,8.7461327 C 5.7684021,8.5969041 5.6027687,8.4572264 5.4562376,8.3006778 5.109336,7.9301524 4.8385798,7.4476695 4.6753595,6.9682898 4.3546579,6.0262803 4.4160603,4.9508393 4.8608655,4.0578226 5.3070703,3.1620261 6.1049618,2.4503172 7.0566242,2.1312787 7.969473,1.8252576 8.9697428,1.8943059 9.8338635,2.3241863 c 0.6834005,0.3399876 1.1645445,0.8367853 1.6031855,1.4516453 0.06503,0.091175 0.186783,0.2204457 0.221378,0.3234391 l -0.0099,-0.00675 C 11.462379,3.9630872 11.298915,3.8121961 11.10406,3.6922708 10.312454,3.2050628 9.3534304,3.0373193 8.4403378,3.195572 7.4893244,3.3603943 6.661097,3.910141 6.1097692,4.6975684 5.5642418,5.4767231 5.3473646,6.5166562 5.5152291,7.4503522 5.6210208,8.0388708 5.8920407,8.6698309 6.314134,9.1030771 Z"
       id="path4"
       style="stroke-width:0.0202784" />
    <path
       id="path1"
       style="fill:#af1613;fill-opacity:1;stroke:none;stroke-width:0.254002;paint-order:markers fill stroke"
       inkscape:transform-center-x="0.052989315"
       inkscape:transform-center-y="-4.4962255"
       d="M 6.8342007,21.275077 11.765731,15.151278"
       sodipodi:nodetypes="cc" />
    <rect
       style="fill:#ef957e;fill-opacity:1;stroke:none;stroke-width:0.148798;paint-order:markers fill stroke"
       id="rect1"
       width="15.94253"
       height="0.65969068"
       x="3.8072884"
       y="4.6987095" />
    <path
       id="path5"
       style="fill:#af1613;stroke-width:0.156953;paint-order:markers fill stroke"
       inkscape:transform-center-x="-0.02726417"
       inkscape:transform-center-y="-1.7448446"
       d="m 6.2760003,21.774195 0.6872143,-0.450333 2.8628951,-0.70479 1.1272853,-0.576365 0.8306,-5.3687 0.716826,5.386265 1.013509,0.509112 3.432186,0.910131 0.267559,0.358802 c -4.781508,-0.104359 -5.955307,-0.01453 -10.9380747,-0.06412 z"
       sodipodi:nodetypes="cccccccccc" />
  </g>
</svg>
