<?xml version="1.0" encoding="UTF-8" standalone="no"?>
<!-- Created with Inkscape (http://www.inkscape.org/) -->

<svg
   width="6.4469233mm"
   height="5.4410534mm"
   viewBox="0 0 6.4469233 5.4410534"
   version="1.1"
   id="svg1"
   inkscape:version="1.4.2 (ebf0e94, 2025-05-08)"
   sodipodi:docname="icon-jester-red.svg"
   xmlns:inkscape="http://www.inkscape.org/namespaces/inkscape"
   xmlns:sodipodi="http://sodipodi.sourceforge.net/DTD/sodipodi-0.dtd"
   xmlns="http://www.w3.org/2000/svg"
   xmlns:svg="http://www.w3.org/2000/svg">
  <sodipodi:namedview
     id="namedview1"
     pagecolor="#ffffff"
     bordercolor="#000000"
     borderopacity="0.25"
     inkscape:showpageshadow="2"
     inkscape:pageopacity="0.0"
     inkscape:pagecheckerboard="0"
     inkscape:deskcolor="#d1d1d1"
     inkscape:document-units="mm"
     inkscape:zoom="11.702245"
     inkscape:cx="16.535289"
     inkscape:cy="32.258769"
     inkscape:window-width="1920"
     inkscape:window-height="1009"
     inkscape:window-x="-8"
     inkscape:window-y="-8"
     inkscape:window-maximized="1"
     inkscape:current-layer="layer1" />
  <defs
     id="defs1" />
  <g
     inkscape:label="Layer 1"
     inkscape:groupmode="layer"
     id="layer1"
     transform="matrix(1.3316,0,0,1.3315211,-0.88153276,-1.1874449)">
    <path
       id="path1"
       style="fill:#cc0400;fill-opacity:1;stroke-width:0.584405"
       inkscape:transform-center-x="-0.10497987"
       inkscape:transform-center-y="-0.38394627"
       d="M 4.2493948,4.9781398 C 4.4252417,4.9699577 2.6586658,4.9851166 2.0008922,4.9630904 2.4989108,3.4079619 2.33485,3.92404 2.247636,3.4087523 2.1930891,3.0864726 1.7650791,3.1301541 0.66201018,3.7623511 0.95472383,3.0323546 1.1752903,2.8228155 1.6785535,2.7218378 2.3308713,2.5909529 2.7455963,3.2784238 2.5943248,3.1436295 2.2703525,2.8549457 2.7284836,2.4885033 2.4566982,1.8871643 2.2042227,1.3285491 2.4463706,1.3059877 1.2657343,1.2542891 2.1399467,0.45746682 2.8145937,1.1726793 3.0689801,1.5186024 3.6090853,2.2530558 3.3107827,2.6088257 3.6516699,2.3333099 4.0040816,2.0484799 4.0821771,2.0553587 4.4271283,2.0175604 4.8879515,1.9670652 4.8551785,1.788889 5.5034964,2.7313903 4.6769372,2.2740855 4.5777466,2.3650502 4.2401123,2.5839419 3.350593,3.1606259 3.5845849,3.4658348 4.2493948,4.9781398 Z"
       sodipodi:nodetypes="ccscssscssscsc" />
    <path
       style="fill:#cc0400;fill-opacity:1;stroke-width:0.315932"
       id="path2"
       sodipodi:type="arc"
       sodipodi:cx="5.2074709"
       sodipodi:cy="3.1718788"
       sodipodi:rx="0.26726365"
       sodipodi:ry="0.26726365"
       sodipodi:start="0.027304543"
       sodipodi:end="6.2831853"
       sodipodi:open="true"
       sodipodi:arc-type="arc"
       d="M 5.4746349,3.1791754 A 0.26726365,0.26726365 0 0 1 5.2019981,3.4390864 0.26726365,0.26726365 0 0 1 4.9402321,3.1682302 0.26726365,0.26726365 0 0 1 5.2092953,2.9046214 0.26726365,0.26726365 0 0 1 5.4747345,3.1718788"
       inkscape:transform-center-x="0.028133034" />
    <path
       style="fill:#cc0400;fill-opacity:1;stroke-width:0.315932"
       id="path2-4"
       sodipodi:type="arc"
       sodipodi:cx="0.9674589"
       sodipodi:cy="4.0491705"
       sodipodi:rx="0.26726365"
       sodipodi:ry="0.26726365"
       sodipodi:start="0.027304543"
       sodipodi:end="6.2831853"
       sodipodi:open="true"
       sodipodi:arc-type="arc"
       d="M 1.2346229,4.0564671 A 0.26726365,0.26726365 0 0 1 0.96198615,4.3163781 0.26726365,0.26726365 0 0 1 0.70022016,4.0455219 0.26726365,0.26726365 0 0 1 0.96928327,3.7819131 0.26726365,0.26726365 0 0 1 1.2347226,4.0491705" />
    <path
       style="fill:#cc0400;fill-opacity:1;stroke-width:0.282677"
       id="path2-5"
       sodipodi:type="arc"
       sodipodi:cx="1.2276572"
       sodipodi:cy="1.5692"
       sodipodi:rx="0.23913063"
       sodipodi:ry="0.23913063"
       sodipodi:start="0.027304543"
       sodipodi:end="6.2831853"
       sodipodi:open="true"
       sodipodi:arc-type="arc"
       d="M 1.4666987,1.5757286 A 0.23913063,0.23913063 0 0 1 1.2227605,1.8082805 0.23913063,0.23913063 0 0 1 0.98854885,1.5659355 0.23913063,0.23913063 0 0 1 1.2292895,1.330075 0.23913063,0.23913063 0 0 1 1.4667878,1.5692" />
  </g>
</svg>
