<?xml version="1.0" encoding="UTF-8" standalone="no"?>
<!-- Created with Inkscape (http://www.inkscape.org/) -->

<svg
   width="6.1999998mm"
   height="7mm"
   viewBox="0 0 6.1999999 7"
   version="1.1"
   id="svg1"
   inkscape:version="1.4.2 (ebf0e94, 2025-05-08)"
   sodipodi:docname="icon-jester-black.svg"
   xmlns:inkscape="http://www.inkscape.org/namespaces/inkscape"
   xmlns:sodipodi="http://sodipodi.sourceforge.net/DTD/sodipodi-0.dtd"
   xmlns="http://www.w3.org/2000/svg"
   xmlns:svg="http://www.w3.org/2000/svg">
  <sodipodi:namedview
     id="namedview1"
     pagecolor="#ffffff"
     bordercolor="#000000"
     borderopacity="0.25"
     inkscape:showpageshadow="2"
     inkscape:pageopacity="0.0"
     inkscape:pagecheckerboard="0"
     inkscape:deskcolor="#d1d1d1"
     inkscape:document-units="mm"
     inkscape:zoom="4.1373684"
     inkscape:cx="79.881695"
     inkscape:cy="66.104822"
     inkscape:window-width="1920"
     inkscape:window-height="1009"
     inkscape:window-x="-8"
     inkscape:window-y="-8"
     inkscape:window-maximized="1"
     inkscape:current-layer="layer1" />
  <defs
     id="defs1" />
  <g
     inkscape:label="Layer 1"
     inkscape:groupmode="layer"
     id="layer1"
     transform="matrix(1.7131242,0,0,1.7130227,-1.1341057,-1.5276664)">
    <path
       id="path1"
       style="fill:#000000;fill-opacity:1;stroke-width:0.505842"
       inkscape:transform-center-x="-0.078651782"
       inkscape:transform-center-y="-0.38394627"
       d="M 1.4671431,4.9630904 C 1.9854394,3.5663459 2.0077005,3.72606 1.8499738,3.3559577 1.7226125,3.0571071 1.2112826,3.1301541 0.66201018,3.7623511 0.88131361,3.0323546 1.0465638,2.8228155 1.4236126,2.7218378 1.9123344,2.5909529 2.1063515,3.1346857 2.096518,2.9588481 2.0781594,2.6305683 2.1943823,2.3684757 2.0439342,1.8591657 1.8263276,1.1225054 1.7065241,1.4090378 1.0879294,1.980216 1.5268292,0.00130396 2.590233,1.2296038 2.7079716,1.6679283 2.8272602,2.1120232 2.807011,2.5321949 2.941481,2.3597072 3.1801427,2.0535703 3.3080127,1.9688306 3.5356586,1.9251697 3.8759009,1.8599135 4.0939192,2.0132664 4.2892907,2.7313903 3.8415984,2.1684961 3.700749,2.3290643 3.3295552,2.5443459 2.8453619,2.8251639 3.1287824,3.5582255 3.7588376,4.9781398 c 0,0 -1.4293443,-0.00622 -2.2916945,-0.015049 z"
       sodipodi:nodetypes="cscssscssscscc" />
    <path
       style="fill:#000000;fill-opacity:1;stroke-width:0.315932"
       id="path2"
       sodipodi:type="arc"
       sodipodi:cx="4.0064631"
       sodipodi:cy="2.9607"
       sodipodi:rx="0.26726365"
       sodipodi:ry="0.26726365"
       sodipodi:start="0.027304543"
       sodipodi:end="6.2831853"
       sodipodi:open="true"
       sodipodi:arc-type="arc"
       d="M 4.2736271,2.9679966 A 0.26726365,0.26726365 0 0 1 4.0009903,3.2279076 0.26726365,0.26726365 0 0 1 3.7392243,2.9570514 0.26726365,0.26726365 0 0 1 4.0082874,2.6934426 0.26726365,0.26726365 0 0 1 4.2737267,2.9607"
       inkscape:transform-center-x="0.028133034" />
    <path
       style="fill:#000000;fill-opacity:1;stroke-width:0.315932"
       id="path2-4"
       sodipodi:type="arc"
       sodipodi:cx="0.94106311"
       sodipodi:cy="3.95678"
       sodipodi:rx="0.26726365"
       sodipodi:ry="0.26726365"
       sodipodi:start="0.027304543"
       sodipodi:end="6.2831853"
       sodipodi:open="true"
       sodipodi:arc-type="arc"
       d="M 1.2082271,3.9640766 A 0.26726365,0.26726365 0 0 1 0.93559036,4.2239876 0.26726365,0.26726365 0 0 1 0.67382436,3.9531313 0.26726365,0.26726365 0 0 1 0.94288747,3.6895225 0.26726365,0.26726365 0 0 1 1.2083268,3.95678" />
    <path
       style="fill:#000000;fill-opacity:1;stroke-width:0.282677"
       id="path2-5"
       sodipodi:type="arc"
       sodipodi:cx="1.2804488"
       sodipodi:cy="2.2291334"
       sodipodi:rx="0.23913063"
       sodipodi:ry="0.23913063"
       sodipodi:start="0.027304543"
       sodipodi:end="6.2831853"
       sodipodi:open="true"
       sodipodi:arc-type="arc"
       d="M 1.5194903,2.2356619 A 0.23913063,0.23913063 0 0 1 1.2755521,2.4682139 0.23913063,0.23913063 0 0 1 1.0413404,2.2258688 0.23913063,0.23913063 0 0 1 1.2820811,1.9900083 0.23913063,0.23913063 0 0 1 1.5195794,2.2291334" />
  </g>
</svg>
