<?xml version="1.0" encoding="UTF-8" standalone="no"?>
<!-- Created with Inkscape (http://www.inkscape.org/) -->

<svg
   width="25mm"
   height="10mm"
   viewBox="0 0 25 10"
   version="1.1"
   id="svg1"
   inkscape:version="1.3.2 (091e20e, 2023-11-25, custom)"
   sodipodi:docname="icon-move.svg"
   xmlns:inkscape="http://www.inkscape.org/namespaces/inkscape"
   xmlns:sodipodi="http://sodipodi.sourceforge.net/DTD/sodipodi-0.dtd"
   xmlns="http://www.w3.org/2000/svg"
   xmlns:svg="http://www.w3.org/2000/svg">
  <sodipodi:namedview
     id="namedview1"
     pagecolor="#ffffff"
     bordercolor="#000000"
     borderopacity="0.25"
     inkscape:showpageshadow="2"
     inkscape:pageopacity="0.0"
     inkscape:pagecheckerboard="0"
     inkscape:deskcolor="#d1d1d1"
     inkscape:document-units="mm"
     inkscape:zoom="5.8511224"
     inkscape:cx="27.430635"
     inkscape:cy="45.205002"
     inkscape:window-width="1920"
     inkscape:window-height="1017"
     inkscape:window-x="-8"
     inkscape:window-y="-8"
     inkscape:window-maximized="1"
     inkscape:current-layer="layer1" />
  <defs
     id="defs1" />
  <g
     inkscape:label="Layer 1"
     inkscape:groupmode="layer"
     id="layer1">
    <path
       fill="#fdbc1e"
       d="m 91.4713,2.5239825 c 0.255588,0.2595562 0.3302,0.3825875 0.712523,0.4206875 0.497946,0.049742 0.826823,-0.056621 1.337469,0.1008062 -1.017323,0.043921 -1.916377,0.1547813 -2.798498,0.7283979 -1.153583,0.7500938 -1.956064,1.8306521 -2.207154,3.190875 l -0.0291,0.1709208 -0.119856,-0.00423 c -0.06165,-0.3466042 -0.09948,-0.6614583 -0.04207,-1.0125604 0.212196,-1.2959292 0.9144,-2.3913042 2.028296,-3.1009167 0.346604,-0.220927 0.732102,-0.3593041 1.118393,-0.493977 z"
       id="path2-8"
       style="stroke-width:0.264583" />
    <g
       id="move"
       inkscape:label="move">
      <text
         xml:space="preserve"
         style="font-style:normal;font-variant:normal;font-weight:normal;font-stretch:normal;font-size:9.56758px;font-family:Gabriola;-inkscape-font-specification:'Gabriola, Normal';font-variant-ligatures:normal;font-variant-caps:normal;font-variant-numeric:normal;font-variant-east-asian:normal;fill:#000000;fill-opacity:1;stroke:none;stroke-width:0.0173914;stroke-dasharray:none;stroke-opacity:1;paint-order:markers fill stroke"
         x="8.5526972"
         y="7.5658994"
         id="text1"><tspan
           sodipodi:role="line"
           id="tspan1"
           x="8.5526972"
           y="7.5658994">Move</tspan></text>
      <path
         fill="#fefefe"
         d="m 2.7978912,5.5495729 0.01389,0.00336 c 0.110901,0.2430924 0.225471,0.2392923 0.386457,0.4747787 -0.505273,-0.00697 -0.755588,-0.070308 -1.211736,-0.2773078 -0.08716,-0.00568 -0.307196,-0.2011166 -0.352075,-0.2368187 -0.09332,-0.074229 -0.176389,-0.1509654 -0.257522,-0.2319156 0.182344,0.057349 0.370591,0.098718 0.555824,0.1361655 0.28906,0.058471 0.577545,0.1043964 0.865177,0.1316763 z"
         id="path2-5-1"
         style="stroke:#000000;stroke-width:0.15;stroke-dasharray:none;stroke-opacity:1"
         sodipodi:nodetypes="ccccccccc" />
      <path
         fill="#fefefe"
         d="m 2.5949602,4.8484334 c 0.01072,0.00243 0.02088,0.00397 0.03065,0.0092 0.01233,0.096396 0.03123,0.1898508 0.06547,0.2810155 l 0.04465,0.1064851 c 0.0073,0.016467 0.02022,0.038163 0.02264,0.055817 C 2.5397012,5.38612 2.3782372,5.335695 2.1856512,5.238754 1.8729552,5.0549799 1.6028082,4.7591562 1.4756082,4.4168243 c 0.242295,0.1832762 0.532139,0.277683 0.821961,0.3570284 z"
         id="path3-9"
         style="stroke:#000000;stroke-width:0.15;stroke-dasharray:none;stroke-opacity:1"
         sodipodi:nodetypes="ccccccccc" />
      <path
         fill="#fefefe"
         d="m 2.5243202,4.4842937 c -0.06394,-0.016826 -0.129989,-0.028197 -0.192417,-0.050536 -0.05507,-0.019701 -0.111238,-0.051276 -0.161628,-0.081102 -0.139843,-0.08277 -0.266914,-0.1866042 -0.374198,-0.3088985 -0.28499,-0.324848 -0.389779,-0.7479436 -0.362015,-1.1722203 0.09316,0.2096603 0.230451,0.3932989 0.413217,0.5341686 l 0.10203,0.071475 c 0.01817,0.011708 0.04545,0.02255 0.06025,0.037821 0.0136,0.014035 0.02493,0.031524 0.0371,0.046916 l 0.08923,0.1093364 c 0.142657,0.1593754 0.310137,0.3055261 0.492444,0.41773 l 0.0083,0.00887 c -0.0401,0.127647 -0.06728,0.2588125 -0.06842,0.392954 z"
         id="path6-5"
         style="stroke:#000000;stroke-width:0.15;stroke-dasharray:none;stroke-opacity:1" />
      <path
         fill="#fefefe"
         d="m 2.7094402,3.7763782 c -0.39157,-0.2522878 -0.728106,-0.6335393 -0.906471,-1.0656926 -0.02816,-0.068242 -0.04854,-0.1389619 -0.06846,-0.209947 -0.129794,-0.4626197 -0.09535,-0.9765983 0.08928,-1.4199793 0.01867,0.046836 0.02718,0.1015348 0.04035,0.1505062 0.02311,0.085943 0.05158,0.1683588 0.08766,0.2497734 0.0305,0.068822 0.0635,0.1383116 0.102154,0.2028681 l 0.05833,0.090742 c 0.01211,0.01767 0.03276,0.040188 0.03931,0.06049 0.01375,0.042573 0.01695,0.090918 0.02765,0.1345839 0.02157,0.088002 0.05051,0.1751013 0.07996,0.26077 0.0297,0.086394 0.06868,0.1688697 0.107953,0.2511736 l 0.09634,0.1936185 c 0.120894,0.2182589 0.268147,0.4230471 0.420479,0.6202164 l 0.01515,0.019931 c -0.0033,0.021621 -0.01765,0.045861 -0.02649,0.066155 l -0.04315,0.1059459 -0.103874,0.2939185 z"
         id="path8-0"
         style="stroke:#000000;stroke-width:0.15;stroke-dasharray:none;stroke-opacity:1" />
      <path
         fill="#fefefe"
         d="M 3.0533782,3.0114041 C 2.9572982,2.8802309 2.8597762,2.749768 2.7741222,2.6113906 2.7117622,2.5106605 2.6582802,2.4072954 2.6065492,2.3009278 2.5347992,2.1533686 2.4706412,1.9922082 2.4413612,1.8299989 c -0.0159,-0.088092 -0.02924,-0.1760261 -0.03316,-0.2655807 -0.01569,-0.3578796 0.07709,-0.72267603 0.24721,-1.03683423 0.04673,-0.086301 0.100301,-0.1669497 0.156314,-0.2473755 0.0027,0.0027 0.0015,0.020633 0.0016,0.025431 0.0014,0.164159 0.008,0.3257625 0.02743,0.4888901 0.045,0.37814963 0.139521,0.74151293 0.250245,1.10502933 l 0.211502,0.6308519 c -0.0081,0.024961 -0.02681,0.049032 -0.03986,0.071936 l -0.0472,0.090124 -0.149877,0.3225016 -0.005,0.00252 z"
         id="path9-5"
         style="stroke:#000000;stroke-width:0.15;stroke-dasharray:none;stroke-opacity:1" />
      <path
         fill="#0f0f0f"
         d="m 3.3735812,6.1766577 c 0.406073,0.5138223 0.830068,1.0105644 1.308241,1.459227 0.324991,0.3049241 0.67777,0.5924573 1.072271,0.8032537 0.512473,0.2738351 1.10545,0.4317528 1.680169,0.5000474 0.160114,0.019021 0.320812,0.024241 0.481621,0.032923 0.148296,0.00801 0.299267,0.022692 0.447613,0.010231 -0.02011,0.02526 -0.06309,0.035964 -0.09353,0.048514 -0.21986,0.090692 -0.453498,0.1452504 -0.689623,0.1720704 -0.697095,0.07917 -1.426874,-0.089625 -2.045724,-0.4110223 C 5.2546272,8.6464971 4.9961302,8.4689901 4.7499342,8.2724873 4.3659312,7.9659725 4.0153882,7.6131032 3.7002722,7.2365708 L 3.4378732,6.9128724 2.8508742,7.4560341 1.4741972,6.7856807 1.6354422,5.7712174 c 0.02462,0.013568 0.04972,0.029734 0.07644,0.03861 0.150141,0.076745 0.301295,0.1520891 0.459463,0.2111044 0.383515,0.1431269 0.480864,0.1913743 0.88744,0.1587993 z"
         id="path10-2"
         style="fill:none;fill-opacity:1;stroke:#000000;stroke-width:0.15;stroke-dasharray:none;stroke-opacity:1"
         sodipodi:nodetypes="ccccccccccccccccccc" />
      <path
         fill="#dc9308"
         d="m 5.3266762,2.0855823 0.0093,0.00226 c 0.03169,0.00723 0.07419,0.00202 0.106977,0.0014 l 0.231471,-0.00342 c 0.154606,-0.00156 0.314482,0.00708 0.468208,-0.0028 -0.408155,0.6592555 -0.637951,1.4298818 -0.616496,2.207228 0.0075,0.2748659 0.04823,0.5422931 0.111179,0.8094678 0.243538,1.0336322 0.750359,1.9541337 1.377921,2.6446332 0.781523,0.8163594 0.547833,0.5024576 1.302932,1.0945475 C 7.1993452,8.599 6.9263792,8.5656487 6.6162752,8.4299812 5.9769272,8.0303661 5.6489362,7.9849416 4.8790092,7.2407453 4.0527652,6.4421145 3.6975552,6.22064 3.3930112,5.4844526 L 3.1826702,4.2299168 C 2.9965692,2.7595989 3.4680552,2.1903559 3.4433092,2.1041777 l 1.374427,-0.016936 0.343663,0.00389 c 0.05503,-5.167e-4 0.110633,0.00132 0.165272,-0.00545 z"
         id="path11-9"
         style="fill:none;stroke:#000000;stroke-width:0.15;stroke-dasharray:none;stroke-opacity:1"
         sodipodi:nodetypes="cccccsccccsccccccc" />
      <path
         id="path2-05"
         inkscape:transform-center-x="-0.01494134"
         inkscape:transform-center-y="-3.7500871"
         d="m 3.0257692,5.8664946 c 1.315241,-0.4762473 0.90314,-0.6179586 1.399078,-3.7292408 0.525742,3.082298 0.170715,3.2708907 1.41383,3.7162228 z"
         sodipodi:nodetypes="cccc"
         style="stroke-width:0.690373" />
      <path
         id="path2-0-5"
         inkscape:transform-center-x="-0.0034207367"
         inkscape:transform-center-y="-1.3106034"
         d="m 4.1226262,6.4430161 c 0.265905,-0.1686276 0.248746,-0.4081937 0.320343,-1.3033192 0.07799,0.9022329 0.05413,1.1380894 0.323721,1.2987686 z"
         sodipodi:nodetypes="cccc"
         style="stroke-width:0.195295" />
    </g>
  </g>
</svg>
