<?xml version="1.0" encoding="UTF-8" standalone="no"?>
<svg
   width="4.6511927mm"
   height="5.6879997mm"
   version="1.1"
   id="svg4"
   sodipodi:docname="icon-will.svg"
   viewBox="0 0 72.018841 88.072711"
   inkscape:version="1.4.2 (ebf0e94, 2025-05-08)"
   xmlns:inkscape="http://www.inkscape.org/namespaces/inkscape"
   xmlns:sodipodi="http://sodipodi.sourceforge.net/DTD/sodipodi-0.dtd"
   xmlns="http://www.w3.org/2000/svg"
   xmlns:svg="http://www.w3.org/2000/svg">
  <defs
     id="defs4" />
  <sodipodi:namedview
     id="namedview4"
     pagecolor="#ffffff"
     bordercolor="#000000"
     borderopacity="0.25"
     inkscape:showpageshadow="2"
     inkscape:pageopacity="0.0"
     inkscape:pagecheckerboard="0"
     inkscape:deskcolor="#d1d1d1"
     inkscape:document-units="mm"
     inkscape:zoom="9.1603904"
     inkscape:cx="50.052452"
     inkscape:cy="32.804279"
     inkscape:window-width="1655"
     inkscape:window-height="855"
     inkscape:window-x="249"
     inkscape:window-y="138"
     inkscape:window-maximized="0"
     inkscape:current-layer="svg4" />
  <path
     fill="#af1613"
     d="m 35.549265,21.065197 c 1.677158,-2.039497 4.016358,-3.500249 6.682604,-3.764098 2.625893,-0.259848 5.18135,0.513102 7.217848,2.192881 2.104331,1.735814 3.398259,4.26176 3.649335,6.968987 0.243069,2.620485 -0.587877,5.323176 -2.273775,7.345497 L 35.577222,49.176888 25.537741,39.001754 l 2.374714,0.0088 7.645498,7.812265 C 35.718,46.706655 35.861236,46.5344 36.001177,46.3942 l 0.785587,-0.787239 2.783223,-2.775906 6.629019,-6.627076 1.990687,-1.987291 c 0.726092,-0.726884 1.453138,-1.417085 2.011834,-2.287822 1.231707,-1.919681 1.56018,-4.211681 1.079306,-6.426245 -0.485237,-2.234803 -1.791677,-4.149235 -3.719885,-5.384635 -1.731501,-1.109389 -3.899599,-1.57994 -5.922825,-1.12737 -2.698837,0.60367 -4.629169,2.361565 -6.066874,4.64249 l -0.05239,-0.02419 z"
     id="path2-3"
     style="stroke-width:0.0445095" />
  <path
     fill="#e7342a"
     d="m 25.537741,39.001754 -5.027611,-5.14344 c -1.746189,-1.906777 -2.592942,-4.484042 -2.47196,-7.05102 0.123049,-2.6118 1.272922,-5.190803 3.215584,-6.955504 1.951389,-1.772541 4.473433,-2.696105 7.109855,-2.56209 2.172204,0.110385 4.346621,0.995809 5.959729,2.458378 0.29278,0.265416 0.578854,0.543555 0.840033,0.840336 0.130764,0.148614 0.238744,0.316327 0.372095,0.461961 l 0.01377,0.01484 -0.03037,2.543658 0.05239,0.02419 c 1.437705,-2.280918 3.368037,-4.038807 6.066874,-4.642484 2.023225,-0.45257 4.191324,0.01798 5.922838,1.12737 1.928182,1.2354 3.234634,3.149832 3.719885,5.384642 0.480873,2.214557 0.1524,4.506557 -1.079319,6.426245 -0.558684,0.870731 -1.285742,1.560932 -2.011834,2.287816 l -1.990674,1.987296 -6.629031,6.627074 -2.783223,2.775913 -0.785587,0.787228 c -0.139941,0.140212 -0.283177,0.312459 -0.443237,0.428638 l -7.645486,-7.812265 z"
     id="path3-8"
     style="stroke-width:0.0445095" />
  <path
     fill="#ef957e"
     d="m 23.624825,34.628235 -0.02548,-0.0103 c -0.08843,-0.04465 -0.176394,-0.141095 -0.250496,-0.208613 l -0.583835,-0.564599 c -0.33801,-0.327546 -0.701559,-0.634127 -1.023185,-0.977739 -0.761425,-0.813272 -1.355712,-1.872275 -1.713971,-2.924478 -0.703915,-2.067633 -0.569148,-4.428137 0.407171,-6.388234 0.979383,-1.966199 2.730707,-3.528336 4.819528,-4.2286 2.003648,-0.671685 4.199163,-0.520135 6.095847,0.423417 1.500018,0.746243 2.556089,1.836677 3.51888,3.186238 0.142734,0.200117 0.409964,0.483863 0.485907,0.709923 l -0.02162,-0.01484 c -0.408638,-0.284101 -0.767436,-0.61529 -1.195125,-0.878521 -1.737512,-1.069375 -3.8425,-1.437562 -5.846677,-1.090213 -2.087405,0.361772 -3.905301,1.568421 -5.115422,3.29676 -1.197403,1.710177 -1.673424,3.992747 -1.304985,6.042128 0.232206,1.291751 0.827085,2.676652 1.753538,3.627592 z"
     id="path4-3"
     style="stroke-width:0.0445095" />
  <path
     fill="#37b2df"
     d="m 29.444549,0.85916131 c 5.965663,0.27141269 7.259398,-0.0657139 13.085158,0.0695549 0.197761,1.92539999 0.272378,3.81854609 0.756342,5.70635179 0.178234,0.6954557 0.402562,1.4500196 0.813993,2.0457041 l 13.088312,3.7076239 3.276158,0.855524 c 1.579719,0.381823 3.121725,0.700684 4.546699,1.526019 1.789039,1.03613 3.199584,2.680179 4.138808,4.505318 1.446779,2.811532 1.460501,6.029558 1.921771,9.09452 l -9.030725,4.11313 -1.16225,0.554726 c -0.24101,0.103629 -0.522553,0.179613 -0.741154,0.320345 l -0.485057,2.954527 -1.079266,4.593345 -1.951674,6.624955 -2.623241,7.809301 c -1.617599,5.392025 -2.049265,11.142594 -1.000504,16.685915 0.717765,3.793575 2.116495,7.410501 3.280226,11.078746 -0.109665,0.159874 -0.459289,0.295083 -0.638218,0.386855 -0.904779,0.461865 -1.847657,0.843787 -2.80889,1.171434 -5.781186,1.969819 -11.691757,2.652741 -17.779083,2.537277 -6.651236,-0.126318 -13.305921,-1.231632 -19.319133,-4.186353 0.405524,-0.783589 0.718756,-1.652046 1.026854,-2.480044 l 1.53916,-4.66993 c 0.733945,-2.482012 1.359832,-5.008427 1.588587,-7.593073 0.714509,-8.072701 -2.701591,-15.638635 -5.223003,-23.087133 -1.074325,-3.173329 -1.88752,-6.509188 -2.61279,-9.77834 L 11.755477,33.461108 C 10.398799,32.971116 9.0760642,32.182703 7.7751465,31.553267 L 0.93571354,28.241383 1.5068312,24.012288 C 2.2029846,19.873705 4.0858708,16.001569 8.1500736,14.304432 9.9810481,13.539786 12.084002,13.125891 14.003006,12.618831 L 23.236537,10.014048 25.96745,9.1990785 C 26.623431,9.0016072 27.402877,8.8311743 27.960866,8.434445 29.149272,6.1424085 29.371425,3.401143 29.444549,0.85913454 Z"
     id="path5-02"
     sodipodi:nodetypes="ccccccccccccccccccccccccscccccccccccc"
     style="fill:none;stroke:#e8322c;stroke-width:1.7201;stroke-dasharray:none;stroke-opacity:1" />
  <path
     fill="#26A4D4"
     d="m 36.060092,50.711676 0.05123,0.04327 0.03604,28.108569 -0.06629,0.132967 c -0.09963,-0.75662 -0.07273,-1.572596 -0.09319,-2.337129 l -0.117901,-3.045475 -0.195882,-9.19103 0.180604,-7.247955 0.121119,-4.873463 c 0.02432,-0.531612 -0.01287,-1.063786 0.08418,-1.589778 z"
     id="path6-5"
     style="fill:#e8322c;fill-opacity:1;stroke-width:0.0791448" />
  <path
     fill="#26A4D4"
     d="m 60.083523,27.525854 c -0.118545,0.966288 -0.364167,1.933156 -0.597801,2.877324 -0.242374,0.97956 -0.497337,2.007268 -0.894043,2.937281 -0.322783,0.756438 -0.788675,1.48732 -1.200016,2.200113 -1.265186,2.192245 -2.541789,4.272055 -4.390913,6.032513 -2.478961,2.360128 -5.552301,3.521614 -8.970227,3.44308 l -0.05471,-0.03215 -0.01287,-0.06228 0.655298,-0.179377 c 3.640363,-0.97601 6.799196,-3.255247 9.111378,-6.209342 1.640255,-2.09563 2.91951,-4.482191 4.158927,-6.828655 z"
     id="path7-1"
     style="fill:#e8322c;fill-opacity:1;stroke-width:0.101184;stroke-dasharray:none" />
  <path
     fill="#26A4D4"
     d="m 10.787036,26.535388 c 0.210607,0.249684 0.330108,0.80984 0.452685,1.122878 l 0.933997,2.234892 c 0.665261,1.487437 1.36081,2.963909 2.170851,4.379 2.394292,4.182307 5.643034,8.5013 10.405746,10.091275 0.708691,0.236556 1.49326,0.445966 2.233434,0.549691 0.637921,0.08932 1.289371,0.104414 1.912581,0.273467 l -0.99152,0.07234 c -3.711287,0.173684 -7.424851,-1.163539 -10.171068,-3.657393 -2.590882,-2.352726 -4.216282,-5.448186 -5.44526,-8.680033 -0.762765,-2.00613 -1.401768,-4.232733 -1.501446,-6.386117 z"
     id="path8-5"
     style="fill:#e8322c;fill-opacity:1;stroke-width:0.0986891" />
</svg>
