<?xml version="1.0" encoding="UTF-8" standalone="no"?>
<svg
   width="25mm"
   height="10mm"
   version="1.1"
   id="svg4"
   sodipodi:docname="icon-will.svg"
   viewBox="0 0 387.09877 154.83951"
   inkscape:version="1.4 (86a8ad7, 2024-10-11)"
   xmlns:inkscape="http://www.inkscape.org/namespaces/inkscape"
   xmlns:sodipodi="http://sodipodi.sourceforge.net/DTD/sodipodi-0.dtd"
   xmlns="http://www.w3.org/2000/svg"
   xmlns:svg="http://www.w3.org/2000/svg">
  <defs
     id="defs4" />
  <sodipodi:namedview
     id="namedview4"
     pagecolor="#ffffff"
     bordercolor="#000000"
     borderopacity="0.25"
     inkscape:showpageshadow="2"
     inkscape:pageopacity="0.0"
     inkscape:pagecheckerboard="0"
     inkscape:deskcolor="#d1d1d1"
     inkscape:document-units="mm"
     inkscape:zoom="9.1603904"
     inkscape:cx="55.674483"
     inkscape:cy="34.76926"
     inkscape:window-width="1655"
     inkscape:window-height="855"
     inkscape:window-x="265"
     inkscape:window-y="308"
     inkscape:window-maximized="0"
     inkscape:current-layer="svg4" />
  <g
     id="will"
     inkscape:label="will">
    <path
       fill="#af1613"
       d="m 77.029199,40.411414 c 2.56653,-3.121018 6.146159,-5.356392 10.226273,-5.760159 4.018344,-0.397642 7.928925,0.785194 11.045326,3.355744 3.220212,2.656299 5.200292,6.521725 5.584512,10.664568 0.37196,4.010101 -0.89963,8.145998 -3.47952,11.240736 L 77.07198,83.430441 61.70876,67.859539 l 3.633982,0.01341 11.699745,11.955026 c 0.244927,-0.177768 0.464117,-0.441366 0.678261,-0.65591 l 1.202171,-1.204707 4.25912,-4.247938 10.144267,-10.141344 3.046301,-3.041131 c 1.111123,-1.112342 2.223722,-2.168551 3.078675,-3.501032 1.884858,-2.937666 2.387518,-6.445092 1.651648,-9.834013 -0.74255,-3.419898 -2.741774,-6.349533 -5.692469,-8.240052 -2.649686,-1.697684 -5.967501,-2.417765 -9.063599,-1.725202 -4.129976,0.923791 -7.083926,3.61388 -9.284016,7.104354 l -0.08021,-0.03703 z"
       id="path2"
       style="stroke-width:0.0681122" />
    <path
       fill="#e7342a"
       d="m 61.70876,67.859539 -7.693665,-7.870951 c -2.672166,-2.917921 -3.967932,-6.861883 -3.782799,-10.790102 0.188334,-3.99681 1.94793,-7.943432 4.920756,-10.643935 2.986165,-2.712501 6.845596,-4.125821 10.880074,-3.92074 3.324074,0.168919 6.651554,1.523876 9.12007,3.762031 0.448034,0.406164 0.885798,0.831795 1.285473,1.285956 0.200111,0.227424 0.365356,0.484075 0.569416,0.706936 l 0.02107,0.02271 -0.04655,3.892536 0.08021,0.03703 c 2.200081,-3.490465 5.154031,-6.180543 9.284006,-7.104344 3.096108,-0.692563 6.413917,0.02751 9.06361,1.725202 2.950673,1.890519 4.949899,4.820154 5.692469,8.240062 0.73588,3.388911 0.23322,6.896337 -1.651658,9.834014 -0.854933,1.33247 -1.96754,2.388679 -3.078664,3.501021 l -3.046301,3.041131 -10.144279,10.141344 -4.259108,4.247949 -1.202181,1.204687 c -0.214146,0.214565 -0.433335,0.478151 -0.678261,0.65594 L 65.342701,67.872983 Z"
       id="path3"
       style="stroke-width:0.0681122" />
    <path
       fill="#ef957e"
       d="m 58.781448,61.16679 -0.03899,-0.01566 c -0.135404,-0.06834 -0.269931,-0.215915 -0.38334,-0.319238 l -0.89343,-0.863998 c -0.51724,-0.50124 -1.073579,-0.970399 -1.565757,-1.496223 -1.165189,-1.244544 -2.074617,-2.865124 -2.622855,-4.475299 -1.077191,-3.164076 -0.870954,-6.77633 0.62309,-9.775846 1.49873,-3.008856 4.178742,-5.399378 7.375237,-6.470983 3.066133,-1.027873 6.425889,-0.795958 9.328352,0.647949 2.295444,1.141968 3.911533,2.810649 5.384873,4.875867 0.218431,0.306236 0.627367,0.74045 0.743569,1.086388 l -0.03314,-0.02271 c -0.625327,-0.434755 -1.174383,-0.94157 -1.828869,-1.344388 -2.658897,-1.636457 -5.880118,-2.199886 -8.94706,-1.668345 -3.194326,0.553619 -5.976218,2.400139 -7.828048,5.045 -1.832351,2.617067 -2.56081,6.110058 -1.996983,9.246205 0.355341,1.976751 1.265659,4.096053 2.683407,5.551265 z"
       id="path4"
       style="stroke-width:0.0681122" />
    <text
       xml:space="preserve"
       style="font-style:normal;font-variant:normal;font-weight:normal;font-stretch:normal;font-size:148.144px;font-family:Gabriola;-inkscape-font-specification:'Gabriola, Normal';font-variant-ligatures:normal;font-variant-caps:normal;font-variant-numeric:normal;font-variant-east-asian:normal;fill:#e8322b;fill-opacity:1;stroke:none;stroke-width:0.269287;stroke-dasharray:none;stroke-opacity:1;paint-order:markers fill stroke"
       x="143.16859"
       y="121.46247"
       id="text1"><tspan
         sodipodi:role="line"
         id="tspan1"
         x="143.16859"
         y="121.46247">Will</tspan></text>
    <rect
       style="fill:#ef957e;fill-opacity:1;stroke:none;stroke-width:0.499792;paint-order:markers fill stroke"
       id="rect1"
       width="53.548679"
       height="2.2158067"
       x="50.361313"
       y="46.373329" />
    <path
       fill="#37b2df"
       d="m 67.687272,9.4903298 c 9.129131,0.41534 11.108912,-0.10056 20.023959,0.10644 0.302648,2.9464202 0.416821,5.8434802 1.157431,8.7323702 0.272745,1.06425 0.616017,2.21895 1.245626,3.13052 l 20.028802,5.67374 5.01345,1.3092 c 2.41741,0.5843 4.77712,1.07225 6.95772,2.33525 2.73773,1.58558 4.89628,4.10145 6.33354,6.89444 2.21398,4.30246 2.23498,9.22697 2.94085,13.91725 l -13.81954,6.29428 -1.77858,0.84889 c -0.3688,0.15858 -0.79966,0.27486 -1.13417,0.49022 l -0.74227,4.52128 -1.65158,7.02915 -2.9866,10.1381 -4.0143,11.95049 c -2.4754,8.25136 -3.13596,17.05139 -1.53106,25.53428 1.09839,5.80527 3.23882,11.34021 5.01966,16.95369 -0.16778,0.24465 -0.70284,0.45156 -0.97665,0.592 -1.38457,0.70679 -2.82743,1.29124 -4.29838,1.79263 -8.846855,3.01439 -17.891693,4.05946 -27.207009,3.88277 -10.178256,-0.19331 -20.361797,-1.88475 -29.563695,-6.40633 0.620547,-1.19912 1.099891,-2.52811 1.571374,-3.79519 l 2.355338,-7.14634 c 1.123148,-3.7982 2.080927,-7.66434 2.430995,-11.6196 1.093398,-12.35357 -4.134212,-23.93164 -7.992665,-35.33 -1.644025,-4.85611 -2.888447,-9.96094 -3.998301,-14.96369 L 40.618005,59.38075 C 38.541906,58.63092 36.517758,57.42442 34.526989,56.4612 L 24.060736,51.39306 24.9347,44.92132 c 1.065314,-6.33323 3.946649,-12.25872 10.16603,-14.85583 2.801896,-1.17013 6.020021,-1.80351 8.956633,-2.57946 l 14.129891,-3.98607 4.179071,-1.24714 c 1.003842,-0.30219 2.196609,-0.563 3.050487,-1.17011 1.818602,-3.50748 2.158552,-7.70241 2.27046,-11.5924202 z"
       id="path5"
       sodipodi:nodetypes="ccccccccccccccccccccccccscccccccccccc"
       style="fill:none;stroke:#e8322b;stroke-width:2.63227163;stroke-dasharray:none;stroke-opacity:1" />
    <path
       fill="#26A4D4"
       d="m 77.810917,85.77911 0.07836,0.0662 0.05523,43.01425 -0.101493,0.20348 c -0.152362,-1.15785 -0.111183,-2.40653 -0.142552,-3.57649 l -0.180454,-4.66046 -0.299758,-14.06493 0.276381,-11.09147 0.185426,-7.45781 c 0.03719,-0.81352 -0.01902,-1.6279 0.128864,-2.43282 z"
       id="path6"
       style="fill:#e8322b;fill-opacity:1;stroke-width:0.121114" />
    <path
       fill="#26A4D4"
       d="m 114.57352,50.29809 c -0.1814,1.4787 -0.55728,2.95829 -0.91481,4.40314 -0.3709,1.49901 -0.76107,3.0717 -1.36813,4.49489 -0.49396,1.15757 -1.20689,2.27603 -1.83636,3.36681 -1.9361,3.35477 -3.88965,6.53748 -6.71933,9.23149 -3.793528,3.61168 -8.496584,5.38909 -13.726986,5.26891 l -0.08379,-0.0492 -0.01925,-0.0953 1.002792,-0.2745 c 5.570781,-1.49358 10.404694,-4.98147 13.942974,-9.50209 2.51006,-3.20692 4.46767,-6.85905 6.36434,-10.44982 z"
       id="path7"
       style="fill:#e8322b;fill-opacity:1;stroke-width:0.15483952;stroke-dasharray:none" />
    <path
       fill="#26A4D4"
       d="m 39.136024,48.78239 c 0.322281,0.38209 0.505162,1.23929 0.692739,1.71833 l 1.429271,3.42003 c 1.018034,2.27621 2.082427,4.53564 3.322016,6.70114 3.663939,6.40014 8.635421,13.00945 15.923725,15.44257 1.084488,0.362 2.285109,0.68246 3.417772,0.84119 0.976204,0.13668 1.973098,0.15978 2.926798,0.41848 l -1.517314,0.11069 C 59.651712,77.70061 53.968918,75.65427 49.766438,71.83795 45.801666,68.2376 43.314341,63.50065 41.433666,58.55499 40.266417,55.48503 39.288552,52.07768 39.136024,48.78238 Z"
       id="path8"
       style="fill:#e8322b;fill-opacity:1;stroke-width:0.151022" />
  </g>
</svg>
