<?xml version="1.0" encoding="UTF-8" standalone="no"?>
<!-- Created with Inkscape (http://www.inkscape.org/) -->

<svg
   width="6mm"
   height="6mm"
   viewBox="0 0 22.677165 22.677165"
   version="1.1"
   id="svg1"
   inkscape:version="1.3.2 (091e20e, 2023-11-25, custom)"
   sodipodi:docname="icon-wand.svg"
   xmlns:inkscape="http://www.inkscape.org/namespaces/inkscape"
   xmlns:sodipodi="http://sodipodi.sourceforge.net/DTD/sodipodi-0.dtd"
   xmlns="http://www.w3.org/2000/svg"
   xmlns:svg="http://www.w3.org/2000/svg">
  <sodipodi:namedview
     id="namedview1"
     pagecolor="#ffffff"
     bordercolor="#000000"
     borderopacity="0.25"
     inkscape:showpageshadow="2"
     inkscape:pageopacity="0.0"
     inkscape:pagecheckerboard="0"
     inkscape:deskcolor="#d1d1d1"
     inkscape:document-units="mm"
     inkscape:zoom="17.104167"
     inkscape:cx="24.11693"
     inkscape:cy="9.9098658"
     inkscape:window-width="1920"
     inkscape:window-height="1017"
     inkscape:window-x="-8"
     inkscape:window-y="-8"
     inkscape:window-maximized="1"
     inkscape:current-layer="layer1" />
  <defs
     id="defs1" />
  <g
     inkscape:label="Layer 1"
     inkscape:groupmode="layer"
     id="layer1">
    <path
       id="rect1"
       d="m 7.9786979,17.021463 h 6.7057531 l -2.00462,0.495364 -0.187639,4.843827 -2.7080926,-0.02473 -0.0317,-4.81909 z"
       sodipodi:nodetypes="ccccccc"
       style="stroke-width:0.965689" />
    <path
       style="fill:#000000;fill-opacity:1;stroke-width:0.803158"
       id="path2-6-0"
       sodipodi:type="arc"
       sodipodi:cx="11.21264"
       sodipodi:cy="7.8970418"
       sodipodi:rx="3.2634902"
       sodipodi:ry="3.2634902"
       sodipodi:start="0.027304543"
       sodipodi:end="6.2831853"
       sodipodi:open="true"
       sodipodi:arc-type="arc"
       d="M 14.474914,7.9861388 A 3.2634902,3.2634902 0 0 1 11.145813,11.159848 3.2634902,3.2634902 0 0 1 7.9494537,7.8524891 3.2634902,3.2634902 0 0 1 11.234917,4.6336276 3.2634902,3.2634902 0 0 1 14.47613,7.8970418" />
    <path
       style="fill:#000000;fill-opacity:1;stroke-width:0.803158"
       id="path2-6-0-7"
       sodipodi:type="arc"
       sodipodi:cx="7.9833441"
       sodipodi:cy="13.659798"
       sodipodi:rx="3.2634902"
       sodipodi:ry="3.2634902"
       sodipodi:start="0.027304543"
       sodipodi:end="6.2831853"
       sodipodi:open="true"
       sodipodi:arc-type="arc"
       d="M 11.245618,13.748895 A 3.2634902,3.2634902 0 0 1 7.9165177,16.922604 3.2634902,3.2634902 0 0 1 4.720158,13.615245 3.2634902,3.2634902 0 0 1 8.0056209,10.396384 3.2634902,3.2634902 0 0 1 11.246834,13.659798" />
    <path
       style="fill:#000000;fill-opacity:1;stroke-width:0.803158"
       id="path2-6-0-9"
       sodipodi:type="arc"
       sodipodi:cx="14.511786"
       sodipodi:cy="13.659798"
       sodipodi:rx="3.2634902"
       sodipodi:ry="3.2634902"
       sodipodi:start="0.027304543"
       sodipodi:end="6.2831853"
       sodipodi:open="true"
       sodipodi:arc-type="arc"
       d="m 17.77406,13.748895 a 3.2634902,3.2634902 0 0 1 -3.3291,3.173709 3.2634902,3.2634902 0 0 1 -3.19636,-3.307359 3.2634902,3.2634902 0 0 1 3.285463,-3.218861 3.2634902,3.2634902 0 0 1 3.241214,3.263414" />
    <path
       sodipodi:type="star"
       style="fill:#000000"
       id="path1"
       inkscape:flatsided="false"
       sodipodi:sides="3"
       sodipodi:cx="-4.2679658"
       sodipodi:cy="5.2618756"
       sodipodi:r1="0.76004869"
       sodipodi:r2="0.33594152"
       sodipodi:arg1="1.5707963"
       sodipodi:arg2="2.6179939"
       inkscape:rounded="0"
       inkscape:randomized="0"
       d="m -4.2679658,6.0219243 -0.2909339,-0.5920779 -0.3672876,-0.5479951 0.6582215,0.044083 0.6582215,-0.044083 -0.3672876,0.5479951 z"
       inkscape:transform-center-y="0.32888909"
       transform="matrix(1.7308841,0,0,1.7308841,18.556532,-8.1283593)" />
    <path
       sodipodi:type="star"
       style="fill:#000000"
       id="path1-7"
       inkscape:flatsided="false"
       sodipodi:sides="3"
       sodipodi:cx="-4.2679658"
       sodipodi:cy="5.2618756"
       sodipodi:r1="0.76004869"
       sodipodi:r2="0.33594152"
       sodipodi:arg1="1.5707963"
       sodipodi:arg2="2.6179939"
       inkscape:rounded="0"
       inkscape:randomized="0"
       d="m -4.2679658,6.0219243 -0.2909339,-0.5920779 -0.3672876,-0.5479951 0.6582215,0.044083 0.6582215,-0.044083 -0.3672876,0.5479951 z"
       inkscape:transform-center-y="-0.30975177"
       transform="matrix(0.81508483,1.5269565,-1.5269565,0.81508483,22.565368,6.0852408)"
       inkscape:transform-center-x="0.021887611" />
    <path
       sodipodi:type="star"
       style="fill:#000000"
       id="path1-9"
       inkscape:flatsided="false"
       sodipodi:sides="3"
       sodipodi:cx="-4.2679658"
       sodipodi:cy="5.2618756"
       sodipodi:r1="0.76004869"
       sodipodi:r2="0.33594152"
       sodipodi:arg1="1.5707963"
       sodipodi:arg2="2.6179939"
       inkscape:rounded="0"
       inkscape:randomized="0"
       d="m -4.2679658,6.0219243 -0.2909339,-0.5920779 -0.3672876,-0.5479951 0.6582215,0.044083 0.6582215,-0.044083 -0.3672876,0.5479951 z"
       inkscape:transform-center-y="0.0074915146"
       transform="matrix(-0.01971129,-1.730772,1.730772,-0.01971129,0.64636557,-4.8427922)"
       inkscape:transform-center-x="-0.3223813" />
    <path
       sodipodi:type="star"
       style="fill:#000000"
       id="path1-5"
       inkscape:flatsided="false"
       sodipodi:sides="3"
       sodipodi:cx="-4.2679658"
       sodipodi:cy="5.2618756"
       sodipodi:r1="0.76004869"
       sodipodi:r2="0.33594152"
       sodipodi:arg1="1.5707963"
       sodipodi:arg2="2.6179939"
       inkscape:rounded="0"
       inkscape:randomized="0"
       d="m -4.2679658,6.0219243 -0.2909339,-0.5920779 -0.3672876,-0.5479951 0.6582215,0.044083 0.6582215,-0.044083 -0.3672876,0.5479951 z"
       inkscape:transform-center-y="0.038563865"
       transform="matrix(-0.10147722,1.7279069,-1.7279069,-0.10147722,21.026444,10.46071)"
       inkscape:transform-center-x="0.29492659" />
  </g>
</svg>
