<?xml version="1.0" encoding="UTF-8" standalone="no"?>
<!-- Created with Inkscape (http://www.inkscape.org/) -->

<svg
   width="6.658mm"
   height="5.4319353mm"
   viewBox="0 0 6.658 5.4319353"
   version="1.1"
   id="svg1"
   sodipodi:docname="icon-jester-black.svg"
   inkscape:version="1.4.2 (ebf0e94, 2025-05-08)"
   xmlns:inkscape="http://www.inkscape.org/namespaces/inkscape"
   xmlns:sodipodi="http://sodipodi.sourceforge.net/DTD/sodipodi-0.dtd"
   xmlns="http://www.w3.org/2000/svg"
   xmlns:svg="http://www.w3.org/2000/svg">
  <sodipodi:namedview
     id="namedview1"
     pagecolor="#ffffff"
     bordercolor="#000000"
     borderopacity="0.25"
     inkscape:showpageshadow="2"
     inkscape:pageopacity="0.0"
     inkscape:pagecheckerboard="0"
     inkscape:deskcolor="#d1d1d1"
     inkscape:document-units="mm"
     inkscape:zoom="16.549473"
     inkscape:cx="7.2207737"
     inkscape:cy="19.54745"
     inkscape:window-width="1904"
     inkscape:window-height="1041"
     inkscape:window-x="0"
     inkscape:window-y="0"
     inkscape:window-maximized="0"
     inkscape:current-layer="svg1" />
  <defs
     id="defs1" />
  <g
     inkscape:label="Layer 1"
     inkscape:groupmode="layer"
     id="layer1"
     transform="matrix(1.3316,0,0,1.3316,-0.73238002,-0.84689373)">
    <path
       id="path1"
       style="fill:#000000;fill-opacity:1;stroke-width:0.584405"
       inkscape:transform-center-x="-0.10497985"
       inkscape:transform-center-y="-0.38394628"
       d="M 4.2127366,4.7096983 C 4.4596271,4.6973006 2.658666,4.7293181 2.0008922,4.7072919 2.4989109,3.1521633 2.3348502,3.6682414 2.247636,3.1529537 2.1930892,2.8306739 1.7650792,2.8743554 0.66201027,3.5065526 0.95472393,2.776556 1.1752903,2.567017 1.6785536,2.4660392 2.3308714,2.3351542 2.7455965,3.0226252 2.5943249,2.8878309 2.2703525,2.5991471 2.7284837,2.2327046 2.4566984,1.6313657 2.2042227,1.0727504 2.4463708,1.050189 1.2657345,0.99849044 2.1399467,0.20166812 2.8145939,0.91688066 3.0689802,1.2628037 3.6090855,1.9972571 3.3107828,2.3530271 3.6516701,2.0775114 4.0040818,1.7926813 4.0821773,1.7995601 4.4271285,1.7617618 4.8879517,1.7112665 4.8551787,1.5330904 5.5034966,2.4755918 4.6769374,2.0182868 4.5777467,2.1092517 4.2401125,2.3281432 3.3505931,2.9048273 3.5479267,3.1973932 4.2127366,4.7096983 Z"
       sodipodi:nodetypes="ccscssscssscsc" />
    <path
       style="fill:#000000;fill-opacity:1;stroke-width:0.315932"
       id="path2"
       sodipodi:type="arc"
       sodipodi:cx="5.2827363"
       sodipodi:cy="2.9160802"
       sodipodi:rx="0.26726371"
       sodipodi:ry="0.26726371"
       sodipodi:start="0.027304543"
       sodipodi:end="6.2831853"
       sodipodi:open="true"
       sodipodi:arc-type="arc"
       d="M 5.5499004,2.9233768 A 0.26726371,0.26726371 0 0 1 5.2772635,3.1832879 0.26726371,0.26726371 0 0 1 5.0154975,2.9124316 0.26726371,0.26726371 0 0 1 5.2845607,2.6488228 0.26726371,0.26726371 0 0 1 5.55,2.9160802"
       inkscape:transform-center-x="0.028133278" />
    <path
       style="fill:#000000;fill-opacity:1;stroke-width:0.315932"
       id="path2-4"
       sodipodi:type="arc"
       sodipodi:cx="0.81726372"
       sodipodi:cy="3.7933719"
       sodipodi:rx="0.26726371"
       sodipodi:ry="0.26726371"
       sodipodi:start="0.027304543"
       sodipodi:end="6.2831853"
       sodipodi:open="true"
       sodipodi:arc-type="arc"
       d="M 1.0844278,3.8006685 A 0.26726371,0.26726371 0 0 1 0.81179097,4.0605796 0.26726371,0.26726371 0 0 1 0.55002492,3.7897233 0.26726371,0.26726371 0 0 1 0.81908809,3.5261144 0.26726371,0.26726371 0 0 1 1.0845274,3.7933719" />
    <path
       style="fill:#000000;fill-opacity:1;stroke-width:0.282677"
       id="path2-5"
       sodipodi:type="arc"
       sodipodi:cx="1.2276573"
       sodipodi:cy="1.3134015"
       sodipodi:rx="0.23913066"
       sodipodi:ry="0.23913066"
       sodipodi:start="0.027304543"
       sodipodi:end="6.2831853"
       sodipodi:open="true"
       sodipodi:arc-type="arc"
       d="M 1.4666988,1.31993 A 0.23913066,0.23913066 0 0 1 1.2227606,1.552482 0.23913066,0.23913066 0 0 1 0.98854894,1.3101369 0.23913066,0.23913066 0 0 1 1.2292896,1.0742764 0.23913066,0.23913066 0 0 1 1.466788,1.3134015" />
  </g>
</svg>
