<?xml version="1.0" encoding="UTF-8" standalone="no"?>
<svg
   width="25mm"
   height="10mm"
   version="1.1"
   id="svg8"
   sodipodi:docname="icon-body.svg"
   inkscape:version="1.3.2 (091e20e, 2023-11-25, custom)"
   viewBox="0 0 387.09877 154.83951"
   xmlns:inkscape="http://www.inkscape.org/namespaces/inkscape"
   xmlns:sodipodi="http://sodipodi.sourceforge.net/DTD/sodipodi-0.dtd"
   xmlns="http://www.w3.org/2000/svg"
   xmlns:svg="http://www.w3.org/2000/svg">
  <defs
     id="defs8" />
  <sodipodi:namedview
     id="namedview8"
     pagecolor="#ffffff"
     bordercolor="#000000"
     borderopacity="0.25"
     inkscape:showpageshadow="2"
     inkscape:pageopacity="0.0"
     inkscape:pagecheckerboard="0"
     inkscape:deskcolor="#d1d1d1"
     inkscape:zoom="9.1603905"
     inkscape:cx="65.008146"
     inkscape:cy="41.319199"
     inkscape:window-width="1920"
     inkscape:window-height="1017"
     inkscape:window-x="-8"
     inkscape:window-y="-8"
     inkscape:window-maximized="1"
     inkscape:current-layer="svg8"
     inkscape:document-units="mm" />
  <path
     fill="#37b2df"
     d="m 65.793247,13.808678 c 9.129131,0.415333 11.108912,-0.100563 20.023959,0.106434 0.302648,2.946427 0.416821,5.84348 1.157431,8.732375 0.272745,1.064244 0.616017,2.21895 1.245626,3.130516 l 20.028797,5.673739 5.01346,1.309203 c 2.41741,0.584302 4.77712,1.072252 6.95772,2.335256 2.73773,1.585572 4.89628,4.101443 6.33354,6.894433 2.21398,4.30246 2.23498,9.226976 2.94085,13.917256 l -13.81954,6.294275 -1.77858,0.848892 c -0.3688,0.15858 -0.79966,0.274863 -1.13417,0.490216 l -0.74227,4.521286 -1.65158,7.02915 -2.98661,10.138093 -4.0143,11.950496 c -2.4754,8.251362 -3.13596,17.051392 -1.53106,25.534282 1.09839,5.80527 3.23882,11.34021 5.01966,16.95369 -0.16778,0.24465 -0.70284,0.45156 -0.97665,0.592 -1.38457,0.70679 -2.82743,1.29124 -4.29838,1.79263 -8.84685,3.01439 -17.891688,4.05946 -27.207004,3.88277 -10.178256,-0.19331 -20.361797,-1.88475 -29.563695,-6.40633 0.620547,-1.19912 1.099891,-2.52811 1.571374,-3.79519 l 2.355338,-7.14634 c 1.123148,-3.7982 2.080927,-7.66434 2.430995,-11.6196 1.093398,-12.35357 -4.134212,-23.931643 -7.992665,-35.330007 -1.644025,-4.856109 -2.888447,-9.96094 -3.998301,-14.963687 L 38.72398,63.699093 c -2.076099,-0.749822 -4.100247,-1.95633 -6.091016,-2.919548 l -10.466253,-5.068137 0.873964,-6.471737 c 1.065314,-6.333236 3.946649,-12.258722 10.16603,-14.855839 2.801896,-1.170125 6.020021,-1.803502 8.956633,-2.579455 L 56.293229,27.818307 60.4723,26.57117 c 1.003842,-0.302191 2.196609,-0.563005 3.050487,-1.170114 1.818602,-3.507476 2.158552,-7.702408 2.27046,-11.592424 z"
     id="path5"
     sodipodi:nodetypes="ccccccccccccccccccccccccscccccccccccc"
     style="fill:none;stroke:#000000;stroke-width:2.63227163;stroke-dasharray:none;stroke-opacity:1" />
  <path
     fill="#26A4D4"
     d="m 75.916892,90.097459 0.07836,0.06625 0.05523,43.014251 -0.101493,0.20348 c -0.152362,-1.15785 -0.111183,-2.40653 -0.142552,-3.57649 l -0.180454,-4.66046 -0.299758,-14.06493 0.276381,-11.091473 0.185426,-7.457815 c 0.03719,-0.813518 -0.01902,-1.627895 0.128864,-2.432814 z"
     id="path6"
     style="fill:#6f838b;fill-opacity:1;stroke-width:0.121114" />
  <path
     fill="#26A4D4"
     d="m 112.6795,54.616439 c -0.1814,1.478695 -0.55728,2.958286 -0.91481,4.403142 -0.3709,1.499002 -0.76107,3.071692 -1.36813,4.494889 -0.49396,1.157568 -1.2069,2.276026 -1.83637,3.366806 -1.9361,3.354774 -3.88965,6.537477 -6.71933,9.231488 -3.793523,3.611681 -8.496579,5.389089 -13.726981,5.268909 l -0.08379,-0.04916 -0.01925,-0.09534 1.002792,-0.274497 c 5.570781,-1.493582 10.404695,-4.981473 13.942969,-9.502088 2.51006,-3.20692 4.46767,-6.859053 6.36435,-10.449818 z"
     id="path7"
     style="fill:#768084;fill-opacity:1;stroke-width:0.150412" />
  <path
     fill="#26A4D4"
     d="m 37.241999,53.100736 c 0.322281,0.38209 0.505162,1.239289 0.692739,1.718332 l 1.429271,3.420029 c 1.018034,2.276205 2.082427,4.535635 3.322016,6.701138 3.663939,6.400145 8.635421,13.009452 15.923725,15.44257 1.084488,0.362001 2.285109,0.682464 3.417772,0.841193 0.976204,0.136673 1.973098,0.159778 2.926798,0.418474 l -1.517314,0.110691 C 57.757687,82.01896 52.074893,79.972615 47.872413,76.156298 43.907641,72.555944 41.420316,67.818993 39.539641,62.873341 38.372392,59.803371 37.394527,56.396024 37.241999,53.100725 Z"
     id="path8"
     style="fill:#6c858e;fill-opacity:1;stroke-width:0.151022" />
  <text
     xml:space="preserve"
     style="font-size:148.144px;font-family:Gabriola;-inkscape-font-specification:'Gabriola, Normal';fill:#000000;fill-opacity:1;stroke:#000000;stroke-width:0.269287;stroke-dasharray:none;stroke-opacity:1;paint-order:markers fill stroke"
     x="141.60733"
     y="113.32814"
     id="text1"><tspan
       sodipodi:role="line"
       id="tspan1"
       style="fill:#000000;fill-opacity:1;stroke-width:0.269291"
       x="141.60733"
       y="113.32814">Body</tspan></text>
  <path
     id="rect1"
     d="m 64.956954,79.380531 h 22.031592 l -6.586133,1.627503 -0.616485,15.914283 -8.897371,-0.0812 -0.104151,-15.833009 z"
     sodipodi:nodetypes="ccccccc"
     style="stroke-width:3.17275" />
  <path
     style="fill:#000000;fill-opacity:1;stroke-width:2.63875"
     id="path2-6-0"
     sodipodi:type="arc"
     sodipodi:cx="75.582001"
     sodipodi:cy="49.402466"
     sodipodi:rx="10.722118"
     sodipodi:ry="10.722118"
     sodipodi:start="0.027304543"
     sodipodi:end="6.2831853"
     sodipodi:open="true"
     sodipodi:arc-type="arc"
     d="M 86.300122,49.695192 A 10.722118,10.722118 0 0 1 75.362444,60.122336 10.722118,10.722118 0 0 1 64.860882,49.256089 10.722118,10.722118 0 0 1 75.655191,38.680597 10.722118,10.722118 0 0 1 86.304119,49.402466" />
  <path
     style="fill:#000000;fill-opacity:1;stroke-width:2.63875"
     id="path2-6-0-7"
     sodipodi:type="arc"
     sodipodi:cx="64.972221"
     sodipodi:cy="68.335861"
     sodipodi:rx="10.722118"
     sodipodi:ry="10.722118"
     sodipodi:start="0.027304543"
     sodipodi:end="6.2831853"
     sodipodi:open="true"
     sodipodi:arc-type="arc"
     d="M 75.690343,68.628587 A 10.722118,10.722118 0 0 1 64.752665,79.055731 10.722118,10.722118 0 0 1 54.251102,68.189485 10.722118,10.722118 0 0 1 65.045411,57.613993 10.722118,10.722118 0 0 1 75.69434,68.335861" />
  <path
     style="fill:#000000;fill-opacity:1;stroke-width:2.63875"
     id="path2-6-0-9"
     sodipodi:type="arc"
     sodipodi:cx="86.421265"
     sodipodi:cy="68.335861"
     sodipodi:rx="10.722118"
     sodipodi:ry="10.722118"
     sodipodi:start="0.027304543"
     sodipodi:end="6.2831853"
     sodipodi:open="true"
     sodipodi:arc-type="arc"
     d="M 97.139386,68.628587 A 10.722118,10.722118 0 0 1 86.201708,79.055731 10.722118,10.722118 0 0 1 75.700145,68.189485 10.722118,10.722118 0 0 1 86.494455,57.613993 10.722118,10.722118 0 0 1 97.143383,68.335861" />
  <path
     sodipodi:type="star"
     style="fill:#000000"
     id="path1"
     inkscape:flatsided="false"
     sodipodi:sides="3"
     sodipodi:cx="-4.2679658"
     sodipodi:cy="5.2618756"
     sodipodi:r1="0.76004869"
     sodipodi:r2="0.33594152"
     sodipodi:arg1="1.5707963"
     sodipodi:arg2="2.6179939"
     inkscape:rounded="0"
     inkscape:randomized="0"
     d="m -4.2679658,6.0219243 -0.2909339,-0.5920779 -0.3672876,-0.5479951 0.6582215,0.044083 0.6582215,-0.044083 -0.3672876,0.5479951 z"
     inkscape:transform-center-y="0.26375665"
     transform="matrix(5.6867778,0,0,5.6867778,99.710169,-3.2486021)" />
  <path
     sodipodi:type="star"
     style="fill:#000000"
     id="path1-7"
     inkscape:flatsided="false"
     sodipodi:sides="3"
     sodipodi:cx="-4.2679658"
     sodipodi:cy="5.2618756"
     sodipodi:r1="0.76004869"
     sodipodi:r2="0.33594152"
     sodipodi:arg1="1.5707963"
     sodipodi:arg2="2.6179939"
     inkscape:rounded="0"
     inkscape:randomized="0"
     d="m -4.2679658,6.0219243 -0.2909339,-0.5920779 -0.3672876,-0.5479951 0.6582215,0.044083 0.6582215,-0.044083 -0.3672876,0.5479951 z"
     inkscape:transform-center-y="-0.2484088"
     transform="matrix(2.6779415,5.0167787,-5.0167787,2.6779415,112.8811,43.449841)"
     inkscape:transform-center-x="0.01755188" />
  <path
     sodipodi:type="star"
     style="fill:#000000"
     id="path1-9"
     inkscape:flatsided="false"
     sodipodi:sides="3"
     sodipodi:cx="-4.2679658"
     sodipodi:cy="5.2618756"
     sodipodi:r1="0.76004869"
     sodipodi:r2="0.33594152"
     sodipodi:arg1="1.5707963"
     sodipodi:arg2="2.6179939"
     inkscape:rounded="0"
     inkscape:randomized="0"
     d="m -4.2679658,6.0219243 -0.2909339,-0.5920779 -0.3672876,-0.5479951 0.6582215,0.044083 0.6582215,-0.044083 -0.3672876,0.5479951 z"
     inkscape:transform-center-y="0.0060081697"
     transform="matrix(-0.06476097,-5.6864096,5.6864096,-0.06476097,40.866757,7.5460477)"
     inkscape:transform-center-x="-0.25853771" />
  <path
     sodipodi:type="star"
     style="fill:#000000"
     id="path1-5"
     inkscape:flatsided="false"
     sodipodi:sides="3"
     sodipodi:cx="-4.2679658"
     sodipodi:cy="5.2618756"
     sodipodi:r1="0.76004869"
     sodipodi:r2="0.33594152"
     sodipodi:arg1="1.5707963"
     sodipodi:arg2="2.6179939"
     inkscape:rounded="0"
     inkscape:randomized="0"
     d="m -4.2679658,6.0219243 -0.2909339,-0.5920779 -0.3672876,-0.5479951 0.6582215,0.044083 0.6582215,-0.044083 -0.3672876,0.5479951 z"
     inkscape:transform-center-y="0.030927362"
     transform="matrix(-0.33340096,5.6769964,-5.6769964,-0.33340096,107.825,57.825338)"
     inkscape:transform-center-x="0.23652647" />
</svg>
