<?xml version="1.0" encoding="UTF-8" standalone="no"?>
<!-- Created with Inkscape (http://www.inkscape.org/) -->

<svg
   width="6mm"
   height="6mm"
   viewBox="0 0 22.677165 22.677165"
   version="1.1"
   id="svg1"
   sodipodi:docname="icon-cup.svg"
   inkscape:version="1.3.2 (091e20e, 2023-11-25, custom)"
   xmlns:inkscape="http://www.inkscape.org/namespaces/inkscape"
   xmlns:sodipodi="http://sodipodi.sourceforge.net/DTD/sodipodi-0.dtd"
   xmlns="http://www.w3.org/2000/svg"
   xmlns:svg="http://www.w3.org/2000/svg">
  <sodipodi:namedview
     id="namedview1"
     pagecolor="#ffffff"
     bordercolor="#000000"
     borderopacity="0.25"
     inkscape:showpageshadow="2"
     inkscape:pageopacity="0.0"
     inkscape:pagecheckerboard="0"
     inkscape:deskcolor="#d1d1d1"
     inkscape:document-units="mm"
     inkscape:zoom="34.208333"
     inkscape:cx="15.244824"
     inkscape:cy="12.292327"
     inkscape:window-width="1920"
     inkscape:window-height="1017"
     inkscape:window-x="-8"
     inkscape:window-y="-8"
     inkscape:window-maximized="1"
     inkscape:current-layer="layer1" />
  <defs
     id="defs1" />
  <g
     inkscape:label="Layer 1"
     inkscape:groupmode="layer"
     id="layer1">
    <path
       id="path2-0"
       inkscape:transform-center-x="-0.0057275865"
       inkscape:transform-center-y="-1.4285517"
       d="m 7.6351728,22.06069 c 2.7048432,-1.116772 2.5302952,-2.703366 3.2586082,-8.631578 0.793321,5.975283 0.550624,7.537305 3.292972,8.601446 z"
       sodipodi:nodetypes="cccc"
       style="fill:#d70000;fill-opacity:1;stroke-width:1.60294" />
    <path
       id="path2-0-1"
       inkscape:transform-center-x="-0.0043221369"
       inkscape:transform-center-y="-1.0779767"
       d="m 8.4348358,21.845862 c 2.0410582,-0.84271 1.9093442,-2.039945 2.4589262,-6.513339 0.598636,4.508913 0.415498,5.687606 2.484858,6.4906 z"
       sodipodi:nodetypes="cccc"
       style="fill:#ffffff;fill-opacity:1;stroke-width:1.20957" />
    <path
       id="path2"
       inkscape:transform-center-x="-0.037444466"
       inkscape:transform-center-y="2.3745618"
       d="M 10.928871,18.233526 C 6.1961783,14.848381 2.00748,11.379694 2.5451261,3.7316203 L 19.537285,3.8588833 C 20.149619,11.535832 15.434538,14.962713 10.928871,18.233526 Z"
       sodipodi:nodetypes="cccc"
       style="fill:#ea0000;fill-opacity:1;stroke-width:2.53755" />
    <path
       style="fill:#cecece;fill-opacity:1;stroke-width:1.65207"
       id="path4-1"
       sodipodi:type="arc"
       sodipodi:cx="11.066027"
       sodipodi:cy="4.0735478"
       sodipodi:rx="8.4979639"
       sodipodi:ry="0.96493977"
       sodipodi:start="0.48461023"
       sodipodi:end="0"
       sodipodi:arc-type="arc"
       d="M 18.585506,4.5230781 A 8.4979639,0.96493977 0 0 1 8.0449313,4.9754512 8.4979639,0.96493977 0 0 1 2.8163099,3.8420192 8.4979639,0.96493977 0 0 1 12.09306,3.1156811 8.4979639,0.96493977 0 0 1 19.563991,4.0735478"
       sodipodi:open="true" />
    <path
       style="fill:#ff0e0e;fill-opacity:1;stroke-width:2.0508"
       id="path3"
       sodipodi:type="arc"
       sodipodi:cx="-6.7715197"
       sodipodi:cy="-3.8070848"
       sodipodi:rx="4.2493429"
       sodipodi:ry="2.7099001"
       sodipodi:start="0"
       sodipodi:end="3.1415927"
       sodipodi:arc-type="slice"
       d="m -2.5221767,-3.8070848 a 4.2493429,2.7099001 0 0 1 -2.1246716,2.3468424 4.2493429,2.7099001 0 0 1 -4.2493429,-1e-7 4.2493429,2.7099001 0 0 1 -2.1246718,-2.3468423 h 4.2493433 z"
       transform="matrix(-0.99999132,-0.00416567,-0.00954759,-0.99995442,0,0)" />
    <path
       style="fill:#ff0e0e;fill-opacity:1;stroke-width:2.10673"
       id="path3-8"
       sodipodi:type="arc"
       sodipodi:cx="-15.183733"
       sodipodi:cy="-3.9092932"
       sodipodi:rx="4.2865362"
       sodipodi:ry="2.8348835"
       sodipodi:start="0"
       sodipodi:end="3.1415927"
       sodipodi:arc-type="slice"
       d="m -10.897197,-3.9092932 a 4.2865362,2.8348835 0 0 1 -2.143268,2.4550811 4.2865362,2.8348835 0 0 1 -4.286536,0 4.2865362,2.8348835 0 0 1 -2.143268,-2.4550811 h 4.286536 z"
       transform="matrix(-0.99999067,-0.00432,-0.00920654,-0.99995762,0,0)" />
    <path
       style="fill:#ffffff;fill-opacity:1;stroke-width:1.37931"
       id="path4"
       sodipodi:type="arc"
       sodipodi:cx="11.041204"
       sodipodi:cy="4.195116"
       sodipodi:rx="8.4979639"
       sodipodi:ry="0.67261332"
       sodipodi:start="0.48461023"
       sodipodi:end="0"
       sodipodi:arc-type="arc"
       d="M 18.560684,4.508462 A 8.4979639,0.67261332 0 0 1 8.0201091,4.8237897 8.4979639,0.67261332 0 0 1 2.7914876,4.0337285 8.4979639,0.67261332 0 0 1 12.068238,3.527433 a 8.4979639,0.67261332 0 0 1 7.47093,0.667683"
       sodipodi:open="true" />
  </g>
</svg>
