<?xml version="1.0" encoding="UTF-8" standalone="no"?>
<svg
   width="25mm"
   height="10mm"
   version="1.1"
   id="svg11"
   sodipodi:docname="icon-mind.svg"
   viewBox="0 0 387.09877 154.83951"
   inkscape:version="1.3.2 (091e20e, 2023-11-25, custom)"
   xmlns:inkscape="http://www.inkscape.org/namespaces/inkscape"
   xmlns:sodipodi="http://sodipodi.sourceforge.net/DTD/sodipodi-0.dtd"
   xmlns="http://www.w3.org/2000/svg"
   xmlns:svg="http://www.w3.org/2000/svg">
  <defs
     id="defs11" />
  <sodipodi:namedview
     id="namedview11"
     pagecolor="#ffffff"
     bordercolor="#000000"
     borderopacity="0.25"
     inkscape:showpageshadow="2"
     inkscape:pageopacity="0.0"
     inkscape:pagecheckerboard="0"
     inkscape:deskcolor="#d1d1d1"
     inkscape:document-units="mm"
     inkscape:zoom="1.6193435"
     inkscape:cx="156.54492"
     inkscape:cy="172.90957"
     inkscape:window-width="1350"
     inkscape:window-height="1040"
     inkscape:window-x="366"
     inkscape:window-y="0"
     inkscape:window-maximized="0"
     inkscape:current-layer="svg11" />
  <g
     id="mind"
     inkscape:label="mind">
    <path
       fill="#8751D1"
       d="m 45.069566,139.04014 c -0.248111,-0.0337 -0.611351,0.0446 -0.868522,0.0689 l -1.883644,0.18649 c -3.725007,0.33108 -8.574194,0.88378 -11.917306,-1.09865 -2.314192,-1.37162 -3.715411,-3.91758 -3.777977,-6.58974 -0.03164,-1.35445 0.215135,-2.71607 0.338241,-4.0627 0.155003,-1.69621 0.116892,-3.55812 -0.362431,-5.20298 -0.34838,-1.19595 -1.456078,-1.90027 -2.278781,-2.7777 -0.32433,-0.34581 -0.661486,-0.6965 -0.757972,-1.17919 -0.0843,-0.42203 0.0043,-0.78231 0.230402,-1.14312 0.704596,-1.12593 2.047835,-1.75635 3.29176,-2.05337 -1.467845,-0.66041 -2.981085,-1.155 -3.739731,-2.6996 -0.07379,-0.9685 0.677159,-1.48648 1.225944,-2.20552 0.442565,-0.57988 0.909594,-1.29285 1.145945,-1.98636 0.305944,-0.89757 0.393242,-2.0065 -0.06241,-2.87055 -0.32352,-0.61365 -0.912035,-0.94972 -1.547437,-1.15905 -1.071759,-0.35298 -2.445006,-0.17271 -3.575004,-0.2446 -1.083915,-0.069 -2.383923,-0.43067 -3.122838,-1.2777 -1.582435,-1.81365 -0.566896,-3.341627 0.315943,-5.182301 l 4.40663,-9.125686 c 1.327024,-2.791887 2.808644,-5.688786 3.465812,-8.724462 0.231214,-1.067976 0.278375,-2.210949 0.161623,-3.299054 -0.155546,-1.450682 -0.55595,-2.892304 -0.775948,-4.337305 -0.502571,-3.301355 -0.634462,-6.641492 -0.433247,-9.973112 0.437161,-7.238248 2.595948,-14.667849 6.676628,-20.714749 0.70257,-1.04108 1.442028,-2.206888 2.389052,-3.045943 l -0.03044,0.07699 c -0.326347,0.791894 -0.851624,1.540136 -1.259725,2.297979 -0.732035,1.359591 -1.383789,2.75919 -1.942711,4.19852 -3.661347,9.429059 -4.578243,20.647578 -0.717562,30.159746 8.911114,17.456136 15.387601,16.812794 26.955221,20.263775 10.012219,2.861604 13.257775,1.136691 21.956702,2.949485 l -0.119322,0.122433 c 3.335274,5.090544 4.528788,11.785684 3.299595,17.736084 -1.397564,6.76486 -5.747568,11.90094 -11.446896,15.60163 -4.508927,2.92783 -9.910554,4.75486 -15.1588,5.80891 -3.333517,0.67028 -6.712704,1.04731 -10.080814,1.48244 z"
       id="path2"
       style="fill:none;fill-opacity:1;stroke:#d15151;stroke-width:2.32259258;stroke-dasharray:none;stroke-opacity:1"
       sodipodi:nodetypes="ccccccccccccscccccccsccssccccccccccccc" />
    <path
       fill="#8751d1"
       d="m 110.47063,87.831874 0.7243,-0.736351 c 1.03141,6.679077 0.17635,8.12435 -0.69795,12.074512 l -0.71417,2.933755 c -0.14946,0.56896 -0.3758,1.18807 -0.3954,1.77534 l -0.0339,0.0695 c -0.23147,0.49049 -0.35918,1.01867 -0.53903,1.52881 l -1.04402,2.5975 -1.32241,2.64221 c -0.28608,0.52561 -0.67078,1.07546 -0.84011,1.65093 -0.28594,0.97177 0.0137,3.13602 -0.1568,4.1357 -0.22679,3.91949 0.37141,-5.65372 -0.675,13.7383 -0.0798,7.10516 0.2035,3.83698 0.0437,9.61958 -33.967772,0.30038 -21.979159,1.29476 -56.854702,0.56081 -0.5289,-0.27512 -1.09429,-0.50825 -1.661308,-0.69391 -0.404306,-0.13284 -0.854031,-0.20602 -1.184826,-0.48928 l -0.04853,-0.0447 c 3.36802,-0.43641 6.747113,-0.81455 10.08054,-1.4868 5.248103,-1.05716 10.649585,-2.88956 15.158389,-5.82602 5.699174,-3.71157 10.04906,-8.86279 11.446585,-15.64757 1.22916,-5.96792 0.03569,-12.68277 -3.299505,-17.788303 l 0.119319,-0.122794 4.56299,0.54064 c 6.848873,0.254538 14.234216,-1.478937 20.056908,-5.165163 2.64925,-1.677087 4.98769,-3.735568 7.27493,-5.866689 z"
       id="path3"
       sodipodi:nodetypes="cccccccccscccccccccccccccc"
       style="fill:none;fill-opacity:1;stroke:#d15151;stroke-width:2.32259258;stroke-dasharray:none;stroke-opacity:1" />
    <path
       fill="#7CC2F6"
       d="m 33.614281,38.342111 c 1.279466,-1.833251 2.456489,-3.693922 3.894603,-5.412979 7.018922,-8.389333 16.68447,-13.90136 27.437589,-15.825683 13.577573,-2.429603 27.659474,0.229997 39.035967,8.166222 8.62275,9.207975 12.62393,13.595311 14.7902,23.818614 2.39361,11.296173 1.21487,17.448079 1.61518,19.387788 -1.2041,9.38938 -3.97899,12.979116 -8.96838,18.617959 l -8.89392,7.030888 c -5.822842,3.675405 -12.537545,4.956561 -19.386604,4.702771 L 78.575801,98.288639 C 70.250326,97.738906 71.545665,97.439251 64.819602,96.803506 54.376821,96.067033 54.460673,95.291068 42.980934,90.980708 36.966472,88.45111 32.107394,81.096191 29.66388,75.075377 25.803198,65.56321 26.720094,54.344691 30.381441,44.915632 c 0.558922,-1.439329 1.210676,-2.838928 1.942711,-4.19852 0.408101,-0.757843 0.933378,-1.506085 1.259725,-2.297978 z"
       id="path5"
       style="fill:none;fill-opacity:1;stroke:#d15151;stroke-width:2.32259258;stroke-dasharray:none;stroke-opacity:1"
       sodipodi:nodetypes="ccccscccccccccccc" />
    <text
       xml:space="preserve"
       style="font-size:148.144px;font-family:Gabriola;-inkscape-font-specification:'Gabriola, Normal';fill:#d15151;fill-opacity:1;stroke:none;stroke-width:0.269287;stroke-dasharray:none;stroke-opacity:1;paint-order:markers fill stroke"
       x="122.98837"
       y="124.82559"
       id="text1"><tspan
         sodipodi:role="line"
         id="tspan1"
         style="stroke-width:0.269291;stroke:none"
         x="122.98837"
         y="124.82559">Mind</tspan></text>
    <path
       style="fill:#d80000;fill-opacity:1;stroke-width:3.49882"
       id="path1-3"
       sodipodi:type="arc"
       sodipodi:cx="74.908852"
       sodipodi:cy="55.348866"
       sodipodi:rx="37.176922"
       sodipodi:ry="39.043968"
       sodipodi:start="0.027304543"
       sodipodi:end="6.2831853"
       sodipodi:open="true"
       sodipodi:arc-type="arc"
       d="M 112.07192,56.414811 A 37.176922,39.043968 0 0 1 74.147581,94.384647 37.176922,39.043968 0 0 1 37.735394,54.815843 37.176922,39.043968 0 0 1 75.162624,16.305807 37.176922,39.043968 0 0 1 112.08577,55.348866" />
    <path
       style="fill:#ffffff;fill-opacity:1;stroke-width:3.34545"
       id="path1"
       sodipodi:type="arc"
       sodipodi:cx="74.880028"
       sodipodi:cy="54.566803"
       sodipodi:rx="35.50272"
       sodipodi:ry="37.379631"
       sodipodi:start="0.027304543"
       sodipodi:end="6.2831853"
       sodipodi:open="true"
       sodipodi:arc-type="arc"
       d="M 110.36951,55.58731 A 35.50272,37.379631 0 0 1 74.153039,91.938596 35.50272,37.379631 0 0 1 39.380616,54.056502 35.50272,37.379631 0 0 1 75.122372,17.188043 35.50272,37.379631 0 0 1 110.38275,54.566803" />
    <rect
       style="fill:#cc0400;fill-opacity:1;stroke-width:4.1036"
       id="rect1"
       width="43.670288"
       height="44.625092"
       x="80.161438"
       y="-60.419685"
       transform="matrix(0.5298425,0.84809606,-0.5441132,0.83901181,0,0)" />
    <path
       id="path3-2"
       style="fill:#ffffff;stroke-width:4.17674"
       d="m 98.775343,54.888565 -23.728744,2.71407 -23.728727,-2.71407 23.728727,-0.542803 z"
       sodipodi:nodetypes="ccccc" />
    <path
       id="path4"
       style="fill:#ffffff;stroke-width:2.36508"
       inkscape:transform-center-x="-0.00029899198"
       inkscape:transform-center-y="-0.42374246"
       d="m 74.116083,55.27629 0.954195,-40.116648 0.981435,39.742019 z" />
  </g>
</svg>
