<?xml version="1.0" encoding="UTF-8" standalone="no"?>
<svg
   width="63mm"
   height="88mm"
   version="1.1"
   id="svg61"
   sodipodi:docname="item-hammer.svg"
   inkscape:version="1.3.2 (091e20e, 2023-11-25, custom)"
   xmlns:inkscape="http://www.inkscape.org/namespaces/inkscape"
   xmlns:sodipodi="http://sodipodi.sourceforge.net/DTD/sodipodi-0.dtd"
   xmlns="http://www.w3.org/2000/svg"
   xmlns:svg="http://www.w3.org/2000/svg">
  <sodipodi:namedview
     id="namedview61"
     pagecolor="#ffffff"
     bordercolor="#000000"
     borderopacity="0.25"
     inkscape:showpageshadow="2"
     inkscape:pageopacity="0.0"
     inkscape:pagecheckerboard="0"
     inkscape:deskcolor="#d1d1d1"
     inkscape:document-units="mm"
     inkscape:zoom="1.9351156"
     inkscape:cx="48.834293"
     inkscape:cy="142.36876"
     inkscape:window-width="1920"
     inkscape:window-height="1017"
     inkscape:window-x="-8"
     inkscape:window-y="-8"
     inkscape:window-maximized="1"
     inkscape:current-layer="svg61" />
  <path
     fill="#5a453f"
     d="m 147.34223,86.520622 c -0.9739,0.418291 -1.98797,1.622325 -2.82384,2.32991 l -7.36912,6.092543 c 0.0214,0.904969 0.20172,1.961734 0.12501,2.840291 1.21959,-0.621287 2.54213,-2.018364 3.61445,-2.913383 l 4.33418,-3.624046 c 0.83531,-0.708308 1.71694,-1.391289 2.45274,-2.205073 0.186,-0.83785 -0.12012,-1.712607 -0.33342,-2.520242 z"
     id="path2"
     style="stroke-width:0.180922" />
  <path
     fill="#5a453f"
     d="m 30.250711,97.255615 -0.380117,-0.434753 -0.225066,0.04306 c 0.689311,2.711473 1.621784,5.383508 2.548646,8.021348 0.921072,2.62065 1.839974,5.23262 2.974353,7.77149 4.250577,9.51395 10.378398,18.47394 17.946356,25.65182 2.247773,2.1318 4.629067,4.33669 7.299109,5.92755 l 4.311548,2.57379 c 0.895923,0.54728 1.934235,1.28581 2.921886,1.63933 l 0.220725,0.068 10.866163,-8.62292 -0.58293,-1.41029 -11.261295,6.79145 -0.105471,-0.2144 -1.313674,0.88181 c -3.181516,-2.53651 -6.347646,-5.10578 -9.28817,-7.92219 -7.720294,-7.39483 -14.368266,-16.12865 -19.171739,-25.68547 z"
     id="path3"
     style="stroke-width:0.180922" />
  <path
     fill="#cc8e55"
     d="m 157.18564,194.07918 c -0.39695,0.42806 -1.11701,1.02184 -1.34046,1.54308 l 6.89999,6.63639 c 0.86771,0.86951 1.94058,1.78245 2.64182,2.78837 0.83985,1.20493 1.43128,2.73554 2.08098,4.05806 0.38644,0.78703 1.01026,1.73506 1.22067,2.57092 l -2.56963,1.42203 c 1.28381,1.38948 2.08584,3.32716 3.21263,4.86318 l 0.099,0.0452 3.31376,6.10973 -0.0462,0.13746 2.22352,3.56597 0.0631,-0.009 c 0.31354,0.85393 0.82338,1.61743 1.25216,2.4171 l 2.07879,4.07075 -0.0326,0.13395 2.20906,3.66367 0.0954,0.0148 c 0.32004,0.97878 0.89971,1.94674 1.37662,2.8622 0.61187,1.17237 1.19751,2.38817 1.90402,3.50626 l 1.93459,3.52979 0.089,0.0289 3.54973,6.38653 0.11788,-0.004 c 0.41996,1.19046 1.4107,2.47863 2.00888,3.62928 l 0.95103,-0.41791 c 0.35084,0.95525 1.05985,2.3972 1.00107,3.41037 l -0.0205,0.12301 c -0.24143,0.51927 -0.6022,0.68389 -1.07626,1.00051 l -3.59175,2.15479 3.90533,6.58374 c 0.68767,1.20494 1.51015,2.4334 2.04506,3.70889 l 4.45391,-2.65231 1.40126,-0.84852 -3.07192,-6.60907 -5.29293,-11.3438 -18.05593,-35.46067 -4.97952,-9.93261 c -0.72151,-1.44194 -1.40395,-3.18966 -2.33696,-4.49229 -0.56664,-0.79226 -1.51902,-1.49369 -2.24289,-2.15098 l -4.59794,-4.20118 c -0.93736,-0.85848 -1.98526,-1.70808 -2.77028,-2.70822 z"
     id="path4"
     style="stroke-width:0.180922" />
  <path
     fill="#fdc322"
     d="m 190.6563,253.82715 -1.09672,0.59342 c 0.41995,1.19047 1.4107,2.47864 2.00888,3.62929 l 0.95103,-0.41792 z"
     id="path5"
     style="stroke-width:0.180922" />
  <path
     fill="#fdc322"
     d="m 185.33272,243.63945 -1.46438,0.83946 1.93459,3.52981 0.0889,0.0289 1.3732,-0.63866 z"
     id="path6"
     style="stroke-width:0.180922" />
  <path
     fill="#fdc322"
     d="m 179.90815,233.421 -1.5923,0.87746 -0.0326,0.13394 2.20906,3.66367 0.0953,0.0148 c 0.37958,-0.28584 0.93338,-0.48848 1.36632,-0.69654 z"
     id="path7"
     style="stroke-width:0.180922" />
  <path
     fill="#fdc322"
     d="m 174.59302,223.22243 -1.84865,0.89375 -0.0462,0.13747 2.22353,3.56596 0.0631,-0.009 1.53747,-0.83406 z"
     id="path8"
     style="stroke-width:0.180922" />
  <path
     fill="#e1a76b"
     d="m 187.26514,247.399 -1.37319,0.63866 3.54974,6.38653 0.11789,-0.004 1.09672,-0.59342 z"
     id="path9"
     style="stroke-width:0.180922" />
  <path
     fill="#e1a76b"
     d="m 181.954,237.41393 c -0.43294,0.20806 -0.98674,0.41069 -1.36631,0.69654 0.32005,0.97878 0.89972,1.94673 1.37662,2.8622 0.61189,1.17237 1.19753,2.38816 1.90403,3.50624 l 1.46438,-0.83946 z"
     id="path10"
     style="stroke-width:0.180922" />
  <path
     fill="#e1a76b"
     d="m 176.52237,226.97654 -1.53746,0.83406 c 0.31353,0.85394 0.82337,1.61743 1.25215,2.41711 l 2.07879,4.07075 1.5923,-0.87746 -2.09634,-4.04001 c -0.40744,-0.80328 -0.75246,-1.67895 -1.28944,-2.40445 z"
     id="path11"
     style="stroke-width:0.180922" />
  <path
     fill="#fdc322"
     d="m 168.68864,211.676 -2.56963,1.42203 c 1.28381,1.38948 2.08584,3.32716 3.21263,4.86318 l 0.099,0.0452 1.92084,-1.0964 z"
     id="path12"
     style="stroke-width:0.180922" />
  <path
     fill="#e1a76b"
     d="m 174.59302,223.22243 -3.24158,-6.31237 -1.92083,1.09639 3.31376,6.10973 z"
     id="path13"
     style="stroke-width:0.180922" />
  <path
     fill="#a67342"
     d="m 199.23642,271.96095 c -1.55615,-2.52386 -2.70681,-5.33359 -4.09291,-7.95694 -0.50077,-0.94804 -0.97567,-2.00101 -1.64338,-2.83868 -0.24144,0.51926 -0.6022,0.68388 -1.07627,1.0005 l -3.59175,2.15479 3.90532,6.58374 c 0.68767,1.20495 1.51016,2.43339 2.04506,3.7089 z"
     id="path14"
     style="stroke-width:0.180922" />
  <defs
     id="defs15">
    <linearGradient
       id="gradient_0"
       gradientUnits="userSpaceOnUse"
       x1="909.93689"
       y1="631.48102"
       x2="845.58447"
       y2="469.77243"
       gradientTransform="matrix(-0.18092179,0,0,0.18092179,207.46561,22.348566)">
      <stop
         offset="0"
         stop-color="#65453D"
         id="stop14" />
      <stop
         offset="1"
         stop-color="#777271"
         id="stop15" />
    </linearGradient>
  </defs>
  <path
     fill="url(#gradient_0)"
     d="m 31.924962,98.41623 -1.674251,-1.160615 6.760324,15.079655 c 4.803473,9.55683 11.451445,18.29065 19.171739,25.68547 2.940524,2.81641 6.106654,5.38568 9.288163,7.9222 l 1.313674,-0.8818 c -0.689312,-1.4767 -1.533676,-3.00314 -2.056177,-4.54333 -1.213442,-2.27598 -2.195123,-4.76058 -3.270884,-7.11257 l -4.478719,-9.61237 -4.061151,-8.92398 c -0.378669,-0.78158 -0.812702,-2.05834 -1.47162,-2.63024 -1.438508,-1.24871 -3.207561,-2.30711 -4.764575,-3.41399 l -9.853362,-6.94631 c -1.566421,-1.07811 -3.426296,-2.134153 -4.832059,-3.396446 z"
     id="path15"
     style="fill:url(#gradient_0);stroke-width:0.180922" />
  <path
     fill="#a2a2a1"
     d="m 140.86883,68.107488 -6.61557,-13.999367 -1.78896,-3.443303 c -0.2542,-0.463523 -0.49229,-1.022209 -0.8174,-1.436882 -0.36058,-0.459722 -1.08988,-0.830431 -1.57349,-1.170926 l -4.44959,-3.058483 -14.12764,-9.453272 -9.45551,7.180712 c -0.48758,0.370528 -1.53042,0.914742 -1.86531,1.339728 -0.0559,0.0711 -0.0461,0.174945 -0.0693,0.262335 0.0979,-0.01261 0.19593,-0.05209 0.29346,-0.038 0.37161,0.05392 15.14876,10.247772 16.75173,11.335293 l 2.81315,1.904564 c 0.38393,0.259442 0.82573,0.6439 1.2699,0.763671 l 0.19775,0.13678 1.51195,3.286806 c 0.13805,0.306301 0.37071,1.014249 0.60393,1.227554 l 0.1194,-0.02442 0.26649,0.30214 c 1.94635,0.349178 3.89868,1.06364 5.79727,1.624134 z"
     id="path16"
     style="stroke-width:0.180922" />
  <path
     fill="#c9c8c7"
     d="m 121.43205,58.430342 c 0.6305,-0.03962 1.41571,-0.821205 1.92012,-1.221402 2.63585,-2.091637 4.97879,-4.547832 7.36116,-6.918632 V 50.10775 l -6.66244,5.588491 c -0.79588,0.672127 -2.37533,1.677871 -2.81659,2.597315 z"
     id="path17"
     style="stroke-width:0.180922" />
  <defs
     id="defs18">
    <linearGradient
       id="gradient_1"
       gradientUnits="userSpaceOnUse"
       x1="458.14355"
       y1="206.99518"
       x2="525.22272"
       y2="312.55994"
       gradientTransform="matrix(-0.18092179,0,0,0.18092179,207.46561,22.348566)">
      <stop
         offset="0"
         stop-color="#504F4E"
         id="stop17" />
      <stop
         offset="1"
         stop-color="#747373"
         id="stop18" />
    </linearGradient>
  </defs>
  <path
     fill="url(#gradient_1)"
     d="m 121.2343,58.293566 c -0.44416,-0.119773 -0.88597,-0.504229 -1.26988,-0.763671 l -2.81317,-1.904564 c -1.60297,-1.087521 -16.38012,-11.281379 -16.75173,-11.335294 -0.0975,-0.01408 -0.19557,0.02532 -0.29346,0.03799 0.72695,2.683072 1.80579,5.49731 2.2429,8.231039 0.32982,0.75191 2.08041,1.666469 2.80302,2.179563 l 8.55235,6.061785 c 0.77217,0.546384 2.1926,1.268623 2.74422,2.006243 0.15452,0.206611 0.25854,0.707946 0.35715,0.966122 l 1.01533,2.556063 5.02692,12.30431 3.93541,9.830566 c 0.4333,1.091683 1.02528,3.36804 1.87417,4.047765 1.32524,0.817767 7.81165,5.268802 8.61676,5.27188 0.0767,-0.878557 -0.10369,-1.935322 -0.12502,-2.840291 l 7.36912,-6.092543 c 0.83587,-0.707585 1.84994,-1.911619 2.82384,-2.329909 -0.15235,-1.241848 -0.69547,-2.643632 -1.06817,-3.843503 -1.53819,-4.951831 -3.39717,-9.791488 -5.40522,-14.569632 l -11.13773,-3.26094 c -1.89859,-0.560494 -3.85092,-1.274955 -5.79728,-1.624134 l -0.26649,-0.302139 -0.1194,0.02442 c -0.23322,-0.213299 -0.46589,-0.921247 -0.60393,-1.227548 l -1.51196,-3.286806 z"
     id="path18"
     style="fill:url(#gradient_1);stroke-width:0.180922" />
  <path
     fill="#c9c8c7"
     d="m 123.93383,63.222418 -0.26649,-0.302139 -0.1194,0.02442 8.53859,19.262745 c 0.11398,-0.701615 -0.51779,-1.883396 -0.76456,-2.56149 -2.07409,-5.700123 -4.68263,-11.006559 -7.38814,-16.423538 z"
     id="path19"
     style="stroke-width:0.180922" />
  <path
     fill="#302e30"
     d="m 136.95695,94.81498 -9.97404,-6.418923 -0.19955,0.06766 c 0.4333,1.091681 1.02528,3.368039 1.87417,4.047763 1.32524,0.817768 7.81165,5.268804 8.61676,5.271881 0.0767,-0.878557 -0.10369,-1.935321 -0.12502,-2.840291 z"
     id="path20"
     style="stroke-width:0.180922" />
  <defs
     id="defs21">
    <linearGradient
       id="gradient_2"
       gradientUnits="userSpaceOnUse"
       x1="382.60092"
       y1="248.73871"
       x2="428.29596"
       y2="385.48993"
       gradientTransform="matrix(-0.18092179,0,0,0.18092179,207.46561,22.348566)">
      <stop
         offset="0"
         stop-color="#838281"
         id="stop20" />
      <stop
         offset="1"
         stop-color="#A7A6A6"
         id="stop21" />
    </linearGradient>
  </defs>
  <path
     fill="url(#gradient_2)"
     d="m 140.86883,68.107488 -11.13772,-3.260936 c -1.89859,-0.560494 -3.85092,-1.274955 -5.79728,-1.624134 2.70551,5.41698 5.31404,10.723415 7.38813,16.423538 0.24677,0.678094 0.87855,1.859876 0.76456,2.56149 l 4.87043,12.607534 0.19232,0.128093 7.36912,-6.092543 c 0.83587,-0.707584 1.84994,-1.911618 2.82384,-2.32991 -0.15235,-1.241846 -0.69547,-2.64363 -1.06817,-3.843502 -1.53819,-4.951831 -3.39717,-9.791489 -5.40523,-14.56963 z"
     id="path21"
     style="fill:url(#gradient_2);stroke-width:0.180922" />
  <path
     fill="#a2a2a1"
     d="m 44.124156,89.329253 -0.07582,-0.01408 c -1.120623,-0.250942 -2.568181,-1.572756 -3.639055,-2.126738 l -10.885522,9.179792 c 0.02208,0.209507 0.01664,0.311184 0.121761,0.495725 l 0.225067,-0.04306 0.380116,0.434754 1.674251,1.160613 0.0711,0.06567 c 1.405763,1.262291 3.265639,2.318331 4.83206,3.396441 l 9.853363,6.94631 c 1.557012,1.10689 3.326065,2.16528 4.764574,3.41401 0.658919,0.57189 1.09295,1.84866 1.471619,2.63024 l 4.061151,8.92397 4.478719,9.61237 c 1.075762,2.35199 2.057442,4.83659 3.270886,7.11257 0.522502,1.5402 1.366866,3.06663 2.056177,4.54332 l 0.105471,0.21439 11.261295,-6.79144 c -0.381564,-1.20783 -1.025284,-2.3898 -1.502193,-3.57067 -0.178577,-0.442 -0.417748,-0.78701 -0.282422,-1.25795 -0.569903,-0.39876 -1.137453,-2.314 -1.424214,-2.99408 l -3.94825,-9.30539 -6.088562,-15.54516 c -0.732363,-1.18865 -0.911475,-3.00294 -1.870724,-4.0029 L 50.03107,93.20423 46.059837,90.58991 c -0.648785,-0.420823 -1.359808,-0.73798 -1.935683,-1.260661 z"
     id="path22"
     style="stroke-width:0.180922" />
  <defs
     id="defs23">
    <linearGradient
       id="gradient_3"
       gradientUnits="userSpaceOnUse"
       x1="788.71368"
       y1="513.73199"
       x2="763.2749"
       y2="676.69598"
       gradientTransform="matrix(-0.18092179,0,0,0.18092179,207.46561,22.348566)">
      <stop
         offset="0"
         stop-color="#696865"
         id="stop22" />
      <stop
         offset="1"
         stop-color="#AAA6A4"
         id="stop23" />
    </linearGradient>
  </defs>
  <path
     fill="url(#gradient_3)"
     d="m 63.611242,120.3217 c -3.110046,-0.76892 -6.109729,-1.89208 -8.765661,-3.70402 0.226876,0.47276 1.68963,3.98228 1.716949,3.99223 l 5.765073,13.52553 1.788772,4.17043 c 0.267404,0.65386 0.623638,1.32905 0.748657,2.02542 l -0.136596,0.18652 c 0.522501,1.54019 1.366865,3.06663 2.056177,4.54333 l 0.10547,0.21438 11.261296,-6.79144 c -0.381564,-1.20783 -1.025284,-2.3898 -1.502193,-3.57067 -0.178576,-0.44199 -0.417748,-0.78701 -0.28242,-1.25795 -0.569904,-0.39876 -1.137454,-2.31399 -1.424216,-2.99407 l -3.948256,-9.30537 c -2.537066,-0.17386 -4.902076,-0.43782 -7.383057,-1.03432 z"
     id="path23"
     style="fill:url(#gradient_3);stroke-width:0.180922" />
  <defs
     id="defs25">
    <linearGradient
       id="gradient_4"
       gradientUnits="userSpaceOnUse"
       x1="767.78839"
       y1="315.18015"
       x2="550.42072"
       y2="184.83957"
       gradientTransform="matrix(-0.18092179,0,0,0.18092179,207.46561,22.348566)">
      <stop
         offset="0"
         stop-color="#B6B5B5"
         id="stop24" />
      <stop
         offset="1"
         stop-color="#ECEEEF"
         id="stop25" />
    </linearGradient>
  </defs>
  <path
     fill="url(#gradient_4)"
     d="M 96.395358,48.344133 C 95.612329,47.784 94.706813,46.940903 93.840019,46.549389 l -2.850424,1.662127 -30.731195,22.281968 3.28554,1.649464 0.08629,-0.05952 c 1.807229,0.924692 3.861595,1.532589 5.79384,2.139763 5.236421,1.645846 10.540684,2.820208 15.948437,3.753766 1.171287,0.20227 2.372247,0.230132 3.537201,0.441268 l 3.619343,0.301234 c -0.933921,0.813967 -1.961013,1.430729 -2.97526,2.132344 l -4.953459,3.439866 c 0.172055,0.01882 0.272289,0.02749 0.434395,-0.038 l 0.02642,0.116327 c 0.07653,0.301416 0.286762,0.673391 0.489937,0.905331 -0.431681,0.259625 -0.936271,0.825909 -1.37971,0.956172 l -0.04214,0.265595 11.385589,-8.081416 c 0.08667,0.09643 0.13515,0.144913 0.249491,0.211499 l 0.339409,-0.03329 0.07635,0.06369 c 0.197385,0.131703 0.482518,0.129906 0.711927,0.174406 1.388394,0.269214 2.917002,0.251664 4.33109,0.377765 l 13.9498,0.80094 c 1.75676,0.01723 3.64684,-0.235377 5.37465,-0.108378 l 0.0318,-0.105305 c 0.83025,-0.234293 1.578,-0.656926 2.26858,-1.16387 l -5.02691,-12.304309 -1.01533,-2.556063 c -0.0986,-0.258176 -0.20264,-0.75951 -0.35715,-0.966122 -0.55163,-0.73762 -1.97205,-1.459859 -2.74423,-2.006243 l -8.55235,-6.061764 c -0.72261,-0.513094 -2.4732,-1.427654 -2.80303,-2.179564 -0.54367,-0.03041 -1.16043,-0.654033 -1.60026,-0.980598 -1.433441,-1.06418 -2.851867,-2.277986 -4.353337,-3.234338 z"
     id="path25"
     style="fill:url(#gradient_4);stroke-width:0.180922" />
  <defs
     id="defs27">
    <linearGradient
       id="gradient_5"
       gradientUnits="userSpaceOnUse"
       x1="806.25653"
       y1="270.99008"
       x2="634.33551"
       y2="147.63008"
       gradientTransform="matrix(-0.18092179,0,0,0.18092179,207.46561,22.348566)">
      <stop
         offset="0"
         stop-color="#969595"
         id="stop26" />
      <stop
         offset="1"
         stop-color="#B9B7B7"
         id="stop27" />
    </linearGradient>
  </defs>
  <path
     fill="url(#gradient_5)"
     d="M 90.989595,48.211516 60.2584,70.493484 l 3.28554,1.649464 0.08629,-0.05952 30.310734,-21.726174 z"
     id="path27"
     style="fill:url(#gradient_5);stroke-width:0.180922" />
  <defs
     id="defs29">
    <linearGradient
       id="gradient_6"
       gradientUnits="userSpaceOnUse"
       x1="694.57776"
       y1="313.24817"
       x2="517.15894"
       y2="203.23688"
       gradientTransform="matrix(-0.18092179,0,0,0.18092179,207.46561,22.348566)">
      <stop
         offset="0"
         stop-color="#C9CDD2"
         id="stop28" />
      <stop
         offset="1"
         stop-color="#F9FBFB"
         id="stop29" />
    </linearGradient>
  </defs>
  <path
     fill="url(#gradient_6)"
     d="m 96.395358,48.344133 -0.255824,0.08557 -2.281243,-1.680221 c -0.399657,0.233209 -2.226062,1.157718 -2.410058,1.467639 0.794608,0.648966 1.820254,1.534757 2.755257,1.948165 l 0.950021,-0.407075 -5.42e-4,0.202814 c -0.377586,0.268849 -0.875483,0.392781 -1.310599,0.546202 l 19.24429,13.434167 c -2.12854,1.796554 -4.66959,3.300195 -6.96096,4.899363 l -9.452447,6.884436 c -1.346057,0.986023 -2.918811,1.872177 -4.144193,2.994255 -0.933921,0.813966 -1.961013,1.430729 -2.97526,2.132344 l -4.953459,3.439866 c 0.172054,0.01883 0.272289,0.0275 0.434394,-0.038 l 0.02642,0.116326 c 0.07653,0.301416 0.286761,0.673391 0.489937,0.905331 -0.431681,0.259625 -0.936271,0.825909 -1.37971,0.956173 l -0.04214,0.265594 11.385589,-8.081416 18.921349,-13.523904 3.18404,7.838618 1.91905,4.632321 c 0.33398,0.793705 0.62907,1.680945 1.04011,2.434302 0.83026,-0.234292 1.578,-0.656926 2.26859,-1.163868 l -5.02692,-12.30431 -1.01533,-2.556063 c -0.0986,-0.258177 -0.20263,-0.759511 -0.35714,-0.966122 -0.55163,-0.73762 -1.97205,-1.459859 -2.74423,-2.006242 l -8.55237,-6.061766 c -0.7226,-0.513095 -2.47319,-1.427654 -2.80302,-2.179564 -0.54367,-0.03041 -1.16044,-0.654033 -1.60026,-0.980598 -1.433443,-1.06418 -2.851868,-2.277986 -4.353339,-3.234338 z"
     id="path29"
     style="fill:url(#gradient_6);stroke-width:0.180922" />
  <path
     fill="#c9c8c7"
     d="m 120.57936,79.797024 c -0.41105,-0.753357 -0.70613,-1.640598 -1.04011,-2.434303 l -1.91905,-4.632319 -3.18404,-7.83862 -18.921349,13.523905 c 0.08667,0.09643 0.13515,0.144914 0.249492,0.211499 l 0.339409,-0.03329 0.07635,0.06369 c 0.197385,0.131705 0.482517,0.129908 0.711927,0.174408 1.388394,0.269213 2.917002,0.251662 4.331091,0.377765 l 13.9498,0.80094 c 1.75676,0.01723 3.64685,-0.235377 5.37465,-0.108379 z"
     id="path30"
     style="stroke-width:0.180922" />
  <defs
     id="defs31">
    <linearGradient
       id="gradient_7"
       gradientUnits="userSpaceOnUse"
       x1="759.4826"
       y1="606.80603"
       x2="638.15863"
       y2="325.23538"
       gradientTransform="matrix(-0.18092179,0,0,0.18092179,207.46561,22.348566)">
      <stop
         offset="0"
         stop-color="#434343"
         id="stop30" />
      <stop
         offset="1"
         stop-color="#656364"
         id="stop31" />
    </linearGradient>
  </defs>
  <path
     fill="url(#gradient_7)"
     d="m 60.2584,70.493484 -4.19033,3.059205 c -0.692749,0.514181 -1.54652,1.027817 -2.12981,1.661588 -2.109368,1.096023 -4.154328,3.016509 -6.063595,4.439095 -1.116649,0.83206 -2.52006,1.621965 -3.495952,2.594239 -0.419014,0.417748 -0.713374,0.964676 -0.887421,1.526256 -0.574246,1.85264 -0.03203,3.803882 0.632864,5.555386 0.575875,0.522681 1.286898,0.839838 1.935683,1.260661 l 3.971233,2.61432 13.003934,8.603736 c 0.959249,0.99996 1.138361,2.81424 1.870731,4.0029 l 6.088563,15.54515 3.948256,9.30537 c 0.286761,0.68008 0.854312,2.59531 1.424216,2.99407 1.419152,1.05115 2.918268,2.36573 4.469492,3.18911 0.294903,0.20679 0.760957,0.3385 1.114478,0.40761 4.394771,0.85793 7.462301,-3.55691 10.712198,-5.67822 l 0.147082,-0.0952 4.69112,-3.60777 7.073328,-5.3846 0.84201,-0.62653 c -0.14636,0.23575 -0.28187,0.51256 -0.49067,0.698 l 1.41609,2.52657 c 0.11089,0.20445 0.33453,0.46769 0.37414,0.68733 l 5.67171,-4.459 1.29776,-0.96612 2.94413,-1.92393 -1.91885,-3.76715 10.38871,-7.8768 2.82474,-2.09073 c 0.54548,-0.40291 1.22483,-0.825 1.67225,-1.33485 0.87223,-0.99397 1.33304,-2.58428 1.61835,-3.853625 l -0.01,-1.299561 -0.15251,-0.137855 -2.69067,2.019811 -0.28676,0.15125 -23.87574,17.88647 -17.674443,13.11702 c -0.119589,-0.0984 -0.174408,-0.11507 -0.330002,-0.13226 -0.34357,-0.0379 -0.62617,-0.0572 -0.919987,-0.26506 -1.06364,-0.75263 -1.801076,-1.95467 -2.507034,-3.02429 l -2.725948,-4.08323 c -0.318241,-0.46278 -0.747389,-1.30498 -1.30336,-1.46871 -0.179299,-0.12773 -0.333259,-0.58473 -0.433851,-0.78755 L 77.081955,119.07207 66.9905,99.023585 c 1.23461,-0.58293 2.503776,-1.595188 3.602153,-2.409517 l 5.014246,-3.742368 6.279072,-4.638473 c 0.736895,-0.557239 1.578905,-1.098195 2.243251,-1.736124 l 0.04214,-0.265595 c 0.443439,-0.130258 0.94803,-0.696548 1.379709,-0.956171 -0.203175,-0.231942 -0.413407,-0.603916 -0.489936,-0.905332 l -0.02642,-0.116328 c -0.162106,0.0655 -0.262338,0.0568 -0.434394,0.038 l 4.953459,-3.439866 c 1.014246,-0.701614 2.041339,-1.318377 2.975258,-2.132345 L 88.9097,78.418234 C 87.74475,78.207094 86.543791,78.179231 85.372505,77.976961 79.964751,77.043404 74.660487,75.869042 69.424066,74.223196 67.491822,73.616022 65.437455,73.008125 63.630227,72.083432 l -0.08629,0.05952 z"
     id="path31"
     style="fill:url(#gradient_7);stroke-width:0.180922" />
  <path
     fill="#6f6e6e"
     d="m 86.525169,131.23672 c -0.119588,-0.0984 -0.174406,-0.11507 -0.330001,-0.13226 -0.34357,-0.0379 -0.626171,-0.0572 -0.919988,-0.26506 -1.063639,-0.75263 -1.801075,-1.95467 -2.507033,-3.02429 l -2.725949,-4.08323 c -0.318241,-0.46279 -0.747389,-1.30498 -1.30336,-1.46871 0.85395,1.90908 4.064227,8.95852 5.685286,9.5295 0.709576,0.24987 1.412999,-0.18253 2.019629,-0.51128 z"
     id="path32"
     style="stroke-width:0.180922" />
  <path
     fill="#ac591c"
     d="m 114.7108,114.65559 -9.29431,7.20431 c -0.14637,0.23575 -0.28187,0.51256 -0.49067,0.698 l 1.41609,2.52657 c 0.11089,0.20445 0.33452,0.46769 0.37414,0.68732 l 5.67171,-4.459 1.29775,-0.96612 2.94414,-1.92393 z"
     id="path33"
     style="stroke-width:0.180922" />
  <path
     fill="#302e30"
     d="m 80.836264,136.84457 c -0.07996,-1.14415 -1.271156,-2.94523 -1.775928,-4.01013 l -13.983446,-27.09486 -0.171147,0.0713 6.088563,15.54516 3.948256,9.30536 c 0.286761,0.68009 0.854312,2.59532 1.424215,2.99408 1.419152,1.05115 2.918269,2.36573 4.469492,3.1891 z"
     id="path34"
     style="stroke-width:0.180922" />
  <defs
     id="defs35">
    <linearGradient
       id="gradient_8"
       gradientUnits="userSpaceOnUse"
       x1="859.73029"
       y1="394.6098"
       x2="661.81024"
       y2="273.70575"
       gradientTransform="matrix(-0.18092179,0,0,0.18092179,207.46561,22.348566)">
      <stop
         offset="0"
         stop-color="#7F7E7E"
         id="stop34" />
      <stop
         offset="1"
         stop-color="#C7C6C5"
         id="stop35" />
    </linearGradient>
  </defs>
  <path
     fill="url(#gradient_8)"
     d="m 63.630239,72.083424 -0.0863,0.05953 -7.693337,5.777014 -5.921932,4.475281 c -1.205481,0.905695 -2.693383,1.862049 -3.693699,2.983945 l 15.182954,9.993209 c 1.790946,1.169479 3.673799,2.686509 5.572573,3.651183 1.234611,-0.582929 2.503777,-1.595187 3.602153,-2.409515 l 5.014246,-3.742369 6.279071,-4.638473 c 0.736897,-0.557239 1.578906,-1.098195 2.243252,-1.736125 l 0.04214,-0.265594 c 0.443439,-0.130259 0.94803,-0.696549 1.379709,-0.956171 -0.203175,-0.231942 -0.413407,-0.603916 -0.489936,-0.905331 l -0.02642,-0.116329 c -0.162106,0.0655 -0.262338,0.0568 -0.434394,0.038 l 4.953459,-3.439866 c 1.014246,-0.701615 2.041339,-1.318377 2.975258,-2.132345 L 88.90971,78.418234 C 87.744755,78.207097 86.543796,78.179235 85.372508,77.976964 79.964755,77.043408 74.660492,75.869046 69.424071,74.2232 67.491827,73.616026 65.43746,73.008129 63.630232,72.083436 Z"
     id="path35"
     style="fill:url(#gradient_8);stroke-width:0.180922" />
  <defs
     id="defs37">
    <linearGradient
       id="gradient_9"
       gradientUnits="userSpaceOnUse"
       x1="723.88647"
       y1="554.65717"
       x2="532.28381"
       y2="345.11398"
       gradientTransform="matrix(-0.18092179,0,0,0.18092179,207.46561,22.348566)">
      <stop
         offset="0"
         stop-color="#676666"
         id="stop36" />
      <stop
         offset="1"
         stop-color="#B8B7B7"
         id="stop37" />
    </linearGradient>
  </defs>
  <path
     fill="url(#gradient_9)"
     d="m 95.514811,78.415687 -11.385589,8.081416 c -0.664346,0.637929 -1.506356,1.178885 -2.243251,1.736124 l -6.279072,4.638473 -5.014246,3.742368 c -1.098377,0.814329 -2.367543,1.826587 -3.602153,2.409517 l 10.091455,20.048485 1.223031,2.40355 c 0.100599,0.20282 0.254559,0.65982 0.433852,0.78755 0.555971,0.16374 0.985119,1.00593 1.30336,1.46872 l 2.725949,4.08323 c 0.705958,1.06961 1.443394,2.27166 2.507033,3.02429 0.293817,0.20787 0.576418,0.22724 0.919988,0.26505 0.155584,0.0172 0.210411,0.0339 0.330001,0.13226 l 17.674441,-13.11701 23.87571,-17.88647 0.28676,-0.15125 2.69067,-2.019816 0.15251,0.137855 0.01,1.29956 0.0454,-0.122126 c 0.5444,-1.604775 -1.53258,-4.268668 -2.29028,-5.747524 -0.19468,-0.379754 -0.44905,-0.704326 -0.31246,-1.118457 -0.84888,-0.679724 -1.44086,-2.956082 -1.87417,-4.047765 l -3.93541,-9.830565 c -0.69057,0.506943 -1.43832,0.929576 -2.26857,1.16387 l -0.0318,0.105302 c -1.72779,-0.126997 -3.61788,0.125554 -5.37464,0.10838 l -13.94995,-0.80094 C 99.8093,79.083655 98.280692,79.101217 96.892297,78.832 96.662889,78.78751 96.377756,78.78929 96.18037,78.657591 l -0.07635,-0.06369 -0.33941,0.03329 c -0.114344,-0.06658 -0.162827,-0.115068 -0.24949,-0.211499 z"
     id="path37"
     style="fill:url(#gradient_9);stroke-width:0.180922" />
  <defs
     id="defs39">
    <linearGradient
       id="gradient_10"
       gradientUnits="userSpaceOnUse"
       x1="665.42224"
       y1="470.71402"
       x2="473.96902"
       y2="327.99976"
       gradientTransform="matrix(-0.18092179,0,0,0.18092179,207.46561,22.348566)">
      <stop
         offset="0"
         stop-color="#9A9999"
         id="stop38" />
      <stop
         offset="1"
         stop-color="#C4C3C2"
         id="stop39" />
    </linearGradient>
  </defs>
  <path
     fill="url(#gradient_10)"
     d="m 95.514811,78.415687 -11.385589,8.081416 c -0.664346,0.637929 -1.506356,1.178885 -2.243251,1.736124 L 75.606899,92.8717 c 1.925552,1.121353 4.555975,1.844498 6.691937,2.420916 0.693111,0.187072 1.919761,0.338685 2.504862,0.675743 7.420325,1.786782 14.935999,3.270884 22.552442,3.912251 6.91249,0.58203 13.79241,0.47076 20.71918,0.35262 l 0.28676,-0.15125 2.69067,-2.019814 0.15251,0.137855 0.01,1.299561 0.0454,-0.122126 c 0.5444,-1.604776 -1.53258,-4.268668 -2.29028,-5.747524 -0.19468,-0.379754 -0.44905,-0.704327 -0.31246,-1.118457 -0.84888,-0.679725 -1.44086,-2.956082 -1.87417,-4.047764 l -3.93541,-9.830567 c -0.69057,0.506943 -1.43832,0.929577 -2.26857,1.163869 l -0.0318,0.105305 c -1.72779,-0.126999 -3.61788,0.125553 -5.37464,0.108379 L 101.2231,79.209756 c -1.41408,-0.126109 -2.942688,-0.108547 -4.331083,-0.377765 -0.229408,-0.0445 -0.514541,-0.04271 -0.711927,-0.174407 l -0.07635,-0.06369 -0.33941,0.03329 c -0.114344,-0.06659 -0.162827,-0.115068 -0.24949,-0.2115 z"
     id="path39"
     style="fill:url(#gradient_10);stroke-width:0.180922" />
  <path
     fill="#c7d1d9"
     d="m 126.78336,88.463721 -3.93541,-9.830565 c -0.69059,0.506942 -1.43834,0.929577 -2.26859,1.163868 l -0.0318,0.105304 7.81455,20.179662 2.69066,-2.019816 0.15252,0.137855 0.01,1.29956 0.0454,-0.122126 c 0.54439,-1.604775 -1.53259,-4.268668 -2.29028,-5.747524 -0.19468,-0.379754 -0.44905,-0.704326 -0.31246,-1.118457 -0.84888,-0.679724 -1.44086,-2.956082 -1.87416,-4.047765 z"
     id="path40"
     style="stroke-width:0.180922" />
  <path
     fill="#82451c"
     d="m 116.62965,118.42274 -2.94414,1.92393 -1.29775,0.96612 -5.67171,4.459 c -0.0396,-0.21963 -0.26324,-0.48287 -0.37414,-0.68732 l -1.41609,-2.52657 c 0.2088,-0.18544 0.3443,-0.46225 0.49067,-0.698 l -0.84201,0.62652 -7.07333,5.38461 -4.69112,3.60776 2.462164,3.08001 80.117786,151.69314 3.43372,-2.1439 6.40716,-3.79937 9.55163,-5.69541 c -0.5349,-1.27551 -1.35739,-2.50395 -2.04506,-3.7089 l -3.90532,-6.58374 3.59175,-2.15479 c 0.47407,-0.31662 0.83483,-0.48124 1.07627,-1.0005 l 0.0205,-0.12301 c 0.0588,-1.01317 -0.65023,-2.45512 -1.00106,-3.41038 l -0.95104,0.41792 c -0.59817,-1.15065 -1.58893,-2.43882 -2.00888,-3.62929 l -0.11787,0.004 -3.54974,-6.38653 -0.0889,-0.0289 -1.93459,-3.5298 c -0.70651,-1.11809 -1.29215,-2.33389 -1.90403,-3.50625 -0.47691,-0.91546 -1.05658,-1.88342 -1.37663,-2.8622 l -0.0954,-0.0148 -2.20906,-3.66368 0.0326,-0.13394 -2.0788,-4.07075 c -0.42878,-0.79968 -0.93862,-1.56318 -1.25216,-2.41711 l -0.0631,0.009 -2.22352,-3.56596 0.0462,-0.13746 -3.31377,-6.10973 -0.099,-0.0452 c -1.12678,-1.53603 -1.92882,-3.47369 -3.21263,-4.86317 l 2.56964,-1.42204 c -0.21042,-0.83586 -0.83424,-1.78389 -1.22068,-2.57091 -0.6497,-1.32252 -1.24112,-2.85313 -2.08097,-4.05807 -0.70125,-1.00592 -1.77412,-1.91885 -2.64183,-2.78837 l -6.89998,-6.63639 c 0.22344,-0.52123 0.9435,-1.11502 1.34044,-1.54308 0.0148,-0.0921 -0.29056,-0.61839 -0.347,-0.72966 l -4.5587,-8.39132 -13.68654,-24.92958 z"
     id="path41"
     style="stroke-width:0.180922" />
  <path
     fill="#d97e19"
     d="m 193.52055,261.04232 c 0.0588,-1.01317 -0.65023,-2.45512 -1.00106,-3.41038 l -0.95103,0.41792 -3.71314,2.03175 c -0.57968,0.31662 -1.23606,0.74721 -1.85337,0.96613 l 1.96662,3.24392 5.53156,-3.12633 z"
     id="path42"
     style="stroke-width:0.180922" />
  <path
     fill="#e1a76b"
     d="m 193.52055,261.04232 c 0.0588,-1.01317 -0.65023,-2.45512 -1.00106,-3.41038 l -0.95103,0.41792 c 0.49866,0.9571 1.18184,2.23257 1.95209,2.99246 z"
     id="path43"
     style="stroke-width:0.180922" />
  <path
     fill="#ac591c"
     d="m 186.00195,261.04774 -0.0579,-0.0198 -11.20248,6.1857 1.86331,3.58949 11.3637,-6.51137 z"
     id="path44"
     style="stroke-width:0.180922" />
  <path
     fill="#ac591c"
     d="m 148.78634,201.78391 0.61694,15.08635 0.10946,2.70478 c 0.005,0.62236 -0.0762,1.35871 0.0268,1.96844 0.0331,0.19718 0.146,0.36002 0.27066,0.51199 l 0.0231,0.004 8.52413,-4.71846 c -0.65512,-1.53963 -1.84667,-3.1408 -2.7397,-4.56646 -2.17829,-3.47731 -4.54004,-6.98538 -6.48931,-10.58971 z"
     id="path45"
     style="stroke-width:0.180922" />
  <path
     fill="#ac591c"
     d="m 188.83211,264.32062 -8.84744,5.12009 3.14279,6.55117 c 0.66381,1.44738 1.27189,2.95626 2.1034,4.31679 l 9.55163,-5.69541 c -0.5349,-1.27551 -1.35739,-2.50395 -2.04506,-3.7089 z"
     id="path46"
     style="stroke-width:0.180922" />
  <path
     fill="#d97e19"
     d="m 185.80293,248.00872 -6.03301,3.37238 -0.0556,0.013 -10.4694,5.76778 2.70008,4.96269 c 0.26867,0.47944 0.52739,1.17962 0.87855,1.57763 l 1.91796,3.5117 11.20249,-6.18571 0.0579,0.0198 c 0.61732,-0.21893 1.2737,-0.64952 1.85337,-0.96613 l 3.71315,-2.03176 c -0.59818,-1.15066 -1.58893,-2.43881 -2.00888,-3.62928 l -0.11788,0.004 -3.54975,-6.38653 z"
     id="path47"
     style="stroke-width:0.180922" />
  <path
     fill="#fcad11"
     d="m 189.44169,254.42419 c -0.71669,0.58619 -1.64806,1.02039 -2.45986,1.46908 l -3.16288,1.75133 c 0.61477,1.16152 1.58054,2.20543 2.1251,3.38324 l 0.0579,0.0198 c 0.61732,-0.21893 1.27369,-0.64951 1.85337,-0.96614 l 3.71315,-2.03175 c -0.59818,-1.15066 -1.58894,-2.43881 -2.00889,-3.62928 z"
     id="path48"
     style="stroke-width:0.180922" />
  <path
     fill="#ac591c"
     d="m 179.76992,251.3811 -0.0556,0.013 -10.4694,5.76778 2.70008,4.96269 c 0.26867,0.47944 0.52739,1.17962 0.87855,1.57763 l 7.95604,-4.38373 c 0.99127,-0.55181 2.04985,-1.0403 2.98087,-1.68979 z"
     id="path49"
     style="stroke-width:0.180922" />
  <path
     fill="#d97e19"
     d="m 166.11901,213.09803 -0.0849,-0.009 -7.56959,4.25709 -0.1071,-0.006 -8.52413,4.71845 2.80157,4.92288 3.45199,6.14953 2.12982,3.79031 3.59473,6.51499 2.01601,3.65102 2.21539,4.10873 c 0.40562,0.77434 0.78175,1.65181 1.29178,2.3556 l 1.91035,3.60938 10.4694,-5.76778 0.0556,-0.013 6.03302,-3.37238 -1.9346,-3.52979 c -0.7065,-1.11809 -1.29214,-2.33389 -1.90402,-3.50626 -0.47691,-0.91546 -1.05659,-1.88342 -1.37664,-2.86219 l -0.0953,-0.0148 -2.20905,-3.66367 0.0326,-0.13395 -2.07879,-4.07075 c -0.42878,-0.79967 -0.93862,-1.56318 -1.25216,-2.4171 l -0.0631,0.009 -2.22353,-3.56596 0.0462,-0.13746 -3.31377,-6.10973 -0.099,-0.0452 c -1.12677,-1.53603 -1.92881,-3.4737 -3.21262,-4.86318 z"
     id="path50"
     style="stroke-width:0.180922" />
  <path
     fill="#fcad11"
     d="m 183.86834,244.47891 -4.26559,2.31038 c -0.6079,0.32023 -1.59627,0.68931 -2.04296,1.20132 l 2.15458,3.40314 0.0556,-0.013 6.03302,-3.37238 z"
     id="path51"
     style="stroke-width:0.180922" />
  <path
     fill="#fcad11"
     d="m 178.28329,234.43233 c -2.34783,1.09278 -4.552,2.73192 -6.94378,3.68899 l 1.56786,2.46417 c 0.21766,0.33289 0.45556,0.82862 0.75987,1.07467 2.34874,-0.89738 4.54874,-2.46777 6.8251,-3.56416 z"
     id="path52"
     style="stroke-width:0.180922" />
  <path
     fill="#fcad11"
     d="m 172.69823,224.25369 -7.47189,4.07797 2.24524,3.56957 c 0.65113,-0.0832 1.73377,-0.87022 2.33135,-1.20312 1.69362,-0.94804 3.51224,-1.79475 5.11882,-2.87847 z"
     id="path53"
     style="stroke-width:0.180922" />
  <path
     fill="#fcad11"
     d="m 166.11901,213.09803 -0.0849,-0.009 -7.56959,4.25709 c 0.21602,0.6242 2.51825,4.57732 2.99154,4.8849 0.70577,-0.48488 1.53422,-0.863 2.28469,-1.28094 l 5.59084,-2.98883 c -1.12679,-1.53602 -1.92881,-3.4737 -3.21263,-4.86318 z"
     id="path54"
     style="stroke-width:0.180922" />
  <path
     fill="#ac591c"
     d="m 161.4344,222.35943 c -0.82609,0.0634 -1.9753,0.91004 -2.71943,1.31531 l -6.08007,3.30723 3.45199,6.14955 6.11625,-3.24575 c 0.96124,-0.51743 2.01836,-0.95708 2.91935,-1.56678 z"
     id="path55"
     style="stroke-width:0.180922" />
  <path
     fill="#ac591c"
     d="m 167.47683,231.98266 -9.26012,4.93916 3.59474,6.51498 7.1218,-3.90971 c 0.73056,-0.41974 1.7781,-0.82682 2.34963,-1.43109 z"
     id="path56"
     style="stroke-width:0.180922" />
  <path
     fill="#ac591c"
     d="m 173.645,241.77235 -9.81755,5.31547 2.21539,4.10874 c 0.40563,0.77434 0.78177,1.65181 1.29179,2.35558 2.348,-1.56316 5.06382,-2.82417 7.53846,-4.21187 0.85449,-0.47941 1.78588,-0.89193 2.56655,-1.48173 z"
     id="path57"
     style="stroke-width:0.180922" />
  <path
     fill="#5f2d0a"
     d="m 104.57448,122.48642 -7.07333,5.38461 -4.69112,3.60776 2.462164,3.08001 80.117786,151.69314 3.43372,-2.1439 -79.224579,-152.77598 6.937629,-5.47632 z"
     id="path58"
     style="stroke-width:0.180922" />
  <defs
     id="defs59">
    <linearGradient
       id="gradient_11"
       gradientUnits="userSpaceOnUse"
       x1="437.18994"
       y1="826.04846"
       x2="338.96786"
       y2="780.28961"
       gradientTransform="matrix(-0.18092179,0,0,0.18092179,207.46561,22.348566)">
      <stop
         offset="0"
         stop-color="#C18348"
         id="stop58" />
      <stop
         offset="1"
         stop-color="#D9A26D"
         id="stop59" />
    </linearGradient>
  </defs>
  <path
     fill="url(#gradient_11)"
     d="m 116.62965,118.42274 -2.94414,1.92393 -1.29775,0.96612 -5.67171,4.459 c -0.11037,0.41812 0.34664,1.02763 0.55923,1.42241 l 16.45774,29.37735 25.05332,45.21236 0.34213,0.40056 c 1.94925,3.60432 4.311,7.11241 6.48929,10.58971 0.89303,1.42567 2.08458,3.02683 2.7397,4.56647 l 0.1071,0.006 7.56959,-4.25709 0.0849,0.009 2.56963,-1.42203 c -0.2104,-0.83586 -0.83423,-1.7839 -1.22067,-2.57091 -0.6497,-1.32253 -1.24113,-2.85313 -2.08097,-4.05807 -0.70124,-1.00594 -1.77412,-1.91886 -2.64181,-2.78837 l -6.90001,-6.63639 c 0.22345,-0.52124 0.94352,-1.11503 1.34046,-1.54309 0.0148,-0.0921 -0.29056,-0.61839 -0.34702,-0.72965 l -4.55867,-8.39169 -13.68655,-24.92957 z"
     id="path59"
     style="fill:url(#gradient_11);stroke-width:0.180922" />
  <path
     fill="#a67342"
     d="m 166.03416,213.08899 c -4.48904,-2.60528 -8.6591,-5.72618 -13.03758,-8.50694 -1.27678,-0.80872 -2.52007,-1.71044 -3.86811,-2.39758 1.94925,3.60432 4.311,7.11241 6.48929,10.58971 0.89303,1.42567 2.08458,3.02683 2.7397,4.56647 l 0.1071,0.006 z"
     id="path60"
     style="stroke-width:0.180922" />
  <path
     fill="#e1a76b"
     d="m 112.38776,121.31279 40.28478,69.96643 0.14239,-0.0627 -12.4107,-22.9843 -13.40178,-24.88886 -8.82953,-15.44295 -3.09612,-5.41408 c -0.39584,-0.67864 -0.79695,-1.62722 -1.39129,-2.13959 z"
     id="path61"
     style="stroke-width:0.180922" />
</svg>
