<?xml version="1.0" encoding="UTF-8" standalone="no"?>
<svg
   width="63mm"
   height="88mm"
   version="1.1"
   id="svg123"
   sodipodi:docname="item-healingsalve.svg"
   inkscape:version="1.3.2 (091e20e, 2023-11-25, custom)"
   xml:space="preserve"
   xmlns:inkscape="http://www.inkscape.org/namespaces/inkscape"
   xmlns:sodipodi="http://sodipodi.sourceforge.net/DTD/sodipodi-0.dtd"
   xmlns="http://www.w3.org/2000/svg"
   xmlns:svg="http://www.w3.org/2000/svg"><sodipodi:namedview
     id="namedview123"
     pagecolor="#ffffff"
     bordercolor="#000000"
     borderopacity="0.25"
     inkscape:showpageshadow="2"
     inkscape:pageopacity="0.0"
     inkscape:pagecheckerboard="0"
     inkscape:deskcolor="#d1d1d1"
     inkscape:document-units="mm"
     inkscape:zoom="0.68416665"
     inkscape:cx="47.503046"
     inkscape:cy="152.00975"
     inkscape:window-width="1350"
     inkscape:window-height="1040"
     inkscape:window-x="182"
     inkscape:window-y="0"
     inkscape:window-maximized="0"
     inkscape:current-layer="svg123" /><defs
     id="defs74"><linearGradient
       id="gradient_0"
       gradientUnits="userSpaceOnUse"
       x1="529.71039"
       y1="1148.418"
       x2="679.95923"
       y2="1009.4732"
       gradientTransform="matrix(0.17547265,-0.10737428,0.10737428,0.17547265,-48.503843,98.013793)"><stop
         offset="0"
         stop-color="#431A0C"
         id="stop73" /><stop
         offset="1"
         stop-color="#553D21"
         id="stop74" /></linearGradient><linearGradient
       id="gradient_0-6"
       gradientUnits="userSpaceOnUse"
       x1="383.3446"
       y1="240.92506"
       x2="493.68604"
       y2="394.40707"><stop
         offset="0"
         stop-color="#A4A573"
         id="stop21" /><stop
         offset="1"
         stop-color="#949F8E"
         id="stop22" /></linearGradient></defs><defs
     id="defs100"><linearGradient
       id="gradient_1"
       gradientUnits="userSpaceOnUse"
       x1="585.16687"
       y1="910.49738"
       x2="553.47638"
       y2="822.70599"
       gradientTransform="matrix(0.17547265,-0.10737428,0.10737428,0.17547265,-48.503843,98.013793)"><stop
         offset="0"
         stop-color="#521D00"
         id="stop99" /><stop
         offset="1"
         stop-color="#754016"
         id="stop100" /></linearGradient></defs><defs
     id="defs110"><linearGradient
       id="gradient_2"
       gradientUnits="userSpaceOnUse"
       x1="493.89996"
       y1="348.56442"
       x2="623.60132"
       y2="310.72467"
       gradientTransform="matrix(0.17547265,-0.10737428,0.10737428,0.17547265,-48.503843,98.013793)"><stop
         offset="0"
         stop-color="#BDC0BE"
         id="stop109" /><stop
         offset="1"
         stop-color="#F6FFFF"
         id="stop110" /></linearGradient></defs><defs
     id="defs116"><linearGradient
       id="gradient_3"
       gradientUnits="userSpaceOnUse"
       x1="524.60431"
       y1="447.21811"
       x2="676.47565"
       y2="295.28336"
       gradientTransform="matrix(0.17547265,-0.10737428,0.10737428,0.17547265,-48.503843,98.013793)"><stop
         offset="0"
         stop-color="#606062"
         id="stop115" /><stop
         offset="1"
         stop-color="#6C747E"
         id="stop116" /></linearGradient></defs><g
     id="g1"
     transform="matrix(0.26074879,0,0,0.26074879,-12.442155,31.346188)"><path
       fill="#469e3c"
       d="m 603.73,214.299 c -3.729,-9.149 -7.406,-18.244 -9.888,-27.829 -4.222,-16.301 -5.503,-33.284 -4.726,-50.075 0.487,-10.533 2.167,-20.66 4.485,-30.927 0.56,-2.481 1.367,-7.5273 3.149,-9.1498 l 1.314,1.3471 c 6.441,3.9717 12.36,9.2987 17.72,14.6147 17.689,17.544 29.526,38.951 35.235,63.22 3.832,16.291 5.162,32.609 1.951,49.139 -0.884,4.554 -2.469,9.135 -3.816,13.576 l -5.865,12.926 -1.869,6.746 c -1.791,-0.013 -4.004,-1.626 -5.575,-2.479 -2.072,0.687 -7.793,-1.938 -10.123,-2.628 -1.402,-3.568 -3.457,-6.867 -4.388,-10.604 -7.383,-8.129 -11.523,-18.841 -17.604,-27.877 z"
       id="path2" /><path
       fill="#fdfdfd"
       d="m 621.334,242.176 14.511,13.232 c -2.072,0.687 -7.793,-1.938 -10.123,-2.628 -1.402,-3.568 -3.457,-6.867 -4.388,-10.604 z"
       id="path3" /><path
       fill="#99ba3c"
       d="m 598.064,97.6653 c 6.441,3.9717 12.36,9.2987 17.72,14.6147 17.689,17.544 29.526,38.951 35.235,63.22 3.832,16.291 5.162,32.609 1.951,49.139 -0.884,4.554 -2.469,9.135 -3.816,13.576 l -5.865,12.926 -0.449,-0.636 c -3.03,-4.245 -3.915,-12.301 -5.242,-17.493 -1.974,-7.721 -4.095,-15.444 -6.275,-23.109 -7.573,-26.617 -15.068,-53.232 -23.022,-79.739 -3.25,-10.829 -7.638,-21.511 -10.237,-32.4987 z"
       id="path4" /><path
       fill="#469e3c"
       d="M 528.827,221.004 C 517.075,201.595 509.286,180.5 505.001,158.25 l 0.499,-0.689 1.814,0.818 c 24.009,5.941 49.586,17.764 69.459,32.526 3.613,2.684 7.237,5.49 10.626,8.452 2.691,2.352 14.316,14.612 16.331,14.942 6.081,9.036 10.221,19.748 17.604,27.877 0.931,3.737 2.986,7.036 4.388,10.604 2.541,9.484 7.849,17.963 10.024,27.65 l -0.236,0.82 -1.11,0.245 c -3.535,0.5 -7.457,-0.109 -10.989,-0.488 -18.355,-1.972 -38.209,-9.173 -53.731,-19.17 -7.862,-5.065 -14.372,-11.28 -21.641,-17.037 -7.176,-7.188 -13.367,-15.516 -19.212,-23.796 z"
       id="path5" /><path
       fill="#99ba3c"
       d="m 507.314,158.379 c 24.009,5.941 49.586,17.764 69.459,32.526 3.613,2.684 7.237,5.49 10.626,8.452 2.691,2.352 14.316,14.612 16.331,14.942 6.081,9.036 10.221,19.748 17.604,27.877 0.931,3.737 2.986,7.036 4.388,10.604 2.541,9.484 7.849,17.963 10.024,27.65 -2.369,-1.386 -3.983,-4.05 -6.001,-5.891 -11.293,-10.304 -22.781,-20.384 -33.995,-30.781 -19.661,-18.227 -38.817,-36.991 -58.22,-55.491 -5.824,-5.553 -11.618,-11.149 -17.467,-16.673 -4.09,-3.862 -9.842,-8.416 -12.749,-13.215 z"
       id="path6" /><path
       fill="#469e3c"
       d="m 758.167,134.332 4.948,-2.353 c -3.869,31.661 -12.162,62.168 -29.215,89.436 -8.013,12.815 -18.016,24.608 -28.741,35.228 l -24.677,19.142 c -10.493,5.775 -20.487,9.955 -32.086,12.952 -1.771,0.417 -3.326,0.88 -5.146,0.596 -1.003,-1.475 -1.448,-2.676 -1.895,-4.398 l -0.786,-2.178 c 2.243,-5.216 0.957,-11.043 2.47,-16.421 1.754,-1.495 2.133,-4.922 2.645,-7.082 -1.423,-0.556 -2.769,-1.048 -4.264,-1.367 l 1.869,-6.746 5.865,-12.926 3.996,-0.408 6.843,-15.445 c 15.565,-30.788 40.551,-55.906 69.731,-73.967 8.886,-5.5 18.486,-10.793 28.443,-14.063 z"
       id="path7" /><path
       fill="#99ba3c"
       d="m 653.15,237.807 6.843,-15.445 c 15.565,-30.788 40.551,-55.906 69.731,-73.967 8.886,-5.5 18.486,-10.793 28.443,-14.063 -2.385,3.817 -5.455,7.231 -8.205,10.793 -5.453,7.062 -11.007,14.041 -16.481,21.085 -16.948,21.808 -33.816,43.676 -50.825,65.442 -9.891,12.658 -19.286,25.707 -29.225,38.348 -3.863,4.913 -7.591,10.58 -12.076,14.935 l -0.786,-2.178 c 2.243,-5.216 0.957,-11.043 2.47,-16.421 1.754,-1.495 2.133,-4.922 2.645,-7.082 -1.423,-0.556 -2.769,-1.048 -4.264,-1.367 l 1.869,-6.746 5.865,-12.926 z"
       id="path8" /><path
       fill="#fdfdfd"
       d="m 649.154,238.215 3.996,-0.408 -7.466,21.447 c -1.423,-0.556 -2.769,-1.048 -4.264,-1.367 l 1.869,-6.746 z"
       id="path9" /><path
       fill="#839a2f"
       d="m 182.668,684.127 c 1.048,1.357 0.864,2.004 1.572,3.373 l 0.748,3.003 0.111,0.577 0.858,3.423 1.483,5.5 c 4.225,13.264 10.071,26.29 17.81,37.898 21.131,31.695 54.52,55.829 87.75,73.49 52.367,27.832 113.108,41.195 171.75,47.191 13.786,1.409 29.11,3.542 42.907,2.245 l 0.792,0.423 -0.286,26.416 8.5,0.004 -0.051,-26.17 1.875,-1.102 c 0.505,0.305 0.602,0.407 1.263,0.553 2.335,0.516 5.797,0.054 8.269,-0.052 7.422,-0.321 14.855,-0.877 22.258,-1.481 47.548,-3.88 95.399,-14.78 139.85,-32.107 20.142,-7.852 40.026,-17.091 58.415,-28.513 36.086,-22.414 71.101,-52.109 86.972,-92.779 2.917,-7.474 4.61,-15.034 6.426,-22.806 0.286,10.823 0.205,21.693 0.284,32.521 0.072,9.875 0.441,19.965 -0.723,29.792 -3.811,32.176 -21.819,61.398 -43.747,84.485 -16.892,17.785 -37.33,32.262 -58.617,44.295 -64.531,36.476 -140.586,52.042 -214.218,53.896 C 455.083,929.96 383.631,919.481 319.122,892.054 288.425,879.002 258.839,861.715 234.58,838.626 207.584,812.933 186.443,778.88 183.185,741 c -0.612,-7.111 -0.296,-14.394 -0.271,-21.532 0.04,-11.775 0.055,-23.57 -0.246,-35.341 z"
       id="path10" /><path
       fill="#99ba3c"
       d="m 842.029,507.851 -0.089,175.362 c -1.816,7.772 -3.509,15.332 -6.426,22.806 -15.871,40.67 -50.886,70.365 -86.972,92.779 -18.389,11.422 -38.273,20.661 -58.415,28.513 -44.451,17.327 -92.302,28.227 -139.85,32.107 -7.403,0.604 -14.836,1.16 -22.258,1.481 -2.472,0.106 -5.934,0.568 -8.269,0.052 -0.661,-0.146 -0.758,-0.248 -1.263,-0.553 l -1.875,1.102 0.051,26.17 -8.5,-0.004 0.286,-26.416 -0.792,-0.423 C 493.86,862.124 478.536,859.991 464.75,858.582 406.108,852.586 345.367,839.223 293,811.391 259.77,793.73 226.381,769.596 205.25,737.901 197.511,726.293 191.665,713.267 187.44,700.003 l -1.483,-5.5 -0.858,-3.423 -0.111,-0.577 -0.748,-3.003 c -0.708,-1.369 -0.524,-2.016 -1.572,-3.373 l -0.132,-171.441 c 2.338,7.138 4.29,13.818 7.714,20.589 17.883,35.366 54.155,58.758 88.504,76.11 24.426,12.339 50.341,21.319 76.702,28.452 48.283,13.064 98.339,19.567 148.293,20.526 1.487,-5.148 4.564,-11.005 7.436,-15.529 l 1.065,-1.819 c 3.948,3.53 6.517,12.095 8.621,16.985 80.676,-0.208 165.411,-16.156 236.843,-54.876 27.38,-14.842 51.928,-34.201 69.103,-60.451 4.091,-6.252 7.933,-12.571 10.807,-19.492 2.043,-4.919 2.888,-10.232 4.405,-15.33 z"
       id="path11" /><path
       fill="#469e3c"
       d="m 526.433,843.413 -0.128,-0.531 c -1.106,-5.879 -0.028,-13.69 0.907,-19.573 3.866,-24.32 12.527,-46.951 26.705,-67.16 7.642,-10.892 16.889,-20.688 26.642,-29.706 31.615,-29.231 73.41,-51.131 115.014,-62.113 7.228,-1.908 14.548,-3.052 21.899,-4.352 -2.712,4.61 -7.866,8.892 -11.677,12.622 -8.345,8.17 -16.91,16.108 -25.301,24.231 -35.94,34.792 -72.558,68.879 -108.77,103.388 -15.056,14.348 -30.857,28.228 -45.291,43.194 z"
       id="path12" /><path
       fill="#0f7b31"
       d="m 511.185,642.834 1.065,-1.819 c 3.948,3.53 6.517,12.095 8.621,16.985 10.387,25.081 14.761,50.116 14.72,77.183 -0.031,20.865 -3.085,42.079 -11.086,61.468 -2.453,5.943 -5.564,11.078 -9.322,16.277 0.555,4.129 0.267,8.531 0.279,12.711 0.024,8.564 -0.1,17.154 0.088,25.715 l 10.883,-7.941 c 14.434,-14.966 30.235,-28.846 45.291,-43.194 36.212,-34.509 72.83,-68.596 108.77,-103.388 8.391,-8.123 16.956,-16.061 25.301,-24.231 3.811,-3.73 8.965,-8.012 11.677,-12.622 -0.113,13.226 -2.578,26.409 -5.994,39.161 -10.379,38.755 -31.964,76.543 -60.579,104.738 -28.658,28.238 -65.264,47.073 -106.173,46.673 l -5.476,-0.391 -7.235,-1.32 -13.528,11.559 -1.875,1.102 0.051,26.17 -8.5,-0.004 0.286,-26.416 -0.792,-0.423 -15.641,-13.66 c -24.197,3.712 -49.749,-2.836 -71.516,-13.211 -50.126,-23.893 -85.512,-70.062 -103.71,-121.69 -4.904,-13.913 -8.553,-28.192 -11.058,-42.727 -0.355,-2.059 -1.59,-6.333 -0.732,-8.124 l 1.527,0.342 189.4,180.307 13.012,9.356 0.043,-38.538 c -4.556,-4.432 -7.366,-10.178 -9.864,-15.965 -7.53,-17.445 -10.135,-37.916 -10.208,-56.76 -0.112,-28.288 4.343,-55.477 14.839,-81.794 1.487,-5.148 4.564,-11.005 7.436,-15.529 z"
       id="path13" /><path
       fill="#469e3c"
       d="m 511.185,642.834 c 0.619,5.744 0.378,11.651 0.369,17.424 -0.013,8.747 -0.035,17.494 -0.047,26.242 -0.037,26.38 0.051,52.76 0.066,79.14 0.008,15.48 -0.62,31.169 0.424,46.61 -0.819,0.545 -0.821,0.454 -1.735,0.495 l -1.28,0.137 c -4.556,-4.432 -7.366,-10.178 -9.864,-15.965 -7.53,-17.445 -10.135,-37.916 -10.208,-56.76 -0.112,-28.288 4.343,-55.477 14.839,-81.794 1.487,-5.148 4.564,-11.005 7.436,-15.529 z"
       id="path14" /><path
       fill="#99ba3c"
       d="m 182.536,512.686 c 2.338,7.138 4.29,13.818 7.714,20.589 17.883,35.366 54.155,58.758 88.504,76.11 24.426,12.339 50.341,21.319 76.702,28.452 48.283,13.064 98.339,19.567 148.293,20.526 -10.496,26.317 -14.951,53.506 -14.839,81.794 0.073,18.844 2.678,39.315 10.208,56.76 2.498,5.787 5.308,11.533 9.864,15.965 l -0.043,38.538 -13.012,-9.356 -189.4,-180.307 -1.527,-0.342 c -0.858,1.791 0.377,6.065 0.732,8.124 2.505,14.535 6.154,28.814 11.058,42.727 18.198,51.628 53.584,97.797 103.71,121.69 21.767,10.375 47.319,16.923 71.516,13.211 l 15.641,13.66 C 493.86,862.124 478.536,859.991 464.75,858.582 406.108,852.586 345.367,839.223 293,811.391 259.77,793.73 226.381,769.596 205.25,737.901 197.511,726.293 191.665,713.267 187.44,700.003 l -1.483,-5.5 -0.858,-3.423 -0.111,-0.577 -0.748,-3.003 c -0.708,-1.369 -0.524,-2.016 -1.572,-3.373 z"
       id="path15" /><path
       fill="#469e3c"
       d="m 306.527,661.757 c 21.835,3.277 42.359,9.88 62.6,18.538 36.998,15.826 70.986,37.727 95.25,70.414 19.307,26.009 32.254,58.561 31.55,91.355 z"
       id="path16" /><path
       fill="#a6a76f"
       d="m 528.827,221.004 c 5.845,8.28 12.036,16.608 19.212,23.796 7.269,5.757 13.779,11.972 21.641,17.037 15.522,9.997 35.376,17.198 53.731,19.17 3.532,0.379 7.454,0.988 10.989,0.488 l 1.11,-0.245 0.236,-0.82 c -2.175,-9.687 -7.483,-18.166 -10.024,-27.65 2.33,0.69 8.051,3.315 10.123,2.628 1.571,0.853 3.784,2.466 5.575,2.479 1.495,0.319 2.841,0.811 4.264,1.367 -0.512,2.16 -0.891,5.587 -2.645,7.082 -1.513,5.378 -0.227,11.205 -2.47,16.421 l 0.786,2.178 c 0.447,1.722 0.892,2.923 1.895,4.398 1.82,0.284 3.375,-0.179 5.146,-0.596 11.599,-2.997 21.593,-7.177 32.086,-12.952 l 24.677,-19.142 c 11.49,4.342 22.332,10.64 32.698,17.181 26.63,16.801 53.118,38.294 66.399,67.658 9.054,20.018 9.969,38.929 6.265,60.377 0.072,4.93 -0.035,9.844 -0.166,14.772 -0.05,1.891 -0.505,4.557 0.235,6.292 18.036,17.985 32.09,40.881 32.243,67.077 l -0.804,17.851 c -1.517,5.098 -2.362,10.411 -4.405,15.33 -2.874,6.921 -6.716,13.24 -10.807,19.492 -17.175,26.25 -41.723,45.609 -69.103,60.451 -71.432,38.72 -156.167,54.668 -236.843,54.876 -2.104,-4.89 -4.673,-13.455 -8.621,-16.985 l -1.065,1.819 c -2.872,4.524 -5.949,10.381 -7.436,15.529 -49.954,-0.959 -100.01,-7.462 -148.293,-20.526 -26.361,-7.133 -52.276,-16.113 -76.702,-28.452 -34.349,-17.352 -70.621,-40.744 -88.504,-76.11 -3.424,-6.771 -5.376,-13.451 -7.714,-20.589 l -1.524,-13.691 c -1.098,-28.177 11.231,-49.549 29.912,-69.704 0.1,-8.322 0.021,-16.66 -0.06,-24.983 -0.041,-4.203 -0.589,-8.692 0.121,-12.838 l -0.536,-10.345 c -0.008,-29.051 14.295,-53.633 34.381,-73.708 27.859,-27.844 64.027,-46.055 100.865,-58.848 40.372,-14.02 82.274,-22.158 124.852,-25.739 19.373,-1.629 38.853,-1.835 58.28,-1.826 z"
       id="path17" /><path
       fill="#c5da65"
       d="m 210.924,429.291 c 0.785,15.063 0.231,30.421 0.31,45.517 0.034,6.679 -0.325,13.785 0.681,20.389 2.616,17.169 10.69,32.911 21.648,46.23 12.402,15.076 29.031,27.383 45.778,37.245 27.322,16.09 55.567,26.983 86.034,35.52 29.652,8.308 59.921,13.979 90.581,16.971 34.362,3.353 68.826,3.413 103.227,0.683 42.68,-3.387 83.918,-11.009 124.392,-25.185 32.727,-11.463 64.309,-27.198 91.097,-49.459 15.988,-13.285 32.587,-33.461 34.93,-54.702 0.83,-7.528 0.407,-15.381 0.409,-22.961 0.002,-13.363 -0.015,-26.726 -0.005,-40.09 0.003,-3.698 0.003,-7.397 0.025,-11.095 0.009,-1.517 -0.198,-3.321 0.303,-4.755 l 0.256,-0.676 c 18.036,17.985 32.09,40.881 32.243,67.077 l -0.804,17.851 c -1.517,5.098 -2.362,10.411 -4.405,15.33 -2.874,6.921 -6.716,13.24 -10.807,19.492 -17.175,26.25 -41.723,45.609 -69.103,60.451 -71.432,38.72 -156.167,54.668 -236.843,54.876 -2.104,-4.89 -4.673,-13.455 -8.621,-16.985 l -1.065,1.819 c -2.872,4.524 -5.949,10.381 -7.436,15.529 -49.954,-0.959 -100.01,-7.462 -148.293,-20.526 -26.361,-7.133 -52.276,-16.113 -76.702,-28.452 -34.349,-17.352 -70.621,-40.744 -88.504,-76.11 -3.424,-6.771 -5.376,-13.451 -7.714,-20.589 l -1.524,-13.691 c -1.098,-28.177 11.231,-49.549 29.912,-69.704 z"
       id="path18" /><path
       fill="#d8dcbc"
       d="m 528.827,221.004 c 5.845,8.28 12.036,16.608 19.212,23.796 -77.33,-2.781 -160.917,5.725 -229.533,44.18 -13.051,7.314 -25.968,15.59 -36.964,25.802 -17.335,16.1 -31.75,37.669 -32.631,61.972 -0.402,11.1 1.692,23.316 6.448,33.384 3.585,8.464 8.188,17.101 14.432,23.93 l 13.782,13.656 c 50.902,43.067 118.5,60.104 183.677,65.361 30.235,2.439 60.455,2.88 90.703,0.365 49.498,-4.116 100.31,-17.183 144.067,-40.959 10.275,-5.583 20.588,-11.65 29.645,-19.095 8.064,-6.367 16.698,-13.754 23.153,-21.769 l 8.972,-14.668 c 3.909,-15.161 2.223,-31.128 -4.977,-45.087 -13.838,-26.829 -37.89,-45.287 -63.862,-59.551 -14.938,-8.205 -31.07,-15.28 -47.294,-20.516 l 0.933,-0.476 c -0.83,-0.636 -0.853,-0.426 -1.84,-0.329 l -0.75,-0.622 -0.755,-0.128 3.219,-0.778 -0.068,-0.735 c 11.599,-2.997 21.593,-7.177 32.086,-12.952 l 24.677,-19.142 c 11.49,4.342 22.332,10.64 32.698,17.181 26.63,16.801 53.118,38.294 66.399,67.658 9.054,20.018 9.969,38.929 6.265,60.377 -3.512,11.158 -7.768,21.247 -14.177,31.085 -4.11,6.31 -8.521,12.51 -13.645,18.045 -8.385,9.057 -18.24,16.812 -28.336,23.861 -40.728,28.437 -90.348,44.358 -138.613,54.373 -64.684,13.422 -133.16,12.165 -198.037,0.938 -49.139,-8.503 -98.955,-23.235 -140.963,-50.881 -25.941,-17.071 -50.384,-40.907 -61.371,-70.565 -2.105,-5.681 -3.185,-11.335 -4.394,-17.245 l -0.536,-10.345 c -0.008,-29.051 14.295,-53.633 34.381,-73.708 27.859,-27.844 64.027,-46.055 100.865,-58.848 40.372,-14.02 82.274,-22.158 124.852,-25.739 19.373,-1.629 38.853,-1.835 58.28,-1.826 z"
       id="path19" /><path
       fill="#a6a76f"
       d="m 648.396,288.737 c 11.599,-2.997 21.593,-7.177 32.086,-12.952 36.087,17.206 75.783,40.418 89.752,80.293 6.509,18.581 5.116,38.875 -3.605,56.486 -0.802,1.619 -1.71,2.99 -2.839,4.395 3.909,-15.161 2.223,-31.128 -4.977,-45.087 -13.838,-26.829 -37.89,-45.287 -63.862,-59.551 -14.938,-8.205 -31.07,-15.28 -47.294,-20.516 l 0.933,-0.476 c -0.83,-0.636 -0.853,-0.426 -1.84,-0.329 l -0.75,-0.622 -0.755,-0.128 3.219,-0.778 z"
       id="path20" /><path
       fill="#fcca1c"
       d="m 548.039,244.8 c 7.269,5.757 13.779,11.972 21.641,17.037 15.522,9.997 35.376,17.198 53.731,19.17 3.532,0.379 7.454,0.988 10.989,0.488 l 1.11,-0.245 0.236,-0.82 c -2.175,-9.687 -7.483,-18.166 -10.024,-27.65 2.33,0.69 8.051,3.315 10.123,2.628 1.571,0.853 3.784,2.466 5.575,2.479 1.495,0.319 2.841,0.811 4.264,1.367 -0.512,2.16 -0.891,5.587 -2.645,7.082 -1.513,5.378 -0.227,11.205 -2.47,16.421 l 0.786,2.178 c 0.447,1.722 0.892,2.923 1.895,4.398 1.82,0.284 3.375,-0.179 5.146,-0.596 l 0.068,0.735 -3.219,0.778 0.755,0.128 0.75,0.622 c 0.987,-0.097 1.01,-0.307 1.84,0.329 l -0.933,0.476 c 16.224,5.236 32.356,12.311 47.294,20.516 25.972,14.264 50.024,32.722 63.862,59.551 7.2,13.959 8.886,29.926 4.977,45.087 l -8.972,14.668 c -5.307,-6.767 -10.354,-14.182 -16.608,-20.108 -25.637,-24.291 -58.333,-39.652 -91.461,-50.822 -25.472,-8.588 -52.509,-15.074 -79.226,-18.278 -65.563,-7.862 -131.697,-1.91 -194.136,19.913 -25.484,8.907 -51.126,20.697 -72.41,37.558 -12.608,9.987 -22.486,20.666 -31.186,34.178 -6.244,-6.829 -10.847,-15.466 -14.432,-23.93 -4.756,-10.068 -6.85,-22.284 -6.448,-33.384 0.881,-24.303 15.296,-45.872 32.631,-61.972 10.996,-10.212 23.913,-18.488 36.964,-25.802 68.616,-38.455 152.203,-46.961 229.533,-44.18 z"
       id="path21" /><path
       fill="url(#gradient_0)"
       d="m 548.039,244.8 c 7.269,5.757 13.779,11.972 21.641,17.037 15.522,9.997 35.376,17.198 53.731,19.17 3.532,0.379 7.454,0.988 10.989,0.488 l 1.11,-0.245 0.236,-0.82 c -2.175,-9.687 -7.483,-18.166 -10.024,-27.65 2.33,0.69 8.051,3.315 10.123,2.628 1.571,0.853 3.784,2.466 5.575,2.479 1.495,0.319 2.841,0.811 4.264,1.367 -0.512,2.16 -0.891,5.587 -2.645,7.082 -1.513,5.378 -0.227,11.205 -2.47,16.421 l 0.786,2.178 c 0.447,1.722 0.892,2.923 1.895,4.398 1.82,0.284 3.375,-0.179 5.146,-0.596 l 0.068,0.735 -3.219,0.778 0.755,0.128 0.75,0.622 c 0.987,-0.097 1.01,-0.307 1.84,0.329 l -0.933,0.476 c -27.144,-7.556 -54.735,-13.453 -82.759,-16.544 -36.99,-4.079 -74.341,-3.523 -111.272,0.843 -45.489,5.378 -92.322,16.979 -132.465,39.666 -26.6,15.033 -54.608,37.756 -63.036,68.38 -2.412,8.764 -2.738,16.967 -2.766,25.988 -4.756,-10.068 -6.85,-22.284 -6.448,-33.384 0.881,-24.303 15.296,-45.872 32.631,-61.972 10.996,-10.212 23.913,-18.488 36.964,-25.802 68.616,-38.455 152.203,-46.961 229.533,-44.18 z"
       id="path22"
       style="fill:url(#gradient_0-6)" /><path
       fill="#0f7b31"
       d="m 640.569,282.757 c -1.88,-2.75 -1.901,-5.745 -1.69,-8.99 0.127,-1.962 1.711,-7.82 2.871,-8.871 l 1.289,1.44 c -1.513,5.378 -0.227,11.205 -2.47,16.421 z"
       id="path23" /><path
       fill="#fcca1c"
       d="m 269.791,434.068 c 8.7,-13.512 18.578,-24.191 31.186,-34.178 21.284,-16.861 46.926,-28.651 72.41,-37.558 62.439,-21.823 128.573,-27.775 194.136,-19.913 26.717,3.204 53.754,9.69 79.226,18.278 33.128,11.17 65.824,26.531 91.461,50.822 6.254,5.926 11.301,13.341 16.608,20.108 -6.455,8.015 -15.089,15.402 -23.153,21.769 -9.057,7.445 -19.37,13.512 -29.645,19.095 -43.757,23.776 -94.569,36.843 -144.067,40.959 -30.248,2.515 -60.468,2.074 -90.703,-0.365 -65.177,-5.257 -132.775,-22.294 -183.677,-65.361 z"
       id="path24" /><path
       fill="#fde52d"
       d="m 539.661,417.026 0.394,0.251 c 2.554,1.202 6.199,-0.861 8.084,1.973 -0.738,1.27 -0.982,1.155 -2.416,1.519 l -6.206,1.241 z"
       id="path25" /><path
       fill="#fde52d"
       d="m 665.29,442.391 0.685,1.109 c 0.194,8.439 -1.988,14.476 -6.478,21.5 l -0.858,1.309 c -2.76,3.816 -6.733,6.858 -10.463,9.668 -20.488,15.431 -45.003,19.716 -69.56,24.304 l -0.608,-0.676 c 2.34,-1.167 5.042,-1.763 7.497,-2.702 4.766,-1.822 9.446,-3.826 14.115,-5.882 25.245,-11.116 48.524,-26.69 65.67,-48.63 z"
       id="path26" /><path
       fill="#fde52d"
       d="m 433.7,398.722 c 0.926,0.064 1.438,0.062 2.22,0.627 0.787,0.568 0.557,1.249 0.644,2.151 -0.558,0.822 -0.916,1.169 -1.82,1.638 -3.821,1.982 -8.75,2.769 -12.856,4.117 -6.272,2.059 -12.536,4.563 -18.599,7.173 -23.758,10.231 -45.09,22.629 -64.846,39.385 -3.445,2.922 -6.929,4.786 -11.507,4.403 -1.161,-0.811 -2.12,-1.586 -2.883,-2.804 -1.436,-2.292 -1.839,-5.513 -1.21,-8.122 l 0.136,-0.54 c 0.508,-2.181 1.333,-3.978 2.808,-5.705 7.58,-8.878 20.327,-14.543 30.775,-19.278 17.65,-7.998 35.212,-14.297 54.059,-18.794 7.606,-1.815 15.268,-3.653 23.079,-4.251 z"
       id="path27" /><path
       fill="#e9a815"
       d="m 511.257,457.527 0.993,0.39 0.66,-0.417 c -6.012,-11.831 2.34,-22.936 5.315,-34.347 1.594,-6.111 1.81,-12.566 0.654,-18.778 l -0.161,-0.84 0.532,0.153 c 4.641,10.879 0.802,23.336 -2.067,34.062 -0.743,2.781 -2.372,9.821 -1.07,12.066 l 2.486,-0.985 0.811,0.508 c 1.85,1.065 4.368,1.06 6.445,1.532 13.518,3.068 30.587,5.573 44.122,1.243 2.205,-0.705 3.902,-1.7 5.773,-3.032 l 0.851,0.382 c 0.232,1.628 0.159,2.455 -0.78,3.866 -6.295,9.469 -31.022,15.606 -41.85,16.849 -7.557,0.869 -15.044,0.857 -22.636,0.827 -19.522,-0.077 -43.526,-1.735 -60.49,-12.34 l -0.697,-0.431 c -3.806,-2.42 -7.052,-5.985 -9.618,-9.664 6.354,3.161 17.235,8.16 24.317,5.785 1.674,-0.562 3.374,-1.335 5.153,-1.452 9.225,-0.605 19.433,2.104 28.5,3.674 3.014,0.522 9.58,2.562 12.326,1.165 z"
       id="path28" /><path
       fill="#fdfdfd"
       d="m 509.423,456.761 c -6.377,-4.993 -12.168,-9.877 -16.772,-16.634 -6.336,-9.3 -9.578,-20.779 -6.314,-31.8 2.602,-8.786 7.839,-16.644 11.903,-24.792 4.706,-9.434 8.13,-18.718 10.073,-29.075 l 15.905,23.659 c 7.916,12.19 15.014,24.005 15.443,38.907 l -0.144,4.984 c -2.135,10.051 -7.922,18.406 -16.585,24.079 l -4.333,2.742 -2.486,0.985 c -1.302,-2.245 0.327,-9.285 1.07,-12.066 2.869,-10.726 6.708,-23.183 2.067,-34.062 l -0.532,-0.153 0.161,0.84 c 1.156,6.212 0.94,12.667 -0.654,18.778 -2.975,11.411 -11.327,22.516 -5.315,34.347 l -0.66,0.417 -0.993,-0.39 z"
       id="path29" /><path
       fill="#fde52d"
       d="m 586.349,409.647 c 9.276,2.947 18.659,6.305 27.061,11.274 6.405,3.789 11.73,9.814 13.404,17.204 1.572,6.939 -1.046,13.417 -4.812,19.16 l -0.475,0.715 -1.27,1.804 c -7.224,8.835 -17.608,13.425 -28.095,17.191 -15.645,5.62 -31.982,8.809 -48.442,10.801 -29.07,3.518 -62.092,1.963 -90.001,-7.332 -8.768,-2.92 -17.894,-6.902 -25.168,-12.677 -4.663,-3.702 -9.942,-9.26 -10.435,-15.492 -0.346,-4.383 2.216,-9.28 4.957,-12.545 7.555,-8.999 19.283,-13.481 30.099,-17.156 8.677,-2.949 17.726,-5.53 26.869,-6.455 l 0.729,7.528 c -2.901,1.111 -6.403,1.569 -9.434,2.435 -10.964,3.133 -24.181,7.847 -31.799,16.67 -2.69,3.116 -4.152,6.008 -3.546,10.228 0.547,3.802 3.551,7.191 6.43,9.531 9.615,7.816 21.531,11.979 33.488,14.595 20.054,4.388 40.953,4.659 61.33,2.639 19.389,-1.922 42.606,-7.534 59.235,-18.051 4.672,-2.955 9.15,-6.32 12.588,-10.71 3.278,-4.187 5.189,-9.141 4.358,-14.504 -2.18,-14.066 -16.95,-18.818 -26.524,-26.412 z"
       id="path30" /><path
       fill="#e9a815"
       d="m 269.791,434.068 c 8.7,-13.512 18.578,-24.191 31.186,-34.178 21.284,-16.861 46.926,-28.651 72.41,-37.558 62.439,-21.823 128.573,-27.775 194.136,-19.913 26.717,3.204 53.754,9.69 79.226,18.278 33.128,11.17 65.824,26.531 91.461,50.822 6.254,5.926 11.301,13.341 16.608,20.108 -6.455,8.015 -15.089,15.402 -23.153,21.769 l -1.488,-1.786 c -2.797,-3.22 -6.316,-5.905 -9.598,-8.608 -6.842,-5.633 -13.66,-10.699 -21.17,-15.429 -31.812,-20.035 -68.757,-33.268 -105.51,-40.823 -22.563,-4.638 -46.698,-6.956 -69.681,-8.631 L 508.313,354.46 c -1.943,10.357 -5.367,19.641 -10.073,29.075 -4.064,8.148 -9.301,16.006 -11.903,24.792 -3.264,11.021 -0.022,22.5 6.314,31.8 4.604,6.757 10.395,11.641 16.772,16.634 -0.95,-0.206 -1.859,-0.344 -2.709,-0.839 l -2.631,-1.498 c -12.161,-7.098 -19.879,-17.205 -23.313,-30.757 l -0.729,-7.528 c 2.756,-13.665 10.012,-24.329 15.948,-36.67 -27.567,0.033 -55.678,3.723 -82.542,9.704 -36.967,8.23 -73.414,21.108 -105.664,41.224 -8.143,5.079 -17.357,10.58 -24.21,17.327 z"
       id="path31" /></g></svg>
