<?xml version="1.0" encoding="UTF-8" standalone="no"?>
<svg
   width="63mm"
   height="88mm"
   version="1.1"
   id="svg123"
   sodipodi:docname="item-coppercoins.svg"
   inkscape:version="1.3.2 (091e20e, 2023-11-25, custom)"
   xmlns:inkscape="http://www.inkscape.org/namespaces/inkscape"
   xmlns:sodipodi="http://sodipodi.sourceforge.net/DTD/sodipodi-0.dtd"
   xmlns="http://www.w3.org/2000/svg"
   xmlns:svg="http://www.w3.org/2000/svg">
  <sodipodi:namedview
     id="namedview123"
     pagecolor="#ffffff"
     bordercolor="#000000"
     borderopacity="0.25"
     inkscape:showpageshadow="2"
     inkscape:pageopacity="0.0"
     inkscape:pagecheckerboard="0"
     inkscape:deskcolor="#d1d1d1"
     inkscape:document-units="mm"
     inkscape:zoom="1.3683333"
     inkscape:cx="109.98782"
     inkscape:cy="106.69915"
     inkscape:window-width="1350"
     inkscape:window-height="1040"
     inkscape:window-x="182"
     inkscape:window-y="0"
     inkscape:window-maximized="0"
     inkscape:current-layer="svg123" />
  <defs
     id="defs74">
    <linearGradient
       id="gradient_0"
       gradientUnits="userSpaceOnUse"
       x1="529.71039"
       y1="1148.418"
       x2="679.95923"
       y2="1009.4732"
       gradientTransform="matrix(0.17547265,-0.10737428,0.10737428,0.17547265,-48.503843,98.013793)">
      <stop
         offset="0"
         stop-color="#431A0C"
         id="stop73" />
      <stop
         offset="1"
         stop-color="#553D21"
         id="stop74" />
    </linearGradient>
  </defs>
  <defs
     id="defs100">
    <linearGradient
       id="gradient_1"
       gradientUnits="userSpaceOnUse"
       x1="585.16687"
       y1="910.49738"
       x2="553.47638"
       y2="822.70599"
       gradientTransform="matrix(0.17547265,-0.10737428,0.10737428,0.17547265,-48.503843,98.013793)">
      <stop
         offset="0"
         stop-color="#521D00"
         id="stop99" />
      <stop
         offset="1"
         stop-color="#754016"
         id="stop100" />
    </linearGradient>
  </defs>
  <defs
     id="defs110">
    <linearGradient
       id="gradient_2"
       gradientUnits="userSpaceOnUse"
       x1="493.89996"
       y1="348.56442"
       x2="623.60132"
       y2="310.72467"
       gradientTransform="matrix(0.17547265,-0.10737428,0.10737428,0.17547265,-48.503843,98.013793)">
      <stop
         offset="0"
         stop-color="#BDC0BE"
         id="stop109" />
      <stop
         offset="1"
         stop-color="#F6FFFF"
         id="stop110" />
    </linearGradient>
  </defs>
  <defs
     id="defs116">
    <linearGradient
       id="gradient_3"
       gradientUnits="userSpaceOnUse"
       x1="524.60431"
       y1="447.21811"
       x2="676.47565"
       y2="295.28336"
       gradientTransform="matrix(0.17547265,-0.10737428,0.10737428,0.17547265,-48.503843,98.013793)">
      <stop
         offset="0"
         stop-color="#606062"
         id="stop115" />
      <stop
         offset="1"
         stop-color="#6C747E"
         id="stop116" />
    </linearGradient>
  </defs>
  <path
     fill="#dc761e"
     d="m 56.089332,107.32003 c -0.04342,-3.11275 0.793418,-5.04684 2.942316,-7.26834 2.683774,-2.774884 6.063534,-4.584127 9.55335,-6.151616 6.074644,-2.728348 12.649363,-4.447151 19.178661,-5.692173 8.898443,-1.696626 17.908661,-2.482652 26.961691,-2.594401 9.88777,-0.122013 19.91859,0.699905 29.62524,2.582222 6.1342,1.189582 12.12535,2.709869 17.94038,5.027715 3.94336,1.571607 8.10483,3.546548 11.17802,6.543636 1.52334,1.485927 2.85577,3.315187 3.30651,5.434077 0.14138,0.66535 0.1465,1.40159 0.18346,2.08041 l 0.0911,14.41601 c -0.44248,3.3802 -2.8873,6.26708 -5.51847,8.29878 -3.26389,2.51981 -7.24029,4.29842 -11.09102,5.72065 -10.91602,4.03163 -22.63087,5.58781 -34.19394,6.22533 -10.30698,0.56792 -20.647,0.36419 -30.889191,-1.00411 l -10.906425,-2.00168 c -6.255771,-1.41616 -12.371494,-3.28347 -18.027375,-6.36102 -3.112333,-1.6938 -6.076158,-3.71418 -8.246787,-6.56256 l -0.710792,-0.97128 c -0.543359,-0.94299 -1.04998,-2.1104 -1.230238,-3.19364 -0.281565,-1.69097 -0.147841,-3.56612 -0.152739,-5.2845 z"
     id="path2"
     style="stroke-width:0.217433" />
  <path
     fill="#b74f1a"
     d="m 56.089332,107.32003 0.08839,0.15675 c 0.207511,0.38617 0.261571,0.86104 0.403556,1.27655 0.240263,0.70298 0.59272,1.31396 0.96909,1.95016 1.245891,2.1067 3.276071,3.80812 5.288195,5.15142 5.613243,3.74767 12.299955,5.75741 18.780337,7.39381 9.392662,2.37175 19.03668,3.31129 28.69659,3.63634 15.34315,0.51642 31.2101,-0.45443 45.9938,-4.83223 4.55478,-1.34873 8.9952,-2.96209 13.08119,-5.42125 3.29041,-1.98017 6.45493,-4.81223 7.38686,-8.66601 l 0.18147,-0.68403 0.0911,14.41601 c -0.44248,3.3802 -2.8873,6.26708 -5.51846,8.29877 -3.26389,2.51982 -7.24029,4.29842 -11.09103,5.72065 -10.91602,4.03164 -22.63087,5.58782 -34.19394,6.22534 -10.30698,0.56791 -20.647,0.36419 -30.889189,-1.00412 l -10.906425,-2.00168 c -6.255771,-1.41615 -12.371494,-3.28346 -18.027375,-6.36101 -3.112333,-1.6938 -6.076157,-3.71419 -8.246786,-6.56257 l -0.710793,-0.97127 c -0.543358,-0.94299 -1.049979,-2.1104 -1.230238,-3.19364 -0.281565,-1.69098 -0.147841,-3.56612 -0.152739,-5.2845 z"
     id="path3"
     style="stroke-width:0.217433" />
  <path
     fill="#e79628"
     d="m 113.59949,90.647716 0.25613,-0.01559 c 7.24248,-0.25832 14.70976,0.444435 21.82047,1.787936 4.80811,0.908217 9.46182,2.034321 13.89289,4.159284 1.80404,0.864957 3.66723,1.883186 5.13947,3.254096 1.49396,1.391578 2.48741,3.021448 2.53459,5.115998 0.0414,1.82666 -0.79426,3.48935 -2.04625,4.7757 -2.59723,2.66899 -6.18597,4.31233 -9.64771,5.54584 -8.06611,2.87468 -17.19851,4.04556 -25.74125,4.1423 -9.81621,0.18947 -19.840735,-0.52444 -29.299079,-3.29302 -4.076437,-1.19327 -8.449868,-2.92207 -11.712891,-5.72543 -1.480276,-1.27156 -2.865546,-2.98102 -2.988406,-5.01422 -0.109544,-1.81688 0.670359,-3.34129 1.861879,-4.6572 1.673581,-1.847748 4.008594,-3.121247 6.245105,-4.161453 9.152622,-4.256249 19.715742,-5.41495 29.685052,-5.91527 z"
     id="path4"
     style="stroke-width:0.217433" />
  <path
     fill="#b74f1a"
     d="m 55.278101,199.81906 0.08639,0.0588 c 0.758173,0.52577 1.425927,1.17175 2.174325,1.71555 1.884922,1.36984 3.942711,2.53722 6.053558,3.51938 5.094666,2.37002 10.551786,3.8305 16.020662,5.02683 12.200164,2.66876 24.807154,3.65613 37.278664,3.63265 10.40134,-0.02 20.84224,-0.73362 31.09661,-2.52743 3.70245,-0.64752 7.35031,-1.52552 10.96167,-2.56136 4.65328,-1.33484 9.31611,-3.00602 13.55346,-5.37105 1.17522,-0.65599 2.29086,-1.40243 3.36629,-2.21063 0.54445,-0.40922 1.07129,-0.93975 1.66227,-1.26916 l -0.0223,0.1632 0.0686,14.64172 c 1.75643,1.89144 3.87509,4.07621 4.31082,6.72932 0.14317,0.87039 0.0937,1.80275 0.0924,2.6838 0.21063,2.44763 0.0855,4.9892 0.0877,7.44771 l 0.004,4.48195 c 6.7e-4,1.36374 0.0385,2.67596 -0.31006,4.00535 -0.3892,1.48548 -1.23111,2.76508 -2.21151,3.92443 -1.53398,1.81383 -3.65569,3.29497 -5.6539,4.54783 -3.76965,2.36327 -7.82716,4.0586 -12.01621,5.52236 -10.16391,3.55133 -21.09687,5.38387 -31.81001,6.19966 -15.58146,1.18653 -31.676509,0.48402 -46.991833,-2.71617 -6.72345,-1.40504 -13.469745,-3.31171 -19.648745,-6.35903 -2.729885,-1.34613 -5.511491,-2.83772 -7.819763,-4.84659 -2.223465,-1.93538 -4.321487,-4.41128 -4.518043,-7.48056 L 51.0471,224.37549 c -0.01559,-0.071 -0.0089,-0.0281 -0.0067,-0.14495 0.04008,-2.72639 0.736241,-5.10077 2.460476,-7.24161 0.545541,-0.67752 1.233712,-1.28133 1.859496,-1.88581 l -0.03852,-13.74935 c -0.112439,-0.40618 -0.03206,-1.09587 -0.0423,-1.53465 z"
     id="path5"
     style="stroke-width:0.217433" />
  <path
     fill="#dc761e"
     d="m 177.57824,214.63754 c 1.75643,1.89144 3.8751,4.07621 4.31082,6.72932 0.14317,0.87039 0.0937,1.80275 0.0924,2.6838 -0.19371,0.68837 -0.35812,1.38678 -0.63164,2.04886 -0.8504,2.05908 -2.4583,3.91228 -4.2317,5.23382 -6.44034,4.79919 -14.23099,7.44382 -21.94788,9.39812 -14.01943,3.55044 -28.51112,4.72656 -42.9441,4.38452 -6.25533,-0.14829 -12.51457,-0.52706 -18.719019,-1.36156 -10.216295,-1.37396 -20.573283,-3.44589 -30.025527,-7.68386 -3.662237,-1.64183 -7.741278,-3.8766 -10.214357,-7.13464 -0.516396,-0.68033 -1.049534,-1.36091 -1.408738,-2.14213 -0.358758,-0.78037 -0.526615,-1.61271 -0.812121,-2.4183 -0.01559,-0.071 -0.0089,-0.0281 -0.0067,-0.14495 0.04008,-2.72639 0.736242,-5.10077 2.460477,-7.24161 0.54554,-0.67752 1.233711,-1.28133 1.859496,-1.88581 0.181906,2.26653 0.792104,3.98381 2.297384,5.72328 2.521349,2.91317 5.831998,4.84919 9.293293,6.43863 3.508497,1.61095 7.123978,2.83685 10.834041,3.89053 4.587399,1.30306 9.290465,2.40025 14.005288,3.13515 5.014867,0.78169 10.156733,1.18546 15.217493,1.5477 6.95501,0.49771 13.98028,0.35136 20.9279,-0.14695 5.78134,-0.41467 11.56939,-1.01042 17.27332,-2.0604 l 9.59879,-2.26 c 6.22162,-1.65902 13.18471,-3.90858 18.1326,-8.20114 1.85731,-1.61118 3.64723,-3.61873 4.31323,-6.04376 0.22198,-0.80865 0.26569,-1.65575 0.32591,-2.48854 z"
     id="path6"
     style="stroke-width:0.217433" />
  <path
     fill="#b74f1a"
     d="m 55.278101,199.81906 0.08639,0.0588 c 0.758173,0.52577 1.425927,1.17175 2.174325,1.71555 1.884922,1.36984 3.942711,2.53722 6.053558,3.51938 5.094666,2.37002 10.551786,3.8305 16.020662,5.02683 12.200164,2.66876 24.807154,3.65613 37.278664,3.63265 10.40134,-0.02 20.84224,-0.73362 31.09661,-2.52743 3.70245,-0.64752 7.35031,-1.52552 10.96167,-2.56136 4.65328,-1.33484 9.31611,-3.00602 13.55346,-5.37105 1.17522,-0.65599 2.29086,-1.40243 3.36629,-2.21063 0.54445,-0.40922 1.07129,-0.93975 1.66227,-1.26916 l -0.0223,0.1632 0.0686,14.64172 c -0.0603,0.83278 -0.10398,1.67988 -0.32592,2.48853 -0.66599,2.42503 -2.45591,4.43259 -4.31322,6.04376 -4.9479,4.29256 -11.91099,6.54212 -18.1326,8.20114 l -9.5988,2.26 c -5.70392,1.04998 -11.49197,1.64573 -17.27332,2.0604 -6.94761,0.49833 -13.97289,0.64468 -20.9279,0.14695 -5.06075,-0.36224 -10.202618,-0.76601 -15.217486,-1.5477 -4.714822,-0.7349 -9.417889,-1.83209 -14.005288,-3.13515 -3.710063,-1.05368 -7.325544,-2.27958 -10.83404,-3.89053 -3.461295,-1.58944 -6.771944,-3.52546 -9.293293,-6.43863 -1.50528,-1.73946 -2.115412,-3.45675 -2.297385,-5.72328 l -0.03852,-13.74935 c -0.112438,-0.40618 -0.03206,-1.09587 -0.0423,-1.53464 z"
     id="path7"
     style="stroke-width:0.217433" />
  <path
     fill="#dc761e"
     d="m 55.278101,199.81906 0.08639,0.0588 c 0.758173,0.52577 1.425927,1.17175 2.174325,1.71555 1.884922,1.36984 3.942711,2.53722 6.053558,3.51938 5.094666,2.37002 10.551786,3.8305 16.020662,5.02683 12.200164,2.66876 24.807154,3.65613 37.278664,3.63265 10.40134,-0.02 20.84224,-0.73362 31.09661,-2.52743 3.70245,-0.64752 7.35031,-1.52552 10.96167,-2.56136 4.65328,-1.33484 9.31611,-3.00602 13.55346,-5.37105 1.17522,-0.65599 2.29086,-1.40243 3.36629,-2.21063 0.54445,-0.40922 1.07129,-0.93975 1.66227,-1.26916 l -0.0223,0.1632 -0.0401,0.098 c -0.11267,0.28635 -0.17835,0.53988 -0.22635,0.84385 -0.10598,0.67033 -0.41899,1.28329 -0.72317,1.8847 -1.17631,2.32479 -3.2054,4.27299 -5.31233,5.77546 -4.01165,2.86076 -8.63296,4.7559 -13.29321,6.2751 -10.16651,3.31434 -21.06618,4.76723 -31.71171,5.33016 l -13.63326,0.28941 c -7.96065,-0.18636 -16.026112,-0.96607 -23.872616,-2.31785 -10.078451,-1.73619 -25.850611,-5.33123 -32.056575,-14.18552 -0.498783,-0.71189 -0.944309,-1.41551 -1.161305,-2.26328 -0.04008,-0.15652 -0.07103,-0.24113 -0.15875,-0.37223 -0.112439,-0.40618 -0.03206,-1.09586 -0.0423,-1.53464 z"
     id="path8"
     style="stroke-width:0.217433" />
  <path
     fill="#b74f1a"
     d="m 177.05011,121.69757 c 2.46482,2.29197 4.83136,4.76525 4.98183,8.3403 l -0.0376,0.97648 -0.0338,9.97452 c 8.7e-4,1.92364 0.25721,4.29018 -0.2113,6.15444 -0.50074,1.99342 -1.61725,3.89032 -3.08601,5.32037 -0.27135,0.26397 -1.11477,0.89192 -1.25133,1.1935 -0.14984,0.33048 -0.094,1.24044 -0.1,1.62792 l -0.0307,13.15774 c 1.92233,1.88361 3.90052,3.87008 4.53042,6.58995 0.19549,0.84342 0.19638,1.72837 0.23004,2.58983 l 0.0345,8.92715 -0.004,3.93249 c -0.002,1.19784 0.0236,2.33198 -0.31964,3.49632 -0.52639,1.78557 -1.67879,3.31586 -2.95643,4.63698 l -1.26459,1.21697 c -0.59099,0.32941 -1.11782,0.85994 -1.66227,1.26916 -1.07543,0.8082 -2.19107,1.55464 -3.36629,2.21064 -4.23735,2.36502 -8.90018,4.0362 -13.55346,5.37104 -3.61137,1.03584 -7.25922,1.91384 -10.96167,2.56136 -10.25437,1.79381 -20.69527,2.50763 -31.09661,2.52743 -12.47151,0.0236 -25.078503,-0.96388 -37.278667,-3.63265 -5.468876,-1.19633 -10.925996,-2.65681 -16.020661,-5.02683 -2.110847,-0.98216 -4.168637,-2.14954 -6.053559,-3.51938 -0.748398,-0.5438 -1.416152,-1.18978 -2.174325,-1.71555 l -0.08639,-0.0588 c -0.365504,-0.4651 -0.930193,-0.87364 -1.339382,-1.32331 -1.268512,-1.39373 -2.314595,-2.9025 -2.825558,-4.73655 -0.249815,-0.89648 -0.222651,-1.846 -0.226125,-2.76858 l -0.0067,-3.66026 0.09173,-9.59249 c -0.08372,-1.91429 0.956043,-3.81204 1.879045,-5.4056 -0.844072,-1.18718 -1.55856,-2.4572 -1.86101,-3.89836 -0.348761,-1.66205 -0.158528,-3.64396 -0.160754,-5.35385 l -0.0089,-9.5666 c -0.03674,-0.70471 -0.116892,-1.44354 -0.01559,-2.14456 l 0.02583,-0.15964 c 0.527929,-3.38129 2.603753,-5.54019 5.092061,-7.69385 l 0.02226,-11.40501 c -0.09485,-0.42074 -0.05388,-0.9702 -0.05833,-1.40397 -0.02004,-2.12563 0.491169,-3.8527 1.578554,-5.66479 l 0.710792,0.97127 c 2.170629,2.84838 5.134454,4.86877 8.246787,6.56256 5.655881,3.07756 11.771604,4.94487 18.027375,6.36102 l 10.906424,2.00168 c 10.242193,1.36831 20.582213,1.57203 30.889193,1.00412 11.56307,-0.63752 23.27792,-2.1937 34.19394,-6.22534 3.85073,-1.42223 7.82713,-3.20083 11.09102,-5.72065 2.63116,-2.03169 5.07599,-4.91857 5.51846,-8.29877 z"
     id="path9"
     style="stroke-width:0.217433" />
  <path
     fill="#dc761e"
     d="m 50.820731,153.51346 c -0.03674,-0.70472 -0.116892,-1.44354 -0.01559,-2.14456 l 0.02583,-0.15964 c 0.527928,-3.38129 2.603752,-5.54019 5.09206,-7.69385 0.01336,1.23545 -0.08171,2.57679 0.210183,3.78006 l 0.04075,0.17634 c 0.9391,3.93381 5.054678,6.80739 8.308996,8.77038 3.728744,2.24933 7.838221,3.84507 11.969029,5.18381 9.029763,2.92664 18.533105,4.33476 27.979471,5.00271 8.82234,0.6238 17.58445,0.62184 26.40637,-2.2e-4 8.67013,-0.61142 17.17807,-1.67403 25.62838,-3.76312 5.63043,-1.3918 11.50569,-3.21061 16.56796,-6.08747 1.47507,-0.83842 2.83945,-1.83318 4.23906,-2.78771 l -0.25244,0.83408 c -0.34484,1.14456 -1.06846,2.23455 -1.73554,3.21562 -0.65491,0.96323 -1.54204,1.83469 -2.39743,2.62158 -2.59417,2.38589 -5.64715,3.99359 -8.86039,5.38082 -6.03309,2.6044 -12.51564,4.20994 -18.96189,5.40885 -8.24309,1.53313 -16.66078,2.3274 -25.04501,2.50396 -12.76614,0.26854 -25.862764,-0.90407 -38.355158,-3.52045 -8.641881,-1.80991 -17.559227,-4.28887 -24.923691,-9.32939 -1.901443,-1.30135 -3.802463,-3.13279 -4.942684,-5.15469 -0.40291,-0.71471 -0.659026,-1.48464 -0.979087,-2.23716 z"
     id="path10"
     style="stroke-width:0.217433" />
  <path
     fill="#dc761e"
     d="m 177.05011,121.69757 c 2.46482,2.29197 4.83136,4.76525 4.98183,8.3403 l -0.0376,0.97648 c -0.28136,0.85779 -0.54053,1.72989 -0.97757,2.5244 -2.02453,3.67918 -6.12009,6.13815 -9.77275,7.98502 -2.59289,1.3111 -5.32928,2.30544 -8.08481,3.21344 l -6.6378,2.02256 -7.52339,1.52203 c -10.50897,1.91297 -21.00988,2.6766 -31.67976,2.66311 -8.15699,-0.0111 -16.26137,-0.45312 -24.344216,-1.58769 -6.246865,-0.87691 -12.531535,-2.07105 -18.532682,-4.04709 -4.509137,-1.48484 -9.165023,-3.35716 -13.075339,-6.07943 -1.358953,-0.94582 -2.817498,-2.14279 -3.766595,-3.51348 -0.454854,-0.65665 -0.907995,-1.30982 -1.185218,-2.06563 -0.186136,-0.50726 -0.261793,-1.04693 -0.468347,-1.54115 -0.09485,-0.42074 -0.05388,-0.9702 -0.05833,-1.40397 -0.02004,-2.12563 0.491169,-3.85269 1.578554,-5.66479 l 0.710793,0.97128 c 2.170629,2.84838 5.134453,4.86876 8.246786,6.56256 5.655881,3.07755 11.771604,4.94486 18.027375,6.36102 l 10.906425,2.00168 c 10.242194,1.3683 20.582204,1.57203 30.889194,1.00411 11.56307,-0.63752 23.27791,-2.1937 34.19393,-6.22533 3.85074,-1.42223 7.82715,-3.20084 11.09103,-5.72065 2.63116,-2.0317 5.07598,-4.91858 5.51846,-8.29878 z"
     id="path11"
     style="stroke-width:0.217433" />
  <path
     fill="#b74f1a"
     d="m 177.28103,168.44284 c 1.92232,1.88361 3.90052,3.87008 4.53042,6.58995 0.19549,0.84342 0.19638,1.72837 0.23004,2.58983 l 0.0345,8.92715 -0.004,3.93249 c -0.002,1.19784 0.0236,2.33198 -0.31964,3.49632 -0.52639,1.78557 -1.67879,3.31586 -2.95643,4.63698 l -1.26459,1.21697 c -0.59099,0.32941 -1.11783,0.85994 -1.66228,1.26916 -1.07542,0.8082 -2.19106,1.55464 -3.36628,2.21064 -4.23735,2.36502 -8.90018,4.0362 -13.55347,5.37104 -3.61136,1.03584 -7.25921,1.91384 -10.96166,2.56136 -10.25437,1.79381 -20.69527,2.50763 -31.09661,2.52743 -12.47151,0.0236 -25.078505,-0.96388 -37.278668,-3.63265 -5.468876,-1.19633 -10.925996,-2.65681 -16.020662,-5.02683 -2.110847,-0.98216 -4.168636,-2.14954 -6.053558,-3.51938 -0.748399,-0.5438 -1.416153,-1.18978 -2.174325,-1.71555 l -0.08639,-0.0588 c -0.365505,-0.4651 -0.930193,-0.87364 -1.339382,-1.32331 -1.268512,-1.39373 -2.314595,-2.9025 -2.825558,-4.73655 -0.249815,-0.89648 -0.222652,-1.846 -0.226125,-2.76858 l -0.0067,-3.66026 0.09173,-9.59249 c -0.08372,-1.91429 0.956043,-3.81204 1.879044,-5.4056 l 0.300713,0.35137 c 2.970148,3.55481 7.208563,6.03203 11.382833,7.91717 3.922717,1.77164 7.938904,3.03015 12.091665,4.12927 7.514709,1.98908 15.240313,3.17256 22.977005,3.87944 l 13.538258,0.78319 c 12.44911,0.14384 25.14654,-0.7632 37.29757,-3.53893 4.9153,-1.12283 9.74752,-2.48831 14.35057,-4.57132 2.86143,-1.29481 5.59868,-2.73205 8.01263,-4.7659 1.7725,-1.49357 3.48761,-3.48612 4.15318,-5.73828 0.22154,-0.74972 0.25788,-1.5603 0.32594,-2.33544 z"
     id="path12"
     style="stroke-width:0.217433" />
  <path
     fill="#dc761e"
     d="m 177.28103,168.44284 c 1.92232,1.88361 3.90052,3.87008 4.53042,6.58995 0.19549,0.84342 0.19638,1.72837 0.23004,2.58983 l -0.15229,0.0592 c -0.56598,3.28934 -3.35128,6.01638 -5.97919,7.86652 -5.02725,3.53916 -10.86925,5.8124 -16.71973,7.57427 -10.48374,3.15735 -21.38431,4.51216 -32.28877,5.10424 -13.78373,0.7484 -27.800551,0.1249 -41.410989,-2.26412 l -9.142179,-2.03844 c -5.5965,-1.4431 -11.112556,-3.28433 -16.192015,-6.08378 -2.892064,-1.594 -5.829371,-3.63612 -7.762787,-6.35796 -0.851241,-1.19849 -1.006718,-2.38892 -1.422008,-3.74462 -0.08372,-1.91429 0.956043,-3.81204 1.879045,-5.4056 l 0.300713,0.35137 c 2.970148,3.5548 7.208563,6.03202 11.382832,7.91717 3.922718,1.77164 7.938905,3.03015 12.091666,4.12927 7.514708,1.98908 15.240312,3.17256 22.977005,3.87943 l 13.538257,0.7832 c 12.44911,0.14384 25.14654,-0.7632 37.29756,-3.53893 4.9153,-1.12283 9.74753,-2.48831 14.35058,-4.57132 2.86143,-1.29481 5.59868,-2.73205 8.01262,-4.7659 1.77251,-1.49357 3.48762,-3.48612 4.15319,-5.73829 0.22154,-0.74971 0.25787,-1.56029 0.32594,-2.33543 z"
     id="path13"
     style="stroke-width:0.217433" />
</svg>
