<?xml version="1.0" encoding="UTF-8" standalone="no"?>
<svg
   width="63mm"
   height="88mm"
   version="1.1"
   id="svg24"
   sodipodi:docname="item-shieldheater.svg"
   inkscape:version="1.3.2 (091e20e, 2023-11-25, custom)"
   xmlns:inkscape="http://www.inkscape.org/namespaces/inkscape"
   xmlns:sodipodi="http://sodipodi.sourceforge.net/DTD/sodipodi-0.dtd"
   xmlns="http://www.w3.org/2000/svg"
   xmlns:svg="http://www.w3.org/2000/svg">
  <sodipodi:namedview
     id="namedview24"
     pagecolor="#ffffff"
     bordercolor="#000000"
     borderopacity="0.25"
     inkscape:showpageshadow="2"
     inkscape:pageopacity="0.0"
     inkscape:pagecheckerboard="0"
     inkscape:deskcolor="#d1d1d1"
     inkscape:document-units="mm"
     inkscape:zoom="1.8488365"
     inkscape:cx="-25.691833"
     inkscape:cy="131.16357"
     inkscape:window-width="1920"
     inkscape:window-height="1017"
     inkscape:window-x="-8"
     inkscape:window-y="-8"
     inkscape:window-maximized="1"
     inkscape:current-layer="svg24" />
  <path
     d="M 53.625302,63.791119 61.854507,60.80781 C 76.588131,54.902069 90.760871,47.515059 103.75789,38.391498 l 9.96292,-7.563324 3.906,-3.286892 c 0.74324,-0.651077 1.63361,-1.66722 2.49975,-2.114688 l 7.12965,6.047521 3.85291,3.123387 c 20.36845,15.489147 43.8134,26.327735 68.39626,33.209254 l 18.51124,4.252228 4.50469,0.687833 c 1.04242,0.125216 2.40424,0.121189 3.37368,0.503759 0.69215,0.272941 1.38865,1.139658 1.47866,1.887217 0.1035,0.862391 0.0188,1.819703 0.004,2.688153 l -0.10783,4.987089 -0.95875,21.239205 c -1.47637,20.41893 -5.09674,41.12523 -11.24859,60.67255 l -8.04338,21.74844 c -3.73578,9.0711 -7.92165,18.05508 -12.82507,26.56184 -7.78892,13.51347 -16.97659,26.12213 -27.09792,37.97431 l -10.03765,10.75865 -21.13071,19.55309 -8.33105,6.66254 c -1.26113,0.99712 -2.64661,1.96598 -3.81599,3.06466 l -3.43917,2.50322 C 109.48994,285.75569 99.554999,276.97023 89.887805,267.77389 81.505397,259.79975 73.543943,251.39743 66.263688,242.39672 55.556375,229.15879 46.278686,214.62222 38.821856,199.31329 35.294684,192.07198 32.264633,184.55427 29.51214,176.9878 L 22.797674,155.61242 17.311155,130.57253 C 14.004702,111.53071 12.541034,92.000993 12.754828,72.683055 23.714885,72.5059 34.533853,69.336209 45.02535,66.446091 Z"
     id="path2"
     style="stroke-width:0.288521" />
  <path
     fill="#f0c84b"
     d="m 147.71092,67.726547 -9.61583,-5.52316 c -6.17811,-3.699709 -12.38853,-7.747085 -17.78157,-12.543173 l 0.12061,-14.161142 c 10.77829,9.072781 22.80674,16.780916 35.25499,23.333809 14.60089,7.301318 29.98254,13.448841 45.80966,17.552478 l 17.51267,3.776743 -12.58126,10.314345 -11.08614,-3.156421 c -10.3556,-3.117761 -20.38489,-6.759765 -30.29503,-11.095951 -5.88236,-2.573898 -11.76329,-5.29898 -17.3381,-8.497528 z"
     id="path3"
     style="stroke-width:0.288521" />
  <defs
     id="defs4">
    <linearGradient
       id="gradient_0"
       gradientUnits="userSpaceOnUse"
       x1="505.63708"
       y1="183.79691"
       x2="171.41376"
       y2="155.43059"
       gradientTransform="matrix(0.28852123,0,0,0.28852123,-27.514946,13.202671)">
      <stop
         offset="0"
         stop-color="#EEA800"
         id="stop3" />
      <stop
         offset="1"
         stop-color="#FEF49E"
         id="stop4" />
    </linearGradient>
  </defs>
  <path
     fill="url(#gradient_0)"
     d="m 69.968301,65.51936 7.558966,-3.444366 c 8.596779,-4.190481 16.876762,-8.671505 24.873123,-13.936151 l 11.00305,-7.735689 c 2.24527,-1.737358 4.43371,-3.805593 6.78227,-5.369408 l -0.19735,14.674363 -5.47296,4.390428 c -4.31512,3.214125 -8.8827,6.103954 -13.47423,8.903187 -5.926801,3.613441 -11.951703,7.021164 -18.212901,10.029864 -2.869055,1.378844 -5.773312,2.876845 -8.767585,3.960243 -0.492793,0.328337 -1.193611,0.537515 -1.74411,0.773814 l -4.419569,1.79287 C 56.624194,83.971158 45.133258,87.724531 33.285711,90.271309 31.844546,89.047401 30.156409,88.037001 28.616861,86.932253 L 22.108976,82.01383 c -0.43711,-0.332663 -1.512142,-0.945771 -1.796911,-1.36932 -0.0854,-0.126948 -0.133289,-0.487601 -0.177437,-0.649173 0.0528,-0.07213 0.08483,-0.165619 0.158393,-0.216391 0.09349,-0.06462 9.537646,-1.704584 10.418502,-1.899624 8.685642,-1.925591 17.283287,-4.272133 25.686178,-7.206106 z"
     id="path4"
     style="fill:url(#gradient_0);stroke-width:0.288521" />
  <defs
     id="defs6">
    <linearGradient
       id="gradient_1"
       gradientUnits="userSpaceOnUse"
       x1="297.28619"
       y1="286.58209"
       x2="163.5318"
       y2="635.06488"
       gradientTransform="matrix(0.28852123,0,0,0.28852123,-27.514946,13.202671)">
      <stop
         offset="0"
         stop-color="#BE8500"
         id="stop5" />
      <stop
         offset="1"
         stop-color="#FFEA5F"
         id="stop6" />
    </linearGradient>
  </defs>
  <path
     fill="url(#gradient_1)"
     d="M 21.943364,108.33303 C 21.074626,102.30264 20.900071,96.024423 20.598278,89.9372 20.458929,87.12989 20.097406,84.086279 20.271384,81.29974 l 12.941907,9.636899 1.03031,17.658651 c 2.714408,23.26087 7.902884,45.96085 16.433593,67.79729 3.241247,8.29701 6.877481,16.47485 11.170675,24.28657 l -9.11929,8.64871 C 37.733266,183.73891 28.773816,154.63058 24.167862,125.4406 23.272293,119.76596 22.395188,114.06363 21.943364,108.33303 Z"
     id="path6"
     style="fill:url(#gradient_1);stroke-width:0.288521" />
  <defs
     id="defs8">
    <linearGradient
       id="gradient_2"
       gradientUnits="userSpaceOnUse"
       x1="690.96869"
       y1="886.34503"
       x2="530.02826"
       y2="327.17783"
       gradientTransform="matrix(0.28852123,0,0,0.28852123,-27.514946,13.202671)">
      <stop
         offset="0"
         stop-color="#936602"
         id="stop7" />
      <stop
         offset="1"
         stop-color="#E6AB0B"
         id="stop8" />
    </linearGradient>
  </defs>
  <path
     fill="url(#gradient_2)"
     d="m 137.83426,253.9142 c 0.82316,-0.96741 1.85318,-1.84308 2.75134,-2.74701 l 5.97297,-6.12848 c 5.23204,-5.54047 10.09305,-11.41274 14.72325,-17.46361 7.08117,-9.25432 13.2333,-19.09635 18.67222,-29.39253 4.52603,-8.56792 8.54166,-17.36724 11.81552,-26.49606 2.54389,-7.093 4.56153,-14.40009 6.38872,-21.70689 3.56815,-14.26738 6.06126,-28.70036 7.52378,-43.33733 l 1.06925,-15.650256 12.98201,-10.637777 -0.30034,9.935228 -1.54705,21.420105 c -0.98126,9.18103 -2.24383,18.42381 -4.10768,27.46895 -5.41584,26.28053 -14.98638,51.8363 -28.90233,74.815 l -9.66921,14.42808 -8.26123,10.89139 c -2.07533,2.62582 -4.2098,5.3486 -6.53443,7.75746 -2.28105,2.94495 -5.08778,5.63569 -7.6813,8.31345 -8.19256,8.45946 -16.84387,16.49304 -26.10569,23.7756 -2.08428,1.63881 -4.26002,3.509 -6.55751,4.82378 -1.67573,-1.20977 -15.88973,-12.59221 -16.02764,-13.18369 -2.76634,-2.25047 -5.353511,-4.80734 -7.943571,-7.25717 -8.334513,-7.88385 -16.23105,-16.27289 -23.460238,-25.18184 -2.15381,-2.6544 -4.410047,-5.3163 -6.299283,-8.16747 -2.606501,-3.25162 -4.849466,-6.8065 -7.103682,-10.30539 l -6.503557,-10.55988 9.11929,-8.64871 17.350224,27.26236 0.172545,0.18573 c 0.914323,0.99598 1.717855,2.14171 2.567261,3.19624 l 6.824681,8.29614 c 5.004979,5.59558 10.328479,11.01488 15.86521,16.0819 l 9.36943,8.12994 6.35815,4.88294 z"
     id="path8"
     style="fill:url(#gradient_2);stroke-width:0.288521" />
  <path
     fill="#fefdfe"
     d="m 119.96384,50.173783 c 6.54625,5.734935 14.12484,10.503902 21.65438,14.831433 l 18.46103,9.737591 c 11.50391,5.368514 23.45822,9.750576 35.6292,13.338048 3.47322,1.023674 6.9548,2.229404 10.49843,2.978406 l -2.12671,24.707519 c -1.42789,11.54777 -3.65324,23.07938 -6.52172,34.35335 -1.7141,6.7361 -3.59613,13.41681 -5.93085,19.96682 -9.81981,27.54743 -25.55172,53.31727 -45.6227,74.59861 -7.96261,8.44299 -16.58593,16.07928 -25.73437,23.21153 L 100.7766,251.13948 C 91.269534,241.78793 82.484062,231.73933 74.852388,220.78619 57.712206,196.18543 46.553937,167.8737 39.93901,138.74951 36.399431,123.16532 33.921033,106.87657 33.786873,90.869413 43.246041,88.807929 52.603649,85.941471 61.684279,82.595201 76.252004,77.227264 89.894152,70.637439 103.07582,62.429588 c 5.91411,-3.682398 11.79966,-7.462314 16.88802,-12.255805 z"
     id="path9"
     style="stroke-width:0.288521" />
  <path
     d="m 86.09,232.58094 c -1.512717,-1.6287 -2.86213,-3.4963 -4.221354,-5.25686 L 72.688189,214.36486 C 53.157321,184.09725 41.651095,149.12733 37.187095,113.47938 36.299892,106.39647 35.372874,99.18344 35.53156,92.035327 l 18.469685,-5.080571 c 20.6838,-6.614925 40.546174,-16.41628 58.382275,-28.79211 l 7.72833,-5.809952 c 8.43117,6.753706 17.50487,12.374388 26.99751,17.507179 10.67528,5.772156 21.83874,10.81118 33.27082,14.895774 l 24.11202,7.524347 c -0.14434,9.117556 -1.31306,18.314456 -2.59267,27.331896 -3.20431,22.58112 -8.79124,44.51912 -18.12721,65.38093 l -6.03181,12.13636 c -5.63858,10.81262 -12.24399,21.40481 -19.9726,30.85418 0.0245,-0.52915 0.12493,-0.5831 0.44057,-1.00723 l 9.18364,-12.97163 c 4.46169,-6.87402 8.37259,-14.01405 12.03018,-21.33961 l 5.30907,-11.24454 4.78108,-12.21627 c 0.65207,-1.78249 1.11169,-3.73145 1.91347,-5.4444 0.78536,-1.67717 1.24152,-3.61546 1.68324,-5.40891 l 2.5309,-10.28982 3.82089,-17.7253 3.09496,-22.33067 0.99715,-10.888505 c 0.0943,-1.369034 0.26802,-2.73922 0.2891,-4.111427 l -0.39528,-0.146858 0.0589,0.321702 -0.26052,0.122901 c -1.12149,0.548191 -2.27096,1.437991 -3.31886,2.130441 -0.74757,0.493949 -2.92273,1.552821 -3.17836,2.318268 -0.8315,-0.13647 -1.35056,-0.289097 -2.07561,0.206581 l -0.16504,-0.07646 0.25823,-0.286502 c -0.051,-0.05943 -10.97506,-3.141997 -12.17964,-3.448695 l -0.25331,-0.11513 0.17482,-0.28477 -11.38072,-4.048818 C 156.58584,84.011552 142.35193,76.897772 129.29259,68.329269 l -6.69715,-4.849176 c -0.81998,-0.657251 -1.6916,-1.244393 -2.41117,-2.017629 l -0.12349,0.07559 c -1.5583,0.974913 -3.00235,2.235462 -4.47323,3.339343 l -8.45569,6.026921 c -7.487711,4.940061 -15.447141,9.234699 -23.531507,13.106943 -5.101922,2.443774 -10.194322,4.779354 -15.490705,6.780537 l -13.574059,4.941791 -7.179272,2.129288 -2.800965,0.821996 c -0.452402,0.133289 -0.974047,0.210043 -1.37163,0.465962 l 0.436821,5.873715 1.090611,8.83798 c 2.575339,18.8941 7.095891,37.83869 13.885949,55.67219 l 6.361604,15.46705 c 1.231697,2.70892 2.810775,5.38755 3.905136,8.13918 l -4.889859,5.19136 c 0.990782,2.93426 2.869345,5.77534 4.469482,8.41559 l 11.875246,17.7784 3.991115,5.33648 c 0.432492,0.56089 1.569844,1.69303 1.75796,2.31279 0.03924,0.12947 0.01468,0.27005 0.02222,0.40537 z"
     id="path10"
     style="stroke-width:0.288521" />
  <path
     fill="#440d17"
     d="m 188.70834,88.580863 14.73854,4.277327 0.0589,0.321702 -0.26052,0.122901 c -1.12149,0.548191 -2.27096,1.437991 -3.31886,2.130441 -0.74757,0.493949 -2.92273,1.552821 -3.17836,2.318268 -0.8315,-0.13647 -1.35056,-0.289097 -2.07561,0.206581 l -0.16504,-0.07646 0.25823,-0.286502 c -0.051,-0.05943 -10.97506,-3.141997 -12.17964,-3.448695 l -0.25331,-0.11513 0.17482,-0.28477 0.74236,0.09665 z"
     id="path11"
     style="stroke-width:0.288521" />
  <path
     fill="#9e2f43"
     d="M 64.348484,84.160718 C 81.457503,77.729868 97.659989,69.325533 112.70637,58.942231 l 7.21332,-5.414389 0.3093,0.06549 c -0.12147,1.6665 -0.06,3.359541 -0.058,5.030079 8.7e-4,0.900186 -0.10704,1.954444 0.0134,2.839049 l -0.12348,0.07559 c -1.55831,0.974913 -3.00236,2.235462 -4.47324,3.339344 l -8.45569,6.026921 c -7.487701,4.94006 -15.447141,9.234698 -23.531502,13.106942 -5.101922,2.443774 -10.194322,4.779355 -15.490706,6.780537 -0.195905,-0.475194 -0.641382,-0.986166 -0.917496,-1.43424 l -1.983094,-3.384347 c -0.35517,-0.607338 -0.731689,-1.10821 -0.860658,-1.81249 z"
     id="path12"
     style="stroke-width:0.288521" />
  <path
     fill="#8b2738"
     d="m 120.22899,53.593335 0.1082,0.06261 c 1.63592,0.977509 3.15123,2.420981 4.70376,3.561506 l 10.46582,7.063576 c 13.20274,7.987134 26.97819,14.68169 41.3956,20.179463 l 11.80599,4.120372 -5.45853,5.262338 -0.74236,-0.09665 -11.38072,-4.048817 C 156.58584,84.011552 142.35193,76.897772 129.29259,68.329269 l -6.69715,-4.849176 c -0.81998,-0.657251 -1.6916,-1.244393 -2.41117,-2.017629 -0.12031,-0.884606 -0.0124,-1.938864 -0.0134,-2.839049 -0.002,-1.670539 -0.0635,-3.36358 0.058,-5.03008 z"
     id="path13"
     style="stroke-width:0.288521" />
  <path
     fill="#8b2738"
     d="m 63.973982,198.33231 c -2.391263,-4.33762 -4.421588,-8.86019 -6.431714,-13.38248 -9.941866,-22.36905 -16.324242,-46.16686 -19.547603,-70.41417 -0.961641,-7.23439 -1.720162,-14.4705 -1.751611,-21.777587 l 28.10543,-8.597355 c 0.128961,0.70428 0.505488,1.205152 0.860658,1.81249 l 1.983007,3.384353 c 0.276115,0.448074 0.721591,0.959045 0.917497,1.43424 l -13.574059,4.941791 -7.179272,2.129288 -2.800965,0.821996 c -0.452402,0.133289 -0.974047,0.210043 -1.37163,0.465962 l 0.436821,5.873712 1.090611,8.83799 c 2.57534,18.89409 7.095891,37.83868 13.88595,55.67218 l 6.361603,15.46705 c 1.231697,2.70892 2.810775,5.38755 3.905136,8.13918 z"
     id="path14"
     style="stroke-width:0.288521" />
  <path
     fill="#54111d"
     d="m 120.18427,61.462464 c 0.71957,0.773236 1.59119,1.360378 2.41117,2.017629 l 6.69715,4.849176 c 13.05934,8.568503 27.29325,15.682283 41.83414,21.36846 l 11.38072,4.048817 -0.17482,0.284771 0.25331,0.11513 -3.67864,4.168554 c -0.43683,0.505778 -0.94722,0.979819 -1.31536,1.536953 -15.70019,-5.345433 -30.98921,-12.484602 -45.15647,-21.111099 l -8.52695,-5.620393 c -1.25853,-0.896435 -2.5185,-2.066389 -3.82377,-2.843087 -4.31397,3.498896 -9.0587,6.539622 -13.78959,9.438682 -13.424311,8.226894 -27.697461,15.045229 -42.476671,20.457023 -4.0719,1.49079 -8.468098,3.22249 -12.728692,4.00063 1.173127,14.10783 3.908309,28.14121 7.696881,41.77008 2.212092,7.95771 4.723092,15.82395 7.774782,23.50381 l 7.637446,17.04843 c 3.047937,6.5728 6.757744,12.90411 10.702982,18.97605 7.010491,10.7904 15.152562,21.02195 24.317152,30.0694 l 6.784,6.23868 c 1.38605,1.18814 2.86472,2.29923 4.19683,3.54477 0.75477,-0.39526 1.51156,-1.19648 2.16593,-1.76805 25.78658,-22.52716 44.81168,-52.24255 55.56831,-84.69628 3.51305,-10.59912 6.03962,-21.65467 7.9228,-32.64906 1.34191,-7.83624 2.38463,-15.60063 2.92387,-23.52919 l 5.89161,-4.72425 c 0.72505,-0.495678 1.24411,-0.343051 2.07561,-0.206581 0.25563,-0.765447 2.43079,-1.824319 3.17837,-2.318268 1.04789,-0.692451 2.19736,-1.58225 3.31886,-2.130441 l 0.26052,-0.122901 -0.0589,-0.321702 0.39527,0.146858 c -0.0211,1.372207 -0.19477,2.742393 -0.2891,4.111427 l -0.99714,10.888498 -3.09496,22.33068 -3.8209,17.7253 -2.5309,10.28982 c -0.44172,1.79345 -0.89787,3.73173 -1.68323,5.40891 -0.80179,1.71295 -1.26141,3.66191 -1.91348,5.44439 l -4.78107,12.21628 -5.30908,11.24454 c -3.65759,7.32555 -7.56849,14.46558 -12.03018,21.3396 l -9.18364,12.97164 c -0.31564,0.42413 -0.41604,0.47808 -0.44057,1.00723 -1.59956,2.365 -3.59757,4.5892 -5.43314,6.77852 -7.89481,9.41617 -16.62979,18.22819 -26.19513,25.95219 -1.91175,1.54387 -3.82724,3.1743 -5.84948,4.57018 l -3.98881,-2.89878 c -0.17168,-0.0438 -0.60532,-0.4625 -0.75737,-0.58079 l -2.44348,-1.98792 c -7.49896,-6.35439 -14.619661,-13.15974 -21.212091,-20.45356 -1.970018,-2.17949 -4.079396,-4.39735 -5.798407,-6.78226 -0.0075,-0.13531 0.01694,-0.27582 -0.02222,-0.40537 -0.188107,-0.61976 -1.325468,-1.7519 -1.75796,-2.3128 l -3.991119,-5.33647 -11.875246,-17.7784 c -1.600137,-2.64026 -3.4787,-5.48133 -4.469482,-8.41559 l 4.889859,-5.19136 c -1.094314,-2.75165 -2.673392,-5.43028 -3.905089,-8.1392 l -6.361603,-15.46705 c -6.790059,-17.8335 -11.31061,-36.77809 -13.88595,-55.67218 l -1.090611,-8.83799 -0.436821,-5.873712 c 0.397583,-0.255919 0.919228,-0.332665 1.37163,-0.465962 l 2.800965,-0.821996 7.179272,-2.129288 13.574059,-4.941791 c 5.296383,-2.001183 10.388783,-4.336763 15.490705,-6.780537 8.084368,-3.872244 16.043798,-8.166882 23.531509,-13.106943 l 8.45569,-6.026921 c 1.47088,-1.103881 2.91493,-2.36443 4.47323,-3.339343 z"
     id="path15"
     style="stroke-width:0.288521" />
  <path
     fill="#715551"
     d="m 68.995983,192.66576 5.202904,-6.16974 c 3.047937,6.5728 6.757744,12.90411 10.702982,18.97604 7.01049,10.7904 15.152561,21.02195 24.317151,30.0694 l 6.784,6.23868 c 1.38605,1.18815 2.86472,2.29923 4.19683,3.54477 l 0.03,7.06185 c 0.008,0.9452 -0.12233,2.31308 0.13734,3.21299 l -0.0796,0.1321 -0.0909,-0.0314 c -0.77786,-0.3315 -1.48993,-1.0678 -2.15266,-1.60156 l -6.33679,-5.39651 C 96.370299,234.79043 82.703626,218.24577 72.839663,200.00141 Z"
     id="path16"
     style="stroke-width:0.288521" />
  <path
     fill="#5e443f"
     d="m 194.67237,97.958091 c 0.72505,-0.495678 1.24411,-0.343051 2.07562,-0.206581 -1.52253,20.83296 -4.74184,41.77787 -11.06998,61.73142 -5.20897,16.42436 -12.4523,32.57664 -21.63102,47.17321 -10.78982,17.1578 -24.43832,32.64504 -39.75476,45.87834 -1.1209,0.96858 -2.59784,2.46658 -3.92504,3.06527 -0.25967,-0.89991 -0.12926,-2.26779 -0.13734,-3.21299 l -0.03,-7.06185 c 0.75477,-0.39526 1.51156,-1.19648 2.16593,-1.76805 25.78658,-22.52716 44.81167,-52.24254 55.56831,-84.69627 3.51304,-10.59912 6.03961,-21.65467 7.92279,-32.64906 1.34191,-7.83623 2.38463,-15.60063 2.92389,-23.52919 z"
     id="path17"
     style="stroke-width:0.288521" />
  <path
     fill="#ae8481"
     d="m 68.995983,192.66576 c -2.371934,-4.54075 -4.405431,-9.22633 -6.402862,-13.93991 -8.545135,-20.16503 -14.35826,-41.78768 -17.311852,-63.47957 L 43.553316,99.257302 57.900034,94.919098 c 9.527259,-3.275294 18.783308,-7.240152 27.825852,-11.670108 7.155903,-3.506109 14.214003,-7.35556 20.901634,-11.695496 4.63019,-3.004661 8.84,-6.45595 13.32853,-9.640072 0.58368,0.281597 1.12581,0.855466 1.63389,1.26459 l 3.08372,2.384338 8.63024,5.752248 c 10.99699,6.765823 22.58689,12.446807 34.51436,17.36465 4.7427,1.955597 9.57919,3.937449 14.51435,5.352069 l 0.25331,0.11513 -3.67864,4.168554 c -0.43683,0.505778 -0.94722,0.979819 -1.31536,1.536953 -15.70019,-5.345433 -30.98921,-12.484602 -45.15646,-21.111099 l -8.52696,-5.620393 c -1.25853,-0.896435 -2.5185,-2.066389 -3.82377,-2.843087 -4.31397,3.498896 -9.0587,6.539622 -13.78959,9.438682 -13.424311,8.226894 -27.69746,15.045229 -42.47667,20.457023 -4.0719,1.49079 -8.468098,3.22249 -12.728692,4.00063 1.173127,14.10783 3.908309,28.14121 7.696881,41.77008 2.212092,7.95771 4.723092,15.82395 7.774782,23.50381 l 7.637446,17.04843 z"
     id="path18"
     style="stroke-width:0.288521" />
  <path
     d="m 74.198887,186.49602 -7.637446,-17.04843 c -3.05169,-7.67986 -5.56269,-15.5461 -7.774782,-23.50381 -3.788572,-13.62887 -6.523754,-27.66225 -7.696881,-41.77008 4.260594,-0.77814 8.656792,-2.50984 12.728692,-4.00063 14.77921,-5.411793 29.052359,-12.230129 42.47667,-20.457022 4.73089,-2.899061 9.47562,-5.939787 13.78959,-9.438683 1.30527,0.776699 2.56524,1.946653 3.82377,2.843088 l 8.52696,5.620392 c 14.16725,8.626497 29.45627,15.765667 45.15646,21.1111 0.36814,-0.557135 0.87853,-1.031175 1.31536,-1.536953 l 3.67864,-4.168554 c 1.20458,0.306697 12.12857,3.389259 12.17964,3.448694 l -0.25822,0.286502 0.16503,0.07646 -5.89161,4.724246 c -0.53924,7.92856 -1.58196,15.69296 -2.92387,23.52919 -1.88318,10.99439 -4.40975,22.04995 -7.9228,32.64906 -10.75663,32.45374 -29.78173,62.16911 -55.56831,84.69627 -0.65437,0.57157 -1.41116,1.37279 -2.16593,1.76805 -1.33211,-1.24554 -2.81078,-2.35662 -4.19683,-3.54477 l -6.784,-6.23868 c -9.16459,-9.04745 -17.306661,-19.279 -24.317151,-30.0694 -3.945238,-6.07193 -7.655045,-12.40324 -10.702982,-18.97604 z"
     id="path19"
     style="stroke-width:0.288521" />
  <path
     fill="#715551"
     d="m 182.58592,94.146438 c 1.20458,0.306697 12.12857,3.389259 12.17964,3.448694 l -0.25822,0.286502 -6.0881,4.856096 -10.82732,-2.885785 c 0.36814,-0.557135 0.87853,-1.031175 1.31536,-1.536953 z"
     id="path20"
     style="stroke-width:0.288521" />
  <path
     fill="#440d17"
     d="m 177.03767,100.61912 11.00564,2.75221 c -1.07705,11.21857 -2.76288,22.2796 -5.14116,33.29852 l -2.8982,12.27628 c -7.0454,25.18733 -18.78851,48.8931 -34.98493,69.45399 l -9.33684,10.94188 c -4.10277,4.50844 -8.32845,8.83394 -13.05414,12.69753 l -0.53982,0.43337 c -0.007,-1.04157 0.2412,-2.15439 0.38777,-3.18817 l 1.24353,-7.53618 3.90427,-21.3096 4.05286,-17.73309 c 2.95993,-11.454 6.50038,-23.08025 10.93812,-34.05704 6.2035,-15.34501 14.24054,-30.0743 23.59325,-43.71962 l 6.93403,-9.45686 z"
     id="path21"
     style="stroke-width:0.288521" />
  <path
     fill="#54111d"
     d="m 120.19119,71.360184 9.6822,6.760341 c 14.75209,9.447629 30.7125,16.602955 47.16428,22.498595 l -3.89562,4.85322 -6.93403,9.45686 c -9.35271,13.64532 -17.38975,28.37461 -23.59325,43.71962 -4.43774,10.97679 -7.97819,22.60304 -10.93812,34.05704 l -4.05286,17.73309 -3.90427,21.3096 -1.24353,7.53618 c -0.14657,1.03378 -0.39441,2.1466 -0.38777,3.18817 -0.55194,0.53951 -1.16043,1.21323 -1.85837,1.54906 l -0.0326,-123.05431 z"
     id="path22"
     style="stroke-width:0.288521" />
  <path
     fill="#8b2738"
     d="M 71.978139,97.917987 C 83.790775,93.173544 95.463189,87.283961 106.33756,80.665859 l 7.38268,-4.695683 4.27386,-3.04736 c 0.69043,-0.515587 1.39298,-1.247278 2.19709,-1.562632 l 0.006,49.607466 0.0326,123.05431 -0.30295,0.11742 -1.44924,-1.40913 c -3.37772,-2.67373 -6.58261,-5.78284 -9.62594,-8.82874 C 94.915269,219.95439 83.299403,203.50175 74.766387,185.73548 72.909176,182.21869 71.360106,178.53514 69.766316,174.894 64.179102,162.1304 59.832817,148.59616 56.81777,134.99238 c -2.212669,-9.98427 -3.714133,-20.00663 -4.891011,-30.1571 z"
     id="path23"
     style="stroke-width:0.288521" />
</svg>
