<?xml version="1.0" encoding="UTF-8" standalone="no"?>
<svg
   width="63mm"
   height="88mm"
   version="1.1"
   id="svg123"
   sodipodi:docname="item-silvercoins.svg"
   inkscape:version="1.3.2 (091e20e, 2023-11-25, custom)"
   xmlns:inkscape="http://www.inkscape.org/namespaces/inkscape"
   xmlns:sodipodi="http://sodipodi.sourceforge.net/DTD/sodipodi-0.dtd"
   xmlns="http://www.w3.org/2000/svg"
   xmlns:svg="http://www.w3.org/2000/svg">
  <sodipodi:namedview
     id="namedview123"
     pagecolor="#ffffff"
     bordercolor="#000000"
     borderopacity="0.25"
     inkscape:showpageshadow="2"
     inkscape:pageopacity="0.0"
     inkscape:pagecheckerboard="0"
     inkscape:deskcolor="#d1d1d1"
     inkscape:document-units="mm"
     inkscape:zoom="1.3683333"
     inkscape:cx="125.33496"
     inkscape:cy="166.62607"
     inkscape:window-width="1350"
     inkscape:window-height="1040"
     inkscape:window-x="182"
     inkscape:window-y="0"
     inkscape:window-maximized="0"
     inkscape:current-layer="svg123" />
  <defs
     id="defs74">
    <linearGradient
       id="gradient_0"
       gradientUnits="userSpaceOnUse"
       x1="529.71039"
       y1="1148.418"
       x2="679.95923"
       y2="1009.4732"
       gradientTransform="matrix(0.17547265,-0.10737428,0.10737428,0.17547265,-48.503843,98.013793)">
      <stop
         offset="0"
         stop-color="#431A0C"
         id="stop73" />
      <stop
         offset="1"
         stop-color="#553D21"
         id="stop74" />
    </linearGradient>
  </defs>
  <defs
     id="defs100">
    <linearGradient
       id="gradient_1"
       gradientUnits="userSpaceOnUse"
       x1="585.16687"
       y1="910.49738"
       x2="553.47638"
       y2="822.70599"
       gradientTransform="matrix(0.17547265,-0.10737428,0.10737428,0.17547265,-48.503843,98.013793)">
      <stop
         offset="0"
         stop-color="#521D00"
         id="stop99" />
      <stop
         offset="1"
         stop-color="#754016"
         id="stop100" />
    </linearGradient>
  </defs>
  <defs
     id="defs110">
    <linearGradient
       id="gradient_2"
       gradientUnits="userSpaceOnUse"
       x1="493.89996"
       y1="348.56442"
       x2="623.60132"
       y2="310.72467"
       gradientTransform="matrix(0.17547265,-0.10737428,0.10737428,0.17547265,-48.503843,98.013793)">
      <stop
         offset="0"
         stop-color="#BDC0BE"
         id="stop109" />
      <stop
         offset="1"
         stop-color="#F6FFFF"
         id="stop110" />
    </linearGradient>
  </defs>
  <defs
     id="defs116">
    <linearGradient
       id="gradient_3"
       gradientUnits="userSpaceOnUse"
       x1="524.60431"
       y1="447.21811"
       x2="676.47565"
       y2="295.28336"
       gradientTransform="matrix(0.17547265,-0.10737428,0.10737428,0.17547265,-48.503843,98.013793)">
      <stop
         offset="0"
         stop-color="#606062"
         id="stop115" />
      <stop
         offset="1"
         stop-color="#6C747E"
         id="stop116" />
    </linearGradient>
  </defs>
  <path
     fill="#cfcfcf"
     d="m 51.565721,105.92178 c -0.126231,-1.89298 -0.02464,-3.27684 0.938728,-4.97717 0.847898,-1.495314 2.252356,-2.708734 3.613437,-3.724074 5.712746,-4.26196 12.949251,-6.45724 19.768761,-8.23955 6.896183,-1.80244 13.86175,-2.82103 20.93718,-3.58664 11.482893,-1.24288 22.929863,-1.483235 34.461783,-0.81385 9.34148,0.54239 18.63071,1.65048 27.76984,3.69356 6.85277,1.53202 13.81003,3.44191 19.90387,7.02988 2.91347,1.71507 6.30176,4.24719 7.16358,7.717804 l 0.0476,0.20004 c 0.20991,0.83045 0.2165,1.56792 0.20718,2.41955 -0.10561,0.54375 -0.17919,0.86506 -0.48239,1.33213 l -0.1899,0.35938 c -1.61698,3.05977 -4.47259,4.91042 -7.4442,6.50167 -2.89605,1.55081 -6.01129,2.80843 -9.15734,3.75171 -7.39621,2.21754 -14.86881,3.71472 -22.52713,4.68162 -17.05387,2.15294 -34.3527,2.11808 -51.434193,0.34459 -9.199171,-0.95508 -18.585127,-2.42171 -27.333821,-5.52167 -2.717603,-0.96286 -5.468118,-2.02005 -8.01232,-3.38541 -2.560518,-1.37392 -5.297654,-3.17875 -7.011916,-5.57742 -0.491475,-0.68764 -0.713364,-1.5792 -1.218769,-2.20628 z"
     id="path4"
     style="stroke-width:0.267978" />
  <path
     fill="#fefefe"
     d="m 113.74643,91.153756 0.10899,-0.0119 c 2.47747,-0.17453 5.04309,-0.0219 7.52619,0.0387 10.18641,0.24368 20.40442,1.16597 30.21218,4.04487 3.8238,1.12256 7.84453,2.49168 10.91987,5.121594 1.16812,0.99878 2.27728,2.41745 2.35876,4.01191 0.0743,1.45459 -0.71793,2.77653 -1.67434,3.81093 -1.25682,1.35945 -3.09892,2.33518 -4.73357,3.16431 -4.38761,2.22476 -9.10031,3.49845 -13.91212,4.40316 -6.87258,1.29219 -13.81161,1.76088 -20.78338,2.11006 -10.85608,0.21595 -21.74619,-0.27003 -32.378246,-2.62728 -4.554296,-1.00946 -9.113134,-2.26894 -13.264935,-4.44709 -2.059703,-1.08076 -4.85632,-2.68219 -5.542868,-5.0565 -0.334975,-1.15926 -0.226941,-2.31961 0.384284,-3.37064 l 0.0782,-0.13088 c 0.132262,-0.22694 0.260967,-0.42691 0.433075,-0.62789 2.433499,-2.841384 6.113122,-4.387354 9.571128,-5.582804 9.954323,-3.44085 20.280622,-4.07516 30.696692,-4.85257 z"
     id="path5"
     style="stroke-width:0.267978;fill:#b4b4b4;fill-opacity:1" />
  <path
     fill="#aeadad"
     d="m 51.565721,105.92178 c 0.505406,0.62709 0.727293,1.51865 1.218769,2.20629 1.714261,2.39868 4.451398,4.20351 7.011917,5.57742 2.544189,1.36535 5.294715,2.42254 8.012318,3.38539 8.748694,3.09997 18.134651,4.56662 27.333822,5.5217 17.081483,1.77348 34.380313,1.80834 51.434203,-0.34461 7.65831,-0.96687 15.13091,-2.46407 22.52711,-4.68161 3.14607,-0.94327 6.26131,-2.2009 9.15734,-3.7517 2.97163,-1.59125 5.82721,-3.44191 7.44421,-6.50168 l 0.1899,-0.35939 c 0.30309,-0.46706 0.37679,-0.78838 0.48239,-1.33212 l 0.005,11.06296 c 0,1.71428 0.17781,3.68608 -0.0716,5.37247 l 0.0752,0.38345 c 2.34078,1.63549 5.62916,3.9795 6.11904,7.02481 0.0999,0.6209 0.0551,1.29057 0.0414,1.91844 l 0.0109,10.59832 c 8e-4,1.87127 0.27003,4.20405 -0.17863,6.01988 -0.40278,1.6293 -1.45647,3.15437 -2.63396,4.32434 -1.02046,1.01458 -2.20601,1.88177 -3.39958,2.68115 l -4.49936,2.16045 c -3.25352,1.39426 -6.64614,2.47424 -10.04277,3.45772 -6.08202,1.76089 -12.38705,2.86203 -18.64514,3.77446 -17.84203,2.60182 -36.0343,2.91885 -53.997723,1.58914 -12.575157,-0.9307 -25.661375,-2.45203 -37.628216,-6.62205 -2.670421,-0.93068 -5.304654,-1.96238 -7.794156,-3.31381 -0.948665,-0.51505 -1.783938,-1.19464 -2.73043,-1.71076 l -0.134186,-0.072 c -1.070034,-0.73911 -2.122649,-1.5063 -3.04316,-2.43031 -1.090671,-1.09469 -2.017354,-2.43808 -2.342668,-3.9709 -0.288077,-1.3581 -0.0601,-3.19056 -0.05955,-4.58968 l 0.01646,-11.88566 c -0.01372,-0.82804 -0.11086,-1.82574 0.07135,-2.62885 0.68092,-2.99923 3.636457,-4.97559 6.038888,-6.55369 z"
     id="path6"
     style="stroke-width:0.267978" />
  <path
     fill="#cfcfcf"
     d="m 51.623873,127.25316 c -0.198673,-0.71819 -0.01643,-1.98061 -0.0078,-2.75723 0.246417,0.33848 0.414576,0.73884 0.616625,1.1062 0.9682,1.76196 2.484147,3.09813 4.121497,4.22496 4.086683,2.81244 9.04188,4.46079 13.777595,5.81543 7.314765,2.09264 14.783858,3.28835 22.332554,4.14482 17.706966,2.00849 35.691016,2.03689 53.400386,-0.0137 l 14.61316,-2.35019 c 6.15652,-1.29862 12.21901,-3.06245 17.7348,-6.15253 3.44487,-1.92971 6.84901,-4.57839 7.9201,-8.54796 l 0.1803,-0.64611 0.0752,0.38347 c 2.34077,1.6355 5.62913,3.97951 6.11901,7.0248 0.0999,0.6209 0.0551,1.29056 0.0414,1.91846 -0.43036,1.72123 -2.28505,3.76189 -3.6405,4.86864 l -2.94964,2.08461 c -5.51927,3.28354 -12.11961,5.28158 -18.33107,6.80667 -7.393,1.81527 -14.92669,2.91425 -22.49279,3.69381 -11.5866,1.19329 -23.02337,1.52747 -34.66733,1.18445 -8.18836,-0.24147 -16.317219,-0.84492 -24.437249,-1.93801 -5.236048,-0.70505 -10.531845,-1.56875 -15.657741,-2.87249 -5.455492,-1.38757 -10.975585,-3.02894 -16.016806,-5.57018 -1.903451,-0.95966 -3.899611,-2.07389 -5.481508,-3.51855 -0.86368,-0.78893 -1.682081,-1.63065 -2.332736,-2.60638 -0.258768,-0.38805 -0.43815,-0.87844 -0.716842,-1.2386 -0.238462,-0.30844 -0.282999,-0.4987 -0.377589,-0.88381 -0.01372,-0.82802 -0.110858,-1.82572 0.07135,-2.62884 0.680922,-2.99922 3.636462,-4.97557 6.038903,-6.55368 -0.07652,1.83188 -0.339015,4.09552 0.01127,5.88398 z"
     id="path7"
     style="stroke-width:0.267978" />
  <path
     fill="#818282"
     d="m 51.623873,127.25316 0.09407,0.18879 c 0.442438,0.90149 0.729443,1.79037 1.313357,2.62808 3.106951,4.45675 9.371769,6.88438 14.321056,8.61712 6.322958,2.2135 12.863508,3.47381 19.467577,4.47766 13.491387,2.05055 27.312657,2.7047 40.949027,2.15643 l 8.70903,-0.60055 c 9.68101,-0.69245 19.22292,-1.78259 28.60405,-4.38173 3.76565,-1.04322 7.4943,-2.24378 11.0225,-3.93902 2.45148,-1.17775 4.87427,-2.65511 6.90178,-4.47605 0.61394,-0.55122 1.32356,-1.17776 1.72284,-1.90396 l 0.4143,-0.67425 c 0.13144,-0.20582 0.17782,-0.37785 0.26947,-0.59867 l 0.24697,-0.45878 0.25191,-0.0565 c -0.27167,0.82537 -0.62036,1.54862 -1.11481,2.26843 -2.06155,3.00082 -5.50454,5.03531 -8.73957,6.5411 -6.45936,3.0067 -13.65781,4.86139 -20.65529,6.10534 -10.33003,1.83648 -20.8372,2.66157 -31.31889,2.90326 -15.5605,0.35909 -31.389976,-0.62221 -46.627511,-3.88753 -5.034256,-1.0789 -10.05322,-2.41745 -14.801009,-4.43773 -2.129895,-0.90631 -4.323311,-1.95249 -6.222451,-3.28758 -2.308913,-1.62287 -4.367535,-3.41537 -4.865975,-6.32162 z"
     id="path8"
     style="stroke-width:0.267978" />
  <path
     fill="#999999"
     d="m 51.623873,127.25316 c -0.198673,-0.71819 -0.01643,-1.98061 -0.0078,-2.75723 0.246417,0.33848 0.414576,0.73884 0.616625,1.1062 0.9682,1.76196 2.484147,3.09813 4.121497,4.22496 4.086683,2.81244 9.04188,4.46079 13.777595,5.81543 7.314765,2.09264 14.783858,3.28835 22.332554,4.14482 17.706966,2.00849 35.691016,2.03689 53.400386,-0.0137 l 14.61316,-2.35019 c 6.15652,-1.29862 12.21901,-3.06245 17.7348,-6.15253 3.44487,-1.92971 6.84901,-4.57839 7.9201,-8.54796 l 0.1803,-0.64611 0.0752,0.38347 c -0.47435,1.7582 0.41747,4.14563 -0.47487,5.7712 l -0.25191,0.0565 -0.24697,0.4588 c -0.0919,0.22089 -0.13803,0.39283 -0.26948,0.59865 l -0.41429,0.67424 c -0.39927,0.7262 -1.1089,1.35273 -1.72284,1.90397 -2.02751,1.82095 -4.45031,3.29831 -6.90177,4.47605 -3.52821,1.69526 -7.25687,2.89581 -11.02251,3.93902 -9.38114,2.59914 -18.92304,3.68928 -28.60405,4.38173 l -8.70904,0.60055 c -13.63636,0.54827 -27.45763,-0.10593 -40.949018,-2.15643 -6.604069,-1.00384 -13.144618,-2.26416 -19.467577,-4.47765 -4.949288,-1.73275 -11.214106,-4.16038 -14.321055,-8.61713 -0.583916,-0.83771 -0.870922,-1.72658 -1.313358,-2.62807 z"
     id="path9"
     style="stroke-width:0.267978" />
  <path
     fill="#aeadad"
     d="m 51.565721,105.92178 c 0.505406,0.62709 0.727293,1.51865 1.218769,2.20629 1.714261,2.39868 4.451398,4.20351 7.011917,5.57742 2.544189,1.36535 5.294715,2.42254 8.012318,3.38539 8.748694,3.09997 18.134651,4.56662 27.333822,5.5217 17.081483,1.77348 34.380313,1.80834 51.434203,-0.34461 7.65831,-0.96687 15.13091,-2.46407 22.52711,-4.68161 3.14607,-0.94327 6.26131,-2.2009 9.15734,-3.7517 2.97163,-1.59125 5.82721,-3.44191 7.44421,-6.50168 l 0.1899,-0.35939 c 0.30309,-0.46706 0.37679,-0.78838 0.48239,-1.33212 l 0.005,11.06296 c 0,1.71428 0.17781,3.68608 -0.0716,5.37247 l -0.18028,0.6461 c -1.07111,3.96956 -4.47526,6.61826 -7.92012,8.54796 -5.51578,3.09009 -11.57828,4.8539 -17.73482,6.15254 l -14.61313,2.35018 c -17.70937,2.05055 -35.69344,2.02215 -53.400388,0.0137 -7.54871,-0.85646 -15.017792,-2.05218 -22.332558,-4.14482 -4.735727,-1.35463 -9.690911,-3.003 -13.777592,-5.81542 -1.637352,-1.12684 -3.1533,-2.463 -4.1215,-4.22496 -0.20197,-0.3674 -0.37007,-0.76775 -0.616636,-1.10621 -0.0078,0.77661 -0.189064,2.03904 0.0078,2.75722 l -0.05739,0.86209 c -0.349706,-1.78847 -0.08732,-4.05211 -0.01127,-5.88398 z"
     id="path10"
     style="stroke-width:0.267978" />
  <path
     fill="#999999"
     d="m 51.086848,241.62405 c 0.11278,-0.70048 0.09688,-1.45325 0.128694,-2.16418 1.216902,2.92096 2.944554,4.63681 5.616573,6.3015 2.297118,1.43102 4.742692,2.5426 7.24482,3.56065 7.503392,3.05335 15.70005,4.67193 23.696266,5.80817 10.526496,1.49557 21.144609,2.29308 31.785769,2.2376 l 13.10068,-0.52148 13.02885,-1.00571 c 5.8221,-0.67558 11.71308,-1.71507 17.42156,-3.04371 5.22103,-1.21555 10.53185,-2.77412 15.31794,-5.22319 1.9541,-0.99979 4.00439,-2.21081 5.5458,-3.79053 0.81761,-0.83772 1.28495,-1.78743 1.89837,-2.7586 l 0.10877,-0.17095 c 0.0137,1.01375 0.12732,2.16688 -0.0164,3.16563 -0.19647,1.36215 -1.03788,2.79634 -1.98947,3.77718 -2.13122,2.19634 -5.11598,3.73991 -7.88365,4.96671 -4.88552,2.16555 -10.04892,3.51962 -15.2539,4.65932 -5.52278,1.20914 -11.17577,2.14411 -16.79745,2.7417 -8.15886,0.86718 -16.39035,1.22735 -24.59347,1.24853 -13.33621,0.0339 -26.726576,-0.84791 -39.825915,-3.46498 -6.458822,-1.29031 -12.969102,-2.96786 -18.941804,-5.79851 -2.412064,-1.14295 -5.073898,-2.53159 -6.98994,-4.43049 -1.573302,-1.55939 -2.597268,-3.25811 -2.611728,-5.52681 z"
     id="path13"
     style="stroke-width:0.267978" />
  <path
     fill="#aeadad"
     d="m 51.061102,222.96633 c 2.244873,1.31066 4.421928,2.58893 6.832405,3.58661 6.241761,2.5841 13.098505,4.09766 19.722143,5.34081 15.781525,2.96198 31.89458,3.77983 47.92157,3.37359 15.23995,-0.38615 30.54982,-1.92704 45.33423,-5.76637 3.7348,-0.96983 7.56317,-2.22314 11.09618,-3.77314 l 4.19868,-2.04495 -0.0526,0.43385 0.001,9.10835 c -0.002,1.40927 0.1232,2.97294 -0.0493,4.36081 l -0.0848,3.26773 -0.10877,0.17095 c -0.61342,0.97117 -1.08077,1.92088 -1.89837,2.7586 -1.54142,1.57972 -3.59171,2.79074 -5.54581,3.79053 -4.78609,2.44907 -10.0969,4.00764 -15.31793,5.22319 -5.70848,1.32864 -11.59946,2.36813 -17.42158,3.04371 l -13.02883,1.00571 -13.10068,0.52148 c -10.64118,0.0555 -21.259273,-0.74203 -31.785774,-2.2376 -7.996207,-1.13624 -16.192876,-2.75482 -23.696267,-5.80817 -2.502128,-1.01805 -4.947701,-2.12963 -7.24482,-3.56065 -2.672018,-1.66469 -4.399671,-3.38054 -5.616572,-6.3015 -0.03151,0.71093 -0.01643,1.4637 -0.128694,2.16418 l 0.01925,-4.6679 0.053,-9.68156 z"
     id="path14"
     style="stroke-width:0.267978" />
  <path
     fill="#818282"
     d="m 51.061102,222.96633 c 2.244873,1.31066 4.421928,2.58893 6.832405,3.58661 6.241761,2.5841 13.098505,4.09766 19.722143,5.34081 15.781525,2.96198 31.89458,3.77983 47.92157,3.37359 15.23995,-0.38615 30.54982,-1.92704 45.33423,-5.76637 3.7348,-0.96983 7.56317,-2.22314 11.09618,-3.77314 l 4.19868,-2.04495 -0.0526,0.43385 -0.46549,0.71846 c -0.94193,1.43824 -2.62807,2.61012 -4.06766,3.51589 -6.48532,4.0805 -14.50782,5.99952 -21.95683,7.43855 -7.15367,1.38196 -14.35802,2.15348 -21.61569,2.71757 -11.46868,0.89156 -22.80284,0.98321 -34.27797,0.26397 -8.967645,-0.56221 -17.831832,-1.51674 -26.648063,-3.27708 -5.276218,-1.05345 -10.50745,-2.3751 -15.501219,-4.40131 -2.351254,-0.954 -4.710802,-2.02887 -6.818462,-3.45237 -1.334265,-0.90096 -2.42866,-1.8785 -3.348653,-3.20529 -0.139126,-0.20059 -0.06582,-0.13061 -0.231048,-0.24614 l -0.02464,3.0855 z"
     id="path15"
     style="stroke-width:0.267978" />
  <path
     fill="#aeadad"
     d="m 50.875143,154.29034 0.134186,0.072 c 0.946494,0.51615 1.781766,1.19572 2.730431,1.71079 2.489503,1.35141 5.123735,2.38311 7.794155,3.3138 11.966842,4.17002 25.053059,5.69136 37.628202,6.62205 17.963443,1.3297 36.155713,1.01269 53.997743,-1.58915 6.25808,-0.91243 12.56311,-2.01356 18.64514,-3.77444 3.39662,-0.9835 6.78923,-2.06347 10.04277,-3.45774 l 4.49936,-2.16044 -0.0894,0.90067 -0.0399,14.94971 -0.005,12.95891 c -0.005,1.93751 0.19127,4.12718 -0.0628,6.03703 l -0.0248,1.18501 c 2.52035,1.39591 5.69696,3.24335 6.58506,6.19031 0.23598,0.78358 0.14488,1.79144 0.073,2.60074 l 0.0219,11.10235 0.0163,3.5684 c 0.002,0.72864 0.0516,1.50149 -0.1372,2.21217 -0.40037,1.50712 -1.42778,2.90301 -2.51739,3.99021 -1.1893,1.18687 -2.57581,2.08351 -3.99878,2.9601 l -4.19868,2.04493 c -3.53304,1.55 -7.36139,2.80332 -11.0962,3.77314 -14.78439,3.83933 -30.09428,5.38022 -45.33422,5.76636 -16.02699,0.40624 -32.140048,-0.4116 -47.921573,-3.37358 -6.623637,-1.24314 -13.480382,-2.75671 -19.722143,-5.34081 -2.410476,-0.99769 -4.587531,-2.27595 -6.832405,-3.58662 -1.241533,-0.80635 -2.365962,-1.64058 -3.412947,-2.69347 -1.058538,-1.06414 -1.940987,-2.42439 -2.291489,-3.89614 -0.432252,-1.81396 -0.182484,-4.16012 -0.183034,-6.04103 l 0.0247,-10.86494 c -0.03458,-0.67744 -0.04034,-1.36667 0.0804,-2.03663 0.478872,-2.65461 3.562782,-4.64675 5.643876,-6.07777 0.377587,-0.6008 0.155048,-14.57294 0.1556,-16.56884 -0.142423,-0.90392 -0.01373,-2.04199 -0.01373,-2.97109 l -0.02746,-16.81352 z"
     id="path16"
     style="stroke-width:0.267978" />
  <path
     fill="#999999"
     d="m 51.062723,171.81641 c 0.493883,0.32453 0.841732,1.18635 1.200269,1.6829 2.149734,2.97806 5.482061,4.87533 8.770953,6.34978 7.593174,3.40358 16.192075,5.07575 24.382038,6.3224 10.950164,1.66683 22.002667,2.34643 33.072867,2.3633 10.17996,0.0165 20.24121,-0.49816 30.33705,-1.83697 8.53808,-1.13221 17.45238,-2.79101 25.51827,-5.88804 3.82996,-1.4704 9.66841,-4.15743 11.39446,-8.14389 l 0.12926,-0.30546 c 0.11585,-0.20884 0.16465,-0.21734 0.19648,-0.47275 l 0.15394,-1.01001 -0.005,12.95893 c -0.005,1.93751 0.19127,4.12716 -0.0629,6.03702 -0.19045,-1.47389 -0.0414,-3.14876 -0.0411,-4.6422 l 0.002,-9.87419 c -1.31284,2.61491 -3.24682,4.4621 -5.67365,6.0622 -4.34902,2.86683 -9.25196,4.53742 -14.21813,5.96627 -10.4394,3.00406 -21.46509,4.53689 -32.30402,5.08408 l -12.7448,0.12103 -14.23772,-0.0725 -12.138889,-1.0052 c -4.915282,-0.52415 -9.875822,-1.13542 -14.720619,-2.12988 -7.47875,-1.53474 -15.186879,-3.46872 -21.969707,-7.06766 -1.863515,-0.98887 -4.053171,-2.24112 -5.220484,-4.04864 l -0.11361,-0.18028 c -0.650405,-1.00437 -0.997973,-2.07763 -1.573054,-3.09326 l -0.119917,-0.20581 c -0.142423,-0.9039 -0.01373,-2.042 -0.01373,-2.9711 z"
     id="path17"
     style="stroke-width:0.267978" />
  <path
     fill="#aeadad"
     d="m 50.875143,154.29034 0.134186,0.072 c 0.946494,0.51615 1.781766,1.19572 2.730431,1.71079 2.489503,1.35141 5.123735,2.38311 7.794155,3.3138 11.966842,4.17002 25.053059,5.69136 37.628202,6.62205 17.963443,1.3297 36.155713,1.01269 53.997743,-1.58915 6.25808,-0.91243 12.56311,-2.01356 18.64514,-3.77444 3.39662,-0.9835 6.78923,-2.06347 10.04277,-3.45774 l 4.49936,-2.16044 -0.0894,0.90067 -0.0399,14.94971 -0.15393,1.01003 c -0.0319,0.25547 -0.0807,0.26399 -0.19649,0.47272 l -0.12925,0.30548 c -1.72607,3.98647 -7.5645,6.67349 -11.39446,8.1439 -8.06588,3.09701 -16.9802,4.75579 -25.51828,5.88801 -10.09583,1.33882 -20.15708,1.85228 -30.33705,1.83699 -11.0702,-0.0165 -22.122713,-0.69648 -33.072865,-2.3633 -8.189962,-1.24666 -16.788863,-2.91883 -24.382038,-6.32242 -3.288891,-1.47444 -6.621218,-3.37172 -8.770952,-6.34977 -0.358538,-0.49655 -0.706387,-1.35837 -1.20027,-1.6829 l -0.0275,-16.81348 z"
     id="path18"
     style="stroke-width:0.267978" />
  <path
     fill="#818282"
     d="m 50.875143,154.29034 0.134186,0.072 c 0.946494,0.51615 1.781766,1.19572 2.730431,1.71079 2.489503,1.35141 5.123735,2.38311 7.794155,3.3138 11.966842,4.17002 25.053059,5.69136 37.628202,6.62205 17.963443,1.3297 36.155713,1.01269 53.997743,-1.58915 6.25808,-0.91243 12.56311,-2.01356 18.64514,-3.77444 3.39662,-0.9835 6.78923,-2.06347 10.04277,-3.45774 l 4.49936,-2.16044 -0.0894,0.90067 -0.43681,0.53781 c -1.43102,1.7641 -3.34598,3.05872 -5.3218,4.14217 -3.20206,1.75606 -6.66621,2.97214 -10.14888,4.04031 -8.02034,2.45976 -16.30356,3.81466 -24.63018,4.71161 -19.39068,2.08889 -39.04933,2.03582 -58.391228,-0.58475 -6.12199,-0.82965 -12.394807,-1.88844 -18.32304,-3.64478 -3.005397,-0.89021 -5.954755,-1.89754 -8.834472,-3.13614 -3.5124,-1.51061 -7.250132,-3.50008 -9.135116,-6.9913 z"
     id="path19"
     style="stroke-width:0.267978" />
  <path
     fill="#aeadad"
     d="m 186.12317,191.05862 c 2.52036,1.3959 5.69698,3.24335 6.58506,6.19032 0.236,0.78357 0.14489,1.79143 0.073,2.60073 l 0.0219,11.10236 0.0164,3.56841 c 0.002,0.72861 0.0517,1.50147 -0.1372,2.21216 -0.40037,1.50712 -1.42779,2.90301 -2.51739,3.9902 -1.18929,1.18688 -2.57581,2.08352 -3.9988,2.96008 l -4.19866,2.04495 c -3.53303,1.55 -7.3614,2.80331 -11.09619,3.77314 -14.78441,3.83933 -30.09427,5.38022 -45.33422,5.76637 -16.02701,0.40624 -32.140051,-0.41161 -47.921585,-3.37359 -6.623626,-1.24315 -13.480381,-2.75671 -19.722143,-5.34081 -2.410477,-0.99768 -4.587531,-2.27595 -6.832393,-3.58661 -1.241544,-0.80637 -2.365973,-1.64059 -3.412955,-2.69349 -1.058539,-1.06412 -1.940987,-2.42439 -2.291492,-3.89612 -0.432251,-1.81397 -0.182482,-4.16012 -0.183031,-6.04103 l 0.0247,-10.86495 c -0.03458,-0.67745 -0.04034,-1.36668 0.08039,-2.03663 0.478874,-2.65461 3.562778,-4.64675 5.643883,-6.07777 0.260958,0.61691 0.153114,1.43476 0.148456,2.09827 0.203061,0.30471 0.384553,0.59815 0.541604,0.92936 2.421167,5.10257 9.523159,7.66018 14.485838,9.38971 8.755141,3.05092 18.115634,4.51409 27.303005,5.51741 19.707943,2.15187 39.741243,2.01172 59.338263,-1.10649 8.51262,-1.35434 17.11339,-3.1024 24.92121,-6.88678 2.51124,-1.21715 5.0624,-2.75884 6.83238,-4.96188 0.55902,-0.69567 0.91114,-1.57384 1.49104,-2.23444 z"
     id="path20"
     style="stroke-width:0.267978" />
  <path
     fill="#cfcfcf"
     d="m 186.12317,191.05862 c 2.52036,1.3959 5.69698,3.24335 6.58506,6.19032 0.236,0.78357 0.14489,1.79143 0.073,2.60073 l -0.15751,0.64851 c -0.40762,0.2827 -0.68496,0.90281 -0.98563,1.31014 -0.3816,0.51718 -0.81815,0.97221 -1.27372,1.42485 -2.53293,2.51684 -5.83575,4.38253 -9.05498,5.87785 -6.45937,3.00054 -13.4276,4.79414 -20.3996,6.13295 -11.63967,2.23494 -23.28765,3.04934 -35.11031,3.31812 -14.59521,0.33149 -29.344763,-0.11276 -43.784505,-2.39709 -7.449559,-1.17856 -15.080768,-3.00671 -22.154876,-5.63558 -3.664613,-1.36188 -7.366212,-3.0965 -10.464307,-5.50508 -1.476021,-1.14749 -2.892828,-2.57153 -3.671578,-4.29706 l -0.165469,-0.3631 c -0.200319,-0.33416 -0.27194,-0.4995 -0.360959,-0.89344 -0.03458,-0.67745 -0.04034,-1.36668 0.08039,-2.03663 0.478875,-2.65461 3.562782,-4.64675 5.643886,-6.07777 0.260957,0.61691 0.153114,1.43476 0.148454,2.09827 0.203064,0.30471 0.384554,0.59815 0.541606,0.92936 2.421166,5.10257 9.523158,7.66018 14.485837,9.38971 8.755142,3.05092 18.115634,4.51409 27.303009,5.51741 19.707962,2.15187 39.741252,2.01172 59.338262,-1.10649 8.51263,-1.35434 17.11341,-3.1024 24.92122,-6.88678 2.51124,-1.21715 5.06241,-2.75884 6.83237,-4.96188 0.55903,-0.69567 0.91115,-1.57384 1.49104,-2.23444 z"
     id="path21"
     style="stroke-width:0.267978" />
  <path
     fill="#999999"
     d="m 51.070217,193.45461 c 0.203063,0.30471 0.384554,0.59815 0.541604,0.92936 2.421167,5.10257 9.523159,7.66018 14.485837,9.38971 8.755142,3.05092 18.115635,4.51409 27.303005,5.51741 19.707957,2.15187 39.741257,2.01172 59.338277,-1.10649 8.51262,-1.35434 17.11338,-3.1024 24.9212,-6.88678 2.51123,-1.21715 5.0624,-2.75884 6.83238,-4.96188 0.55903,-0.69567 0.91114,-1.57384 1.49103,-2.23444 -0.005,1.16332 0.0702,2.41959 -0.22201,3.55208 -0.34351,1.33103 -1.27045,2.56805 -2.23627,3.52338 -11.76131,11.6343 -49.35845,13.91857 -65.68559,13.85689 -10.70977,-0.0403 -21.508243,-0.8685 -32.082937,-2.57282 -6.555572,-1.05666 -13.122102,-2.38799 -19.422017,-4.51546 -4.504476,-1.5213 -9.510296,-3.49231 -12.896737,-6.9278 -1.147765,-1.16409 -2.059421,-2.58008 -2.324191,-4.21905 -0.168765,-1.0462 -0.05053,-2.27862 -0.04366,-3.34411 z"
     id="path22"
     style="stroke-width:0.267978" />
</svg>
