<?xml version="1.0" encoding="UTF-8" standalone="no"?>
<svg
   width="63mm"
   height="88mm"
   version="1.1"
   id="svg123"
   sodipodi:docname="item-finewoodlandcloak.svg"
   inkscape:version="1.3.2 (091e20e, 2023-11-25, custom)"
   xml:space="preserve"
   xmlns:inkscape="http://www.inkscape.org/namespaces/inkscape"
   xmlns:sodipodi="http://sodipodi.sourceforge.net/DTD/sodipodi-0.dtd"
   xmlns="http://www.w3.org/2000/svg"
   xmlns:svg="http://www.w3.org/2000/svg"><sodipodi:namedview
     id="namedview123"
     pagecolor="#ffffff"
     bordercolor="#000000"
     borderopacity="0.25"
     inkscape:showpageshadow="2"
     inkscape:pageopacity="0.0"
     inkscape:pagecheckerboard="0"
     inkscape:deskcolor="#d1d1d1"
     inkscape:document-units="mm"
     inkscape:zoom="0.68416665"
     inkscape:cx="47.503046"
     inkscape:cy="152.00975"
     inkscape:window-width="1350"
     inkscape:window-height="1040"
     inkscape:window-x="182"
     inkscape:window-y="0"
     inkscape:window-maximized="0"
     inkscape:current-layer="svg123" /><defs
     id="defs74"><linearGradient
       id="gradient_0"
       gradientUnits="userSpaceOnUse"
       x1="529.71039"
       y1="1148.418"
       x2="679.95923"
       y2="1009.4732"
       gradientTransform="matrix(0.17547265,-0.10737428,0.10737428,0.17547265,-48.503843,98.013793)"><stop
         offset="0"
         stop-color="#431A0C"
         id="stop73" /><stop
         offset="1"
         stop-color="#553D21"
         id="stop74" /></linearGradient><linearGradient
       id="gradient_0-6"
       gradientUnits="userSpaceOnUse"
       x1="383.3446"
       y1="240.92506"
       x2="493.68604"
       y2="394.40707"><stop
         offset="0"
         stop-color="#A4A573"
         id="stop21" /><stop
         offset="1"
         stop-color="#949F8E"
         id="stop22" /></linearGradient><linearGradient
       id="gradient_0-1"
       gradientUnits="userSpaceOnUse"
       x1="309.27319"
       y1="1010.506"
       x2="55.234642"
       y2="1037.7371"><stop
         offset="0"
         stop-color="#2D0102"
         id="stop18" /><stop
         offset="1"
         stop-color="#581303"
         id="stop19" /></linearGradient><linearGradient
       id="gradient_1-0"
       gradientUnits="userSpaceOnUse"
       x1="404.49182"
       y1="353.5791"
       x2="350.31488"
       y2="396.92874"><stop
         offset="0"
         stop-color="#303201"
         id="stop40" /><stop
         offset="1"
         stop-color="#332206"
         id="stop41" /></linearGradient><linearGradient
       id="gradient_2-5"
       gradientUnits="userSpaceOnUse"
       x1="506.94858"
       y1="311.92169"
       x2="661.82727"
       y2="365.85077"><stop
         offset="0"
         stop-color="#754A09"
         id="stop50" /><stop
         offset="1"
         stop-color="#896114"
         id="stop51" /></linearGradient><linearGradient
       id="gradient_3-2"
       gradientUnits="userSpaceOnUse"
       x1="577.40277"
       y1="231.90848"
       x2="604.90686"
       y2="222.14827"><stop
         offset="0"
         stop-color="#144E1B"
         id="stop55" /><stop
         offset="1"
         stop-color="#1A6923"
         id="stop56" /></linearGradient><linearGradient
       id="gradient_4"
       gradientUnits="userSpaceOnUse"
       x1="398.15479"
       y1="846.26178"
       x2="613.49591"
       y2="843.54828"><stop
         offset="0"
         stop-color="#2B1810"
         id="stop73-2" /><stop
         offset="1"
         stop-color="#4C2B1F"
         id="stop74-6" /></linearGradient></defs><defs
     id="defs100"><linearGradient
       id="gradient_1"
       gradientUnits="userSpaceOnUse"
       x1="585.16687"
       y1="910.49738"
       x2="553.47638"
       y2="822.70599"
       gradientTransform="matrix(0.17547265,-0.10737428,0.10737428,0.17547265,-48.503843,98.013793)"><stop
         offset="0"
         stop-color="#521D00"
         id="stop99" /><stop
         offset="1"
         stop-color="#754016"
         id="stop100" /></linearGradient></defs><defs
     id="defs110"><linearGradient
       id="gradient_2"
       gradientUnits="userSpaceOnUse"
       x1="493.89996"
       y1="348.56442"
       x2="623.60132"
       y2="310.72467"
       gradientTransform="matrix(0.17547265,-0.10737428,0.10737428,0.17547265,-48.503843,98.013793)"><stop
         offset="0"
         stop-color="#BDC0BE"
         id="stop109" /><stop
         offset="1"
         stop-color="#F6FFFF"
         id="stop110" /></linearGradient></defs><defs
     id="defs116"><linearGradient
       id="gradient_3"
       gradientUnits="userSpaceOnUse"
       x1="524.60431"
       y1="447.21811"
       x2="676.47565"
       y2="295.28336"
       gradientTransform="matrix(0.17547265,-0.10737428,0.10737428,0.17547265,-48.503843,98.013793)"><stop
         offset="0"
         stop-color="#606062"
         id="stop115" /><stop
         offset="1"
         stop-color="#6C747E"
         id="stop116" /></linearGradient></defs><g
     id="g1"
     transform="matrix(0.28234526,0,0,0.28234526,14.695985,26.16498)"><path
       fill="#d8a444"
       transform="scale(0.75,0.750183)"
       d="m 275.28,257.504 51.786,-33.784 13.888,5.976 c -10.19,7.517 -20.249,15.222 -30.397,22.797 -3.276,2.445 -7.715,4.643 -10.521,7.561 -8.587,-2.584 -15.843,-2.859 -24.756,-2.55 z"
       id="path2" /><path
       fill="#482815"
       transform="scale(0.75,0.750183)"
       d="m 723.708,288.371 0.625,-1.088 c 1.426,-1.662 3.782,-3.174 5.526,-4.489 9.27,-6.991 18.001,-8.466 29.142,-10.568 l 0.878,1.587 c -4.113,10.714 -9.276,20.41 -15.256,30.2 -3.704,6.064 -8.121,12.235 -11.084,18.686 -3.043,-4.92 -4.148,-12.728 -5.512,-18.344 z"
       id="path3" /><path
       fill="#f6db6a"
       transform="scale(0.75,0.750183)"
       d="m 692.115,221.069 61.828,38.296 c -6.217,1.269 -12.621,2.09 -18.672,4.035 -5.917,1.901 -11.279,4.738 -17.026,6.958 -7.934,5.033 -16.013,10.251 -22.737,16.876 -4.114,-6.505 -8.328,-12.78 -13.58,-18.439 -7.285,-7.851 -15.677,-14.403 -23.223,-21.946 l 13.325,-10.754 c 6.471,-5.171 12.896,-10.887 20.085,-15.026 z"
       id="path4" /><path
       fill="#f9f79a"
       transform="scale(0.75,0.750183)"
       d="m 672.03,236.095 c 9.449,6.831 18.996,13.514 28.53,20.224 5.721,4.027 13.633,8.285 17.685,14.039 -7.934,5.033 -16.013,10.251 -22.737,16.876 -4.114,-6.505 -8.328,-12.78 -13.58,-18.439 -7.285,-7.851 -15.677,-14.403 -23.223,-21.946 z"
       id="path5" /><path
       fill="#961a0a"
       transform="scale(0.75,0.750183)"
       d="m 834.168,677.294 c 11.827,37.627 22.848,75.529 34.983,113.055 17.195,53.174 35.7,105.928 53.711,158.83 10.091,29.637 20.519,59.091 31.518,88.401 3.732,9.95 6.784,21.3 11.556,30.73 l -1.374,0.18 c -9.025,-6.3 -18.337,-13.19 -26.229,-20.91 -17.473,-17.09 -32.47,-39.09 -43.599,-60.74 C 883.912,965.791 875.169,944.496 869,921.598 857.805,880.046 855.54,837.043 851.242,794.427 849.536,777.511 847.025,760.533 844.462,743.729 843,734.138 842.306,724.445 841,714.832 840.273,709.485 840.366,703.82 837.815,699 c -0.889,-1.541 -1.152,-4.598 -1.458,-6.37 -0.869,-5.037 -2.367,-10.225 -2.189,-15.336 z"
       id="path6" /><path
       fill="#961a0a"
       transform="scale(0.75,0.750183)"
       d="m 191.021,664.979 c 0.084,2.455 0.057,4.451 -0.527,6.857 l -7.123,45.103 c -2.019,4.543 -2.106,9.519 -2.92,14.382 -2.594,15.509 -4.684,31.213 -6.493,46.832 -4.366,37.712 -6.241,76.205 -12.662,113.629 -7.801,45.461 -23.735,90.071 -51.199,127.448 -13.7892,18.76 -29.5997,35.8 -49.4864,48.18 l -1.9167,-0.46 c 8.4797,-19.52 15.0658,-40.29 22.2334,-60.33 16.7731,-46.894 32.4527,-94.07 48.2007,-141.312 14.124,-42.369 27.817,-84.827 41.023,-127.488 7.481,-24.168 15.935,-48.004 20.87,-72.841 z"
       id="path7" /><path
       fill="#3cb845"
       transform="scale(0.75,0.750183)"
       d="m 509.314,37.1528 1.353,-1.1099 c 2.08,0.4415 3.886,2.711 5.391,4.1583 6.914,4.5207 13.069,10.3445 19.194,15.8574 23.46,21.1136 44.688,46.1014 62.777,71.9104 7.39,10.543 14.547,21.327 21.421,32.214 2.819,4.464 5.444,10.675 8.883,14.528 4.117,4.612 11.175,9.21 16.373,12.593 l 6.1,4.619 22.11,16.077 c 1.875,1.177 3.838,2.271 5.462,3.787 l 13.737,9.282 c -7.189,4.139 -13.614,9.855 -20.085,15.026 l -13.325,10.754 -5.273,4.753 c -3.799,-3.429 -5.929,-6.676 -8.024,-11.325 l -4.239,3.136 -2.491,-1.208 -19.822,13.773 c -6.184,-7.891 -13.499,-15.694 -20.444,-22.943 -3.715,-3.878 -8.362,-7.581 -11.308,-12.079 -4.024,-6.143 -7.333,-13.277 -10.024,-20.111 -1.863,-4.73 -2.992,-10.182 -6.03,-14.256 l 0.386,-8.756 -0.579,-0.706 c -3.645,-3.68 -6.779,-9.02 -9.692,-13.307 l 0.421,7.455 c -1.438,-2.781 -3.25,-4.49 -5.523,-6.58 -0.622,-14.318 -4.808,-29.577 -8.574,-43.342 0.339,-1.751 0.273,-3.659 0.337,-5.44 -4.583,-15.759 -11.434,-31.3724 -19.389,-45.7004 -3.503,-6.3094 -7.887,-12.2905 -12.117,-18.1359 -1.837,-2.5381 -4.729,-5.694 -5.897,-8.5594 -0.714,-1.7519 -0.757,-4.4578 -1.109,-6.3645 z"
       id="path8" /><path
       fill="#fca51f"
       transform="scale(0.75,0.750183)"
       d="m 587.943,201.377 c 0.987,-11.111 2.523,-19.767 10.082,-28.419 3.587,-4.107 8.042,-7.24 13.653,-7.54 1.842,-0.099 3.541,-0.336 4.932,0.934 -2.322,0.092 -4.712,0.111 -6.983,0.644 l -0.627,0.159 -0.999,0.272 c -3.189,1.292 -7.749,8.187 -8.89,11.316 l -0.154,0.461 c -5.51,8.1 -7.071,18.407 -5.29,27.913 0.399,2.133 1.322,4.484 1.352,6.631 l 0.071,0.659 c 0.21,1.807 0.426,2.938 1.25,4.54 1.465,2.846 3.63,4.642 5.307,7.273 -1.465,-0.34 -5.37,-4.768 -6.378,-6.21 l -1.261,-2.356 -1.766,-1.1 c -2.958,-3.265 -3.725,-11.061 -4.299,-15.177 z"
       id="path9" /><path
       fill="#307c2a"
       transform="scale(0.75,0.750183)"
       d="m 595.019,213.748 c -0.03,-2.147 -0.953,-4.498 -1.352,-6.631 -1.781,-9.506 -0.22,-19.813 5.29,-27.913 -0.367,2.101 -0.673,4.075 -1.413,6.084 -0.332,0.902 -0.616,1.831 -0.941,2.738 -2.016,5.616 -0.465,11.487 2.182,16.557 3.061,5.864 10.373,14.465 16.882,16.438 3.529,1.07 8.391,0.867 11.597,-1.168 4.346,-2.76 7.547,-7.817 9.21,-12.57 0.621,-1.778 1.315,-3.447 1.641,-5.318 0.343,-1.962 0.611,-4.071 1.276,-5.948 1.872,-0.509 3.537,-0.722 5.475,-0.774 0.469,5.096 0.73,9.911 -0.267,14.963 -2.188,7.572 -6.203,13.942 -13.266,17.87 -5.426,3.018 -13.127,4.269 -19.104,2.381 -8.932,-2.821 -13.099,-8.757 -17.21,-16.709 z"
       id="path10" /><path
       fill="#307c2a"
       transform="scale(0.75,0.750183)"
       d="m 571.436,177.833 c 1.698,3.299 3.092,6.923 5.096,10.023 3.18,4.92 7.532,9.151 11.411,13.521 0.574,4.116 1.341,11.912 4.299,15.177 l 1.766,1.1 1.261,2.356 c 1.008,1.442 4.913,5.87 6.378,6.21 -1.677,-2.631 -3.842,-4.427 -5.307,-7.273 -0.824,-1.602 -1.04,-2.733 -1.25,-4.54 l -0.071,-0.659 c 4.111,7.952 8.278,13.888 17.21,16.709 5.977,1.888 13.678,0.637 19.104,-2.381 7.063,-3.928 11.078,-10.298 13.266,-17.87 l 1.204,0.943 1.153,-4.154 c 0.375,3.368 0.731,6.639 0.144,10.003 -1.121,6.415 -5.851,15.98 -4.649,22.13 l -3.773,3.077 -19.822,13.773 c -6.184,-7.891 -13.499,-15.694 -20.444,-22.943 -3.715,-3.878 -8.362,-7.581 -11.308,-12.079 -4.024,-6.143 -7.333,-13.277 -10.024,-20.111 -1.863,-4.73 -2.992,-10.182 -6.03,-14.256 z"
       id="path11" /><path
       fill="#e97b0c"
       transform="scale(0.75,0.750183)"
       d="m 644.599,210.206 1.204,0.943 c -1.638,7.185 -5.579,13.895 -11.927,17.896 -5.428,3.421 -14.3,6.55 -20.703,4.953 -8.06,-2.011 -15.335,-7.285 -19.516,-14.508 -0.562,-0.97 -1.014,-1.893 -1.415,-2.936 l 1.766,1.1 1.261,2.356 c 1.008,1.442 4.913,5.87 6.378,6.21 -1.677,-2.631 -3.842,-4.427 -5.307,-7.273 -0.824,-1.602 -1.04,-2.733 -1.25,-4.54 l -0.071,-0.659 c 4.111,7.952 8.278,13.888 17.21,16.709 5.977,1.888 13.678,0.637 19.104,-2.381 7.063,-3.928 11.078,-10.298 13.266,-17.87 z"
       id="path12" /><path
       fill="#e97b0c"
       transform="scale(0.75,0.750183)"
       d="m 509.314,37.1528 1.353,-1.1099 c 2.08,0.4415 3.886,2.711 5.391,4.1583 2.239,3.4859 4.997,6.4981 7.228,9.9536 19.292,29.8898 33.873,59.6182 42.048,94.4762 2.465,10.511 5.075,21.694 5.523,32.496 -3.645,-3.68 -6.779,-9.02 -9.692,-13.307 l 0.421,7.455 c -1.438,-2.781 -3.25,-4.49 -5.523,-6.58 -0.622,-14.318 -4.808,-29.577 -8.574,-43.342 0.339,-1.751 0.273,-3.659 0.337,-5.44 -4.583,-15.759 -11.434,-31.3724 -19.389,-45.7004 -3.503,-6.3094 -7.887,-12.2905 -12.117,-18.1359 -1.837,-2.5381 -4.729,-5.694 -5.897,-8.5594 -0.714,-1.7519 -0.757,-4.4578 -1.109,-6.3645 z"
       id="path13" /><path
       fill="#895813"
       transform="scale(0.75,0.750183)"
       d="m 547.826,115.913 c 6.373,15.53 7.588,32.319 13.339,47.907 l 0.421,7.455 c -1.438,-2.781 -3.25,-4.49 -5.523,-6.58 -0.622,-14.318 -4.808,-29.577 -8.574,-43.342 0.339,-1.751 0.273,-3.659 0.337,-5.44 z"
       id="path14" /><path
       fill="#3cb845"
       transform="scale(0.75,0.750183)"
       d="m 644.706,187.304 6.1,4.619 22.11,16.077 c 1.875,1.177 3.838,2.271 5.462,3.787 l 13.737,9.282 c -7.189,4.139 -13.614,9.855 -20.085,15.026 l -13.325,10.754 -5.273,4.753 c -3.799,-3.429 -5.929,-6.676 -8.024,-11.325 l -4.239,3.136 -2.491,-1.208 3.773,-3.077 c -1.202,-6.15 3.528,-15.715 4.649,-22.13 0.587,-3.364 0.231,-6.635 -0.144,-10.003 l -1.153,4.154 -1.204,-0.943 c 0.997,-5.052 0.736,-9.867 0.267,-14.963 -0.268,-2.696 -0.273,-5.239 -0.16,-7.939 z"
       id="path15" /><path
       fill="#fca51f"
       transform="scale(0.75,0.750183)"
       d="m 672.916,208 c 1.875,1.177 3.838,2.271 5.462,3.787 -10.322,10.85 -20.986,19.545 -32.97,28.49 l -4.239,3.136 -2.491,-1.208 3.773,-3.077 z"
       id="path16" /><path
       fill="#3cb845"
       transform="scale(0.75,0.750183)"
       d="m 644.706,187.304 6.1,4.619 22.11,16.077 -30.465,31.128 c -1.202,-6.15 3.528,-15.715 4.649,-22.13 0.587,-3.364 0.231,-6.635 -0.144,-10.003 l -1.153,4.154 -1.204,-0.943 c 0.997,-5.052 0.736,-9.867 0.267,-14.963 -0.268,-2.696 -0.273,-5.239 -0.16,-7.939 z"
       id="path17" /><path
       fill="#fca51f"
       transform="scale(0.75,0.750183)"
       d="m 644.706,187.304 6.1,4.619 c -2.225,5.182 -3.435,8.778 -3.343,14.462 l -0.507,0.61 -1.153,4.154 -1.204,-0.943 c 0.997,-5.052 0.736,-9.867 0.267,-14.963 -0.268,-2.696 -0.273,-5.239 -0.16,-7.939 z"
       id="path18" /><path
       fill="url(#gradient_0)"
       transform="scale(0.75,0.750183)"
       d="m 58.6939,1066.95 1.9167,0.46 c 19.8867,-12.38 35.6972,-29.42 49.4864,-48.18 27.464,-37.377 43.398,-81.987 51.199,-127.448 6.421,-37.424 8.296,-75.917 12.662,-113.629 1.809,-15.619 3.899,-31.323 6.493,-46.832 0.814,-4.863 0.901,-9.839 2.92,-14.382 l -2.161,87.939 c 0.562,43.32 4.861,86.226 11.78,128.974 13.34,82.428 37.649,163.538 74.75,238.488 5.607,11.33 10.953,22.77 17.043,33.86 1.405,2.55 2.908,6.48 4.931,8.44 l 0.391,0.31 c 2.558,6.73 6.958,13.01 10.628,19.2 9.395,15.86 19.312,31.22 29.515,46.56 3.877,5.83 8.403,11.35 11.981,17.35 l -0.905,0.28 -1.703,0.34 c -2.763,-0.98 -5.567,-1.63 -7.514,-3.94 l -1.774,0.33 c -11.242,-3.9 -22.087,-9.04 -32.917,-13.95 -23.272,-10.54 -45.66,-22.27 -67.499,-35.55 -3.746,-2.28 -11.118,-5.66 -13.338,-9.32 l -1.353,0.06 c -23.609,-13.54 -45.997,-32.21 -66.559,-49.97 -4.073,-3.52 -10.762,-7.94 -12.931,-12.74 l -1.127,-0.19 c -5.358,-4.55 -10.228,-10.11 -15.118,-15.18 -18.606,-19.28 -36.062,-40.63 -49.5327,-63.85 -2.3529,-4.05 -12.2567,-20.16 -12.1855,-23.97 0.018,-0.97 0.6608,-2.49 0.9211,-3.46 z"
       id="path19"
       style="fill:url(#gradient_0-1)" /><path
       fill="#4c0d03"
       transform="scale(0.75,0.750183)"
       d="m 200.207,1015.88 0.8,-4.46 c 0.388,1.06 0.681,1.91 0.785,3.04 0.087,0.94 0.228,1.42 0.548,2.29 l 2.01,7.67 0.138,0.63 c 0.987,3.72 2.959,7.71 4.158,11.5 2.894,9.15 5.524,18.37 8.469,27.52 12.435,38.62 26.221,76.28 43.697,112.98 13.605,28.57 29.402,55.99 46.634,82.51 5.093,7.85 10.362,15.54 15.766,23.17 2.814,3.97 5.593,8.44 8.895,12.01 l -1.774,0.33 c -11.242,-3.9 -22.087,-9.04 -32.917,-13.95 -23.272,-10.54 -45.66,-22.27 -67.499,-35.55 -3.746,-2.28 -11.118,-5.66 -13.338,-9.32 z"
       id="path20" /><path
       fill="#961a0a"
       transform="scale(0.75,0.750183)"
       d="m 135.736,1173.6 c 1.537,-1.4 1.8,-3.61 2.413,-5.58 1.505,-4.84 3.002,-9.68 4.556,-14.5 23.079,-71.66 36.367,-145.86 45.228,-220.474 l 12.274,82.834 16.372,220.37 -1.353,0.06 c -23.609,-13.54 -45.997,-32.21 -66.559,-49.97 -4.073,-3.52 -10.762,-7.94 -12.931,-12.74 z"
       id="path21" /><path
       fill="#4c0d03"
       transform="scale(0.75,0.750183)"
       d="m 837.815,699 c 2.551,4.82 2.458,10.485 3.185,15.832 1.306,9.613 2,19.306 3.462,28.897 2.563,16.804 5.074,33.782 6.78,50.698 4.298,42.616 6.563,85.619 17.758,127.171 6.169,22.898 14.912,44.193 25.734,65.242 11.129,21.65 26.126,43.65 43.599,60.74 7.892,7.72 17.204,14.61 26.229,20.91 l 1.374,-0.18 c 0.613,4.92 -3.327,10.54 -5.65,14.77 -8.021,14.58 -17.333,28.18 -27.554,41.32 -5.622,7.23 -36.388,44.8 -42.016,45.94 -1.79,4.35 -7.642,8.74 -11.168,12.02 -15.882,14.78 -33.063,28.3 -50.81,40.75 -7.73,5.42 -15.249,10.97 -23.509,15.58 l -1.33,-0.06 c -2.965,4.14 -9.577,7.19 -13.92,9.79 -26.805,16.01 -55.788,29.67 -84.46,41.99 -4.418,1.89 -8.865,3.69 -13.363,5.39 -1.548,0.59 -3.805,1.8 -5.408,1.95 l -1.515,-0.11 -1.115,-0.29 c 10.426,-16.98 21.341,-33.57 31.457,-50.75 27.167,-46.15 50.94,-94.01 69.922,-144.12 2.919,-7.71 5.723,-15.46 8.353,-23.27 1.357,-4.02 3.038,-8.03 3.546,-12.27 1.358,-1.36 1.911,-4.49 2.483,-6.31 2.202,-7.01 4.18,-14.07 6.119,-21.16 5.638,-20.6 11.079,-41.138 15.436,-62.057 3.615,-17.354 6.336,-34.829 9.182,-52.316 5.852,-35.951 10.266,-73.058 10.59,-109.509 0.376,-27.727 2.046,-54.992 0.494,-82.767 -0.633,-11.342 -2.663,-22.545 -3.885,-33.821 z"
       id="path22" /><path
       fill="#961a0a"
       transform="scale(0.75,0.750183)"
       d="m 835.203,932.294 c 3.371,24.945 6.315,49.993 10.37,74.836 8.057,49.36 19.493,99.72 36.873,146.69 1.397,3.78 5.046,15.04 8.27,16.52 -1.79,4.35 -7.642,8.74 -11.168,12.02 -15.882,14.78 -33.063,28.3 -50.81,40.75 -7.73,5.42 -15.249,10.97 -23.509,15.58 l -1.33,-0.06 c 1.401,-5.14 1.587,-11.51 2.153,-16.85 1.01,-9.55 2.071,-19.09 3.096,-28.64 5.62,-52.36 8.459,-104.74 13.073,-157.16 2.016,-22.9 5.558,-45.75 8.722,-68.521 1.628,-11.719 3.482,-23.351 4.26,-35.165 z"
       id="path23" /><path
       fill="#895813"
       transform="scale(0.75,0.750183)"
       d="m 792.099,715.832 c -0.294,-58.875 -7.123,-117.34 -13.937,-175.733 -1.08,-9.249 -1.974,-18.529 -3.172,-27.763 -1.066,-8.22 -2.16,-16.423 -3.03,-24.667 -0.314,-2.971 -1.479,-6.099 -0.423,-8.993 l 0.711,1.255 c 5.68,7.37 9.609,16.755 13.253,25.279 9.094,21.266 16.043,43.167 22.603,65.317 8.449,28.526 16.744,57.498 22.574,86.691 1.197,5.994 3.984,14.109 3.49,20.076 -0.178,5.111 1.32,10.299 2.189,15.336 0.306,1.772 0.569,4.829 1.458,6.37 1.222,11.276 3.252,22.479 3.885,33.821 1.552,27.775 -0.118,55.04 -0.494,82.767 -0.324,36.451 -4.738,73.558 -10.59,109.509 -2.846,17.487 -5.567,34.962 -9.182,52.316 -4.357,20.919 -9.798,41.457 -15.436,62.057 -1.939,7.09 -3.917,14.15 -6.119,21.16 -0.572,1.82 -1.125,4.95 -2.483,6.31 -0.508,4.24 -2.189,8.25 -3.546,12.27 -2.63,7.81 -5.434,15.56 -8.353,23.27 -18.982,50.11 -42.755,97.97 -69.922,144.12 -10.116,17.18 -21.031,33.77 -31.457,50.75 l 1.115,0.29 c -2.863,3.43 -11.484,5.23 -15.91,6.73 -8.098,2.76 -16.122,5.57 -24.323,8.03 -3.277,0.98 -7.325,2.61 -10.698,2.86 -0.83,0.06 -1.536,-0.18 -2.308,-0.44 -0.552,0.66 -0.871,1.08 -1.661,1.48 -2.398,1.2 -5.84,1.62 -8.314,0.62 -0.386,-12.19 -0.909,-24.38 -1.301,-36.57 -0.228,-7.08 0.61,-16.13 -1.313,-22.88 1.578,-1.96 0.131,-12.66 0.021,-15.44 -0.517,-13.14 -0.874,-26.3 -1.296,-39.45 -0.234,-7.31 -0.835,-14.53 -0.678,-21.85 l -1.296,-29.39 0.844,5.25 c 4.367,-2.54 8.247,-6.6 11.913,-10.07 10.804,-10.23 20.261,-21.08 29.154,-32.99 3.921,-5.25 7.267,-10.9 11.283,-16.08 0.49,3.11 0.421,9.95 1.998,12.19 l 0.003,4.11 c 1.531,8.11 2.214,16.46 3.363,24.65 2.728,19.43 5.344,38.89 8.265,58.3 0.62,4.12 1.273,8.24 1.92,12.35 0.32,2.04 0.39,4.68 1.248,6.55 l 0.844,-0.2 c 5.226,-10.64 9.477,-21.82 13.922,-32.81 8.522,-21.07 16.279,-42.3 23.651,-63.79 16.481,-48.03 31.935,-96.13 42.608,-145.858 4.838,-23.961 8.734,-47.703 12.407,-71.847 2.713,-17.832 5.703,-35.676 6.478,-53.727 1.705,-10.013 1.817,-20.745 2.6,-30.901 2.581,-33.491 3.717,-67.048 3.442,-100.635 z"
       id="path24" /><path
       fill="#482815"
       transform="scale(0.75,0.750183)"
       d="m 792.099,715.832 c -0.294,-58.875 -7.123,-117.34 -13.937,-175.733 -1.08,-9.249 -1.974,-18.529 -3.172,-27.763 -1.066,-8.22 -2.16,-16.423 -3.03,-24.667 -0.314,-2.971 -1.479,-6.099 -0.423,-8.993 l 0.711,1.255 c -0.36,4.164 1.142,7.399 2.279,11.316 1.54,5.304 3.026,10.604 4.262,15.989 4.646,20.234 7.848,40.735 10.939,61.255 2.476,16.436 3.999,33.054 5.497,49.603 2.318,25.6 4.093,51.274 4.192,76.995 l -2.242,120.438 c -3.927,47.867 -9.646,96.491 -18.92,143.638 -9.834,49.995 -24.019,99.425 -41.099,147.405 -14.715,41.34 -31.317,81.29 -51.428,120.33 -6.997,13.58 -14.289,26.89 -21.768,40.2 -5.114,9.11 -10.113,18.43 -16.216,26.93 l -1.184,0.07 c 3.171,-3.31 5.688,-8.8 8.017,-12.81 9.596,-16.52 18.39,-33.73 25.998,-51.26 2.023,-4.66 4.678,-9.4 5.572,-14.43 l 0.844,-0.2 c 5.226,-10.64 9.477,-21.82 13.922,-32.81 8.522,-21.07 16.279,-42.3 23.651,-63.79 16.481,-48.03 31.935,-96.13 42.608,-145.858 4.838,-23.961 8.734,-47.703 12.407,-71.847 2.713,-17.832 5.703,-35.676 6.478,-53.727 1.705,-10.013 1.817,-20.745 2.6,-30.901 2.581,-33.491 3.717,-67.048 3.442,-100.635 z"
       id="path25" /><path
       fill="#d8a444"
       transform="scale(0.75,0.750183)"
       d="m 772.248,479.931 c 5.68,7.37 9.609,16.755 13.253,25.279 9.094,21.266 16.043,43.167 22.603,65.317 8.449,28.526 16.744,57.498 22.574,86.691 1.197,5.994 3.984,14.109 3.49,20.076 -0.178,5.111 1.32,10.299 2.189,15.336 0.306,1.772 0.569,4.829 1.458,6.37 1.222,11.276 3.252,22.479 3.885,33.821 1.552,27.775 -0.118,55.04 -0.494,82.767 l -1.039,-0.457 c -2.521,-2.47 -4.401,-7.617 -5.986,-10.882 -10.745,-22.141 -17.709,-45.425 -24.819,-68.898 -3.925,-12.958 -8.835,-26.778 -9.945,-40.262 -0.099,-25.721 -1.874,-51.395 -4.192,-76.995 -1.498,-16.549 -3.021,-33.167 -5.497,-49.603 -3.091,-20.52 -6.293,-41.021 -10.939,-61.255 -1.236,-5.385 -2.722,-10.685 -4.262,-15.989 -1.137,-3.917 -2.639,-7.152 -2.279,-11.316 z"
       id="path26" /><path
       fill="#f9f79a"
       transform="scale(0.75,0.750183)"
       d="m 789.706,523.088 c 0.607,0.558 1.905,1.453 2.299,2.114 0.974,1.632 1.57,4.622 2.2,6.498 1.874,5.589 3.595,11.273 5.519,16.833 1.056,3.051 1.113,6.528 1.841,9.735 1.797,7.921 3.835,15.819 5.708,23.729 7.995,33.767 16.005,67.575 21.631,101.836 2.999,18.265 6.101,37.274 4.859,55.838 -1.527,-3.422 -2.165,-7.561 -3.096,-11.213 -2.061,-8.084 -3.89,-16.217 -5.751,-24.348 -9.644,-42.14 -16.239,-85.044 -24.642,-127.453 -2.229,-11.252 -4.591,-22.454 -7.064,-33.653 -1.028,-4.659 -1.604,-9.835 -3.133,-14.331 -0.622,-1.824 -0.44,-3.687 -0.371,-5.585 z"
       id="path27" /><path
       fill="#a67425"
       transform="scale(0.75,0.750183)"
       d="m 799.417,695.089 c 1.11,13.484 6.02,27.304 9.945,40.262 7.11,23.473 14.074,46.757 24.819,68.898 1.585,3.265 3.465,8.412 5.986,10.882 l 1.039,0.457 c -0.324,36.451 -4.738,73.558 -10.59,109.509 -2.846,17.487 -5.567,34.962 -9.182,52.316 -4.357,20.919 -9.798,41.457 -15.436,62.057 -1.939,7.09 -3.917,14.15 -6.119,21.16 -0.572,1.82 -1.125,4.95 -2.483,6.31 -1.163,-1.31 -0.754,-3.19 -0.685,-4.81 2.315,-54.67 3.119,-109.031 2.785,-163.754 -0.086,-13.93 -0.446,-27.839 -0.633,-41.765 -0.182,-13.664 -0.166,-27.495 -1.688,-41.084 z"
       id="path28" /><path
       fill="#895813"
       transform="scale(0.75,0.750183)"
       d="m 616.156,1151.34 0.844,5.25 c 4.367,-2.54 8.247,-6.6 11.913,-10.07 10.804,-10.23 20.261,-21.08 29.154,-32.99 3.921,-5.25 7.267,-10.9 11.283,-16.08 0.49,3.11 0.421,9.95 1.998,12.19 l 0.003,4.11 c 1.531,8.11 2.214,16.46 3.363,24.65 2.728,19.43 5.344,38.89 8.265,58.3 0.62,4.12 1.273,8.24 1.92,12.35 0.32,2.04 0.39,4.68 1.248,6.55 -0.894,5.03 -3.549,9.77 -5.572,14.43 -7.608,17.53 -16.402,34.74 -25.998,51.26 -2.329,4.01 -4.846,9.5 -8.017,12.81 l -4.22,6.25 -10.346,14.47 c -0.552,0.66 -0.871,1.08 -1.661,1.48 -2.398,1.2 -5.84,1.62 -8.314,0.62 -0.386,-12.19 -0.909,-24.38 -1.301,-36.57 -0.228,-7.08 0.61,-16.13 -1.313,-22.88 1.578,-1.96 0.131,-12.66 0.021,-15.44 -0.517,-13.14 -0.874,-26.3 -1.296,-39.45 -0.234,-7.31 -0.835,-14.53 -0.678,-21.85 z"
       id="path29" /><path
       fill="#a67425"
       transform="scale(0.75,0.750183)"
       d="m 616.156,1151.34 0.844,5.25 c 4.367,-2.54 8.247,-6.6 11.913,-10.07 10.804,-10.23 20.261,-21.08 29.154,-32.99 3.921,-5.25 7.267,-10.9 11.283,-16.08 0.49,3.11 0.421,9.95 1.998,12.19 l 0.003,4.11 c -5.404,9.57 -9.972,19.56 -15.44,29.11 -7.149,12.49 -15.727,24.59 -25.51,35.16 -3.247,3.51 -7.609,8.42 -12.139,10.04 l -0.81,-7.33 z"
       id="path30" /><path
       fill="#895813"
       transform="scale(0.75,0.750183)"
       d="m 255.083,471.036 -21.145,233.573 c -0.923,26.752 -0.605,53.64 -0.073,80.398 0.407,20.488 0.367,42.425 3.974,62.613 3.047,39.476 8.647,79.844 19.644,117.947 6.211,21.006 10.537,42.583 16.724,63.643 13.015,44.31 28.651,87.54 44.568,130.85 4.988,13.58 10.461,26.87 15.823,40.3 1.365,3.41 2.113,8 3.854,11.09 l 0.887,0.2 c 2.741,-3.07 11.71,-86.26 13.967,-97.96 l 3.444,-26.21 c 4.544,5.1 8.057,13.16 11.815,19 10.831,16.86 22.796,32.42 37.768,45.78 l 0.732,-0.21 0.76,-2.74 -1.967,38.03 c -0.445,18.26 -1.727,36.58 -2.504,54.84 -0.183,4.3 -1.59,12.65 -0.339,16.53 l 1.002,0.14 c -0.37,0.63 -1.061,1.5 -1.276,2.18 -0.907,2.84 -0.231,9.34 -0.317,12.6 -0.382,14.43 -1.116,28.91 -1.159,43.34 -1.79,0.45 -3.524,0.15 -5.168,-0.74 -0.604,-0.33 -0.991,-0.83 -1.421,-1.34 -0.899,0.33 -1.529,0.62 -2.51,0.53 -3.435,-0.29 -7.595,-2.07 -10.952,-3.04 -9.289,-2.69 -18.461,-5.65 -27.606,-8.78 -3.795,-1.3 -9.477,-2.32 -12.284,-5.26 l 0.905,-0.28 c -3.578,-6 -8.104,-11.52 -11.981,-17.35 -10.203,-15.34 -20.12,-30.7 -29.515,-46.56 -3.67,-6.19 -8.07,-12.47 -10.628,-19.2 l -0.391,-0.31 c -2.023,-1.96 -3.526,-5.89 -4.931,-8.44 -6.09,-11.09 -11.436,-22.53 -17.043,-33.86 -37.101,-74.95 -61.41,-156.06 -74.75,-238.488 -6.919,-42.748 -11.218,-85.654 -11.78,-128.974 l 2.161,-87.939 7.123,-45.103 c 0.584,-2.406 0.611,-4.402 0.527,-6.857 1.293,-9.335 3.985,-18.62 6.119,-27.801 7.208,-31.017 16.505,-61.824 26.706,-91.978 3.752,-11.09 7.169,-23.239 12.201,-33.766 4.314,-13.835 10.796,-28.462 19.036,-40.398 z"
       id="path31" /><path
       fill="#a67425"
       transform="scale(0.75,0.750183)"
       d="m 356.75,1087.48 c 4.544,5.1 8.057,13.16 11.815,19 10.831,16.86 22.796,32.42 37.768,45.78 l 0.732,-0.21 0.76,-2.74 -1.967,38.03 c -0.246,1.26 -0.243,2.99 -1.191,3.86 -22.852,-21.03 -36.115,-51.03 -51.361,-77.51 z"
       id="path32" /><path
       fill="#482815"
       transform="scale(0.75,0.750183)"
       d="m 255.083,471.036 -21.145,233.573 c -0.923,26.752 -0.605,53.64 -0.073,80.398 0.407,20.488 0.367,42.425 3.974,62.613 3.047,39.476 8.647,79.844 19.644,117.947 6.211,21.006 10.537,42.583 16.724,63.643 13.015,44.31 28.651,87.54 44.568,130.85 4.988,13.58 10.461,26.87 15.823,40.3 1.365,3.41 2.113,8 3.854,11.09 l 0.887,0.2 c -0.309,4.68 3.169,9.17 5.131,13.28 5.036,10.57 10.226,20.88 15.625,31.27 l -1.306,-0.17 c -25.348,-46.67 -46.622,-96.03 -65.682,-145.54 -17.499,-45.45 -33.386,-91 -44.998,-138.363 -4.864,-19.841 -9.009,-39.803 -12.047,-60.006 -1.944,-12.927 -2.311,-27.328 -6.015,-39.783 l -4.145,-138.091 c 0.122,-33.892 2.051,-67.949 4.076,-101.774 1.563,-26.118 3.368,-52.177 6.358,-78.176 3.139,-27.291 6.834,-52.596 17.06,-78.299 -7.167,11.019 -11.792,23.117 -16.527,35.299 l -0.822,0.137 c 4.314,-13.835 10.796,-28.462 19.036,-40.398 z"
       id="path33" /><path
       fill="#d8a444"
       transform="scale(0.75,0.750183)"
       d="m 236.047,511.434 0.822,-0.137 c 4.735,-12.182 9.36,-24.28 16.527,-35.299 -10.226,25.703 -13.921,51.008 -17.06,78.299 -2.99,25.999 -4.795,52.058 -6.358,78.176 -2.025,33.825 -3.954,67.882 -4.076,101.774 l -0.474,26.008 c -5.172,6.11 -10.269,12.408 -15.842,18.156 -8.96,9.244 -18.827,17.835 -28.376,26.467 l 2.161,-87.939 7.123,-45.103 c 0.584,-2.406 0.611,-4.402 0.527,-6.857 1.293,-9.335 3.985,-18.62 6.119,-27.801 7.208,-31.017 16.505,-61.824 26.706,-91.978 3.752,-11.09 7.169,-23.239 12.201,-33.766 z"
       id="path34" /><path
       fill="#f9f79a"
       transform="scale(0.75,0.750183)"
       d="m 230.926,549.707 c 0.406,5.164 -1.464,12.041 -2.398,17.244 -2.329,12.971 -4.962,25.899 -7.345,38.863 -3.047,16.58 -5.502,33.259 -8.437,49.855 -4.183,23.646 -8.586,47.371 -11.17,71.26 -1.553,-8.22 -0.76,-17.357 -0.446,-25.703 1.536,-40.82 8.127,-80.756 19.058,-120.089 2.872,-10.333 5.8,-21.911 10.738,-31.43 z"
       id="path35" /><path
       fill="#a67425"
       transform="scale(0.75,0.750183)"
       d="m 225.428,760.255 0.474,-26.008 4.145,138.091 c -0.306,12.909 1.26,26.189 2.243,39.069 4.238,55.545 12.805,111.623 27.668,165.363 4.091,14.79 8.71,29.5 14.516,43.71 2.916,7.14 7.21,14.06 9.561,21.35 2.145,6.65 2.931,14.2 3.878,21.13 2.32,16.99 3.723,34.26 3.31,51.41 l -1.118,0.58 -0.391,-0.31 c -2.023,-1.96 -3.526,-5.89 -4.931,-8.44 -6.09,-11.09 -11.436,-22.53 -17.043,-33.86 -37.101,-74.95 -61.41,-156.06 -74.75,-238.488 -6.919,-42.748 -11.218,-85.654 -11.78,-128.974 9.549,-8.632 19.416,-17.223 28.376,-26.467 5.573,-5.748 10.67,-12.046 15.842,-18.156 z"
       id="path36" /><path
       fill="#895813"
       transform="scale(0.75,0.750183)"
       d="m 508.85,37.2669 0.464,-0.1141 c 0.352,1.9067 0.395,4.6126 1.109,6.3645 1.168,2.8654 4.06,6.0213 5.897,8.5594 4.23,5.8454 8.614,11.8265 12.117,18.1359 7.955,14.328 14.806,29.9414 19.389,45.7004 -0.064,1.781 0.002,3.689 -0.337,5.44 3.766,13.765 7.952,29.024 8.574,43.342 2.273,2.09 4.085,3.799 5.523,6.58 l -0.421,-7.455 c 2.913,4.287 6.047,9.627 9.692,13.307 l 0.579,0.706 -0.386,8.756 c 3.038,4.074 4.167,9.526 6.03,14.256 2.691,6.834 6,13.968 10.024,20.111 2.946,4.498 7.593,8.201 11.308,12.079 6.945,7.249 14.26,15.052 20.444,22.943 l 19.822,-13.773 2.491,1.208 4.239,-3.136 c 2.095,4.649 4.225,7.896 8.024,11.325 l 5.273,-4.753 c 7.546,7.543 15.938,14.095 23.223,21.946 5.252,5.659 9.466,11.934 13.58,18.439 l -22.377,26.339 -0.138,0.623 c 2.796,2.523 3.242,6.571 5.25,9.668 -5.235,9.439 -9.901,19.223 -15.751,28.305 -11.734,18.218 -26.194,34.407 -41.355,49.818 -5.535,5.626 -11.262,11.883 -17.36,16.861 -17.408,14.462 -35.124,28.433 -54.535,40.153 -6.743,4.071 -13.528,8.091 -20.476,11.804 -5.171,2.762 -11.722,5.344 -16.224,9.015 -1.227,-0.239 -0.776,0.005 -1.692,-0.74 l -4.923,-3.895 -1.594,0.88 c -19.849,-9.532 -37.519,-24.662 -56.48,-36 l -24.484,-16.702 c -17.339,-12.796 -33.146,-25.477 -48.376,-40.743 -6.868,-6.885 -13.697,-13.781 -19.219,-21.827 -5.039,-7.343 -6.579,-15.711 -10.627,-23.393 -2.847,-5.405 -6.943,-10.455 -10.784,-15.196 -10.84,-13.384 -22.814,-23.7 -36.714,-33.797 l -4.486,18.048 c -1.331,5.116 -2.519,10.636 -4.893,15.378 -3.951,-4.775 -7.262,-10.345 -10.539,-15.603 -6.475,-10.391 -13.96,-21.992 -14.116,-34.518 l 0.636,-3.422 c 1.091,-4.768 7.126,-8.317 11.029,-10.786 8.913,-0.309 16.169,-0.034 24.756,2.55 2.806,-2.918 7.245,-5.116 10.521,-7.561 10.148,-7.575 20.207,-15.28 30.397,-22.797 l -13.888,-5.976 c 3.617,-3.634 8.129,-9.592 12.826,-11.544 9.146,-3.801 57.887,-34.844 61.001,-42.08 9.549,-22.191 23.812,-43.507 38.347,-62.687 3.43,-6.179 9.565,-12.2222 14.303,-17.4818 7.588,-10.6711 18.917,-19.9862 28.506,-28.9138 7.832,-7.2916 15.422,-15.0553 23.988,-21.5001 z"
       id="path37" /><path
       fill="#3cb845"
       transform="scale(0.75,0.750183)"
       d="m 508.85,37.2669 c -0.25,6.426 -4.305,14.4274 -7.302,20.0697 -11.255,23.4307 -22.821,46.8384 -33.741,70.4174 -3.446,7.441 -6.637,14.978 -10.015,22.446 -1.089,2.409 -1.988,5.563 -3.561,7.656 l -0.613,-1.095 c -0.949,3.625 -1.01,7.241 -1.15,10.967 l 0.153,14.654 c -2.295,0.234 -4.335,0.274 -6.604,-0.228 -4.753,-1.05 -9.512,-4.043 -12.002,-8.307 -1.892,-3.239 -2.637,-8.069 -3.143,-11.726 -2.726,-19.718 3.789,-35.228 9.517,-53.481 l -1.149,-1.231 c 3.43,-6.179 9.565,-12.2222 14.303,-17.4818 7.588,-10.6711 18.917,-19.9862 28.506,-28.9138 7.832,-7.2916 15.422,-15.0553 23.988,-21.5001 z"
       id="path38" /><path
       fill="#e97b0c"
       transform="scale(0.75,0.750183)"
       d="m 508.85,37.2669 c -0.25,6.426 -4.305,14.4274 -7.302,20.0697 -11.255,23.4307 -22.821,46.8384 -33.741,70.4174 -3.446,7.441 -6.637,14.978 -10.015,22.446 -1.089,2.409 -1.988,5.563 -3.561,7.656 l -0.613,-1.095 c 2.614,-14.32 8.063,-28.119 13.763,-41.461 7.005,-16.3961 14.8,-32.5738 23.347,-48.2263 4.984,-9.1288 11.22,-18.0394 15.309,-27.5604 z"
       id="path39" /><path
       fill="#389634"
       transform="scale(0.75,0.750183)"
       d="m 453.543,89.9272 c 1.203,-0.4823 2.392,-0.8779 3.464,-1.6154 -0.005,1.2502 0.264,1.3783 -0.635,2.3327 l -0.034,0.892 c -0.271,4.3238 -3.627,10.1235 -4.966,14.4375 -5.95,19.172 -11.648,45.402 -0.372,63.645 1.033,-0.487 0.98,-0.899 1.468,-1.891 l 0.153,14.654 c -2.295,0.234 -4.335,0.274 -6.604,-0.228 -4.753,-1.05 -9.512,-4.043 -12.002,-8.307 -1.892,-3.239 -2.637,-8.069 -3.143,-11.726 -2.726,-19.718 3.789,-35.228 9.517,-53.481 l -1.149,-1.231 c 3.43,-6.179 9.565,-12.2222 14.303,-17.4818 z"
       id="path40" /><path
       fill="url(#gradient_1)"
       transform="scale(0.75,0.750183)"
       d="m 340.954,229.696 c 14.147,7.298 27.273,17.249 39.034,27.928 -3.35,5.2 -7.901,9.331 -12.383,13.54 -8.256,7.752 -17.195,14.943 -25.215,22.925 l 0.082,0.442 c -4.223,1.782 -8.335,6.049 -11.901,8.972 15.305,19.151 27.556,40.43 43.449,59.226 24.395,28.852 52.546,55.764 82.98,78.228 15.99,11.803 33.353,21.928 48.927,34.228 l -1.594,0.88 c -19.849,-9.532 -37.519,-24.662 -56.48,-36 l -24.484,-16.702 c -17.339,-12.796 -33.146,-25.477 -48.376,-40.743 -6.868,-6.885 -13.697,-13.781 -19.219,-21.827 -5.039,-7.343 -6.579,-15.711 -10.627,-23.393 -2.847,-5.405 -6.943,-10.455 -10.784,-15.196 -10.84,-13.384 -22.814,-23.7 -36.714,-33.797 l -4.486,18.048 c -1.331,5.116 -2.519,10.636 -4.893,15.378 -3.951,-4.775 -7.262,-10.345 -10.539,-15.603 -6.475,-10.391 -13.96,-21.992 -14.116,-34.518 l 0.636,-3.422 c 1.091,-4.768 7.126,-8.317 11.029,-10.786 8.913,-0.309 16.169,-0.034 24.756,2.55 2.806,-2.918 7.245,-5.116 10.521,-7.561 10.148,-7.575 20.207,-15.28 30.397,-22.797 z"
       id="path41"
       style="fill:url(#gradient_1-0)" /><path
       fill="#a67425"
       transform="scale(0.75,0.750183)"
       d="m 275.28,257.504 c 8.913,-0.309 16.169,-0.034 24.756,2.55 17.532,7.851 30.271,19.386 42.354,34.035 l 0.082,0.442 c -4.223,1.782 -8.335,6.049 -11.901,8.972 -11.65,-13.036 -26.236,-25.902 -42.997,-31.694 -8.233,-2.845 -15.882,-4.024 -23.959,-0.097 l 0.636,-3.422 c 1.091,-4.768 7.126,-8.317 11.029,-10.786 z"
       id="path42" /><path
       fill="#f6db6a"
       transform="scale(0.75,0.750183)"
       d="m 340.954,229.696 c 14.147,7.298 27.273,17.249 39.034,27.928 -3.35,5.2 -7.901,9.331 -12.383,13.54 -8.256,7.752 -17.195,14.943 -25.215,22.925 -12.083,-14.649 -24.822,-26.184 -42.354,-34.035 2.806,-2.918 7.245,-5.116 10.521,-7.561 10.148,-7.575 20.207,-15.28 30.397,-22.797 z"
       id="path43" /><path
       fill="#d8a444"
       transform="scale(0.75,0.750183)"
       d="m 379.988,257.624 c 11.616,12.487 22.831,25.304 34.957,37.314 16.049,15.897 33.498,30.64 51.785,43.898 8.853,6.418 17.517,12.906 27.744,17.004 0.98,0.779 1.461,12.741 1.623,14.607 1.856,21.388 3.717,42.656 7.092,63.872 -12.036,-4.472 -23.383,-10.499 -34.54,-16.809 -37.21,-21.044 -68.184,-48.56 -95.23,-81.563 -10.905,-13.307 -20.59,-27.676 -30.947,-41.416 l -0.082,-0.442 c 8.02,-7.982 16.959,-15.173 25.215,-22.925 4.482,-4.209 9.033,-8.34 12.383,-13.54 z"
       id="path44" /><path
       fill="#1e5d20"
       transform="scale(0.75,0.750183)"
       d="m 439.24,107.409 1.149,1.231 c -5.728,18.253 -12.243,33.763 -9.517,53.481 0.506,3.657 1.251,8.487 3.143,11.726 2.49,4.264 7.249,7.257 12.002,8.307 2.269,0.502 4.309,0.462 6.604,0.228 0.317,4.83 1.036,9.99 0.247,14.783 0.177,2.165 0.287,4.101 -0.019,6.266 l 0.911,0.519 c 3.815,30.553 10.094,60.687 19.659,89.978 5.973,18.293 13.184,35.963 19.764,54.011 0.985,2.7 2.745,5.347 1.291,7.901 -10.227,-4.098 -18.891,-10.586 -27.744,-17.004 -18.287,-13.258 -35.736,-28.001 -51.785,-43.898 -12.126,-12.01 -23.341,-24.827 -34.957,-37.314 -11.761,-10.679 -24.887,-20.63 -39.034,-27.928 l -13.888,-5.976 c 3.617,-3.634 8.129,-9.592 12.826,-11.544 9.146,-3.801 57.887,-34.844 61.001,-42.08 9.549,-22.191 23.812,-43.507 38.347,-62.687 z"
       id="path45" /><path
       fill="#fca51f"
       transform="scale(0.75,0.750183)"
       d="m 409.949,170.996 c 2.232,-0.226 6.117,-1.032 8.039,0.197 6.93,4.432 11.541,13.03 13.248,20.937 2.374,10.997 1.737,23.175 -4.674,32.796 -4.32,6.483 -9.968,9.604 -17.533,11.008 -6.87,1.275 -14.255,-0.282 -19.979,-4.309 -7.658,-5.389 -10.284,-11.451 -11.743,-20.376 0.094,-2.315 -0.293,-7.165 1.026,-8.88 -0.573,4.045 0.298,8.721 1.487,12.591 2.06,6.702 6.451,12.249 12.744,15.448 6.662,3.387 12.661,3.802 19.733,1.346 6.037,-2.097 10.225,-7.125 12.782,-12.807 4.405,-9.791 3.752,-21.734 -0.141,-31.603 -3.257,-8.255 -6.839,-12.769 -14.989,-16.348 z"
       id="path46" /><path
       fill="#d8a444"
       transform="scale(0.75,0.750183)"
       d="m 452.868,197.165 c 0.177,2.165 0.287,4.101 -0.019,6.266 l -19.492,75.293 c -22.106,-14.55 -41.514,-32.078 -62.767,-47.672 -5.218,-3.829 -10.613,-7.529 -16.201,-10.797 -3.733,-2.184 -7.801,-3.753 -11.29,-6.337 23.463,6.36 44.776,27.036 63.527,42.008 8.119,6.482 16.561,12.608 24.872,18.844 z"
       id="path47" /><path
       fill="#482815"
       transform="scale(0.75,0.750183)"
       d="m 508.85,37.2669 0.464,-0.1141 c 0.352,1.9067 0.395,4.6126 1.109,6.3645 1.168,2.8654 4.06,6.0213 5.897,8.5594 4.23,5.8454 8.614,11.8265 12.117,18.1359 7.955,14.328 14.806,29.9414 19.389,45.7004 -0.064,1.781 0.002,3.689 -0.337,5.44 3.766,13.765 7.952,29.024 8.574,43.342 1.727,23.231 0.23,47.651 -4.3,70.554 -5.274,26.661 -13.87,52.937 -22.353,78.713 -3.088,9.385 -6.607,18.621 -9.747,27.984 -1.009,3.01 -2.483,5.94 -3.182,9.04 -0.929,4.123 -0.887,8.755 -1.177,12.974 -0.586,8.519 -0.991,17.049 -1.564,25.569 -0.986,14.671 -1.837,29.352 -2.819,44.021 -0.553,8.264 -1.731,16.567 -1.41,24.854 l -1.22,10.808 c -0.73,-14.39 -0.273,-28.905 -0.379,-43.316 -0.11,-15.149 -0.785,-30.352 -1.209,-45.499 -0.169,-6.001 -0.354,-12.002 -0.491,-18.004 -0.073,-3.188 0.166,-6.861 -0.431,-9.992 -1.439,-7.543 -5.682,-15.522 -8.279,-22.815 -3.919,-11.004 -7.175,-22.454 -10.478,-33.658 -0.591,-2.005 -1.975,-3.465 -2.548,-5.337 -0.437,-1.425 -1.003,-2.787 -1.495,-4.195 -5.116,-14.637 -7.371,-30.729 -10.377,-45.919 -4.546,-22.967 -9.037,-48.721 -7.078,-72.125 1.05,-12.542 5.185,-25.087 9.01,-37.037 7.964,-24.883 17.612,-49.5689 28.824,-73.1737 l -1.812,-0.8047 c 2.997,-5.6423 7.052,-13.6437 7.302,-20.0697 z"
       id="path48" /><path
       fill="#961a0a"
       transform="scale(0.75,0.750183)"
       d="m 508.85,37.2669 0.464,-0.1141 c 0.352,1.9067 0.395,4.6126 1.109,6.3645 1.168,2.8654 4.06,6.0213 5.897,8.5594 4.23,5.8454 8.614,11.8265 12.117,18.1359 7.955,14.328 14.806,29.9414 19.389,45.7004 -0.064,1.781 0.002,3.689 -0.337,5.44 -8.893,-25.5002 -18.827,-55.0185 -39.611,-73.5163 l -4.518,10.3046 -1.812,-0.8047 c 2.997,-5.6423 7.052,-13.6437 7.302,-20.0697 z"
       id="path49" /><path
       fill="#6f4129"
       transform="scale(0.75,0.750183)"
       d="m 508.926,56.9411 0.957,0.5468 c 2.789,2.2371 5.326,7.8425 7.394,10.9755 21.029,31.8586 31.545,73.2886 34.065,110.9986 -11.99,13.033 -23.796,23.999 -39.67,32.057 -1.509,0.435 -2.771,0.604 -4.339,0.643 -3.717,-1.618 -7.105,-4.912 -10.24,-7.469 -8.667,-7.068 -21.474,-16.677 -25.773,-27.232 -3.575,-8.779 3.783,-29.996 6.673,-39.121 4.569,-14.429 9.062,-28.992 14.533,-43.1083 5.016,-12.9426 10.986,-25.5107 16.4,-38.2906 z"
       id="path50" /><path
       fill="url(#gradient_2)"
       transform="scale(0.75,0.750183)"
       d="m 561.165,163.82 c 2.913,4.287 6.047,9.627 9.692,13.307 l 0.579,0.706 -0.386,8.756 c 3.038,4.074 4.167,9.526 6.03,14.256 2.691,6.834 6,13.968 10.024,20.111 2.946,4.498 7.593,8.201 11.308,12.079 6.945,7.249 14.26,15.052 20.444,22.943 l 19.822,-13.773 2.491,1.208 4.239,-3.136 c 2.095,4.649 4.225,7.896 8.024,11.325 l 5.273,-4.753 c 7.546,7.543 15.938,14.095 23.223,21.946 5.252,5.659 9.466,11.934 13.58,18.439 l -22.377,26.339 -0.138,0.623 c 2.796,2.523 3.242,6.571 5.25,9.668 -5.235,9.439 -9.901,19.223 -15.751,28.305 -11.734,18.218 -26.194,34.407 -41.355,49.818 -5.535,5.626 -11.262,11.883 -17.36,16.861 -17.408,14.462 -35.124,28.433 -54.535,40.153 -6.743,4.071 -13.528,8.091 -20.476,11.804 -5.171,2.762 -11.722,5.344 -16.224,9.015 0.577,-4.783 -0.418,-17.339 -3.031,-21.416 -0.321,-8.287 0.857,-16.59 1.41,-24.854 0.982,-14.669 1.833,-29.35 2.819,-44.021 0.573,-8.52 0.978,-17.05 1.564,-25.569 0.29,-4.219 0.248,-8.851 1.177,-12.974 0.699,-3.1 2.173,-6.03 3.182,-9.04 3.14,-9.363 6.659,-18.599 9.747,-27.984 8.483,-25.776 17.079,-52.052 22.353,-78.713 4.53,-22.903 6.027,-47.323 4.3,-70.554 2.273,2.09 4.085,3.799 5.523,6.58 z"
       id="path51"
       style="fill:url(#gradient_2-5)" /><path
       fill="#bc5707"
       transform="scale(0.75,0.750183)"
       d="m 561.165,163.82 c 2.913,4.287 6.047,9.627 9.692,13.307 l 0.579,0.706 -0.386,8.756 c -0.151,2.769 -0.362,5.617 0.059,8.369 0.487,3.186 1.717,6.439 2.009,9.599 l -1.99,1.381 -0.755,-0.627 c 0.548,-10.788 -5.202,-23.92 -8.787,-34.036 z"
       id="path52" /><path
       fill="#1e5d20"
       transform="scale(0.75,0.750183)"
       d="m 571.05,186.589 c 3.038,4.074 4.167,9.526 6.03,14.256 2.691,6.834 6,13.968 10.024,20.111 2.946,4.498 7.593,8.201 11.308,12.079 6.945,7.249 14.26,15.052 20.444,22.943 l 19.822,-13.773 2.491,1.208 4.239,-3.136 c 2.095,4.649 4.225,7.896 8.024,11.325 l -18.899,18.473 -0.37,0.073 c -7.552,8.79 -16.244,16.882 -24.742,24.755 -16.305,15.104 -33.062,28.881 -50.962,42.048 -9.77,7.186 -20.059,15.79 -31.843,19.331 -0.099,-4.405 2.744,-9.876 4.29,-13.976 4.589,-12.175 9.889,-24.097 14.204,-36.367 11.532,-32.792 18.923,-65.72 24.339,-99.989 l 0.924,-0.639 0.755,0.627 1.99,-1.381 c -0.292,-3.16 -1.522,-6.413 -2.009,-9.599 -0.421,-2.752 -0.21,-5.6 -0.059,-8.369 z"
       id="path53" /><path
       fill="#e97b0c"
       transform="scale(0.75,0.750183)"
       d="m 583.147,239.96 7.302,32.87 28.407,-16.852 19.822,-13.773 2.491,1.208 -21.378,14.752 -31.156,18.958 -8.33,-36.126 z"
       id="path54" /><path
       fill="#307c2a"
       transform="scale(0.75,0.750183)"
       d="m 641.169,243.413 4.239,-3.136 c 2.095,4.649 4.225,7.896 8.024,11.325 l -18.899,18.473 -0.37,0.073 c -5.105,-3.154 -9.993,-7.877 -14.372,-11.983 z"
       id="path55" /><path
       fill="url(#gradient_3)"
       transform="scale(0.75,0.750183)"
       d="m 571.05,186.589 c 3.038,4.074 4.167,9.526 6.03,14.256 2.691,6.834 6,13.968 10.024,20.111 2.946,4.498 7.593,8.201 11.308,12.079 6.945,7.249 14.26,15.052 20.444,22.943 l -28.407,16.852 -7.302,-32.87 -2.842,1.037 -3.759,-13.409 -5.418,-21.65 1.99,-1.381 c -0.292,-3.16 -1.522,-6.413 -2.009,-9.599 -0.421,-2.752 -0.21,-5.6 -0.059,-8.369 z"
       id="path56"
       style="fill:url(#gradient_3-2)" /><path
       fill="#fca51f"
       transform="scale(0.75,0.750183)"
       d="m 576.546,227.588 2.354,-2.98 4.247,15.352 -2.842,1.037 z"
       id="path57" /><path
       fill="#fca51f"
       transform="scale(0.75,0.750183)"
       d="m 571.128,205.938 1.99,-1.381 5.782,20.051 -2.354,2.98 z"
       id="path58" /><path
       fill="#a67425"
       transform="scale(0.75,0.750183)"
       d="m 658.705,246.849 c 7.546,7.543 15.938,14.095 23.223,21.946 5.252,5.659 9.466,11.934 13.58,18.439 l -22.377,26.339 -0.138,0.623 c -5.843,8.809 -13.073,17.003 -19.895,25.082 -27.871,33.005 -61.525,60.229 -99.809,80.293 -11.322,5.934 -23.051,10.766 -34.847,15.64 3.531,-20.492 5.567,-41.359 7.24,-62.077 0.422,-5.23 1.754,-11.766 0.934,-16.852 11.784,-3.541 22.073,-12.145 31.843,-19.331 17.9,-13.167 34.657,-26.944 50.962,-42.048 8.498,-7.873 17.19,-15.965 24.742,-24.755 l 0.37,-0.073 18.899,-18.473 z"
       id="path59" /><path
       fill="#d8a444"
       transform="scale(0.75,0.750183)"
       d="m 658.705,246.849 c 7.546,7.543 15.938,14.095 23.223,21.946 5.252,5.659 9.466,11.934 13.58,18.439 l -22.377,26.339 c -5.459,-10.471 -12.724,-20.695 -21.201,-28.922 -5.443,-5.281 -11.579,-9.734 -17.397,-14.576 l 18.899,-18.473 z"
       id="path60" /><path
       fill="#1e5d20"
       transform="scale(0.75,0.750183)"
       d="m 297.649,288.407 c 13.9,10.097 25.874,20.413 36.714,33.797 3.841,4.741 7.937,9.791 10.784,15.196 4.048,7.682 5.588,16.05 10.627,23.393 5.522,8.046 12.351,14.942 19.219,21.827 15.23,15.266 31.037,27.947 48.376,40.743 l -3.078,32.728 -0.086,0.721 c -6.618,78.838 -14.964,157.57 -22.857,236.291 -5.901,58.863 -11.192,117.797 -17.001,176.671 -5.045,51.134 -10.213,102.116 -16.122,153.156 -1.665,14.39 -3.412,28.76 -5.118,43.13 -0.815,6.87 -1.087,14.17 -2.517,20.9 l 0.16,0.52 -3.444,26.21 c -2.257,11.7 -11.226,94.89 -13.967,97.96 l -0.887,-0.2 c -1.741,-3.09 -2.489,-7.68 -3.854,-11.09 -5.362,-13.43 -10.835,-26.72 -15.823,-40.3 -15.917,-43.31 -31.553,-86.54 -44.568,-130.85 -6.187,-21.06 -10.513,-42.637 -16.724,-63.643 -10.997,-38.103 -16.597,-78.471 -19.644,-117.947 -3.607,-20.188 -3.567,-42.125 -3.974,-62.613 -0.532,-26.758 -0.85,-53.646 0.073,-80.398 l 21.145,-233.573 c 3.093,-13.285 4.528,-26.992 6.986,-40.408 4.895,-26.717 10.532,-53.409 17.527,-79.66 2.523,-9.468 4.673,-20.217 8.674,-29.135 2.374,-4.742 3.562,-10.262 4.893,-15.378 z"
       id="path61" /><path
       fill="#15350f"
       transform="scale(0.75,0.750183)"
       d="m 372.505,458.683 c 0.439,9.463 -0.398,18.826 -0.973,28.27 -1.228,20.176 -3.46,40.13 -6.055,60.167 -10.26,79.212 -26.435,158.014 -45.921,235.436 -12.494,49.64 -26.456,99.729 -45.652,147.245 -4.656,11.525 -9.158,25.658 -16.421,35.766 -10.997,-38.103 -16.597,-78.471 -19.644,-117.947 18.98,-30.761 36.828,-62.396 52.239,-95.098 36.913,-78.326 62.071,-162.013 76.558,-247.312 2.628,-15.475 3.773,-31.018 5.869,-46.527 z"
       id="path62" /><path
       fill="#389634"
       transform="scale(0.75,0.750183)"
       d="m 306.557,976.45 c 3.5,-13.716 6.018,-27.853 9.112,-41.683 8.67,-38.751 16.814,-77.517 24.501,-116.473 7.723,-39.145 15.316,-78.359 21.519,-117.782 3.329,-21.154 5.85,-42.383 8.675,-63.601 5.638,-42.344 10.63,-84.897 11.566,-127.647 0.504,-23.04 0.246,-46.085 -1.901,-69.038 -0.641,-6.85 -1.371,-13.654 -2.432,-20.451 -0.664,-4.253 -1.944,-8.643 -2.013,-12.931 l 10e-4,-0.479 44.706,49.726 -0.086,0.721 c -6.618,78.838 -14.964,157.57 -22.857,236.291 -5.901,58.863 -11.192,117.797 -17.001,176.671 -5.045,51.134 -10.213,102.116 -16.122,153.156 -1.665,14.39 -3.412,28.76 -5.118,43.13 -0.815,6.87 -1.087,14.17 -2.517,20.9 l -0.482,-0.19 c -2.813,-1.48 -5.781,-8.34 -7.351,-11.13 -12.518,-22.28 -23.518,-45.87 -32.65,-69.72 -3.708,-9.689 -6.641,-19.526 -9.55,-29.47 z"
       id="path63" /><path
       fill="#389634"
       transform="scale(0.75,0.750183)"
       d="m 293.163,306.455 c 5.651,4.786 11.607,9.3 16.813,14.569 14.197,14.367 24.449,31.574 36.512,47.619 8.152,10.843 17.415,21.265 24.855,32.57 -0.238,13.379 -0.339,26.878 -2.262,40.143 -1.758,12.132 -5.083,23.926 -7.952,35.823 -9.357,38.809 -22.817,76.926 -40.263,112.835 -17.252,35.511 -39.125,69.443 -67.653,97.01 l -19.275,17.585 21.145,-233.573 c 3.093,-13.285 4.528,-26.992 6.986,-40.408 4.895,-26.717 10.532,-53.409 17.527,-79.66 2.523,-9.468 4.673,-20.217 8.674,-29.135 2.374,-4.742 3.562,-10.262 4.893,-15.378 z"
       id="path64" /><path
       fill="#1e5d20"
       transform="scale(0.75,0.750183)"
       d="m 753.943,259.365 c 3.173,3.331 6.273,6.12 6.187,11.096 l -0.251,3.352 -0.878,-1.587 c -11.141,2.102 -19.872,3.577 -29.142,10.568 -1.744,1.315 -4.1,2.827 -5.526,4.489 l -0.625,1.088 4.319,15.984 c 1.364,5.616 2.469,13.424 5.512,18.344 -0.457,4.146 2.667,10.836 3.908,14.887 3.085,10.075 6.105,20.164 8.932,30.315 3.26,11.707 6.247,23.558 8.896,35.418 3.197,14.316 6.473,28.681 9.334,43.065 1.584,7.966 2.761,16.01 4.273,23.991 0.403,2.129 0.64,5.993 2.064,7.675 l 0.591,0.626 c -1.056,2.894 0.109,6.022 0.423,8.993 0.87,8.244 1.964,16.447 3.03,24.667 1.198,9.234 2.092,18.514 3.172,27.763 6.814,58.393 13.643,116.858 13.937,175.733 0.275,33.587 -0.861,67.144 -3.442,100.635 -0.783,10.156 -0.895,20.888 -2.6,30.901 -0.775,18.051 -3.765,35.895 -6.478,53.727 -3.673,24.144 -7.569,47.886 -12.407,71.847 -10.673,49.728 -26.127,97.828 -42.608,145.858 -7.372,21.49 -15.129,42.72 -23.651,63.79 -4.445,10.99 -8.696,22.17 -13.922,32.81 l -0.844,0.2 c -0.858,-1.87 -0.928,-4.51 -1.248,-6.55 -0.647,-4.11 -1.3,-8.23 -1.92,-12.35 -2.921,-19.41 -5.537,-38.87 -8.265,-58.3 -1.149,-8.19 -1.832,-16.54 -3.363,-24.65 l -0.003,-4.11 c -1.577,-2.24 -1.508,-9.08 -1.998,-12.19 -0.017,-7.8 -2.147,-16.57 -3.154,-24.38 -2.339,-18.14 -4.576,-36.3 -6.881,-54.44 -5.622,-44.265 -9.79,-88.788 -14.562,-133.156 -5.355,-49.798 -9.325,-99.794 -14.096,-149.654 -8.877,-92.78 -17.971,-185.574 -27.3,-278.31 l 0.277,-0.472 c -2.243,-10.237 -2.013,-21.593 -3.029,-32.074 l 4.22,-4.044 -1.048,-2.072 c 6.098,-4.978 11.825,-11.235 17.36,-16.861 15.161,-15.411 29.621,-31.6 41.355,-49.818 5.85,-9.082 10.516,-18.866 15.751,-28.305 -2.008,-3.097 -2.454,-7.145 -5.25,-9.668 l 0.138,-0.623 22.377,-26.339 c 6.724,-6.625 14.803,-11.843 22.737,-16.876 5.747,-2.22 11.109,-5.057 17.026,-6.958 6.051,-1.945 12.455,-2.766 18.672,-4.035 z"
       id="path65" /><path
       fill="#15350f"
       transform="scale(0.75,0.750183)"
       d="m 753.943,259.365 c 3.173,3.331 6.273,6.12 6.187,11.096 l -0.251,3.352 -0.878,-1.587 c -11.141,2.102 -19.872,3.577 -29.142,10.568 -1.744,1.315 -4.1,2.827 -5.526,4.489 l -0.625,1.088 c -11.597,11.672 -24.593,23.214 -34.437,36.49 -6.118,8.251 -10.531,18.319 -15.758,27.178 -4.264,7.228 -9.209,15.542 -14.644,21.966 -10.127,11.967 -22.372,21.831 -34.524,31.611 -4.554,3.664 -9.077,7.375 -13.678,10.979 -1.743,1.365 -3.857,3.405 -5.842,4.325 l -1.048,-2.072 c 6.098,-4.978 11.825,-11.235 17.36,-16.861 15.161,-15.411 29.621,-31.6 41.355,-49.818 5.85,-9.082 10.516,-18.866 15.751,-28.305 -2.008,-3.097 -2.454,-7.145 -5.25,-9.668 l 0.138,-0.623 22.377,-26.339 c 6.724,-6.625 14.803,-11.843 22.737,-16.876 5.747,-2.22 11.109,-5.057 17.026,-6.958 6.051,-1.945 12.455,-2.766 18.672,-4.035 z"
       id="path66" /><path
       fill="#a67425"
       transform="scale(0.75,0.750183)"
       d="m 753.943,259.365 c 3.173,3.331 6.273,6.12 6.187,11.096 l -0.251,3.352 -0.878,-1.587 c -1.261,-2.076 -2.648,-2.886 -5.031,-3.366 -11.178,-2.251 -28.798,8.279 -37.495,14.521 -9.342,6.705 -17.008,14.77 -24.674,23.268 -4.787,5.307 -10.084,10.941 -13.558,17.215 -2.008,-3.097 -2.454,-7.145 -5.25,-9.668 l 0.138,-0.623 22.377,-26.339 c 6.724,-6.625 14.803,-11.843 22.737,-16.876 5.747,-2.22 11.109,-5.057 17.026,-6.958 6.051,-1.945 12.455,-2.766 18.672,-4.035 z"
       id="path67" /><path
       fill="#15350f"
       transform="scale(0.75,0.750183)"
       d="m 767.172,972.942 c -2.38,-2.677 -3.581,-8.078 -4.825,-11.517 -2.351,-6.496 -4.9,-12.922 -7.289,-19.405 -20.133,-54.634 -35.927,-110.409 -50.501,-166.745 -16.635,-64.303 -31.636,-129.639 -42.19,-195.233 -3.971,-24.681 -7.673,-50.161 -9.927,-75.052 -1.363,-15.049 -2.935,-30.071 -4.428,-45.102 -0.594,-5.98 -0.526,-12.512 -1.596,-18.37 l -0.121,-0.626 0.705,-0.242 c -0.009,5.133 1.1,10.369 1.697,15.474 1.81,15.463 4.43,30.849 7.399,46.129 15.363,79.079 37.604,157.629 68.827,231.971 11.457,27.278 23.766,54.365 38.934,79.807 6.954,11.664 13.237,23.027 22.2,33.337 -0.775,18.051 -3.765,35.895 -6.478,53.727 -3.673,24.144 -7.569,47.886 -12.407,71.847 z"
       id="path68" /><path
       fill="#389634"
       transform="scale(0.75,0.750183)"
       d="m 645.395,411.31 c -0.273,13.041 -1.013,26.112 -1.011,39.15 0.018,89.208 7.502,178.668 19.92,266.954 13.245,94.164 32.897,187.794 61.847,278.449 l -53.958,113.467 -0.845,0.31 c -1.577,-2.24 -1.508,-9.08 -1.998,-12.19 -0.017,-7.8 -2.147,-16.57 -3.154,-24.38 -2.339,-18.14 -4.576,-36.3 -6.881,-54.44 -5.622,-44.265 -9.79,-88.788 -14.562,-133.156 -5.355,-49.798 -9.325,-99.794 -14.096,-149.654 -8.877,-92.78 -17.971,-185.574 -27.3,-278.31 l 0.277,-0.472 z"
       id="path69" /><path
       fill="#389634"
       transform="scale(0.75,0.750183)"
       d="m 648.261,408.182 c 9.174,-13.513 18.954,-26.609 28.391,-39.939 11.186,-15.8 22.047,-31.882 34.67,-46.604 5.214,-6.08 11.011,-11.657 16.705,-17.284 1.364,5.616 2.469,13.424 5.512,18.344 -0.457,4.146 2.667,10.836 3.908,14.887 3.085,10.075 6.105,20.164 8.932,30.315 3.26,11.707 6.247,23.558 8.896,35.418 3.197,14.316 6.473,28.681 9.334,43.065 1.584,7.966 2.761,16.01 4.273,23.991 0.403,2.129 0.64,5.993 2.064,7.675 l 0.591,0.626 c -1.056,2.894 0.109,6.022 0.423,8.993 0.87,8.244 1.964,16.447 3.03,24.667 1.198,9.234 2.092,18.514 3.172,27.763 6.814,58.393 13.643,116.858 13.937,175.733 C 770.95,691.494 751.145,666.074 734.333,638.518 691.128,567.699 668.6,487.862 648.261,408.182 Z"
       id="path70" /><path
       fill="#6f4129"
       transform="scale(0.75,0.750183)"
       d="m 512.542,479.82 c 4.502,-3.671 11.053,-6.253 16.224,-9.015 6.948,-3.713 13.733,-7.733 20.476,-11.804 19.411,-11.72 37.127,-25.691 54.535,-40.153 l 1.048,2.072 -4.22,4.044 c 1.016,10.481 0.786,21.837 3.029,32.074 l -0.277,0.472 c 9.329,92.736 18.423,185.53 27.3,278.31 4.771,49.86 8.741,99.856 14.096,149.654 4.772,44.368 8.94,88.891 14.562,133.156 2.305,18.14 4.542,36.3 6.881,54.44 1.007,7.81 3.137,16.58 3.154,24.38 -4.016,5.18 -7.362,10.83 -11.283,16.08 -8.893,11.91 -18.35,22.76 -29.154,32.99 -3.666,3.47 -7.546,7.53 -11.913,10.07 l -0.844,-5.25 1.296,29.39 c -0.157,7.32 0.444,14.54 0.678,21.85 0.422,13.15 0.779,26.31 1.296,39.45 0.11,2.78 1.557,13.48 -0.021,15.44 -3.515,2.86 -13.422,2.96 -17.995,3.52 -2.114,0.27 -4.979,0.95 -7.077,0.73 -0.958,-0.1 -1.438,-0.4 -2.262,-0.86 -0.528,0.35 -1.508,1.23 -2.071,1.39 -2.595,0.76 -6.654,0.53 -9.418,0.75 -6.746,0.56 -13.462,1.23 -20.224,1.6 -2.113,0.12 -4.989,0.65 -7.015,0.26 -0.684,-0.14 -1.319,-0.46 -1.944,-0.75 -0.844,0.49 -1.756,0.94 -2.732,1.06 -4.985,0.62 -10.415,0.4 -15.448,0.49 -10.636,0.19 -21.278,0.18 -31.915,0.15 -5.766,-0.02 -12.682,0.78 -18.304,-0.16 -0.909,-0.15 -1.469,-0.56 -2.224,-1.05 -0.456,0.31 -0.994,0.65 -1.517,0.82 -2.697,0.89 -6.789,0.3 -9.173,-1.1 l -1.728,0.61 c -2.705,0.53 -5.893,0 -8.646,-0.17 -5.859,-0.36 -11.714,-0.77 -17.567,-1.22 -1.97,-0.15 -5.707,0.07 -7.478,-0.59 -0.649,-0.24 -1.495,-0.99 -2.096,-1.39 l -1.336,0.58 c -3.294,1.12 -23.554,-1.63 -27.218,-3.29 l -1.002,-0.14 c -1.251,-3.88 0.156,-12.23 0.339,-16.53 0.777,-18.26 2.059,-36.58 2.504,-54.84 l 1.967,-38.03 -0.76,2.74 -0.732,0.21 c -14.972,-13.36 -26.937,-28.92 -37.768,-45.78 -3.758,-5.84 -7.271,-13.9 -11.815,-19 l -0.16,-0.52 c 1.43,-6.73 1.702,-14.03 2.517,-20.9 1.706,-14.37 3.453,-28.74 5.118,-43.13 5.909,-51.04 11.077,-102.022 16.122,-153.156 5.809,-58.874 11.1,-117.808 17.001,-176.671 7.893,-78.721 16.239,-157.453 22.857,-236.291 l 0.086,-0.721 3.078,-32.728 24.484,16.702 c 18.961,11.338 36.631,26.468 56.48,36 l 1.594,-0.88 4.923,3.895 c 0.916,0.745 0.465,0.501 1.692,0.74 z"
       id="path71" /><path
       fill="#482815"
       transform="scale(0.75,0.750183)"
       d="m 453.954,833.6 c 2.524,14.298 1.197,30.108 1.744,44.646 1.285,34.203 2.718,68.405 3.941,102.61 2.482,69.404 5.46,138.864 8.723,208.234 1.177,25.05 2.985,50.08 3.971,75.13 -1.106,0.47 -1.133,0.31 -2.247,0.1 l -1.728,0.61 c -2.705,0.53 -5.893,0 -8.646,-0.17 -5.859,-0.36 -11.714,-0.77 -17.567,-1.22 -1.97,-0.15 -5.707,0.07 -7.478,-0.59 -0.649,-0.24 -1.495,-0.99 -2.096,-1.39 l 1.762,0.34 c 0.981,-3.03 0.873,-6.31 1.009,-9.47 0.229,-5.31 0.455,-10.61 0.659,-15.92 0.796,-20.71 1.432,-41.42 2.01,-62.14 2.501,-89.57 6.796,-179.207 11.229,-268.699 0.906,-18.289 1.388,-36.608 2.672,-54.878 0.371,-5.284 -0.109,-12.34 2.042,-17.193 z"
       id="path72" /><path
       fill="#482815"
       transform="scale(0.75,0.750183)"
       d="m 480.776,1264.6 -2.443,0.11 c -1.162,-4.81 1.722,-14.17 2.667,-19.09 1.68,-8.76 3.236,-17.53 4.797,-26.31 3.293,-18.51 6.355,-37.09 9.452,-55.63 12.396,-74.24 23.357,-148.82 33.105,-223.448 3.385,-25.92 6.109,-51.914 9.414,-77.842 0.987,13.685 0.77,27.349 0.981,41.056 0.237,15.415 0.78,30.869 1.312,46.277 2.441,70.607 4.876,141.217 7.639,211.817 1.023,26.14 2.341,52.27 3.425,78.41 0.247,5.94 0.579,11.87 0.731,17.82 0.051,1.98 0.448,4.57 -0.457,6.34 -0.844,0.49 -1.756,0.94 -2.732,1.06 -4.985,0.62 -10.415,0.4 -15.448,0.49 -10.636,0.19 -21.278,0.18 -31.915,0.15 -5.766,-0.02 -12.682,0.78 -18.304,-0.16 -0.909,-0.15 -1.469,-0.56 -2.224,-1.05 z"
       id="path73" /><path
       fill="url(#gradient_4)"
       transform="scale(0.75,0.750183)"
       d="m 512.542,479.82 c 4.502,-3.671 11.053,-6.253 16.224,-9.015 6.948,-3.713 13.733,-7.733 20.476,-11.804 19.411,-11.72 37.127,-25.691 54.535,-40.153 l 1.048,2.072 -4.22,4.044 c 1.016,10.481 0.786,21.837 3.029,32.074 l -0.277,0.472 c 9.329,92.736 18.423,185.53 27.3,278.31 4.771,49.86 8.741,99.856 14.096,149.654 4.772,44.368 8.94,88.891 14.562,133.156 2.305,18.14 4.542,36.3 6.881,54.44 1.007,7.81 3.137,16.58 3.154,24.38 -4.016,5.18 -7.362,10.83 -11.283,16.08 -8.893,11.91 -18.35,22.76 -29.154,32.99 -3.666,3.47 -7.546,7.53 -11.913,10.07 l -0.844,-5.25 1.296,29.39 c -0.157,7.32 0.444,14.54 0.678,21.85 0.422,13.15 0.779,26.31 1.296,39.45 0.11,2.78 1.557,13.48 -0.021,15.44 -3.515,2.86 -13.422,2.96 -17.995,3.52 -2.114,0.27 -4.979,0.95 -7.077,0.73 -0.958,-0.1 -1.438,-0.4 -2.262,-0.86 L 569.81,483.256 516.862,522.205 468.114,485.568 453.954,833.6 c -2.151,4.853 -1.671,11.909 -2.042,17.193 -1.284,18.27 -1.766,36.589 -2.672,54.878 -4.433,89.492 -8.728,179.129 -11.229,268.699 -0.578,20.72 -1.214,41.43 -2.01,62.14 -0.204,5.31 -0.43,10.61 -0.659,15.92 -0.136,3.16 -0.028,6.44 -1.009,9.47 l -1.762,-0.34 -1.336,0.58 c -3.294,1.12 -23.554,-1.63 -27.218,-3.29 l -1.002,-0.14 c -1.251,-3.88 0.156,-12.23 0.339,-16.53 0.777,-18.26 2.059,-36.58 2.504,-54.84 l 1.967,-38.03 -0.76,2.74 -0.732,0.21 c -14.972,-13.36 -26.937,-28.92 -37.768,-45.78 -3.758,-5.84 -7.271,-13.9 -11.815,-19 l -0.16,-0.52 c 1.43,-6.73 1.702,-14.03 2.517,-20.9 1.706,-14.37 3.453,-28.74 5.118,-43.13 5.909,-51.04 11.077,-102.022 16.122,-153.156 5.809,-58.874 11.1,-117.808 17.001,-176.671 7.893,-78.721 16.239,-157.453 22.857,-236.291 l 0.086,-0.721 3.078,-32.728 24.484,16.702 c 18.961,11.338 36.631,26.468 56.48,36 l 1.594,-0.88 4.923,3.895 c 0.916,0.745 0.465,0.501 1.692,0.74 z"
       id="path74"
       style="fill:url(#gradient_4)" /><path
       fill="#895813"
       transform="scale(0.75,0.750183)"
       d="m 600.605,424.964 c 1.016,10.481 0.786,21.837 3.029,32.074 l -0.277,0.472 c -4.039,3.058 -7.27,7.273 -10.619,11.048 -4.867,5.488 -9.777,10.933 -14.74,16.334 l -2.795,-35.549 z"
       id="path75" /><path
       fill="#895813"
       transform="scale(0.75,0.750183)"
       d="m 423.369,423.363 24.484,16.702 -2.508,42.847 c -8.36,-8.499 -16.063,-18.432 -25.14,-26.1 l 0.086,-0.721 z"
       id="path76" /><path
       fill="#d8a444"
       transform="scale(0.75,0.750183)"
       d="m 577.998,484.892 c 4.963,-5.401 9.873,-10.846 14.74,-16.334 3.349,-3.775 6.58,-7.99 10.619,-11.048 9.329,92.736 18.423,185.53 27.3,278.31 4.771,49.86 8.741,99.856 14.096,149.654 4.772,44.368 8.94,88.891 14.562,133.156 2.305,18.14 4.542,36.3 6.881,54.44 1.007,7.81 3.137,16.58 3.154,24.38 -4.016,5.18 -7.362,10.83 -11.283,16.08 -8.893,11.91 -18.35,22.76 -29.154,32.99 -3.666,3.47 -7.546,7.53 -11.913,10.07 l -0.844,-5.25 z"
       id="path77" /><path
       fill="#d8a444"
       transform="scale(0.75,0.750183)"
       d="m 420.205,456.812 c 9.077,7.668 16.78,17.601 25.14,26.1 l -37.52,666.398 -0.76,2.74 -0.732,0.21 c -14.972,-13.36 -26.937,-28.92 -37.768,-45.78 -3.758,-5.84 -7.271,-13.9 -11.815,-19 l -0.16,-0.52 c 1.43,-6.73 1.702,-14.03 2.517,-20.9 1.706,-14.37 3.453,-28.74 5.118,-43.13 5.909,-51.04 11.077,-102.022 16.122,-153.156 5.809,-58.874 11.1,-117.808 17.001,-176.671 7.893,-78.721 16.239,-157.453 22.857,-236.291 z"
       id="path78" /></g></svg>
