<?xml version="1.0" encoding="UTF-8" standalone="no"?>
<svg
   width="63mm"
   height="88mm"
   version="1.1"
   id="svg70"
   sodipodi:docname="item-shieldbuckler.svg"
   inkscape:version="1.3.2 (091e20e, 2023-11-25, custom)"
   xmlns:inkscape="http://www.inkscape.org/namespaces/inkscape"
   xmlns:sodipodi="http://sodipodi.sourceforge.net/DTD/sodipodi-0.dtd"
   xmlns="http://www.w3.org/2000/svg"
   xmlns:svg="http://www.w3.org/2000/svg">
  <sodipodi:namedview
     id="namedview70"
     pagecolor="#ffffff"
     bordercolor="#000000"
     borderopacity="0.25"
     inkscape:showpageshadow="2"
     inkscape:pageopacity="0.0"
     inkscape:pagecheckerboard="0"
     inkscape:deskcolor="#d1d1d1"
     inkscape:document-units="mm"
     inkscape:zoom="0.96755778"
     inkscape:cx="-319.87754"
     inkscape:cy="75.964456"
     inkscape:window-width="1920"
     inkscape:window-height="1017"
     inkscape:window-x="-8"
     inkscape:window-y="-8"
     inkscape:window-maximized="1"
     inkscape:current-layer="svg70" />
  <path
     fill="#301506"
     d="m 117.59419,84.604172 0.45665,-0.01888 c 5.99731,-0.189748 11.96841,0.181749 17.86912,1.296564 15.1269,2.857896 29.6841,10.458869 40.89921,20.974984 5.31373,4.98263 9.86163,10.66461 13.70234,16.84281 1.67685,2.69736 3.26619,5.49716 4.60648,8.37866 2.54407,5.46925 4.4359,11.27112 5.76746,17.14753 1.13783,5.02115 1.85824,10.08976 2.01875,15.23906 0.49174,15.77023 -3.93713,31.38598 -12.21235,44.78119 l -3.01612,4.63921 c -2.14309,2.98084 -4.56263,5.79126 -7.07999,8.46052 -4.91841,5.21559 -10.50704,9.90926 -16.60815,13.67801 -6.68964,4.13237 -14.00739,7.1879 -21.56424,9.30342 -5.92879,1.65973 -11.94838,2.72941 -18.11047,2.91576 l -0.79561,0.0525 c -21.26106,0.8518 -42.438358,-7.41056 -58.004416,-21.80968 -13.701468,-12.67428 -22.71318,-29.53866 -25.555011,-47.9977 -0.521198,-3.38541 -0.763617,-6.78505 -0.892026,-10.20488 -0.451931,-12.0354 2.128143,-24.27342 7.057457,-35.24361 l 2.089415,-4.10874 c 3.408059,-6.4588 7.707099,-12.54946 12.681338,-17.89949 10.899102,-11.722808 24.984417,-20.058379 40.490703,-24.006082 5.29676,-1.34848 10.73415,-2.223498 16.19946,-2.421107 z"
     id="path2"
     style="stroke-width:0.171284" />
  <path
     fill="#190400"
     d="m 109.93183,87.222871 0.18088,-0.120361 c 0.39772,-0.193738 3.55532,-0.660897 3.87477,-0.533822 l -0.23517,0.0713 c 0.19474,0.01693 0.36894,0.07084 0.55615,0.12406 l -4.16492,0.486942 z"
     id="path3"
     style="stroke-width:0.171284" />
  <path
     fill="#190400"
     d="m 118.51449,86.460471 -1.05493,-0.05281 c 0.23226,-0.09429 0.3996,-0.09467 0.64317,-0.08565 l 0.12761,-0.169879 c 1.20805,-0.06791 2.38614,-0.07057 3.59437,-0.005 0.51061,0.02767 1.00322,-0.0097 1.5013,0.09014 0.34343,0.06887 0.6932,-0.06607 1.0277,0.08565 l 0.11392,0.04652 0.045,0.189234 z"
     id="path4"
     style="stroke-width:0.171284" />
  <path
     d="m 118.51449,86.460471 5.99817,0.09816 c 1.20344,0.181166 6.80544,0.33652 7.48046,0.908264 l 0.0248,0.09561 c 0.11648,0.109038 0.12316,0.09715 0.17523,0.262559 1.11025,-0.257542 2.73523,0.293409 3.87203,0.500507 5.50488,1.002795 10.71823,2.636856 15.90794,4.717487 3.87066,1.551758 7.7821,3.388275 11.31635,5.611361 0.57038,0.358839 1.32572,0.772316 1.62872,1.391681 l -0.0136,0.0836 c -0.0166,0.10791 -0.0142,0.0642 -0.0106,0.15638 3.167,1.74126 5.97948,3.96298 8.67839,6.35153 2.7193,2.40653 5.29677,4.92131 7.65346,7.68925 3.53288,4.14934 6.64938,8.91376 9.17686,13.73658 0.29271,0.24237 0.45013,0.42307 0.619,0.76187 0.54177,1.08714 1.26509,2.09686 1.81236,3.19752 1.39321,2.80169 2.47727,5.60662 3.51165,8.55406 0.81444,2.32106 1.59037,4.67296 2.11774,7.0788 0.25727,1.17294 0.46417,2.36645 0.60635,3.55858 0.0741,0.61954 0.0609,1.28377 0.18242,1.8908 0.56043,3.16154 1.12908,6.49712 1.2495,9.70422 0.15604,4.15586 -0.0959,8.42613 -0.71357,12.53777 -0.10451,0.69507 -0.29373,1.36119 -0.4157,2.0489 -2.09359,11.81736 -6.4096,23.22979 -13.30408,33.10358 -4.4878,6.42707 -9.9913,12.41856 -16.13575,17.29721 -10.3558,8.22246 -22.97424,13.72682 -35.97378,16.00079 -0.47737,0.0836 -1.43091,0.0939 -1.83274,0.32783 0.0573,0.16289 0.12487,0.27885 0.2249,0.41965 -0.21873,0.27749 -0.90062,0.25848 -1.25467,0.29974 -6.06324,0.70604 -12.14706,0.69113 -18.21974,0.17128 -0.75826,-0.0649 -2.2856,0 -2.86282,-0.4616 l -0.091,-0.0778 c -4.95985,-0.80485 -9.90394,-1.99219 -14.639247,-3.6814 -15.622582,-5.57287 -29.15996,-16.07322 -38.842095,-29.49087 -1.110258,-1.53863 -2.066532,-3.15624 -3.03925,-4.78275 -2.074585,-3.46832 -4.000442,-7.10261 -5.529438,-10.84686 -1.55233,-3.8018 -2.796805,-7.95011 -3.767847,-11.9357 l -0.884095,-4.12845 -0.327767,-2.17923 c -0.04374,-0.34326 -0.03022,-0.74457 -0.241682,-1.02428 l -0.09671,-0.14987 0.02711,-0.0741 c -0.04599,-1.73083 -0.372807,-3.46866 -0.456033,-5.20445 -0.269584,-5.62238 -0.03165,-11.17521 0.739893,-16.75013 l -0.21426,-0.21275 0.04328,-0.12264 c 0.239454,-0.0352 0.262902,-0.006 0.481836,0.10602 1.941531,-12.84555 7.254928,-24.94878 14.800817,-35.46969 9.988822,-13.92699 25.375718,-24.13928 41.850093,-28.699682 3.377195,-0.934866 6.814335,-1.464697 10.265005,-2.037759 -0.0707,-0.180498 -0.11013,-0.381653 -0.16066,-0.56926 l 0.21171,0.02812 4.16492,-0.486941 z"
     id="path5"
     style="stroke-width:0.171284" />
  <path
     fill="#d7901d"
     d="m 67.779512,166.2788 1.109916,-0.31431 c 0.106372,0.14199 0.128805,0.24991 0.306426,0.2864 0.124694,0.0256 0.19749,0.06 0.305056,0.12331 l -0.100197,0.20281 -0.88896,-0.15228 z"
     id="path6"
     style="stroke-width:0.171284" />
  <path
     fill="#8f9690"
     d="m 76.524212,208.9244 c 0.282789,0.0598 0.457155,0.0117 0.731209,-0.0704 l 0.106885,0.21274 c -0.05687,0.1389 -1.394589,0.786 -1.588652,0.89101 z"
     id="path7"
     style="stroke-width:0.171284" />
  <defs
     id="defs8">
    <linearGradient
       id="gradient_0"
       gradientUnits="userSpaceOnUse"
       x1="531.10077"
       y1="673.27783"
       x2="522.23834"
       y2="703.50208"
       gradientTransform="matrix(0.17128335,0,0,0.17128335,33.2738,78.742736)">
      <stop
         offset="0"
         stop-color="#8E5601"
         id="stop7" />
      <stop
         offset="1"
         stop-color="#814104"
         id="stop8" />
    </linearGradient>
  </defs>
  <path
     fill="url(#gradient_0)"
     d="m 120.81003,195.38925 6.15146,-0.81685 -0.28808,1.73544 c -0.10637,0.003 -0.20246,0.003 -0.30387,0.0405 -0.38709,0.14372 -0.79183,0.41775 -1.16268,0.60839 l -2.50467,1.25465 c -0.47513,0.22987 -1.4249,0.48713 -1.76575,0.83757 -0.0882,-0.45389 -0.045,-0.98093 -0.0512,-1.44512 z"
     id="path8"
     style="fill:url(#gradient_0);stroke-width:0.171284" />
  <path
     fill="#d7901d"
     d="m 120.93644,199.0489 c 0.34085,-0.35044 1.29062,-0.60771 1.76575,-0.83758 l 2.50467,-1.25464 c 0.37085,-0.19064 0.77559,-0.4647 1.16268,-0.6084 0.10141,-0.0377 0.1975,-0.0383 0.30387,-0.0404 l -4.7848,22.75379 c -0.23312,-0.57483 -0.15279,-1.36837 -0.16735,-1.98551 l -0.10157,-3.17609 z"
     id="path9"
     style="stroke-width:0.171284" />
  <path
     fill="#763b04"
     d="m 91.765003,165.42667 c -0.05858,1.75017 0.11596,3.55977 0.377852,5.28973 l -22.742145,-4.13939 0.100197,-0.20281 c 1.085252,0.0341 2.201847,-0.0721 3.29275,-0.0834 l 15.564003,-0.59537 2.414068,-0.0956 c 0.19612,-0.006 0.654302,0.0389 0.824044,-0.0242 0.07057,-0.0262 0.112872,-0.0994 0.169228,-0.14903 z"
     id="path10"
     style="stroke-width:0.171284" />
  <path
     fill="#7a1d08"
     d="m 88.23708,140.37563 7.10706,11.38725 c -0.163746,0.6627 -0.705,1.44478 -1.005776,2.0876 -0.498435,1.06606 -0.920647,2.17581 -1.292674,3.29155 l -0.636489,2.2457 -1.606125,0.34051 c -1.503524,-6.39589 -2.452435,-12.77757 -2.565996,-19.35261 z"
     id="path11"
     style="stroke-width:0.171284" />
  <path
     fill="#d7901d"
     d="m 149.32614,165.6298 c -0.0185,-1.84163 -0.28639,-3.56183 -0.63272,-5.36768 0.25864,-0.0584 0.72126,0.12539 0.9991,0.19014 l 2.55726,0.55735 13.04065,2.82857 7.729,2.02149 c -0.25591,0.0493 -0.54965,0.13446 -0.80777,0.1372 -0.41571,-0.12316 -0.91536,-0.10157 -1.34869,-0.11373 l -2.40705,-0.048 z"
     id="path12"
     style="stroke-width:0.171284" />
  <path
     fill="#763b04"
     d="m 120.6588,137.57257 -5.86989,0.56901 4.24098,-17.03893 1.42849,-5.84829 c 0.11082,-0.41452 0.20692,-1.14607 0.43901,-1.48417 0.11852,-0.17284 0.15724,-0.23141 0.22489,-0.43096 l 0.0262,-0.0787 z"
     id="path13"
     style="stroke-width:0.171284" />
  <path
     fill="#cc7e1b"
     d="m 68.889428,165.96449 4.85006,-1.36101 10.448283,-2.7861 5.481068,-1.48691 c 0.851276,-0.2302 1.820057,-0.57568 2.69737,-0.66612 -0.333832,1.90981 -0.574828,3.82219 -0.601206,5.76232 -0.05635,0.0497 -0.09866,0.12281 -0.169228,0.14901 -0.169742,0.0629 -0.627923,0.0181 -0.824045,0.0242 l -2.414065,0.0956 -15.564005,0.59538 c -1.090903,0.0113 -2.207498,0.1175 -3.29275,0.0834 -0.107564,-0.0634 -0.180362,-0.0976 -0.305056,-0.12333 -0.177621,-0.0365 -0.200058,-0.14439 -0.306426,-0.28638 z"
     id="path14"
     style="stroke-width:0.171284" />
  <path
     fill="#763b04"
     d="m 121.88861,219.06164 -0.32218,1.5484 -6.34161,-25.75811 c 1.7757,0.42514 3.76447,0.52825 5.58521,0.53732 l 0.0752,2.21452 c 0.006,0.46417 -0.0369,0.99124 0.0512,1.44513 l 0.68326,14.85111 0.10157,3.17612 c 0.0146,0.61713 -0.0658,1.41069 0.16734,1.98551 z"
     id="path15"
     style="stroke-width:0.171284" />
  <path
     fill="#d7901d"
     d="m 121.14849,113.26043 0.0366,-0.41792 0.0993,-0.0137 c 0.45306,1.34372 0.7295,2.75938 1.03627,4.14335 l 1.48863,6.94348 2.19498,10.10367 0.84597,4.28551 c -2.01702,-0.4731 -4.11678,-0.74664 -6.19137,-0.73225 z"
     id="path16"
     style="stroke-width:0.171284" />
  <path
     fill="#7a1d08"
     d="m 149.32614,165.6298 19.12978,0.20538 2.40705,0.048 c 0.43333,0.0122 0.93298,-0.009 1.34869,0.11372 -0.61355,0.27012 -1.27161,0.38916 -1.91565,0.56559 l -3.57638,0.99 -3.58033,1.09417 -14.5233,3.83383 c 0.49398,-2.25889 0.69558,-4.54277 0.71014,-6.85066 z"
     id="path17"
     style="stroke-width:0.171284" />
  <path
     fill="#7a1d08"
     d="m 108.21198,192.48805 c 2.14445,1.10736 4.42766,1.75772 6.7578,2.3358 l 4.06148,16.813 -1.63079,-1.51038 c -1.41447,-1.17501 -2.70508,-2.55349 -3.92718,-3.92393 -1.70719,-1.91426 -3.3265,-3.90302 -4.804,-6.00056 l -3.76463,-5.74895 z"
     id="path18"
     style="stroke-width:0.171284" />
  <path
     fill="#fefefe"
     d="m 100.6308,145.83408 c 2.20494,-1.99341 4.73804,-3.83949 7.41999,-5.13353 4.285,-2.06757 9.32056,-2.90309 14.05929,-2.67443 7.49758,0.36175 14.71015,3.87118 19.71745,9.42282 4.99582,5.53896 7.46145,12.94953 7.04763,20.37604 -0.41279,7.40646 -3.73707,14.57038 -9.28631,19.5119 l -0.36722,0.32288 -0.47549,-0.13309 c 1.86254,-2.33751 3.8013,-4.55957 5.17927,-7.2386 3.35681,-6.52641 4.42424,-14.5769 2.16724,-21.6295 -2.25666,-7.05139 -7.19081,-13.05761 -13.79121,-16.4461 -4.77419,-2.45107 -10.24652,-3.35424 -15.56983,-2.92845 -1.20927,0.0968 -2.53466,0.21582 -3.69321,0.587 l -3.80747,1.0671 c -1.35244,0.55941 -2.73984,1.17706 -3.98832,1.94406 l -4.50715,3.0425 z"
     id="path19"
     style="stroke-width:0.171284" />
  <path
     fill="#66675d"
     d="m 100.21322,145.69757 c -1.781869,1.6933 -3.348597,3.73706 -4.682209,5.79433 -0.198175,-0.0858 -3.505657,-5.63351 -3.849079,-6.18453 L 80.59082,127.74537 77.52896,122.866 c 0.342738,0.19425 0.688559,0.37324 0.988819,0.63068 l -0.04248,0.12692 z"
     id="path20"
     style="stroke-width:0.171284" />
  <path
     fill="#cbceb7"
     d="m 140.65664,186.9551 c 1.90278,-1.94253 3.56886,-4.09007 4.94083,-6.44077 l 5.23837,7.75434 5.13815,7.75075 7.06526,10.74854 0.99327,1.54429 c 0.16392,0.24972 0.40937,0.53936 0.48715,0.82747 -0.13482,-0.0405 -0.25025,-0.0821 -0.37411,-0.14935 -0.29185,-0.5262 -0.88037,-1.03612 -1.31236,-1.46259 l -3.79478,-3.49488 -13.37706,-12.491 c -1.64603,-1.54258 -3.42156,-2.98273 -5.00472,-4.5868 z"
     id="path21"
     style="stroke-width:0.171284" />
  <path
     fill="#66675d"
     d="m 76.524212,208.9244 19.020159,-28.30011 c 1.477147,2.34385 3.127976,4.41192 5.065539,6.38938 l -23.354489,21.84034 c -0.274054,0.0817 -0.44842,0.13017 -0.731209,0.0704 z"
     id="path22"
     style="stroke-width:0.171284" />
  <path
     fill="#cbceb7"
     d="m 78.517779,123.49668 29.133081,16.9442 c -2.72821,1.36923 -5.21011,3.1756 -7.43764,5.25669 L 78.4753,123.6236 Z"
     id="path23"
     style="stroke-width:0.171284" />
  <path
     fill="#9ea08a"
     d="m 77.255421,208.85401 23.354489,-21.84034 c 2.18968,2.09292 4.59313,3.96864 7.30865,5.33583 l -30.556258,16.71725 z"
     id="path24"
     style="stroke-width:0.171284" />
  <path
     fill="#cbceb7"
     d="m 140.56055,145.54888 19.22518,-18.8045 3.89481,-3.75367 c 0.31242,-0.28605 0.78773,-0.85402 1.19145,-0.95286 l -14.37718,22.53797 -3.83059,5.81251 c -0.32543,0.4736 -0.63974,1.10803 -1.04978,1.49359 -1.46809,-2.27087 -3.10417,-4.45079 -5.05389,-6.33304 z"
     id="path25"
     style="stroke-width:0.171284" />
  <path
     fill="#66675d"
     d="m 140.56055,145.54888 c -2.28304,-2.06961 -4.57601,-3.65072 -7.31106,-5.06296 l 22.69725,-13.59269 6.20783,-3.72577 c 1.15292,-0.6978 2.31713,-1.32058 3.39159,-2.14018 -0.20194,0.34394 -0.38709,0.73087 -0.67417,1.01057 -0.40372,0.0988 -0.87903,0.66681 -1.19145,0.95286 l -3.89481,3.75367 z"
     id="path26"
     style="stroke-width:0.171284" />
  <path
     fill="#66675d"
     d="m 140.65664,186.9551 c 1.58316,1.60407 3.35869,3.04422 5.00472,4.5868 l 13.37706,12.491 3.79478,3.49488 c 0.43199,0.42647 1.02051,0.93639 1.31236,1.46259 -0.8028,-0.18877 -1.74553,-0.82166 -2.48513,-1.2062 l -5.42935,-2.8493 -17.25868,-8.98877 -6.40547,-3.22287 c 3.07555,-1.60098 5.61723,-3.34259 8.08971,-5.76813 z"
     id="path27"
     style="stroke-width:0.171284" />
  <defs
     id="defs28">
    <linearGradient
       id="gradient_1"
       gradientUnits="userSpaceOnUse"
       x1="508.83417"
       y1="981.29376"
       x2="534.49146"
       y2="882.7243"
       gradientTransform="matrix(0.17128335,0,0,0.17128335,33.2738,78.742736)">
      <stop
         offset="0"
         stop-color="#805505"
         id="stop27" />
      <stop
         offset="1"
         stop-color="#C99219"
         id="stop28" />
    </linearGradient>
  </defs>
  <path
     fill="url(#gradient_1)"
     d="m 121.05342,228.64598 10.75934,15.80276 -10.49419,0.62108 -10.98507,-0.63256 z"
     id="path28"
     style="fill:url(#gradient_1);stroke-width:0.171284" />
  <defs
     id="defs30">
    <linearGradient
       id="gradient_2"
       gradientUnits="userSpaceOnUse"
       x1="500.9765"
       y1="942.48657"
       x2="508.72641"
       y2="934.776"
       gradientTransform="matrix(0.17128335,0,0,0.17128335,33.2738,78.742736)">
      <stop
         offset="0"
         stop-color="#6B5105"
         id="stop29" />
      <stop
         offset="1"
         stop-color="#85690C"
         id="stop30" />
    </linearGradient>
  </defs>
  <path
     fill="url(#gradient_2)"
     d="m 120.30595,235.67835 0.0863,0.0193 c 0.48421,0.0611 0.90797,-0.15861 1.435,-0.0453 l 0.0923,0.0151 c 0.5851,0.10207 1.14981,0.46795 1.4929,0.95576 0.11921,0.16973 0.19219,0.36551 0.26823,0.55667 l 0.0531,0.12966 0.10551,0.40474 c 0.006,0.38539 0.091,0.9919 -0.0806,1.33565 -0.0173,0.11601 -0.0266,0.22663 -0.0683,0.33677 -0.10996,0.21941 -0.21804,0.38109 -0.36432,0.57739 l -0.0848,0.1276 -0.17128,0.21411 0.16957,0.0857 c -0.1146,0.10208 -0.22318,0.22198 -0.36432,0.28364 -0.10774,0.1091 -0.18859,0.18308 -0.32629,0.25504 l -0.12213,0.06 c -0.21428,0.12452 -0.0375,0.0565 -0.25419,0.12879 l -0.13119,0.0426 c -0.2076,0.0858 -0.29924,0.0507 -0.51386,0.0857 l -0.17128,0.077 c -0.18139,0.0344 -0.61954,0.0343 -0.78019,-0.0379 -0.11562,-0.0517 -0.0353,-0.0399 -0.17745,-0.0404 -0.18226,-7.1e-4 -0.32973,-0.032 -0.50307,-0.0885 l -0.12331,-0.042 c -0.13378,-0.039 -0.18842,-0.0524 -0.321,-0.12487 l -0.14952,-0.085 c -0.34907,-0.18637 -0.83964,-0.67879 -0.9902,-1.05167 l -0.0375,-0.10454 c -0.10859,-0.2523 -0.17231,-0.47137 -0.25693,-0.72796 -0.0828,-0.25075 -0.12264,-0.54366 -0.0381,-0.80435 0.0527,-0.1622 0.0745,-0.32493 0.12711,-0.4878 l 0.0412,-0.12041 c 0.0596,-0.18088 0.1192,-0.32837 0.21341,-0.4957 l 0.0845,-0.14714 c 0.16221,-0.30883 0.51009,-0.63512 0.78859,-0.85452 l 0.1098,-0.0842 c 0.10038,-0.0788 0.17642,-0.13343 0.29204,-0.19149 0.27457,-0.13824 0.35884,-0.24684 0.67023,-0.15709 z"
     id="path30"
     style="fill:url(#gradient_2);stroke-width:0.171284" />
  <defs
     id="defs32">
    <linearGradient
       id="gradient_3"
       gradientUnits="userSpaceOnUse"
       x1="520.32751"
       y1="944.12134"
       x2="520.86346"
       y2="938.25897"
       gradientTransform="matrix(0.17128335,0,0,0.17128335,33.2738,78.742736)">
      <stop
         offset="0"
         stop-color="#917008"
         id="stop31" />
      <stop
         offset="1"
         stop-color="#AC8B1C"
         id="stop32" />
    </linearGradient>
  </defs>
  <path
     fill="url(#gradient_3)"
     d="m 119.97263,236.57314 0.0529,0.0896 c 0.19972,0.34806 0.25607,0.8232 0.44261,1.12604 0.14352,0.23327 0.77333,0.61918 1.02871,0.69797 0.49826,0.15365 1.22862,0.0911 1.67584,-0.17282 0.24374,-0.14389 0.50119,-0.37117 0.66663,-0.59966 0.006,0.38539 0.091,0.9919 -0.0806,1.33566 -0.0173,0.116 -0.0266,0.22661 -0.0683,0.33675 -0.10996,0.21941 -0.21804,0.38111 -0.36432,0.57739 l -0.0847,0.12761 -0.17129,0.21411 0.16957,0.0857 c -0.11459,0.10208 -0.22318,0.22198 -0.36432,0.28364 -0.15654,-0.062 -0.0865,-0.0545 -0.26223,-0.038 -0.2369,0.0223 -0.48593,0.10127 -0.70003,-0.0373 -0.93624,-0.60634 -1.59123,-1.21011 -2.22652,-2.13795 -0.0113,-0.63684 0.15621,-1.26785 0.28621,-1.88875 z"
     id="path32"
     style="fill:url(#gradient_3);stroke-width:0.171284" />
  <path
     fill="#a7911d"
     d="m 123.69034,239.38664 -0.5207,0.13121 c -0.34034,0.0195 -0.93709,0.0106 -1.21304,-0.15417 0.32664,0.003 0.74131,0.0536 1.0558,-0.0238 l 0.0937,-0.0284 c 0.24613,-0.0453 0.36055,-0.0863 0.57655,-0.21511 l 0.076,-0.0465 c -0.0173,0.116 -0.0268,0.2266 -0.0684,0.33675 z"
     id="path33"
     style="stroke-width:0.171284" />
  <path
     fill="#d3c38c"
     d="m 120.30595,235.67835 0.0863,0.0193 c 0.48421,0.0611 0.90797,-0.15861 1.435,-0.0453 l 0.0923,0.0151 c 0.5851,0.10207 1.14981,0.46795 1.4929,0.95576 0.11921,0.16973 0.19219,0.36551 0.26823,0.55667 l 0.0531,0.12966 0.10551,0.40474 c -0.16546,0.22849 -0.42289,0.45577 -0.66664,0.59966 -0.44721,0.26395 -1.17757,0.32647 -1.67583,0.17283 -0.25539,-0.0788 -0.88519,-0.4647 -1.02872,-0.69798 -0.18654,-0.30283 -0.24289,-0.77798 -0.44261,-1.12603 l -0.0528,-0.0896 c 0.0414,-0.35421 0.16187,-0.5851 0.33333,-0.89478 z"
     id="path34"
     style="stroke-width:0.171284" />
  <path
     fill="#cbceb7"
     d="m 121.83243,236.36622 c 0.12486,-0.0253 0.2516,-0.0558 0.38024,-0.0509 0.33247,0.0126 0.5541,0.15176 0.77883,0.38196 0.10363,0.29359 0.12572,0.34976 0.0656,0.66921 -0.19286,0.25247 -0.32287,0.34445 -0.61491,0.46588 l -0.65773,0.0239 c -0.29014,-0.0118 -0.46075,-0.0829 -0.65756,-0.29101 -0.077,-0.2494 -0.0898,-0.4445 0.0346,-0.68515 0.148,-0.28638 0.3823,-0.40525 0.67092,-0.51384 z"
     id="path35"
     style="stroke-width:0.171284" />
  <path
     fill="#985d24"
     d="m 42.865819,154.22867 15.700534,11.0572 -15.984384,10.89739 c -0.046,-1.73082 -0.372816,-3.46866 -0.456041,-5.20444 -0.269584,-5.62238 -0.03165,-11.17522 0.739891,-16.75015 z"
     id="path36"
     style="stroke-width:0.171284" />
  <path
     fill="#645a04"
     d="m 49.348277,162.67877 c 0.140367,-0.025 0.245193,-0.0352 0.388848,-0.0186 l 0.150729,0.0214 c 0.591528,0.0795 0.89093,0.18481 1.41266,0.46109 l 0.08718,0.041 c 0.61662,0.34361 0.816678,0.97787 1.026159,1.58627 0.09386,0.27268 0.150216,0.77711 0.04351,1.06161 -0.06954,0.18516 -0.02742,-0.004 -0.0692,0.22541 -0.056,0.30677 -0.166831,0.5303 -0.321329,0.80007 l -0.08033,0.13874 c -0.264632,0.48592 -0.852477,0.93657 -1.378831,1.11488 l -0.120241,0.0357 c -0.182485,0.0591 -0.338935,0.10088 -0.529865,0.12743 -0.23166,0.045 -0.455939,0.0929 -0.692841,0.064 l -0.14679,-0.0228 c -0.136272,-0.0192 -0.253739,-0.0337 -0.385849,-0.076 l -0.128429,-0.0446 c -0.150987,-0.0504 -0.270628,-0.0956 -0.411663,-0.17316 l -0.144151,-0.0824 c -0.293477,-0.15483 -0.643821,-0.50118 -0.831187,-0.78226 l -0.06847,-0.11749 c -0.145574,-0.23107 -0.25905,-0.43113 -0.346249,-0.69267 l -0.03872,-0.12042 c -0.122467,-0.3119 -0.147166,-0.97887 -0.04608,-1.30226 l 0.04608,-0.11082 c 0.04844,-0.13292 0.08456,-0.25435 0.147665,-0.38247 l 0.06673,-0.13102 0.08552,-0.2095 c 0.292501,-0.51024 0.993787,-1.0664 1.551228,-1.25207 l 0.117757,-0.0367 c 0.214447,-0.0821 0.386724,-0.10056 0.616157,-0.12213 z"
     id="path37"
     style="stroke-width:0.171284" />
  <path
     fill="#caad1d"
     d="m 51.901718,164.08192 c 0.255384,0.40423 0.300088,0.84408 0.292724,1.31151 -0.0073,0.45819 -0.07622,0.95011 -0.422043,1.28789 -0.757244,-0.0647 -1.492545,0.0866 -2.216817,-0.2165 l -0.09551,-0.0414 C 48.35389,165.9565 47.89999,165.26485 47.27717,164.28614 l 0.07021,-0.10877 c 0.38686,-0.5899 0.902801,-1.0748 1.619381,-1.21164 0.413632,-0.0789 0.761766,-0.0846 1.180691,-0.0387 0.326448,0.0713 0.638012,0.15689 0.935532,0.31327 0.319787,0.21993 0.64882,0.48456 0.818733,0.8417 z"
     id="path38"
     style="stroke-width:0.171284" />
  <path
     fill="#fefefe"
     d="m 50.147451,162.92696 c 0.326449,0.0712 0.638014,0.15689 0.935532,0.31328 0.319787,0.21991 0.648821,0.48455 0.818735,0.84168 l -0.04299,0.16666 -0.04454,-0.0313 -0.02295,0.12642 c -0.03769,0.17367 -0.178991,0.40781 -0.325095,0.51178 -0.125037,0.0889 -0.223012,0.11544 -0.370827,0.12349 -0.261037,0.0479 -0.660813,0.0692 -0.909602,-0.0456 -0.340271,-0.15689 -0.460067,-0.36245 -0.576128,-0.70621 l -0.08435,-0.18978 c 0.08505,-0.39464 -0.0536,-0.68051 -0.06217,-1.06607 z"
     id="path39"
     style="stroke-width:0.171284" />
  <path
     fill="#f8f254"
     d="m 50.147451,162.92696 c 0.326449,0.0712 0.638014,0.15689 0.935532,0.31328 0.319787,0.21991 0.648821,0.48455 0.818735,0.84168 l -0.04299,0.16666 -0.04454,-0.0313 -0.02295,0.12642 c -0.03769,0.17367 -0.178991,0.40781 -0.325095,0.51178 -0.125037,0.0889 -0.223012,0.11544 -0.370827,0.12349 0.151415,-0.1526 0.235343,-0.24648 0.262918,-0.46605 0.05653,-0.44842 -0.05001,-0.74662 -0.344451,-1.07533 -0.263604,-0.13925 -0.441224,-0.21085 -0.740115,-0.23123 -0.293682,0.0946 -0.404142,0.19475 -0.599491,0.43061 l -0.0646,0.59024 -0.08435,-0.18977 c 0.08505,-0.39465 -0.05359,-0.68052 -0.06217,-1.06607 z"
     id="path40"
     style="stroke-width:0.171284" />
  <path
     fill="#985d24"
     d="m 199.02725,153.6446 c 0.5082,2.71415 0.9335,5.53468 1.12636,8.2908 0.0902,1.28976 0.0655,2.59991 0.0584,3.89276 -0.0177,3.39466 -0.26771,6.83643 -0.86943,10.18056 l -8.6219,-5.77944 -7.17729,-4.82746 z"
     id="path41"
     style="stroke-width:0.171284" />
  <defs
     id="defs42">
    <linearGradient
       id="gradient_4"
       gradientUnits="userSpaceOnUse"
       x1="930.14496"
       y1="518.29596"
       x2="933.64166"
       y2="504.76746"
       gradientTransform="matrix(0.17128335,0,0,0.17128335,33.2738,78.742736)">
      <stop
         offset="0"
         stop-color="#75710C"
         id="stop41" />
      <stop
         offset="1"
         stop-color="#858718"
         id="stop42" />
    </linearGradient>
  </defs>
  <path
     fill="url(#gradient_4)"
     d="m 195.87668,165.55753 0.13804,0.20091 -0.0725,0.3388 c -0.2309,0.66868 -0.72436,1.28702 -1.36256,1.60767 l -0.12829,0.0614 c -0.12778,0.0627 -0.23003,0.11767 -0.36963,0.14971 l -0.10139,0.0215 c -0.21375,0.0737 -0.42699,0.0426 -0.62089,0.12076 l -0.0642,0.0337 c -0.28862,-0.047 -0.5822,-0.0673 -0.86121,-0.15844 l -0.12317,-0.0418 c -0.13498,-0.039 -0.18755,-0.0512 -0.32114,-0.12486 l -0.14954,-0.0855 c -0.28485,-0.15296 -0.68205,-0.51968 -0.84957,-0.79835 l -0.0501,-0.10141 -0.0645,-0.12554 -0.0638,-0.13086 c -0.0639,-0.12813 -0.1192,-0.22883 -0.15055,-0.36963 l -0.0208,-0.10139 c -0.10769,-0.30729 -0.13001,-0.70229 -0.0635,-1.03062 l 0.0276,-0.12521 c 0.0427,-0.24528 0.11836,-0.42342 0.2302,-0.6478 l 0.0626,-0.12332 c 0.0511,-0.10962 0.0327,-0.10859 0.10829,-0.21411 0.16305,-0.22781 0.27832,-0.33144 0.54724,-0.37323 l 0.0854,-1.6e-4 c 0.0763,0.43728 -0.0209,0.88261 0.0207,1.33481 0.19475,0.63631 0.38007,1.1094 0.99549,1.46035 0.6276,0.35782 1.66763,0.37016 2.35311,0.17369 l 0.30796,-0.12264 c 0.0976,-0.0439 0.18687,-0.0615 0.29237,-0.0748 z"
     id="path42"
     style="fill:url(#gradient_4);stroke-width:0.171284" />
  <path
     fill="#a7911d"
     d="m 191.63895,163.53997 c 0.0763,0.4373 -0.021,0.88263 0.0207,1.33482 -0.13034,-0.0231 -0.22506,-0.0459 -0.3333,-0.12658 -0.19852,-0.14816 -0.21838,-0.16239 -0.25847,-0.40663 0.1247,-0.32612 0.25864,-0.53971 0.48594,-0.80143 z"
     id="path43"
     style="stroke-width:0.171284" />
  <defs
     id="defs44">
    <linearGradient
       id="gradient_5"
       gradientUnits="userSpaceOnUse"
       x1="930.41901"
       y1="510.22919"
       x2="942.73694"
       y2="494.70441"
       gradientTransform="matrix(0.17128335,0,0,0.17128335,33.2738,78.742736)">
      <stop
         offset="0"
         stop-color="#ABB921"
         id="stop43" />
      <stop
         offset="1"
         stop-color="#D5DA2F"
         id="stop44" />
    </linearGradient>
  </defs>
  <path
     fill="url(#gradient_5)"
     d="m 191.63895,163.53997 c 0.0969,-0.11183 0.23723,-0.20005 0.36432,-0.27593 l 0.093,-0.0529 c 0.2559,-0.15279 0.42393,-0.2631 0.72727,-0.29067 l 0.0858,-0.007 c 0.48149,-0.0729 0.9263,-0.0799 1.38346,0.11219 l 0.15089,0.0664 c 0.62981,0.3763 1.11557,0.71459 1.31032,1.47047 0.0726,0.28159 -0.0221,0.77385 0.12264,0.99498 l -0.26823,0.75381 c -0.10547,0.0133 -0.19475,0.031 -0.29237,0.0748 l -0.30797,0.12264 c -0.68548,0.19646 -1.7255,0.18414 -2.35309,-0.17368 -0.61542,-0.35096 -0.80074,-0.82405 -0.99551,-1.46037 -0.0416,-0.45218 0.0556,-0.89752 -0.0207,-1.3348 z"
     id="path44"
     style="fill:url(#gradient_5);stroke-width:0.171284" />
  <path
     fill="#fefefe"
     d="m 194.29281,163.02561 0.1509,0.0665 c 0.13651,0.1944 0.4229,0.4813 0.50203,0.69283 0.0443,0.11818 0.0133,0.41845 0.0177,0.55667 -0.0829,0.173 -0.17419,0.39755 -0.34033,0.50648 -0.31978,0.20966 -0.57911,0.16494 -0.93624,0.111 -0.21512,-0.12897 -0.42032,-0.26892 -0.53029,-0.50392 -0.11922,-0.25469 -0.13395,-0.67023 -0.0301,-0.93247 0.0667,-0.16802 0.149,-0.24528 0.31703,-0.30779 z"
     id="path45"
     style="stroke-width:0.171284" />
  <defs
     id="defs46">
    <linearGradient
       id="gradient_6"
       gradientUnits="userSpaceOnUse"
       x1="468.35638"
       y1="119.73333"
       x2="533.55109"
       y2="23.05039"
       gradientTransform="matrix(0.17128335,0,0,0.17128335,33.2738,78.742736)">
      <stop
         offset="0"
         stop-color="#906904"
         id="stop45" />
      <stop
         offset="1"
         stop-color="#CF991F"
         id="stop46" />
    </linearGradient>
  </defs>
  <path
     fill="url(#gradient_6)"
     d="m 118.51449,86.460471 5.99817,0.09816 c 1.20344,0.181166 6.80544,0.33652 7.48046,0.908264 l 0.0248,0.09561 c -0.39344,0.375521 -0.71923,0.957421 -1.01861,1.416015 l -1.90519,3.012909 -7.96604,12.746291 -10.98458,-17.486729 4.16492,-0.486941 z"
     id="path46"
     style="fill:url(#gradient_6);stroke-width:0.171284" />
  <defs
     id="defs48">
    <linearGradient
       id="gradient_7"
       gradientUnits="userSpaceOnUse"
       x1="501.92584"
       y1="101.44444"
       x2="518.48816"
       y2="84.3283"
       gradientTransform="matrix(0.17128335,0,0,0.17128335,33.2738,78.742736)">
      <stop
         offset="0"
         stop-color="#644E03"
         id="stop47" />
      <stop
         offset="1"
         stop-color="#B39817"
         id="stop48" />
    </linearGradient>
  </defs>
  <path
     fill="url(#gradient_7)"
     d="m 120.94552,91.26478 c 0.47754,-0.0043 0.9549,-0.04262 1.40761,0.130432 l 0.10346,0.03798 c 0.68496,0.260882 1.15204,0.713738 1.49666,1.354783 0.0683,0.126647 0.12402,0.256617 0.22678,0.358291 0.0896,0.492251 0.10175,0.871645 0.0173,1.354543 l -0.007,0.152972 c -0.009,0.182624 -0.0357,0.166968 -0.0931,0.318057 l -0.0377,0.136702 c -0.0603,0.210695 -0.16889,0.394225 -0.23089,0.5998 l -0.15963,0.205556 0.084,0.256925 c -0.40663,0.414849 -0.7312,0.663552 -1.24096,0.941202 -0.1639,0.08925 -0.2432,0.164603 -0.43625,0.171969 l -0.12042,-6.86e-4 c -0.38144,0.07194 -0.82027,0.162034 -1.21644,0.04196 -0.16631,-0.05036 -0.33384,-0.07725 -0.49861,-0.132572 l -0.12589,-0.04386 c -0.1605,-0.0454 -0.20879,-0.05019 -0.35867,-0.147647 l -0.15534,-0.102772 c -0.45749,-0.231745 -0.73428,-0.549989 -1.06126,-0.941714 -0.29102,-0.348546 -0.38043,-0.743029 -0.52259,-1.156163 -0.10944,-0.31809 -0.1396,-0.885706 -0.0434,-1.213714 l 0.0434,-0.113738 c 0.14936,-0.470687 0.32424,-0.709867 0.55616,-1.112914 0.15021,-0.260607 0.3614,-0.534523 0.64899,-0.672919 l 0.12145,-0.0546 c 0.34306,-0.192504 0.0929,0.01392 0.29973,-0.0018 0.1271,-0.0096 0.55651,-0.202148 0.68514,-0.256924 0.22848,-0.09724 0.36603,-0.102758 0.61696,-0.109249 z"
     id="path48"
     style="fill:url(#gradient_7);stroke-width:0.171284" />
  <path
     fill="#a7911d"
     d="m 123.82907,95.708333 c -0.0157,-0.139134 -0.005,-0.07517 -0.0434,-0.231799 l -0.0307,-0.119314 c 0.0663,-0.129799 0.12487,-0.246837 0.17129,-0.385389 l -0.0999,-0.0052 c -0.23227,0.15919 -0.43215,0.289022 -0.70981,0.352003 l -0.0964,0.02023 c -0.47223,0.103202 -0.909,0.07021 -1.36615,-0.09931 -0.57585,-0.213608 -1.28618,-0.759795 -1.54258,-1.332637 l -0.039,-0.09113 c -0.0607,-0.124301 -0.11939,-0.216263 -0.15279,-0.35084 l -0.0185,-0.07738 c -0.0908,-0.179282 -0.10603,-0.267972 -0.0857,-0.471029 0.0573,-0.569825 0.40047,-0.831666 0.80487,-1.185279 -0.048,0.550571 -0.1992,1.313484 0.16837,1.784771 0.44723,0.57344 1.08834,0.808165 1.78787,0.861863 0.36602,0.02809 0.81411,0.048 1.11692,-0.199203 0.14971,-0.122157 0.26396,-0.336863 0.37443,-0.495882 0.0927,-0.133567 0.0931,-0.37653 0.11203,-0.536442 0.0896,0.492252 0.10173,0.871644 0.0173,1.354543 l -0.007,0.152973 c -0.009,0.182623 -0.0357,0.166966 -0.0932,0.318057 l -0.0377,0.1367 c -0.0603,0.210696 -0.16889,0.394226 -0.23089,0.599801 z"
     id="path49"
     style="stroke-width:0.171284" />
  <path
     fill="#cbceb7"
     d="m 120.94552,91.26478 c 0.47754,-0.0043 0.9549,-0.04262 1.40761,0.130432 l 0.10346,0.03798 c 0.68496,0.260882 1.15204,0.713738 1.49666,1.354783 0.0683,0.126647 0.12402,0.256617 0.22678,0.358291 -0.0187,0.15991 -0.0193,0.402875 -0.11201,0.536442 -0.11048,0.15902 -0.22473,0.373723 -0.37443,0.495881 -0.30282,0.247197 -0.7509,0.227294 -1.11693,0.199203 -0.69953,-0.0537 -1.34064,-0.288423 -1.78787,-0.861862 -0.36757,-0.471286 -0.21632,-1.2342 -0.16836,-1.784773 0.0622,-0.02311 0.27252,-0.388488 0.32509,-0.466369 z"
     id="path50"
     style="stroke-width:0.171284" />
  <path
     fill="#301506"
     d="m 152.02848,227.54376 c 0.73567,0.18362 1.72825,-0.0873 2.49954,-0.14215 5.17361,-0.36775 10.06633,-1.03473 14.92665,-2.94796 l 3.44743,-1.51775 c 0.99636,-0.46708 2.0506,-1.11027 3.15348,-1.23547 -1.51586,1.78701 -3.40339,3.35887 -5.21557,4.83517 l -5.01021,3.83571 c -3.1391,2.1741 -6.47776,4.04863 -9.88133,5.77191 -3.7148,1.88103 -7.58528,3.54317 -11.575,4.75158 -2.60932,0.79048 -5.23852,1.48605 -7.91036,2.03106 -1.53813,0.3138 -3.17542,0.48063 -4.68187,0.88743 l -6.00536,-8.84695 c 3.01989,-0.21 6.05864,-0.7612 9.00727,-1.43399 3.94311,-0.89976 7.75024,-2.03126 11.52019,-3.50361 z"
     id="path51"
     style="stroke-width:0.171284" />
  <defs
     id="defs52">
    <linearGradient
       id="gradient_8"
       gradientUnits="userSpaceOnUse"
       x1="499.41495"
       y1="586.29327"
       x2="587.9444"
       y2="374.02667"
       gradientTransform="matrix(0.17128335,0,0,0.17128335,33.2738,78.742736)">
      <stop
         offset="0"
         stop-color="#929482"
         id="stop51" />
      <stop
         offset="1"
         stop-color="#C2C7B9"
         id="stop52" />
    </linearGradient>
  </defs>
  <path
     fill="url(#gradient_8)"
     d="m 113.0384,139.87102 c 1.15855,-0.37118 2.48394,-0.49022 3.69321,-0.587 5.32331,-0.42579 10.79564,0.47738 15.56983,2.92845 6.6004,3.38849 11.53455,9.39471 13.79121,16.4461 2.257,7.0526 1.18957,15.10309 -2.16724,21.6295 -1.37797,2.67903 -3.31673,4.90109 -5.17927,7.2386 -1.2454,-0.56506 -2.4533,-1.28052 -3.52861,-2.12631 -1.1726,-0.9222 -2.22874,-1.97645 -3.43629,-2.85718 3.65999,-2.7145 6.23626,-6.16739 7.60173,-10.53924 1.52049,-4.86871 0.71545,-10.36298 -1.63798,-14.82886 -2.34144,-4.44325 -6.25715,-7.70021 -10.97515,-9.37244 -1.25293,-0.44413 -2.55554,-0.6687 -3.8162,-1.06932 l -0.10448,-0.0341 -9.60061,-4.21408 -2.53893,-0.94497 c -0.48232,-0.18191 -1.04705,-0.31894 -1.47869,-0.60206 z"
     id="path52"
     style="fill:url(#gradient_8);stroke-width:0.171284" />
  <path
     fill="#49190a"
     d="m 152.02848,227.54376 5.85173,-3.28539 c 2.42947,-1.47561 4.68596,-3.21344 6.89604,-4.99546 3.25934,-2.62817 6.24412,-5.7118 8.91323,-8.93191 5.98498,-7.22063 10.53496,-15.48761 13.26008,-24.47502 1.5465,-5.10066 2.42537,-10.30835 3.00328,-15.59536 0.75792,0.34377 1.4751,0.93983 2.17992,1.39322 l 7.05499,4.73153 c 0.007,0.0824 0.0117,0.10311 0.005,0.19697 -0.0482,0.62159 -0.2297,1.2867 -0.34223,1.90468 l -0.83911,4.10429 c -2.85548,12.30363 -8.53883,23.91253 -16.70544,33.56776 l -3.30663,3.6283 c -0.62981,0.65087 -1.24711,1.33223 -1.94321,1.91306 -1.10288,0.1252 -2.15714,0.76839 -3.15348,1.23547 l -3.44742,1.51775 c -4.86035,1.91323 -9.75305,2.58021 -14.92666,2.94796 -0.7713,0.0548 -1.76388,0.32577 -2.49954,0.14215 z"
     id="path53"
     style="stroke-width:0.171284" />
  <path
     fill="#545448"
     d="m 139.22163,187.65976 -0.13635,0.15621 c -0.92579,0.94703 -2.15355,1.81441 -3.25746,2.53567 -4.39394,2.87055 -9.57954,4.52839 -14.84239,4.6327 -7.4409,0.14731 -14.54966,-2.81469 -19.88702,-7.96586 -5.593606,-5.39852 -8.768685,-12.56313 -8.900745,-20.34402 -0.08958,-5.28477 1.014683,-10.86724 3.898237,-15.37987 1.264757,-1.97935 2.833884,-3.72936 4.458848,-5.41495 0.17985,0.37082 0.58785,0.69233 0.88143,0.98608 l 1.90432,1.91322 3.23246,3.48118 c -3.79718,3.93506 -5.81764,8.88943 -5.72669,14.36827 0.0884,5.33085 2.54647,10.44435 6.35513,14.10964 3.85781,3.71238 8.84987,5.51308 14.16101,5.40055 3.61341,-0.0767 7.49793,-1.49959 10.41883,-3.5954 1.20755,0.88073 2.26369,1.93498 3.43629,2.85718 1.07531,0.84579 2.28321,1.56125 3.52861,2.12631 z"
     id="path54"
     style="stroke-width:0.171284" />
  <path
     fill="#49190a"
     d="m 110.09249,87.792131 c 0.51061,0.600143 0.89872,1.30559 1.33345,1.960954 l 4.33723,7.019105 c -14.8143,1.163357 -29.06627,7.10775 -40.310849,16.83064 -2.851354,2.46563 -5.410841,5.16796 -7.856424,8.03097 -2.516667,2.94607 -4.712004,6.24994 -6.629178,9.61293 -4.083396,7.1629 -6.891586,14.8948 -8.23599,23.03043 -0.334002,2.02045 -0.665607,4.08595 -0.706885,6.13776 l -6.504657,-4.65342 c -0.746778,-0.54126 -1.710674,-1.09245 -2.342522,-1.76217 1.94153,-12.84558 7.254928,-24.9488 14.800816,-35.4697 9.98873,-13.92705 25.375626,-24.139338 41.850001,-28.699741 3.377198,-0.934866 6.814338,-1.464696 10.265008,-2.037758 z"
     id="path55"
     style="stroke-width:0.171284" />
  <path
     fill="#301506"
     d="m 52.076941,169.94255 c 0.169229,0.96844 0.176594,2.02114 0.293922,3.00602 l 0.921333,5.63831 c 2.243298,11.26359 7.21377,22.33707 14.602248,31.17597 3.843255,4.59793 8.201217,8.60715 13.046309,12.12617 2.901882,2.10764 5.861144,4.01522 9.047357,5.67017 8.264421,4.2927 17.1828,6.58755 26.42748,7.40921 l -6.12509,8.99991 c -0.74372,0.0168 -1.61555,-0.23724 -2.35601,-0.36072 -3.9371,-0.75708 -7.7987,-1.67089 -11.602901,-2.94866 -7.550341,-2.53585 -14.952694,-6.36814 -21.348927,-11.12091 -11.955748,-8.88378 -21.566971,-20.89674 -27.089968,-34.77207 -2.35655,-5.92023 -3.94868,-12.15134 -4.877259,-18.44704 z"
     id="path56"
     style="stroke-width:0.171284" />
  <path
     fill="#7a1d08"
     d="m 147.08507,227.76249 c -1.94766,-0.27182 -3.98644,-0.80982 -5.86784,-1.373 -6.77681,-2.02851 -13.06154,-5.52664 -18.5027,-10.02864 l 4.56025,-21.85491 c 1.29165,-0.28175 2.5105,-0.68752 3.73945,-1.17036 0.24306,-0.0956 1.01897,-0.51848 1.21287,-0.49946 0.27645,0.0272 0.83706,0.38486 1.09518,0.5164 l 3.39022,1.77296 9.90172,5.10443 5.95843,3.19391 18.35077,9.39659 c -0.42836,0.70689 -1.29044,1.43331 -1.87898,2.02099 -3.03957,3.03496 -6.49009,5.90295 -10.08035,8.26064 -1.7555,1.15291 -3.60484,2.18987 -5.44939,3.1929 l -2.76931,1.38225 c -0.34787,0.15262 -0.73429,0.36382 -1.10015,0.45545 -0.0742,0.0187 -0.15553,0.0371 -0.23105,0.0252 z"
     id="path57"
     style="stroke-width:0.171284" />
  <path
     fill="#49190a"
     d="m 132.19319,87.825069 c 1.11025,-0.257542 2.73522,0.293408 3.87202,0.500507 5.50488,1.002794 10.71823,2.636855 15.90794,4.717486 3.87067,1.551758 7.78211,3.388275 11.31636,5.611361 0.57037,0.358839 1.32572,0.772316 1.62872,1.391677 l -0.0136,0.0836 c -0.0165,0.10792 -0.0142,0.0642 -0.0106,0.15638 3.167,1.74127 5.97949,3.96298 8.6784,6.35153 2.7193,2.40653 5.29676,4.92131 7.65345,7.68925 3.53288,4.14934 6.64939,8.91376 9.17685,13.73658 0.29273,0.24237 0.45015,0.42307 0.61902,0.76187 0.54177,1.08714 1.26509,2.09686 1.81235,3.19752 1.39322,2.80169 2.47727,5.60662 3.51165,8.55406 0.81445,2.32106 1.59037,4.67296 2.11774,7.0788 0.25728,1.17294 0.46418,2.36645 0.60635,3.55858 0.0741,0.61954 0.0609,1.28377 0.18241,1.8908 -1.1947,0.62895 -2.29897,1.71249 -3.37736,2.54459 l -6.05007,4.47871 c -0.14817,-0.86293 -0.19201,-1.75977 -0.29684,-2.63159 l -0.70413,-4.67656 c -0.5416,-2.95053 -1.38261,-5.80462 -2.32758,-8.64724 -1.3641,-4.10309 -3.09148,-8.09364 -5.20512,-11.86822 -8.78758,-15.69315 -23.6507,-27.94144 -40.96538,-33.025819 -3.03069,-0.889989 -6.09922,-1.555425 -9.21608,-2.065676 l -2.8594,-0.387787 c -0.54108,-0.06493 -1.0933,-0.08512 -1.61983,-0.23363 z"
     id="path58"
     style="stroke-width:0.171284" />
  <path
     fill="#9a785f"
     d="m 190.40297,128.06342 c 0.67211,1.78204 1.65922,3.48461 2.37724,5.26012 1.68149,4.15773 2.95327,8.56108 3.80403,12.96307 0.41999,2.17273 0.78482,4.35899 0.78757,6.57608 -0.32064,-0.53441 -0.49416,-1.19574 -0.67983,-1.78631 l -0.74216,-2.37315 -1.40744,-4.23051 c -1.31118,-3.58599 -2.69687,-7.1718 -4.39599,-10.59456 -1.74504,-3.51525 -3.84754,-6.89193 -6.0708,-10.12387 -3.51217,-5.10596 -7.54077,-9.90378 -12.06793,-14.13996 -4.44465,-4.1591 -9.45742,-7.77369 -14.6932,-10.863476 l -5.20206,-2.950799 c -1.60406,-0.807584 -3.2727,-1.48047 -4.93518,-2.156337 -4.44463,-1.807004 -9.01927,-3.276239 -13.74549,-4.148208 l 0.0427,-0.06944 c 2.08588,0.16803 4.2223,0.705379 6.25184,1.208799 5.99268,1.486482 11.95661,3.422822 17.6033,5.930582 l 7.56456,3.720619 c 3.16703,1.74126 5.97949,3.96298 8.6784,6.35153 2.7193,2.40652 5.29677,4.92131 7.65346,7.68925 3.53289,4.14933 6.64939,8.91375 9.17685,13.73658 z"
     id="path59"
     style="stroke-width:0.171284" />
  <path
     d="m 109.23093,140.93812 c 0.43164,0.28313 0.99637,0.42015 1.4787,0.60206 l 2.53893,0.94497 9.6006,4.21408 0.10448,0.0341 c 1.26066,0.40063 2.56328,0.62518 3.8162,1.06931 4.71801,1.67224 8.63371,4.9292 10.97516,9.37245 2.35343,4.46588 3.15846,9.96013 1.63797,14.82886 -1.36547,4.37183 -3.94174,7.82473 -7.60172,10.53923 -2.9209,2.09582 -6.80542,3.51868 -10.41883,3.59541 -5.31114,0.11253 -10.3032,-1.68817 -14.16101,-5.40056 -3.80866,-3.66528 -6.26674,-8.77878 -6.35513,-14.10964 -0.0909,-5.47883 1.92951,-10.4332 5.72669,-14.36827 l -3.23246,-3.48116 -1.90433,-1.91323 c -0.29358,-0.29376 -0.70157,-0.61526 -0.88142,-0.98608 l 0.0761,-0.0456 0.10465,0.0906 4.50715,-3.04252 c 1.24848,-0.76701 2.63588,-1.38464 3.98833,-1.94406 z"
     id="path60"
     style="stroke-width:0.171284" />
  <path
     fill="#66675d"
     d="m 109.23093,140.93812 c 0.43164,0.28313 0.99637,0.42015 1.4787,0.60206 l 2.53893,0.94497 9.6006,4.21408 -0.0961,0.003 c -1.25618,0.0218 -2.47366,-0.1612 -3.74339,-0.0787 -4.59759,0.29855 -9.1717,2.37758 -12.43671,5.63711 l -3.23246,-3.48117 -1.90433,-1.91323 c -0.29358,-0.29376 -0.70157,-0.61525 -0.88142,-0.98608 l 0.0761,-0.0456 0.10465,0.0906 4.50715,-3.0425 c 1.24848,-0.76701 2.63588,-1.38465 3.98833,-1.94407 z"
     id="path61"
     style="stroke-width:0.171284" />
  <path
     fill="#312a1d"
     d="m 106.88984,152.52954 1.62428,1.7262 c -2.81366,4.43246 -4.43127,10.08207 -3.27407,15.30999 1.02289,4.62121 3.91826,8.70085 7.92013,11.21683 2.08999,1.3139 4.41105,2.02919 6.84055,2.37346 1.57134,0.22268 3.28041,0.0714 4.83823,-0.18566 1.6719,-0.27593 3.46165,-0.71871 4.91566,-1.61759 0.25898,3.3e-4 1.33756,0.88142 1.60339,1.07496 -0.89667,0.54006 -1.77331,1.08081 -2.72495,1.52185 -2.97657,1.37934 -6.21896,1.9975 -9.49185,1.75036 -4.99821,-0.37735 -9.77051,-2.76109 -13.00827,-6.61429 -3.20403,-3.81294 -4.93348,-8.5955 -4.85605,-13.58756 0.0743,-4.79183 2.18866,-9.63246 5.61295,-12.96855 z"
     id="path62"
     style="stroke-width:0.171284" />
  <defs
     id="defs63">
    <linearGradient
       id="gradient_9"
       gradientUnits="userSpaceOnUse"
       x1="443.4292"
       y1="576.40015"
       x2="588.37781"
       y2="432.36746"
       gradientTransform="matrix(0.17128335,0,0,0.17128335,33.2738,78.742736)">
      <stop
         offset="0"
         stop-color="#292B22"
         id="stop62" />
      <stop
         offset="1"
         stop-color="#966F4E"
         id="stop63" />
    </linearGradient>
  </defs>
  <path
     fill="url(#gradient_9)"
     d="m 106.88984,152.52954 c 3.97994,-3.69577 8.88155,-5.74655 14.36177,-5.52371 1.27315,0.0519 2.50604,0.32596 3.73019,0.66064 3.51595,0.96141 6.94367,2.76897 9.42298,5.48277 2.24451,2.45689 4.15073,5.73594 4.77642,9.02904 1.23649,4.49995 0.36826,9.70509 -1.91255,13.72939 -0.73943,1.30466 -1.64175,2.52848 -2.64461,3.64267 -0.84444,1.04706 -2.10937,2.19107 -3.26603,2.87739 -0.26583,-0.19354 -1.34441,-1.07463 -1.60339,-1.07496 -1.45401,0.89888 -3.24376,1.34166 -4.91566,1.61759 -1.55782,0.25709 -3.26689,0.40834 -4.83823,0.18566 -2.4295,-0.34427 -4.75056,-1.05956 -6.84055,-2.37346 -4.00187,-2.51598 -6.89724,-6.59562 -7.92013,-11.21683 -1.1572,-5.22792 0.46041,-10.87753 3.27407,-15.30999 z"
     id="path63"
     style="fill:url(#gradient_9);stroke-width:0.171284" />
  <path
     d="m 111.39613,157.25234 c 2.57817,-2.55417 6.06515,-4.02533 9.71245,-4.00598 3.24102,0.0171 6.45893,1.41325 8.73734,3.72302 1.64174,1.66436 2.60282,3.73688 3.23091,5.95758 0.7122,3.67385 0.42359,7.31584 -1.72293,10.49607 -0.71529,1.05972 -1.58078,1.92625 -2.57679,2.7234 l -1.57958,1.00098 c -2.81828,1.61434 -6.18607,2.11484 -9.33887,1.24627 -1.99357,-0.54914 -3.69613,-1.44187 -5.26526,-2.79724 -2.74601,-2.3721 -4.21459,-5.61981 -4.45336,-9.21539 -0.2172,-3.26929 1.11539,-6.68809 3.25609,-9.12871 z"
     id="path64"
     style="stroke-width:0.171284" />
  <path
     fill="#985d24"
     d="m 119.4891,153.56118 c 3.41555,-0.29581 6.58481,0.46556 9.26145,2.69257 1.92129,1.59859 3.29808,3.8275 3.91469,6.2438 l 0.0396,0.41485 0.1951,0.74405 c 0.63221,2.38923 0.16615,5.5232 -0.79253,7.76924 -1.25226,2.93357 -3.69475,5.1063 -6.6398,6.28113 -2.89657,1.15548 -6.41781,1.10872 -9.27944,-0.12795 -3.05107,-1.31853 -5.60817,-3.89224 -6.82992,-6.99145 -1.24232,-3.15126 -1.26647,-6.66274 0.0995,-9.7825 1.25755,-2.87224 3.3592,-5.06142 6.30494,-6.2162 1.21404,-0.53716 2.42691,-0.79614 3.72643,-1.02754 z"
     id="path65"
     style="stroke-width:0.171284" />
  <path
     fill="#caad1d"
     d="m 115.76266,154.58872 c 1.21406,-0.53716 2.42691,-0.79614 3.72644,-1.02754 l -0.0735,0.15261 c -0.30728,0.61234 -0.79817,1.15103 -1.1327,1.76424 -1.15153,2.11019 -1.67686,4.73905 -1.18031,7.10789 l 0.0308,0.15262 c 0.43129,2.071 1.67208,4.01214 3.45614,5.17327 1.59484,1.03816 3.43047,1.29748 5.26887,0.88006 1.45573,-0.33058 2.83524,-0.89787 4.04879,-1.77364 1.00303,-0.72401 1.72841,-1.80618 2.26453,-2.90103 0.20983,-0.42854 0.39995,-0.7468 0.46606,-1.2329 l 0.0274,-0.38675 0.0396,0.41485 c -0.006,2.01035 -0.44636,4.17914 -1.28463,6.01376 -0.84493,1.84917 -2.22393,3.28109 -4.15482,3.97993 -2.30547,0.83432 -5.08077,0.71905 -7.291,-0.34907 -2.84623,-1.37541 -5.01262,-3.71925 -6.04888,-6.71173 -1.08097,-3.12079 -0.71648,-6.19961 0.6651,-9.14619 0.31463,-0.67092 1.00218,-1.34338 1.1589,-2.03982 z"
     id="path66"
     style="stroke-width:0.171284" />
  <path
     fill="#f8f254"
     d="m 119.4891,153.56118 c 3.41555,-0.29581 6.58481,0.46556 9.26145,2.69257 1.92129,1.59859 3.29808,3.8275 3.91469,6.2438 l -0.0274,0.38675 c -0.0661,0.4861 -0.25624,0.80436 -0.46606,1.2329 -0.53611,1.09485 -1.2615,2.17702 -2.26453,2.90103 -1.21355,0.87577 -2.59307,1.44306 -4.0488,1.77364 -1.83838,0.41742 -3.67402,0.1581 -5.26885,-0.88006 -1.78408,-1.16113 -3.02486,-3.10227 -3.45616,-5.17327 l -0.0308,-0.15262 c -0.49654,-2.36884 0.0289,-4.9977 1.18031,-7.10789 0.33452,-0.61321 0.82542,-1.1519 1.1327,-1.76424 z"
     id="path67"
     style="stroke-width:0.171284" />
  <path
     fill="#fefefe"
     d="m 125.52495,156.35054 c 0.67554,-0.0437 1.33652,0.0879 1.93601,0.40662 0.71289,0.3794 1.29372,1.04209 1.51774,1.82297 0.30369,1.05836 0.278,2.14412 -0.31138,3.10657 -0.53322,0.87063 -1.40984,1.19435 -2.3483,1.43209 -0.8643,0.0253 -1.59243,-0.0383 -2.34161,-0.52824 -0.75845,-0.49603 -1.27522,-1.37129 -1.45797,-2.24535 -0.17659,-0.84392 -6.8e-4,-1.80207 0.49364,-2.51049 0.59761,-0.85694 1.50815,-1.29936 2.51187,-1.48417 z"
     id="path68"
     style="stroke-width:0.171284" />
  <path
     fill="#49190a"
     d="m 149.41419,228.15782 c -0.72316,0.58459 -1.79437,0.89632 -2.65251,1.25482 -3.51472,1.4679 -7.22747,2.58586 -10.93026,3.46814 -3.35699,0.79972 -6.75508,1.43124 -10.19513,1.73956 l -4.54569,-6.44094 -4.427,6.36369 c -2.3798,-0.008 -4.95505,-0.47326 -7.29186,-0.88639 C 97.115211,231.49029 86.018447,225.98491 76.554872,217.95703 62.283886,205.85108 54.005763,188.28477 52.480142,169.75961 l 6.561522,-4.55887 -6.644079,-4.53335 c 0.481305,-6.21759 1.608521,-12.10084 3.729693,-17.97277 1.911351,-5.29127 4.392048,-10.39262 7.50478,-15.08714 5.462225,-8.23771 12.981222,-15.42252 21.41213,-20.57182 3.259864,-1.99117 6.703516,-3.45016 10.148708,-5.0657 -0.370313,1.0724 -0.8744,2.09565 -1.305006,3.14561 l -2.229595,5.70391 c -2.064308,5.547 -3.455129,11.54912 -4.129985,17.42945 l -10.673692,-6.00536 5.385147,8.48538 3.193065,5.13677 1.844037,3.00021 c 0.215987,0.34685 0.600347,0.79304 0.729838,1.16182 0.09164,0.26085 0.03529,0.70928 0.03973,0.99532 l 0.344622,5.83717 1.15171,7.88948 0.987791,5.05012 -15.934661,4.32318 -5.330167,1.48709 c -0.740285,0.21701 -1.525449,0.37323 -2.234389,0.68033 l 0.007,0.10654 c 0.249731,0.008 0.424783,-0.0199 0.663895,-0.0937 l 0.07725,-0.0245 0.732235,0.14594 -0.681535,-0.0105 -0.03494,0.0795 c 0.544338,0.17591 1.121392,0.22163 1.68286,0.32561 l 3.491953,0.66184 7.877663,1.44786 11.341526,1.99664 c 0.373399,2.33922 1.039006,4.73479 1.998191,6.90477 0.388986,0.88006 0.879712,1.72636 1.244374,2.61155 l -20.325506,30.10081 29.632203,-16.00763 4.46209,6.71001 c 2.27789,3.12679 4.85332,6.07354 7.71133,8.68048 0.69423,0.63323 1.38775,1.33104 2.12871,1.90466 0.85317,2.906 1.40676,5.92093 2.39576,8.78701 0.10877,0.31517 0.0921,0.76616 0.24819,1.04278 0.0371,-0.5911 0.0928,-1.11883 0.23775,-1.69432 l 0.70566,-3.33747 c 0.68908,0.23704 1.50885,1.08558 2.10577,1.54566 l 2.26009,1.61348 c 4.18548,2.81059 8.8401,5.13302 13.67457,6.59408 1.5342,0.46366 3.12096,0.93571 4.71252,1.15683 l 0.42067,0.0859 1.09535,0.21752 c 0.13549,0.0271 0.0807,0.0245 0.21583,-0.004 l -0.0278,-0.0763 z"
     id="path69"
     style="stroke-width:0.171284" />
  <path
     fill="#985d24"
     d="m 126.30805,97.016098 c 1.2711,0.24425 2.56943,0.333316 3.85234,0.499634 l 5.14192,0.898039 c 10.85765,2.341789 20.99078,7.529959 29.50596,14.630499 11.80005,9.83989 20.06293,23.73269 23.31234,38.72785 0.62245,2.87192 0.99789,5.80737 1.26408,8.73083 l -6.46869,4.92149 6.55929,4.50988 c -0.89581,10.5711 -3.81996,20.83371 -9.08503,30.07735 -2.56891,4.50972 -5.74519,8.74848 -9.23064,12.58608 -1.44751,-0.92648 -3.17799,-1.57699 -4.7156,-2.36233 -0.34306,-0.17506 -0.89409,-0.36228 -1.16455,-0.63204 -0.476,-0.47498 -0.8612,-1.27778 -1.23358,-1.85107 l -3.43749,-5.32621 -8.07857,-12.10032 -6.74634,-10.07746 c 1.1846,-2.45483 2.10181,-4.81032 2.72528,-7.46967 l 25.55651,-6.93577 -15.65547,-3.79564 -9.77018,-2.059 c -0.72675,-2.76826 -1.60971,-5.25496 -2.88389,-7.81736 0.58715,-0.67845 1.0582,-1.49223 1.56672,-2.23422 l 4.08273,-6.2474 10.89395,-17.01546 3.09646,-4.83926 c 0.3722,-0.5839 0.80452,-1.09124 1.10426,-1.72191 l -33.63182,20.22377 c -1.8377,-0.86157 -3.78178,-1.46653 -5.73783,-1.99563 l -5.96734,-26.97302 -6.72594,26.81904 c -0.9167,0.1038 -1.86563,0.40286 -2.74207,0.68718 -1.25227,0.40612 -2.47934,0.8518 -3.6701,1.41584 L 87.674072,128.38613 c 0.763752,-5.35141 1.883774,-10.59062 3.579823,-15.72929 l 2.74687,-7.28914 1.126873,-2.73642 c 0.08633,-0.19389 0.207939,-0.58031 0.356956,-0.72761 0.11887,-0.11733 0.42735,-0.20092 0.582534,-0.26206 l 1.439464,-0.54143 c 5.878968,-2.155432 12.239908,-3.559955 18.491928,-3.981997 l 5.11041,8.155997 z"
     id="path70"
     style="stroke-width:0.171284" />
</svg>
