<?xml version="1.0" encoding="UTF-8" standalone="no"?>
<svg
   width="63mm"
   height="88mm"
   version="1.1"
   id="svg35"
   sodipodi:docname="item-spearlong.svg"
   inkscape:version="1.3.2 (091e20e, 2023-11-25, custom)"
   xmlns:inkscape="http://www.inkscape.org/namespaces/inkscape"
   xmlns:sodipodi="http://sodipodi.sourceforge.net/DTD/sodipodi-0.dtd"
   xmlns="http://www.w3.org/2000/svg"
   xmlns:svg="http://www.w3.org/2000/svg">
  <defs
     id="defs35" />
  <sodipodi:namedview
     id="namedview35"
     pagecolor="#ffffff"
     bordercolor="#000000"
     borderopacity="0.25"
     inkscape:showpageshadow="2"
     inkscape:pageopacity="0.0"
     inkscape:pagecheckerboard="0"
     inkscape:deskcolor="#d1d1d1"
     inkscape:document-units="mm"
     inkscape:zoom="1.6492462"
     inkscape:cx="88.828459"
     inkscape:cy="148.24954"
     inkscape:window-width="1920"
     inkscape:window-height="1017"
     inkscape:window-x="-8"
     inkscape:window-y="-8"
     inkscape:window-maximized="1"
     inkscape:current-layer="svg35" />
  <path
     fill="#7c561f"
     d="m 78.744198,113.07037 -0.309927,0.11304 c -0.580174,0.51707 -1.2748,0.99469 -1.981205,1.31896 l -0.04191,0.0808 c -0.295272,0.55001 -0.965105,0.9494 -0.796321,1.6168 0.196752,0.77723 1.346972,2.16954 1.960403,2.66764 0.599613,0.13402 0.824955,0.002 1.336083,-0.32615 l 0.40059,-0.28494 1.57983,-1.24987 0.15983,-0.18416 c -0.773379,-1.13777 -1.946542,-2.41772 -2.307443,-3.75211 z"
     id="path2"
     style="stroke-width:0.181945" />
  <path
     fill="#7c561f"
     d="m 70.047221,101.0799 -2.484636,1.84314 c -0.573095,0.44623 -0.811565,0.51392 -0.997589,1.23283 0.09259,0.89488 1.247715,2.29558 1.946838,2.84052 0.177032,0.13806 0.427764,0.12811 0.648081,0.15989 0.523307,-0.26603 0.882491,-0.49732 1.278825,-0.9359 0.61772,-0.56229 1.360943,-1.02706 2.041669,-1.51256 l 0.29904,-0.33677 c -0.745028,-0.23124 -2.126651,-2.58588 -2.732235,-3.29112 z"
     id="path3"
     style="stroke-width:0.181945" />
  <path
     fill="#c29b27"
     d="m 204.01952,291.35121 -5.69814,-0.42108 c 1.38632,1.76142 2.86829,4.07239 4.55051,5.52241 1.25955,-0.45365 2.41427,-0.94702 3.58136,-1.60433 l -1.48467,-1.84702 c -0.3572,-0.46421 -0.77405,-0.85073 -0.69657,-1.44282 z"
     id="path4"
     style="stroke-width:0.181945" />
  <path
     fill="#9d6f19"
     d="m 81.523279,110.64583 c -0.38912,0.98197 -1.90661,1.76549 -2.779081,2.42454 0.36089,1.33439 1.534039,2.61434 2.307428,3.7521 0.831494,-0.65846 1.978813,-1.79674 3.003698,-2.0421 0.346124,-0.29028 1.012069,-0.91125 1.059692,-1.36863 0.08153,-0.78393 -0.944353,-2.10122 -1.455499,-2.67047 -0.347679,-0.38713 -0.558163,-0.43701 -1.04709,-0.47518 -0.261353,0.14718 -0.633851,0.41276 -0.941545,0.39533 z"
     id="path5"
     style="stroke-width:0.181945" />
  <path
     fill="#492d16"
     d="m 72.480406,104.70781 c -0.680721,0.48551 -1.423949,0.95027 -2.041668,1.51257 l 6.014338,8.28195 c 0.706408,-0.32427 1.401021,-0.80192 1.981203,-1.31896 -1.769259,-2.8168 -3.71356,-6.01355 -5.953873,-8.47556 z"
     id="path6"
     style="stroke-width:0.181945" />
  <path
     fill="#623e24"
     d="m 199.19364,285.06656 -5.58488,-0.65078 1.59471,2.19579 3.11791,4.31856 5.69814,0.42108 c -0.77791,-1.40412 -1.97863,-2.5659 -2.84811,-3.92813 l -0.39609,-0.33583 c -0.37809,-0.4958 -0.86905,-0.93355 -1.30918,-1.37762 l 0.1499,-0.26016 z"
     id="path7"
     style="stroke-width:0.181945" />
  <path
     fill="#9d6f19"
     d="m 199.19364,285.06656 -5.58488,-0.65078 1.59471,2.19579 0.26355,-0.1927 5.30831,0.6684 c -0.3781,-0.49582 -0.86906,-0.93356 -1.30918,-1.37763 l 0.14989,-0.26016 z"
     id="path8"
     style="stroke-width:0.181945" />
  <path
     fill="#623e24"
     d="m 75.720882,102.34069 c -0.970612,0.13887 -2.149709,1.39283 -2.941429,2.03033 l -0.29903,0.33676 c 2.240314,2.46203 4.184614,5.65877 5.953861,8.47557 l 0.309926,-0.11305 c 0.872482,-0.65905 2.389961,-1.44256 2.779084,-2.42453 z"
     id="path9"
     style="stroke-width:0.181945" />
  <path
     fill="#d6b951"
     d="m 202.63521,281.17119 c -0.42785,1.99726 -0.64136,4.3851 -1.4638,6.25189 0.86948,1.36223 2.0702,2.52401 2.84811,3.92813 l 0.25249,0.20715 c -0.0775,0.59208 0.33929,0.97864 0.69656,1.44281 l 1.48468,1.84703 c 1.55185,-1.26134 2.33922,-2.45208 3.34229,-4.1484 l -4.28877,-5.65545 z"
     id="path10"
     style="stroke-width:0.181945" />
  <path
     fill="#7c561f"
     d="m 202.63521,281.17119 c -0.42785,1.99726 -0.64136,4.3851 -1.4638,6.25189 0.86948,1.36223 2.0702,2.52401 2.84811,3.92813 l 0.25249,0.20715 c 0.43944,-0.80592 0.41437,-2.08644 0.52617,-3.00369 0.14571,-1.20034 0.38681,-2.34656 0.7086,-3.51032 z"
     id="path11"
     style="stroke-width:0.181945" />
  <path
     fill="#623e24"
     d="m 209.79555,290.69982 c -1.00308,1.69631 -1.79045,2.88705 -3.3423,4.14839 -1.16709,0.65731 -2.32181,1.15068 -3.58136,1.60433 1.34265,1.16709 1.83133,3.65048 2.47856,5.28591 l 2.50204,6.37063 c 0.29887,0.88452 1.41439,1.61547 2.11767,2.18904 3.59568,2.92895 7.83927,5.39673 12.02773,7.3881 l 1.64703,0.75391 0.15902,-0.22108 -0.0984,-0.49724 c -0.18477,-0.005 -0.33738,-0.0302 -0.50525,-0.115 -1.27731,-0.65001 -2.69826,-2.29202 -3.73075,-3.31948 -5.54648,-5.51684 -10.2214,-11.34353 -13.03106,-18.73887 l 3.95622,-3.79661 z"
     id="path12"
     style="stroke-width:0.181945" />
  <path
     fill="#7c561f"
     d="m 194.00958,269.18154 -0.90474,4.2347 c -0.17011,0.77722 -0.2386,1.60665 -0.77213,2.23418 0.77729,1.49579 2.10732,2.65537 2.89245,4.14681 l -5.45876,-0.70344 1.22262,1.70764 2.61974,3.61435 5.58488,0.65078 0.42238,0.38289 -0.14988,0.26016 c 0.44012,0.44407 0.93107,0.88182 1.30917,1.37762 l 0.39609,0.33583 c 0.82245,-1.86679 1.03595,-4.25463 1.46381,-6.2519 -0.34181,-0.73962 -1.05926,-1.50698 -1.54568,-2.17294 l -2.41398,-3.28018 -1.43542,-2.09679 c -1.18282,-1.29695 -2.20614,-2.99619 -3.23056,-4.43972 z"
     id="path13"
     style="stroke-width:0.181945" />
  <path
     fill="#c29b27"
     d="m 197.24015,273.62127 c -0.65561,1.96916 -0.34917,4.58751 -1.28937,6.38047 l -0.30312,0.13838 c 0.13928,0.67316 0.4859,1.0549 0.92843,1.56301 l 0.27531,0.20386 0.46684,-0.23129 c 0.38945,-0.4454 0.42916,-1.08098 0.532,-1.64857 0.25216,-1.38218 0.41862,-2.82722 0.78941,-4.18158 l 0.036,-0.12742 z"
     id="path14"
     style="stroke-width:0.181945" />
  <path
     fill="#c29b27"
     d="m 202.63521,281.17119 c -0.34181,-0.73963 -1.05925,-1.50699 -1.54568,-2.17295 -0.26461,1.43943 -0.51195,5.48062 -1.47351,6.45121 l -0.14988,0.26016 c 0.44012,0.44407 0.93107,0.88182 1.30917,1.37762 l 0.39609,0.33583 c 0.82245,-1.86677 1.03596,-4.25461 1.46381,-6.25187 z"
     id="path15"
     style="stroke-width:0.181945" />
  <path
     fill="#623e24"
     d="m 195.22516,279.79723 -5.45876,-0.70344 1.22262,1.70764 2.61974,3.61435 5.58488,0.65078 c -0.81906,-1.03301 -1.6588,-2.02906 -2.34228,-3.15959 l -0.27529,-0.20385 c -0.44257,-0.50811 -0.78911,-0.88987 -0.92843,-1.56303 l 0.30313,-0.13838 z"
     id="path16"
     style="stroke-width:0.181945" />
  <path
     fill="#9d6f19"
     d="m 195.22516,279.79723 -5.45876,-0.70344 1.22262,1.70764 5.58705,0.90168 c -0.44256,-0.50812 -0.78911,-0.88987 -0.92842,-1.56303 l 0.30312,-0.13838 z"
     id="path17"
     style="stroke-width:0.181945" />
  <path
     fill="#7c561f"
     d="m 194.00958,269.18154 -0.90474,4.2347 c -0.17011,0.77722 -0.2386,1.60665 -0.77213,2.23418 0.77729,1.49579 2.10732,2.65537 2.89245,4.14681 l 0.72562,0.20451 c 0.9402,-1.79296 0.63376,-4.41131 1.28937,-6.38047 -1.18283,-1.29695 -2.20615,-2.9962 -3.23057,-4.43973 z"
     id="path18"
     style="stroke-width:0.181945" />
  <path
     fill="#9d6f19"
     d="m 66.926039,88.793391 c -0.374142,0.210224 -0.811349,0.40519 -1.141011,0.677389 l -1.493919,1.28216 -0.885029,0.635911 -1.492833,1.097336 c -0.341651,0.322416 -0.812291,0.668101 -1.010369,1.097684 l 6.659709,9.339169 2.484636,-1.84313 c 0.605588,0.70523 1.987203,3.05988 2.732231,3.29112 0.791714,-0.63752 1.970817,-1.89146 2.941429,-2.03033 0.583156,-0.47874 0.806448,-0.79016 1.011747,-1.51816 -0.153776,-0.993392 -1.182258,-2.355802 -1.982799,-2.952805 -0.565766,0.04486 -0.721318,0.151099 -1.178173,0.45607 z"
     id="path19"
     style="stroke-width:0.181945" />
  <path
     fill="#623e24"
     d="m 63.406079,91.388848 -1.492834,1.097334 c -0.34165,0.322417 -0.81229,0.668103 -1.010368,1.097686 l 6.659708,9.339172 2.484636,-1.84314 2.180813,-1.612159 -0.159093,-0.05974 -1.959252,1.446849 -6.613712,-9.363418 z"
     id="path20"
     style="stroke-width:0.181945" />
  <path
     fill="#623e24"
     d="m 190.21458,263.91913 c -0.6736,-0.94303 -1.57477,-2.70895 -2.44981,-3.40431 l -0.30537,0.22668 0.1775,0.30488 c -0.39717,0.50498 -0.78508,1.06233 -1.27856,1.47535 -0.75236,0.8787 -1.55008,1.64004 -2.41712,2.40394 -0.78101,0.6761 -1.74596,1.70491 -2.72542,2.04647 l -0.22095,-0.1408 c 0.0496,0.74306 1.35627,2.25679 1.90956,2.8371 l 2.20777,3.04906 1.37566,1.92102 3.27848,4.45529 5.45875,0.70343 c -0.78513,-1.49142 -2.11514,-2.65103 -2.89245,-4.1468 0.53353,-0.62754 0.60201,-1.45695 0.77214,-2.2342 l 0.90474,-4.23469 -1.29621,-1.85811 z"
     id="path21"
     style="stroke-width:0.181945" />
  <path
     fill="#9d6f19"
     d="m 189.8663,273.33187 c -1.49092,-0.40045 -3.21383,-0.44464 -4.75404,-0.61439 l 1.37565,1.92104 3.65447,0.53025 1.78824,0.18771 -1.0356,-1.36381 0.0954,-0.28703 -0.76703,-0.52131 z"
     id="path22"
     style="stroke-width:0.181945" />
  <path
     fill="#b2820c"
     d="m 189.8663,273.33187 -0.3075,0.33408 0.58361,1.50281 1.78824,0.18771 -1.03559,-1.36382 0.0954,-0.28702 -0.76703,-0.5213 z"
     id="path23"
     style="stroke-width:0.181945" />
  <path
     fill="#623e24"
     d="m 187.72092,269.87648 c -1.54064,-0.0476 -3.32181,-0.40526 -4.81643,-0.20805 l 2.20777,3.04905 c 1.54021,0.16975 3.26312,0.21394 4.75404,0.61439 l 0.35705,-0.14764 -2.3374,-3.22591 z"
     id="path24"
     style="stroke-width:0.181945" />
  <path
     fill="#7c561f"
     d="m 190.21458,263.91913 -1.22182,4.09912 c -0.18217,0.59613 -0.31468,1.30638 -0.75008,1.77183 l -0.35668,0.1684 2.33742,3.2259 0.76703,0.52132 -0.0954,0.28701 1.0356,1.36381 0.40209,0.29394 c 0.53351,-0.62753 0.60199,-1.45694 0.77211,-2.23417 l 0.90475,-4.23471 -1.29622,-1.85812 z"
     id="path25"
     style="stroke-width:0.181945" />
  <path
     fill="#c29b27"
     d="m 192.71338,267.32341 -0.94538,3.98819 c -0.17293,0.8734 -0.15155,1.74531 -0.77757,2.39405 l -0.0954,0.28703 1.03559,1.36381 0.40211,0.29393 c 0.53352,-0.62753 0.602,-1.45695 0.77212,-2.23418 l 0.90474,-4.2347 z"
     id="path26"
     style="stroke-width:0.181945" />
  <path
     fill="#c29b27"
     d="m 190.21458,263.91913 c -0.6736,-0.94303 -1.57477,-2.70895 -2.44981,-3.40431 l -0.30537,0.22668 0.1775,0.30488 c -0.39717,0.50498 -0.78508,1.06233 -1.27856,1.47535 -0.75236,0.8787 -1.55008,1.64004 -2.41712,2.40394 -0.78101,0.6761 -1.74596,1.70491 -2.72542,2.04647 l -0.22095,-0.1408 c 0.0496,0.74306 1.35627,2.25679 1.90956,2.8371 1.49464,-0.19719 3.27579,0.16042 4.81644,0.20806 l 0.16503,0.0819 0.35667,-0.16839 c 0.43541,-0.46545 0.56792,-1.17569 0.75009,-1.77182 z"
     id="path27"
     style="stroke-width:0.181945" />
  <path
     fill="#9d6f19"
     d="m 183.94128,264.92565 c -0.78102,0.67608 -1.74594,1.7049 -2.72541,2.04645 l -0.22094,-0.14078 c 0.0497,0.74305 1.35624,2.25678 1.90955,2.8371 1.49462,-0.1972 3.27579,0.16041 4.81642,0.20804 z"
     id="path28"
     style="stroke-width:0.181945" />
  <path
     fill="#9d6f19"
     d="m 210.3947,291.75182 -3.95625,3.79661 c 2.80968,7.39536 7.48458,13.22205 13.03107,18.7389 1.03249,1.02745 2.45343,2.66944 3.73075,3.31946 0.16788,0.085 0.32047,0.10972 0.50525,0.11499 0.0564,-2.65521 -3.11504,-16.72058 -4.70877,-18.44973 -2.49338,-2.70465 -6.11642,-4.57879 -8.48694,-7.38081 z"
     id="path29"
     style="stroke-width:0.181945" />
  <path
     fill="#492d16"
     d="m 186.35839,262.52171 c -0.87335,0.15794 -1.82791,1.40839 -2.46336,2.03909 -0.71558,-0.82513 -1.32666,-1.85243 -1.96573,-2.74335 l -3.81958,-5.34432 -9.53746,-13.54642 L 115.01378,165.95216 92.62911,133.6551 82.179656,118.36424 c -0.36496,-0.51113 -0.696433,-1.09084 -1.287875,-1.35759 l -1.579833,1.24987 15.818021,22.75946 48.698801,70.2482 23.56474,33.87864 11.19111,15.82672 2.50333,3.42195 c 0.32366,0.44036 0.82081,0.96766 0.93823,1.49899 l -1.03124,0.94085 0.22093,0.14079 c 0.97943,-0.34166 1.94441,-1.37038 2.72543,-2.04646 0.86704,-0.7639 1.66477,-1.52525 2.41712,-2.40394 z"
     id="path30"
     style="stroke-width:0.181945" />
  <path
     fill="#d3c09a"
     d="M 14.662244,19.235463 23.664955,31.8631 c 1.484581,2.104139 3.24955,4.339853 4.452484,6.597544 L 65.78503,89.470783 c 0.329673,-0.2722 0.766871,-0.46717 1.14101,-0.677389 -0.797995,-1.323724 -1.058708,-3.448806 -1.443323,-4.957045 L 62.904637,73.650928 C 62.636819,72.531467 62.470708,70.908422 61.950217,69.902795 61.55313,69.135232 60.895004,68.389778 60.380184,67.692649 L 57.234088,63.471296 C 46.891649,49.570349 34.955146,36.572265 21.829926,25.257665 c -2.3547,-2.029916 -4.671231,-4.168489 -7.167682,-6.022202 z"
     id="path31"
     style="stroke-width:0.181945" />
  <path
     fill="#623e24"
     d="m 84.055324,114.78037 c -1.024869,0.24541 -2.172201,1.38365 -3.003698,2.0421 l -0.159827,0.18417 c 0.591433,0.26675 0.922904,0.84646 1.287876,1.35759 l 10.449457,15.29086 22.384668,32.29706 53.55848,76.97455 9.53746,13.5464 3.81958,5.34434 c 0.63907,0.8909 1.25015,1.91822 1.96571,2.74335 0.63548,-0.63071 1.59002,-1.88118 2.46339,-2.0391 0.49348,-0.41304 0.88139,-0.97038 1.27856,-1.47536 l -0.1775,-0.30486 -0.86671,0.89339 c -0.77375,-0.32101 -2.22336,-2.81359 -2.76091,-3.56655 l -9.06637,-12.88138 -50.77378,-73.0762 z"
     id="path32"
     style="stroke-width:0.181945" />
  <path
     fill="#a18d6a"
     d="m 14.662244,19.235463 c -0.29945,-0.256309 -0.595543,-0.541548 -0.92104,-0.763457 6.713107,20.560127 16.396324,39.954633 27.720196,58.349416 l 2.911597,4.688768 c 0.451799,0.712584 0.929905,1.719985 1.675345,2.148731 4.019716,2.312683 7.957117,5.09127 11.837974,7.645067 0.763376,0.502246 2.318254,1.24602 2.855646,1.898188 0.06489,0.07868 0.118675,0.281105 0.161109,0.381646 0.198073,-0.42957 0.668733,-0.775257 1.010368,-1.097687 L 63.40608,91.388848 64.291109,90.752936 65.785028,89.470774 28.11744,38.460643 C 26.914506,36.202952 25.149537,33.967239 23.664956,31.8631 Z"
     id="path33"
     style="stroke-width:0.181945" />
  <path
     fill="#7a3836"
     d="m 28.117439,38.460644 c 0.343954,1.077619 0.968868,2.021535 1.531331,2.997497 l 2.655616,4.539486 c 0.304685,0.515832 0.917641,1.898187 1.380319,2.19763 l 7.050977,11.788902 13.382271,20.948203 5.469813,7.962092 c 0.774067,1.138123 1.759415,2.343218 2.325479,3.591728 l 1.492834,-1.097334 0.885029,-0.635912 1.493919,-1.282161 z"
     id="path34"
     style="stroke-width:0.181945" />
  <path
     fill="#68292b"
     d="m 64.29111,90.752944 -30.18057,-42.37769 -0.0713,-0.116333 -0.354697,-0.06361 7.050978,11.7889 13.382271,20.948205 5.469813,7.962093 c 0.774067,1.13812 1.759416,2.343217 2.325479,3.591727 l 1.492998,-1.097395 z"
     id="path35"
     style="stroke-width:0.181945" />
</svg>
