<?xml version="1.0" encoding="UTF-8" standalone="no"?>
<svg
   width="63mm"
   height="88mm"
   version="1.1"
   id="svg123"
   sodipodi:docname="item-stone-flint.svg"
   inkscape:version="1.4 (86a8ad7, 2024-10-11)"
   xml:space="preserve"
   xmlns:inkscape="http://www.inkscape.org/namespaces/inkscape"
   xmlns:sodipodi="http://sodipodi.sourceforge.net/DTD/sodipodi-0.dtd"
   xmlns="http://www.w3.org/2000/svg"
   xmlns:svg="http://www.w3.org/2000/svg"><sodipodi:namedview
     id="namedview123"
     pagecolor="#ffffff"
     bordercolor="#000000"
     borderopacity="0.25"
     inkscape:showpageshadow="2"
     inkscape:pageopacity="0.0"
     inkscape:pagecheckerboard="0"
     inkscape:deskcolor="#d1d1d1"
     inkscape:document-units="mm"
     inkscape:zoom="0.68416665"
     inkscape:cx="48.233862"
     inkscape:cy="153.47138"
     inkscape:window-width="1350"
     inkscape:window-height="1040"
     inkscape:window-x="182"
     inkscape:window-y="0"
     inkscape:window-maximized="0"
     inkscape:current-layer="svg123" /><defs
     id="defs74"><linearGradient
       id="gradient_0"
       gradientUnits="userSpaceOnUse"
       x1="529.71039"
       y1="1148.418"
       x2="679.95923"
       y2="1009.4732"
       gradientTransform="matrix(0.17547265,-0.10737428,0.10737428,0.17547265,-48.503843,98.013793)"><stop
         offset="0"
         stop-color="#431A0C"
         id="stop73" /><stop
         offset="1"
         stop-color="#553D21"
         id="stop74" /></linearGradient><linearGradient
       id="gradient_0-6"
       gradientUnits="userSpaceOnUse"
       x1="383.3446"
       y1="240.92506"
       x2="493.68604"
       y2="394.40707"><stop
         offset="0"
         stop-color="#A4A573"
         id="stop21" /><stop
         offset="1"
         stop-color="#949F8E"
         id="stop22" /></linearGradient><linearGradient
       id="gradient_0-0"
       gradientUnits="userSpaceOnUse"
       x1="1062.0626"
       y1="383.32349"
       x2="1046.6252"
       y2="392.61908"><stop
         offset="0"
         stop-color="#6D2D22"
         id="stop4" /><stop
         offset="1"
         stop-color="#8A4328"
         id="stop5" /></linearGradient><linearGradient
       id="gradient_1-9"
       gradientUnits="userSpaceOnUse"
       x1="474.23035"
       y1="958.05066"
       x2="528.68359"
       y2="711.36206"><stop
         offset="0"
         stop-color="#795443"
         id="stop7" /><stop
         offset="1"
         stop-color="#A07155"
         id="stop8" /></linearGradient><linearGradient
       id="gradient_2-4"
       gradientUnits="userSpaceOnUse"
       x1="836.93878"
       y1="848.84253"
       x2="832.2381"
       y2="790.28577"><stop
         offset="0"
         stop-color="#8E6B5A"
         id="stop18" /><stop
         offset="1"
         stop-color="#B89377"
         id="stop19" /></linearGradient><linearGradient
       id="gradient_3-8"
       gradientUnits="userSpaceOnUse"
       x1="294.79462"
       y1="644.54138"
       x2="438.63474"
       y2="880.17078"><stop
         offset="0"
         stop-color="#110721"
         id="stop30" /><stop
         offset="1"
         stop-color="#502E32"
         id="stop31" /></linearGradient><linearGradient
       id="gradient_4"
       gradientUnits="userSpaceOnUse"
       x1="150.74792"
       y1="724.33118"
       x2="180.63585"
       y2="664.74036"><stop
         offset="0"
         stop-color="#7A5853"
         id="stop33" /><stop
         offset="1"
         stop-color="#957273"
         id="stop34" /></linearGradient><linearGradient
       id="gradient_5"
       gradientUnits="userSpaceOnUse"
       x1="492.49835"
       y1="469.72421"
       x2="467.47495"
       y2="363.49857"><stop
         offset="0"
         stop-color="#82200B"
         id="stop53" /><stop
         offset="1"
         stop-color="#AF3012"
         id="stop54" /></linearGradient><linearGradient
       id="gradient_6"
       gradientUnits="userSpaceOnUse"
       x1="509.37317"
       y1="619.45557"
       x2="515.70984"
       y2="533.21106"><stop
         offset="0"
         stop-color="#54261F"
         id="stop61" /><stop
         offset="1"
         stop-color="#91312A"
         id="stop62" /></linearGradient><linearGradient
       id="gradient_7"
       gradientUnits="userSpaceOnUse"
       x1="520.08862"
       y1="585.48859"
       x2="436.2973"
       y2="539.38525"><stop
         offset="0"
         stop-color="#7D4337"
         id="stop63" /><stop
         offset="1"
         stop-color="#B8705F"
         id="stop64" /></linearGradient><linearGradient
       id="gradient_8"
       gradientUnits="userSpaceOnUse"
       x1="623.58453"
       y1="672.80762"
       x2="630.5918"
       y2="581.58807"><stop
         offset="0"
         stop-color="#361806"
         id="stop69" /><stop
         offset="1"
         stop-color="#631F17"
         id="stop70" /></linearGradient><linearGradient
       id="gradient_9"
       gradientUnits="userSpaceOnUse"
       x1="872.90179"
       y1="468.02658"
       x2="706.73663"
       y2="365.92215"><stop
         offset="0"
         stop-color="#E89649"
         id="stop83" /><stop
         offset="1"
         stop-color="#FFBD6D"
         id="stop84" /></linearGradient><linearGradient
       id="gradient_10"
       gradientUnits="userSpaceOnUse"
       x1="846.86047"
       y1="542.92023"
       x2="824.60358"
       y2="498.14877"><stop
         offset="0"
         stop-color="#A55635"
         id="stop96" /><stop
         offset="1"
         stop-color="#B1785E"
         id="stop97" /></linearGradient><linearGradient
       id="gradient_11"
       gradientUnits="userSpaceOnUse"
       x1="1176.8353"
       y1="702.33606"
       x2="913.50659"
       y2="697.92065"><stop
         offset="0"
         stop-color="#BD692A"
         id="stop98" /><stop
         offset="1"
         stop-color="#FFC155"
         id="stop99-8" /></linearGradient><linearGradient
       id="gradient_12"
       gradientUnits="userSpaceOnUse"
       x1="928.92041"
       y1="808.36499"
       x2="919.31006"
       y2="769.75995"><stop
         offset="0"
         stop-color="#BF5420"
         id="stop106" /><stop
         offset="1"
         stop-color="#E16F25"
         id="stop107" /></linearGradient><linearGradient
       id="gradient_13"
       gradientUnits="userSpaceOnUse"
       x1="723.87427"
       y1="446.49103"
       x2="685.85583"
       y2="144.81604"><stop
         offset="0"
         stop-color="#E56E27"
         id="stop113" /><stop
         offset="1"
         stop-color="#EF9A3A"
         id="stop114" /></linearGradient><linearGradient
       id="gradient_14"
       gradientUnits="userSpaceOnUse"
       x1="447.57205"
       y1="447.01038"
       x2="675.34277"
       y2="306.28226"><stop
         offset="0"
         stop-color="#EC8020"
         id="stop120" /><stop
         offset="1"
         stop-color="#FCC157"
         id="stop121" /></linearGradient><linearGradient
       id="gradient_15"
       gradientUnits="userSpaceOnUse"
       x1="644.1062"
       y1="578.73346"
       x2="723.17212"
       y2="217.31847"><stop
         offset="0"
         stop-color="#F9C67C"
         id="stop136" /><stop
         offset="1"
         stop-color="#FCDF8A"
         id="stop137" /></linearGradient></defs><defs
     id="defs100"><linearGradient
       id="gradient_1"
       gradientUnits="userSpaceOnUse"
       x1="585.16687"
       y1="910.49738"
       x2="553.47638"
       y2="822.70599"
       gradientTransform="matrix(0.17547265,-0.10737428,0.10737428,0.17547265,-48.503843,98.013793)"><stop
         offset="0"
         stop-color="#521D00"
         id="stop99" /><stop
         offset="1"
         stop-color="#754016"
         id="stop100" /></linearGradient></defs><defs
     id="defs110"><linearGradient
       id="gradient_2"
       gradientUnits="userSpaceOnUse"
       x1="493.89996"
       y1="348.56442"
       x2="623.60132"
       y2="310.72467"
       gradientTransform="matrix(0.17547265,-0.10737428,0.10737428,0.17547265,-48.503843,98.013793)"><stop
         offset="0"
         stop-color="#BDC0BE"
         id="stop109" /><stop
         offset="1"
         stop-color="#F6FFFF"
         id="stop110" /></linearGradient></defs><defs
     id="defs116"><linearGradient
       id="gradient_3"
       gradientUnits="userSpaceOnUse"
       x1="524.60431"
       y1="447.21811"
       x2="676.47565"
       y2="295.28336"
       gradientTransform="matrix(0.17547265,-0.10737428,0.10737428,0.17547265,-48.503843,98.013793)"><stop
         offset="0"
         stop-color="#606062"
         id="stop115" /><stop
         offset="1"
         stop-color="#6C747E"
         id="stop116" /></linearGradient></defs><g
     id="g1"
     transform="matrix(0.33143795,0,0,0.33143795,10.921458,98.793758)"><path
       fill="#88341e"
       transform="matrix(0.492308,0,0,0.492188,-6.10352e-5,0)"
       d="m 907.847,79.7764 c 6.664,4.7807 23.691,32.7076 29.162,41.2466 10.682,15.103 20.584,30.769 31.413,45.762 9.866,13.66 21.518,26.646 29.52,41.526 7.318,13.615 12.378,29.252 17.478,43.819 3.59,9.896 28.4,65.945 27.67,70.768 3.12,2.214 19.3,47.3 21.97,53.842 6.19,15.181 13.85,29.741 21.12,44.421 4.22,8.514 10.33,18.903 12.27,28.24 0.19,0.909 0.13,1.7 -0.13,2.579 l -0.41,0.875 -1.47,-0.32 c -0.01,-1.193 -0.24,-1.929 -0.82,-2.967 -19.28,-34.151 -44.82,-63.381 -69.13,-93.855 -2.16,-2.716 -9.56,-14.268 -11.89,-14.886 l -0.86,0.48 c -1.94,-1.523 -2.98,-8.209 -3.96,-10.931 l -2.93,-6.774 0.27,-1.259 0.01,-0.851 0.36,0.455 c 0.02,-0.49 -19.817,-37.19 -22.062,-41.454 -2.197,-2.469 -3.834,-5.69 -5.543,-8.523 q -11.79,3.414 -23.439,7.284 c -2.294,-4.818 -2.77,-12.859 -4.047,-18.223 -5.035,-21.155 -10.879,-42.193 -15.112,-63.525 -2.104,-6.216 -2.992,-12.861 -5.676,-18.858 -1.445,-7.496 -3.985,-14.953 -5.757,-22.411 l -11.646,-50.47 q -3.246,-12.9793 -6.361,-25.9906 z"
       id="path2" /><path
       fill="#a84827"
       transform="matrix(0.492308,0,0,0.492188,-6.10352e-5,0)"
       d="m 907.847,79.7764 c 6.664,4.7807 23.691,32.7076 29.162,41.2466 l -0.71,0.556 c -4.343,-6.212 -8.405,-13.808 -13.577,-19.253 -0.065,0.211 -0.127,0.423 -0.196,0.633 -0.881,2.66 -1.871,4.626 -3.6,6.858 -0.871,7.026 3.623,16.431 5.161,23.33 2.004,8.987 1.766,18.303 3.834,27.357 1.729,7.563 10.943,31.013 9.366,37.002 -2.104,-6.216 -2.992,-12.861 -5.676,-18.858 -1.445,-7.496 -3.985,-14.953 -5.757,-22.411 l -11.646,-50.47 q -3.246,-12.9793 -6.361,-25.9906 z"
       id="path3" /><path
       fill="#a84827"
       transform="matrix(0.492308,0,0,0.492188,-6.10352e-5,0)"
       d="m 936.299,121.579 0.71,-0.556 c 10.682,15.103 20.584,30.769 31.413,45.762 9.866,13.66 21.518,26.646 29.52,41.526 7.318,13.615 12.378,29.252 17.478,43.819 -9.07,-6.331 -57.705,-90.266 -61.999,-101.643 l 0.52,-0.432 c 0.791,1.274 2.019,2.119 2.739,3.427 1.458,2.648 1.874,5.407 3.923,7.752 l 0.876,-0.571 c 0.195,-3.786 -21.571,-33.334 -25.18,-39.084 z"
       id="path4" /><path
       fill="url(#gradient_0)"
       transform="matrix(0.492308,0,0,0.492188,-6.10352e-5,0)"
       d="m 1007.12,322.343 c 0.24,0.107 0.49,0.206 0.73,0.323 3.24,1.591 10.98,13.907 13.42,17.321 11.26,15.697 25.11,29.198 36.76,44.651 8.47,11.23 13.97,23.577 24.72,33.047 -1.06,-5.999 -8.67,-17.619 -11.57,-23.863 -7.42,-15.985 -13.54,-32.614 -19.9,-49.042 -2.71,-6.981 -6.55,-14.658 -8.19,-21.882 3.12,2.214 19.3,47.3 21.97,53.842 6.19,15.181 13.85,29.741 21.12,44.421 4.22,8.514 10.33,18.903 12.27,28.24 0.19,0.909 0.13,1.7 -0.13,2.579 l -0.41,0.875 -1.47,-0.32 c -0.01,-1.193 -0.24,-1.929 -0.82,-2.967 -19.28,-34.151 -44.82,-63.381 -69.13,-93.855 -2.16,-2.716 -9.56,-14.268 -11.89,-14.886 l -0.86,0.48 c -1.94,-1.523 -2.98,-8.209 -3.96,-10.931 l -2.93,-6.774 z"
       id="path5"
       style="fill:url(#gradient_0-0)" /><path
       fill="#694548"
       transform="matrix(0.492308,0,0,0.492188,-6.10352e-5,0)"
       d="m 827.335,841.466 q 3.413,2.898 6.756,5.876 l -0.271,7.72 c -1.514,-1.498 -3.1,-3.111 -4.365,-4.823 -1.987,-2.691 -2.636,-5.501 -2.12,-8.773 z"
       id="path9" /><path
       fill="#3b2228"
       transform="matrix(0.492308,0,0,0.492188,-6.10352e-5,0)"
       d="m 471.268,938.786 4.673,2.162 6.373,3.371 c -1.472,1.763 -1.752,3.327 -2.131,5.553 -2.976,-1.49 -7.471,-4.243 -9.035,-7.272 -0.8,-1.549 -0.441,-2.252 0.12,-3.814 z"
       id="path10" /><path
       fill="#72352d"
       transform="matrix(0.492308,0,0,0.492188,-6.10352e-5,0)"
       d="m 785.746,799.464 c 0.462,-1.081 0.801,-1.968 0.997,-3.14 1.752,0.142 1.709,0.246 2.972,1.5 0.588,2.027 0.61,2.412 0.077,4.451 -1.924,2.434 -4.31,3.28 -7.34,3.639 -2.98,0.352 -9.624,0.839 -11.993,-0.964 4.602,-2.528 10.333,-3.6 15.287,-5.486 z"
       id="path11" /><path
       fill="#3b2228"
       transform="matrix(0.492308,0,0,0.492188,-6.10352e-5,0)"
       d="m 834.091,847.342 c 1.53,1.039 3.849,2.205 5.029,3.581 0.654,4.165 3.934,6.425 7.191,8.791 q 2.664,1.918 5.367,3.78 l 3.012,3.674 c -8.011,-3.081 -14.317,-6.511 -20.87,-12.106 z"
       id="path12" /><path
       fill="#f8b95c"
       transform="matrix(0.492308,0,0,0.492188,-6.10352e-5,0)"
       d="m 770.459,804.95 c -0.696,-1.781 -1.04,-2.425 -0.679,-4.36 0.479,-2.57 2.161,-4.988 4.419,-6.315 1.722,-1.012 4.418,-1.452 6.349,-0.884 2.856,0.841 3.943,3.651 5.198,6.073 -4.954,1.886 -10.685,2.958 -15.287,5.486 z"
       id="path13" /><path
       fill="#3b2228"
       transform="matrix(0.492308,0,0,0.492188,-6.10352e-5,0)"
       d="m 797.917,918.153 c 3.083,1.707 5.393,3.265 7.809,5.861 2.142,1.172 4.353,2.042 5.577,4.253 -0.205,1.818 -0.517,2.466 -2.004,3.606 -1.809,1.386 -4.02,2.509 -5.989,3.667 -10.306,-1.258 -36.638,-0.31 -43.604,-7.185 -0.134,-0.624 -0.351,-1.244 -0.275,-1.883 6.3,5.056 17.24,4.637 24.797,4.075 1.401,-1.401 3.026,-2.599 4.565,-3.846 2.748,-0.544 6.074,-0.786 8.355,-2.485 1.173,-2.237 0.877,-3.593 0.769,-6.063 z"
       id="path14" /><path
       fill="#a84827"
       transform="matrix(0.492308,0,0,0.492188,-6.10352e-5,0)"
       d="m 797.917,918.153 c 3.083,1.707 5.393,3.265 7.809,5.861 -1.455,2.608 -1.839,3.594 -4.832,4.514 -5.298,1.627 -11.21,1.168 -16.666,2.019 1.401,-1.401 3.026,-2.599 4.565,-3.846 2.748,-0.544 6.074,-0.786 8.355,-2.485 1.173,-2.237 0.877,-3.593 0.769,-6.063 z"
       id="path15" /><path
       fill="#51241e"
       transform="matrix(0.492308,0,0,0.492188,-6.10352e-5,0)"
       d="m 524.621,937.063 c 0.279,1.007 0.623,1.297 0.117,2.274 -2.655,5.12 -13.825,10.966 -19.271,12.378 -5.171,1.341 -18.12,3.169 -22.801,0.483 -0.99,-0.568 -1.732,-1.49 -2.483,-2.326 0.379,-2.226 0.659,-3.79 2.131,-5.553 13.673,1.998 29.862,-1.838 42.307,-7.256 z"
       id="path16" /><path
       fill="#f8b95c"
       transform="matrix(0.492308,0,0,0.492188,-6.10352e-5,0)"
       d="m 759.922,924.82 c 2.902,-4.336 6.973,-7.362 11.9,-9.058 8.676,-2.985 18,-1.551 26.095,2.391 0.108,2.47 0.404,3.826 -0.769,6.063 -2.281,1.699 -5.607,1.941 -8.355,2.485 -1.539,1.247 -3.164,2.445 -4.565,3.846 -7.557,0.562 -18.497,0.981 -24.797,-4.075 z"
       id="path17" /><path
       fill="#c4491b"
       transform="matrix(0.492308,0,0,0.492188,-6.10352e-5,0)"
       d="m 759.922,924.82 c 9.249,2.233 19.399,3.098 28.871,1.881 -1.539,1.247 -3.164,2.445 -4.565,3.846 -7.557,0.562 -18.497,0.981 -24.797,-4.075 z"
       id="path18" /><path
       fill="url(#gradient_2)"
       transform="matrix(0.492308,0,0,0.492188,-6.10352e-5,0)"
       d="m 827.335,841.466 c -0.233,-0.45 -0.471,-0.899 -0.671,-1.365 -7.297,-17.028 3.084,-36.743 9.406,-52.622 2.979,3.823 5.529,7.526 7.362,12.046 0.854,2.106 1.374,4.939 2.642,6.779 l 0.239,1.614 c -3.074,14.527 -1.925,29.882 -3.933,44.566 l -3.26,-1.561 c -1.18,-1.376 -3.499,-2.542 -5.029,-3.581 q -3.343,-2.978 -6.756,-5.876 z"
       id="path19"
       style="fill:url(#gradient_2-4)" /><path
       fill="#db6e28"
       transform="matrix(0.492308,0,0,0.492188,-6.10352e-5,0)"
       d="m 490.857,915.177 6.934,0.886 c 7.809,0.402 15.585,0.832 23.362,1.657 0.965,0.191 2.112,0.132 2.693,0.971 2.712,3.917 -0.266,13.416 0.775,18.372 -12.445,5.418 -28.634,9.254 -42.307,7.256 l -6.373,-3.371 -4.673,-2.162 c -1.362,-2.489 -3.727,-3.975 -4.883,-6.806 l 0.547,-1.121 q 11.9,-7.936 23.925,-15.682 z"
       id="path20" /><path
       fill="#f39e41"
       transform="matrix(0.492308,0,0,0.492188,-6.10352e-5,0)"
       d="m 497.791,916.063 c 7.809,0.402 15.585,0.832 23.362,1.657 -10.092,8.409 -20.51,16.403 -34.026,17.901 1.277,-1.163 2.535,-2.358 3.681,-3.653 2.103,-2.374 10.403,-12.161 10.214,-14.731 z"
       id="path21" /><path
       fill="#fbe4a8"
       transform="matrix(0.492308,0,0,0.492188,-6.10352e-5,0)"
       d="m 490.857,915.177 6.934,0.886 3.231,1.174 c 0.189,2.57 -8.111,12.357 -10.214,14.731 -1.146,1.295 -2.404,2.49 -3.681,3.653 -2.022,0.404 -3.944,0.814 -5.891,1.51 -4.885,-1.899 -9.111,-5.245 -14.304,-6.272 q 11.9,-7.936 23.925,-15.682 z"
       id="path22" /><path
       fill="#26141b"
       transform="matrix(0.492308,0,0,0.492188,-6.10352e-5,0)"
       d="m 517.14,880.194 c 10.285,4.685 20.769,9.017 30.986,13.833 7.455,3.514 14.653,7.54 22.078,11.099 3.82,2.263 10.946,4.313 15.413,4.144 12.078,-0.455 25.295,-5.754 37.168,-8.364 26.144,-5.746 52.762,-11.07 79.219,-15.165 -11.069,13.655 -34.061,7.975 -47.441,14.881 0.843,0.488 0.352,0.379 1.462,0.121 6.023,-1.398 22.79,-4.807 28.087,-3.922 -19.044,3.669 -38.422,5.909 -57.577,8.979 -12.653,2.028 -31.261,6.966 -43.506,6.234 -13.58,-0.811 -25.765,-5.324 -38.417,-9.88 -5.974,-2.152 -12.039,-4.207 -17.806,-6.879 -4.31,-1.997 -14.228,-8.552 -18.119,-8.692 -0.292,-0.011 -0.583,-0.036 -0.874,-0.054 z"
       id="path24" /><path
       fill="#88341e"
       transform="matrix(0.492308,0,0,0.492188,-6.10352e-5,0)"
       d="m 601.149,785.667 c 4.973,1.07 9.902,2.066 14.468,4.381 12.182,5.921 24.029,12.223 35.822,18.888 9.244,5.224 19.169,11.973 29.262,15.353 7.38,3.151 18.024,6.421 23.829,11.881 1.139,0.061 1.618,-0.225 2.411,0.695 4.545,5.269 2.027,25.725 1.327,32.38 -1.219,5.402 -2.758,10.198 -5.197,15.166 l -1.067,1.33 c -26.457,4.095 -53.075,9.419 -79.219,15.165 -11.873,2.61 -25.09,7.909 -37.168,8.364 -4.467,0.169 -11.593,-1.881 -15.413,-4.144 -7.425,-3.559 -14.623,-7.585 -22.078,-11.099 -10.217,-4.816 -20.701,-9.148 -30.986,-13.833 -1.955,-1.228 -3.873,-2.698 -5.32,-4.519 -6.565,-8.265 -8.292,-24.939 -7.132,-35.116 l 3.451,-2.093 c 4.433,-3.149 10.41,-6.198 15.668,-7.647 l 0.364,-0.616 c 14.298,-6.19 28.388,-12.454 41.481,-20.991 11.736,-7.652 22.969,-17.318 35.497,-23.545 z"
       id="path25" /><path
       fill="#471a11"
       transform="matrix(0.492308,0,0,0.492188,-6.10352e-5,0)"
       d="m 704.53,836.17 c 1.139,0.061 1.618,-0.225 2.411,0.695 4.545,5.269 2.027,25.725 1.327,32.38 -1.219,5.402 -2.758,10.198 -5.197,15.166 -3.202,-3.83 -4.388,-8.545 -5.97,-13.1 l -0.242,-0.684 c -2.668,-7.62 -4.649,-14.37 -5.148,-22.517 3.548,-5.693 6.833,-8.918 12.819,-11.94 z"
       id="path26" /><path
       fill="#f39e41"
       transform="matrix(0.492308,0,0,0.492188,-6.10352e-5,0)"
       d="m 615.617,790.048 c 12.182,5.921 24.029,12.223 35.822,18.888 9.244,5.224 19.169,11.973 29.262,15.353 7.38,3.151 18.024,6.421 23.829,11.881 -5.986,3.022 -9.271,6.247 -12.819,11.94 -4.088,7.796 -1.665,8.347 -2.179,16.029 -1.075,-2.406 -2.575,-5.738 -4.347,-7.672 -1.739,-1.899 -3.217,-1.854 -5.712,-1.702 -9.834,0.597 -20.274,3.241 -30.132,4.572 -16.228,2.192 -32.528,2.32 -48.877,1.688 1.591,-3.512 1.762,-9.569 2.641,-13.591 l 8.16,-36.259 c 1.586,-6.984 3.608,-13.992 4.352,-21.127 z"
       id="path27" /><path
       fill="#fbe4a8"
       transform="matrix(0.492308,0,0,0.492188,-6.10352e-5,0)"
       d="m 601.149,785.667 c 4.973,1.07 9.902,2.066 14.468,4.381 -0.744,7.135 -2.766,14.143 -4.352,21.127 l -8.16,36.259 c -0.879,4.022 -1.05,10.079 -2.641,13.591 -13.294,1.096 -25.903,6.53 -39.058,7.843 l 0.067,0.561 c 0.355,3.142 0.03,6.292 0.444,9.41 1.174,8.829 4.583,18.203 8.287,26.287 -7.425,-3.559 -14.623,-7.585 -22.078,-11.099 -10.217,-4.816 -20.701,-9.148 -30.986,-13.833 -1.955,-1.228 -3.873,-2.698 -5.32,-4.519 -6.565,-8.265 -8.292,-24.939 -7.132,-35.116 l 3.451,-2.093 c 4.433,-3.149 10.41,-6.198 15.668,-7.647 l 0.364,-0.616 c 14.298,-6.19 28.388,-12.454 41.481,-20.991 11.736,-7.652 22.969,-17.318 35.497,-23.545 z"
       id="path28" /><path
       fill="#fefcd0"
       transform="matrix(0.492308,0,0,0.492188,-6.10352e-5,0)"
       d="m 508.139,838.466 c 4.433,-3.149 10.41,-6.198 15.668,-7.647 l -0.242,1.08 -1.822,1.085 c -0.84,4.759 -0.755,9.492 -0.749,14.303 1.442,1.293 3.729,2.512 3.94,4.432 -6.02,-3.519 -11.687,-8.536 -16.795,-13.253 z"
       id="path29" /><path
       fill="#8f7a79"
       transform="matrix(0.492308,0,0,0.492188,-6.10352e-5,0)"
       d="m 504.688,840.559 3.451,-2.093 c 5.108,4.717 10.775,9.734 16.795,13.253 8.747,8.813 24.56,13.768 31.667,22.138 1.584,1.865 2.699,4.364 3.807,6.541 -0.687,-3.343 -2.067,-7.341 -0.139,-10.482 0.306,-0.5 0.628,-0.771 1.137,-1.048 l 0.067,0.561 c 0.355,3.142 0.03,6.292 0.444,9.41 1.174,8.829 4.583,18.203 8.287,26.287 -7.425,-3.559 -14.623,-7.585 -22.078,-11.099 -10.217,-4.816 -20.701,-9.148 -30.986,-13.833 -1.955,-1.228 -3.873,-2.698 -5.32,-4.519 -6.565,-8.265 -8.292,-24.939 -7.132,-35.116 z"
       id="path30" /><path
       fill="#26141b"
       transform="matrix(0.492308,0,0,0.492188,-6.10352e-5,0)"
       d="m 151.343,720.869 c 11.886,10.592 29.011,21.097 43.805,26.949 16.249,6.771 34.002,12.464 50.908,17.337 q 29.448,5.207 58.525,12.193 c 12.749,2.941 51.391,13.332 61.644,12.8 15.57,-3.018 31.177,-6.754 46.51,-10.803 13.987,-3.694 94.705,-28.02 102.404,-26.892 4.5,1.635 8.616,3.777 12.838,6.006 -41.518,13.459 -84.272,24.608 -126.832,34.31 -10.903,2.485 -23.455,6.625 -34.586,6.628 -13.085,0.004 -38.541,-6.904 -52.048,-9.896 -21.039,-4.661 -42.061,-9.188 -62.988,-14.347 -15.3,-3.772 -30.747,-7.446 -45.26,-13.716 -18.686,-8.074 -36.222,-19.168 -50.522,-33.656 z"
       id="path32" /><path
       fill="#694548"
       transform="matrix(0.492308,0,0,0.492188,-6.10352e-5,0)"
       d="m 116.405,626.621 c 2.147,2.135 4.401,3.631 6.949,5.233 4.237,3.582 10.353,5.813 14.084,9.629 l 28.101,16.756 c 3.5,2.084 7.937,4.054 11.052,6.569 8.456,-1.062 17.041,-2.363 25.558,-2.696 3.907,4.728 27.792,32.481 30.987,34.254 -1.445,7.075 11.814,55.928 12.92,68.789 -16.906,-4.873 -34.659,-10.566 -50.908,-17.337 -14.794,-5.852 -31.919,-16.357 -43.805,-26.949 l 4.398,6.913 c -1.886,2.941 -3.922,5.564 -6.204,8.207 0.741,-3.126 2.557,-5.374 4.451,-7.876 -1.709,-2.606 -3.528,-5.298 -4.772,-8.165 -4.856,-11.185 -8.373,-23.153 -12.715,-34.568 -2.716,-7.139 -7.971,-17.498 -9.438,-24.661 -1.374,-4.069 -8.657,-20.337 -7.481,-23.465 -0.956,-2.82 -2.065,-5.459 -3.348,-8.146 z"
       id="path33" /><path
       fill="url(#gradient_4)"
       transform="matrix(0.492308,0,0,0.492188,-6.10352e-5,0)"
       d="m 116.405,626.621 c 2.147,2.135 4.401,3.631 6.949,5.233 4.237,3.582 10.353,5.813 14.084,9.629 l 28.101,16.756 c 3.5,2.084 7.937,4.054 11.052,6.569 4.571,24.429 18.272,60.209 18.557,83.01 -14.794,-5.852 -31.919,-16.357 -43.805,-26.949 l 4.398,6.913 c -1.886,2.941 -3.922,5.564 -6.204,8.207 0.741,-3.126 2.557,-5.374 4.451,-7.876 -1.709,-2.606 -3.528,-5.298 -4.772,-8.165 -4.856,-11.185 -8.373,-23.153 -12.715,-34.568 -2.716,-7.139 -7.971,-17.498 -9.438,-24.661 -1.374,-4.069 -8.657,-20.337 -7.481,-23.465 -0.956,-2.82 -2.065,-5.459 -3.348,-8.146 z"
       id="path34"
       style="fill:url(#gradient_4)" /><path
       fill="#b2a7b0"
       transform="matrix(0.492308,0,0,0.492188,-6.10352e-5,0)"
       d="m 116.405,626.621 c 2.147,2.135 4.401,3.631 6.949,5.233 4.237,3.582 10.353,5.813 14.084,9.629 -1.26,12.842 9.036,33.963 11.611,47.009 1.973,10.003 1.347,20.296 1.028,30.419 -3.663,-8.422 -6.339,-17.51 -9.46,-26.161 -4.298,-11.916 -8.962,-23.7 -13.321,-35.596 -2.087,-5.696 -4.18,-15.308 -7.714,-19.9 -0.956,-2.82 -2.065,-5.459 -3.348,-8.146 z"
       id="path35" /><path
       fill="#51241e"
       transform="matrix(0.492308,0,0,0.492188,-6.10352e-5,0)"
       d="m 233.136,696.366 c 22.021,1.623 44.161,2.117 66.219,3.132 27.681,1.272 56.591,4.517 84.034,-0.273 12.423,-2.168 24.493,-5.74 36.477,-9.605 6.666,-2.15 13.49,-4.841 20.333,-6.294 10.179,6.498 20.506,13.814 31.468,18.859 0.178,0.046 0.356,0.09 0.533,0.138 4.853,1.303 9.603,3.421 14.303,5.206 19.935,7.574 30.366,7.58 49.976,-0.496 -2.261,5.664 -17.129,33.829 -15.709,37.332 -0.782,2.71 -1.504,4.015 -3.5,5.976 -0.713,0.702 -1.411,1.417 -2.131,2.112 -7.699,-1.128 -88.417,23.198 -102.404,26.892 -15.333,4.049 -30.94,7.785 -46.51,10.803 -10.253,0.532 -48.895,-9.859 -61.644,-12.8 q -29.077,-6.986 -58.525,-12.193 c -1.106,-12.861 -14.365,-61.714 -12.92,-68.789 z"
       id="path36" /><path
       fill="#a84827"
       transform="matrix(0.492308,0,0,0.492188,-6.10352e-5,0)"
       d="m 259.466,707.386 117.697,-2.496 c 26.069,-0.58 52.689,-3.26 78.717,-0.889 1.59,0.145 3.041,0.799 4.639,0.952 l 0.881,0.077 c 7.381,1.427 14.646,4.71 20.972,8.77 -7.298,1.516 -14.776,2.081 -22.098,3.468 -11.921,2.256 -24.117,5.55 -35.928,8.396 -12.783,3.079 -25.175,7.732 -38.119,10.23 -9.122,1.761 -36.108,1.401 -42.436,5.653 -0.763,0.513 -0.589,0.437 -1.191,1.259 -6.884,-1.472 -16.351,-6.728 -23.108,-9.627 q -29.9,-13.158 -60.026,-25.793 z"
       id="path37" /><path
       fill="#471a11"
       transform="matrix(0.492308,0,0,0.492188,-6.10352e-5,0)"
       d="m 471.667,702.185 c 0.178,0.046 0.356,0.09 0.533,0.138 4.853,1.303 9.603,3.421 14.303,5.206 19.935,7.574 30.366,7.58 49.976,-0.496 -2.261,5.664 -17.129,33.829 -15.709,37.332 -0.782,2.71 -1.504,4.015 -3.5,5.976 -0.713,0.702 -1.411,1.417 -2.131,2.112 -7.699,-1.128 -88.417,23.198 -102.404,26.892 -15.333,4.049 -30.94,7.785 -46.51,10.803 1.243,-10.632 5.785,-20.801 6.624,-31.603 -6.046,-4.777 -13.389,-8.357 -20.36,-11.585 -3.321,-1.074 -6.661,-2.788 -9.889,-4.154 0.602,-0.822 0.428,-0.746 1.191,-1.259 6.328,-4.252 33.314,-3.892 42.436,-5.653 12.944,-2.498 25.336,-7.151 38.119,-10.23 11.811,-2.846 24.007,-6.14 35.928,-8.396 7.322,-1.387 14.8,-1.952 22.098,-3.468 -6.326,-4.06 -13.591,-7.343 -20.972,-8.77 3.175,-1.415 6.885,-2.035 10.267,-2.845 z"
       id="path38" /><path
       fill="#d9812d"
       transform="matrix(0.492308,0,0,0.492188,-6.10352e-5,0)"
       d="m 342.6,742.806 c 0.602,-0.822 0.428,-0.746 1.191,-1.259 6.328,-4.252 33.314,-3.892 42.436,-5.653 12.944,-2.498 25.336,-7.151 38.119,-10.23 11.811,-2.846 24.007,-6.14 35.928,-8.396 7.322,-1.387 14.8,-1.952 22.098,-3.468 6.073,2.824 12.586,5.446 18.25,9.01 -17.059,4.663 -33.75,10.484 -50.772,15.219 -25.264,7.028 -50.649,13.092 -75.818,20.556 l -1.183,-0.04 c -6.046,-4.777 -13.389,-8.357 -20.36,-11.585 -3.321,-1.074 -6.661,-2.788 -9.889,-4.154 z"
       id="path39" /><path
       fill="#c0855a"
       transform="matrix(0.492308,0,0,0.492188,-6.10352e-5,0)"
       d="m 352.489,746.96 c 3.36,-3.425 18.154,-4.718 23.207,-4.925 1.172,0.615 1.441,0.765 1.855,2.128 0.86,2.828 1.034,8.959 -0.592,11.455 -0.72,1.107 -1.795,1.848 -2.735,2.741 -0.072,0.068 -0.128,0.151 -0.192,0.226 l -1.183,-0.04 c -6.046,-4.777 -13.389,-8.357 -20.36,-11.585 z"
       id="path40" /><path
       fill="#db6e28"
       transform="matrix(0.492308,0,0,0.492188,-6.10352e-5,0)"
       d="m 309.844,549.265 c 8.339,5.28 15.987,11.867 23.791,17.902 l 33.059,25.176 c 5.091,3.882 11.138,9.8 16.88,12.452 11.225,10.423 31.824,27.137 46.3,32.232 12.311,4.334 33.343,0.277 44.129,3.436 1.392,0.408 2.307,1.302 3.313,2.299 6.327,7.807 14.305,14.679 21.143,22.091 7.054,7.648 13.408,16.166 20.738,23.512 1.636,1.64 3.335,2.959 5.495,3.867 1.889,5.579 12.131,7.174 12.713,13.438 l -0.926,1.363 c -19.61,8.076 -30.041,8.07 -49.976,0.496 -4.7,-1.785 -9.45,-3.903 -14.303,-5.206 -0.177,-0.048 -0.355,-0.092 -0.533,-0.138 -10.962,-5.045 -21.289,-12.361 -31.468,-18.859 -6.843,1.453 -13.667,4.144 -20.333,6.294 -11.984,3.865 -24.054,7.437 -36.477,9.605 -27.443,4.79 -56.353,1.545 -84.034,0.273 -22.058,-1.015 -44.198,-1.509 -66.219,-3.132 -3.195,-1.773 -27.08,-29.526 -30.987,-34.254 7.953,-21.302 16.144,-42.414 23.774,-63.848 2.815,-0.454 5.291,-1.025 7.962,-2.043 0.736,-0.694 2.048,-1.269 2.936,-1.805 2.796,-0.116 4.663,-1.409 6.908,-2.894 8.88,-3.265 25.256,-15.009 32.583,-21.008 4.954,-3.414 10.65,-6.257 15.835,-9.356 6.126,-3.662 11.912,-7.717 17.697,-11.893 z"
       id="path41" /><path
       fill="#c0855a"
       transform="matrix(0.492308,0,0,0.492188,-6.10352e-5,0)"
       d="m 236.821,594.416 c 2.796,-0.116 4.663,-1.409 6.908,-2.894 l -0.515,2.146 c 6.423,20.959 18.692,37.396 29.556,55.99 -14.009,-13.944 -21.725,-24.18 -30.94,-41.56 -1.499,-2.828 -4.744,-11.04 -7.945,-11.877 0.736,-0.694 2.048,-1.269 2.936,-1.805 z"
       id="path42" /><path
       fill="#f39e41"
       transform="matrix(0.492308,0,0,0.492188,-6.10352e-5,0)"
       d="m 309.844,549.265 c 8.339,5.28 15.987,11.867 23.791,17.902 l 33.059,25.176 c 5.091,3.882 11.138,9.8 16.88,12.452 11.225,10.423 31.824,27.137 46.3,32.232 12.311,4.334 33.343,0.277 44.129,3.436 1.392,0.408 2.307,1.302 3.313,2.299 -6.107,6.391 -11.164,13.7 -16.741,20.548 l -11.809,0.088 c -8.297,-4.994 -15.762,-12.8 -23.573,-18.655 -17.883,-13.404 -37.71,-25.826 -57.919,-35.399 -9.194,-4.355 -18.681,-8.035 -27.958,-12.201 -7.966,-3.578 -15.878,-8.005 -24.182,-10.693 -9.112,-2.95 -31.304,-6.707 -40.436,-4.956 -10.897,2.088 -21.054,8.457 -31.484,12.174 l 0.515,-2.146 c 8.88,-3.265 25.256,-15.009 32.583,-21.008 4.954,-3.414 10.65,-6.257 15.835,-9.356 6.126,-3.662 11.912,-7.717 17.697,-11.893 z"
       id="path43" /><path
       fill="#fefcd0"
       transform="matrix(0.492308,0,0,0.492188,-6.10352e-5,0)"
       d="m 280.514,552.199 c 4.524,-1.95 8.833,-4.097 13.779,-4.66 5.144,-0.585 10.496,0.804 15.551,1.726 -5.785,4.176 -11.571,8.231 -17.697,11.893 -5.185,3.099 -10.881,5.942 -15.835,9.356 l -1.905,-0.056 c -4.439,2.259 -8.934,4.912 -13.539,6.781 q -15.858,8.658 -31.628,17.475 c -11.396,4.836 -24.512,5.392 -36.659,7.325 q -11.737,1.967 -23.114,5.461 c -12.797,3.87 -25.638,8.137 -38.237,12.603 -4.504,1.596 -8.597,5.134 -13.29,5.419 l -0.578,0.636 c 2.177,1.718 4.351,3.403 6.624,4.993 l -0.632,0.703 c -2.548,-1.602 -4.802,-3.098 -6.949,-5.233 1.732,-3.857 14.562,-8.869 18.82,-11.056 13.245,-6.799 26.199,-14.247 39.706,-20.52 12.688,-5.893 26.031,-10.561 38.983,-15.865 22.198,-9.092 44.193,-18.396 66.6,-26.981 z"
       id="path45" /><path
       fill="#fbe4a8"
       transform="matrix(0.492308,0,0,0.492188,-6.10352e-5,0)"
       d="m 260.868,577.239 c 0.106,-0.172 0.209,-0.345 0.318,-0.516 3.448,-5.398 6.832,-10.395 13.152,-12.346 1.932,-0.597 4.025,-1.025 5.684,-2.23 3.812,-2.771 6.469,-6.528 11.281,-7.589 -5.969,5.144 -11.4,10.282 -16.896,15.9 -4.439,2.259 -8.934,4.912 -13.539,6.781 z"
       id="path46" /><path
       fill="#fbe4a8"
       transform="matrix(0.492308,0,0,0.492188,-6.10352e-5,0)"
       d="m 280.514,552.199 c 4.524,-1.95 8.833,-4.097 13.779,-4.66 5.144,-0.585 10.496,0.804 15.551,1.726 -5.785,4.176 -11.571,8.231 -17.697,11.893 -5.185,3.099 -10.881,5.942 -15.835,9.356 l -1.905,-0.056 c 5.496,-5.618 10.927,-10.756 16.896,-15.9 0.171,0.592 0.129,1.033 0.105,1.643 -1.773,1.194 -3.539,2.385 -5.264,3.647 l 0.483,0.409 c 4.132,-1.331 8.346,-3.808 10.99,-7.354 1.078,-1.446 1.389,-2.13 1.045,-3.846 -4.914,-2.91 -12.137,2.901 -17.479,3.13 -0.223,0.01 -0.446,0.008 -0.669,0.012 z"
       id="path47" /><path
       fill="#fdce78"
       transform="matrix(0.492308,0,0,0.492188,-6.10352e-5,0)"
       d="m 274.407,570.458 1.905,0.056 c -7.327,5.999 -23.703,17.743 -32.583,21.008 -2.245,1.485 -4.112,2.778 -6.908,2.894 -0.888,0.536 -2.2,1.111 -2.936,1.805 -2.671,1.018 -5.147,1.589 -7.962,2.043 -7.63,21.434 -15.821,42.546 -23.774,63.848 -8.517,0.333 -17.102,1.634 -25.558,2.696 -3.115,-2.515 -7.552,-4.485 -11.052,-6.569 l -28.101,-16.756 c -3.731,-3.816 -9.847,-6.047 -14.084,-9.629 l 0.632,-0.703 c -2.273,-1.59 -4.447,-3.275 -6.624,-4.993 l 0.578,-0.636 c 4.693,-0.285 8.786,-3.823 13.29,-5.419 12.599,-4.466 25.44,-8.733 38.237,-12.603 q 11.377,-3.494 23.114,-5.461 c 12.147,-1.933 25.263,-2.489 36.659,-7.325 q 15.77,-8.817 31.628,-17.475 c 4.605,-1.869 9.1,-4.522 13.539,-6.781 z"
       id="path48" /><path
       fill="#db6e28"
       transform="matrix(0.492308,0,0,0.492188,-6.10352e-5,0)"
       d="m 399.408,351.202 c 4.854,-9.059 19.488,-32.644 27.609,-37.306 6.497,-3.731 57.618,-20.182 64.857,-21.098 3.823,-0.483 7.681,0.711 11.37,1.591 3.659,0.856 7.394,1.603 10.906,2.961 9.666,3.201 17.781,11.231 24.954,18.203 l 5.887,-4.958 c -0.96,2.701 -1.86,4.303 -3.957,6.246 1.777,6.046 12.097,16.273 15.542,23.267 1.414,3.066 2.753,6.03 3.675,9.284 -12.703,11.726 -26.135,22.636 -39.151,34.01 -5.928,5.179 -12.721,10.345 -17.715,16.446 -5.703,6.968 -9.262,15.567 -13.206,23.593 -5.451,11.09 -11.162,22.051 -16.44,33.227 -3.324,7.042 -6.154,14.707 -10.012,21.432 l -45.615,10.6 c -7.488,1.723 -15.371,3.963 -22.96,4.928 -3.25,0.853 -9.745,1.393 -12.063,3.456 l 0.317,0.394 c -1.117,0.451 -2.1,0.878 -3.32,0.967 -3.574,9.373 5.211,37.698 8.654,48.114 -10.426,-4.954 -21.965,-7.514 -32.476,-12.461 -13.699,-9.266 -36.637,-14.096 -45.833,-29.088 -4.379,-7.139 -2.73,-14.174 -0.799,-21.775 7.426,-17.804 33.802,-62.803 47.158,-76.386 9.368,-9.919 17.398,-21.662 25.78,-32.456 5.51,-7.656 10.712,-16.054 16.838,-23.191 z"
       id="path49" /><path
       fill="#f8b95c"
       transform="matrix(0.492308,0,0,0.492188,-6.10352e-5,0)"
       d="m 503.244,294.389 c 3.659,0.856 7.394,1.603 10.906,2.961 -4.887,-0.491 -15.556,-2.676 -19.603,0.674 -7.053,5.84 -11.191,21.597 -15.508,29.747 -4.471,8.439 -9.527,16.541 -13.912,25.044 l 4.415,8.128 c -3.575,-2.793 -7.086,-8.698 -9.778,-12.42 -6.918,-1.531 -13.56,-3.237 -20.104,-6.03 6.025,-0.104 11.684,2.501 17.74,2.607 1.682,0.029 4.955,-0.042 6.455,-0.795 5.946,-2.986 21.216,-40.365 29.819,-48.528 l 0.592,-0.554 c 3.038,-0.037 6.122,0.363 8.978,-0.834 z"
       id="path50" /><path
       fill="#f39e41"
       transform="matrix(0.492308,0,0,0.492188,-6.10352e-5,0)"
       d="m 356.79,406.849 c 9.368,-9.919 17.398,-21.662 25.78,-32.456 0.127,0.276 0.251,0.554 0.382,0.828 1.289,2.683 3.396,5.137 4.894,7.762 6.43,11.263 15.131,26.166 16.02,39.311 0.485,7.188 -1.642,14.154 -1.061,21.459 -20.534,-7.577 -32.767,-20.132 -46.015,-36.904 z"
       id="path51" /><path
       fill="#fbe4a8"
       transform="matrix(0.492308,0,0,0.492188,-6.10352e-5,0)"
       d="m 399.408,351.202 c 4.854,-9.059 19.488,-32.644 27.609,-37.306 6.497,-3.731 57.618,-20.182 64.857,-21.098 3.823,-0.483 7.681,0.711 11.37,1.591 -2.856,1.197 -5.94,0.797 -8.978,0.834 l -0.592,0.554 c -8.603,8.163 -23.873,45.542 -29.819,48.528 -1.5,0.753 -4.773,0.824 -6.455,0.795 -6.056,-0.106 -11.715,-2.711 -17.74,-2.607 -7.281,-2.858 -14.34,-6.235 -21.427,-9.537 -10.708,4.741 -11.155,11.808 -18.825,18.246 z"
       id="path52" /><path
       fill="#88341e"
       transform="matrix(0.492308,0,0,0.492188,-6.10352e-5,0)"
       d="m 391.08,454.251 c 2.834,7.943 -11.805,34.334 -10.994,44.194 -3.574,9.373 5.211,37.698 8.654,48.114 -10.426,-4.954 -21.965,-7.514 -32.476,-12.461 -13.699,-9.266 -36.637,-14.096 -45.833,-29.088 -4.379,-7.139 -2.73,-14.174 -0.799,-21.775 14.195,1.199 26.83,6.245 40.646,9.13 13.491,-12.877 26.964,-25.601 40.802,-38.114 z"
       id="path53" /><path
       fill="url(#gradient_5)"
       transform="matrix(0.492308,0,0,0.492188,-6.10352e-5,0)"
       d="m 475.584,369.214 c 5.681,3.639 11.228,4.217 17.824,3.419 23.172,-2.803 48.745,-13.937 63.168,-32.525 1.414,3.066 2.753,6.03 3.675,9.284 -12.703,11.726 -26.135,22.636 -39.151,34.01 -5.928,5.179 -12.721,10.345 -17.715,16.446 -5.703,6.968 -9.262,15.567 -13.206,23.593 -5.451,11.09 -11.162,22.051 -16.44,33.227 -3.324,7.042 -6.154,14.707 -10.012,21.432 l -45.615,10.6 c -7.488,1.723 -15.371,3.963 -22.96,4.928 -3.25,0.853 -9.745,1.393 -12.063,3.456 l 0.317,0.394 c -1.117,0.451 -2.1,0.878 -3.32,0.967 -0.811,-9.86 13.828,-36.251 10.994,-44.194 4.348,-5.328 22.171,-7.98 29.188,-10.77 19.954,-7.935 37.97,-22.353 45.521,-42.955 2.96,-8.075 4.478,-16.827 7.984,-24.671 l 0.324,-0.712 c 0.233,-1.923 1.004,-4.034 1.487,-5.929 z"
       id="path54"
       style="fill:url(#gradient_5)" /><path
       fill="#c4491b"
       transform="matrix(0.492308,0,0,0.492188,-6.10352e-5,0)"
       d="m 474.097,375.143 c -2.4,30.903 -10.352,73.526 -35.253,94.607 -6.348,5.375 -13.683,9.133 -21.118,12.747 -3.695,1.796 -21.105,8.274 -22.882,10.181 l 0.308,0.95 c -3.25,0.853 -9.745,1.393 -12.063,3.456 l 0.317,0.394 c -1.117,0.451 -2.1,0.878 -3.32,0.967 -0.811,-9.86 13.828,-36.251 10.994,-44.194 4.348,-5.328 22.171,-7.98 29.188,-10.77 19.954,-7.935 37.97,-22.353 45.521,-42.955 2.96,-8.075 4.478,-16.827 7.984,-24.671 z"
       id="path55" /><path
       fill="#fdce78"
       transform="matrix(0.492308,0,0,0.492188,-6.10352e-5,0)"
       d="m 841.232,779.11 c 9.008,-11.8 17.959,-23.822 26.302,-36.102 5.035,-7.412 9.549,-15.401 14.986,-22.505 0.83,1.014 0.647,1.238 2.031,1.392 3.184,0.355 7.06,-1.024 9.502,1.688 5.043,5.602 -0.328,44.676 3.12,53.619 -11.087,4.533 -45.637,18.993 -51.099,29.102 -1.268,-1.84 -1.788,-4.673 -2.642,-6.779 -1.833,-4.52 -4.383,-8.223 -7.362,-12.046 1.405,-2.962 3.35,-5.646 5.162,-8.369 z"
       id="path58" /><path
       fill="#51241e"
       transform="matrix(0.492308,0,0,0.492188,-6.10352e-5,0)"
       d="m 1098.32,451.98 c 0.6,0.815 1.37,1.401 1.24,2.446 -0.1,0.842 -0.31,1.366 -0.68,2.116 0.78,1.21 1.25,1.437 0.92,2.892 -1.09,4.739 -13.09,29.993 -16.43,33.127 -6.76,15.041 -34.2,75.825 -44.1,82.92 -13.6,9.747 -32.34,15.653 -46.575,24.87 1.706,-13.808 7.715,-31.784 11.055,-45.713 l 8.49,-36.812 c 1.26,-5.7 2.08,-11.503 3.58,-17.146 l 1.39,-1.649 c -1.02,-2.903 1.41,-7.069 1.6,-10.226 10.81,-9.327 38.89,-20.694 52.53,-25.941 6.95,-2.672 14.26,-4.851 20.91,-8.226 1.7,-0.488 2.77,-1.047 4.19,-2.103 l 1.47,0.32 z"
       id="path59" /><path
       fill="#88341e"
       transform="matrix(0.492308,0,0,0.492188,-6.10352e-5,0)"
       d="m 1098.32,451.98 c 0.6,0.815 1.37,1.401 1.24,2.446 -0.1,0.842 -0.31,1.366 -0.68,2.116 -1.84,1.214 -3.4,2.089 -5.53,2.675 -4.38,6.313 -67.29,29.75 -76.14,39.814 -1.02,-2.903 1.41,-7.069 1.6,-10.226 10.81,-9.327 38.89,-20.694 52.53,-25.941 6.95,-2.672 14.26,-4.851 20.91,-8.226 1.7,-0.488 2.77,-1.047 4.19,-2.103 l 1.47,0.32 z"
       id="path60" /><path
       fill="#72352d"
       transform="matrix(0.492308,0,0,0.492188,-6.10352e-5,0)"
       d="m 383.406,497.478 c 11.218,-0.361 21.434,7.387 30.903,12.626 2.165,1.198 4.509,2.845 6.86,3.581 4.819,3.193 10.098,5.825 14.775,9.185 3.185,1.158 10.6,4.906 13.638,4.648 3.783,-1.583 13.442,3.459 17.316,5.053 10.325,4.247 20.25,9.732 30.239,14.71 5.749,2.864 12.319,5.307 17.525,9.016 3.156,1.875 7.917,4.012 10.37,6.658 4.294,1.621 8.678,1.635 13.182,2.191 -0.231,0.074 -0.46,0.15 -0.692,0.221 -2.307,0.704 -3.912,0.874 -6.352,0.563 0.05,1.416 0.919,2.514 1.908,3.474 0.836,0.811 1.875,1.612 2.895,2.178 12.952,15.637 23.968,32.904 37.501,48.05 3.808,4.261 15.822,10.316 17.399,13.308 -2.486,-1.27 -5.156,-2.248 -7.738,-3.31 -8.994,-2.06 -18.036,-6.71 -26.589,-10.188 -6.741,-2.74 -13.987,-5.073 -20.44,-8.405 q -10.099,-4.14 -20.022,-8.685 c -0.35,-0.067 -0.702,-0.126 -1.047,-0.218 -7.489,-2 -14.966,-5.961 -22.195,-8.877 l -46.518,-18.68 c -16.051,-6.576 -39,-13.826 -53.217,-22.33 -2.026,-1.212 -3.264,-3.676 -4.367,-5.688 -3.443,-10.416 -12.228,-38.741 -8.654,-48.114 1.22,-0.089 2.203,-0.516 3.32,-0.967 z"
       id="path61" /><path
       fill="url(#gradient_6)"
       transform="matrix(0.492308,0,0,0.492188,-6.10352e-5,0)"
       d="m 435.944,522.87 c 3.185,1.158 10.6,4.906 13.638,4.648 3.783,-1.583 13.442,3.459 17.316,5.053 10.325,4.247 20.25,9.732 30.239,14.71 5.749,2.864 12.319,5.307 17.525,9.016 3.156,1.875 7.917,4.012 10.37,6.658 4.294,1.621 8.678,1.635 13.182,2.191 -0.231,0.074 -0.46,0.15 -0.692,0.221 -2.307,0.704 -3.912,0.874 -6.352,0.563 0.05,1.416 0.919,2.514 1.908,3.474 0.836,0.811 1.875,1.612 2.895,2.178 12.952,15.637 23.968,32.904 37.501,48.05 3.808,4.261 15.822,10.316 17.399,13.308 -2.486,-1.27 -5.156,-2.248 -7.738,-3.31 -8.994,-2.06 -18.036,-6.71 -26.589,-10.188 -6.741,-2.74 -13.987,-5.073 -20.44,-8.405 q -10.099,-4.14 -20.022,-8.685 c -3.023,-3.316 -7.954,-6.059 -11.629,-8.704 -7.842,-5.642 -15.733,-11.325 -22.824,-17.912 -7.889,-7.327 -13.775,-16.416 -20.648,-24.648 -8.038,-9.628 -16.864,-18.674 -25.039,-28.218 z"
       id="path62"
       style="fill:url(#gradient_6)" /><path
       fill="#c0855a"
       transform="matrix(0.492308,0,0,0.492188,-6.10352e-5,0)"
       d="m 514.662,556.297 c 3.156,1.875 7.917,4.012 10.37,6.658 -1.824,1.443 -2.256,2.258 -2.557,4.612 -0.105,0.824 -0.166,1.656 -0.23,2.483 -2.992,-4.4 -5.276,-8.977 -7.583,-13.753 z"
       id="path63" /><path
       fill="url(#gradient_7)"
       transform="matrix(0.492308,0,0,0.492188,-6.10352e-5,0)"
       d="m 435.944,522.87 c 3.185,1.158 10.6,4.906 13.638,4.648 8.463,7.272 14.536,18.165 21.275,27.022 15.814,20.784 41.954,45.316 66.017,55.3 l -0.006,0.796 -0.762,0.401 q -10.099,-4.14 -20.022,-8.685 c -3.023,-3.316 -7.954,-6.059 -11.629,-8.704 -7.842,-5.642 -15.733,-11.325 -22.824,-17.912 -7.889,-7.327 -13.775,-16.416 -20.648,-24.648 -8.038,-9.628 -16.864,-18.674 -25.039,-28.218 z"
       id="path64"
       style="fill:url(#gradient_7)" /><path
       fill="#88341e"
       transform="matrix(0.492308,0,0,0.492188,-6.10352e-5,0)"
       d="m 522.245,570.05 c 0.064,-0.827 0.125,-1.659 0.23,-2.483 0.301,-2.354 0.733,-3.169 2.557,-4.612 4.294,1.621 8.678,1.635 13.182,2.191 -0.231,0.074 -0.46,0.15 -0.692,0.221 -2.307,0.704 -3.912,0.874 -6.352,0.563 0.05,1.416 0.919,2.514 1.908,3.474 0.836,0.811 1.875,1.612 2.895,2.178 12.952,15.637 23.968,32.904 37.501,48.05 3.808,4.261 15.822,10.316 17.399,13.308 -2.486,-1.27 -5.156,-2.248 -7.738,-3.31 -5.72,-4.397 -12.079,-7.772 -17.768,-12.318 -11.937,-9.537 -35.932,-34.611 -43.122,-47.262 z"
       id="path65" /><path
       fill="#72352d"
       transform="matrix(0.492308,0,0,0.492188,-6.10352e-5,0)"
       d="m 647.996,511.531 c 4.15,3.368 61.381,68.826 62.332,71.335 l 1.023,1.244 c 3.578,0.599 7.392,1.29 11.018,0.731 10.723,0.911 27.617,3.91 37.758,1.14 l 4.45,1.738 c 5.675,-1.738 11.051,-4.311 16.729,-5.976 -4.208,2.224 -21.187,12.357 -23.808,15.478 1.038,-0.027 0.597,0.166 1.155,-0.315 5.363,-4.623 18.46,-8.977 25.331,-11.225 0.656,0.132 1.141,0.196 1.725,0.537 -10.979,4.099 -26.369,8.605 -33.653,18.261 -0.227,0.108 -0.453,0.22 -0.682,0.325 -0.31,0.142 -0.625,0.273 -0.934,0.417 -4.212,1.962 -10.679,-0.246 -15.097,-1.181 3.083,4.794 1.038,13.488 -0.103,18.725 -1.366,6.276 -5.034,14.763 -4.773,21.03 l 0.705,0.572 1.088,-0.343 c -2.026,5.13 -13.718,30.989 -17.014,32.819 l -0.802,-0.577 c -0.483,1.621 -0.71,2.359 -2.319,3.125 -1.737,0.826 -4.511,0.033 -6.325,-0.319 0.19,1.086 1.414,1.821 2.222,2.564 -8.885,-1.754 -27.115,-10.617 -36.162,-14.276 l -43.366,-17.299 c -12.599,-4.997 -26.344,-9.495 -37.621,-17.121 -1.577,-2.992 -13.591,-9.047 -17.399,-13.308 -13.533,-15.146 -24.549,-32.413 -37.501,-48.05 -1.02,-0.566 -2.059,-1.367 -2.895,-2.178 -0.989,-0.96 -1.858,-2.058 -1.908,-3.474 2.44,0.311 4.045,0.141 6.352,-0.563 0.232,-0.071 0.461,-0.147 0.692,-0.221 5.382,0.613 10.865,1.41 16.272,1.64 q 6.436,-4.385 12.79,-8.887 c 20.103,-11.397 38.817,-28.014 58.849,-40.189 6.944,-3.178 14.453,-4.567 21.871,-6.179 z"
       id="path67" /><path
       fill="#f39e41"
       transform="matrix(0.492308,0,0,0.492188,-6.10352e-5,0)"
       d="m 554.486,566.786 q 6.436,-4.385 12.79,-8.887 c 4.021,2.541 34.304,4.959 41.175,6.039 21.631,3.402 41.999,10.306 63.338,14.581 12.73,2.55 25.65,3.05 38.539,4.347 l 1.023,1.244 c 3.578,0.599 7.392,1.29 11.018,0.731 10.723,0.911 27.617,3.91 37.758,1.14 l 4.45,1.738 c 5.675,-1.738 11.051,-4.311 16.729,-5.976 -4.208,2.224 -21.187,12.357 -23.808,15.478 1.038,-0.027 0.597,0.166 1.155,-0.315 5.363,-4.623 18.46,-8.977 25.331,-11.225 0.656,0.132 1.141,0.196 1.725,0.537 -10.979,4.099 -26.369,8.605 -33.653,18.261 -0.227,0.108 -0.453,0.22 -0.682,0.325 -0.31,0.142 -0.625,0.273 -0.934,0.417 -4.212,1.962 -10.679,-0.246 -15.097,-1.181 -13.837,-2.945 -27.621,-6.822 -41.402,-10.101 q -32.22,-7.59 -64.565,-14.626 c -24.991,-5.645 -49.184,-11.375 -74.89,-12.527 z"
       id="path68" /><path
       fill="#d9812d"
       transform="matrix(0.492308,0,0,0.492188,-6.10352e-5,0)"
       d="m 711.351,584.11 c 3.578,0.599 7.392,1.29 11.018,0.731 10.723,0.911 27.617,3.91 37.758,1.14 l 4.45,1.738 c -3.095,0.669 -6.301,1.789 -9.432,2.13 -7.687,0.837 -29.975,-0.641 -37.88,-2.167 -3.256,-0.629 -4.038,-0.752 -5.914,-3.572 z"
       id="path69" /><path
       fill="url(#gradient_8)"
       transform="matrix(0.492308,0,0,0.492188,-6.10352e-5,0)"
       d="m 535.973,571.582 c 12.37,4.484 26.962,14.638 38.315,21.734 18.57,11.605 37.025,23.452 55.871,34.605 18.251,10.801 36.938,20.873 55.404,31.299 9.679,5.465 19.711,10.747 28.881,17.046 -0.483,1.621 -0.71,2.359 -2.319,3.125 -1.737,0.826 -4.511,0.033 -6.325,-0.319 0.19,1.086 1.414,1.821 2.222,2.564 -8.885,-1.754 -27.115,-10.617 -36.162,-14.276 l -43.366,-17.299 c -12.599,-4.997 -26.344,-9.495 -37.621,-17.121 -1.577,-2.992 -13.591,-9.047 -17.399,-13.308 -13.533,-15.146 -24.549,-32.413 -37.501,-48.05 z"
       id="path70"
       style="fill:url(#gradient_8)" /><path
       fill="#88341e"
       transform="matrix(0.492308,0,0,0.492188,-6.10352e-5,0)"
       d="m 647.996,511.531 c 4.15,3.368 61.381,68.826 62.332,71.335 -12.889,-1.297 -25.809,-1.797 -38.539,-4.347 -21.339,-4.275 -41.707,-11.179 -63.338,-14.581 -6.871,-1.08 -37.154,-3.498 -41.175,-6.039 20.103,-11.397 38.817,-28.014 58.849,-40.189 6.944,-3.178 14.453,-4.567 21.871,-6.179 z"
       id="path71" /><path
       fill="#471a11"
       transform="matrix(0.492308,0,0,0.492188,-6.10352e-5,0)"
       d="m 1004.53,506.948 c 3.73,-2.137 7.44,-4.355 11.29,-6.268 -1.5,5.643 -2.32,11.446 -3.58,17.146 l -8.49,36.812 c -3.34,13.929 -9.349,31.905 -11.055,45.713 -22.084,11.073 -44.41,21.577 -66.623,32.379 -12.349,6.006 -24.482,12.519 -36.929,18.311 -9.77,4.858 -38.373,7.732 -50.556,9.485 l -65.634,9.646 c -17.378,2.456 -35.614,3.734 -52.678,7.6 -4.291,0.972 -8.085,2.702 -12.253,3.864 -0.808,-0.743 -2.032,-1.478 -2.222,-2.564 1.814,0.352 4.588,1.145 6.325,0.319 1.609,-0.766 1.836,-1.504 2.319,-3.125 l 0.802,0.577 c 3.296,-1.83 14.988,-27.689 17.014,-32.819 l -1.088,0.343 -0.705,-0.572 c -0.261,-6.267 3.407,-14.754 4.773,-21.03 1.141,-5.237 3.186,-13.931 0.103,-18.725 4.418,0.935 10.885,3.143 15.097,1.181 0.309,-0.144 0.624,-0.275 0.934,-0.417 0.229,-0.105 0.455,-0.217 0.682,-0.325 7.284,-9.656 22.674,-14.162 33.653,-18.261 -0.584,-0.341 -1.069,-0.405 -1.725,-0.537 -6.871,2.248 -19.968,6.602 -25.331,11.225 -0.558,0.481 -0.117,0.288 -1.155,0.315 2.621,-3.121 19.6,-13.254 23.808,-15.478 4.432,-1.284 14.142,-7.376 17.82,-10.335 l 0.123,-0.768 c 11.119,-2.195 22.747,-3.121 34.003,-4.584 5.355,-1.71 12.381,-1.877 18.071,-2.711 24.927,-3.653 50.483,-8.06 75.727,-5.868 13.221,-10.089 27.177,-20.137 41.371,-28.82 l 0.64,-1.286 c 9.064,-2.575 23.419,-17.989 35.469,-20.423 z"
       id="path72" /><path
       fill="#88341e"
       transform="matrix(0.492308,0,0,0.492188,-6.10352e-5,0)"
       d="m 852.522,573.795 c 2.671,0.204 5.756,-0.302 8.451,-0.5 2.815,0.031 5.511,0.113 8.304,0.518 l 0.54,1.408 c -11.435,1.852 -56.454,7.226 -66.662,4.502 12.008,-3.61 35.865,-4.58 49.367,-5.928 z"
       id="path73" /><path
       fill="#a84827"
       transform="matrix(0.492308,0,0,0.492188,-6.10352e-5,0)"
       d="m 735.343,604.04 c 4.418,0.935 10.885,3.143 15.097,1.181 0.309,-0.144 0.624,-0.275 0.934,-0.417 0.229,-0.105 0.455,-0.217 0.682,-0.325 -6.544,13.036 -14.18,26.114 -19.796,39.545 l -1.088,0.343 -0.705,-0.572 c -0.261,-6.267 3.407,-14.754 4.773,-21.03 1.141,-5.237 3.186,-13.931 0.103,-18.725 z"
       id="path74" /><path
       fill="#db6e28"
       transform="matrix(0.492308,0,0,0.492188,-6.10352e-5,0)"
       d="m 833.252,566.056 c 0.164,0.052 0.327,0.111 0.493,0.158 6.06,1.729 12.068,-1.615 18.045,-1.518 3.295,0.054 6.154,1.824 9.66,1.824 4.624,10e-4 9.53,1.579 13.666,3.552 l 0.055,0.373 c -4.095,0.429 -20.379,1.088 -22.542,2.861 l -0.107,0.489 c -13.502,1.348 -37.359,2.318 -49.367,5.928 -5.48,2.188 -11.682,5.327 -17.446,6.495 -0.584,-0.341 -1.069,-0.405 -1.725,-0.537 -6.871,2.248 -19.968,6.602 -25.331,11.225 -0.558,0.481 -0.117,0.288 -1.155,0.315 2.621,-3.121 19.6,-13.254 23.808,-15.478 4.432,-1.284 14.142,-7.376 17.82,-10.335 l 0.123,-0.768 c 11.119,-2.195 22.747,-3.121 34.003,-4.584 z"
       id="path75" /><path
       fill="#c4491b"
       transform="matrix(0.492308,0,0,0.492188,-6.10352e-5,0)"
       d="m 833.252,566.056 c 5.355,-1.71 12.381,-1.877 18.071,-2.711 24.927,-3.653 50.483,-8.06 75.727,-5.868 l -15.183,11.527 c -2.219,2.025 -4.367,3.975 -6.878,5.639 -11.731,-0.143 -23.467,-0.356 -35.172,0.578 l -0.54,-1.408 c -2.793,-0.405 -5.489,-0.487 -8.304,-0.518 -2.695,0.198 -5.78,0.704 -8.451,0.5 l 0.107,-0.489 c 2.163,-1.773 18.447,-2.432 22.542,-2.861 l -0.055,-0.373 c -4.136,-1.973 -9.042,-3.551 -13.666,-3.552 -3.506,0 -6.365,-1.77 -9.66,-1.824 -5.977,-0.097 -11.985,3.247 -18.045,1.518 -0.166,-0.047 -0.329,-0.106 -0.493,-0.158 z"
       id="path76" /><path
       fill="#88341e"
       transform="matrix(0.492308,0,0,0.492188,-6.10352e-5,0)"
       d="m 860.973,573.295 c 4.601,-1.189 10.268,-1.133 15.026,-1.455 11.899,-0.807 24.073,-1.083 35.868,-2.836 -2.219,2.025 -4.367,3.975 -6.878,5.639 -11.731,-0.143 -23.467,-0.356 -35.172,0.578 l -0.54,-1.408 c -2.793,-0.405 -5.489,-0.487 -8.304,-0.518 z"
       id="path77" /><path
       fill="#72352d"
       transform="matrix(0.492308,0,0,0.492188,-6.10352e-5,0)"
       d="m 985.428,280.493 c 2.245,4.264 22.082,40.964 22.062,41.454 l -0.36,-0.455 -0.01,0.851 -0.27,1.259 2.93,6.774 c 0.98,2.722 2.02,9.408 3.96,10.931 l 0.86,-0.48 c 2.33,0.618 9.73,12.17 11.89,14.886 24.31,30.474 49.85,59.704 69.13,93.855 0.58,1.038 0.81,1.774 0.82,2.967 -1.42,1.056 -2.49,1.615 -4.19,2.103 -6.65,3.375 -13.96,5.554 -20.91,8.226 -13.64,5.247 -41.72,16.614 -52.53,25.941 -0.19,3.157 -2.62,7.323 -1.6,10.226 l -1.39,1.649 c -3.85,1.913 -7.56,4.131 -11.29,6.268 -12.05,2.434 -26.405,17.848 -35.469,20.423 l -0.64,1.286 c -14.194,8.683 -28.15,18.731 -41.371,28.82 -25.244,-2.192 -50.8,2.215 -75.727,5.868 -5.69,0.834 -12.716,1.001 -18.071,2.711 -11.256,1.463 -22.884,2.389 -34.003,4.584 l 0.27,-1.16 c 2.153,-2.362 5.693,-4.837 8.718,-5.907 6.418,-5.069 14.581,-9.067 21.472,-13.597 11.71,-7.697 24.317,-15.519 34.92,-24.675 4.691,-4.05 8.757,-8.85 13.262,-13.128 l 0.586,-0.849 c -0.59,-10.492 -5.541,-23.762 -7.438,-34.586 l 0.113,-4.411 c 3.208,-10.917 27.392,-31.521 36.086,-40.624 q 3.148,-4.287 6.215,-8.632 c 5.673,-19.175 10.417,-38.643 16.172,-57.832 4.722,-15.746 12.215,-32.772 14.024,-49.043 l 1.614,-6.987 c 9.3,-8.26 20.575,-14.532 30.424,-22.189 3.292,-0.714 7.185,-4.456 9.741,-6.527 z"
       id="path78" /><path
       fill="#a84827"
       transform="matrix(0.492308,0,0,0.492188,-6.10352e-5,0)"
       d="m 828.777,561.671 c 0.339,0 0.679,0.013 1.018,10e-4 4.363,-0.159 7.637,2.777 11.14,2.141 9.613,-1.746 19.491,-3.093 29.188,-4.276 5.095,-0.621 10.894,-0.714 15.788,-2.069 8.345,-2.312 19.366,-2.292 28.045,-1.944 3.762,0.151 8.386,0.883 12.088,0.303 2.795,-0.438 35.465,-24.026 40.353,-27.379 0.9,-0.618 1.531,-1.042 2.664,-1.077 l -0.64,1.286 c -14.194,8.683 -28.15,18.731 -41.371,28.82 -25.244,-2.192 -50.8,2.215 -75.727,5.868 -5.69,0.834 -12.716,1.001 -18.071,2.711 -11.256,1.463 -22.884,2.389 -34.003,4.584 l 0.27,-1.16 c 2.153,-2.362 5.693,-4.837 8.718,-5.907 6.839,0.771 36.595,-5.897 45.806,-7.449 l 7.979,-1.043 c -8.54,3.564 -23.684,4.713 -33.245,6.59 z"
       id="path79" /><path
       fill="#471a11"
       transform="matrix(0.492308,0,0,0.492188,-6.10352e-5,0)"
       d="m 1018.81,488.805 c -3.48,2.289 -2.46,9.551 -6.82,12.034 -1.39,0.795 -2.99,0.673 -4.48,0.253 -1.79,-0.504 -3.36,-1.045 -4.32,-2.654 -0.34,-8.032 0.63,-16.157 0.72,-24.204 0.12,-10.193 -0.54,-20.422 -0.22,-30.605 l 1.94,-56.634 c 0.27,-8.525 0.93,-17.011 0.85,-25.548 -0.07,-8.529 0.67,-18.081 -0.41,-26.427 -0.38,-2.953 -3.16,-11.375 -1.93,-13.608 1.5,0.535 1.84,0.941 2.71,2.19 l 2.93,6.774 c 0.98,2.722 2.02,9.408 3.96,10.931 l 0.86,-0.48 c 2.33,0.618 9.73,12.17 11.89,14.886 24.31,30.474 49.85,59.704 69.13,93.855 0.58,1.038 0.81,1.774 0.82,2.967 -1.42,1.056 -2.49,1.615 -4.19,2.103 -6.65,3.375 -13.96,5.554 -20.91,8.226 -13.64,5.247 -41.72,16.614 -52.53,25.941 z"
       id="path80" /><path
       fill="#72352d"
       transform="matrix(0.492308,0,0,0.492188,-6.10352e-5,0)"
       d="m 1009.78,330.376 c 0.98,2.722 2.02,9.408 3.96,10.931 l 0.86,-0.48 c -2.43,9.973 4.19,45.498 1,55.228 l -0.29,-0.013 c -2.09,-7.178 -1.14,-20.375 -1.65,-28.346 -0.81,-12.436 -2.37,-24.947 -3.88,-37.32 z"
       id="path81" /><path
       fill="#51241e"
       transform="matrix(0.492308,0,0,0.492188,-6.10352e-5,0)"
       d="m 913.453,423.071 c 2.342,0.263 3.035,0.124 4.576,2.078 5.977,7.578 9.849,16.659 15.871,24.355 8.149,7.539 14.085,15.117 21.103,23.654 3.679,4.476 7.85,8.627 11.158,13.39 l 16.955,18.178 c -13.86,6.709 -28.722,13.906 -43.412,18.532 -4.901,1.11 -31.377,12.068 -33.79,15.985 -2.411,3.914 0.018,6.684 -5.458,8.836 l -0.941,-0.173 c -1.064,-1.877 -0.591,-4.172 -0.063,-6.186 0.283,-1.076 0.639,-2.133 1,-3.184 l -0.542,-1.565 -0.57,0.078 c -0.437,2.765 -0.579,7.058 -3.091,8.743 -2.209,1.482 -7,2.314 -9.625,1.805 l 2.063,-0.704 0.027,-0.737 c -11.914,2.394 -23.453,5.19 -34.671,9.968 -9.211,1.552 -38.967,8.22 -45.806,7.449 6.418,-5.069 14.581,-9.067 21.472,-13.597 11.71,-7.697 24.317,-15.519 34.92,-24.675 4.691,-4.05 8.757,-8.85 13.262,-13.128 l 0.586,-0.849 c -0.59,-10.492 -5.541,-23.762 -7.438,-34.586 l 0.113,-4.411 c 3.208,-10.917 27.392,-31.521 36.086,-40.624 q 3.148,-4.287 6.215,-8.632 z"
       id="path82" /><path
       fill="#72352d"
       transform="matrix(0.492308,0,0,0.492188,-6.10352e-5,0)"
       d="m 907.238,431.703 c 3.052,-0.97 4.697,-3.899 6.139,-6.68 0.988,8.354 -4.912,14.412 -4.637,22.146 -8.104,13.395 -13.486,30.551 -18.529,45.327 -1.861,5.456 -3.439,11.584 -5.912,16.79 -0.431,0.908 -0.784,1.586 -1.777,1.897 -0.157,0.049 -0.315,0.094 -0.476,0.129 -1.138,0.241 -2.413,0.081 -3.569,0.012 -0.59,-10.492 -5.541,-23.762 -7.438,-34.586 l 0.113,-4.411 c 3.208,-10.917 27.392,-31.521 36.086,-40.624 z"
       id="path83" /><path
       fill="url(#gradient_9)"
       transform="matrix(0.492308,0,0,0.492188,-6.10352e-5,0)"
       d="m 782.279,379.854 c 4.549,-5.599 18.35,-13.609 24.991,-18.333 15.968,-11.36 31.597,-23.434 48.162,-33.919 4.08,-2.583 7.84,-4.376 12.475,-5.71 8.705,-2.506 65.905,-13.473 72.024,-12.103 l 0.496,1.435 0.793,0.723 0.219,-0.617 c 1.462,1.523 1.738,2.841 2.21,4.866 -1.809,16.271 -9.302,33.297 -14.024,49.043 -5.755,19.189 -10.499,38.657 -16.172,57.832 q -3.067,4.345 -6.215,8.632 c -8.694,9.103 -32.878,29.707 -36.086,40.624 l -0.113,4.411 c 1.897,10.824 6.848,24.094 7.438,34.586 l -0.586,0.849 c -4.505,4.278 -8.571,9.078 -13.262,13.128 -10.603,9.156 -23.21,16.978 -34.92,24.675 -6.891,4.53 -15.054,8.528 -21.472,13.597 -3.025,1.07 -6.565,3.545 -8.718,5.907 l -0.27,1.16 -0.123,0.768 c -3.678,2.959 -13.388,9.051 -17.82,10.335 -5.678,1.665 -11.054,4.238 -16.729,5.976 l -4.45,-1.738 c -10.141,2.77 -27.035,-0.229 -37.758,-1.14 -3.626,0.559 -7.44,-0.132 -11.018,-0.731 l -1.023,-1.244 c -0.951,-2.509 -58.182,-67.967 -62.332,-71.335 -7.418,1.612 -14.927,3.001 -21.871,6.179 1.824,-9.786 9.665,-39.143 15.308,-46.293 6.708,-8.501 44.665,-27.86 55.423,-34.032 10.174,-5.837 20.111,-12.184 30.438,-17.74 6.774,-3.645 18.797,-7.733 23.444,-13.649 2.193,-7.007 4.339,-14.047 7.616,-20.636 l 1.115,-1.044 c 1.719,-2.204 4.2,-2.279 6.79,-2.701 5.283,-0.544 10.882,-0.377 16.02,-1.761 z"
       id="path84"
       style="fill:url(#gradient_9)" /><path
       fill="#88341e"
       transform="matrix(0.492308,0,0,0.492188,-6.10352e-5,0)"
       d="m 746.494,444.203 -0.237,-0.685 c 0.198,-0.298 0.475,-0.739 0.721,-1.027 1.977,-2.308 7.277,-6.85 10.219,-7.124 0.189,0.927 0.527,1.294 -0.015,2.118 -1.468,2.231 -4.361,5.639 -7.029,6.43 -1.13,0.335 -2.487,0.292 -3.659,0.288 z"
       id="path85" /><path
       fill="#fcfdfe"
       transform="matrix(0.492308,0,0,0.492188,-6.10352e-5,0)"
       d="m 817.061,394.226 c 1.683,-0.33 2.767,-0.573 4.405,0.025 l -0.06,1.099 c -3.406,3.544 -7.95,5.326 -12.512,6.86 -1.721,0.304 -3.087,0.741 -4.705,-0.16 l -0.197,-1.241 c 0.316,-0.497 0.491,-0.822 0.865,-1.249 3.144,-3.578 7.626,-5.028 12.204,-5.334 z"
       id="path86" /><path
       fill="#db6e28"
       transform="matrix(0.492308,0,0,0.492188,-6.10352e-5,0)"
       d="m 735.514,442.741 c 3.771,-2.678 14.873,-9.745 19.673,-9.136 1.232,0.156 1.312,0.822 2.01,1.762 -2.942,0.274 -8.242,4.816 -10.219,7.124 -0.246,0.288 -0.523,0.729 -0.721,1.027 l 0.237,0.685 c -3.595,0.114 -7.429,-0.852 -10.98,-1.462 z"
       id="path87" /><path
       fill="#88341e"
       transform="matrix(0.492308,0,0,0.492188,-6.10352e-5,0)"
       d="m 751.442,406.384 c 4.91,-2.988 12.742,-3.616 18.363,-5.182 5.542,-1.544 27.868,-12.053 31.321,-11.291 -0.185,1.382 0.019,2.557 -1.1,3.474 -6.355,5.211 -39.3,12.8 -48.584,12.999 z"
       id="path88" /><path
       fill="#fbe4a8"
       transform="matrix(0.492308,0,0,0.492188,-6.10352e-5,0)"
       d="m 767.528,439.89 c 3.659,-0.166 8.499,2.16 12.008,3.324 -4.324,4.289 -7.509,6.832 -13.238,8.98 -3.465,1.647 -4.514,2.08 -8.222,0.853 -1.096,-0.363 -1.52,0.079 -2.573,0.477 l -0.312,-1.198 c 1.919,-5.622 7.57,-9.451 12.337,-12.436 z"
       id="path89" /><path
       fill="#db6e28"
       transform="matrix(0.492308,0,0,0.492188,-6.10352e-5,0)"
       d="m 782.279,379.854 c 0.686,1.782 2.019,3.897 1.469,5.729 3.995,0.524 15.505,0.467 17.968,3.114 l -0.59,1.214 c -3.453,-0.762 -25.779,9.747 -31.321,11.291 -5.621,1.566 -13.453,2.194 -18.363,5.182 l -0.704,-0.388 c 2.193,-7.007 4.339,-14.047 7.616,-20.636 l 1.115,-1.044 c 1.719,-2.204 4.2,-2.279 6.79,-2.701 5.283,-0.544 10.882,-0.377 16.02,-1.761 z"
       id="path90" /><path
       fill="#f8b95c"
       transform="matrix(0.492308,0,0,0.492188,-6.10352e-5,0)"
       d="m 782.279,379.854 c 0.686,1.782 2.019,3.897 1.469,5.729 q -12.119,-1.03 -24.279,-1.267 c 1.719,-2.204 4.2,-2.279 6.79,-2.701 5.283,-0.544 10.882,-0.377 16.02,-1.761 z"
       id="path91" /><path
       fill="#f8b95c"
       transform="matrix(0.492308,0,0,0.492188,-6.10352e-5,0)"
       d="m 940.427,311.224 0.793,0.723 0.219,-0.617 c 1.462,1.523 1.738,2.841 2.21,4.866 -1.809,16.271 -9.302,33.297 -14.024,49.043 -5.755,19.189 -10.499,38.657 -16.172,57.832 q -3.067,4.345 -6.215,8.632 c -8.694,9.103 -32.878,29.707 -36.086,40.624 l -0.113,4.411 c -1.986,-0.215 -4.031,-0.754 -5.999,-1.133 q -10.096,-2.504 -20.451,-3.494 c -1.079,-0.182 -1.864,-0.255 -2.951,-0.059 -0.316,0.057 -0.632,0.121 -0.948,0.181 l -0.529,-1.874 -0.329,1.149 c 2.23,-0.233 3.218,-0.154 5.09,-1.452 l -0.515,-1.419 q 6.164,-2.163 12.21,-4.637 c 11.515,-4.765 20.439,-14.564 28.978,-23.369 6.86,-7.075 14.306,-14.547 19.855,-22.711 14.763,-21.727 21.528,-54.444 28.06,-79.738 2.203,-8.535 3.2,-18.321 6.668,-26.401 0.08,-0.187 0.166,-0.371 0.249,-0.557 z"
       id="path92" /><path
       fill="#f39e41"
       transform="matrix(0.492308,0,0,0.492188,-6.10352e-5,0)"
       d="m 844.922,470.056 c 8.594,0.891 17.778,0.672 26.23,2.271 l -0.113,4.411 c -1.986,-0.215 -4.031,-0.754 -5.999,-1.133 q -10.096,-2.504 -20.451,-3.494 c -1.079,-0.182 -1.864,-0.255 -2.951,-0.059 -0.316,0.057 -0.632,0.121 -0.948,0.181 l -0.529,-1.874 -0.329,1.149 c 2.23,-0.233 3.218,-0.154 5.09,-1.452 z"
       id="path93" /><path
       fill="#88341e"
       transform="matrix(0.492308,0,0,0.492188,-6.10352e-5,0)"
       d="m 844.589,472.111 q 10.355,0.99 20.451,3.494 c 1.968,0.379 4.013,0.918 5.999,1.133 1.897,10.824 6.848,24.094 7.438,34.586 l -0.586,0.849 c -4.505,4.278 -8.571,9.078 -13.262,13.128 -10.603,9.156 -23.21,16.978 -34.92,24.675 -6.891,4.53 -15.054,8.528 -21.472,13.597 -3.025,1.07 -6.565,3.545 -8.718,5.907 l -0.27,1.16 -0.123,0.768 c -3.678,2.959 -13.388,9.051 -17.82,10.335 -5.678,1.665 -11.054,4.238 -16.729,5.976 l -4.45,-1.738 c -10.141,2.77 -27.035,-0.229 -37.758,-1.14 -3.626,0.559 -7.44,-0.132 -11.018,-0.731 l -1.023,-1.244 c -0.951,-2.509 -58.182,-67.967 -62.332,-71.335 l 8.528,-1.652 c 32.622,-4.648 65.491,-11.956 97.552,-19.483 19.08,-4.48 38.174,-9.841 57.403,-13.57 10.924,-2.118 22.069,-3.338 33.11,-4.715 z"
       id="path94" /><path
       fill="#c4491b"
       transform="matrix(0.492308,0,0,0.492188,-6.10352e-5,0)"
       d="m 798.392,566.85 1.148,0.904 c -0.595,0.981 -1.189,1.571 -2.063,2.311 0.617,0.257 1.107,0.468 1.772,0.575 l -0.123,0.768 c -5.713,0.877 -9.657,6.372 -15.738,5.055 4.904,-3.334 9.996,-6.435 15.004,-9.613 z"
       id="path95" /><path
       fill="#db6e28"
       transform="matrix(0.492308,0,0,0.492188,-6.10352e-5,0)"
       d="m 799.126,571.408 c -3.678,2.959 -13.388,9.051 -17.82,10.335 -5.678,1.665 -11.054,4.238 -16.729,5.976 l -4.45,-1.738 q 11.908,-4.08 23.261,-9.518 c 6.081,1.317 10.025,-4.178 15.738,-5.055 z"
       id="path96" /><path
       fill="url(#gradient_10)"
       transform="matrix(0.492308,0,0,0.492188,-6.10352e-5,0)"
       d="m 865.04,475.605 c 1.968,0.379 4.013,0.918 5.999,1.133 1.897,10.824 6.848,24.094 7.438,34.586 l -0.586,0.849 c -4.505,4.278 -8.571,9.078 -13.262,13.128 -10.603,9.156 -23.21,16.978 -34.92,24.675 -6.891,4.53 -15.054,8.528 -21.472,13.597 -3.025,1.07 -6.565,3.545 -8.718,5.907 l -0.27,1.16 c -0.665,-0.107 -1.155,-0.318 -1.772,-0.575 0.874,-0.74 1.468,-1.33 2.063,-2.311 l -1.148,-0.904 c 1.916,-3.169 9.104,-6.941 12.398,-9.294 11.807,-8.43 53.273,-37.185 59.291,-47.045 3.832,-6.279 -3.366,-27.386 -5.041,-34.906 z"
       id="path97"
       style="fill:url(#gradient_10)" /><path
       fill="#c0855a"
       transform="matrix(0.492308,0,0,0.492188,-6.10352e-5,0)"
       d="m 647.996,511.531 8.528,-1.652 c 17.976,17.404 33.601,37.84 49.953,56.799 5.158,5.979 10.219,12.704 15.892,18.163 -3.626,0.559 -7.44,-0.132 -11.018,-0.731 l -1.023,-1.244 c -0.951,-2.509 -58.182,-67.967 -62.332,-71.335 z"
       id="path98" /><path
       fill="url(#gradient_11)"
       transform="matrix(0.492308,0,0,0.492188,-6.10352e-5,0)"
       d="m 968.623,674.811 56.967,-21.951 c 12.24,-4.817 32.19,-14.322 44.34,-16.266 7.69,-1.229 16.7,0.141 24.49,0.685 28.59,1.997 56.83,5.557 85.2,9.591 0.04,0.391 0.13,0.94 0.11,1.355 -0.16,3.858 -3.67,13.638 -6.31,16.435 1.36,3.69 -11.57,44.385 -14.13,49.973 -0.54,1.19 -1.1,2.283 -1.91,3.315 0.43,4.286 -5.12,17.577 -7.84,21.071 -0.37,0.484 -0.8,0.775 -1.3,1.112 0.05,2.985 -2.06,4.567 -4.04,6.616 -5.16,5.352 -15.15,16.555 -21.88,19.246 -0.04,0.19 -0.06,0.389 -0.14,0.57 -1.22,2.975 -12.28,10.859 -15.25,13.304 -20.52,16.879 -39.69,35.309 -60.34,52.043 -3.19,2.583 -6.9,6.989 -10.42,8.907 -0.32,0.174 -0.94,0.386 -1.24,0.497 -5.56,6.6 -104.387,15.48 -119.069,16.803 q -0.594,0.052 -1.189,0.084 c -7.475,1.243 -25.432,2.692 -31.326,5.053 -0.275,0.196 -0.544,0.403 -0.826,0.589 -2.655,1.749 -9.137,1.85 -12.387,1.843 2.988,1.865 19.681,1.357 24.498,1.695 -11.892,2.707 -31.91,0.962 -42.953,-3.887 q -2.703,-1.862 -5.367,-3.78 c -3.257,-2.366 -6.537,-4.626 -7.191,-8.791 l 3.26,1.561 c 2.008,-14.684 0.859,-30.039 3.933,-44.566 l -0.239,-1.614 c 5.462,-10.109 40.012,-24.569 51.099,-29.102 -3.448,-8.943 1.923,-48.017 -3.12,-53.619 -2.442,-2.712 -6.318,-1.333 -9.502,-1.688 -1.384,-0.154 -1.201,-0.378 -2.031,-1.392 3.165,-4.856 6.349,-9.691 9.3,-14.68 18.229,-8.264 36.972,-16.146 55.775,-23.014 6.688,-2.998 14.01,-5.912 21.028,-7.998 z"
       id="path99"
       style="fill:url(#gradient_11)" /><path
       fill="#db6e28"
       transform="matrix(0.492308,0,0,0.492188,-6.10352e-5,0)"
       d="m 985.89,714.238 c 2.022,0.471 2.822,0.428 4.29,1.951 0.978,4.4 -0.907,9.259 -3.277,12.935 -1.115,1.73 -3.024,4.327 -5.204,4.654 -5.724,0.857 -13.533,-3.625 -19.391,-4.616 8.311,-4.381 14.989,-10.886 23.582,-14.924 z"
       id="path100" /><path
       fill="#fdce78"
       transform="matrix(0.492308,0,0,0.492188,-6.10352e-5,0)"
       d="m 941.895,731.246 c 0.318,0.146 1.384,0.56 1.707,0.47 1.51,-0.417 4.544,-3.396 5.932,-4.452 10.019,-7.62 34.504,-29.038 44.857,-31.911 2.167,-0.601 4.105,-1.523 6.139,-2.471 l 0.63,1.191 c -0.21,1.713 0.21,2.709 0.87,4.29 l 0.26,0.6 c -2.673,5.88 -8.341,12.137 -14.381,14.709 -0.644,0.275 -1.332,0.439 -2.019,0.566 -8.593,4.038 -15.271,10.543 -23.582,14.924 l -0.548,0.181 c -3.233,1.035 -6.608,1.043 -9.703,2.471 -6.697,3.09 -12.486,8.621 -19.593,10.658 2.996,-3.734 5.916,-7.985 9.431,-11.226 z"
       id="path101" /><path
       fill="#f8b95c"
       transform="matrix(0.492308,0,0,0.492188,-6.10352e-5,0)"
       d="m 947.595,682.809 c 6.688,-2.998 14.01,-5.912 21.028,-7.998 l 1.002,1.486 c 6.394,0.746 13.284,-1.145 19.972,-0.623 3.203,3.55 6.378,6.901 10.009,10.03 1.394,4.061 3.484,8.888 2.684,13.259 l -0.26,-0.6 c -0.66,-1.581 -1.08,-2.577 -0.87,-4.29 l -0.63,-1.191 c -2.034,0.948 -3.972,1.87 -6.139,2.471 -10.353,2.873 -34.838,24.291 -44.857,31.911 -1.388,1.056 -4.422,4.035 -5.932,4.452 -0.323,0.09 -1.389,-0.324 -1.707,-0.47 3.712,-4.505 7.554,-8.917 11.331,-13.37 1.293,-4.696 21.145,-30.334 25.477,-36.074 -8.536,0.135 -23.746,2.699 -31.108,1.007 z"
       id="path102" /><path
       fill="#fdce78"
       transform="matrix(0.492308,0,0,0.492188,-6.10352e-5,0)"
       d="m 978.703,681.802 2.339,0.27 c 0.534,1.476 0.285,2.022 -0.366,3.481 -4.563,10.218 -18.75,25.423 -27.45,32.323 1.293,-4.696 21.145,-30.334 25.477,-36.074 z"
       id="path103" /><path
       fill="#fbe4a8"
       transform="matrix(0.492308,0,0,0.492188,-6.10352e-5,0)"
       d="m 947.595,682.809 c 7.362,1.692 22.572,-0.872 31.108,-1.007 -4.332,5.74 -24.184,31.378 -25.477,36.074 -3.777,4.453 -7.619,8.865 -11.331,13.37 -3.515,3.241 -6.435,7.492 -9.431,11.226 -8.068,6.887 -16.357,13.777 -23.702,21.444 13.784,-2.008 26.829,-6.509 40.419,-9.309 4.147,-3.495 27.99,-5.844 33.604,-5.346 1.613,0.143 3.664,0.368 4.814,1.64 0.624,0.69 0.669,1.361 0.583,2.292 -0.039,0.416 -0.241,0.9 -0.387,1.294 -12.939,2.214 -25.827,4.977 -38.784,7.013 -17.484,4.804 -34.817,9.332 -51.838,15.702 -3.448,-8.943 1.923,-48.017 -3.12,-53.619 -2.442,-2.712 -6.318,-1.333 -9.502,-1.688 -1.384,-0.154 -1.201,-0.378 -2.031,-1.392 3.165,-4.856 6.349,-9.691 9.3,-14.68 18.229,-8.264 36.972,-16.146 55.775,-23.014 z"
       id="path104" /><path
       fill="#fdce78"
       transform="matrix(0.492308,0,0,0.492188,-6.10352e-5,0)"
       d="m 949.181,754.607 c 4.147,-3.495 27.99,-5.844 33.604,-5.346 1.613,0.143 3.664,0.368 4.814,1.64 0.624,0.69 0.669,1.361 0.583,2.292 -0.039,0.416 -0.241,0.9 -0.387,1.294 -12.939,2.214 -25.827,4.977 -38.784,7.013 5.893,-4.561 26.937,-6.396 35.224,-7.797 l 0.087,-2.326 c -9.407,-3.798 -29.145,4.917 -34.58,3.468 -0.197,-0.052 -0.374,-0.159 -0.561,-0.238 z"
       id="path105" /><path
       fill="#88341e"
       transform="matrix(0.492308,0,0,0.492188,-6.10352e-5,0)"
       d="m 1101.26,673.7 c 10.47,0.3 20.05,4.026 30.28,5.71 -2.06,5.151 -4.12,13.303 -8.02,17.258 -2.44,12.585 -62.01,76.714 -74.47,83.96 -0.67,0.393 -1.23,0.552 -1.97,0.753 l -0.39,-0.223 c -10.33,4.995 -23.33,4.536 -34.54,6 -7.16,0.935 -14.345,2.292 -21.412,3.774 0.155,-0.13 0.313,-0.257 0.466,-0.39 0.242,-0.209 0.477,-0.426 0.719,-0.635 0.514,-0.443 1.033,-0.853 1.497,-1.352 6.97,-7.49 4.988,-25.872 4.973,-35.354 1.216,-7.281 3.017,-14.811 7.797,-20.66 8.67,-10.617 23.25,-15.964 35.05,-22.274 10.22,-5.462 55.81,-29.438 60.02,-36.567 z"
       id="path106" /><path
       fill="url(#gradient_12)"
       transform="matrix(0.492308,0,0,0.492188,-6.10352e-5,0)"
       d="m 987.795,754.487 c 3.566,-0.309 7.074,-0.653 10.598,-1.286 0.015,9.482 1.997,27.864 -4.973,35.354 -0.464,0.499 -0.983,0.909 -1.497,1.352 -0.242,0.209 -0.477,0.426 -0.719,0.635 -0.153,0.133 -0.311,0.26 -0.466,0.39 7.067,-1.482 14.252,-2.839 21.412,-3.774 11.21,-1.464 24.21,-1.005 34.54,-6 l 0.39,0.223 -1.21,1.251 c -11.41,4.271 -23.75,4.033 -35.65,5.883 -9.17,1.425 -56.308,11.11 -62.121,16.156 -2.9,10.119 -11.279,30.896 -18.382,38.428 -4.776,5.065 -11.247,9.238 -15.045,15.102 -7.475,1.243 -25.432,2.692 -31.326,5.053 -0.275,0.196 -0.544,0.403 -0.826,0.589 -2.655,1.749 -9.137,1.85 -12.387,1.843 2.988,1.865 19.681,1.357 24.498,1.695 -11.892,2.707 -31.91,0.962 -42.953,-3.887 q -2.703,-1.862 -5.367,-3.78 c -3.257,-2.366 -6.537,-4.626 -7.191,-8.791 l 3.26,1.561 c 2.008,-14.684 0.859,-30.039 3.933,-44.566 l -0.239,-1.614 c 5.462,-10.109 40.012,-24.569 51.099,-29.102 17.021,-6.37 34.354,-10.898 51.838,-15.702 12.957,-2.036 25.845,-4.799 38.784,-7.013 z"
       id="path107"
       style="fill:url(#gradient_12)" /><path
       fill="#f39e41"
       transform="matrix(0.492308,0,0,0.492188,-6.10352e-5,0)"
       d="m 920.709,774.69 c 2.197,-0.128 5.028,-0.374 7.177,0.184 2.278,0.591 5.165,2.922 6.182,5.049 0.664,1.389 0.571,2.749 0.053,4.173 -0.979,2.695 -2.832,3.391 -5.258,4.49 -1.843,0.294 -3.704,0.595 -5.576,0.427 -2.388,-0.214 -4.103,-1.327 -5.505,-3.258 -1.016,-1.4 -1.464,-3.181 -1.101,-4.888 0.544,-2.559 1.769,-4.804 4.028,-6.177 z"
       id="path108" /><path
       fill="#88341e"
       transform="matrix(0.492308,0,0,0.492188,-6.10352e-5,0)"
       d="m 948.099,804.671 c -2.9,10.119 -11.279,30.896 -18.382,38.428 -4.776,5.065 -11.247,9.238 -15.045,15.102 -7.475,1.243 -25.432,2.692 -31.326,5.053 -0.275,0.196 -0.544,0.403 -0.826,0.589 -2.655,1.749 -9.137,1.85 -12.387,1.843 2.988,1.865 19.681,1.357 24.498,1.695 -11.892,2.707 -31.91,0.962 -42.953,-3.887 q -2.703,-1.862 -5.367,-3.78 c -3.257,-2.366 -6.537,-4.626 -7.191,-8.791 l 3.26,1.561 c 2.008,-14.684 0.859,-30.039 3.933,-44.566 19.891,1.006 86.023,4.648 101.786,-3.247 z"
       id="path109" /><path
       fill="#26141b"
       transform="matrix(0.492308,0,0,0.492188,-6.10352e-5,0)"
       d="m 839.12,850.923 3.26,1.561 c 6.301,4.926 13.921,9.236 21.058,12.85 6.517,-0.749 13.368,-1.994 19.908,-2.08 -0.275,0.196 -0.544,0.403 -0.826,0.589 -2.655,1.749 -9.137,1.85 -12.387,1.843 2.988,1.865 19.681,1.357 24.498,1.695 -11.892,2.707 -31.91,0.962 -42.953,-3.887 q -2.703,-1.862 -5.367,-3.78 c -3.257,-2.366 -6.537,-4.626 -7.191,-8.791 z"
       id="path110" /><path
       fill="#471a11"
       transform="matrix(0.492308,0,0,0.492188,-6.10352e-5,0)"
       d="m 1131.54,679.41 c 4.92,-0.782 38.79,-12.216 41.88,-14.75 1.36,3.69 -11.57,44.385 -14.13,49.973 -0.54,1.19 -1.1,2.283 -1.91,3.315 0.43,4.286 -5.12,17.577 -7.84,21.071 -0.37,0.484 -0.8,0.775 -1.3,1.112 0.05,2.985 -2.06,4.567 -4.04,6.616 -5.16,5.352 -15.15,16.555 -21.88,19.246 -0.04,0.19 -0.06,0.389 -0.14,0.57 -1.22,2.975 -12.28,10.859 -15.25,13.304 -20.52,16.879 -39.69,35.309 -60.34,52.043 -3.19,2.583 -6.9,6.989 -10.42,8.907 -0.32,0.174 -0.94,0.386 -1.24,0.497 -5.56,6.6 -104.387,15.48 -119.069,16.803 q -0.594,0.052 -1.189,0.084 c 3.798,-5.864 10.269,-10.037 15.045,-15.102 7.103,-7.532 15.482,-28.309 18.382,-38.428 5.813,-5.046 52.951,-14.731 62.121,-16.156 11.9,-1.85 24.24,-1.612 35.65,-5.883 l 1.21,-1.251 c 0.74,-0.201 1.3,-0.36 1.97,-0.753 12.46,-7.246 72.03,-71.375 74.47,-83.96 3.9,-3.955 5.96,-12.107 8.02,-17.258 z"
       id="path111" /><path
       fill="#51241e"
       transform="matrix(0.492308,0,0,0.492188,-6.10352e-5,0)"
       d="m 1124.32,700.043 c 0.24,-0.172 0.5,-0.337 0.74,-0.517 4.12,-3.089 2.56,-7.398 9.65,-6.827 2.22,0.178 4.23,1.565 5.6,3.262 7.02,8.711 3.89,24.206 5.55,34.721 0.48,3.046 2.45,6.422 2.38,9.449 0.05,2.985 -2.06,4.567 -4.04,6.616 -5.16,5.352 -15.15,16.555 -21.88,19.246 1.57,-18.198 0.8,-35.988 0.94,-54.16 0.04,-3.833 1.53,-8.16 1.06,-11.79 z"
       id="path112" /><path
       fill="#3b2228"
       transform="matrix(0.492308,0,0,0.492188,-6.10352e-5,0)"
       d="m 1131.54,679.41 c 4.92,-0.782 38.79,-12.216 41.88,-14.75 1.36,3.69 -11.57,44.385 -14.13,49.973 -0.54,1.19 -1.1,2.283 -1.91,3.315 0.43,4.286 -5.12,17.577 -7.84,21.071 -0.37,0.484 -0.8,0.775 -1.3,1.112 0.07,-3.027 -1.9,-6.403 -2.38,-9.449 -1.66,-10.515 1.47,-26.01 -5.55,-34.721 -1.37,-1.697 -3.38,-3.084 -5.6,-3.262 -7.09,-0.571 -5.53,3.738 -9.65,6.827 -0.24,0.18 -0.5,0.345 -0.74,0.517 0.1,-1.738 0.09,-1.887 -0.8,-3.375 3.9,-3.955 5.96,-12.107 8.02,-17.258 z"
       id="path113" /><path
       fill="url(#gradient_13)"
       transform="matrix(0.492308,0,0,0.492188,-6.10352e-5,0)"
       d="m 800.707,134.402 c 10.645,-7.509 23.004,-13.642 34.489,-19.771 q 30.373,-16.4629 61.581,-31.2788 c 3.247,-1.5523 6.382,-4.1659 9.872,-4.9412 l 1.198,1.3654 q 3.115,13.0113 6.361,25.9906 l 11.646,50.47 c 1.772,7.458 4.312,14.915 5.757,22.411 2.684,5.997 3.572,12.642 5.676,18.858 4.233,21.332 10.077,42.37 15.112,63.525 1.277,5.364 1.753,13.405 4.047,18.223 q 11.649,-3.87 23.439,-7.284 c 1.709,2.833 3.346,6.054 5.543,8.523 -2.556,2.071 -6.449,5.813 -9.741,6.527 -9.849,7.657 -21.124,13.929 -30.424,22.189 l -1.614,6.987 c -0.472,-2.025 -0.748,-3.343 -2.21,-4.866 l -0.219,0.617 -0.793,-0.723 -0.496,-1.435 c -6.119,-1.37 -63.319,9.597 -72.024,12.103 -4.635,1.334 -8.395,3.127 -12.475,5.71 -16.565,10.485 -32.194,22.559 -48.162,33.919 -6.641,4.724 -20.442,12.734 -24.991,18.333 -5.138,1.384 -10.737,1.217 -16.02,1.761 -2.59,0.422 -5.071,0.497 -6.79,2.701 l -1.115,1.044 c -3.277,6.589 -5.423,13.629 -7.616,20.636 -4.647,5.916 -16.67,10.004 -23.444,13.649 -10.327,5.556 -20.264,11.903 -30.438,17.74 -10.758,6.172 -48.715,25.531 -55.423,34.032 -5.643,7.15 -13.484,36.507 -15.308,46.293 -20.032,12.175 -38.746,28.792 -58.849,40.189 q -6.354,4.502 -12.79,8.887 c -5.407,-0.23 -10.89,-1.027 -16.272,-1.64 -4.504,-0.556 -8.888,-0.57 -13.182,-2.191 -2.453,-2.646 -7.214,-4.783 -10.37,-6.658 -5.206,-3.709 -11.776,-6.152 -17.525,-9.016 -9.989,-4.978 -19.914,-10.463 -30.239,-14.71 -3.874,-1.594 -13.533,-6.636 -17.316,-5.053 -3.038,0.258 -10.453,-3.49 -13.638,-4.648 -4.677,-3.36 -9.956,-5.992 -14.775,-9.185 -2.351,-0.736 -4.695,-2.383 -6.86,-3.581 -9.469,-5.239 -19.685,-12.987 -30.903,-12.626 l -0.317,-0.394 c 2.318,-2.063 8.813,-2.603 12.063,-3.456 7.589,-0.965 15.472,-3.205 22.96,-4.928 l 45.615,-10.6 c 3.858,-6.725 6.688,-14.39 10.012,-21.432 5.278,-11.176 10.989,-22.137 16.44,-33.227 3.944,-8.026 7.503,-16.625 13.206,-23.593 4.994,-6.101 11.787,-11.267 17.715,-16.446 13.016,-11.374 26.448,-22.284 39.151,-34.01 -0.922,-3.254 -2.261,-6.218 -3.675,-9.284 -3.445,-6.994 -13.765,-17.221 -15.542,-23.267 2.097,-1.943 2.997,-3.545 3.957,-6.246 1.653,-2.502 4.534,-4.904 6.841,-6.818 6.904,-7.413 12.001,-16.42 19.126,-23.647 6.321,-10.576 34.645,-36.956 44.789,-43.794 4.804,-4.649 13.452,-11.613 20.222,-12.497 l 1.951,1.536 c 8.047,2.515 15.593,5.974 23.466,8.915 3.805,2.124 7.504,4.329 11.151,6.714 3.591,-3.593 7.148,-7.017 11.13,-10.186 3.311,-5.16 11.289,-10.136 15.521,-15.222 8.854,-10.641 15.591,-24.093 25.428,-33.777 4.869,-4.793 11.845,-8.04 17.656,-11.598 q 15.78,-9.822 31.767,-19.302 c 8.946,-5.405 17.559,-11.394 26.668,-16.517 z"
       id="path114"
       style="fill:url(#gradient_13)" /><path
       fill="#db6e28"
       transform="matrix(0.492308,0,0,0.492188,-6.10352e-5,0)"
       d="m 566.088,397.58 c 7.227,-2.202 16.174,-1.58 23.665,-1.518 4.687,0.945 9.506,1.536 14.156,2.529 -12.508,0.508 -25.325,-0.305 -37.821,-1.011 z"
       id="path115" /><path
       fill="#f39e41"
       transform="matrix(0.492308,0,0,0.492188,-6.10352e-5,0)"
       d="m 908.827,108.697 c 2.22,3.731 2.885,8.527 4.271,12.632 -2.246,-1.276 -1.251,-3.01 -3.057,-4.232 -4.222,2.064 -7.496,6.536 -12.217,7.3 3.409,-5.121 8.892,-9.949 11.003,-15.7 z"
       id="path116" /><path
       fill="#fdce78"
       transform="matrix(0.492308,0,0,0.492188,-6.10352e-5,0)"
       d="m 914.208,105.767 11.646,50.47 c 1.772,7.458 4.312,14.915 5.757,22.411 l -0.416,1.039 c -0.953,-2.304 -1.599,-4.647 -2.255,-7.046 -0.774,2.071 0.62,6.072 1.073,8.266 -2.886,-5.249 -3.961,-12.808 -5.386,-18.67 -3.288,-13.52 -6.075,-28.122 -11.529,-40.908 -1.386,-4.105 -2.051,-8.901 -4.271,-12.632 1.1,0.173 2.236,0.138 3.349,0.165 1.664,-1.056 1.51,-1.28 2.032,-3.095 z"
       id="path117" /><path
       fill="#d9812d"
       transform="matrix(0.492308,0,0,0.492188,-6.10352e-5,0)"
       d="m 673.856,329.119 c -3.105,9.795 -15.503,23.405 -21.856,31.887 -1.799,2.401 -3.119,5.056 -4.988,7.413 -3.968,5.003 -13.944,14.323 -15.241,19.834 -0.713,3.031 -3.274,4.578 -4.693,7.135 0.847,-0.384 1.303,-0.67 1.946,-1.333 14.129,-14.559 25.153,-30.779 36.148,-47.75 2.93,-4.521 6.268,-8.702 8.739,-13.507 l 0.859,0.182 c 0.182,4.492 -34.41,50.868 -39.331,56.185 -6.203,6.704 -11.823,9.075 -20.938,9.365 -3.526,0.112 -7.064,0.078 -10.592,0.061 -4.65,-0.993 -9.469,-1.584 -14.156,-2.529 11.816,-0.676 23.676,-0.966 35.504,-1.405 5.378,-9.106 12.858,-17.202 19.412,-25.483 q 11.878,-15.223 22.691,-31.22 c 2.07,-2.804 3.835,-5.544 5.442,-8.638 z"
       id="path118" /><path
       fill="#f39e41"
       transform="matrix(0.492308,0,0,0.492188,-6.10352e-5,0)"
       d="m 853.693,183.423 c -1.306,5.336 -5.733,5.735 -8.217,9.731 -1.104,1.777 0.04,3.51 -1.464,5.294 -2.548,3.022 -6.376,4.599 -9.121,7.381 -5.469,5.543 -7.259,11.894 -14.338,16.285 -8.504,5.275 -17.183,9.003 -24.478,16.093 -7.556,7.343 -22.814,34.025 -30.042,37.154 9.563,-13.213 19.178,-27.366 30.26,-39.317 8.871,-9.566 18.82,-17.822 28.6,-26.418 q 14.527,-12.962 28.8,-26.203 z"
       id="path119" /><path
       fill="#d9812d"
       transform="matrix(0.492308,0,0,0.492188,-6.10352e-5,0)"
       d="m 930.013,180.907 c -0.453,-2.194 -1.847,-6.195 -1.073,-8.266 0.656,2.399 1.302,4.742 2.255,7.046 l 0.416,-1.039 c 2.684,5.997 3.572,12.642 5.676,18.858 4.233,21.332 10.077,42.37 15.112,63.525 1.277,5.364 1.753,13.405 4.047,18.223 -1.292,0.388 -2.667,0.946 -4.009,1.064 -5.274,-10.406 -16.918,-62.047 -19.115,-75.406 -0.958,-5.827 -1.924,-19.585 -3.309,-24.005 z"
       id="path120" /><path
       fill="url(#gradient_14)"
       transform="matrix(0.492308,0,0,0.492188,-6.10352e-5,0)"
       d="m 615.747,236.336 c 4.804,-4.649 13.452,-11.613 20.222,-12.497 l 1.951,1.536 c 8.047,2.515 15.593,5.974 23.466,8.915 3.805,2.124 7.504,4.329 11.151,6.714 3.591,-3.593 7.148,-7.017 11.13,-10.186 -1.758,7.255 -37.196,32.498 -39.373,39.786 -0.623,2.086 1.453,6.207 2.501,8.015 2.453,4.235 6.335,5.231 9.578,8.454 3.215,3.195 5.691,7.802 8.129,11.598 1.52,2.368 3.203,5.736 6.074,6.417 2.168,0.514 4.299,0.142 5.727,2.137 3.595,5.02 -0.155,11.151 2.118,15.58 4.161,-0.144 10.31,-4.541 14.349,-6.256 7.258,-3.083 47.642,-19.162 51.831,-18.914 -5.774,3.594 -12.665,4.827 -18.528,8.09 -5.253,4.189 -41.379,20.069 -48.396,20.619 -1.584,0.8 -2.673,1.407 -3.821,2.775 l -1.054,0.197 c -1.607,3.094 -3.372,5.834 -5.442,8.638 q -10.813,15.997 -22.691,31.22 c -6.554,8.281 -14.034,16.377 -19.412,25.483 -11.828,0.439 -23.688,0.729 -35.504,1.405 -7.491,-0.062 -16.438,-0.684 -23.665,1.518 -10.099,7.293 -19.3,17.744 -27.989,26.65 -8.431,8.643 -17.206,17.095 -25.102,26.232 -6.7,-6.755 -12.389,-13.576 -16.449,-22.235 -6.923,9.467 -8.015,22.529 -11.291,33.542 -1.76,5.914 -4.156,11.517 -6.41,17.249 -4.875,0.229 -10.313,-0.12 -15.12,-0.918 3.858,-6.725 6.688,-14.39 10.012,-21.432 5.278,-11.176 10.989,-22.137 16.44,-33.227 3.944,-8.026 7.503,-16.625 13.206,-23.593 4.994,-6.101 11.787,-11.267 17.715,-16.446 13.016,-11.374 26.448,-22.284 39.151,-34.01 -0.922,-3.254 -2.261,-6.218 -3.675,-9.284 -3.445,-6.994 -13.765,-17.221 -15.542,-23.267 2.097,-1.943 2.997,-3.545 3.957,-6.246 1.653,-2.502 4.534,-4.904 6.841,-6.818 6.904,-7.413 12.001,-16.42 19.126,-23.647 6.321,-10.576 34.645,-36.956 44.789,-43.794 z"
       id="path121"
       style="fill:url(#gradient_14)" /><path
       fill="#f8b95c"
       transform="matrix(0.492308,0,0,0.492188,-6.10352e-5,0)"
       d="m 667.36,337.954 c -1.277,-1.74 -2.453,-3.619 -2.188,-5.882 0.212,-1.815 1.009,-2.319 2.315,-3.346 2.154,-0.456 3.264,-0.151 5.315,0.59 -1.607,3.094 -3.372,5.834 -5.442,8.638 z"
       id="path122" /><path
       fill="#f39e41"
       transform="matrix(0.492308,0,0,0.492188,-6.10352e-5,0)"
       d="m 677.677,326.344 c 8.194,-8.115 36.709,-17.271 48.396,-20.619 -5.253,4.189 -41.379,20.069 -48.396,20.619 z"
       id="path123" /><path
       fill="#c4491b"
       transform="matrix(0.492308,0,0,0.492188,-6.10352e-5,0)"
       d="m 637.92,225.375 c 8.047,2.515 15.593,5.974 23.466,8.915 3.805,2.124 7.504,4.329 11.151,6.714 q -17.495,15.846 -33.893,32.825 c -6.651,-11.593 -0.176,-33.079 -1.484,-46.244 z"
       id="path124" /><path
       fill="#db6e28"
       transform="matrix(0.492308,0,0,0.492188,-6.10352e-5,0)"
       d="m 615.747,236.336 c 4.804,-4.649 13.452,-11.613 20.222,-12.497 l 1.951,1.536 -0.76,2.21 c 1.308,13.165 -5.167,34.651 1.484,46.244 q -20.384,21.138 -41.431,41.616 c -5.569,5.352 -11.138,11.435 -17.168,16.184 -6.46,6.07 -12.839,12.255 -19.794,17.763 -0.922,-3.254 -2.261,-6.218 -3.675,-9.284 -3.445,-6.994 -13.765,-17.221 -15.542,-23.267 2.097,-1.943 2.997,-3.545 3.957,-6.246 1.653,-2.502 4.534,-4.904 6.841,-6.818 6.904,-7.413 12.001,-16.42 19.126,-23.647 6.321,-10.576 34.645,-36.956 44.789,-43.794 z"
       id="path125" /><path
       fill="#88341e"
       transform="matrix(0.492308,0,0,0.492188,-6.10352e-5,0)"
       d="m 541.034,316.841 c 4.935,1.474 9.545,3.808 14.324,5.704 q 12.253,4.788 24.687,9.084 c -6.46,6.07 -12.839,12.255 -19.794,17.763 -0.922,-3.254 -2.261,-6.218 -3.675,-9.284 -3.445,-6.994 -13.765,-17.221 -15.542,-23.267 z"
       id="path126" /><path
       fill="#f8b95c"
       transform="matrix(0.492308,0,0,0.492188,-6.10352e-5,0)"
       d="m 615.747,236.336 c 4.804,-4.649 13.452,-11.613 20.222,-12.497 l 1.951,1.536 -0.76,2.21 c -2.815,7.985 -4.455,16.373 -7.367,24.295 -0.934,2.255 -1.789,4.45 -3.145,6.495 -4.879,5.474 -12.002,9.065 -18.275,12.74 -9.323,6.39 -20.2,10.074 -29.995,15.617 -8.578,4.854 -17.867,13.428 -26.546,17.045 6.904,-7.413 12.001,-16.42 19.126,-23.647 6.321,-10.576 34.645,-36.956 44.789,-43.794 z"
       id="path127" /><path
       fill="#f39e41"
       transform="matrix(0.492308,0,0,0.492188,-6.10352e-5,0)"
       d="m 614.351,262.383 c 4.371,-4.462 9.773,-6.708 14.873,-10.117 l 0.569,-0.386 c -0.934,2.255 -1.789,4.45 -3.145,6.495 -4.09,1.342 -8.171,2.786 -12.297,4.008 z"
       id="path128" /><path
       fill="#f39e41"
       transform="matrix(0.492308,0,0,0.492188,-6.10352e-5,0)"
       d="m 614.351,262.383 c 4.126,-1.222 8.207,-2.666 12.297,-4.008 -4.879,5.474 -12.002,9.065 -18.275,12.74 -2.677,0.585 -5.21,1.141 -7.968,1.175 5.311,-2.399 9.567,-6.154 13.946,-9.907 z"
       id="path129" /><path
       fill="#fbe4a8"
       transform="matrix(0.492308,0,0,0.492188,-6.10352e-5,0)"
       d="m 615.747,236.336 c 4.804,-4.649 13.452,-11.613 20.222,-12.497 -1.023,4.721 -1.745,11.847 -4.428,15.822 l -0.501,-0.205 c 0.54,-2.122 0.005,-3.874 1.419,-5.245 l -1.516,0.946 0.389,-1.041 -3.274,0.807 c 0.715,0.336 0.406,0.283 0.885,0.32 l -0.278,0.058 c 0.24,0.181 0.512,0.327 0.721,0.543 0.316,0.327 0.749,1.591 0.901,1.943 -1.112,0.123 -1.758,-0.048 -2.797,-0.356 -3.38,-1.001 -8.301,-1.896 -11.743,-1.095 z"
       id="path130" /><path
       fill="#d9812d"
       transform="matrix(0.492308,0,0,0.492188,-6.10352e-5,0)"
       d="m 600.405,272.29 c 2.758,-0.034 5.291,-0.59 7.968,-1.175 -9.323,6.39 -20.2,10.074 -29.995,15.617 -8.578,4.854 -17.867,13.428 -26.546,17.045 6.904,-7.413 12.001,-16.42 19.126,-23.647 -0.575,5.633 -8.926,10.95 -11.392,16.365 l 0.286,0.4 c 3.148,-2.351 6.589,-3.927 9.85,-6.044 2.133,-1.385 2.232,-3.028 2.735,-5.315 3.694,-3.223 22.786,-11.585 27.968,-13.246 z"
       id="path131" /><path
       fill="#fdce78"
       transform="matrix(0.492308,0,0,0.492188,-6.10352e-5,0)"
       d="m 800.707,134.402 c 10.645,-7.509 23.004,-13.642 34.489,-19.771 q 30.373,-16.4629 61.581,-31.2788 c 3.247,-1.5523 6.382,-4.1659 9.872,-4.9412 l 1.198,1.3654 q 3.115,13.0113 6.361,25.9906 c -0.522,1.815 -0.368,2.039 -2.032,3.095 -1.113,-0.027 -2.249,0.008 -3.349,-0.165 -2.111,5.751 -7.594,10.579 -11.003,15.7 -2.485,3.594 -4.849,7.657 -7.636,10.994 -1.947,3.706 -15.842,26.767 -17.813,28.063 -5.115,6.845 -14.58,13.481 -18.682,19.969 q -14.273,13.241 -28.8,26.203 c -9.78,8.596 -19.729,16.852 -28.6,26.418 -11.082,11.951 -20.697,26.104 -30.26,39.317 -3.222,3.844 -6.045,7.995 -9.238,11.841 -2.502,5.083 -6.235,8.358 -11.563,10.257 -0.206,0.074 -0.421,0.117 -0.631,0.176 -4.189,-0.248 -44.573,15.831 -51.831,18.914 -4.039,1.715 -10.188,6.112 -14.349,6.256 -2.273,-4.429 1.477,-10.56 -2.118,-15.58 -1.428,-1.995 -3.559,-1.623 -5.727,-2.137 -2.871,-0.681 -4.554,-4.049 -6.074,-6.417 -2.438,-3.796 -4.914,-8.403 -8.129,-11.598 -3.243,-3.223 -7.125,-4.219 -9.578,-8.454 -1.048,-1.808 -3.124,-5.929 -2.501,-8.015 2.177,-7.288 37.615,-32.531 39.373,-39.786 3.311,-5.16 11.289,-10.136 15.521,-15.222 8.854,-10.641 15.591,-24.093 25.428,-33.777 4.869,-4.793 11.845,-8.04 17.656,-11.598 q 15.78,-9.822 31.767,-19.302 c 8.946,-5.405 17.559,-11.394 26.668,-16.517 z"
       id="path132" /><path
       fill="#f39e41"
       transform="matrix(0.492308,0,0,0.492188,-6.10352e-5,0)"
       d="m 800.835,176.267 c 0.876,0.386 1.976,0.932 2.686,1.569 1.237,1.111 1.661,2.522 1.446,4.14 -0.277,2.083 -2.396,3.53 -3.91,4.784 -1.883,-0.126 -2.741,-0.253 -4.196,-1.491 -0.445,-1.191 -0.791,-1.62 -0.581,-2.917 0.477,-2.95 2.235,-4.429 4.555,-6.085 z"
       id="path133" /><path
       fill="#f39e41"
       transform="matrix(0.492308,0,0,0.492188,-6.10352e-5,0)"
       d="m 749.168,222.121 c 2.485,-0.048 4.903,-0.108 7.092,1.247 1.792,1.109 3.128,2.869 3.598,4.933 0.539,2.37 -0.116,4.949 -1.504,6.915 -2.154,3.052 -5.229,3.947 -8.694,4.576 -2.355,-0.127 -4.714,-0.483 -6.798,-1.667 -2.097,-1.193 -3.876,-3.155 -4.438,-5.546 -0.483,-2.055 0.009,-4.343 1.22,-6.061 2.301,-3.262 5.874,-3.821 9.524,-4.397 z"
       id="path134" /><path
       fill="#fbe4a8"
       transform="matrix(0.492308,0,0,0.492188,-6.10352e-5,0)"
       d="m 800.707,134.402 c 10.645,-7.509 23.004,-13.642 34.489,-19.771 q 30.373,-16.4629 61.581,-31.2788 c 3.247,-1.5523 6.382,-4.1659 9.872,-4.9412 l 1.198,1.3654 q 3.115,13.0113 6.361,25.9906 c -0.522,1.815 -0.368,2.039 -2.032,3.095 -1.113,-0.027 -2.249,0.008 -3.349,-0.165 -2.111,5.751 -7.594,10.579 -11.003,15.7 -2.485,3.594 -4.849,7.657 -7.636,10.994 l -0.327,-0.316 c 0.126,-3.895 18.731,-27.471 22.133,-32.745 -1.494,-2.3506 -5.411,-2.4085 -7.585,-4.6229 -3.18,-3.2379 -3.531,-9.81 -6.925,-11.974 -1.693,-0.2548 -2.766,-0.1003 -4.374,0.4965 -6.959,2.5818 -13.969,7.1376 -20.618,10.5348 q -28.816,14.4106 -56.925,30.1576 c -3.776,2.118 -7.298,4.852 -11.107,6.83 -1.619,0.84 -1.975,1.229 -3.753,0.65 z"
       id="path135" /><path
       fill="#fbe4a8"
       transform="matrix(0.492308,0,0,0.492188,-6.10352e-5,0)"
       d="m 756.795,287.202 -1.108,-0.862 -0.011,-1.286 c 2.164,-4.347 5.076,-8.073 7.417,-12.275 7.194,-12.917 17.963,-34.873 27.963,-45.065 5.311,-5.412 12.076,-9.94 18.07,-14.59 10.26,-7.958 20.538,-15.998 30.474,-24.358 8.106,-6.82 20.938,-20.407 29.367,-25.18 1.57,-0.889 1.774,-0.64 3.408,-0.132 -5.115,6.845 -14.58,13.481 -18.682,19.969 q -14.273,13.241 -28.8,26.203 c -9.78,8.596 -19.729,16.852 -28.6,26.418 -11.082,11.951 -20.697,26.104 -30.26,39.317 -3.222,3.844 -6.045,7.995 -9.238,11.841 z"
       id="path136" /><path
       fill="url(#gradient_15)"
       transform="matrix(0.492308,0,0,0.492188,-6.10352e-5,0)"
       d="m 956.446,279.254 q 11.649,-3.87 23.439,-7.284 c 1.709,2.833 3.346,6.054 5.543,8.523 -2.556,2.071 -6.449,5.813 -9.741,6.527 -9.849,7.657 -21.124,13.929 -30.424,22.189 l -1.614,6.987 c -0.472,-2.025 -0.748,-3.343 -2.21,-4.866 l -0.219,0.617 -0.793,-0.723 -0.496,-1.435 c -6.119,-1.37 -63.319,9.597 -72.024,12.103 -4.635,1.334 -8.395,3.127 -12.475,5.71 -16.565,10.485 -32.194,22.559 -48.162,33.919 -6.641,4.724 -20.442,12.734 -24.991,18.333 -5.138,1.384 -10.737,1.217 -16.02,1.761 -2.59,0.422 -5.071,0.497 -6.79,2.701 l -1.115,1.044 c -3.277,6.589 -5.423,13.629 -7.616,20.636 -4.647,5.916 -16.67,10.004 -23.444,13.649 -10.327,5.556 -20.264,11.903 -30.438,17.74 -10.758,6.172 -48.715,25.531 -55.423,34.032 -5.643,7.15 -13.484,36.507 -15.308,46.293 -20.032,12.175 -38.746,28.792 -58.849,40.189 q -6.354,4.502 -12.79,8.887 c -5.407,-0.23 -10.89,-1.027 -16.272,-1.64 -4.504,-0.556 -8.888,-0.57 -13.182,-2.191 -2.453,-2.646 -7.214,-4.783 -10.37,-6.658 -5.206,-3.709 -11.776,-6.152 -17.525,-9.016 -9.989,-4.978 -19.914,-10.463 -30.239,-14.71 -3.874,-1.594 -13.533,-6.636 -17.316,-5.053 -3.038,0.258 -10.453,-3.49 -13.638,-4.648 -4.677,-3.36 -9.956,-5.992 -14.775,-9.185 -2.351,-0.736 -4.695,-2.383 -6.86,-3.581 -9.469,-5.239 -19.685,-12.987 -30.903,-12.626 l -0.317,-0.394 c 2.318,-2.063 8.813,-2.603 12.063,-3.456 7.589,-0.965 15.472,-3.205 22.96,-4.928 l 45.615,-10.6 c 4.807,0.798 10.245,1.147 15.12,0.918 20.955,-2.26 40.844,-9.06 60.562,-16.152 44.026,-15.835 85.723,-35.957 127.355,-57.176 32.449,-16.539 64.47,-33.457 96.315,-51.148 q 19.871,-11.058 39.532,-22.484 c 8.121,-4.736 16.287,-10.154 24.832,-14.076 14.114,-6.479 34.96,-11.445 50.203,-15.755 q 37.512,-10.555 74.791,-21.909 c 1.342,-0.118 2.717,-0.676 4.009,-1.064 z"
       id="path137"
       style="fill:url(#gradient_15)" /><path
       fill="#db6e28"
       transform="matrix(0.492308,0,0,0.492188,-6.10352e-5,0)"
       d="m 540.564,517.193 2.591,-0.524 0.544,0.628 c -3.455,5.766 -18.062,12.161 -24.475,13.669 -1.522,0.358 -2.983,0.412 -4.537,0.285 l -0.032,-2.916 c 3.975,-9.076 20.708,-6.3 25.909,-11.142 z"
       id="path138" /><path
       fill="#fbe4a8"
       transform="matrix(0.492308,0,0,0.492188,-6.10352e-5,0)"
       d="m 766.259,381.615 -1.233,-0.614 c 3.445,-4.577 11.324,-8.216 16.06,-11.738 9.474,-7.045 18.336,-14.949 27.904,-21.866 9.099,-6.579 18.91,-12.173 28.284,-18.348 5.567,-3.666 10.873,-7.956 16.69,-11.21 5.051,-2.825 12.861,-3.043 18.563,-4.041 l 37.077,-6.391 c 11.998,-2.082 23.737,-3.588 35.038,-8.341 4.465,-1.878 25.538,-12.776 29.152,-12.592 0.656,0.033 1.262,0.364 1.893,0.546 -9.849,7.657 -21.124,13.929 -30.424,22.189 l -1.614,6.987 c -0.472,-2.025 -0.748,-3.343 -2.21,-4.866 l -0.219,0.617 -0.793,-0.723 -0.496,-1.435 c -6.119,-1.37 -63.319,9.597 -72.024,12.103 -4.635,1.334 -8.395,3.127 -12.475,5.71 -16.565,10.485 -32.194,22.559 -48.162,33.919 -6.641,4.724 -20.442,12.734 -24.991,18.333 -5.138,1.384 -10.737,1.217 -16.02,1.761 z"
       id="path139" /><path
       fill="#fbe4a8"
       transform="matrix(0.492308,0,0,0.492188,-6.10352e-5,0)"
       d="m 516.256,552.456 c 33.482,-11.714 81.397,-38.43 105.189,-65.417 5.463,-6.197 7.657,-14.756 13.156,-21.021 5.853,-6.668 21.174,-14.802 29.089,-19.857 q 25.565,-16.061 50.768,-32.685 c 11.305,-7.505 21.881,-16.101 33.376,-23.308 3.162,-1.983 6.718,-4.563 10.52,-4.808 -3.277,6.589 -5.423,13.629 -7.616,20.636 -4.647,5.916 -16.67,10.004 -23.444,13.649 -10.327,5.556 -20.264,11.903 -30.438,17.74 -10.758,6.172 -48.715,25.531 -55.423,34.032 -5.643,7.15 -13.484,36.507 -15.308,46.293 -20.032,12.175 -38.746,28.792 -58.849,40.189 q -6.354,4.502 -12.79,8.887 c -5.407,-0.23 -10.89,-1.027 -16.272,-1.64 -4.504,-0.556 -8.888,-0.57 -13.182,-2.191 -2.453,-2.646 -7.214,-4.783 -10.37,-6.658 -5.206,-3.709 -11.776,-6.152 -17.525,-9.016 -9.989,-4.978 -19.914,-10.463 -30.239,-14.71 -3.874,-1.594 -13.533,-6.636 -17.316,-5.053 -3.038,0.258 -10.453,-3.49 -13.638,-4.648 -4.677,-3.36 -9.956,-5.992 -14.775,-9.185 3.24,-0.625 10.937,3.555 14.932,4.44 7.075,1.567 14.81,1.893 22.034,1.476 19.084,-1.102 38.321,-3.098 57.061,-6.931 11.749,-2.403 24.072,-6.568 35.918,-7.977 -3.668,3.919 -7.737,7.906 -10.55,12.5 -5.201,4.842 -21.934,2.066 -25.909,11.142 l 0.032,2.916 c 1.559,0.495 1.892,0.587 2.988,1.777 0.111,0.63 0.231,1.21 0.125,1.852 -0.714,4.311 -7.621,8.66 -10.917,11.102 2.967,2.565 5.966,4.536 9.373,6.474 z"
       id="path140" /></g></svg>
