<?xml version="1.0" encoding="UTF-8" standalone="no"?>
<svg
   width="63mm"
   height="88mm"
   version="1.1"
   id="svg153"
   sodipodi:docname="item-monocle.svg"
   inkscape:version="1.3.2 (091e20e, 2023-11-25, custom)"
   xmlns:inkscape="http://www.inkscape.org/namespaces/inkscape"
   xmlns:sodipodi="http://sodipodi.sourceforge.net/DTD/sodipodi-0.dtd"
   xmlns="http://www.w3.org/2000/svg"
   xmlns:svg="http://www.w3.org/2000/svg">
  <sodipodi:namedview
     id="namedview153"
     pagecolor="#ffffff"
     bordercolor="#000000"
     borderopacity="0.25"
     inkscape:showpageshadow="2"
     inkscape:pageopacity="0.0"
     inkscape:pagecheckerboard="0"
     inkscape:deskcolor="#d1d1d1"
     inkscape:zoom="0.80175781"
     inkscape:cx="512"
     inkscape:cy="512"
     inkscape:window-width="1920"
     inkscape:window-height="1017"
     inkscape:window-x="-8"
     inkscape:window-y="-8"
     inkscape:window-maximized="1"
     inkscape:current-layer="svg153"
     inkscape:document-units="mm" />
  <defs
     id="defs31">
    <linearGradient
       id="gradient_0"
       gradientUnits="userSpaceOnUse"
       x1="371.24426"
       y1="259.40195"
       x2="355.43668"
       y2="264.19479"
       gradientTransform="translate(320.54568,6.2362972)">
      <stop
         offset="0"
         stop-color="#BB5857"
         id="stop30" />
      <stop
         offset="1"
         stop-color="#CF706E"
         id="stop31" />
    </linearGradient>
  </defs>
  <defs
     id="defs99">
    <linearGradient
       id="gradient_1"
       gradientUnits="userSpaceOnUse"
       x1="455.91922"
       y1="216.59912"
       x2="457.71497"
       y2="231.38808"
       gradientTransform="translate(320.54568,6.2362972)">
      <stop
         offset="0"
         stop-color="#261A1A"
         id="stop98" />
      <stop
         offset="1"
         stop-color="#4E361E"
         id="stop99" />
    </linearGradient>
  </defs>
  <path
     fill="#201a1b"
     d="m 30.013978,111.99659 c 1.931,0.741 3.833,1.469 5.687,2.392 3.004,2.674 5.737,6.13 8.876,8.534 7.797,7.917 15.618,16.542 24.423,23.331 7.65,0.992 15.344,0.792 23.014,1.894 0.448,3.514 0.997,7.044 1.339,10.567 l -0.011,1.342 c -0.147,0.226 -0.205,0.549 -0.442,0.678 -0.308,0.168 -20.626,-3.94 -26.725,-2.21 -4.951,1.405 -6.902,4.895 -9.239,9.069 0.261,-3.525 0.353,-6.868 -0.348,-10.349 l -0.959,-6.893 c -2.134,-8.347 -13.503,-21.644 -18.97,-28.739 -2.119,-3.284 -4.202,-6.559 -6.645,-9.616 z"
     id="path106" />
  <defs
     id="defs112">
    <linearGradient
       id="gradient_2"
       gradientUnits="userSpaceOnUse"
       x1="411.53598"
       y1="308.74286"
       x2="433.86798"
       y2="296.41428">
      <stop
         offset="0"
         stop-color="#EA9863"
         id="stop111" />
      <stop
         offset="1"
         stop-color="#FDC792"
         id="stop112" />
    </linearGradient>
  </defs>
  <defs
     id="defs123">
    <linearGradient
       id="gradient_3"
       gradientUnits="userSpaceOnUse"
       x1="509.04584"
       y1="334.41479"
       x2="518.90472"
       y2="269.25861">
      <stop
         offset="0"
         stop-color="#C87C56"
         id="stop122" />
      <stop
         offset="1"
         stop-color="#F5A776"
         id="stop123" />
    </linearGradient>
  </defs>
  <path
     fill="#201a1b"
     d="m 94.966978,158.54959 c 3.182,-10.247 7.895002,-18.18 17.678002,-23.318 9.413,-4.943 20.833,-5.673 30.911,-2.415 9.678,3.13 17.99,9.755 22.542,18.924 1.461,2.942 3.253,7.439 2.861,10.726 -1.153,2.78 -0.885,10.353 -0.189,13.437 -1.487,8.673 -7.741,15.939 -14.71,20.936 -0.463,0.332 -0.937,0.648 -1.41,0.966 l 0.026,0.658 1.548,0.582 3.672,1.927 c 3.409,2.456 6.228,5.335 9.055,8.431 1.181,1.734 3.843,4.876 3.969,6.884 -1.727,-0.819 -5.424,-7.258 -7.347,-9.051 -3.248,-3.029 -8.064,-5.09 -11.985,-7.173 -0.458,-0.242 -0.858,-0.672 -1.373,-0.727 -2.997,-0.315 -12.723,4.013 -18.199,3.988 -4.278,-0.212 -8.161,-0.515 -12.292,-1.786 -0.77,1.13 0.222,1.548 -0.989,2.905 -6.207,2.816 -11.057,5.535 -15.965,10.267 -0.376,0.362 -0.214,0.259 -0.777,0.091 l 0.856,-2.147 c 0.448,-4.616 4.435,-8.195 7.531,-11.302 -5.758,-4.174 -10.283,-8.556 -13.470002,-15.004 -3.48,-7.04 -5.262,-15.61 -2.739,-23.219 z"
     id="path129" />
  <path
     fill="#a09668"
     d="m 160.42698,152.93259 c 3.785,7.228 5.603,15.201 3.243,23.259 -2.244,7.663 -7.706,14.077 -14.762,17.733 -8.293,4.297 -19.126,5.172 -27.992,2.224 -8.175,-2.718 -14.582,-8.575 -18.331,-16.298 -3.466002,-7.141 -4.564002,-15.094 -1.959,-22.72 0.105,-0.305 0.217,-0.607 0.325,-0.911 0.657,8.48 0.693,14.717 4.917,22.486 3.864,7.107 10.982,12.353 18.722,14.52 7.79,2.182 15.932,1.342 22.982,-2.701 10.629,-6.097 16.243,-16.817 14.172,-29.108 -0.458,-2.721 -2.038,-5.857 -1.317,-8.484 z"
     id="path131" />
  <path
     fill="#524f33"
     d="m 100.95098,156.21959 c 0.017,-0.064 0.029,-0.129 0.05,-0.192 2.513,-7.527 8.998,-13.614 16.084,-16.903 8.326,-3.865 17.803,-4.205 26.389,-0.97 7.096,2.673 13.728,7.776 16.953,14.778 -0.721,2.627 0.859,5.763 1.317,8.484 2.071,12.291 -3.543,23.011 -14.172,29.108 -7.05,4.043 -15.192,4.883 -22.982,2.701 -7.74,-2.167 -14.858,-7.413 -18.722,-14.52 -4.224,-7.769 -4.26,-14.006 -4.917,-22.486 z"
     id="path132" />
  <path
     fill="#7a908d"
     d="m 119.68398,145.83859 c 6.78,-3.61 14.199,-5.244 21.789,-3.061 4.496,1.293 7.852,3.802 10.96,7.215 1.114,0.701 1.91,1.282 2.675,2.371 2.835,4.032 3.371,9.183 2.533,13.943 -1.152,6.538 -4.402,12.683 -10.098,16.336 -5.699,3.656 -13.197,4.812 -19.756,3.215 -6.642,-1.617 -12.695,-5.942 -16.128,-11.887 -2.895,-5.01 -3.557,-10.829 -1.902,-16.373 1.601,-5.363 5.003,-9.181 9.927,-11.759 z"
     id="path133" />
  <path
     fill="#a9afa7"
     d="m 119.68398,145.83859 c 6.78,-3.61 14.199,-5.244 21.789,-3.061 4.496,1.293 7.852,3.802 10.96,7.215 0.065,2.345 0.442,5.118 -1.256,6.982 -1.762,-0.093 -6.743,-4.874 -8.471,-6.044 -5.876,-3.978 -14.092,-0.932 -20.425,0.254 -1.583,0.296 -2.387,0.176 -3.69,-0.739 -0.407,-1.832 0.393,-2.896 1.093,-4.607 z"
     id="path134" />
  <defs
     id="defs137">
    <linearGradient
       id="gradient_4"
       gradientUnits="userSpaceOnUse"
       x1="617.45496"
       y1="193.45966"
       x2="602.99744"
       y2="193.5406"
       gradientTransform="translate(-432.79902,-21.20341)">
      <stop
         offset="0"
         stop-color="#131014"
         id="stop136" />
      <stop
         offset="1"
         stop-color="#312926"
         id="stop137" />
    </linearGradient>
  </defs>
  <path
     fill="url(#gradient_4)"
     d="m 168.76998,175.90359 c -0.696,-3.084 -0.964,-10.657 0.189,-13.437 4.337,0.694 8.709,1.28 12.927,2.537 l 0.857,-0.217 c 1.416,5.551 4.019,13.97 3.24,19.595 -3.997,-5.679 -8.851,-8.12 -15.346,-10.006 -0.603,0.483 -1.346,0.966 -1.867,1.528 z"
     id="path137"
     style="fill:url(#gradient_4)" />
</svg>
