<?xml version="1.0" encoding="UTF-8" standalone="no"?>
<svg
   width="63mm"
   height="88mm"
   version="1.1"
   id="svg24"
   sodipodi:docname="item-shieldheater.svg"
   inkscape:version="1.3.2 (091e20e, 2023-11-25, custom)"
   xmlns:inkscape="http://www.inkscape.org/namespaces/inkscape"
   xmlns:sodipodi="http://sodipodi.sourceforge.net/DTD/sodipodi-0.dtd"
   xmlns="http://www.w3.org/2000/svg"
   xmlns:svg="http://www.w3.org/2000/svg">
  <sodipodi:namedview
     id="namedview24"
     pagecolor="#ffffff"
     bordercolor="#000000"
     borderopacity="0.25"
     inkscape:showpageshadow="2"
     inkscape:pageopacity="0.0"
     inkscape:pagecheckerboard="0"
     inkscape:deskcolor="#d1d1d1"
     inkscape:document-units="mm"
     inkscape:zoom="1.8488365"
     inkscape:cx="-25.691834"
     inkscape:cy="130.62269"
     inkscape:window-width="1920"
     inkscape:window-height="1017"
     inkscape:window-x="-8"
     inkscape:window-y="-8"
     inkscape:window-maximized="1"
     inkscape:current-layer="svg24" />
  <path
     d="m 67.965054,84.023828 6.652154,-2.411585 C 86.527269,76.838283 97.983935,70.866925 108.4902,63.49181 l 8.05361,-6.113883 3.15746,-2.656989 c 0.6008,-0.526305 1.32054,-1.347713 2.02069,-1.709428 l 5.76332,4.88857 3.11454,2.524818 c 16.46502,12.520795 35.41696,21.282268 55.28874,26.845008 l 14.96374,3.437327 3.6414,0.556017 c 0.84265,0.101219 1.94349,0.09796 2.72715,0.407218 0.55951,0.220634 1.12253,0.921253 1.19529,1.525549 0.0837,0.697122 0.0152,1.470974 0.003,2.172994 l -0.0872,4.031359 -0.77502,17.16891 c -1.19344,16.50583 -4.11999,33.24396 -9.0929,49.04522 l -6.50194,17.58055 c -3.01985,7.33271 -6.40354,14.59499 -10.36726,21.47151 -6.29625,10.92374 -13.72319,21.11606 -21.90486,30.69688 l -8.11403,8.69686 -17.0812,15.80592 -6.73448,5.38573 c -1.01945,0.80603 -2.13941,1.58921 -3.08469,2.47734 l -2.78009,2.0235 C 113.12375,263.45095 105.09275,256.34914 97.278184,248.91519 90.502187,242.46922 84.066472,235.67713 78.18141,228.40132 69.526055,217.70032 62.026349,205.94955 55.998552,193.57443 53.14733,187.72085 50.69796,181.64384 48.472957,175.52742 L 43.045256,158.24843 38.610178,138.0072 C 35.937376,122.61457 34.754206,106.82754 34.927029,91.211707 43.786692,91.068502 52.532305,88.506253 61.013204,86.17 Z"
     id="path2"
     style="stroke-width:0.233229" />
  <path
     fill="#f0c84b"
     d="m 144.02003,87.205068 -7.77304,-4.464697 c -4.99413,-2.990694 -10.01438,-6.262428 -14.3739,-10.13939 l 0.0975,-11.44729 c 8.71273,7.334066 18.43604,13.565008 28.4987,18.8621 11.80276,5.902088 24.23666,10.871495 37.03066,14.188708 l 14.15653,3.052965 -10.17018,8.337696 -8.96158,-2.55152 c -8.37105,-2.52027 -16.47832,-5.464321 -24.48927,-8.969517 -4.75506,-2.080634 -9.50897,-4.283479 -14.01542,-6.869055 z"
     id="path3"
     style="stroke-width:0.233229" />
  <defs
     id="defs4">
    <linearGradient
       id="gradient_0"
       gradientUnits="userSpaceOnUse"
       x1="505.63708"
       y1="183.79691"
       x2="171.41376"
       y2="155.43059"
       gradientTransform="matrix(0.2332288,0,0,0.2332288,2.3745851,43.130189)">
      <stop
         offset="0"
         stop-color="#EEA800"
         id="stop3" />
      <stop
         offset="1"
         stop-color="#FEF49E"
         id="stop4" />
    </linearGradient>
  </defs>
  <path
     fill="url(#gradient_0)"
     d="m 81.176069,85.420868 6.11036,-2.784285 c 6.949285,-3.387414 13.642491,-7.009691 20.106421,-11.265417 l 8.89442,-6.253215 c 1.81498,-1.40441 3.58403,-3.076287 5.48251,-4.340411 l -0.15953,11.862157 -4.42412,3.549043 c -3.48817,2.598168 -7.18041,4.934188 -10.89202,7.196974 -4.79098,2.920958 -9.66127,5.675622 -14.722567,8.107733 -2.319228,1.114601 -4.666911,2.325524 -7.087359,3.201299 -0.398354,0.265414 -0.964866,0.434505 -1.409867,0.62552 l -3.5726,1.449283 c -9.112481,3.567001 -18.401285,6.601071 -27.978359,8.659791 -1.164979,-0.98936 -2.5296,-1.80613 -3.774108,-2.69916 l -5.260709,-3.975855 c -0.353342,-0.268911 -1.222354,-0.764522 -1.45255,-1.106902 -0.06903,-0.10262 -0.107745,-0.394157 -0.143433,-0.524765 0.04268,-0.05831 0.06857,-0.13388 0.128039,-0.174922 0.07557,-0.05224 7.709844,-1.377916 8.421892,-1.535578 7.021119,-1.55657 13.971105,-3.453419 20.76366,-5.825123 z"
     id="path4"
     style="fill:url(#gradient_0);stroke-width:0.233229" />
  <defs
     id="defs6">
    <linearGradient
       id="gradient_1"
       gradientUnits="userSpaceOnUse"
       x1="297.28619"
       y1="286.58209"
       x2="163.5318"
       y2="635.06488"
       gradientTransform="matrix(0.2332288,0,0,0.2332288,2.3745851,43.130189)">
      <stop
         offset="0"
         stop-color="#BE8500"
         id="stop5" />
      <stop
         offset="1"
         stop-color="#FFEA5F"
         id="stop6" />
    </linearGradient>
  </defs>
  <path
     fill="url(#gradient_1)"
     d="m 42.354667,120.02969 c -0.702253,-4.87472 -0.843356,-9.94977 -1.087313,-14.87043 -0.112644,-2.26932 -0.404884,-4.72965 -0.264248,-6.982176 l 10.46171,7.790076 0.832861,14.27453 c 2.194217,18.80315 6.388369,37.15289 13.284247,54.80457 2.620092,6.70697 5.559475,13.3176 9.029918,19.63228 l -7.371662,6.99126 c -12.1216,-20.68506 -19.364054,-44.21505 -23.08732,-67.81104 -0.723941,-4.58715 -1.432957,-9.19668 -1.798193,-13.82907 z"
     id="path6"
     style="fill:url(#gradient_1);stroke-width:0.233229" />
  <defs
     id="defs8">
    <linearGradient
       id="gradient_2"
       gradientUnits="userSpaceOnUse"
       x1="690.96869"
       y1="886.34503"
       x2="530.02826"
       y2="327.17783"
       gradientTransform="matrix(0.2332288,0,0,0.2332288,2.3745851,43.130189)">
      <stop
         offset="0"
         stop-color="#936602"
         id="stop7" />
      <stop
         offset="1"
         stop-color="#E6AB0B"
         id="stop8" />
    </linearGradient>
  </defs>
  <path
     fill="url(#gradient_2)"
     d="m 136.03614,237.71158 c 0.66541,-0.78201 1.49804,-1.48987 2.22408,-2.22057 l 4.8283,-4.95401 c 4.22937,-4.47869 8.15881,-9.2256 11.90168,-14.11687 5.72413,-7.48082 10.69726,-15.43671 15.09386,-23.75973 3.65866,-6.92595 6.90473,-14.03896 9.55118,-21.41833 2.05638,-5.73369 3.68736,-11.64045 5.16438,-17.54697 2.88435,-11.53316 4.89968,-23.2002 6.08192,-35.03213 l 0.86434,-12.65103 10.49413,-8.599146 -0.24279,8.031236 -1.25057,17.31514 c -0.79321,7.42157 -1.81382,14.89306 -3.32048,22.20478 -4.37794,21.24411 -12.11438,41.90235 -23.36346,60.4774 l -7.8162,11.66307 -6.67804,8.80416 c -1.67761,2.1226 -3.40303,4.32359 -5.28217,6.27081 -1.84391,2.38058 -4.11275,4.55566 -6.20925,6.72025 -6.62253,6.83829 -13.6159,13.33231 -21.10277,19.21923 -1.68485,1.32475 -3.44363,2.83653 -5.30083,3.89935 -1.35459,-0.97793 -12.84461,-10.17903 -12.95609,-10.65716 -2.2362,-1.81919 -4.32756,-3.88606 -6.42126,-5.8664 -6.737279,-6.37298 -13.120518,-13.15434 -18.964299,-20.35597 -1.741052,-2.14571 -3.564902,-4.29748 -5.092084,-6.60225 -2.106989,-2.62848 -3.92011,-5.5021 -5.742327,-8.33046 l -5.25721,-8.53618 7.371662,-6.99126 14.025214,22.03778 0.139479,0.15013 c 0.739101,0.80511 1.388643,1.73128 2.075269,2.58371 l 5.516794,6.70627 c 4.045822,4.52324 8.349122,8.90398 12.824792,12.99995 l 7.57386,6.57191 5.13967,3.94717 z"
     id="path8"
     style="fill:url(#gradient_2);stroke-width:0.233229" />
  <path
     fill="#fefdfe"
     d="m 121.59043,73.016129 c 5.29172,4.635888 11.41794,8.490926 17.50451,11.989126 l 14.92315,7.871472 c 9.29929,4.339688 18.96267,7.881973 28.80119,10.781933 2.80761,0.8275 5.62198,1.80216 8.4865,2.40762 l -1.71914,19.97255 c -1.15425,9.33476 -2.95313,18.65644 -5.27189,27.76986 -1.38561,5.44519 -2.90697,10.8456 -4.79426,16.14036 -7.93794,22.26822 -20.65497,43.09951 -36.87953,60.30248 -6.43665,6.82496 -13.40739,12.99783 -20.80262,18.76325 l -15.7581,-13.54617 C 98.395117,227.9092 91.2933,219.78632 85.124165,210.93225 71.268741,191.046 62.248851,168.15995 56.901614,144.61714 c -2.861252,-12.59762 -4.864688,-25.76479 -4.973137,-38.70432 7.646406,-1.66642 15.210715,-3.98355 22.551126,-6.688538 11.775955,-4.339222 22.803711,-9.666168 33.459237,-16.30106 4.78072,-2.9767 9.53836,-6.03223 13.65159,-9.907093 z"
     id="path9"
     style="stroke-width:0.233229" />
  <path
     d="m 94.208193,220.46664 c -1.222819,-1.31657 -2.313629,-2.82626 -3.412371,-4.24943 l -7.421107,-10.4757 C 67.586757,181.27441 58.285593,153.00615 54.677078,124.18979 53.959899,118.46426 53.210535,112.63354 53.338811,106.8553 l 14.93014,-4.10693 C 84.988892,97.401133 101.04483,89.478117 115.4628,79.474 l 6.24727,-4.696528 c 6.81542,5.45942 14.15022,10.002951 21.82369,14.15209 8.62946,4.665975 17.65354,8.739317 26.89477,12.041138 l 19.49118,6.08237 c -0.11668,7.37027 -1.06143,14.80466 -2.09581,22.094 -2.59024,18.25366 -7.10648,35.98744 -14.6533,52.85128 l -4.87587,9.81054 c -4.558,8.74048 -9.89754,17.30277 -16.14503,24.94126 0.0198,-0.42775 0.10098,-0.47136 0.35613,-0.81421 l 7.42368,-10.48573 c 3.60665,-5.55668 6.76806,-11.32839 9.72471,-17.25007 l 4.29164,-9.08963 3.86483,-9.87514 c 0.5271,-1.44089 0.89864,-3.01635 1.54677,-4.40103 0.63485,-1.35575 1.00359,-2.92259 1.36066,-4.37234 l 2.04588,-8.31787 3.08865,-14.32841 2.50184,-18.05121 0.80605,-8.80182 c 0.0762,-1.10667 0.21666,-2.21428 0.2337,-3.32351 l -0.31953,-0.11872 0.0476,0.26006 -0.21059,0.0994 c -0.90657,0.44313 -1.83575,1.16241 -2.68283,1.72216 -0.60431,0.39929 -2.36262,1.25523 -2.56926,1.87399 -0.67215,-0.11032 -1.09173,-0.23369 -1.67784,0.16699 l -0.13341,-0.0618 0.20875,-0.23159 c -0.0412,-0.048 -8.8718,-2.53987 -9.84553,-2.78779 l -0.20476,-0.0931 0.14131,-0.23019 -9.19971,-3.2729 C 151.19416,100.3692 139.68805,94.618713 129.13141,87.692284 l -5.41371,-3.919876 c -0.66283,-0.531295 -1.36742,-1.005917 -1.94909,-1.630969 l -0.0998,0.0611 c -1.25966,0.78808 -2.42698,1.807057 -3.61598,2.699389 l -6.83523,4.871918 c -6.05276,3.993344 -12.48684,7.464954 -19.021912,10.595114 -4.124186,1.97545 -8.240675,3.86344 -12.522055,5.48111 l -10.972716,3.99475 -5.803431,1.72123 -2.264186,0.66446 c -0.365703,0.10775 -0.78738,0.16979 -1.10877,0.37667 l 0.353109,4.74807 0.881605,7.14426 c 2.081799,15.27323 5.736029,30.58727 11.224835,45.00314 l 5.142462,12.50293 c 0.995654,2.18978 2.272116,4.35508 3.156753,6.57938 l -3.952763,4.19649 c 0.800908,2.37193 2.319462,4.66855 3.612947,6.80282 l 9.599465,14.37133 3.226255,4.31379 c 0.349609,0.45341 1.268998,1.36858 1.421063,1.86957 0.03172,0.10466 0.01187,0.2183 0.01796,0.32768 z"
     id="path10"
     style="stroke-width:0.233229" />
  <path
     fill="#440d17"
     d="m 177.16068,104.06285 11.91403,3.45761 0.0476,0.26006 -0.21059,0.0994 c -0.90657,0.44313 -1.83575,1.16241 -2.68283,1.72216 -0.60431,0.39929 -2.36262,1.25523 -2.56926,1.87399 -0.67215,-0.11032 -1.09173,-0.23369 -1.67784,0.16699 l -0.13341,-0.0618 0.20875,-0.23159 c -0.0412,-0.048 -8.8718,-2.53987 -9.84553,-2.78779 l -0.20476,-0.0931 0.14131,-0.23019 0.6001,0.0781 z"
     id="path11"
     style="stroke-width:0.233229" />
  <path
     fill="#9e2f43"
     d="M 76.633237,100.48978 C 90.463471,95.291345 103.5609,88.497623 115.72378,80.104185 l 5.83096,-4.376771 0.25002,0.05294 c -0.0982,1.347131 -0.0485,2.715716 -0.0469,4.066111 7e-4,0.727674 -0.0865,1.579893 0.0108,2.294971 l -0.0998,0.0611 c -1.25967,0.78808 -2.42698,1.807057 -3.61598,2.69939 l -6.83523,4.87192 c -6.05275,3.993343 -12.486837,7.464954 -19.021905,10.595114 -4.124186,1.97545 -8.240675,3.86344 -12.522056,5.48111 -0.158361,-0.38412 -0.518467,-0.79717 -0.741666,-1.15938 l -1.603052,-2.73577 c -0.287105,-0.49094 -0.591468,-0.89583 -0.695721,-1.46514 z"
     id="path12"
     style="stroke-width:0.233229" />
  <path
     fill="#8b2738"
     d="m 121.80476,75.780355 0.0875,0.05061 c 1.32241,0.790178 2.54733,1.957022 3.80232,2.878976 l 8.46015,5.709907 c 10.67255,6.456474 21.80807,11.86808 33.46251,16.312252 l 9.54348,3.33074 -4.41245,4.25386 -0.60009,-0.0781 -9.19971,-3.27289 C 151.19416,100.3692 139.68805,94.618713 129.13141,87.692284 l -5.41371,-3.919876 c -0.66283,-0.531295 -1.36742,-1.005917 -1.94909,-1.630969 -0.0972,-0.71508 -0.01,-1.567299 -0.0108,-2.294972 -0.002,-1.350396 -0.0513,-2.718981 0.0469,-4.066112 z"
     id="path13"
     style="stroke-width:0.233229" />
  <path
     fill="#8b2738"
     d="M 76.330505,192.78145 C 74.397506,189.27509 72.756274,185.61923 71.13137,181.9636 63.094771,163.88137 57.935518,144.64419 55.329884,125.04365 54.552533,119.19566 53.939375,113.34629 53.913953,107.43953 l 22.719284,-6.94975 c 0.104247,0.56931 0.408616,0.9742 0.695721,1.46515 l 1.602982,2.73577 c 0.2232,0.3622 0.583305,0.77525 0.741668,1.15938 l -10.972717,3.99474 -5.80343,1.72123 -2.264186,0.66447 c -0.365704,0.10775 -0.78738,0.16979 -1.10877,0.37666 l 0.353108,4.74807 0.881606,7.14427 c 2.0818,15.27322 5.736029,30.58726 11.224836,45.00313 l 5.14246,12.50293 c 0.995654,2.18978 2.272116,4.35508 3.156753,6.57938 z"
     id="path14"
     style="stroke-width:0.233229" />
  <path
     fill="#54111d"
     d="m 121.76861,82.141439 c 0.58167,0.625052 1.28626,1.099674 1.94909,1.630969 l 5.41371,3.919876 c 10.55664,6.926429 22.06275,12.676916 33.81701,17.273396 l 9.19971,3.2729 -0.14132,0.23019 0.20477,0.0931 -2.97366,3.36969 c -0.35312,0.40885 -0.7657,0.79205 -1.06329,1.24241 -12.69139,-4.32103 -25.05041,-10.09204 -36.50265,-17.06535 l -6.89284,-4.543297 c -1.01734,-0.724641 -2.03585,-1.670385 -3.09098,-2.298236 -3.48723,2.828365 -7.32268,5.286364 -11.14694,7.629846 -10.851665,6.650287 -22.389498,12.161947 -34.336409,16.536627 -3.291558,1.20509 -6.845265,2.60493 -10.289356,3.23394 0.948308,11.4042 3.159318,22.74821 6.221845,33.76523 1.788165,6.43269 3.817955,12.79144 6.284817,18.99953 l 6.1738,13.78125 c 2.463828,5.31319 5.462685,10.43116 8.651855,15.33947 5.666995,8.72252 12.248718,16.99328 19.656998,24.30687 l 5.48391,5.0431 c 1.12042,0.96044 2.31572,1.8586 3.39254,2.86545 0.61013,-0.31952 1.22189,-0.96719 1.75085,-1.42922 20.84482,-18.21004 36.22394,-42.23075 44.91916,-68.46502 2.83981,-8.5679 4.88218,-17.50476 6.40447,-26.39217 1.08474,-6.3345 1.92764,-12.61092 2.36354,-19.02004 l 4.76253,-3.81889 c 0.5861,-0.40069 1.00569,-0.27731 1.67784,-0.16699 0.20664,-0.61876 1.96495,-1.47471 2.56927,-1.874 0.84707,-0.55975 1.77625,-1.27902 2.68283,-1.72216 l 0.21059,-0.0994 -0.0476,-0.26005 0.31952,0.11872 c -0.0171,1.10923 -0.15745,2.21683 -0.2337,3.32351 l -0.80605,8.80181 -2.50183,18.05122 -3.08866,14.32841 -2.04588,8.31787 c -0.35707,1.44975 -0.7258,3.01657 -1.36066,4.37234 -0.64813,1.38468 -1.01967,2.96014 -1.54677,4.40102 l -3.86483,9.87514 -4.29164,9.08963 c -2.95665,5.92168 -6.11806,11.69339 -9.72471,17.25007 l -7.42368,10.48574 c -0.25515,0.34285 -0.33631,0.38646 -0.35614,0.8142 -1.29302,1.91177 -2.90813,3.70973 -4.39193,5.47948 -6.38184,7.61165 -13.44284,14.73493 -21.17507,20.9787 -1.54538,1.248 -3.09379,2.56597 -4.72848,3.69434 l -3.22439,-2.34325 c -0.13878,-0.0354 -0.48932,-0.37387 -0.61223,-0.46949 l -1.97521,-1.60695 c -6.06186,-5.13663 -11.81794,-10.6378 -17.146992,-16.53383 -1.592482,-1.76181 -3.297617,-3.55464 -4.687196,-5.4825 -0.0061,-0.10938 0.01369,-0.22296 -0.01796,-0.32768 -0.152058,-0.50099 -1.071454,-1.41617 -1.421063,-1.86958 l -3.22627,-4.31378 -9.599465,-14.37134 c -1.293485,-2.13427 -2.812039,-4.43088 -3.612947,-6.80282 l 3.952763,-4.19648 c -0.884599,-2.22432 -2.161061,-4.38962 -3.156715,-6.5794 l -5.14246,-12.50293 C 66.495248,155.08678 62.841019,139.77274 60.759219,124.49952 l -0.881606,-7.14427 -0.353108,-4.74807 c 0.32139,-0.20687 0.743066,-0.26891 1.10877,-0.37666 l 2.264186,-0.66447 5.80343,-1.72123 10.972717,-3.99474 c 4.28138,-1.61767 8.397868,-3.50566 12.522054,-5.48111 6.535074,-3.130165 12.969158,-6.601775 19.021918,-10.595119 l 6.83523,-4.871917 c 1.189,-0.892333 2.35631,-1.911309 3.61598,-2.699389 z"
     id="path15"
     style="stroke-width:0.233229" />
  <path
     fill="#715551"
     d="m 80.390086,188.20084 4.205816,-4.98737 c 2.463828,5.31319 5.462685,10.43116 8.651854,15.33946 5.666995,8.72252 12.248714,16.99329 19.656994,24.30688 l 5.48391,5.04309 c 1.12043,0.96045 2.31572,1.85861 3.39255,2.86545 l 0.0242,5.70851 c 0.007,0.76406 -0.0989,1.8698 0.11102,2.59725 l -0.0644,0.10679 -0.0735,-0.0254 c -0.62879,-0.26797 -1.2044,-0.86316 -1.74013,-1.29463 l -5.1224,-4.36232 C 102.51837,222.25271 91.470786,208.87868 83.497161,194.13068 Z"
     id="path16"
     style="stroke-width:0.233229" />
  <path
     fill="#5e443f"
     d="m 181.98176,111.64302 c 0.5861,-0.40069 1.00568,-0.27731 1.67784,-0.167 -1.23075,16.84052 -3.83311,33.77154 -8.94852,49.90117 -4.21072,13.27679 -10.06593,26.33363 -17.48563,38.1329 -8.72205,13.86967 -19.75494,26.38892 -32.13613,37.08618 -0.90609,0.78296 -2.09999,1.99389 -3.17284,2.47784 -0.20991,-0.72745 -0.10449,-1.83319 -0.11102,-2.59725 l -0.0242,-5.70851 c 0.61012,-0.31951 1.22188,-0.96719 1.75085,-1.42922 20.84482,-18.21004 36.22392,-42.23074 44.91915,-68.46501 2.8398,-8.5679 4.88218,-17.50475 6.40446,-26.39217 1.08475,-6.33449 1.92764,-12.61092 2.36356,-19.02004 z"
     id="path17"
     style="stroke-width:0.233229" />
  <path
     fill="#ae8481"
     d="m 80.390086,188.20084 c -1.917375,-3.67056 -3.561171,-7.45819 -5.175812,-11.26846 -6.907539,-16.30058 -11.606633,-33.77945 -13.994196,-51.3143 l -1.396807,-12.92483 11.597302,-3.50683 c 7.701448,-2.64762 15.183661,-5.85265 22.493285,-9.433642 5.78454,-2.834195 11.490022,-5.945935 16.896032,-9.454162 3.74285,-2.428846 7.14589,-5.218727 10.77424,-7.792641 0.47182,0.227631 0.91006,0.691524 1.32077,1.022243 l 2.49275,1.927401 6.97634,4.649883 c 8.88951,5.469216 18.25832,10.061488 27.9,14.036878 3.8338,1.58082 7.74343,3.18287 11.73281,4.32639 l 0.20476,0.0931 -2.97366,3.36969 c -0.35312,0.40885 -0.76569,0.79205 -1.06328,1.24241 -12.6914,-4.32103 -25.05042,-10.09204 -36.50265,-17.06535 l -6.89284,-4.543297 c -1.01735,-0.724641 -2.03585,-1.670385 -3.09098,-2.298236 -3.48724,2.828365 -7.32269,5.286364 -11.14694,7.629846 -10.851671,6.650287 -22.389503,12.161947 -34.336414,16.536627 -3.291558,1.20509 -6.845266,2.60493 -10.289356,3.23394 0.948308,11.4042 3.159318,22.74821 6.221845,33.76523 1.788165,6.43269 3.817955,12.79144 6.284817,18.99953 l 6.1738,13.78125 z"
     id="path18"
     style="stroke-width:0.233229" />
  <path
     d="m 84.595902,183.21347 -6.1738,-13.78125 C 75.95524,163.22413 73.92545,156.86538 72.137285,150.4327 69.074758,139.41567 66.863748,128.07166 65.91544,116.66746 c 3.44409,-0.62902 6.997798,-2.02885 10.289356,-3.23394 11.946911,-4.37468 23.484743,-9.88634 34.336414,-16.536628 3.82425,-2.343483 7.6597,-4.801482 11.14694,-7.629847 1.05513,0.627852 2.07363,1.573595 3.09098,2.298237 l 6.89284,4.543296 c 11.45223,6.973312 23.81125,12.744322 36.50265,17.065352 0.29759,-0.45036 0.71016,-0.83356 1.06328,-1.24241 l 2.97366,-3.36969 c 0.97374,0.24792 9.80424,2.73974 9.84553,2.78779 l -0.20874,0.23159 0.13341,0.0618 -4.76254,3.81889 c -0.4359,6.40912 -1.27879,12.68555 -2.36354,19.02004 -1.52228,8.88742 -3.56466,17.82428 -6.40447,26.39217 -8.69522,26.23428 -24.07433,50.25497 -44.91915,68.46501 -0.52897,0.46203 -1.14073,1.10971 -1.75085,1.42922 -1.07683,-1.00684 -2.27212,-1.905 -3.39255,-2.86545 l -5.48391,-5.04309 c -7.40828,-7.31359 -13.989999,-15.58436 -19.656994,-24.30688 -3.189169,-4.9083 -6.188026,-10.02627 -8.651854,-15.33946 z"
     id="path19"
     style="stroke-width:0.233229" />
  <path
     fill="#715551"
     d="m 172.21156,108.56183 c 0.97374,0.24792 9.80424,2.73974 9.84553,2.78779 l -0.20874,0.23159 -4.92137,3.92547 -8.75236,-2.33275 c 0.29759,-0.45036 0.71016,-0.83356 1.06328,-1.24241 z"
     id="path20"
     style="stroke-width:0.233229" />
  <path
     fill="#440d17"
     d="m 167.72658,113.79408 8.89651,2.22478 c -0.87064,9.06863 -2.2334,18.00992 -4.1559,26.91717 l -2.34279,9.92364 c -5.69521,20.36041 -15.18786,39.52319 -28.28039,56.14378 l -7.54752,8.84497 c -3.31651,3.64444 -6.73238,7.14099 -10.55243,10.26416 l -0.43637,0.35032 c -0.006,-0.84196 0.19497,-1.74152 0.31346,-2.57718 l 1.00521,-6.09195 3.15606,-17.22581 3.27616,-14.33471 c 2.39269,-9.25894 5.25465,-18.65713 8.84193,-27.53032 5.01466,-12.40428 11.51148,-24.31084 19.07183,-35.34116 l 5.60518,-7.64454 z"
     id="path21"
     style="stroke-width:0.233229" />
  <path
     fill="#54111d"
     d="m 121.77421,90.142352 7.82669,5.464784 c 11.92499,7.637074 24.82674,13.421154 38.12568,18.186944 l -3.14906,3.92315 -5.60518,7.64454 c -7.56035,11.03032 -14.05717,22.93688 -19.07183,35.34116 -3.58728,8.87319 -6.44924,18.27138 -8.84193,27.53032 l -3.27616,14.33471 -3.15606,17.22581 -1.00521,6.09195 c -0.11849,0.83566 -0.31883,1.73522 -0.31346,2.57718 -0.44617,0.43612 -0.93805,0.98073 -1.50223,1.2522 l -0.0263,-99.47209 z"
     id="path22"
     style="stroke-width:0.233229" />
  <path
     fill="#8b2738"
     d="m 82.80074,111.6106 c 9.548853,-3.83522 18.98436,-8.59612 27.77476,-13.94592 l 5.96785,-3.795798 3.45482,-2.463362 c 0.55811,-0.416779 1.12603,-1.008249 1.77604,-1.263168 l 0.005,40.100658 0.0263,99.47209 -0.2449,0.0949 -1.1715,-1.13909 c -2.73041,-2.16133 -5.32112,-4.67461 -7.78122,-7.13679 -11.26561,-11.27428 -20.655405,-24.57393 -27.553147,-38.93546 -1.501294,-2.84283 -2.753499,-5.82046 -4.041854,-8.76381 -4.516476,-10.31757 -8.029836,-21.2581 -10.467077,-32.25484 -1.788631,-8.07088 -3.002354,-16.17255 -3.953694,-24.37777 z"
     id="path23"
     style="stroke-width:0.233229" />
</svg>
