<?xml version="1.0" encoding="UTF-8" standalone="no"?>
<svg
   width="63mm"
   height="88mm"
   version="1.1"
   id="svg134"
   sodipodi:docname="item-bowshort.svg"
   inkscape:version="1.3.2 (091e20e, 2023-11-25, custom)"
   xmlns:inkscape="http://www.inkscape.org/namespaces/inkscape"
   xmlns:sodipodi="http://sodipodi.sourceforge.net/DTD/sodipodi-0.dtd"
   xmlns="http://www.w3.org/2000/svg"
   xmlns:svg="http://www.w3.org/2000/svg">
  <sodipodi:namedview
     id="namedview134"
     pagecolor="#ffffff"
     bordercolor="#000000"
     borderopacity="0.25"
     inkscape:showpageshadow="2"
     inkscape:pageopacity="0.0"
     inkscape:pagecheckerboard="0"
     inkscape:deskcolor="#d1d1d1"
     inkscape:zoom="0.7071068"
     inkscape:cx="-103.94469"
     inkscape:cy="480.12549"
     inkscape:window-width="1920"
     inkscape:window-height="1017"
     inkscape:window-x="-8"
     inkscape:window-y="-8"
     inkscape:window-maximized="1"
     inkscape:current-layer="svg134"
     inkscape:document-units="mm" />
  <path
     fill="#481c1a"
     d="m 70.972837,231.28644 c -0.463787,0.80405 -1.354483,1.72008 -2.144183,2.18609 l 1.865022,1.22858 c 0.736984,0.54832 1.834295,1.40086 2.704343,1.68028 z"
     id="path2"
     style="stroke-width:0.238859" />
  <path
     fill="#fae96e"
     d="m 167.05978,88.469175 c -0.56959,0.425902 -0.92787,1.167884 -1.30763,1.767535 l -2.13366,3.393319 0.58793,1.995197 c 0.76856,-0.286378 2.37371,-2.976961 2.94835,-3.76795 0.60033,-1.151556 0.16664,-2.182445 -0.0949,-3.388114 z"
     id="path4"
     style="stroke-width:0.238859" />
  <path
     fill="#fae96e"
     d="m 175.2845,76.301507 -0.22295,-0.172995 -3.65501,5.391864 c 0.30778,0.848059 0.57674,1.770677 0.99823,2.565829 l 3.33321,-4.840887 z"
     id="path5"
     style="stroke-width:0.238859" />
  <path
     fill="#481c1a"
     d="m 31.743399,33.190592 c -0.564535,1.110141 -1.010253,2.15857 -0.569345,3.416257 0.334418,0.953653 1.160005,1.851123 2.070984,2.282369 0.959298,0.453894 2.173882,0.44683 3.138322,0.02237 0.66893,-0.294247 1.430988,-0.985337 1.680329,-1.68667 0.206909,-0.581922 0.357807,-1.248165 0.307441,-1.867943 l -0.115269,-0.201112 c -0.28133,0.401475 -0.52886,0.858368 -0.874317,1.208326 -0.649355,0.657911 -1.568757,1.041424 -2.488709,1.001158 -1.166545,-0.05111 -1.996399,-0.869022 -2.722287,-1.707824 -0.327495,-0.848221 -0.402592,-1.562188 -0.427152,-2.466934 z"
     id="path6"
     style="stroke-width:0.238859" />
  <path
     fill="#481c1a"
     d="m 66.66834,227.12545 -0.552368,0.17917 -4.02779,-2.66166 -0.171886,0.44582 -0.118094,0.13227 c 0.17464,1.55481 0.298434,3.20863 0.711917,4.72061 0.639477,0.30086 1.177832,0.60296 1.462123,1.30915 l 0.05182,0.1457 c 0.229654,-0.38885 0.256529,-0.95047 0.334932,-1.39861 l 0.877842,0.85857 0.18034,-0.26485 -0.252424,-0.30304 0.42622,-0.3245 c -0.324956,-0.004 -0.642681,-0.10561 -0.956688,-0.18378 l -0.027,-0.18413 z"
     id="path7"
     style="stroke-width:0.238859" />
  <path
     fill="#c6773d"
     d="m 61.916287,225.08875 -0.118093,0.13227 c 0.174639,1.55481 0.298433,3.20864 0.711917,4.72061 0.639476,0.30086 1.177832,0.60296 1.462122,1.30915 l 0.05182,0.1457 c 0.229654,-0.38884 0.256532,-0.95046 0.334932,-1.39861 -1.027873,-1.29657 -1.816721,-3.38704 -2.442676,-4.90904 z"
     id="path8"
     style="stroke-width:0.238859" />
  <path
     fill="#fae96e"
     d="m 180.75253,67.835985 c -1.22722,1.043533 -2.26287,3.003762 -3.18794,4.346174 -0.3453,0.501037 -0.95928,1.177102 -1.13474,1.753566 l 0.55861,3.135427 c 0.16573,0.131879 0.0663,0.08999 0.30622,0.09967 l 3.66133,-5.150108 c 0.33706,-0.556586 -0.15809,-3.41725 -0.20354,-4.184711 z"
     id="path9"
     style="stroke-width:0.238859" />
  <path
     fill="#fae96e"
     d="m 186.68158,64.428132 0.89605,-6.543467 -4.11616,5.908736 c -0.29562,0.427718 -0.8869,1.520623 -1.28063,1.766517 l 0.42629,4.255221 z"
     id="path10"
     style="stroke-width:0.238859" />
  <path
     fill="#fae96e"
     d="m 211.1802,88.045088 1.25922,-1.223063 -18.30232,3.139442 c -0.79015,0.157369 -2.72797,0.329176 -3.37588,0.734822 -0.16029,0.100301 -0.36272,0.396632 -0.49836,0.544963 l -0.7637,1.018648 z"
     id="path11"
     style="stroke-width:0.238859" />
  <defs
     id="defs12">
    <linearGradient
       id="gradient_0"
       gradientUnits="userSpaceOnUse"
       x1="714.18317"
       y1="170.91768"
       x2="724.01508"
       y2="175.97472">
      <stop
         offset="0"
         stop-color="#471E16"
         id="stop11" />
      <stop
         offset="1"
         stop-color="#121C18"
         id="stop12" />
    </linearGradient>
  </defs>
  <path
     fill="#622814"
     d="m 35.547813,30.717932 c -1.370041,0.505033 -2.624393,0.892664 -3.506505,2.135941 l -0.297907,0.336715 c 0.02454,0.904756 0.09965,1.618717 0.427153,2.466934 0.725891,0.838801 1.555743,1.656715 2.722288,1.707824 0.919956,0.04026 1.839353,-0.343252 2.488709,-1.001155 0.345453,-0.34996 0.592988,-0.806851 0.874284,-1.208321 l 0.06005,-0.389237 0.08361,-0.675343 c 0.01797,-0.296057 0.02352,-0.510879 -0.0796,-0.794906 -0.548762,-1.509826 -1.426346,-1.907205 -2.772076,-2.578452 z"
     id="path13"
     style="stroke-width:0.238859" />
  <path
     fill="#9c3e36"
     d="m 35.547813,30.717932 c -1.370041,0.505033 -2.624393,0.892664 -3.506505,2.135941 l 0.328991,-0.03734 c 0.916672,-0.401955 2.096867,-0.880235 3.10876,-0.686619 l 0.578124,0.462433 c 0.343885,-0.11931 0.523854,-0.286486 0.778155,-0.533859 0.449341,0.09641 0.493663,0.288413 0.746343,0.674008 l 0.817807,1.358798 c 0.01797,-0.296057 0.02352,-0.510878 -0.0796,-0.794906 -0.548757,-1.509831 -1.426341,-1.90721 -2.772071,-2.578456 z"
     id="path14"
     style="stroke-width:0.238859" />
  <path
     fill="#e37c3e"
     d="m 189.49918,92.259866 -0.0762,0.118053 c 1.59801,0.241236 3.38347,0.05352 5.00389,0.04649 4.14957,-0.01833 8.44124,-0.196717 12.57687,0.02991 l 4.1765,-4.409177 z"
     id="path15"
     style="stroke-width:0.238859" />
  <path
     fill="#7d3919"
     d="m 70.693676,234.70111 c -0.290254,0.35337 -0.674838,0.71501 -0.747248,1.18277 -0.281469,0.87847 -1.831783,1.87412 -2.543959,2.47269 -4.867295,4.09194 -10.018987,7.55064 -15.339518,11.00081 -1.265438,0.82024 -2.461665,1.78326 -3.747294,2.55839 l 0.236737,0.19043 c 6.631261,-1.90383 13.134292,-5.78058 18.730894,-9.78466 2.171014,-1.5533 4.494913,-3.28322 6.285794,-5.27607 l -0.171117,-0.66412 c -0.870048,-0.27942 -1.967363,-1.13196 -2.704344,-1.68028 z"
     id="path18"
     style="stroke-width:0.238859" />
  <path
     fill="#c15631"
     d="m 65.236808,230.85638 -0.877845,-0.85859 c -0.07841,0.44815 -0.10529,1.00976 -0.334931,1.39862 l -0.01147,0.18177 0.333491,1.05571 c -0.124134,0.69463 -0.432809,1.2598 -0.840639,1.82436 -1.373284,1.90112 -3.24425,3.68494 -4.786902,5.47287 -3.341321,3.87274 -6.623883,7.97393 -10.29382,11.52971 l -0.109012,0.45494 c 1.285629,-0.77514 2.481861,-1.73814 3.747295,-2.5584 5.320531,-3.45017 10.472223,-6.90887 15.339518,-11.0008 0.712183,-0.59855 2.26249,-1.59422 2.543958,-2.47269 0.07241,-0.46776 0.456995,-0.8294 0.747248,-1.18278 l -1.865047,-1.22857 -2.575631,-1.70231 z"
     id="path19"
     style="stroke-width:0.238859" />
  <path
     fill="#9a4f26"
     d="m 66.253023,231.77022 -1.315329,1.15478 5.008739,2.9589 c 0.07241,-0.46776 0.456996,-0.8294 0.747248,-1.18277 l -1.865022,-1.22858 z"
     id="path20"
     style="stroke-width:0.238859" />
  <path
     fill="#9c3e36"
     d="M 73.315442,53.326798 C 72.936186,51.849964 70.535383,47.640624 69.698495,46.391211 66.888899,42.19758 63.29785,38.522757 59.23172,35.57316 53.486796,31.40607 46.159732,28.779607 39.080144,29.947215 c 1.625631,0.226066 3.182566,0.265422 4.791859,0.686296 7.062409,1.847785 13.870543,6.870328 18.270042,12.706044 l 2.738231,4.492316 z"
     id="path21"
     sodipodi:nodetypes="cccccccc"
     style="stroke-width:0.238859" />
  <path
     fill="#5e1920"
     d="m 39.080144,29.947215 -3.532331,0.770717 c 1.34573,0.671247 2.223314,1.068626 2.772069,2.578456 0.103164,0.284016 0.09755,0.498855 0.0796,0.794906 l -0.08361,0.675343 c 0.599736,-0.10968 1.448653,-0.304246 1.991438,0.04739 1.241043,-0.246609 2.593783,0.135421 3.796049,0.452774 3.690716,0.974624 7.075918,2.456529 10.256904,4.614728 l 4.216191,3.342774 0.06454,0.02345 c 0.965913,-0.099 2.002605,0.783996 2.821469,1.255608 0.60535,0.348602 1.433905,0.70236 2.085712,0.968561 L 62.142045,43.339555 C 57.742546,37.503839 50.934412,32.481296 43.872003,30.633511 42.26271,30.212637 40.705775,30.173281 39.080144,29.947215 Z"
     id="path22"
     sodipodi:nodetypes="ccccccccccccccc"
     style="stroke-width:0.238859" />
  <path
     fill="#d99b44"
     d="m 61.798183,225.22098 c -3.631181,5.1572 -6.485333,11.11761 -9.209936,16.80607 -1.45733,3.04332 -3.078988,6.23796 -4.163569,9.43382 3.669937,-3.55578 6.9525,-7.65698 10.29382,-11.52972 1.54265,-1.78794 3.413618,-3.57174 4.786902,-5.47286 0.407833,-0.56458 0.716524,-1.12966 0.840638,-1.82437 l -0.33349,-1.05571 0.01146,-0.18177 -0.05181,-0.14569 c -0.284315,-0.70624 -0.822641,-1.00829 -1.462124,-1.30916 -0.413513,-1.51196 -0.537278,-3.1658 -0.711915,-4.7206 z"
     id="path23"
     style="stroke-width:0.238859" />
  <path
     fill="#f9f9c2"
     d="m 62.510095,229.94157 c -1.089166,0.12582 -1.932078,0.88556 -2.598984,1.71725 -0.70097,0.87415 -1.96447,2.70002 -1.806764,3.91934 l 0.121987,0.49004 c 0.602197,0.38359 1.021478,0.5567 1.732996,0.39664 1.396464,-0.31382 2.672864,-1.42687 3.390209,-2.65339 0.417635,-0.71411 0.571832,-1.41753 0.663016,-2.23331 l 0.01146,-0.18177 -0.05181,-0.1457 c -0.284315,-0.70623 -0.822641,-1.00829 -1.462125,-1.30916 z"
     id="path24"
     style="stroke-width:0.238859" />
  <path
     fill="#c15631"
     d="m 186.68158,64.428132 -4.07442,5.386999 -0.42629,-4.255221 c -0.48187,0.604575 -1.37376,1.484045 -1.42832,2.276068 0.0454,0.767423 0.54051,3.62818 0.20354,4.184711 l 2.93993,19.777727 c 0.44383,-0.399949 0.82038,-0.869517 1.11041,-1.393302 0.58938,-0.562714 1.43967,-1.463623 1.51019,-2.306984 -0.55475,-5.754936 -0.19895,-11.912674 -0.0418,-17.68611 0.053,-1.951116 0.36723,-4.048638 0.20683,-5.983899 z"
     id="path25"
     style="stroke-width:0.238859" />
  <path
     fill="#5e1920"
     d="m 182.18084,65.559918 c -0.48187,0.604575 -1.37376,1.484045 -1.42831,2.276067 0.0454,0.767423 0.54051,3.62818 0.20353,4.184711 l 2.93993,19.777728 c 0.44383,-0.39995 0.82038,-0.869517 1.11042,-1.393302 l -2.39924,-20.589994 z"
     id="path26"
     style="stroke-width:0.238859" />
  <path
     fill="#c15631"
     d="m 180.95605,72.020699 -3.66133,5.150108 c -0.23926,-0.0093 -0.1405,0.03216 -0.30623,-0.09967 l -0.5586,-3.135427 c -0.52995,0.780731 -1.17887,1.399961 -1.14535,2.365779 l 0.45353,2.943791 -3.33323,4.840889 c 0.66007,1.650023 1.08594,3.431255 1.57015,5.141094 l 2.99491,10.749046 c 0.91352,-0.533766 1.87801,-2.198426 2.66175,-3.010327 0.34748,-0.371627 0.63438,-0.747738 0.91521,-1.17294 0.92261,-1.393771 2.26414,-2.713855 3.3492,-3.994591 z"
     id="path30"
     style="stroke-width:0.238859" />
  <path
     fill="#5e1920"
     d="m 176.42985,73.935725 c -0.52996,0.780734 -1.17888,1.399964 -1.14535,2.365782 l 0.45352,2.943791 3.89358,17.720702 c 0.34748,-0.371627 0.63438,-0.747738 0.91521,-1.17294 l -2.72529,-14.544816 c -0.17173,-0.903632 -0.25131,-3.031077 -0.73013,-3.71702 -0.14394,-0.206843 -0.10698,-0.215338 -0.10319,-0.460053 z"
     id="path31"
     style="stroke-width:0.238859" />
  <path
     fill="#c15631"
     d="m 175.73797,79.245311 -3.33321,4.840887 c 0.66006,1.650025 1.08592,3.431257 1.57013,5.141096 l 2.99491,10.749046 c 0.91353,-0.533766 1.87802,-2.198426 2.66176,-3.010328 z"
     id="path32"
     style="stroke-width:0.238859" />
  <path
     fill="#c15631"
     d="m 171.4065,81.520377 -0.67655,0.996299 c 0.15671,0.577122 0.3369,1.148392 0.38929,1.745729 l -0.45648,-1.354327 c -0.40843,0.242557 -0.72253,0.944122 -0.97814,1.358863 -0.62266,1.010435 -1.73034,2.270125 -2.09632,3.368629 l -0.52921,0.833861 c 0.26166,1.205639 0.69486,2.236639 0.095,3.388114 -0.5746,0.790989 -2.17972,3.481833 -2.94835,3.767948 l -0.58793,-1.995207 -0.27492,0.714108 c -0.71434,0.506047 -1.26587,1.662996 -1.71142,2.427855 -0.76283,1.378598 -1.45528,2.747542 -2.02543,4.220871 -0.39825,1.02929 -0.70768,2.29581 -1.23487,3.24832 l -0.18257,0.791 c 0.32565,0.16841 0.71204,0.32769 1.00904,0.5386 l 0.0469,0.15941 0.0509,-0.0168 c 0.7465,0.15395 1.39211,0.55651 2.05572,0.92083 l 6.39318,4.29261 c 0.21901,-0.48833 0.68739,-0.92203 1.09232,-1.25824 l 0.83617,-0.97929 2.73325,-3.13678 c 0.38667,-0.29257 0.65934,-0.70492 0.95335,-1.08837 l 2.68406,-3.16641 c 0.42894,-0.42887 0.69683,-0.74304 0.92607,-1.321267 l -2.99491,-10.749046 c -0.48433,-1.709806 -0.91025,-3.491023 -1.57013,-5.141096 -0.42164,-0.795114 -0.6905,-1.717797 -0.99822,-2.565832 z"
     id="path34"
     style="stroke-width:0.238859" />
  <path
     fill="#fae96e"
     d="m 171.11952,84.262299 -0.45648,-1.354328 c -0.40843,0.242558 -0.72253,0.944124 -0.97814,1.358865 -0.62265,1.010434 -1.73034,2.270124 -2.09632,3.368628 l 0.0725,0.289787 c 0.28197,0.607748 0.46186,1.323013 0.67829,1.961025 1.12688,-1.078827 2.08751,-2.925667 2.98716,-4.237367 0.0482,-0.414893 -0.12991,-0.96887 -0.20768,-1.386393 z"
     id="path35"
     style="stroke-width:0.238859" />
  <path
     fill="#5e1920"
     d="m 167.58903,87.635342 -0.5292,0.833861 c 0.26166,1.205649 0.69486,2.236638 0.0949,3.388114 l 5.25159,13.695083 c 0.38668,-0.29256 0.65934,-0.70492 0.95335,-1.08837 l -3.97389,-11.115023 c -0.37063,-1.048988 -0.59983,-2.497835 -1.13781,-3.440506 -0.33889,-0.593708 -0.43544,-1.31715 -0.58584,-1.98355 z"
     id="path36"
     style="stroke-width:0.238859" />
  <path
     fill="#5e1920"
     d="m 171.4065,81.520377 -0.67655,0.996299 c 0.15671,0.577122 0.3369,1.148392 0.38929,1.745729 0.0777,0.417573 0.25614,0.97139 0.20768,1.38639 0.30292,1.963784 0.98137,3.910582 1.54867,5.814479 l 3.16837,9.834296 c 0.42894,-0.42887 0.69682,-0.74303 0.92608,-1.321263 l -2.99491,-10.749046 c -0.48433,-1.709805 -0.91026,-3.491023 -1.57013,-5.141098 -0.42164,-0.795113 -0.69051,-1.717794 -0.99823,-2.565828 z"
     id="path37"
     style="stroke-width:0.238859" />
  <path
     fill="#c15631"
     d="m 167.15475,91.857281 c -0.57459,0.790989 -2.17972,3.481833 -2.94835,3.76795 0.6001,1.052226 0.98827,2.259817 1.46852,3.372794 l 3.99818,9.691125 2.73326,-3.13679 z"
     id="path38"
     style="stroke-width:0.238859" />
  <path
     fill="#c15631"
     d="m 163.61849,93.630029 -0.27493,0.714108 c -0.71433,0.506037 -1.26587,1.662986 -1.71142,2.427845 -0.76282,1.378598 -1.45527,2.747542 -2.02542,4.220868 -0.39825,1.0293 -0.70769,2.29581 -1.23487,3.24832 l -0.18258,0.791 c 0.32565,0.16842 0.71205,0.3277 1.00905,0.5386 l 0.0469,0.15941 0.0508,-0.0167 c 0.74651,0.15396 1.39212,0.55651 2.05573,0.92083 l 6.39318,4.29261 c 0.219,-0.48834 0.68739,-0.92203 1.09232,-1.25823 l 0.83616,-0.9793 -3.99819,-9.691124 c -0.48024,-1.112967 -0.86841,-2.320568 -1.46851,-3.372796 z"
     id="path39"
     style="stroke-width:0.238859" />
  <path
     fill="#9a4f26"
     d="m 161.35144,106.63412 c 0.16899,-0.48046 0.65132,-1.50504 0.56245,-1.99253 -0.52559,-0.48351 -1.06787,-1.11111 -1.78491,-1.25876 -0.18582,0.55963 -0.47089,1.87315 -0.93063,2.18802 l 0.0469,0.1594 0.0508,-0.0167 c 0.74649,0.15394 1.39212,0.5565 2.05573,0.92082 z"
     id="path40"
     style="stroke-width:0.238859" />
  <path
     fill="#fae96e"
     d="m 163.3436,94.34418 c -0.71434,0.506037 -1.26587,1.662986 -1.71143,2.427845 -0.76282,1.378599 -1.45527,2.747542 -2.02542,4.220875 -0.39825,1.02928 -0.70768,2.29581 -1.23487,3.24832 l -0.18257,0.79099 c 0.32564,0.16842 0.71204,0.3277 1.00903,0.53861 0.45978,-0.31488 0.74477,-1.62841 0.93064,-2.18802 0.67826,-2.15899 2.11394,-4.35164 3.19916,-6.33862 0.27312,-0.43732 0.0416,-2.106619 0.0155,-2.700037 z"
     id="path41"
     style="stroke-width:0.238859" />
  <path
     fill="#5e1920"
     d="m 163.61849,93.630029 -0.27493,0.714108 c 0.0261,0.593408 0.25773,2.262652 -0.0155,2.700037 0.28124,1.211107 0.84865,2.38237 1.32421,3.528216 l 4.1846,9.09602 0.83616,-0.9793 -3.99818,-9.691125 c -0.48024,-1.112968 -0.86842,-2.320569 -1.46853,-3.372794 z"
     id="path42"
     style="stroke-width:0.238859" />
  <path
     fill="#c15631"
     d="m 189.42295,92.377866 c -0.60743,0.49612 -0.77417,0.940247 -1.25142,1.500551 -1.13424,1.015599 -2.05648,2.416258 -3.03727,3.590134 -0.41762,0.383981 -0.7147,0.739383 -1.007,1.228232 l -3.41721,4.025007 c -0.33956,0.38128 -0.68633,0.751 -0.97175,1.17642 l -2.85454,3.37912 c -0.40629,0.36052 -0.75089,0.64675 -0.99765,1.14584 l -2.35952,2.76953 c -0.41955,0.33921 -0.6363,0.65347 -0.88663,1.13198 l -1.28548,1.72824 9.66155,5.22481 0.80634,0.5414 0.93782,0.60478 0.35716,-0.13194 3.38468,-3.87688 0.65426,-0.62588 c -3e-5,-0.12798 2.06543,-2.46719 2.35547,-2.82221 l 1.19059,-1.3215 0.0429,-0.24149 c 0.31715,-0.22384 0.59811,-0.56204 0.87389,-0.83758 l 2.54131,-3.03905 1.42305,-1.77405 0.89782,-1.00498 c 1.02119,-0.89294 1.85448,-2.17543 2.74572,-3.21679 l 1.42981,-1.643433 1.03161,-1.11257 c 1.29197,-1.18605 2.40701,-2.844493 3.45357,-4.258785 l 0.76044,-0.762093 c 0.40773,-0.413726 0.75444,-0.835152 1.10119,-1.300254 -4.13562,-0.226615 -8.42729,-0.04823 -12.57686,-0.0299 -1.62041,0.0071 -3.4059,0.194684 -5.00389,-0.04649 z"
     id="path43"
     style="stroke-width:0.238859" />
  <path
     fill="#e37c3e"
     d="m 205.14204,94.516623 c -2.55052,0.903457 -5.00648,1.763678 -7.66819,2.287911 l -4.18087,0.809151 c -0.0821,0.01681 -0.55183,0.07839 -0.58785,0.116309 -0.10811,0.115516 -0.14658,0.280961 -0.21995,0.421365 l 9.20337,0.624172 c 1.29197,-1.18605 2.407,-2.844491 3.45356,-4.258783 z"
     id="path44"
     style="stroke-width:0.238859" />
  <path
     fill="#5e1920"
     d="m 185.13426,97.468551 c -0.41762,0.383981 -0.7147,0.739383 -1.007,1.228232 l 16.5296,1.191214 1.03161,-1.112569 -9.20335,-0.624165 c -2.39845,0.0151 -4.96939,-0.353204 -7.35085,-0.682683 z"
     id="path45"
     style="stroke-width:0.238859" />
  <path
     fill="#5e1920"
     d="m 189.42295,92.377866 c -0.60743,0.49612 -0.77417,0.940247 -1.25142,1.500551 l 17.73097,-0.123914 c 0.40774,-0.413729 0.75444,-0.835142 1.10119,-1.300245 -4.13561,-0.226626 -8.42729,-0.04824 -12.57686,-0.02991 -1.6204,0.0071 -3.40589,0.194694 -5.00388,-0.04648 z"
     id="path46"
     style="stroke-width:0.238859" />
  <path
     fill="#c15631"
     d="m 200.65685,99.887968 -16.5296,-1.191214 -3.41721,4.025006 10.80839,1.36008 4.96289,0.66635 c 1.02119,-0.89294 1.85447,-2.17542 2.74573,-3.21678 z"
     id="path47"
     style="stroke-width:0.238859" />
  <path
     fill="#e37c3e"
     d="m 199.22705,101.53141 -10.03187,1.2913 c 0.90698,0.40818 1.53882,0.61625 2.32325,1.25913 l 4.96289,0.66635 c 1.02119,-0.89294 1.85447,-2.17542 2.74573,-3.21678 z"
     id="path48"
     style="stroke-width:0.238859" />
  <path
     fill="#c15631"
     d="m 180.71004,102.72176 c -0.33956,0.38128 -0.68633,0.751 -0.97175,1.17643 l -2.85453,3.37911 8.01612,1.68037 c 2.20041,0.45415 4.62627,0.78617 6.71927,1.60864 l 2.54131,-3.03904 1.42305,-1.77406 0.89782,-1.00498 -4.96289,-0.66635 z"
     id="path49"
     style="stroke-width:0.238859" />
  <path
     fill="#e37c3e"
     d="m 194.16046,107.52728 c -1.76838,0.4697 -3.74983,0.62271 -5.57164,0.77751 -1.09721,0.0931 -2.83455,-0.003 -3.68894,0.65289 2.20041,0.45415 4.62627,0.78617 6.71927,1.60864 z"
     id="path50"
     style="stroke-width:0.238859" />
  <path
     fill="#5e1920"
     d="m 180.71004,102.72176 c -0.33956,0.38128 -0.68633,0.751 -0.97175,1.17643 1.68502,0.47248 3.48283,0.50683 5.21585,0.68719 l 5.6917,0.69461 c 1.63936,0.17008 3.30906,0.22779 4.93767,0.47322 l 0.89782,-1.00498 -4.96289,-0.66635 z"
     id="path51"
     style="stroke-width:0.238859" />
  <path
     fill="#c15631"
     d="m 176.88376,107.27731 c -0.4063,0.36053 -0.7509,0.64676 -0.99765,1.14584 l -2.35952,2.76953 c -0.41955,0.33921 -0.6363,0.65347 -0.88664,1.13198 l -1.28548,1.72824 9.66155,5.22481 0.80634,0.5414 0.93783,0.60478 0.35716,-0.13194 3.38468,-3.87689 0.65425,-0.62588 c -3e-5,-0.12798 2.06543,-2.46719 2.35548,-2.82221 l 1.19058,-1.3215 0.0429,-0.24149 c 0.31714,-0.22384 0.5981,-0.56204 0.87388,-0.83758 -2.093,-0.82247 -4.51886,-1.15449 -6.71926,-1.60865 z"
     id="path52"
     style="stroke-width:0.238859" />
  <path
     fill="#e37c3e"
     d="m 189.51178,112.96684 c -1.24747,0.23269 -2.51329,0.29883 -3.78281,0.29246 -1.18103,-0.006 -3.80272,-0.37681 -4.74096,0.26917 l 6.1683,2.26061 c -2e-5,-0.12798 2.06543,-2.46719 2.35548,-2.82222 z"
     id="path53"
     style="stroke-width:0.238859" />
  <path
     fill="#5e1920"
     d="m 176.88376,107.27731 c -0.4063,0.36053 -0.7509,0.64676 -0.99765,1.14584 l 9.53395,1.97439 3.46431,0.6009 c 0.58501,0.0984 1.33122,0.14861 1.86088,0.40544 0.31716,-0.22383 0.59812,-0.56203 0.8739,-0.83758 -2.093,-0.82247 -4.51886,-1.15449 -6.71928,-1.60864 z"
     id="path54"
     style="stroke-width:0.238859" />
  <path
     fill="#c15631"
     d="m 173.52657,111.19264 c -0.41955,0.33921 -0.6363,0.65347 -0.88663,1.13198 l -1.28548,1.72824 9.66155,5.22481 0.80634,0.5414 0.93783,0.60479 0.35716,-0.13193 3.38468,-3.87689 0.65425,-0.62588 -6.1683,-2.26062 z"
     id="path55"
     style="stroke-width:0.238859" />
  <path
     fill="#e37c3e"
     d="m 185.59867,116.26966 c -1.58754,0.85853 -3.19602,1.84435 -4.58266,3.008 l 0.80634,0.5414 0.93783,0.60479 0.35716,-0.13193 3.38468,-3.87689 z"
     id="path56"
     style="stroke-width:0.238859" />
  <path
     fill="#5e1920"
     d="m 173.52657,111.19264 c -0.41955,0.33921 -0.6363,0.65347 -0.88663,1.13198 l 12.95873,3.94504 0.90337,0.14533 0.65425,-0.62588 -6.1683,-2.26062 z"
     id="path57"
     style="stroke-width:0.238859" />
  <path
     fill="#5e1920"
     d="m 66.865735,62.273374 c -0.544917,4.283949 -1.754913,9.795865 -3.116459,13.864996 l -3.238164,9.666789 c -2.110273,6.991039 -4.097145,13.979631 -5.424088,21.179471 -1.765428,9.57985 -2.527752,19.83485 -2.13593,29.58769 0.182042,4.53175 0.739152,9.02574 1.32736,13.51936 1.518066,10.21277 4.18507,19.86179 8.629345,29.19715 l 5.185832,-3.53207 6.337798,-4.06802 3.209299,-2.06797 -1.023658,-2.26179 c -0.03017,0.41912 -2.5e-4,0.69031 0.173398,1.07893 0.168422,0.37657 0.287639,0.7295 0.393007,1.12765 l -1.978992,1.21287 c -0.699029,0.46059 -1.459606,1.02339 -2.211817,1.37628 -0.338609,0.15916 -0.664758,0.33821 -0.941107,0.59588 -0.214002,0.19972 -0.528616,0.25313 -0.803641,0.46075 l -0.304511,-0.10506 c -0.252193,-0.93038 -0.812641,-1.65867 -1.069482,-2.60896 -1.3296,-1.12536 -5.753184,-15.02613 -6.190538,-17.36612 -5.660595,-19.96131 -3.808281,-40.82072 1.253393,-60.598706 l 4.026684,-13.79795 2.005187,-8.813415 c -0.03669,-0.286392 0.124621,-1.94963 0.196644,-2.231797 -0.906977,-1.705339 -2.974289,-3.978529 -4.299563,-5.415957 z"
     id="path59"
     sodipodi:nodetypes="ccccscccccccccccccccccccc"
     style="stroke-width:0.238859" />
  <path
     fill="#9c3e36"
     d="m 71.205064,67.620461 c -0.07203,0.28217 -0.273111,2.014276 -0.236409,2.300667 l -2.005188,8.813415 -4.026684,13.797951 c -5.061674,19.777986 -6.913988,40.637396 -1.253393,60.598706 0.437351,2.33999 4.860934,16.24076 6.190538,17.36612 0.256807,0.9503 0.817269,1.67859 1.069508,2.60895 l 0.304511,0.10506 c 0.275017,-0.20761 0.589645,-0.261 0.803641,-0.46075 0.276318,-0.25777 0.602424,-0.43701 0.941107,-0.59588 0.752207,-0.35289 1.512784,-0.91569 2.211817,-1.37627 l 1.978992,-1.21288 c -0.105446,-0.39817 -0.224605,-0.75111 -0.393007,-1.12765 -0.173666,-0.38864 -0.203568,-0.65984 -0.173398,-1.07893 -0.560692,-1.93405 -1.551849,-3.8324 -2.216383,-5.75232 -2.123971,-6.13626 -3.86747,-12.45514 -4.741567,-18.89768 -1.344272,-6.5304 -2.725676,-13.65035 -2.707042,-20.28805 0.198059,-5.31392 0.211997,-9.09768 1.442285,-14.63291 1.627868,-8.187424 1.506864,-5.00018 2.399453,-10.85447 l 3.954658,-14.493714 0.204905,-0.789243 1.600361,-7.8808 z"
     id="path60"
     sodipodi:nodetypes="ccccccccccccccscccccccc"
     style="stroke-width:0.238859" />
  <path
     fill="#c15631"
     d="m 70.968654,69.921128 -2.005187,8.813415 -4.026684,13.797951 c -5.061674,19.777986 -6.913988,40.637396 -1.253393,60.598706 0.214386,-0.60259 -0.12246,-1.55534 -0.256137,-2.18442 l -0.577784,-3.50767 -0.897805,-7.64674 c -0.996192,-10.0987 -0.505231,-20.25161 0.890635,-30.26365 l 2.475808,-14.021894 2.098009,-8.196549 c 1.238222,-4.398277 2.721781,-8.646472 3.480582,-13.176419 0.212814,-1.271296 0.593844,-3.025034 0.07196,-4.21273 z"
     id="path61"
     style="stroke-width:0.238859" />
  <path
     fill="#9c3e36"
     d="m 59.635371,44.349759 c 3.521156,4.263846 6.005707,8.585644 6.965436,14.095413 0.198516,1.139674 0.447589,2.576214 0.275752,3.709825 -0.03072,0.203395 -0.03491,0.196053 -0.09076,0.359877 l 4.554791,5.291269 5.157582,6.196908 C 77.586736,66.797381 75.840234,59.844794 73.27235,53.150135 l -7.792509,-5.008957 -2.199639,-1.430416 c -0.73191,-0.649494 -1.808849,-0.941928 -2.480078,-1.575821 -0.396291,-0.374246 -0.67817,-0.536942 -1.164753,-0.785182 z"
     id="path65"
     style="stroke-width:0.238859" />
  <path
     fill="#5e1920"
     d="m 58.473762,43.059335 c 3.521155,4.263846 7.167316,9.876068 8.127045,15.385837 0.198516,1.139674 0.447589,2.576214 0.275752,3.709825 -0.03072,0.203395 -0.03491,0.196053 -0.09076,0.359877 l 4.554791,5.291269 C 70.975082,63.115939 70.147276,57.861073 68.251733,53.54176 67.436177,51.683476 66.993966,50.380612 65.479841,48.141178 L 63.529745,45.491307 C 60.955405,41.960043 61.31625,44.575474 60.645021,43.941582 60.24873,43.567336 59.382815,43.194375 58.473762,43.059335 Z"
     id="path66"
     sodipodi:nodetypes="csccccccsc"
     style="stroke-width:0.238859" />
  <defs
     id="defs77">
    <linearGradient
       id="gradient_1"
       gradientUnits="userSpaceOnUse"
       x1="518.74335"
       y1="732.76373"
       x2="530.05292"
       y2="715.80206"
       gradientTransform="matrix(-0.22919772,0.06141334,0.06223214,0.23225349,203.43455,-39.104502)">
      <stop
         offset="0"
         stop-color="#320818"
         id="stop76" />
      <stop
         offset="1"
         stop-color="#613735"
         id="stop77" />
    </linearGradient>
  </defs>
  <path
     fill="url(#gradient_1)"
     d="m 186.51658,88.098141 c -0.0705,0.843384 -0.92081,1.744298 -1.51018,2.306984 -0.29002,0.523748 -0.66659,0.99332 -1.11042,1.393301 -1.08506,1.280735 -2.42659,2.600819 -3.3492,3.994591 -0.2808,0.425194 -0.5677,0.801305 -0.91521,1.172939 -0.78372,0.811897 -1.74823,2.476543 -2.66176,3.010328 -0.22924,0.578206 -0.4971,0.892466 -0.92606,1.321266 l -2.68407,3.16641 c -0.294,0.38345 -0.56676,0.79582 -0.95335,1.08837 l -2.73326,3.13678 -0.83616,0.9793 c -0.40484,0.33628 -0.87335,0.76991 -1.09232,1.25823 -1.24107,1.80869 -2.88433,3.4797 -4.32466,5.13243 -1.58124,1.81446 -3.20984,3.89401 -4.993,5.49945 -0.17657,0.32191 -0.32474,0.44824 -0.61012,0.66034 l -0.0773,-0.0968 c -0.80314,0.42057 -1.3748,1.34721 -1.96441,2.03188 -1.3628,1.58267 -2.83187,3.53983 -4.38107,4.91182 l -11.64981,13.48072 -9.75768,10.7234 -0.2698,0.4298 -5.21327,5.87386 -17.80712,20.61147 c -0.0358,0.26699 -10.363628,12.2153 -11.530425,13.61178 l -8.967715,-11.20553 -1.406959,-2.02741 c 0.431134,-0.26766 0.775697,-0.3624 0.933509,-0.87176 -1.303054,-2.42524 -2.965284,-4.67924 -4.408614,-7.02574 -0.591165,-0.96127 -1.647281,-3.40654 -2.507318,-3.9062 l -1.168134,0.86067 -3.209299,2.06797 -6.337801,4.06801 -5.185829,3.53207 -0.847833,0.50942 c -0.45128,0.31531 -1.864571,1.1155 -2.014351,1.58698 l 8.598477,10.84039 c 3.258488,6.94797 8.682099,13.24681 12.944102,17.13554 -0.258882,0.33843 -3.778041,4.84287 -3.991809,5.21031 -1.053962,0.9769 -2.093259,1.95535 -3.035026,3.04933 -1.091203,1.26789 -2.625676,2.69946 -3.377984,4.17505 -0.08222,0.47059 -0.643257,0.96122 -0.957921,1.32432 -1.140753,1.31583 -2.3019,2.81957 -3.557118,4.00525 l -2.061096,2.47051 0.027,0.18414 c 0.314007,0.0782 0.631828,0.18066 0.956685,0.18377 l -0.426219,0.3245 0.252425,0.30304 -0.180338,0.26486 1.016211,0.91385 2.575631,1.70231 c 0.789714,-0.46597 1.680408,-1.382 2.144183,-2.1861 0.84681,-1.62164 2.716942,-3.32606 3.925534,-4.7325 l 7.880002,-9.16357 3.127784,-3.67862 2.62266,2.32797 c 0.381283,-0.15848 0.634331,-0.63423 0.870173,-0.96879 l 1.216755,1.01594 c 1.059651,-1.4168 1.929452,-2.9774 3.074772,-4.33577 1.13475,-1.34556 2.527711,-2.41506 3.908755,-3.4841 1.558884,-0.99576 2.83738,-2.42187 4.32091,-3.52833 l -2.545226,-2.39187 c 0.665906,-0.33026 1.829276,-1.86972 2.392896,-2.45612 -0.31751,-0.67067 -1.62469,-1.52075 -2.220198,-2.02881 l 10.076538,-11.61637 19.67741,-22.66917 c 10.90647,-12.40793 18.61877,-21.12606 27.75794,-31.82972 l 3.01866,-3.52117 c 0.54762,-0.6453 1.08352,-1.41848 1.77977,-1.90226 0.21397,-0.48496 0.58138,-0.87047 0.81328,-1.34432 0.4937,-1.00878 1.52667,-1.83842 2.25313,-2.70268 l 2.37286,-3.08104 c 1.38467,-1.67615 2.96848,-3.23987 4.05723,-5.14217 l 1.28548,-1.72824 c 0.25031,-0.47851 0.46706,-0.79276 0.88663,-1.13198 l 2.35953,-2.76953 c 0.24683,-0.49901 0.5914,-0.78533 0.99765,-1.14583 l 2.85453,-3.37913 c 0.28546,-0.42543 0.63224,-0.79516 0.97175,-1.17642 l 3.41721,-4.025007 c 0.29234,-0.488757 0.58931,-0.84423 1.00701,-1.228222 0.98078,-1.173915 1.90302,-2.574544 3.03726,-3.590144 0.47724,-0.560238 0.64398,-1.00447 1.25142,-1.500551 l 0.0762,-0.118051 0.7637,-1.018651 c -0.99384,-0.979087 -1.89858,-1.993746 -3.03014,-2.819184 -0.20041,-0.249263 -0.41801,-0.243487 -0.71615,-0.32388 z"
     id="path77"
     sodipodi:nodetypes="ccccccccccccscccscccccccccccccccccccccccccccccccccccccccccccccccccccsccccccccccccccccc"
     style="fill:url(#gradient_1);stroke-width:0.238859" />
  <path
     fill="#3a4422"
     d="m 99.547644,197.86175 -9.222588,10.82722 c -1.417449,1.60702 -3.211579,3.26046 -4.418899,5.02277 l 2.62266,2.32797 c 0.381282,-0.15848 0.63433,-0.63422 0.87017,-0.96879 l 1.216757,1.01594 c 1.059652,-1.4168 1.929453,-2.9774 3.074773,-4.33576 1.13475,-1.34557 2.52771,-2.41506 3.908755,-3.48411 1.558884,-0.99576 2.837378,-2.42187 4.320908,-3.52833 l -2.545234,-2.39198 c 0.665914,-0.33026 1.829274,-1.86972 2.392894,-2.45612 -0.31751,-0.67067 -1.62469,-1.52074 -2.220196,-2.02881 z"
     id="path79"
     style="stroke-width:0.238859" />
  <path
     fill="#481c1a"
     d="m 99.374946,202.34668 c -1.287282,1.7912 -10.043703,11.70589 -9.975949,12.72428 l 1.216758,1.01594 c 1.059649,-1.41681 1.929452,-2.9774 3.074773,-4.33576 1.134749,-1.34557 2.527707,-2.41507 3.908755,-3.48411 1.558883,-0.99576 2.837377,-2.42187 4.320907,-3.52833 z"
     id="path80"
     style="stroke-width:0.238859" />
  <defs
     id="defs81">
    <linearGradient
       id="gradient_2"
       gradientUnits="userSpaceOnUse"
       x1="523.39862"
       y1="723.54755"
       x2="535.79523"
       y2="705.83301"
       gradientTransform="matrix(-0.22919772,0.06141334,0.06223214,0.23225349,203.43455,-39.104502)">
      <stop
         offset="0"
         stop-color="#714742"
         id="stop80" />
      <stop
         offset="1"
         stop-color="#A06B63"
         id="stop81" />
    </linearGradient>
  </defs>
  <path
     fill="url(#gradient_2)"
     d="m 186.51658,88.098141 c -0.0705,0.843384 -0.92081,1.744298 -1.51018,2.306984 -0.29002,0.523748 -0.66659,0.99332 -1.11042,1.393301 -1.08506,1.280735 -2.42659,2.600819 -3.3492,3.994591 -0.2808,0.425194 -0.5677,0.801305 -0.91521,1.172939 -0.78372,0.811897 -1.74823,2.476543 -2.66176,3.010328 -0.22924,0.578206 -0.4971,0.892466 -0.92606,1.321266 l -2.68407,3.16641 c -0.294,0.38345 -0.56676,0.79582 -0.95335,1.08837 l -2.73326,3.13678 -0.83616,0.9793 c -0.40484,0.33628 -0.87335,0.76991 -1.09232,1.25823 -1.24107,1.80869 -2.88433,3.4797 -4.32466,5.13243 -1.58124,1.81446 -3.20984,3.89401 -4.993,5.49945 -0.17657,0.32191 -0.32474,0.44824 -0.61012,0.66034 l -0.0773,-0.0968 c -0.80314,0.42057 -1.3748,1.34721 -1.96441,2.03188 -1.3628,1.58267 -2.83187,3.53983 -4.38107,4.91182 -8.75999,10.34916 -17.89898,20.36171 -26.89054,30.50774 l -17.80712,20.61147 c -0.0358,0.26699 -10.363625,12.21531 -11.530425,13.61179 l -8.967729,-11.2054 c -0.998994,0.5632 -1.614567,1.33618 -2.491612,2.04096 -2.05936,1.65554 -4.35869,3.45332 -6.612588,4.81648 2.452481,3.84549 5.39618,7.55311 8.427045,10.94889 0.679584,0.76132 1.3394,1.75052 2.186871,2.3133 l -7.150356,8.25066 c -0.916829,1.0477 -1.975048,2.60279 -3.113177,3.33616 -1.053965,0.97688 -1.941307,2.22906 -2.883074,3.32304 -1.091203,1.26789 -2.625676,2.69946 -3.377984,4.17505 -0.08222,0.47059 -0.643258,0.96122 -0.957922,1.32432 -1.140751,1.31583 -2.301899,2.81957 -3.557118,4.00525 l -2.061095,2.47051 0.027,0.18414 c 0.314009,0.0782 0.631829,0.18066 0.956686,0.18377 1.280678,-1.09066 2.341304,-2.4149 3.48503,-3.64812 l 10.223463,-11.66943 41.762785,-48.5047 47.55236,-53.90269 4.7845,-5.22329 9.40715,-11.276207 c 1.63974,-1.973762 3.7318,-3.919858 5.10691,-6.05895 -0.32197,-0.378485 -0.48777,-0.806466 -0.68042,-1.258476 -0.20042,-0.249272 -0.41801,-0.243487 -0.71616,-0.32389 z"
     id="path81"
     sodipodi:nodetypes="ccccccccccccscccscccccccsccccccccccccccccccc"
     style="fill:url(#gradient_2);stroke-width:0.238859" />
  <path
     fill="#3a4422"
     d="m 129.71678,153.69975 -5.21327,5.87387 -17.80712,20.61147 c -0.0358,0.26698 -10.363622,12.2153 -11.530422,13.61178 l -8.967713,-11.20553 c -0.998994,0.5632 -1.614567,1.33618 -2.491612,2.04096 -2.05936,1.65555 -4.35869,3.45332 -6.612588,4.81648 2.452481,3.84549 5.39618,7.55312 8.427045,10.94889 0.679584,0.76132 1.3394,1.75052 2.186871,2.3133 l 42.016369,-48.62915 z"
     id="path85"
     style="stroke-width:0.238859" />
  <path
     fill="#481c1a"
     d="m 84.791295,180.56393 c 0.431138,-0.26766 0.7757,-0.3624 0.933512,-0.87176 -1.303061,-2.42534 -2.965292,-4.67934 -4.408622,-7.02584 -0.591165,-0.96127 -1.647281,-3.40654 -2.507319,-3.9062 l -1.168133,0.86067 -3.209299,2.06797 -6.337801,4.06801 -5.185829,3.53208 -0.847833,0.50941 c -0.451281,0.31531 -1.864571,1.1155 -2.014351,1.58699 l 8.807437,10.71926 c 3.471389,5.66807 7.343797,11.9974 12.952881,17.0727 -0.258882,0.33842 -4.147731,4.75311 -4.361501,5.12056 1.138123,-0.7334 3.416856,-4.18766 4.333683,-5.23537 l 5.929851,-6.35144 c -0.847469,-0.56278 -1.507285,-1.55196 -2.186871,-2.3133 -3.030865,-3.39577 -5.974564,-7.1034 -8.427045,-10.94889 2.253888,-1.36319 4.553228,-3.16093 6.612588,-4.81648 0.877066,-0.7047 1.492607,-1.4778 2.491612,-2.04096 z"
     id="path86"
     sodipodi:nodetypes="cccccccccccccccccccc"
     style="stroke-width:0.238859" />
  <path
     fill="#285526"
     d="m 74.916718,183.51948 c -0.364537,0.34017 -0.536614,0.60654 -0.710307,1.07679 0.140483,0.64143 0.204765,1.25375 0.765276,1.66787 0.458794,0.18396 0.833505,0.11646 1.313957,0.0622 l 6.073811,-4.27762 c -1.086949,0.0406 -2.256406,0.49109 -3.31909,0.73776 l -0.07344,0.0459 c -1.02175,0.54062 -2.868896,1.43512 -4.039115,1.10443 z"
     id="path87"
     style="stroke-width:0.238859" />
  <path
     fill="#3a4422"
     d="m 74.921215,183.3144 -0.585884,0.044 -4.584031,6.06772 c -0.363349,0.49038 -1.163389,1.34502 -1.335359,1.90514 -0.04422,0.14477 0.0049,0.48116 0.0068,0.64588 l 0.16331,-0.1212 c 0.496298,-0.75974 1.677654,-1.32995 2.432341,-1.84411 l 5.26729,-3.68551 c -0.480438,0.0543 -0.855131,0.12187 -1.313957,-0.0622 -0.5605,-0.41408 -0.624845,-1.02643 -0.765275,-1.66787 0.173692,-0.47025 0.34577,-0.73661 0.710306,-1.07678 z"
     id="path88"
     style="stroke-width:0.238859" />
  <path
     fill="#132e1f"
     d="m 84.791295,180.56393 c 0.431138,-0.26766 0.7757,-0.3624 0.933512,-0.87176 -1.303061,-2.42534 -2.965292,-4.67934 -4.408622,-7.02584 -0.591165,-0.96127 -1.647281,-3.40654 -2.507319,-3.9062 l -1.168133,0.86067 -3.209299,2.06797 -6.337801,4.06801 -5.185829,3.53208 -0.847833,0.50941 c -0.451281,0.31531 -1.864571,1.1155 -2.014351,1.58699 l 6.871943,11.79373 1.505142,-1.20182 c -0.0019,-0.16482 -0.05096,-0.50112 -0.0068,-0.64588 0.171963,-0.56014 0.97202,-1.41472 1.335358,-1.90514 l 4.584032,-6.06772 0.585884,-0.044 -0.0045,0.20507 0.01107,0.41722 c 1.17035,0.33118 3.017493,-0.56333 4.039114,-1.10443 l 0.07344,-0.0459 c 1.062714,-0.24655 2.232271,-0.6967 3.319101,-0.73773 z"
     id="path90"
     style="stroke-width:0.238859" />
  <path
     fill="#3a4422"
     d="m 70.891622,180.10236 -4.128538,3.99505 c 1.461495,-0.33425 2.903923,-0.81941 4.345408,-1.23474 1.121658,-0.32271 2.260053,-0.54626 3.292636,-1.11429 l 0.01469,-0.11492 -0.02866,-0.0668 c -0.219637,-0.0514 -0.279531,-0.0448 -0.490774,0.046 -0.442802,0.19112 -0.935245,0.26572 -1.405918,0.36564 l -0.05485,-0.20838 0.509281,-0.29232 c -0.338698,0.12398 -0.628092,0.18537 -0.985518,0.23394 -0.464062,-0.50614 -0.75268,-1.00389 -1.067626,-1.60903 z"
     id="path91"
     style="stroke-width:0.238859" />
  <defs
     id="defs92">
    <linearGradient
       id="gradient_3"
       gradientUnits="userSpaceOnUse"
       x1="775.6958"
       y1="737.02124"
       x2="761.22394"
       y2="743.24457"
       gradientTransform="matrix(-0.22919772,0.06141334,0.06223214,0.23225349,203.43455,-39.104502)">
      <stop
         offset="0"
         stop-color="#27592A"
         id="stop91" />
      <stop
         offset="1"
         stop-color="#4D7D3B"
         id="stop92" />
    </linearGradient>
  </defs>
  <path
     fill="url(#gradient_3)"
     d="m 75.298464,176.8425 -4.406842,3.25986 c 0.314952,0.60516 0.603549,1.10283 1.067622,1.60902 0.357687,-0.0476 0.646821,-0.10996 0.985544,-0.23385 0.390204,-0.0281 0.366837,-0.0107 0.675155,0.24149 l 0.309532,-0.40704 -0.106882,-0.20439 c 0.291318,-0.17061 0.538145,-0.39635 0.869365,-0.4859 l 0.180471,-0.0453 c 0.339623,-0.75861 0.925585,-0.99028 1.642547,-1.31611 -0.725655,-0.19436 -0.918778,-0.52547 -1.364283,-1.12279 l 0.703055,-0.9874 z"
     id="path92"
     style="fill:url(#gradient_3);stroke-width:0.238859" />
  <path
     fill="#3a4422"
     d="m 68.093628,175.75676 -5.185832,3.53207 -0.847833,0.50941 c 1.596616,0.0334 3.541498,-0.53298 5.067304,-0.99484 2.509593,-0.76003 4.827711,-1.51314 7.148299,-2.75576 -0.919423,0.0699 -1.681806,0.4114 -2.52259,0.76744 -0.669394,-0.18607 -1.682299,0.2748 -2.341566,0.48133 z"
     id="path93"
     style="stroke-width:0.238859" />
  <path
     fill="#65753d"
     d="m 82.048247,180.76348 c 0.435773,-0.37687 0.930606,-0.6479 1.081955,-1.21621 -0.509955,-0.82045 -0.995269,-1.75611 -1.672555,-2.44564 -0.72591,0.93879 -3.75728,1.62085 -4.942484,2.15928 -0.71699,0.32574 -1.302922,0.5575 -1.642545,1.31612 l -0.18047,0.0452 c -0.331236,0.0895 -0.577951,0.31565 -0.869366,0.4859 l 0.106882,0.20439 -0.309529,0.40705 c -0.308458,-0.25272 -0.285049,-0.26986 -0.675157,-0.2415 l -0.50928,0.29232 0.05485,0.20838 c 0.470669,-0.0999 0.963118,-0.17452 1.405918,-0.36564 0.211258,-0.0908 0.271039,-0.0978 0.490775,-0.046 l 0.02865,0.0668 c 1.253398,-0.40128 2.630361,-1.67809 3.880769,-1.81823 -0.254339,0.36638 -0.618722,0.65489 -0.946664,0.95286 -0.932918,0.67961 -1.631547,1.70645 -2.428788,2.54588 l -0.0045,0.20506 0.01107,0.41722 c 1.17035,0.33118 3.017494,-0.56333 4.039114,-1.10443 l 0.07344,-0.0459 c 1.029745,-0.67397 2.034049,-1.25128 3.007882,-2.02298 z"
     id="path94"
     style="stroke-width:0.238859" />
  <defs
     id="defs95">
    <linearGradient
       id="gradient_4"
       gradientUnits="userSpaceOnUse"
       x1="765.58282"
       y1="755.16992"
       x2="738.5907"
       y2="750.58478"
       gradientTransform="matrix(-0.22919772,0.06141334,0.06223214,0.23225349,203.43455,-39.104502)">
      <stop
         offset="0"
         stop-color="#315F2C"
         id="stop94" />
      <stop
         offset="1"
         stop-color="#477632"
         id="stop95" />
    </linearGradient>
  </defs>
  <path
     fill="url(#gradient_4)"
     d="m 77.350004,180.76853 c -0.932918,0.67961 -1.631548,1.70645 -2.428789,2.54587 l -0.0045,0.20507 0.01107,0.41722 c 1.170351,0.33118 3.017493,-0.56333 4.039114,-1.10443 l 0.07344,-0.0459 c 1.029744,-0.67397 2.034048,-1.25128 3.007881,-2.02298 l -2.080914,0.40702 c -0.730125,0.0851 -2.028457,0.0693 -2.617297,-0.40195 z"
     id="path95"
     style="fill:url(#gradient_4);stroke-width:0.238859" />
  <path
     fill="#36662d"
     d="m 84.791295,180.56393 c 0.431138,-0.26766 0.7757,-0.3624 0.933512,-0.87176 -1.303061,-2.42534 -2.965292,-4.67934 -4.408622,-7.02584 -0.591165,-0.96127 -1.647281,-3.40654 -2.507319,-3.9062 l -1.168133,0.86067 -3.209299,2.06797 -6.337801,4.06801 1.317809,1.53975 c 0.659181,-0.20685 1.672166,-0.66741 2.341565,-0.48132 0.840746,-0.35618 1.603128,-0.6977 2.522591,-0.76744 l 3.220948,-1.25165 c -0.234046,0.23769 -0.452412,0.4257 -0.721391,0.62194 -0.565528,0.41244 -0.914511,1.00501 -1.476674,1.4245 l 0.555457,0.30817 -0.703054,0.9874 c 0.44548,0.59726 0.638613,0.9284 1.364283,1.12279 1.185227,-0.53834 4.216594,-1.22042 4.942483,-2.15928 0.677282,0.68949 1.162593,1.62515 1.672556,2.44564 -0.151351,0.56831 -0.646204,0.83925 -1.081956,1.21621 -0.973813,0.77178 -1.978142,1.34899 -3.007882,2.02298 1.062715,-0.24655 2.232271,-0.69669 3.319101,-0.73773 z"
     id="path96"
     style="stroke-width:0.238859" />
  <path
     fill="#899e5b"
     d="m 77.165174,171.18128 c -1.238555,0.25039 -3.145507,1.46718 -3.822938,2.54655 -0.226789,0.36101 -0.09684,0.76258 -0.054,1.17547 l 0.227055,0.23589 c 1.735384,-0.0538 3.663862,-0.78683 5.335879,-1.25768 l 0.401367,-0.56487 c -0.567379,-1.0595 -0.909201,-1.74481 -2.087354,-2.13534 z"
     id="path97"
     style="stroke-width:0.238859" />
  <path
     fill="#77894c"
     d="m 79.252527,173.31662 -0.401366,0.56487 c -0.271203,1.29267 -2.159383,2.23572 -2.997225,3.26924 l -0.703054,0.9874 c 0.44548,0.59726 0.638613,0.9284 1.364283,1.12279 1.185227,-0.53834 4.216594,-1.22042 4.942483,-2.15928 -0.884728,-1.13549 -1.562008,-2.49787 -2.205121,-3.78502 z"
     id="path98"
     style="stroke-width:0.238859" />
  <path
     fill="#7d3919"
     d="m 158.55165,117.2145 -1.33183,0.29651 c 0.10119,0.89023 0.20364,1.7803 0.40213,2.65511 0.0848,0.37282 0.36891,1.10248 0.35337,1.45017 -0.005,0.10632 -0.18389,0.39449 -0.2358,0.50601 l 0.0773,0.0968 c 0.28538,-0.21211 0.43355,-0.33844 0.61011,-0.66034 0.11807,-0.25521 0.35015,-0.626 0.41311,-0.8916 0.16245,-0.68548 -0.23174,-2.67562 -0.28838,-3.45253 z"
     id="path100"
     style="stroke-width:0.238859" />
  <path
     fill="#c6773d"
     d="m 158.18931,105.0322 -0.1782,0.1859 c -0.0731,1.56792 -0.43867,3.1109 -0.6331,4.66628 -0.31033,2.48058 -0.40465,5.13653 -0.15826,7.62651 l 1.33183,-0.29651 c -0.54334,-3.74766 0.65661,-7.76528 0.74405,-11.50122 l -0.0508,0.0167 -0.0469,-0.15941 c -0.297,-0.21091 -0.68343,-0.37028 -1.00905,-0.5386 z"
     id="path101"
     style="stroke-width:0.238859" />
  <path
     fill="#5e1920"
     d="m 161.35144,106.63412 c -0.66361,-0.36432 -1.30921,-0.7669 -2.05573,-0.92083 -0.0875,3.73594 -1.28741,7.75355 -0.74406,11.50121 0.0566,0.77691 0.45083,2.76702 0.28839,3.45254 -0.063,0.26551 -0.29496,0.63636 -0.41311,0.8916 1.78316,-1.60544 3.41176,-3.685 4.993,-5.49946 1.44033,-1.65273 3.08359,-3.32374 4.32466,-5.13242 z"
     id="path102"
     style="stroke-width:0.238859" />
  <path
     fill="#7d3919"
     d="m 182.76021,120.42385 -0.93783,-0.60478 c -4.03562,3.2169 -9.49824,5.58671 -14.69547,5.78221 -1.26786,0.0475 -2.72322,-0.36361 -3.93791,-0.23504 -0.38164,0.0398 -0.58153,0.33704 -0.74903,0.63156 l 0.222,0.15936 -0.0845,0.0981 0.17457,0.193 c 1.51074,0.41344 3.05593,0.59408 4.61678,0.59953 5.49203,0.02 11.5618,-2.7435 15.39148,-6.62362 z"
     id="path119"
     style="stroke-width:0.238859" />
  <path
     fill="#5e1920"
     d="m 171.35446,114.05285 c -1.08875,1.9023 -2.67256,3.46602 -4.05723,5.14218 l -2.37286,3.08103 c -0.72641,0.86426 -1.75945,1.69393 -2.25313,2.70269 -0.23194,0.47387 -0.59936,0.85929 -0.81328,1.34431 l 0.71949,-0.0681 0.0845,-0.0981 -0.222,-0.15937 c 0.1675,-0.29451 0.36748,-0.5914 0.74903,-0.63155 1.2147,-0.12857 2.67004,0.28251 3.93791,0.23503 5.19723,-0.19549 10.65985,-2.56531 14.69548,-5.7822 l -0.80634,-0.5414 z"
     id="path120"
     style="stroke-width:0.238859" />
  <path
     fill="#5e1920"
     d="m 202.85738,304.00399 c -1.06802,-0.36102 -1.84762,-0.57782 -2.90945,-0.007 -0.91689,0.49462 -1.65251,1.3862 -1.91134,2.41147 -0.19332,0.76368 -0.18745,1.65831 0.20164,2.36804 0.4455,0.81166 1.19035,1.40862 2.08284,1.62252 1.16415,0.28052 2.53587,0.19429 3.67368,-0.1479 l -1.14019,-0.59806 c -1.06087,-0.69899 -1.92417,-2.13054 -2.17355,-3.3656 -0.17122,-0.84531 0.21483,-1.29474 0.65807,-1.96115 0.51424,-0.317 0.93552,-0.30502 1.51823,-0.32233 z"
     id="path127"
     style="stroke-width:0.238859" />
  <path
     fill="#5e1920"
     d="m 157.19426,234.13777 c -17.081,-5.73627 -33.66149,-12.17621 -48.1497,-23.28159 -2.49824,-1.91497 -4.73991,-4.06972 -7.12437,-6.11748 -1.48353,1.10648 -2.762009,2.53262 -4.320905,3.52833 -1.381045,1.06904 -2.774006,2.13854 -3.908755,3.4841 -1.145321,1.35837 -2.015124,2.91896 -3.074773,4.33577 l -1.21676,-1.01594 c -0.235846,0.33457 -0.488816,0.81056 -0.870173,0.96878 l 4.558,2.73906 7.349096,4.27948 31.86139,16.71987 13.31067,5.18598 c 5.61543,2.05555 10.52459,3.85322 16.65435,6.33598 15.49736,6.47922 31.352,16.93769 39.40161,32.32528 0.83813,1.60257 1.7418,3.27967 2.3036,5.00606 0.81212,2.30652 1.4031,4.67727 1.76001,7.09831 0.48243,3.7366 0.2431,6.25766 -1.5424,9.56141 -0.37844,-0.47616 -0.88004,-0.87691 -1.32774,-1.28715 -0.58282,0.0168 -1.0041,0.005 -1.51824,0.32233 -0.44317,0.66642 -0.82885,1.11569 -0.65807,1.96115 0.24945,1.23505 1.11276,2.66658 2.17355,3.3656 l 1.14019,0.59805 c 0.98888,-0.0783 1.49118,-0.2427 2.20681,-0.97961 3.96831,-4.07782 4.70076,-10.88812 4.62854,-16.35764 l -0.10586,-2.46341 c -0.94917,-9.08796 -3.7995,-16.87988 -8.71408,-24.5618 l -3.13924,-4.50597 -1.55657,-1.75607 c -7.4942,-8.06607 -15.93044,-13.96297 -25.5085,-19.21538 z"
     id="path131"
     sodipodi:nodetypes="cscccccccccccccccccccccccccccc"
     style="stroke-width:0.238859" />
  <path
     fill="#9c3e36"
     d="m 157.19426,234.13777 c -17.081,-5.73627 -33.66149,-12.17621 -48.1497,-23.28159 -2.49824,-1.91497 -4.73991,-4.06972 -7.12437,-6.11748 -1.48353,1.10648 -2.762009,2.53262 -4.320905,3.52833 11.240615,11.26738 24.756995,18.85765 39.124705,25.252 l 28.12657,11.10327 c 14.44932,6.14521 28.92344,15.55966 37.00248,29.55533 3.28104,5.6826 5.75749,11.95171 6.52654,18.51649 0.27561,4.0733 0.16519,9.22334 -2.62806,12.44614 -0.2966,0.34331 -0.58152,0.59392 -0.99505,0.78694 -0.31715,-0.19636 -0.41914,-0.27358 -0.57128,-0.63599 -0.37843,-0.47616 -0.88004,-0.87691 -1.32774,-1.28716 -0.58282,0.0168 -1.0041,0.005 -1.51825,0.32233 -0.44316,0.66642 -0.82884,1.1157 -0.65806,1.96116 0.24945,1.23505 1.11276,2.66658 2.17355,3.3656 l 1.14018,0.59805 c 0.9889,-0.0783 1.49119,-0.2427 2.20683,-0.97961 3.9683,-4.07782 4.70075,-10.88812 4.62853,-16.35764 l -0.10586,-2.4634 c -0.94916,-9.08797 -3.79949,-16.87989 -8.71408,-24.56181 l -3.13928,-4.50601 -1.55657,-1.75607 c -7.4942,-8.06607 -15.93044,-13.96297 -25.5085,-19.21538 z"
     id="path134"
     style="stroke-width:0.238859" />
  <path
     style="fill:#440d1f;stroke:#000000;stroke-width:0.275349;stroke-linecap:round;stroke-miterlimit:0;stroke-dasharray:none;stroke-opacity:1"
     d="M 68.629738,45.417943 206.2626,272.97235"
     id="path135" />
</svg>
