<?xml version="1.0" encoding="UTF-8" standalone="no"?>
<svg
   width="63mm"
   height="88mm"
   version="1.1"
   id="svg123"
   sodipodi:docname="item-platinumcoins.svg"
   inkscape:version="1.3.2 (091e20e, 2023-11-25, custom)"
   xmlns:inkscape="http://www.inkscape.org/namespaces/inkscape"
   xmlns:sodipodi="http://sodipodi.sourceforge.net/DTD/sodipodi-0.dtd"
   xmlns="http://www.w3.org/2000/svg"
   xmlns:svg="http://www.w3.org/2000/svg">
  <sodipodi:namedview
     id="namedview123"
     pagecolor="#ffffff"
     bordercolor="#000000"
     borderopacity="0.25"
     inkscape:showpageshadow="2"
     inkscape:pageopacity="0.0"
     inkscape:pagecheckerboard="0"
     inkscape:deskcolor="#d1d1d1"
     inkscape:document-units="mm"
     inkscape:zoom="1.3683333"
     inkscape:cx="125.33496"
     inkscape:cy="166.62607"
     inkscape:window-width="1350"
     inkscape:window-height="1040"
     inkscape:window-x="182"
     inkscape:window-y="0"
     inkscape:window-maximized="0"
     inkscape:current-layer="svg123" />
  <defs
     id="defs74">
    <linearGradient
       id="gradient_0"
       gradientUnits="userSpaceOnUse"
       x1="529.71039"
       y1="1148.418"
       x2="679.95923"
       y2="1009.4732"
       gradientTransform="matrix(0.17547265,-0.10737428,0.10737428,0.17547265,-48.503843,98.013793)">
      <stop
         offset="0"
         stop-color="#431A0C"
         id="stop73" />
      <stop
         offset="1"
         stop-color="#553D21"
         id="stop74" />
    </linearGradient>
    <linearGradient
       id="gradient_0-6"
       gradientUnits="userSpaceOnUse"
       x1="514.5036"
       y1="557.89081"
       x2="513.88049"
       y2="689.62244"
       gradientTransform="matrix(0.28060119,0,0,0.28060119,-21.702549,30.485559)">
      <stop
         offset="0"
         stop-color="#354049"
         id="stop14" />
      <stop
         offset="1"
         stop-color="#535253"
         id="stop15" />
    </linearGradient>
  </defs>
  <defs
     id="defs100">
    <linearGradient
       id="gradient_1"
       gradientUnits="userSpaceOnUse"
       x1="585.16687"
       y1="910.49738"
       x2="553.47638"
       y2="822.70599"
       gradientTransform="matrix(0.17547265,-0.10737428,0.10737428,0.17547265,-48.503843,98.013793)">
      <stop
         offset="0"
         stop-color="#521D00"
         id="stop99" />
      <stop
         offset="1"
         stop-color="#754016"
         id="stop100" />
    </linearGradient>
  </defs>
  <defs
     id="defs110">
    <linearGradient
       id="gradient_2"
       gradientUnits="userSpaceOnUse"
       x1="493.89996"
       y1="348.56442"
       x2="623.60132"
       y2="310.72467"
       gradientTransform="matrix(0.17547265,-0.10737428,0.10737428,0.17547265,-48.503843,98.013793)">
      <stop
         offset="0"
         stop-color="#BDC0BE"
         id="stop109" />
      <stop
         offset="1"
         stop-color="#F6FFFF"
         id="stop110" />
    </linearGradient>
  </defs>
  <defs
     id="defs116">
    <linearGradient
       id="gradient_3"
       gradientUnits="userSpaceOnUse"
       x1="524.60431"
       y1="447.21811"
       x2="676.47565"
       y2="295.28336"
       gradientTransform="matrix(0.17547265,-0.10737428,0.10737428,0.17547265,-48.503843,98.013793)">
      <stop
         offset="0"
         stop-color="#606062"
         id="stop115" />
      <stop
         offset="1"
         stop-color="#6C747E"
         id="stop116" />
    </linearGradient>
  </defs>
  <path
     fill="#cbe8ed"
     d="m 55.759373,96.823888 c 0.358328,-4.067035 2.419062,-7.105385 5.523073,-9.683535 6.461402,-5.367346 14.760464,-8.141084 22.786779,-10.193983 10.879752,-2.782445 22.179835,-4.226135 33.406415,-4.501402 7.72186,-0.189354 15.36825,0.193952 23.05223,0.954616 11.1017,1.098542 22.5435,3.409582 32.74306,8.019857 4.71524,2.13117 9.28175,4.723626 12.60125,8.791526 1.65442,2.027326 2.66263,4.348736 2.57789,7.005755 -0.46946,3.933748 -3.36723,7.054878 -6.36265,9.410258 -3.70505,2.91347 -8.02855,4.89872 -12.41322,6.55372 -15.96202,6.02534 -33.81273,7.37953 -50.74476,7.22434 -13.19247,-0.43606 -25.963756,-1.84131 -38.669097,-5.58676 -6.338778,-1.8688 -13.01793,-4.42396 -18.283131,-8.50389 -3.127018,-2.42299 -5.693397,-5.46585 -6.217839,-9.490502 z"
     id="path3"
     style="stroke-width:0.280601" />
  <path
     fill="#413a39"
     d="m 119.4707,78.73969 c 1.61655,-0.0086 3.39164,0.133611 4.98882,-0.03419 -0.025,0.254004 -0.0757,0.328597 0.0502,0.558954 l -0.0376,0.07844 -4.6431,0.02586 z"
     id="path4"
     style="stroke-width:0.280601" />
  <path
     fill="#525153"
     d="m 124.45952,78.705469 c 3.60236,-0.03736 7.26869,0.301644 10.84805,0.68972 8.0639,0.874076 16.33491,2.353682 23.8031,5.622127 2.60287,1.139229 5.2074,2.497637 7.30322,4.447238 1.74982,1.627758 3.19802,3.579343 3.24318,6.074449 0.0345,1.892661 -1.0615,3.657358 -2.31494,4.993577 -2.51419,2.67947 -6.15612,4.4467 -9.54018,5.75373 -10.11007,3.90429 -21.54793,5.1263 -32.32749,5.40157 -6.39968,0.16349 -12.79935,-0.16866 -19.15272,-0.94786 -6.680837,-0.81934 -13.409926,-2.13508 -19.699605,-4.58502 -3.198013,-1.2456 -6.627802,-2.88261 -9.120661,-5.28316 -1.49757,-1.442017 -2.804327,-3.310245 -2.816674,-5.475937 -0.01206,-2.100586 1.110618,-3.91971 2.562449,-5.35751 2.078414,-2.058502 4.84542,-3.552131 7.488963,-4.750034 7.94073,-3.598133 16.679208,-5.134719 25.303488,-5.985204 3.13067,-0.308655 6.28182,-0.603576 9.431,-0.563465 l 0.35834,0.628835 -0.22421,0.03505 c -0.93104,0.137921 -1.944,0.07327 -2.88878,0.116946 l -5.64487,0.409683 c -9.31371,0.930738 -19.076384,2.522319 -27.528368,6.734432 -2.467608,1.229596 -5.09179,2.77934 -6.769226,5.024152 -0.974806,1.304534 -1.511315,2.825088 -1.197885,4.463247 l 0.18493,0.700949 0.06677,0.225561 c 0.97649,3.131245 4.753384,5.373815 7.504115,6.766415 4.332482,2.19318 9.16724,3.54317 13.897052,4.56763 12.149192,2.63149 24.870252,3.04034 37.223442,1.93027 7.04869,-0.6336 14.21356,-1.73215 20.94491,-3.97359 4.37514,-1.4566 10.58792,-3.99156 12.82544,-8.354347 0.65828,-1.284021 0.8651,-2.674987 0.41502,-4.065349 -1.20408,-3.719101 -5.67882,-6.234122 -8.95875,-7.821768 -7.30687,-3.537246 -15.93143,-5.117048 -23.96392,-5.934431 l -5.77057,-0.530911 -4.19975,-0.225845 c -0.26266,-0.01437 -1.06628,0.02586 -1.27225,-0.09367 l 0.0376,-0.07844 c -0.12601,-0.230445 -0.0752,-0.305008 -0.0502,-0.558955 z"
     id="path5"
     style="stroke-width:0.280601" />
  <path
     fill="#bbbdbd"
     d="m 119.82904,79.368525 4.6431,-0.02586 c 0.20597,0.11982 1.0096,0.08045 1.27225,0.09367 l 4.19975,0.225846 5.77057,0.530911 c 8.03249,0.817383 16.65705,2.397184 23.96392,5.934431 3.27993,1.587645 7.75467,4.102666 8.95875,7.821758 0.45008,1.390362 0.24338,2.781328 -0.41502,4.065349 -2.23752,4.36279 -8.4503,6.89776 -12.82544,8.35435 -6.73135,2.24145 -13.89622,3.33999 -20.94491,3.97359 -12.35319,1.11006 -25.07425,0.70122 -37.223436,-1.93026 -4.729812,-1.02446 -9.564569,-2.37445 -13.897051,-4.56764 -2.750731,-1.3926 -6.527625,-3.63517 -7.504115,-6.766408 l -0.06677,-0.225571 -0.18493,-0.700948 c -0.31343,-1.638159 0.223088,-3.158713 1.197885,-4.463238 1.677436,-2.244811 4.301618,-3.794556 6.769227,-5.024153 8.451978,-4.212116 18.21465,-5.803697 27.52836,-6.734436 l 5.64487,-0.409683 c 0.94478,-0.04368 1.95774,0.02011 2.88878,-0.116945 z"
     id="path6"
     style="stroke-width:0.280601" />
  <path
     fill="#787777"
     d="m 202.39146,204.9889 c 0.16407,0.99501 0.1015,2.03407 0.10202,3.04061 l -0.002,4.79435 -0.0144,6.78269 c -0.005,1.69903 0.0431,3.44298 -0.22239,5.12519 l -0.0382,0.25142 c -0.78486,4.85692 -4.58614,8.81423 -8.4329,11.55486 l -5.86205,3.43625 -0.1543,0.96752 c 0.0859,2.65615 0.44559,5.69844 0.008,8.31224 -0.50985,3.05406 -2.29223,5.91675 -4.3959,8.13268 -12.56195,13.23201 -44.12089,18.3583 -61.9514,18.77864 l -0.44083,0.003 c -1.41563,0.31317 -3.19183,0.12728 -4.65798,0.12642 l -16.23334,-0.58728 C 85.749496,274.52053 70.879876,271.783 57.788709,265.57414 c -4.457632,-2.11433 -9.1577,-4.87095 -12.361324,-8.70174 -1.656108,-1.98046 -2.839122,-4.09396 -3.419687,-6.62694 -0.304451,-1.32809 -0.190245,-2.77485 -0.185188,-4.13355 l 0.01351,-6.01216 c -0.0055,-3.56251 -0.27725,-7.34922 0.05696,-10.8862 -0.02873,-0.39058 -0.04827,-0.77923 -0.01523,-1.17066 0.344301,-4.05245 3.2575,-7.45249 6.255725,-9.95995 1.730747,-1.4476 3.646693,-2.65335 5.615391,-3.74603 0.260959,-0.14482 0.883612,-0.5811 1.155233,-0.55754 l -0.02241,12.89025 0.466079,0.28875 -0.179873,-15.74284 c 0.597682,0.19481 1.273088,0.60835 1.723733,1.0472 0.418376,1.47566 7.119413,5.46807 8.627084,6.3079 6.126927,3.41269 12.758374,5.54188 19.546397,7.20977 10.741416,2.63907 21.712081,3.85042 32.752331,4.22949 17.72502,0.36282 35.47611,-0.30333 52.76059,-4.6069 6.66538,-1.65974 13.32996,-3.83272 19.37298,-7.14073 5.46331,-2.99065 10.61373,-7.07846 12.43934,-13.27413 z"
     id="path7"
     style="stroke-width:0.280601" />
  <path
     fill="#cbe8ed"
     d="m 41.894026,229.21432 c -0.02873,-0.39057 -0.04827,-0.77922 -0.01523,-1.17067 0.3443,-4.05243 3.2575,-7.45248 6.255724,-9.95992 1.730747,-1.44762 3.646694,-2.65337 5.615391,-3.74602 0.260959,-0.14481 0.883613,-0.58113 1.155235,-0.55757 l -0.02241,12.89025 0.466078,0.28874 c 0.216623,0.88334 0.331669,1.71618 0.678774,2.56807 1.78322,4.37485 6.058178,7.45783 9.970321,9.82552 5.784594,3.50051 12.41127,5.7007 18.928513,7.37646 7.672755,1.97291 15.271708,3.19886 23.149018,4.04067 3.84368,0.41079 7.8184,0.85695 11.68704,0.84658 1.81634,-0.0973 3.70478,0.0828 5.52869,0.10025 l 9.45457,-0.18274 c 8.05158,-0.33197 16.02431,-1.12101 23.96952,-2.47661 5.30758,-0.90548 10.67522,-2.03238 15.78974,-3.7303 l 9.15377,-3.45898 c 1.39008,-0.58898 2.73248,-1.3048 4.13999,-1.84748 l 0.12269,-0.0463 -0.1543,0.96752 c -6.81075,3.19353 -13.77303,5.84323 -21.11691,7.52291 -0.54468,0.1247 -5.01042,0.93806 -5.13418,1.14066 -0.59599,0.60301 -2.37724,0.81233 -3.22241,1.01353 -10.39377,2.47432 -21.15426,3.48169 -31.79578,4.16047 l -5.79861,0.3429 c -0.27751,0.008 -1.78462,-0.0313 -1.91595,0.0765 -4.64002,0.26865 -9.37208,0.0537 -14.0048,-0.2227 -7.653122,-0.45712 -15.217845,-1.25289 -22.739641,-2.77991 l -9.038441,-2.2611 c -7.905659,-2.14631 -16.065543,-5.06794 -22.8328,-9.80057 -3.697764,-2.58601 -7.45782,-6.30593 -8.273526,-10.91987 z"
     id="path8"
     style="stroke-width:0.280601" />
  <path
     fill="#525153"
     d="m 54.882774,226.67039 0.466079,0.28874 c 0.216622,0.88334 0.331669,1.71618 0.678773,2.56807 1.78322,4.37485 6.058178,7.45783 9.970321,9.82552 5.784595,3.50051 12.41127,5.7007 18.928513,7.37646 7.672762,1.97291 15.27172,3.19886 23.14904,4.04067 3.84367,0.41079 7.81838,0.85695 11.68704,0.84658 1.81633,-0.0973 3.70477,0.0828 5.52868,0.10025 l 9.45457,-0.18274 c 8.05158,-0.33197 16.0243,-1.12101 23.96951,-2.47661 5.30758,-0.90548 10.67522,-2.03238 15.78973,-3.7303 l 9.15378,-3.45898 c 1.39007,-0.58898 2.73247,-1.3048 4.13999,-1.84748 l 0.12269,-0.0463 -0.1543,0.96752 c -6.81075,3.19353 -13.77304,5.84323 -21.11691,7.52291 -0.54468,0.1247 -5.01042,0.93806 -5.13417,1.14066 l -20.7224,2.61971 c -17.48931,1.16952 -35.553,0.12096 -52.655651,-3.75839 -9.772781,-2.21677 -20.192343,-5.42065 -27.85416,-12.16126 -3.037506,-2.67245 -5.148189,-5.50484 -5.401009,-9.635 z"
     id="path9"
     style="stroke-width:0.280601" />
  <path
     fill="#908f8f"
     d="m 161.51599,249.60533 c 0.12384,-0.20257 4.5895,-1.01604 5.13417,-1.14063 7.34388,-1.67969 14.30617,-4.32941 21.11692,-7.52291 0.086,2.65615 0.4456,5.69844 0.008,8.31224 -0.50986,3.05406 -2.29223,5.91675 -4.3959,8.13268 -12.56194,13.23201 -44.12088,18.3583 -61.9514,18.77864 l -0.44083,0.003 c -0.63359,-0.0799 -1.31546,0.005 -1.95299,0.0392 l -0.002,-20.8206 -0.24973,-0.18878 c 0.13131,-0.10775 1.63844,-0.0679 1.91595,-0.0765 l 5.79862,-0.34286 c 10.64152,-0.67878 21.40202,-1.68615 31.79576,-4.16048 0.84518,-0.20114 2.62642,-0.41052 3.22241,-1.01353 z"
     id="path10"
     style="stroke-width:0.280601" />
  <path
     fill="#787777"
     d="m 55.168986,211.2163 c 0.597681,0.19481 1.273087,0.60834 1.723734,1.04719 0.418375,1.47571 7.119413,5.46809 8.627083,6.30791 6.126926,3.41269 12.758374,5.54187 19.546398,7.20977 10.74141,2.63907 21.712069,3.85042 32.752329,4.2295 l 1.13026,0.21348 c 0.2834,1.62891 0.0662,3.65849 0.0659,5.32779 l 0.003,11.69267 c 0.002,1.25117 -0.20035,2.93872 0.0892,4.14418 l 0.65577,0.22757 c -3.86866,0.0116 -7.84338,-0.43577 -11.68705,-0.84657 -7.87731,-0.8418 -15.476276,-2.06776 -23.149032,-4.04066 -6.517243,-1.67574 -13.143917,-3.87593 -18.928513,-7.37646 -3.912143,-2.3677 -8.187101,-5.45067 -9.970321,-9.8255 -0.347104,-0.85193 -0.462151,-1.68474 -0.678773,-2.56806 z"
     id="path11"
     style="stroke-width:0.280601" />
  <path
     fill="#908f8f"
     d="m 202.39146,204.9889 c 0.16407,0.99501 0.1015,2.03407 0.10202,3.04061 l -0.002,4.79435 -0.0144,6.78269 c -0.005,1.69903 0.0431,3.44298 -0.22239,5.12519 l -0.0382,0.25142 c -0.78486,4.85692 -4.58614,8.81423 -8.4329,11.55486 l -5.86205,3.43625 -0.12269,0.0462 c -1.40752,0.5427 -2.74992,1.2585 -4.13999,1.84749 l -9.15379,3.45897 c -5.1145,1.6979 -10.48215,2.82479 -15.78972,3.73032 -7.94521,1.35556 -15.91793,2.14461 -23.96951,2.47656 l -9.45457,0.18276 c -1.82391,-0.0173 -3.71235,-0.19741 -5.52868,-0.10026 l -0.65577,-0.22757 c -0.28959,-1.20545 -0.087,-2.89298 -0.0893,-4.14418 l -0.003,-11.69267 c 2.9e-4,-1.66928 0.21746,-3.69887 -0.0659,-5.32776 l -1.13026,-0.21348 c 17.72501,0.36279 35.47612,-0.30335 52.7606,-4.60692 6.66539,-1.65977 13.32996,-3.83275 19.37299,-7.14075 5.4633,-2.99064 10.61372,-7.07843 12.43933,-13.27411 z"
     id="path12"
     style="stroke-width:0.280601" />
  <path
     fill="#908f8f"
     d="m 50.757374,162.01876 0.09399,0.0729 c 0.938611,0.7436 1.720086,1.67549 2.613238,2.47266 1.365686,1.21894 2.975776,2.3551 4.517679,3.33972 13.940828,8.9035 30.815904,12.53306 47.065519,14.29747 4.60439,0.49977 9.31147,0.92767 13.94617,0.93945 l 16.41937,-0.19712 c 15.34155,-0.73376 30.65649,-3.17218 45.17398,-8.27547 l 8.42475,-3.41886 c -0.72085,0.78403 -1.41759,1.41171 -2.2908,2.02819 1.11456,2.37165 1.54863,4.34595 1.32276,6.98921 0.23591,0.6656 0.16178,1.32867 0.15001,2.02566 l -0.0436,3.3027 c 0.005,0.29069 -0.0489,0.84908 0.0305,1.11509 0.0115,0.0423 0.23591,0.25889 0.25317,0.27067 0.0808,0.055 0.22842,0.0922 0.32353,0.12068 0.80445,0.18274 1.54836,0.84574 2.23803,1.28824 3.49349,2.24228 7.11101,4.81345 9.38726,8.37371 1.67491,2.61996 2.22346,5.13613 2.00882,8.22525 -1.82561,6.19567 -6.97603,10.28349 -12.43934,13.27414 -6.04302,3.308 -12.7076,5.48098 -19.37298,7.14071 -17.28448,4.30361 -35.03557,4.96974 -52.7606,4.60692 -11.04025,-0.37908 -22.010917,-1.59043 -32.752334,-4.2295 -6.788022,-1.6679 -13.419469,-3.79708 -19.546396,-7.20977 -1.507671,-0.83982 -8.208708,-4.8322 -8.627084,-6.30791 -0.450646,-0.43885 -1.126051,-0.85246 -1.723732,-1.04719 l -0.548016,-0.17039 c -0.301363,-0.17442 -0.367026,-0.44477 -0.464955,-0.75625 -2.853995,-1.67881 -5.576949,-3.46765 -7.921091,-5.82609 -1.88536,-1.89715 -3.534172,-4.35495 -4.243252,-6.95666 -0.710201,-2.6054 -0.372637,-5.94875 -0.385265,-8.65544 l -0.02183,-12.60658 c -0.01031,-0.51461 -0.03115,-1.0486 0.03815,-1.55957 0.689438,-5.08815 5.135563,-8.83333 8.945566,-11.75663 0.132434,-0.29576 0.147891,-0.59122 0.189125,-0.91 z"
     id="path13"
     style="stroke-width:0.280601" />
  <path
     fill="#cbe8ed"
     d="m 187.9489,180.65124 0.0951,-0.38442 c 0.2359,0.66558 0.16177,1.32863 0.15,2.02565 l -0.0436,3.3027 c 0.005,0.2907 -0.0488,0.84908 0.0305,1.11509 0.0116,0.0423 0.2359,0.25889 0.25315,0.27067 0.0808,0.055 0.22842,0.0922 0.32353,0.12068 0.80448,0.18275 1.54837,0.84575 2.23807,1.28824 3.49348,2.24228 7.111,4.81345 9.38725,8.37371 1.67491,2.61997 2.22346,5.13613 2.00882,8.22524 -1.82561,6.19569 -6.97603,10.28351 -12.43934,13.27414 -6.04302,3.30801 -12.7076,5.48099 -19.37298,7.14073 -17.28448,4.3036 -35.03559,4.96974 -52.76061,4.60692 -11.04025,-0.37909 -22.01092,-1.59043 -32.752328,-4.2295 -6.788022,-1.6679 -13.419469,-3.7971 -19.546396,-7.20977 -1.507671,-0.83983 -8.208709,-4.83225 -8.627084,-6.30792 -0.450645,-0.43884 -1.126051,-0.85246 -1.723733,-1.04719 l -0.548016,-0.17038 c -0.301363,-0.17443 -0.367025,-0.44479 -0.464955,-0.75625 3.411831,1.59466 6.862383,3.20225 10.402448,4.49326 17.166899,6.26109 36.253114,8.64899 54.443654,8.62318 l 23.80282,-1.61571 c 10.75768,-1.52253 21.60826,-4.1038 31.35018,-9.03002 4.10462,-2.07588 8.45506,-4.83813 11.23273,-8.5878 1.12774,-1.52253 2.0296,-3.15227 2.40756,-5.03202 0.23648,-1.17713 0.15889,-2.52289 0.17988,-3.72189 l 0.0615,-6.93845 c 0.008,-2.51697 0.26924,-5.36255 -0.0879,-7.82904 z"
     id="path14"
     style="stroke-width:0.280601" />
  <path
     fill="url(#gradient_0)"
     d="m 187.9489,180.65124 0.0951,-0.38442 c 0.2359,0.66558 0.16177,1.32863 0.15,2.02565 l -0.0436,3.3027 c 0.005,0.2907 -0.0488,0.84908 0.0305,1.11509 0.0116,0.0423 0.2359,0.25889 0.25315,0.27067 0.0808,0.055 0.22842,0.0922 0.32353,0.12068 l -0.0173,7.23025 c -0.005,1.58596 0.0808,3.23843 -0.16665,4.80671 -0.46301,2.93368 -2.20891,5.42823 -4.26768,7.47745 -3.79766,3.78053 -8.63464,6.52341 -13.51683,8.65683 -9.68497,4.23202 -20.21536,6.46899 -30.67336,7.72355 -7.08771,0.84994 -14.1684,1.30956 -21.30802,1.28235 -15.95078,-0.0603 -31.841494,-1.85001 -47.177191,-6.37584 -5.042403,-1.48802 -10.066848,-3.20922 -14.738577,-5.63951 -0.450646,-0.43884 -1.126051,-0.85246 -1.723733,-1.04719 l -0.548016,-0.17038 c -0.301363,-0.17443 -0.367024,-0.44479 -0.464954,-0.75625 3.411831,1.59466 6.862382,3.20225 10.402447,4.49326 17.166898,6.26109 36.253114,8.64899 54.443654,8.62318 l 23.80282,-1.61571 c 10.75769,-1.52253 21.60826,-4.1038 31.35018,-9.03002 4.10462,-2.07588 8.45506,-4.83813 11.23273,-8.5878 1.12774,-1.52253 2.0296,-3.15227 2.40756,-5.03202 0.23647,-1.17713 0.15889,-2.52289 0.17988,-3.72189 l 0.0615,-6.93845 c 0.008,-2.51697 0.26924,-5.36255 -0.0879,-7.82904 z"
     id="path15"
     style="fill:url(#gradient_0-6);stroke-width:0.280601" />
  <path
     fill="#787777"
     d="m 41.584522,176.24498 c 1.065723,5.17342 5.337317,9.17902 9.594317,11.97072 4.927075,3.23141 10.621314,5.53876 16.185916,7.40392 16.502158,5.53122 34.286375,7.61133 51.648005,7.57484 l -0.0107,20.21171 c -18.19054,0.0258 -37.276744,-2.36211 -54.443643,-8.62315 -3.540065,-1.29106 -6.990617,-2.89861 -10.402448,-4.49328 -2.853994,-1.67884 -5.576948,-3.46768 -7.921091,-5.82612 -1.885359,-1.89714 -3.534172,-4.35492 -4.243251,-6.95666 -0.710202,-2.60538 -0.372637,-5.94873 -0.385266,-8.65541 z"
     id="path16"
     style="stroke-width:0.280601" />
  <path
     fill="#cbe8ed"
     d="m 50.757374,162.01876 0.09399,0.0729 c 0.938611,0.7436 1.720086,1.67549 2.613238,2.47266 1.365686,1.21894 2.975776,2.3551 4.517679,3.33972 13.940828,8.9035 30.815904,12.53306 47.065519,14.29747 4.60439,0.49977 9.31147,0.92767 13.94617,0.93945 l 16.41937,-0.19712 c 15.34155,-0.73376 30.65649,-3.17218 45.17398,-8.27547 l 8.42475,-3.41886 c -0.72085,0.78403 -1.41759,1.41171 -2.2908,2.02819 1.11456,2.37165 1.54863,4.34595 1.32276,6.98921 l -0.0951,0.38443 c -0.32042,0.81796 -0.62908,1.6679 -1.08476,2.42186 -2.96316,4.90238 -9.33673,8.40656 -14.45042,10.63453 -11.50268,5.01154 -24.15191,7.50804 -36.60021,8.66944 -5.58705,0.52136 -11.18729,0.85557 -16.80072,0.81738 -17.36162,0.0365 -35.145854,-2.04362 -51.648012,-7.57483 -5.564602,-1.86515 -11.258842,-4.17251 -16.185916,-7.40392 -4.257,-2.79169 -8.528594,-6.7973 -9.594317,-11.97072 -0.01031,-0.51463 -0.03115,-1.04862 0.03815,-1.55962 0.689439,-5.08812 5.135563,-8.83329 8.945566,-11.75662 0.132434,-0.29576 0.147892,-0.59123 0.189125,-0.90996 z"
     id="path17"
     style="stroke-width:0.280601" />
  <path
     fill="#525153"
     d="m 50.757374,162.01876 0.09399,0.0729 c 0.938611,0.7436 1.720086,1.67549 2.613238,2.47266 1.365686,1.21894 2.975776,2.3551 4.517679,3.33972 13.940828,8.9035 30.815904,12.53306 47.065519,14.29747 4.60439,0.49977 9.31147,0.92767 13.94617,0.93945 l 16.41937,-0.19712 c 15.34155,-0.73376 30.65649,-3.17218 45.17398,-8.27547 l 8.42475,-3.41886 c -0.72085,0.78403 -1.41759,1.41171 -2.2908,2.02819 l -15.75859,5.46809 c -1.66928,2.41427 -3.79036,4.12597 -6.27029,5.66168 -6.11011,3.78362 -13.15291,5.80284 -20.13482,7.24399 -8.74128,1.80428 -17.67114,2.5692 -26.58723,2.64273 -10.47177,0.0868 -21.120019,-0.79441 -31.319596,-3.24348 -7.824284,-1.87833 -21.02601,-5.60951 -25.371399,-12.88773 -1.538537,-2.57705 -1.410863,-4.85974 -0.7102,-7.64582 -2.361822,-1.47455 -4.69502,-2.90029 -6.845548,-4.68042 -0.631072,-0.52192 -1.2411,-1.05507 -1.816892,-1.63815 -0.375727,-0.3805 -0.746961,-0.86371 -1.186662,-1.16789 l -0.1518,-0.10171 c 0.132433,-0.29575 0.147892,-0.59122 0.189125,-0.91 z"
     id="path18"
     style="stroke-width:0.280601" />
  <path
     fill="#bbbdbd"
     d="m 61.167399,170.79513 c 7.755816,4.33808 16.370553,7.15084 24.995953,9.17062 12.742947,2.98363 25.740098,4.14447 38.807138,4.17139 15.18754,0.031 30.22469,-1.50765 44.99076,-5.13162 -1.47093,1.9095 -3.46992,3.39358 -5.49194,4.67034 l -3.49684,1.89629 c -5.60165,2.74148 -11.80236,4.3785 -17.90181,5.57357 -12.31613,2.41261 -24.95104,2.88824 -37.45043,1.95524 -9.345977,-0.69729 -18.879681,-2.23076 -27.753414,-5.31766 -5.722582,-1.9906 -13.888917,-5.1903 -16.636001,-11.03018 -0.986315,-2.09691 -0.821602,-3.8619 -0.06342,-5.95799 z"
     id="path19"
     style="stroke-width:0.280601" />
  <path
     fill="#cbe8ed"
     d="m 55.759373,96.823888 c 0.524442,4.024652 3.090821,7.067512 6.217839,9.490502 5.265201,4.07993 11.944353,6.63509 18.283131,8.50389 12.705341,3.74545 25.476627,5.1507 38.669097,5.58676 16.93203,0.15516 34.78274,-1.199 50.74476,-7.22434 4.38467,-1.655 8.70817,-3.64025 12.41322,-6.55372 2.99542,-2.35538 5.89319,-5.47651 6.36265,-9.410258 l 0.005,13.083318 -0.0586,6.05174 c -0.0367,0.74976 -0.0391,1.78124 -0.31737,2.49004 l 0.24597,0.1793 c 5.26129,2.79032 11.86213,6.96537 13.82746,12.95844 l 0.21751,0.78511 0.0747,0.26405 c 0.29238,1.05899 0.25342,2.25632 0.17613,3.34589 -0.0115,0.45825 -0.0144,0.88868 0.0289,1.34551 0.19481,2.01273 -0.0115,4.24773 -0.0115,6.28153 l 0.005,8.18149 c -0.002,1.41395 0.1635,3.08492 -0.13362,4.46183 -0.58954,2.73222 -1.96195,5.16897 -3.7651,7.28049 -2.75494,3.22523 -6.15864,5.17118 -9.73462,7.32395 l -8.42476,3.41887 c -14.51747,5.10329 -29.83241,7.5417 -45.17399,8.27547 l -16.41938,0.19711 c -4.63469,-0.0116 -9.34177,-0.43968 -13.94616,-0.93944 -16.24961,-1.76441 -33.124686,-5.39402 -47.065512,-14.29748 -1.541905,-0.98461 -3.151995,-2.12078 -4.51768,-3.33971 -0.893151,-0.79718 -1.674627,-1.72906 -2.613239,-2.47266 l -0.09398,-0.0729 c -0.26208,-0.24222 -0.508168,-0.5267 -0.724793,-0.81067 -1.315457,-1.72397 -2.375009,-3.92531 -2.834912,-6.04244 -0.347665,-1.60112 -0.296879,-3.1711 -0.299404,-4.79661 l -0.0031,-6.00569 c 10e-4,-3.15509 -0.242712,-6.53016 0.175103,-9.64962 -0.02155,-0.46719 0.06566,-0.99839 0.150133,-1.45855 0.926824,-5.04744 5.605288,-9.41024 9.648192,-12.15087 0.210156,-0.30501 0.191938,-0.49667 0.218575,-0.85275 -0.584492,-1.09209 -1.057025,-2.28942 -1.250922,-3.51901 -0.323532,-2.05457 -0.133295,-4.32771 -0.129646,-6.40724 z"
     id="path20"
     style="stroke-width:0.280601" />
  <path
     fill="#787777"
     d="m 47.070275,134.71372 c 0.409679,4.43773 3.070057,8.00839 6.434466,10.78745 4.644791,3.83694 10.312374,6.35311 15.920188,8.42676 12.818143,4.73989 26.460693,7.11629 40.053571,8.16912 l 9.50369,0.56094 0.0118,20.48302 c -4.63469,-0.0116 -9.34177,-0.43968 -13.94616,-0.93945 -16.249609,-1.76441 -33.124686,-5.39398 -47.065514,-14.29745 -1.541903,-0.98464 -3.151992,-2.12079 -4.517679,-3.33973 -0.893152,-0.79719 -1.674627,-1.72908 -2.613238,-2.47265 l -0.09399,-0.073 c -0.262078,-0.24223 -0.508168,-0.52671 -0.724793,-0.81067 -1.315457,-1.72401 -2.375008,-3.92535 -2.834911,-6.04246 -0.347665,-1.60112 -0.296878,-3.17107 -0.299404,-4.79662 l -0.0031,-6.00569 c 10e-4,-3.15509 -0.242712,-6.53016 0.175102,-9.64961 z"
     id="path21"
     style="stroke-width:0.280601" />
  <path
     fill="#908f8f"
     d="m 202.62182,136.37461 c -0.0116,0.45825 -0.0144,0.88868 0.0289,1.34551 0.19481,2.01273 -0.0116,4.24773 -0.0116,6.28153 l 0.005,8.18149 c -0.002,1.41395 0.16349,3.08492 -0.13361,4.46183 -0.58956,2.73222 -1.96196,5.16897 -3.7651,7.28049 -2.75495,3.22523 -6.15864,5.17118 -9.73463,7.32395 l -8.42477,3.41887 c -14.51747,5.10329 -29.83241,7.5417 -45.17398,8.27547 l -16.41938,0.19711 -0.0118,-20.48304 c 4.37093,0.34685 8.85465,0.18762 13.23737,0.0586 14.53288,-0.42762 29.29221,-2.27174 43.17273,-6.7201 6.62808,-2.12416 13.01035,-4.77276 18.82048,-8.6605 3.89757,-2.60818 7.48197,-6.21754 8.40906,-10.9614 z"
     id="path22"
     style="stroke-width:0.280601" />
  <path
     fill="#525153"
     d="m 55.759373,96.823888 c 0.524442,4.024652 3.090821,7.067512 6.217839,9.490502 5.265201,4.07993 11.944353,6.63509 18.283131,8.50389 12.705341,3.74545 25.476627,5.1507 38.669097,5.58676 16.93203,0.15516 34.78274,-1.199 50.74476,-7.22434 4.38467,-1.655 8.70817,-3.64025 12.41322,-6.55372 2.99542,-2.35538 5.89319,-5.47651 6.36265,-9.410258 l 0.005,13.083318 -0.0586,6.05174 c -0.0367,0.74976 -0.0391,1.78124 -0.31737,2.49004 l 0.24597,0.1793 c -0.62967,1.69034 -1.32051,3.28416 -2.41038,4.73627 -0.81597,1.08733 -1.90132,2.07447 -2.89438,3.00272 1.63421,2.0408 2.83209,4.21828 2.47685,6.93504 l -0.21377,0.89681 -0.0761,0.2652 c -1.27506,4.26739 -5.74672,7.22408 -9.46775,9.18576 -4.69306,2.47407 -9.76157,4.13999 -14.86684,5.52756 -11.58937,3.15003 -23.60976,4.38046 -35.59648,4.42649 -13.20621,0.0505 -26.770479,-1.36792 -39.411286,-5.32188 -4.858887,-1.51973 -9.630232,-3.56392 -13.863381,-6.41398 -2.717903,-1.82981 -5.302521,-4.10464 -6.855087,-7.04113 -0.582809,-1.10221 -0.965548,-2.27429 -1.136996,-3.50753 l -0.03787,-0.25372 c -0.134129,-0.98714 0.03255,-1.97008 0.170044,-2.94909 -1.895459,-1.51076 -3.73873,-3.01283 -5.30308,-4.87853 -0.513501,-0.61258 -1.349693,-2.21312 -1.970942,-2.52684 0.210157,-0.30501 0.19194,-0.49666 0.218576,-0.85275 -0.584493,-1.09208 -1.057025,-2.2894 -1.250922,-3.51901 -0.323531,-2.05456 -0.133295,-4.32769 -0.129646,-6.40723 z"
     id="path23"
     style="stroke-width:0.280601" />
  <path
     fill="#787777"
     d="m 55.759373,96.823888 c 0.524442,4.024652 3.090821,7.067512 6.217839,9.490502 5.265201,4.07993 11.944353,6.63509 18.283131,8.50389 12.705341,3.74545 25.476627,5.1507 38.669097,5.58676 l -0.0158,20.35397 6.62134,0.0258 c -0.79297,0.15804 -1.67855,0.10863 -2.48865,0.11724 l -4.60887,-0.0368 c -13.62768,-0.4167 -27.326905,-1.90808 -40.275251,-6.36179 -4.449213,-1.53041 -8.957631,-3.43289 -12.832174,-6.1348 -2.166801,-1.51103 -4.288989,-3.36047 -6.03068,-5.34543 -0.715251,-0.81486 -1.25092,-1.79192 -2.010227,-2.57002 l -0.202025,-0.20172 c -0.584493,-1.09207 -1.057025,-2.2894 -1.250922,-3.51899 -0.323532,-2.05457 -0.133295,-4.32771 -0.129647,-6.40725 z"
     id="path24"
     style="stroke-width:0.280601" />
  <path
     fill="#bbbdbd"
     d="m 182.43453,127.29549 c 1.32809,1.42939 2.26558,3.22325 2.35762,5.19532 0.10632,2.27989 -1.11173,4.35355 -2.63485,5.96026 -2.27429,2.39914 -5.29945,4.13158 -8.23789,5.58621 -4.10772,2.03324 -8.38913,3.46347 -12.79432,4.69671 -10.73465,3.00467 -21.82738,4.14223 -32.93749,4.4172 -17.29656,0.42822 -46.485809,-2.1174 -59.333974,-14.34767 l -1.006797,-1.02225 c -2.374166,-2.54 -3.4904,-5.39763 -3.364126,-8.87681 10.029244,6.83795 23.06738,9.60415 34.894163,11.35142 7.539744,1.11371 15.251784,1.51217 22.867034,1.51021 13.17955,-0.003 26.4677,-1.29974 39.1969,-4.82017 4.84456,-1.33987 9.62462,-2.91348 14.11422,-5.20206 2.45387,-1.25063 4.6751,-2.81189 6.87951,-4.44837 z"
     id="path25"
     style="stroke-width:0.280601" />
  <path
     fill="#908f8f"
     d="m 118.92944,120.40504 c 16.93203,0.15516 34.78274,-1.199 50.74476,-7.22434 4.38467,-1.655 8.70817,-3.64025 12.41322,-6.55372 2.99542,-2.35538 5.89319,-5.47651 6.36265,-9.410258 l 0.005,13.083318 -0.0586,6.05174 c -0.0367,0.74976 -0.0391,1.78124 -0.31737,2.49004 -2.20552,5.94986 -8.77525,10.2453 -14.33928,12.81758 -11.5588,5.34405 -24.95863,7.47857 -37.54893,8.52353 -3.53726,0.2938 -7.10623,0.59993 -10.65667,0.60191 l -6.62136,-0.0258 z"
     id="path26"
     style="stroke-width:0.280601" />
</svg>
