<?xml version="1.0" encoding="UTF-8" standalone="no"?>
<svg
   width="63mm"
   height="88mm"
   version="1.1"
   id="svg123"
   sodipodi:docname="item-goldcoins.svg"
   inkscape:version="1.3.2 (091e20e, 2023-11-25, custom)"
   xmlns:inkscape="http://www.inkscape.org/namespaces/inkscape"
   xmlns:sodipodi="http://sodipodi.sourceforge.net/DTD/sodipodi-0.dtd"
   xmlns="http://www.w3.org/2000/svg"
   xmlns:svg="http://www.w3.org/2000/svg">
  <sodipodi:namedview
     id="namedview123"
     pagecolor="#ffffff"
     bordercolor="#000000"
     borderopacity="0.25"
     inkscape:showpageshadow="2"
     inkscape:pageopacity="0.0"
     inkscape:pagecheckerboard="0"
     inkscape:deskcolor="#d1d1d1"
     inkscape:document-units="mm"
     inkscape:zoom="1.3683333"
     inkscape:cx="125.33496"
     inkscape:cy="166.62607"
     inkscape:window-width="1350"
     inkscape:window-height="1040"
     inkscape:window-x="182"
     inkscape:window-y="0"
     inkscape:window-maximized="0"
     inkscape:current-layer="svg123" />
  <defs
     id="defs74">
    <linearGradient
       id="gradient_0"
       gradientUnits="userSpaceOnUse"
       x1="529.71039"
       y1="1148.418"
       x2="679.95923"
       y2="1009.4732"
       gradientTransform="matrix(0.17547265,-0.10737428,0.10737428,0.17547265,-48.503843,98.013793)">
      <stop
         offset="0"
         stop-color="#431A0C"
         id="stop73" />
      <stop
         offset="1"
         stop-color="#553D21"
         id="stop74" />
    </linearGradient>
  </defs>
  <defs
     id="defs100">
    <linearGradient
       id="gradient_1"
       gradientUnits="userSpaceOnUse"
       x1="585.16687"
       y1="910.49738"
       x2="553.47638"
       y2="822.70599"
       gradientTransform="matrix(0.17547265,-0.10737428,0.10737428,0.17547265,-48.503843,98.013793)">
      <stop
         offset="0"
         stop-color="#521D00"
         id="stop99" />
      <stop
         offset="1"
         stop-color="#754016"
         id="stop100" />
    </linearGradient>
  </defs>
  <defs
     id="defs110">
    <linearGradient
       id="gradient_2"
       gradientUnits="userSpaceOnUse"
       x1="493.89996"
       y1="348.56442"
       x2="623.60132"
       y2="310.72467"
       gradientTransform="matrix(0.17547265,-0.10737428,0.10737428,0.17547265,-48.503843,98.013793)">
      <stop
         offset="0"
         stop-color="#BDC0BE"
         id="stop109" />
      <stop
         offset="1"
         stop-color="#F6FFFF"
         id="stop110" />
    </linearGradient>
  </defs>
  <defs
     id="defs116">
    <linearGradient
       id="gradient_3"
       gradientUnits="userSpaceOnUse"
       x1="524.60431"
       y1="447.21811"
       x2="676.47565"
       y2="295.28336"
       gradientTransform="matrix(0.17547265,-0.10737428,0.10737428,0.17547265,-48.503843,98.013793)">
      <stop
         offset="0"
         stop-color="#606062"
         id="stop115" />
      <stop
         offset="1"
         stop-color="#6C747E"
         id="stop116" />
    </linearGradient>
  </defs>
  <path
     fill="#f8d032"
     d="m 48.756486,98.488125 c -0.08722,-0.646885 -0.0732,-1.361069 -0.04605,-2.012704 0.112532,-2.698893 2.094315,-4.986508 4.02901,-6.679938 3.978934,-3.48307 9.492008,-5.606272 14.454086,-7.263682 14.678641,-4.902212 30.386866,-6.942915 45.816938,-7.439961 3.08966,-0.09942 6.2892,-0.252824 9.37438,-0.03812 10.78218,0.172006 21.45119,1.049233 32.07466,2.910947 6.47533,1.13441 12.69543,2.529422 18.92595,4.684185 4.97816,1.721731 10.588,4.003697 14.33079,7.832246 1.73662,1.776233 2.83413,3.681398 2.77841,6.224854 l -0.21074,2.183645 c -0.47679,0.853871 -0.93069,1.775953 -1.54154,2.539883 -3.10424,3.88186 -7.87719,6.15575 -12.40834,7.92603 l -8.49191,2.87374 c -15.44106,4.3825 -31.6982,5.24588 -47.65246,5.73821 -1.37475,-0.11746 -2.80372,-0.0671 -4.18591,-0.0931 l -8.09522,-0.26806 c -12.22337,-0.68858 -24.456266,-2.15508 -36.313928,-5.27985 -4.745547,-1.25089 -9.528056,-2.86482 -13.878967,-5.15152 -2.312923,-1.21571 -4.787573,-2.79032 -6.563192,-4.72739 -0.839289,-0.91581 -1.310748,-1.88611 -1.933809,-2.930313 -0.202198,-0.339218 -0.332361,-0.658471 -0.461914,-1.029294 z"
     id="path2"
     style="stroke-width:0.297826" />
  <path
     fill="#dd9320"
     d="m 120.08193,82.402248 c 7.5603,0.0031 15.11615,0.474752 22.59754,1.605596 6.00628,0.907754 12.05959,2.209563 17.60687,4.752978 2.14555,0.984027 4.32533,2.097624 6.01074,3.78391 1.26219,1.262783 1.93945,2.220882 1.95164,4.049835 0.003,0.415164 -0.0948,0.821095 -0.19883,1.220488 l -0.10158,-0.173532 c -0.28697,-1.354828 -1.18444,-2.586944 -2.2176,-3.478926 -4.3435,-3.751123 -10.45191,-5.394506 -15.94682,-6.580152 -6.17393,-1.331882 -12.41159,-2.089862 -18.70705,-2.541349 -4.29166,-0.307963 -8.85108,-0.630808 -13.14065,-0.28576 -11.42552,0.11315 -23.073172,1.248773 -33.959917,4.892667 -3.44794,1.154382 -7.465887,2.743296 -10.061154,5.385295 -0.733248,0.746661 -1.253565,1.580278 -1.677966,2.533319 l -0.01525,-0.09397 c -0.04147,-0.191821 -0.08356,-0.352337 -0.08448,-0.550388 -0.0061,-1.470674 0.495583,-2.791237 1.505809,-3.87174 1.800963,-1.926056 4.465002,-3.188521 6.85744,-4.227057 12.196269,-5.295346 26.423718,-6.357661 39.582568,-6.421126 z"
     id="path3"
     style="stroke-width:0.297826" />
  <path
     fill="#f4c52d"
     d="m 72.23707,97.56638 c 0.424402,-0.95305 0.944718,-1.786668 1.677967,-2.533339 2.595267,-2.641978 6.613209,-4.230903 10.06115,-5.385285 10.886745,-3.643883 22.534403,-4.779489 33.959923,-4.892665 l 2.14135,0.0244 0.10208,19.832819 0.002,4.08707 c -3e-4,0.54384 0.10617,1.1493 -0.1784,1.61512 -2.27569,-0.20342 -4.6303,-0.0305 -6.92297,-0.14883 -8.97381,-0.4673 -18.052426,-1.21545 -26.733448,-3.66743 -2.913628,-0.82292 -6.001214,-1.80634 -8.66763,-3.2636 -2.299229,-1.25682 -4.651463,-3.07742 -5.441894,-5.666703 z"
     id="path4"
     style="stroke-width:0.297826" />
  <path
     fill="#f4c52d"
     d="m 122.38474,75.053717 c 10.78216,0.172006 21.45119,1.049234 32.07466,2.910947 6.47532,1.134411 12.69542,2.529423 18.92594,4.684185 4.97815,1.721731 10.588,4.003698 14.3308,7.832247 1.73661,1.776233 2.83411,3.681398 2.77839,6.224854 l -0.21073,2.183645 c -0.4768,0.853871 -0.93069,1.775955 -1.54156,2.539885 -3.10424,3.88186 -7.87717,6.15575 -12.40832,7.92603 l -8.4919,2.87374 c -15.44108,4.3825 -31.69821,5.24588 -47.65246,5.73821 l -0.0794,-7.61453 c 2.34418,0.0778 4.7256,-0.0872 7.07009,-0.1775 5.88237,-0.22659 11.67925,-0.78119 17.49906,-1.6744 5.15655,-0.79131 10.20529,-1.78785 15.05926,-3.75289 1.96983,-0.79756 4.18207,-1.79084 5.80911,-3.17185 0.92057,-0.78149 2.18932,-1.973693 2.26199,-3.253163 0.0183,-0.324599 -0.0122,-0.228719 0.0794,-0.521468 l 0.0591,-0.160115 0.10157,0.173531 c 0.10405,-0.399392 0.2019,-0.805303 0.19885,-1.220467 -0.0122,-1.828964 -0.68946,-2.787072 -1.95166,-4.049846 -1.68541,-1.686295 -3.86517,-2.799872 -6.01072,-3.783899 -5.5473,-2.543425 -11.60061,-3.845234 -17.60689,-4.752989 -7.48138,-1.130843 -15.03723,-1.601418 -22.59754,-1.605595 l -0.051,-7.264571 z"
     id="path5"
     style="stroke-width:0.297826" />
  <path
     fill="#dd9320"
     d="m 203.57715,220.4559 0.0693,16.25505 c -0.003,0.79848 0.056,1.68748 -0.0927,2.47136 -0.38746,2.04281 -1.7938,3.9188 -3.23229,5.35641 -4.52967,4.52812 -11.45233,7.26189 -17.41957,9.2189 -11.54791,3.78743 -23.60269,5.76682 -35.66405,6.97804 -8.97826,0.90184 -18.02054,1.41975 -27.04471,1.43643 l -0.0152,-19.09781 2.40347,-0.0244 39.53996,-3.3967 11.96157,-2.56191 c 7.81706,-1.88404 15.66803,-4.34706 22.50257,-8.68995 1.91114,-1.21457 3.98878,-2.66348 5.27212,-4.55586 l 0.14424,-0.21836 c 0.69096,-1.00992 1.19666,-2.00439 1.57492,-3.17246 z"
     id="path7"
     style="stroke-width:0.297826" />
  <path
     fill="#e49f27"
     d="m 36.412178,220.98366 c 0.676676,1.30062 1.246429,2.59496 2.175623,3.74844 1.601418,1.98827 3.74935,3.52417 5.927626,4.81913 3.923276,2.33256 8.231339,4.06143 12.573619,5.43354 16.72294,5.28432 34.006092,6.83747 51.414884,7.78696 l 8.80225,0.18664 c 1.7271,0.001 3.56319,-0.11034 5.27573,0.0927 l -2.40349,0.0244 0.0152,19.0978 -28.419151,-1.45965 c -13.417636,-1.32623 -27.231126,-3.5906 -39.782693,-8.68581 -4.194582,-1.70297 -8.556838,-3.76956 -11.905878,-6.88604 -2.18279,-2.03084 -3.620072,-4.08048 -3.730869,-7.13589 z"
     id="path8"
     style="stroke-width:0.297826" />
  <path
     fill="#f4c52d"
     d="m 120.32704,235.35226 c 10.13532,-0.0244 20.29715,-0.80175 30.30738,-2.41149 7.76521,-1.24846 15.33386,-2.9175 22.68986,-5.74626 4.04775,-1.55673 8.22806,-3.46429 11.70903,-6.0813 2.10206,-1.58025 4.37567,-4.10703 4.80395,-6.77493 0.12473,-0.77732 0.0611,-1.65562 0.0634,-2.44309 0.006,-2.32124 -0.21774,-4.97517 0.14242,-7.25445 l 0.0305,-0.1714 c 4.73216,2.25159 11.20661,5.36148 13.12757,10.64134 l 0.0951,0.27204 0.0872,0.23728 c 0.47266,1.39918 0.23086,3.35558 0.19427,4.83609 -0.37827,1.16807 -0.88397,2.16253 -1.57492,3.17245 l -0.14425,0.21836 c -1.28333,1.8924 -3.36098,3.34129 -5.27212,4.55587 -6.83452,4.34288 -14.68549,6.80591 -22.50255,8.68995 l -11.96157,2.5619 -39.53997,3.39671 c -1.71253,-0.20311 -3.54862,-0.0914 -5.27572,-0.0927 l -8.80225,-0.18664 c -17.408795,-0.94948 -34.691945,-2.50266 -51.414885,-7.78696 -4.34228,-1.37212 -8.650342,-3.10098 -12.573619,-5.43354 -2.178275,-1.29495 -4.326207,-2.83086 -5.927625,-4.81914 -0.929195,-1.15348 -1.498948,-2.44781 -2.175624,-3.74843 -0.146081,-1.8766 -0.158586,-3.5912 0.548008,-5.36653 1.699986,-4.27291 7.115653,-7.61513 11.16162,-9.36216 l 0.159805,0.0698 -0.0183,5.64203 c -0.0061,1.24371 -0.12626,2.56546 0.241539,3.76454 l 0.05063,0.17627 c 0.348159,1.15259 1.22377,2.22356 2.031158,3.09679 2.193798,2.37249 4.801844,4.20292 7.660091,5.68817 5.478216,2.84693 11.374583,4.53172 17.351339,5.95803 14.726883,3.51373 29.621783,4.73124 44.729883,4.70175 z"
     id="path9"
     style="stroke-width:0.297826" />
  <path
     fill="#f4c52d"
     d="m 48.756486,98.488125 c 0.129614,0.370812 0.259837,0.690065 0.461914,1.029284 0.623062,1.044201 1.094521,2.014511 1.933808,2.930311 1.77562,1.93707 4.250271,3.51168 6.563192,4.72741 4.350911,2.28669 9.133421,3.90061 13.878968,5.1515 11.85766,3.1248 24.090558,4.59128 36.313912,5.27986 l 8.09523,0.26808 c 1.38221,0.0244 2.81116,-0.0245 4.18592,0.093 15.95426,-0.49231 32.21139,-1.3557 47.65246,-5.7382 l 8.49191,-2.87374 c 4.53116,-1.77029 9.30408,-4.04417 12.40832,-7.92603 0.61086,-0.76393 1.06475,-1.68602 1.54155,-2.539891 l 0.0744,5.145861 c -3.1e-4,0.87887 -0.089,1.86705 0.0244,2.73077 4.66305,1.93884 11.07288,5.35013 13.14901,10.2172 0.51015,1.19639 0.62008,2.63845 0.46429,3.92267 l 0.0152,12.07506 c 0.001,2.03981 0.2083,4.33605 -0.10189,6.35083 -0.13967,0.90867 -0.53607,1.76495 -0.9453,2.57947 -4.81166,7.42868 -14.32066,11.50295 -22.41021,14.24445 -3.82912,1.29759 -7.71992,2.4371 -11.67535,3.28472 l -9.75084,1.97486 c -11.67684,1.96507 -23.79062,2.87044 -35.63218,2.91305 -1.45342,0.21378 -3.07624,0.0856 -4.54603,0.0628 l -7.19248,-0.15249 c -17.250702,-0.69777 -34.220213,-2.41685 -50.830556,-7.39499 -2.803443,-0.84018 -5.536895,-1.8501 -8.190229,-3.08577 -1.268448,-0.59089 -2.548484,-1.4013 -3.855664,-1.87513 l -0.218666,-0.0765 c -0.372861,-0.5876 -3.497959,-1.94629 -4.30803,-2.46808 -1.488244,-0.95901 -2.881761,-2.08867 -4.140388,-3.33445 -1.498063,-1.48318 -2.887707,-3.44466 -3.46789,-5.49878 -0.573015,-2.02877 -0.247028,-4.80541 -0.246724,-6.91909 l 0.0092,-11.111 c -0.08479,-1.33783 -0.09454,-2.65422 0.345475,-3.93785 1.729476,-5.04488 7.389671,-8.01834 11.869251,-10.20888 -0.118941,-0.75677 0.0244,-1.75001 0.0244,-2.53836 z"
     id="path10"
     style="stroke-width:0.297826" />
  <path
     fill="#dd9320"
     d="m 120.18943,117.96746 c 15.95426,-0.49233 32.21139,-1.35571 47.65246,-5.73821 l 8.49191,-2.87374 c 4.53116,-1.77028 9.30408,-4.04417 12.40832,-7.92603 0.61086,-0.76393 1.06475,-1.686014 1.54155,-2.539885 l 0.0744,5.145865 c -3.1e-4,0.87886 -0.089,1.86704 0.0244,2.73075 l 0.0827,5.01152 c 0.0122,1.40069 0.13784,2.93359 -0.0759,4.3164 -0.24397,1.58055 -1.2702,3.5602 -2.35875,4.73154 -5.62652,6.0566 -13.90164,8.7853 -21.6749,10.88525 -12.36632,3.34072 -25.3176,4.78874 -38.10504,5.16043 l -7.91145,0.17994 z"
     id="path11"
     style="stroke-width:0.297826" />
  <path
     fill="#e49f27"
     d="m 48.756486,98.488125 c 0.129614,0.370812 0.259837,0.690065 0.461914,1.029284 0.623062,1.044201 1.094521,2.014511 1.933808,2.930311 1.77562,1.93707 4.250271,3.51168 6.563192,4.72741 4.350911,2.28669 9.133421,3.90061 13.878968,5.1515 11.85766,3.1248 24.090558,4.59128 36.313912,5.27986 l 8.09523,0.26808 c 1.38221,0.0244 2.81116,-0.0245 4.18592,0.093 l 0.15066,19.08377 c -10.35482,0.0628 -20.585433,-0.47652 -30.843451,-1.89384 -9.162637,-1.26577 -18.297242,-3.25553 -26.860942,-6.82349 -3.654899,-1.52311 -7.665123,-3.43157 -10.496257,-6.25614 -1.411999,-1.4087 -2.748059,-3.30379 -3.243031,-5.26407 -0.264414,-1.04716 -0.178715,-2.24262 -0.179326,-3.31601 l 0.0061,-5.16938 c -0.118941,-0.75676 0.0244,-1.74999 0.0244,-2.53835 z"
     id="path12"
     style="stroke-width:0.297826" />
  <path
     fill="#e49f27"
     d="m 36.509282,122.47503 c 2.698012,6.42202 9.670419,10.02365 15.798474,12.53431 8.537775,3.49769 17.698613,5.4124 26.785892,6.81754 13.620749,2.10593 27.453562,3.02593 41.237262,2.95712 l 0.0122,19.50192 c 1.0159,6.1e-4 2.15063,-0.0979 3.15072,0.0428 -1.45341,0.21379 -3.07623,0.0858 -4.54603,0.0628 l -7.19247,-0.15249 c -17.250703,-0.69778 -34.220217,-2.41685 -50.830561,-7.39501 -2.803443,-0.84017 -5.536893,-1.85011 -8.190227,-3.08577 -1.268448,-0.59087 -2.548485,-1.40129 -3.855664,-1.87512 l -0.218666,-0.0765 c -0.372861,-0.5876 -3.497959,-1.94629 -4.308032,-2.46806 -1.488242,-0.95902 -2.88176,-2.08868 -4.140388,-3.33447 -1.498061,-1.48317 -2.887706,-3.44465 -3.467888,-5.49876 -0.573016,-2.02879 -0.247029,-4.80541 -0.246724,-6.91911 z"
     id="path13"
     style="stroke-width:0.297826" />
  <path
     fill="#dd9320"
     d="m 120.33091,144.784 c 10.06116,0.094 20.1804,-0.56915 30.1665,-1.75897 13.71935,-1.63449 28.00012,-4.16984 40.57761,-10.1094 4.10434,-1.93795 8.67804,-4.57997 11.25068,-8.43561 0.71625,-1.07396 1.23715,-2.36297 1.67137,-3.57393 l 0.0152,12.07505 c 0.001,2.03983 0.20829,4.33606 -0.10188,6.35084 -0.13969,0.90867 -0.53608,1.76494 -0.9453,2.57948 -4.81167,7.42866 -14.32066,11.50293 -22.41021,14.24443 -3.82914,1.29761 -7.71994,2.43711 -11.67535,3.28472 l -9.75084,1.97486 c -11.67684,1.96507 -23.79063,2.87045 -35.63219,2.91305 -1.0001,-0.14058 -2.13483,-0.042 -3.15071,-0.0427 z"
     id="path14"
     style="stroke-width:0.297826" />
  <path
     fill="#dd9320"
     d="m 123.49532,164.32852 c 11.84155,-0.0427 23.95535,-0.94798 35.6322,-2.91305 l 9.75083,-1.97486 c 3.95542,-0.84761 7.84621,-1.98711 11.67535,-3.28472 8.08955,-2.7415 17.59855,-6.81577 22.41021,-14.24443 0.63526,1.68152 1.08976,3.09652 1.06504,4.9198 l 0.0434,12.07354 -0.0122,4.62674 c -0.009,1.19339 0.0305,2.33198 -0.31066,3.48932 -0.51253,1.74169 -1.74823,3.33002 -3.00444,4.60855 -1.08767,1.10703 -2.36654,2.09375 -3.68263,2.91337 -0.79369,0.49409 -1.94719,0.99173 -2.59496,1.63655 -0.15583,0.15523 -0.25343,0.29338 -0.26838,0.50689 l -0.12533,0.41159 0.0478,11.62445 c -0.0122,1.9564 0.3166,4.21871 -0.27661,6.09203 -0.67279,2.1244 -1.94508,3.62752 -3.46076,5.2057 -0.12381,0.12901 -0.24365,0.24794 -0.35079,0.39074 l -0.0122,1.00696 c 6e-4,0.81693 -0.19672,2.32066 0.0533,3.0515 l -0.0305,0.17139 c -0.3601,2.27929 -0.13572,4.93321 -0.14243,7.25446 -0.002,0.78747 0.0613,1.66576 -0.0634,2.44308 -0.42827,2.66792 -2.70188,5.19469 -4.80395,6.77494 -3.48096,2.617 -7.66128,4.52456 -11.70902,6.0813 -7.356,2.82875 -14.92465,4.49779 -22.68986,5.74626 -10.01024,1.60974 -20.17206,2.38648 -30.30737,2.41149 -15.10811,0.0305 -30.003014,-1.18803 -44.729899,-4.70176 -5.976758,-1.42629 -11.873124,-3.1111 -17.351339,-5.95803 -2.858247,-1.48525 -5.466293,-3.31568 -7.660093,-5.68816 -0.807388,-0.87324 -1.682998,-1.94421 -2.031156,-3.09679 l -0.05063,-0.17628 c -0.367829,-1.19907 -0.246724,-2.52082 -0.241539,-3.76454 l 0.0183,-5.64202 -0.159807,-0.0698 c 0.326414,-0.40594 0.225071,-1.87811 0.240625,-2.43981 -3.052424,-1.35986 -6.333577,-3.35233 -8.691147,-5.72719 -1.301507,-1.31072 -2.474345,-2.91332 -2.970813,-4.71874 -0.525683,-1.91206 -0.204943,-4.53292 -0.201282,-6.52331 l 0.03202,-11.63545 c -0.07564,-1.30894 -0.156146,-2.89725 0.257092,-4.14811 1.651129,-5.00051 7.305651,-8.23371 11.761442,-10.36256 0.247639,-0.70973 0.08997,-1.84652 0.08722,-2.60301 l 0.03751,-5.41059 -0.01219,-0.8798 0.218665,0.0765 c 1.30718,0.47385 2.587217,1.28426 3.855664,1.87514 2.653335,1.23567 5.386785,2.2456 8.190227,3.08575 16.610346,4.97816 33.579858,6.69723 50.83054,7.39502 l 7.19248,0.15249 c 1.46979,0.0244 3.09262,0.15096 4.54604,-0.0628 z"
     id="path15"
     style="stroke-width:0.297826" />
  <path
     fill="#e49f27"
     d="m 120.32347,215.98852 c 18.79161,-0.32166 38.30875,-2.08182 56.08361,-8.52109 3.59416,-1.30209 7.25355,-2.73256 10.53112,-4.72322 1.04478,-0.63468 1.87363,-1.44476 2.84961,-2.15746 l 0.24399,-0.17596 -0.0122,1.00695 -0.2092,0.27235 -0.14731,-0.15645 c -0.63319,0.6585 -1.11745,1.4915 -1.69048,2.20837 -1.06264,1.32978 -2.53597,2.43504 -3.93278,3.38836 -3.87144,2.64232 -8.48923,4.42243 -12.91791,5.90619 -13.81464,4.62822 -28.47277,6.4652 -42.987,6.97358 l -7.32118,0.24368 c -0.22963,-0.002 -0.17565,-0.0122 -0.45415,-0.0957 z"
     id="path16"
     style="stroke-width:0.297826" />
  <path
     fill="#e49f27"
     d="m 48.281764,206.32466 c 0.250994,0.25007 0.406224,0.32852 0.726691,0.46014 1.115657,0.45808 2.21402,1.28453 3.307931,1.84832 2.491637,1.28392 5.079432,2.38886 7.71639,3.33685 5.272999,1.89565 10.708611,3.18345 16.194573,4.27707 7.323554,1.46053 14.714685,2.48268 22.150498,3.16826 5.910373,0.54502 11.922593,0.99208 17.861543,0.85834 l 4.08707,0.0214 5.8e-4,15.05686 c -15.1081,0.0305 -30.003003,-1.18803 -44.729889,-4.70175 -5.976758,-1.42631 -11.873124,-3.1111 -17.35134,-5.95803 -2.858245,-1.48526 -5.466291,-3.31568 -7.660091,-5.68817 -0.807388,-0.87323 -1.682999,-1.9442 -2.031156,-3.0968 l -0.05063,-0.17626 c -0.367829,-1.19908 -0.246724,-2.52083 -0.24154,-3.76454 z"
     id="path17"
     style="stroke-width:0.297826" />
  <path
     fill="#e49f27"
     d="m 48.5495,160.69983 0.04544,0.24246 c 0.203114,1.16627 0.05368,2.62026 0.03659,3.80917 -0.0244,1.67379 -0.191829,3.47713 0.01525,5.13812 0.424402,3.4232 3.242422,6.07148 5.875506,8.00882 3.15398,2.32067 6.925044,3.96435 10.5743,5.32511 11.617891,4.33189 24.081325,5.785 36.376174,6.6865 6.28145,0.46076 12.62306,0.80505 18.92239,0.6329 18.33324,-0.12018 37.02391,-1.69911 54.74815,-6.5492 4.39857,-1.20353 8.83174,-2.52885 12.99564,-4.40813 1.96864,-0.88841 3.82675,-1.98472 5.69233,-3.06612 l 0.36692,0.16683 -0.12535,0.41158 c -1.66516,2.12976 -3.26892,3.90569 -5.46598,5.51455 -6.20729,4.54572 -14.21614,7.14038 -21.57929,9.09323 -6.28709,1.66722 -12.66356,2.95025 -19.12281,3.74306 l -27.60221,1.70627 0.0549,13.39113 0.009,3.71775 c 0,0.53462 0.0955,1.21963 -0.13481,1.70239 -9.57867,0.12689 -19.10849,-0.45269 -28.629689,-1.4638 -14.683427,-1.55943 -29.879119,-4.13503 -43.239875,-10.68721 -3.052424,-1.35988 -6.333577,-3.35233 -8.691147,-5.7272 -1.301507,-1.31071 -2.474346,-2.91332 -2.970813,-4.71874 -0.525683,-1.91206 -0.204943,-4.53291 -0.201283,-6.5233 l 0.03203,-11.63546 c -0.07564,-1.30894 -0.156147,-2.89725 0.257092,-4.1481 1.65113,-5.0005 7.305652,-8.23372 11.761443,-10.36255 z"
     id="path18"
     style="stroke-width:0.297826" />
  <path
     fill="#f4c52d"
     d="m 48.5495,160.69983 0.04544,0.24246 c 0.203114,1.16627 0.05368,2.62026 0.03659,3.80917 -0.0244,1.67379 -0.191829,3.47713 0.01525,5.13812 0.424402,3.4232 3.242422,6.07148 5.875506,8.00882 3.15398,2.32067 6.925044,3.96435 10.5743,5.32511 11.617891,4.33189 24.081325,5.785 36.376174,6.6865 6.28145,0.46076 12.62306,0.80505 18.92239,0.6329 18.33324,-0.12018 37.02391,-1.69911 54.74815,-6.5492 4.39857,-1.20353 8.83174,-2.52885 12.99564,-4.40813 1.96864,-0.88841 3.82675,-1.98472 5.69233,-3.06612 l 0.36692,0.16683 -0.12535,0.41158 c -1.66516,2.12976 -3.26892,3.90569 -5.46598,5.51455 -6.20729,4.54572 -14.21614,7.14038 -21.57929,9.09323 -6.28709,1.66722 -12.66356,2.95025 -19.12281,3.74306 l -27.60221,1.70627 c -8.90918,0.21683 -17.90592,-0.31184 -26.768598,-1.18297 l -16.085006,-1.99394 c -6.512261,-1.07308 -13.033458,-2.55536 -19.317872,-4.57431 -3.802934,-1.22139 -7.492113,-2.55952 -11.052927,-4.3852 -2.5035,-1.28331 -5.003464,-2.68875 -7.061153,-4.63446 -0.896136,-0.84704 -1.689557,-1.85577 -2.305451,-2.92288 -0.279966,-0.48515 -0.453588,-1.02422 -0.785674,-1.47631 -0.189693,-0.25801 -0.274781,-0.47683 -0.394025,-0.77437 -0.07564,-1.30894 -0.156147,-2.89725 0.257091,-4.1481 1.651131,-5.0005 7.305653,-8.23372 11.761443,-10.36255 z"
     id="path19"
     style="stroke-width:0.297826" />
  <path
     fill="#e49f27"
     d="m 123.49532,164.32852 c 11.84155,-0.0427 23.95535,-0.94798 35.6322,-2.91305 l 9.75083,-1.97486 c 3.95542,-0.84761 7.84621,-1.98711 11.67535,-3.28472 8.08955,-2.7415 17.59855,-6.81577 22.41021,-14.24443 0.63526,1.68152 1.08976,3.09652 1.06504,4.9198 l 0.0434,12.07354 -0.0122,4.62674 c -0.009,1.19339 0.0305,2.33198 -0.31066,3.48932 -0.51253,1.74169 -1.74823,3.33002 -3.00444,4.60855 -1.08767,1.10703 -2.36654,2.09375 -3.68263,2.91337 -0.79369,0.49409 -1.94719,0.99173 -2.59496,1.63655 -0.15583,0.15523 -0.25343,0.29338 -0.26838,0.50689 l -0.36691,-0.16682 c -1.86558,1.0814 -3.7237,2.1777 -5.69234,3.06611 -4.1639,1.87929 -8.59706,3.20461 -12.99564,4.40814 -17.72423,4.85009 -36.41489,6.42887 -54.74817,6.54918 -6.29932,0.17201 -12.64093,-0.172 -18.92239,-0.63288 -12.294827,-0.90149 -24.75826,-2.3546 -36.376151,-6.68649 -3.649258,-1.36076 -7.42032,-3.00445 -10.5743,-5.32512 -2.633084,-1.93734 -5.451105,-4.58561 -5.875506,-8.00883 -0.206162,-1.66098 -0.03812,-3.46431 -0.01525,-5.1381 0.0183,-1.18891 0.166515,-2.64291 -0.03659,-3.80919 l -0.04544,-0.24246 c 0.247639,-0.70973 0.08997,-1.84652 0.08722,-2.60301 l 0.0375,-5.4106 -0.01219,-0.8798 0.218666,0.0765 c 1.307179,0.47385 2.587216,1.28425 3.855664,1.87514 2.653334,1.23567 5.386784,2.24558 8.190227,3.08575 16.610345,4.97816 33.579859,6.69723 50.83056,7.39502 l 7.19247,0.15248 c 1.46979,0.0244 3.09262,0.15097 4.54604,-0.0628 z"
     id="path20"
     style="stroke-width:0.297826" />
  <path
     fill="#f4c52d"
     d="m 123.49532,164.32852 c 11.84155,-0.0427 23.95535,-0.94798 35.6322,-2.91305 l 9.75083,-1.97486 c 3.95542,-0.84761 7.84621,-1.98711 11.67535,-3.28472 8.08955,-2.7415 17.59855,-6.81577 22.41021,-14.24443 0.63526,1.68152 1.08976,3.09652 1.06504,4.9198 -0.99267,1.97964 -1.92009,3.8771 -3.38717,5.5616 -1.22496,1.40601 -2.7823,2.54701 -4.32562,3.57688 -4.49301,2.99823 -9.7687,5.20124 -14.88268,6.89705 -12.08846,4.00845 -24.73832,6.14504 -37.38728,7.36585 -5.01806,0.48423 -10.05788,0.91729 -15.10156,0.96317 -0.68023,-0.14241 -1.68868,-0.003 -2.39601,0.003 l -6.29815,0.10404 -8.82725,-0.0521 -7.247,-0.17048 c -12.334766,-0.86668 -24.828264,-2.46211 -36.680529,-6.10455 -4.579672,-1.4075 -9.426805,-3.1891 -13.313728,-6.06044 -1.52426,-1.12578 -2.992253,-2.46633 -4.067102,-4.03584 -0.472953,-0.69067 -0.794306,-1.465 -1.349449,-2.09312 l -0.09119,-0.10055 -0.01219,-0.87979 0.218668,0.0765 c 1.307178,0.47384 2.587214,1.28423 3.855662,1.87513 2.653334,1.23566 5.386786,2.24558 8.190229,3.08576 16.610343,4.97814 33.579858,6.69723 50.830569,7.395 l 7.19246,0.15248 c 1.4698,0.0244 3.09262,0.15097 4.54603,-0.0628 z"
     id="path21"
     style="stroke-width:0.297826" />
  <path
     fill="#dd9320"
     d="m 204.02895,146.83126 0.0434,12.07354 -0.0122,4.62674 c -0.009,1.19339 0.0305,2.33198 -0.31066,3.48932 -0.51253,1.74169 -1.74823,3.33002 -3.00444,4.60855 -1.08767,1.10703 -2.36654,2.09375 -3.68263,2.91337 -0.79369,0.49409 -1.94719,0.99173 -2.59496,1.63655 -0.15583,0.15523 -0.25343,0.29338 -0.26838,0.50689 l -0.36691,-0.16682 c -1.86558,1.0814 -3.7237,2.1777 -5.69234,3.06611 -4.1639,1.87929 -8.59706,3.20461 -12.99564,4.40814 -17.72423,4.85009 -36.41489,6.42887 -54.74817,6.54918 0.22325,-2.37842 0.0442,-4.91321 0.0442,-7.31074 -3.1e-4,-3.91162 0.1476,-7.8766 -0.13541,-11.77693 l 8.37842,-0.13632 0.26289,-0.1229 c 5.04369,-0.0457 10.0835,-0.47894 15.10157,-0.96318 12.64896,-1.22081 25.29881,-3.3574 37.38728,-7.36586 5.11399,-1.6958 10.38967,-3.89882 14.88267,-6.89704 1.54332,-1.02986 3.10067,-2.17086 4.32563,-3.57688 1.46707,-1.68449 2.3945,-3.58195 3.38716,-5.5616 z"
     id="path22"
     style="stroke-width:0.297826" />
</svg>
