<?xml version="1.0" encoding="UTF-8" standalone="no"?>
<svg
   width="63mm"
   height="88mm"
   version="1.1"
   id="svg123"
   sodipodi:docname="item-campfire.svg"
   inkscape:version="1.4 (86a8ad7, 2024-10-11)"
   xml:space="preserve"
   xmlns:inkscape="http://www.inkscape.org/namespaces/inkscape"
   xmlns:sodipodi="http://sodipodi.sourceforge.net/DTD/sodipodi-0.dtd"
   xmlns="http://www.w3.org/2000/svg"
   xmlns:svg="http://www.w3.org/2000/svg"><sodipodi:namedview
     id="namedview123"
     pagecolor="#ffffff"
     bordercolor="#000000"
     borderopacity="0.25"
     inkscape:showpageshadow="2"
     inkscape:pageopacity="0.0"
     inkscape:pagecheckerboard="0"
     inkscape:deskcolor="#d1d1d1"
     inkscape:document-units="mm"
     inkscape:zoom="1.3683333"
     inkscape:cx="126.06578"
     inkscape:cy="298.90378"
     inkscape:window-width="1350"
     inkscape:window-height="1040"
     inkscape:window-x="182"
     inkscape:window-y="0"
     inkscape:window-maximized="0"
     inkscape:current-layer="svg123" /><defs
     id="defs74"><linearGradient
       id="gradient_0"
       gradientUnits="userSpaceOnUse"
       x1="529.71039"
       y1="1148.418"
       x2="679.95923"
       y2="1009.4732"
       gradientTransform="matrix(0.17547265,-0.10737428,0.10737428,0.17547265,-48.503843,98.013793)"><stop
         offset="0"
         stop-color="#431A0C"
         id="stop73" /><stop
         offset="1"
         stop-color="#553D21"
         id="stop74" /></linearGradient><linearGradient
       id="gradient_0-6"
       gradientUnits="userSpaceOnUse"
       x1="437.0676"
       y1="1113.9369"
       x2="416.06348"
       y2="1329.7292"><stop
         offset="0"
         stop-color="#BF9C51"
         id="stop1" /><stop
         offset="1"
         stop-color="#477259"
         id="stop2" /></linearGradient><linearGradient
       id="gradient_1-7"
       gradientUnits="userSpaceOnUse"
       x1="701.83783"
       y1="1082.5144"
       x2="843.36835"
       y2="1239.9082"><stop
         offset="0"
         stop-color="#A88F4C"
         id="stop3" /><stop
         offset="1"
         stop-color="#4A765B"
         id="stop4" /></linearGradient><linearGradient
       id="gradient_2-1"
       gradientUnits="userSpaceOnUse"
       x1="518.66345"
       y1="1121.0166"
       x2="483.52939"
       y2="1223.1882"><stop
         offset="0"
         stop-color="#8B463F"
         id="stop16" /><stop
         offset="1"
         stop-color="#A25A3F"
         id="stop17" /></linearGradient><linearGradient
       id="gradient_3-5"
       gradientUnits="userSpaceOnUse"
       x1="282.80505"
       y1="680.21619"
       x2="15.217563"
       y2="637.82019"><stop
         offset="0"
         stop-color="#99452E"
         id="stop30" /><stop
         offset="1"
         stop-color="#0A0D3B"
         id="stop31" /></linearGradient><linearGradient
       id="gradient_4"
       gradientUnits="userSpaceOnUse"
       x1="337.9519"
       y1="917.76624"
       x2="191.47736"
       y2="923.08984"><stop
         offset="0"
         stop-color="#773929"
         id="stop35" /><stop
         offset="1"
         stop-color="#000E34"
         id="stop36" /></linearGradient><linearGradient
       id="gradient_5"
       gradientUnits="userSpaceOnUse"
       x1="125.00969"
       y1="1108.6688"
       x2="110.46021"
       y2="1109.5397"><stop
         offset="0"
         stop-color="#A74A21"
         id="stop42" /><stop
         offset="1"
         stop-color="#8F3924"
         id="stop43" /></linearGradient><linearGradient
       id="gradient_6"
       gradientUnits="userSpaceOnUse"
       x1="1039.4453"
       y1="659.64301"
       x2="797.76825"
       y2="693.45422"><stop
         offset="0"
         stop-color="#020530"
         id="stop68" /><stop
         offset="1"
         stop-color="#754443"
         id="stop69" /></linearGradient><linearGradient
       id="gradient_7"
       gradientUnits="userSpaceOnUse"
       x1="700.3139"
       y1="1000.765"
       x2="760.72382"
       y2="997.05725"><stop
         offset="0"
         stop-color="#9A4529"
         id="stop106" /><stop
         offset="1"
         stop-color="#56202F"
         id="stop107" /></linearGradient><linearGradient
       id="gradient_8"
       gradientUnits="userSpaceOnUse"
       x1="689.05341"
       y1="1041.3591"
       x2="666.42798"
       y2="1038.8162"><stop
         offset="0"
         stop-color="#BD6B22"
         id="stop114" /><stop
         offset="1"
         stop-color="#F99A2E"
         id="stop115-5" /></linearGradient><linearGradient
       id="gradient_9"
       gradientUnits="userSpaceOnUse"
       x1="466.77383"
       y1="1010.4099"
       x2="570.44983"
       y2="951.24945"><stop
         offset="0"
         stop-color="#F17E18"
         id="stop131" /><stop
         offset="1"
         stop-color="#F85322"
         id="stop132" /></linearGradient><linearGradient
       id="gradient_10"
       gradientUnits="userSpaceOnUse"
       x1="480.15442"
       y1="1003.5612"
       x2="434.00186"
       y2="1007.7484"><stop
         offset="0"
         stop-color="#FC6810"
         id="stop141" /><stop
         offset="1"
         stop-color="#EC4A23"
         id="stop142" /></linearGradient><linearGradient
       id="gradient_11"
       gradientUnits="userSpaceOnUse"
       x1="846.57568"
       y1="1025.9751"
       x2="775.88416"
       y2="1036.7842"><stop
         offset="0"
         stop-color="#744343"
         id="stop143" /><stop
         offset="1"
         stop-color="#95554B"
         id="stop144" /></linearGradient><linearGradient
       id="gradient_12"
       gradientUnits="userSpaceOnUse"
       x1="752.51477"
       y1="742.63904"
       x2="723.58679"
       y2="733.65344"><stop
         offset="0"
         stop-color="#2B1D2D"
         id="stop148" /><stop
         offset="1"
         stop-color="#483037"
         id="stop149" /></linearGradient><linearGradient
       id="gradient_13"
       gradientUnits="userSpaceOnUse"
       x1="315.97998"
       y1="874.44476"
       x2="237.5439"
       y2="837.23773"><stop
         offset="0"
         stop-color="#632F27"
         id="stop169" /><stop
         offset="1"
         stop-color="#0F1D3D"
         id="stop170" /></linearGradient><linearGradient
       id="gradient_14"
       gradientUnits="userSpaceOnUse"
       x1="693.01227"
       y1="863.38593"
       x2="700.85571"
       y2="849.23071"><stop
         offset="0"
         stop-color="#AD6F2A"
         id="stop173" /><stop
         offset="1"
         stop-color="#975A2D"
         id="stop174" /></linearGradient></defs><defs
     id="defs100"><linearGradient
       id="gradient_1"
       gradientUnits="userSpaceOnUse"
       x1="585.16687"
       y1="910.49738"
       x2="553.47638"
       y2="822.70599"
       gradientTransform="matrix(0.17547265,-0.10737428,0.10737428,0.17547265,-48.503843,98.013793)"><stop
         offset="0"
         stop-color="#521D00"
         id="stop99" /><stop
         offset="1"
         stop-color="#754016"
         id="stop100" /></linearGradient></defs><defs
     id="defs110"><linearGradient
       id="gradient_2"
       gradientUnits="userSpaceOnUse"
       x1="493.89996"
       y1="348.56442"
       x2="623.60132"
       y2="310.72467"
       gradientTransform="matrix(0.17547265,-0.10737428,0.10737428,0.17547265,-48.503843,98.013793)"><stop
         offset="0"
         stop-color="#BDC0BE"
         id="stop109" /><stop
         offset="1"
         stop-color="#F6FFFF"
         id="stop110" /></linearGradient></defs><defs
     id="defs116"><linearGradient
       id="gradient_3"
       gradientUnits="userSpaceOnUse"
       x1="524.60431"
       y1="447.21811"
       x2="676.47565"
       y2="295.28336"
       gradientTransform="matrix(0.17547265,-0.10737428,0.10737428,0.17547265,-48.503843,98.013793)"><stop
         offset="0"
         stop-color="#606062"
         id="stop115" /><stop
         offset="1"
         stop-color="#6C747E"
         id="stop116" /></linearGradient></defs><g
     id="g1"
     transform="matrix(4.0543298,0,0,4.0543298,-159.07897,-355.7713)"><path
       fill="url(#gradient_2)"
       transform="matrix(0.133789,0,0,0.133333,0,-1.2207e-4)"
       d="m 522.968,1119.8 c 1.098,1.98 2.74,3.52 4.432,5 1.657,1.44 3.617,2.97 5.899,2.84 1.347,3.79 3.833,6.67 6.976,9.1 l 1.64,0.28 c 0.948,4.18 4.904,10.49 8.621,12.77 0.83,0.51 0.663,0.4 1.534,0.68 l 0.142,0.52 c 1.705,5.29 21.783,34.27 25.947,36.59 1.099,2.39 3.64,6.97 6.157,8.06 -2.184,5.32 -12.672,19.36 -17.651,21.81 -2.53,3.96 -6.626,10.6 -11.316,12.01 l -2.108,-0.78 c -0.536,0.08 -0.731,0.15 -1.329,0.01 -4.208,-0.97 -37.849,-19.8 -40.283,-23.39 -1.286,-8.7 -0.584,-18.78 -1.158,-27.68 l -0.295,0.55 c -3.55,6.69 -5.963,13.96 -9.402,20.71 -1.694,3.32 -3.848,6.46 -6.793,8.79 -7.761,6.15 -24.438,10.98 -34.039,13.98 -2.094,0.66 -4.45,1.48 -6.651,1.12 -0.611,0.31 -1.24,0.59 -1.882,0.84 -9.163,3.55 -29.549,1.55 -38.533,-2.43 -3.08,-1.36 -4.239,-2.6 -5.447,-5.73 1.692,-3.11 0.122,-12.21 1.226,-16.57 0.278,-0.13 0.57,-0.23 0.834,-0.39 5.765,-3.39 16.359,-12.8 22.659,-17.35 8.963,-6.47 19.26,-11.97 27.71,-18.92 1.901,-1.56 2.223,-2.31 2.774,-4.62 l 1.242,0.95 c 0.627,0.01 0.703,0.04 1.41,-0.13 3.26,-0.8 7.18,-3.89 8.751,-6.82 1.139,0 2.221,-0.23 3.285,-0.65 3.419,-1.35 6.387,-3.98 7.985,-7.28 0.85,0.09 1.595,-0.85 2.255,-1.39 0.973,0.06 0.747,0.1 1.765,-0.09 2.491,-0.46 3.672,-2.62 4.871,-4.62 l 1.132,0.33 c 6.078,-1.44 23.765,-13.05 27.64,-18.1 z"
       id="path17"
       style="fill:url(#gradient_2-1)" /><path
       fill="#3c2745"
       transform="matrix(0.133789,0,0,0.133333,0,-1.2207e-4)"
       d="m 509.326,1142.2 c 4.007,5.87 0.961,27.44 1.145,35.42 l -0.295,0.55 c -3.55,6.69 -5.963,13.96 -9.402,20.71 -1.694,3.32 -3.848,6.46 -6.793,8.79 -7.761,6.15 -24.438,10.98 -34.039,13.98 -2.094,0.66 -4.45,1.48 -6.651,1.12 -0.611,0.31 -1.24,0.59 -1.882,0.84 -9.163,3.55 -29.549,1.55 -38.533,-2.43 -3.08,-1.36 -4.239,-2.6 -5.447,-5.73 1.692,-3.11 0.122,-12.21 1.226,-16.57 0.773,0.8 1.307,1.07 2.352,1.43 3.315,-0.38 6.365,-2.03 9.277,-3.57 20.467,-10.76 40.079,-24.03 59.815,-36.13 9.171,-5.62 21.628,-10.93 29.227,-18.41 z"
       id="path18" /><path
       fill="#4d2632"
       transform="matrix(0.133789,0,0,0.133333,0,-1.2207e-4)"
       d="m 509.326,1142.2 c 2.411,-0.51 3.981,-1.6 5.642,-3.4 3.657,10.93 24.684,61.34 34.439,65.36 0.215,0.09 0.455,0.1 0.683,0.15 6.793,0.47 21.248,-8.44 26.131,-12.84 1.436,-1.29 1.543,-2.09 1.938,-3.89 1.099,2.39 3.64,6.97 6.157,8.06 -2.184,5.32 -12.672,19.36 -17.651,21.81 -2.53,3.96 -6.626,10.6 -11.316,12.01 l -2.108,-0.78 c -0.536,0.08 -0.731,0.15 -1.329,0.01 -4.208,-0.97 -37.849,-19.8 -40.283,-23.39 -1.286,-8.7 -0.584,-18.78 -1.158,-27.68 -0.184,-7.98 2.862,-29.55 -1.145,-35.42 z"
       id="path19" /><path
       fill="#0c132e"
       transform="matrix(0.133789,0,0,0.133333,0,-1.2207e-4)"
       d="m 453.291,1222.77 c 2.201,0.36 4.557,-0.46 6.651,-1.12 9.601,-3 26.278,-7.83 34.039,-13.98 2.945,-2.33 5.099,-5.47 6.793,-8.79 3.439,-6.75 5.852,-14.02 9.402,-20.71 l 0.295,-0.55 c 0.574,8.9 -0.128,18.98 1.158,27.68 2.434,3.59 36.075,22.42 40.283,23.39 0.598,0.14 0.793,0.07 1.329,-0.01 -0.296,0.16 -0.586,0.32 -0.889,0.46 -5.184,2.41 -38.536,-6.33 -47.45,-6.91 -12.384,-0.81 -26.427,2.33 -39.043,2.9 -4.465,0.19 -9.123,0.81 -12.568,-2.36 z"
       id="path21" /><path
       fill="#804135"
       transform="matrix(0.133789,0,0,0.133333,0,-1.2207e-4)"
       d="m 431.82,1106.99 c 2.326,5.22 4.258,10.52 6.165,15.9 3.692,5.48 17.286,10.95 18.75,14.34 l -0.199,1.18 c 0.861,4.91 2.054,16.21 6.096,19.19 -0.551,2.31 -0.873,3.06 -2.774,4.62 -8.45,6.95 -18.747,12.45 -27.71,18.92 -6.3,4.55 -16.894,13.96 -22.659,17.35 -0.264,0.16 -0.556,0.26 -0.834,0.39 -1.104,4.36 0.466,13.46 -1.226,16.57 -0.874,0.32 -1.507,0.54 -2.443,0.61 -5.656,0.39 -31.282,-3.43 -35.08,-6.94 -1.492,0.9 -2.348,1.66 -4.196,1.29 -0.288,-0.06 -0.567,-0.16 -0.851,-0.24 l -1.683,-1.98 -0.534,-2.72 c -1.294,-13.12 -7.394,-25.09 -10.752,-37.69 -2.657,-0.23 -4.83,-3.17 -6.613,-4.96 1.805,-0.84 56.84,-51.41 57.545,-52.84 l -0.809,-1.78 c 3.797,0.37 8.496,1.17 12.013,-0.55 0.095,0.02 0.19,0.04 0.286,0.06 4.771,0.76 13.416,2.29 17.508,-0.72 z"
       id="path22" /><path
       fill="#0c132e"
       transform="matrix(0.133789,0,0,0.133333,0,-1.2207e-4)"
       d="m 409.273,1168.29 c 6.795,0.85 37.525,-25.14 47.263,-29.88 0.861,4.91 2.054,16.21 6.096,19.19 -0.551,2.31 -0.873,3.06 -2.774,4.62 -8.45,6.95 -18.747,12.45 -27.71,18.92 -6.3,4.55 -16.894,13.96 -22.659,17.35 -0.264,0.16 -0.556,0.26 -0.834,0.39 -1.104,4.36 0.466,13.46 -1.226,16.57 -0.874,0.32 -1.507,0.54 -2.443,0.61 -5.656,0.39 -31.282,-3.43 -35.08,-6.94 -1.492,0.9 -2.348,1.66 -4.196,1.29 -0.288,-0.06 -0.567,-0.16 -0.851,-0.24 l -1.683,-1.98 -0.534,-2.72 c -1.294,-13.12 -7.394,-25.09 -10.752,-37.69 6.126,4 47.155,3.7 55.374,1.67 0.88,-0.22 1.361,-0.56 2.009,-1.16 z"
       id="path23" /><path
       fill="#4d2632"
       transform="matrix(0.133789,0,0,0.133333,0,-1.2207e-4)"
       d="m 351.89,1167.78 c 6.126,4 47.155,3.7 55.374,1.67 0.88,-0.22 1.361,-0.56 2.009,-1.16 -3.472,11.34 -11.922,31.29 -22.834,37.02 -4.434,2.32 -11.637,4.46 -16.533,3.81 -1.492,0.9 -2.348,1.66 -4.196,1.29 -0.288,-0.06 -0.567,-0.16 -0.851,-0.24 l -1.683,-1.98 -0.534,-2.72 c -1.294,-13.12 -7.394,-25.09 -10.752,-37.69 z"
       id="path24" /><path
       fill="#ecc79e"
       transform="matrix(0.133789,0,0,0.133333,0,-1.2207e-4)"
       d="m 431.82,1106.99 c 2.326,5.22 4.258,10.52 6.165,15.9 -0.999,0.27 -1.105,0.38 -2.183,0.13 -5.179,-1.22 -20.653,-9.46 -23.333,-13.69 l 1.557,-1.68 c 0.095,0.02 0.19,0.04 0.286,0.06 4.771,0.76 13.416,2.29 17.508,-0.72 z"
       id="path25" /><path
       fill="#0c132e"
       transform="matrix(0.133789,0,0,0.133333,0,-1.2207e-4)"
       d="m 345.277,1162.82 c 1.783,1.79 3.956,4.73 6.613,4.96 3.358,12.6 9.458,24.57 10.752,37.69 -0.855,0.36 -1.701,0.77 -2.646,0.82 -4.624,0.22 -12.392,-2.87 -15.489,-6.15 0.522,-4.44 0.986,-9.68 0.412,-14.11 -0.987,-7.64 -1.282,-15.67 0.358,-23.21 z"
       id="path27" /><path
       fill="#4d2632"
       transform="matrix(0.133789,0,0,0.133333,0,-1.2207e-4)"
       d="m 560.658,1140.25 c 3.292,-1.47 5.46,-5 7.972,-7.47 5.718,-5.61 11.761,-3.12 18.804,-3.14 l 0.569,-0.01 c 2.673,6.17 25.446,33.17 31.106,37.5 l 1.383,-0.24 c -0.525,3.12 1.089,5.9 2.876,8.36 0.897,1.24 2.362,3.06 3.752,3.74 7.73,0.48 35.345,13.64 40.743,9.31 1.497,3.11 4.299,7.74 7.703,8.99 0.484,0.18 0.715,0.19 1.255,0.29 -6.544,5.55 -29.993,4.56 -39.538,6.91 -12.602,3.11 -23.307,11.19 -36.005,13.74 -8.68,1.75 -18.688,1.81 -27.531,1.14 -2.515,-0.19 -4.98,-0.38 -7.082,-1.92 4.979,-2.45 15.467,-16.49 17.651,-21.81 -2.517,-1.09 -5.058,-5.67 -6.157,-8.06 -4.164,-2.32 -24.242,-31.3 -25.947,-36.59 l -0.142,-0.52 c 3.445,-2.43 6.217,-6.79 8.588,-10.22 z"
       id="path104" /><path
       fill="#804135"
       transform="matrix(0.133789,0,0,0.133333,0,-1.2207e-4)"
       d="m 560.658,1140.25 c 3.292,-1.47 5.46,-5 7.972,-7.47 5.718,-5.61 11.761,-3.12 18.804,-3.14 l 0.569,-0.01 c 2.673,6.17 25.446,33.17 31.106,37.5 l 1.383,-0.24 c -0.525,3.12 1.089,5.9 2.876,8.36 0.897,1.24 2.362,3.06 3.752,3.74 1.396,3.25 3.668,7.58 6.899,9.31 -1.249,1.11 -1.936,1.57 -3.655,1.4 -4.69,-0.44 -9.664,-3.09 -13.854,-5.16 -20.749,-10.23 -41.599,-25.91 -55.852,-44.29 z"
       id="path105" /><path
       fill="#0c132e"
       transform="matrix(0.133789,0,0,0.133333,0,-1.2207e-4)"
       d="m 552.212,1150.99 c 7.271,1.29 37.955,54.44 48.29,58.85 5.725,1.13 31.636,-7.7 36.769,-11.29 0.721,-0.5 1.284,-1.09 1.818,-1.79 -2.197,-1.98 -3.687,-5.83 -5.07,-8.46 -3.231,-1.73 -5.503,-6.06 -6.899,-9.31 7.73,0.48 35.345,13.64 40.743,9.31 1.497,3.11 4.299,7.74 7.703,8.99 0.484,0.18 0.715,0.19 1.255,0.29 -6.544,5.55 -29.993,4.56 -39.538,6.91 -12.602,3.11 -23.307,11.19 -36.005,13.74 -8.68,1.75 -18.688,1.81 -27.531,1.14 -2.515,-0.19 -4.98,-0.38 -7.082,-1.92 4.979,-2.45 15.467,-16.49 17.651,-21.81 -2.517,-1.09 -5.058,-5.67 -6.157,-8.06 -4.164,-2.32 -24.242,-31.3 -25.947,-36.59 z"
       id="path106" /><path
       fill="#10284c"
       transform="matrix(0.133789,0,0,0.133333,0,-1.2207e-4)"
       d="m 631.299,1129.58 1.114,-1.62 c 8.165,-1.41 21.829,12.76 30.372,12.71 4.722,2.37 12.014,4.53 15.764,8.14 -0.513,6.95 -3.779,16.92 -6.827,23.18 -1.453,5.03 -3.852,11.12 -3.859,16.31 -5.398,4.33 -33.013,-8.83 -40.743,-9.31 -1.39,-0.68 -2.855,-2.5 -3.752,-3.74 -1.787,-2.46 -3.401,-5.24 -2.876,-8.36 3.871,-4.11 9.183,-30.76 10.807,-37.31 z"
       id="path109" /><path
       fill="#804135"
       transform="matrix(0.133789,0,0,0.133333,0,-1.2207e-4)"
       d="m 631.299,1129.58 1.114,-1.62 c 8.165,-1.41 21.829,12.76 30.372,12.71 4.722,2.37 12.014,4.53 15.764,8.14 -3.9,1.66 -10.88,-0.29 -14.806,-1.37 -11.081,-3.03 -26.49,-7.48 -32.444,-17.86 z"
       id="path110" /><path
       fill="#db6124"
       transform="matrix(0.133789,0,0,0.133333,0,-1.2207e-4)"
       d="m 614.575,1060.68 c -0.948,15.64 -1.893,32.91 -9.72,46.81 l 0.414,0.66 c -4.466,5.21 -10.095,19.71 -17.266,21.48 l -0.569,0.01 c -7.043,0.02 -13.086,-2.47 -18.804,3.14 -2.512,2.47 -4.68,6 -7.972,7.47 -2.371,3.43 -5.143,7.79 -8.588,10.22 -0.871,-0.28 -0.704,-0.17 -1.534,-0.68 -3.717,-2.28 -7.673,-8.59 -8.621,-12.77 0.749,0.04 1.368,0.02 2.079,-0.25 7.491,-2.89 26.462,-24.55 29.837,-32.16 1.129,-2.55 1.029,-3.81 0.043,-6.4 11.276,-1.43 26.946,-16.27 33.622,-24.86 3.15,-4.06 5.267,-7.89 7.079,-12.67 z"
       id="path112" /><path
       fill="#db6124"
       transform="matrix(0.133789,0,0,0.133333,0,-1.2207e-4)"
       d="m 431.82,1106.99 c -0.794,-7.48 -6.33,-15.62 -8.36,-23.09 -5.414,-19.89 -4,-40.64 -3.259,-61 4.748,12.06 9.091,24.02 16.567,34.75 2.899,4.16 14.951,19.21 20.185,20.15 l 1.106,-1.49 c 1.411,1.74 2.653,3.68 4.75,4.61 l 1.225,-0.11 c 0.531,1.5 2.998,5.85 2.524,6.88 l 1.146,2.46 0.819,-0.31 0.601,-1.64 c 2.649,9.62 6.491,18.76 10.577,27.84 1.711,3.8 4.019,7.65 5.35,11.57 l -0.005,0.01 c -1.598,-0.71 -2.094,-1.59 -2.968,-3.02 l 0.096,-0.32 0.065,0.07 c -4.493,-0.81 -6.709,-1.5 -10.101,-4.7 2.718,8.99 8.604,16.29 15.422,22.63 -0.66,0.54 -1.405,1.48 -2.255,1.39 -1.598,3.3 -4.566,5.93 -7.985,7.28 -1.064,0.42 -2.146,0.65 -3.285,0.65 -1.571,2.93 -5.491,6.02 -8.751,6.82 -0.707,0.17 -0.783,0.14 -1.41,0.13 l -1.242,-0.95 c -4.042,-2.98 -5.235,-14.28 -6.096,-19.19 l 0.199,-1.18 c -1.464,-3.39 -15.058,-8.86 -18.75,-14.34 -1.907,-5.38 -3.839,-10.68 -6.165,-15.9 z"
       id="path119" /><path
       fill="#ecc79e"
       transform="matrix(0.133789,0,0,0.133333,0,-1.2207e-4)"
       d="m 485.305,1143.67 c -0.18,0.03 -0.358,0.08 -0.54,0.09 -2.089,0.05 -4.209,-1.6 -5.799,-2.81 -27.825,-21.13 -48.152,-54.46 -53.099,-89.08 1.175,3.19 2.664,6.07 4.437,8.96 8.777,14.33 19.601,25.71 31.327,37.59 2.657,2.69 6.868,8.14 10.534,9.03 -0.543,-3.84 -1.208,-7.64 -2.509,-11.31 -2.278,-6.42 -2.587,-3.42 -5.907,-5.39 -1.423,-0.84 -4.081,-3.45 -4.57,-5.03 2.052,0.7 4.411,1.76 6.573,1.92 0.268,0.02 0.537,0.03 0.806,0.05 l 1.146,2.46 0.819,-0.31 0.601,-1.64 c 2.649,9.62 6.491,18.76 10.577,27.84 1.711,3.8 4.019,7.65 5.35,11.57 l -0.005,0.01 c -1.598,-0.71 -2.094,-1.59 -2.968,-3.02 l 0.096,-0.32 0.065,0.07 c -4.493,-0.81 -6.709,-1.5 -10.101,-4.7 2.718,8.99 8.604,16.29 15.422,22.63 -0.66,0.54 -1.405,1.48 -2.255,1.39 z"
       id="path120" /><path
       fill="#ef4f25"
       transform="matrix(0.133789,0,0,0.133333,0,-1.2207e-4)"
       d="m 456.735,1137.23 c 5.799,2.48 11.174,10.67 17.3,14.37 -1.571,2.93 -5.491,6.02 -8.751,6.82 -0.707,0.17 -0.783,0.14 -1.41,0.13 l -1.242,-0.95 c -4.042,-2.98 -5.235,-14.28 -6.096,-19.19 z"
       id="path121" /><path
       fill="#f5d248"
       transform="matrix(0.133789,0,0,0.133333,0,-1.2207e-4)"
       d="m 519.547,912.346 c 1.79,4.203 1.258,10.562 1.486,15.186 1.166,23.624 -0.634,48.479 9.176,70.466 2.837,7.362 5.523,14.722 7.761,22.292 1.488,5.03 2.385,10.79 4.526,15.56 0.807,1.8 1.849,3.82 3.707,4.71 1.453,0.7 2.874,0.48 4.317,-0.13 10.914,-4.68 17.021,-19.38 23.185,-28.82 -0.989,8.77 -2.523,33.35 -6.238,40.14 4.203,-1.32 6.274,-4.87 8.18,-8.59 0.585,-1.15 1.145,-2.32 1.679,-3.49 l -0.02,0.55 c -0.085,1.94 -1.427,6.02 -0.187,7.51 1.503,1.8 2.857,2.01 3.553,4.48 -1.306,5.71 -2.662,11.29 -4.805,16.75 -2.295,5.84 -17.607,36.75 -21.603,39.2 -0.318,0.2 -0.654,0.36 -0.983,0.54 4.381,0.16 8.477,-0.75 11.749,-3.9 1.2,-1.16 1.802,-2.41 2.354,-3.96 l 1.278,0.39 c 2.217,-0.4 3.535,-1.64 5.212,-3.02 0.986,2.59 1.086,3.85 -0.043,6.4 -3.375,7.61 -22.346,29.27 -29.837,32.16 -0.711,0.27 -1.33,0.29 -2.079,0.25 l -1.64,-0.28 c -3.143,-2.43 -5.629,-5.31 -6.976,-9.1 -2.282,0.13 -4.242,-1.4 -5.899,-2.84 -1.692,-1.48 -3.334,-3.02 -4.432,-5 -3.875,5.05 -21.562,16.66 -27.64,18.1 l -1.132,-0.33 c -1.199,2 -2.38,4.16 -4.871,4.62 -1.018,0.19 -0.792,0.15 -1.765,0.09 -6.818,-6.34 -12.704,-13.64 -15.422,-22.63 3.392,3.2 5.608,3.89 10.101,4.7 l -0.065,-0.07 -0.096,0.32 c 0.874,1.43 1.37,2.31 2.968,3.02 l 0.005,-0.01 c -1.331,-3.92 -3.639,-7.77 -5.35,-11.57 -4.086,-9.08 -7.928,-18.22 -10.577,-27.84 l -0.601,1.64 -0.819,0.31 -1.146,-2.46 c 0.474,-1.03 -1.993,-5.38 -2.524,-6.88 -2.585,-8.31 -7.681,-15.73 -9.994,-24.14 -6.065,-22.07 1.447,-50.82 12.494,-70.247 1.389,-3.085 2.142,-6.829 3.105,-10.094 2.712,4.839 -1.312,16.152 -0.942,22.124 4.837,6.007 8.347,20.647 8.224,28.387 -10e-4,0.1 -0.039,0.2 -0.059,0.31 0.596,3.79 2.22,6.98 4.092,10.3 2.531,4.49 6.761,11.14 11.963,12.62 -0.488,-7.77 0.357,-15.81 0.866,-23.58 1.551,-23.65 3.662,-47.449 10.757,-70.193 4.637,-14.866 11.184,-28.745 15.007,-43.951 z"
       id="path127" /><path
       fill="#fcfcfb"
       transform="matrix(0.133789,0,0,0.133333,0,-1.2207e-4)"
       d="m 512.874,973.116 c 3.765,6.694 1.482,15.638 3.064,22.913 0.189,14.531 8.54,68.041 16.351,78.961 3.007,-1.05 4.822,-4.24 6.124,-7.01 1.575,-3.36 2.727,-6.91 3.427,-10.56 0.374,15.28 -0.31,56.63 -7.068,69.6 -0.458,0.21 -0.979,0.53 -1.473,0.62 -2.282,0.13 -4.242,-1.4 -5.899,-2.84 -1.692,-1.48 -3.334,-3.02 -4.432,-5 -3.875,5.05 -21.562,16.66 -27.64,18.1 l -1.132,-0.33 c 0.162,-1.92 1.094,-3.95 1.718,-5.78 -2.377,-10.24 -6.33,-20.27 -9.516,-30.29 -6.875,-21.63 -11.928,-43.92 -12.354,-66.66 2.452,11.8 6.068,23.73 11.653,34.44 3.54,6.79 9.856,18.79 17.538,21.19 -2.015,-6.77 -1.384,-15.71 -1.378,-22.74 0.031,-32.2 2.627,-63.4 11.017,-94.614 z"
       id="path128" /><path
       fill="#e8863e"
       transform="matrix(0.133789,0,0,0.133333,0,-1.2207e-4)"
       d="m 466.534,986.423 c 0.442,8.52 -1.399,17.347 -2.164,25.847 -1.769,19.65 -1.629,39.55 2.337,58.91 1.079,5.27 2.898,11.03 2.463,16.39 l -0.046,0.63 -0.601,1.64 -0.819,0.31 -1.146,-2.46 c 0.474,-1.03 -1.993,-5.38 -2.524,-6.88 -2.585,-8.31 -7.681,-15.73 -9.994,-24.14 -6.065,-22.07 1.447,-50.82 12.494,-70.247 z"
       id="path129" /><path
       fill="#e8863e"
       transform="matrix(0.133789,0,0,0.133333,0,-1.2207e-4)"
       d="m 468.697,998.453 c 4.837,6.007 8.347,20.647 8.224,28.387 -10e-4,0.1 -0.039,0.2 -0.059,0.31 l -0.978,-0.31 c -5.353,-6.42 -6.149,-20.16 -7.187,-28.387 z"
       id="path130" /><path
       fill="#f6e574"
       transform="matrix(0.133789,0,0,0.133333,0,-1.2207e-4)"
       d="m 512.874,973.116 c 0.571,-1.936 1.065,-3.942 1.755,-5.836 1.465,6.94 6.405,23.424 6.203,29.399 -0.976,-2.904 -1.361,-7.5 -3.385,-9.728 -1.611,1.624 -1.401,6.742 -1.509,9.078 -1.582,-7.275 0.701,-16.219 -3.064,-22.913 z"
       id="path131" /><path
       fill="url(#gradient_9)"
       transform="matrix(0.133789,0,0,0.133333,0,-1.2207e-4)"
       d="m 503.369,833.136 c 16.599,20.208 28.025,54.957 33.081,80.325 1.859,9.289 3.163,18.681 3.905,28.125 0.485,6.725 -0.05,14.742 1.563,21.205 0.548,2.195 1.019,3.418 2.817,4.75 2.45,-0.527 3.636,-1.964 4.985,-4.063 7.445,-11.579 6.35,-30.039 5.539,-43.385 10.821,18.981 7.636,67.228 1.879,88.267 -1.72,6.28 -4.553,18.73 -10.289,22.24 3.397,0.24 5.936,-1.59 8.4,-3.74 11.591,-10.09 20.228,-23.67 21.112,-39.281 0.536,-9.455 -1.117,-19.238 -2.52,-28.575 7.312,11.592 13.747,29.888 17.094,43.396 7.238,26.15 7.238,53.55 -6.506,77.83 -5.382,9.51 -11.653,12.95 -17.045,20.61 -0.552,1.55 -1.154,2.8 -2.354,3.96 -3.272,3.15 -7.368,4.06 -11.749,3.9 0.329,-0.18 0.665,-0.34 0.983,-0.54 3.996,-2.45 19.308,-33.36 21.603,-39.2 2.143,-5.46 3.499,-11.04 4.805,-16.75 -0.696,-2.47 -2.05,-2.68 -3.553,-4.48 -1.24,-1.49 0.102,-5.57 0.187,-7.51 l 0.02,-0.55 c -0.534,1.17 -1.094,2.34 -1.679,3.49 -1.906,3.72 -3.977,7.27 -8.18,8.59 3.715,-6.79 5.249,-31.37 6.238,-40.14 -6.164,9.44 -12.271,24.14 -23.185,28.82 -1.443,0.61 -2.864,0.83 -4.317,0.13 -1.858,-0.89 -2.9,-2.91 -3.707,-4.71 -2.141,-4.77 -3.038,-10.53 -4.526,-15.56 -2.238,-7.57 -4.924,-14.93 -7.761,-22.292 -9.81,-21.987 -8.01,-46.842 -9.176,-70.466 -0.228,-4.624 0.304,-10.983 -1.486,-15.186 -3.823,15.206 -10.37,29.085 -15.007,43.951 -7.095,22.744 -9.206,46.543 -10.757,70.193 -0.509,7.77 -1.354,15.81 -0.866,23.58 -5.202,-1.48 -9.432,-8.13 -11.963,-12.62 -1.872,-3.32 -3.496,-6.51 -4.092,-10.3 0.02,-0.11 0.058,-0.21 0.059,-0.31 0.123,-7.74 -3.387,-22.38 -8.224,-28.387 -0.37,-5.972 3.654,-17.285 0.942,-22.124 0.509,-2.102 1.521,-2.917 2.713,-4.616 0.119,-0.169 0.232,-0.342 0.348,-0.512 l 0.709,2.092 1.184,0.302 c 6.973,-5.145 12.36,-21.368 13.597,-29.844 3.02,-20.689 -5.249,-40.003 -12.088,-59.004 3.862,5.859 14.198,25.467 20.75,26.626 2.082,0.368 4,-0.654 5.546,-1.956 5.723,-4.82 6.778,-14.347 7.146,-21.298 0.972,-18.338 -2.202,-37.149 -6.175,-54.983 z"
       id="path132"
       style="fill:url(#gradient_9)" /><path
       fill="#e8863e"
       transform="matrix(0.133789,0,0,0.133333,0,-1.2207e-4)"
       d="m 521.285,897.772 c 1.243,9.576 4.375,19.003 6.641,28.384 4.211,17.437 5.32,34.138 4.244,52.008 -0.384,6.364 -0.311,13.659 -1.961,19.834 -9.81,-21.987 -8.01,-46.842 -9.176,-70.466 -0.228,-4.624 0.304,-10.983 -1.486,-15.186 0.633,-4.851 0.907,-9.751 1.738,-14.574 z"
       id="path133" /><path
       fill="#ecc79e"
       transform="matrix(0.133789,0,0,0.133333,0,-1.2207e-4)"
       d="m 583.029,1027.97 c 0.202,6.09 1.799,18.97 -2.135,24.01 -0.065,0.09 -0.148,0.15 -0.222,0.23 -0.696,-2.47 -2.05,-2.68 -3.553,-4.48 -1.24,-1.49 0.102,-5.57 0.187,-7.51 l 0.02,-0.55 c 2.086,-3.8 4.353,-7.57 5.703,-11.7 z"
       id="path134" /></g></svg>
