<?xml version="1.0" encoding="UTF-8" standalone="no"?>
<svg
   width="63mm"
   height="88mm"
   version="1.1"
   id="svg123"
   sodipodi:docname="item-axehand.svg"
   inkscape:version="1.3.2 (091e20e, 2023-11-25, custom)"
   xmlns:inkscape="http://www.inkscape.org/namespaces/inkscape"
   xmlns:sodipodi="http://sodipodi.sourceforge.net/DTD/sodipodi-0.dtd"
   xmlns="http://www.w3.org/2000/svg"
   xmlns:svg="http://www.w3.org/2000/svg">
  <sodipodi:namedview
     id="namedview123"
     pagecolor="#ffffff"
     bordercolor="#000000"
     borderopacity="0.25"
     inkscape:showpageshadow="2"
     inkscape:pageopacity="0.0"
     inkscape:pagecheckerboard="0"
     inkscape:deskcolor="#d1d1d1"
     inkscape:document-units="mm"
     inkscape:zoom="1.3683333"
     inkscape:cx="54.445798"
     inkscape:cy="102.31425"
     inkscape:window-width="1350"
     inkscape:window-height="1040"
     inkscape:window-x="182"
     inkscape:window-y="0"
     inkscape:window-maximized="0"
     inkscape:current-layer="svg123" />
  <path
     fill="#5c290f"
     d="m 192.95996,250.17846 c 0.2695,-0.61351 0.72811,-1.20526 1.02714,-1.83198 l 1.67833,2.85111 c 0.17771,0.28437 0.43003,0.84385 0.70343,1.02383 l -0.98934,1.57254 c -0.58106,-0.95644 -1.52352,-3.04235 -2.41956,-3.6155 z"
     id="path2"
     style="stroke-width:0.205718" />
  <path
     fill="#5c290f"
     d="m 195.82697,254.79599 c 0.37296,-0.58278 0.62154,-1.22928 0.89067,-1.86426 l 1.98539,3.22517 c 0.27418,0.43275 0.78653,1.04534 0.90125,1.53709 l -0.45041,-0.51063 c -0.4098,0.30855 -0.65757,0.83892 -0.92336,1.27167 -0.66611,-1.09253 -1.44996,-2.84132 -2.40351,-3.65907 z"
     id="path3"
     style="stroke-width:0.205718" />
  <path
     fill="#c5c6c7"
     d="m 28.912941,85.373646 c 1.54128,-7.064195 3.908426,-13.658067 7.341374,-20.025631 l 2.23189,6.735032 c -0.553652,0.452614 -0.809669,1.466906 -1.087576,2.123416 -1.843812,4.357127 -3.338143,9.230201 -3.80384,13.944857 l -0.08123,1.112327 -2.44745,-2.047905 c -0.70515,-0.628962 -1.361521,-1.320088 -2.153168,-1.842096 z"
     id="path5"
     style="stroke-width:0.205718" />
  <path
     fill="#a8aaac"
     d="m 33.513561,89.263647 0.08123,-1.112327 c 0.465697,-4.714656 1.960028,-9.58773 3.80384,-13.944857 0.277907,-0.65651 0.533929,-1.670796 1.087576,-2.123416 0.781377,1.869717 1.547393,3.749799 2.533337,5.523038 0.308362,0.554376 0.614905,1.249262 1.009387,1.741772 -1.378891,4.500482 -2.649574,10.102043 -2.35415,14.831623 -0.808141,-0.475255 -1.5763,-1.253298 -2.30599,-1.851807 z"
     id="path6"
     style="stroke-width:0.205718" />
  <path
     fill="#857165"
     d="m 156.61269,220.61517 c 0.90072,0.32188 1.67999,0.91826 2.49278,1.41215 l 3.52673,2.06252 0.53676,0.31791 0.45246,1.10991 0.0573,0.17487 4.20823,7.30833 c 0.32876,0.59955 1.16853,1.78113 1.17281,2.45382 l 0.40153,0.18601 c 0.0564,0.4768 0.29131,0.8154 0.53259,1.21763 l 0.0577,0.0781 8.67045,17.26373 c -0.91145,0.38659 -1.7894,0.57644 -2.75405,0.77361 l 0.21086,-0.23991 c -0.23804,-0.85765 -0.79078,-1.67225 -1.22461,-2.44626 l -2.40984,-4.26297 -8.3972,-14.53199 -6.71696,-11.52284 z"
     id="path7"
     style="stroke-width:0.205718" />
  <path
     fill="#6e4529"
     d="m 164.27677,233.4107 c 0.54138,-0.0225 1.09918,0.36203 1.58059,0.60288 1.05262,0.52558 2.10164,1.02203 3.20237,1.441 l 0.40154,0.18601 c 0.0564,0.4768 0.29131,0.81541 0.53259,1.21763 -1.02622,-0.3705 -2.09644,-1.07343 -3.08314,-1.56462 -0.59389,-0.29498 -1.45856,-0.569 -1.98531,-0.93162 -0.1947,-0.13419 -0.49782,-0.73001 -0.64865,-0.95126 z"
     id="path8"
     style="stroke-width:0.205718" />
  <path
     fill="#6e4529"
     d="m 156.61269,220.61517 c 0.90072,0.32188 1.67999,0.91826 2.49278,1.41215 l 3.52673,2.06252 0.53676,0.31791 0.45246,1.10991 c -2.14148,-0.87708 -4.15453,-2.42121 -6.19127,-3.54805 z"
     id="path9"
     style="stroke-width:0.205718" />
  <path
     fill="#4b230e"
     d="m 116.92632,134.49162 c 0.69071,-0.69253 1.53218,-2.08459 2.36364,-2.501 l 0.40719,0.53972 0.0653,-0.0647 1.74224,2.83468 25.2045,41.0796 -0.1003,0.10095 -0.3445,-0.48692 -0.22311,0.0461 c -0.42635,2.09648 0.3931,4.16913 0.005,6.2296 -0.71897,-1.3913 -1.67594,-2.73489 -2.50484,-4.07002 l -4.60111,-7.48733 -4.84983,-7.93374 c -0.93205,-1.52356 -1.81389,-3.15502 -2.89488,-4.57514 l -0.17893,-0.82845 -0.59081,-0.58003 -0.11375,-0.32303 -6.49097,-10.36289 -0.0307,-0.35046 -0.88764,-1.29099 -0.0571,-0.2699 -4.42795,-7.2378 -0.37123,-0.0565 0.19467,-0.26599 c -0.34117,-0.73617 -0.88286,-1.45455 -1.31545,-2.14586 z"
     id="path15"
     style="stroke-width:0.205718" />
  <path
     fill="#3f1808"
     d="m 130.31273,156.47195 0.0978,-5.19061 0.13039,-0.60868 0.19707,0.002 c 0.11369,0.19427 0.33878,0.44605 0.28976,0.66392 -0.43845,1.95098 0.42269,4.14692 -0.0105,6.03604 l -0.59081,-0.58003 z"
     id="path16"
     style="stroke-width:0.205718" />
  <path
     fill="#3f1808"
     d="m 122.84632,144.19771 c 0.15985,-2.0031 -0.0333,-4.00964 0.25662,-5.99832 0.14963,0.24898 0.81772,1.20113 0.79432,1.42696 l -0.10617,6.13224 -0.88765,-1.29098 z"
     id="path17"
     style="stroke-width:0.205718" />
  <path
     fill="#290b03"
     d="m 116.92632,134.49162 c 0.69071,-0.69253 1.53218,-2.08459 2.36364,-2.501 l 0.40719,0.53972 0.9689,1.67876 c -0.75401,0.90635 -1.44983,1.75251 -2.42425,2.42836 -0.3412,-0.73615 -0.88288,-1.45453 -1.31548,-2.14584 z"
     id="path18"
     style="stroke-width:0.205718" />
  <path
     fill="#94552d"
     d="m 191.43727,244.41757 c 0.89785,0.90247 1.28825,2.19987 2.08418,3.16952 l 0.46564,0.75939 c -0.29902,0.62672 -0.75764,1.21849 -1.02714,1.83198 0.89603,0.57318 1.83843,2.65911 2.41956,3.6155 -3.96252,5.25855 -8.44047,8.70051 -14.38653,11.50932 -0.91334,-1.26201 -1.8294,-2.67667 -2.46645,-4.09811 l -0.37169,-0.50572 c -0.54911,-1.08691 -1.22789,-2.11382 -1.85634,-3.157 -0.29401,-0.48816 -0.69922,-1.00475 -0.76436,-1.57747 0.0342,-0.32962 0.27918,-0.6966 0.4338,-0.99139 0.96464,-0.19717 1.84255,-0.38708 2.75404,-0.77359 1.89941,-0.98865 3.57615,-2.07988 5.31614,-3.31327 l 0.16692,0.10533 1.90279,-1.67564 c 0.35855,-0.35919 0.71078,-0.56041 1.14621,-0.81722 l 2.79053,-2.86278 0.0889,-0.0767 z"
     id="path19"
     style="stroke-width:0.205718" />
  <path
     fill="#5c290f"
     d="m 191.43727,244.41757 c 0.89785,0.90247 1.28825,2.19987 2.08418,3.16952 l -1.00216,1.59967 -2.3856,-3.62664 z"
     id="path20"
     style="stroke-width:0.205718" />
  <path
     fill="#3f1808"
     d="m 193.52146,247.58709 0.46564,0.75939 c -0.29903,0.62672 -0.75764,1.21847 -1.02714,1.83198 -0.80435,1.18197 -1.70345,2.30131 -2.6149,3.40167 -0.26634,0.32228 -0.92696,0.93863 -1.05284,1.29062 -2.22896,2.16221 -4.8213,3.96074 -7.59441,5.36101 -0.0171,-0.008 -0.47037,0.20096 -0.55483,0.23825 -0.88066,0.37737 -1.65345,0.67169 -2.61644,0.73518 l -0.37169,-0.50572 c 1.36386,-0.60538 2.6947,-1.08458 4.00743,-1.82516 4.33229,-2.43884 7.28824,-5.89959 10.35702,-9.68753 z"
     id="path21"
     style="stroke-width:0.205718" />
  <path
     fill="#b66b3d"
     d="m 187.25403,248.49916 2.79054,-2.86278 c -0.98808,4.39109 -4.94407,8.47592 -8.60302,10.83788 l -2.7385,1.44185 c -0.14621,-0.86801 -0.1891,-1.65934 -0.14861,-2.5403 -0.86078,0.37954 -1.76279,0.63492 -2.67593,0.85122 l -0.34434,-0.26201 c 0.0342,-0.32964 0.27918,-0.6966 0.4338,-0.99139 0.96464,-0.19717 1.84255,-0.38708 2.75404,-0.77359 1.89941,-0.98867 3.57615,-2.07988 5.31614,-3.31329 l 0.16692,0.10533 1.90278,-1.67562 c 0.35856,-0.35919 0.71079,-0.5604 1.14621,-0.81721 z"
     id="path22"
     style="stroke-width:0.205718" />
  <path
     fill="#5c290f"
     d="m 175.96793,254.97361 c 0.96465,-0.19717 1.84256,-0.3871 2.75405,-0.77361 1.89941,-0.98865 3.57615,-2.07988 5.31614,-3.31327 l 0.16692,0.10533 1.90278,-1.67564 c 0.35855,-0.35919 0.71079,-0.56041 1.14621,-0.81722 -2.55387,2.69146 -5.34392,5.22358 -8.69962,6.87661 -0.86078,0.37954 -1.76279,0.63492 -2.67594,0.85122 l -0.34433,-0.26201 c 0.0342,-0.32961 0.27918,-0.6966 0.43379,-0.99137 z"
     id="path23"
     style="stroke-width:0.205718" />
  <path
     fill="#94552d"
     d="m 192.95996,250.17846 c 0.89603,0.57318 1.83842,2.65911 2.41956,3.6155 -3.96252,5.25855 -8.44047,8.70049 -14.38653,11.50932 -0.91334,-1.26201 -1.8294,-2.67669 -2.46645,-4.09811 0.96299,-0.0634 1.73574,-0.35788 2.61643,-0.73518 0.0847,-0.0371 0.53801,-0.24723 0.55483,-0.23825 2.77312,-1.40027 5.36548,-3.19876 7.59441,-5.36101 0.12589,-0.35199 0.78647,-0.96843 1.05285,-1.29063 0.91145,-1.10035 1.81055,-2.21969 2.6149,-3.40166 z"
     id="path24"
     style="stroke-width:0.205718" />
  <path
     fill="#b66b3d"
     d="m 189.29222,254.87075 0.16126,0.16431 c -1.48335,3.38938 -4.66048,5.69528 -7.87171,7.28646 l -0.3327,-0.10027 c -0.12359,-0.61895 0.0483,-1.13417 0.2118,-1.7286 l 0.23691,-0.26079 c 2.77311,-1.40027 5.36548,-3.19876 7.59441,-5.36101 z"
     id="path25"
     style="stroke-width:0.205718" />
  <path
     fill="#c5c6c7"
     d="m 28.912941,85.373646 c 0.791647,0.522008 1.448018,1.213134 2.15317,1.842096 l 2.44745,2.047905 3.855225,3.064028 c 0.729689,0.598509 1.497848,1.376552 2.305989,1.851807 0.06145,0.513485 0.151722,1.037796 0.146214,1.555355 l 0.01812,1.02266 -0.08081,-0.05401 c -2.225819,-1.5271 -4.060722,-3.617249 -6.387309,-5.034879 -1.031223,7.917448 -0.376901,16.130432 1.380083,23.902382 l 1.20174,4.57583 c 0.237423,0.80303 0.59673,1.62866 0.736127,2.45043 -2.134599,-0.3097 -4.165188,-0.70088 -6.219886,-1.36479 l -1.604812,-7.20087 c -1.60547,-9.12651 -1.721436,-18.708633 -0.04618,-27.840654 z"
     id="path26"
     style="stroke-width:0.205718" />
  <path
     fill="#77787a"
     d="m 28.912941,85.373646 c 0.791647,0.522008 1.448018,1.213134 2.15317,1.842096 l 2.44745,2.047905 3.855225,3.064028 c 0.729689,0.598509 1.497848,1.376552 2.305989,1.851807 0.06145,0.513485 0.151722,1.037796 0.146214,1.555355 L 28.818063,86.190925 Z"
     id="path27"
     style="stroke-width:0.205718" />
  <path
     fill="#a8aaac"
     d="m 36.688939,122.59723 c -0.139397,-0.82176 -0.498704,-1.6474 -0.736127,-2.45042 l -1.20174,-4.57583 c -1.756984,-7.77195 -2.411306,-15.984936 -1.380083,-23.902385 2.326587,1.417628 4.16149,3.507778 6.387207,5.034886 l 0.08081,0.05401 c -0.06181,8.672419 0.943144,18.208839 4.470327,26.237319 -0.496093,0.25462 -1.373276,0.0555 -1.955915,0.0276 -1.877697,-0.0897 -3.81148,-0.085 -5.664475,-0.42521 z"
     id="path28"
     style="stroke-width:0.205718" />
  <path
     fill="#94552d"
     d="m 195.37951,253.79396 0.98935,-1.57252 0.34877,0.71029 c -0.26913,0.63498 -0.51771,1.2815 -0.89067,1.86426 0.95356,0.81774 1.73741,2.56654 2.40352,3.65906 0.26578,-0.43275 0.5136,-0.96303 0.92335,-1.27167 l 0.45041,0.51063 0.0181,0.0855 c 0.55768,0.88633 2.31307,3.13803 2.3249,4.09065 -0.0188,0.53247 -0.42507,1.16212 -0.79185,1.54335 l -0.0609,0.0447 0.75887,1.1491 0.36572,0.91458 c -0.6564,0.99254 -1.5285,1.56719 -2.37382,2.3594 l -1.48254,1.49808 -1.25607,0.98568 -0.42235,0.32586 -4.34551,2.6013 -0.0997,-0.0356 c -0.93907,-0.49136 -2.39594,-0.56218 -3.44646,-0.92748 l -0.81639,0.32595 c -0.0378,0.2353 -0.0124,0.2922 0.0686,0.51998 l -0.10221,0.0674 -0.30772,-0.37122 c -0.4687,0.0817 -1.10469,0.22014 -1.58064,0.15926 -0.56781,-0.0746 -0.86166,-0.71722 -1.16731,-1.13552 l -1.20376,-2.13823 c -0.77685,-1.00548 -1.88559,-2.64714 -2.30206,-3.83694 l -0.388,-0.61632 c 5.94606,-2.80883 10.42405,-6.25071 14.38653,-11.50934 z"
     id="path30"
     style="stroke-width:0.205718" />
  <path
     fill="#b66b3d"
     d="m 192.90114,258.63149 0.20468,0.12555 c -1.14302,3.02918 -5.19,6.67291 -8.12661,7.99475 l -0.84613,0.3392 c -0.0522,-0.66746 -0.1015,-1.30055 -0.0219,-1.96666 l 0.46221,-0.32852 c 3.12267,-1.40917 5.88003,-3.80553 8.32779,-6.16432 z"
     id="path31"
     style="stroke-width:0.205718" />
  <path
     fill="#3f1808"
     d="m 198.23049,258.45505 c 0.26578,-0.43275 0.5136,-0.96306 0.92335,-1.27167 l 0.45042,0.51063 0.0181,0.0855 -0.98599,1.45228 c -3.6978,4.88674 -8.34426,9.09262 -14.23255,11.10157 -0.40054,-0.11185 -0.37966,-0.16557 -0.59147,-0.50386 1.20512,-0.73987 2.69139,-1.08016 3.9392,-1.86059 2.80603,-1.75558 5.40179,-4.06997 7.68243,-6.45674 0.92127,-0.9641 1.73787,-2.03539 2.69441,-2.96076 z"
     id="path32"
     style="stroke-width:0.205718" />
  <path
     fill="#3f1808"
     d="m 195.37951,253.79396 0.98935,-1.57252 0.34877,0.71029 c -0.26913,0.63498 -0.51771,1.2815 -0.89067,1.86426 l -2.05105,2.73828 c -0.18372,0.22083 -0.86222,0.89902 -0.87478,1.09724 -2.44775,2.35882 -5.20512,4.75515 -8.32779,6.1643 -1.10257,0.38285 -2.03376,0.85619 -3.19237,1.12383 l -0.38801,-0.61634 c 5.94606,-2.80883 10.42405,-6.25071 14.38653,-11.50932 z"
     id="path33"
     style="stroke-width:0.205718" />
  <path
     fill="#5c290f"
     d="m 198.63629,259.23173 0.986,-1.4523 c 0.55767,0.88636 2.31307,3.13803 2.32489,4.09066 -0.0188,0.53247 -0.42506,1.16212 -0.79184,1.54334 l -0.0609,0.0447 0.75887,1.1491 0.36572,0.91458 c -0.65641,0.99255 -1.52851,1.5672 -2.37383,2.35941 l -1.48253,1.49807 -1.25607,0.98568 -0.42235,0.32586 -4.34552,2.6013 -0.0997,-0.0356 c -0.93907,-0.49135 -2.39594,-0.56218 -3.44645,-0.92747 l -0.81639,0.32594 c -0.0379,0.23531 -0.0124,0.2922 0.0686,0.51999 l -0.10221,0.0674 -0.30772,-0.37121 c -0.4687,0.0817 -1.10469,0.22013 -1.58065,0.15925 -0.5678,-0.0746 -0.86165,-0.71721 -1.1673,-1.13551 l 0.80492,0.0381 c 1.0477,-0.019 2.32157,-0.62472 3.25323,-1.08389 4.31786,-2.13571 7.77521,-5.36311 11.10882,-8.78251 0.0965,-0.75362 -1.00408,-2.13986 -1.41746,-2.83473 z"
     id="path34"
     style="stroke-width:0.205718" />
  <path
     fill="#290b03"
     d="m 188.79254,272.32897 c 3.77538,-1.44922 6.5494,-3.63626 9.5043,-6.34158 0.90218,-0.82699 1.78521,-1.84726 2.79749,-2.52943 l 0.75887,1.14911 0.36572,0.91458 c -0.65641,0.99254 -1.5285,1.56719 -2.37383,2.3594 l -1.48253,1.49808 -1.25607,0.98569 -0.42235,0.32587 -4.34551,2.60127 -0.0997,-0.0356 c -0.93907,-0.49137 -2.39594,-0.56219 -3.44645,-0.92747 z"
     id="path35"
     style="stroke-width:0.205718" />
  <path
     fill="#5c290f"
     d="m 114.84648,119.25095 c 0.7324,0.29394 1.24324,0.94943 1.58757,1.68004 0.70062,1.12277 1.54916,2.25342 1.86485,3.55482 l 0.19486,0.10242 c 0.87443,0.90402 2.25832,2.92913 2.17933,4.22049 -0.0459,0.74678 -0.4191,1.49465 -0.76555,2.14125 -0.10071,0.18775 -0.42087,0.65934 -0.43278,0.84799 -0.007,0.10697 0.23373,0.5424 0.28778,0.66778 l -0.0653,0.0647 -0.40719,-0.53972 c -0.83145,0.41641 -1.67293,1.80847 -2.36363,2.501 0.43264,0.69129 0.97426,1.4097 1.31548,2.14584 l -0.19468,0.26599 c -1.75696,1.50561 -3.67772,2.88306 -5.80424,3.81941 l -3.50444,1.35794 -1.08545,-1.7355 c -0.88808,0.234 -2.02631,0.27715 -2.92539,0.0758 -0.71708,-0.16052 -1.10579,-0.97902 -1.47817,-1.56392 -0.15607,-0.35358 -0.28057,-0.6828 -0.37354,-1.05859 l -0.60797,-0.44532 -1.39967,-2.11988 c -0.41727,-0.7142 -0.8549,-1.38821 -0.79177,-2.24732 0.64801,-0.12302 1.05092,-0.65764 1.53359,-1.09855 l 2.85312,-2.61073 8.47925,-7.69947 1.97289,-1.88977 z"
     id="path36"
     style="stroke-width:0.205718" />
  <path
     fill="#4b230e"
     d="m 107.65306,140.34527 3.51137,-1.63592 c 0.35887,0.64164 0.82546,1.32759 1.07846,2.01352 l -3.50444,1.35794 z"
     id="path37"
     style="stroke-width:0.205718" />
  <path
     fill="#3f1808"
     d="m 111.16443,138.70935 c 2.1227,-1.15661 3.92268,-2.66878 5.76189,-4.21773 0.43264,0.69129 0.97427,1.4097 1.31548,2.14584 l -0.19466,0.26599 c -1.75696,1.50561 -3.67773,2.88306 -5.80425,3.81941 -0.25306,-0.6859 -0.71959,-1.37187 -1.07846,-2.01352 z"
     id="path38"
     style="stroke-width:0.205718" />
  <path
     fill="#94552d"
     d="m 115.44205,127.2686 c 0.9274,-0.78815 2.32212,-1.68165 2.85685,-2.78279 l 0.19486,0.10242 c -0.55595,4.70235 -4.16229,8.82141 -7.76522,11.66353 -1.47588,1.16407 -3.60728,2.37978 -5.49183,2.63242 1.33731,-0.81313 2.58522,-1.85905 3.81942,-2.82217 1.66946,-1.30254 3.34474,-2.61056 4.79857,-4.15908 0.61116,-0.65109 1.24743,-1.32695 1.59051,-2.16467 0.35232,-0.85928 0.34431,-1.6165 -0.003,-2.46965 z"
     id="path39"
     style="stroke-width:0.205718" />
  <path
     fill="#b66b3d"
     d="m 103.39045,137.84044 c 1.39797,-0.80504 2.73007,-2.30969 3.96111,-3.39147 l 8.09049,-7.18037 c 0.34745,0.85315 0.35546,1.61037 0.003,2.46966 -0.34308,0.83772 -0.97935,1.51358 -1.59051,2.16467 -1.45383,1.54851 -3.12911,2.85654 -4.79858,4.15908 -1.23419,0.96312 -2.48216,2.00895 -3.81941,2.82217 -0.78182,0.237 -1.20826,0.20973 -1.98719,-0.027 -0.15608,-0.35357 -0.28058,-0.6828 -0.37355,-1.05858 z"
     id="path40"
     style="stroke-width:0.205718" />
  <path
     fill="#94552d"
     d="m 114.84648,119.25095 c 0.7324,0.29394 1.24324,0.94943 1.58757,1.68004 0.70062,1.12277 1.54916,2.25342 1.86485,3.55482 -0.53473,1.10114 -1.92946,1.99463 -2.85685,2.78279 l -8.09049,7.18037 c -1.23104,1.08178 -2.56314,2.58643 -3.96111,3.39147 l -0.5145,-0.0419 -0.60797,-0.44531 -1.39967,-2.11989 c -0.41727,-0.71419 -0.8549,-1.3882 -0.79177,-2.24732 0.64801,-0.12302 1.05092,-0.65763 1.53359,-1.09855 l 2.85312,-2.61073 8.47925,-7.69946 1.97289,-1.88977 z"
     id="path41"
     style="stroke-width:0.205718" />
  <path
     fill="#5c290f"
     d="m 102.26798,137.35325 1.56685,-1.29643 c -0.15317,0.47647 -0.53125,1.29365 -0.44438,1.78362 l -0.5145,-0.0419 z"
     id="path42"
     style="stroke-width:0.205718" />
  <path
     fill="#4b230e"
     d="m 103.83483,136.05682 10.02685,-9.00293 c 0.69855,-0.66985 1.5788,-1.37464 2.05754,-2.22833 0.63397,-1.13051 0.48761,-2.64116 0.51483,-3.89457 0.70062,1.12277 1.54916,2.25342 1.86485,3.55482 -0.53473,1.10114 -1.92946,1.99463 -2.85685,2.78279 l -8.09049,7.18037 c -1.23104,1.08178 -2.56314,2.58643 -3.96111,3.39147 -0.0869,-0.48997 0.29121,-1.30715 0.44438,-1.78362 z"
     id="path43"
     style="stroke-width:0.205718" />
  <path
     fill="#b66b3d"
     d="m 100.07654,132.98605 c 0.648,-0.12302 1.05091,-0.65764 1.53358,-1.09855 l 2.85313,-2.61073 8.47925,-7.69947 c 0.33692,0.4426 1.04098,1.16556 1.16122,1.68721 -1.97918,2.34969 -4.39025,4.4157 -6.54907,6.60977 l -3.06369,3.17273 c -0.46106,0.47387 -0.94916,1.09548 -1.49593,1.45489 -0.62564,0.41104 -1.43665,0.4679 -2.12672,0.73147 -0.41727,-0.71419 -0.8549,-1.3882 -0.79176,-2.24731 z"
     id="path44"
     style="stroke-width:0.205718" />
  <path
     fill="#3f1808"
     d="m 90.916068,118.68236 13.753432,-8.40161 2.50878,-1.54331 c 0.25734,-0.15844 0.74756,-0.55825 1.02448,-0.63109 0.0851,-0.0224 0.17452,0.0227 0.26166,0.0343 l 0.55153,0.90819 0.0156,0.39922 c 0.35771,0.30157 0.7168,0.58493 1.00911,0.95305 0.64403,0.9319 1.37946,1.89252 1.74382,2.97433 l 0.0561,0.67138 0.2645,0.15361 c 0.71293,0.59791 2.54204,3.32734 2.6244,4.23249 0.0578,0.26707 0.14398,0.54353 0.11693,0.81815 l 0.0689,0.43657 -1.97288,1.88977 -8.47925,7.69947 -2.85313,2.61073 c -0.48263,0.44098 -0.88557,0.97553 -1.53358,1.09855 -0.252374,-0.11015 -0.423879,-0.26349 -0.635236,-0.43587 -0.579371,-0.36153 -1.123334,-1.4574 -1.512513,-2.03902 -0.435231,-0.75698 -0.741981,-1.3572 -0.846586,-2.23089 l -0.67749,-0.45053 -1.407782,-2.14217 -0.512468,-1.53431 c -0.30535,-0.13996 -0.60132,-0.42142 -0.870007,-0.626 -0.74534,-1.18778 -1.346755,-2.22389 -1.788803,-3.56494 l -0.17299,-0.14594 z"
     id="path45"
     style="stroke-width:0.205718" />
  <path
     fill="#4b230e"
     d="m 96.503526,120.96617 0.12555,0.13421 c -0.148638,0.33766 -0.656608,0.75535 -0.976861,0.94143 0.45622,-0.26855 0.988633,-0.52924 1.366607,-0.90162 0.568344,-0.56024 1.224141,-0.93066 1.829116,-1.41567 0.216882,-0.17371 0.187125,-0.42297 0.219025,-0.67667 0.379605,-0.20141 0.659747,-0.5571 1.021717,-0.80152 0.16941,-0.11453 0.42599,-0.53946 0.57968,-0.72105 0.099,-0.11679 0.36168,-0.16488 0.46079,-0.28197 0.32908,-0.38803 0.57171,-0.7116 1.02355,-0.98809 0.0896,-0.29936 0.30207,-0.40696 0.54574,-0.57393 l 0.19551,0.0909 c -0.93555,1.27262 -2.86335,2.39222 -3.420536,3.85199 -0.886587,0.6491 -2.076314,1.40583 -2.529044,2.42303 l -2.459902,2.10601 c -0.305338,-0.13996 -0.601309,-0.42141 -0.869998,-0.626 -0.01306,-0.23998 -0.172611,-0.56509 -0.255223,-0.79744 l 0.413065,0.0834 c 0.786484,0.0631 2.096353,-1.30884 2.731216,-1.84708 z"
     id="path46"
     style="stroke-width:0.205718" />
  <path
     fill="#94552d"
     d="m 91.825672,119.96231 c 1.046297,0.56492 3.091569,0.31716 4.251449,0.16672 0.45762,-0.0593 1.100485,-0.24122 1.545646,-0.15498 l -1.119241,0.99214 c -0.634852,0.53826 -1.94473,1.91016 -2.731218,1.84708 l -0.413063,-0.0834 c 0.08262,0.23235 0.24223,0.55746 0.255223,0.79744 -0.74534,-1.18777 -1.346753,-2.22389 -1.788803,-3.56494 z"
     id="path47"
     style="stroke-width:0.205718" />
  <path
     fill="#5c290f"
     d="m 109.03166,109.44795 c 0.3577,0.30157 0.7168,0.58493 1.0091,0.95305 -0.64928,2.12196 -1.78645,3.54593 -2.98956,5.36742 -0.24846,0.37633 -0.38307,0.85712 -0.71984,1.15967 -0.44028,-0.0444 -1.2389,0.41467 -1.6729,0.58787 l -5.185044,2.10825 c 0.557184,-1.45977 2.484994,-2.57937 3.420544,-3.85198 l 3.9895,-3.93195 c 0.73171,-0.74849 1.58787,-1.50802 2.1482,-2.39233 z"
     id="path48"
     style="stroke-width:0.205718" />
  <path
     fill="#5c290f"
     d="m 91.652684,119.81638 15.883836,-9.64769 c -2.31682,2.69811 -4.98204,5.01683 -7.50613,7.51063 -0.490847,0.48508 -1.810281,2.12357 -2.407625,2.29471 -0.445159,-0.0862 -1.088029,0.0956 -1.545644,0.155 -1.15988,0.15045 -3.205152,0.39821 -4.251449,-0.16672 z"
     id="path49"
     style="stroke-width:0.205718" />
  <path
     fill="#4b230e"
     d="m 110.04076,110.401 c 0.64404,0.9319 1.37946,1.89252 1.74382,2.97433 l 0.0561,0.67138 c -0.21444,0.81737 -2.68411,2.98942 -3.41299,3.56832 l -4.63022,4.47836 c -0.72614,0.90933 -1.68294,1.67545 -2.5102,2.4964 -1.22808,1.21864 -2.433397,2.62859 -3.822549,3.66048 l -0.382476,0.03 -0.677491,-0.45054 -1.407782,-2.14217 -0.512467,-1.53431 2.459902,-2.10601 c 0.452721,-1.01721 1.642458,-1.77392 2.529038,-2.42304 l 5.185045,-2.10825 c 0.434,-0.1732 1.23262,-0.63223 1.6729,-0.58787 0.33678,-0.30254 0.47138,-0.78334 0.71984,-1.15966 1.2031,-1.8215 2.34028,-3.24546 2.98956,-5.36742 z"
     id="path50"
     style="stroke-width:0.205718" />
  <path
     fill="#3f1808"
     d="m 103.79743,122.09339 c -0.0219,-0.078 -0.0902,-0.15677 -0.0655,-0.2339 0.14885,-0.46345 1.25619,-1.39068 1.61974,-1.74483 l 3.26802,-3.32597 c 0.93973,-0.93945 2.12239,-1.87562 2.63645,-3.11895 l 0.0677,-0.1673 0.46077,-0.12711 0.0561,0.67138 c -0.21445,0.81737 -2.68411,2.98942 -3.413,3.56832 z"
     id="path51"
     style="stroke-width:0.205718" />
  <path
     fill="#94552d"
     d="m 99.473416,119.62421 5.185044,-2.10825 c 0.434,-0.1732 1.23262,-0.63224 1.6729,-0.58787 l -3.85339,4.38889 -4.700504,4.8337 c -0.242422,0.23878 -1.268364,1.02985 -1.357674,1.27527 -0.04605,0.12656 -0.01011,0.26911 -0.01517,0.40379 l -1.407784,-2.14217 -0.512465,-1.53431 2.459902,-2.10602 c 0.452723,-1.0172 1.64246,-1.77392 2.529043,-2.42303 z"
     id="path52"
     style="stroke-width:0.205718" />
  <path
     fill="#b66b3d"
     d="m 94.48447,124.15326 2.459902,-2.10602 3.313318,-1.67029 c 0.39164,-0.17623 0.88847,-0.46866 1.31662,-0.48393 -1.34052,2.05294 -4.225109,5.13054 -6.577372,5.79455 z"
     id="path53"
     style="stroke-width:0.205718" />
  <path
     fill="#94552d"
     d="m 111.84064,114.04671 0.2645,0.15361 c 0.71293,0.59792 2.54204,3.32735 2.6244,4.23249 0.0578,0.26707 0.14398,0.54354 0.11693,0.81815 l 0.0689,0.43658 -1.97288,1.88977 -8.47925,7.69946 -2.85313,2.61073 c -0.48263,0.44099 -0.88557,0.97553 -1.53358,1.09855 -0.252382,-0.11014 -0.423885,-0.26349 -0.635244,-0.43587 -0.579372,-0.36153 -1.123334,-1.4574 -1.512512,-2.03902 -0.435232,-0.75698 -0.741982,-1.3572 -0.846587,-2.23089 l 0.382476,-0.03 c 1.389154,-1.03188 2.594467,-2.44184 3.822557,-3.66048 0.82725,-0.82095 1.78405,-1.58707 2.51019,-2.49639 l 4.63022,-4.47837 c 0.72888,-0.5789 3.19855,-2.75095 3.41299,-3.56832 z"
     id="path54"
     style="stroke-width:0.205718" />
  <path
     fill="#5c290f"
     d="m 112.10515,114.20031 c 0.71292,0.59792 2.54204,3.32735 2.62439,4.2325 l -0.41584,-0.18376 -1.75517,1.96613 c -0.76323,-2.30553 -0.96598,-3.57571 -0.4534,-6.01486 z"
     id="path55"
     style="stroke-width:0.205718" />
  <path
     fill="#4b230e"
     d="m 112.55854,120.21517 1.75517,-1.96613 0.41584,0.18376 c 0.0578,0.26707 0.14399,0.54353 0.11694,0.81815 l 0.0689,0.43657 -1.97289,1.88977 -8.47925,7.69947 -2.85312,2.61073 c -0.48263,0.44098 -0.88558,0.97553 -1.53359,1.09855 -0.252369,-0.11015 -0.423874,-0.26349 -0.635231,-0.43587 0.281109,-0.85189 7.904291,-7.30809 9.080311,-8.39503 z"
     id="path56"
     style="stroke-width:0.205718" />
  <path
     fill="#b66b3d"
     d="m 108.42764,117.61503 c 0.1965,-0.0742 0.38623,-0.12201 0.59688,-0.13998 0.61648,-0.0524 1.27883,0.0534 1.81033,0.37137 -0.10512,0.61926 -1.14389,1.53636 -1.57036,2.00329 -2.43062,2.65993 -5.04169,5.17633 -7.72997,7.57403 l -3.60573,3.08742 c -0.435231,-0.75698 -0.741981,-1.3572 -0.846586,-2.23089 l 0.382477,-0.03 c 1.389153,-1.03188 2.594469,-2.44184 3.822549,-3.66048 0.82726,-0.82095 1.78406,-1.58707 2.5102,-2.49639 z"
     id="path57"
     style="stroke-width:0.205718" />
  <path
     fill="#6e4529"
     d="m 188.04471,273.17488 c -0.081,-0.22778 -0.1064,-0.28461 -0.0686,-0.51998 l 0.81639,-0.32595 c 1.05051,0.3653 2.50739,0.43612 3.44646,0.92748 l 0.0997,0.0356 4.34551,-2.6013 0.42235,-0.32586 1.25608,-0.98568 1.48253,-1.49808 c 0.84532,-0.79221 1.71742,-1.36685 2.37382,-2.3594 l -0.36572,-0.91458 c 3.30474,4.70423 6.16806,9.62787 10.52665,13.48219 -0.0934,0.0472 -0.41586,0.1679 -0.46824,0.23589 -0.20958,0.26802 -0.3749,0.98909 -0.49084,1.32777 -0.45926,1.32773 -1.16509,3.53226 -2.27228,4.41721 l -0.31064,0.42642 c -0.63151,0.65173 -1.32892,1.79719 -2.18368,2.13451 -0.56649,0.22119 -1.06112,0.60117 -1.61265,0.86135 -1.56328,0.73236 -3.20201,1.25273 -4.92587,1.41522 -0.98883,0.0937 -1.97769,0.0839 -2.96872,0.0272 -0.69487,-0.0402 -1.45681,-0.26621 -2.09531,0.0691 -1.57822,-5.73656 -4.03625,-10.69117 -7.10919,-15.7615 z"
     id="path58"
     style="stroke-width:0.205718" />
  <path
     fill="#3f1808"
     d="m 188.04471,273.17488 c -0.081,-0.22778 -0.1064,-0.28461 -0.0686,-0.51998 l 0.81639,-0.32595 c 1.05051,0.3653 2.50739,0.43612 3.44646,0.92748 -1.08903,0.45425 -2.20271,0.9427 -3.37755,1.10931 z"
     id="path59"
     style="stroke-width:0.205718" />
  <path
     fill="#5c290f"
     d="m 193.41393,276.40113 c 1.13892,1.86438 2.26471,3.70545 3.78945,5.28547 1.47203,1.5255 4.18858,3.43263 6.37772,3.60522 0.91264,0.071 1.8432,-0.0908 2.76157,-0.0716 l -0.095,0.13061 -0.22769,0.0933 c -2.11526,0.73481 -3.9565,0.34208 -5.91592,-0.63432 -3.41812,-1.70452 -5.49921,-4.88318 -6.69018,-8.40877 z"
     id="path60"
     style="stroke-width:0.205718" />
  <path
     fill="#6e4529"
     d="m 201.8532,264.60707 c 3.30474,4.70423 6.16806,9.62787 10.52665,13.48219 -0.0934,0.0472 -0.41586,0.16789 -0.46824,0.23589 -0.20958,0.26804 -0.3749,0.98909 -0.49085,1.32776 -0.45926,1.32774 -1.16509,3.53229 -2.27227,4.41721 l -0.31065,0.42643 c -1.39626,-1.23419 -2.51339,-2.7236 -3.99664,-3.91905 -2.71192,-2.1849 -5.57796,-3.81722 -8.67096,-5.38062 -1.21782,-0.61503 -2.49722,-1.11039 -3.67237,-1.80943 l -0.15921,-0.0954 4.34551,-2.6013 0.42235,-0.32586 1.25608,-0.9857 1.48253,-1.49806 c 0.84532,-0.79221 1.71742,-1.36685 2.37382,-2.35942 z"
     id="path61"
     style="stroke-width:0.205718" />
  <path
     fill="#5c290f"
     d="m 197.10649,270.3648 1.25607,-0.98569 c 1.22544,0.8226 2.41146,1.39196 3.41324,2.52028 l 0.14181,0.15441 c 0.4959,0.54791 0.79981,1.21088 1.12667,1.86705 -1.54191,-1.77213 -3.18638,-3.37056 -5.67667,-3.54461 z"
     id="path62"
     style="stroke-width:0.205718" />
  <path
     fill="#5c290f"
     d="m 192.33862,273.29194 4.34551,-2.60127 -0.10368,0.0996 c -0.81775,0.75844 -1.89858,1.30648 -2.85218,1.88037 4.55917,2.31588 9.62483,4.75594 12.93798,8.80625 0.49427,0.60437 1.55114,2.60819 2.24265,2.52751 l 0.23956,0.0655 -0.31064,0.42643 c -1.39627,-1.23418 -2.51339,-2.72362 -3.99665,-3.91905 -2.71191,-2.1849 -5.57795,-3.81724 -8.67096,-5.38064 -1.21781,-0.61503 -2.49721,-1.11039 -3.67236,-1.8094 z"
     id="path63"
     style="stroke-width:0.205718" />
  <path
     fill="#4b230e"
     d="m 201.8532,264.60707 c 3.30474,4.70423 6.16806,9.62787 10.52665,13.48219 -0.0934,0.0472 -0.41586,0.16789 -0.46824,0.23589 -0.20958,0.26804 -0.3749,0.98909 -0.49085,1.32776 -0.45926,1.32774 -1.16509,3.53229 -2.27227,4.41721 l -0.23956,-0.0655 c 0.16441,-0.54678 0.58708,-1.47832 0.44168,-2.00915 -0.20901,-0.76447 -0.47999,-1.39454 -0.88952,-2.07245 -1.70038,-2.81593 -3.83723,-5.34308 -5.75048,-8.00703 -0.87269,-1.21453 -1.73935,-3.09353 -2.86546,-4.03482 0.84532,-0.79222 1.71742,-1.36686 2.37382,-2.35941 z"
     id="path64"
     style="stroke-width:0.205718" />
  <path
     fill="#3f1808"
     d="m 209.14849,284.07012 c 1.10717,-0.88494 1.81301,-3.08947 2.27227,-4.41721 0.11595,-0.33867 0.28132,-1.05966 0.49085,-1.32776 0.0524,-0.068 0.37499,-0.18854 0.46824,-0.23589 l 0.21438,0.0449 c 0.0618,0.10933 0.27246,0.39521 0.2852,0.50319 0.0649,0.52944 -0.34269,1.7701 -0.49182,2.30994 -0.89327,3.22368 -2.67603,6.42486 -5.66211,8.12426 -3.09257,1.76224 -7.26021,1.68598 -10.58503,0.68891 -0.40894,-0.12366 -0.80991,-0.22553 -1.07408,-0.57998 l -0.0148,-0.17674 c 0.63854,-0.33517 1.40043,-0.10933 2.09531,-0.0691 0.99103,0.0569 1.97988,0.0668 2.96872,-0.0272 1.72386,-0.16241 3.36256,-0.6829 4.92586,-1.4152 0.55143,-0.26039 1.04617,-0.64018 1.61265,-0.86135 0.85476,-0.33732 1.55217,-1.4828 2.18368,-2.13453 z"
     id="path66"
     style="stroke-width:0.205718" />
  <path
     fill="#c5c6c7"
     d="m 30.469057,121.23245 c 2.054698,0.66391 4.085287,1.05509 6.219882,1.36478 1.852995,0.3402 3.786778,0.33552 5.664475,0.42521 0.582639,0.0279 1.459818,0.22698 1.955915,-0.0276 l 0.79909,1.82102 0.390898,1.08221 c 2.352818,4.95411 5.155982,9.70692 8.597311,13.99231 3.820093,4.75736 8.245023,8.78236 12.933404,12.65773 l -4.296073,7.00812 c -0.937943,1.41927 -1.975277,2.85425 -2.722115,4.38521 -0.764243,-0.38539 -1.489498,-1.03774 -2.14788,-1.58317 l -3.873035,-3.4723 c -7.643575,-7.15466 -14.17699,-15.76837 -18.776817,-25.18639 -1.657683,-3.39362 -2.961623,-6.8508 -4.181455,-10.41805 -0.113318,-0.68337 -0.36959,-1.38201 -0.563595,-2.04905 z"
     id="path67"
     style="stroke-width:0.205718" />
  <path
     fill="#77787a"
     d="m 30.469057,121.23245 c 2.054698,0.66391 4.085287,1.05509 6.219882,1.36478 1.852995,0.3402 3.786778,0.33552 5.664475,0.42521 0.582639,0.0279 1.459818,0.22698 1.955915,-0.0276 l 0.79909,1.82102 c -1.160243,-0.2557 -2.564946,-0.0852 -3.757396,-0.10147 -3.324639,-0.0457 -7.189361,-0.20791 -10.318371,-1.43286 -0.113319,-0.68337 -0.36959,-1.38201 -0.563595,-2.04904 z"
     id="path68"
     style="stroke-width:0.205718" />
  <path
     fill="#a8aaac"
     d="m 62.733955,159.5562 c -0.44656,-0.19415 -0.939727,-0.72853 -1.312929,-1.05149 l -3.099527,-2.85381 c -8.667255,-8.43187 -15.394795,-17.68167 -20.40936,-28.71551 2.452796,-0.5005 5.083508,-0.99796 7.587178,-1.03735 2.352818,4.9541 5.155982,9.70692 8.597311,13.9923 3.820093,4.75736 8.245023,8.78237 12.933404,12.65774 z"
     id="path69"
     style="stroke-width:0.205718" />
  <path
     fill="#a8aaac"
     d="m 67.030025,152.54808 0.246846,0.17913 0.545715,0.45905 4.930312,3.4671 c 4.223319,2.74015 8.573359,5.05835 13.21747,7.00776 1.608379,0.67511 3.333667,1.47427 5.037799,1.866 l 3.053503,0.94508 3.650076,0.92009 c 0.63197,0.13809 1.290175,0.34743 1.93996,0.25057 1.598664,4.07006 3.770304,7.08889 6.420564,10.50509 0.15904,0.0541 3.67463,4.02106 4.33882,4.64181 -5.6344,-0.31024 -10.96425,-1.01353 -16.462497,-2.24228 -11.946859,-3.04301 -23.540295,-8.06914 -33.08322,-16.02522 l -0.853483,-0.58089 c 0.746838,-1.53096 1.784172,-2.96594 2.722117,-4.38521 z"
     id="path70"
     style="stroke-width:0.205718" />
  <path
     fill="#77787a"
     d="m 91.008159,165.52713 3.053505,0.94508 3.650075,0.92009 c 0.63197,0.13808 1.290173,0.34743 1.939959,0.25056 1.598662,4.07006 3.770312,7.08889 6.420562,10.50509 -0.4973,0.18565 -1.41693,-0.0993 -1.97957,-0.17737 -3.33013,-0.46107 -6.727009,-1.06749 -9.922557,-2.13789 z"
     id="path71"
     style="stroke-width:0.205718" />
  <path
     fill="#c5c6c7"
     d="m 67.030025,152.54808 0.246846,0.17913 0.545715,0.45905 -1.790757,8.1818 c 6.578611,5.15218 14.011316,9.11778 21.716586,12.29989 l 3.959989,1.42577 c 0.791961,0.25411 1.669639,0.44178 2.419686,0.79727 l -0.179541,4.65652 C 82.001684,177.5045 70.408245,172.47837 60.86532,164.52229 l -0.853481,-0.58089 c 0.746837,-1.53096 1.784171,-2.96594 2.722116,-4.3852 z"
     id="path72"
     style="stroke-width:0.205718" />
  <path
     fill="#77787a"
     d="m 67.030025,152.54808 0.246846,0.17913 c -1.809584,4.26841 -3.469853,8.1447 -6.411545,11.79507 l -0.85348,-0.58088 c 0.746836,-1.53096 1.784172,-2.96594 2.722115,-4.38521 z"
     id="path73"
     style="stroke-width:0.205718" />
  <defs
     id="defs74">
    <linearGradient
       id="gradient_0"
       gradientUnits="userSpaceOnUse"
       x1="529.71039"
       y1="1148.418"
       x2="679.95923"
       y2="1009.4732"
       gradientTransform="matrix(0.17547265,-0.10737428,0.10737428,0.17547265,-48.503843,98.013793)">
      <stop
         offset="0"
         stop-color="#431A0C"
         id="stop73" />
      <stop
         offset="1"
         stop-color="#553D21"
         id="stop74" />
    </linearGradient>
  </defs>
  <path
     fill="url(#gradient_0)"
     d="m 158.34569,195.33721 0.49451,0.81743 30.64366,48.32954 c 0.52444,-0.0628 1.49272,-0.28877 1.95349,-0.0666 l -1.30358,1.14257 -0.0889,0.0767 -2.79053,2.86281 c -0.43554,0.25662 -0.78799,0.45748 -1.14621,0.81719 l -1.90278,1.67564 -0.16693,-0.10533 c -1.73988,1.2336 -3.41673,2.32462 -5.31613,3.31329 l -8.67045,-17.26373 -0.0577,-0.0781 c -0.24121,-0.40227 -0.47628,-0.74079 -0.5326,-1.21763 l -0.40153,-0.18601 c -0.004,-0.67268 -0.84405,-1.85427 -1.17281,-2.45382 l -4.20822,-7.30832 -0.0573,-0.17487 -0.45246,-1.10991 -0.53676,-0.31791 -3.52674,-2.06252 c -0.81278,-0.49389 -1.59206,-1.09027 -2.49278,-1.41215 l -7.41233,-12.38331 c 1.93324,0.84773 4.15903,1.87362 5.88642,3.06365 l 0.0983,-0.0601 c -0.1994,-0.36179 -0.31246,-0.62494 -0.36756,-1.0362 l 3.42991,1.78172 c 0.63359,0.31967 1.30059,0.72429 1.99412,0.87391 0.59902,0.45827 1.4204,0.8046 2.1167,1.09 -0.2473,-0.74586 -1.559,-3.02858 -2.21706,-3.38705 -0.20109,-1.796 -0.44151,-3.87301 -0.27784,-5.66333 l -0.1862,-0.45838 -0.96185,-0.97907 -0.12845,-0.59067 c -0.0133,-1.05188 -0.0385,-2.08989 -0.14367,-3.13758 -0.13105,-1.30513 -0.56419,-3.16581 -0.0975,-4.39151 z"
     id="path74"
     style="fill:url(#gradient_0);stroke-width:0.205718" />
  <path
     fill="#3f1808"
     d="m 167.27956,216.64683 c 1.64849,0.92549 3.6644,1.92765 5.05474,3.21127 l -4.47025,-2.13392 -0.58752,-0.33268 z"
     id="path75"
     style="stroke-width:0.205718" />
  <path
     fill="#3f1808"
     d="m 158.34569,195.33721 0.49451,0.81743 0.83701,8.28136 -0.96184,-0.97908 -0.12846,-0.59067 c -0.0133,-1.05188 -0.0385,-2.08989 -0.14367,-3.13758 -0.13104,-1.30513 -0.56419,-3.16581 -0.0975,-4.39151 z"
     id="path76"
     style="stroke-width:0.205718" />
  <path
     fill="#6e4529"
     d="m 189.48378,244.48422 c 0.52444,-0.0628 1.49272,-0.28877 1.95349,-0.0666 l -1.30358,1.14255 -0.0889,0.0767 -2.79053,2.86279 c -0.43554,0.25664 -0.78799,0.45748 -1.14621,0.81721 l -1.90279,1.67562 -0.16692,-0.10533 -0.0183,-0.0683 0.99103,-0.91513 1.62512,-1.73485 c 0.99883,-1.15385 2.14908,-2.32075 2.84794,-3.68417 z"
     id="path77"
     style="stroke-width:0.205718" />
  <path
     fill="#5c290f"
     d="m 180.08492,242.07651 c 1.10982,0.52919 4.01555,1.65491 4.55053,2.74082 0.39962,0.93725 1.19447,2.73479 2.00039,3.35106 l -1.62512,1.73485 z"
     id="path78"
     style="stroke-width:0.205718" />
  <path
     fill="#7e5739"
     d="m 159.86332,204.89442 4.61908,7.59862 c 0.71816,1.16919 1.74005,2.48296 2.24023,3.74694 l -4.36442,-2.29518 c -0.24729,-0.74585 -1.55899,-3.02857 -2.21706,-3.38705 -0.20109,-1.79599 -0.4415,-3.87301 -0.27784,-5.66332 z"
     id="path79"
     style="stroke-width:0.205718" />
  <path
     fill="#6e4529"
     d="m 172.58535,229.73744 3.933,2.32524 c 0.64834,0.3678 1.23263,0.89777 1.81461,1.36407 l -0.04,0.29456 -0.63275,0.004 c 0.87971,1.46346 5.3511,8.29002 5.336,9.12889 l -3.66976,-2.0787 -0.35097,-0.27482 c -0.3091,-0.95406 -1.10901,-1.99605 -1.63752,-2.86405 l -3.82221,-6.22533 -0.401,-0.36719 c -0.25822,-0.4353 -0.47946,-0.78709 -0.5295,-1.30636 z"
     id="path80"
     style="stroke-width:0.205718" />
  <path
     fill="#3f1808"
     d="m 172.58535,229.73744 3.933,2.32524 c 0.64834,0.3678 1.23263,0.89777 1.81461,1.36407 l -0.04,0.29456 -0.63275,0.004 c -1.10362,-0.89232 -2.87556,-1.61204 -4.14442,-2.31403 l -0.401,-0.3672 c -0.25822,-0.43529 -0.47946,-0.78709 -0.5295,-1.30636 z"
     id="path81"
     style="stroke-width:0.205718" />
  <path
     fill="#6e4529"
     d="m 163.68284,215.60148 3.59369,1.79002 0.58752,0.33268 5.59142,9.20894 c 1.01381,1.64912 2.27894,3.37113 3.06288,5.12956 l -3.93301,-2.32524 -0.57106,-0.36686 c -0.44011,-1.2935 -1.60853,-2.75876 -2.3285,-3.93891 z"
     id="path82"
     style="stroke-width:0.205718" />
  <path
     fill="#7e5739"
     d="m 163.16896,224.40775 8.84533,4.96283 0.57106,0.36686 c 0.05,0.51927 0.27132,0.87102 0.5295,1.30636 l 0.401,0.36719 3.82221,6.22533 c 0.52845,0.86803 1.32841,1.90999 1.63752,2.86405 l -9.51426,-4.85982 -0.40154,-0.18601 c -0.004,-0.67268 -0.84404,-1.85429 -1.1728,-2.45382 l -4.20823,-7.30834 -0.0573,-0.17486 z"
     id="path83"
     style="stroke-width:0.205718" />
  <path
     fill="#5c290f"
     d="m 163.16896,224.40775 8.84533,4.96283 0.57106,0.36686 c 0.05,0.51927 0.27132,0.87102 0.5295,1.30636 l -9.43615,-5.35136 -0.0573,-0.17485 z"
     id="path84"
     style="stroke-width:0.205718" />
  <path
     fill="#7e5739"
     d="m 169.46127,235.64057 9.51425,4.85982 0.35097,0.27482 0.54837,1.08258 0.21006,0.21872 4.92579,7.82675 -0.99102,0.91513 0.0183,0.0682 c -1.73988,1.23358 -3.41673,2.32463 -5.31613,3.31328 l -8.67045,-17.26373 -0.0577,-0.0782 c -0.24121,-0.40226 -0.47627,-0.74079 -0.5326,-1.21763 z"
     id="path85"
     style="stroke-width:0.205718" />
  <path
     fill="#5c290f"
     d="m 169.46127,235.64057 9.51425,4.85982 0.35097,0.27482 0.54837,1.08258 -9.82333,-4.92152 -0.0577,-0.0781 c -0.24121,-0.40227 -0.47627,-0.74081 -0.53259,-1.21763 z"
     id="path86"
     style="stroke-width:0.205718" />
  <path
     fill="#94552d"
     d="m 149.20037,208.23186 c 1.93323,0.84773 4.15903,1.87362 5.88642,3.06364 l 0.0983,-0.0601 c -0.19941,-0.36178 -0.31247,-0.62493 -0.36756,-1.03619 l 3.42991,1.78171 c 0.63359,0.31967 1.30058,0.72429 1.99411,0.87391 0.59902,0.45828 1.4204,0.80461 2.1167,1.09 l 4.36442,2.29518 0.55693,0.40684 -0.003,0.74468 -3.59369,-1.79002 6.0029,9.83021 c 0.71998,1.18014 1.8884,2.6454 2.32851,3.93891 l -8.84533,-4.96283 -0.53676,-0.31791 -3.52673,-2.06252 c -0.81279,-0.49388 -1.59206,-1.09027 -2.49278,-1.41215 z"
     id="path87"
     style="stroke-width:0.205718" />
  <path
     fill="#5c290f"
     d="m 155.18505,211.23538 c -0.1994,-0.36179 -0.31247,-0.62494 -0.36756,-1.0362 l 3.42991,1.78172 c 0.63359,0.31967 1.30059,0.72429 1.99412,0.8739 0.59902,0.45828 1.42039,0.80461 2.11669,1.09 l 4.36442,2.29518 0.55693,0.40685 -0.003,0.74467 -3.59369,-1.79002 -6.19242,-3.13567 c -0.77634,-0.40384 -1.58789,-0.72387 -2.30546,-1.23043 z"
     id="path88"
     style="stroke-width:0.205718" />
  <path
     fill="#857165"
     d="m 149.20037,208.23186 c 1.93323,0.84773 4.15903,1.87362 5.88642,3.06364 l 5.55935,9.1837 c 0.64652,1.09005 1.68166,2.40292 1.98607,3.61064 l -3.52673,-2.06252 c -0.81279,-0.49389 -1.59207,-1.09028 -2.49279,-1.41216 z"
     id="path89"
     style="stroke-width:0.205718" />
  <path
     fill="#857165"
     d="m 108.73845,142.08081 3.50445,-1.35795 c 2.12652,-0.93635 4.04728,-2.31379 5.80424,-3.81941 l 0.37123,0.0565 4.42795,7.2378 0.0571,0.2699 0.88765,1.29098 0.0307,0.35047 6.49096,10.36289 0.11376,0.32303 0.5908,0.58003 0.17894,0.82844 c 1.08098,1.42013 1.96281,3.05159 2.89487,4.57515 l 4.84983,7.93373 4.60112,7.48733 c 0.82886,1.33516 1.78581,2.67876 2.50483,4.07003 0.38761,-2.06048 -0.43184,-4.13312 -0.005,-6.2296 l 0.22311,-0.0461 0.34451,0.48691 0.10029,-0.10095 11.63638,18.95723 c -0.46671,1.22569 -0.0336,3.08638 0.0975,4.39151 0.1052,1.04769 0.13044,2.0857 0.14367,3.13758 l 0.12846,0.59066 0.96184,0.97908 0.1862,0.45838 c -0.16366,1.79031 0.0767,3.86733 0.27784,5.66332 0.65806,0.35848 1.96975,2.6412 2.21706,3.38705 -0.6963,-0.28539 -1.51768,-0.63172 -2.1167,-1.08999 -0.69353,-0.14963 -1.36053,-0.55424 -1.99411,-0.87391 l -3.42992,-1.78172 c 0.0551,0.41126 0.16815,0.67442 0.36756,1.0362 l -0.0983,0.0601 c -1.72739,-1.19003 -3.95318,-2.21592 -5.88642,-3.06365 l -0.8432,-1.40501 z"
     id="path92"
     style="stroke-width:0.205718" />
  <path
     fill="#6e4529"
     d="m 122.69264,157.89025 c 0.23611,0.34367 0.51434,0.90201 0.91777,1.04223 l -0.0122,0.50531 c -0.10674,1.87823 0.024,4.0822 -0.36312,5.90625 -0.13411,-0.20301 -0.40481,-0.51731 -0.48653,-0.73597 -0.16014,-0.42802 -0.0385,-1.43411 -0.0373,-1.9032 z"
     id="path93"
     style="stroke-width:0.205718" />
  <path
     fill="#6e4529"
     d="m 148.35724,206.82681 c 0.87447,0.20844 1.65655,0.84291 2.43334,1.28308 l 3.56852,1.83365 0.45839,0.25564 c 0.0551,0.41126 0.16814,0.67442 0.36756,1.0362 l -0.0983,0.0601 c -1.72739,-1.19002 -3.95318,-2.21591 -5.88642,-3.06364 z"
     id="path94"
     style="stroke-width:0.205718" />
  <path
     fill="#6e4529"
     d="m 131.13717,171.66324 c 0.29242,0.43727 0.57019,0.91365 0.92448,1.30269 l 0.0343,0.61692 c 0.0697,1.0173 0.70355,6.1454 0.32971,6.80949 -0.36216,-0.51735 -0.66041,-0.91608 -0.67712,-1.57006 z"
     id="path95"
     style="stroke-width:0.205718" />
  <path
     fill="#7e5739"
     d="m 118.04714,136.90345 0.37123,0.0565 4.42795,7.2378 0.0571,0.2699 0.88765,1.29098 0.0307,0.35047 -0.21136,12.82341 c -0.40343,-0.14021 -0.68166,-0.69856 -0.91776,-1.04223 l -0.0241,-0.15213 -10.42569,-17.01522 c 2.12652,-0.93635 4.04729,-2.31379 5.80425,-3.81941 z"
     id="path96"
     style="stroke-width:0.205718" />
  <path
     fill="#5c290f"
     d="m 122.66853,157.73811 0.2349,-13.2705 0.88765,1.29099 0.0307,0.35046 -0.21135,12.82342 c -0.40344,-0.14021 -0.68167,-0.69856 -0.91777,-1.04223 z"
     id="path97"
     style="stroke-width:0.205718" />
  <path
     fill="#94552d"
     d="m 146.04689,182.26969 c 0.38761,-2.06048 -0.43184,-4.13312 -0.005,-6.22961 l 0.22311,-0.0461 0.3445,0.48692 0.1003,-0.10095 11.63638,18.95723 c -0.46672,1.22569 -0.0336,3.08638 0.0975,4.3915 0.1052,1.04769 0.13044,2.08571 0.14367,3.13759 l 0.12845,0.59066 0.96185,0.97908 0.1862,0.45838 c -0.16366,1.79031 0.0767,3.86733 0.27784,5.66332 0.65805,0.35848 1.96975,2.6412 2.21706,3.38705 -0.6963,-0.28539 -1.51768,-0.63172 -2.1167,-1.09 -0.69353,-0.14963 -1.36053,-0.55424 -1.99412,-0.8739 l -3.42991,-1.78172 -0.45838,-0.25565 c -0.85136,-1.80277 -6.14085,-9.48484 -6.16945,-10.48342 l -0.0706,-0.12102 c -0.68645,-0.48725 -1.33456,-1.91927 -1.80538,-2.67763 l -4.90081,-7.9597 c -0.34975,-0.36384 -0.90316,-0.58088 -1.35062,-0.81788 l -3.26046,-1.65653 c -0.73199,-0.38077 -0.95021,-0.27232 -1.43757,-1.03093 l 0.0685,-0.13237 5.11574,2.38554 c 1.92254,1.17866 4.25681,2.02868 6.2941,3.03463 0.24753,-0.57136 0.0109,-1.53577 -0.058,-2.16117 l -0.66934,-5.85932 z"
     id="path98"
     style="stroke-width:0.205718" />
  <path
     fill="#5c290f"
     d="m 158.71529,203.45697 0.96184,0.97908 0.1862,0.45837 c -0.16366,1.79032 0.0767,3.86734 0.27784,5.66333 0.0183,0.69474 0.0994,1.46074 -0.0637,2.13696 -0.33106,-0.90442 -0.4244,-1.92247 -0.5713,-2.87277 z"
     id="path99"
     style="stroke-width:0.205718" />
  <defs
     id="defs100">
    <linearGradient
       id="gradient_1"
       gradientUnits="userSpaceOnUse"
       x1="585.16687"
       y1="910.49738"
       x2="553.47638"
       y2="822.70599"
       gradientTransform="matrix(0.17547265,-0.10737428,0.10737428,0.17547265,-48.503843,98.013793)">
      <stop
         offset="0"
         stop-color="#521D00"
         id="stop99" />
      <stop
         offset="1"
         stop-color="#754016"
         id="stop100" />
    </linearGradient>
  </defs>
  <path
     fill="url(#gradient_1)"
     d="m 141.41281,188.70177 c -0.34975,-0.36384 -0.90316,-0.58087 -1.35062,-0.81787 l -3.26045,-1.65654 c -0.732,-0.38076 -0.95022,-0.27231 -1.43758,-1.03092 l 0.0685,-0.13238 5.11574,2.38555 c 1.92254,1.17866 4.25681,2.02868 6.2941,3.03462 0.24753,-0.57135 0.011,-1.53576 -0.058,-2.16117 l -0.66934,-5.85932 1.03561,1.66012 0.12959,0.41753 0.55083,6.47401 2.55449,1.37151 c -0.85944,-0.24973 -1.70349,-0.546 -2.49914,-0.96065 l 0.31355,5.71262 c 0.0336,0.75678 0.20031,1.63825 0.0792,2.38354 l -0.0897,-0.0623 -0.0706,-0.12102 c 0.0461,-0.73027 -0.21499,-1.65315 -0.31298,-2.39582 l -0.66211,-5.58857 z"
     id="path100"
     style="fill:url(#gradient_1);stroke-width:0.205718" />
  <path
     fill="#94552d"
     d="m 141.41281,188.70177 5.7311,2.65295 0.66211,5.58857 c 0.098,0.74267 0.35907,1.66555 0.31298,2.39582 -0.68646,-0.48725 -1.33457,-1.91927 -1.80538,-2.67763 z"
     id="path101"
     style="stroke-width:0.205718" />
  <path
     fill="#5c290f"
     d="m 146.04689,182.26969 c 0.38761,-2.06048 -0.43184,-4.13312 -0.005,-6.22961 l 0.22311,-0.0461 0.3445,0.48692 0.1003,-0.10095 11.63638,18.95723 c -0.46672,1.22569 -0.0336,3.08638 0.0975,4.3915 0.1052,1.04769 0.13044,2.08571 0.14367,3.13759 l -11.3064,-18.32492 -0.12959,-0.41753 -1.03561,-1.66012 z"
     id="path102"
     style="stroke-width:0.205718" />
  <path
     fill="#3f1808"
     d="m 146.04689,182.26969 c 0.38761,-2.06048 -0.43184,-4.13312 -0.005,-6.22961 l 0.22311,-0.0461 0.3445,0.48692 0.54186,7.64293 -1.03562,-1.66012 z"
     id="path103"
     style="stroke-width:0.205718" />
  <path
     fill="#7e5739"
     d="m 123.82176,146.10906 6.49096,10.3629 0.11376,0.32303 0.5908,0.58003 0.17893,0.82844 c 1.08099,1.42013 1.96282,3.05159 2.89488,4.57515 l 4.84983,7.93373 4.60112,7.48733 c 0.82886,1.33516 1.78582,2.67876 2.50483,4.07003 l 0.0683,0.19406 0.66934,5.85932 c 0.0689,0.6254 0.30549,1.58981 0.058,2.16117 -2.03729,-1.00595 -4.37157,-1.85596 -6.2941,-3.03463 -0.0912,-0.5546 -0.4902,-1.08921 -0.78185,-1.56385 l -1.71023,-2.77349 -3.75596,-6.15056 c -0.67161,-1.10483 -1.32137,-2.44515 -2.20453,-3.3788 l -0.0343,-0.61692 c -0.3543,-0.38903 -0.63205,-0.86542 -0.92447,-1.3027 l -0.0327,-0.10901 c -2.75761,-3.81599 -4.64035,-8.38341 -7.50636,-12.11642 l 0.0122,-0.50531 z"
     id="path104"
     style="stroke-width:0.205718" />
  <path
     fill="#5c290f"
     d="m 130.42647,156.79499 0.59081,0.58003 0.17893,0.82844 0.86544,14.76246 c -0.3543,-0.38903 -0.63205,-0.86542 -0.92447,-1.30269 l -0.0327,-0.10901 c 0.10528,-1.54405 -0.17985,-3.27873 -0.26432,-4.83448 z"
     id="path105"
     style="stroke-width:0.205718" />
  <path
     fill="#7e5739"
     d="m 123.82176,146.10906 6.49096,10.3629 0.11376,0.32303 0.41366,9.92476 c 0.0845,1.55575 0.3696,3.29044 0.26434,4.83447 -2.75761,-3.81599 -4.64035,-8.38342 -7.50636,-12.11643 l 0.0122,-0.5053 z"
     id="path106"
     style="stroke-width:0.205718" />
  <path
     fill="#a8aaac"
     d="m 78.01006,74.813361 2.539503,-1.510072 c 0.863451,-0.514282 3.119221,-2.18967 4.023544,-2.118871 l 0.07504,0.09155 c 1.016355,1.271556 1.775833,2.829567 2.670199,4.195784 0.638895,-0.390949 1.647744,-1.207975 2.345854,-1.383129 0.345955,-0.08654 1.008194,0.07935 1.352274,0.165933 1.52671,0.384777 2.196301,1.600816 2.964651,2.842282 0.194435,0.31418 0.3621,0.712744 0.694282,0.896564 l 3.918349,-0.667736 -0.0042,0.07544 4.659554,7.556 3.20894,5.268318 5.10127,7.723688 -1.09512,5.837788 c 0.10245,0.9628 0.17912,2.00407 -0.42981,2.83179 -0.24802,0.33724 -1.49624,1.07523 -1.45353,1.40241 0.0435,0.33275 0.31314,0.71039 0.43516,1.02764 l -0.55153,-0.90819 c -0.0872,-0.0116 -0.17651,-0.0567 -0.26167,-0.0343 -0.27696,0.0728 -0.76714,0.47264 -1.02447,0.63109 l -2.50879,1.54331 -13.753425,8.40161 c -0.558239,0.34579 -1.6704,0.99319 -2.315273,1.00192 -0.845458,0.0116 -1.751784,-0.49956 -2.329891,-1.08447 l -0.628144,-0.6363 c -0.53821,-0.94143 -1.16943,-1.81218 -1.563968,-2.83018 l -0.233937,-0.37876 -7.290654,-11.92741 -2.656953,-4.335571 c -0.806496,-1.314835 -1.749383,-3.414205 -2.872743,-4.41721 -0.03021,-0.430106 -0.329159,-0.794883 -0.547636,-1.158259 -0.992873,-1.652029 -2.221539,-3.12046 -1.72391,-5.179285 0.388581,-1.608385 1.957788,-2.266411 3.24853,-3.064195 -0.626325,-0.819006 -1.144827,-1.790092 -1.685175,-2.670393 -0.327228,-0.533183 -0.777752,-1.109818 -0.862501,-1.737836 0.179015,-0.332155 0.644624,-0.535301 0.964784,-0.732173 l 2.750049,-1.704777 1.457553,-0.882266 0.219341,-0.191359 z"
     id="path107"
     style="stroke-width:0.205718"
     sodipodi:nodetypes="cccccccsccccccccccccccccccccccccccccccccc" />
  <path
     fill="#d9d9da"
     d="m 83.710511,104.28435 c -1.652488,-1.51417 -2.691737,-3.29844 -2.985702,-5.537081 -0.286493,-2.182673 0.503559,-4.507741 1.852143,-6.218802 1.177592,-1.494279 3.05799,-2.839553 4.92629,-3.277592 0.909538,-0.213124 1.816291,-0.187231 2.736954,-0.289946 l 1.162196,0.277416 -0.0724,0.05073 c -0.64839,0.417999 -1.649378,0.385116 -2.401213,0.573368 -3.296374,0.824964 -5.883443,3.185098 -6.707535,6.547072 -0.482158,1.967843 -0.191275,4.208125 0.655989,6.044035 0.246547,0.53455 0.855431,1.27066 0.833256,1.83073 z"
     id="path108"
     style="stroke-width:0.205718" />
  <path
     fill="#605d5d"
     d="m 90.240196,88.960929 c 1.599436,-0.43993 3.616027,0.361137 4.991182,1.148564 2.098479,1.201717 3.76629,3.384949 4.382475,5.731984 0.615707,2.344676 0.212354,5.096353 -1.045132,7.163593 -1.142388,1.87816 -3.163049,3.57359 -5.331473,4.07807 -1.830304,0.42564 -4.471132,0.40208 -6.121136,-0.57989 -0.184092,-0.10971 -0.343737,-0.24645 -0.494762,-0.39787 l 0.305292,0.0811 c 2.538648,0.64248 4.907258,0.46554 7.184267,-0.93117 1.947896,-1.19516 3.440241,-3.23529 3.974611,-5.466604 0.55227,-2.306908 0.121527,-4.788395 -1.15005,-6.790346 -1.297291,-2.042406 -3.199669,-3.24763 -5.533078,-3.760049 z"
     id="path109"
     style="stroke-width:0.205718" />
  <defs
     id="defs110">
    <linearGradient
       id="gradient_2"
       gradientUnits="userSpaceOnUse"
       x1="493.89996"
       y1="348.56442"
       x2="623.60132"
       y2="310.72467"
       gradientTransform="matrix(0.17547265,-0.10737428,0.10737428,0.17547265,-48.503843,98.013793)">
      <stop
         offset="0"
         stop-color="#BDC0BE"
         id="stop109" />
      <stop
         offset="1"
         stop-color="#F6FFFF"
         id="stop110" />
    </linearGradient>
  </defs>
  <path
     fill="url(#gradient_2)"
     d="m 70.616011,86.432339 c 1.174951,-0.797826 2.430831,-1.575727 3.498805,-2.510934 1.249698,-1.094641 2.927037,-1.627582 4.358749,-2.447235 l 6.887654,-4.14568 0.09292,0.126435 -9.467522,6.339822 c -1.360858,0.897606 -3.015737,1.692699 -4.253769,2.732698 -0.403702,0.339395 -0.692649,0.89076 -0.808145,1.398448 -0.112933,0.495739 -0.0269,1.026507 0.03187,1.524982 0.878677,0.69498 1.688023,2.71327 2.305726,3.724706 l 8.885202,14.391819 3.035468,4.79348 c 0.442808,0.66649 0.909177,1.50355 1.499168,2.04718 0.600625,0.55352 1.23567,0.76522 2.052061,0.66866 0.673044,-0.0797 1.47108,-0.47233 2.130424,-0.41562 l -0.475143,0.44848 c -0.415825,0.42955 -1.766971,1.08172 -2.334503,1.26018 -0.415398,0.13072 -0.953127,0.0374 -1.326937,-0.17732 -0.63018,-0.36179 -0.971401,-1.04318 -1.345911,-1.63787 l -2.28965,-3.64168 -10.41095,-16.988298 C 71.996382,92.74026 70.7942,91.223786 70.45725,89.923101 c -0.121063,-0.232944 -0.217444,-0.478326 -0.296143,-0.728745 -0.343754,-1.093453 -0.06181,-1.808387 0.455087,-2.762112 z"
     id="path110"
     style="fill:url(#gradient_2);stroke-width:0.205718" />
  <path
     fill="#cf8952"
     d="m 78.01006,74.813361 2.539503,-1.510072 c 0.863451,-0.514282 3.119221,-2.18967 4.023544,-2.118871 l 2.677953,4.354557 -2.765845,1.719948 -0.227379,0.110447 -12.004886,7.3351 -0.251316,-0.03194 c -0.626325,-0.819009 -1.144828,-1.790094 -1.685175,-2.670393 -0.327228,-0.533184 -0.777752,-1.109821 -0.862503,-1.737837 0.179015,-0.332157 0.644626,-0.535301 0.964786,-0.732175 l 2.750049,-1.704774 1.457553,-0.882267 0.219341,-0.191359 z"
     id="path111"
     style="stroke-width:0.205718" />
  <path
     fill="#dca479"
     d="m 78.01006,74.813361 2.539503,-1.510072 0.251489,0.331356 -0.201155,0.17497 c 0.478322,0.248024 0.808023,0.457725 1.176543,0.862897 -1.273592,1.227436 -3.050714,2.176689 -4.544663,3.134269 -1.265751,0.811429 -3.2806,2.400084 -4.788827,2.557497 l -1.096332,-0.844933 -0.03984,-0.172674 -0.196857,-0.07343 -1.656006,0.991106 c 0.179015,-0.332155 0.644626,-0.535301 0.964785,-0.732173 l 2.75005,-1.704776 1.457551,-0.882265 0.219343,-0.191359 z"
     id="path112"
     style="stroke-width:0.205718" />
  <path
     fill="#b66b3d"
     d="m 78.01006,74.813361 2.539503,-1.510072 0.251489,0.331356 -0.201155,0.17497 -9.253277,5.70973 -0.03983,-0.172674 -0.196857,-0.07343 -1.656004,0.991108 c 0.179015,-0.332155 0.644624,-0.535301 0.964785,-0.732173 l 2.750048,-1.704776 1.457553,-0.882267 0.219341,-0.191359 z"
     id="path113"
     style="stroke-width:0.205718" />
  <path
     fill="#94552d"
     d="m 80.549567,73.303297 c 0.863451,-0.514283 3.119224,-2.189671 4.023544,-2.118872 l 2.677953,4.354557 -2.765845,1.719948 -0.227379,0.110446 -12.004886,7.335098 -0.251316,-0.03193 c -0.626325,-0.819012 -1.144827,-1.790097 -1.685175,-2.670398 -0.327228,-0.533184 -0.777752,-1.109819 -0.862501,-1.737837 l 1.656004,-0.991106 0.196857,0.07344 0.03984,0.172674 1.096332,0.844932 c 0.486823,1.041117 1.158063,2.004842 1.772538,2.974358 l 10.000642,-6.104719 0.175307,-0.402472 c -0.516503,-0.86426 -1.30383,-2.590694 -2.103641,-3.139063 -0.439573,-0.153568 -1.022612,-0.06981 -1.486673,-0.05763 z"
     id="path114"
     style="stroke-width:0.205718" />
  <path
     fill="#c5c6c7"
     d="m 83.710511,104.28435 c 0.02218,-0.56007 -0.586711,-1.29617 -0.833256,-1.83073 -0.84727,-1.8359 -1.138147,-4.076192 -0.655989,-6.044033 0.824092,-3.361975 3.411161,-5.722108 6.707533,-6.547074 0.751837,-0.188263 1.752816,-0.15538 2.401216,-0.573366 l 0.0724,-0.05073 c 2.33341,0.512419 4.235787,1.717643 5.533078,3.760048 1.271573,2.001948 1.702321,4.483438 1.15005,6.790345 -0.534369,2.23132 -2.026681,4.2715 -3.974611,5.4666 -2.276973,1.39677 -4.645619,1.57365 -7.184266,0.93118 l -0.305295,-0.0811 -9.79e-4,-0.0214 c -0.165868,-0.1233 -0.32008,-0.23536 -0.507526,-0.32374 -0.849971,-0.40094 -1.680012,-0.871 -2.402313,-1.47596 z"
     id="path115"
     style="stroke-width:0.205718" />
  <defs
     id="defs116">
    <linearGradient
       id="gradient_3"
       gradientUnits="userSpaceOnUse"
       x1="524.60431"
       y1="447.21811"
       x2="676.47565"
       y2="295.28336"
       gradientTransform="matrix(0.17547265,-0.10737428,0.10737428,0.17547265,-48.503843,98.013793)">
      <stop
         offset="0"
         stop-color="#606062"
         id="stop115" />
      <stop
         offset="1"
         stop-color="#6C747E"
         id="stop116" />
    </linearGradient>
  </defs>
  <path
     fill="url(#gradient_3)"
     d="m 84.573111,71.184425 0.07503,0.09155 c 1.016355,1.271555 1.775833,2.829566 2.670199,4.195784 0.638895,-0.390951 1.647744,-1.207976 2.345854,-1.383132 0.345955,-0.08654 1.008194,0.07935 1.352276,0.165934 6.110959,2.478171 2.221372,1.052013 7.57728,3.07111 l -0.0042,0.07543 4.65956,7.555998 c 2.58945,4.445553 5.47638,8.701383 8.31021,12.992006 l -1.09513,5.837795 c 0.10245,0.96279 0.17912,2.00406 -0.42981,2.83178 -0.24802,0.33724 -1.49624,1.07523 -1.45353,1.40241 0.0435,0.33275 0.31314,0.71039 0.43516,1.02764 l -0.55153,-0.90819 c -0.0872,-0.0116 -0.17651,-0.0567 -0.26167,-0.0343 -0.27696,0.0728 -0.76714,0.47264 -1.02447,0.63109 l -2.50879,1.54332 -13.753425,8.4016 c -0.558239,0.34579 -1.6704,0.99319 -2.315273,1.00192 -0.845458,0.0116 -1.751784,-0.49956 -2.329891,-1.08447 l -0.628134,-0.63629 c -0.53821,-0.94143 -1.16943,-1.81218 -1.563968,-2.83018 0.758346,0.72495 1.999365,2.1441 3.139322,2.09628 0.317702,-0.0133 0.733721,-0.31994 1.009317,-0.48401 l 3.028404,-1.90257 c 2.261519,-1.1217 4.489166,-2.74254 6.656257,-4.06467 2.503141,-1.52652 5.313811,-2.96314 7.660241,-4.70321 0.39163,-0.29055 0.81328,-0.65105 0.98507,-1.12035 0.1297,-0.35479 0.21634,-0.76185 0.0478,-1.11574 -0.66894,-1.40455 -1.65351,-2.77827 -2.46665,-4.113406 l -5.145396,-8.421182 -5.71693,-9.321706 C 92.337291,80.4554 91.449535,78.778603 90.379117,77.349359 89.951213,76.778176 89.526539,76.35768 88.839372,76.104563 c -1.621388,-0.597441 -2.963522,0.489605 -4.354213,1.1544 l 2.765845,-1.719948 z"
     id="path116"
     style="fill:url(#gradient_3);stroke-width:0.205718"
     sodipodi:nodetypes="ccccccccccccccccccccccccccccscccccccc" />
  <path
     fill="#857165"
     d="m 42.028925,79.347861 0.222291,0.466916 c 1.579654,2.050986 3.221325,3.991674 5.195416,5.677093 5.311486,4.535 12.661942,7.499875 19.565247,8.372666 l 4.012757,0.20977 c 1.123359,1.003006 2.066248,3.102374 2.872742,4.417211 l 2.656953,4.335573 7.290654,11.92741 0.233937,0.37875 c 0.394538,1.018 1.025758,1.88876 1.563966,2.83018 -3.028191,6.51349 -3.911361,13.40024 -1.426035,20.24754 1.597312,4.4013 4.25688,8.18635 7.711275,11.32804 1.264781,1.15017 2.583991,2.23833 3.98068,3.2253 0.187609,0.13239 1.197693,0.71103 1.242015,0.82524 0.165027,0.42575 0.09513,1.43563 0.132987,1.92353 l 0.490336,3.99459 c 0.433253,2.7725 1.114006,5.43986 1.87767,8.13511 -0.649786,0.0969 -1.307991,-0.11246 -1.939959,-0.25056 l -3.650187,-0.92002 -3.053505,-0.94508 c -1.70413,-0.39174 -3.42942,-1.1909 -5.037797,-1.866 -4.644111,-1.94942 -8.994151,-4.26762 -13.21747,-7.00776 l -4.930312,-3.4671 -0.545715,-0.45906 -0.246839,-0.17912 c -4.688385,-3.87537 -9.113316,-7.90037 -12.933411,-12.65773 -3.441322,-4.28539 -6.244486,-9.03821 -8.59731,-13.99231 l -0.390899,-1.08221 -0.799089,-1.82101 C 40.78214,114.96634 39.77719,105.42992 39.838998,96.757499 l -0.01812,-1.022658 c 0.0055,-0.517559 -0.08476,-1.041869 -0.146214,-1.555354 -0.295423,-4.729581 0.975261,-10.331143 2.354149,-14.831623 z"
     id="path121"
     style="stroke-width:0.205718" />
  <path
     fill="#a9988c"
     d="m 76.554259,102.82714 -0.952581,0.37572 c -6.931071,2.64125 -14.636248,2.92768 -21.438837,-0.15321 -5.484664,-2.48394 -10.217701,-7.334078 -12.341187,-12.975987 3.77274,3.044319 7.071122,6.635754 11.565082,8.683079 5.997955,2.732758 14.429004,2.003608 20.510631,-0.265225 z"
     id="path122"
     style="stroke-width:0.205718" />
  <path
     fill="#554741"
     d="m 42.028925,79.347861 0.222291,0.466916 c -0.946819,4.181828 -1.335038,8.431114 -1.474612,12.710341 -0.458173,14.047432 2.747331,28.174832 10.295692,40.124222 5.09876,8.07155 11.713446,15.4528 19.385222,21.16727 4.585441,3.41549 9.443422,6.14954 14.576178,8.63659 2.220871,1.07617 4.501365,1.95379 6.791533,2.86457 0.54537,0.21688 1.284277,0.67084 1.835425,0.76553 0.127447,0.0219 0.150682,0.0105 0.261649,-0.008 -1.251076,-2.97815 -2.321186,-5.99211 -2.915488,-9.1764 l -0.559657,-3.66565 c -0.02732,-0.24447 -0.0091,-1.04504 -0.112026,-1.22873 -0.05005,-0.0895 -0.454384,-0.31453 -0.552791,-0.3843 l -1.623949,-1.24996 c -4.395426,-3.73242 -7.68883,-7.79696 -9.272909,-13.41658 -2.312328,-8.20221 -0.18643,-16.35659 3.879672,-23.56236 l 1.07971,1.36327 0.233937,0.37875 c 0.394536,1.01801 1.025758,1.88876 1.563966,2.83019 -3.028193,6.51349 -3.911362,13.40023 -1.426035,20.24753 1.597312,4.4013 4.25688,8.18635 7.711275,11.32804 1.264781,1.15017 2.583991,2.23833 3.98068,3.2253 0.187609,0.1324 1.197693,0.71104 1.242015,0.82525 0.165027,0.42575 0.09513,1.43562 0.132987,1.92352 l 0.490334,3.99459 c 0.433254,2.7725 1.114008,5.43986 1.877672,8.13512 -0.649786,0.0969 -1.307991,-0.11247 -1.939959,-0.25057 l -3.650067,-0.92009 -3.053505,-0.94508 c -1.70413,-0.39174 -3.42942,-1.1909 -5.037797,-1.866 -4.644111,-1.94942 -8.994151,-4.26762 -13.21747,-7.00776 l -4.930312,-3.4671 -0.545715,-0.45906 -0.246839,-0.17912 c -4.688385,-3.87539 -9.113316,-7.90039 -12.933411,-12.65775 -3.441322,-4.28539 -6.244486,-9.03821 -8.59731,-13.99231 l -0.390899,-1.08221 -0.799089,-1.82101 C 40.78214,114.96634 39.77719,105.42992 39.838998,96.757499 l -0.01812,-1.022658 c 0.0055,-0.517559 -0.08476,-1.041869 -0.146214,-1.555354 -0.295423,-4.729581 0.975261,-10.331143 2.354149,-14.831623 z"
     id="path123"
     style="stroke-width:0.205718" />
</svg>
