<?xml version="1.0" encoding="UTF-8" standalone="no"?>
<svg
   width="63mm"
   height="88mm"
   version="1.1"
   id="svg30"
   sodipodi:docname="item-spearshort.svg"
   inkscape:version="1.3.2 (091e20e, 2023-11-25, custom)"
   xmlns:inkscape="http://www.inkscape.org/namespaces/inkscape"
   xmlns:sodipodi="http://sodipodi.sourceforge.net/DTD/sodipodi-0.dtd"
   xmlns="http://www.w3.org/2000/svg"
   xmlns:svg="http://www.w3.org/2000/svg">
  <defs
     id="defs30" />
  <sodipodi:namedview
     id="namedview30"
     pagecolor="#ffffff"
     bordercolor="#000000"
     borderopacity="0.25"
     inkscape:showpageshadow="2"
     inkscape:pageopacity="0.0"
     inkscape:pagecheckerboard="0"
     inkscape:deskcolor="#d1d1d1"
     inkscape:document-units="mm"
     inkscape:zoom="1.9351156"
     inkscape:cx="82.940783"
     inkscape:cy="168.72377"
     inkscape:window-width="1920"
     inkscape:window-height="1017"
     inkscape:window-x="-8"
     inkscape:window-y="-8"
     inkscape:window-maximized="1"
     inkscape:current-layer="svg30" />
  <path
     fill="#7c4207"
     d="m 99.579535,128.97237 c 0.772745,-1.94862 4.783335,-11.02289 5.911035,-11.81881 -1.25356,4.24728 -3.17175,8.54311 -5.11185,12.51984 l -0.26404,0.17728 c -0.223656,-0.14722 -0.497476,-0.18852 -0.754274,-0.25172 z"
     id="path2"
     style="stroke-width:0.181098" />
  <path
     fill="#f4b82e"
     d="m 100.37872,129.6734 3.5852,3.88183 -1.23545,1.16211 c -1.25556,0.94877 -2.56942,1.9832 -3.941962,2.74762 l -3.059468,-4.6305 4.38764,-2.98377 z"
     id="path3"
     style="stroke-width:0.181098" />
  <path
     fill="#f4b82e"
     d="m 95.825375,123.90398 c 0.558145,-0.62569 1.504744,-1.17623 2.186215,-1.68294 l 7.54055,-5.39527 -0.0616,0.32779 c -1.12769,0.79592 -5.13829,9.87019 -5.911033,11.81881 -1.318031,-1.62952 -2.297407,-3.54101 -3.754159,-5.06839 z"
     id="path4"
     style="stroke-width:0.181098" />
  <path
     fill="#7c4207"
     d="m 89.496547,135.49226 c 0.661912,-0.42576 1.691635,-0.59545 2.436311,-0.87652 1.300102,-0.49078 2.592779,-1.08315 3.794182,-1.78128 l 3.059468,4.6305 -3.57451,2.43902 -1.248128,0.71661 z"
     id="path5"
     style="stroke-width:0.181098" />
  <path
     fill="#dd971f"
     d="m 177.33266,258.46642 c 0.38428,-0.22999 0.48081,-0.35857 0.9379,-0.27346 1.11321,1.06305 2.31371,3.09859 2.87276,4.52926 l 0.019,2.1605 c -0.94986,0.30606 -1.45187,0.7407 -2.21175,1.35462 -0.61447,0.55778 -1.39518,1.47595 -2.18803,1.71499 l -0.17584,0.0562 c -0.62062,-0.12684 -1.30897,0.076 -1.83488,-0.36219 -0.41037,-0.29882 -0.75445,-1.03769 -1.03009,-1.47233 l -2.03463,-3.11126 0.74033,-1.24596 1.97306,-1.47775 0.10413,-0.007 z"
     id="path6"
     style="stroke-width:0.181098" />
  <path
     fill="#572f17"
     d="m 177.25931,265.71577 3.88401,-2.99355 0.019,2.1605 c -0.94986,0.30606 -1.45187,0.7407 -2.21175,1.35462 -0.61447,0.55778 -1.39518,1.47595 -2.18803,1.71499 l -0.17584,0.0562 c -0.62062,-0.12684 -1.30897,0.076 -1.83488,-0.36219 0.42015,-0.6592 1.84847,-1.40713 2.50748,-1.93051 z"
     id="path7"
     style="stroke-width:0.181098" />
  <path
     fill="#8b5710"
     d="m 174.4005,260.33898 0.10413,-0.007 c 0.70465,1.80375 1.76099,3.71432 2.75468,5.38405 -0.65902,0.52338 -2.08734,1.27131 -2.50748,1.93051 -0.41037,-0.29883 -0.75446,-1.03769 -1.03009,-1.47234 l -2.03463,-3.11125 0.74032,-1.24596 z"
     id="path8"
     style="stroke-width:0.181098" />
  <path
     fill="#7c4207"
     d="m 176.58671,268.00848 0.17584,-0.0562 c 0.79285,-0.23904 1.57356,-1.15721 2.18803,-1.71499 l 16.55271,24.77963 0.0248,0.2481 -0.16625,0.0506 c -4.93782,-2.78892 -9.04276,-7.17148 -12.97422,-11.19184 -0.73562,-0.75157 -2.06234,-1.82548 -2.51345,-2.75632 -0.34119,-0.70446 -0.49712,-1.64255 -0.70375,-2.40135 -0.65177,-2.39049 -1.24831,-4.83893 -2.58372,-6.95778 z"
     id="path9"
     style="stroke-width:0.181098" />
  <path
     fill="#dd971f"
     d="m 178.95059,266.23734 c 0.75988,-0.61392 1.26188,-1.04856 2.21174,-1.35462 1.34339,1.2206 2.81064,2.36152 4.29546,3.40465 0.9303,0.65556 2.45805,1.40531 3.18389,2.21845 0.60523,0.6773 1.04747,1.89428 1.44552,2.7219 2.04296,4.24493 3.69657,8.68002 4.6754,13.29621 0.30787,1.45058 0.64471,3.00983 0.7407,4.49304 z"
     id="path10"
     style="stroke-width:0.181098" />
  <path
     fill="#8b5710"
     d="m 95.468975,123.94835 0.3564,-0.0444 c 1.456753,1.52738 2.436129,3.43887 3.75416,5.06839 l -0.219129,0.6266 c 0.256798,0.0632 0.530618,0.10449 0.754274,0.25172 l -4.38764,2.98377 c -1.201403,0.69813 -2.49408,1.2905 -3.794182,1.78128 -0.744676,0.28107 -1.774399,0.45076 -2.436311,0.87652 l -1.037872,-0.10956 -12.833684,-2.33273 c 4.826078,-0.69487 9.54712,-2.86786 13.696616,-5.34709 l 1.854261,-0.99876 c 0.20464,-0.17059 0.530798,-0.28975 0.77365,-0.40874 l 1.497318,-0.8709 0.331408,-0.27019 0.801177,-0.50472 c 0.329418,-0.2099 0.605954,-0.43283 0.889554,-0.70122 z"
     id="path11"
     style="stroke-width:0.181098" />
  <path
     fill="#572f17"
     d="m 94.781528,130.6017 c 1.326541,-0.48479 3.177724,-0.90585 4.578878,-1.00273 0.256798,0.0632 0.530618,0.10449 0.754274,0.25172 l -4.38764,2.98377 c -1.201403,0.69813 -2.49408,1.2905 -3.794182,1.78128 -0.744676,0.28107 -1.774399,0.45076 -2.436311,0.87652 l -1.037872,-0.10956 z"
     id="path12"
     style="stroke-width:0.181098" />
  <path
     fill="#dd971f"
     d="m 95.468975,123.94835 0.3564,-0.0444 c 1.456753,1.52738 2.436129,3.43887 3.75416,5.06839 l -0.219129,0.6266 c -1.401154,0.0969 -3.252337,0.51794 -4.578878,1.00273 l -2.83201,-4.30632 1.497318,-0.8709 0.331408,-0.2702 0.801177,-0.50472 c 0.329418,-0.20989 0.605954,-0.43282 0.889554,-0.70121 z"
     id="path13"
     style="stroke-width:0.181098" />
  <path
     fill="#575859"
     d="m 91.975054,92.423008 c 1.119909,4.174667 1.437373,8.766582 1.884865,13.059692 l 1.609056,18.46565 c -0.2836,0.26839 -0.560136,0.49132 -0.889554,0.70121 l -0.801177,0.50472 c -1.152868,-2.10019 -1.884322,-4.53288 -2.642398,-6.79896 l -1.945897,-5.29059 c -0.522649,-1.39609 -0.98789,-2.78203 -1.732746,-4.08249 -0.05669,-1.12245 -0.164081,-2.35427 0.0037,-3.46911 0.107576,-0.71462 0.36147,-1.44969 0.552891,-2.14728 0.322536,-0.72186 0.514862,-1.42325 0.921245,-2.11414 l 0.0091,-0.15375 1.827277,-5.679594 c 0.346622,-0.995857 0.660826,-2.091137 1.203759,-2.995358 z"
     id="path14"
     style="stroke-width:0.181098" />
  <path
     fill="#808281"
     d="m 88.013718,103.36585 c 0.322536,-0.72186 0.514862,-1.42325 0.921245,-2.11414 l 5.644458,23.39785 -0.801177,0.50472 c -1.152868,-2.10019 -1.884322,-4.53288 -2.642398,-6.79896 l -1.945897,-5.29059 c -0.522649,-1.39609 -0.98789,-2.78203 -1.732746,-4.08249 -0.05669,-1.12245 -0.164081,-2.35427 0.0037,-3.46911 0.107576,-0.71462 0.36147,-1.44969 0.552891,-2.14728 z"
     id="path15"
     style="stroke-width:0.181098" />
  <path
     fill="#151410"
     d="m 102.72847,134.71734 1.25664,1.94191 6.75513,10.67029 -1.2657,0.88648 0.8307,1.45131 -3.25813,1.88994 -1.95894,1.26714 -0.73598,-0.97267 c -0.29157,-0.0319 -1.00057,0.45618 -1.28652,0.61319 -0.8144,-0.69668 -1.54658,-2.32656 -2.13279,-3.2833 l -5.720882,-9.27765 3.57451,-2.43902 c 1.372542,-0.76442 2.686402,-1.79885 3.941962,-2.74762 z"
     id="path16"
     style="stroke-width:0.181098" />
  <path
     fill="#572f17"
     d="m 103.98511,136.65925 6.75513,10.67029 -1.2657,0.88648 c -0.85623,0.55868 -1.85063,1.46942 -2.7918,1.81116 l -6.50178,-10.51545 c 0.23796,-0.36129 0.79375,-0.66174 1.15034,-0.91346 0.89498,-0.63149 1.81532,-1.23273 2.65381,-1.93902 z"
     id="path17"
     style="stroke-width:0.181098" />
  <path
     fill="#575859"
     d="m 70.0776,108.26201 0.237962,0.0699 c 3.179536,0.027 6.350742,0.55651 9.434296,1.30137 l 10.184041,15.49057 1.241969,1.58026 -1.854261,0.99876 -26.349745,-18.00856 c 0.520114,-0.58513 5.993074,-1.24831 7.105738,-1.4323 z"
     id="path18"
     style="stroke-width:0.181098" />
  <path
     fill="#808281"
     d="m 70.315562,108.33192 c 3.179536,0.027 6.350742,0.55651 9.434296,1.30136 l 10.184041,15.49058 c -1.009078,-0.0413 -12.386191,-11.39034 -14.317601,-13.02873 -1.643643,-1.39427 -3.560383,-2.48503 -5.300736,-3.76321 z"
     id="path19"
     style="stroke-width:0.181098" />
  <path
     fill="#826245"
     d="m 62.971862,109.69431 -0.575348,-0.40819 c -0.557056,-1.1487 -0.821641,-2.59712 -1.179491,-3.82751 L 58.674047,96.517994 C 57.165681,91.201321 43.47709,43.353408 43.74593,42.328847 l 0.385358,0.643061 1.782601,3.670818 c 1.358596,5.599727 3.329847,11.076852 5.2388,16.506892 l 11.500623,29.91846 4.342546,10.347932 c 0.783428,1.64654 1.688918,3.62884 3.081742,4.846 -1.112664,0.184 -6.585624,0.84718 -7.105738,1.4323 z"
     id="path20"
     style="stroke-width:0.181098" />
  <path
     fill="#572f17"
     d="m 107.04711,151.55727 67.35339,108.78171 -1.97306,1.47775 -67.33927,-108.99232 z"
     id="path21"
     style="stroke-width:0.181098" />
  <path
     fill="#826245"
     d="m 110.30524,149.66733 67.02742,108.79909 -2.82803,1.86531 -0.10413,0.007 -67.35339,-108.78188 z"
     id="path22"
     style="stroke-width:0.181098" />
  <path
     fill="#b7a88b"
     d="m 47.235723,46.273648 4.016389,4.326067 12.734622,12.719049 2.379264,2.369122 c 0.199028,0.197578 0.719684,0.601789 0.829791,0.832144 l 6.816345,6.858179 c 0.531159,0.536049 1.729304,1.478301 2.056548,2.1279 l 13.034521,13.653152 2.118121,2.285817 c 0.232711,0.253538 0.651227,0.649055 0.75373,0.97793 -0.542933,0.904221 -0.857137,1.999501 -1.203758,2.995358 l -1.827278,5.679594 -0.0091,0.15375 c -0.406383,0.69089 -0.598709,1.39228 -0.921245,2.11414 -2.221528,-1.83398 -4.151668,-3.841813 -6.043599,-6.009374 L 73.291694,86.869639 70.983965,83.862691 C 70.607281,83.370828 70.252871,82.780087 69.696901,82.481637 69.43449,82.235888 69.190371,81.73298 68.986635,81.426561 l -1.828726,-2.793072 -7.884098,-11.47708 -0.164434,0.03477 c -0.3037,-0.43717 -0.367085,-1.122987 -0.50653,-1.644911 l -0.03025,-0.0059 C 58.189759,65.146989 57.951435,64.582144 57.678339,64.107487 L 56.211264,61.668641 49.546139,50.634528 47.480354,47.125031 c -0.149413,-0.283236 -0.239774,-0.526089 -0.244663,-0.85134 z"
     id="path23"
     style="stroke-width:0.181098" />
  <path
     fill="#a48b6b"
     d="m 76.068682,75.506109 13.034521,13.653152 2.118121,2.285817 c 0.232711,0.253538 0.651227,0.649055 0.75373,0.97793 -0.542933,0.904221 -0.857137,1.999501 -1.203758,2.995358 l -1.827278,5.679594 -4.694602,-9.473233 C 82.992959,89.156906 76.085886,77.072244 76.068682,75.506109 Z"
     id="path24"
     style="stroke-width:0.181098" />
  <path
     fill="#c5bfaa"
     d="m 47.235723,46.273648 4.016389,4.326067 12.734622,12.719049 2.379264,2.369122 c 0.199028,0.197578 0.719684,0.601789 0.829791,0.832144 -0.176747,0.763692 0.613198,2.372384 0.879956,3.126837 l 3.935437,10.259378 C 70.828071,78.873263 69.746554,77.660811 68.65236,76.532753 l -5.768693,-6.244799 c -1.347368,-1.574645 -2.626643,-3.341619 -4.104764,-4.782252 l -0.176024,0.04056 -0.03025,-0.0059 C 58.18979,65.14698 57.951467,64.582135 57.67837,64.107477 L 56.211296,61.668632 49.54617,50.634519 47.480385,47.125022 c -0.149412,-0.283236 -0.239774,-0.526089 -0.244662,-0.851341 z"
     id="path25"
     style="stroke-width:0.181098" />
  <path
     fill="#a48b6b"
     d="m 44.131288,42.971908 2.242046,2.382378 c 0.218224,0.218078 0.769847,0.640906 0.862389,0.919362 0.0048,0.325252 0.09526,0.568104 0.244662,0.851341 l 2.065785,3.509497 6.665126,11.034113 1.467074,2.438845 c 0.273097,0.474658 0.51142,1.039503 0.894263,1.432847 l 0.03025,0.0059 c 0.139454,0.521924 0.20283,1.207742 0.50653,1.644912 l 0.164433,-0.03477 7.884098,11.47708 1.828726,2.793072 c 0.203737,0.306419 0.447856,0.809327 0.710267,1.055076 0.555969,0.298451 0.91038,0.889191 1.287063,1.381054 l 2.307729,3.006949 8.678393,10.486837 c 1.891931,2.16756 3.822071,4.175389 6.0436,6.009369 -0.191421,0.69759 -0.445321,1.43267 -0.552891,2.14728 -0.167698,1.11484 -0.06031,2.34667 -0.0037,3.46911 0.744855,1.30046 1.210096,2.68641 1.732745,4.08249 l 1.945897,5.2906 c 0.758077,2.26607 1.48953,4.69876 2.642399,6.79895 l -0.331408,0.2702 -1.497318,0.8709 c -0.242853,0.11898 -0.56901,0.23814 -0.77365,0.40874 l -1.241982,-1.58023 -10.184041,-15.49057 c -3.083554,-0.74485 -6.25476,-1.27438 -9.434296,-1.30137 l -0.237962,-0.0699 c -1.392739,-1.21711 -2.298229,-3.19941 -3.081657,-4.84595 L 62.653312,93.068078 51.152689,63.149618 c -1.908953,-5.43004 -3.880204,-10.907165 -5.2388,-16.506892 z"
     id="path26"
     style="stroke-width:0.181098" />
  <path
     fill="#d9d6c5"
     d="m 44.131288,42.971908 2.242046,2.382378 c 0.218224,0.218078 0.769847,0.640906 0.862389,0.919362 0.0048,0.325252 0.09526,0.568104 0.244662,0.851341 l 2.065785,3.509497 6.665126,11.034113 1.467074,2.438845 c 0.273097,0.474658 0.51142,1.039503 0.894263,1.432847 l 0.03025,0.0059 c 0.139454,0.521924 0.20283,1.207742 0.50653,1.644912 l 0.819288,2.209033 -0.171147,-0.03822 -13.843667,-22.719274 z"
     id="path27"
     style="stroke-width:0.181098" />
  <path
     fill="#7c4207"
     d="m 59.109405,67.191179 0.164434,-0.03477 7.884097,11.47708 1.828726,2.793072 c 0.203737,0.306419 0.447856,0.809327 0.710267,1.055076 0.55597,0.29845 0.91038,0.889191 1.287064,1.381054 l 2.307728,3.006948 8.678393,10.486837 c 1.891931,2.167561 3.822071,4.175394 6.0436,6.009374 -0.191421,0.69759 -0.44532,1.43266 -0.552891,2.14728 -0.167697,1.11484 -0.06031,2.34666 -0.0037,3.46911 0.744856,1.30046 1.210097,2.6864 1.732746,4.08249 l 1.945897,5.29059 c 0.758076,2.26608 1.48953,4.69877 2.642398,6.79896 l -0.331408,0.2702 -1.497318,0.8709 c -0.242852,0.11898 -0.56901,0.23814 -0.77365,0.40874 L 89.933899,125.12386 79.749858,109.63328 66.08584,82.428576 62.244754,74.572369 c -0.685455,-1.463635 -1.463451,-2.904268 -1.918188,-4.461891 l -0.397873,-0.710265 z"
     id="path28"
     style="stroke-width:0.181098" />
  <path
     fill="#db7702"
     d="m 59.109405,67.191179 0.164434,-0.03477 7.884097,11.47708 1.828726,2.793072 c 0.203737,0.306419 0.447856,0.809327 0.710267,1.055076 0.55597,0.29845 0.91038,0.889191 1.287064,1.381054 l 2.307728,3.006948 8.678393,10.486837 c 1.891931,2.167561 3.822071,4.175394 6.0436,6.009374 -0.191421,0.69759 -0.44532,1.43266 -0.552891,2.14728 -0.167697,1.11484 -0.06031,2.34666 -0.0037,3.46911 0.744856,1.30046 1.210097,2.6864 1.732746,4.08249 l 1.945897,5.29059 c 0.758076,2.26608 1.48953,4.69877 2.642398,6.79896 l -0.331417,0.2702 L 82.928761,106.99034 69.362174,84.949278 64.05836,76.332097 c -1.197149,-2.029746 -2.311263,-4.353594 -3.731794,-6.221619 l -0.397873,-0.710265 z"
     id="path29"
     style="stroke-width:0.181098" />
  <path
     fill="#a48b6b"
     d="m 69.696933,82.481637 c 0.555969,0.29845 0.91038,0.889191 1.287063,1.381054 l 2.307729,3.006948 8.678393,10.486837 c 1.891931,2.167561 3.822071,4.175394 6.0436,6.009374 -0.191421,0.69759 -0.445321,1.43266 -0.552891,2.14728 -0.167698,1.11484 -0.06031,2.34666 -0.0037,3.46911 -0.585051,-0.53895 -1.033991,-1.23002 -1.537445,-1.84539 -2.381437,-2.91024 -4.271375,-6.14954 -6.335166,-9.285072 C 76.251771,92.788825 72.70678,87.740902 69.696933,82.481637 Z"
     id="path30"
     style="stroke-width:0.181098" />
</svg>
