<?xml version="1.0" encoding="UTF-8" standalone="no"?>
<svg
   width="63mm"
   height="88mm"
   version="1.1"
   id="svg90"
   sodipodi:docname="item-axewood.svg"
   inkscape:version="1.3.2 (091e20e, 2023-11-25, custom)"
   xmlns:inkscape="http://www.inkscape.org/namespaces/inkscape"
   xmlns:sodipodi="http://sodipodi.sourceforge.net/DTD/sodipodi-0.dtd"
   xmlns="http://www.w3.org/2000/svg"
   xmlns:svg="http://www.w3.org/2000/svg">
  <sodipodi:namedview
     id="namedview90"
     pagecolor="#ffffff"
     bordercolor="#000000"
     borderopacity="0.25"
     inkscape:showpageshadow="2"
     inkscape:pageopacity="0.0"
     inkscape:pagecheckerboard="0"
     inkscape:deskcolor="#d1d1d1"
     inkscape:document-units="mm"
     inkscape:zoom="1.9351156"
     inkscape:cx="59.686358"
     inkscape:cy="155.28788"
     inkscape:window-width="1920"
     inkscape:window-height="1017"
     inkscape:window-x="-8"
     inkscape:window-y="-8"
     inkscape:window-maximized="1"
     inkscape:current-layer="svg90" />
  <path
     fill="#7f4821"
     d="m 169.43019,233.47395 4.3689,8.02115 c 1.29049,0.0772 2.28882,1.79052 3.49707,2.2492 l -0.34415,-0.37345 c -0.56656,-0.59678 -0.83693,-1.4361 -1.24762,-2.14674 -0.83559,-1.44714 -2.14222,-3.1296 -2.68369,-4.67375 l 0.28487,-0.0283 0.01,-0.0116 z"
     id="path2"
     style="stroke-width:0.234085" />
  <path
     fill="#40494f"
     d="m 182.75221,258.4434 -1.7351,0.31039 c 0.24418,1.90411 1.58921,4.06245 2.42453,5.7724 1.27299,2.60358 2.50931,5.48429 4.1232,7.88877 l 0.9069,0.38964 c 0.12369,-1.09756 -0.44128,-1.74149 -0.82135,-2.71048 -0.83039,-2.11794 -1.58666,-4.03995 -2.63444,-6.08248 l -3.09175,-4.60627 2.36076,-0.23707 -1.15342,-0.64063 z"
     id="path3"
     style="stroke-width:0.234085" />
  <path
     fill="#7f4821"
     d="m 174.89846,243.31214 c 2.56011,4.97113 5.8242,9.92593 7.85375,15.13126 l 0.37953,0.0853 1.90544,-0.29353 -3.58905,-7.07964 c -0.71106,-1.32375 -1.55815,-2.64118 -2.09151,-4.04733 z"
     id="path4"
     style="stroke-width:0.234085" />
  <path
     fill="#7f4821"
     d="m 101.87514,121.72398 13.91947,21.5994 5.62545,8.79448 c 0.89325,1.4154 1.74614,3.1365 2.79501,4.42249 0.62477,0.008 1.09966,0.35977 1.62308,0.66746 -1.03174,-2.38504 -2.79635,-4.53814 -4.28741,-6.65862 l -4.41521,-6.94127 c -0.37297,-0.59007 -1.32492,-1.79869 -1.41237,-2.42972 -0.0191,-0.13016 0.0453,-0.25906 0.0681,-0.38851 -0.067,-0.18456 -0.44451,-0.48486 -0.58852,-0.62668 -0.62759,-0.61781 -2.0787,-1.69449 -2.37201,-2.48524 l 0.26449,-0.0117 -3.51299,-6.07952 0.29523,-0.0476 0.006,-0.0579 c -0.99015,-0.69656 -1.9034,-1.56316 -2.77076,-2.40689 l 0.0395,-0.39731 c 0.01,-0.2047 -0.32152,-0.66611 -0.42688,-0.85476 -0.5027,-0.89948 -1.03125,-1.77897 -1.6137,-2.62931 -0.54648,-0.79804 -1.35117,-1.7172 -1.46162,-2.69783 l 0.46742,0.0362 -1.23095,-1.17963 c -0.35464,0.0386 -0.68731,0.22771 -1.00989,0.37238 z"
     id="path5"
     style="stroke-width:0.234085" />
  <path
     fill="#53270a"
     d="m 168.83143,205.15809 8.76206,13.567 4.80247,0.4929 -9.32477,-13.62316 c -0.89535,0.29401 -3.21241,-0.21047 -4.23976,-0.43674 z"
     id="path6"
     style="stroke-width:0.234085" />
  <path
     fill="#a0673b"
     d="m 179.35662,247.10822 c 0.53334,1.40614 1.38045,2.72359 2.09149,4.04732 l 3.58907,7.07964 c 1.52907,-0.28143 3.18642,-0.47668 4.66872,-0.91822 l 2.45624,-0.80482 1.33513,-0.56408 c -0.23442,-0.8886 -0.2764,-1.79877 -0.61819,-2.65619 -1.58697,-0.16731 -3.09231,-0.43094 -4.60502,-0.94498 l -0.12706,-0.0305 c -3.1539,-1.16298 -6.0863,-3.24798 -8.79041,-5.20816 z"
     id="path7"
     style="stroke-width:0.234085" />
  <path
     fill="#7f4821"
     d="m 188.14701,252.31639 c 0.0692,1.5373 1.2534,3.39549 1.55889,5.00057 l 2.45624,-0.80482 1.33513,-0.56408 c -0.23442,-0.8886 -0.2764,-1.79877 -0.61819,-2.65619 -1.58697,-0.16731 -3.09231,-0.43094 -4.60502,-0.94498 z"
     id="path8"
     style="stroke-width:0.234085" />
  <path
     fill="#a0673b"
     d="m 173.30556,236.52165 -0.28488,0.0283 c 0.54147,1.54416 1.84808,3.22661 2.68369,4.67376 0.41067,0.71062 0.68107,1.54996 1.2476,2.14675 l 0.34417,0.37343 c -1.20825,-0.45869 -2.20658,-2.17214 -3.49707,-2.24918 0.31868,0.5435 0.67315,1.37597 1.09937,1.81703 l 4.45814,3.79609 c 2.70414,1.96017 5.63654,4.04523 8.79041,5.20817 l 0.12706,0.0305 c -0.50005,-0.51294 -0.59715,-1.57425 -0.655,-2.2855 l -0.89994,-0.44979 0.08,-0.30686 -2.23627,-4.50262 c -0.61037,-1.28617 -1.21143,-2.84082 -2.13254,-3.92764 -3.28722,-0.88978 -6.29965,-2.48112 -9.12464,-4.35289 z"
     id="path9"
     style="stroke-width:0.234085" />
  <path
     fill="#53270a"
     d="m 177.29616,243.7443 c -1.20825,-0.45868 -2.20658,-2.17213 -3.49707,-2.2492 0.31869,0.54354 0.67316,1.37599 1.09937,1.81704 l 4.45815,3.79608 c 2.70413,1.96019 5.63653,4.04523 8.7904,5.20817 l 0.1268,0.0305 c -0.50004,-0.51294 -0.59714,-1.57428 -0.65497,-2.28552 l -0.89996,-0.44976 z"
     id="path10"
     style="stroke-width:0.234085" />
  <path
     fill="#7f4821"
     d="m 124.52253,156.91529 10.32446,16.56629 18.87393,32.06128 4.40102,7.82791 c 0.9516,1.65998 2.12281,3.35659 2.8239,5.13207 0.93982,0.40756 1.77375,0.97717 2.62711,1.53768 -0.86844,-1.65196 -1.97942,-3.21019 -2.93194,-4.81977 -0.45244,-0.76322 -0.96842,-1.46833 -1.17433,-2.34509 l -0.002,-0.0432 c -1.04878,-0.83627 -2.63825,-2.4995 -3.09421,-3.74648 l 0.24307,-0.0579 1.16108,0.78524 -3.13207,-5.57073 c -1.05372,-1.78275 -2.53519,-3.80889 -3.12485,-5.78604 -0.78123,-0.70223 -1.59235,-1.31449 -2.30266,-2.09617 l 0.64737,0.0697 c -0.53232,-1.21221 -1.34491,-2.40664 -1.99706,-3.57249 l -5.27012,-9.31565 c -0.5347,-0.94162 -1.22624,-1.83008 -1.71236,-2.78208 l 0.22198,-0.14669 c -0.0242,-0.12784 -0.49584,-0.59404 -0.61656,-0.73077 -0.62868,-0.7121 -2.27519,-2.35618 -2.29482,-3.30342 -0.006,-0.25802 0.14216,-0.30626 0.31381,-0.47885 -0.1019,-0.3731 -0.57015,-0.72433 -0.83126,-1.01493 -0.43051,-0.47947 -0.79112,-1.02774 -1.15503,-1.55824 l -5.75887,-8.85291 c -1.07255,-1.65584 -2.34144,-3.30146 -3.22206,-5.0631 l 0.25507,-0.0388 0.006,-0.032 c -0.91807,-0.94505 -2.14277,-1.94674 -3.27465,-2.62388 z"
     id="path11"
     style="stroke-width:0.234085" />
  <path
     fill="#a0673b"
     d="m 115.79117,140.78969 c -0.0216,0.12945 -0.0862,0.25831 -0.0681,0.38851 0.0873,0.63104 1.03941,1.83965 1.4124,2.42972 l 4.41518,6.94127 c 1.49106,2.12048 3.25568,4.27358 4.28742,6.65862 l 10.09173,6.62354 c 0.0465,-0.20711 0.0347,-0.26173 -0.0635,-0.45877 -2.31855,-4.63647 -5.88897,-8.76911 -7.94255,-13.55287 z"
     id="path12"
     style="stroke-width:0.234085" />
  <path
     fill="#703b14"
     d="m 182.43018,240.87455 c 0.92111,1.08683 1.5222,2.64147 2.13258,3.92764 l 2.23626,4.50263 -0.0798,0.30687 0.89991,0.44976 c 0.0577,0.71124 0.15484,1.77257 0.65501,2.2855 1.51272,0.514 3.01807,0.77761 4.60505,0.945 0.34176,0.85737 0.38381,1.76755 0.61817,2.65617 l -1.33515,0.5641 0.95317,0.41716 c 1.14941,-0.46879 2.59967,-0.95194 3.6426,-1.61331 0.1153,-0.95088 0.002,-1.68962 -0.21789,-2.61777 1.03409,-0.736 2.58086,-1.27721 3.73967,-1.88113 l -3.7425,-6.29852 c -0.56508,-0.94148 -1.16494,-2.11127 -1.89203,-2.92894 -0.22869,-0.25758 -0.40759,-0.19103 -0.74055,-0.20925 -1.52776,0.45715 -3.22439,0.48014 -4.80855,0.51717 -2.27967,-0.17378 -4.4444,-0.49299 -6.66586,-1.02308 z"
     id="path13"
     style="stroke-width:0.234085" />
  <path
     fill="#7f4821"
     d="m 182.43018,240.87455 c 0.92111,1.08683 1.5222,2.64147 2.13258,3.92764 l 2.23626,4.50263 -0.0798,0.30687 0.89991,0.44976 c 0.0577,0.71124 0.15484,1.77257 0.65501,2.2855 1.51272,0.514 3.01807,0.77761 4.60505,0.945 0.76273,-0.0978 2.36917,0.0292 2.88048,-0.41836 l -2.08022,-0.46464 c -1.06969,-3.55426 -2.99908,-7.15646 -4.58332,-10.51125 -2.27965,-0.17378 -4.4444,-0.49299 -6.66586,-1.02307 z"
     id="path14"
     style="stroke-width:0.234085" />
  <path
     fill="#4a1d09"
     d="m 187.61904,250.06139 c 0.0577,0.71128 0.15485,1.77255 0.65502,2.2855 1.51271,0.51404 3.01805,0.77762 4.60502,0.94498 0.76276,-0.0978 2.36917,0.0293 2.88051,-0.41834 l -2.08023,-0.46463 c -2.09741,-0.50805 -4.11384,-1.42685 -6.06029,-2.34747 z"
     id="path15"
     style="stroke-width:0.234085" />
  <path
     fill="#24130a"
     d="m 194.97847,288.28048 c 0.38053,2.70641 0.89411,5.61144 0.85184,8.3426 8.01783,5.2685 18.36487,6.3364 27.7211,5.37197 4.61591,-6.58544 8.3176,-15.93144 6.97624,-24.07942 l -0.22196,-1.01088 -6.37936,-4.05068 -0.59497,4.39255 0.0616,0.0963 c 1.40424,0.9025 3.59998,2.90549 4.2786,4.46383 -0.54877,5.18035 -1.98814,10.38036 -4.35571,15.03416 -0.47182,0.93056 -0.90104,1.97483 -1.5581,2.78683 l -0.43376,0.1757 c -0.87936,0.30835 -2.01931,0.37045 -2.94794,0.50891 -7.42353,1.11598 -14.47454,-0.8723 -21.12692,-4.00203 l -0.83555,-7.16419 z"
     id="path16"
     style="stroke-width:0.234085" />
  <path
     fill="#53270a"
     d="m 177.29087,219.94719 4.92767,8.89729 3.90372,0.80134 4.03945,0.88901 -3.38486,0.27696 c -1.28762,-0.073 -2.59262,-0.37089 -3.86199,-0.5932 l 3.65705,6.95654 c 0.53016,1.04677 1.13909,2.12194 1.49758,3.24136 1.86572,0.28192 3.94973,0.45151 5.82974,0.22125 -0.0423,0.27239 -0.10445,0.48016 0.006,0.74261 0.333,0.0191 0.51184,-0.0484 0.74057,0.20926 0.7271,0.81768 1.32695,1.98748 1.89204,2.92895 l 3.74248,6.29851 c -1.15879,0.60394 -2.70559,1.14514 -3.73967,1.88114 0.22076,0.92816 0.33331,1.66688 0.21789,2.61778 2.44006,-1.0943 4.96156,-2.60017 6.78385,-4.59091 0.38186,-0.42076 0.91862,-0.94077 1.13385,-1.47047 0.0601,-0.15055 0.0601,-0.28828 0.0476,-0.44626 l -22.21753,-29.38552 -0.0816,0.3275 c -0.66829,0.5677 -2.58622,0.35226 -3.49046,0.33187 z"
     id="path18"
     style="stroke-width:0.234085" />
  <path
     fill="#703b14"
     d="m 177.29087,219.94719 4.92767,8.89729 3.90372,0.80134 c -0.5084,-0.91736 -1.28786,-1.75726 -1.92347,-2.59814 -1.74877,-2.31564 -3.65664,-4.55221 -5.26509,-6.96543 z"
     id="path19"
     style="stroke-width:0.234085" />
  <path
     fill="#703b14"
     d="m 186.77685,230.81179 c -1.28762,-0.073 -2.59262,-0.37089 -3.86199,-0.5932 l 3.65705,6.95654 c 0.53016,1.04677 1.13909,2.12194 1.49758,3.24136 1.86572,0.28192 3.94973,0.45151 5.82974,0.22125 -0.0143,-0.66065 -0.87216,-1.55707 -1.27139,-2.13945 z"
     id="path20"
     style="stroke-width:0.234085" />
  <path
     fill="#a0673b"
     d="m 149.86074,196.42922 -0.64738,-0.0697 c 0.7103,0.78168 1.52142,1.39395 2.30265,2.0962 0.58968,1.97712 2.07112,4.00329 3.12484,5.786 l 3.13207,5.57076 -1.16106,-0.78525 -0.24307,0.0577 c 0.45596,1.24701 2.04542,2.91024 3.0942,3.7465 l 0.002,0.0432 c 2.73192,2.17315 6.50935,4.65879 9.96189,5.46845 l 7.86231,1.60307 1.64282,0.13496 c 0.90426,0.0216 2.82218,0.23588 3.49049,-0.33186 l 0.0814,-0.32748 -0.11012,-0.20496 -4.80247,-0.49287 -8.76205,-13.56702 c 1.02732,0.22629 3.34442,0.73084 4.23972,0.43676 l -1.12821,-1.71267 c -1.47628,0.23539 -3.19658,-0.22267 -4.60827,-0.63305 l -9.04968,-3.07402 c -2.95561,-1.04291 -5.67274,-2.24456 -8.42425,-3.74589 z"
     id="path21"
     style="stroke-width:0.234085" />
  <path
     fill="#4a1d09"
     d="m 149.86074,196.42922 -0.64738,-0.0697 c 0.7103,0.78168 1.52142,1.39395 2.30265,2.0962 2.81498,1.7843 5.99677,3.45607 9.19499,4.44517 2.50296,0.7375 5.56233,2.0352 8.12043,2.25724 1.02735,0.22629 3.34444,0.73083 4.23976,0.43676 l -1.12825,-1.71268 c -1.47626,0.23539 -3.19657,-0.22268 -4.60823,-0.63303 l -9.04968,-3.07402 c -2.95564,-1.04289 -5.67277,-2.24455 -8.42429,-3.74587 z"
     id="path22"
     style="stroke-width:0.234085" />
  <defs
     id="defs23">
    <linearGradient
       id="gradient_0"
       gradientUnits="userSpaceOnUse"
       x1="727.90369"
       y1="1046.7745"
       x2="688.52625"
       y2="1052.9758"
       gradientTransform="matrix(-0.12326091,0.19900355,0.19900355,0.12326091,47.797796,-55.564933)">
      <stop
         offset="0"
         stop-color="#541E03"
         id="stop22" />
      <stop
         offset="1"
         stop-color="#390E0C"
         id="stop23" />
    </linearGradient>
  </defs>
  <path
     fill="url(#gradient_0)"
     d="m 157.77292,209.81241 -1.16106,-0.78524 -0.24307,0.0577 c 0.45596,1.247 2.04542,2.91024 3.0942,3.7465 l 0.002,0.0432 c 2.73192,2.17317 6.50935,4.65881 9.96189,5.46844 l 7.8623,1.60309 1.64283,0.13494 c 0.90425,0.0216 2.82218,0.23588 3.49049,-0.33186 l 0.0814,-0.32748 -0.11012,-0.20496 -4.80247,-0.49284 c -3.29164,-0.50925 -6.35274,-1.06184 -9.46263,-2.33136 -3.85179,-1.88545 -7.08185,-3.79221 -10.35793,-6.58135 z"
     id="path23"
     style="fill:url(#gradient_0);stroke-width:0.234085" />
  <path
     fill="#7f4821"
     d="m 160.711,202.90085 7.665,13.17722 c -0.091,0.25346 -0.0116,0.14526 -0.24516,0.3157 3.10988,1.26949 6.17098,1.82209 9.46259,2.33132 l -8.76202,-13.56702 c -2.55814,-0.22198 -5.6175,-1.51977 -8.12046,-2.25724 z"
     id="path24"
     style="stroke-width:0.234085" />
  <path
     fill="#dcdcda"
     d="m 14.709486,35.898413 c -2.140344,6.390707 -3.192052,13.212566 -3.632831,19.919409 -0.388482,5.907113 -0.333316,11.964842 0.494264,17.833561 1.435965,-0.311664 2.959645,-0.347038 4.422493,-0.466941 l 6.259966,-0.708849 C 22.28478,72.0999 22.09158,71.478272 22.026643,71.092768 l -0.401257,-3.055741 -0.603418,-9.845231 c -0.03605,-0.431242 0.01774,-0.678198 0.147897,-1.083874 -0.638859,-1.70388 -1.700892,-3.31937 -2.414303,-5.020697 -2.17641,-5.191387 -3.36017,-10.621523 -4.046088,-16.188812 z"
     id="path25"
     style="stroke-width:0.234085" />
  <path
     fill="#3e3839"
     d="m 196.41346,289.1467 0.83552,7.16421 c 6.65239,3.12969 13.70339,5.118 21.12693,4.00205 0.92859,-0.13882 2.0685,-0.20113 2.94795,-0.50893 l 0.43373,-0.1757 c 0.65715,-0.81197 1.08632,-1.85625 1.55812,-2.78687 2.36758,-4.65373 3.80694,-9.8538 4.35569,-15.03411 -0.67863,-1.55832 -2.87437,-3.56132 -4.2786,-4.46387 -0.67758,3.47681 -1.63882,6.76688 -3.71791,9.68346 -0.81177,1.13717 -1.80954,2.13905 -2.74812,3.16984 l -0.14693,-0.0343 -0.15702,0.13783 c -2.75582,2.34647 -6.98323,2.77453 -10.44483,2.4285 -2.80313,-0.27549 -5.16964,-1.06477 -7.69909,-2.25782 -0.64713,-0.33335 -1.17858,-0.73341 -1.74556,-1.18279 z"
     id="path26"
     style="stroke-width:0.234085" />
  <path
     fill="#a0673b"
     d="m 159.46668,212.87566 c 0.20591,0.87676 0.72189,1.58187 1.17433,2.34509 0.95252,1.60958 2.06349,3.16781 2.93193,4.81977 -0.85335,-0.56047 -1.68726,-1.13015 -2.6271,-1.53768 l 0.93263,1.48165 7.04205,12.56526 0.50967,0.92423 3.88452,3.03739 -0.01,0.0116 c 2.82499,1.87173 5.83741,3.46307 9.12464,4.35288 2.22144,0.53008 4.38618,0.84938 6.66583,1.02311 1.58421,-0.0369 3.28081,-0.0601 4.80857,-0.51721 -0.11013,-0.26256 -0.0474,-0.4702 -0.006,-0.74262 -1.88003,0.23009 -3.96405,0.0605 -5.82975,-0.22126 -0.35849,-1.11941 -0.96742,-2.19456 -1.49756,-3.24133 l -3.65705,-6.95657 c 1.26934,0.22221 2.57433,0.52041 3.86194,0.59319 l 3.38489,-0.27693 -4.03944,-0.88899 -3.90375,-0.80139 -4.92765,-8.89726 -7.86232,-1.60308 c -3.45268,-0.81052 -7.23012,-3.29616 -9.96203,-5.46931 z"
     id="path27"
     style="stroke-width:0.234085" />
  <path
     fill="#7f4821"
     d="m 161.87847,219.98449 7.04205,12.56524 c 1.83327,0.63219 3.28807,2.35549 5.13514,2.87202 l -2.85519,-1.82742 c -1.27191,-2.69871 -3.01033,-5.28004 -4.52343,-7.85608 -0.47584,-0.80994 -1.5888,-2.27162 -1.58895,-3.16937 -0.065,-0.17976 -0.45639,-0.41896 -0.61552,-0.56218 -0.8435,-0.75867 -1.63025,-1.4134 -2.5941,-2.02225 z"
     id="path28"
     style="stroke-width:0.234085" />
  <path
     fill="#4a1d09"
     d="m 168.92052,232.54973 0.50967,0.92422 3.88452,3.0374 -0.01,0.0117 c 2.82496,1.87174 5.83741,3.46307 9.12463,4.3529 2.22145,0.53004 4.38619,0.84936 6.66584,1.02309 1.58421,-0.0369 3.28081,-0.0601 4.80857,-0.51721 -0.11013,-0.26254 -0.0474,-0.4702 -0.006,-0.74262 -1.88003,0.2301 -3.96405,0.0605 -5.82978,-0.22127 l -7.23802,-1.94417 c -2.37214,-0.79794 -4.58816,-1.83021 -6.77576,-3.05056 -1.84708,-0.51652 -3.30191,-2.23981 -5.13518,-2.87201 z"
     id="path29"
     style="stroke-width:0.234085" />
  <defs
     id="defs30">
    <linearGradient
       id="gradient_1"
       gradientUnits="userSpaceOnUse"
       x1="746.55017"
       y1="1093.2012"
       x2="718.25854"
       y2="1094.4313"
       gradientTransform="matrix(-0.12326091,0.19900355,0.19900355,0.12326091,47.797796,-55.564933)">
      <stop
         offset="0"
         stop-color="#562205"
         id="stop29" />
      <stop
         offset="1"
         stop-color="#430E0B"
         id="stop30" />
    </linearGradient>
  </defs>
  <path
     fill="url(#gradient_1)"
     d="m 160.94584,218.50284 0.93263,1.48165 c 0.96385,0.60881 1.7506,1.26356 2.5941,2.02221 0.15916,0.14311 0.55053,0.38259 0.6155,0.56218 2.9577,2.04424 6.47058,4.46351 9.95184,5.43575 2.55699,0.89074 5.2034,1.73937 7.87495,2.21396 1.26937,0.22222 2.57437,0.52038 3.86199,0.5932 l 3.38486,-0.27696 -4.03945,-0.88901 -3.90372,-0.80134 -8.58988,-3.04692 c -3.37566,-1.59164 -7.16949,-3.34398 -10.05572,-5.75704 -0.85335,-0.56047 -1.68726,-1.13015 -2.6271,-1.53768 z"
     id="path30"
     style="fill:url(#gradient_1);stroke-width:0.234085" />
  <path
     fill="#a0673b"
     d="m 159.46668,212.87566 c 0.20591,0.87676 0.72189,1.58187 1.17433,2.34509 0.95252,1.60958 2.06349,3.16781 2.93193,4.81977 2.88623,2.41306 6.68001,4.16546 10.05572,5.75704 l 0.20519,-0.1709 c -1.36375,-2.39934 -2.69335,-5.125 -4.40512,-7.28251 -3.45254,-0.80964 -7.22996,-3.29528 -9.96188,-5.46843 z"
     id="path31"
     style="stroke-width:0.234085" />
  <path
     fill="#7f4821"
     d="m 177.29087,219.94719 -7.86229,-1.6031 c 1.71176,2.15755 3.04135,4.88321 4.4051,7.28252 l -0.20519,0.17091 8.58988,3.04693 z"
     id="path32"
     style="stroke-width:0.234085" />
  <path
     fill="#7f4821"
     d="m 182.91486,230.21859 c -2.67155,-0.47459 -5.31796,-1.32322 -7.87495,-2.21396 0.62354,0.60704 1.02301,1.46468 1.44791,2.21907 l 2.52731,4.72173 c 0.57939,1.06953 1.57826,2.36863 1.81632,3.52691 l 7.23804,1.94415 c -0.35849,-1.11942 -0.96742,-2.19459 -1.49758,-3.24136 z"
     id="path33"
     style="stroke-width:0.234085" />
  <path
     fill="#6b6664"
     d="M 62.403988,69.238116 C 56.421547,70.434703 49.987973,69.465113 44.271744,67.501532 29.628253,62.471144 21.464932,49.175563 15.037931,36.003275 l -0.328443,-0.104842 c 0.685919,5.56729 1.869678,10.997425 4.04609,16.188811 0.713411,1.701329 1.775442,3.316819 2.4143,5.020711 l 1.839657,3.15668 c 2.140868,3.084688 4.520424,6.084551 7.455087,8.456254 3.904152,3.155046 8.666364,5.027004 13.570503,5.922087 6.852096,1.250508 13.246293,-0.06708 18.926411,-4.080899 l 0.225107,-0.166603 z"
     id="path34"
     style="stroke-width:0.234085" />
  <path
     fill="#3e3839"
     d="m 77.345524,93.59738 c -2.322082,1.088335 -4.737118,2.108916 -6.922116,3.455633 -4.821095,2.971337 -8.638511,7.361207 -10.590032,12.700007 -3.032883,8.29646 -0.460041,15.98768 3.090662,23.55739 l 1.401162,2.45363 5.777675,8.43221 c 3.02752,3.52788 6.342679,6.82832 9.924666,9.79397 0.599081,0.49583 1.661422,1.54977 2.420097,1.68212 0.107033,0.0191 0.194114,0.006 0.303629,-0.006 l -4.821057,-7.64725 -4.66368,-9.31585 c -4.116101,-8.95167 -8.39839,-20.46454 -5.584259,-30.38919 1.59624,-5.62853 5.819307,-9.742909 10.813668,-12.502285 -0.148956,-0.695289 -0.796123,-1.579371 -1.150415,-2.216527 z"
     id="path35"
     style="stroke-width:0.234085" />
  <path
     fill="#7f4821"
     d="m 124.21507,156.54035 0.30746,0.37494 c 1.13193,0.67712 2.35658,1.67879 3.27465,2.62385 l -0.006,0.032 -0.2551,0.0387 c 0.88063,1.76166 2.14954,3.40724 3.22209,5.06311 l 5.75886,8.85291 c 0.36392,0.53048 0.72455,1.07874 1.15504,1.55827 0.26112,0.29058 0.72946,0.64179 0.83126,1.01489 -0.17163,0.17259 -0.3191,0.22099 -0.3138,0.47887 0.0191,0.94724 1.66613,2.59128 2.2948,3.30338 0.12086,0.13666 0.59248,0.60297 0.61656,0.73077 l -0.22196,0.1467 c 0.48612,0.95203 1.17766,1.84047 1.71233,2.78208 l 5.27013,9.31568 c 0.65217,1.16582 1.46479,2.36027 1.99709,3.57249 2.75151,1.50132 5.46866,2.70298 8.42427,3.74588 l 9.0497,3.07399 c -0.47016,-0.96581 -1.16286,-1.86573 -1.75358,-2.76576 -0.72358,-1.10299 -1.35026,-2.28994 -2.39294,-3.12273 0.35798,0.0191 0.45778,0.087 0.7404,-0.14934 l -0.16993,-0.72282 c -0.13184,-0.0722 -0.34943,-0.16706 -0.44777,-0.27734 -0.28473,-0.31873 -0.50836,-0.42887 -0.80306,-0.70394 -0.42548,-0.39732 -1.02471,-0.67461 -1.39703,-1.08529 l -0.10857,-0.12461 c 0.0621,-0.52981 -11.06586,-18.24065 -12.17901,-20.2386 l 2.47344,1.66088 c -1.02817,-1.54775 -2.54179,-2.99166 -3.96099,-4.17054 l -11.40563,-7.7177 -10.09175,-6.62351 c -0.52346,-0.3076 -0.99828,-0.65993 -1.62306,-0.66747 z"
     id="path36"
     style="stroke-width:0.234085" />
  <path
     fill="#4a1d09"
     d="m 124.21507,156.54035 0.30746,0.37494 c 1.13193,0.67712 2.35658,1.67879 3.27465,2.62385 l -0.006,0.032 8.67448,6.4209 c 2.58884,1.45014 5.07422,3.14687 7.52663,4.81638 l 3.5711,2.46934 c 0.36496,0.23755 0.86107,0.65783 1.25762,0.78091 l 2.47344,1.66088 c -1.02828,-1.54778 -2.54188,-2.99169 -3.96106,-4.17057 L 135.92772,163.8313 125.836,157.20773 c -0.52347,-0.30757 -0.99829,-0.65991 -1.62309,-0.66743 z"
     id="path37"
     style="stroke-width:0.234085" />
  <path
     fill="#4a1d09"
     d="m 138.50549,176.09922 c -0.17163,0.17258 -0.31913,0.221 -0.31384,0.47886 0.0191,0.94723 1.66616,2.59131 2.29481,3.30341 0.12086,0.13664 0.59246,0.60294 0.61655,0.73075 l 10.21436,8.44026 11.87071,8.30808 c 0.358,0.0191 0.45778,0.087 0.74044,-0.14933 l -0.16997,-0.72286 c -0.13183,-0.0722 -0.34939,-0.16706 -0.44776,-0.27733 -0.28471,-0.31872 -0.50836,-0.42887 -0.80305,-0.70391 -0.42547,-0.39734 -1.02469,-0.67462 -1.39703,-1.08534 l -0.10856,-0.12459 -8.24853,-6.04744 c -1.66276,-1.25957 -3.49049,-2.5337 -5.00625,-3.96433 -3.26456,-2.5166 -6.52341,-5.06595 -9.24193,-8.18629 z"
     id="path38"
     style="stroke-width:0.234085" />
  <path
     fill="#7f4821"
     d="m 151.31747,189.05258 c 1.52366,2.71643 3.26271,5.34738 5.01624,7.9207 l 1.54067,2.18039 c 0.10067,0.14 0.44017,0.51273 0.46217,0.64613 0.0216,0.1246 -0.0343,0.25023 -0.0515,0.37531 l 9.04968,3.074 c -0.47012,-0.96579 -1.16284,-1.86573 -1.75354,-2.76576 -0.72359,-1.10297 -1.35029,-2.28991 -2.39295,-3.12272 z"
     id="path39"
     style="stroke-width:0.234085" />
  <path
     fill="#a0673b"
     d="m 141.10311,180.61229 -0.22197,0.14672 c 0.48613,0.95202 1.17767,1.84045 1.71235,2.78208 l 5.27016,9.31565 c 0.65214,1.16583 1.46474,2.36029 1.99706,3.57251 2.7515,1.50131 5.46865,2.70296 8.42426,3.74586 0.0168,-0.12512 0.0722,-0.25076 0.0515,-0.3753 -0.0216,-0.1335 -0.36139,-0.50608 -0.46216,-0.64616 l -1.54069,-2.18037 c -1.75353,-2.57332 -3.49258,-5.20427 -5.01622,-7.9207 z"
     id="path40"
     style="stroke-width:0.234085" />
  <path
     fill="#a0673b"
     d="m 127.79332,159.57116 -0.25509,0.0387 c 0.88062,1.76166 2.14954,3.40724 3.22208,5.06311 l 5.75887,8.8529 c 0.36392,0.53048 0.72454,1.07877 1.15503,1.55827 0.26114,0.29059 0.72946,0.6418 0.83128,1.0149 2.7185,3.12034 5.97736,5.66971 9.24192,8.18629 l 0.31847,0.0283 c -0.65023,-1.40502 -1.92722,-2.80642 -2.77989,-4.14021 -3.00377,-4.69803 -6.13978,-9.28215 -8.81818,-14.18142 z"
     id="path41"
     style="stroke-width:0.234085" />
  <path
     fill="#6b6664"
     d="m 184.28515,259.16929 -2.36079,0.23707 3.09174,4.60627 c 1.04781,2.04254 1.80407,3.96452 2.63447,6.08254 0.38007,0.96891 0.94495,1.61288 0.82133,2.7104 0.2306,0.0323 1.90125,0.50465 1.94447,0.48821 l 1.07565,0.42394 c 2.97892,-0.46623 5.80241,-0.8636 8.62482,-1.98413 1.75505,-0.76191 3.39514,-1.60933 5.0044,-2.64715 1.37615,-0.857 2.79567,-1.75736 3.89385,-2.9658 l 1.66363,-1.2767 c 0.60125,-0.4283 1.0838,-0.99403 1.5847,-1.53158 l 2.17895,-3.24651 -7.67911,-11.51457 c -0.73858,-0.002 -1.32967,0.0398 -2.03984,0.25697 0.0116,0.15821 0.0116,0.29562 -0.0476,0.44623 -0.21526,0.5297 -0.752,1.04976 -1.13384,1.4705 -1.8223,1.99074 -4.34381,3.49659 -6.78386,4.59092 -1.04292,0.66136 -2.49317,1.14452 -3.64259,1.6133 l -0.95316,-0.41715 -2.45624,0.80476 c -1.4823,0.44154 -3.13962,0.6368 -4.66871,0.91824 l -1.90546,0.29351 z"
     id="path42"
     style="stroke-width:0.234085" />
  <path
     fill="#3e3839"
     d="m 204.86734,268.42517 c -3.22407,1.74666 -6.5104,3.35375 -10.14249,4.04757 -1.41834,0.27162 -2.86053,0.3195 -4.28627,0.54521 l -0.0216,0.27586 1.07565,0.42391 c 2.97892,-0.4662 5.80241,-0.86358 8.62483,-1.9841 1.75505,-0.76192 3.39515,-1.60936 5.00441,-2.64715 1.37615,-0.85699 2.79565,-1.75737 3.89383,-2.96578 -1.46842,0.58368 -2.64851,1.72431 -4.14775,2.30434 z"
     id="path43"
     style="stroke-width:0.234085" />
  <defs
     id="defs44">
    <linearGradient
       id="gradient_2"
       gradientUnits="userSpaceOnUse"
       x1="776.90399"
       y1="1268.3417"
       x2="860.62799"
       y2="1230.1453"
       gradientTransform="matrix(-0.12326091,0.19900355,0.19900355,0.12326091,47.797796,-55.564933)">
      <stop
         offset="0"
         stop-color="#626F7C"
         id="stop43" />
      <stop
         offset="1"
         stop-color="#7E8C95"
         id="stop44" />
    </linearGradient>
  </defs>
  <path
     fill="url(#gradient_2)"
     d="m 193.65452,257.71244 c -0.70829,0.55225 -1.68116,0.776 -2.53414,1.01948 -2.58502,0.73713 -5.14105,1.12957 -7.82584,1.22307 0.79423,0.75819 1.18197,1.50139 1.62458,2.49837 1.09017,2.02748 2.11188,4.12104 2.96862,6.25867 0.21646,0.53962 0.6833,2.50212 1.01595,2.87639 0.175,0.19799 0.63994,0.43381 0.87259,0.59167 1.16308,0.17163 2.42569,0.0448 3.60084,0.0143 l -6.19806,-11.46509 c 2.92704,-0.13783 5.34567,-0.81544 8.09385,-1.80248 1.43495,-0.51636 3.00179,-1.09883 4.24401,-2.00189 l 4.37394,-2.84738 c -0.19296,-0.2888 -0.36156,-0.53207 -0.6337,-0.75955 -3.21737,1.75359 -6.08478,3.28009 -9.60264,4.39408 z"
     id="path44"
     style="fill:url(#gradient_2);stroke-width:0.234085" />
  <path
     fill="#40494f"
     d="m 199.51694,256.92526 c 0.79615,1.23962 1.30797,2.69385 1.90137,4.03858 l 3.44903,7.46133 c 1.49923,-0.58006 2.67933,-1.72069 4.14775,-2.30436 l 1.66365,-1.27673 c -0.35497,-1.20505 -1.61554,-2.53514 -2.32823,-3.62063 l -4.45963,-7.14554 z"
     id="path45"
     style="stroke-width:0.234085" />
  <path
     fill="#3e3839"
     d="m 185.03718,258.23518 -1.90544,0.29352 1.15341,0.64063 c 0.90944,-0.0856 2.11164,-0.0484 2.96626,-0.33479 1.47426,-0.033 2.99588,-0.41802 4.43037,-0.74236 0.63093,-0.14286 1.32686,-0.37732 1.97272,-0.37987 3.51785,-1.11401 6.38528,-2.64051 9.60264,-4.39412 0.27212,0.22748 0.44085,0.47077 0.63372,0.75956 l 4.45963,7.14556 c 0.71269,1.08549 1.97324,2.41557 2.3282,3.62063 0.60126,-0.4283 1.08383,-0.99401 1.58473,-1.53156 l 2.17893,-3.24653 -7.67911,-11.51455 c -0.73856,-0.002 -1.32967,0.0398 -2.03984,0.25697 0.0116,0.1582 0.0116,0.29563 -0.0476,0.44626 -0.21525,0.52969 -0.752,1.04972 -1.13385,1.47047 -1.8223,1.99074 -4.34381,3.49662 -6.78385,4.59092 -1.04292,0.66139 -2.49318,1.14453 -3.64259,1.6133 l -0.95316,-0.41716 -2.45625,0.8048 c -1.48227,0.44153 -3.13959,0.6368 -4.66872,0.91823 z"
     id="path46"
     style="stroke-width:0.234085" />
  <path
     fill="#53270a"
     d="m 185.03718,258.23518 -1.90544,0.29352 1.15341,0.64063 c 0.90944,-0.0856 2.11164,-0.0484 2.96626,-0.33479 l 5.86386,-1.90527 -0.95317,-0.41717 -2.45623,0.80478 c -1.48229,0.44154 -3.13963,0.6368 -4.66871,0.91824 z"
     id="path47"
     style="stroke-width:0.234085" />
  <path
     fill="#40494f"
     d="m 92.65621,108.75675 c -0.644709,0.93777 -1.016142,1.79618 -1.329242,2.88759 0.81943,2.14587 2.398934,4.19778 3.643247,6.11642 0.841521,1.29799 1.845517,3.18456 3.048716,4.15916 1.283779,0.18169 2.493809,0.15173 3.747109,-0.21452 l 0.10912,0.0191 c 0.32257,-0.14455 0.65525,-0.33372 1.00986,-0.37236 l 1.23098,1.1796 c 2.49624,0.12512 4.83736,-1.76403 7.19643,-2.25949 l 0.0571,-0.073 c -0.54169,-0.30356 -1.02091,-1.23203 -1.35581,-1.75423 l 1.00819,-0.40122 c 3.56863,-1.44049 7.11587,-3.3243 10.3008,-5.48653 0.81894,-0.65582 1.32153,-1.93 1.45058,-2.93413 l -3.93156,-7.77806 c -0.53445,-0.96158 -1.03893,-2.129315 -1.82913,-2.891358 -0.82719,-0.360075 -1.63656,-0.208292 -2.45381,0.101226 l -1.15294,0.597078 -1.16768,0.459114 -18.34715,8.37579 c -0.469133,0.24085 -0.706191,0.34928 -1.234669,0.27031 z"
     id="path48"
     style="stroke-width:0.234085" />
  <path
     fill="#3e3839"
     d="m 114.55867,99.054463 -1.15294,0.597078 0.13113,0.03526 c 0.69451,0.177624 2.22461,-0.01435 2.73911,0.274411 0.0498,0.02781 0.26824,0.440938 0.30192,0.496788 1.09897,1.81814 4.91486,8.24394 4.3568,10.21809 -0.45952,1.62521 -7.16074,5.11277 -8.87736,5.95932 -0.63189,0.26668 -1.13274,0.45956 -1.82717,0.49338 -2.79916,1.65719 -5.58243,2.95797 -8.69885,3.89381 l 0.23491,0.68291 0.10912,0.0191 c 0.32256,-0.14479 0.65526,-0.33372 1.00988,-0.37238 l 1.23097,1.17962 c 2.49622,0.12512 4.83737,-1.76403 7.19643,-2.25949 l 0.0571,-0.073 c -0.54168,-0.30366 -1.02089,-1.23214 -1.35583,-1.75431 l 1.0082,-0.40123 c 3.5686,-1.44049 7.11585,-3.32434 10.30079,-5.48653 0.81896,-0.65584 1.32154,-1.93002 1.4506,-2.93411 l -3.93159,-7.7781 c -0.53446,-0.96158 -1.03896,-2.129328 -1.82917,-2.89136 -0.82714,-0.360087 -1.63653,-0.208303 -2.45376,0.101226 z"
     id="path49"
     style="stroke-width:0.234085" />
  <path
     fill="#703b14"
     d="m 110.0136,118.44463 c -2.27549,1.19539 -4.72756,2.00414 -7.12858,2.907 l 1.23096,1.17961 c 2.49622,0.12512 4.83736,-1.76403 7.19642,-2.25948 l 0.0571,-0.073 c -0.54163,-0.30354 -1.02088,-1.23202 -1.3558,-1.7542 z"
     id="path50"
     style="stroke-width:0.234085" />
  <path
     fill="#75797a"
     d="m 110.06634,103.04694 -6.52926,2.29192 c -1.8214,0.65034 -9.2242,3.38033 -9.917855,4.84208 0.03738,2.01887 4.397826,7.94956 5.827148,9.60639 0.887737,0.17883 2.290887,-0.4187 3.149947,-0.70801 l -1.62574,-3.84526 c -0.62474,-1.31902 -2.296328,-3.66147 -2.134366,-5.1268 1.672506,-2.80823 6.366196,-4.40076 9.173056,-5.86013 0.65559,-0.34095 1.53444,-0.67335 2.05707,-1.20017 z"
     id="path51"
     style="stroke-width:0.234085" />
  <defs
     id="defs52">
    <linearGradient
       id="gradient_3"
       gradientUnits="userSpaceOnUse"
       x1="439.87656"
       y1="610.50824"
       x2="511.21613"
       y2="569.95337"
       gradientTransform="matrix(-0.12326091,0.19900355,0.19900355,0.12326091,47.797796,-55.564933)">
      <stop
         offset="0"
         stop-color="#404B52"
         id="stop51" />
      <stop
         offset="1"
         stop-color="#656E73"
         id="stop52" />
    </linearGradient>
  </defs>
  <path
     fill="url(#gradient_3)"
     d="m 110.06634,103.04694 c -0.52265,0.52684 -1.40148,0.85922 -2.05707,1.20017 -2.80686,1.45939 -7.50057,3.0519 -9.173056,5.86015 -0.16204,1.46531 1.509626,3.80776 2.134366,5.1268 l 1.62574,3.84526 c -0.85906,0.28928 -2.26221,0.8867 -3.149947,0.70801 l 0.07408,0.0674 c 0.210473,0.19465 0.367139,0.37776 0.538367,0.60719 0.25424,0.34082 0.56185,0.47325 0.94142,0.64063 l 0.53089,-0.0801 c 3.11646,-0.93583 5.89971,-2.23661 8.69884,-3.89379 1.03065,-0.6913 2.12295,-1.40966 2.87423,-2.41855 0.47792,-0.64182 1.13489,-1.58246 1.30073,-2.3592 0.33281,-1.55888 -1.62374,-4.61754 -2.31691,-6.00703 -0.16011,-0.32113 -0.69295,-1.12088 -0.72349,-1.44543 -0.0168,-0.17571 0.23131,-0.51178 0.32399,-0.67026 0.37771,-0.64525 1.46632,-2.09613 1.37176,-2.76321 -0.91055,0.18936 -1.59681,0.82826 -2.48039,1.14033 l -0.22102,0.0762 z"
     id="path52"
     style="fill:url(#gradient_3);stroke-width:0.234085" />
  <path
     fill="#7f4821"
     d="m 48.180486,51.573502 -0.615866,0.336382 c 0.323189,0.534452 13.165644,7.338535 14.811925,8.227714 l 0.05999,-0.01266 1.495969,0.86379 c 0.675027,0.315386 1.307713,0.629363 1.923862,1.050928 l 18.659988,-7.978001 c 0.797568,-0.357654 3.730739,-1.383029 4.163809,-2.066672 l 0.04438,-0.307644 c 0.260463,-1.835542 1.948379,-15.938463 1.496032,-16.539147 l -0.956308,0.398379 -37.372288,14.66277 -0.01266,-0.0081 z"
     id="path53"
     style="stroke-width:0.234085" />
  <path
     fill="#4a1d09"
     d="m 62.436541,60.125194 1.495956,0.863791 c 0.675041,0.315386 1.307713,0.629363 1.923875,1.050929 l 18.659989,-7.978002 c 0.797567,-0.357653 3.730733,-1.383042 4.163803,-2.066675 l 0.04438,-0.307642 C 88.98501,49.85208 90.672926,35.749157 90.220579,35.148477 l -0.956319,0.39838 c -2.194936,5.422357 -3.308144,11.184571 -4.467609,16.886754 l -11.196619,4.9515 c -2.524845,1.091622 -5.28049,2.509195 -8.012484,2.95237 -1.02837,0.167089 -1.990706,-0.381101 -2.934884,-0.248619 z"
     id="path54"
     style="stroke-width:0.234085" />
  <path
     fill="#a0673b"
     d="m 51.891934,50.20963 -0.01266,-0.0081 -3.698962,1.372161 c 1.201381,0.508968 2.487582,0.751631 3.731566,1.132245 l 12.705598,3.383728 c 1.336531,0.315661 13.044158,-5.543542 15.070156,-6.732671 -2.284952,-0.640438 -4.596294,-1.056017 -6.923156,-1.508753 -1.031528,-0.200824 -2.179836,-0.556328 -3.231031,-0.566692 -1.950341,-0.01918 -4.282658,0.757285 -6.211847,1.184192 l -8.164153,1.682667 c -0.832112,0.165826 -2.761744,0.849055 -3.265688,0.06138 z"
     id="path55"
     style="stroke-width:0.234085" />
  <path
     fill="#91572c"
     d="m 200.11686,271.73375 c -2.82243,1.12043 -5.64592,1.51792 -8.62484,1.98411 0.28664,0.31518 0.58953,0.60415 0.74535,1.00601 l 2.3243,10.96209 c 0.0355,0.22245 0.35268,2.5424 0.41682,2.5945 l 1.43497,0.86627 0.32004,0.14118 c 0.56695,0.44946 1.09844,0.84943 1.74557,1.18278 2.52943,1.19306 4.89596,1.98231 7.69909,2.25783 3.46159,0.34604 7.68903,-0.0819 10.44483,-2.42852 l 0.15701,-0.13783 0.14695,0.0343 c 0.93857,-1.03082 1.93635,-2.03269 2.74813,-3.16989 2.07911,-2.91649 3.04029,-6.20664 3.71788,-9.68344 l -0.0616,-0.0963 0.595,-4.39253 c -4.24734,-2.89618 -7.96806,-5.97122 -11.66292,-9.54153 -0.50097,0.5375 -0.98344,1.10327 -1.5847,1.53157 l -1.66365,1.27671 c -1.09818,1.20845 -2.51768,2.10877 -3.89383,2.9658 -1.60928,1.03777 -3.24935,1.88524 -5.00442,2.64713 z"
     id="path56"
     style="stroke-width:0.234085" />
  <path
     fill="#a0673b"
     d="m 192.23737,274.72387 2.3243,10.96209 c 0.0355,0.22245 0.35268,2.5424 0.41682,2.5945 l 1.43497,0.86627 0.32004,0.14118 c 0.56695,0.44946 1.09844,0.84943 1.74557,1.18278 2.52943,1.19306 4.89596,1.98231 7.69909,2.25783 -0.76447,-6.0342 -2.91872,-11.89173 -4.97667,-17.58468 -0.40121,0.0343 -0.84502,0.18627 -1.24039,0.27776 -1.69114,-0.21692 -3.87393,0.0395 -5.5877,0.18361 -0.69642,0.0795 -1.53003,-0.53937 -2.13598,-0.88137 z"
     id="path57"
     style="stroke-width:0.234085" />
  <path
     fill="#91572c"
     d="m 194.37338,275.60523 c 0.8276,3.35836 1.70214,6.6764 2.1148,10.11781 0.13569,1.1369 0.35276,2.43123 0.24531,3.5649 0.56694,0.44946 1.09843,0.84942 1.74556,1.18278 -0.32897,-4.5901 -1.28043,-9.86451 -2.80394,-14.21093 1.36837,-0.14646 2.86868,-0.21262 4.1391,-0.76989 l 0.14695,-0.0681 c -1.69116,-0.21715 -3.87395,0.0396 -5.5877,0.18363 z"
     id="path58"
     style="stroke-width:0.234085" />
  <path
     fill="#7f4821"
     d="m 192.23737,274.72387 2.3243,10.96209 c 0.0355,0.22245 0.35268,2.5424 0.41682,2.5945 l 1.43497,0.86627 0.32004,0.14118 c 0.10746,-1.1337 -0.10979,-2.42797 -0.24529,-3.56489 -0.41268,-3.44142 -1.28722,-6.75945 -2.11481,-10.11781 -0.69644,0.0795 -1.53003,-0.53937 -2.136,-0.88137 z"
     id="path59"
     style="stroke-width:0.234085" />
  <path
     fill="#703b14"
     d="m 200.11686,271.73375 c -2.82243,1.12043 -5.64592,1.51792 -8.62484,1.98411 0.28664,0.31518 0.58953,0.60415 0.74535,1.00601 0.60597,0.34201 1.43959,0.96108 2.13601,0.88136 1.71377,-0.14405 3.89656,-0.40057 5.58768,-0.18361 0.39539,-0.0915 0.83917,-0.24354 1.24037,-0.27774 l 0.0883,-0.11983 2.23022,-0.94672 c 1.09227,-0.52316 2.22433,-1.23949 3.17674,-1.98583 1.05769,1.51089 10.13224,17.06291 10.08347,18.07077 l 0.14695,0.0343 c 0.93856,-1.03082 1.93635,-2.03269 2.7481,-3.16988 2.07913,-2.91654 3.04032,-6.20664 3.71791,-9.68341 l -0.0616,-0.0963 0.59497,-4.39256 c -4.24731,-2.89619 -7.96804,-5.97121 -11.66291,-9.54152 -0.50098,0.53749 -0.98346,1.10326 -1.58471,1.53157 l -1.66365,1.2767 c -1.09816,1.20843 -2.51769,2.10878 -3.89384,2.96579 -1.60928,1.0378 -3.24934,1.88525 -5.0044,2.64715 z"
     id="path60"
     style="stroke-width:0.234085" />
  <path
     fill="#53270a"
     d="m 209.01509,266.12081 c -1.09818,1.20844 -2.51768,2.10876 -3.89383,2.96579 l 1.61697,2.85297 0.15197,-0.0856 c 1.70685,-0.96412 3.49664,-2.31115 4.97637,-3.59327 l 11.46479,8.98569 0.59497,-4.39256 c -4.24733,-2.89618 -7.96806,-5.97122 -11.66291,-9.54153 -0.50097,0.53749 -0.98345,1.10327 -1.5847,1.53157 z"
     id="path61"
     style="stroke-width:0.234085" />
  <path
     fill="#53270a"
     d="m 104.11598,122.53124 -0.46741,-0.0361 c 0.11034,0.98062 0.91509,1.89978 1.46162,2.69785 0.58244,0.85032 1.11101,1.72978 1.61368,2.62927 0.10545,0.18864 0.43657,0.65016 0.42687,0.85476 l -0.0396,0.39732 c 0.8674,0.84372 1.7806,1.71032 2.77085,2.40682 l -0.006,0.0577 -0.29521,0.0476 3.51299,6.07953 -0.26452,0.0116 c 0.2933,0.79076 1.74444,1.86744 2.37202,2.48524 0.14407,0.14191 0.52136,0.44217 0.58853,0.62668 l 12.13254,9.03005 c 2.05358,4.78378 5.624,8.91637 7.94256,13.55286 0.0986,0.19705 0.11013,0.25162 0.0635,0.45878 l 11.40566,7.71766 c 1.41918,1.1789 2.93279,2.62279 3.96105,4.17056 l -2.47343,-1.66089 c 1.11316,1.99791 12.24117,19.70875 12.179,20.23856 l 0.1089,0.12473 c 0.3723,0.41071 0.97155,0.68797 1.39702,1.08533 0.29472,0.27506 0.51836,0.3852 0.80308,0.70391 0.0982,0.11024 0.31589,0.20517 0.44775,0.27734 l 0.16995,0.72284 c -0.28265,0.23634 -0.38244,0.16852 -0.7404,0.14934 1.04266,0.83279 1.66935,2.01974 2.39295,3.1227 0.5907,0.9001 1.28341,1.79999 1.75354,2.76578 1.41169,0.4104 3.13208,0.86915 4.60827,0.63307 l -49.26554,-88.44516 -1.35486,-2.88006 c -3.18492,2.16222 -6.73214,4.04607 -10.30078,5.48656 l -1.0082,0.40121 c 0.33495,0.52216 0.81416,1.45065 1.35581,1.75423 l -0.0571,0.073 c -2.35906,0.49544 -4.70022,2.38453 -7.19643,2.25945 z"
     id="path62"
     style="stroke-width:0.234085" />
  <path
     fill="#7f4821"
     d="m 127.9237,149.81971 c 2.05357,4.7838 5.624,8.9164 7.94255,13.55289 0.0985,0.19704 0.11023,0.25162 0.0635,0.45877 l 11.40566,7.71767 c -0.23801,-0.76123 -0.75373,-1.51873 -1.15174,-2.21517 l -2.47738,-4.21335 c -1.63772,-2.75901 -3.18999,-5.55102 -4.46995,-8.49594 z"
     id="path63"
     style="stroke-width:0.234085" />
  <path
     fill="#a0673b"
     d="m 109.87736,131.53877 -0.29523,0.0476 3.51299,6.07957 -0.26448,0.0116 c 0.29333,0.79074 1.74441,1.86743 2.37201,2.48524 0.14405,0.1419 0.52134,0.44213 0.58852,0.62667 l 12.13255,9.03002 11.31267,6.80486 4.10986,2.15656 c -1.39715,-1.37453 -3.20827,-2.25674 -4.69602,-3.53565 l -0.1582,-0.13758 c -0.27503,-1.28884 -1.31448,-2.68962 -1.94948,-3.85116 l -3.23236,-6.06049 -10.30625,-5.48373 z"
     id="path64"
     style="stroke-width:0.234085" />
  <path
     fill="#4a1d09"
     d="m 113.09512,137.66595 -0.26448,0.0116 c 0.29333,0.79075 1.74441,1.86741 2.37201,2.48525 0.14405,0.1419 0.52134,0.44213 0.58852,0.62666 l 12.13255,9.03003 11.31269,6.80485 4.10984,2.15654 c -1.39715,-1.3744 -3.20825,-2.25663 -4.69602,-3.53554 l -0.1582,-0.13759 -11.62723,-7.7996 c -4.64495,-2.86856 -9.75306,-5.94514 -13.76971,-9.64234 z"
     id="path65"
     style="stroke-width:0.234085" />
  <path
     fill="#7f4821"
     d="m 123.00399,139.71251 3.86085,7.59576 11.62722,7.7996 c -0.27502,-1.28884 -1.31449,-2.68959 -1.94948,-3.85114 l -3.23238,-6.06048 z"
     id="path66"
     style="stroke-width:0.234085" />
  <path
     fill="#7f4821"
     d="m 104.11598,122.53124 -0.46741,-0.0361 c 0.11034,0.98062 0.91509,1.89978 1.46162,2.69785 0.58244,0.85032 1.11101,1.72978 1.61368,2.62927 0.10545,0.18864 0.43657,0.65016 0.42687,0.85476 l -0.0396,0.39732 c 0.8674,0.84372 1.7806,1.71032 2.77085,2.40682 l -0.006,0.0577 13.12661,8.17373 10.30625,5.48373 c 0.5417,-0.0637 2.14932,0.91053 2.70056,1.18038 l -3.56215,-2.79453 -0.11531,-0.11112 c -1.02172,-2.46034 -2.48477,-4.8865 -3.67633,-7.286 -3.17383,-6.39016 -6.35201,-12.9116 -8.54149,-19.71556 l -8.74611,3.72958 -0.0571,0.073 c -2.35909,0.49548 -4.70023,2.38458 -7.19644,2.25948 z"
     id="path67"
     style="stroke-width:0.234085" />
  <path
     fill="#91572c"
     d="m 104.11598,122.53124 -0.46741,-0.0361 c 0.11034,0.98062 0.91509,1.89978 1.46162,2.69785 0.58244,0.85032 1.11101,1.72978 1.61368,2.62927 0.10545,0.18864 0.43657,0.65016 0.42687,0.85476 l -0.0396,0.39732 c 0.8674,0.84372 1.7806,1.71032 2.77085,2.40682 l -0.006,0.0577 13.12661,8.17373 10.30625,5.48373 c 0.5417,-0.0637 2.14932,0.91053 2.70056,1.18038 l -3.56215,-2.79453 -0.11531,-0.11112 -11.48724,-6.70619 1.13258,0.38045 c -0.76632,-1.9907 -2.29553,-3.89306 -3.48004,-5.67307 -2.43213,-3.65473 -5.06605,-7.35843 -7.18624,-11.20023 -2.35909,0.49545 -4.70022,2.38454 -7.19645,2.25949 z"
     id="path68"
     style="stroke-width:0.234085" />
  <path
     fill="#4a1d09"
     d="m 107.15074,128.67693 -0.0396,0.39731 c 0.86737,0.84373 1.7806,1.71033 2.77083,2.40684 l -0.006,0.0577 13.12664,8.17373 10.30624,5.48372 c 0.5417,-0.0637 2.14932,0.91055 2.70056,1.1804 l -3.56215,-2.79453 -0.11531,-0.11113 -11.48727,-6.70619 c -1.27493,-0.93139 -2.95556,-1.62818 -4.35288,-2.38269 -3.18596,-1.72059 -6.44302,-3.52735 -9.34259,-5.70499 z"
     id="path69"
     style="stroke-width:0.234085" />
  <defs
     id="defs70">
    <linearGradient
       id="gradient_4"
       gradientUnits="userSpaceOnUse"
       x1="769.17871"
       y1="469.91077"
       x2="465.81488"
       y2="290.91141"
       gradientTransform="matrix(-0.12326091,0.19900355,0.19900355,0.12326091,47.797796,-55.564933)">
      <stop
         offset="0"
         stop-color="#7A7876"
         id="stop69" />
      <stop
         offset="1"
         stop-color="#D2D4D1"
         id="stop70" />
    </linearGradient>
  </defs>
  <path
     fill="url(#gradient_4)"
     d="m 22.253378,72.475593 -6.259966,0.708849 c -1.462845,0.119836 -2.986528,0.155321 -4.422493,0.466941 1.806535,11.784633 5.657972,23.496571 11.37012,33.973707 1.154707,2.11758 2.339693,4.35387 3.819806,6.26438 1.427518,2.64891 3.525766,5.15869 5.382359,7.53229 12.551859,16.04824 31.238136,29.04482 50.773111,34.92003 l 0.259677,-0.12731 c -0.116791,-0.15559 -0.273346,-0.43669 -0.424725,-0.54617 -0.109446,0.008 -0.196661,0.024 -0.303629,0.006 -0.758675,-0.13231 -1.821029,-1.18629 -2.420109,-1.68209 -3.581987,-2.96567 -6.897134,-6.26609 -9.924654,-9.79396 l -5.777675,-8.4322 c -0.623617,0.0465 -1.762429,-0.86391 -2.315146,-1.21453 -0.647104,-0.50983 -1.302881,-0.7745 -1.96211,-1.22433 -1.364512,-0.93108 -2.680202,-1.9597 -3.932854,-3.03624 C 50.106604,125.12764 44.944936,118.75492 40.350576,112.3283 L 36.26569,106.38215 C 29.587809,95.974422 24.349117,84.729347 22.253378,72.476728 Z"
     id="path70"
     style="fill:url(#gradient_4);stroke-width:0.234085" />
  <path
     fill="#75797a"
     d="m 62.010067,134.54951 -1.289325,-0.64439 c 1.514089,2.68517 3.583026,5.24896 5.754024,7.43016 1.070661,1.07564 2.233642,2.21342 3.628109,2.86097 L 64.3252,135.76404 c -0.623617,0.0465 -1.762417,-0.86392 -2.315133,-1.21453 z"
     id="path71"
     style="stroke-width:0.234085" />
  <defs
     id="defs72">
    <linearGradient
       id="gradient_5"
       gradientUnits="userSpaceOnUse"
       x1="254.6996"
       y1="1019.3943"
       x2="228.24765"
       y2="330.26346"
       gradientTransform="matrix(-0.06444382,0.07337389,0.07337389,0.06444382,26.652268,-12.064007)">
      <stop
         offset="0"
         stop-color="#525151"
         id="stop71" />
      <stop
         offset="1"
         stop-color="#928F8B"
         id="stop72" />
    </linearGradient>
  </defs>
  <path
     fill="#a0a09d"
     d="m 63.932497,60.988985 c 0.434362,0.283428 1.282655,0.66094 1.456097,1.134853 l -4.469974,2.161767 c -0.395516,0.208227 -0.995536,0.434108 -1.249417,0.802221 l 0.400262,0.589632 c 0.672099,0.899807 2.290379,2.517009 2.334523,3.560684 l 0.782655,1.157427 14.158868,23.201811 c 0.354305,0.637178 1.00146,1.521238 1.150428,2.216516 0.603518,0.351265 0.967269,1.297684 1.290568,1.907109 1.03556,1.952093 1.913439,4.183185 3.117711,6.017555 l 0.657958,1.37789 0.344287,0.11983 c 1.533581,-0.63421 3.916238,-1.96618 5.553397,-1.97894 l 1.785115,2.7344 c 0.49386,0.86128 1.16361,1.80092 1.411269,2.76495 0.528477,0.0789 0.765546,-0.0295 1.234668,-0.2703 l 18.347138,-8.37578 1.16768,-0.459103 1.15294,-0.5971 -2.45575,-4.267421 c 0.33103,-0.564018 2.59404,-1.19222 3.26385,-1.436531 l -4.16179,-6.179904 -1.33519,-1.887954 c -1.33046,-1.578247 -2.41528,-3.574357 -3.45247,-5.357548 -3.95466,-6.798361 -7.623988,-14.442363 -9.036547,-22.22198 -0.166356,-0.914959 -0.42763,-1.749279 0.126799,-2.551044 -1.123241,-1.258827 -2.029069,-2.867318 -3.006401,-4.251909 -0.34725,-0.492074 -0.705412,-1.18257 -1.241543,-1.476373 -0.455606,0.09804 -0.941691,0.501885 -1.342045,0.74816 -1.031894,0.634623 -2.10222,1.396622 -3.237408,1.823258 -0.433014,0.68367 -3.36625,1.709021 -4.163804,2.066674 L 65.856382,62.039838 C 65.24022,61.618272 64.607534,61.304319 63.932506,60.988909 Z"
     id="path73"
     style="stroke-width:0.234085" />
  <path
     fill="#6b6664"
     d="m 93.259617,49.423823 -0.559602,2.423404 c -0.248315,1.261516 -0.799318,2.959738 -0.73717,4.209499 0.06385,1.283746 0.72113,2.906083 1.100071,4.136467 2.410103,7.822821 5.880542,14.865065 9.865574,21.980731 1.64283,2.93343 3.24354,5.963325 5.12856,8.74803 l 1.92624,2.686594 c -4.44406,0.728916 -8.36426,2.21735 -12.525341,3.828368 -3.191622,1.235925 -6.51544,2.53233 -9.4463,4.314134 -0.989556,0.6014 -3.823964,2.34219 -4.105186,3.48526 1.533581,-0.63419 3.916238,-1.96613 5.553397,-1.97889 l 1.785115,2.7344 c 0.49386,0.86127 1.163587,1.8009 1.411235,2.76493 0.528511,0.0789 0.765558,-0.0296 1.234702,-0.2703 l 18.347138,-8.3758 1.16768,-0.459109 1.15294,-0.597078 -2.45575,-4.267422 c 0.33103,-0.564018 2.59404,-1.19222 3.26385,-1.436519 l -4.16179,-6.179893 -1.33519,-1.887954 c -1.33046,-1.578247 -2.4153,-3.574357 -3.45247,-5.357548 -3.95466,-6.798361 -7.62401,-14.442365 -9.036547,-22.221981 -0.166356,-0.914973 -0.42763,-1.749278 0.126799,-2.551058 -1.123241,-1.258813 -2.029069,-2.867308 -3.006401,-4.251899 -0.34725,-0.492073 -0.705412,-1.182569 -1.241543,-1.476371 z"
     id="path74"
     style="stroke-width:0.234085" />
  <path
     fill="#75797a"
     d="m 92.700015,51.847227 c -0.248315,1.261516 -0.799318,2.959738 -0.73717,4.209499 0.06385,1.283746 0.72113,2.906083 1.100071,4.136467 2.410103,7.822821 5.880542,14.865065 9.865574,21.980731 1.64283,2.93343 3.24354,5.963325 5.12856,8.74803 l 1.92624,2.686594 c 0.75654,0.0168 1.55974,-0.211907 2.30279,-0.362345 -2.64176,-4.89757 -5.84323,-9.48669 -8.69066,-14.262445 -2.95024,-4.947616 -5.387653,-10.171507 -7.387612,-15.57219 -1.377842,-3.720911 -2.621898,-7.538227 -3.074723,-11.498476 l -0.01669,-0.153384 z"
     id="path75"
     style="stroke-width:0.234085" />
  <defs
     id="defs76">
    <linearGradient
       id="gradient_6"
       gradientUnits="userSpaceOnUse"
       x1="400.80075"
       y1="564.51709"
       x2="491.52264"
       y2="534.61029"
       gradientTransform="matrix(-0.12326091,0.19900355,0.19900355,0.12326091,47.797796,-55.564933)">
      <stop
         offset="0"
         stop-color="#481E06"
         id="stop75" />
      <stop
         offset="1"
         stop-color="#663917"
         id="stop76" />
    </linearGradient>
  </defs>
  <path
     fill="url(#gradient_6)"
     d="m 89.45986,103.25742 1.785115,2.7344 c 0.49386,0.86127 1.163587,1.8009 1.411235,2.76493 0.528511,0.0789 0.765558,-0.0296 1.234702,-0.2703 l 18.347138,-8.3758 1.16768,-0.459109 1.15294,-0.597078 -2.45575,-4.267422 c -0.99458,0.582828 -2.60005,0.862768 -3.71954,1.181808 l -6.69194,2.058448 c -2.278571,0.798061 -4.508236,1.7523 -6.690446,2.782413 -1.8303,0.86428 -3.60992,1.8219 -5.541134,2.44771 z"
     id="path76"
     style="fill:url(#gradient_6);stroke-width:0.234085" />
  <path
     fill="#7f4821"
     d="m 91.244975,105.99182 c 0.49386,0.86127 1.163587,1.8009 1.411235,2.76493 0.528511,0.0789 0.765558,-0.0296 1.234702,-0.2703 l 18.347138,-8.3758 c -0.40814,-0.165142 -0.84618,-0.34845 -1.2828,-0.414859 -1.06865,-0.162752 -2.27662,-0.01001 -3.34556,0.097 -4.30608,0.426139 -8.12316,1.807179 -11.964231,3.754649 -1.271076,0.64425 -2.555234,1.24653 -3.732937,2.05519 z"
     id="path77"
     style="stroke-width:0.234085" />
  <path
     fill="#bebebc"
     d="m 60.069465,65.677447 c 0.672112,0.899818 2.290379,2.51702 2.334523,3.560669 l 0.782655,1.157453 14.158881,23.201811 c 0.354292,0.637145 1.001447,1.521238 1.150415,2.216516 0.603518,0.351265 0.967282,1.297684 1.290582,1.907109 1.035546,1.952071 1.913425,4.183185 3.117709,6.017555 0.582886,-0.82103 1.462947,-1.46795 2.158164,-2.20537 0.793801,-0.84238 1.511279,-1.827354 2.315046,-2.636039 0.646523,-0.650817 1.104376,-1.527801 1.585489,-2.305906 1.407053,-2.274349 2.535934,-4.78462 3.449638,-7.299586 0.332366,-0.91535 0.762755,-2.102331 0.727325,-3.079184 -0.05551,-1.533207 -0.742665,-3.234449 -1.231175,-4.692972 -1.313813,-3.923854 -2.810835,-7.75686 -4.628598,-11.477909 -1.290309,-2.64103 -3.687887,-7.163734 -6.711805,-8.151472 l -0.167458,-0.05199 c -2.855854,-0.959902 -6.250374,0.1688 -9.018433,0.990274 l -8.238212,2.593082 -2.098168,0.400972 c -0.374048,0.0615 -0.627575,-0.03107 -0.976591,-0.145037 z"
     id="path78"
     style="stroke-width:0.234085" />
  <path
     fill="#dcdcda"
     d="m 61.046056,65.822496 c 1.412562,1.786624 2.380365,3.777394 3.609011,5.685799 l 5.657265,8.159418 c 4.040013,6.200026 7.487438,12.878874 12.012169,18.740883 0.605764,0.784647 1.368395,1.969044 2.171721,2.540994 C 80.987761,93.649995 77.586318,86.438999 73.203769,79.598378 L 66.172404,68.806075 c -0.610011,-0.938724 -1.65158,-1.729254 -2.161016,-2.679203 l -0.168536,-0.06531 c -0.29673,-0.125932 -0.495156,-0.40087 -0.698629,-0.640053 z"
     id="path79"
     style="stroke-width:0.234085" />
  <defs
     id="defs80">
    <linearGradient
       id="gradient_7"
       gradientUnits="userSpaceOnUse"
       x1="666.84778"
       y1="451.62134"
       x2="414.77264"
       y2="258.09586"
       gradientTransform="matrix(-0.12326091,0.19900355,0.19900355,0.12326091,47.797796,-55.564933)">
      <stop
         offset="0"
         stop-color="#71665F"
         id="stop79" />
      <stop
         offset="1"
         stop-color="#ACA091"
         id="stop80" />
    </linearGradient>
  </defs>
  <path
     fill="url(#gradient_7)"
     d="m 21.169876,57.107922 c -0.130111,0.405676 -0.183948,0.652645 -0.147896,1.083874 l 0.603418,9.845231 0.401253,3.055741 c 0.06494,0.385504 0.258136,1.007132 0.22671,1.382825 2.095742,12.252597 7.334432,23.497717 14.012346,33.905297 l 4.084888,5.94534 c 4.594358,6.42661 9.756029,12.79932 15.764521,17.96265 1.25265,1.07656 2.568327,2.10517 3.932842,3.03625 0.659189,0.44987 1.314992,0.71452 1.962121,1.22433 0.552755,0.35056 1.691528,1.2611 2.315134,1.21453 l -1.401163,-2.45363 c -3.550703,-7.56968 -6.123546,-15.26091 -3.09066,-23.5574 1.951519,-5.33879 5.768948,-9.72865 10.59003,-12.700002 2.184997,-1.346696 4.600035,-2.367276 6.922118,-3.455634 L 63.186656,70.395518 62.961549,70.56211 c -5.680117,4.013723 -12.074321,5.331396 -18.926415,4.080899 -4.904133,-0.895105 -9.666341,-2.767041 -13.570492,-5.922075 -2.934667,-2.371706 -5.314219,-5.371569 -7.455089,-8.45627 z"
     id="path80"
     style="fill:url(#gradient_7);stroke-width:0.234085" />
  <defs
     id="defs82">
    <linearGradient
       id="gradient_8"
       gradientUnits="userSpaceOnUse"
       x1="518.9541"
       y1="394.42706"
       x2="611.91101"
       y2="253.80998"
       gradientTransform="matrix(-0.12326091,0.19900355,0.19900355,0.12326091,47.797796,-55.564933)">
      <stop
         offset="0"
         stop-color="#ADA9A4"
         id="stop81" />
      <stop
         offset="1"
         stop-color="#E2E5E7"
         id="stop82" />
    </linearGradient>
  </defs>
  <path
     fill="url(#gradient_8)"
     d="m 21.169876,57.107922 c -0.130111,0.405676 -0.183948,0.652645 -0.147896,1.083874 l 0.603418,9.845231 0.401253,3.055741 c 0.06494,0.385504 0.258136,1.007132 0.22671,1.382825 2.095742,12.252597 7.334432,23.497717 14.012346,33.905297 l 4.084888,5.94534 c 4.594358,6.42661 9.756029,12.79932 15.764521,17.96265 1.25265,1.07656 2.568327,2.10517 3.932842,3.03625 0.659189,0.44987 1.314992,0.71452 1.962121,1.22433 0.552755,0.35056 1.691528,1.2611 2.315134,1.21453 l -1.401189,-2.45358 C 58.26241,130.24737 54.097385,126.355 50.205908,122.37708 34.153939,105.96945 22.744964,83.610955 23.009521,60.264614 Z"
     id="path82"
     style="fill:url(#gradient_8);stroke-width:0.234085" />
  <defs
     id="defs84">
    <linearGradient
       id="gradient_9"
       gradientUnits="userSpaceOnUse"
       x1="433.23013"
       y1="944.97131"
       x2="35.357399"
       y2="429.73206"
       gradientTransform="matrix(-0.06444382,0.07337389,0.07337389,0.06444382,26.652268,-12.064007)">
      <stop
         offset="0"
         stop-color="#706F6E"
         id="stop83" />
      <stop
         offset="1"
         stop-color="#BCBCB6"
         id="stop84" />
    </linearGradient>
  </defs>
  <defs
     id="defs86">
    <linearGradient
       id="gradient_10"
       gradientUnits="userSpaceOnUse"
       x1="435.94797"
       y1="719.50836"
       x2="112.48418"
       y2="624.32764"
       gradientTransform="matrix(-0.06444382,0.07337389,0.07337389,0.06444382,26.652268,-12.064007)">
      <stop
         offset="0"
         stop-color="#969695"
         id="stop85" />
      <stop
         offset="1"
         stop-color="#BFBEBD"
         id="stop86" />
    </linearGradient>
  </defs>
  <defs
     id="defs88">
    <linearGradient
       id="gradient_11"
       gradientUnits="userSpaceOnUse"
       x1="455.73398"
       y1="700.51971"
       x2="128.48848"
       y2="573.58057"
       gradientTransform="matrix(-0.06444382,0.07337389,0.07337389,0.06444382,26.652268,-12.064007)">
      <stop
         offset="0"
         stop-color="#5C4E48"
         id="stop87" />
      <stop
         offset="1"
         stop-color="#8A8177"
         id="stop88" />
    </linearGradient>
  </defs>
</svg>
