<?xml version="1.0" encoding="UTF-8" standalone="no"?>
<svg
   width="63mm"
   height="88mm"
   version="1.1"
   id="svg30"
   sodipodi:docname="item-shortsword.svg"
   inkscape:version="1.3.2 (091e20e, 2023-11-25, custom)"
   xml:space="preserve"
   xmlns:inkscape="http://www.inkscape.org/namespaces/inkscape"
   xmlns:sodipodi="http://sodipodi.sourceforge.net/DTD/sodipodi-0.dtd"
   xmlns="http://www.w3.org/2000/svg"
   xmlns:svg="http://www.w3.org/2000/svg"><sodipodi:namedview
     id="namedview30"
     pagecolor="#ffffff"
     bordercolor="#000000"
     borderopacity="0.25"
     inkscape:showpageshadow="2"
     inkscape:pageopacity="0.0"
     inkscape:pagecheckerboard="0"
     inkscape:deskcolor="#d1d1d1"
     inkscape:document-units="mm"
     inkscape:zoom="1.3073248"
     inkscape:cx="48.572474"
     inkscape:cy="152.60171"
     inkscape:window-width="1904"
     inkscape:window-height="1001"
     inkscape:window-x="0"
     inkscape:window-y="0"
     inkscape:window-maximized="0"
     inkscape:current-layer="svg30" /><defs
     id="defs20"><linearGradient
       id="gradient_0"
       gradientUnits="userSpaceOnUse"
       x1="655.57092"
       y1="304.57126"
       x2="812.69318"
       y2="268.40381"
       gradientTransform="matrix(-0.03574864,0.19234767,-0.19234767,-0.03574864,237.62053,88.181415)"><stop
         offset="0"
         stop-color="#AF6538"
         id="stop19" /><stop
         offset="1"
         stop-color="#C57B53"
         id="stop20" /></linearGradient></defs><g
     id="g1"
     transform="matrix(-0.17996072,0.11169243,-0.11169243,-0.17996072,283.59118,228.12171)"><path
       fill="#f5c755"
       d="m 498.489,124.111 -8.9,-7.779 c -5.126,-6.839 -6.516,-14.784 -5.271,-23.1281 2.284,-15.3203 12.844,-33.1073 25.405,-42.3967 -0.211,4.8018 -3.197,10.3333 -4.897,14.8252 -7.552,19.9521 -8.238,38.4546 -0.034,58.4226 l -5.752,0.038 z"
       id="path2" /><path
       fill="#f5c755"
       d="m 494.645,343.841 29.19,-0.108 8.183,0.178 c 4.358,0.509 10.77,0.489 13.557,4.417 2.586,3.646 1.384,10.743 1.194,15.014 l -34.873,-0.031 -0.041,5.216 -0.414,0.14 -31.501,1.12 -0.397,-5.73 c -0.272,-4.371 -1.706,-12.138 0.973,-15.845 2.701,-3.735 8.852,-3.995 13.075,-4.693 z"
       id="path3" /><path
       fill="#947022"
       d="m 479.543,364.057 32.353,-0.746 -0.041,5.216 -0.414,0.14 -31.501,1.12 z"
       id="path4" /><path
       fill="#eaaa3d"
       d="m 494.645,343.841 29.19,-0.108 8.183,0.178 c 4.358,0.509 10.77,0.489 13.557,4.417 2.586,3.646 1.384,10.743 1.194,15.014 l -34.873,-0.031 -0.017,-19.135 z"
       id="path5" /><path
       fill="#bb902e"
       d="m 511.896,363.311 34.873,0.031 -0.05,6.481 c 28.831,0.948 56.984,7.019 84.594,15.062 4.309,1.255 10.759,2.354 14.343,4.952 l -0.244,0.734 c -6.257,-1.745 -15.121,-1.075 -21.733,-1.737 -27.567,-2.758 -55.035,-5.526 -82.715,-6.961 -9.642,-0.5 -19.413,-1.271 -29.068,-1.131 l -0.455,-12.075 0.414,-0.14 z"
       id="path6" /><path
       fill="#705422"
       d="m 511.896,363.311 34.873,0.031 -0.05,6.481 -34.864,-1.296 z"
       id="path7" /><path
       fill="#bb902e"
       d="m 509.723,50.8072 2.132,-1.9761 c 13.19,13.5399 27.77,30.7526 27.394,50.8189 -0.144,7.712 -3.093,15.438 -8.769,20.778 l -5.029,4.316 -12.973,-0.155 -13.438,-0.496 5.752,-0.038 c -8.204,-19.968 -7.518,-38.4705 0.034,-58.4226 1.7,-4.4919 4.686,-10.0234 4.897,-14.8252 z"
       id="path8" /><path
       fill="#eaaa3d"
       d="m 509.723,50.8072 2.132,-1.9761 c 2.116,27.1239 3.539,47.9068 0.971,75.3399 l -8.034,-0.116 c -8.204,-19.968 -7.518,-38.4705 0.034,-58.4226 1.7,-4.4919 4.686,-10.0234 4.897,-14.8252 z"
       id="path9" /><path
       fill="#947022"
       d="m 511.896,380.742 c 9.655,-0.14 19.426,0.631 29.068,1.131 27.68,1.435 55.148,4.203 82.715,6.961 6.612,0.662 15.476,-0.008 21.733,1.737 -17.173,5.135 -33.192,14.514 -49.038,22.713 -5.799,3 -13.897,8.387 -20.24,9.474 l -32.916,-0.085 -31.3,-0.081 z"
       id="path10" /><path
       fill="#bb902e"
       d="m 479.94,369.787 31.501,-1.12 0.455,12.075 0.022,41.85 -0.47,0.117 -31.348,-0.006 -31.596,0.313 c -7.574,-1.405 -27.429,-14.434 -35.264,-18.699 -10.825,-5.894 -21.481,-8.878 -31.681,-14.1 l 0.364,-0.803 c 16.2,-5.183 32.512,-10.353 49.218,-13.651 16.112,-3.18 32.457,-4.601 48.799,-5.976 z"
       id="path11" /><path
       fill="#f5c755"
       d="m 479.94,369.787 31.501,-1.12 0.455,12.075 c -9.56,0.815 -19.294,0.457 -28.89,0.825 -17.64,0.677 -35.19,1.968 -52.732,3.962 -11.416,1.297 -39.034,6.122 -48.351,3.885 16.2,-5.183 32.512,-10.353 49.218,-13.651 16.112,-3.18 32.457,-4.601 48.799,-5.976 z"
       id="path12" /><path
       fill="#6e2d16"
       d="m 498.489,124.111 0.551,-0.018 13.438,0.496 12.973,0.155 6.742,0.973 0.068,47.181 0.058,3.185 -0.201,42.96 -0.022,14.359 0.017,43.722 0.073,16.006 -0.168,50.781 -8.183,-0.178 -29.19,0.108 -1.054,-0.322 -0.408,-50.84 -0.115,-16.328 0.058,-56.466 -0.106,-1.329 0.207,-42.143 -0.1,-15.927 -0.099,-35.093 z"
       id="path13" /><path
       fill="#813c24"
       d="m 493.02,218.556 19.054,0.17 -0.091,14.485 -18.71,0.102 -0.147,-13.428 z"
       id="path14" /><path
       fill="#813c24"
       d="m 493.127,160.486 19.441,0.493 0.012,9.385 -1.304,4.803 c -3.424,2.421 -13.591,0.978 -18.049,1.246 z"
       id="path15" /><path
       fill="#813c24"
       d="m 493.068,276.351 19.083,0.339 -0.284,15.849 -18.684,0.14 z"
       id="path16" /><path
       fill="#541502"
       d="m 525.451,124.744 6.742,0.973 0.068,47.181 -0.079,-12.41 -19.469,0.019 -0.235,-35.918 z"
       id="path17" /><path
       fill="#541502"
       d="m 512.605,175.931 19.714,0.152 -0.201,42.96 -19.514,-0.038 z"
       id="path18" /><path
       fill="#541502"
       d="m 512.388,233.184 19.708,0.218 0.017,43.722 -19.573,-0.15 z"
       id="path19" /><path
       fill="#541502"
       d="m 512.543,292.724 19.643,0.406 -0.168,50.781 -8.183,-0.178 -11.402,-0.606 z"
       id="path20" /><path
       fill="#e2e2e2"
       d="m 448.504,423.016 31.596,-0.313 31.348,0.006 c 1.89,7.11 0.52,27.028 0.485,35.483 -0.128,30.41 -0.46,60.822 -0.486,91.232 -0.13,149.576 0.348,299.155 0.022,448.731 -0.094,43.125 -0.247,86.245 -0.097,129.375 0.042,12.18 -1.327,39.6 0.765,50 l -0.199,2.76 -1.181,0.66 c 1.324,11.21 0.854,127.08 -0.168,128.56 l -0.38,0.11 c -3.531,-4.27 -6.586,-15.72 -8.522,-21.08 -18.954,-52.41 -33.008,-106.71 -43.972,-161.32 -3.32,-16.53 -7.397,-33.76 -8.832,-50.57 -1.441,-16.89 -0.084,-38.5 -0.074,-55.96 0.021,-38.307 -0.032,-76.614 -0.029,-114.922 0.008,-107.002 0.056,-214.003 0.007,-321.005 -0.016,-33.861 -0.008,-67.722 0.002,-101.583 0.005,-20.012 0.434,-40.167 -0.285,-60.164 z"
       id="path21" /><path
       fill="#75a8d4"
       d="m 480.1,422.703 31.348,0.006 c 1.89,7.11 0.52,27.028 0.485,35.483 -0.128,30.41 -0.46,60.822 -0.486,91.232 -0.13,149.576 0.348,299.155 0.022,448.731 -0.094,43.125 -0.247,86.245 -0.097,129.375 0.042,12.18 -1.327,39.6 0.765,50 l -0.199,2.76 -1.181,0.66 c -1.527,-2.52 -29.356,-116.24 -29.982,-123.43 -1.461,-16.79 -0.323,-39.15 -0.434,-56.45 -0.274,-43.108 -0.232,-86.214 -0.195,-129.324 0.082,-93.111 -0.197,-186.221 -0.065,-279.332 0.08,-56.501 1.268,-113.236 0.019,-169.711 z"
       id="path22" /><path
       fill="#acabaa"
       d="m 511.918,422.592 31.3,0.081 32.916,0.085 c -0.404,149.299 -0.331,298.61 -0.263,447.91 0.022,49.396 0.147,98.792 -0.208,148.182 -0.089,12.35 -0.048,24.69 -0.006,37.03 0.024,7.16 0.453,14.6 -0.321,21.7 -1.851,16.98 -6.353,34.44 -9.884,51.19 -8.417,39.91 -18.438,79.18 -30.166,118.26 -6.654,22.17 -13.235,44.5 -23.064,65.52 l -0.699,0.39 -1.314,-3.32 0.38,-0.11 c 1.022,-1.48 1.492,-117.35 0.168,-128.56 l 1.181,-0.66 0.199,-2.76 c -2.092,-10.4 -0.723,-37.82 -0.765,-50 -0.15,-43.13 0.003,-86.25 0.097,-129.375 0.326,-149.576 -0.152,-299.155 -0.022,-448.731 0.026,-30.41 0.358,-60.822 0.486,-91.232 0.035,-8.455 1.405,-28.373 -0.485,-35.483 z"
       id="path23" /><path
       fill="#657c96"
       d="m 511.918,422.592 31.3,0.081 c 1,143.549 0.693,287.122 0.598,430.674 -0.031,45.967 0.187,91.933 0.103,137.9 -0.025,14.163 -0.034,28.333 -0.111,42.503 -0.044,8.11 0.229,16.49 -0.476,24.56 -0.989,11.35 -27.812,115.27 -31.195,119.22 -2.092,-10.4 -0.723,-37.82 -0.765,-50 -0.15,-43.13 0.003,-86.25 0.097,-129.375 0.326,-149.576 -0.152,-299.155 -0.022,-448.731 0.026,-30.41 0.358,-60.822 0.486,-91.232 0.035,-8.455 1.405,-28.373 -0.485,-35.483 z"
       id="path24" /></g></svg>
