<?xml version="1.0" encoding="UTF-8" standalone="no"?>
<svg
   width="63mm"
   height="88mm"
   version="1.1"
   id="svg43"
   sodipodi:docname="item-dagger.svg"
   inkscape:version="1.3.2 (091e20e, 2023-11-25, custom)"
   xmlns:inkscape="http://www.inkscape.org/namespaces/inkscape"
   xmlns:sodipodi="http://sodipodi.sourceforge.net/DTD/sodipodi-0.dtd"
   xmlns="http://www.w3.org/2000/svg"
   xmlns:svg="http://www.w3.org/2000/svg">
  <sodipodi:namedview
     id="namedview43"
     pagecolor="#ffffff"
     bordercolor="#000000"
     borderopacity="0.25"
     inkscape:showpageshadow="2"
     inkscape:pageopacity="0.0"
     inkscape:pagecheckerboard="0"
     inkscape:deskcolor="#d1d1d1"
     inkscape:document-units="mm"
     inkscape:zoom="1.1661932"
     inkscape:cx="-5.5736906"
     inkscape:cy="184.78928"
     inkscape:window-width="1920"
     inkscape:window-height="1017"
     inkscape:window-x="-8"
     inkscape:window-y="-8"
     inkscape:window-maximized="1"
     inkscape:current-layer="svg43" />
  <path
     fill="#060404"
     d="m 208.69015,293.37483 c -3.7669,-1.63653 -7.22268,-3.96179 -10.71687,-6.56932 -4.08575,-3.04893 -8.00885,-6.38277 -11.73543,-10.06458 l -1.97877,-2.01616 c -0.17668,-0.18236 -0.61511,-0.5548 -0.73514,-0.76083 -0.19857,-0.34087 -0.34008,-1.19593 -0.44886,-1.58778 l -1.77112,-6.70511 c -0.1654,-0.6476 -0.32957,-1.94354 -0.70627,-2.50216 l -24.74851,-35.87413 c -0.51479,0.34853 -1.02564,0.89046 -1.78086,0.62236 -1.1553,-0.41001 -2.90451,-3.45579 -3.70091,-4.62914 l -2.39507,1.69235 c -0.3279,0.22843 -0.64054,0.54647 -1.08038,0.55672 -0.1995,-0.0756 -0.50091,-0.14763 -0.66987,-0.30293 -0.27322,-0.25082 -0.52428,-0.52096 -0.64952,-0.87987 -0.32255,-0.92436 -0.44402,-2.03201 -0.65459,-2.97604 l -1.68574,-7.49611 c -1.94179,0.82553 -4.02465,1.3742 -6.20312,1.66205 -3.4051,0.44984 -7.47395,0.13178 -11.15328,-1.05631 -0.93151,-0.30083 -1.98021,-0.60786 -2.84934,-1.28143 -0.82942,-0.643 -1.5197,-1.69244 -1.83697,-2.68578 -0.32502,-1.01728 -0.26889,-1.97153 0.13351,-2.72539 0.60657,-1.13622 1.39096,-0.93702 2.53548,-1.02348 2.10621,-0.15914 3.75799,-1.88698 4.69253,-3.68217 0.34493,-0.66257 0.56637,-1.42606 0.91343,-2.08121 0.35814,-0.67596 0.29449,-1.49338 0.28222,-2.35303 l -9.63792,-4.19404 c -0.72192,-1.08444 -1.33276,-2.22744 -2.0022,-3.34118 l -3.73232,-6.19359 -7.31912,-12.09928 L 88.025959,141.65344 66.136478,106.01732 59.904374,96.03124 C 58.262834,93.294633 56.764788,90.470548 55.305881,87.650296 48.811742,75.095185 43.680425,62.216226 38.281256,49.348679 l -3.530857,-7.886363 0.28044,0.05892 7.466062,7.411754 18.536096,17.841866 c 5.126487,5.097135 10.286678,10.41766 14.874124,16.121893 l 8.236177,10.834539 13.63797,17.740002 29.813472,38.42111 10.01863,12.85399 7.78681,9.99095 1.48061,1.89146 c 0.11036,0.14068 0.43393,0.48639 0.49621,0.63361 0.11931,0.28244 0.0564,1.38862 0.0798,1.73122 l 0.58537,8.8147 3.35769,1.41162 c 2.4329,-0.6174 4.51799,-1.40058 6.06666,-3.41761 0.51063,-0.66534 0.89201,-1.52417 1.32734,-2.26531 0.60475,-0.12671 1.28221,-0.1938 1.94763,-0.11344 0.75209,0.0909 1.48702,0.48228 2.11087,1.14957 0.9373,1.00249 1.41697,2.25452 1.5933,3.49272 0.21555,1.51275 0.0182,3.15301 -0.22057,4.51211 -0.92675,5.27655 -3.54763,9.85322 -6.66118,13.41403 l 6.77461,4.48622 c 0.67455,0.44556 2.0813,1.12833 2.56243,1.82283 0.2111,0.30485 0.31243,0.73536 0.28637,1.05203 -0.064,0.78028 -2.6913,2.17661 -3.34891,2.61233 l 2.30017,3.3221 c 0.48566,0.70948 0.76485,1.12745 0.71826,1.9154 -0.0417,0.70403 -0.83691,1.05277 -1.30799,1.35203 l 20.03261,28.94859 3.60684,5.24226 c 0.39752,0.58474 0.96957,1.61923 1.52482,2.00242 l 8.78239,6.11235 c 0.63008,0.9725 1.11116,2.44399 1.57998,3.51484 1.5836,3.61659 2.92641,7.39992 4.11826,11.08761 1.72173,5.32744 3.14332,10.66127 3.49647,15.91189 z"
     id="path2"
     style="stroke-width:0.136172" />
  <path
     fill="#a36224"
     d="m 188.55889,257.65435 -2.5653,1.76493 0.26212,-2.04682 0.36063,-2.54839 z"
     id="path3"
     style="stroke-width:0.136172" />
  <path
     fill="#a36224"
     d="m 185.01762,260.09417 -2.61824,1.78086 -2.07318,-2.95672 z"
     id="path4"
     style="stroke-width:0.136172" />
  <path
     fill="#ab2108"
     d="m 183.30222,250.0683 -4.07652,-0.91804 0.28452,-2.03953 0.32919,-2.03569 z"
     id="path5"
     style="stroke-width:0.136172" />
  <path
     fill="#ab2108"
     d="m 176.64478,240.34338 c -1.3523,-0.12817 -2.77091,-0.54818 -4.1457,-0.88513 l 0.26194,-1.55802 0.41397,-2.55919 z"
     id="path6"
     style="stroke-width:0.136172" />
  <path
     fill="#a36224"
     d="m 163.95125,234.66743 c -0.0848,0.0872 -0.14915,0.085 -0.27712,0.0858 l -3.35587,-4.84123 2.02561,0.43567 2.11891,0.49941 z"
     id="path7"
     style="stroke-width:0.136172" />
  <path
     fill="#ab2108"
     d="m 170.0731,230.83002 -4.18483,-0.90459 0.22361,-1.85624 0.32154,-2.48462 z"
     id="path8"
     style="stroke-width:0.136172" />
  <path
     fill="#a36224"
     d="m 170.55488,244.8016 -3.62911,-5.31861 2.01223,0.46608 2.19379,0.47146 z"
     id="path9"
     style="stroke-width:0.136172" />
  <path
     fill="#a36224"
     d="m 177.33038,254.55124 -3.83765,-5.5154 2.38155,0.6153 1.92535,0.48962 z"
     id="path10"
     style="stroke-width:0.136172" />
  <path
     fill="#804c1c"
     d="m 159.27196,217.00064 2.79371,-1.9531 2.32719,3.23796 -1.89659,1.29404 c -0.89362,-1.01453 -2.16901,-1.82763 -3.22422,-2.57879 z"
     id="path11"
     style="stroke-width:0.136172" />
  <path
     fill="#c9750a"
     d="m 152.38462,194.91239 1.16325,0.48719 -2.68221,2.86539 c -1.55057,1.5081 -3.21523,2.82146 -4.9638,4.06902 l -0.67656,-0.96122 c 0.45996,-0.60394 1.20836,-0.9661 1.79099,-1.42732 l 3.9884,-3.5514 c 0.43385,-0.40386 1.10606,-0.80193 1.33464,-1.39184 z"
     id="path12"
     style="stroke-width:0.136172" />
  <path
     fill="#df470f"
     d="m 170.77781,239.11163 -4.85201,-1.18201 -0.95985,-1.32339 0.28572,-2.41691 c 0.76486,0.45417 1.52341,0.69726 2.28565,1.10911 1.12614,0.60838 2.46433,2.68273 3.24049,3.8132 z"
     id="path13"
     style="stroke-width:0.136172" />
  <path
     fill="#df470f"
     d="m 178.19291,247.94698 -0.14778,0.81036 c -0.38521,0.14847 -0.94614,-0.0549 -1.39507,-0.15474 -1.30993,-0.29134 -2.811,-0.50933 -4.11021,-1.0867 -0.29895,-0.3982 -0.74031,-0.89199 -0.86961,-1.35543 l 0.25652,-2.22313 c 0.51188,0.11578 1.21901,0.30802 1.7007,0.64023 0.82642,0.57009 1.52051,1.5905 2.35787,2.2201 0.64673,0.48635 1.51627,0.83302 2.20758,1.1493 z"
     id="path14"
     style="stroke-width:0.136172" />
  <path
     fill="#f1840d"
     d="m 145.90186,202.33399 c -2.80165,1.89713 -5.64278,3.56289 -8.9839,4.53649 l -0.0965,-2.11385 c 1.12548,-0.002 2.19097,-0.39837 3.17269,-0.76523 1.87318,-0.70015 3.51797,-1.5485 5.12526,-2.68891 l 0.1059,0.0703 z"
     id="path15"
     style="stroke-width:0.136172" />
  <path
     fill="#df470f"
     d="m 185.08263,257.03487 -0.19282,1.65366 c -1.78469,-0.2959 -3.8555,-0.67994 -5.64437,-1.43104 -0.57511,-0.80942 -0.82997,-1.00256 -0.82082,-1.93865 l 0.0564,-0.85886 c 0.77884,-0.24168 1.73851,-0.34243 2.61784,-0.25636 1.73438,0.17011 2.66085,1.4568 3.98379,2.8312 z"
     id="path16"
     style="stroke-width:0.136172" />
  <path
     fill="#ab2108"
     d="m 178.48098,254.45998 0.50126,-4.19283 c 1.59276,0.2611 3.58471,0.66487 5.17971,1.36168 0.51833,0.22658 0.92554,0.82716 1.22237,1.3781 0.38884,0.72175 -0.18717,3.27174 -0.30169,4.02794 -1.32295,-1.37441 -2.24941,-2.6611 -3.9838,-2.83121 -0.87934,-0.0861 -1.83899,0.0145 -2.61786,0.25637 z"
     id="path17"
     style="stroke-width:0.136172" />
  <path
     fill="#ab2108"
     d="m 178.19291,247.94698 c -0.69132,-0.31628 -1.56086,-0.66295 -2.20759,-1.1493 -0.83736,-0.6296 -1.53147,-1.65001 -2.35787,-2.2201 -0.48171,-0.33221 -1.18882,-0.52446 -1.70071,-0.64023 l 0.386,-3.20778 c 1.56368,0.22799 3.4356,0.59434 5.01416,1.16296 0.62049,0.22352 0.86813,0.77564 1.24185,1.34539 0.30827,1.3946 -0.20226,3.39684 -0.37584,4.70906 z"
     id="path18"
     style="stroke-width:0.136172" />
  <path
     fill="#ab2108"
     d="m 165.25167,234.18934 0.49837,-3.03752 5.29229,1.21748 1.07967,1.43726 c -0.15329,1.00283 -0.4863,4.98127 -0.93341,5.42703 l -0.41078,-0.12197 c -0.77618,-1.13046 -2.11438,-3.20481 -3.24049,-3.8132 -0.76225,-0.41185 -1.52079,-0.65493 -2.28567,-1.1091 z"
     id="path19"
     style="stroke-width:0.136172" />
  <path
     fill="#6c3c14"
     d="m 197.79924,264.8173 -2.67616,1.87868 -0.10126,-7e-4 c -2.55048,-1.81375 -5.49441,-3.006 -8.15162,-4.48575 l 3.77558,-2.56566 5.20691,3.58152 c 0.59531,0.41412 1.59562,0.94208 1.9465,1.59212 z"
     id="path20"
     style="stroke-width:0.136172" />
  <path
     fill="#676666"
     d="M 58.72141,77.525238 C 57.721625,76.60614 56.679024,74.762722 55.876547,73.603397 L 49.836504,64.864508 54.496477,80.8745 43.223382,55.318666 Z"
     id="path21"
     style="stroke-width:0.136172" />
  <path
     fill="#ab2108"
     d="m 158.12748,226.65649 -0.36804,-0.53069 c 0.007,-0.0831 -0.007,-0.17704 0.0206,-0.24949 0.0727,-0.197 0.98635,-0.6874 1.19114,-0.83054 l 4.78383,-3.35823 1.52724,2.23315 c 0.0617,0.71292 -0.0812,1.45122 -0.16239,2.11847 l -0.44946,3.43755 -0.32713,0.0621 c -0.8858,-0.16933 -4.47299,-0.76081 -5.11662,-1.25355 z"
     id="path22"
     style="stroke-width:0.136172" />
  <path
     fill="#df470f"
     d="m 164.34312,229.5386 c -0.8858,-0.16933 -4.47299,-0.76082 -5.11662,-1.25356 l -1.09908,-1.62853 c 0.60753,-0.51118 1.29693,-0.92776 2.22048,-0.76425 0.95211,0.16848 1.9481,0.82273 2.70984,1.66118 0.41826,0.46038 1.20622,1.39406 1.28533,1.98519 z"
     id="path23"
     style="stroke-width:0.136172" />
  <path
     fill="#a36224"
     d="m 162.49618,219.57944 -8.29312,5.7215 -2.23449,-3.25316 7.30356,-5.04698 c 1.0552,0.75118 2.33058,1.56427 3.2242,2.57881 z"
     id="path24"
     style="stroke-width:0.136172" />
  <path
     fill="#535252"
     d="m 135.84024,204.82756 0.10979,2.50607 -5.06901,0.9572 -0.37934,-27.54203 1.01801,1.43682 c -0.13302,0.11293 -0.12778,0.10833 -0.11586,0.32799 l 0.44007,5.57464 0.79589,17.69653 z"
     id="path25"
     style="stroke-width:0.136172" />
  <path
     fill="#464544"
     d="m 134.31545,184.75581 -3.11586,-4.4401 26.09495,10.29314 c -0.16635,0.47632 -0.65494,0.90601 -0.9453,1.28885 l -2.07714,2.74424 -1.75483,-0.63777 1.8628,-2.67338 -21.70526,-9.0956 c 0.53759,0.76615 1.2835,1.67911 1.64064,2.52063 z"
     id="path26"
     style="stroke-width:0.136172" />
  <path
     fill="#804c1c"
     d="m 145.55477,212.82644 c 3.81705,-1.88826 7.4622,-4.3591 10.50248,-7.3575 l 7.84367,5.27619 -16.15457,11.07078 13.21071,-9.18274 c -1.22955,-0.70717 -2.41275,-1.31548 -3.68787,-1.65066 -2.52627,-0.66424 -5.2139,-0.13914 -7.34512,0.58641 -1.24618,0.42432 -2.95992,1.37901 -4.36929,1.25745 z"
     id="path27"
     style="stroke-width:0.136172" />
  <path
     fill="#804c1c"
     d="m 197.79924,264.8173 c 1.05574,1.90776 1.87963,4.10426 2.65158,6.10055 2.3418,6.05632 4.15095,12.15575 5.36021,18.27967 l -1.65897,-0.99577 c -1.14937,-6.06512 -4.20629,-12.39259 -7.21698,-18.1407 -0.56187,-1.07273 -1.1403,-2.35777 -1.81193,-3.36496 z"
     id="path28"
     style="stroke-width:0.136172" />
  <path
     fill="#804c1c"
     d="m 195.02186,266.69506 -6.11076,4.29169 c -0.94683,0.63457 -2.2794,1.24409 -3.04179,2.09425 -0.48208,-0.60941 -0.66739,-1.77997 -0.85707,-2.52104 l -1.54114,-6.04658 3.39913,-2.30406 c 2.65721,1.47972 5.60115,2.67198 8.15162,4.48573 z"
     id="path29"
     style="stroke-width:0.136172" />
  <path
     fill="#535252"
     d="m 134.31545,184.75581 c -0.35714,-0.8415 -1.10309,-1.75445 -1.64063,-2.52063 l 21.70526,9.0956 -1.8628,2.67339 -10.83005,-4.40133 -4.18626,-1.61848 c -0.34749,-0.13423 -1.14722,-0.34951 -1.43205,-0.62679 -0.56008,-0.54479 -1.28141,-1.90137 -1.75345,-2.60176 z"
     id="path30"
     style="stroke-width:0.136172" />
  <path
     fill="#676666"
     d="m 135.84024,204.82756 -3.20032,0.95718 -0.79589,-17.69654 -0.44007,-5.57465 c -0.0119,-0.2196 -0.0171,-0.21501 0.11586,-0.32798 l 3.07597,4.48114 c 0.12842,0.18692 0.76245,0.99597 0.79627,1.15956 0.0871,0.41807 0.013,1.02334 0.0229,1.44795 l 0.0817,3.44153 z"
     id="path31"
     style="stroke-width:0.136172" />
  <path
     fill="#fdc72b"
     d="m 145.11942,201.30249 c -1.60721,1.14055 -3.25209,1.98874 -5.12527,2.68891 -0.98172,0.36683 -2.0472,0.76378 -3.17269,0.76523 l -0.32143,-11.77426 c -0.0276,-1.20691 -0.30082,-3.16081 -0.0271,-4.21548 0.80301,0.76795 1.63338,2.30635 2.29946,3.2717 z"
     id="path32"
     style="stroke-width:0.136172" />
  <path
     fill="#d08106"
     d="m 145.2253,201.37276 -0.10588,-0.0703 -6.3471,-9.26389 c -0.66608,-0.96536 -1.49644,-2.50373 -2.29947,-3.2717 l 0.0966,-0.0994 15.81516,6.24492 -0.0452,0.0898 c -0.22862,0.58985 -0.90079,0.98797 -1.33463,1.39184 l -3.98844,3.55139 c -0.58261,0.46118 -1.33103,0.82335 -1.79096,1.42734 z"
     id="path33"
     style="stroke-width:0.136172" />
  <path
     fill="#a36224"
     d="m 147.74632,221.81587 -0.35032,0.23196 -0.16837,-0.14106 -2.02775,-8.79244 c 0.11162,-0.10977 0.21457,-0.21643 0.35485,-0.28795 1.40939,0.12153 3.12311,-0.83317 4.3693,-1.25746 2.13121,-0.72562 4.81885,-1.25073 7.34511,-0.58641 1.27513,0.33517 2.45833,0.94347 3.68787,1.65066 z"
     id="path34"
     style="stroke-width:0.136172" />
  <defs
     id="defs35">
    <linearGradient
       id="gradient_0"
       gradientUnits="userSpaceOnUse"
       x1="521.60474"
       y1="705.75879"
       x2="540.72412"
       y2="810.59491"
       gradientTransform="matrix(-0.09622555,0.06640636,-0.09008337,-0.13053448,263.06135,266.76452)">
      <stop
         offset="0"
         stop-color="#767476"
         id="stop34" />
      <stop
         offset="1"
         stop-color="#878A88"
         id="stop35" />
    </linearGradient>
  </defs>
  <path
     fill="url(#gradient_0)"
     d="m 161.76965,189.54835 c -0.39015,2.21167 -1.17032,4.21615 -2.03419,6.12442 -3.31868,7.33058 -9.22704,12.54322 -16.18365,15.56292 -3.93479,1.70799 -8.40581,2.46565 -13.13216,1.92169 -1.82568,-0.2102 -3.84377,-0.62158 -5.68761,-1.52684 l -0.68617,-0.40211 c 1.13084,-0.189 2.2923,0.17475 3.48811,0.28158 1.4851,0.13269 2.91539,0.13303 4.33735,0.0111 9.96133,-0.85344 18.1616,-6.15742 24.41173,-13.24525 1.41648,-1.6063 2.7893,-3.44629 3.86469,-5.3832 0.38297,-0.68979 0.71169,-1.46024 1.01775,-2.21082 0.16882,-0.41385 0.17998,-0.8532 0.54292,-1.09673 z"
     id="path35"
     style="fill:url(#gradient_0);stroke-width:0.136172" />
  <path
     fill="#535252"
     d="m 161.76965,189.54835 -0.0611,0.0373 c -0.36305,0.24333 -0.3741,0.68286 -0.54292,1.09673 -0.30606,0.75057 -0.63477,1.52105 -1.01775,2.21082 -1.07539,1.93689 -2.44821,3.77688 -3.86466,5.38321 -6.25016,7.08779 -14.45043,12.39176 -24.41176,13.24521 -1.42199,0.12135 -2.85224,0.12152 -4.33735,-0.0111 -1.19582,-0.10686 -2.35727,-0.4706 -3.48812,-0.28157 l -0.0166,4.4e-4 c -0.13639,-0.10933 -0.29164,-0.23137 -0.40154,-0.37787 -0.20555,-0.27437 -0.32707,-0.6563 -0.34965,-0.95827 0.17357,-0.2433 0.27212,-0.48975 0.60654,-0.50661 1.19897,-0.0606 2.64855,0.30831 3.89592,0.37459 2.83367,0.15066 5.26128,-0.35415 7.8294,-0.99279 7.40684,-1.84161 13.49924,-6.37439 18.48306,-11.90615 1.64663,-1.82777 3.25715,-3.74837 4.39209,-6.06974 0.67452,-1.37987 1.18225,-2.9123 1.57251,-4.48407 0.17529,-0.70623 0.24157,-1.48232 0.46093,-2.16035 0.0979,-0.0389 0.19625,-0.0678 0.31135,-0.0635 0.37748,0.0146 0.58983,0.15256 0.88689,0.48113 0.6662,1.54417 0.34905,3.62839 0.053,4.98297 z"
     id="path36"
     style="stroke-width:0.136172" />
  <path
     fill="#a36224"
     d="m 204.15206,288.20175 c -5.57802,-3.59216 -10.81265,-7.70069 -15.77625,-12.541 -0.78127,-0.76197 -1.87346,-1.67685 -2.50645,-2.57968 0.76235,-0.85021 2.09497,-1.45966 3.04178,-2.09425 l 6.11076,-4.29169 0.10125,7e-4 c 0.67163,1.00721 1.25007,2.29223 1.81194,3.36497 3.0107,5.74812 6.0676,12.07558 7.21699,18.14071 z"
     id="path37"
     style="stroke-width:0.136172" />
  <path
     fill="#fdc72b"
     d="m 129.71255,187.99439 c -1.39837,-1.84166 -2.65414,-3.91453 -3.93094,-5.84819 l -6.72357,-10.12557 -23.852542,-36.04847 -14.655091,-22.21214 -3.085584,-4.74429 c -0.619419,-0.93493 -1.344838,-1.90849 -1.885076,-2.88265 -1.106357,-1.99406 -2.003825,-4.3192 -2.946455,-6.391551 l -3.606868,-7.779956 5.485236,7.969409 9.539222,13.835588 32.494838,47.07871 9.69831,14.00425 2.30712,3.30767 c 0.20294,0.29043 0.6747,0.83935 0.79991,1.14433 0.0984,0.23985 0.044,1.17134 0.0604,1.44692 z"
     id="path38"
     style="stroke-width:0.136172" />
  <path
     fill="#c4c4c4"
     d="m 59.628482,78.83592 4.458851,6.382636 c 0.632365,0.910592 1.464494,1.937681 1.968665,2.898186 0.739512,1.408976 1.375975,2.931449 2.050165,4.370082 l 4.576322,9.864626 1.277706,2.71598 c 0.21359,0.46348 0.330448,0.91276 0.606013,1.36042 l 3.795446,5.79989 8.926168,13.56879 32.682372,49.39758 7.02511,10.55822 1.80323,2.71154 c 0.23665,0.3568 0.63673,0.84997 0.81156,1.22417 0.1761,0.37682 0.094,1.23812 0.0982,1.63131 l 0.0353,4.75982 -1.836,-0.77637 -19.1418,-30.90184 L 87.342918,129.94978 71.871572,104.71669 C 69.616167,100.96809 67.206657,97.200574 65.151278,93.360178 63.112247,89.550891 61.570052,85.68778 60.117776,81.722156 59.669374,80.497693 59.085281,79.131777 58.824824,77.900947 Z"
     id="path39"
     style="stroke-width:0.136172" />
  <path
     fill="#d08106"
     d="m 138.25396,182.13804 -0.3085,-0.10449 c -2.0685,-0.72673 -4.19678,-1.70144 -6.25718,-2.58232 -0.39841,-0.17038 -1.21551,-0.40196 -1.53824,-0.6689 -0.44067,-0.36457 -1.26949,-1.84197 -1.66709,-2.4176 l -5.86256,-8.44051 -52.58753,-76.269867 c 0.926794,0.68427 1.787524,1.693552 2.624208,2.544073 l 5.382114,5.568207 c 1.399678,1.467887 3.053516,2.985837 4.322597,4.574697 2.475536,3.09951 4.751473,6.56418 7.079319,9.79838 l 14.245522,19.84513 z"
     id="path40"
     style="stroke-width:0.136172" />
  <path
     fill="#8e8d8b"
     d="m 127.90755,195.30286 -6.58733,-2.82893 -14.52161,-24.24302 -29.2087,-47.81066 -11.089111,-17.9998 C 62.158458,95.402427 57.741789,88.385591 54.496474,80.874502 l -4.659973,-16.009991 6.040042,8.738888 c 0.802467,1.159334 1.845076,3.002746 2.844863,3.921843 l 0.907048,1.310698 -0.803726,-0.934926 c 0.260456,1.230829 0.844549,2.596747 1.29295,3.821208 1.452278,3.965624 2.994472,7.828735 5.033504,11.638024 2.055378,3.840395 4.464889,7.607904 6.720294,11.356514 l 15.471345,25.23309 21.422889,34.45118 z"
     id="path41"
     style="stroke-width:0.136172" />
  <path
     fill="#676666"
     d="m 145.45375,182.76044 0.22445,2.10491 c -0.56136,-0.0454 -1.28608,-0.3945 -1.86232,-0.60269 l -3.91811,-1.47443 -34.89732,-48.67142 -16.497374,-22.94678 -5.462337,-7.53043 c -0.834232,-1.09502 -2.108697,-2.24272 -3.071386,-3.2645 L 70.965197,90.928073 C 69.725341,89.637014 68.205742,88.28271 67.079617,86.907385 66.527057,86.2327 66.031599,85.426125 65.554326,84.693702 64.774203,83.765619 64.072573,82.590647 63.378485,81.58584 l -4.870049,-7.118256 -14.3146,-20.78986 10.017513,9.568599 c 6.528297,6.32846 13.223649,12.857666 19.09687,19.971572 l 4.610238,6.023793 7.018059,9.139218 28.087554,36.291934 23.09267,29.73465 6.79051,8.68885 c 0.53788,0.68847 1.59899,1.7907 1.97521,2.5312 0.23012,0.45284 0.50502,6.27353 0.57098,7.13293 z"
     id="path42"
     style="stroke-width:0.136172" />
  <path
     fill="#8e8d8b"
     d="m 145.45375,182.76044 0.22445,2.10491 c -0.56136,-0.0454 -1.28608,-0.3945 -1.86232,-0.60269 l -3.91811,-1.47443 -34.89732,-48.67142 -16.497374,-22.94678 -5.462337,-7.53043 c -0.834232,-1.09502 -2.108697,-2.24272 -3.071386,-3.2645 l -9.004156,-9.447027 c -1.239856,-1.291059 -2.759455,-2.645363 -3.88558,-4.020688 -0.55256,-0.674685 -1.048018,-1.48126 -1.525291,-2.213683 -0.222524,-0.611457 -0.922753,-1.444372 -1.307569,-2.009353 -1.526768,-2.241577 -3.309523,-4.537716 -4.671808,-6.85425 1.019666,0.631738 2.065269,1.621349 3.022046,2.41596 4.663416,3.87509 8.913864,8.079493 12.956362,12.810876 4.226711,4.947268 8.064317,10.228585 11.961635,15.460975 l 11.831748,15.80115 23.65477,31.18625 z"
     id="path43"
     style="stroke-width:0.136172" />
</svg>
