<?xml version="1.0" encoding="UTF-8" standalone="no"?>
<svg
   width="63mm"
   height="88mm"
   version="1.1"
   id="svg74"
   sodipodi:docname="item-barehanded.svg"
   inkscape:version="1.3.2 (091e20e, 2023-11-25, custom)"
   xmlns:inkscape="http://www.inkscape.org/namespaces/inkscape"
   xmlns:sodipodi="http://sodipodi.sourceforge.net/DTD/sodipodi-0.dtd"
   xmlns="http://www.w3.org/2000/svg"
   xmlns:svg="http://www.w3.org/2000/svg">
  <sodipodi:namedview
     id="namedview74"
     pagecolor="#ffffff"
     bordercolor="#000000"
     borderopacity="0.25"
     inkscape:showpageshadow="2"
     inkscape:pageopacity="0.0"
     inkscape:pagecheckerboard="0"
     inkscape:deskcolor="#d1d1d1"
     inkscape:document-units="mm"
     inkscape:zoom="1.8244444"
     inkscape:cx="6.8514007"
     inkscape:cy="187.18027"
     inkscape:window-width="1920"
     inkscape:window-height="1017"
     inkscape:window-x="-8"
     inkscape:window-y="-8"
     inkscape:window-maximized="1"
     inkscape:current-layer="svg74" />
  <path
     fill="#252323"
     d="m 56.936171,303.74844 -0.223365,-0.13216 0.02418,-0.17771 c 1.895193,-2.10348 3.989989,-3.44655 6.379023,-4.91154 -0.715761,1.99602 -1.743528,3.79781 -3.754432,4.75037 -0.775682,0.36574 -1.579466,0.436 -2.425402,0.47112 z"
     id="path2"
     style="stroke-width:0.206628" />
  <path
     fill="#3e3e3e"
     d="m 156.01102,38.026169 0.25477,0.310148 c 0.8319,-0.439704 1.76111,-0.903584 2.45517,-1.547436 1.03561,-0.960614 1.74972,-2.342956 2.41713,-3.574253 -0.4364,2.263403 -0.63289,4.830344 -1.78712,6.854473 -0.53972,-0.688691 -2.02662,-0.640754 -2.75518,-1.234603 l -0.14754,-0.121296 c -0.47463,-0.329159 -0.37606,0.152904 -0.80688,0.225844 l 0.0615,-1.038306 z"
     id="path3"
     style="stroke-width:0.206628" />
  <path
     fill="#090909"
     d="m 152.77316,243.53702 c 0.36718,0.93601 0.2742,1.9795 0.27709,2.97131 0.01,3.3825 -0.49156,7.8932 1.44516,10.84592 l 0.0364,0.006 c 0.87693,1.76873 2.78431,2.75643 4.58362,3.35357 2.57583,0.85338 5.32873,1.11166 7.80766,-0.15084 0.14113,-0.0723 0.27294,-0.14877 0.42379,-0.19835 l -0.23741,0.24382 c -1.31477,1.12405 -3.25956,1.61377 -4.95287,1.54145 -2.5372,-0.1075 -5.65212,-1.58071 -7.36176,-3.45277 -3.22216,-3.5292 -2.24853,-10.70953 -2.02165,-15.1603 z"
     id="path4"
     style="stroke-width:0.206628" />
  <path
     fill="#3e3e3e"
     d="m 167.92602,54.330778 c -0.097,-1.345355 -4.79685,-8.061181 -5.85811,-9.540019 -0.3649,-0.508303 -1.70509,-1.977017 -1.74269,-2.477471 l 0.65521,-0.111379 c 5.33142,4.081731 8.38724,9.183999 10.00865,15.655798 -0.94347,-1.279649 -1.93363,-2.401432 -3.06676,-3.515984 z"
     id="path5"
     style="stroke-width:0.206628" />
  <path
     fill="#252323"
     d="m 42.995388,313.14795 c 3.735422,-0.14876 7.190243,-2.13445 9.835496,-4.64914 0.494462,-0.4711 0.972599,-1.29967 1.608807,-1.5373 -2.037766,3.58913 -6.429852,6.4158 -10.349381,7.50473 -4.589624,1.27696 -9.678233,1.24391 -13.919088,-1.16331 -1.478755,-0.84097 -2.734702,-1.92371 -3.176741,-3.62012 -0.114163,-0.43599 -0.15026,-0.86165 -0.153897,-1.31003 0.931995,1.97123 3.340328,3.29985 5.315321,4.00858 3.626922,1.30382 7.066661,1.35548 10.839483,0.76659 z"
     id="path6"
     style="stroke-width:0.206628" />
  <path
     fill="#252323"
     d="m 149.59481,32.249261 -0.031,-0.197949 c -0.10745,-0.576907 -0.62463,-1.248303 -0.9259,-1.760223 -1.36333,-2.316839 -2.86159,-4.398679 -4.60161,-6.446281 4.77104,2.148085 9.26913,5.382083 11.2009,10.457096 0.41946,1.101535 0.89883,2.535533 0.77382,3.724265 l -0.30808,-0.125429 c -0.003,-0.526074 0.0973,-1.161042 -0.27275,-1.556116 -0.11882,0.154351 -0.11943,0.110759 -0.14671,0.264485 -0.13596,0.763077 -0.25622,1.407137 -0.52111,2.142939 -0.40706,-1.08955 -0.55025,-2.296464 -0.91165,-3.412463 -0.37751,-1.165588 -1.0538,-2.297291 -1.79084,-3.265964 l 1.65881,4.780548 c -0.89326,-1.323453 -2.1884,-3.607932 -3.67757,-4.27059 -0.20373,-0.09071 -0.29899,-0.154971 -0.44631,-0.334324 z"
     id="path7"
     style="stroke-width:0.206628" />
  <defs
     id="defs8">
    <linearGradient
       id="gradient_0"
       gradientUnits="userSpaceOnUse"
       x1="652.72144"
       y1="1137.4663"
       x2="746.60742"
       y2="1146.3356"
       gradientTransform="matrix(0.20662808,0,0,0.20662808,14.970833,10.311764)">
      <stop
         offset="0"
         stop-color="#B67909"
         id="stop7" />
      <stop
         offset="1"
         stop-color="#FFAA14"
         id="stop8" />
    </linearGradient>
  </defs>
  <path
     fill="url(#gradient_0)"
     d="m 152.77316,243.53702 c -0.55996,-0.59509 -0.91411,-1.14886 -1.21249,-1.91337 -0.75027,-1.91751 -1.34102,-5.57897 -0.40706,-7.47995 0.57092,-1.16124 1.32035,-0.75625 2.17249,-1.28315 0.37276,-0.23143 0.66865,-0.63229 1.01268,-0.90917 0.54281,-0.43804 1.19907,-0.64261 1.85635,-0.83684 0.17626,0.11777 0.2056,0.0929 0.2746,0.30581 -0.51201,0.35127 -1.0666,0.45871 -1.59785,0.74799 -1.08645,0.59302 -1.8427,2.06835 -2.06173,3.25025 -0.48392,2.60766 0.54509,5.18845 0.73043,7.75477 0.25085,3.47548 -0.33577,7.09974 0.27461,10.53389 0.23411,1.31829 0.72506,2.43202 1.49929,3.51887 l 0.41119,0.55377 0.12315,0.0497 c 0.63104,0.26241 1.21788,0.84717 1.86813,1.16538 2.59896,1.27489 6.18954,1.87618 8.95133,0.78106 0.66782,-0.26656 1.18171,-0.65502 1.6334,-1.21704 -0.12851,0.76245 -0.34632,1.16538 -0.82941,1.76666 l -0.12541,0.0392 c -0.15084,0.0497 -0.28266,0.12596 -0.42379,0.19835 -2.47892,1.2625 -5.23183,1.00421 -7.80766,0.15083 -1.7993,-0.59714 -3.70669,-1.58483 -4.58362,-3.35356 l -0.0364,-0.006 c -1.93673,-2.95272 -1.43545,-7.46342 -1.44516,-10.84592 -0.003,-0.99181 0.0901,-2.03529 -0.27709,-2.9713 z"
     id="path8"
     style="fill:url(#gradient_0);stroke-width:0.206628" />
  <path
     fill="#f2b853"
     d="m 26.840584,308.37278 c 0.255723,-0.79965 0.71609,-1.55591 1.106038,-2.2977 1.505389,2.51053 4.380433,4.04371 7.160841,4.74418 3.768174,0.94842 7.423838,0.42565 11.113389,-0.56409 -0.06922,0.61574 -0.641167,1.0786 -1.100708,1.44432 l -2.124756,1.44846 c -3.772822,0.58889 -7.212561,0.53723 -10.839483,-0.76659 -1.974993,-0.70873 -4.383326,-2.03735 -5.315321,-4.00858 z"
     id="path9"
     style="stroke-width:0.206628" />
  <path
     fill="#252323"
     d="m 50.878456,282.67238 c 0.822379,0.45871 1.472845,1.91132 2.121244,2.66137 0.794278,0.9195 1.646825,1.78939 2.564875,2.58697 0.477517,0.41326 1.167241,0.79966 1.54909,1.28523 0.141746,0.19216 0.287213,0.25003 0.502932,0.33888 0.875484,0.35746 2.496687,0.56823 3.398001,0.24796 1.260016,-0.45046 2.346881,-1.40714 3.587268,-1.91959 l 0.09774,-0.0372 -0.984788,7.15347 c -0.105581,1.18605 -0.284733,2.3845 -0.598809,3.53748 -2.389033,1.46499 -4.483829,2.80807 -6.379022,4.91155 l -0.02418,0.1777 0.223365,0.13218 c -0.738488,0.15703 -0.903997,0.55582 -1.337297,1.15711 l -1.159183,2.05594 c -0.636208,0.23763 -1.114345,1.06621 -1.608807,1.53731 -2.645253,2.51468 -6.100074,4.50037 -9.835496,4.64913 l 2.124756,-1.44846 c 0.459541,-0.36572 1.031488,-0.82857 1.100708,-1.44432 l 0.873416,-0.30374 c -0.226257,-0.37813 0.568228,-1.93818 0.743861,-2.40929 0.510992,-1.37201 0.289694,-2.96511 0.941605,-4.25033 0.479996,-0.94636 1.342669,-1.84106 2.009871,-2.67171 2.445651,-3.04156 4.83675,-5.94882 5.809969,-9.8169 -0.805643,-1.27076 -1.99334,-2.25224 -2.913042,-3.44242 -1.055457,-1.36788 -1.842503,-2.91139 -2.78886,-4.35159 z"
     id="path10"
     style="stroke-width:0.206628" />
  <path
     fill="#ca8523"
     d="m 55.248227,304.27947 c 2.623556,-3.26059 5.397745,-6.44885 8.466586,-9.28999 -0.105582,1.18605 -0.284733,2.38449 -0.598809,3.53748 -2.389033,1.46498 -4.483829,2.80806 -6.379022,4.91153 l -0.02418,0.17772 0.223366,0.13216 c -0.738488,0.15705 -0.903997,0.55583 -1.337297,1.15712 l -1.159183,2.05594 c -0.636207,0.23763 -1.114345,1.06621 -1.608808,1.53731 -2.645252,2.51468 -6.100073,4.50038 -9.835496,4.64914 l 2.124757,-1.44846 c 0.45954,-0.36573 1.031488,-0.82858 1.100707,-1.44432 l 0.873417,-0.30375 c 3.39738,-1.04554 5.87795,-3.00438 8.153958,-5.67195 z"
     id="path11"
     style="stroke-width:0.206628" />
  <path
     fill="#3b2b12"
     d="m 156.19513,231.11454 0.64923,-0.15705 c -0.98582,2.60352 -0.75687,6.40754 0.37152,8.91807 0.94388,2.09934 2.91572,4.76278 4.84335,6.00669 0.71949,0.46491 1.59972,0.75006 2.39544,1.05587 -0.32213,1.41333 -0.67133,2.62211 0.17853,3.92387 1.27985,1.95676 3.29076,2.56011 3.64452,5.13883 0.1182,0.86163 -0.0716,1.73982 0.024,2.55806 -0.45168,0.56203 -0.96557,0.95049 -1.6334,1.21705 -2.76179,1.09512 -6.35236,0.49382 -8.95133,-0.78107 -0.65026,-0.31821 -1.23708,-0.90297 -1.86812,-1.16538 l -0.12315,-0.0497 -0.41119,-0.55377 c -0.77424,-1.08686 -1.26518,-2.20059 -1.49929,-3.51887 -0.61038,-3.43416 -0.0238,-7.05842 -0.27461,-10.5339 -0.18534,-2.56632 -1.21435,-5.14711 -0.73043,-7.75476 0.21903,-1.1819 0.97529,-2.65723 2.06173,-3.25026 0.53124,-0.28928 1.08584,-0.39672 1.59785,-0.74799 -0.069,-0.21282 -0.0983,-0.18802 -0.2746,-0.30581 z"
     id="path12"
     style="stroke-width:0.206628" />
  <path
     fill="#3b2b12"
     d="m 27.946622,306.07508 c 1.868104,-4.02306 6.480147,-6.59764 9.766938,-9.27141 3.342829,-2.72128 6.427786,-5.71947 9.404264,-8.83335 1.385235,-1.44845 3.204596,-2.99816 3.779848,-4.96113 0.946357,1.44018 1.733403,2.98371 2.78886,4.35157 0.919702,1.19018 2.107399,2.17167 2.913043,3.44242 -0.97322,3.8681 -3.364319,6.77536 -5.80997,9.81691 -0.667202,0.83065 -1.529875,1.72534 -2.009871,2.6717 -0.651911,1.28523 -0.430613,2.87833 -0.941605,4.25034 -0.175633,0.47112 -0.970118,2.03115 -0.74386,2.40929 l -0.873417,0.30375 c -3.689551,0.98974 -7.345215,1.51251 -11.113389,0.56409 -2.780408,-0.70047 -5.655452,-2.23365 -7.160841,-4.74418 z"
     id="path13"
     style="stroke-width:0.206628" />
  <path
     fill="#b17131"
     d="m 189.80733,90.526234 0.12681,0.119224 c 0.94614,0.874862 2.0888,1.51169 3.12897,2.266295 2.06875,1.500534 4.2276,3.413084 5.76989,5.459322 1.69393,2.247495 2.32744,4.864225 2.75352,7.594205 0.0616,0.39404 0.0903,1.3718 0.25043,1.671 0.56596,1.05691 1.8425,2.21092 2.60495,3.1831 1.06539,1.35838 1.95678,2.82171 2.91533,4.25282 0.72422,1.08108 1.53337,2.13343 2.13756,3.28828 1.49951,2.86593 2.04377,6.7057 2.4911,9.88426 0.17193,1.22117 0.23928,2.55537 0.57341,3.741 1.14017,4.04661 3.68727,7.65702 4.59829,11.79474 -0.16178,0.65956 -0.31304,1.36664 -0.67422,1.95099 -0.41615,0.6734 -1.01124,1.23088 -1.44331,1.89933 -1.00482,1.55529 -1.62306,3.05995 -3.32836,4.05446 -1.35155,0.78827 -3.1393,0.81845 -4.60904,0.40788 -0.31945,-0.0892 -0.68517,-0.24776 -1.01041,-0.2928 -0.7792,-0.10762 -2.23675,0.50128 -3.10645,0.58807 -4.44105,0.44343 -9.19701,-1.16146 -13.01695,-3.39325 l -3.0552,-1.43978 c 2.444,-1.23812 4.89728,-4.40345 6.21062,-6.71686 l 0.0925,-0.003 c 1.14452,-2.33593 2.35804,-4.77207 2.73741,-7.37745 0.13019,-0.89325 0.0907,-1.84415 0.0941,-2.7465 l -0.64118,-3.16202 c 4.9163,3.03102 9.67123,5.27334 15.27788,6.75776 -0.81226,-1.69332 -1.92618,-3.55193 -3.09777,-5.01899 l -1.56603,-1.77783 c -0.16365,-0.17935 -0.53249,-0.50128 -0.60419,-0.72154 -0.15661,-0.48186 0.0951,-1.70696 0.10369,-2.26362 0.0716,-4.67537 -1.27594,-10.75106 -5.45934,-13.4988 -0.71989,-0.47297 -1.4999,-0.9197 -2.2824,-1.28048 -0.50563,-0.23286 -1.18027,-0.39031 -1.56955,-0.7953 0.28226,-0.0849 0.64427,-0.16593 0.86702,-0.36842 0.44692,-0.40644 0.60045,-1.42635 0.63309,-2.00078 0.32544,-5.73496 -1.84332,-9.70987 -5.94468,-13.524844 -0.96062,-0.893253 -2.12517,-1.613765 -2.98805,-2.599794 l -0.0947,-0.110138 c 0.36925,0.06488 0.75151,0.157863 1.12509,0.179353 z"
     id="path14"
     style="stroke-width:0.206628" />
  <path
     fill="#f2b853"
     d="m 196.04832,130.71167 c 4.4299,1.80945 9.00589,4.62373 10.92505,9.2495 0.52235,1.2592 0.7077,2.40888 0.7827,3.7563 -4.91527,-0.47608 -9.75202,-1.71585 -14.53917,-2.88184 1.14452,-2.33593 2.35804,-4.77208 2.7374,-7.37746 0.1302,-0.89325 0.0907,-1.84415 0.0941,-2.7465 z"
     id="path15"
     style="stroke-width:0.206628" />
  <path
     fill="#bf7d37"
     d="m 31.284141,89.098434 -0.409743,-0.162203 c -1.613289,-0.794485 -0.316244,-2.166495 -0.549404,-3.346135 -0.128321,-0.649225 -2.24332,-1.562936 -2.698273,-2.2134 -0.556636,-0.795725 0.07953,-1.985282 0.272005,-2.852707 0.02451,-0.110548 0.131084,-0.41863 0.114864,-0.522562 -0.03878,-0.248368 -0.460678,-0.70295 -0.625071,-0.898007 -0.646456,-0.767623 -1.420278,-1.48111 -1.709537,-2.46404 0.176502,-1.158357 1.209807,-2.243982 1.941953,-3.107273 2.663229,-3.14054 5.852535,-6.180246 9.072295,-8.743467 0.945116,0.181419 1.975364,0.862465 2.905604,1.19183 l 5.705827,1.828246 c 2.358041,0.806469 4.23505,1.506318 5.3994,3.877376 0.36821,0.920941 0.430819,1.775762 0.691171,2.706208 l 0.676499,0.223777 c 6.581931,0.108474 12.988436,-1.383168 19.539786,-1.725963 2.725631,-0.142574 5.400845,-0.04091 8.116145,0.214273 1.506937,0.141746 2.981644,0.420282 4.499534,0.434125 l 3.007059,1.104841 c 0.786013,2.046238 1.189971,4.048671 1.105667,6.244301 -0.02293,0.594469 -0.05476,1.408789 -0.312217,1.957801 -0.09009,0.192371 -0.175219,0.275436 -0.329363,0.412636 0.677118,0.289899 1.345562,0.446316 2.065039,0.596743 l 0.145467,-0.370898 c 0.02748,0.834776 0.07542,1.67286 -0.0062,2.505777 -0.226672,1.642902 -0.670509,3.013878 -1.453423,4.477838 -0.822381,0.87693 -1.611493,1.65034 -2.601862,2.343164 -0.405197,0.283494 -1.711707,0.05743 -2.206373,-0.02521 l -0.133074,-0.08389 c -0.713678,-0.30437 -2.01461,-0.298791 -2.813227,-0.407476 -1.888375,-0.257253 -3.779642,-0.543226 -5.640327,-0.957309 -4.874563,-1.085417 -9.625356,-2.790099 -14.44227,-4.114172 -2.864278,-0.787459 -5.757693,-1.681333 -8.759585,-1.556941 -0.187618,0.0076 -0.805023,-0.02108 -0.936231,0.04649 -0.239896,0.123356 -0.662658,0.703569 -0.869078,0.917223 -0.891807,0.923214 -1.861099,1.695797 -3.059336,2.191497 -1.214354,0.502519 -2.598761,0.651086 -3.895973,0.449623 -0.352921,-0.05476 -1.822046,-0.551284 -2.06628,-0.470699 -0.425862,0.14072 -0.969705,0.881682 -1.36106,1.17592 -0.727123,0.546739 -1.563142,0.942845 -2.375396,1.345977 l -0.229564,0.187411 c -1.108147,0.146293 -2.15538,-0.668856 -3.112894,-1.143893 z"
     id="path16"
     style="stroke-width:0.206628" />
  <path
     fill="#7b431e"
     d="m 40.486509,74.456354 c -0.01114,-0.206628 -0.01859,-0.157037 -0.0015,-0.314075 0.08699,-0.804609 0.0075,-1.253612 -0.331844,-1.992307 l -0.03844,-0.08224 c 0.411809,0.271715 0.594468,0.860606 0.799856,1.296798 l -0.48904,3.091568 c 2.725424,0.91805 5.036766,1.982597 7.967373,1.179021 l 0.06178,0.153731 -0.128519,0.05206 c -0.427514,0.170261 -0.817834,0.276675 -1.268491,0.360358 -2.305763,0.428134 -4.283399,-0.445282 -6.455474,-1.112277 -0.270889,1.247619 -0.530414,2.443168 -1.582978,3.286006 0.168195,0.704395 0.313043,1.457554 0.573807,2.132607 0.357259,0.924662 0.823206,1.679268 0.930859,2.694018 0.03698,0.347962 -0.365524,1.917302 -0.364079,1.919781 0.175428,0.329366 0.825067,0.637241 1.083558,1.063309 -0.226258,-0.02583 -0.214479,0.01157 -0.38722,-0.160757 -0.326474,-0.325853 -0.53558,-0.555417 -1.006486,-0.647986 l -0.309941,0.173568 -0.153526,-0.139677 0.09918,-0.09422 c 0.44611,-0.437017 0.743242,-0.859159 0.750681,-1.501566 0.01114,-0.979624 -0.489089,-1.825972 -0.944085,-2.660956 -0.920114,0.642613 -1.590209,0.868252 -2.657856,1.170754 -0.517191,0.146501 -1.073496,0.190512 -1.6055,0.264485 -0.783492,-0.04277 -2.366946,-0.07294 -3.045616,-0.432886 L 34.8527,84.25754 c -0.33641,-1.362091 -0.600028,-3.198809 -1.509129,-4.283607 -0.38282,-0.247333 -0.738861,-0.489087 -1.023387,-0.8511 -0.48504,-0.617198 -0.629451,-1.095749 -0.544114,-1.86358 0.07805,0.176875 0.134514,0.336804 0.169972,0.526283 l 0.03343,0.185344 c 1.22171,0.655632 2.436042,1.025703 3.840122,0.860607 1.932385,-0.227498 3.51743,-2.935772 4.666901,-4.375143 z"
     id="path17"
     style="stroke-width:0.206628" />
  <path
     fill="#b17131"
     d="m 39.931506,76.33853 0.21262,0.113228 c 0.07108,0.51347 0.08845,0.891599 -0.03121,1.404864 l -0.04317,0.177493 c -0.125627,0.545085 -0.327299,1.159804 -0.726091,1.569341 -0.423174,0.434539 -0.864532,0.372757 -1.43152,0.374823 l -0.429992,-0.01157 -0.03203,-0.150425 0.462019,-0.237829 c 1.097403,-0.720925 1.794358,-1.975572 2.019376,-3.239928 z"
     id="path18"
     style="stroke-width:0.206628" />
  <path
     fill="#bf7d37"
     d="m 31.979486,77.970891 c 1.22171,0.655631 2.436042,1.025702 3.840122,0.860606 1.932385,-0.227498 3.51743,-2.935771 4.666901,-4.375143 -0.101661,0.698404 -0.41615,1.238529 -0.555003,1.882176 -0.884162,1.282541 -1.932799,3.050037 -3.590989,3.354607 -1.016217,0.186585 -2.669367,0.07376 -3.53235,-0.570501 -0.353373,-0.263864 -0.638934,-0.761423 -0.828681,-1.151745 z"
     id="path19"
     style="stroke-width:0.206628" />
  <path
     fill="#bf7d37"
     d="m 33.343583,79.973944 c 1.758859,0.343417 3.404817,0.610999 5.202275,0.516157 0.142573,0.66121 0.546119,1.79064 0.334945,2.425607 -0.541367,0.740143 -1.702615,1.124057 -2.583884,1.249274 l -1.444208,0.09258 c -0.33641,-1.362091 -0.600027,-3.19881 -1.509128,-4.283607 z"
     id="path20"
     style="stroke-width:0.206628" />
  <path
     fill="#f2b853"
     d="m 49.62071,79.15921 c 0.37565,-0.06468 0.623397,-0.04504 0.994295,0.03719 0.315522,0.370277 0.521944,0.750887 0.691998,1.202368 0.288659,0.765558 0.733323,2.468173 0.326886,3.214101 -0.639308,1.173855 -1.843743,2.168355 -3.15046,2.490902 l -0.185758,0.04256 c -0.744273,0.176462 -1.483796,0.125007 -2.242948,0.10145 l -0.190098,-0.05537 c -0.298991,-0.0841 -0.62443,-0.159311 -0.899659,-0.307255 -0.633522,-0.341144 -1.093476,-1.107734 -1.265183,-1.786508 -0.202289,-0.799444 -0.134302,-2.107812 0.341349,-2.801257 0.95049,-1.385646 4.003832,-1.828245 5.579578,-2.138187 z"
     id="path21"
     style="stroke-width:0.206628" />
  <path
     fill="#f2b853"
     d="m 31.284141,89.098434 -0.409743,-0.162203 c -1.613289,-0.794485 -0.316244,-2.166495 -0.549404,-3.346135 -0.128321,-0.649225 -2.24332,-1.562936 -2.698273,-2.2134 -0.556636,-0.795725 0.07953,-1.985282 0.272005,-2.852707 0.02451,-0.110548 0.131084,-0.41863 0.114864,-0.522562 -0.03878,-0.248368 -0.460678,-0.70295 -0.625071,-0.898007 -0.646456,-0.767623 -1.420278,-1.48111 -1.709537,-2.46404 0.176502,-1.158357 1.209807,-2.243982 1.941953,-3.107273 2.663229,-3.14054 5.852535,-6.180246 9.072295,-8.743467 0.945116,0.181419 1.975364,0.862465 2.905604,1.19183 l 5.705827,1.828246 c 2.358041,0.806469 4.23505,1.506318 5.3994,3.877376 -0.347342,0.820519 -0.177907,1.900565 -0.28742,2.783692 -0.08886,0.716794 -0.407057,1.333373 -0.766384,1.949124 -0.542605,0.383708 -1.203816,0.728363 -1.865438,0.83643 -1.656125,0.270063 -4.138761,-0.486196 -5.475438,-1.462099 -0.849448,-0.620298 -1.226337,-1.426148 -1.394739,-2.428707 -0.205389,-0.436192 -0.388048,-1.025083 -0.799857,-1.296799 l 0.03844,0.08224 c 0.339282,0.738695 0.418835,1.187698 0.331844,1.992307 -0.01715,0.157038 -0.0097,0.107444 0.0015,0.314075 -1.149472,1.439372 -2.734516,4.147645 -4.666901,4.375143 -1.404079,0.165096 -2.618413,-0.204975 -3.840123,-0.860606 l -0.03343,-0.185345 c -0.03546,-0.189478 -0.09193,-0.349408 -0.16997,-0.526282 -0.08534,0.76783 0.05908,1.246381 0.544112,1.863579 0.284527,0.362013 0.640568,0.603767 1.023388,0.8511 0.909101,1.084798 1.172718,2.921516 1.509128,4.283608 l -2.869692,-0.10207 c 0.678671,0.359946 2.262124,0.390114 3.045616,0.432885 0.714107,1.112692 1.493094,2.110294 1.566034,3.476312 -0.668855,0.702948 -2.651266,0.212 -3.584729,0.689931 l 3.79487,0.109927 c 0.311595,0.568021 0.309116,1.519337 0.381435,2.170834 0.01757,0.158484 0.01488,0.108474 0.102903,0.286387 l -0.229564,0.187413 c -1.108147,0.146292 -2.15538,-0.668856 -3.112895,-1.143893 z"
     id="path22"
     style="stroke-width:0.206628" />
  <path
     fill="#f2b853"
     d="m 52.071733,74.616077 c 6.581931,0.108474 12.988435,-1.383168 19.539786,-1.725963 2.72563,-0.142574 5.400844,-0.04091 8.116145,0.214273 1.506937,0.141746 2.981642,0.420282 4.499532,0.434125 l 3.007059,1.104841 c 0.786013,2.046238 1.189971,4.048671 1.105667,6.244301 -0.02293,0.594469 -0.05476,1.408789 -0.312216,1.957801 -0.09009,0.192371 -0.17522,0.275436 -0.329364,0.412636 0.677119,0.289899 1.345562,0.446316 2.065041,0.596743 l 0.145466,-0.370898 c 0.02748,0.834776 0.07542,1.67286 -0.0062,2.505777 -0.200223,-0.113438 -0.353954,-0.194023 -0.576699,-0.259317 -0.667408,-0.195883 -1.324072,-0.504173 -1.969372,-0.767004 -0.119223,0.498181 -0.229563,1.058143 -0.64344,1.399286 -1.970199,1.624717 -6.565194,1.259399 -8.92654,1.107734 -4.742528,-0.304777 -9.696436,-1.831965 -13.988515,-3.778815 -2.14666,-0.973631 -4.306335,-2.05099 -6.177147,-3.500073 -2.146246,-1.66253 -3.776955,-3.551111 -5.549204,-5.575447 z"
     id="path23"
     style="stroke-width:0.206628" />
  <path
     fill="#b17131"
     d="m 87.356578,84.963392 -8.125649,-3.720338 c 0.920736,-0.004 1.8892,0.315934 2.783694,0.526075 l 5.683719,1.488962 c 0.677119,0.289899 1.345562,0.446316 2.065041,0.596743 l 0.145466,-0.370898 c 0.02748,0.834776 0.07542,1.67286 -0.0062,2.505777 -0.200245,-0.113438 -0.353976,-0.194023 -0.576721,-0.259317 -0.667408,-0.195883 -1.324072,-0.504173 -1.969372,-0.767004 z"
     id="path24"
     style="stroke-width:0.206628" />
  <path
     fill="#f2b853"
     d="m 166.83234,81.578205 c 1.68981,0.806055 3.42653,1.632155 5.19091,2.259685 3.21865,1.144719 6.83175,1.846428 10.20537,2.326838 1.26497,0.01921 2.51157,0.02747 3.76228,0.243822 1.6772,0.836017 2.91739,2.500199 3.81643,4.117684 -0.37358,-0.02149 -0.75586,-0.114468 -1.1251,-0.179353 l 0.0947,0.110139 c 0.86288,0.986028 2.02744,1.706541 2.98806,2.599794 4.10136,3.814974 6.27012,7.789876 5.94468,13.524846 -0.0326,0.57443 -0.18617,1.59434 -0.6331,2.00078 -0.22275,0.20249 -0.58476,0.28349 -0.86702,0.36842 0.38928,0.40499 1.06393,0.56244 1.56954,0.7953 0.78251,0.36078 1.56253,0.80751 2.28242,1.28048 4.1834,2.74773 5.53082,8.82343 5.45932,13.4988 -0.009,0.55666 -0.26034,1.78176 -0.10367,2.26362 0.0717,0.22026 0.44054,0.54219 0.60418,0.72154 l 1.56603,1.77783 c 1.17159,1.46706 2.28552,3.32567 3.09777,5.01899 -5.60664,-1.48442 -10.36157,-3.72674 -15.27787,-6.75777 -0.55253,-1.21146 -0.9042,-2.36569 -1.63401,-3.50028 -0.97199,-1.04885 -1.75986,-1.67823 -3.01202,-2.36878 -0.73581,0.13616 -1.65345,0.044 -2.40763,0.0475 -2.31258,0.011 -4.50697,-0.0448 -6.78464,-0.49136 -1.30403,-0.34714 -2.65826,-0.71183 -3.89286,-1.26188 -0.98894,-0.32833 -1.94293,-0.77651 -2.86347,-1.26187 -2.27042,-1.19721 -3.59097,-2.86614 -4.34847,-5.30456 -1.16622,-2.33511 -1.78217,-5.12892 -2.6093,-7.61404 -0.55976,-1.68258 -1.34041,-3.28497 -2.19833,-4.83324 -1.23088,-2.067724 -2.54483,-3.30894 -4.74045,-4.32307 l 2.64545,-2.948583 c 1.16436,-1.450941 2.41486,-3.172774 3.0021,-4.948743 0.75151,-2.27167 0.53062,-4.827451 0.26882,-7.162556 z"
     id="path25"
     style="stroke-width:0.206628" />
  <path
     fill="#b17131"
     d="m 190.76112,121.68058 c 4.23298,-0.14898 8.47196,1.65282 11.98918,3.90692 -3.00457,-0.92176 -5.79096,-1.85924 -8.97716,-1.53814 -0.97199,-1.04884 -1.75986,-1.67823 -3.01202,-2.36878 z"
     id="path26"
     style="stroke-width:0.206628" />
  <path
     fill="#b17131"
     d="m 172.24083,105.33651 c 0.006,1.60343 1.12799,3.28167 2.23221,4.3892 1.57617,1.58091 3.77985,2.20182 5.9699,2.20616 2.02083,0.004 3.87096,-0.69117 5.76472,-1.30299 -2.08241,1.59186 -4.78778,3.7381 -5.18224,6.50403 -0.20848,1.46189 0.045,2.73554 0.54343,4.10383 -1.30403,-0.34713 -2.65826,-0.71183 -3.89286,-1.26188 -1.3964,-1.08665 -2.6432,-2.29543 -3.68812,-3.72922 -2.39171,-3.28208 -2.37621,-7.08238 -1.74704,-10.90913 z"
     id="path27"
     style="stroke-width:0.206628" />
  <path
     fill="#3e3e3e"
     d="m 166.83234,81.578205 c 1.68981,0.806055 3.42653,1.632155 5.19091,2.259685 3.21865,1.144719 6.83175,1.846428 10.20537,2.326838 1.26497,0.01921 2.51157,0.02747 3.76228,0.243822 1.6772,0.836017 2.91739,2.500199 3.81643,4.117684 -0.37358,-0.02149 -0.75586,-0.114468 -1.1251,-0.179353 -1.95739,-0.975904 -3.98544,-1.14162 -6.07135,-0.445696 -3.39428,1.132528 -6.33893,5.329144 -7.84712,8.415755 -1.11145,2.27436 -1.86833,4.58115 -2.52293,7.01957 -0.62917,3.82675 -0.64467,7.62705 1.74704,10.90913 1.04492,1.43379 2.29172,2.64257 3.68812,3.72922 -0.98893,-0.32833 -1.94292,-0.7765 -2.86346,-1.26187 -2.27043,-1.1972 -3.59098,-2.86614 -4.34848,-5.30456 -1.16621,-2.3351 -1.78217,-5.12891 -2.6093,-7.61404 -0.55976,-1.68257 -1.34041,-3.28497 -2.19833,-4.83323 -1.23087,-2.067728 -2.54483,-3.308944 -4.74045,-4.323074 l 2.64545,-2.948583 c 1.16435,-1.450941 2.41487,-3.172775 3.00211,-4.948743 0.7515,-2.271669 0.53062,-4.827451 0.26881,-7.162555 z"
     id="path28"
     style="stroke-width:0.206628" />
  <path
     fill="#252323"
     d="m 185.9909,86.40855 c 1.6772,0.836017 2.91739,2.500199 3.81643,4.117684 -0.37358,-0.02149 -0.75586,-0.114468 -1.1251,-0.179353 -1.95739,-0.975904 -3.98544,-1.14162 -6.07135,-0.445696 -3.39428,1.132528 -6.33893,5.329144 -7.84712,8.415755 -1.11145,2.27436 -1.86833,4.58115 -2.52293,7.01957 -0.62917,3.82675 -0.64467,7.62705 1.74704,10.90913 1.04492,1.43379 2.29172,2.64257 3.68812,3.72922 -0.98893,-0.32833 -1.94292,-0.7765 -2.86346,-1.26187 -2.27043,-1.1972 -3.59098,-2.86614 -4.34848,-5.30456 l -0.28391,-3.76021 c -0.15498,-6.90862 4.32287,-15.994464 9.99211,-19.978666 0.98376,-0.691377 2.02641,-1.26167 3.11038,-1.77824 0.87776,-0.418217 1.94314,-0.646128 2.60971,-1.371185 z"
     id="path29"
     style="stroke-width:0.206628" />
  <path
     fill="#252323"
     d="m 166.83234,81.578205 c 1.68981,0.806055 3.42653,1.632155 5.19091,2.259685 3.21865,1.144719 6.83175,1.846428 10.20537,2.326838 l -0.0805,0.347548 c -6.43749,3.607727 -11.74804,8.84017 -16.49161,14.448884 -1.23088,-2.067728 -2.54483,-3.308944 -4.74045,-4.323074 l 2.64545,-2.948583 c 1.16436,-1.450941 2.41486,-3.172775 3.00211,-4.948743 0.7515,-2.271669 0.53061,-4.827451 0.26882,-7.162555 z"
     id="path30"
     style="stroke-width:0.206628" />
  <path
     fill="#dc1817"
     d="m 154.3518,96.08763 c 1.93776,-0.37441 4.6729,0.03058 6.56417,0.550456 2.19562,1.01413 3.50958,2.255346 4.74045,4.323074 0.85792,1.54826 1.63857,3.15066 2.19833,4.83323 0.82713,2.48513 1.44309,5.27894 2.6093,7.61404 0.7575,2.43842 2.07805,4.10736 4.34848,5.30456 0.92054,0.48537 1.87453,0.93354 2.86346,1.26187 1.2346,0.55005 2.58883,0.91475 3.89286,1.26188 2.27767,0.44653 4.47206,0.50231 6.78464,0.49137 0.75418,-0.004 1.67183,0.0887 2.40763,-0.0475 1.25216,0.69054 2.04003,1.31993 3.01202,2.36878 0.72981,1.13459 1.08149,2.28881 1.63401,3.50028 l 0.64117,3.16203 c -0.003,0.90234 0.0361,1.85324 -0.0941,2.7465 -0.37936,2.60537 -1.59289,5.04152 -2.73741,7.37745 l -0.0925,0.003 c -1.31334,2.31341 -3.76663,5.47875 -6.21062,6.71686 -1.29309,0.78332 -2.63864,1.74167 -4.07388,2.23055 -0.9133,0.31118 -2.29544,0.54591 -3.18415,0.043 -1.61459,-0.91352 -2.16091,-3.70857 -2.63595,-5.33619 l -1.11063,-3.56825 -0.0141,-0.0819 c -0.0381,-0.14277 -0.20993,-0.49239 -0.31965,-0.58765 -0.5734,-0.49693 -1.88238,-0.9164 -2.58678,-1.27552 l -10.82566,-5.46427 c -2.90539,-1.47822 -5.63846,-3.13042 -8.40914,-4.83861 -1.98136,-1.28585 -3.61806,-2.7839 -5.33824,-4.38341 -2.30721,-0.12233 -4.24785,-0.42503 -6.37055,-1.38709 l -0.85172,-0.68084 c -0.5955,-0.90173 -1.18729,-1.68258 -1.67224,-2.66324 -0.60335,-1.26208 -0.69799,-2.43655 -0.75234,-3.80794 0.22627,-0.79841 0.47194,-1.44785 0.91475,-2.15162 l 0.42431,-2.99039 c 0.32771,-1.48028 0.80874,-2.62707 1.80283,-3.77013 l 0.032,-0.41471 c 0.26882,-0.52029 0.36305,-1.27097 0.49612,-1.84932 0.2527,-0.94636 0.54549,-1.79808 0.96432,-2.68534 l 0.0277,0.0138 c 1.26642,-0.85275 2.80952,-1.15319 4.11645,-2.098927 l -0.3864,-0.154971 c 0.8075,-0.821966 1.61108,-1.467472 2.5688,-2.107812 0.36573,-0.146707 0.70935,-0.358295 1.0536,-0.549219 1.22282,-0.518223 2.25183,-0.758118 3.56867,-0.907923 z"
     id="path31"
     style="stroke-width:0.206628" />
  <path
     fill="#720d0e"
     d="m 151.54704,104.41102 c 0.54384,0.25974 1.23357,2.18158 1.53049,2.7682 1.31767,2.60269 2.78597,5.07726 3.8063,7.82107 -1.571,-2.43262 -3.42094,-4.95225 -4.58281,-7.6006 -0.44652,-1.01785 -0.8042,-1.85718 -0.75398,-2.98867 z"
     id="path32"
     style="stroke-width:0.206628" />
  <path
     fill="#fbd57a"
     d="m 154.3518,96.08763 c 0.13782,0.639101 -0.13513,1.300723 -0.32854,1.907383 -0.40024,1.25568 -0.87589,2.488007 -1.40858,3.693477 -0.36408,0.82403 -0.95194,1.82824 -1.06764,2.72253 l -2.30412,4.91817 c -1.33234,2.79794 -2.73844,5.68619 -3.63396,8.65647 l -0.18886,0.96971 c -0.16241,1.46375 0.62112,2.48325 1.49929,3.57962 l 1.4964,1.7582 c -2.30721,-0.12233 -4.24785,-0.42503 -6.37055,-1.3871 l -0.85172,-0.68083 c -0.5955,-0.90173 -1.18728,-1.68258 -1.67224,-2.66324 -0.60335,-1.26208 -0.69799,-2.43655 -0.75234,-3.80794 0.22627,-0.79842 0.47194,-1.44785 0.91475,-2.15162 l 0.424,-2.99033 c 0.32771,-1.48027 0.80874,-2.62706 1.80282,-3.77012 l 0.032,-0.41471 c 0.26882,-0.52029 0.36305,-1.27097 0.49612,-1.84933 0.2527,-0.94635 0.54549,-1.79807 0.96432,-2.68533 l 0.0277,0.0138 c 1.26642,-0.85276 2.80952,-1.15319 4.11645,-2.09893 l -0.3864,-0.154971 c 0.8075,-0.821966 1.61108,-1.467472 2.56879,-2.107812 0.36574,-0.146707 0.70936,-0.358295 1.05361,-0.549219 1.22282,-0.518224 2.25183,-0.758118 3.56867,-0.907923 z"
     id="path33"
     style="stroke-width:0.206628" />
  <path
     fill="#dc9d43"
     d="m 142.43866,104.57797 0.11654,0.36698 c 2.08426,-0.49859 4.07946,-1.56459 6.09967,-2.27828 -1.06786,2.00677 -2.81449,3.04735 -4.94916,3.72261 -0.55707,0.17626 -1.21911,0.40933 -1.79519,0.45273 l 0.032,-0.41471 c 0.26881,-0.52029 0.36304,-1.27097 0.49611,-1.84933 z"
     id="path34"
     style="stroke-width:0.206628" />
  <path
     fill="#dc9d43"
     d="m 140.10769,110.61213 0.17687,-6.1e-4 c 1.44165,-0.0161 2.93309,-0.61823 4.31585,-1.02549 0.41056,-0.12088 1.0447,-0.39962 1.44867,-0.37028 -1.44021,2.2698 -3.9712,3.37753 -6.36539,4.38671 z"
     id="path35"
     style="stroke-width:0.206628" />
  <path
     fill="#dc9d43"
     d="m 139.52128,119.56202 c 0.3275,-0.51657 0.20539,-1.49248 0.36304,-2.13467 0.19527,-0.79552 0.61989,-1.31684 1.3125,-1.73526 0.77321,-0.46719 2.05347,-1.08997 2.95024,-0.85234 0.98272,0.59984 1.1222,2.11628 1.4619,3.14591 l -0.18886,0.96971 c -0.16241,1.46375 0.62112,2.48325 1.49929,3.57962 l 1.4964,1.7582 c -2.30721,-0.12233 -4.24785,-0.42503 -6.37055,-1.3871 l -0.85172,-0.68083 c -0.5955,-0.90173 -1.18728,-1.68258 -1.67224,-2.66324 z"
     id="path36"
     style="stroke-width:0.206628" />
  <path
     fill="#920c0e"
     d="m 145.4201,118.95537 c 1.96999,2.65268 5.9358,4.40448 8.80215,5.96493 1.63112,0.88788 3.52177,2.08943 5.34609,2.46405 3.61516,-1.39123 6.78566,-4.86734 9.01166,-7.98143 -0.86224,3.36763 -3.46287,6.74992 -5.68247,9.33422 0.26635,0.3182 0.77527,0.40209 1.19183,0.44032 0.95318,0.0872 2.03922,-0.64055 2.71529,-1.24617 1.82784,-1.63732 3.14468,-3.69554 4.51875,-5.70335 -0.32108,1.28957 -0.99821,2.39337 -1.6867,3.51867 -1.02756,1.67906 -2.20512,3.40957 -3.57672,4.82848 l 25.14063,9.67413 1.92372,0.5893 c -1.31334,2.31341 -3.76663,5.47874 -6.21062,6.71686 -1.29309,0.78332 -2.63864,1.74167 -4.07389,2.23055 -0.91329,0.31118 -2.29542,0.54591 -3.18413,0.043 -1.6146,-0.91351 -2.16092,-3.70857 -2.63596,-5.33618 l -1.11062,-3.56825 -0.0141,-0.0819 c -0.0381,-0.14278 -0.20994,-0.49239 -0.31966,-0.58765 -0.5734,-0.49694 -1.88238,-0.9164 -2.58678,-1.27552 l -10.82566,-5.46427 c -2.9054,-1.47823 -5.63846,-3.13042 -8.40914,-4.83861 -1.98135,-1.28586 -3.61805,-2.7839 -5.33823,-4.38342 l -1.49614,-1.75819 c -0.87817,-1.09636 -1.6617,-2.11587 -1.49929,-3.57962 z"
     id="path37"
     style="stroke-width:0.206628" />
  <path
     fill="#b70e12"
     d="m 191.20061,140.24922 1.92372,0.5893 c -1.31334,2.31341 -3.76663,5.47874 -6.21062,6.71686 -1.29309,0.78332 -2.63864,1.74167 -4.07389,2.23055 -0.91329,0.31118 -2.29542,0.54591 -3.18413,0.043 -1.6146,-0.91351 -2.16092,-3.70857 -2.63596,-5.33618 l -1.11062,-3.56825 0.27088,-0.2492 c 0.42339,0.19175 0.87983,0.36512 1.27345,0.61142 l 5.88373,2.25886 c 1.24391,0.45747 2.70002,0.82734 3.83813,1.5028 1.55012,-1.36209 2.77129,-3.17112 4.02531,-4.79914 z"
     id="path38"
     style="stroke-width:0.206628" />
  <path
     fill="#720d0e"
     d="m 177.45344,141.2867 5.88373,2.25886 c 1.24391,0.45746 2.70002,0.82734 3.83813,1.5028 -1.32531,1.31849 -2.76139,2.54752 -4.6103,3.04136 -0.68888,0.1839 -1.55446,0.25973 -2.1855,-0.13493 -1.98238,-1.24038 -2.3942,-4.57019 -2.92606,-6.66809 z"
     id="path39"
     style="stroke-width:0.206628" />
  <path
     fill="#090909"
     d="m 100.84402,56.911356 c -0.22936,-0.0117 -0.48454,-0.167987 -0.69572,-0.26097 V 56.49025 c 4.1028,-1.594757 7.65991,-5.114046 10.36963,-8.479192 1.0786,-1.339363 2.04149,-2.843203 3.2515,-4.063755 2.16629,-2.185092 4.5297,-3.701949 7.20243,-5.189671 -4.1526,-0.699849 -7.67107,-0.672781 -11.74825,0.460575 4.99007,-4.112106 11.44595,-7.490268 17.95991,-7.983697 -2.72192,-1.875293 -4.91631,-4.154196 -6.85923,-6.82321 1.31085,0.786323 2.57995,1.516609 4.04019,1.996667 4.24911,1.396847 8.80278,1.362135 13.21842,1.715654 3.5788,0.286491 6.9113,0.580997 9.95038,2.683789 0.74077,0.432886 1.40011,0.895319 2.06153,1.441851 0.14732,0.179353 0.24259,0.243615 0.44631,0.334323 1.48918,0.662658 2.78432,2.947138 3.67757,4.270591 l -1.6588,-4.780548 c 0.73704,0.968673 1.41333,2.100375 1.79084,3.265964 0.36139,1.115998 0.50459,2.322912 0.91165,3.412463 0.26489,-0.735803 0.38515,-1.379863 0.52111,-2.14294 0.0273,-0.153731 0.0279,-0.110139 0.1467,-0.264484 0.37008,0.395074 0.27007,1.03004 0.27275,1.556115 l -0.0615,1.038307 c 0.43082,-0.07294 0.33225,-0.555003 0.80688,-0.225844 l 0.14753,0.121295 c 0.72857,0.593849 2.21547,0.545913 2.75519,1.234604 0.3587,0.442184 0.86121,0.443837 1.40485,0.568847 1.47801,0.340317 3.27465,0.508512 4.68055,1.00318 -1.41086,0.239894 -3.02256,0.627528 -4.45594,0.560787 l -0.65521,0.11138 c 0.0376,0.500453 1.37779,1.969167 1.74269,2.477471 1.06125,1.478838 5.76099,8.194664 5.85811,9.540019 l -3.1678,-2.421888 c 0.62691,1.695384 1.41601,3.265138 1.85902,5.039453 1.27944,5.123137 0.27875,10.016297 -1.45404,14.895819 -0.46449,1.307955 -0.91039,2.699389 -1.50322,3.955069 l -0.0808,0.158689 c 1.9175,1.670796 2.59215,3.173395 3.25315,5.620284 0.26181,2.335105 0.48268,4.890887 -0.26881,7.162556 -0.58724,1.775968 -1.83776,3.497801 -3.00211,4.948743 l -2.64545,2.948583 c -1.89127,-0.519877 -4.62641,-0.924867 -6.56417,-0.550456 -1.31684,0.149804 -2.34585,0.389699 -3.56868,0.907922 -0.34423,0.190924 -0.68786,0.402512 -1.05359,0.549219 -0.95772,0.64034 -1.7613,1.285846 -2.56879,2.107812 l 0.38638,0.154971 c -1.30691,0.945733 -2.85001,1.246173 -4.11644,2.098933 l -0.0277,-0.0138 c -0.41883,0.88725 -0.71163,1.73897 -0.96433,2.68533 -0.13307,0.57836 -0.22729,1.32903 -0.49611,1.84933 -0.137,-0.003 -0.26097,-0.007 -0.39467,-0.0405 -1.32221,-0.32958 -3.97759,-1.80326 -4.71215,-2.91449 l -0.18534,-0.0564 -0.19568,-0.0984 c -0.39751,-0.0738 -0.79238,-0.24034 -1.14199,-0.44262 -1.86379,-1.07881 -3.2046,-3.455653 -4.39891,-5.193602 -3.25687,-4.738808 -6.40217,-9.744995 -8.86765,-14.944584 -0.78209,-1.649512 -1.40879,-3.355227 -1.9047,-5.111359 l -0.22295,-0.662037 c -0.0358,-0.876516 -0.39797,-1.936725 -0.58517,-2.807043 l -0.22626,-0.471731 c -0.37565,-0.918669 -0.29754,-2.077645 -0.85089,-2.910563 -1.20113,1.574093 -2.05079,3.832538 -2.62335,5.719465 -1.63154,-3.849067 -2.61508,-8.090523 -3.39676,-12.187338 -1.40672,2.748154 -2.4628,5.674008 -3.19343,8.672388 -0.39074,-4.438991 -1.07633,-9.612752 -0.14424,-14.003806 0.22998,-1.082937 0.6513,-2.116077 1.0658,-3.138681 l -1.06724,0.693858 c -2.575,1.355273 -5.34795,1.257951 -8.05291,0.381435 z"
     id="path40"
     style="stroke-width:0.206628" />
  <path
     fill="#dc9d43"
     d="m 155.91515,68.146552 0.51285,-1.738981 c 0.2085,-0.524837 0.64448,-0.936026 1.17097,-1.143068 0.53164,-0.209108 1.41498,-0.160963 1.91771,0.08823 0.94346,0.468012 1.37945,1.362505 1.72307,2.299357 l -0.19795,-0.02418 c -0.40147,-0.06612 -0.65129,-0.394453 -0.98272,-0.596534 -0.69779,-0.425654 -1.61046,-0.63001 -2.35432,-0.193405 -0.81598,0.479171 -0.99121,1.16497 -1.59828,1.796218 -0.0793,-0.159929 -0.13575,-0.318206 -0.19133,-0.487642 z"
     id="path41"
     style="stroke-width:0.206628" />
  <path
     fill="#bf7d37"
     d="m 126.73967,66.954307 -0.37895,2.79196 c 2.10761,-2.808696 4.38465,-5.095862 7.03817,-7.387987 l -1.74002,3.881922 c -0.25972,0.608519 -0.68538,1.351554 -0.54549,2.026609 -0.34859,0.695923 -0.82156,1.697036 -1.37285,2.242535 0.10105,-1.320562 -0.26365,-2.607234 -0.23658,-3.961889 -0.92797,0.990369 -1.91999,2.758899 -2.9521,3.527141 -0.18597,0.138449 -0.34754,0.283494 -0.51719,0.44198 l -0.15332,-0.153526 c 0.15539,-1.226131 0.41285,-2.254105 0.85833,-3.408745 z"
     id="path42"
     style="stroke-width:0.206628" />
  <path
     fill="#ca8523"
     d="m 132.82281,66.35922 c 0.6796,-0.853581 1.65095,-1.580499 2.46817,-2.304525 2.38655,-2.114424 5.02375,-4.070158 7.07102,-6.520974 l 0.61017,1.694143 2.41755,5.784968 -0.12149,0.457059 c -0.31098,-0.282046 -0.50231,-0.739314 -0.70254,-1.107526 -0.74241,-1.366431 -1.14658,-2.810762 -1.64537,-4.275341 l -0.49777,-1.66315 c -1.53566,2.251834 -4.08008,4.556149 -6.40052,6.00358 -0.94883,0.715345 -2.01172,1.806342 -3.19922,1.931766 z"
     id="path43"
     style="stroke-width:0.206628" />
  <path
     fill="#ca8523"
     d="m 118.25615,70.774036 c 0.10374,-0.05414 0.19795,-0.02769 0.31304,-0.02356 l 0.0576,-0.319653 c 0.69323,-2.76675 7.38488,-7.32166 9.86421,-8.860006 -0.16055,0.524422 -0.34796,0.980243 -0.59261,1.46954 -0.13721,0.02893 -0.28391,0.02913 -0.41181,0.08678 -0.56802,0.256219 -5.04792,5.358485 -5.59652,6.218678 l -0.19568,0.366972 -0.074,-0.357054 -0.12624,-0.07748 c -0.31243,0.337836 -0.6763,1.35548 -0.91558,1.523262 -0.5831,0.267376 -0.95007,1.457141 -1.18522,2.089423 l -0.28638,0.793658 c -0.37565,-0.918669 -0.29754,-2.077645 -0.85089,-2.910562 z"
     id="path44"
     style="stroke-width:0.206628" />
  <path
     fill="#b17131"
     d="m 155.91515,68.146552 c 0.0556,0.169436 0.11198,0.327713 0.19133,0.487642 0.60707,-0.631248 0.7823,-1.317047 1.59828,-1.796218 0.74386,-0.436605 1.65653,-0.232249 2.35432,0.193405 0.33143,0.202081 0.58125,0.530413 0.98272,0.596534 l 0.19795,0.02418 c 0.93314,2.20059 0.29486,5.593836 -0.555,7.711774 -0.5986,1.491854 -1.45921,2.686578 -2.60951,3.806297 1.0441,1.466645 2.47748,3.048175 3.93647,4.103425 l 0.52835,-3.122769 0.67091,-2.98619 0.36822,-1.206708 c 1.91751,1.670795 2.59215,3.173395 3.25315,5.620284 0.26181,2.335105 0.48269,4.890887 -0.26881,7.162556 -0.58724,1.775968 -1.83776,3.497802 -3.00211,4.948743 l -2.64545,2.948583 c -1.89127,-0.519876 -4.62641,-0.924866 -6.56417,-0.550457 -1.31684,0.149805 -2.34585,0.3897 -3.56867,0.907924 -0.34424,0.190923 -0.68787,0.402511 -1.0536,0.549217 l 3.10025,-5.584537 c 0.81866,-1.785681 1.59517,-3.729638 1.93879,-5.670909 0.28618,-1.615211 0.27668,-3.367005 0.30085,-5.004738 0.0115,-0.768243 0.1432,-1.915442 -0.12563,-2.630583 l -0.32874,-0.08948 z"
     id="path45"
     style="stroke-width:0.206628" />
  <path
     fill="#920c0e"
     d="m 163.57919,75.957921 c 1.91751,1.670795 2.59215,3.173395 3.25315,5.620284 0.26181,2.335104 0.48269,4.890886 -0.26881,7.162555 -0.58724,1.775968 -1.83776,3.497802 -3.00211,4.948743 l -2.64545,2.948583 c -1.89127,-0.519876 -4.62641,-0.924866 -6.56417,-0.550456 -1.31684,0.149804 -2.34585,0.389699 -3.56867,0.907923 l -0.0907,-0.133893 4.17389,-3.050452 c 1.90161,-1.496813 3.62695,-3.173186 5.27294,-4.942543 1.80676,-1.942304 3.20109,-3.750506 4.01293,-6.306909 -0.38929,-0.947802 -0.95834,-1.638974 -1.61211,-2.410936 l 0.67091,-2.98619 z"
     id="path46"
     style="stroke-width:0.206628" />
  <path
     fill="#720d0e"
     d="m 163.21097,77.164629 c 0.70441,0.557897 0.86516,1.079012 0.96972,1.964413 0.12102,1.026529 0.21076,2.428706 -0.0285,3.432713 -0.3893,-0.947803 -0.95834,-1.638974 -1.61211,-2.410937 z"
     id="path47"
     style="stroke-width:0.206628" />
  <path
     fill="#252323"
     d="m 100.84402,56.911356 c -0.22936,-0.0117 -0.48454,-0.167987 -0.69572,-0.26097 V 56.49025 c 4.1028,-1.594757 7.65991,-5.114046 10.36963,-8.479192 1.0786,-1.339363 2.04149,-2.843203 3.2515,-4.063755 2.16629,-2.185092 4.5297,-3.701949 7.20243,-5.189671 -4.1526,-0.699849 -7.67107,-0.672781 -11.74825,0.460575 4.99007,-4.112106 11.44595,-7.490268 17.95991,-7.983697 -2.72192,-1.875293 -4.91631,-4.154196 -6.85923,-6.82321 1.31085,0.786323 2.57995,1.516609 4.04019,1.996667 4.24911,1.396847 8.80278,1.362135 13.21842,1.715654 3.5788,0.286491 6.9113,0.580997 9.95038,2.683789 -0.007,0.128914 -0.0571,0.385568 -0.0273,0.501074 0.0369,0.144845 0.31925,0.458921 0.4114,0.592402 l 1.27076,1.902838 c 0.742,1.216212 1.46727,2.547311 2.00265,3.867252 -6.86357,-5.058256 -16.10667,-6.603008 -24.48089,-6.264551 1.77245,0.525456 3.57363,1.029421 5.28595,1.731957 1.74539,0.716172 3.40586,1.64042 5.06942,2.527682 l -6.52242,-0.949664 4.61752,2.137155 -11.83153,-1.208361 7.5754,2.108639 c -2.96139,0.571948 -6.03354,0.238655 -8.95609,0.902346 2.28035,0.440531 4.25117,1.061448 6.35816,2.049956 -1.35177,0.301264 -2.70559,0.628356 -3.98916,1.158358 -2.00409,0.827338 -3.8346,1.949535 -5.767,2.915728 l 0.17853,-0.02975 4.64191,-0.394246 c -0.83437,1.05587 -2.73266,3.2515 -2.56881,4.630122 0.0622,0.524009 0.37772,0.884988 0.38309,1.462926 l 0.23907,0.106005 c 2.42829,-1.36705 4.54293,-3.220918 6.65818,-5.017136 -1.69167,3.21224 -3.94701,5.854807 -6.2534,8.628582 2.43967,-1.447842 4.75307,-3.662276 7.32415,-4.756372 1.5776,-0.671128 3.37836,-0.936439 5.05743,-1.227371 l -3.98648,4.296419 c 3.71538,-2.071447 6.99601,-4.93056 9.85182,-8.064282 -0.99678,3.527349 -3.42445,6.483989 -5.35146,9.520802 2.51507,-1.942924 4.84087,-4.075324 7.00716,-6.401957 l -3.15727,5.2841 c 2.58368,-1.820394 5.01094,-3.896592 7.47891,-5.870925 0.9011,-0.720925 1.90201,-1.745387 2.90973,-2.273527 l -4.08898,16.079385 c -0.17192,-1.182119 -0.47111,-2.371884 -0.59364,-3.55359 -0.2401,-2.314235 -0.0442,-4.547266 0.54363,-6.782361 l -2.9899,3.510818 c -1.36499,1.515824 -2.86015,2.883288 -4.43631,4.175954 -0.39982,0.327918 -0.98872,0.950696 -1.46437,1.126123 l 3.31927,-4.755132 -6.04614,3.874896 c -0.84429,0.57236 -3.14488,2.602274 -3.91003,2.7527 0.42751,-1.829692 0.84966,-3.698644 1.71812,-5.379149 0.41408,-0.801305 0.98024,-1.505905 1.43048,-2.284686 -6.16971,4.88634 -14.3371,9.267269 -17.14268,17.122029 -0.37462,-5.104127 -0.39301,-9.868971 1.63958,-14.680719 0.48268,-1.142655 1.17034,-2.171248 1.68216,-3.293446 -1.99396,2.216499 -3.6943,4.664423 -5.2998,7.170822 -1.00545,1.569753 -2.08157,3.248399 -2.84961,4.949362 -0.47255,1.046572 -0.80606,2.145833 -1.19513,3.224639 -0.009,-4.086691 0.84655,-8.263884 2.47354,-12.019144 0.76927,-1.775762 1.76688,-3.444696 2.64277,-5.167975 -3.05334,3.138475 -6.37034,4.976845 -10.7399,5.669669 -0.75667,0.119843 -2.21671,0.05373 -2.81179,0.49756 z"
     id="path48"
     style="stroke-width:0.206628" />
  <path
     fill="#f2b853"
     d="m 136.02203,64.427454 c 2.32043,-1.447431 4.86486,-3.751746 6.40052,-6.00358 l 0.49776,1.66315 c 0.4988,1.464579 0.90296,2.90891 1.64538,4.275341 0.20022,0.368212 0.39156,0.82548 0.70254,1.107526 l 0.12149,-0.457059 0.016,-0.102903 c 0.1374,-1.029215 -0.0407,-2.18468 -0.10765,-3.221746 0.99676,0.984996 1.78836,2.160918 2.58202,3.311009 2.00718,2.908291 3.59904,5.992421 4.93489,9.26045 0.58373,1.427801 1.20878,2.88019 1.58836,4.378037 l 0.21179,-0.07316 0.32874,0.08947 c 0.26883,0.715141 0.137,1.86234 0.12564,2.630583 -0.0242,1.637734 -0.0147,3.389528 -0.30086,5.004739 -0.34361,1.941271 -1.12013,3.885229 -1.93879,5.670908 l -3.10025,5.584537 c -0.95772,0.640342 -1.76129,1.285848 -2.56879,2.107814 l 0.38638,0.154971 c -1.30691,0.945739 -2.85001,1.246179 -4.11644,2.098929 l -0.0277,-0.0138 c -0.41883,0.88726 -0.71163,1.73898 -0.96433,2.68533 -0.13307,0.57836 -0.22729,1.32904 -0.49611,1.84933 -0.137,-0.003 -0.26097,-0.007 -0.39467,-0.0405 -1.32221,-0.32957 -3.97759,-1.80324 -4.71215,-2.91449 l -0.18534,-0.0564 -0.19568,-0.0984 c -0.39754,-0.0738 -0.79241,-0.24032 -1.14202,-0.44261 -1.86379,-1.0788 -3.2046,-3.455643 -4.39891,-5.193592 -3.25687,-4.738808 -6.40217,-9.744995 -8.86765,-14.944584 -0.78209,-1.649512 -1.40879,-3.355226 -1.9047,-5.111359 l -0.22295,-0.662037 c -0.0358,-0.876516 -0.39797,-1.936725 -0.58517,-2.807042 l -0.22626,-0.471732 0.28639,-0.793658 c 0.23514,-0.632282 0.60212,-1.822047 1.18521,-2.089423 0.23928,-0.167782 0.60316,-1.185426 0.91558,-1.523262 l 0.12624,0.07748 0.074,0.357054 0.19568,-0.366972 c 0.5486,-0.860193 5.0285,-5.96246 5.59652,-6.218678 0.1279,-0.05765 0.27461,-0.05786 0.41181,-0.08678 l -1.15877,3.913947 c -0.44548,1.154638 -0.70295,2.182613 -0.85833,3.408745 l 0.15331,0.153525 c 0.16965,-0.158485 0.33123,-0.303537 0.5172,-0.441979 1.03211,-0.768242 2.02413,-2.536772 2.95209,-3.527142 -0.0271,1.354656 0.33763,2.641328 0.23659,3.961888 0.55129,-0.545498 1.02426,-1.546611 1.37283,-2.242535 l 1.70944,-1.90759 c 1.1875,-0.125428 2.25039,-1.21642 3.19922,-1.931765 z"
     id="path49"
     style="stroke-width:0.206628" />
  <path
     fill="#bf7d37"
     d="m 138.31912,94.207314 3.3327,-0.03698 c -1.50818,0.521323 -3.28993,0.670096 -4.86754,0.949663 l -3.09363,0.59385 c 1.07922,-0.961854 3.25212,-1.349489 4.62847,-1.506527 z"
     id="path50"
     style="stroke-width:0.206628" />
  <path
     fill="#b17131"
     d="m 135.85446,88.95958 h 0.52628 c -0.41883,0.889534 -1.17655,1.310229 -2.09955,1.53194 -0.32441,0.07791 -0.65645,0.05476 -0.86061,0.327713 l 0.51968,0.152285 0.0784,0.235142 -0.23349,0.153939 c -0.61761,-0.08637 -1.19948,-0.353954 -1.77659,-0.580831 -0.78953,-0.289074 -1.50529,-0.728158 -2.23137,-1.146167 2.09128,0.07955 4.03441,-0.305603 6.07734,-0.674021 z"
     id="path51"
     style="stroke-width:0.206628" />
  <path
     fill="#090909"
     d="m 134.92174,78.469072 c -0.14857,-0.143401 -0.21386,-0.257046 -0.31366,-0.434953 l 0.0428,-0.102281 c 1.03976,-2.300185 4.88448,-3.89432 7.10161,-4.763812 -0.60294,0.640135 -1.54145,1.180053 -2.257,1.707369 -0.74263,0.364905 -1.47884,0.705634 -2.13178,1.221585 0.01,0.389081 0.0434,0.455201 0.23224,0.774856 0.30664,-0.06014 0.40975,-0.103115 0.71143,0 0.0217,0.577938 0.0498,1.153811 -0.36884,1.614592 -0.29816,0.328331 -0.64199,0.487022 -1.05318,0.628148 -0.48619,-0.184311 -1.17055,-1.462099 -1.4776,-1.390401 z"
     id="path52"
     style="stroke-width:0.206628" />
  <path
     fill="#fefefe"
     d="m 122.71208,77.903944 -0.38743,-0.102281 c 0.37917,-0.267997 1.0098,-0.139676 1.46252,-0.06384 0.81722,0.136784 2.307,0.854614 2.89713,1.449289 0.86474,0.57918 1.72431,1.063515 2.56033,1.70117 -0.99946,0.483717 -3.0833,0.718446 -4.15364,0.487849 -0.48165,-0.10372 -1.54702,-0.48351 -1.79622,-0.918254 -0.41821,-0.729604 -0.66657,-1.453216 -0.85647,-2.268778 z"
     id="path53"
     style="stroke-width:0.206628" />
  <path
     fill="#090909"
     d="m 122.71208,77.903944 -0.38743,-0.102281 c 0.37917,-0.267997 1.0098,-0.139676 1.46252,-0.06384 0.81722,0.136784 2.307,0.854614 2.89713,1.449289 -0.52174,-0.164889 -1.12964,-0.588682 -1.6367,-0.378128 l 0.0163,0.387427 0.69799,0.542398 -0.25601,0.339078 c -0.54591,0.214479 -0.61265,0.254153 -1.17634,0.11674 -0.76162,-0.636414 -1.11827,-1.450735 -1.61748,-2.290678 z"
     id="path54"
     style="stroke-width:0.206628" />
  <path
     fill="#090909"
     d="m 119.10704,73.684598 0.28639,-0.793658 c 0.23514,-0.632282 0.60212,-1.822047 1.18521,-2.089423 l -0.25166,0.801304 c 2.251,3.194263 6.17363,4.708226 8.81454,7.49254 -1.90511,-1.097195 -3.85588,-1.756958 -5.83187,-2.668395 -1.38605,-0.639307 -2.69236,-1.448255 -3.97635,-2.270636 z"
     id="path55"
     style="stroke-width:0.206628" />
  <path
     fill="#fefefe"
     d="m 139.49545,74.875396 c 0.95669,0.111169 1.91441,0.191544 2.53719,1.04306 0.25414,0.347547 0.2994,0.764729 0.19464,1.176127 -0.29465,1.155049 -2.03095,2.279933 -3.01677,2.78018 -0.67443,0.341969 -1.71357,0.602321 -2.45371,0.382469 -0.77506,-0.230391 -1.37718,-1.165384 -1.83506,-1.78816 l 0.48599,-0.744895 c 0.30705,-0.0717 0.9914,1.20609 1.47759,1.390401 0.41119,-0.141126 0.75502,-0.299817 1.05318,-0.628149 0.41864,-0.46078 0.39054,-1.036653 0.36884,-1.614592 -0.30168,-0.103114 -0.40479,-0.06013 -0.71142,0 -0.18886,-0.319654 -0.22233,-0.385775 -0.23225,-0.774856 0.65294,-0.515951 1.38915,-0.85668 2.13178,-1.221585 z"
     id="path56"
     style="stroke-width:0.206628" />
  <path
     fill="#090909"
     d="m 140.39428,67.222925 c 1.23378,0.09009 3.54987,2.335724 4.5328,3.174013 l -1.55736,-0.176873 c -0.34362,0.03844 -0.73476,0.07707 -1.04284,0.244029 -0.81432,0.441356 -1.57885,1.336263 -2.27043,1.963586 -2.15162,1.951809 -4.71856,4.352827 -7.42952,5.443617 -0.46905,-0.204148 -1.11084,-0.473798 -1.45177,-0.87073 -0.28432,-0.331225 -0.36801,-0.653152 -0.3616,-1.0786 l 0.72402,0.519877 0.1525,-0.02686 c 0.6205,-0.132241 1.4251,-0.923628 1.90738,-1.343495 2.56343,-2.23179 5.01404,-4.949157 6.79682,-7.848561 z"
     id="path57"
     style="stroke-width:0.206628" />
  <path
     fill="#dc9d43"
     d="m 136.02203,64.427454 c 2.32043,-1.447431 4.86486,-3.751746 6.40052,-6.00358 l 0.49776,1.66315 c 0.4988,1.464579 0.90296,2.90891 1.64538,4.275341 0.20022,0.368212 0.39156,0.82548 0.70254,1.107526 l 0.27667,0.02521 0.17584,-0.240102 c 1.37326,1.380483 3.39118,9.204868 3.70856,11.462073 0.26924,1.914617 0.26346,3.816009 0.25828,5.744262 -0.009,3.186618 -0.34238,6.111645 -1.24121,9.17594 -0.25828,0.880029 -0.50128,1.895192 -0.9602,2.694843 0.0163,-3.966845 -0.27151,-7.62065 -1.26002,-11.481495 -0.47483,-1.854487 -1.13397,-3.646987 -1.55963,-5.516143 -0.53537,-2.351428 -0.72382,-4.764225 -1.2968,-7.114413 l 1.55736,0.176873 c -0.98293,-0.838288 -3.29902,-3.083922 -4.5328,-3.174012 -1.6117,-0.767209 -3.03329,-1.601781 -4.37225,-2.795472 z"
     id="path58"
     style="stroke-width:0.206628" />
  <path
     fill="#bf7d37"
     d="m 145.38972,65.012832 0.016,-0.102903 c 0.1374,-1.029215 -0.0407,-2.18468 -0.10766,-3.221746 0.99677,0.984996 1.78836,2.160918 2.58203,3.311009 2.00718,2.908291 3.59904,5.992421 4.93489,9.26045 0.58372,1.427801 1.20877,2.88019 1.58836,4.378037 l 0.21178,-0.07316 0.32875,0.08947 c 0.26883,0.715141 0.13699,1.86234 0.12563,2.630583 -0.0242,1.637734 -0.0147,3.389528 -0.30085,5.004739 -0.34362,1.941271 -1.12014,3.885229 -1.93879,5.670908 l -3.10026,5.584537 c -0.95771,0.640342 -1.76129,1.285848 -2.56879,2.107814 l 0.38639,0.154971 c -1.30692,0.945739 -2.85002,1.246179 -4.11644,2.098929 l -0.0277,-0.0138 c -0.41884,0.88726 -0.71163,1.73898 -0.96433,2.68533 -0.13308,0.57836 -0.2273,1.32904 -0.49612,1.84933 -0.13699,-0.003 -0.26097,-0.007 -0.39466,-0.0405 -1.32222,-0.32957 -3.97759,-1.80324 -4.71215,-2.91449 l -0.18534,-0.0564 -0.19568,-0.0984 c 1.87266,0.22233 4.79687,-0.59571 6.35567,-1.63587 2.80146,-1.869572 4.01106,-4.144755 4.67578,-7.349556 0.45892,-0.799651 0.70192,-1.814815 0.9602,-2.694844 0.89883,-3.064295 1.23296,-5.989321 1.24122,-9.17594 0.005,-1.928253 0.011,-3.829645 -0.25828,-5.744262 -0.31739,-2.257205 -2.33531,-10.081589 -3.70856,-11.462072 l -0.17585,0.240101 -0.27667,-0.02521 z"
     id="path59"
     style="stroke-width:0.206628" />
  <path
     fill="#090909"
     d="m 136.83573,103.47231 c 1.70138,-0.0229 3.18559,-0.12501 4.77746,-0.81474 0.59818,-0.25931 1.14368,-0.64364 1.7898,-0.76493 -0.41883,0.88726 -0.71163,1.73898 -0.96433,2.68533 -0.13307,0.57836 -0.22729,1.32904 -0.49611,1.84933 -0.137,-0.003 -0.26097,-0.007 -0.39466,-0.0405 -1.32222,-0.32957 -3.9776,-1.80324 -4.71216,-2.9145 z"
     id="path60"
     style="stroke-width:0.206628" />
  <path
     fill="#3e3e3e"
     d="m 84.227196,73.538512 c 1.915649,-0.251466 3.857954,-0.45954 5.791992,-0.272955 2.422508,0.233696 4.909691,1.123437 7.133419,2.090249 0.846557,0.368005 1.956561,0.732498 2.691124,1.272829 l 0.886849,0.795933 c 0.83973,0.05063 1.42305,-0.261386 2.2072,-0.490949 0.75006,-0.219439 2.06463,-0.513885 2.76365,-0.139267 -0.21758,0.280808 -0.59323,0.404164 -0.91185,0.556243 1.11228,0.353335 2.31754,0.47979 3.46887,0.661623 3.34737,0.528968 6.54929,0.660384 9.92517,0.432267 0.53228,-0.59075 1.0817,-1.029422 1.73485,-1.481112 l 0.22295,0.662038 c 0.49591,1.756133 1.12262,3.461846 1.9047,5.111359 2.46548,5.199589 5.61078,10.205775 8.86765,14.944583 1.19431,1.737949 2.53512,4.114797 4.39891,5.193597 0.34961,0.20229 0.74448,0.36883 1.14203,0.4426 l 0.19568,0.0983 0.18534,0.0564 c 0.73456,1.11125 3.38994,2.58492 4.71216,2.9145 0.13368,0.0332 0.25766,0.0374 0.39466,0.0405 l -0.032,0.4147 c -0.99408,1.14306 -1.47511,2.28985 -1.80283,3.77013 l -0.42399,2.99033 c -0.44281,0.70377 -0.68849,1.3532 -0.91475,2.15161 0.0543,1.37139 0.14898,2.54587 0.75234,3.80795 0.48495,0.98066 1.07673,1.7615 1.67224,2.66323 l 0.85172,0.68084 c 2.12268,0.96206 4.06334,1.26477 6.37055,1.38709 1.72018,1.59951 3.35688,3.09756 5.33823,4.38341 2.77069,1.7082 5.50375,3.36039 8.40915,4.83861 l 10.82566,5.46428 c 0.70441,0.35912 2.01339,0.77858 2.58678,1.27552 0.10975,0.0953 0.28163,0.44487 0.31966,0.58765 l 0.0141,0.0819 1.11062,3.56825 c 0.47504,1.62761 1.02136,4.42267 2.63596,5.33617 0.88871,0.50294 2.27084,0.26821 3.18413,-0.043 1.43525,-0.48888 2.7808,-1.44722 4.07389,-2.23055 l 3.0552,1.43979 -2.1731,10.70623 c -0.29569,1.79188 -0.6821,3.68066 -0.57341,5.50334 0.0436,0.72981 0.16738,1.44908 0.4457,2.12826 0.57504,1.40322 1.72246,2.61922 0.82982,4.21688 -0.25518,0.45685 -0.77608,0.73331 -1.20526,1.00338 l -0.21903,0.13613 c 0.85213,1.81646 5.39073,12.62434 5.15269,13.58268 -0.80874,1.2156 -1.66377,2.12311 -2.84258,2.98846 l -5.18658,1.77846 c -4.12429,1.22592 -8.08804,1.95408 -12.37867,2.21092 -2.36756,0.14175 -4.75844,-0.0941 -7.10903,-0.36325 -4.6508,-0.53227 -9.14393,-1.57492 -13.44468,-3.45111 -2.13096,-0.92962 -4.0247,-1.90346 -5.77919,-3.45688 -1.15795,-0.57236 -2.13839,-1.38688 -3.1455,-2.18406 l -5.02292,-4.3615 -6.92287,-6.54124 -2.61984,-2.64401 c -0.5207,-0.52876 -1.02219,-1.13418 -1.66438,-1.515 -0.16159,-0.36572 -0.60336,-0.6986 -0.88623,-0.98395 -0.89408,-0.90214 -2.34771,-2.20266 -2.36114,-3.55091 0.16861,-0.37503 0.44529,-0.574 0.79717,-0.76968 2.06545,-1.14762 4.377,-2.02848 6.52759,-3.01161 0.61141,-0.27957 1.5338,-0.56844 2.04561,-0.99409 0.22978,-0.19092 0.3833,-0.71473 0.51182,-1.00339 l 1.43463,-3.17029 c 0.17128,-0.35004 0.39507,-0.90172 0.66988,-1.17716 0.60046,-0.6017 2.53492,-1.16848 3.36474,-1.49186 l -1.02757,-7.79257 c -0.25911,-1.13171 -0.0773,-2.56094 -0.46306,-3.63191 -0.56698,-1.57387 -1.51912,-3.14425 -2.19583,-4.69438 -1.378,-3.15604 -2.56694,-6.42488 -3.61413,-9.70531 -0.96516,-3.0238 -1.71997,-6.09967 -2.42871,-9.19185 -0.35581,-1.55281 -0.57752,-3.11906 -1.07364,-4.63757 -0.42524,-1.21889 -0.60727,-2.67955 -1.25815,-3.79617 -0.47194,-0.80956 -1.21477,-1.50156 -1.86462,-2.16856 -3.24943,-3.33498 -7.3357,-5.3589 -11.91293,-6.22178 -2.36052,-0.44507 -4.79708,-0.41346 -7.03672,-1.377381 -2.58368,-1.111864 -4.98263,-3.571565 -7.178459,-5.343815 -2.842378,1.350314 -6.279016,2.315267 -9.439599,1.805103 -2.222905,-0.358912 -3.751333,-1.223031 -5.079745,-3.038258 0.494668,0.08264 1.801177,0.308702 2.206374,0.02521 0.990369,-0.692824 1.779481,-1.466234 2.601861,-2.343162 0.782915,-1.46396 1.226751,-2.834938 1.453422,-4.477838 0.08161,-0.832919 0.03368,-1.671001 0.0062,-2.505779 l -0.145467,0.370898 c -0.719479,-0.150426 -1.387921,-0.306843 -2.065041,-0.596742 0.154144,-0.137207 0.239275,-0.220266 0.329364,-0.412637 0.257459,-0.549011 0.28928,-1.363331 0.312216,-1.9578 0.0843,-2.19563 -0.319654,-4.198064 -1.105667,-6.244302 z"
     id="path61"
     style="stroke-width:0.206628" />
  <path
     fill="#252323"
     d="m 119.91847,76.963373 0.22295,0.662037 c -1.11806,1.856345 -2.69133,3.714553 -4.31749,5.147312 0.58847,-1.510245 1.49516,-2.962634 2.35969,-4.328239 0.53228,-0.590749 1.0817,-1.029421 1.73485,-1.48111 z"
     id="path62"
     style="stroke-width:0.206628" />
  <path
     fill="#ca8523"
     d="m 87.234255,74.643353 c 0.960614,0.522975 1.19555,1.365605 1.493921,2.365684 0.626702,2.099342 1.089343,4.284021 1.180673,6.474899 l -0.145466,0.370898 c -0.719479,-0.150427 -1.387922,-0.306844 -2.065041,-0.596743 0.154144,-0.137208 0.239275,-0.220265 0.329364,-0.412636 0.257459,-0.549012 0.28928,-1.363332 0.312216,-1.957801 0.0843,-2.19563 -0.319654,-4.198063 -1.105667,-6.244301 z"
     id="path63"
     style="stroke-width:0.206628" />
  <path
     fill="#252323"
     d="m 100.73058,77.424568 c 0.83973,0.05063 1.42305,-0.261386 2.2072,-0.490949 0.75006,-0.219439 2.06463,-0.513885 2.76365,-0.139267 -0.21758,0.280808 -0.59323,0.404164 -0.91185,0.556243 -0.91619,0.253327 -1.79828,0.854408 -2.63368,1.302377 l -5.960598,3.330639 c -0.581246,0.328538 -1.799732,1.231916 -2.436352,1.204228 1.330065,-1.391639 2.879777,-2.620251 4.374733,-3.830264 0.8199,-0.663485 1.656121,-1.455903 2.596897,-1.933007 z"
     id="path64"
     style="stroke-width:0.206628" />
  <path
     fill="#252323"
     d="m 136.65039,103.4159 0.18534,0.0564 c 0.73456,1.11124 3.38994,2.58492 4.71216,2.91449 0.13368,0.0332 0.25766,0.0374 0.39466,0.0405 l -0.032,0.4147 c -0.99408,1.14306 -1.47511,2.28985 -1.80283,3.77013 l -0.42399,2.99033 c -0.44281,0.70377 -0.68849,1.3532 -0.91475,2.15162 -0.34094,-0.71266 -0.44879,-1.50592 -0.65108,-2.26465 -0.88789,-3.33084 -1.39557,-6.62574 -1.46747,-10.07353 z"
     id="path65"
     style="stroke-width:0.206628" />
  <path
     fill="#252323"
     d="m 137.18659,144.78739 0.16386,-0.72506 c 0.56615,0.83994 0.82341,2.15679 1.13273,3.12608 l 2.06153,6.19801 c 1.12964,3.01057 2.11443,6.15318 3.64388,8.98585 1.56976,2.90704 3.9935,5.699 6.16206,8.19507 3.27547,3.77013 6.65095,7.40886 10.36592,10.75499 l -0.19238,0.10721 c -4.97518,-3.5848 -9.66564,-7.11421 -14.08459,-11.38977 -2.24522,-2.17248 -4.42143,-4.43279 -6.20855,-7.00613 -0.82941,-1.1941 -1.8454,-2.6498 -2.06835,-4.11871 -0.3023,-1.99128 0.0913,-4.28775 0.0514,-6.33502 z"
     id="path66"
     style="stroke-width:0.206628" />
  <path
     fill="#252323"
     d="m 88.449229,90.467551 c 0.456027,-0.03306 0.834984,-0.121084 1.267457,-0.268202 2.63182,-2.485943 3.008504,-7.251819 3.539952,-10.633496 l 0.320273,3.489949 0.117572,4.447257 c 2.568181,2.490902 5.208479,4.571646 8.549857,5.930639 0.63806,0.259525 1.39784,0.647779 2.0795,0.692203 l -5.586594,-6.43605 c 1.702614,0.52029 3.438074,1.545785 5.051014,2.314235 3.06264,1.459413 6.20938,2.804768 9.15156,4.497673 2.0578,1.183978 3.9406,2.586571 5.8703,3.961886 -2.26175,-3.252946 -4.46131,-7.409063 -4.89977,-11.413515 1.75241,2.7434 3.38456,5.456014 5.39547,8.032667 1.53256,1.963794 3.2858,3.764971 4.93717,5.629173 0.52298,0.59033 4.49417,4.92126 4.5326,5.25724 0.0485,0.42296 -0.21552,1.2565 -0.29176,1.70013 l -0.75522,4.55388 c -0.0618,0.28824 -0.10601,0.48371 -0.31739,0.70315 -0.42524,-1.2189 -0.60728,-2.67955 -1.25815,-3.79616 -0.47195,-0.80958 -1.21477,-1.50157 -1.86462,-2.16857 -3.24943,-3.33498 -7.33571,-5.3589 -11.91293,-6.22178 -2.36052,-0.44508 -4.79708,-0.41346 -7.03672,-1.377383 -2.58368,-1.111865 -4.98263,-3.571565 -7.17846,-5.343815 -2.842379,1.350315 -6.279018,2.315268 -9.439601,1.805102 -2.222905,-0.358912 -3.751332,-1.22303 -5.079745,-3.038258 0.494668,0.08264 1.801177,0.308703 2.206375,0.02521 0.990368,-0.692825 1.77948,-1.466234 2.60186,-2.343164 z"
     id="path67"
     style="stroke-width:0.206628" />
  <path
     fill="#252323"
     d="m 141.19352,122.22526 0.85172,0.68083 c 2.1227,0.96207 4.06334,1.26477 6.37055,1.3871 1.72018,1.59951 3.35688,3.09756 5.33824,4.38341 2.77068,1.70819 5.50375,3.36038 8.40914,4.83861 l 10.82566,5.46427 c 0.7044,0.35912 2.01338,0.77858 2.58678,1.27552 0.10974,0.0953 0.28162,0.44487 0.31965,0.58765 l 0.0141,0.0819 1.11063,3.56825 c 0.47504,1.62761 1.02136,4.42267 2.63595,5.33617 0.88871,0.50294 2.27085,0.26821 3.18415,-0.043 1.43524,-0.48887 2.7808,-1.44722 4.07388,-2.23055 l 3.05519,1.43979 -2.1731,10.70622 c -0.29569,1.79188 -0.68209,3.68067 -0.5734,5.50335 0.0436,0.7298 0.16738,1.44908 0.44571,2.12826 0.57503,1.40322 1.72244,2.61921 0.82981,4.21687 -0.25518,0.45686 -0.77609,0.73332 -1.20526,1.00338 l -0.21904,0.13613 c 0.85214,1.81647 5.39074,12.62435 5.15271,13.58269 -0.80875,1.2156 -1.66378,2.12312 -2.84259,2.98846 l -5.18658,1.77846 c -4.1243,1.22592 -8.08804,1.95408 -12.37867,2.21092 -2.36755,0.14175 -4.75843,-0.0941 -7.10904,-0.36325 -4.6508,-0.53228 -9.14391,-1.57492 -13.44467,-3.45111 -2.13096,-0.92962 -4.0247,-1.90346 -5.77918,-3.45688 l 3.3077,0.89985 c 5.95089,1.62265 12.03919,2.15618 18.16385,1.34598 2.75332,-0.36449 5.27831,-0.83581 7.70455,-2.22311 -5.80047,-2.60558 -10.40333,-7.44563 -14.52494,-12.16068 -5.76223,-6.59144 -10.6992,-13.69841 -15.16236,-21.2207 -1.70448,-2.87276 -3.46185,-5.80026 -4.9349,-8.7974 0.91742,0.9199 1.68134,2.01153 2.50826,3.01347 l 4.03358,4.66979 c 7.48077,8.41968 15.61178,15.77977 26.32092,19.85179 2.01792,0.76721 4.12429,1.28255 6.21206,1.82081 -0.0619,-0.13598 -0.17296,-0.16614 -0.30127,-0.24444 -11.94267,-7.28406 -22.24124,-17.01728 -30.38486,-28.40806 l -7.44687,-11.32219 0.0892,-0.1655 5.13967,6.20276 c 7.16855,8.08165 14.94025,15.70601 24.11681,21.50027 3.61538,2.28283 7.45349,4.18196 11.39078,5.83622 l -8.8286,-7.11008 -9.84521,-9.34248 c -5.01588,-4.84005 -9.8479,-9.71234 -14.1689,-15.1946 -2.30824,-2.92834 -4.51234,-5.96412 -6.22363,-9.28608 -0.49736,-0.96536 -1.40694,-2.32518 -1.45797,-3.41906 z"
     id="path68"
     style="stroke-width:0.206628" />
  <path
     fill="#3e3e3e"
     d="m 142.04524,122.90609 c 2.1227,0.96207 4.06334,1.26477 6.37055,1.3871 1.72018,1.59951 3.35688,3.09756 5.33824,4.38341 l -0.39136,5.07768 c -2.46755,-1.90264 -4.7481,-4.05735 -6.98113,-6.22571 -1.51624,-1.47243 -3.0767,-2.91738 -4.3363,-4.62248 z"
     id="path69"
     style="stroke-width:0.206628" />
  <path
     fill="#090909"
     d="m 126.11009,168.73289 c 0.64219,0.38082 1.14368,0.98624 1.66438,1.515 l 2.61984,2.64401 6.92287,6.54124 5.02292,4.3615 c 1.0071,0.79718 1.98755,1.6117 3.1455,2.18406 1.75447,1.55342 3.64823,2.52727 5.77918,3.45688 4.30076,1.87619 8.79388,2.91883 13.44468,3.45111 2.35059,0.26924 4.74147,0.505 7.10903,0.36325 4.29063,-0.25684 8.25438,-0.985 12.37867,-2.21092 l 5.18658,-1.77846 0.73332,18.04133 c 0.13034,7.68656 -0.11693,15.52067 -1.19885,23.14317 -0.52753,3.71724 -1.35631,7.50267 -2.21238,11.15998 -0.55747,2.38036 -1.11144,6.18851 -2.80042,8.01924 -1.5553,1.68401 -4.29168,2.5312 -6.52243,2.59318 -0.90814,0.0228 -1.90057,0.0744 -2.7529,-0.27275 l -0.11496,-0.0454 -10.06052,-4.96114 c -0.79572,-0.30582 -1.67595,-0.59096 -2.39544,-1.05588 -1.92763,-1.2439 -3.89947,-3.90734 -4.84335,-6.00668 -1.1284,-2.51053 -1.35735,-6.31455 -0.37152,-8.91807 0.85668,-1.98569 1.4028,-3.1366 3.20459,-4.4611 -0.004,-0.42978 -0.31986,-0.92362 -0.51037,-1.30382 -0.44321,-0.88436 -0.90421,-1.75427 -1.27448,-2.67376 -1.61047,-3.32465 -2.91366,-6.85406 -4.22823,-10.30765 -0.5236,-1.37552 -4.46503,-12.89462 -4.85577,-13.25602 -0.19256,-0.17811 -1.18852,-0.42895 -1.47862,-0.53372 -10.69797,8.38704 -21.83853,16.62572 -33.41094,23.77091 l -6.98092,4.03133 c -3.00169,1.59929 -6.09492,2.70888 -8.86765,4.7483 -0.522979,0.38433 -1.232742,0.83272 -1.629678,1.33689 -0.122113,0.15496 -0.173566,0.28101 -0.242994,0.46284 0.185966,0.53104 0.439089,0.97735 0.723818,1.4588 -0.778574,1.24183 -1.619964,2.089 -2.885768,2.83288 -0.203529,0.11989 -0.870731,0.39672 -0.994088,0.55582 -0.07645,0.10128 -0.136163,0.59921 -0.168195,0.73766 l -0.472145,2.01256 c -1.027355,4.20902 -2.262164,8.9222 -4.517096,12.66216 -1.017644,1.68609 -2.341303,3.21101 -3.594295,4.72559 l -4.955975,6.15545 c -2.741335,3.62633 -4.91155,7.75269 -7.213594,11.66208 -0.31676,0.53724 -1.416229,1.96918 -1.289566,2.53741 l 0.10269,0.34507 c 0.377923,1.24182 0.438052,2.81014 -0.203735,3.96932 -1.174473,2.12 -4.41213,4.1181 -6.401752,5.40952 l -0.09774,0.0372 c -1.240387,0.51244 -2.327251,1.46913 -3.587269,1.91958 -0.901313,0.32028 -2.522515,0.10947 -3.398,-0.24795 -0.215719,-0.0888 -0.361186,-0.14671 -0.502932,-0.33888 -0.381848,-0.48556 -1.071574,-0.87197 -1.54909,-1.28522 -0.91805,-0.79759 -1.770597,-1.66749 -2.564875,-2.58699 -0.648399,-0.75004 -1.298864,-2.20265 -2.121245,-2.66136 l -0.772995,-3.40937 c -0.03678,-0.28721 -0.127277,-0.72733 -0.09194,-1.01041 0.167163,-1.34514 4.562968,-6.71127 5.730831,-8.13495 0.448796,-0.54756 1.241422,-1.28315 1.532974,-1.91543 0.440324,-0.95462 0.572153,-2.5188 0.79655,-3.56641 l 1.789193,-8.08329 2.938872,-11.87906 c 0.842216,-3.16139 1.662322,-6.3414 2.961186,-9.35404 1.140174,-2.64691 2.671289,-5.23595 4.287327,-7.61838 2.005739,-2.95684 4.389194,-5.59548 6.584618,-8.40149 l -0.0088,-0.47732 c 0.0013,-0.46078 0.04442,-0.88849 0.138859,-1.34101 0.138434,-0.66162 0.295064,-1.37718 0.72423,-1.91958 0.45045,-0.56926 1.277376,-0.84593 1.859239,-1.27986 0.504586,-0.37646 0.877137,-0.91391 1.246382,-1.41622 7.027422,-9.56255 14.951402,-18.87651 23.703348,-26.90774 4.60532,-4.22595 9.52927,-8.09898 14.54702,-11.81932 l 7.01234,-5.06281 z"
     id="path70"
     style="stroke-width:0.206628" />
  <path
     fill="#252323"
     d="m 160.22128,230.84178 c 0.36842,1.86172 0.32399,3.76891 0.67051,5.63476 0.69118,3.72137 2.47044,6.65135 3.99867,10.02765 -0.69076,-0.62401 -1.45839,-1.25009 -2.01484,-2.00014 -3.02152,-4.07472 -3.33248,-8.81684 -2.65434,-13.66227 z"
     id="path71"
     style="stroke-width:0.206628" />
  <path
     fill="#3e3e3e"
     d="m 158.2641,222.51881 c 0.0546,-0.10536 0.21551,-0.33475 0.22915,-0.44011 0.0856,-0.66121 -0.28886,-1.79766 -0.4298,-2.47128 l -1.10792,-5.50871 c -0.35396,-1.91543 -0.63312,-3.86622 -0.72691,-5.81203 3.84533,4.58487 7.01481,9.70903 9.7983,15.00285 l 0.10325,-0.2025 -8.65275,-20.70724 c 3.19757,3.4972 6.05047,7.42395 8.63374,11.39162 5.66078,8.69575 10.12499,18.07253 10.94901,28.53204 -2.36982,-3.01677 -4.37803,-6.58318 -6.22798,-9.945 -0.10128,0.44837 0.31098,1.04965 0.49694,1.45465 l 1.23978,2.94651 c 0.76369,1.98571 1.4185,3.99207 1.96689,6.04801 0.10171,0.38019 0.42461,1.23978 0.35313,1.6179 -0.0113,0.06 -0.35933,0.31407 -0.41408,0.35126 -0.57422,0.38846 -1.27552,0.41533 -1.93755,0.27275 -3.32548,-0.7232 -5.16695,-3.19239 -6.86173,-5.92196 -0.77649,-1.25216 -1.48233,-2.6655 -2.0675,-4.01478 l -2.62688,-6.62243 c -0.23431,-0.5641 -0.518,-1.5621 -0.93229,-1.99397 -0.004,-0.42978 -0.31986,-0.92362 -0.51038,-1.30382 -0.4432,-0.88436 -0.9042,-1.75427 -1.27448,-2.67376 z"
     id="path72"
     style="stroke-width:0.206628" />
  <path
     fill="#3e3e3e"
     d="m 76.626176,218.82224 c 0.0013,-0.46078 0.04442,-0.8885 0.138858,-1.34102 0.138435,-0.66162 0.295064,-1.37719 0.72423,-1.91958 0.450451,-0.56925 1.277376,-0.84592 1.85924,-1.27985 0.504586,-0.37648 0.877137,-0.91392 1.246381,-1.41623 7.027422,-9.56255 14.951403,-18.87652 23.703345,-26.90773 4.60532,-4.22596 9.52927,-8.09899 14.54702,-11.81933 l 7.01233,-5.06281 0.0287,0.12258 c 0.38702,1.49682 1.55261,3.04633 2.4035,4.34189 3.55421,5.4118 7.74773,10.37335 12.2828,14.98839 1.26498,1.28709 2.55165,2.7155 3.99371,3.79802 l -22.32905,3.50979 19.16744,0.95193 -46.114839,17.23299 0.130592,0.0967 c 2.34647,-0.52669 4.650787,-1.34598 6.971207,-1.99271 l 18.96206,-5.46057 6.55073,-1.85449 c 0.87135,-0.23989 1.86833,-0.66968 2.76116,-0.72775 -2.06751,1.60262 -4.60429,2.83804 -6.84165,4.2053 l -16.62282,9.67702 c -4.34435,2.40309 -8.720527,4.81443 -13.321098,6.69475 -2.010907,0.82238 -4.662151,1.91131 -6.877617,1.65096 -1.329652,-0.15704 -2.199969,-1.16125 -3.064708,-2.07868 l 3.167195,14.45364 c -0.74944,-1.29557 -1.252579,-2.7337 -1.780101,-4.1305 l -2.331798,-5.96329 c -0.451276,-1.16539 -0.823619,-2.39274 -1.37387,-3.51269 0.10104,3.76891 0.683113,7.66799 0.508098,11.42448 -0.07894,1.69228 -0.620504,3.52508 -0.975284,5.18017 -1.056903,4.93221 -2.180959,9.87889 -3.773648,14.67059 -0.249194,-1.54972 -0.06943,-3.28125 -0.04463,-4.85989 0.06778,-4.31027 0.126459,-8.61019 0.646539,-12.89566 l -4.284432,9.83136 -11.226312,26.92158 -3.257492,8.42422 c -0.648399,1.76048 -1.180259,3.80196 -2.098308,5.43018 -0.381848,-0.48556 -1.071573,-0.87196 -1.54909,-1.28522 -0.91805,-0.79759 -1.770597,-1.66748 -2.564875,-2.58698 -0.648398,-0.75005 -1.298865,-2.20266 -2.121244,-2.66136 l -0.772996,-3.40938 c -0.03678,-0.28721 -0.127277,-0.72732 -0.09194,-1.0104 0.167163,-1.34515 4.562968,-6.71127 5.730831,-8.13495 0.448795,-0.54757 1.241421,-1.28316 1.532973,-1.91544 0.440325,-0.95462 0.572153,-2.51879 0.79655,-3.5664 l 1.789193,-8.0833 2.938871,-11.87905 c 0.842217,-3.1614 1.662324,-6.34141 2.961188,-9.35405 1.140174,-2.6469 2.671289,-5.23595 4.287326,-7.61837 2.005739,-2.95685 4.389194,-5.59549 6.584618,-8.4015 z"
     id="path73"
     style="stroke-width:0.206628" />
  <path
     fill="#090909"
     d="m 76.626176,218.82224 c 0.331844,-0.32441 0.624016,-0.6385 0.890773,-1.01868 0.206628,1.60136 -0.185138,3.42382 -0.217992,5.04999 l 0.107035,6.66583 c -0.247539,-0.88026 -0.254979,-1.98158 -0.340729,-2.89488 l -0.430199,-7.32495 z"
     id="path74"
     style="stroke-width:0.206628" />
</svg>
