<?xml version="1.0" encoding="UTF-8" standalone="no"?>
<svg
   width="63mm"
   height="88mm"
   version="1.1"
   id="svg1222"
   sodipodi:docname="unit-stealth.svg"
   viewBox="0 0 172.80016 241.37165"
   inkscape:version="1.4 (86a8ad7, 2024-10-11)"
   xml:space="preserve"
   xmlns:inkscape="http://www.inkscape.org/namespaces/inkscape"
   xmlns:sodipodi="http://sodipodi.sourceforge.net/DTD/sodipodi-0.dtd"
   xmlns="http://www.w3.org/2000/svg"
   xmlns:svg="http://www.w3.org/2000/svg"><sodipodi:namedview
     id="namedview1222"
     pagecolor="#ffffff"
     bordercolor="#000000"
     borderopacity="0.25"
     inkscape:showpageshadow="2"
     inkscape:pageopacity="0.0"
     inkscape:pagecheckerboard="0"
     inkscape:deskcolor="#d1d1d1"
     inkscape:document-units="mm"
     inkscape:zoom="1.3254216"
     inkscape:cx="-12.826108"
     inkscape:cy="236.52851"
     inkscape:window-width="1920"
     inkscape:window-height="1009"
     inkscape:window-x="-8"
     inkscape:window-y="-8"
     inkscape:window-maximized="1"
     inkscape:current-layer="svg1222" /><defs
     id="defs9"><linearGradient
       id="gradient_0"
       gradientUnits="userSpaceOnUse"
       x1="441.71112"
       y1="145.09618"
       x2="433.63623"
       y2="132.97914"
       gradientTransform="matrix(0.142578,0,0,0.142578,12.045774,5.4753442)"><stop
         offset="0"
         stop-color="#D75723"
         id="stop8" /><stop
         offset="1"
         stop-color="#F67B32"
         id="stop9" /></linearGradient><linearGradient
       id="gradient_0-0"
       gradientUnits="userSpaceOnUse"
       x1="787.83301"
       y1="417.13614"
       x2="896.2948"
       y2="336.46844"><stop
         offset="0"
         stop-color="#167F8A"
         id="stop16" /><stop
         offset="1"
         stop-color="#159BA9"
         id="stop17" /></linearGradient><linearGradient
       id="gradient_0-2"
       gradientUnits="userSpaceOnUse"
       x1="439.11206"
       y1="464.522"
       x2="373.02579"
       y2="386.0676"><stop
         offset="0"
         stop-color="#FEA902"
         id="stop24-7" /><stop
         offset="1"
         stop-color="#FEC100"
         id="stop25-8" /></linearGradient><linearGradient
       id="gradient_0-8"
       gradientUnits="userSpaceOnUse"
       x1="505.63708"
       y1="183.79691"
       x2="171.41376"
       y2="155.43059"><stop
         offset="0"
         stop-color="#EEA800"
         id="stop3" /><stop
         offset="1"
         stop-color="#FEF49E"
         id="stop4" /></linearGradient><linearGradient
       id="gradient_1-2"
       gradientUnits="userSpaceOnUse"
       x1="297.28619"
       y1="286.58209"
       x2="163.5318"
       y2="635.06488"><stop
         offset="0"
         stop-color="#BE8500"
         id="stop5" /><stop
         offset="1"
         stop-color="#FFEA5F"
         id="stop6" /></linearGradient><linearGradient
       id="gradient_2-9"
       gradientUnits="userSpaceOnUse"
       x1="690.96869"
       y1="886.34503"
       x2="530.02826"
       y2="327.17783"><stop
         offset="0"
         stop-color="#936602"
         id="stop7" /><stop
         offset="1"
         stop-color="#E6AB0B"
         id="stop8-4" /></linearGradient><linearGradient
       id="gradient_0-6"
       gradientUnits="userSpaceOnUse"
       x1="756.237"
       y1="543.65344"
       x2="570.92169"
       y2="327.42014"><stop
         offset="0"
         stop-color="#9650B5"
         id="stop1" /><stop
         offset="1"
         stop-color="#B262D0"
         id="stop2" /></linearGradient><linearGradient
       id="gradient_1-21"
       gradientUnits="userSpaceOnUse"
       x1="431.04391"
       y1="954.88794"
       x2="538.14734"
       y2="89.44886"><stop
         offset="0"
         stop-color="#002757"
         id="stop3-8"
         style="stop-color:#000000;stop-opacity:1;" /><stop
         offset="1"
         stop-color="#4B448F"
         id="stop4-0" /></linearGradient><linearGradient
       id="gradient_0-4"
       gradientUnits="userSpaceOnUse"
       x1="402.74091"
       y1="1246.647"
       x2="402.32764"
       y2="1263.2115"><stop
         offset="0"
         stop-color="#121111"
         id="stop124" /><stop
         offset="1"
         stop-color="#333335"
         id="stop125" /></linearGradient><linearGradient
       id="gradient_1-1"
       gradientUnits="userSpaceOnUse"
       x1="408.96841"
       y1="1356.1405"
       x2="401.09558"
       y2="1342.8842"><stop
         offset="0"
         stop-color="black"
         id="stop335" /><stop
         offset="1"
         stop-color="#242324"
         id="stop336" /></linearGradient><linearGradient
       id="gradient_2-3"
       gradientUnits="userSpaceOnUse"
       x1="752.15656"
       y1="1284.8138"
       x2="774.12677"
       y2="1328.3762"><stop
         offset="0"
         stop-color="#171616"
         id="stop373" /><stop
         offset="1"
         stop-color="#333233"
         id="stop374" /></linearGradient><linearGradient
       id="gradient_3-8"
       gradientUnits="userSpaceOnUse"
       x1="694.86346"
       y1="1292.3944"
       x2="675.90417"
       y2="1314.2114"><stop
         offset="0"
         stop-color="black"
         id="stop441" /><stop
         offset="1"
         stop-color="#262629"
         id="stop442" /></linearGradient><linearGradient
       id="gradient_4-8"
       gradientUnits="userSpaceOnUse"
       x1="410.88977"
       y1="1444.8655"
       x2="414.31171"
       y2="1432.8845"><stop
         offset="0"
         stop-color="black"
         id="stop600" /><stop
         offset="1"
         stop-color="#26272B"
         id="stop601" /></linearGradient><linearGradient
       id="gradient_5-2"
       gradientUnits="userSpaceOnUse"
       x1="439.81558"
       y1="1420.5267"
       x2="440.03101"
       y2="1436.9551"><stop
         offset="0"
         stop-color="#161714"
         id="stop602-4" /><stop
         offset="1"
         stop-color="#313032"
         id="stop603-5" /></linearGradient><linearGradient
       id="gradient_6-5"
       gradientUnits="userSpaceOnUse"
       x1="414.14694"
       y1="1506.7197"
       x2="385.20148"
       y2="1543.2556"><stop
         offset="0"
         stop-color="#070507"
         id="stop707" /><stop
         offset="1"
         stop-color="#292A28"
         id="stop708" /></linearGradient><linearGradient
       id="gradient_7-1"
       gradientUnits="userSpaceOnUse"
       x1="521.03064"
       y1="1503.1229"
       x2="516.33374"
       y2="1526.8281"><stop
         offset="0"
         stop-color="#1C1B1C"
         id="stop714-7" /><stop
         offset="1"
         stop-color="#363636"
         id="stop715-1" /></linearGradient><linearGradient
       id="gradient_8-1"
       gradientUnits="userSpaceOnUse"
       x1="388.4057"
       y1="1112.406"
       x2="370.06186"
       y2="1113.4264"><stop
         offset="0"
         stop-color="#040303"
         id="stop774" /><stop
         offset="1"
         stop-color="#292929"
         id="stop775" /></linearGradient><linearGradient
       id="gradient_9-5"
       gradientUnits="userSpaceOnUse"
       x1="656.83264"
       y1="1279.6766"
       x2="667.57556"
       y2="1292.2172"><stop
         offset="0"
         stop-color="#131112"
         id="stop832" /><stop
         offset="1"
         stop-color="#2A2B2B"
         id="stop833" /></linearGradient><linearGradient
       id="gradient_10-2"
       gradientUnits="userSpaceOnUse"
       x1="738.20764"
       y1="1172.693"
       x2="717.67291"
       y2="1186.4906"><stop
         offset="0"
         stop-color="#0B0A0B"
         id="stop932-7" /><stop
         offset="1"
         stop-color="#282828"
         id="stop933" /></linearGradient><linearGradient
       id="gradient_11-6"
       gradientUnits="userSpaceOnUse"
       x1="599.49152"
       y1="1308.0111"
       x2="604.24109"
       y2="1286.5013"><stop
         offset="0"
         stop-color="#0C0B0C"
         id="stop991" /><stop
         offset="1"
         stop-color="#2A2A29"
         id="stop992" /></linearGradient><linearGradient
       id="gradient_12-1"
       gradientUnits="userSpaceOnUse"
       x1="440.91089"
       y1="457.91312"
       x2="468.8905"
       y2="448.38406"><stop
         offset="0"
         stop-color="#8F8C8E"
         id="stop1080" /><stop
         offset="1"
         stop-color="#A3A4A3"
         id="stop1081" /></linearGradient><linearGradient
       id="gradient_13-4"
       gradientUnits="userSpaceOnUse"
       x1="456.88528"
       y1="437.49802"
       x2="497.79495"
       y2="489.73907"><stop
         offset="0"
         stop-color="#202127"
         id="stop1089" /><stop
         offset="1"
         stop-color="#53524D"
         id="stop1090" /></linearGradient><linearGradient
       id="gradient_14-2"
       gradientUnits="userSpaceOnUse"
       x1="433.83136"
       y1="868.52661"
       x2="523.62439"
       y2="863.56726"><stop
         offset="0"
         stop-color="#1C1B1B"
         id="stop1237" /><stop
         offset="1"
         stop-color="#3C3C3C"
         id="stop1238" /></linearGradient><clipPath
       clipPathUnits="userSpaceOnUse"
       id="clipPath4"><path
         fill="none"
         stroke="#2ba6de"
         stroke-dasharray="3.17318"
         d="m 180.66448,312.85425 c 0,-4.75096 3.77696,-8.59403 8.43536,-8.59403 h 339.53901 c 4.65841,0 8.43537,3.84307 8.43537,8.59403 v 498.42716 c 0,4.74656 -3.77696,8.59403 -8.43537,8.59403 H 189.09984 c -4.6584,0 -8.43536,-3.84747 -8.43536,-8.59403 z"
         id="path602-3"
         style="display:inline;stroke-width:2.2036" /></clipPath><linearGradient
       id="gradient_1-22"
       gradientUnits="userSpaceOnUse"
       x1="567.4491"
       y1="699.04437"
       x2="868.41522"
       y2="779.63495"><stop
         offset="0"
         stop-color="#176366"
         id="stop24"
         style="stop-color:#000000;stop-opacity:1;" /><stop
         offset="1"
         stop-color="#157C89"
         id="stop25" /></linearGradient></defs><defs
     id="defs43"><linearGradient
       id="gradient_1"
       gradientUnits="userSpaceOnUse"
       x1="504.39822"
       y1="85.186241"
       x2="495.87955"
       y2="151.54128"
       gradientTransform="matrix(0.142578,0,0,0.142578,12.045774,5.4753442)"><stop
         offset="0"
         stop-color="#ED6E2D"
         id="stop42" /><stop
         offset="1"
         stop-color="#F4943F"
         id="stop43" /></linearGradient></defs><defs
     id="defs327"><linearGradient
       id="gradient_2"
       gradientUnits="userSpaceOnUse"
       x1="346.7066"
       y1="621.97339"
       x2="340.97449"
       y2="605.86084"
       gradientTransform="matrix(0.142578,0,0,0.142578,12.045774,5.4753442)"><stop
         offset="0"
         stop-color="#9B6245"
         id="stop326" /><stop
         offset="1"
         stop-color="#BB7F62"
         id="stop327" /></linearGradient></defs><defs
     id="defs331"><linearGradient
       id="gradient_3"
       gradientUnits="userSpaceOnUse"
       x1="231.40376"
       y1="958.19427"
       x2="221.45979"
       y2="956.70825"
       gradientTransform="matrix(0.142578,0,0,0.142578,12.045774,5.4753442)"><stop
         offset="0"
         stop-color="#778494"
         id="stop330" /><stop
         offset="1"
         stop-color="#97A1B1"
         id="stop331" /></linearGradient></defs><defs
     id="defs388"><linearGradient
       id="gradient_4"
       gradientUnits="userSpaceOnUse"
       x1="650.17029"
       y1="331.12375"
       x2="638.19867"
       y2="338.70807"
       gradientTransform="matrix(0.142578,0,0,0.142578,12.045774,5.4753442)"><stop
         offset="0"
         stop-color="#896B50"
         id="stop387" /><stop
         offset="1"
         stop-color="#A88666"
         id="stop388" /></linearGradient></defs><defs
     id="defs426"><linearGradient
       id="gradient_5"
       gradientUnits="userSpaceOnUse"
       x1="508.2767"
       y1="760.50378"
       x2="510.44067"
       y2="750.1463"
       gradientTransform="matrix(0.142578,0,0,0.142578,12.045774,5.4753442)"><stop
         offset="0"
         stop-color="#8B8D92"
         id="stop425" /><stop
         offset="1"
         stop-color="#ACA7A9"
         id="stop426" /></linearGradient></defs><defs
     id="defs436"><linearGradient
       id="gradient_6"
       gradientUnits="userSpaceOnUse"
       x1="565.99249"
       y1="410.44449"
       x2="552.03925"
       y2="407.28406"
       gradientTransform="matrix(0.142578,0,0,0.142578,12.045774,5.4753442)"><stop
         offset="0"
         stop-color="#834318"
         id="stop435" /><stop
         offset="1"
         stop-color="#A95C2A"
         id="stop436" /></linearGradient></defs><defs
     id="defs491"><linearGradient
       id="gradient_7"
       gradientUnits="userSpaceOnUse"
       x1="235.69066"
       y1="966.34198"
       x2="210.12163"
       y2="971.22339"
       gradientTransform="matrix(0.142578,0,0,0.142578,12.045774,5.4753442)"><stop
         offset="0"
         stop-color="#4F545D"
         id="stop490" /><stop
         offset="1"
         stop-color="#666F7D"
         id="stop491" /></linearGradient></defs><defs
     id="defs566"><linearGradient
       id="gradient_8"
       gradientUnits="userSpaceOnUse"
       x1="445.93161"
       y1="382.86896"
       x2="442.04938"
       y2="380.81665"
       gradientTransform="matrix(0.142578,0,0,0.142578,12.045774,5.4753442)"><stop
         offset="0"
         stop-color="#D97E33"
         id="stop565" /><stop
         offset="1"
         stop-color="#EA9F53"
         id="stop566" /></linearGradient></defs><defs
     id="defs603"><linearGradient
       id="gradient_9"
       gradientUnits="userSpaceOnUse"
       x1="421.12939"
       y1="345.5784"
       x2="403.91769"
       y2="383.76407"
       gradientTransform="matrix(0.142578,0,0,0.142578,12.045774,5.4753442)"><stop
         offset="0"
         stop-color="#623621"
         id="stop602" /><stop
         offset="1"
         stop-color="#7D573D"
         id="stop603" /></linearGradient></defs><defs
     id="defs612"><linearGradient
       id="gradient_10"
       gradientUnits="userSpaceOnUse"
       x1="410.06244"
       y1="377.92294"
       x2="391.45569"
       y2="380.45035"
       gradientTransform="matrix(0.142578,0,0,0.142578,12.045774,5.4753442)"><stop
         offset="0"
         stop-color="#A37954"
         id="stop611" /><stop
         offset="1"
         stop-color="#C79F7D"
         id="stop612" /></linearGradient></defs><defs
     id="defs623"><linearGradient
       id="gradient_11"
       gradientUnits="userSpaceOnUse"
       x1="732.53723"
       y1="444.00186"
       x2="722.18109"
       y2="437.4884"
       gradientTransform="matrix(0.142578,0,0,0.142578,12.045774,5.4753442)"><stop
         offset="0"
         stop-color="#DB4C11"
         id="stop622" /><stop
         offset="1"
         stop-color="#EF6D22"
         id="stop623" /></linearGradient></defs><defs
     id="defs630"><linearGradient
       id="gradient_12"
       gradientUnits="userSpaceOnUse"
       x1="317.5257"
       y1="531.19232"
       x2="333.62204"
       y2="480.35449"
       gradientTransform="matrix(0.142578,0,0,0.142578,12.045774,5.4753442)"><stop
         offset="0"
         stop-color="#25352A"
         id="stop629" /><stop
         offset="1"
         stop-color="#7EA458"
         id="stop630" /></linearGradient></defs><defs
     id="defs634"><linearGradient
       id="gradient_13"
       gradientUnits="userSpaceOnUse"
       x1="401.867"
       y1="1234.4708"
       x2="439.52802"
       y2="1224.2528"
       gradientTransform="matrix(0.142578,0,0,0.142578,12.045774,5.4753442)"><stop
         offset="0"
         stop-color="#B96235"
         id="stop633" /><stop
         offset="1"
         stop-color="#CA7E4E"
         id="stop634" /></linearGradient></defs><defs
     id="defs649"><linearGradient
       id="gradient_14"
       gradientUnits="userSpaceOnUse"
       x1="751.685"
       y1="697.91345"
       x2="781.30127"
       y2="681.01959"
       gradientTransform="matrix(0.142578,0,0,0.142578,12.045774,5.4753442)"><stop
         offset="0"
         stop-color="#384E2E"
         id="stop648" /><stop
         offset="1"
         stop-color="#476937"
         id="stop649" /></linearGradient></defs><defs
     id="defs654"><linearGradient
       id="gradient_15"
       gradientUnits="userSpaceOnUse"
       x1="592.39404"
       y1="170.30611"
       x2="582.22333"
       y2="181.6326"
       gradientTransform="matrix(0.142578,0,0,0.142578,12.045774,5.4753442)"><stop
         offset="0"
         stop-color="#AC4005"
         id="stop653" /><stop
         offset="1"
         stop-color="#BE5C26"
         id="stop654" /></linearGradient></defs><defs
     id="defs658"><linearGradient
       id="gradient_16"
       gradientUnits="userSpaceOnUse"
       x1="294.3681"
       y1="514.50842"
       x2="309.0766"
       y2="507.87271"
       gradientTransform="matrix(0.142578,0,0,0.142578,12.045774,5.4753442)"><stop
         offset="0"
         stop-color="#88C485"
         id="stop657" /><stop
         offset="1"
         stop-color="#B8E4B4"
         id="stop658" /></linearGradient></defs><defs
     id="defs666"><linearGradient
       id="gradient_17"
       gradientUnits="userSpaceOnUse"
       x1="600.54083"
       y1="404.89056"
       x2="602.55548"
       y2="425.95209"
       gradientTransform="matrix(0.142578,0,0,0.142578,12.045774,5.4753442)"><stop
         offset="0"
         stop-color="#7D5745"
         id="stop665" /><stop
         offset="1"
         stop-color="#A97F64"
         id="stop666" /></linearGradient></defs><defs
     id="defs704"><linearGradient
       id="gradient_18"
       gradientUnits="userSpaceOnUse"
       x1="309.85922"
       y1="1420.9056"
       x2="301.76477"
       y2="1394.3719"
       gradientTransform="matrix(0.142578,0,0,0.142578,12.045774,5.4753442)"><stop
         offset="0"
         stop-color="#744F36"
         id="stop703" /><stop
         offset="1"
         stop-color="#985B3F"
         id="stop704" /></linearGradient></defs><defs
     id="defs714"><linearGradient
       id="gradient_19"
       gradientUnits="userSpaceOnUse"
       x1="528.97577"
       y1="849.45831"
       x2="509.21854"
       y2="897.53485"
       gradientTransform="matrix(0.142578,0,0,0.142578,12.045774,5.4753442)"><stop
         offset="0"
         stop-color="#66582F"
         id="stop713" /><stop
         offset="1"
         stop-color="#857045"
         id="stop714" /></linearGradient></defs><defs
     id="defs716"><linearGradient
       id="gradient_20"
       gradientUnits="userSpaceOnUse"
       x1="315.84964"
       y1="437.56415"
       x2="301.70172"
       y2="444.06219"
       gradientTransform="matrix(0.142578,0,0,0.142578,12.045774,5.4753442)"><stop
         offset="0"
         stop-color="#3D724B"
         id="stop715" /><stop
         offset="1"
         stop-color="#7AA870"
         id="stop716" /></linearGradient></defs><defs
     id="defs732"><linearGradient
       id="gradient_21"
       gradientUnits="userSpaceOnUse"
       x1="496.9462"
       y1="485.09894"
       x2="473.80963"
       y2="431.39297"
       gradientTransform="matrix(0.142578,0,0,0.142578,12.045774,5.4753442)"><stop
         offset="0"
         stop-color="#955522"
         id="stop731" /><stop
         offset="1"
         stop-color="#B76A33"
         id="stop732" /></linearGradient></defs><defs
     id="defs763"><linearGradient
       id="gradient_22"
       gradientUnits="userSpaceOnUse"
       x1="349.89453"
       y1="538.5036"
       x2="336.38834"
       y2="540.64868"
       gradientTransform="matrix(0.142578,0,0,0.142578,12.045774,5.4753442)"><stop
         offset="0"
         stop-color="#395237"
         id="stop762" /><stop
         offset="1"
         stop-color="#446A41"
         id="stop763" /></linearGradient></defs><defs
     id="defs769"><linearGradient
       id="gradient_23"
       gradientUnits="userSpaceOnUse"
       x1="370.20148"
       y1="595.698"
       x2="375.35248"
       y2="569.75403"
       gradientTransform="matrix(0.142578,0,0,0.142578,12.045774,5.4753442)"><stop
         offset="0"
         stop-color="#FDB899"
         id="stop768" /><stop
         offset="1"
         stop-color="#FFE4CD"
         id="stop769" /></linearGradient></defs><defs
     id="defs794"><linearGradient
       id="gradient_24"
       gradientUnits="userSpaceOnUse"
       x1="811.52563"
       y1="231.88011"
       x2="763.39594"
       y2="176.99849"
       gradientTransform="matrix(0.142578,0,0,0.142578,12.045774,5.4753442)"><stop
         offset="0"
         stop-color="#364852"
         id="stop793" /><stop
         offset="1"
         stop-color="#53555C"
         id="stop794" /></linearGradient></defs><defs
     id="defs801"><linearGradient
       id="gradient_25"
       gradientUnits="userSpaceOnUse"
       x1="610.27319"
       y1="296.50168"
       x2="559.02417"
       y2="300.19839"
       gradientTransform="matrix(0.142578,0,0,0.142578,12.045774,5.4753442)"><stop
         offset="0"
         stop-color="#663211"
         id="stop800" /><stop
         offset="1"
         stop-color="#9C5C2D"
         id="stop801" /></linearGradient></defs><defs
     id="defs803"><linearGradient
       id="gradient_26"
       gradientUnits="userSpaceOnUse"
       x1="349.0824"
       y1="506.39862"
       x2="287.68405"
       y2="442.48486"
       gradientTransform="matrix(0.142578,0,0,0.142578,12.045774,5.4753442)"><stop
         offset="0"
         stop-color="#3C4A28"
         id="stop802" /><stop
         offset="1"
         stop-color="#486335"
         id="stop803" /></linearGradient></defs><defs
     id="defs851"><linearGradient
       id="gradient_27"
       gradientUnits="userSpaceOnUse"
       x1="603.2724"
       y1="423.15714"
       x2="596.86053"
       y2="465.43326"
       gradientTransform="matrix(0.142578,0,0,0.142578,12.045774,5.4753442)"><stop
         offset="0"
         stop-color="#77593E"
         id="stop850" /><stop
         offset="1"
         stop-color="#BD9978"
         id="stop851" /></linearGradient></defs><defs
     id="defs878"><linearGradient
       id="gradient_28"
       gradientUnits="userSpaceOnUse"
       x1="613.05615"
       y1="407.23792"
       x2="623.64954"
       y2="404.14413"
       gradientTransform="matrix(0.142578,0,0,0.142578,12.045774,5.4753442)"><stop
         offset="0"
         stop-color="#88694E"
         id="stop877" /><stop
         offset="1"
         stop-color="#9D7E62"
         id="stop878" /></linearGradient></defs><defs
     id="defs899"><linearGradient
       id="gradient_29"
       gradientUnits="userSpaceOnUse"
       x1="479.46762"
       y1="402.34698"
       x2="471.25638"
       y2="400.90512"
       gradientTransform="matrix(0.142578,0,0,0.142578,12.045774,5.4753442)"><stop
         offset="0"
         stop-color="#E5762F"
         id="stop898" /><stop
         offset="1"
         stop-color="#EC984B"
         id="stop899" /></linearGradient></defs><defs
     id="defs903"><linearGradient
       id="gradient_30"
       gradientUnits="userSpaceOnUse"
       x1="364.39719"
       y1="799.4649"
       x2="316.94629"
       y2="788.1485"
       gradientTransform="matrix(0.142578,0,0,0.142578,12.045774,5.4753442)"><stop
         offset="0"
         stop-color="#CA6421"
         id="stop902" /><stop
         offset="1"
         stop-color="#F99145"
         id="stop903" /></linearGradient></defs><defs
     id="defs918"><linearGradient
       id="gradient_31"
       gradientUnits="userSpaceOnUse"
       x1="607.28137"
       y1="941.3429"
       x2="582.31622"
       y2="953.57446"
       gradientTransform="matrix(0.142578,0,0,0.142578,12.045774,5.4753442)"><stop
         offset="0"
         stop-color="#354B3E"
         id="stop917" /><stop
         offset="1"
         stop-color="#3E6144"
         id="stop918" /></linearGradient></defs><defs
     id="defs920"><linearGradient
       id="gradient_32"
       gradientUnits="userSpaceOnUse"
       x1="711.60657"
       y1="481.1792"
       x2="771.75195"
       y2="515.37213"
       gradientTransform="matrix(0.142578,0,0,0.142578,12.045774,5.4753442)"><stop
         offset="0"
         stop-color="#273927"
         id="stop919" /><stop
         offset="1"
         stop-color="#42583D"
         id="stop920" /></linearGradient></defs><defs
     id="defs932"><linearGradient
       id="gradient_33"
       gradientUnits="userSpaceOnUse"
       x1="726.98871"
       y1="1057.7771"
       x2="689.74646"
       y2="1021.3705"
       gradientTransform="matrix(0.142578,0,0,0.142578,12.045774,5.4753442)"><stop
         offset="0"
         stop-color="#27312F"
         id="stop931" /><stop
         offset="1"
         stop-color="#34503D"
         id="stop932" /></linearGradient></defs><defs
     id="defs937"><linearGradient
       id="gradient_34"
       gradientUnits="userSpaceOnUse"
       x1="504.95883"
       y1="1132.871"
       x2="455.11215"
       y2="1128.4186"
       gradientTransform="matrix(0.142578,0,0,0.142578,12.045774,5.4753442)"><stop
         offset="0"
         stop-color="#675932"
         id="stop936" /><stop
         offset="1"
         stop-color="#A79057"
         id="stop937" /></linearGradient></defs><defs
     id="defs944"><linearGradient
       id="gradient_35"
       gradientUnits="userSpaceOnUse"
       x1="140.53183"
       y1="1003.6458"
       x2="198.14177"
       y2="1035.8585"
       gradientTransform="matrix(0.142578,0,0,0.142578,12.045774,5.4753442)"><stop
         offset="0"
         stop-color="#7B8890"
         id="stop943" /><stop
         offset="1"
         stop-color="#9899A5"
         id="stop944" /></linearGradient></defs><defs
     id="defs953"><linearGradient
       id="gradient_36"
       gradientUnits="userSpaceOnUse"
       x1="688.35486"
       y1="293.4502"
       x2="704.63019"
       y2="286.25916"
       gradientTransform="matrix(0.142578,0,0,0.142578,12.045774,5.4753442)"><stop
         offset="0"
         stop-color="#843E1A"
         id="stop952" /><stop
         offset="1"
         stop-color="#AF632B"
         id="stop953" /></linearGradient></defs><defs
     id="defs961"><linearGradient
       id="gradient_37"
       gradientUnits="userSpaceOnUse"
       x1="231.57811"
       y1="651.74609"
       x2="243.24249"
       y2="658.07245"
       gradientTransform="matrix(0.142578,0,0,0.142578,12.045774,5.4753442)"><stop
         offset="0"
         stop-color="#4B7E41"
         id="stop960" /><stop
         offset="1"
         stop-color="#6FA86A"
         id="stop961" /></linearGradient></defs><defs
     id="defs968"><linearGradient
       id="gradient_38"
       gradientUnits="userSpaceOnUse"
       x1="377.69229"
       y1="466.93097"
       x2="410.38733"
       y2="362.97278"
       gradientTransform="matrix(0.142578,0,0,0.142578,12.045774,5.4753442)"><stop
         offset="0"
         stop-color="#4A733C"
         id="stop967" /><stop
         offset="1"
         stop-color="#668F50"
         id="stop968" /></linearGradient></defs><defs
     id="defs998"><linearGradient
       id="gradient_39"
       gradientUnits="userSpaceOnUse"
       x1="714.9353"
       y1="1378.9009"
       x2="708.27722"
       y2="1441.34"
       gradientTransform="matrix(0.142578,0,0,0.142578,12.045774,5.4753442)"><stop
         offset="0"
         stop-color="#6B493C"
         id="stop997" /><stop
         offset="1"
         stop-color="#8A6C58"
         id="stop998" /></linearGradient></defs><defs
     id="defs1002"><linearGradient
       id="gradient_40"
       gradientUnits="userSpaceOnUse"
       x1="774.07556"
       y1="1412.1241"
       x2="742.71008"
       y2="1469.8873"
       gradientTransform="matrix(0.142578,0,0,0.142578,12.045774,5.4753442)"><stop
         offset="0"
         stop-color="#513124"
         id="stop1001" /><stop
         offset="1"
         stop-color="#784D2C"
         id="stop1002" /></linearGradient></defs><defs
     id="defs1035"><linearGradient
       id="gradient_41"
       gradientUnits="userSpaceOnUse"
       x1="654.23218"
       y1="979.88446"
       x2="581.08948"
       y2="1033.6051"
       gradientTransform="matrix(0.142578,0,0,0.142578,12.045774,5.4753442)"><stop
         offset="0"
         stop-color="#60482B"
         id="stop1034" /><stop
         offset="1"
         stop-color="#917D43"
         id="stop1035" /></linearGradient></defs><defs
     id="defs1064"><linearGradient
       id="gradient_42"
       gradientUnits="userSpaceOnUse"
       x1="707.27185"
       y1="908.0766"
       x2="580.09119"
       y2="967.43842"
       gradientTransform="matrix(0.142578,0,0,0.142578,12.045774,5.4753442)"><stop
         offset="0"
         stop-color="#3B4F4B"
         id="stop1063" /><stop
         offset="1"
         stop-color="#597F64"
         id="stop1064" /></linearGradient></defs><defs
     id="defs1066"><linearGradient
       id="gradient_43"
       gradientUnits="userSpaceOnUse"
       x1="281.50095"
       y1="680.58838"
       x2="317.89832"
       y2="643.91455"
       gradientTransform="matrix(0.142578,0,0,0.142578,12.045774,5.4753442)"><stop
         offset="0"
         stop-color="black"
         id="stop1065" /><stop
         offset="1"
         stop-color="#5F1610"
         id="stop1066" /></linearGradient></defs><defs
     id="defs1068"><linearGradient
       id="gradient_44"
       gradientUnits="userSpaceOnUse"
       x1="291.26068"
       y1="621.42358"
       x2="273.80859"
       y2="612.78076"
       gradientTransform="matrix(0.142578,0,0,0.142578,12.045774,5.4753442)"><stop
         offset="0"
         stop-color="#BE3F2B"
         id="stop1067" /><stop
         offset="1"
         stop-color="#E06746"
         id="stop1068" /></linearGradient></defs><defs
     id="defs1079"><linearGradient
       id="gradient_45"
       gradientUnits="userSpaceOnUse"
       x1="228.94316"
       y1="1040.9229"
       x2="231.80919"
       y2="1098.5549"
       gradientTransform="matrix(0.142578,0,0,0.142578,12.045774,5.4753442)"><stop
         offset="0"
         stop-color="#735344"
         id="stop1078" /><stop
         offset="1"
         stop-color="#B19272"
         id="stop1079" /></linearGradient></defs><defs
     id="defs1153"><linearGradient
       id="gradient_46"
       gradientUnits="userSpaceOnUse"
       x1="341.18176"
       y1="1042.2279"
       x2="360.71796"
       y2="1007.9982"
       gradientTransform="matrix(0.142578,0,0,0.142578,12.045774,5.4753442)"><stop
         offset="0"
         stop-color="#5E8669"
         id="stop1152" /><stop
         offset="1"
         stop-color="#89A697"
         id="stop1153" /></linearGradient></defs><defs
     id="defs1155"><linearGradient
       id="gradient_47"
       gradientUnits="userSpaceOnUse"
       x1="187.54752"
       y1="1206.0042"
       x2="343.36517"
       y2="1069.0951"
       gradientTransform="matrix(0.142578,0,0,0.142578,12.045774,5.4753442)"><stop
         offset="0"
         stop-color="#57626E"
         id="stop1154" /><stop
         offset="1"
         stop-color="#A4AAB5"
         id="stop1155" /></linearGradient></defs><defs
     id="defs1161"><linearGradient
       id="gradient_48"
       gradientUnits="userSpaceOnUse"
       x1="166.01033"
       y1="1151.1868"
       x2="226.12117"
       y2="1086.3267"
       gradientTransform="matrix(0.142578,0,0,0.142578,12.045774,5.4753442)"><stop
         offset="0"
         stop-color="#584436"
         id="stop1160" /><stop
         offset="1"
         stop-color="#826852"
         id="stop1161" /></linearGradient></defs><defs
     id="defs1206"><linearGradient
       id="gradient_49"
       gradientUnits="userSpaceOnUse"
       x1="634.68005"
       y1="620.41003"
       x2="483.21085"
       y2="602.85364"
       gradientTransform="matrix(0.142578,0,0,0.142578,12.045774,5.4753442)"><stop
         offset="0"
         stop-color="#38491E"
         id="stop1205" /><stop
         offset="1"
         stop-color="#5C7637"
         id="stop1206" /></linearGradient></defs><g
     id="g4"
     inkscape:label="person"
     transform="matrix(-0.29302284,0,0,0.29302284,204.09786,-5.7332351)"
     style="opacity:0.3"><path
       fill="#fefefe"
       d="m 688.33321,-18.416578 c -3.06636,-0.352894 -6.22115,-0.14273 -9.30298,-0.07428 q 4.55443,6.619793 8.84098,13.4158984 c 2.07117,3.348497 4.05328,8.489281 6.82514,11.143113 2.72898,-7.04025401 6.25062,-13.515417 10.23568,-19.9150084 -5.52832,-2.111194 -10.72808,-3.729679 -16.59882,-4.569721 z"
       id="path8-6"
       style="stroke-width:0.678547" /><path
       fill="#010101"
       d="m 464.53747,95.858191 -0.48596,0.73266 c 1.56036,5.649559 11.02841,16.812349 14.71722,22.234669 6.46678,9.50617 13.13445,19.09307 19.05351,28.94455 17.38728,28.93913 31.28869,59.32863 44.24261,90.44061 -1.56918,1.88048 -3.91753,4.66592 -4.62407,7.00091 -0.4846,1.60234 -0.28167,2.33499 0.51175,3.67616 2.8601,1.6349 5.55324,0.58341 8.53007,-0.17028 1.9004,2.98488 3.48587,6.1665 5.13243,9.2952 -2.7006,1.90897 -5.98693,4.58112 -6.73216,7.96286 -0.58708,2.66604 0.55722,4.34979 1.85357,6.55046 -8.53143,3.41362 -13.95299,9.68052 -21.35708,14.56692 -3.28837,2.17013 -7.8018,3.4075 -11.38745,5.16045 -1.82234,-0.39754 -3.73021,-0.76318 -5.4168,-1.58063 -6.27471,-3.03847 -12.34241,-7.85093 -18.26894,-11.62205 -4.39059,-2.79426 -9.14973,-5.15775 -13.39101,-8.14941 -5.08492,-3.58526 -9.56714,-7.7641 -14.83531,-11.17704 -4.52296,-14.07711 -12.90506,-7.68811 -20.18969,-14.59337 -2.27505,-2.15657 -5.1528,-4.18765 -6.87605,-6.8157 -0.0381,-0.89887 -0.0156,-2.00734 -0.31016,-2.86007 -0.37058,-1.07455 -2.52143,-2.008 -3.47435,-2.53647 q 2.44473,-11.71227 4.32206,-23.52903 c -6.39891,-11.09562 -25.2461,-33.7129 -36.36004,-40.1148 -7.42444,-4.27651 -18.86144,-2.03718 -26.79017,0.15129 -13.35572,3.68565 -23.22082,11.05017 -33.9411,19.56252 -2.43454,1.93339 -6.35208,4.40948 -7.81063,7.19289 -0.55248,1.05353 -0.28031,2.18371 0.3,3.18297 1.08593,1.86827 2.94222,3.48417 4.41367,5.05395 4.60303,4.91149 8.91422,10.21847 10.76914,16.81847 2.5764,9.16765 -0.47307,15.64485 -4.95597,23.4795 9.2563,7.38147 9.29634,10.62414 13.93671,20.5828 -3.7913,3.4394 -7.63824,7.1108 -10.85942,11.0936 -2.17595,2.6891 -4.23517,5.65974 -5.3659,8.95668 -1.26106,3.67751 -0.60678,7.86313 -1.60448,11.62747 -2.32663,8.78031 -6.0487,17.119 -8.20158,26.01124 -2.00016,8.2593 -2.28386,16.85915 -4.28607,25.14086 -1.85221,7.66029 -7.46653,16.03288 -6.66225,23.90823 -1.46127,1.27129 -3.06507,2.66604 -4.07499,4.34097 -2.96462,4.91963 -4.83856,11.07663 -7.36337,16.30425 -4.18969,8.67515 -9.0615,17.0369 -13.17247,25.74462 -1.45719,3.0846 -2.17527,6.87405 -3.96504,9.72868 -1.10563,1.7638 -3.64198,0.72452 -5.4012,1.3968 -3.01756,1.15392 -1.9194,4.38709 -2.18275,6.80621 -0.63934,5.87343 -6.05004,16.88698 -8.87077,22.28419 0.70925,1.51686 1.64452,2.89941 2.54381,4.30841 -5.57292,10.42334 -8.53754,21.72521 -13.2159,32.53998 l 4.27657,6.68071 c -1.76737,5.79813 -2.26759,10.51357 -1.23594,16.53422 0.31018,1.81128 0.63053,3.46857 2.22482,4.57365 l 1.13278,-0.33851 c 3.2585,-3.50384 2.77797,-9.91999 2.76508,-14.35729 1.36964,-0.47826 2.55196,-0.96059 4.02952,-0.8941 2.30559,2.05074 2.44065,7.10538 3.91414,9.94576 0.7011,1.34998 1.6995,3.76842 3.11869,4.22226 3.58631,-3.83083 -0.51583,-12.05012 0.43437,-16.76284 0.25656,-1.27264 0.63324,-1.57113 1.67845,-2.27327 l 0.67329,0.21166 c 0.32307,1.25977 0.45542,2.44761 0.53483,3.74468 4.77203,4.16188 8.08415,5.28596 14.26859,5.96502 -0.0557,-0.1099 -0.11064,-0.22048 -0.16764,-0.3297 -0.095,-0.18181 -0.19615,-0.3609 -0.28913,-0.54406 -1.92687,-3.7942 -7.26903,-7.29736 -8.188,-11.01422 3.23813,-1.76447 8.89589,-0.86087 11.62432,-3.24539 0.55383,-0.48368 0.43437,-0.6526 0.52939,-1.33234 -0.27555,-0.48843 -0.52803,-0.95991 -0.92305,-1.36558 -2.37414,-2.43743 -5.63807,-2.17083 -8.74046,-2.09281 2.08976,-10.47965 5.94417,-11.73806 5.04894,-24.13278 0.1181,-0.057 0.23824,-0.11058 0.35429,-0.17096 0.19411,-0.0997 0.38415,-0.20826 0.57691,-0.30934 6.4023,-3.36342 17.34791,-19.24979 19.75124,-26.08788 0.70043,-1.9931 -0.55723,-4.76428 0.58505,-6.52672 1.578,-2.43404 8.35903,-5.5797 11.01415,-9.14121 2.58251,-3.4645 4.75914,-7.39776 7.03895,-11.07256 8.32237,-13.4123 15.75293,-27.38224 23.38303,-41.19615 0.44251,4.86401 1.05947,9.73819 0.87418,14.63068 -0.31425,8.27899 -3.925,25.91761 -6.31678,33.96663 -1.08663,3.65444 -4.81616,12.30586 -4.83245,15.55056 -0.008,1.64304 2.69993,3.10224 2.48477,3.94412 -1.20947,4.73647 -3.95147,9.79449 -5.80028,14.36408 q -5.04352,12.78818 -9.72868,25.71137 c -9.4823,26.23102 -17.59767,52.83718 -25.49722,79.57157 -1.72461,5.83544 -4.05735,11.53725 -5.64283,17.39848 -0.89047,3.29355 0.74184,7.09316 0.3095,10.46947 -0.76491,5.9752 -3.42751,11.73602 -4.16934,17.85776 -1.51896,12.5365 -0.94341,25.72426 -3.29244,38.09118 -1.17146,6.17328 -10.43182,16.80353 -9.3771,21.68111 0.4113,1.90625 2.33477,3.01879 3.84763,4.00245 -0.62578,1.92661 -1.4348,3.47333 -2.49631,5.18963 1.32146,10.23001 1.02147,21.91176 -0.68075,32.1282 -0.35769,2.15048 -2.0375,3.41227 -2.22686,5.54917 0.58166,1.03114 1.04793,1.86555 1.25426,3.03916 -0.83346,1.91981 -2.36056,2.15725 -3.77635,3.46654 -1.11717,1.03792 -0.80767,1.98087 -0.81446,3.3919 -1.63096,3.58186 -6.33105,7.08232 -9.54271,9.1853 -1.79045,1.17361 -4.12794,2.55751 -6.33444,2.10299 -3.66912,3.35121 -10.17119,0.95652 -13.99778,4.43662 -2.55264,2.32007 -5.10799,7.88281 -5.00076,11.34934 0.3285,10.65061 23.96605,12.91641 32.04545,13.07922 1.40086,0.0339 11.43972,-0.49522 11.88292,-0.25778 0.83889,0.44773 1.83863,2.0555 2.66666,2.70675 3.32094,2.61855 15.42648,0.4138 19.63925,-0.31885 1.96623,-0.33919 6.45728,-0.92259 7.60634,-2.66604 1.46602,-2.21831 1.04318,-5.4949 0.99363,-8.04562 -0.21379,-10.92874 -2.02867,-17.76684 -4.23992,-28.19358 1.09545,-0.84798 2.08637,-2.45574 2.74607,-3.68362 1.15789,-2.15725 0.0496,-3.21553 -0.43369,-5.30495 -0.85857,-3.70397 7.50589,-30.47295 9.43207,-35.37087 0.9156,-2.32685 2.07212,-4.45019 3.4153,-6.55318 0.59658,-0.17638 1.20131,-0.34598 1.78772,-0.55627 0.66785,-0.24421 1.89158,-0.72587 2.19089,-1.40425 1.221,-2.76102 -0.72147,-5.65772 -1.68117,-8.26948 2.27844,-4.42984 3.7784,-9.82977 5.53898,-14.52418 4.18698,-11.15261 9.8203,-23.2346 11.92635,-34.96384 2.54993,-14.19855 -5.85865,-16.37345 3.57342,-31.92061 l -0.78459,-8.16163 c 3.07729,-6.28182 8.08484,-11.83506 12.22634,-17.45546 l 21.30481,-29.38347 c 6.44167,-9.06862 11.53949,-19.03609 18.11215,-28.04095 3.38542,9.28978 5.93535,19.13583 8.58301,28.66235 3.87002,13.92177 7.65792,27.82658 10.66869,41.96543 1.92619,9.04284 2.92797,18.34211 5.21795,27.29473 2.91236,11.38189 8.66717,22.1614 12.10418,33.63285 1.89633,6.33609 3.95826,13.24203 3.98947,19.89697 0.0176,3.64969 -2.07753,9.04284 -0.0903,12.33299 0.81377,1.34998 2.31441,2.11655 3.80757,2.40826 1.0364,7.52326 6.95071,18.26205 7.10275,24.91699 0.0353,1.56028 -0.4018,3.19518 -0.59049,4.74868 -0.21311,1.75023 0.21244,2.40148 1.25426,3.72432 1.45313,1.8452 1.91941,2.59142 1.59362,4.9929 -1.53389,11.29506 -15.42715,4.08386 -21.6496,9.15816 -3.88902,3.17483 -3.47297,8.92073 -4.08925,13.43198 0.63257,0.90903 1.29702,1.82484 2.16986,2.52358 7.26291,5.81374 19.65757,6.39036 28.34102,9.30741 3.04335,1.02436 5.27293,3.79895 8.42555,4.4909 3.64605,0.80727 7.97285,0.46808 11.64876,0.0339 3.25783,-0.37311 6.98396,-0.90903 9.1287,-3.64291 1.67439,-7.58432 -1.85764,-19.9648 -2.70875,-27.82726 -0.29117,-2.69318 0.43235,-5.96976 -0.45949,-8.47978 -0.42284,-1.19395 -0.81445,-2.38791 -1.22914,-3.58186 1.26647,-1.08542 2.03409,-3.5208 2.58657,-5.06752 -0.75676,-1.26857 -1.51625,-2.86955 -1.81692,-4.32129 -0.70518,-3.3987 -0.38618,-7.33332 -0.52193,-10.80664 -0.25723,-6.58709 -0.65836,-13.51338 -1.52506,-20.04621 -0.41334,-3.12056 -2.01714,-6.0783 -2.68229,-9.23279 1.06762,-1.43817 2.03071,-2.92383 2.61577,-4.63335 1.43683,-4.20598 -3.06575,-9.40917 -3.83134,-13.56765 -1.21489,-6.60745 -0.35292,-14.0086 -0.42148,-20.73137 -0.14525,-14.28946 -6.14167,-25.94678 -12.0173,-38.57963 0.7303,-1.16749 1.09069,-2.11587 1.35811,-3.46517 -0.25723,-2.06432 -2.04972,-3.48961 -3.42207,-4.94948 1.48841,-2.21492 2.75421,-4.42035 3.91821,-6.82182 -0.55926,-3.49096 -1.36829,-6.82724 -1.70426,-10.37111 -0.7778,-8.22132 -0.30677,-16.74452 -0.31491,-25.00315 -0.0115,-12.29636 -0.5294,-24.38786 -1.3459,-36.65437 -0.52939,-7.95404 -0.90946,-15.70049 -2.53227,-23.53242 4.20462,-7.2268 2.64834,-23.73796 1.87799,-31.92672 3.74854,-2.4476 7.2093,-5.46505 10.30559,-8.68737 -9.57665,-13.1864 -11.12547,-18.28851 -14.71518,-34.01614 0.81921,-2.01886 1.49452,-4.10964 2.21328,-6.16717 -7.34368,-13.81119 -11.96368,-32.28626 -11.39899,-47.90331 0.24977,-6.89779 1.59158,-13.72843 1.82913,-20.66693 11.01687,6.54911 39.65451,20.51904 51.58425,22.84928 4.38789,-1.05624 34.66597,-18.84411 37.92583,-21.99452 7.00974,-6.77365 11.77228,-16.08445 18.45217,-23.20408 l 0.45949,-0.48436 c 1.94112,3.90681 2.73115,10.9301 5.86748,13.81255 0.8898,0.81813 2.04497,1.23805 3.25579,1.12679 2.48205,-0.22862 7.79773,-3.09614 9.35199,-5.04445 0.32782,-2.73253 -9.83795,-19.48112 -12.04105,-23.26107 2.75421,-2.33024 3.96571,-4.35725 5.36184,-7.64334 -2.67889,-7.87737 -7.63621,-16.07699 -12.09129,-23.10367 -3.60329,-5.68281 -5.23016,-2.4008 -7.54729,-2.90823 -0.27013,-0.64378 -0.5769,-1.33506 -0.69839,-2.02564 -0.55791,-3.16873 3.99286,-4.85791 5.63738,-7.01109 0.0794,-1.22313 0.0692,-1.72038 -0.78255,-2.67079 -2.05311,-2.28819 -7.02197,-2.29429 -9.94858,-2.59007 -21.281,-42.76323 -48.22728,-112.79945 -92.95856,-134.799399 z"
       id="path96-0"
       style="stroke-width:0.678547" /><path
       fill="#fefefe"
       d="m 435.35686,243.32637 c -2.38635,0.17638 -3.00127,0.53049 -4.90031,1.96527 -1.02689,0.77607 -2.13183,1.76719 -2.30627,3.05408 l 1.68118,0.19741 c 0.62916,0.20555 1.28344,0.44909 1.93365,0.57255 1.19658,0.22658 3.02028,-0.67634 3.93655,-1.4748 1.03503,-0.90157 1.06082,-1.6505 1.19317,-2.90822 z"
       id="path98-2"
       style="stroke-width:0.678547" /><path
       fill="#fefefe"
       d="m 549.78522,264.44374 c -1.2339,0.41653 -1.96962,0.82559 -2.89471,1.74616 2.04496,2.10027 7.71357,1.67967 10.68498,2.91093 5.17994,2.14641 10.33816,6.93987 12.41638,12.19054 1.25766,3.17687 0.82328,5.23237 -0.51785,8.22675 0.36243,0.37108 0.54432,0.30052 1.04182,0.37854 0.82192,-1.05217 1.51489,-2.11927 1.73819,-3.46247 0.53143,-3.19518 -0.47239,-6.54503 -2.27641,-9.16359 -4.61797,-6.70174 -12.24602,-11.42261 -20.1924,-12.82686 z"
       id="path99-0"
       style="stroke-width:0.678547" /><path
       fill="#fefefe"
       d="m 511.35986,294.33599 -0.81716,0.21234 c 0.18053,1.88251 4.33493,6.51654 5.42698,8.35224 3.17502,5.33956 5.57903,10.87923 7.87579,16.64276 -0.21379,-3.16872 -0.52939,-6.18753 -1.14974,-9.31012 l -1.25086,-5.28393 c 3.625,0.52575 5.87018,1.25434 8.94204,3.28134 -5.14125,-8.50624 -9.68931,-11.25504 -19.02705,-13.89463 z"
       id="path101-8"
       style="stroke-width:0.678547" /><path
       fill="#fefefe"
       d="m 464.32231,311.06762 c -0.26537,0.0211 -0.49207,0.20555 -0.72622,0.33173 3.52591,4.00721 44.83309,21.9104 51.01685,23.38249 6.92288,-2.40486 16.7934,-9.3956 23.36402,-13.30375 0.74862,-0.40093 1.08323,-0.63972 1.65403,-1.28419 -0.25316,0.14382 -0.50768,0.2856 -0.75881,0.43281 -0.0387,0.0224 -0.0753,0.0481 -0.11334,0.0726 l 0.63731,-0.48302 c -6.09553,1.77873 -14.62559,7.85026 -21.35911,10.422 -2.80579,1.07184 -5.82267,0.68313 -8.66988,-0.019 -5.04283,-1.24482 -10.04563,-3.95768 -14.80749,-6.02946 q -15.20318,-6.57217 -30.23736,-13.5222 z"
       id="path103-9"
       style="stroke-width:0.678547" /><path
       fill="#fefefe"
       d="m 471.41419,434.04753 c -0.0841,0.0597 -0.17782,0.10855 -0.25316,0.18046 -1.66217,1.58335 -3.39357,21.74217 -3.95962,25.46242 -3.37999,3.51266 -6.8007,6.32048 -11.30125,8.30339 -3.54695,1.56368 -16.76761,5.85038 -20.12453,4.55331 0.26809,-0.73197 0.34411,-1.20005 0.30406,-1.97884 l -2.46441,2.31532 c -0.18664,0.47961 -0.0387,0.75232 0.0557,1.24755 0.96919,0.42466 1.66148,0.44636 2.7033,0.34054 8.00272,-0.81745 19.44718,-2.44964 26.09924,-7.06468 3.21778,-2.23256 5.87631,-5.35175 8.34275,-8.36174 0.78527,-8.05308 1.73547,-16.97857 0.59795,-24.99773 z"
       id="path104-2"
       style="stroke-width:0.678547" /><path
       fill="#fefefe"
       d="m 279.2718,463.97371 c -4.42793,2.0555 -10.97751,25.31656 -13.70933,31.07468 1.8556,3.66394 4.48833,7.03415 6.82446,10.4091 4.91456,-1.29368 11.418,-3.5371 15.11359,-7.09657 3.15601,-3.03847 7.79435,-15.13878 8.86671,-19.54488 0.46628,-1.91642 0.4432,-4.00178 0.47917,-5.96366 -0.0475,-1.41307 -0.31356,-2.70267 -0.63188,-4.07776 l -0.65156,-0.33919 c -0.69229,1.32963 -0.12014,3.90071 -0.22126,5.47658 -0.1595,2.49646 -0.78664,5.03904 -1.55018,7.41337 -1.53933,4.78735 -3.88632,14.31252 -8.35089,17.17461 -2.67142,1.71225 -6.34598,2.87974 -9.26172,4.33555 -1.43955,0.71841 -2.0918,0.71502 -3.55986,0.22047 -1.62958,-1.84316 -2.29473,-4.74664 -3.08883,-7.05586 0.98482,-8.18469 10.12165,-28.68677 9.74158,-32.02644 z"
       id="path105-0"
       style="stroke-width:0.678547" /><path
       fill="#fefefe"
       d="m 439.10201,248.0011 -1.66556,-0.055 c -1.11581,0.59291 -1.48775,0.54067 -1.88479,1.78008 2.61643,3.08392 13.91566,5.79814 18.1739,7.9079 l 0.57691,0.29035 c 5.32994,8.92888 9.64044,32.45179 9.6065,43.13157 l 0.0605,1.53857 0.37873,-0.0109 c 0.23687,-0.64243 0.43234,-1.30114 0.53414,-1.97952 1.6581,-11.0088 -2.46372,-37.02816 -8.70179,-45.94889 -5.38626,-2.70539 -11.41867,-4.56755 -17.07845,-6.65426 z"
       id="path106-28"
       style="stroke-width:0.678547" /><path
       fill="#fefefe"
       d="m 466.14398,710.83511 c -2.81598,2.17761 -5.72156,4.55874 -9.17281,5.62379 -3.5422,1.09221 -9.42123,-1.1261 -12.40552,1.03793 -1.27803,0.9226 -2.01239,3.83965 -2.09587,5.4135 -0.0414,0.76657 -0.009,1.757 0.51447,2.34719 3.37931,3.80574 36.83037,13.0928 43.12476,13.28952 2.39518,0.0814 7.46585,-0.43416 9.23321,-2.07585 1.49385,-4.38914 -0.15542,-12.25837 -1.08186,-16.78997 -0.29999,-1.45852 -0.84704,-4.68762 -2.11419,-5.51525 -0.40452,2.80172 -0.0984,5.38636 0.58776,8.12024 l 0.11267,0.44096 c 0.19344,3.26979 0.97056,6.51247 1.19997,9.78905 0.10451,1.49245 0.20632,1.7638 -0.78324,2.88313 -9.25969,4.22632 -31.73935,-4.11778 -41.34247,-7.63181 -2.57232,-0.94295 -7.12173,-2.43539 -8.31152,-5.00646 l 0.4751,-1.00401 c 1.85764,-0.87511 4.16729,0.44773 6.11045,1.11256 0.28982,-0.52237 0.61221,-0.99723 0.95767,-1.48566 l 0.91151,0.34597 c 0.33597,0.91582 0.62713,1.57384 1.21286,2.36755 0.2871,-0.86154 0.4113,-1.72309 0.56537,-2.61176 5.9177,0.0339 9.38932,-3.38514 14.27741,-6.10545 0.69297,0.77335 1.10766,1.18038 2.07958,1.61455 0.009,-0.16281 0.0258,-0.32563 0.0265,-0.48165 0.0135,-1.7231 -2.46034,-4.24668 -3.68541,-5.33209 z"
       id="path108-2"
       style="stroke-width:0.678547" /><path
       fill="#fefefe"
       d="m 489.6675,667.56109 -1.45787,1.11933 c -1.52099,4.40271 1.50945,15.16185 1.60991,20.35826 0.0305,1.56028 -0.77917,2.23188 -1.77958,3.26981 l -0.39502,0.40703 0.12963,0.3731 c 0.99161,-0.31205 1.68118,-0.78692 2.66938,-0.37989 0.26063,1.08541 0.20022,1.4653 -0.16017,2.46931 -1.71036,1.8452 -3.64537,3.16127 -6.06092,3.90749 -4.3777,1.34998 -11.77499,2.68639 -16.0217,0.40024 0.826,-0.27135 1.66625,-0.33919 2.52617,-0.43416 l -1.75379,-0.33241 c -0.13914,-0.502 -0.22059,-0.8819 -0.57895,-1.28214 -0.28642,-0.31884 -0.59455,-0.62411 -0.88233,-0.94296 2.22212,-7.5029 -2.25876,-17.46835 -4.62678,-24.55744 -1.65267,-0.19674 -3.4852,-1.95374 -4.5372,-3.12057 1.2115,6.62781 4.2501,12.88927 5.70254,19.47637 0.80293,3.64291 0.46696,7.54362 0.93392,11.24759 0.73301,0.94295 1.4314,1.75701 2.62594,2.0962 1.70357,0.47487 3.58089,0.19672 5.127,-0.59698 4.92543,2.9374 11.9949,-1.64169 16.88164,-2.62534 l 0.70518,0.64446 c 0.4846,2.99167 1.49181,6.11901 1.38525,9.15138 -0.73232,1.28893 -1.1701,1.8045 -2.59404,2.45575 -4.53923,2.06228 -12.44964,1.85199 -17.05606,0.10854 -3.20625,-1.22109 -3.8103,-4.36878 -5.08967,-7.26548 l 0.15474,0.13567 c 0.74523,1.65526 0.59184,2.98489 0.40112,4.72833 -0.10316,0.94296 0.17171,1.17361 0.5898,1.9741 3.09697,2.17083 9.35674,2.72709 13.13785,2.74067 3.55578,0.0135 8.71197,-0.1696 11.39968,-2.80851 1.64927,-5.67807 -1.31942,-36.32739 -2.98567,-42.71775 z"
       id="path109-0"
       style="stroke-width:0.678547" /><path
       fill="#fefefe"
       d="m 479.30626,275.96268 c -0.26809,1.27807 0.2233,2.25833 0.70179,3.41836 2.34632,5.69164 5.59328,11.00066 8.17172,16.59393 2.72163,5.90328 4.86027,12.09217 7.48484,18.04836 -1.82506,-7.35977 -3.09221,-14.85115 -4.28878,-22.33439 2.64359,3.04187 5.1494,6.18142 7.65725,9.33455 2.33273,2.87769 3.81979,5.56816 5.14193,9.03606 l 1.20268,-12.5399 6.33714,4.52684 c -7.54594,-13.04055 -20.07023,-18.47033 -32.40857,-26.08381 z"
       id="path111-5"
       style="stroke-width:0.678547" /><path
       fill="#fefefe"
       d="m 290.33008,724.91834 c -3.80147,1.15324 -9.7728,9.42951 -14.64257,12.02773 -5.17383,2.76101 -11.9406,1.76379 -16.77914,4.49088 -1.94316,1.09898 -3.37254,3.69041 -3.93722,5.81375 -0.29389,1.10576 -0.13236,2.04871 0.50835,2.99845 2.40401,3.56151 9.2658,4.76903 13.15347,5.4067 8.60133,1.41104 48.16828,4.97255 54.06698,0.73944 0.27623,-6.79061 0.26606,-21.42332 -4.30847,-26.68078 l -0.61356,0.25778 6.8e-4,1.49244 c 1.67574,8.20164 2.61237,15.90807 3.37864,24.21826 -5.37745,1.4246 -12.71434,1.71631 -18.31508,1.58063 -4.24399,-0.0949 -8.47238,-1.01079 -12.69397,-1.41782 -9.79995,-0.95652 -21.15822,-0.44094 -30.15931,-4.98611 -1.39611,-0.70552 -1.97982,-1.22787 -2.43998,-2.72032 0.63935,-1.36355 1.57054,-2.27257 2.59675,-3.34443 l 0.78053,0.0204 0.62373,2.06907 0.75609,0.0339 1.84135,-2.29971 c 1.53864,-0.33241 1.63435,-0.15603 3.05489,0.57663 3.70781,-2.57108 8.188,-4.19241 12.17204,-6.3361 3.47705,-1.86556 11.22729,-6.4989 12.12454,-10.67095 0.32986,-1.53315 -0.34071,-2.10299 -1.16874,-3.26981 z"
       id="path112-5"
       style="stroke-width:0.678547" /><path
       fill="#fefefe"
       d="m 473.85077,577.55125 c -1.70017,1.4463 -2.79359,6.2194 -3.94061,8.37395 -3.80894,7.15626 -9.85356,14.61914 -12.32543,22.32489 2.85195,-1.40425 13.52268,-19.79453 15.79773,-23.57244 2.95715,7.20715 6.26588,13.90278 7.58665,21.67976 1.84135,10.84055 -2.30966,26.53832 3.68677,36.04924 0.55384,1.45175 1.03775,2.86956 1.43073,4.38236 -0.82735,3.29016 -10.75217,16.26762 -13.66045,18.24171 0.42215,-0.0746 0.9882,-0.13568 1.3866,-0.32562 3.61008,-1.71631 14.46949,-14.46991 15.82352,-18.2892 0.1405,-4.17206 -3.27886,-7.86924 -3.86866,-11.96667 -1.09545,-7.60467 -0.65836,-15.42642 -0.87826,-23.09215 -0.35021,-12.21292 -5.44395,-23.18779 -11.03859,-33.80583 z"
       id="path113-2"
       style="stroke-width:0.678547" /><path
       fill="#fefefe"
       d="m 546.8172,275.99863 c -4.2087,-0.14992 -10.75556,5.98266 -14.29777,8.48724 5.00822,1.0515 8.22465,2.1939 12.04377,5.70317 -4.41571,-1.81128 -8.66514,-2.70268 -13.35979,-3.35867 -4.59965,3.09139 -9.89429,4.98815 -15.01382,7.02533 8.91897,1.68103 13.26749,3.09139 21.00957,8.22403 l 0.35836,-0.86358 -0.16357,-0.0292 0.0536,0.66685 c 0.64138,-3.07918 -1.78502,-8.02527 -3.02231,-10.90365 4.00305,1.15936 7.87918,2.43336 11.75735,3.96041 3.11597,3.39122 4.54331,9.72665 5.32315,14.16802 0.11538,-3.5527 -0.82532,-6.88423 -1.17214,-10.38808 -0.20158,-2.03379 -0.0712,-4.1673 -0.37261,-6.18006 -0.39094,-2.61517 -5.18741,-5.87277 -7.21676,-7.50631 0.77984,-1.13357 1.55154,-2.0711 2.5635,-3.00524 1.88003,-0.40363 3.68812,-0.003 5.48332,0.59427 6.54483,2.181 10.03817,5.92974 12.96954,11.9626 l 0.4337,-0.0272 c -0.27556,-1.17224 -0.80904,-2.1213 -1.3744,-3.1789 -4.20056,-7.85296 -7.16722,-12.68168 -16.00271,-15.35112 z"
       id="path114-7"
       style="stroke-width:0.678547" /><path
       fill="#fefefe"
       d="m 369.2271,300.45026 -0.28573,0.32697 c 1.51761,1.62609 3.17434,3.26438 4.4734,5.07159 3.74581,5.21066 4.3553,12.24821 3.35964,18.42623 -1.18844,7.37131 -4.98651,14.66596 -8.01765,21.46063 -9.09747,20.39829 -19.36302,39.57753 -30.3989,58.99691 -3.7078,6.52469 -7.30973,14.07576 -12.00236,19.92681 -2.92661,3.64834 -7.9647,5.91821 -11.72137,8.66092 l -0.1439,0.96601 c 4.78765,-1.1926 9.1701,-3.67072 12.45982,-7.37334 11.30872,-12.72985 46.39007,-78.86063 51.32634,-94.27823 1.29974,-4.0608 1.3486,-8.55508 1.0873,-12.77259 -0.54161,-8.73892 -3.7689,-13.73385 -10.13659,-19.41191 z"
       id="path115-6"
       style="stroke-width:0.678547" /><path
       fill="#fefefe"
       d="m 454.82779,274.8447 c -0.56129,2.97946 0.0462,6.51248 0.002,9.57469 q -0.0753,4.44002 -0.55723,8.85494 -0.48188,4.4149 -1.36557,8.76741 c -0.92372,4.66252 -2.17256,9.40238 -3.88902,13.84036 -1.39816,3.61307 -3.69492,7.32721 -4.31527,11.15329 1.19658,-0.94499 1.97303,-3.09546 2.67278,-4.4875 4.14151,-8.23488 6.71451,-15.92842 8.40247,-25.00247 3.54221,22.64509 -3.38135,47.615 -13.30142,67.82266 -4.30033,7.76748 -9.82913,14.04727 -15.62941,20.69474 l 0.26402,0.49319 -0.35225,0.20487 c 9.08049,-6.93171 17.94721,-18.56191 22.96426,-28.82041 11.20149,-22.90424 13.45278,-58.97791 5.1046,-83.09577 z"
       id="path116-78"
       style="stroke-width:0.678547" /><path
       fill="#fefefe"
       d="m 468.85205,464.39091 -1.16196,0.61802 c -2.89607,4.26091 -0.49682,19.49875 -0.2104,25.08861 -3.33181,2.22578 -7.60566,3.41295 -11.35351,4.8172 4.3139,-0.74825 8.43979,-1.68849 12.45642,-3.46993 2.52209,15.13133 1.31534,29.66839 1.49792,44.84652 0.0842,7.01855 1.09952,14.33151 0.60201,21.30733 -0.39297,5.5071 -10.96732,10.57123 -14.85839,14.04998 l -0.40044,0.36225 q 6.03309,-2.91229 12.01662,-5.92364 l 0.62171,0.10176 0.66445,-0.48775 c 0.33054,1.80721 1.09816,4.10557 1.13549,5.88632 0.0509,2.42997 -3.88223,5.35312 -5.4935,6.89169 -4.9261,4.90606 -9.96487,9.74158 -14.65207,14.87694 7.99796,-5.52679 18.75353,-14.10697 25.00719,-21.4525 -1.31059,-1.32556 -3.00059,-2.79833 -3.41053,-4.69102 -0.58573,-2.70538 2.13998,-5.69773 3.60533,-7.76884 -2.61644,-11.74823 -2.09452,-23.19797 -2.06533,-35.14971 0.0319,-13.20675 -0.46356,-26.12452 -1.4762,-39.29667 -0.53279,-6.93171 -0.88572,-13.82815 -2.52481,-20.60656 z"
       id="path117-7"
       style="stroke-width:0.678547" /><path
       fill="#fefefe"
       d="m 344.00545,361.37037 c -2.59405,0.75708 -5.76229,3.49842 -8.22058,4.8986 -4.35327,2.48017 -9.07033,4.17681 -13.43582,6.61152 -1.43547,0.80049 -2.93814,1.75633 -4.14625,2.87974 -2.02054,1.87844 -24.73842,50.26883 -24.80494,52.54684 l 0.95156,0.71637 c 6.56587,0.55628 21.00549,-8.12839 26.06124,-12.33232 -6.11521,2.96453 -12.09739,5.15096 -18.63137,7.03211 -1.5719,0.4864 -3.13701,0.84934 -4.74488,1.18581 0.84499,-2.95299 5.09714,-7.36316 6.98803,-9.89421 5.95367,-7.97235 11.44718,-16.78182 18.46576,-23.86007 4.5976,-4.63675 9.90989,-8.49402 15.09186,-12.44492 -8.18324,3.83421 -15.69456,8.68668 -24.11468,12.19528 8.10655,-12.31197 20.22701,-19.36512 30.54007,-29.53475 z"
       id="path118-8"
       style="stroke-width:0.678547" /><path
       fill="#4a4a4b"
       d="m 477.21312,106.97418 c -0.17444,0.21639 -0.56741,0.37446 -0.52397,0.64853 0.015,0.0916 10.20921,11.61933 11.47705,13.19318 22.762,28.26142 40.5314,64.74077 56.01353,97.51343 1.47959,3.13209 6.58758,12.33911 6.3894,15.09809 -0.0414,0.58138 -1.90311,1.61794 -2.4074,2.09553 1.43345,0.41041 3.82659,-0.83374 5.43243,-1.07117 -1.43005,1.69324 -5.08424,2.75897 -7.08917,3.79758 -1.36421,0.70688 -2.6653,1.5786 -3.13497,3.10496 l 0.60812,0.18317 0.55316,-0.73198 c 3.64266,-1.52975 14.46881,-5.63329 17.06625,-7.50631 -0.56944,-2.80171 -5.465,0.14857 -6.62696,-1.04131 -0.77374,-0.79236 -8.44387,-18.62499 -9.81352,-21.53526 -16.83005,-35.75077 -36.32406,-78.69171 -67.94395,-103.74844 z"
       id="path119-1"
       style="stroke-width:0.678547" /><path
       fill="#fefefe"
       d="m 341.14127,290.72496 -0.46763,0.47284 c -0.16968,9.37864 -5.2227,19.07408 -7.56562,28.18747 -2.85467,11.1058 -3.09221,22.66613 -6.29507,33.70137 -1.69881,5.85512 -4.73402,11.38191 -7.02739,17.03826 15.99863,-17.43986 38.41789,-27.79402 51.23743,-48.42091 -4.08247,3.37155 -7.77874,7.62569 -11.79808,11.17771 -3.76007,3.3139 -7.70611,6.52739 -11.97454,9.1697 -5.24374,3.24606 -10.88928,5.90599 -15.68031,9.82772 8.58369,-14.73244 15.72307,-21.55832 29.21725,-31.75577 -8.94884,3.52894 -18.33001,8.40924 -25.96418,14.26232 1.86306,-2.54326 4.25146,-4.74054 6.46203,-6.98192 l -6.42471,-1.68171 c 3.0196,-5.39856 7.35523,-9.50956 11.05693,-14.39052 0.72418,-7.87535 1.64792,-13.50118 5.59939,-20.43968 q -4.6458,0.41789 -9.28006,0.94499 z"
       id="path120-6"
       style="stroke-width:0.678547" /><path
       fill="#fefefe"
       d="m 289.02355,432.24576 c -1.08458,-0.16757 -1.82437,-0.13162 -2.90964,0.0441 -1.48435,2.0209 -1.52575,5.18962 -2.34292,7.57821 -1.93026,5.63804 -4.71027,10.9898 -6.5394,16.66176 -0.35293,1.09491 -0.61356,2.18642 -0.0183,3.23113 1.55833,2.73524 6.18443,3.89934 8.99703,4.65235 5.06795,1.35744 10.52888,2.38452 15.27987,-0.34665 5.05302,-5.09126 9.60312,-11.85202 13.11682,-18.08569 1.46533,-2.60023 3.43903,-5.81102 2.60286,-8.83932 -2.15492,-1.11119 -6.10706,0.0455 -8.63052,-0.2951 -6.55365,-0.8846 -13.18808,-2.86684 -19.55577,-4.60078 z"
       id="path121-0"
       style="stroke-width:0.678547" /><path
       fill="#010101"
       d="m 291.24024,434.93893 c -1.17079,-0.21166 -1.61806,-0.40093 -2.75355,0.0183 -3.61551,7.55922 -5.97064,16.3436 -8.87689,24.24879 2.8791,1.5345 5.91838,2.92314 9.05539,3.83354 4.64919,1.3493 9.00449,1.55621 13.30278,-0.83034 2.28659,-3.99975 4.59218,-8.0714 7.2188,-11.85813 1.93229,-2.78544 4.64443,-5.60208 6.16951,-8.59579 0.61016,-1.19667 0.65563,-1.5657 0.61016,-2.85938 -1.91193,-2.05617 -20.23177,-3.32205 -24.7262,-3.95701 z"
       id="path122-9"
       style="stroke-width:0.678547" /><path
       fill="#fefefe"
       d="m 416.30674,493.21472 c -1.05608,1.37372 -1.92008,3.12734 -2.81667,4.62385 5.75414,21.03394 12.37024,41.86503 17.39678,63.08959 3.25105,13.72571 4.85824,28.02262 8.5484,41.59638 1.49657,5.50847 4.24332,10.45388 6.4247,15.69777 2.47527,5.94942 4.35667,12.26516 5.90073,18.51307 1.27124,5.14892 2.60084,10.49458 2.82684,15.81309 0.14865,3.48011 -2.07414,7.88282 -0.7174,11.03051 3.06779,3.28337 7.99185,5.06752 12.32069,5.88157 4.65597,0.87512 18.67479,-0.88867 22.50274,-3.85999 1.04726,-0.81406 1.33706,-1.77736 1.53118,-3.03915 -0.42555,-1.30929 -0.68075,-2.03515 -1.7633,-2.92383 l -0.62916,0.43416 -0.15136,2.61177 c -2.07958,2.6864 -6.77559,3.57509 -9.96419,4.00924 -1.96827,0.26457 -3.64673,0.51558 -5.31976,-0.753 l -0.69907,1.26179 0.8674,1.00401 c -0.60542,0.35276 -1.10427,0.57663 -1.81556,0.62411 -2.84653,0.18316 -8.26877,-1.20074 -10.49834,-3.05951 -0.29456,-2.83563 6.75931,-8.88003 8.30745,-11.9938 1.71714,-3.45296 2.19021,-7.3808 2.59065,-11.15939 -1.53186,4.95219 -4.34172,10.65739 -8.03461,14.36814 -1.9737,1.98087 -4.33086,3.38513 -7.18078,3.36478 0.95969,-0.86833 1.7823,-1.83164 2.36056,-2.99845 1.6038,-3.25623 1.23119,-7.67929 0.77577,-11.15261 -1.04047,-7.91673 -3.33451,-15.99627 -6.78306,-23.22104 -3.30058,-6.91272 -7.18893,-13.16741 -9.12259,-20.66354 -1.8142,-7.03008 -2.63748,-14.44344 -3.82183,-21.61462 q -2.68974,-16.43451 -6.19801,-32.71365 c -4.1259,-18.86515 -10.84923,-36.50376 -16.8382,-54.77125 z"
       id="path123-5"
       style="stroke-width:0.678547" /><path
       fill="#fefefe"
       d="m 406.41245,249.6862 c -3.16348,-0.17705 -6.6541,0.55763 -9.81283,0.89682 -6.77016,0.72791 -12.86501,1.03726 -19.64332,0.24965 -3.40239,1.82418 -11.80011,3.98889 -13.34826,7.63249 l 0.67532,1.28349 c -0.56944,2.24749 -12.71773,13.15859 -15.31585,16.25541 -2.49426,2.97402 -4.49037,6.0566 -6.35207,9.44512 2.79154,-0.47487 5.34826,-0.63768 8.16967,-0.30731 9.8746,1.15732 21.19147,7.20103 27.34536,15.05806 6.96903,8.89835 3.6956,16.01866 2.40537,25.95085 4.53379,-7.66911 5.94416,-11.82895 8.33459,-20.43832 3.03656,-9.13305 6.89844,-18.38009 10.8852,-27.14955 l -0.25927,-0.56102 c -0.96444,2.5419 -2.4644,4.84365 -3.66776,7.27905 q -4.24875,8.71247 -8.6821,17.33268 c -2.69585,-16.40261 -7.78213,-20.32231 -14.88012,-33.97273 0.68415,-1.72851 1.37101,-3.46517 2.33275,-5.06209 1.02146,-1.69595 2.30966,-3.27319 4.35394,-3.69039 3.72546,-0.76048 9.09544,4.03773 12.04785,6.0844 -4.86639,-5.97315 -8.16765,-8.41398 -15.77941,-9.77617 8.93593,-0.67906 22.80883,-3.51334 31.19094,-6.51044 z"
       id="path124-8"
       style="stroke-width:0.678547" /><path
       fill="#010101"
       d="m 368.15271,269.6639 c -3.31755,0.91378 -6.38398,5.93177 -8.56469,8.59918 -3.7241,0.25032 -7.3749,1.01689 -11.03655,1.7041 10.70874,2.88447 19.80281,7.15422 28.1632,14.48346 3.68677,3.66598 5.83287,8.23217 8.26131,12.76581 -0.60949,-14.82809 -6.2815,-27.15702 -16.82327,-37.55255 z"
       id="path125-9"
       style="stroke-width:0.678547" /><path
       fill="#fefefe"
       d="m 370.0531,358.82169 c -0.91287,0.78488 -1.51625,2.14572 -2.10808,3.1823 -5.47994,9.60589 -1.19114,19.48314 -2.08704,29.7932 -0.57488,6.61558 -7.95588,41.24635 -11.01824,45.71688 -0.059,0.0862 -0.12352,0.16757 -0.18528,0.25169 l 0.43301,0.75571 c 4.30983,1.63015 9.33028,1.99174 13.85933,2.9184 6.02833,1.23331 11.96436,2.84311 18.02459,3.95769 q 6.81021,1.20752 13.70526,1.74344 6.89572,0.53592 13.81046,0.3955 c 26.66054,-0.34462 44.56228,-8.64938 66.18745,-23.54463 -7.7258,-10.41656 -10.83702,-18.8977 -13.34351,-31.63569 -1.93773,4.96779 -1.86986,10.54342 -3.94061,15.36875 -6.63646,15.4651 -40.49135,27.32323 -55.36672,33.20548 22.49053,-4.52753 42.71415,-15.68692 59.14241,-31.54343 3.38066,4.58382 5.99032,9.80669 8.93389,14.6863 -9.97098,9.96883 -26.00694,15.99762 -39.4889,19.23622 q -3.34062,0.6777 -6.71179,1.18445 -3.37049,0.50744 -6.76337,0.84255 -3.39222,0.33445 -6.79732,0.49726 -3.40443,0.16213 -6.8136,0.15127 -3.40918,-0.0109 -6.81293,-0.19469 -3.40374,-0.18451 -6.79392,-0.54135 -3.39017,-0.35683 -6.75795,-0.88529 -3.36709,-0.52845 -6.70365,-1.22719 c -7.50725,-1.6098 -14.87401,-3.90409 -22.37175,-5.60683 5.81046,-3.83626 12.28539,-6.94393 18.44811,-10.17913 12.79578,-6.71667 25.78907,-13.76506 36.79984,-23.25225 l -0.46967,-0.85137 0.81377,-0.0882 0.16561,0.22453 c -1.13481,-0.17162 -4.66277,2.8275 -5.84916,3.64767 -9.60108,6.63729 -19.58902,12.84924 -30.63712,16.77979 -5.841,2.07789 -11.89513,3.55134 -17.77278,5.55596 9.90786,-19.19145 20.65867,-33.71222 34.51325,-50.11281 2.68499,-3.17822 13.20165,-14.82673 13.58309,-18.18744 -3.43226,3.71144 -6.45796,7.76003 -9.9737,11.41786 -5.51928,5.74183 -11.66164,10.85887 -17.17076,16.62377 -7.68236,8.03883 -13.8858,17.00705 -20.00915,26.23849 2.5031,-9.17988 7.01246,-17.64542 9.9798,-26.65366 2.83363,-8.60325 4.36549,-17.63049 7.11835,-26.30157 q -4.2406,6.59116 -8.21989,13.34378 c -0.63732,-5.64481 -1.23662,-11.22723 -1.35133,-16.91343 z"
       id="path126-0"
       style="stroke-width:0.678547" /><path
       fill="#fefefe"
       d="m 394.5085,169.87109 q -0.69907,-0.0257 -1.39883,-0.0441 c -24.73096,-0.65056 -42.18881,10.88533 -59.60664,27.41751 5.06864,2.40284 9.70357,4.96577 14.00253,8.59308 8.29049,6.9948 15.92398,17.89098 16.80834,28.97508 0.69839,8.74503 -1.53457,15.43931 -7.11495,22.07796 0.58165,2.13148 0.70926,4.39456 0.94138,6.58641 3.17027,-8.02119 7.07016,-9.27484 14.29031,-13.14162 11.40578,-6.10748 22.78847,-23.62332 26.47864,-35.92104 -5.77993,9.55773 -13.82064,23.68098 -23.45294,29.74911 6.09213,-15.01125 9.30176,-32.54269 11.05556,-48.56609 -6.21294,16.69907 -8.47781,32.78216 -17.64519,48.47722 -0.0333,-15.29481 -3.25035,-28.51648 -10.44065,-42.10382 -0.34817,-0.93141 -0.87689,-1.79907 -0.70721,-2.80239 0.36786,-2.17897 2.77119,-3.81252 4.49579,-4.97866 6.78374,-4.58653 17.22031,-9.863 25.43886,-10.07397 3.25443,-0.0842 6.60252,0.7313 9.78772,1.34658 -3.93043,-2.6769 -7.58055,-5.0492 -12.07905,-6.68817 4.03562,0.10583 8.18188,0.0705 12.10485,1.12747 10.03748,2.702 25.95127,21.91447 31.01312,30.80129 -1.26987,7.24648 -3.59515,14.29284 -4.2854,21.63565 -10.00898,9.4302 -26.99921,14.76636 -40.67596,14.59812 9.95944,-5.13874 18.68565,-10.61194 26.42298,-18.84886 -3.03927,1.02232 -7.34435,5.404 -10.10944,7.39912 -6.77084,4.88503 -15.28666,8.84204 -21.19553,14.60422 14.80071,-0.41924 38.87059,-7.72135 49.67435,-18.10196 l 4.27725,-22.18176 c -5.27292,-8.31357 -29.53557,-37.81305 -38.07989,-39.93639 z"
       id="path127-0"
       style="stroke-width:0.678547" /><path
       fill="#fefefe"
       d="m 357.784,443.03543 c -0.17375,0.13568 -0.43912,0.32563 -0.59456,0.50269 -2.48001,2.82613 -5.10188,11.72855 -6.53532,15.44541 q -11.17909,28.80819 -21.0788,58.0804 c -4.59896,14.04253 -8.46017,28.34148 -12.85619,42.45115 -2.04768,6.57354 -4.85823,13.33498 -6.40502,20.00008 -0.5993,2.58057 0.10384,5.44335 0.0672,8.08225 -0.0794,5.70792 -2.86009,11.93479 -3.55985,17.70172 -2.2479,18.54698 0.59998,46.19785 -13.67064,60.32856 0.6407,1.16682 1.39543,2.01481 2.36667,2.91027 2.72368,2.52358 5.07203,4.1517 8.93255,3.99567 l 0.48256,-0.61055 c -0.8864,-2.44217 -3.53405,-3.99566 -4.85348,-6.34966 -0.0665,-0.11532 -0.12896,-0.23743 -0.19343,-0.35954 0.85586,-1.58741 8.86332,-26.03632 9.10561,-28.29533 1.14975,-10.71845 -2.49698,-26.59261 2.53025,-36.17001 2.45355,-4.67541 6.19733,-5.83952 10.88453,-7.3496 -2.35242,-0.31137 -5.15958,-0.48776 -7.26088,-1.60913 0.8864,-0.51082 11.5293,0.54611 13.69712,0.23473 l 0.53007,-0.0794 c -4.02748,-0.75572 -10.41011,-0.58409 -13.62449,-3.13413 l -0.0862,-0.94702 c 0.2871,-0.36429 0.37397,-0.50404 0.68211,-0.80592 6.32425,-6.20653 31.52963,-3.78877 40.58367,-3.49435 -7.39934,3.89934 -15.60634,6.18142 -22.82581,10.46405 5.81929,-1.55756 11.56663,-3.56218 17.31669,-5.36465 l -1.12055,5.84291 q -1.79791,1.37847 -3.50624,2.86616 c -3.42953,3.01745 -18.93135,20.12423 -19.13768,23.3669 0.92576,-0.80727 1.46399,-1.3432 1.7952,-2.55751 0.0257,-0.0949 0.0468,-0.18994 0.0699,-0.27813 3.28904,-1.87234 9.47687,-10.26393 12.59691,-13.54052 2.5221,-2.65723 5.18538,-4.99289 8.09773,-7.2112 0.35564,4.87756 1.85221,10.11468 1.33096,14.96511 -1.11309,10.35891 -6.58148,22.80723 -9.86239,32.85407 -3.13972,9.61947 -5.74394,19.44924 -9.53931,28.79735 1.54408,0.65803 4.15441,0.10176 5.65911,-0.47487 0.43709,-1.27536 -0.11266,-2.0962 -0.45813,-3.35799 -2.37617,-8.64938 14.18851,-43.90493 16.22057,-55.53241 2.23772,-12.79836 -4.12454,-15.7249 3.92229,-29.86036 q -0.23077,-1.37848 -0.38416,-2.76713 c -0.38347,-3.52488 -0.4018,-6.22959 1.31263,-9.4363 2.70942,-5.06616 6.74709,-9.57605 10.14066,-14.20058 6.85297,-9.3393 13.73851,-18.71997 20.31457,-28.25532 11.80215,-17.11152 21.36047,-35.58388 34.38226,-51.85285 1.20879,0.006 2.41011,-0.0638 3.57818,-0.39957 5.39644,-1.5535 15.97148,-16.88902 18.88248,-22.25231 -4.69194,5.58784 -10.57096,14.41089 -16.91557,18.13996 -8.2518,4.84975 -24.89113,4.34232 -33.77617,1.95306 -10.72843,-2.88449 -13.34893,-11.67022 -18.47255,-20.47902 -4.95324,-8.5171 -9.61939,-9.53534 -18.76506,-11.95717 z"
       id="path128-0"
       style="stroke-width:0.678547" /><path
       fill="#010101"
       d="m 354.13931,571.97426 c -1.63502,0.0848 -3.26529,0.29171 -4.89081,0.47623 -5.05777,0.57459 -29.04214,3.71279 -32.14386,7.61281 l 1.47959,0.15467 c 12.22431,0.40635 24.13844,2.18845 36.44012,2.04192 -0.74386,-3.4265 -0.87893,-6.79196 -0.88504,-10.28563 z"
       id="path129-7"
       style="stroke-width:0.678547" /><path
       fill="#010101"
       d="m 370.50648,456.03256 c -1.18436,0.0597 -2.26894,0.25168 -3.33587,0.80592 -9.37982,4.87893 -32.66036,68.24054 -37.14191,81.30077 -3.92364,11.43346 -7.17671,23.11318 -10.91167,34.61583 5.74123,-4.62521 12.41366,-7.32518 19.2517,-9.88268 -4.93899,4.30366 -12.64851,6.34559 -18.25671,11.30593 2.85942,-0.21777 5.7263,-0.60444 8.56943,-0.97619 7.29957,-0.95449 26.45082,-3.59815 31.63483,-8.38753 4.39942,-4.06351 7.5819,-9.94849 11.24628,-14.72498 13.98218,-18.38688 25.86577,-38.41545 37.69506,-58.231 -8.40179,6.22484 -24.62439,17.02061 -34.56212,19.63375 7.04097,-4.47123 14.2971,-8.5985 21.17246,-13.33022 8.42284,-5.7961 16.07601,-12.23598 23.81605,-18.88956 -11.99897,1.76311 -21.78262,-0.56714 -33.15039,-3.78742 -4.96071,-6.55792 -8.90608,-14.99429 -16.02714,-19.45262 z"
       id="path130-2"
       style="stroke-width:0.678547" /></g></svg>
