<?xml version="1.0" encoding="UTF-8" standalone="no"?>
<svg
   width="63mm"
   height="88mm"
   version="1.1"
   id="svg1222"
   sodipodi:docname="unit-chicken.svg"
   viewBox="0 0 172.80016 241.37165"
   inkscape:version="1.4 (86a8ad7, 2024-10-11)"
   xml:space="preserve"
   xmlns:inkscape="http://www.inkscape.org/namespaces/inkscape"
   xmlns:sodipodi="http://sodipodi.sourceforge.net/DTD/sodipodi-0.dtd"
   xmlns="http://www.w3.org/2000/svg"
   xmlns:svg="http://www.w3.org/2000/svg"><sodipodi:namedview
     id="namedview1222"
     pagecolor="#ffffff"
     bordercolor="#000000"
     borderopacity="0.25"
     inkscape:showpageshadow="2"
     inkscape:pageopacity="0.0"
     inkscape:pagecheckerboard="0"
     inkscape:deskcolor="#d1d1d1"
     inkscape:document-units="mm"
     inkscape:zoom="1.8744292"
     inkscape:cx="138.97564"
     inkscape:cy="193.9257"
     inkscape:window-width="1920"
     inkscape:window-height="1009"
     inkscape:window-x="-8"
     inkscape:window-y="-8"
     inkscape:window-maximized="1"
     inkscape:current-layer="svg1222" /><defs
     id="defs9"><linearGradient
       id="gradient_0"
       gradientUnits="userSpaceOnUse"
       x1="441.71112"
       y1="145.09618"
       x2="433.63623"
       y2="132.97914"
       gradientTransform="matrix(0.142578,0,0,0.142578,12.045774,5.4753442)"><stop
         offset="0"
         stop-color="#D75723"
         id="stop8" /><stop
         offset="1"
         stop-color="#F67B32"
         id="stop9" /></linearGradient><linearGradient
       id="gradient_0-0"
       gradientUnits="userSpaceOnUse"
       x1="551.16907"
       y1="197.51195"
       x2="560.67145"
       y2="182.27461"><stop
         offset="0"
         stop-color="#9F7D7C"
         id="stop17" /><stop
         offset="1"
         stop-color="#918E91"
         id="stop18" /></linearGradient><linearGradient
       id="gradient_1-9"
       gradientUnits="userSpaceOnUse"
       x1="449.08792"
       y1="189.32593"
       x2="440.36676"
       y2="170.84337"><stop
         offset="0"
         stop-color="#918985"
         id="stop19" /><stop
         offset="1"
         stop-color="#9F9AA1"
         id="stop20" /></linearGradient><linearGradient
       id="gradient_2-4"
       gradientUnits="userSpaceOnUse"
       x1="463.26547"
       y1="230.75563"
       x2="439.87003"
       y2="266.76077"><stop
         offset="0"
         stop-color="#BA6660"
         id="stop35" /><stop
         offset="1"
         stop-color="#C07880"
         id="stop36" /></linearGradient><linearGradient
       id="gradient_3-8"
       gradientUnits="userSpaceOnUse"
       x1="551.36304"
       y1="312.24997"
       x2="634.75836"
       y2="266.53201"><stop
         offset="0"
         stop-color="#430104"
         id="stop88" /><stop
         offset="1"
         stop-color="#280B0E"
         id="stop89" /></linearGradient><linearGradient
       id="gradient_4-8"
       gradientUnits="userSpaceOnUse"
       x1="613.48151"
       y1="1096.8893"
       x2="581.01855"
       y2="1098.147"><stop
         offset="0"
         stop-color="#A77F6C"
         id="stop138" /><stop
         offset="1"
         stop-color="#C7A085"
         id="stop139" /></linearGradient><linearGradient
       id="gradient_5-2"
       gradientUnits="userSpaceOnUse"
       x1="503.96011"
       y1="600.16711"
       x2="505.18375"
       y2="592.12109"><stop
         offset="0"
         stop-color="#8F7552"
         id="stop158" /><stop
         offset="1"
         stop-color="#978963"
         id="stop159" /></linearGradient><linearGradient
       id="gradient_0-09"
       gradientUnits="userSpaceOnUse"
       x1="-58.946751"
       y1="106.19473"
       x2="389.41034"
       y2="362.91779"><stop
         offset="0"
         stop-color="#022450"
         id="stop4" /><stop
         offset="1"
         stop-color="#1D8396"
         id="stop5" /></linearGradient><linearGradient
       id="gradient_1-4"
       gradientUnits="userSpaceOnUse"
       x1="1009.5914"
       y1="637.2998"
       x2="658.37054"
       y2="570.55884"><stop
         offset="0"
         stop-color="#1A5474"
         id="stop17-8" /><stop
         offset="1"
         stop-color="#1491A3"
         id="stop18-8" /></linearGradient><linearGradient
       id="gradient_2-2"
       gradientUnits="userSpaceOnUse"
       x1="1028.6083"
       y1="771.7796"
       x2="640.55359"
       y2="705.552"><stop
         offset="0"
         stop-color="#366A78"
         id="stop22" /><stop
         offset="1"
         stop-color="#539899"
         id="stop23" /></linearGradient><linearGradient
       id="gradient_3-4"
       gradientUnits="userSpaceOnUse"
       x1="8.701087"
       y1="643.55389"
       x2="440.77448"
       y2="564.43085"><stop
         offset="0"
         stop-color="#0C5174"
         id="stop43-5" /><stop
         offset="1"
         stop-color="#3CACA6"
         id="stop44" /></linearGradient><linearGradient
       id="gradient_4-5"
       gradientUnits="userSpaceOnUse"
       x1="435.85925"
       y1="708.78839"
       x2="9.5387468"
       y2="804.72308"><stop
         offset="0"
         stop-color="#479697"
         id="stop45" /><stop
         offset="1"
         stop-color="#80B19C"
         id="stop46" /></linearGradient><linearGradient
       id="gradient_5-1"
       gradientUnits="userSpaceOnUse"
       x1="1097.2244"
       y1="194.84795"
       x2="736.21826"
       y2="335.30173"><stop
         offset="0"
         stop-color="#012F5A"
         id="stop57" /><stop
         offset="1"
         stop-color="#1C657F"
         id="stop58" /></linearGradient><linearGradient
       id="gradient_6-7"
       gradientUnits="userSpaceOnUse"
       x1="560.42627"
       y1="364.51666"
       x2="648.96417"
       y2="346.30011"><stop
         offset="0"
         stop-color="#FAAB3A"
         id="stop79" /><stop
         offset="1"
         stop-color="#D69F73"
         id="stop80" /></linearGradient><linearGradient
       id="gradient_7-1"
       gradientUnits="userSpaceOnUse"
       x1="411.67563"
       y1="697.66064"
       x2="429.28143"
       y2="650.06323"><stop
         offset="0"
         stop-color="#57779E"
         id="stop86" /><stop
         offset="1"
         stop-color="#A9A7A4"
         id="stop87" /></linearGradient><linearGradient
       id="gradient_8-1"
       gradientUnits="userSpaceOnUse"
       x1="535.27917"
       y1="557.92682"
       x2="506.63275"
       y2="537.63617"><stop
         offset="0"
         stop-color="#DDBF94"
         id="stop110" /><stop
         offset="1"
         stop-color="#FFEBC1"
         id="stop111" /></linearGradient><linearGradient
       id="gradient_9-5"
       gradientUnits="userSpaceOnUse"
       x1="380.08817"
       y1="686.34711"
       x2="423.76776"
       y2="579.21649"><stop
         offset="0"
         stop-color="#4D7293"
         id="stop114" /><stop
         offset="1"
         stop-color="#FFECB9"
         id="stop115" /></linearGradient><linearGradient
       id="gradient_10-2"
       gradientUnits="userSpaceOnUse"
       x1="363.60147"
       y1="642.19897"
       x2="377.26132"
       y2="600.90186"><stop
         offset="0"
         stop-color="#9098A3"
         id="stop116" /><stop
         offset="1"
         stop-color="#DBC5AE"
         id="stop117" /></linearGradient><linearGradient
       id="gradient_11-7"
       gradientUnits="userSpaceOnUse"
       x1="404.38712"
       y1="615.84747"
       x2="413.46072"
       y2="549.26898"><stop
         offset="0"
         stop-color="#929393"
         id="stop118" /><stop
         offset="1"
         stop-color="#EDC79A"
         id="stop119" /></linearGradient><linearGradient
       id="gradient_12-6"
       gradientUnits="userSpaceOnUse"
       x1="693.32269"
       y1="234.29112"
       x2="687.88428"
       y2="247.41615"><stop
         offset="0"
         stop-color="#CD0D0E"
         id="stop121" /><stop
         offset="1"
         stop-color="#A20023"
         id="stop122" /></linearGradient></defs><defs
     id="defs43"><linearGradient
       id="gradient_1"
       gradientUnits="userSpaceOnUse"
       x1="504.39822"
       y1="85.186241"
       x2="495.87955"
       y2="151.54128"
       gradientTransform="matrix(0.142578,0,0,0.142578,12.045774,5.4753442)"><stop
         offset="0"
         stop-color="#ED6E2D"
         id="stop42" /><stop
         offset="1"
         stop-color="#F4943F"
         id="stop43" /></linearGradient></defs><defs
     id="defs327"><linearGradient
       id="gradient_2"
       gradientUnits="userSpaceOnUse"
       x1="346.7066"
       y1="621.97339"
       x2="340.97449"
       y2="605.86084"
       gradientTransform="matrix(0.142578,0,0,0.142578,12.045774,5.4753442)"><stop
         offset="0"
         stop-color="#9B6245"
         id="stop326" /><stop
         offset="1"
         stop-color="#BB7F62"
         id="stop327" /></linearGradient></defs><defs
     id="defs331"><linearGradient
       id="gradient_3"
       gradientUnits="userSpaceOnUse"
       x1="231.40376"
       y1="958.19427"
       x2="221.45979"
       y2="956.70825"
       gradientTransform="matrix(0.142578,0,0,0.142578,12.045774,5.4753442)"><stop
         offset="0"
         stop-color="#778494"
         id="stop330" /><stop
         offset="1"
         stop-color="#97A1B1"
         id="stop331" /></linearGradient></defs><defs
     id="defs388"><linearGradient
       id="gradient_4"
       gradientUnits="userSpaceOnUse"
       x1="650.17029"
       y1="331.12375"
       x2="638.19867"
       y2="338.70807"
       gradientTransform="matrix(0.142578,0,0,0.142578,12.045774,5.4753442)"><stop
         offset="0"
         stop-color="#896B50"
         id="stop387" /><stop
         offset="1"
         stop-color="#A88666"
         id="stop388" /></linearGradient></defs><defs
     id="defs426"><linearGradient
       id="gradient_5"
       gradientUnits="userSpaceOnUse"
       x1="508.2767"
       y1="760.50378"
       x2="510.44067"
       y2="750.1463"
       gradientTransform="matrix(0.142578,0,0,0.142578,12.045774,5.4753442)"><stop
         offset="0"
         stop-color="#8B8D92"
         id="stop425" /><stop
         offset="1"
         stop-color="#ACA7A9"
         id="stop426" /></linearGradient></defs><defs
     id="defs436"><linearGradient
       id="gradient_6"
       gradientUnits="userSpaceOnUse"
       x1="565.99249"
       y1="410.44449"
       x2="552.03925"
       y2="407.28406"
       gradientTransform="matrix(0.142578,0,0,0.142578,12.045774,5.4753442)"><stop
         offset="0"
         stop-color="#834318"
         id="stop435" /><stop
         offset="1"
         stop-color="#A95C2A"
         id="stop436" /></linearGradient></defs><defs
     id="defs491"><linearGradient
       id="gradient_7"
       gradientUnits="userSpaceOnUse"
       x1="235.69066"
       y1="966.34198"
       x2="210.12163"
       y2="971.22339"
       gradientTransform="matrix(0.142578,0,0,0.142578,12.045774,5.4753442)"><stop
         offset="0"
         stop-color="#4F545D"
         id="stop490" /><stop
         offset="1"
         stop-color="#666F7D"
         id="stop491" /></linearGradient></defs><defs
     id="defs566"><linearGradient
       id="gradient_8"
       gradientUnits="userSpaceOnUse"
       x1="445.93161"
       y1="382.86896"
       x2="442.04938"
       y2="380.81665"
       gradientTransform="matrix(0.142578,0,0,0.142578,12.045774,5.4753442)"><stop
         offset="0"
         stop-color="#D97E33"
         id="stop565" /><stop
         offset="1"
         stop-color="#EA9F53"
         id="stop566" /></linearGradient></defs><defs
     id="defs603"><linearGradient
       id="gradient_9"
       gradientUnits="userSpaceOnUse"
       x1="421.12939"
       y1="345.5784"
       x2="403.91769"
       y2="383.76407"
       gradientTransform="matrix(0.142578,0,0,0.142578,12.045774,5.4753442)"><stop
         offset="0"
         stop-color="#623621"
         id="stop602" /><stop
         offset="1"
         stop-color="#7D573D"
         id="stop603" /></linearGradient></defs><defs
     id="defs612"><linearGradient
       id="gradient_10"
       gradientUnits="userSpaceOnUse"
       x1="410.06244"
       y1="377.92294"
       x2="391.45569"
       y2="380.45035"
       gradientTransform="matrix(0.142578,0,0,0.142578,12.045774,5.4753442)"><stop
         offset="0"
         stop-color="#A37954"
         id="stop611" /><stop
         offset="1"
         stop-color="#C79F7D"
         id="stop612" /></linearGradient></defs><defs
     id="defs623"><linearGradient
       id="gradient_11"
       gradientUnits="userSpaceOnUse"
       x1="732.53723"
       y1="444.00186"
       x2="722.18109"
       y2="437.4884"
       gradientTransform="matrix(0.142578,0,0,0.142578,12.045774,5.4753442)"><stop
         offset="0"
         stop-color="#DB4C11"
         id="stop622" /><stop
         offset="1"
         stop-color="#EF6D22"
         id="stop623" /></linearGradient></defs><defs
     id="defs630"><linearGradient
       id="gradient_12"
       gradientUnits="userSpaceOnUse"
       x1="317.5257"
       y1="531.19232"
       x2="333.62204"
       y2="480.35449"
       gradientTransform="matrix(0.142578,0,0,0.142578,12.045774,5.4753442)"><stop
         offset="0"
         stop-color="#25352A"
         id="stop629" /><stop
         offset="1"
         stop-color="#7EA458"
         id="stop630" /></linearGradient></defs><defs
     id="defs634"><linearGradient
       id="gradient_13"
       gradientUnits="userSpaceOnUse"
       x1="401.867"
       y1="1234.4708"
       x2="439.52802"
       y2="1224.2528"
       gradientTransform="matrix(0.142578,0,0,0.142578,12.045774,5.4753442)"><stop
         offset="0"
         stop-color="#B96235"
         id="stop633" /><stop
         offset="1"
         stop-color="#CA7E4E"
         id="stop634" /></linearGradient></defs><defs
     id="defs649"><linearGradient
       id="gradient_14"
       gradientUnits="userSpaceOnUse"
       x1="751.685"
       y1="697.91345"
       x2="781.30127"
       y2="681.01959"
       gradientTransform="matrix(0.142578,0,0,0.142578,12.045774,5.4753442)"><stop
         offset="0"
         stop-color="#384E2E"
         id="stop648" /><stop
         offset="1"
         stop-color="#476937"
         id="stop649" /></linearGradient></defs><defs
     id="defs654"><linearGradient
       id="gradient_15"
       gradientUnits="userSpaceOnUse"
       x1="592.39404"
       y1="170.30611"
       x2="582.22333"
       y2="181.6326"
       gradientTransform="matrix(0.142578,0,0,0.142578,12.045774,5.4753442)"><stop
         offset="0"
         stop-color="#AC4005"
         id="stop653" /><stop
         offset="1"
         stop-color="#BE5C26"
         id="stop654" /></linearGradient></defs><defs
     id="defs658"><linearGradient
       id="gradient_16"
       gradientUnits="userSpaceOnUse"
       x1="294.3681"
       y1="514.50842"
       x2="309.0766"
       y2="507.87271"
       gradientTransform="matrix(0.142578,0,0,0.142578,12.045774,5.4753442)"><stop
         offset="0"
         stop-color="#88C485"
         id="stop657" /><stop
         offset="1"
         stop-color="#B8E4B4"
         id="stop658" /></linearGradient></defs><defs
     id="defs666"><linearGradient
       id="gradient_17"
       gradientUnits="userSpaceOnUse"
       x1="600.54083"
       y1="404.89056"
       x2="602.55548"
       y2="425.95209"
       gradientTransform="matrix(0.142578,0,0,0.142578,12.045774,5.4753442)"><stop
         offset="0"
         stop-color="#7D5745"
         id="stop665" /><stop
         offset="1"
         stop-color="#A97F64"
         id="stop666" /></linearGradient></defs><defs
     id="defs704"><linearGradient
       id="gradient_18"
       gradientUnits="userSpaceOnUse"
       x1="309.85922"
       y1="1420.9056"
       x2="301.76477"
       y2="1394.3719"
       gradientTransform="matrix(0.142578,0,0,0.142578,12.045774,5.4753442)"><stop
         offset="0"
         stop-color="#744F36"
         id="stop703" /><stop
         offset="1"
         stop-color="#985B3F"
         id="stop704" /></linearGradient></defs><defs
     id="defs714"><linearGradient
       id="gradient_19"
       gradientUnits="userSpaceOnUse"
       x1="528.97577"
       y1="849.45831"
       x2="509.21854"
       y2="897.53485"
       gradientTransform="matrix(0.142578,0,0,0.142578,12.045774,5.4753442)"><stop
         offset="0"
         stop-color="#66582F"
         id="stop713" /><stop
         offset="1"
         stop-color="#857045"
         id="stop714" /></linearGradient></defs><defs
     id="defs716"><linearGradient
       id="gradient_20"
       gradientUnits="userSpaceOnUse"
       x1="315.84964"
       y1="437.56415"
       x2="301.70172"
       y2="444.06219"
       gradientTransform="matrix(0.142578,0,0,0.142578,12.045774,5.4753442)"><stop
         offset="0"
         stop-color="#3D724B"
         id="stop715" /><stop
         offset="1"
         stop-color="#7AA870"
         id="stop716" /></linearGradient></defs><defs
     id="defs732"><linearGradient
       id="gradient_21"
       gradientUnits="userSpaceOnUse"
       x1="496.9462"
       y1="485.09894"
       x2="473.80963"
       y2="431.39297"
       gradientTransform="matrix(0.142578,0,0,0.142578,12.045774,5.4753442)"><stop
         offset="0"
         stop-color="#955522"
         id="stop731" /><stop
         offset="1"
         stop-color="#B76A33"
         id="stop732" /></linearGradient></defs><defs
     id="defs763"><linearGradient
       id="gradient_22"
       gradientUnits="userSpaceOnUse"
       x1="349.89453"
       y1="538.5036"
       x2="336.38834"
       y2="540.64868"
       gradientTransform="matrix(0.142578,0,0,0.142578,12.045774,5.4753442)"><stop
         offset="0"
         stop-color="#395237"
         id="stop762" /><stop
         offset="1"
         stop-color="#446A41"
         id="stop763" /></linearGradient></defs><defs
     id="defs769"><linearGradient
       id="gradient_23"
       gradientUnits="userSpaceOnUse"
       x1="370.20148"
       y1="595.698"
       x2="375.35248"
       y2="569.75403"
       gradientTransform="matrix(0.142578,0,0,0.142578,12.045774,5.4753442)"><stop
         offset="0"
         stop-color="#FDB899"
         id="stop768" /><stop
         offset="1"
         stop-color="#FFE4CD"
         id="stop769" /></linearGradient></defs><defs
     id="defs794"><linearGradient
       id="gradient_24"
       gradientUnits="userSpaceOnUse"
       x1="811.52563"
       y1="231.88011"
       x2="763.39594"
       y2="176.99849"
       gradientTransform="matrix(0.142578,0,0,0.142578,12.045774,5.4753442)"><stop
         offset="0"
         stop-color="#364852"
         id="stop793" /><stop
         offset="1"
         stop-color="#53555C"
         id="stop794" /></linearGradient></defs><defs
     id="defs801"><linearGradient
       id="gradient_25"
       gradientUnits="userSpaceOnUse"
       x1="610.27319"
       y1="296.50168"
       x2="559.02417"
       y2="300.19839"
       gradientTransform="matrix(0.142578,0,0,0.142578,12.045774,5.4753442)"><stop
         offset="0"
         stop-color="#663211"
         id="stop800" /><stop
         offset="1"
         stop-color="#9C5C2D"
         id="stop801" /></linearGradient></defs><defs
     id="defs803"><linearGradient
       id="gradient_26"
       gradientUnits="userSpaceOnUse"
       x1="349.0824"
       y1="506.39862"
       x2="287.68405"
       y2="442.48486"
       gradientTransform="matrix(0.142578,0,0,0.142578,12.045774,5.4753442)"><stop
         offset="0"
         stop-color="#3C4A28"
         id="stop802" /><stop
         offset="1"
         stop-color="#486335"
         id="stop803" /></linearGradient></defs><defs
     id="defs851"><linearGradient
       id="gradient_27"
       gradientUnits="userSpaceOnUse"
       x1="603.2724"
       y1="423.15714"
       x2="596.86053"
       y2="465.43326"
       gradientTransform="matrix(0.142578,0,0,0.142578,12.045774,5.4753442)"><stop
         offset="0"
         stop-color="#77593E"
         id="stop850" /><stop
         offset="1"
         stop-color="#BD9978"
         id="stop851" /></linearGradient></defs><defs
     id="defs878"><linearGradient
       id="gradient_28"
       gradientUnits="userSpaceOnUse"
       x1="613.05615"
       y1="407.23792"
       x2="623.64954"
       y2="404.14413"
       gradientTransform="matrix(0.142578,0,0,0.142578,12.045774,5.4753442)"><stop
         offset="0"
         stop-color="#88694E"
         id="stop877" /><stop
         offset="1"
         stop-color="#9D7E62"
         id="stop878" /></linearGradient></defs><defs
     id="defs899"><linearGradient
       id="gradient_29"
       gradientUnits="userSpaceOnUse"
       x1="479.46762"
       y1="402.34698"
       x2="471.25638"
       y2="400.90512"
       gradientTransform="matrix(0.142578,0,0,0.142578,12.045774,5.4753442)"><stop
         offset="0"
         stop-color="#E5762F"
         id="stop898" /><stop
         offset="1"
         stop-color="#EC984B"
         id="stop899" /></linearGradient></defs><defs
     id="defs903"><linearGradient
       id="gradient_30"
       gradientUnits="userSpaceOnUse"
       x1="364.39719"
       y1="799.4649"
       x2="316.94629"
       y2="788.1485"
       gradientTransform="matrix(0.142578,0,0,0.142578,12.045774,5.4753442)"><stop
         offset="0"
         stop-color="#CA6421"
         id="stop902" /><stop
         offset="1"
         stop-color="#F99145"
         id="stop903" /></linearGradient></defs><defs
     id="defs918"><linearGradient
       id="gradient_31"
       gradientUnits="userSpaceOnUse"
       x1="607.28137"
       y1="941.3429"
       x2="582.31622"
       y2="953.57446"
       gradientTransform="matrix(0.142578,0,0,0.142578,12.045774,5.4753442)"><stop
         offset="0"
         stop-color="#354B3E"
         id="stop917" /><stop
         offset="1"
         stop-color="#3E6144"
         id="stop918" /></linearGradient></defs><defs
     id="defs920"><linearGradient
       id="gradient_32"
       gradientUnits="userSpaceOnUse"
       x1="711.60657"
       y1="481.1792"
       x2="771.75195"
       y2="515.37213"
       gradientTransform="matrix(0.142578,0,0,0.142578,12.045774,5.4753442)"><stop
         offset="0"
         stop-color="#273927"
         id="stop919" /><stop
         offset="1"
         stop-color="#42583D"
         id="stop920" /></linearGradient></defs><defs
     id="defs932"><linearGradient
       id="gradient_33"
       gradientUnits="userSpaceOnUse"
       x1="726.98871"
       y1="1057.7771"
       x2="689.74646"
       y2="1021.3705"
       gradientTransform="matrix(0.142578,0,0,0.142578,12.045774,5.4753442)"><stop
         offset="0"
         stop-color="#27312F"
         id="stop931" /><stop
         offset="1"
         stop-color="#34503D"
         id="stop932" /></linearGradient></defs><defs
     id="defs937"><linearGradient
       id="gradient_34"
       gradientUnits="userSpaceOnUse"
       x1="504.95883"
       y1="1132.871"
       x2="455.11215"
       y2="1128.4186"
       gradientTransform="matrix(0.142578,0,0,0.142578,12.045774,5.4753442)"><stop
         offset="0"
         stop-color="#675932"
         id="stop936" /><stop
         offset="1"
         stop-color="#A79057"
         id="stop937" /></linearGradient></defs><defs
     id="defs944"><linearGradient
       id="gradient_35"
       gradientUnits="userSpaceOnUse"
       x1="140.53183"
       y1="1003.6458"
       x2="198.14177"
       y2="1035.8585"
       gradientTransform="matrix(0.142578,0,0,0.142578,12.045774,5.4753442)"><stop
         offset="0"
         stop-color="#7B8890"
         id="stop943" /><stop
         offset="1"
         stop-color="#9899A5"
         id="stop944" /></linearGradient></defs><defs
     id="defs953"><linearGradient
       id="gradient_36"
       gradientUnits="userSpaceOnUse"
       x1="688.35486"
       y1="293.4502"
       x2="704.63019"
       y2="286.25916"
       gradientTransform="matrix(0.142578,0,0,0.142578,12.045774,5.4753442)"><stop
         offset="0"
         stop-color="#843E1A"
         id="stop952" /><stop
         offset="1"
         stop-color="#AF632B"
         id="stop953" /></linearGradient></defs><defs
     id="defs961"><linearGradient
       id="gradient_37"
       gradientUnits="userSpaceOnUse"
       x1="231.57811"
       y1="651.74609"
       x2="243.24249"
       y2="658.07245"
       gradientTransform="matrix(0.142578,0,0,0.142578,12.045774,5.4753442)"><stop
         offset="0"
         stop-color="#4B7E41"
         id="stop960" /><stop
         offset="1"
         stop-color="#6FA86A"
         id="stop961" /></linearGradient></defs><defs
     id="defs968"><linearGradient
       id="gradient_38"
       gradientUnits="userSpaceOnUse"
       x1="377.69229"
       y1="466.93097"
       x2="410.38733"
       y2="362.97278"
       gradientTransform="matrix(0.142578,0,0,0.142578,12.045774,5.4753442)"><stop
         offset="0"
         stop-color="#4A733C"
         id="stop967" /><stop
         offset="1"
         stop-color="#668F50"
         id="stop968" /></linearGradient></defs><defs
     id="defs998"><linearGradient
       id="gradient_39"
       gradientUnits="userSpaceOnUse"
       x1="714.9353"
       y1="1378.9009"
       x2="708.27722"
       y2="1441.34"
       gradientTransform="matrix(0.142578,0,0,0.142578,12.045774,5.4753442)"><stop
         offset="0"
         stop-color="#6B493C"
         id="stop997" /><stop
         offset="1"
         stop-color="#8A6C58"
         id="stop998" /></linearGradient></defs><defs
     id="defs1002"><linearGradient
       id="gradient_40"
       gradientUnits="userSpaceOnUse"
       x1="774.07556"
       y1="1412.1241"
       x2="742.71008"
       y2="1469.8873"
       gradientTransform="matrix(0.142578,0,0,0.142578,12.045774,5.4753442)"><stop
         offset="0"
         stop-color="#513124"
         id="stop1001" /><stop
         offset="1"
         stop-color="#784D2C"
         id="stop1002" /></linearGradient></defs><defs
     id="defs1035"><linearGradient
       id="gradient_41"
       gradientUnits="userSpaceOnUse"
       x1="654.23218"
       y1="979.88446"
       x2="581.08948"
       y2="1033.6051"
       gradientTransform="matrix(0.142578,0,0,0.142578,12.045774,5.4753442)"><stop
         offset="0"
         stop-color="#60482B"
         id="stop1034" /><stop
         offset="1"
         stop-color="#917D43"
         id="stop1035" /></linearGradient></defs><defs
     id="defs1064"><linearGradient
       id="gradient_42"
       gradientUnits="userSpaceOnUse"
       x1="707.27185"
       y1="908.0766"
       x2="580.09119"
       y2="967.43842"
       gradientTransform="matrix(0.142578,0,0,0.142578,12.045774,5.4753442)"><stop
         offset="0"
         stop-color="#3B4F4B"
         id="stop1063" /><stop
         offset="1"
         stop-color="#597F64"
         id="stop1064" /></linearGradient></defs><defs
     id="defs1066"><linearGradient
       id="gradient_43"
       gradientUnits="userSpaceOnUse"
       x1="281.50095"
       y1="680.58838"
       x2="317.89832"
       y2="643.91455"
       gradientTransform="matrix(0.142578,0,0,0.142578,12.045774,5.4753442)"><stop
         offset="0"
         stop-color="black"
         id="stop1065" /><stop
         offset="1"
         stop-color="#5F1610"
         id="stop1066" /></linearGradient></defs><defs
     id="defs1068"><linearGradient
       id="gradient_44"
       gradientUnits="userSpaceOnUse"
       x1="291.26068"
       y1="621.42358"
       x2="273.80859"
       y2="612.78076"
       gradientTransform="matrix(0.142578,0,0,0.142578,12.045774,5.4753442)"><stop
         offset="0"
         stop-color="#BE3F2B"
         id="stop1067" /><stop
         offset="1"
         stop-color="#E06746"
         id="stop1068" /></linearGradient></defs><defs
     id="defs1079"><linearGradient
       id="gradient_45"
       gradientUnits="userSpaceOnUse"
       x1="228.94316"
       y1="1040.9229"
       x2="231.80919"
       y2="1098.5549"
       gradientTransform="matrix(0.142578,0,0,0.142578,12.045774,5.4753442)"><stop
         offset="0"
         stop-color="#735344"
         id="stop1078" /><stop
         offset="1"
         stop-color="#B19272"
         id="stop1079" /></linearGradient></defs><defs
     id="defs1153"><linearGradient
       id="gradient_46"
       gradientUnits="userSpaceOnUse"
       x1="341.18176"
       y1="1042.2279"
       x2="360.71796"
       y2="1007.9982"
       gradientTransform="matrix(0.142578,0,0,0.142578,12.045774,5.4753442)"><stop
         offset="0"
         stop-color="#5E8669"
         id="stop1152" /><stop
         offset="1"
         stop-color="#89A697"
         id="stop1153" /></linearGradient></defs><defs
     id="defs1155"><linearGradient
       id="gradient_47"
       gradientUnits="userSpaceOnUse"
       x1="187.54752"
       y1="1206.0042"
       x2="343.36517"
       y2="1069.0951"
       gradientTransform="matrix(0.142578,0,0,0.142578,12.045774,5.4753442)"><stop
         offset="0"
         stop-color="#57626E"
         id="stop1154" /><stop
         offset="1"
         stop-color="#A4AAB5"
         id="stop1155" /></linearGradient></defs><defs
     id="defs1161"><linearGradient
       id="gradient_48"
       gradientUnits="userSpaceOnUse"
       x1="166.01033"
       y1="1151.1868"
       x2="226.12117"
       y2="1086.3267"
       gradientTransform="matrix(0.142578,0,0,0.142578,12.045774,5.4753442)"><stop
         offset="0"
         stop-color="#584436"
         id="stop1160" /><stop
         offset="1"
         stop-color="#826852"
         id="stop1161" /></linearGradient></defs><defs
     id="defs1206"><linearGradient
       id="gradient_49"
       gradientUnits="userSpaceOnUse"
       x1="634.68005"
       y1="620.41003"
       x2="483.21085"
       y2="602.85364"
       gradientTransform="matrix(0.142578,0,0,0.142578,12.045774,5.4753442)"><stop
         offset="0"
         stop-color="#38491E"
         id="stop1205" /><stop
         offset="1"
         stop-color="#5C7637"
         id="stop1206" /></linearGradient></defs><g
     id="g1"
     transform="matrix(0.09694856,0,0,0.09694856,31.262318,134.35893)"><path
       fill="#0c3355"
       d="m 436.134,748.402 c 8.875,-0.999 18.046,-0.162 26.989,-0.852 13.295,-1.026 26.003,-4.194 39.03,-6.824 1.436,2.312 8.843,5.727 11.556,7.544 15.01,10.054 26.327,20.956 36.635,35.863 -7.237,6.341 -14.031,13.171 -20.904,19.9 -4.263,4.173 -9.164,10.219 -14.393,13.066 -2.602,1.417 -5.66,1.579 -8.549,1.865 l -0.59,0.009 c -2.804,-1.185 -7.413,-1.262 -10.505,-1.88 -5.061,-1.012 -9.889,-2.455 -14.768,-4.112 l -3.006,0.459 c -2.131,-2.139 -4.212,-4.548 -6.898,-5.987 -1.712,-4.214 -8.036,-10.803 -10.864,-14.9 -6.533,-9.465 -20.862,-34.055 -24.097,-44.076 z"
       id="path2" /><path
       fill="#2b5e78"
       d="m 436.134,748.402 c 6.053,0.18 12.1,0.059 18.154,-0.032 6.227,17.95 11.986,35.713 20.138,52.931 1.834,3.874 3.645,8.253 6.209,11.68 l -3.006,0.459 c -2.131,-2.139 -4.212,-4.548 -6.898,-5.987 -1.712,-4.214 -8.036,-10.803 -10.864,-14.9 -6.533,-9.465 -20.862,-34.055 -24.097,-44.076 z"
       id="path3" /><path
       fill="#1f7b8d"
       d="M 0,0 H 0.43625 L 0.54773,0.631382 Q 0.845785,45.2815 0.639322,89.9321 L 0.59862,209.525 0.584511,265.855 c -4.38e-4,9.375 -0.838028,19.693 0.398656,28.942 0.007749,2.473 0.120293,4.994 -0.042387,7.46 C 0.794762,299.838 0.688508,297.531 0,295.188 Z"
       id="path6" /><path
       fill="#993032"
       d="m 658.83,96.5287 0.819,-2.1653 c 3.253,0.8673 9.071,6.5566 12.314,8.6836 7.794,5.114 17.59,10.109 26.672,12.333 l 0.973,0.263 c 1.414,0.306 1.788,0.206 2.552,1.536 3.629,6.313 4.372,14.009 9.052,20.302 q 2.838,3.876 6.12,7.383 3.283,3.507 6.963,6.594 c 10.412,8.845 22.214,15.531 33.236,23.525 6.847,4.966 16.839,15.015 23.985,17.95 1.524,0.625 2.91,0.609 4.396,-0.108 4.652,-2.244 7.619,-8.855 9.858,-13.23 l 0.012,1.158 c -0.006,0.004 -0.014,0.007 -0.016,0.014 -0.623,1.661 -1.082,3.322 -2.11,4.783 -1.692,2.406 -1.576,6.672 -0.924,9.462 0.139,0.594 0.18,0.578 0.479,1.147 q -1.598,1.888 -3.444,3.534 -1.845,1.647 -3.903,3.019 c 1.104,0.601 2.186,1.285 3.411,1.601 l -0.449,0.997 c -4.176,3.412 -7.575,4.696 -12.962,5.346 l -0.399,0.004 -2.194,-1.987 c -0.441,-0.495 -0.889,-0.979 -1.375,-1.43 -3.219,-2.991 -7.761,-5.3 -11.643,-7.291 -12.491,-6.406 -26.146,-11.717 -40.409,-10.893 l -3.983,-0.15 c 0.93,-0.68 1.031,-0.671 1.34,-1.765 -2.765,-2.645 -14.79,-1.721 -18.421,-1.068 -5.582,1.003 -10.968,2.835 -16.493,4.076 -12.161,2.732 -33.352,5.8 -44.631,-0.387 -11.359,-6.23 -20.348,-26.922 -23.846,-38.961 -1.552,-3.538 -2.611,-7.355 -3.8,-11.032 l -0.298,-2.532 c 0.156,-0.305 0.23,-0.669 0.47,-0.915 2.031,-2.078 24.121,-7.082 28.538,-8.411 3.582,-1.078 7.072,-2.357 10.558,-3.712 3.367,-3.12 4.712,-12.218 6.097,-16.654 1.268,-3.626 2.323,-7.347 3.455,-11.0193 z"
       id="path7" /><path
       fill="#d7192e"
       d="m 658.83,96.5287 0.819,-2.1653 c 3.253,0.8673 9.071,6.5566 12.314,8.6836 7.794,5.114 17.59,10.109 26.672,12.333 l 0.973,0.263 c 1.414,0.306 1.788,0.206 2.552,1.536 3.629,6.313 4.372,14.009 9.052,20.302 q 2.838,3.876 6.12,7.383 3.283,3.507 6.963,6.594 c 10.412,8.845 22.214,15.531 33.236,23.525 6.847,4.966 16.839,15.015 23.985,17.95 1.524,0.625 2.91,0.609 4.396,-0.108 4.652,-2.244 7.619,-8.855 9.858,-13.23 l 0.012,1.158 c -0.006,0.004 -0.014,0.007 -0.016,0.014 -0.623,1.661 -1.082,3.322 -2.11,4.783 -1.692,2.406 -1.576,6.672 -0.924,9.462 0.139,0.594 0.18,0.578 0.479,1.147 q -1.598,1.888 -3.444,3.534 -1.845,1.647 -3.903,3.019 c -8.541,-1.745 -15.944,-9.972 -22.876,-14.795 q -2.965,-2.067 -6.186,-3.706 -3.222,-1.639 -6.638,-2.819 c -7.563,-2.605 -15.787,-4.076 -23.793,-4.017 -5.929,0.045 -12.23,1.323 -18.011,-0.351 -16.441,-4.761 -33.328,-26.257 -40.535,-41.004 -4.454,-9.111 -7.426,-19.224 -12.225,-28.069 -0.074,-0.135 -0.15,-0.268 -0.225,-0.403 1.268,-3.626 2.323,-7.347 3.455,-11.0193 z"
       id="path8" /><path
       fill="#fa6c34"
       d="m 658.83,96.5287 0.819,-2.1653 c 3.253,0.8673 9.071,6.5566 12.314,8.6836 7.794,5.114 17.59,10.109 26.672,12.333 l 0.973,0.263 c -0.436,1.26 -0.904,2.405 -2.111,3.059 -3.686,1.998 -9.13,0.688 -12.961,-0.428 -13.47,-3.923 -19.168,-9.839 -25.706,-21.7453 z"
       id="path9" /><path
       fill="#f5242f"
       d="m 610.01,139.772 -0.298,-2.532 c 0.156,-0.305 0.23,-0.669 0.47,-0.915 2.031,-2.078 24.121,-7.082 28.538,-8.411 3.582,-1.078 7.072,-2.357 10.558,-3.712 -0.76,5.911 -8.927,14.846 -13.557,18.456 -6.517,5.081 -14.137,6.126 -21.911,8.146 -1.552,-3.538 -2.611,-7.355 -3.8,-11.032 z"
       id="path10" /><path
       fill="#6d122e"
       d="m 610.01,139.772 c 1.189,3.677 2.248,7.494 3.8,11.032 3.498,12.039 12.487,32.731 23.846,38.961 11.279,6.187 32.47,3.119 44.631,0.387 5.525,-1.241 10.911,-3.073 16.493,-4.076 3.631,-0.653 15.656,-1.577 18.421,1.068 -0.309,1.094 -0.41,1.085 -1.34,1.765 -8.144,0.244 -15.308,1.82 -22.908,4.76 -23.096,10.456 -36.591,29.466 -51.891,48.529 -3.659,-0.293 -7.348,-0.155 -11.022,-0.479 -11.383,-1.006 -22.784,-4.682 -31.678,-12.036 -11.36,-9.393 -15.214,-27.51 -16.536,-41.615 -0.148,-0.868 -0.174,-1.73 -0.227,-2.61 1.534,-2.456 6.234,-4.798 8.675,-6.549 5.942,-4.265 11.514,-9.226 17.141,-13.905 2.347,-4.524 1.943,-19.382 2.595,-25.232 z"
       id="path11" /><path
       fill="#d7192e"
       d="m 607.415,165.004 c 1.001,2.88 -1.773,9.132 -3.08,11.829 -2.305,4.758 -5.803,8.244 -10.907,9.846 -3.63,1.139 -7.806,1.377 -11.602,1.389 -0.148,-0.868 -0.174,-1.73 -0.227,-2.61 1.534,-2.456 6.234,-4.798 8.675,-6.549 5.942,-4.265 11.514,-9.226 17.141,-13.905 z"
       id="path12" /><path
       fill="#f5242f"
       d="m 716.005,88.5529 1.026,-1.8488 c 1.08,-0.161 0.74,-0.319 1.515,0.205 2.035,1.3749 3.471,4.8894 4.888,6.9411 3.816,5.5253 19.003,27.1798 25.714,26.3998 3.114,-0.362 6.331,-3.373 8.78,-5.17 1.8,-3.098 6.695,-6.526 9.422,-8.983 -0.131,4.057 -0.7,8.239 -0.455,12.283 0.633,10.436 6.85,23.53 13.931,31.139 3.16,3.396 6.49,5.714 10.921,7.179 l 5.706,-1.244 c 0.066,5.685 0.202,11.388 -0.077,17.069 -0.18,3.685 -0.853,7.614 -0.701,11.275 0.039,0.919 0.154,2.036 0.928,2.646 0.37,0.291 0.698,0.426 1.11,0.626 -1.402,3.349 -3.007,6.405 -5.502,9.089 -0.299,-0.569 -0.34,-0.553 -0.479,-1.147 -0.652,-2.79 -0.768,-7.056 0.924,-9.462 1.028,-1.461 1.487,-3.122 2.11,-4.783 0.002,-0.007 0.01,-0.01 0.016,-0.014 l -0.012,-1.158 c -2.239,4.375 -5.206,10.986 -9.858,13.23 -1.486,0.717 -2.872,0.733 -4.396,0.108 -7.146,-2.935 -17.138,-12.984 -23.985,-17.95 -11.022,-7.994 -22.824,-14.68 -33.236,-23.525 q -3.68,-3.087 -6.963,-6.594 -3.282,-3.507 -6.12,-7.383 c -4.68,-6.293 -5.423,-13.989 -9.052,-20.302 -0.764,-1.33 -1.138,-1.23 -2.552,-1.536 l -0.973,-0.263 c 2.98,-2.879 5.305,-8.432 7.548,-12.018 3.135,-5.014 6.54,-9.8885 9.822,-14.8091 z"
       id="path13" /><path
       fill="#fa6c34"
       d="m 716.005,88.5529 1.026,-1.8488 c 1.08,-0.161 0.74,-0.319 1.515,0.205 2.035,1.3749 3.471,4.8894 4.888,6.9411 3.816,5.5253 19.003,27.1798 25.714,26.3998 3.114,-0.362 6.331,-3.373 8.78,-5.17 -0.183,0.567 -0.41,1.047 -0.71,1.563 -3.221,5.533 -7.467,8.012 -13.455,9.642 q -1.748,-0.388 -3.444,-0.963 -1.696,-0.575 -3.32,-1.33 -1.624,-0.754 -3.156,-1.68 -1.533,-0.926 -2.957,-2.012 c -10.437,-7.907 -13.208,-19.46 -14.881,-31.7471 z"
       id="path14" /><path
       fill="#2b5e78"
       d="M 0.43625,0 H 1022.83 l 0.24,0.60402 c -9.71,0.370768 -19.48,0.048106 -29.192,0.007162 C 974.971,0.531461 956.045,0.415514 937.14,0.631946 923.194,0.141878 909.137,0.479399 895.179,0.488055 L 820.548,0.574672 610.921,0.58023 333.554,0.591888 220.806,0.533162 C 198.469,0.52394 176.096,0.224489 153.764,0.657928 L 49.0082,0.659895 16.8203,0.702509 C 11.4584,0.713939 5.89004,1.03763 0.54773,0.631382 Z"
       id="path15" /><path
       fill="#fa6c34"
       d="m 767.35,106.097 3.905,-3.525 c 0.916,10.293 10.398,42.639 18.056,49.246 1.089,0.94 2.337,1.069 3.699,0.915 3.257,-0.369 6.382,-2.365 9.104,-4.096 1.377,12.329 1.757,26.851 -3.401,38.433 -0.412,-0.2 -0.74,-0.335 -1.11,-0.626 -0.774,-0.61 -0.889,-1.727 -0.928,-2.646 -0.152,-3.661 0.521,-7.59 0.701,-11.275 0.279,-5.681 0.143,-11.384 0.077,-17.069 l -5.706,1.244 c -4.431,-1.465 -7.761,-3.783 -10.921,-7.179 -7.081,-7.609 -13.298,-20.703 -13.931,-31.139 -0.245,-4.044 0.324,-8.226 0.455,-12.283 z"
       id="path16" /><path
       fill="#40597c"
       d="m 785.884,632.556 c -7.295,14.395 -26.218,32.654 -38.119,43.495 -9.304,6.729 -18.404,13.712 -28.072,19.928 -11.57,7.44 -23.646,14.009 -35.339,21.236 1.237,2.495 -2.295,12.34 -3.227,15.053 -6.108,17.769 -19.294,36.378 -30.736,51.238 -3.5,4.545 -13.895,13.31 -15.315,17.843 -5.515,5.138 -12.144,8.714 -18.304,12.97 -1.943,-0.132 -4.399,0.904 -6.337,1.334 -4.269,0.949 -8.817,1.705 -13.201,1.339 -9.392,-0.784 -12.798,-6.04 -16.488,-13.895 -0.731,-1.557 -1.387,-3.553 -2.576,-4.81 -0.142,-0.15 -0.312,-0.27 -0.468,-0.405 -1.34,-6.007 -7.751,-15.556 -10.503,-21.856 -5.625,2.64 -11.372,5.187 -16.855,8.107 -10.308,-14.907 -21.625,-25.809 -36.635,-35.863 -2.713,-1.817 -10.12,-5.232 -11.556,-7.544 7.606,-1.903 15.147,-4.1 22.712,-6.16 1.085,0.245 2.024,0.422 3.142,0.295 7.222,-0.821 46.336,-9.642 51.932,-12.567 4.215,1.585 50.223,-12.912 57.205,-15.372 6.422,-2.263 12.691,-5.002 18.967,-7.637 q 8.58,-3.162 17.059,-6.583 8.479,-3.422 16.85,-7.1 8.371,-3.678 16.626,-7.61 8.256,-3.931 16.387,-8.113 8.132,-4.181 16.132,-8.608 8.001,-4.427 15.862,-9.095 7.862,-4.669 15.578,-9.575 7.716,-4.906 15.279,-10.045 z"
       id="path19" /><path
       fill="#09193d"
       d="m 684.354,717.215 c 1.237,2.495 -2.295,12.34 -3.227,15.053 -6.108,17.769 -19.294,36.378 -30.736,51.238 -3.5,4.545 -13.895,13.31 -15.315,17.843 -5.515,5.138 -12.144,8.714 -18.304,12.97 -1.943,-0.132 -4.399,0.904 -6.337,1.334 -4.269,0.949 -8.817,1.705 -13.201,1.339 -9.392,-0.784 -12.798,-6.04 -16.488,-13.895 -0.731,-1.557 -1.387,-3.553 -2.576,-4.81 -0.142,-0.15 -0.312,-0.27 -0.468,-0.405 -1.34,-6.007 -7.751,-15.556 -10.503,-21.856 39.616,-18.686 78.728,-37.723 117.155,-58.811 z"
       id="path20" /><path
       fill="#0c3355"
       d="m 747.765,676.051 c -26.261,42.457 -52.216,79 -91.705,110.286 -6.446,5.107 -13.631,11.361 -20.984,15.012 1.42,-4.533 11.815,-13.298 15.315,-17.843 11.442,-14.86 24.628,-33.469 30.736,-51.238 0.932,-2.713 4.464,-12.558 3.227,-15.053 11.693,-7.227 23.769,-13.796 35.339,-21.236 9.668,-6.216 18.768,-13.199 28.072,-19.928 z"
       id="path21" /><path
       fill="#a0abaf"
       d="m 1023.38,332.985 0.62,-0.216 v 238 l -0.53,0.208 c -0.63,-8.911 -0.13,-18.178 -0.12,-27.117 l 0.06,-52.144 -0.37,-157.515 z"
       id="path22" /><path
       fill="#a0abaf"
       d="m 1023.47,570.977 0.53,-0.208 V 1024 h -0.97 l 0.02,-0.39 c 0.47,-19.33 0.21,-38.73 0.25,-58.068 l 0.01,-110.164 c 0.28,-9.425 0.01,-18.959 0.01,-28.397 l 0.04,-56.601 -0.27,-197.87 z"
       id="path24" /><path
       fill="#f3a727"
       d="m 648.836,903.958 c 10.726,-0.154 21.439,-0.444 32.168,-0.413 7.548,0.021 15.215,0.544 22.738,-0.016 l 2.033,-0.138 c 0.306,0.303 0.649,0.562 0.832,0.956 l 0.347,1.13 c -6.923,-1.448 -19.062,1.173 -26.344,1.711 -3.906,0.288 -7.751,0.116 -11.654,-0.143 -6.812,-0.646 -13.454,-1.486 -20.12,-3.087 z"
       id="path25" /><path
       fill="#5f361e"
       d="m 577.702,797.882 c 0.156,0.135 0.326,0.255 0.468,0.405 1.189,1.257 1.845,3.253 2.576,4.81 3.69,7.855 7.096,13.111 16.488,13.895 4.384,0.366 8.932,-0.39 13.201,-1.339 1.938,-0.43 4.394,-1.466 6.337,-1.334 -3.783,5.098 -8.211,12.294 -8.872,18.759 -0.873,13.49 2.615,21.067 3.917,33.736 1.45,11.069 5.106,21.751 8.323,32.403 9.51,1.676 19.261,2.806 28.696,4.741 6.666,1.601 13.308,2.441 20.12,3.087 1.551,0.794 3.059,1.219 4.74,1.66 -0.804,1.286 -1.537,1.849 -1.282,3.378 l 0.737,0.927 c 1.482,0.225 3.403,0.311 4.771,0.865 0.168,0.164 0.329,0.336 0.503,0.493 1.18,1.062 3.832,1.24 5.367,1.518 -1.239,0.74 -1.891,0.819 -3.32,0.849 l -0.717,0.022 -0.481,0.008 0.201,0.61 c -11.208,0.898 -28.279,-5.065 -38.615,-3.633 15.379,8.274 33.764,17.03 47.344,27.861 -3.992,-0.944 -7.822,-2.102 -11.701,-3.434 -9.385,0.232 -43.785,-13.511 -54.632,-17.982 -4.377,-1.804 -8.913,-4.865 -13.635,-5.527 -1.425,-0.2 -23.202,2.004 -23.534,2.172 -0.466,0.236 -0.827,0.637 -1.241,0.956 -3.666,-0.652 -7.414,-1.964 -11.019,-2.946 8.123,-5.924 20.907,-8.209 30.218,-13.88 -0.843,-6.784 -6.434,-20.74 -8.82,-27.824 -2.19,-7.266 -4.947,-14.408 -7.285,-21.638 -2.305,-7.129 -3.841,-15.432 -7.447,-22.015 -1.72,-3.14 -3.93,-5.322 -6.459,-7.804 2.182,-7.897 3.739,-15.723 5.053,-23.799 z"
       id="path30" /><path
       fill="#d07f36"
       d="m 676.503,938.169 c -4.596,-3.464 -10.642,-5.747 -15.79,-8.295 -10.773,-5.331 -36.001,-17.75 -44.314,-24.985 -1.571,-1.366 -2.204,-2.62 -2.95,-4.526 -4.552,-11.627 -6.372,-25.381 -8.942,-37.591 -1.274,-6.05 -3.315,-12.492 -3.695,-18.641 0.881,-0.814 2.173,-0.698 3.349,-0.846 1.544,-1.605 0.814,-5.775 1.713,-8.077 0.477,-1.225 0.843,-1.62 2.026,-2.13 -0.873,13.49 2.615,21.067 3.917,33.736 1.45,11.069 5.106,21.751 8.323,32.403 9.51,1.676 19.261,2.806 28.696,4.741 6.666,1.601 13.308,2.441 20.12,3.087 1.551,0.794 3.059,1.219 4.74,1.66 -0.804,1.286 -1.537,1.849 -1.282,3.378 l 0.737,0.927 c 1.482,0.225 3.403,0.311 4.771,0.865 0.168,0.164 0.329,0.336 0.503,0.493 1.18,1.062 3.832,1.24 5.367,1.518 -1.239,0.74 -1.891,0.819 -3.32,0.849 l -0.717,0.022 -0.481,0.008 0.201,0.61 c -11.208,0.898 -28.279,-5.065 -38.615,-3.633 15.379,8.274 33.764,17.03 47.344,27.861 -3.992,-0.944 -7.822,-2.102 -11.701,-3.434 z"
       id="path31" /><path
       fill="#7f471f"
       d="m 629.563,907.709 c 14.604,1.157 29.028,3.919 43.588,5.301 1.482,0.225 3.403,0.311 4.771,0.865 0.168,0.164 0.329,0.336 0.503,0.493 1.18,1.062 3.832,1.24 5.367,1.518 -1.239,0.74 -1.891,0.819 -3.32,0.849 l -0.717,0.022 -0.481,0.008 0.201,0.61 c -11.208,0.898 -28.279,-5.065 -38.615,-3.633 -3.852,-1.26 -7.751,-4.029 -11.297,-6.033 z"
       id="path32" /><path
       fill="#a76021"
       d="m 470.731,807.453 c 2.686,1.439 4.767,3.848 6.898,5.987 l 3.006,-0.459 c 4.879,1.657 9.707,3.1 14.768,4.112 3.092,0.618 7.701,0.695 10.505,1.88 l 0.59,-0.009 q -0.303,5.062 -0.507,10.129 l 0.015,1.758 c 2.6,17.524 7.142,34.321 12.075,51.323 1.979,6.82 3.828,14.513 6.602,21.014 l 1.781,4.697 c 5.425,0.396 11.372,1.321 16.782,1.029 9.553,1.594 20.011,2.775 29.196,5.928 3.605,0.982 7.353,2.294 11.019,2.946 l 12.818,4.102 c -8.645,0.242 -17.219,-0.905 -25.828,-0.827 -7.499,0.857 -15.357,-0.309 -22.786,-1.352 -3.341,-0.469 -6.798,-1.236 -10.176,-1.027 16.363,7.011 32.525,14.4 48.803,21.593 8.024,3.545 17.26,6.561 24.672,11.182 -2.644,-0.426 -5.296,-0.815 -7.913,-1.386 -21.093,-0.981 -47.959,-10.497 -67.534,-18.21 -6.78,-2.671 -13.419,-5.885 -20.304,-8.253 l -0.593,-0.2 c -1.576,-2.771 -3.441,-9.099 -6.132,-10.631 l -1.253,0.46 c -0.601,-2.26 -1.234,-4.4 -2.149,-6.562 -0.047,-1.264 -0.509,-2.365 -0.902,-3.559 -4.354,-14.653 -8.681,-29.284 -13.832,-43.683 -2.397,-6.105 -4.061,-12.523 -6.598,-18.573 -1.756,-4.188 -4.137,-8.151 -6.159,-12.218 -3.439,-6.916 -5.393,-13.633 -6.864,-21.191 z"
       id="path33" /><path
       fill="#f3a727"
       d="m 603.051,950.073 c -10.419,-4.078 -21.32,-6.863 -31.897,-10.542 -9.716,-3.38 -19.136,-7.631 -28.701,-11.411 -6.086,-2.406 -13.253,-4.42 -18.712,-7.967 -2.641,-1.715 -3.89,-4.526 -5.038,-7.352 -5.526,-13.602 -9.567,-31.855 -13.95,-46.284 -2.543,-8.374 -6.576,-16.961 -8.263,-25.471 0.828,-0.664 0.478,-0.502 1.351,-0.818 4.715,-1.704 5.969,-5.201 8.165,-9.377 2.6,17.524 7.142,34.321 12.075,51.323 1.979,6.82 3.828,14.513 6.602,21.014 l 1.781,4.697 c 5.425,0.396 11.372,1.321 16.782,1.029 9.553,1.594 20.011,2.775 29.196,5.928 3.605,0.982 7.353,2.294 11.019,2.946 l 12.818,4.102 c -8.645,0.242 -17.219,-0.905 -25.828,-0.827 -7.499,0.857 -15.357,-0.309 -22.786,-1.352 -3.341,-0.469 -6.798,-1.236 -10.176,-1.027 16.363,7.011 32.525,14.4 48.803,21.593 8.024,3.545 17.26,6.561 24.672,11.182 -2.644,-0.426 -5.296,-0.815 -7.913,-1.386 z"
       id="path34" /><path
       fill="#c7582d"
       d="m 530.197,915.148 c 6.872,0.812 36.496,3.012 40.254,5.915 -7.499,0.857 -15.357,-0.309 -22.786,-1.352 -3.341,-0.469 -6.798,-1.236 -10.176,-1.027 -2.52,-0.684 -4.987,-2.307 -7.292,-3.536 z"
       id="path35" /><path
       fill="#7f471f"
       d="m 480.635,812.981 c 4.879,1.657 9.707,3.1 14.768,4.112 3.092,0.618 7.701,0.695 10.505,1.88 l 0.59,-0.009 q -0.303,5.062 -0.507,10.129 l -1.887,0.781 c -10.755,-1.246 -19.794,-8.202 -26.475,-16.434 z"
       id="path36" /><path
       fill="#9a3d2d"
       d="m 504.104,829.874 c -0.202,-3.171 -0.933,-7.7 0.282,-10.667 l 1.522,-0.234 0.59,-0.009 q -0.303,5.062 -0.507,10.129 z"
       id="path37" /><path
       fill="#7f471f"
       d="m 507.235,913.239 1.253,-0.46 c 2.691,1.532 4.556,7.86 6.132,10.631 -15.891,0.477 -32.011,3.02 -47.805,4.836 -5.698,0.655 -11.708,1.772 -17.432,1.829 10.394,-3.824 21.053,-6.463 31.891,-8.697 7.112,-1.466 15.128,-2.514 21.925,-5.087 1.789,-0.678 2.818,-1.604 4.036,-3.052 z"
       id="path38" /><path
       fill="#f4ce91"
       d="m 673.696,908.705 c 6.461,2.008 13.443,2.96 20.083,4.247 13.302,2.578 27.55,5.388 40.287,10.124 -6.68,-0.153 -13.732,-1.285 -20.289,-2.548 -6.829,1.654 -26.295,-2.186 -34.302,-3.153 l -0.201,-0.61 0.481,-0.008 0.717,-0.022 c 1.429,-0.03 2.081,-0.109 3.32,-0.849 -1.535,-0.278 -4.187,-0.456 -5.367,-1.518 -0.174,-0.157 -0.335,-0.329 -0.503,-0.493 -1.368,-0.554 -3.289,-0.64 -4.771,-0.865 l -0.737,-0.927 c -0.255,-1.529 0.478,-2.092 1.282,-3.378 z"
       id="path39" /><path
       fill="#c7582d"
       d="m 677.922,913.875 c 6.995,0.858 13.977,2.366 20.909,3.641 4.894,0.901 10.214,1.522 14.946,3.012 -6.829,1.654 -26.295,-2.186 -34.302,-3.153 l -0.201,-0.61 0.481,-0.008 0.717,-0.022 c 1.429,-0.03 2.081,-0.109 3.32,-0.849 -1.535,-0.278 -4.187,-0.456 -5.367,-1.518 -0.174,-0.157 -0.335,-0.329 -0.503,-0.493 z"
       id="path40" /><path
       fill="#d07f36"
       d="m 505.086,906.677 c 0.915,2.162 1.548,4.302 2.149,6.562 -1.218,1.448 -2.247,2.374 -4.036,3.052 -6.797,2.573 -14.813,3.621 -21.925,5.087 -10.838,2.234 -21.497,4.873 -31.891,8.697 -2.311,0.598 -4.653,1.064 -6.988,1.559 8.607,-4.451 18.158,-7.13 27.249,-10.457 12.065,-4.416 23.737,-9.224 35.442,-14.5 z"
       id="path41" /><path
       fill="#5f84a1"
       d="m 0,1023.27 c 11.6417,0.69 23.5829,0.17 35.2549,0.17 l 66.3951,-0.04 207.571,0.04 713.829,0.17 -0.02,0.39 H 0 Z"
       id="path42" /><path
       fill="#5f84a1"
       d="m 0,769.666 0.800046,0.291 -0.14334,188.866 -0.048294,41.627 C 0.600962,1006.82 1.57908,1016.16 0,1022.08 Z"
       id="path43" /><path
       fill="#90ada2"
       d="m 0,602.664 0.344405,-0.125 6.544095,4.387 c -2.12854,-0.129 -3.4054,-1.261 -5.10165,-2.52 q -0.75342,9.73 -1.087075,19.483 C 0.531544,630.466 1.98687,649.995 0,654.839 Z"
       id="path47" /><path
       fill="#42202f"
       d="m 216.943,514.133 c 7.592,-6.922 15.967,-13.603 24.569,-19.236 28.654,-18.766 63.266,-27.031 97.036,-19.416 q 8.152,1.897 16.024,4.738 c 3.21,1.134 6.692,2.775 10.023,3.42 0.263,0.051 0.528,0.095 0.791,0.143 20.594,13.494 45.281,24.448 61.668,43.366 -3.009,1.827 -5.998,3.808 -9.086,5.488 -4.625,2.827 -9.436,6.315 -14.285,8.663 -4.54,3.042 -10.952,8.321 -15.68,10.427 -6.053,4.5 -11.966,9.169 -17.991,13.698 -4.75,4.221 -8.979,8.875 -13.617,13.178 -3.029,-0.994 -5.482,0.816 -8.144,2.162 -5.017,2.537 -10.24,4.17 -15.391,6.362 -14.774,6.286 -28.357,14.106 -40.12,25.158 -3.013,2.83 -7.127,6.258 -9.245,9.801 -9.017,11.763 -17.815,23.488 -22.431,37.768 -5.654,-19.863 -4.775,-43.418 0.61,-63.228 -6.242,3.791 -11.665,10.39 -16.781,15.565 -6.886,6.966 -13.949,13.788 -20.721,20.863 -4.726,4.939 -9.133,10.152 -14.013,14.947 -0.198,-6.012 0.357,-12.218 1.376,-18.141 4.051,-23.545 19.994,-48.731 37.449,-65.026 4.455,-4.159 9.355,-7.629 14.309,-11.15 -22.077,5.339 -67.027,23.073 -81.484,39.439 l -0.898,-0.098 c -0.377,-1.145 -0.65,-2.311 -0.668,-3.522 -0.214,-14.2 11.948,-48.89 22.443,-59.19 3.778,-6.093 9.33,-11.029 14.257,-16.179 z"
       id="path48" /><path
       fill="#f3a727"
       d="m 216.943,514.133 c 7.592,-6.922 15.967,-13.603 24.569,-19.236 28.654,-18.766 63.266,-27.031 97.036,-19.416 q 8.152,1.897 16.024,4.738 c 3.21,1.134 6.692,2.775 10.023,3.42 0.263,0.051 0.528,0.095 0.791,0.143 20.594,13.494 45.281,24.448 61.668,43.366 -3.009,1.827 -5.998,3.808 -9.086,5.488 -23.328,-14.826 -46.147,-30.153 -73.052,-37.864 -23.764,-6.811 -50.228,-6.69 -74.172,-0.751 -4.616,1.145 -9.997,2.4 -14.136,4.695 -18.772,7.284 -38.311,16.153 -52.326,30.994 -0.642,0.679 -0.348,0.44 -1.25,0.846 l -0.346,-0.244 c 3.778,-6.093 9.33,-11.029 14.257,-16.179 z"
       id="path49" /><path
       fill="#d07f36"
       d="m 256.608,498.716 c 4.139,-2.295 9.52,-3.55 14.136,-4.695 23.944,-5.939 50.408,-6.06 74.172,0.751 26.905,7.711 49.724,23.038 73.052,37.864 -4.625,2.827 -9.436,6.315 -14.285,8.663 -0.584,-0.622 -0.376,-0.507 -0.963,-0.844 -5.154,-2.955 -9.777,-6.818 -14.828,-9.965 -6.971,-5.261 -15.01,-9.57 -22.946,-13.169 -36.363,-16.491 -69.11,-13.252 -105.461,0.334 l -0.279,-0.232 c -6.49,0.443 -16.006,9.161 -20.958,9.881 0.604,-1.087 1.045,-2.342 1.375,-3.541 0.284,-1.031 0.364,-1.51 1.187,-2.248 3.508,-3.148 8.034,-14.936 10.284,-19.744 0.692,-0.515 0.417,-0.4 1.162,-0.647 1.676,-0.553 3.259,-1.128 4.878,-1.837 z"
       id="path50" /><path
       fill="#c7582d"
       d="m 245.91,576.395 c 10.237,-9.71 20.226,-19.375 31.837,-27.482 22.332,-15.591 53.883,-28.256 81.469,-25.055 9.558,1.11 18.329,4.902 27.676,6.472 l 1,0.16 c 5.051,3.147 9.674,7.01 14.828,9.965 0.587,0.337 0.379,0.222 0.963,0.844 -4.54,3.042 -10.952,8.321 -15.68,10.427 -1.804,-2.252 -14.358,-6.08 -17.346,-7.036 -18.677,-5.974 -36.759,-5.475 -55.688,-0.905 -5.061,1.222 -10.494,2.5 -15.136,4.895 -19.057,5.752 -36.921,17.686 -53.923,27.715 z"
       id="path51" /><path
       fill="#895d57"
       d="m 256.608,498.716 0.526,0.571 c -1.619,0.709 -3.202,1.284 -4.878,1.837 -0.745,0.247 -0.47,0.132 -1.162,0.647 -2.25,4.808 -6.776,16.596 -10.284,19.744 -0.823,0.738 -0.903,1.217 -1.187,2.248 -0.33,1.199 -0.771,2.454 -1.375,3.541 4.952,-0.72 14.468,-9.438 20.958,-9.881 l 0.279,0.232 c -6.801,3.583 -13.776,6.565 -20.31,10.675 -23.003,14.468 -47.911,39.273 -58.264,64.694 -0.377,-1.145 -0.65,-2.311 -0.668,-3.522 -0.214,-14.2 11.948,-48.89 22.443,-59.19 l 0.346,0.244 c 0.902,-0.406 0.608,-0.167 1.25,-0.846 14.015,-14.841 33.554,-23.71 52.326,-30.994 z"
       id="path52" /><path
       fill="#9a3d2d"
       d="m 299.833,548.68 c 4.642,-2.395 10.075,-3.673 15.136,-4.895 18.929,-4.57 37.011,-5.069 55.688,0.905 2.988,0.956 15.542,4.784 17.346,7.036 -6.053,4.5 -11.966,9.169 -17.991,13.698 -27.73,-5.075 -51.628,-4.111 -76.825,9.777 2.26,-4.413 19.868,-8.388 24.877,-11.711 0.126,-0.084 0.249,-0.173 0.374,-0.259 l 1.132,0.723 0.706,-0.371 c 3.624,-6.356 4.617,-13.974 6.095,-21.057 -5.351,0.982 -22.715,6.413 -26.538,6.154 z"
       id="path53" /><path
       fill="#0c3355"
       d="m 153.954,443.672 q 2.734,-0.831 5.488,-1.594 2.753,-0.763 5.525,-1.459 2.772,-0.695 5.559,-1.322 2.788,-0.628 5.591,-1.186 2.802,-0.558 5.617,-1.048 2.816,-0.489 5.642,-0.909 2.827,-0.42 5.663,-0.77 2.836,-0.351 5.679,-0.631 2.844,-0.281 5.694,-0.492 2.849,-0.21 5.703,-0.351 2.854,-0.14 5.711,-0.211 2.857,-0.07 5.714,-0.07 2.858,0 5.714,0.07 2.857,0.07 5.711,0.21 2.854,0.14 5.704,0.351 2.85,0.21 5.693,0.49 2.844,0.281 5.68,0.631 2.836,0.35 5.663,0.77 2.826,0.42 5.641,0.909 2.816,0.489 5.618,1.047 2.803,0.558 5.591,1.185 2.787,0.627 5.559,1.322 2.772,0.695 5.525,1.458 2.754,0.763 5.488,1.594 2.735,0.83 5.447,1.728 2.713,0.897 5.403,1.861 2.69,0.964 5.356,1.994 2.665,1.029 5.305,2.124 2.639,1.095 5.251,2.255 2.612,1.159 5.194,2.382 2.583,1.224 5.134,2.51 2.552,1.286 5.071,2.635 c 11.956,6.399 23.773,13.8 34.098,22.627 -0.263,-0.048 -0.528,-0.092 -0.791,-0.143 -3.331,-0.645 -6.813,-2.286 -10.023,-3.42 q -7.872,-2.841 -16.024,-4.738 c -33.77,-7.615 -68.382,0.65 -97.036,19.416 -8.602,5.633 -16.977,12.314 -24.569,19.236 -8.634,1.548 -23.541,8.435 -31.111,12.913 -34.019,20.125 -64.242,62.55 -73.899,100.612 -3.092,-24.426 -0.135,-47.461 8.018,-70.608 13.694,-38.873 36.818,-66.824 74.119,-84.635 -10.587,-6.17 -21.727,-11.541 -32.714,-16.97 -5.475,-2.706 -12.315,-5.038 -17.025,-8.804 3.144,-1.159 6.406,-2.03 9.623,-2.969 z"
       id="path54" /><path
       fill="#2b5e78"
       d="m 153.954,443.672 c 5.293,1.766 11.929,-0.189 17.454,-0.529 4.583,-0.282 9.338,-0.388 13.921,-0.067 23.018,1.617 46.285,6.816 69.039,10.736 9.071,1.563 24.778,3.245 33.028,6.317 -32.08,-2.515 -63.316,-0.188 -93.326,12.286 -10.587,-6.17 -21.727,-11.541 -32.714,-16.97 -5.475,-2.706 -12.315,-5.038 -17.025,-8.804 3.144,-1.159 6.406,-2.03 9.623,-2.969 z"
       id="path55" /><path
       fill="#5f84a1"
       d="m 0,295.188 c 0.688508,2.343 0.794762,4.65 0.94078,7.069 Q 1.032,335.25 0.685625,368.242 L 0.473356,478.633 q 0.271873,41.454 0.08943,82.909 c -0.0144,13.64 0.371595,27.373 -0.218381,40.997 L 0,602.664 Z"
       id="path57" /><path
       fill="#d07f36"
       d="m 789.275,204.313 c 8.144,-0.275 26.469,12.312 32.462,17.882 2.619,2.433 4.971,5.076 7.183,7.88 3.401,5.697 6.163,10.543 6.779,17.285 l -0.346,0.761 c -0.32,-0.218 -0.742,-0.425 -0.962,-0.745 -3.04,-1.112 -5.926,-2.969 -8.696,-4.626 -4.827,0.376 -9.898,-1.03 -14.65,-0.058 -6.289,0.968 -12.495,2.005 -18.662,3.617 -5.766,1.507 -14.22,5.787 -19.862,5.628 -3.203,-1.177 -6.646,-1.402 -10.024,-1.555 -0.083,-0.254 -0.206,-0.497 -0.249,-0.761 -0.197,-1.221 0.144,-3.233 0.785,-4.28 -0.185,-2.345 -0.151,-5.212 -0.82,-7.45 -0.34,-1.138 -0.723,-1.617 -1.706,-2.232 l -1.398,0.581 c -3.405,0.453 -6.614,0.936 -10.051,0.555 1.593,-0.594 3.191,-1.062 4.828,-1.514 -0.453,-0.724 -0.256,-0.273 -0.409,-1.418 4.335,-3.751 11.898,-5.505 17.265,-7.441 1.044,-1.706 2.523,-2.903 4.002,-4.216 0.762,-3.748 1.453,-7.74 0.721,-11.546 l 0.399,-0.004 c 5.387,-0.65 8.786,-1.934 12.962,-5.346 z"
       id="path59" /><path
       fill="#f4ce91"
       d="m 789.275,204.313 c 8.144,-0.275 26.469,12.312 32.462,17.882 2.619,2.433 4.971,5.076 7.183,7.88 3.401,5.697 6.163,10.543 6.779,17.285 l -0.346,0.761 c -0.32,-0.218 -0.742,-0.425 -0.962,-0.745 -0.122,-0.313 -0.221,-0.636 -0.364,-0.94 -1.34,-2.831 -5.011,-6.098 -7.347,-8.169 -7.479,-6.632 -15.793,-11.39 -25.361,-14.247 -3.909,-1.167 -8.282,-2.078 -11.966,-3.804 -1.292,-0.605 -1.19,-0.797 -1.626,-2.105 0.51,-4.208 1.317,-8.562 1.099,-12.801 z"
       id="path60" /><path
       fill="#c7582d"
       d="m 781.652,236.07 c 7.008,-0.151 13.998,-0.4 20.97,0.505 5.083,0.66 15.881,4.695 20.023,4.198 1.209,0.58 2.044,1.058 3.05,1.977 -4.827,0.376 -9.898,-1.03 -14.65,-0.058 -6.289,0.968 -12.495,2.005 -18.662,3.617 -5.766,1.507 -14.22,5.787 -19.862,5.628 -3.203,-1.177 -6.646,-1.402 -10.024,-1.555 -0.083,-0.254 -0.206,-0.497 -0.249,-0.761 -0.197,-1.221 0.144,-3.233 0.785,-4.28 1.35,-0.343 3.123,-3.174 4.304,-4.297 4.916,-2.397 8.856,-4.079 14.315,-4.974 z"
       id="path61" /><path
       fill="#9a3d2d"
       d="m 775.864,210.656 c 5.387,-0.65 8.786,-1.934 12.962,-5.346 0.218,4.239 -0.589,8.593 -1.099,12.801 l -0.348,1.634 c -0.381,1.593 -0.369,3.202 -1.832,4.186 -3.321,2.233 -10.73,1.839 -14.805,2.491 1.044,-1.706 2.523,-2.903 4.002,-4.216 0.762,-3.748 1.453,-7.74 0.721,-11.546 z"
       id="path62" /><path
       fill="#c7582d"
       d="m 775.864,210.656 c 5.387,-0.65 8.786,-1.934 12.962,-5.346 0.218,4.239 -0.589,8.593 -1.099,12.801 l -0.348,1.634 c -4.584,-2.295 -8.684,-4.625 -11.515,-9.089 z"
       id="path63" /><path
       fill="#6d122e"
       d="m 764.086,238.757 c 0.131,-0.144 0.258,-0.293 0.394,-0.432 3.227,-3.289 11.057,-4.641 15.522,-4.728 l 1.65,2.473 c -5.459,0.895 -9.399,2.577 -14.315,4.974 -1.181,1.123 -2.954,3.954 -4.304,4.297 -0.185,-2.345 -0.151,-5.212 -0.82,-7.45 -0.34,-1.138 -0.723,-1.617 -1.706,-2.232 l -1.398,0.581 c -3.405,0.453 -6.614,0.936 -10.051,0.555 1.593,-0.594 3.191,-1.062 4.828,-1.514 2.741,-0.414 5.509,-0.674 8.263,-0.982 1.186,1.004 1.054,4.363 1.937,4.458 z"
       id="path64" /><path
       fill="#5f361e"
       d="m 787.216,233.424 c 11.788,0.432 24.691,2.203 35.429,7.349 -4.142,0.497 -14.94,-3.538 -20.023,-4.198 -6.972,-0.905 -13.962,-0.656 -20.97,-0.505 l -1.65,-2.473 z"
       id="path65" /><path
       fill="#9a3d2d"
       d="m 762.149,234.299 c 7.926,-1.281 17.085,-1.795 25.067,-0.875 l -7.214,0.173 c -4.465,0.087 -12.295,1.439 -15.522,4.728 -0.136,0.139 -0.263,0.288 -0.394,0.432 -0.883,-0.095 -0.751,-3.454 -1.937,-4.458 z"
       id="path66" /><path
       fill="#0c3355"
       d="m 772.521,251.937 c 5.642,0.159 14.096,-4.121 19.862,-5.628 6.167,-1.612 12.373,-2.649 18.662,-3.617 -1.688,4.853 -3.489,9.612 -5.534,14.326 -3.27,7.536 -9.113,16.702 -9.124,25.039 -8.213,-8.95 -16.273,-18.731 -25.161,-26.979 -0.603,-0.706 -0.664,-0.78 -0.835,-1.747 z"
       id="path67" /><path
       fill="#5f84a1"
       d="m 1022.83,0 h 1.17 v 332.769 l -0.62,0.216 c -0.71,-9.511 -0.04,-19.56 -0.02,-29.122 l 0.09,-58.306 -0.04,-179.4599 0.09,-44.0085 c 0.01,-5.8533 0.99,-16.21589 -0.43,-21.48458 z"
       id="path68" /><path
       fill="#5f84a1"
       d="m 736.634,449.114 c 2.855,3.318 6.339,8.367 10.306,10.363 6.13,4.221 19.331,18.712 25.297,20.041 7.355,9.025 15.743,18.099 24.167,26.137 1.71,1.429 3.294,3.126 4.911,4.667 -5.911,-18.234 -10.215,-36.84 -15.192,-55.328 9.114,15.067 22.59,28.326 36.447,39.107 0.616,5.643 1.148,11.257 1.349,16.934 0.089,9.167 -0.118,18.46 -1.104,27.579 -0.686,6.343 -1.939,12.658 -2.561,18.991 -0.477,2.056 -0.858,4.578 -1.79,6.461 -5.507,24.126 -16.817,49.232 -32.58,68.49 q -7.563,5.139 -15.279,10.045 -7.716,4.906 -15.578,9.575 -7.861,4.668 -15.862,9.095 -8,4.427 -16.132,8.608 -8.131,4.182 -16.386,8.113 -8.256,3.932 -16.627,7.61 -8.371,3.678 -16.85,7.1 -8.479,3.421 -17.059,6.583 c -6.276,2.635 -12.545,5.374 -18.967,7.637 -6.982,2.46 -52.99,16.957 -57.205,15.372 q 0.598,-0.36 1.188,-0.733 c 9.967,-6.424 56.039,-38.294 58.234,-48.547 1.222,-1.504 3.281,-2.868 4.754,-4.189 3.964,-3.555 7.993,-7.107 11.75,-10.881 7.618,-7.651 14.186,-16.139 21.441,-24.098 12.413,-15.137 23.458,-30.113 32.449,-47.57 4.012,-7.789 7.227,-15.964 11.11,-23.814 6.631,-13.407 12.319,-23.835 17.292,-38.113 0.402,-3.428 1.835,-7.034 2.475,-10.499 5.001,-10.768 3.442,-39.235 0.685,-51.005 -1.059,-4.52 -3.263,-8.764 -4.546,-13.237 z"
       id="path69" /><path
       fill="#dfccb4"
       d="m 736.634,449.114 c 2.855,3.318 6.339,8.367 10.306,10.363 6.13,4.221 19.331,18.712 25.297,20.041 7.355,9.025 15.743,18.099 24.167,26.137 1.71,1.429 3.294,3.126 4.911,4.667 -5.911,-18.234 -10.215,-36.84 -15.192,-55.328 9.114,15.067 22.59,28.326 36.447,39.107 0.616,5.643 1.148,11.257 1.349,16.934 0.089,9.167 -0.118,18.46 -1.104,27.579 -0.686,6.343 -1.939,12.658 -2.561,18.991 -0.477,2.056 -0.858,4.578 -1.79,6.461 -27.958,22.512 -56.622,38.206 -89.596,52.019 -4.568,1.913 -10.606,5.802 -15.423,6.127 15.182,-28.603 25.139,-60.314 32.017,-91.877 l -0.194,-0.037 c -2.213,2.938 -3.431,13.603 -4.964,17.847 -0.731,-0.537 -1.473,-1.051 -2.217,-1.569 -1.734,0.532 -5.324,1.852 -6.948,1.352 -1.612,-5.666 7.636,-16.136 7.123,-22.717 -0.023,-0.289 -0.07,-0.575 -0.105,-0.862 0.402,-3.428 1.835,-7.034 2.475,-10.499 5.001,-10.768 3.442,-39.235 0.685,-51.005 -1.059,-4.52 -3.263,-8.764 -4.546,-13.237 z"
       id="path70" /><path
       fill="#b5a199"
       d="m 736.634,449.114 c 2.855,3.318 6.339,8.367 10.306,10.363 6.13,4.221 19.331,18.712 25.297,20.041 7.355,9.025 15.743,18.099 24.167,26.137 1.71,1.429 3.294,3.126 4.911,4.667 -5.911,-18.234 -10.215,-36.84 -15.192,-55.328 9.114,15.067 22.59,28.326 36.447,39.107 0.616,5.643 1.148,11.257 1.349,16.934 -1.415,-4.229 -13.717,-12.563 -17.624,-15.634 0.54,7.322 1.727,14.723 3.08,21.939 -4.83,-3.785 -9.802,-7.259 -14.889,-10.688 q -3.858,-2.975 -7.758,-5.895 c -1.141,13.868 -2.533,27.976 -2.819,41.883 -9.395,-17.519 -19.261,-35.03 -29.462,-52.091 -2.888,11.09 -4.972,30.298 -8.985,39.786 l -0.194,-0.037 c -2.213,2.938 -3.431,13.603 -4.964,17.847 -0.731,-0.537 -1.473,-1.051 -2.217,-1.569 -1.734,0.532 -5.324,1.852 -6.948,1.352 -1.612,-5.666 7.636,-16.136 7.123,-22.717 -0.023,-0.289 -0.07,-0.575 -0.105,-0.862 0.402,-3.428 1.835,-7.034 2.475,-10.499 5.001,-10.768 3.442,-39.235 0.685,-51.005 -1.059,-4.52 -3.263,-8.764 -4.546,-13.237 z"
       id="path71" /><path
       fill="#2b5e78"
       d="m 712.473,622.636 c 0.71,3.311 -11.591,22.97 -14.475,27.431 q -9.295,14.255 -20.404,27.146 c -3.157,3.594 -21.025,20.744 -21.483,22.072 -6.276,2.635 -12.545,5.374 -18.967,7.637 -6.982,2.46 -52.99,16.957 -57.205,15.372 q 0.598,-0.36 1.188,-0.733 c 9.967,-6.424 56.039,-38.294 58.234,-48.547 1.222,-1.504 3.281,-2.868 4.754,-4.189 3.964,-3.555 7.993,-7.107 11.75,-10.881 7.618,-7.651 14.186,-16.139 21.441,-24.098 l 0.405,0.323 c 11.398,-4.43 23.33,-7.126 34.762,-11.533 z"
       id="path72" /><path
       fill="#42202f"
       d="m 559.994,604.077 c 4.189,3.539 8.572,6.854 13.301,9.641 q 0.963,0.568 1.94,1.112 0.977,0.545 1.967,1.065 0.99,0.52 1.992,1.016 1.003,0.495 2.017,0.966 1.014,0.471 2.04,0.917 1.025,0.446 2.061,0.867 1.037,0.42 2.083,0.815 1.046,0.396 2.101,0.765 1.056,0.369 2.12,0.712 1.065,0.344 2.137,0.661 1.072,0.317 2.152,0.607 1.08,0.291 2.167,0.555 1.086,0.264 2.179,0.502 1.093,0.237 2.191,0.447 1.099,0.211 2.202,0.394 1.103,0.184 2.21,0.34 1.107,0.156 2.218,0.285 1.111,0.13 2.225,0.231 1.113,0.102 2.229,0.177 1.116,0.074 2.233,0.121 1.118,0.047 2.236,0.067 1.118,0.019 2.236,0.011 1.118,-0.007 2.236,-0.043 1.118,-0.035 2.234,-0.098 1.117,-0.062 2.231,-0.152 1.115,-0.09 2.227,-0.208 1.112,-0.117 2.221,-0.262 1.109,-0.145 2.214,-0.316 1.105,-0.172 2.205,-0.371 1.101,-0.199 2.196,-0.425 1.095,-0.226 2.185,-0.478 1.089,-0.253 2.172,-0.532 c 14.002,-3.653 27.841,-10.795 39.325,-19.555 17.618,-13.437 37.809,-38.684 47.071,-58.731 2.615,-5.66 5,-11.609 7.09,-17.484 1.308,-3.677 2.499,-10.478 4.476,-13.452 0.093,-0.141 0.212,-0.263 0.318,-0.394 -0.64,3.465 -2.073,7.071 -2.475,10.499 -4.973,14.278 -10.661,24.706 -17.292,38.113 -3.883,7.85 -7.098,16.025 -11.11,23.814 -8.991,17.457 -20.036,32.433 -32.449,47.57 -7.255,7.959 -13.823,16.447 -21.441,24.098 -3.757,3.774 -7.786,7.326 -11.75,10.881 -1.473,1.321 -3.532,2.685 -4.754,4.189 -2.195,10.253 -48.267,42.123 -58.234,48.547 q -0.59,0.373 -1.188,0.733 c -5.596,2.925 -44.71,11.746 -51.932,12.567 -1.118,0.127 -2.057,-0.05 -3.142,-0.295 -7.565,2.06 -15.106,4.257 -22.712,6.16 -13.027,2.63 -25.735,5.798 -39.03,6.824 -8.943,0.69 -18.114,-0.147 -26.989,0.852 l -0.364,0.075 c -10.477,-0.124 -21.201,-0.531 -31.482,-2.683 1.318,-2.408 4.879,-5.013 6.917,-6.958 q 7.76,-8.521 14.39,-17.948 c 4.515,-6.499 8.721,-13.473 13.701,-19.611 9.415,-1.581 18.952,-2.629 28.028,-5.741 30.346,-10.403 55.64,-33.03 74.246,-58.576 4.162,-5.715 8.457,-11.616 11.595,-17.965 l 0.195,-0.009 c 2.747,-4.895 5.834,-9.231 6.634,-14.909 z"
       id="path73" /><path
       fill="#231831"
       d="m 559.994,604.077 c 4.189,3.539 8.572,6.854 13.301,9.641 q 0.963,0.568 1.94,1.112 0.977,0.545 1.967,1.065 0.99,0.52 1.992,1.016 1.003,0.495 2.017,0.966 1.014,0.471 2.04,0.917 1.025,0.446 2.061,0.867 1.037,0.42 2.083,0.815 1.046,0.396 2.101,0.765 1.056,0.369 2.12,0.712 1.065,0.344 2.137,0.661 1.072,0.317 2.152,0.607 1.08,0.291 2.167,0.555 1.086,0.264 2.179,0.502 1.093,0.237 2.191,0.447 1.099,0.211 2.202,0.394 1.103,0.184 2.21,0.34 1.107,0.156 2.218,0.285 1.111,0.13 2.225,0.231 1.113,0.102 2.229,0.177 1.116,0.074 2.233,0.121 1.118,0.047 2.236,0.067 1.118,0.019 2.236,0.011 1.118,-0.007 2.236,-0.043 1.118,-0.035 2.234,-0.098 1.117,-0.062 2.231,-0.152 1.115,-0.09 2.227,-0.208 1.112,-0.117 2.221,-0.262 1.109,-0.145 2.214,-0.316 1.105,-0.172 2.205,-0.371 1.101,-0.199 2.196,-0.425 1.095,-0.226 2.185,-0.478 1.089,-0.253 2.172,-0.532 c 14.002,-3.653 27.841,-10.795 39.325,-19.555 17.618,-13.437 37.809,-38.684 47.071,-58.731 2.615,-5.66 5,-11.609 7.09,-17.484 1.308,-3.677 2.499,-10.478 4.476,-13.452 0.093,-0.141 0.212,-0.263 0.318,-0.394 -0.64,3.465 -2.073,7.071 -2.475,10.499 -4.973,14.278 -10.661,24.706 -17.292,38.113 -3.883,7.85 -7.098,16.025 -11.11,23.814 -8.991,17.457 -20.036,32.433 -32.449,47.57 -7.255,7.959 -13.823,16.447 -21.441,24.098 -3.757,3.774 -7.786,7.326 -11.75,10.881 -1.473,1.321 -3.532,2.685 -4.754,4.189 -2.195,10.253 -48.267,42.123 -58.234,48.547 q -0.59,0.373 -1.188,0.733 c -5.596,2.925 -44.71,11.746 -51.932,12.567 -1.118,0.127 -2.057,-0.05 -3.142,-0.295 -7.565,2.06 -15.106,4.257 -22.712,6.16 -13.027,2.63 -25.735,5.798 -39.03,6.824 -8.943,0.69 -18.114,-0.147 -26.989,0.852 l -0.364,0.075 c -10.477,-0.124 -21.201,-0.531 -31.482,-2.683 1.318,-2.408 4.879,-5.013 6.917,-6.958 0.881,0.533 1.429,0.865 2.51,0.852 q 4.02,-0.048 8.037,-0.193 4.018,-0.145 8.031,-0.388 4.013,-0.242 8.019,-0.582 4.005,-0.34 8.002,-0.776 3.996,-0.437 7.981,-0.971 3.984,-0.533 7.955,-1.163 3.97,-0.63 7.924,-1.356 3.955,-0.726 7.89,-1.548 3.935,-0.821 7.849,-1.738 3.915,-0.917 7.806,-1.928 3.89,-1.011 7.756,-2.117 3.865,-1.105 7.702,-2.304 3.837,-1.199 7.644,-2.49 3.808,-1.292 7.582,-2.675 3.775,-1.384 7.515,-2.858 3.74,-1.475 7.443,-3.039 3.703,-1.565 7.367,-3.219 3.665,-1.654 7.288,-3.396 3.623,-1.743 7.202,-3.572 3.58,-1.83 7.114,-3.746 3.535,-1.916 7.021,-3.917 3.487,-2.001 6.924,-4.086 3.438,-2.085 6.823,-4.253 3.386,-2.167 6.718,-4.416 3.332,-2.25 6.609,-4.579 3.277,-2.329 6.496,-4.737 3.219,-2.408 6.379,-4.893 3.16,-2.486 6.259,-5.047 3.099,-2.561 6.134,-5.196 3.036,-2.636 6.007,-5.344 2.971,-2.709 5.875,-5.488 2.905,-2.78 5.741,-5.629 c -17.188,3.139 -36.187,3.852 -52.993,-1.683 -9.845,-3.148 -18.757,-7.215 -27.289,-13.081 -3.245,-3.181 -7.787,-5.107 -11.166,-8.294 2.747,-4.895 5.834,-9.231 6.634,-14.909 z"
       id="path74" /><path
       fill="#0c3355"
       d="m 524.865,734.566 c 25.559,-8.603 50.267,-19.125 73.239,-33.385 14.193,-8.81 27.479,-18.769 41.257,-28.167 -2.195,10.253 -48.267,42.123 -58.234,48.547 q -0.59,0.373 -1.188,0.733 c -5.596,2.925 -44.71,11.746 -51.932,12.567 -1.118,0.127 -2.057,-0.05 -3.142,-0.295 z"
       id="path75" /><path
       fill="#993032"
       d="m 564.526,627.28 c 8.532,5.866 17.444,9.933 27.289,13.081 -25.502,29.792 -63.704,54.301 -101.926,63.336 -10.632,2.513 -21.606,3.384 -32.472,4.313 42.537,-14.452 79.865,-45.618 107.109,-80.73 z"
       id="path76" /><path
       fill="#5f84a1"
       d="m 725.485,437.165 c 4.144,3.601 7.738,7.659 11.149,11.949 l 0.137,0.494 c 1.283,4.473 3.487,8.717 4.546,13.237 2.757,11.77 4.316,40.237 -0.685,51.005 -0.106,0.131 -0.225,0.253 -0.318,0.394 -1.977,2.974 -3.168,9.775 -4.476,13.452 -2.09,5.875 -4.475,11.824 -7.09,17.484 -9.262,20.047 -29.453,45.294 -47.071,58.731 -11.484,8.76 -25.323,15.902 -39.325,19.555 q -1.083,0.279 -2.172,0.532 -1.09,0.253 -2.185,0.478 -1.095,0.226 -2.196,0.425 -1.1,0.199 -2.205,0.371 -1.105,0.171 -2.214,0.316 -1.109,0.145 -2.221,0.262 -1.112,0.118 -2.227,0.208 -1.114,0.09 -2.231,0.152 -1.116,0.063 -2.234,0.098 -1.118,0.036 -2.236,0.043 -1.118,0.008 -2.236,-0.011 -1.118,-0.02 -2.236,-0.067 -1.117,-0.047 -2.233,-0.121 -1.116,-0.075 -2.229,-0.177 -1.114,-0.101 -2.225,-0.231 -1.111,-0.129 -2.218,-0.285 -1.107,-0.156 -2.21,-0.34 -1.103,-0.183 -2.202,-0.394 -1.098,-0.21 -2.191,-0.447 -1.093,-0.238 -2.179,-0.502 -1.087,-0.264 -2.167,-0.555 -1.08,-0.29 -2.152,-0.607 -1.072,-0.317 -2.137,-0.661 -1.064,-0.343 -2.12,-0.712 -1.055,-0.369 -2.101,-0.764 -1.046,-0.396 -2.083,-0.816 -1.036,-0.421 -2.061,-0.867 -1.026,-0.446 -2.04,-0.917 -1.014,-0.471 -2.017,-0.966 -1.002,-0.496 -1.992,-1.016 -0.99,-0.52 -1.967,-1.065 -0.977,-0.544 -1.94,-1.112 c -4.729,-2.787 -9.112,-6.102 -13.301,-9.641 q -1.342,-1.145 -2.642,-2.339 c -14.859,-13.687 -26.199,-35.959 -27.023,-56.254 0.265,-1.418 -0.03,-3.152 -0.13,-4.605 -0.651,-1.137 -0.578,-2.85 -0.674,-4.153 -0.541,-7.365 9.001,-15.507 13.62,-20.852 20.861,20.832 45.295,30.762 74.847,30.771 27.288,0.008 55.15,-6.147 79.051,-19.543 4.257,-2.386 7.887,-5.345 11.952,-7.93 11.167,-11.281 21.193,-35.088 23.42,-50.717 1.718,-12.064 0.517,-21.406 -6.93,-31.29 z"
       id="path77" /><path
       fill="#dfccb4"
       d="m 543.145,515.874 c 20.861,20.832 45.295,30.762 74.847,30.771 27.288,0.008 55.15,-6.147 79.051,-19.543 4.257,-2.386 7.887,-5.345 11.952,-7.93 -2.231,4.809 -6.032,9.366 -9.499,13.346 -16.738,19.215 -40.157,32.997 -63.953,41.722 -22.394,8.211 -45.785,10.745 -67.957,0.37 q -1.251,-0.597 -2.479,-1.24 -1.228,-0.643 -2.431,-1.331 -1.203,-0.688 -2.38,-1.421 -1.177,-0.732 -2.327,-1.507 -1.149,-0.775 -2.268,-1.592 -1.12,-0.818 -2.208,-1.676 -1.089,-0.858 -2.145,-1.756 -1.056,-0.898 -2.078,-1.834 -1.022,-0.936 -2.009,-1.91 -0.986,-0.974 -1.936,-1.983 -0.95,-1.01 -1.862,-2.053 -0.912,-1.044 -1.784,-2.121 -0.873,-1.077 -1.705,-2.186 -0.832,-1.109 -1.623,-2.247 -0.79,-1.139 -1.538,-2.306 -0.748,-1.167 -1.452,-2.361 c -0.918,-1.534 -3.609,-7.564 -4.605,-8.371 -0.29,1.379 -0.416,2.764 -0.557,4.164 -0.651,-1.137 -0.578,-2.85 -0.674,-4.153 -0.541,-7.365 9.001,-15.507 13.62,-20.852 z"
       id="path78" /><path
       fill="#f4ce91"
       d="m 641.062,242.198 c 15.3,-19.063 28.795,-38.073 51.891,-48.529 -0.467,1.86 -0.923,3.576 -1.731,5.319 -4.3,11.785 -13.401,21.789 -19.507,32.664 -4.664,8.307 -7.897,17.403 -12.049,25.967 q -7.828,18.33 -13.737,37.366 c 4.481,-4.91 8.402,-10.324 12.577,-15.495 3.324,-4.118 6.93,-8.03 10.156,-12.221 -8.221,20.068 -14.202,38.531 -19.108,59.673 -1.28,5.517 -2.824,11.114 -3.67,16.714 9.312,-12.892 18.276,-26.325 26.913,-39.678 -3.628,26.476 -6.684,58.577 -0.396,84.807 4.476,-10.114 6.676,-21.632 9.414,-32.329 0.017,21.339 -0.892,41.86 5.071,62.69 -7.131,-0.283 -14.346,-0.378 -21.458,0.28 -9.794,1.199 -19.616,2.704 -29.141,5.34 -20.849,6.61 -40.396,15.38 -59.909,25.221 q 4.707,-28.775 11.123,-57.218 6.417,-28.443 14.521,-56.452 c 5.428,-18.938 11.001,-38.483 19.394,-56.355 4.685,-12.939 12.328,-26.101 19.646,-37.764 z"
       id="path79" /><path
       fill="url(#gradient_6)"
       d="m 621.416,279.962 c 2.809,-1.578 6.374,-12.519 8.434,-15.846 l 0.484,0.512 -0.355,-0.685 0.457,-0.094 c 0.04,0.059 4.051,12.791 4.036,13.251 -0.843,1.628 -2.376,3.466 -2.073,5.365 -3.308,5.938 -6.826,11.832 -9.795,17.946 -4.097,8.436 -7.456,17.248 -10.927,25.953 -7.28,18.26 -15.326,37.806 -18.036,57.367 q 11.804,-17.389 24.334,-34.263 l -11.441,28.821 c -5.248,12.879 -10.698,25.632 -15.209,38.8 16.494,-16.273 31.991,-32.849 46.936,-50.558 -1.421,9.006 -8.08,48.737 -6.498,55.702 l 2.173,-1.826 0.212,0.92 c -0.726,0.87 -0.325,0.479 -1.201,1.178 0.591,0.886 0.781,1.345 1.736,1.898 l 0.792,-0.048 0.812,0.411 c -20.849,6.61 -40.396,15.38 -59.909,25.221 q 4.707,-28.775 11.123,-57.218 6.417,-28.443 14.521,-56.452 c 5.428,-18.938 11.001,-38.483 19.394,-56.355 z"
       id="path80"
       style="fill:url(#gradient_6-7)" /><path
       fill="#b5a199"
       d="m 641.062,242.198 c 15.3,-19.063 28.795,-38.073 51.891,-48.529 -0.467,1.86 -0.923,3.576 -1.731,5.319 -4.3,11.785 -13.401,21.789 -19.507,32.664 -4.664,8.307 -7.897,17.403 -12.049,25.967 -0.678,-6.042 9.268,-16.617 8.474,-25.342 -2.806,3.796 -6.05,7.14 -8.938,10.846 -4.104,5.265 -9.615,15.433 -14.567,19.302 -4.69,6.327 -7.725,13.724 -12.236,20.04 -0.303,-1.899 1.23,-3.737 2.073,-5.365 0.015,-0.46 -3.996,-13.192 -4.036,-13.251 l -0.457,0.094 0.355,0.685 -0.484,-0.512 c -2.06,3.327 -5.625,14.268 -8.434,15.846 4.685,-12.939 12.328,-26.101 19.646,-37.764 z"
       id="path81" /><path
       fill="#d0b08f"
       d="m 644.635,262.425 c 5.814,-12.159 17.339,-22.588 25.203,-33.434 5.886,-8.117 13.478,-24.694 21.384,-30.003 -4.3,11.785 -13.401,21.789 -19.507,32.664 -4.664,8.307 -7.897,17.403 -12.049,25.967 -0.678,-6.042 9.268,-16.617 8.474,-25.342 -2.806,3.796 -6.05,7.14 -8.938,10.846 -4.104,5.265 -9.615,15.433 -14.567,19.302 z"
       id="path82" /><path
       fill="#d0b08f"
       d="m 633.936,420.407 c 1.461,-3.527 8.591,-10.788 11.384,-14.326 q 8.924,-11.422 17.646,-22.998 c 0.418,12.21 1,24.205 2.462,36.343 -9.794,1.199 -19.616,2.704 -29.141,5.34 l -0.812,-0.411 -0.792,0.048 c -0.955,-0.553 -1.145,-1.012 -1.736,-1.898 0.876,-0.699 0.475,-0.308 1.201,-1.178 z"
       id="path83" /><path
       fill="#993032"
       d="m 530.329,545.484 c 0.824,20.295 12.164,42.567 27.023,56.254 q 1.3,1.194 2.642,2.339 c -0.8,5.678 -3.887,10.014 -6.634,14.909 l -0.195,0.009 c -3.138,6.349 -7.433,12.25 -11.595,17.965 -18.606,25.546 -43.9,48.173 -74.246,58.576 -9.076,3.112 -18.613,4.16 -28.028,5.741 4.537,-7.926 9.739,-15.548 14.668,-23.238 q 8.243,-11.354 14.803,-23.757 c 19.758,-33.909 38.142,-68.727 58.372,-102.345 z"
       id="path84" /><path
       fill="#42202f"
       d="m 530.329,545.484 c 0.824,20.295 12.164,42.567 27.023,56.254 q 1.3,1.194 2.642,2.339 c -0.8,5.678 -3.887,10.014 -6.634,14.909 l -0.195,0.009 c -15.795,-14.354 -25.691,-33.783 -26.461,-55.338 -0.137,-3.847 2.224,-8.17 0.435,-11.72 z"
       id="path85" /><path
       fill="#2b5e78"
       d="m 383.521,612.471 c 2.348,-0.268 9.055,0.964 10.838,2.428 0.441,0.362 0.702,0.685 1.103,1.121 -0.95,2.905 -2.905,12.237 -4.326,14.326 -0.319,1.754 -0.69,3.502 -0.856,5.278 -3.909,12.037 -1.661,45.727 2.023,58.449 0.745,-14.019 2.75,-27.498 8.372,-40.467 2.251,-5.193 5.746,-10.582 7.225,-16.007 l 0.639,-0.453 c 0.443,-4.381 7.672,-16.583 10.065,-21.034 0.219,2.169 -2.499,6.18 -3.463,8.222 2.243,0.807 7.297,3.286 9.471,2.601 1.79,-1.704 2.066,-4.042 3.631,-5.802 0.47,-0.397 0.246,-0.145 0.629,-0.9 0.887,-1.754 1.718,-3.216 2.992,-4.716 -0.932,3.447 -2.668,6.753 -4.151,10 6.185,2.101 12.201,6.285 17.956,9.425 2.287,-4.786 4.957,-13.476 8.793,-17.089 l 0.292,0.856 c 0.169,1.644 -0.849,3.168 -1.544,4.611 l 6.912,4.304 0.572,-0.199 c 0.395,-1.373 0.732,-3.429 1.586,-4.533 l 0.409,0.212 c -1.252,4.525 -2.627,9.053 -3.571,13.653 0.254,2.881 -0.578,5.343 -1.33,8.085 3.559,2.366 8.896,5.589 10.979,9.44 q -6.56,12.403 -14.803,23.757 c -4.929,7.69 -10.131,15.312 -14.668,23.238 -4.98,6.138 -9.186,13.112 -13.701,19.611 q -6.63,9.427 -14.39,17.948 c -2.038,1.945 -5.599,4.55 -6.917,6.958 l -0.12,-0.354 c -1.79,-4.86 -3.724,-9.648 -5.145,-14.636 -2.359,-8.277 -4.003,-16.77 -6.766,-24.934 -4.838,-14.293 -11.413,-27.941 -16.925,-41.981 -3.972,-16.625 -4.871,-19.622 1.93,-35.411 1.309,-5.501 3.903,-10.885 6.259,-16.007 z"
       id="path86" /><path
       fill="url(#gradient_7)"
       d="m 422.203,640.42 c 0.494,2.306 -0.339,4.69 -0.925,6.929 5.454,1.957 10.814,4.547 16.007,7.118 0.942,-2.097 1.56,-3.603 3.337,-5.12 -3.471,9.534 -8.494,18.616 -12.489,27.951 -3.82,8.923 -6.784,18.206 -10.529,27.167 -2.388,-16.746 -0.082,-41.295 2.766,-58.164 z"
       id="path87"
       style="fill:url(#gradient_7-1)" /><path
       fill="#dfccb4"
       d="m 428.243,621.133 c 0.47,-0.397 0.246,-0.145 0.629,-0.9 0.887,-1.754 1.718,-3.216 2.992,-4.716 -0.932,3.447 -2.668,6.753 -4.151,10 6.185,2.101 12.201,6.285 17.956,9.425 2.287,-4.786 4.957,-13.476 8.793,-17.089 l 0.292,0.856 c -4.212,8.022 -10.395,19.474 -12.966,27.898 l -1.166,2.74 c -1.777,1.517 -2.395,3.023 -3.337,5.12 -5.193,-2.571 -10.553,-5.161 -16.007,-7.118 0.586,-2.239 1.419,-4.623 0.925,-6.929 0.346,-6.014 4.021,-13.567 6.04,-19.287 z"
       id="path88" /><path
       fill="#a0abaf"
       d="m 456.075,648.838 c 1.463,-1.892 1.808,-9.158 3.043,-12.081 0.254,2.881 -0.578,5.343 -1.33,8.085 3.559,2.366 8.896,5.589 10.979,9.44 q -6.56,12.403 -14.803,23.757 c 0.567,-9.727 0.898,-19.53 2.111,-29.201 z"
       id="path89" /><path
       fill="#8e8f90"
       d="m 454.754,618.709 c 0.169,1.644 -0.849,3.168 -1.544,4.611 l 6.912,4.304 0.572,-0.199 c 0.395,-1.373 0.732,-3.429 1.586,-4.533 l 0.409,0.212 c -1.252,4.525 -2.627,9.053 -3.571,13.653 -1.235,2.923 -1.58,10.189 -3.043,12.081 l -0.479,-0.335 c 0.069,-3.005 1.34,-5.671 1.508,-8.633 -2.765,-1.822 -6.374,-2.342 -9.437,-3.619 l -0.406,-0.173 c -1.434,3.503 -2.749,7.836 -5.473,10.529 2.571,-8.424 8.754,-19.876 12.966,-27.898 z"
       id="path90" /><path
       fill="#8e8f90"
       d="m 418.604,616.112 c 0.219,2.169 -2.499,6.18 -3.463,8.222 2.243,0.807 7.297,3.286 9.471,2.601 1.79,-1.704 2.066,-4.042 3.631,-5.802 -2.019,5.72 -5.694,13.273 -6.04,19.287 l -1.833,5.881 c -0.163,-3.507 1.92,-7.783 1.268,-10.833 -2.143,-2.217 -6.605,-3.599 -9.424,-4.936 -0.837,2.436 -1.596,4.965 -3.675,6.614 0.443,-4.381 7.672,-16.583 10.065,-21.034 z"
       id="path91" /><path
       fill="#8e8f90"
       d="m 383.521,612.471 c 2.348,-0.268 9.055,0.964 10.838,2.428 0.441,0.362 0.702,0.685 1.103,1.121 -0.95,2.905 -2.905,12.237 -4.326,14.326 l -0.373,-0.342 c -0.24,-1.545 0.711,-4.982 1.284,-6.5 0.285,-0.754 0.56,-1.482 0.806,-2.252 -2.518,-2.051 -7.263,-2.724 -10.404,-3.413 -2.688,2.228 -2.054,7.551 -4.539,10.043 -0.207,0.208 -0.432,0.397 -0.648,0.596 1.309,-5.501 3.903,-10.885 6.259,-16.007 z"
       id="path92" /><path
       fill="#231831"
       d="m 283.495,622.085 c 2.118,-3.543 6.232,-6.971 9.245,-9.801 11.763,-11.052 25.346,-18.872 40.12,-25.158 5.151,-2.192 10.374,-3.825 15.391,-6.362 2.662,-1.346 5.115,-3.156 8.144,-2.162 -9.163,10.138 -16.001,20.524 -22.389,32.551 -0.884,1.664 -3.157,5.02 -3.087,6.798 0.759,-0.508 1.443,-0.975 2.083,-1.629 7.737,-3.813 14.863,-8.302 23.161,-10.883 -1.163,6.316 -1.858,12.369 -1.625,18.801 0.941,26.003 13.582,63.382 23.997,87.408 -7.818,-3.255 -15.248,-7.42 -22.977,-10.899 -4.893,-3.174 -10.946,-5.513 -16.197,-8.144 -9.441,-4.731 -18.79,-9.667 -28.291,-14.274 -7.358,-3.568 -15.026,-6.816 -22.175,-10.775 -2.906,-15.194 -3.88,-30.118 -5.4,-45.471 z"
       id="path93" /><path
       fill="#d7192e"
       d="m 759.109,236.24 1.398,-0.581 c 0.983,0.615 1.366,1.094 1.706,2.232 0.669,2.238 0.635,5.105 0.82,7.45 -0.641,1.047 -0.982,3.059 -0.785,4.28 0.043,0.264 0.166,0.507 0.249,0.761 3.378,0.153 6.821,0.378 10.024,1.555 l -2.13,1.394 c 0.171,0.967 0.232,1.041 0.835,1.747 8.888,8.248 16.948,18.029 25.161,26.979 6.06,7.66 12.367,16.104 11.354,26.508 -1.273,13.088 -18.49,30.712 -28.603,38.626 -1.485,1.162 -3.053,2.147 -4.683,3.091 -2.321,1.13 -5.067,2.69 -6.813,4.633 -1.411,0.703 -2.978,1.104 -4.537,1.33 -7.529,1.092 -16.542,-2.173 -22.494,-6.74 -11.282,-8.657 -13.037,-21.458 -14.769,-34.676 q -1.352,-10.766 -1.919,-21.601 l 0.977,-4.862 c 6.752,-5.059 12.777,-10.706 18.095,-17.267 1.49,0.416 2.993,0.916 4.525,1.148 4.406,-7.053 8.504,-13.565 9.802,-21.881 0.143,-3.568 0.437,-7.213 0.137,-10.773 1.179,-1.222 1.228,-1.75 1.65,-3.353 z"
       id="path94" /><path
       fill="#fa4a41"
       d="m 762.497,250.382 c 3.378,0.153 6.821,0.378 10.024,1.555 l -2.13,1.394 c 0.171,0.967 0.232,1.041 0.835,1.747 0.737,3.071 2.501,5.9 4.085,8.612 1.293,6.858 -2.508,35.901 -6.179,41.474 0.92,4.583 3.043,8.679 4.241,13.142 0.811,4.149 1.217,9.326 -0.747,13.203 -1.029,2.031 -2.874,3.734 -5.102,4.328 -1.859,0.496 -3.806,0.156 -5.451,-0.816 -5.993,-3.541 -9.444,-13.085 -10.984,-19.519 -3.459,-14.455 0.04,-47.719 7.706,-60.094 -0.724,-1.548 -0.879,-2.956 -1.068,-4.643 z"
       id="path95" /><path
       fill="#6d122e"
       d="m 762.497,250.382 c 3.378,0.153 6.821,0.378 10.024,1.555 l -2.13,1.394 c 0.171,0.967 0.232,1.041 0.835,1.747 0.737,3.071 2.501,5.9 4.085,8.612 1.293,6.858 -2.508,35.901 -6.179,41.474 q -3.084,-11.18 -4.687,-22.667 c -1.35,-9.605 -1.65,-18.084 -5.65,-27.089 -0.724,-1.548 -0.879,-2.956 -1.068,-4.643 z"
       id="path96" /><path
       fill="#993032"
       d="m 775.311,263.69 c 3.891,1.509 5.88,6.146 7.442,9.751 1.515,3.498 2.762,7.111 4.318,10.592 2.311,5.165 10.795,19.385 8.74,24.456 -1.508,3.72 -6.841,6.033 -10.42,7.297 -3.889,1.375 -7.884,2.374 -12.018,2.52 -1.198,-4.463 -3.321,-8.559 -4.241,-13.142 3.671,-5.573 7.472,-34.616 6.179,-41.474 z"
       id="path97" /><path
       fill="#993032"
       d="m 742.995,271.099 c 1.49,0.416 2.993,0.916 4.525,1.148 l -2.733,5.335 c -2.726,6.468 -13.672,34.537 -18.945,37.247 q -1.352,-10.766 -1.919,-21.601 l 0.977,-4.862 c 6.752,-5.059 12.777,-10.706 18.095,-17.267 z"
       id="path98" /><path
       fill="#fa4a41"
       d="m 719.844,189.059 c 14.263,-0.824 27.918,4.487 40.409,10.893 3.882,1.991 8.424,4.3 11.643,7.291 0.486,0.451 0.934,0.935 1.375,1.43 l 2.194,1.987 c 0.732,3.806 0.041,7.798 -0.721,11.546 -1.479,1.313 -2.958,2.51 -4.002,4.216 -5.367,1.936 -12.93,3.69 -17.265,7.441 0.153,1.145 -0.044,0.694 0.409,1.418 -1.637,0.452 -3.235,0.92 -4.828,1.514 3.437,0.381 6.646,-0.102 10.051,-0.555 -0.422,1.603 -0.471,2.131 -1.65,3.353 0.3,3.56 0.006,7.205 -0.137,10.773 -1.298,8.316 -5.396,14.828 -9.802,21.881 -1.532,-0.232 -3.035,-0.732 -4.525,-1.148 -5.318,6.561 -11.343,12.208 -18.095,17.267 -5.183,1.234 -9.794,0.747 -14.406,-2.011 -9.743,-5.826 -15.398,-17.011 -17.933,-27.718 0.441,-2.691 -1.035,-4.701 -0.806,-7.351 l 0.609,1.133 -0.038,-0.614 c 0.177,0.184 0.357,0.366 0.531,0.553 0.168,0.181 0.849,0.975 1.058,1.113 0.26,0.171 0.569,0.252 0.854,0.378 -0.034,-1.43 -0.748,-3.384 -1.052,-4.815 -2.309,-6.402 -2.625,-15.202 -4.875,-20.189 0.939,-3.425 2.008,-6.133 4.211,-8.98 6.91,-8.93 18.045,-16.207 29.331,-17.71 8.249,-1.551 17.886,-0.489 25.273,3.581 -0.182,-1.576 -1.074,-2.447 -1.989,-3.697 -7.153,-7.843 -15.748,-10.665 -25.824,-12.98 z"
       id="path99" /><path
       fill="#6d122e"
       d="m 757.459,239.593 c 0.3,3.56 0.006,7.205 -0.137,10.773 -1.298,8.316 -5.396,14.828 -9.802,21.881 -1.532,-0.232 -3.035,-0.732 -4.525,-1.148 -5.318,6.561 -11.343,12.208 -18.095,17.267 -5.183,1.234 -9.794,0.747 -14.406,-2.011 -9.743,-5.826 -15.398,-17.011 -17.933,-27.718 0.441,-2.691 -1.035,-4.701 -0.806,-7.351 l 0.609,1.133 -0.038,-0.614 c 0.177,0.184 0.357,0.366 0.531,0.553 0.168,0.181 0.849,0.975 1.058,1.113 0.26,0.171 0.569,0.252 0.854,0.378 -0.034,-1.43 -0.748,-3.384 -1.052,-4.815 5.228,7.482 10.354,13.432 19.988,14.954 9.661,1.526 24.701,-3.098 30.895,-10.932 2.228,-2.817 3.919,-7.807 6.657,-9.861 l 1.991,0.622 c 1.246,-1.783 2.454,-2.946 4.211,-4.224 z"
       id="path100" /><path
       fill="#d7192e"
       d="m 693.717,249.034 c 5.228,7.482 10.354,13.432 19.988,14.954 9.661,1.526 24.701,-3.098 30.895,-10.932 2.228,-2.817 3.919,-7.807 6.657,-9.861 l 1.991,0.622 c -5.997,11.667 -12.65,26.609 -26.315,30.805 -5.54,1.701 -11.369,1.3 -16.428,-1.6 -7.698,-4.413 -11.651,-11.669 -15.736,-19.173 -0.034,-1.43 -0.748,-3.384 -1.052,-4.815 z"
       id="path101" /><path
       fill="#faeed6"
       d="m 727.392,210.117 c 3.712,-2.023 8.531,-1.334 12.567,-0.815 3.075,2.807 6.707,4.499 9.704,7.579 l -1.614,1.385 -0.777,2.006 c -3.582,3.193 -7.327,6.323 -12.452,6 -1.649,-0.104 -3.33,-0.501 -4.92,-0.944 -4.056,-2.096 -6.491,-4.631 -9.188,-8.195 0.986,-0.035 1.73,-0.246 2.662,-0.562 l 3.763,-0.941 0.784,-2.145 c 0.408,-1.322 -0.112,-2.086 -0.529,-3.368 z"
       id="path102" /><path
       fill="#231831"
       d="m 727.392,210.117 c 3.712,-2.023 8.531,-1.334 12.567,-0.815 3.075,2.807 6.707,4.499 9.704,7.579 l -1.614,1.385 c -1.95,-2.083 -3.88,-3.928 -6.122,-5.699 0.275,1.998 0.742,3.941 0.127,5.906 -0.109,-0.531 -0.314,-0.915 -0.551,-1.397 l -1.399,0.482 c -2.894,2.143 -8.072,0.287 -11.561,0.65 l -1.406,-2.578 0.784,-2.145 c 0.408,-1.322 -0.112,-2.086 -0.529,-3.368 z"
       id="path103" /><path
       fill="#09193d"
       d="m 727.137,215.63 0.784,-2.145 c 0.432,1.207 0.567,1.934 1.688,2.666 3.364,0.67 6.62,-0.32 9.992,0.145 l 0.503,1.262 c -2.894,2.143 -8.072,0.287 -11.561,0.65 z"
       id="path104" /><path
       fill="#010000"
       d="m 740.104,217.558 1.399,-0.482 c 0.237,0.482 0.442,0.866 0.551,1.397 -0.146,0.408 -0.229,0.721 -0.51,1.082 -1.192,1.53 -3.553,2.046 -5.393,1.996 -3.05,-0.083 -5.559,-1.123 -7.608,-3.343 3.489,-0.363 8.667,1.493 11.561,-0.65 z"
       id="path105" /><path
       fill="#f5242f"
       d="m 745.668,202.039 c 0.582,-0.482 0.884,-1.052 1.699,-0.917 3.243,0.537 6.864,4.894 8.51,7.511 1.867,2.969 3.839,9.041 2.488,12.489 -0.548,1.398 -0.965,1.548 -2.21,2.239 -2.832,0.092 -6.484,-1.577 -8.883,-3.089 l 0.777,-2.006 1.614,-1.385 c -2.997,-3.08 -6.629,-4.772 -9.704,-7.579 -0.368,-0.352 -0.409,-0.41 -0.889,-0.752 -3.875,-2.764 -7.04,-2.722 -11.539,-1.808 l 0.239,-0.787 c 1.638,-0.762 2.849,-1.472 3.935,-2.95 -1.733,-1.178 -6.021,-0.18 -8.344,-0.641 -0.326,-0.065 -0.651,-0.139 -0.977,-0.209 8.249,-1.551 17.886,-0.489 25.273,3.581 -0.182,-1.576 -1.074,-2.447 -1.989,-3.697 z"
       id="path106" /><path
       fill="#d7192e"
       d="m 773.271,208.673 2.194,1.987 c 0.732,3.806 0.041,7.798 -0.721,11.546 -1.479,1.313 -2.958,2.51 -4.002,4.216 -5.367,1.936 -12.93,3.69 -17.265,7.441 0.153,1.145 -0.044,0.694 0.409,1.418 -1.637,0.452 -3.235,0.92 -4.828,1.514 -0.172,-0.159 -0.38,-0.286 -0.518,-0.476 -0.582,-0.802 -0.774,-1.798 -0.317,-2.709 2.135,-4.26 15.639,-9.808 19.961,-14.586 2.77,-3.063 4.005,-6.444 5.087,-10.351 z"
       id="path107" /><path
       fill="#42202f"
       d="m 727.531,206.742 c 4.499,-0.914 7.664,-0.956 11.539,1.808 0.48,0.342 0.521,0.4 0.889,0.752 -4.036,-0.519 -8.855,-1.208 -12.567,0.815 0.417,1.282 0.937,2.046 0.529,3.368 l -0.784,2.145 -3.763,0.941 c -0.932,0.316 -1.676,0.527 -2.662,0.562 -3.341,-0.727 -6.991,0.863 -10.056,-0.191 5.741,-3.781 10.282,-7.855 16.875,-10.2 z"
       id="path108" /><path
       fill="#f9f6f5"
       d="m 723.374,216.571 c -0.705,-1.191 -0.954,-1.447 -0.925,-2.807 1.141,-2.131 2.758,-2.822 4.943,-3.647 0.417,1.282 0.937,2.046 0.529,3.368 l -0.784,2.145 z"
       id="path109" /><path
       fill="#993032"
       d="m 729.9,225.328 c -8.178,3.038 -12.711,-6.727 -17.678,-7.36 -0.868,-0.111 -1.33,-0.174 -2.13,-0.487 l 0.564,-0.539 c 3.065,1.054 6.715,-0.536 10.056,0.191 2.697,3.564 5.132,6.099 9.188,8.195 z"
       id="path110" /><path
       fill="url(#gradient_8)"
       d="m 504.093,539.684 c 3.458,-5.879 9.53,-11.626 14.07,-16.82 23.184,-26.523 50.4,-53.572 82.971,-68.261 -11.26,10.197 -21.513,21.722 -32.014,32.695 -8.84,9.237 -18.671,18.031 -25.975,28.576 -4.619,5.345 -14.161,13.487 -13.62,20.852 0.096,1.303 0.023,3.016 0.674,4.153 0.1,1.453 0.395,3.187 0.13,4.605 l -3.19,6.453 c -20.23,33.618 -38.614,68.436 -58.372,102.345 -2.083,-3.851 -7.42,-7.074 -10.979,-9.44 0.752,-2.742 1.584,-5.204 1.33,-8.085 0.944,-4.6 2.319,-9.128 3.571,-13.653 l -0.409,-0.212 c -0.854,1.104 -1.191,3.16 -1.586,4.533 l -0.572,0.199 -6.912,-4.304 c 0.695,-1.443 1.713,-2.967 1.544,-4.611 l -0.292,-0.856 c 8.622,-18.426 17.487,-36.891 29.38,-53.477 6.195,-8.639 13.32,-16.641 20.251,-24.692 z"
       id="path111"
       style="fill:url(#gradient_8-1)" /><path
       fill="#d0b08f"
       d="m 504.093,539.684 c -0.795,3.784 -8.084,13.556 -10.369,17.621 -6.793,12.084 -13.728,24.506 -19.65,37.043 q -2.851,5.987 -5.214,12.183 c -1.582,4.171 -3.899,13.414 -6.171,16.573 l -0.409,-0.212 c -0.854,1.104 -1.191,3.16 -1.586,4.533 l -0.572,0.199 -6.912,-4.304 c 0.695,-1.443 1.713,-2.967 1.544,-4.611 l -0.292,-0.856 c 8.622,-18.426 17.487,-36.891 29.38,-53.477 6.195,-8.639 13.32,-16.641 20.251,-24.692 z"
       id="path112" /><path
       fill="#5f84a1"
       d="m 364.996,590.964 c 1.217,0.808 3.081,1.555 3.397,3.12 1.024,5.075 -5.477,9.544 -3.976,15.05 -6.52,16.79 -4.627,29.039 0.06,45.732 1.326,4.723 2.81,8.97 3.557,13.868 l 0.949,-1.127 c -0.082,-0.168 -0.202,-0.322 -0.247,-0.504 -0.053,-0.216 -0.015,-0.445 -0.04,-0.666 -0.286,-2.487 -1.73,-4.761 -2.423,-7.156 -1.615,-5.579 -2.801,-11.277 -4.426,-16.86 q 4.829,-0.229 9.653,-0.56 c -0.13,7.079 0.79,15.13 3.236,21.808 l 0.596,0.22 c 5.512,14.04 12.087,27.688 16.925,41.981 2.763,8.164 4.407,16.657 6.766,24.934 1.421,4.988 3.355,9.776 5.145,14.636 -0.14,-0.059 -0.281,-0.114 -0.42,-0.176 -0.206,-0.091 -0.409,-0.191 -0.615,-0.281 -7.252,-3.176 -20.698,-25.664 -24.598,-33.335 -10.415,-24.026 -23.056,-61.405 -23.997,-87.408 -0.233,-6.432 0.462,-12.485 1.625,-18.801 -8.298,2.581 -15.424,7.07 -23.161,10.883 2.525,-5.718 9.95,-9.279 15.061,-12.455 4.667,-0.526 13.39,-9.616 16.933,-12.903 z"
       id="path113" /><path
       fill="#b5a199"
       d="m 767.54,376.431 c -7.953,-0.726 -15.71,-1.514 -23.142,-4.637 -9.877,-4.151 -17.392,-11.497 -21.408,-21.47 -6.786,-16.852 -6.275,-40.481 0.933,-57.096 q 0.567,10.835 1.919,21.601 c 1.732,13.218 3.487,26.019 14.769,34.676 5.952,4.567 14.965,7.832 22.494,6.74 1.559,-0.226 3.126,-0.627 4.537,-1.33 0.523,7.064 0.015,14.432 -0.102,21.516 z"
       id="path114" /><path
       fill="url(#gradient_9)"
       d="m 414.799,578.904 c -0.017,0.62 0.016,0.902 -0.235,1.549 -1.292,3.342 -4.209,6.933 -6.045,10.085 -3.224,5.534 -6.159,11.307 -8.877,17.104 5.139,3.345 11.711,6.73 15.931,11.102 0.051,0.053 0.105,0.103 0.157,0.155 3.576,-6.813 15.276,-31.797 20.527,-35.534 -3.798,7.109 -16.546,25.981 -17.653,32.747 -2.393,4.451 -9.622,16.653 -10.065,21.034 l -0.639,0.453 c -1.479,5.425 -4.974,10.814 -7.225,16.007 -5.622,12.969 -7.627,26.448 -8.372,40.467 -3.684,-12.722 -5.932,-46.412 -2.023,-58.449 0.166,-1.776 0.537,-3.524 0.856,-5.278 1.421,-2.089 3.376,-11.421 4.326,-14.326 4.33,-12.484 11.311,-26.615 19.337,-37.116 z"
       id="path115"
       style="fill:url(#gradient_9-5)" /><path
       fill="#d0b08f"
       d="m 436.257,583.365 c 15.906,-24.558 27.57,-40.917 50.004,-60.582 l 0.451,0.059 c -6.034,7.04 -14.128,17.948 -18.803,25.879 -4.148,7.035 -7.787,14.426 -11.778,21.561 -4.857,8.684 -10.068,17.188 -14.786,25.946 -2.421,4.495 -6.935,16.455 -9.481,19.289 -1.274,1.5 -2.105,2.962 -2.992,4.716 -0.383,0.755 -0.159,0.503 -0.629,0.9 -1.565,1.76 -1.841,4.098 -3.631,5.802 -2.174,0.685 -7.228,-1.794 -9.471,-2.601 0.964,-2.042 3.682,-6.053 3.463,-8.222 1.107,-6.766 13.855,-25.638 17.653,-32.747 z"
       id="path116" /><path
       fill="url(#gradient_10)"
       d="m 364.417,609.134 c 4.642,-12.467 9.177,-25.113 18.939,-34.677 -1.485,3.426 -4.119,6.412 -6.229,9.496 -3.119,4.56 -5.618,9.107 -7.829,14.163 5.616,2.279 10.673,5.685 16.137,8.228 2.8,-5.624 12.803,-23.507 17.894,-25.814 -6.249,8.119 -16.849,22.381 -19.808,31.941 -2.356,5.122 -4.95,10.506 -6.259,16.007 -6.801,15.789 -5.902,18.786 -1.93,35.411 l -0.596,-0.22 C 372.29,656.991 371.37,648.94 371.5,641.861 q -4.824,0.331 -9.653,0.56 c 1.625,5.583 2.811,11.281 4.426,16.86 0.693,2.395 2.137,4.669 2.423,7.156 0.025,0.221 -0.013,0.45 0.04,0.666 0.045,0.182 0.165,0.336 0.247,0.504 l -0.949,1.127 c -0.747,-4.898 -2.231,-9.145 -3.557,-13.868 -4.687,-16.693 -6.58,-28.942 -0.06,-45.732 z"
       id="path117"
       style="fill:url(#gradient_10-2)" /><path
       fill="url(#gradient_11)"
       d="m 403.329,580.53 c 12.128,-13.236 25.208,-26.493 39.562,-37.322 -0.845,2.728 -6.352,7.545 -8.4,9.951 -6.796,7.985 -13.805,16.374 -19.393,25.262 l -0.299,0.483 c -8.026,10.501 -15.007,24.632 -19.337,37.116 -0.401,-0.436 -0.662,-0.759 -1.103,-1.121 -1.783,-1.464 -8.49,-2.696 -10.838,-2.428 2.959,-9.56 13.559,-23.822 19.808,-31.941 z"
       id="path119"
       style="fill:url(#gradient_11-7)" /><path
       fill="#d0b08f"
       d="m 745.668,422.241 c 7.303,19.511 15.016,39.842 26.569,57.277 -5.966,-1.329 -19.167,-15.82 -25.297,-20.041 3.187,-7.6 -0.392,-28.406 -1.272,-37.236 z"
       id="path120" /><path
       fill="#a0abaf"
       d="m 348.063,603.867 c 5.177,-4.244 10.503,-8.338 15.341,-12.973 6.398,-6.13 25.014,-27.716 31.356,-30.37 -0.088,1.096 -9.843,11.122 -11.104,13.375 -0.103,0.185 -0.2,0.372 -0.3,0.558 -9.762,9.564 -14.297,22.21 -18.939,34.677 -1.501,-5.506 5,-9.975 3.976,-15.05 -0.316,-1.565 -2.18,-2.312 -3.397,-3.12 -3.543,3.287 -12.266,12.377 -16.933,12.903 z"
       id="path121" /><path
       fill="url(#gradient_12)"
       d="m 688.842,228.845 c 2.25,4.987 2.566,13.787 4.875,20.189 0.304,1.431 1.018,3.385 1.052,4.815 -0.285,-0.126 -0.594,-0.207 -0.854,-0.378 -0.209,-0.138 -0.89,-0.932 -1.058,-1.113 -0.174,-0.187 -0.354,-0.369 -0.531,-0.553 l 0.038,0.614 -0.609,-1.133 c -0.229,2.65 1.247,4.66 0.806,7.351 q -0.665,-1.774 -1.224,-3.584 -0.56,-1.809 -1.013,-3.649 -0.453,-1.839 -0.797,-3.702 -0.344,-1.862 -0.579,-3.742 -0.234,-1.88 -0.359,-3.77 -0.124,-1.89 -0.137,-3.784 -0.014,-1.895 0.084,-3.786 0.098,-1.892 0.306,-3.775 z"
       id="path122"
       style="fill:url(#gradient_12-6)" /><path
       fill="#f4ce91"
       d="m 704.713,390.886 c 2.044,4.127 4.077,16.04 5.861,21.468 1.935,5.885 5.072,11.347 6.971,17.273 l -0.74,-0.348 c -4.996,-2.9 -10.09,-5.059 -15.416,-7.28 1.141,-10.294 1.566,-20.932 3.324,-31.113 z"
       id="path123" /></g></svg>
