<?xml version="1.0" encoding="UTF-8" standalone="no"?>
<svg
   width="825"
   height="1125"
   version="1.1"
   id="svg49"
   sodipodi:docname="card-conflict-d6.svg"
   inkscape:version="1.4 (86a8ad7, 2024-10-11)"
   viewBox="0 0 825 1125"
   xml:space="preserve"
   inkscape:export-filename="card-conflict-d6.png"
   inkscape:export-xdpi="96"
   inkscape:export-ydpi="96"
   xmlns:inkscape="http://www.inkscape.org/namespaces/inkscape"
   xmlns:sodipodi="http://sodipodi.sourceforge.net/DTD/sodipodi-0.dtd"
   xmlns="http://www.w3.org/2000/svg"
   xmlns:svg="http://www.w3.org/2000/svg"><sodipodi:namedview
     id="namedview49"
     pagecolor="#ffffff"
     bordercolor="#000000"
     borderopacity="0.25"
     inkscape:showpageshadow="2"
     inkscape:pageopacity="0.0"
     inkscape:pagecheckerboard="0"
     inkscape:deskcolor="#d1d1d1"
     inkscape:zoom="0.92441827"
     inkscape:cx="289.37117"
     inkscape:cy="597.13229"
     inkscape:window-width="2313"
     inkscape:window-height="1452"
     inkscape:window-x="9"
     inkscape:window-y="0"
     inkscape:window-maximized="0"
     inkscape:current-layer="svg49"
     inkscape:document-units="px"
     showgrid="false" /><defs
     id="defs17"><linearGradient
       id="gradient_0"
       gradientUnits="userSpaceOnUse"
       x1="787.83301"
       y1="417.13614"
       x2="896.2948"
       y2="336.46844"><stop
         offset="0"
         stop-color="#167F8A"
         id="stop16" /><stop
         offset="1"
         stop-color="#159BA9"
         id="stop17" /></linearGradient><linearGradient
       id="gradient_0-2"
       gradientUnits="userSpaceOnUse"
       x1="439.11206"
       y1="464.522"
       x2="373.02579"
       y2="386.0676"><stop
         offset="0"
         stop-color="#FEA902"
         id="stop24-7" /><stop
         offset="1"
         stop-color="#FEC100"
         id="stop25-8" /></linearGradient><linearGradient
       id="gradient_0-8"
       gradientUnits="userSpaceOnUse"
       x1="505.63708"
       y1="183.79691"
       x2="171.41376"
       y2="155.43059"><stop
         offset="0"
         stop-color="#EEA800"
         id="stop3" /><stop
         offset="1"
         stop-color="#FEF49E"
         id="stop4" /></linearGradient><linearGradient
       id="gradient_1-2"
       gradientUnits="userSpaceOnUse"
       x1="297.28619"
       y1="286.58209"
       x2="163.5318"
       y2="635.06488"><stop
         offset="0"
         stop-color="#BE8500"
         id="stop5" /><stop
         offset="1"
         stop-color="#FFEA5F"
         id="stop6" /></linearGradient><linearGradient
       id="gradient_2"
       gradientUnits="userSpaceOnUse"
       x1="690.96869"
       y1="886.34503"
       x2="530.02826"
       y2="327.17783"><stop
         offset="0"
         stop-color="#936602"
         id="stop7" /><stop
         offset="1"
         stop-color="#E6AB0B"
         id="stop8" /></linearGradient><linearGradient
       id="gradient_0-6"
       gradientUnits="userSpaceOnUse"
       x1="756.237"
       y1="543.65344"
       x2="570.92169"
       y2="327.42014"><stop
         offset="0"
         stop-color="#9650B5"
         id="stop1" /><stop
         offset="1"
         stop-color="#B262D0"
         id="stop2" /></linearGradient><linearGradient
       id="gradient_1-21"
       gradientUnits="userSpaceOnUse"
       x1="431.04391"
       y1="954.88794"
       x2="538.14734"
       y2="89.44886"><stop
         offset="0"
         stop-color="#002757"
         id="stop3-8"
         style="stop-color:#000000;stop-opacity:1;" /><stop
         offset="1"
         stop-color="#4B448F"
         id="stop4-0" /></linearGradient><linearGradient
       id="linearGradient1"
       gradientUnits="userSpaceOnUse"
       x1="567.4491"
       y1="699.04437"
       x2="868.41522"
       y2="779.63495"><stop
         offset="0"
         stop-color="#176366"
         id="stop24-3"
         style="stop-color:#000000;stop-opacity:1;" /><stop
         offset="1"
         stop-color="#157C89"
         id="stop25-1" /></linearGradient><linearGradient
       id="gradient_0-27"
       gradientUnits="userSpaceOnUse"
       x1="505.18936"
       y1="1389.7626"
       x2="611.83313"
       y2="1281.7074"><stop
         offset="0"
         stop-color="#4D4F4F"
         id="stop140" /><stop
         offset="1"
         stop-color="#777474"
         id="stop141" /></linearGradient><clipPath
       clipPathUnits="userSpaceOnUse"
       id="clipPath3"><path
         fill="none"
         stroke="#2ba6de"
         stroke-dasharray="3.99927"
         d="m 138.58684,232.75035 c 0,-5.98781 4.76024,-10.83137 10.6314,-10.83137 h 427.93357 c 5.87116,0 10.6314,4.84356 10.6314,10.83137 v 628.18614 c 0,5.98227 -4.76024,10.83138 -10.6314,10.83138 H 149.21824 c -5.87116,0 -10.6314,-4.84911 -10.6314,-10.83138 z"
         id="path221"
         style="display:inline;stroke-width:2.77728" /></clipPath></defs><defs
     id="defs25"><linearGradient
       id="gradient_1"
       gradientUnits="userSpaceOnUse"
       x1="567.4491"
       y1="699.04437"
       x2="868.41522"
       y2="779.63495"><stop
         offset="0"
         stop-color="#176366"
         id="stop24"
         style="stop-color:#000000;stop-opacity:1;" /><stop
         offset="1"
         stop-color="#157C89"
         id="stop25" /></linearGradient></defs><g
     inkscape:groupmode="layer"
     id="layer2"
     inkscape:label="background"><rect
       style="fill:#ffffff;fill-opacity:1;stroke:none;stroke-width:5.59398;stroke-opacity:0.498188"
       id="rect307"
       width="825"
       height="1125"
       x="0"
       y="0" /></g><g
     id="g1"
     transform="matrix(4.143996,0,0,4.143996,3.1461515,3.1461446)"
     inkscape:label="template"
     style="display:none"><g
       id="g104">
	
	<path
   fill="none"
   stroke="#ec1e28"
   d="m 9,252 c 0,4.971 4.029,9 9,9 h 162 c 4.971,0 9,-4.029 9,-9 V 18 c 0,-4.971 -4.029,-9 -9,-9 H 18 c -4.971,0 -9,4.029 -9,9 z"
   id="path104" />
</g><g
       id="g105">
	<path
   fill="none"
   stroke="#2ba6de"
   stroke-dasharray="1.44"
   d="m 18.13,21.906 c 0,-2.156 1.714,-3.9 3.828,-3.9 h 154.084 c 2.114,0 3.828,1.744 3.828,3.9 v 226.188 c 0,2.154 -1.714,3.9 -3.828,3.9 H 21.958 c -2.114,0 -3.828,-1.746 -3.828,-3.9 z"
   id="path105" />
</g></g><g
     id="g3"
     transform="matrix(1.4921089,0,0,1.4921089,-128.50927,-253.365)"
     style="opacity:0.2"
     inkscape:label="banker"
     clip-path="url(#clipPath3)"><path
       transform="scale(0.666992,0.666667)"
       d="m 199.509,234.375 407.733,0.365 161.911,-0.017 c 22.449,0.079 45.436,-0.927 67.83,0.142 6.064,0.29 11.455,1.422 17.026,3.911 14.284,6.383 25.063,18.865 30.597,33.298 l 9.582,0.458 c 1.209,19.114 0.255,38.931 0.263,58.114 l -0.04,111.744 -0.211,332.082 0.877,321.888 0.141,96.47 c 0.033,20.74 0.684,41.73 -0.793,62.43 -1.662,23.29 -6.208,46.91 -18.58,67.08 -14.543,23.7 -41.368,42.93 -68.454,49.21 -7.318,1.7 -14.882,2.37 -22.379,2.58 -25.472,0.75 -51.129,-0.06 -76.623,-0.06 l -166.442,-0.13 -201.388,-0.12 c -45.251,0.12 -90.614,0.96 -135.854,0.28 -2.538,-0.04 -4.767,0.12 -7.001,-1.28 l 2.034,12.16 c 0.662,0.34 1.297,0.68 2.018,0.88 6.017,1.69 47.888,0.54 57.606,0.55 l 100.021,0.03 c 17.654,-0.02 35.417,0.39 53.052,-0.15 1.985,-0.07 3.332,-0.21 5.042,-1.28 2.057,1.25 3.877,1.31 6.224,1.39 15.203,0.5 30.712,-0.12 45.951,-0.06 l 113,0.26 h 133.52 c 22.676,-0.02 45.422,0.42 68.088,-0.1 9.152,-0.21 18.475,-0.93 27.398,-3.07 4.016,-0.97 12.061,-4.48 15.778,-4.12 2.13,0.21 1.419,3.08 1.222,4.66 -1.847,14.87 -2.93,27.09 2.623,41.55 6.457,16.82 19.501,31.6 35.773,39.51 3.934,1.91 12.576,2.64 14.846,6.55 0.802,1.38 0.544,1.67 0.138,3.12 -4.282,4.12 -12.083,5.52 -17.808,5.89 -11.207,0.73 -23.117,-0.11 -34.401,-0.08 l -78.119,0.23 -238.915,0.21 -237.403,-0.21 -75.675,-0.03 c -12.586,0 -25.448,0.62 -38.005,-0.03 -6.04,-0.32 -14.141,-1.79 -18.708,-6.12 -1.52,-1.44 -2.603,-3.03 -2.65,-5.1 3.996,-2.96 11.393,-3.33 16.205,-5.03 6.269,-2.2 13.27,-8.12 17.977,-12.82 15.009,-14.98 21.634,-34.8 21.501,-55.69 -0.174,-27.49 -4.577,-36.65 -27.463,-52.42 -4.939,-3.41 -10.21,-6.33 -14.475,-10.61 -13.757,-13.79 -20.207,-37.72 -22.378,-56.64 -3.891,-33.91 -1.653,-72.08 -1.714,-106.54 q -0.628,-100.67 0.129,-201.331 l -0.051,-622.023 c -0.065,-13.591 -1.781,-58.071 0.959,-67.046 2.845,-9.317 12.389,-21.645 19.254,-28.472 15.016,-14.935 29.2,-16.477 49.211,-16.463 z"
       id="path39" /><path
       fill="#f9f8f8"
       transform="scale(0.666992,0.666667)"
       d="m 727.86,1060.08 c 2.36,1.16 4.768,3.36 6.099,5.63 l -1.378,-0.85 c -2.095,0.19 -4.499,-0.08 -6.52,-0.6 l -0.499,-1.22 z"
       id="path41" /><path
       fill="#f9f8f8"
       transform="scale(0.666992,0.666667)"
       d="m 751.394,668.173 c 1.682,1.854 3.651,3.641 4.525,6.023 -1.647,0.652 -3.182,-0.398 -4.801,-1.03 -1.581,-0.422 -3.906,-0.731 -5.136,-1.834 z"
       id="path42" /><path
       fill="#f9f8f8"
       transform="scale(0.666992,0.666667)"
       d="m 413.072,987.954 c 1.547,0.196 2.696,0.693 4.102,1.351 l -0.277,0.766 c -2.964,1.239 -6.062,1.369 -9.227,1.65 l -3.526,-0.313 -0.421,-0.583 c 2.833,-1.55 6.221,-2.113 9.349,-2.871 z"
       id="path43" /><path
       fill="#f9f8f8"
       transform="scale(0.666992,0.666667)"
       d="m 632.37,845.817 c 3.093,0.619 7.679,-0.129 10.181,1.711 l -1.282,2.103 c -2.373,0.739 -5.134,2.063 -7.581,1.286 -1.398,-1.842 -1.193,-2.906 -1.318,-5.1 z"
       id="path44" /><path
       fill="#7a7979"
       transform="scale(0.666992,0.666667)"
       d="m 144.642,643.74 c 0.029,0.032 0.067,0.058 0.089,0.096 0.789,1.428 0.895,1.827 0.54,3.42 -2.481,2.11 -6.289,2.753 -9.394,3.61 -1.006,-1.121 -1.029,-1.65 -1.354,-3.089 l 0.775,-1.221 c 2.787,-1.681 6.194,-2.121 9.344,-2.816 z"
       id="path46" /><path
       fill="#f9f8f8"
       transform="scale(0.666992,0.666667)"
       d="m 422.148,993.128 0.215,0.038 0.64,0.965 c -0.376,0.491 -0.673,0.907 -1.206,1.243 -3.67,2.32 -10.154,4.916 -14.436,4.01 -0.629,-0.995 -0.953,-1.867 -1.287,-2.994 3.738,-4.635 10.296,-1.558 15.104,-2.952 0.326,-0.095 0.647,-0.207 0.97,-0.31 z"
       id="path48" /><path
       fill="#f9f8f8"
       transform="scale(0.666992,0.666667)"
       d="m 610.751,826.157 c 4.834,2.475 7.528,8.711 11.301,12.472 1.676,1.671 3.984,2.439 5.69,3.959 1.585,1.414 0.919,5.313 0.911,7.302 -7.083,-5.656 -13.548,-15.856 -17.902,-23.733 z"
       id="path49" /><path
       fill="#f9f8f8"
       transform="scale(0.666992,0.666667)"
       d="m 641.284,957.413 c 1.723,0.181 3.687,0.573 5.087,1.67 1.342,1.051 2.22,2.476 2.214,4.205 -0.009,2.17 -1.638,3.672 -3.058,5.094 -1.773,-0.185 -3.809,-0.493 -5.272,-1.606 -1.642,-1.248 -1.846,-2.245 -2.224,-4.125 0.483,-2.467 1.463,-3.53 3.253,-5.238 z"
       id="path51" /><path
       fill="#f9f8f8"
       transform="scale(0.666992,0.666667)"
       d="m 634.55,574.668 q -0.803,-0.428 -1.569,-0.92 c -5.533,-3.555 -9.477,-8.807 -10.841,-15.318 -0.816,-3.891 -0.385,-8.087 1.987,-11.389 1.151,-1.601 3.145,-3.689 5.113,-4.041 -2.625,4.712 -4.76,8.198 -4.322,13.799 0.582,7.426 4.811,12.566 10.256,17.197 z"
       id="path52" /><path
       fill="#f9f8f8"
       transform="scale(0.666992,0.666667)"
       d="m 420.254,1005.11 c 4.54,-1.07 16.677,3.88 22.326,4.61 5.496,0.72 10.709,0.38 16.193,-0.11 l -0.502,0.78 c -10.356,2.51 -26.997,2.87 -36.422,-2.7 -1.398,-0.82 -1.223,-1 -1.595,-2.58 z"
       id="path53" /><path
       fill="#7a7979"
       transform="scale(0.666992,0.666667)"
       d="m 230.243,625.726 c 11.042,-0.883 23.342,7.541 32.945,12.539 -11.259,-0.392 -23.868,-5.956 -32.945,-12.539 z"
       id="path55" /><path
       fill="#7a7979"
       transform="scale(0.666992,0.666667)"
       d="m 259.925,345.087 c 5.948,0.272 11.863,3.484 17.207,5.908 -3.488,0.981 -7.099,1.609 -10.65,2.332 -0.125,0.029 -0.249,0.063 -0.375,0.087 -6.315,1.246 -10.24,-2.698 -15.14,-6.066 z"
       id="path58" /><path
       fill="#f9f8f8"
       transform="scale(0.666992,0.666667)"
       d="m 833.076,1051.66 1.635,0.6 c 1.29,1.94 0.626,10.08 0.298,12.5 -0.274,2.01 -0.672,4.63 -2.313,5.93 -1.923,-0.08 -2.712,-0.86 -4.14,-2.08 -0.44,0.09 -0.203,0.06 -0.817,0.08 -1.83,0.05 -1.732,0.12 -3.132,-1.19 -1.526,-3.86 -0.982,-8.81 -0.975,-12.92 0.278,0.06 0.551,0.16 0.834,0.19 3.028,0.4 6.301,-1.34 8.61,-3.11 z"
       id="path61" /><path
       fill="#4c4b4b"
       transform="scale(0.666992,0.666667)"
       d="m 282.456,690.513 c 2.058,7.158 0.474,23.779 0.357,31.877 -3.325,1.302 -6.773,2.359 -10.157,3.5 -1.249,-3.868 8.074,-29.922 9.8,-35.377 z"
       id="path62" /><path
       fill="#7a7979"
       transform="scale(0.666992,0.666667)"
       d="m 209.481,360.313 c 2.573,0.605 5.634,3.144 7.913,4.602 -8.818,2.243 -17.739,3.919 -26.671,5.635 -3.322,0.173 -6.285,-2.768 -8.658,-4.736 q 13.611,-3.233 27.416,-5.501 z"
       id="path63" /><path
       fill="#7a7979"
       transform="scale(0.666992,0.666667)"
       d="m 240.169,353.479 c 3.062,0.086 6.054,3.455 8.209,5.385 q -12.173,2.944 -24.444,5.448 c -2.801,-0.216 -5.905,-4.076 -8.041,-6.043 q 12.105,-2.561 24.276,-4.79 z"
       id="path65" /><path
       fill="#f9f8f8"
       transform="scale(0.666992,0.666667)"
       d="m 393.288,995.49 c 4.002,4.207 11.906,2.987 14.625,7.53 0.069,2.84 -6.444,13.09 -7.946,16.62 -0.199,0.32 -0.892,0.75 -1.201,0.99 -1.797,-1.31 -2.377,-5.05 -3.035,-7.17 -1.714,-5.51 -7.471,-9.89 -8.344,-15.153 1.545,-1.888 3.614,-2.087 5.901,-2.817 z"
       id="path69" /><path
       fill="#f9f8f8"
       transform="scale(0.666992,0.666667)"
       d="m 625.742,877.647 c 1.11,-0.082 2.222,-0.156 3.336,-0.154 2.006,0.003 3.321,0.548 4.717,2.009 2.592,2.714 3.853,6.137 3.762,9.876 -0.117,4.856 -1.571,7.926 -5.1,11.221 -1.386,-0.081 -2.566,-0.348 -3.815,-0.987 -2.862,-1.463 -4.925,-4.429 -5.678,-7.506 -1.321,-5.401 0.148,-9.787 2.778,-14.459 z"
       id="path71" /><path
       fill="#f9f8f8"
       transform="scale(0.666992,0.666667)"
       d="m 598.19,941.346 c 0.313,-2.305 0.446,-4.697 1.495,-6.8 2.987,14.101 -5.153,53.925 -2.075,60.735 l -9.595,-3.697 c 5.435,-16.412 7.718,-33.193 10.175,-50.238 z"
       id="path72" /><path
       fill="#f9f8f8"
       transform="scale(0.666992,0.666667)"
       d="m 328.123,1019.82 c 2.873,1.99 5.898,3.79 9.172,5.04 10.85,4.13 26.56,5.31 37.906,2 4.102,-1.2 8.425,-4.29 12.374,-6.08 l 0.695,0.61 -0.739,2.36 c -2.284,3.41 -5.946,5.52 -9.68,7.01 -11.327,4.55 -27.194,4.43 -38.42,-0.4 -5.211,-2.25 -9.165,-5.16 -11.308,-10.54 z"
       id="path73" /><path
       fill="#f9f8f8"
       transform="scale(0.666992,0.666667)"
       d="m 780.579,661.272 c 0.413,0.318 0.437,0.319 0.87,0.752 11.207,11.199 18.074,31.398 18.36,46.92 -5.131,-3.215 -9.397,-7.301 -13.805,-11.408 1.508,-13.936 0.989,-23.533 -5.425,-36.264 z"
       id="path74" /><path
       fill="#7a7979"
       transform="scale(0.666992,0.666667)"
       d="m 284.442,784.567 0.621,0.129 c 1.705,2.729 0.697,17.434 0.673,21.515 -4.45,2.196 -8.166,3.798 -13.191,4.027 -0.557,-0.799 -1.117,-1.626 -1.504,-2.523 -2.663,-6.158 1.176,-14.401 3.624,-19.951 z"
       id="path75" /><path
       fill="#7a7979"
       transform="scale(0.666992,0.666667)"
       d="m 221.134,626.85 c 8.077,2.339 15.822,6.454 23.369,10.092 l -4.05,9.84 c -8.146,-1.887 -16.109,-4.01 -24.074,-6.563 z"
       id="path76" /><path
       fill="#7a7979"
       transform="scale(0.666992,0.666667)"
       d="m 285.115,884.188 0.895,0.62 c 1.294,5.675 0.426,13.19 0.391,19.08 q -9.934,2.159 -19.492,5.623 l -0.774,-0.857 c -0.75,-3.043 -0.842,-5.207 0.266,-8.184 3.058,-8.221 11.237,-12.811 18.714,-16.282 z"
       id="path78" /><path
       fill="#f9f8f8"
       transform="scale(0.666992,0.666667)"
       d="m 457.586,959.389 c 1.631,0.296 3.587,0.43 4.927,1.442 -3.414,1.033 -7.017,1.873 -9.113,4.992 3.118,0.862 9.326,-2.881 12.316,-4.316 6.211,1.272 11.218,3.387 16.67,6.618 -2.76,1.371 -5.259,2.981 -7.814,4.697 -1.719,1.474 -3.177,3.291 -4.679,4.983 -9.048,-4.698 -18.577,-6.561 -28.49,-8.378 5.262,-3.658 10.579,-6.931 16.183,-10.038 z"
       id="path79" /><path
       fill="#f9f8f8"
       transform="scale(0.666992,0.666667)"
       d="m 454.727,1045.97 c 1.347,1.36 2.181,2.58 2.327,4.56 0.125,1.69 -0.741,3.17 -1.858,4.37 -7.547,8.08 -23.268,10.48 -33.725,10.45 -5.145,-0.02 -13.681,-0.47 -17.521,-4.32 l -1.485,-0.03 -0.969,-1.23 c -0.126,-2.08 -0.236,-2.65 0.7,-4.58 11.032,1.91 20.431,4.03 31.78,2.2 8.297,-1.34 15.677,-4.48 20.751,-11.42 z"
       id="path80" /><path
       fill="#7a7979"
       transform="scale(0.666992,0.666667)"
       d="m 278.274,479.062 2.7,-0.053 c 2.745,2.701 2.105,8.938 2.141,12.713 0.049,5.207 -0.134,10.328 0.34,15.529 0.212,7.44 0.997,49.205 -0.492,53.249 -1.462,0.991 -1.392,0.961 -3.144,0.722 -1.162,-1.382 -1.471,-2.63 -1.62,-4.41 -0.445,-5.321 0.255,-11.082 0.244,-16.454 -0.039,-20.26 1.062,-41.13 -0.169,-61.296 z"
       id="path81" /><path
       fill="#f9f8f8"
       transform="scale(0.666992,0.666667)"
       d="m 889.455,947.908 c 1.187,1.69 0.993,4.367 0.816,6.344 -0.493,5.489 -30.697,124.568 -31.327,125.388 -0.293,0.39 -0.745,0.61 -1.118,0.92 l -1.324,-0.06 c -1.263,-3.91 29.715,-119.416 32.953,-132.592 z"
       id="path82" /><path
       fill="#7a7979"
       transform="scale(0.666992,0.666667)"
       d="m 253.204,613.973 c 8.107,2.514 22.73,7.417 28.485,13.583 1.3,1.394 1.4,2.071 1.318,3.898 -1.63,2.014 -2.339,2.005 -4.873,2.749 -3.567,0.628 -7.161,1.137 -10.741,1.693 -6.325,-3.742 -13.046,-6.957 -19.574,-10.338 z"
       id="path83" /><path
       fill="#f9f8f8"
       transform="scale(0.666992,0.666667)"
       d="m 771.301,657.677 c 0.353,0.26 0.849,0.596 1.172,0.923 8.375,8.465 9.307,24.412 9.26,35.587 l -7.021,-6.55 c -7.724,-6.697 -11.731,-14.295 -18.571,-21.4 5.667,-2.288 10.472,-4.571 15.16,-8.56 z"
       id="path84" /><path
       fill="#f9f8f8"
       transform="scale(0.666992,0.666667)"
       d="m 396.431,1112.15 c 1.207,1.24 1.021,3.79 1.043,5.48 -1.136,2.87 -3.198,4.9 -5.731,6.58 -11.329,7.55 -27.287,9.25 -40.388,6.57 -6.886,-1.41 -16.099,-4.54 -20.152,-10.71 -1.767,-0.96 -2.783,-2.38 -3.484,-4.22 1.133,-1.18 10.005,4.91 12.242,5.82 8.715,3.56 21.01,4.18 30.17,3.06 9.707,-1.18 20.077,-4.62 26.3,-12.58 z"
       id="path85" /><path
       fill="#f9f8f8"
       transform="scale(0.666992,0.666667)"
       d="m 396.091,1068.43 c 0.288,0.67 0.384,1.48 0.538,2.19 -2.096,6.97 -6.355,10.56 -12.678,13.89 -11.926,6.29 -27.542,6.52 -40.242,2.55 -5.861,-1.83 -11.079,-4.82 -14.002,-10.4 l -0.755,-0.5 c -0.722,-1.28 -1.523,-2.34 -1.323,-3.87 3.769,2.38 8.033,5.67 12.17,7.26 8.49,3.26 22.405,3.47 31.145,2 8.992,-1.51 19.665,-5.39 25.147,-13.12 z"
       id="path86" /><path
       fill="#f9f8f8"
       transform="scale(0.666992,0.666667)"
       d="m 597.61,995.281 c 3.856,-3.272 4.122,-16.459 4.54,-21.528 2.08,-25.228 0.174,-50.077 -2.684,-75.155 -0.294,-2.574 -0.137,-7.408 -1.089,-9.632 l 0.945,-1.38 -1.502,0.184 2.078,0.832 0.009,0.456 c 0.042,1.438 0.224,2.614 0.597,4.002 4.994,27.509 11.677,78.517 5.291,105.419 z"
       id="path87" /><path
       fill="#f9f8f8"
       transform="scale(0.666992,0.666667)"
       d="m 255.867,1032.45 c 4.388,3.95 8.502,6.56 14.081,8.56 17.975,6.45 35.319,2.68 51.985,-5.09 l 0.711,0.99 c -0.109,1.87 0.065,2.32 -1.167,3.8 -0.318,0.57 -0.652,1.11 -1.068,1.61 -5.01,6.03 -18.171,8.42 -25.5,9.05 -10.776,0.92 -25.23,-0.62 -33.728,-8.04 -3.468,-3.04 -5.036,-6.3 -5.314,-10.88 z"
       id="path88" /><path
       fill="#7a7979"
       transform="scale(0.666992,0.666667)"
       d="m 280.992,353.613 c 0.725,-0.454 1.722,-0.724 2.525,-1.041 l 0.004,55.249 c -0.001,8.975 0.671,18.57 -0.17,27.474 -1.367,1.345 -2.183,1.566 -4.062,1.838 l -1.313,-0.599 c -0.844,-7.531 -1.341,-75.19 0.08,-80.011 z"
       id="path89" /><path
       fill="#f9f8f8"
       transform="scale(0.666992,0.666667)"
       d="m 456.315,1091.01 c 0.661,2.26 0.696,4.93 0.952,7.29 -1.7,3.11 -3.472,5.05 -6.48,6.95 -10.486,6.61 -26.577,8.31 -38.627,5.61 -3.689,-0.83 -7.482,-1.72 -9.642,-5.07 -0.039,-0.03 -0.089,-0.05 -0.117,-0.09 -1.353,-1.97 -0.592,-6.54 -0.509,-9.02 l 0.351,0.31 c 0.148,0.13 0.292,0.27 0.443,0.4 6.197,5.26 18.494,5.62 26.178,5.13 10.035,-0.64 20.619,-3.77 27.451,-11.51 z"
       id="path90" /><path
       fill="#f9f8f8"
       transform="scale(0.666992,0.666667)"
       d="m 482.912,971.83 c 0.327,0.002 0.659,-0.054 0.98,0.006 6.201,1.152 3.36,16.116 6.805,21.082 3.327,4.796 8.889,5.203 14.174,5.966 -4.71,3.326 -9.548,5.986 -14.871,8.186 -2.981,0.88 -8.586,2.29 -11.62,1.47 -4.248,-1.15 -1.08,-13.493 -1.749,-17.498 -0.674,-4.039 -2.527,-7.294 -4.615,-10.759 3.461,-3.274 6.898,-5.866 10.896,-8.453 z"
       id="path93" /><path
       fill="#f9f8f8"
       transform="scale(0.666992,0.666667)"
       d="m 391.288,1025.64 c 2.025,2.42 2.036,4.87 2.636,7.93 -1.969,2.92 -4.739,4.98 -7.802,6.64 -13.184,7.16 -31.36,8.13 -45.566,3.7 -4.917,-1.53 -10.249,-4 -12.771,-8.71 -1.746,-1.21 -1.993,-5.22 -2.373,-7.26 l 1.49,-1.46 -0.829,0.55 c 4.382,0.18 7.59,6.17 11.756,7.57 9.318,3.14 19.205,4.59 29.005,3.35 9.366,-1.19 18.495,-4.72 24.454,-12.31 z"
       id="path94" /><path
       fill="#f9f8f8"
       transform="scale(0.666992,0.666667)"
       d="m 256.407,1091.52 c 10.581,8.28 24.566,11.7 37.853,10.82 9.131,-0.6 21.925,-3.24 28.273,-10.43 0.062,2.67 0.068,5.17 -0.326,7.82 -0.513,1.1 -1.013,2.21 -1.879,3.1 -6.688,6.84 -21.488,8.79 -30.497,8.69 -10.037,-0.1 -23.654,-3.17 -30.824,-10.74 -2.922,-3.09 -2.749,-5.26 -2.6,-9.26 z"
       id="path95" /><path
       fill="#f9f8f8"
       transform="scale(0.666992,0.666667)"
       d="m 454.859,1059.94 1.053,0.33 c 0.677,0.71 0.895,0.65 0.941,1.69 0.169,3.79 -0.495,6.06 -3.202,8.91 -7.361,7.76 -21.301,10.51 -31.532,10.58 -5.019,0.03 -13.617,-0.28 -17.41,-4 l -1.803,-0.04 c -1.931,-2.4 -1.021,-8.98 -0.931,-12 0.268,0.25 0.535,0.5 0.815,0.74 5.753,4.81 18.549,4.4 25.566,3.7 8.102,-0.8 21.034,-3.23 26.503,-9.91 z"
       id="path96" /><path
       fill="#7a7979"
       transform="scale(0.666992,0.666667)"
       d="m 244.556,349.443 c 0.495,-0.037 0.723,-0.063 1.252,-0.057 5.193,0.054 10.352,5.782 13.602,9.281 -0.377,27.781 0.318,55.574 -0.13,83.355 -1.806,0.313 -3.585,0.506 -5.411,0.661 -4.216,-4.338 2.45,-76.298 -2.367,-86.847 -1.048,-2.294 -4.908,-3.934 -6.641,-6.013 -0.104,-0.125 -0.203,-0.254 -0.305,-0.38 z"
       id="path97" /><path
       fill="#f9f8f8"
       transform="scale(0.666992,0.666667)"
       d="m 256.101,1104.48 c 4.568,3.38 9.419,5.93 14.784,7.82 13.006,4.58 28.224,4.53 41.113,-0.45 3.563,-1.37 6.766,-3.41 10.2,-5.05 l 0.799,1.29 c -0.082,2.18 0.094,4.1 -1.315,5.9 -0.426,0.81 -0.906,1.62 -1.562,2.27 -6.687,6.59 -23.764,8.86 -32.7,8.61 -9.496,-0.26 -22.99,-2.69 -29.634,-10.21 -2.809,-3.18 -2.054,-6.26 -1.685,-10.18 z"
       id="path99" /><path
       fill="#f9f8f8"
       transform="scale(0.666992,0.666667)"
       d="m 327.986,1123.25 c 4.311,5.49 12.325,8.99 18.869,10.81 12.993,3.59 28.78,2.95 40.99,-3.07 3.132,-1.54 5.624,-3.87 8.624,-5.59 l 0.761,0.96 c -0.078,2.03 -0.12,3.65 -0.961,5.53 -0.706,2.26 -1.698,3.72 -3.534,5.25 -8.975,7.47 -24.172,8.59 -35.288,7.64 -9.01,-0.77 -21.393,-2.96 -27.424,-10.49 -2.892,-3.61 -2.58,-6.76 -2.037,-11.04 z"
       id="path100" /><path
       fill="#f9f8f8"
       transform="scale(0.666992,0.666667)"
       d="m 739.777,697.444 c 0.183,0.106 0.387,0.181 0.548,0.317 1.14,0.96 1.512,2.824 1.68,4.202 -0.512,1.541 -1.137,2.562 -2.394,3.614 -3.99,3.34 -9.561,5.715 -14.3,7.852 -19.821,8.938 -39.303,12.75 -60.972,10.865 l -1.961,-0.998 c -0.785,-1.759 -1.021,-2.892 -0.857,-4.815 0.364,-0.363 0.651,-0.828 1.094,-1.09 2.749,-1.632 12.296,-0.158 15.816,-0.312 3.336,-0.145 6.753,-0.754 10.05,-1.274 q 3.388,-0.518 6.746,-1.198 3.359,-0.68 6.682,-1.52 3.322,-0.84 6.6,-1.839 3.278,-0.999 6.505,-2.154 3.226,-1.154 6.393,-2.463 3.167,-1.308 6.268,-2.767 3.101,-1.459 6.128,-3.065 3.027,-1.606 5.974,-3.355 z"
       id="path101" /><path
       fill="#7a7979"
       transform="scale(0.666992,0.666667)"
       d="m 237.276,494.248 1.094,0.332 c 0.88,1.098 1.018,1.842 1.158,3.216 1.128,11.116 0.546,22.961 0.912,34.173 0.399,12.176 2.187,25.312 1.011,37.409 -1.609,1.556 -3.59,1.739 -5.722,2.33 -1.595,0.402 -1.987,0.533 -3.634,0.102 -1.249,-9.289 -0.264,-19.703 -0.307,-29.116 -0.068,-15.187 -1.063,-30.969 0.175,-46.083 1.471,-1.772 3.153,-1.806 5.313,-2.363 z"
       id="path102" /><path
       fill="#f9f8f8"
       transform="scale(0.666992,0.666667)"
       d="m 455.664,1073.8 0.954,1.05 c -0.623,2.52 -0.049,4.16 -0.003,6.64 0.057,3.02 -1.508,5.66 -3.575,7.75 -6.893,7 -19.673,9.01 -29.026,9 -6.093,-0.01 -15.464,-0.39 -20.044,-4.99 -1.021,-0.22 -1.224,-0.56 -1.996,-1.23 -1.093,-3.76 -0.474,-8.27 -0.329,-12.15 0.359,0.32 0.71,0.66 1.087,0.97 6.243,5.07 18.286,5.25 25.845,4.51 9.392,-0.92 20.842,-3.95 27.087,-11.55 z"
       id="path106" /><path
       fill="#f9f8f8"
       transform="scale(0.666992,0.666667)"
       d="m 255.891,1045.02 c 2.325,1.23 4.363,3.08 6.69,4.38 8.916,4.96 19.572,6.99 29.698,6.55 9.761,-0.43 22.953,-3.05 29.849,-10.61 0.323,2.86 1.277,5.92 0.078,8.55 -1.379,3.3 -3.832,5.45 -6.849,7.22 -11.094,6.52 -28.266,7 -40.463,3.86 -6.98,-1.8 -14.213,-5 -18.016,-11.41 -0.868,-2.82 -0.888,-5.62 -0.987,-8.54 z"
       id="path107" /><path
       fill="#f9f8f8"
       transform="scale(0.666992,0.666667)"
       d="m 256.14,1075.95 q 1.662,1.28 3.403,2.45 c 12.639,8.56 29.102,10.3 43.838,7.37 7.061,-1.41 15.103,-4.47 19.28,-10.65 0.045,3.88 0.305,7.9 -0.452,11.72 -1.38,2.69 -3.972,4.07 -6.541,5.46 -12.247,6.66 -28.608,7.55 -41.836,3.52 -6.711,-2.05 -13.734,-5.43 -17.191,-11.82 z"
       id="path108" /><path
       fill="#f9f8f8"
       transform="scale(0.666992,0.666667)"
       d="m 396.405,1036.27 c 0.743,2.46 0.517,6.33 -0.111,8.82 -1.144,4.54 -4.823,8.07 -8.753,10.37 -12.173,7.11 -30.353,7.87 -43.684,4.1 -5.143,-1.46 -12.211,-4.33 -14.928,-9.24 l -1.605,-1.56 c -0.67,-2.15 -1.206,-3.88 -1.113,-6.18 1.565,-0.69 8.078,2.85 10.035,3.64 q 1.787,0.73 3.616,1.35 1.828,0.62 3.691,1.13 1.864,0.5 3.754,0.89 1.891,0.39 3.803,0.67 1.911,0.27 3.835,0.43 1.925,0.15 3.855,0.19 1.931,0.03 3.86,-0.05 1.929,-0.08 3.849,-0.28 c 11.338,-1.11 22.518,-5.27 29.896,-14.28 z"
       id="path110" /><path
       fill="#f9f8f8"
       transform="scale(0.666992,0.666667)"
       d="m 255.727,1060.06 c 0.167,0.14 0.332,0.28 0.5,0.41 11.163,9.1 27.729,11.53 41.665,10.01 8.479,-0.92 19.092,-3.33 24.686,-10.33 0.066,3.44 0.822,9.13 -1.068,11.93 -1.147,1.56 -2.456,2.6 -4.094,3.62 -11.804,7.31 -28.349,8.59 -41.681,5.47 -7.591,-1.78 -14.389,-4.96 -18.597,-11.72 -1.354,-2.53 -1.263,-6.58 -1.411,-9.39 z"
       id="path111" /><path
       fill="#7a7979"
       transform="scale(0.666992,0.666667)"
       d="m 270.479,486.13 2.545,-0.153 0.944,0.958 c 1.063,5.082 1.021,68.647 0.075,74.666 -1.821,1.644 -4.404,1.775 -6.748,2.199 l -2.109,0.144 c -1.541,-2.166 -1.226,-68.758 -0.59,-75.899 1.834,-1.573 3.567,-1.527 5.883,-1.915 z"
       id="path112" /><path
       fill="#f9f8f8"
       transform="scale(0.666992,0.666667)"
       d="m 396.969,1078.28 c 0.863,3.43 0.306,8.52 -0.702,11.92 -2.106,4.5 -5.719,7.31 -10.062,9.48 -13.367,6.69 -31.082,6.67 -45.06,1.98 -4.908,-1.64 -11.673,-4.6 -14.082,-9.47 -0.16,-3.85 -0.055,-7.68 0.047,-11.54 1.435,2.04 2.847,3.78 4.878,5.26 10.614,7.73 26.567,9.54 39.212,7.36 10.665,-1.85 19.481,-6.07 25.769,-14.99 z"
       id="path114" /><path
       fill="#f9f8f8"
       transform="scale(0.666992,0.666667)"
       d="m 135.699,1207.72 c 4.069,4.41 28.927,13.52 35.894,16.09 0.268,3.12 -0.914,5.4 0.22,8.7 1.553,4.5 5.681,5.85 9.651,7.72 16.415,5.68 37.024,8.61 53.642,1.5 0.753,-0.32 1.247,-0.71 1.886,-1.21 l 0.792,1.18 c -1.803,1.93 -4.32,3.11 -6.608,4.39 -4.838,2.71 -13.901,8.1 -19.496,6.53 -0.757,0.28 -0.797,0.33 -1.69,0.44 -3.275,0.42 -26.367,-9.54 -29.269,-12.23 -0.144,0.02 -0.286,0.05 -0.43,0.06 -4.699,0.12 -41.827,-16.04 -44.589,-18.99 z"
       id="path115" /><path
       fill="#f9f8f8"
       transform="scale(0.666992,0.666667)"
       d="m 397.109,1097.01 c 0.763,1.93 0.316,4.33 -0.18,6.29 -1.365,5.39 -4.478,8.69 -9.192,11.4 -12.531,7.22 -29.533,7.57 -43.175,3.74 -5.448,-1.52 -13.428,-4.58 -16.364,-9.76 l -0.926,-0.83 c -1.241,-3.17 -0.779,-7.35 -0.738,-10.74 0.084,0.1 0.165,0.2 0.251,0.3 0.144,0.16 0.295,0.32 0.439,0.48 0.316,0.36 0.622,0.72 0.957,1.06 7.774,7.82 24.142,10.54 34.665,10.31 11.815,-0.27 25.848,-3.37 34.263,-12.25 z"
       id="path116" /><path
       fill="#f9f8f8"
       transform="scale(0.666992,0.666667)"
       d="m 396.151,1053.47 c 1.004,2.66 0.555,5.39 -0.258,8.04 -1.58,5.15 -5.569,8.41 -10.162,10.87 -12.504,6.67 -30.299,7.2 -43.674,3.1 -5.395,-1.66 -10.597,-4.29 -13.308,-9.47 -0.177,-0.16 -0.363,-0.3 -0.53,-0.47 -2.129,-2.15 -1.439,-8.49 -1.42,-11.41 0.679,0.88 1.384,1.73 2.187,2.5 7.948,7.62 22.783,9.44 33.212,9.3 12.394,-0.17 25.058,-3.38 33.953,-12.46 z"
       id="path119" /><path
       fill="#f9f8f8"
       transform="scale(0.666992,0.666667)"
       d="m 608.446,923.828 c 2.468,3.668 3.884,9.59 5.442,13.819 8.456,22.946 15.305,45.246 18.838,69.533 l -15.525,-5.1 c -1.4,-2.98 -2.807,-6.375 -3.338,-9.64 -1.212,-7.457 -0.642,-15.515 -1.193,-23.089 -1.102,-15.182 -2.804,-30.366 -4.224,-45.523 z"
       id="path121" /><path
       fill="#4c4b4b"
       transform="scale(0.666992,0.666667)"
       d="m 593.751,943.417 c 0.304,12.001 -5.972,34.557 -9.186,46.611 -10.311,-4.185 -21.02,-7.623 -31.516,-11.333 -4.124,-1.386 -8.17,-3.043 -12.229,-4.609 26.825,-6.635 35.856,-7.005 52.931,-30.669 z"
       id="path122"
       style="fill:#9b9999;fill-opacity:1" /><path
       fill="#7a7979"
       transform="scale(0.666992,0.666667)"
       d="m 271.319,356.441 1.599,0.099 c 1.323,2.325 1.487,73.487 0.461,81.219 -1.823,1.763 -4.484,1.889 -6.896,2.331 -1.068,0.224 -1.506,0.126 -2.512,-0.284 -1.444,-4.244 -1.212,-75.829 -0.195,-81.11 2.077,-1.594 5.017,-1.782 7.543,-2.255 z"
       id="path123" /><path
       fill="#f9f8f8"
       transform="scale(0.666992,0.666667)"
       d="m 737.933,682.425 c 0.056,0.039 0.12,0.068 0.167,0.118 2.112,2.26 2.015,8.309 2.351,11.434 -24.439,12.582 -49.602,20.682 -77.263,19.824 -1.873,-1.941 -2.372,-4.352 -2.762,-6.928 1.051,-2.818 2.8,-2.499 5.491,-2.705 27.134,-2.074 48.216,-8.43 72.016,-21.743 z"
       id="path124" /><path
       fill="#f9f8f8"
       transform="scale(0.666992,0.666667)"
       d="m 690.269,672.311 c 16.526,3.922 31.928,3.458 48.801,3.474 -10.356,9.111 -25.104,13.663 -37.894,18.027 -14.339,4.717 -29.015,7.174 -44.097,6.932 q 5.789,-3.122 11.537,-6.317 c 9.774,-5.457 18.46,-10.861 21.653,-22.116 z"
       id="path126" /><path
       fill="#f9f8f8"
       transform="scale(0.666992,0.666667)"
       d="m 414.309,1024.05 q 7.34,-0.5 14.652,0.32 c 6.337,0.66 15.739,2.26 19.871,7.73 1.459,1.93 2.012,4.31 1.485,6.68 -0.512,2.31 -2.07,4.45 -4.077,5.7 -2.609,1.64 -7.748,3.25 -10.735,2.47 -1.931,1.84 -5.664,1.95 -8.221,2.17 -7.032,0.59 -19.834,0.21 -25.478,-4.52 -0.501,-6.33 -1.558,-12.3 -3.479,-18.35 5.299,-0.47 10.631,-1.68 15.982,-2.2 z"
       id="path130" /><path
       fill="#7a7979"
       transform="scale(0.666992,0.666667)"
       d="m 195.6,239.894 13.747,-0.254 c 0.032,10.156 1.207,76.612 -1.063,79.363 l -12.916,2.56 z"
       id="path131" /><path
       fill="#f9f8f8"
       transform="scale(0.666992,0.666667)"
       d="m 734.173,713.223 0.241,0.175 c 0.328,1.677 -5.467,7.521 -6.925,9.267 -16.481,19.727 -28.623,41.36 -39.773,64.388 l -1.18,-0.002 c 1.933,-18.586 0.176,-38.069 -2.432,-56.506 18.4,-0.018 34.738,-7.94 50.069,-17.322 z"
       id="path132" /><path
       fill="#4c4b4b"
       transform="scale(0.666992,0.666667)"
       d="m 878.061,1026.15 c 3.483,1.46 7.716,3.84 11.498,3.91 0.109,21.14 -0.227,42.27 0.015,63.4 -0.165,0.03 -0.329,0.06 -0.495,0.07 -3.206,0.17 -6.59,-1.6 -8.984,-3.6 -0.761,0.13 -0.744,0.16 -1.649,0.08 -3.8,-0.38 -12.236,-4.09 -14.538,-7.09 5.432,-8.97 11.736,-44.79 14.153,-56.77 z"
       id="path133" /><path
       fill="#7a7979"
       transform="scale(0.666992,0.666667)"
       d="m 259.541,489.204 c 1.683,2.208 0.782,68.025 0.779,76.562 l -14.176,3.335 q -1.977,-37.916 -2.559,-75.88 z"
       id="path135" /><path
       fill="#f9f8f8"
       transform="scale(0.666992,0.666667)"
       d="m 808.833,720.437 c 24.41,5.992 63.556,29.738 80.235,48.513 l -0.014,19.574 c -8.566,-6.814 -15.544,-15.668 -24.299,-22.518 q -9.748,-7.676 -20.404,-14.033 c -5.706,-3.429 -12.158,-6.607 -17.292,-10.851 -6.94,-5.738 -12.555,-13.699 -18.226,-20.685 z"
       id="path136" /><path
       fill="#f9f8f8"
       transform="scale(0.666992,0.666667)"
       d="m 347.802,998.471 c 10.47,-1.122 23.346,-1.155 32.94,3.539 3.129,1.54 6.952,4.12 7.903,7.66 q 0.071,0.25 0.114,0.51 0.043,0.26 0.058,0.52 0.015,0.27 0.002,0.53 -0.013,0.26 -0.055,0.52 -0.041,0.26 -0.11,0.51 -0.069,0.26 -0.165,0.5 -0.096,0.25 -0.217,0.48 -0.122,0.23 -0.268,0.45 c -3.637,5.43 -13.268,8 -19.235,9.22 -9.689,1.11 -20.034,1.21 -29.154,-2.73 -3.806,-1.65 -9.971,-5.36 -11.237,-9.61 -0.526,-1.77 -0.271,-3.29 0.758,-4.81 3.35,-4.95 13.333,-6.432 18.666,-7.289 z"
       id="path137" /><path
       fill="#f9f8f8"
       transform="scale(0.666992,0.666667)"
       d="m 675.911,730.418 c 1.675,-0.002 3.212,0.14 4.867,0.397 2.508,3.076 3.237,54.322 2.596,62.374 -0.872,10.948 -7.806,21.523 -15.896,28.472 -1.245,1.174 -2.441,2.214 -3.859,3.174 -1.523,-4.658 -0.105,-12.492 0.186,-17.481 1.516,-25.987 2.934,-52.313 12.106,-76.936 z"
       id="path138" /><path
       fill="#f9f8f8"
       transform="scale(0.666992,0.666667)"
       d="m 286.382,1012.81 c 7.179,-1.09 16.205,0.46 23.005,2.85 4.252,1.49 9.946,4.13 11.814,8.55 0.911,2.15 0.659,4.09 -0.209,6.18 -3.518,4.18 -10.221,6.21 -15.323,7.54 -3.562,0.93 -7.778,2.3 -11.173,0.32 -1.011,0.62 -2.056,1.1 -3.24,1.26 -9.1,1.24 -22,-1.98 -29.235,-7.68 -2.058,-1.62 -3.944,-3.62 -4.188,-6.34 -0.138,-1.54 0.494,-3.09 1.52,-4.25 5.587,-6.29 19.042,-7.65 27.029,-8.43 z"
       id="path139" /><path
       fill="#f9f8f8"
       transform="scale(0.666992,0.666667)"
       d="m 660.279,726.191 4.712,2.639 c -21.243,34.682 -30.745,66.316 -35.481,106.473 -3.14,-1.707 -6.014,-3.9 -8.919,-5.975 -4.429,-3.838 -8.014,-8.177 -11.627,-12.754 12.339,-31.93 28.655,-64.456 51.315,-90.383 z"
       id="path142" /><path
       fill="#7a7979"
       transform="scale(0.666992,0.666667)"
       d="m 312.655,741.132 1.438,0.402 c 1.003,2.46 0.638,5.256 0.571,7.871 -11.787,1.869 -23.53,5.783 -34.955,9.2 l -45.26,13.626 c -32.199,9.726 -64.742,18.262 -96.934,28.002 -0.794,0.107 -1.369,-0.076 -2.143,-0.245 -1.089,-2.428 -0.599,-5.463 -0.502,-8.078 18.548,-6.268 37.689,-11.169 56.524,-16.506 40.405,-11.448 80.997,-22.359 121.261,-34.272 z"
       id="path144" /><path
       fill="#f9f8f8"
       transform="scale(0.666992,0.666667)"
       d="m 733.247,660.168 c -2.404,3.202 -5.469,5.581 -9.028,7.403 -9.827,5.031 -23.088,6.17 -33.56,2.559 -4.41,-1.521 -7.994,-3.933 -10.07,-8.259 -4.287,-8.933 -6.644,-24.948 -3.397,-34.297 2.202,-6.338 7.053,-11.907 13.165,-14.78 q 0.468,-0.217 0.947,-0.41 0.478,-0.194 0.965,-0.363 0.488,-0.17 0.983,-0.316 0.495,-0.145 0.997,-0.266 0.502,-0.12 1.009,-0.216 0.507,-0.096 1.018,-0.167 0.511,-0.07 1.026,-0.116 0.514,-0.045 1.029,-0.065 0.516,-0.02 1.032,-0.014 0.516,0.006 1.031,0.037 0.516,0.031 1.029,0.087 0.513,0.057 1.022,0.139 0.51,0.082 1.015,0.188 0.505,0.107 1.004,0.239 0.499,0.131 0.99,0.288 0.492,0.156 0.976,0.336 c 6.557,2.403 11.203,8.208 13.983,14.415 3.259,7.276 4.433,15.717 1.394,23.266 -2.138,5.312 -6.693,11.182 -12.094,13.436 -5.871,2.449 -14.978,2.737 -20.829,0.103 -2.414,-1.086 -2.957,-2.267 -3.795,-4.573 0.088,-1.552 0.317,-2.696 1.071,-4.085 0.711,-1.312 0.744,-1.813 2.164,-2.241 0.945,1.499 1.612,3.112 2.327,4.73 l 1.371,0.417 1.313,-1.22 c 0.414,-2.154 0.851,-4.051 1.713,-6.084 0.072,-0.168 0.146,-0.334 0.219,-0.501 -0.727,-1.427 -1.235,-2.413 -1.241,-4.065 1.561,-1.12 2.534,-0.933 4.423,-1.048 1.713,2.274 2.514,5.311 3.494,7.967 2.113,2.104 4.97,2.656 7.754,3.503 -3.819,1.771 -8.823,3.532 -11.599,6.797 l 0.484,0.64 c 4.1,0.476 7.975,-0.915 11.148,-3.503 0.941,-0.767 2.018,-1.739 2.434,-2.918 0.726,-2.059 2.021,-14.207 2.239,-17.096 0.698,-9.26 -3.376,-16.383 -9.19,-23.264 1.887,3.956 3.771,7.985 5.118,12.163 2.634,8.17 0.121,14.134 -3.522,21.369 -4.986,-9.727 -6.317,-23.056 -12.837,-31.652 -1.907,-0.837 -2.031,-0.843 -4.053,-0.346 10e-4,4.671 9.449,12.861 8.375,22.356 l -0.917,0.509 c -6.083,-2.272 -6.092,-8.451 -10.372,-12.738 -1.423,-1.426 -3.448,-3.582 -5.456,-3.583 -0.18,5.374 6.272,12.85 8.32,18.105 -1.851,1.435 -3.86,2.93 -5.271,4.817 -2.238,2.992 -3.884,7.517 -3.106,11.214 0.612,2.908 2.492,5.229 4.973,6.804 5.504,3.492 13.276,3.621 19.445,2.193 8.736,-2.023 13.06,-6.779 17.661,-14.09 0.006,0.156 0.018,0.312 0.019,0.468 0.011,3.167 -2.25,6.319 -4.482,8.447 -8.179,7.796 -17.048,4.584 -21.389,7.789 l 1.76,0.441 0.121,-1.251 0.587,1.29 c 9.817,-0.133 19.758,-1.447 27.752,-7.641 1.568,-1.215 3.558,-4.152 5.308,-3.347 z"
       id="path145" /><path
       fill="#f9f8f8"
       transform="scale(0.666992,0.666667)"
       d="m 351.337,1225.62 c 2.383,1.45 21.529,2.84 27.869,5.49 3.413,1.43 6.647,3.63 7.933,7.27 0.949,2.69 0.966,5.83 -0.486,8.34 -2.494,4.31 -9.444,7.43 -14.094,8.75 -3.907,1.12 -10.59,2.94 -14.344,0.82 -0.125,0.06 -0.251,0.13 -0.375,0.19 -0.147,0.08 -0.287,0.17 -0.435,0.24 -5.591,2.85 -18.585,-0.72 -24.174,-2.74 -4.533,-1.64 -10.209,-4.37 -12.208,-9.08 -0.797,-1.89 -0.747,-3.78 0.034,-5.66 5.135,-12.35 20.349,-8.93 29.861,-13.41 0.141,-0.06 0.279,-0.14 0.419,-0.21 z"
       id="path147" /><path
       fill="#f9f8f8"
       transform="scale(0.666992,0.666667)"
       d="m 415.449,970.637 c 13.464,-1.081 39.181,5.099 52.106,10.363 1.734,2.59 3.363,5.492 4.299,8.477 0.952,3.038 1.484,6.505 -0.177,9.398 -2.142,3.735 -8.635,5.555 -12.558,6.435 -9.306,2.11 -22.798,1.39 -30.963,-4.06 -1.408,-0.94 -1.585,-1.02 -1.944,-2.652 2.361,-1.222 8.54,0.944 11.502,1.002 6.083,0.118 12.389,-2.095 18.057,-4.132 -6.214,-0.621 -12.76,0.185 -18.994,0.559 -8.163,-1.38 -13.707,-7.595 -20.437,-12.002 -10.271,0.445 -17.982,3.807 -26.849,8.649 -2.701,1.475 -5.47,3.459 -8.554,3.878 l -0.814,-0.899 c 1.088,-10.277 13.765,-14.462 20.141,-21.647 5.262,0.218 10.261,0.615 15.413,1.834 3.993,0.944 13.423,5.774 16.804,5.024 -0.66,-3.447 -13.851,-5.971 -17.178,-8.485 z"
       id="path148" /><path
       fill="#4c4b4b"
       transform="scale(0.666992,0.666667)"
       d="m 135.22,359.703 q 74.047,-16.111 148.353,-30.983 0.195,11.927 -0.056,23.852 c -0.803,0.317 -1.8,0.587 -2.525,1.041 -0.657,-3.245 -0.953,-4.843 -3.933,-6.824 -4.586,-3.048 -10.663,-4.576 -15.865,-6.368 -6.008,1.828 -14.184,2.806 -19.633,5.49 l -0.142,0.426 c -0.381,1.119 -0.715,1.952 -1.459,2.897 q -17.753,4.068 -35.6,7.702 c -7.639,1.507 -15.88,2.506 -23.33,4.726 -2.06,0.614 -3.307,1.092 -4.659,2.808 0.53,2.024 1.716,3.185 3.088,4.716 l -1.773,1.98 c -3.003,-0.492 -8.703,-6.461 -11.519,-8.544 -9.979,3.376 -20.641,5.251 -30.919,7.538 z"
       id="path149" /><path
       fill="#f9f8f8"
       transform="scale(0.666992,0.666667)"
       d="m 200.948,1199.3 c 4.558,2.2 16.694,1.31 22.521,2.62 5.887,1.32 13.879,4.47 17.03,9.99 1.214,2.13 1.53,4.6 0.825,6.95 -1.28,4.28 -5.399,7.38 -9.196,9.36 -3.838,2.01 -12.297,5.08 -16.45,3.73 -4.661,2.55 -12.442,1.43 -17.443,0.51 -7.251,-1.34 -17.815,-4.52 -22.03,-11.15 -1.324,-2.09 -1.834,-4.55 -1.158,-6.95 3.579,-12.75 17.136,-10.02 25.536,-14.83 0.124,-0.07 0.243,-0.15 0.365,-0.23 z"
       id="path151" /><path
       fill="#f9f8f8"
       transform="scale(0.666992,0.666667)"
       d="m 666.794,729.15 c 2.015,0.205 4.376,0.127 6.007,1.439 -2.02,8.599 -6.327,16.575 -8.38,25.228 -5.713,24.085 -4.964,49.513 -4.995,74.093 -2.628,2.246 -5.44,4.98 -8.642,6.329 -0.28,0.118 -0.568,0.218 -0.85,0.33 -3.639,1.433 -7.512,1.283 -11.366,1.34 -1.453,-0.102 -2.504,-0.414 -3.861,-0.892 -0.696,-0.779 -1.101,-1.352 -1.336,-2.393 -1.197,-5.314 0.179,-11.631 1.059,-16.914 5.034,-30.238 16.727,-62.136 32.364,-88.56 z"
       id="path154" /><path
       fill="#7a7979"
       transform="scale(0.666992,0.666667)"
       d="m 247.418,639.572 c 5.76,1.51 11.458,2.223 17.358,2.9 -3.615,9.636 -6.313,19.565 -9.407,29.373 -6.787,21.519 -13.602,43.402 -22.096,64.298 l -9.597,3.035 -12.815,3.583 c 5.308,-11.39 9.172,-23.581 13.355,-35.425 z"
       id="path155" /><path
       fill="#7a7979"
       transform="scale(0.666992,0.666667)"
       d="m 224.756,497.373 c 1.453,-0.202 1.383,-0.254 2.577,0.585 0.928,25.232 0.132,50.775 0.137,76.04 l -22.129,5.642 -1.696,0.253 -1.058,-0.84 c -0.619,-8.56 -0.185,-17.449 -0.201,-26.047 l -0.08,-50.114 c 7.407,-2.055 14.979,-3.697 22.45,-5.519 z"
       id="path156" /><path
       fill="#f9f8f8"
       transform="scale(0.666992,0.666667)"
       d="m 686.05,1024.2 c 6.161,0.52 12.577,4.63 18.462,4.31 -2.829,2.16 -9.222,4.23 -12.768,4.39 6.056,0.39 11.709,-2.49 17.497,-0.42 2.675,0.95 5.91,2.89 7.01,5.66 0.472,1.19 0.36,1.49 -0.103,2.58 -0.658,0.37 -1.341,0.81 -2.107,0.93 -1.585,0.26 -3.303,0.28 -4.621,-0.62 0.652,-0.8 1.349,-1.61 1.909,-2.48 0.802,-1.24 1.115,-1.89 0.814,-3.34 -3.708,1.57 -4.588,6.07 -8.433,7.44 6.422,3.48 15.401,2.15 22.206,5.24 2.249,1.02 2.962,1.71 3.784,3.97 -0.704,3.6 -5.736,8.64 -8.397,11.26 -3.205,-0.08 -6.539,-1.41 -9.447,0.54 0.354,0.47 0.373,0.56 0.939,0.93 2.49,1.65 10.934,2.94 13.761,2.14 2.615,2.01 5.699,2.81 8.953,2.83 0.349,4.64 0.342,9.31 -0.692,13.86 -0.202,0.09 -0.4,0.2 -0.607,0.28 -3.682,1.5 -33.309,-1.34 -37.567,-3.29 2.33,-2.43 2.953,-7.1 3.609,-10.27 -4.687,-14.91 -10.915,-24.6 -26.879,-28.02 -3.964,-0.85 -8.47,-0.98 -12.062,-2.95 0.13,-0.45 0.18,-0.72 0.388,-1.12 3.502,-6.67 17.533,-11.16 24.351,-13.85 z"
       id="path157" /><path
       fill="#4c4b4b"
       transform="scale(0.666992,0.666667)"
       d="m 331.288,1222.68 c 1.374,0.19 2.419,0.47 3.71,0.98 -1.281,1.88 -5.213,2.9 -7.263,3.94 -5.206,2.65 -9.409,5.62 -11.27,11.43 -2.023,6.32 -1.763,14.03 1.452,19.92 3.237,5.93 9.315,8.81 15.584,10.51 6.76,1.85 20.197,4.7 26.364,1.17 -0.147,0.15 -0.298,0.3 -0.439,0.46 -0.654,0.74 -1.259,1.51 -2.048,2.12 -4.743,3.68 -20.57,12 -26.273,11.26 -0.193,0.04 -0.382,0.1 -0.577,0.11 -3.214,0.19 -13.558,-4.89 -15.834,-7.18 -0.316,0.02 -0.874,0.09 -1.222,0.06 -4.083,-0.4 -46.41,-18.33 -52.115,-21.25 -1.248,-0.64 -2.097,-1.42 -2.947,-2.54 5.062,-0.17 68.5,-26.98 72.878,-30.99 z"
       id="path158"
       style="fill:#999898;fill-opacity:1" /><path
       fill="#7a7979"
       transform="scale(0.666992,0.666667)"
       d="m 280.212,638.567 1.859,-0.144 0.81,1.254 c 0.065,10.375 0.747,21.354 -0.425,31.649 -1.536,13.504 -11.233,42.006 -15.818,56.069 q -12.707,3.121 -25.268,6.788 l -1.65,0.31 c -0.164,-0.412 -0.506,-0.793 -0.492,-1.237 0.099,-3.122 5.299,-14.878 6.636,-18.852 8.244,-24.499 17.413,-49.407 23.972,-74.385 z"
       id="path159" /><path
       fill="#7a7979"
       transform="scale(0.666992,0.666667)"
       d="m 245.232,363.954 c 1.144,-0.317 1.754,-0.269 2.908,-0.01 1.676,7.332 0.526,17.32 0.544,24.949 l 0.118,55.439 -23.497,5.405 c -0.963,0.142 -1.771,0.06 -2.743,0 -1.709,-3.888 -0.404,-70.79 -0.374,-81.077 7.707,-1.274 15.391,-3.116 23.044,-4.706 z"
       id="path163" /><path
       fill="#7a7979"
       transform="scale(0.666992,0.666667)"
       d="m 281.749,565.589 1.326,0.351 c 1.118,4.053 0.502,9.08 0.434,13.287 -18.162,5.693 -37.131,9.818 -55.594,14.516 l -90.472,23.53 c -0.651,-0.031 -1.052,-0.27 -1.636,-0.537 -1.212,-4.453 -0.643,-9.783 -0.609,-14.384 48.919,-11.666 97.878,-24.1 146.551,-36.763 z"
       id="path164" /><path
       fill="#7a7979"
       transform="scale(0.666992,0.666667)"
       d="m 214.33,369.921 2.476,-0.392 0.751,0.73 c 0.752,9.756 0.199,19.776 0.165,29.563 l -0.017,51.365 c -8.022,1.574 -15.977,3.53 -23.939,5.379 l -1.74,0.088 c -0.315,-0.327 -0.787,-0.555 -0.945,-0.98 -1.176,-3.157 -0.328,-72.363 -0.359,-81.119 7.923,-1.09 15.783,-2.982 23.608,-4.634 z"
       id="path165" /><path
       fill="#f9f8f8"
       transform="scale(0.666992,0.666667)"
       d="m 662.962,579.427 c -2.813,-1.773 -5.621,-3.56 -8.793,-4.614 -9.089,-3.019 -21.427,-2.91 -24.187,-14.362 -1.085,-4.501 -0.522,-10.583 2.171,-14.423 2.805,-4.001 7.397,-5.782 11.802,-7.413 8.879,36.94 47.687,44.057 67.75,72.038 -9.304,-2.574 -16.123,-3.274 -25.361,0.243 0.388,-4.22 0.863,-8.451 1.08,-12.683 -1.371,3.513 -2.663,7.787 -4.795,10.891 -3.501,5.096 -9.491,9.408 -11.546,15.298 -1.249,3.577 -1.363,13.61 -3.599,15.784 -2.684,-1.506 -4.246,-3.864 -5.094,-6.801 -1.608,-5.574 -0.73,-11.961 -0.57,-17.685 0.448,-16.039 -5.675,-29.252 -20.045,-37.357 -2.346,-1.323 -4.805,-2.495 -7.225,-3.675 l 0.624,-0.672 c 9.134,3.864 18.246,3.638 27.788,5.431 z"
       id="path167" /><path
       fill="#7a7979"
       transform="scale(0.666992,0.666667)"
       d="m 215.117,643.99 c 7.82,2.524 15.555,4.971 23.748,5.926 -7.631,22.392 -16.909,44.437 -24.898,66.753 -3.317,9.269 -6.877,18.53 -9.232,28.101 -7.321,1.961 -17.27,-4.033 -23.826,-6.977 12.424,-30.842 23.147,-62.453 34.208,-93.803 z"
       id="path168" /><path
       fill="#7a7979"
       transform="scale(0.666992,0.666667)"
       d="m 282.888,727.575 c 6.304,-1.016 19.966,7.647 25.736,10.488 -17.411,5.375 -35.23,9.776 -52.785,14.692 l -101.854,28.503 -18.781,5.523 -0.003,-18.418 q 74.075,-19.556 147.687,-40.788 z"
       id="path170" /><path
       fill="#f9f8f8"
       transform="scale(0.666992,0.666667)"
       d="m 606.732,1032.2 c 15.648,2.13 61.988,17.53 73.639,14.12 1.529,2.22 4.589,3.83 6.628,5.64 5.555,4.92 6.422,10.61 9.421,16.96 l 0.197,0.41 c -0.691,0.61 -1.425,1.21 -2.255,1.63 -11.025,5.54 -38.406,4.42 -50.817,3.22 -8.725,-0.83 -17.589,-2.88 -26.316,-1.32 -10.853,1.95 -24.878,10.6 -35.665,6.17 4.804,0.61 22.767,-8.61 28.774,-10.99 4.544,-1.8 9.894,-4.42 14.739,-5.15 2.906,-0.43 6.809,0.49 9.227,-1.05 l -0.413,-1.49 c -5.086,-4.25 -22.402,-2.96 -28.655,-1.98 -2.921,0.46 -7.026,2.36 -9.779,2.01 -0.269,-0.04 -0.536,-0.09 -0.803,-0.13 -0.111,0.1 -0.218,0.21 -0.333,0.3 -5.088,4.28 -21.461,8.1 -27.853,7.66 l -0.449,-0.72 c 9.413,-6.45 21.055,-10.05 31.258,-15.14 7.809,-3.9 23.941,0.85 33.184,-1 l -0.403,-0.81 c -30.955,-12.32 -50.979,13.18 -65.331,9.68 9.018,-0.2 20.73,-12.46 30.157,-15.36 11.573,-3.56 23.898,2.43 34.792,-2.93 -8.696,2.12 -22.049,-3.89 -34.022,-1.34 -3.936,0.84 -10.044,4.45 -13.918,2.86 6.969,-5.14 18.029,-5.17 24.647,-10.92 0.119,-0.11 0.232,-0.22 0.349,-0.33 z"
       id="path171" /><path
       fill="#4c4b4b"
       transform="scale(0.666992,0.666667)"
       d="m 172.069,1170.3 c 3.357,3.21 112.039,50.08 115.712,50.25 0.697,0.03 0.703,0 1.283,-0.13 -6.249,5.78 -39.561,16.77 -49.679,21.43 l -1.601,-0.15 -0.792,-1.18 c 2.936,-2.13 6.538,-3.93 7.143,-7.78 1.266,-8.07 3.942,-16.69 -1.489,-23.86 -5.92,-7.82 -18.002,-10.81 -27.193,-11.99 -12.219,-1.55 -28.149,-0.32 -38.234,7.55 -8.017,6.26 -3.964,11.03 -6.647,16 -5.698,-1.69 -31.818,-12.34 -35.026,-15.4 l -0.137,-19.01 c 2.236,0.17 34.125,-13.51 35.843,-14.89 0.356,-0.28 0.502,-0.49 0.817,-0.84 z"
       id="path172"
       style="fill:#999797;fill-opacity:1" /><path
       fill="#f9f8f8"
       transform="scale(0.666992,0.666667)"
       d="m 858.116,789.459 c 3.906,0.538 13.511,10.319 15.958,13.534 12.356,16.233 7.435,46.189 4.779,65.052 -1.65,11.722 -12.381,84.061 -18.292,88.514 l -0.272,-3.124 c -0.798,-13.098 -0.668,-26.295 -1.103,-39.419 q -1.112,-37.971 -4.113,-75.839 c -2.16,-26.92 -6.418,-27.698 -25.547,-43.978 9.519,-2.371 18.83,-3.759 28.59,-4.74 z"
       id="path174" /><path
       fill="#f9f8f8"
       transform="scale(0.666992,0.666667)"
       d="m 834.632,752.721 c 13.029,4.388 47.349,34.068 54.503,45.917 1.068,24.619 0.509,49.495 0.562,74.138 0.034,16.307 1.194,33.644 -0.492,49.853 -1.008,9.695 -3.508,19.325 -5.706,28.806 -4.916,21.202 -10.841,42.194 -16.32,63.255 -5.397,20.75 -9.274,42.15 -15.609,62.6 -0.16,0.03 -0.317,0.08 -0.478,0.08 -2.409,0.1 -4.9,-1.66 -6.63,-3.16 -0.169,0.05 -0.333,0.11 -0.506,0.14 -2.303,0.34 -4.133,-1.07 -5.753,-2.49 q 1.349,-11.31 2.482,-22.65 c 3.266,0.39 7.681,-1.55 10.341,-3.42 4.664,-3.29 7.365,-7.87 8.544,-13.37 3.811,-17.81 -1.004,-37.136 1.207,-55.141 1.22,-9.933 5.177,-19.793 7.927,-29.408 3.468,-12.125 6.308,-24.874 8.489,-37.294 1.906,-10.848 3.268,-21.816 4.807,-32.722 2.976,-21.073 10.407,-60.378 -4.191,-77.94 -6.167,-7.42 -14.74,-11.542 -21.666,-18.005 -8.469,-7.903 -14.859,-19.692 -21.511,-29.189 z"
       id="path175" /><path
       fill="#f9f8f8"
       transform="scale(0.666992,0.666667)"
       d="m 654.217,702.543 1.182,0.687 q 0.802,6.12 1.484,12.255 c -16.366,17.707 -47.342,80.309 -54.381,103.45 4.76,16.63 16.39,31.304 30.244,41.333 -2.288,2.766 -4.594,5.539 -6.688,8.454 -4.144,5.767 -7.407,11.818 -8.691,18.864 -4.744,26.023 8.501,60.108 14.945,85.068 2.089,8.092 3.441,16.362 4.818,24.6 0.702,3.886 1.665,7.406 0.516,11.306 l 0.153,-1.05 -1.338,-0.37 c -2.896,-10.456 -3.638,-21.884 -6.224,-32.52 -3.542,-14.571 -9.617,-28.434 -14.9,-42.428 -18.445,-48.851 -29.279,-116.021 -6.871,-165.117 5.448,-11.936 31.446,-53.189 40.713,-61.772 1.457,-1.349 3.203,-2.075 5.038,-2.76 z"
       id="path176" /><path
       fill="#4c4b4b"
       transform="scale(0.666992,0.666667)"
       d="m 232.76,1264.27 c 0.818,0.77 1.685,1.5 2.707,1.99 5.46,2.59 73.171,29.7 73.377,29.69 0.329,-0.01 0.657,-0.05 0.985,-0.08 -4.301,4.73 -12.589,6.82 -18.802,7.17 -16.05,0.89 -35.536,-2.55 -47.922,10.87 -3.452,3.74 -4.402,8.17 -4.169,13.1 0.183,3.87 0.933,7.6 2.352,11.2 -2.021,2.09 -8.725,6.09 -11.695,5.97 -0.138,0 -0.273,-0.04 -0.409,-0.06 -3.035,0.35 -6.693,-0.94 -9.063,-2.86 -0.698,-0.56 -0.651,-0.54 -1.174,-1.1 2.782,-7.32 3.442,-20.72 0.127,-27.93 -4.197,-9.13 -14.566,-14.71 -23.61,-17.92 -6.255,-2.22 -19.759,-3.12 -22.857,-4.67 1.294,-0.41 1.468,-0.9 2.284,-1.95 l 1.714,1.2 c 6.175,-1.13 53.102,-21.01 56.155,-24.62 z"
       id="path177"
       style="fill:#9a9999;fill-opacity:1" /><path
       fill="#f9f8f8"
       transform="scale(0.666992,0.666667)"
       d="m 670.213,825.652 c 0.586,5.422 -7.306,24.29 -9.15,30.719 -4.054,14.14 -8.305,29.814 -8.791,44.563 -1.005,30.489 15.087,89.745 30.065,116.706 -13.022,0.58 -26.551,-2.72 -38.769,-7.07 -4.338,-12.971 -4.601,-27.322 -8.148,-40.654 -0.309,-1.155 -0.409,-2.226 -0.524,-3.409 2.331,2.364 5.622,4.834 8.871,5.724 1.481,0.405 3.102,0.356 4.441,-0.467 2.231,-1.373 4.554,-4.778 5.094,-7.382 0.477,-2.297 -0.48,-4.997 -1.904,-6.79 -1.769,-2.227 -4.494,-3.569 -7.32,-3.769 -2.411,-0.171 -4.814,0.514 -6.65,2.11 -2.893,2.515 -3,5.507 -3.139,9.045 -7.109,-22.984 -14.143,-48.076 -14.021,-72.326 1.372,2.631 2.663,5.558 4.692,7.753 1.948,2.106 4.909,4.117 7.857,4.151 1.958,0.022 3.706,-1.017 5.006,-2.426 2.994,-3.245 4.648,-7.842 4.268,-12.225 -0.478,-5.522 -3.489,-11.75 -8.016,-15.099 -1.964,-1.453 -3.337,-0.907 -5.559,-0.571 1.467,-7.369 34.906,-41.527 41.697,-48.583 z"
       id="path178" /><path
       transform="scale(0.666992,0.666667)"
       d="m 633.298,920.847 c 0.723,-0.041 1.415,-0.08 2.138,-0.022 2.039,0.163 3.717,1.037 5.004,2.647 1.538,1.924 1.843,4.332 1.439,6.694 -0.701,4.094 -2.525,5.927 -5.683,8.263 -0.64,0.011 -1.279,0.015 -1.92,-0.022 -2.317,-0.133 -4.284,-0.881 -5.783,-2.733 -1.279,-1.579 -1.733,-3.667 -1.459,-5.654 0.624,-4.532 2.775,-6.662 6.264,-9.173 z"
       id="path179" /><path
       fill="#f9f8f8"
       transform="scale(0.666992,0.666667)"
       d="m 632.175,925.088 c 0.913,0.063 1.996,0.08 2.864,0.373 1.817,0.613 2.09,1.737 2.691,3.325 -0.204,2.517 -1.229,4.088 -2.53,6.157 -0.424,-0.101 -1.036,-0.231 -1.472,-0.384 -2.073,-0.728 -2.709,-1.909 -3.502,-3.766 -0.005,-2.353 0.763,-3.716 1.949,-5.705 z"
       id="path180" /><path
       transform="scale(0.666992,0.666667)"
       d="m 648.258,984.75 c 0.774,-0.09 1.546,-0.129 2.325,-0.132 3.639,-0.014 6.711,1.263 9.18,3.989 1.652,1.823 2.58,4.154 2.383,6.626 -0.282,3.553 -2.186,5.337 -4.807,7.387 -0.652,0.04 -1.308,0.06 -1.962,0.08 -3.873,0.11 -7.033,-0.64 -9.854,-3.531 -1.712,-1.757 -2.632,-3.998 -2.414,-6.462 0.322,-3.643 2.515,-5.78 5.149,-7.957 z"
       id="path181" /><path
       fill="#f9f8f8"
       transform="scale(0.666992,0.666667)"
       d="m 649.472,988.304 c 1.407,0.082 3.049,0.302 4.356,0.846 1.506,0.627 2.929,1.849 3.482,3.411 0.902,2.547 -0.153,4.571 -1.326,6.807 -2.014,-0.056 -4.135,-0.249 -5.864,-1.402 -1.542,-1.029 -2.509,-2.31 -2.789,-4.153 -0.329,-2.171 0.952,-3.844 2.141,-5.509 z"
       id="path182" /><path
       fill="#f9f8f8"
       transform="scale(0.666992,0.666667)"
       d="m 624.795,571.109 c 3.549,1.453 7.352,6.348 10.627,8.737 4.492,3.277 9.039,6.166 12.783,10.364 16.53,18.532 2.833,40.158 11.129,50.913 3.3,4.28 7.957,4.524 12.896,5.031 2.206,10.651 2.245,18.432 10.472,26.351 -9.376,16.508 -33.304,25.403 -50.562,31.77 -1.765,0.507 -3.571,1.009 -5.427,0.883 -1.625,-0.111 -3.014,-0.924 -4.02,-2.192 -3.763,-4.738 -1.79,-14.766 -1.283,-20.416 -1.772,-2.48 -3.458,-5.03 -5.18,-7.546 5.532,0.133 11.125,0.653 16.456,-1.112 2.072,-0.685 4.379,-1.513 5.399,-3.562 -1.621,-0.652 -18.171,1.17 -22.847,0.968 0.071,-3.29 0.367,-6.571 0.615,-9.852 -4.616,-3.022 -9.681,-5.353 -14.346,-8.364 7.065,-11.274 14.085,-22.643 17.408,-35.665 -5.312,-18.284 -1.358,-29.498 5.88,-46.308 z"
       id="path183" /><path
       transform="scale(0.666992,0.666667)"
       d="m 620.353,649.077 c 0.764,1.275 0.623,2.831 0.713,4.296 -2.335,3.74 -4.204,2.188 -7.81,3.027 -1.148,0.166 -1.259,0.05 -2.312,-0.475 1.444,-2.512 6.387,-4.296 8.871,-6.385 0.182,-0.152 0.359,-0.308 0.538,-0.463 z"
       id="path184" /><path
       transform="scale(0.666992,0.666667)"
       d="m 626.556,597.117 c 4.751,0.16 8.719,1.408 12.413,4.424 1.859,1.516 4.019,3.393 4.255,5.895 l -0.825,0.445 -3.752,-2.679 c -6.202,-2.951 -8.591,-2.337 -15.151,-1.887 -1.898,0.13 -3.918,0.2 -5.352,-1.062 0.164,-0.291 0.296,-0.604 0.493,-0.874 1.412,-1.933 5.696,-3.655 7.919,-4.262 z"
       id="path185" /><path
       transform="scale(0.666992,0.666667)"
       d="m 621.832,611.748 c 1.432,-0.024 2.898,-0.001 4.29,0.373 4.494,1.21 14.314,6.088 16.72,10.001 -2.213,1.223 -5.329,-0.207 -7.91,0.381 -0.317,0.073 -0.629,0.163 -0.944,0.245 -2.449,2.178 -3.809,5.391 -6.626,6.784 -0.373,-1.79 0.641,-3.492 1.282,-5.19 -0.619,-3.314 -5.349,-5.286 -7.168,-8.054 -0.988,-1.504 -0.093,-2.932 0.356,-4.54 z"
       id="path186" /><path
       fill="#7a7979"
       transform="scale(0.666992,0.666667)"
       d="m 331.545,239.45 c 2.644,-0.089 5.096,-0.262 7.66,0.545 1.986,4.036 1.362,595.112 1.539,657.251 l -3.236,3.968 c -1.368,1.622 -2.33,2.738 -4.285,3.619 -1.024,-6.995 -0.602,-14.528 -0.639,-21.61 l -0.099,-37.866 -0.327,-125.658 z"
       id="path187" /><path
       fill="#7a7979"
       transform="scale(0.666992,0.666667)"
       d="m 646.316,239.48 24.613,0.043 c 12.518,15.579 23.953,31.215 32.344,49.455 2.436,5.296 9.361,28.548 11.53,30.021 2.846,-2.475 7.635,-18.277 10.257,-22.865 7.498,-13.114 17.562,-24.311 29.276,-33.75 5.174,-4.171 11.805,-5.624 17.927,-8.08 22.512,-9.028 42.278,-17.299 67.299,-14.349 14.988,1.768 29.089,11.931 36.53,24.923 2.09,3.65 2.634,7.954 5.24,11.288 2.312,1.586 5.192,1.254 7.902,1.3 l 0.061,17.664 c -2.211,-3.084 -4.777,-5.944 -7.225,-8.844 -9.092,-10.123 -22.267,-16.824 -35.213,-20.544 q -1.143,-0.332 -2.293,-0.637 -1.151,-0.304 -2.308,-0.579 -1.158,-0.276 -2.322,-0.523 -1.164,-0.246 -2.334,-0.464 -1.17,-0.218 -2.345,-0.407 -1.175,-0.189 -2.354,-0.349 -1.179,-0.16 -2.362,-0.291 -1.183,-0.131 -2.369,-0.232 -1.186,-0.102 -2.373,-0.174 -1.188,-0.072 -2.377,-0.115 -1.19,-0.042 -2.38,-0.056 -1.19,-0.013 -2.379,0.003 -1.19,0.016 -2.38,0.062 -1.189,0.045 -2.376,0.12 -1.188,0.075 -2.374,0.179 -1.185,0.105 -2.367,0.238 -1.183,0.134 -2.362,0.296 -1.179,0.163 -2.353,0.355 -1.175,0.192 -2.344,0.412 -1.169,0.221 -2.333,0.471 -1.163,0.249 -2.32,0.528 -1.157,0.278 -2.307,0.585 -1.15,0.307 -2.292,0.642 -1.142,0.335 -2.275,0.698 -1.133,0.363 -2.257,0.754 -1.124,0.392 -2.238,0.81 -1.114,0.419 -2.217,0.865 -1.103,0.447 -2.195,0.92 -1.091,0.473 -2.171,0.974 -1.08,0.5 -2.147,1.027 -1.067,0.526 -2.121,1.079 -1.053,0.553 -2.093,1.132 c -22.447,12.537 -41.511,36.351 -50.017,60.582 -1.959,5.581 -2.402,11.763 -4.064,17.464 -0.704,2.413 -1.416,3.752 -3.658,4.949 -1.856,-0.339 -3.478,-0.805 -4.642,-2.421 -1.51,-2.097 -3.443,-16.436 -4.428,-20.284 q -0.884,-3.455 -1.902,-6.874 -1.019,-3.418 -2.171,-6.793 -1.152,-3.376 -2.435,-6.704 -1.283,-3.328 -2.695,-6.603 -1.413,-3.275 -2.953,-6.492 -1.54,-3.217 -3.205,-6.372 -1.664,-3.154 -3.452,-6.241 -1.787,-3.086 -3.693,-6.101 -1.907,-3.014 -3.931,-5.952 -2.023,-2.937 -4.16,-5.793 -2.137,-2.856 -4.385,-5.626 -2.247,-2.769 -4.601,-5.449 -2.354,-2.68 -4.812,-5.265 -2.457,-2.586 -5.014,-5.073 -2.557,-2.487 -5.209,-4.872 -2.652,-2.386 -5.396,-4.665 z"
       id="path188" /><path
       fill="#7a7979"
       transform="scale(0.666992,0.666667)"
       d="m 318.67,239.343 8.472,0.03 0.82,457.006 0.514,141.429 c 0.041,22.485 1.045,45.405 0.004,67.829 -0.117,2.504 -0.079,3.462 -1.732,5.378 l -8.085,2.725 z"
       id="path189" /><path
       fill="#f9f8f8"
       transform="scale(0.666992,0.666667)"
       d="m 887.162,1189.68 c 1.091,0.2 1.929,0.65 2.917,1.13 1.367,12.02 1.155,43.55 -0.44,56.02 -0.137,0.17 -0.269,0.34 -0.412,0.49 -1.999,2.23 -13.651,6.51 -16.988,8.11 -15.526,7.48 -30.476,16.14 -46.08,23.46 -1.07,0.51 -1.866,0.61 -3.028,0.68 -0.189,0.01 -0.377,0.04 -0.566,0.03 -3.123,-0.24 -32.096,-19.28 -34.688,-22.34 -0.218,-0.01 -0.437,-0.02 -0.655,-0.04 -3.853,-0.37 -23.441,-13.48 -25.892,-16.71 0.413,0.05 0.829,0.07 1.244,0.08 2.333,0.03 121.087,-47.66 124.588,-50.91 z"
       id="path190" /><path
       fill="#7a7979"
       transform="scale(0.666992,0.666667)"
       d="m 344.129,239.434 c 2.403,-0.046 5.098,-0.445 7.253,0.75 1.233,9.407 0.209,20.163 0.188,29.693 l -0.028,60.928 0.178,221.727 0.038,89.128 c 0.01,8.788 1.313,26.238 0.123,33.941 -0.174,1.126 -0.904,2.191 -1.517,3.127 -0.522,0.798 -0.326,0.869 -0.203,1.782 8.466,5.847 74.073,19.159 87.953,22.475 41.097,9.818 82.131,20.146 123.326,29.531 10.157,2.313 44.862,8.691 51.953,13.044 -0.042,2.533 -1.442,4.137 -2.705,6.292 l -2.979,5.414 c -11.096,-3.187 -22.586,-5.454 -33.802,-8.237 l -67.109,-16.708 -162.266,-39.78 z"
       id="path191" /><path
       fill="#f9f8f8"
       transform="scale(0.666992,0.666667)"
       d="m 528.74,976.646 c 11.037,-2.272 114.465,45.314 142.792,46.694 3.839,0.19 7.931,-1.13 11.635,-2.08 -6.872,2.9 -15.254,5.72 -20.98,10.58 -2.372,2.01 -4.184,4.61 -6.479,6.72 -14.353,-0.39 -33.958,-11.96 -48.632,-8.95 -8.998,1.84 -22.525,10.82 -29.409,12.17 -0.321,0.06 -0.644,0.11 -0.966,0.16 -6.945,1.03 -18.69,-8.98 -26.159,-10.07 l -3.658,-0.56 c -2.787,1.83 -76.193,11.19 -85.634,12.11 -6.32,0.61 -4.169,-11.89 -11.529,-17.67 -10.238,-8.04 -28.746,-7.08 -41.055,-5.49 l 0.44,-0.37 c 0.242,-0.2 0.481,-0.41 0.725,-0.62 2.909,-2.41 5.113,-4.9 7.444,-7.89 q 1.142,0.44 2.302,0.83 c 18.442,6.22 32.828,5.91 50.266,-2.69 3.827,2.56 7.279,3.69 11.921,3.64 8.321,-0.1 19.306,-4.26 25.014,-10.48 1.834,-1.99 2.158,-3.158 2.141,-5.717 -2.555,-2.861 -9.87,-1.763 -13.605,-4.824 -1.076,-2.384 -0.039,-4.954 0.547,-7.391 11.133,-2.069 21.966,-5.12 32.879,-8.102 z"
       id="path192" /><path
       fill="#f9f8f8"
       transform="scale(0.666992,0.666667)"
       d="m 645.775,538.298 c 31.442,-4.677 76.613,-7.115 103.734,12.781 17.543,12.87 29.686,33.619 32.683,55.076 1.972,14.115 0.602,28.829 -8.216,40.502 -3.951,5.229 -8.984,9.312 -14.302,13.073 6.689,-13.116 11.688,-27.855 6.878,-42.561 q -0.708,-2.14 -1.506,-4.247 c 1.113,15.965 0.666,32.463 -10.475,45.2 -3.807,4.353 -7.99,6.944 -13.01,9.667 11.284,-11.235 15.384,-23.753 15.454,-39.675 0.122,-27.907 -12.529,-52.286 -31.894,-71.676 -3.598,-3.602 -13.594,-13.732 -18.52,-14.221 3.077,4.385 13.502,11.895 18.086,16.806 20.358,21.803 32.277,53.071 27.254,82.873 -1.616,9.584 -5.496,18.107 -13.624,23.848 -2.403,1.698 -5.269,2.858 -7.925,4.108 11.784,-11.709 16.857,-23.644 16.958,-40.401 0.143,-23.597 -11.554,-48.587 -28.274,-65.135 q -1.589,-1.562 -3.295,-2.995 c 15.339,20.077 32.035,45.753 28.368,72.333 -1.026,7.441 -4.992,21.465 -10.902,26.514 -1.75,-0.805 -3.74,2.132 -5.308,3.347 -7.994,6.194 -17.935,7.508 -27.752,7.641 l -0.587,-1.29 -0.121,1.251 -1.76,-0.441 c 4.341,-3.205 13.21,0.007 21.389,-7.789 2.232,-2.128 4.493,-5.28 4.482,-8.447 -10e-4,-0.156 -0.013,-0.312 -0.019,-0.468 4.034,-11.794 4.009,-23.761 -1.479,-35.133 -17.567,-36.397 -64.529,-43.215 -76.317,-80.541 z"
       id="path193" /><path
       fill="#4c4b4b"
       transform="scale(0.666992,0.666667)"
       d="m 281.197,585.147 c 0.651,0.028 1.036,0.304 1.606,0.596 1.743,8.811 0.155,26.405 0.035,36.086 -7.729,-4.104 -22.499,-11.672 -31.278,-11.253 -4.245,2.017 -6.249,8.929 -8.008,13.062 -8.791,-2.417 -16.152,-0.86 -25.112,-0.503 -3.929,12.257 -9.046,24.292 -13.438,36.406 q -14.37,40.538 -29.706,80.722 c 6.56,2.334 12.973,5.357 19.353,8.146 -10.443,1.952 -20.804,4.896 -31.118,7.45 l -13.348,3.255 0.139,-121.27 c -5.097,-2.991 -12.323,-4.598 -15.378,-9.996 -0.211,-2.171 -0.132,-2.629 0.752,-4.624 12.3,-5.927 29.663,-8.412 42.999,-11.85 z"
       id="path194" /><path
       fill="#f9f8f8"
       transform="scale(0.666992,0.666667)"
       d="m 602.911,767.217 c -0.003,4.991 -5.299,14.876 -6.658,20.398 -2.82,11.466 -4.461,23.638 -5.406,35.395 -1.728,21.509 0.728,42.334 3.305,63.64 1.146,9.473 3.426,20.255 2.777,29.724 -0.581,8.472 -4.078,18.203 -8.145,25.611 -3.641,6.632 -8.945,13.823 -15.568,17.744 -12.196,7.219 -30.074,8.491 -43.823,11.86 -10.812,2.649 -21.523,5.868 -32.232,8.91 -0.767,-2.543 -1.669,-5.17 -2.748,-7.596 -4.413,-9.923 -12.771,-13.683 -22.298,-17.396 -1.156,-0.599 -1.384,-0.582 -1.925,-1.741 0.603,-0.806 1.107,-1.406 1.956,-1.97 7.987,-5.304 63.372,-39.479 68.197,-40.694 6.993,-1.761 14.259,0.054 21.127,1.485 -0.464,-1.291 -1.524,-1.95 -2.617,-2.698 -6.417,-4.391 -16.641,-2.496 -23.755,-1.162 8.659,-15.078 16.799,-30.752 23.001,-47.007 12.445,-32.616 18.501,-69.432 44.812,-94.503 z"
       id="path195" /><path
       fill="#4c4b4b"
       transform="scale(0.666992,0.666667)"
       d="m 345.695,873.145 c 22.257,6.332 45.596,15.245 67.724,22.615 30.835,10.271 61.926,19.767 92.814,29.884 -13.594,9.114 -27.794,17.503 -41.564,26.38 -17.021,-7.354 -74.534,-32.846 -88.765,-33.625 -19.52,-1.068 -77.681,24.864 -98.934,32.62 -14.427,6.624 -30.57,11.226 -45.528,16.601 l -96.288,34.49 0.457,-22.622 119.291,-39.864 c 12.567,-4.228 64.496,-23.324 75.424,-23.38 3.468,-4.25 7.001,-8.705 11.185,-12.268 1.495,-0.286 2.718,-0.593 4.089,-1.262 1.622,-9.042 0.205,-20.294 0.095,-29.569 z"
       id="path196"
       style="fill:#999999;fill-opacity:1" /><path
       fill="#7a7979"
       transform="scale(0.666992,0.666667)"
       d="m 314.374,752.411 c 1.785,6.739 0.327,31.18 0.326,39.909 l -0.127,122.872 -179.124,59.679 -0.062,-17.865 c 44.071,-16.135 89.46,-28.785 134.119,-43.128 6.982,-2.239 13.982,-4.422 20.852,-6.989 1.116,-13.817 0.144,-28.509 0.121,-42.421 l -0.166,-85.956 c -16.656,4.198 -33.132,9.635 -49.637,14.419 q -52.963,15.159 -105.662,31.215 l -0.158,-18.874 q 64.711,-17.711 128.828,-37.461 c 16.719,-5.088 34.423,-9.152 50.69,-15.4 z"
       id="path197"
       style="fill:#999898;fill-opacity:1" /><path
       fill="#7a7979"
       transform="scale(0.666992,0.666667)"
       d="m 344.293,696.319 c 38.438,11.269 78.041,20.17 116.954,29.722 47.529,11.667 94.994,23.853 142.674,34.866 -6.886,6.347 -13.047,12.133 -18.264,20.045 q -0.513,-0.191 -1.031,-0.369 c -9.713,-3.372 -20.055,-5.676 -30.001,-8.339 l -64.12,-16.717 -81.277,-21.147 c -17.65,-4.705 -35.399,-10.151 -53.213,-14.15 -1.981,-0.444 -3.711,-0.9 -5.575,-0.006 -0.275,0.495 -0.795,0.92 -0.823,1.485 -0.016,0.302 1.422,1.735 1.597,2.176 0.448,1.125 0.399,3.633 0.386,4.861 l -0.354,57.198 0.504,65.662 127.93,40.28 c 15.535,4.789 30.954,9.894 46.653,14.137 l 0.106,1.795 1.601,0.133 0.531,-1.147 -0.243,-0.149 1.261,1.345 0.681,-0.171 -0.231,1.633 c -4.002,5.691 -12.047,9.521 -17.908,13.052 -55.968,-15.746 -111.32,-37.699 -166.957,-53.925 q -1.274,-86.131 -0.881,-172.27 z"
       id="path198" /><path
       fill="#f9f8f8"
       transform="scale(0.666992,0.666667)"
       d="m 548.508,1037.59 c 0.913,0.35 0.555,0.31 1.419,0.33 9.055,0.25 23.163,10.98 30.035,9.89 -4.499,5.81 -13.206,6.13 -17.558,11.37 -1.394,1.69 -0.788,3.93 -0.65,5.95 -0.547,0.73 -1.034,1.42 -1.459,2.23 -0.807,1.55 -0.964,1.56 -0.451,3.25 0.817,0.64 1.504,1.15 2.536,1.4 3.255,0.76 32.972,-2.65 35.541,-4.1 -4.944,5.66 -14.317,6.78 -19.441,12.54 l 0.392,1.91 c 0.566,0.5 1.038,0.92 1.762,1.18 12.095,4.27 30.048,-8.26 43.997,-7.32 5.513,0.37 17.943,3.52 22.62,1.1 -0.988,0.99 -2.031,1.91 -3.264,2.58 -5.722,3.09 -12.143,5.38 -18.089,8.05 l -36.723,16.78 c -14.134,6.49 -93.572,45.37 -101.057,46.35 -0.284,0.03 -0.566,0.1 -0.852,0.1 -4.48,0 -74.833,-30 -78.028,-32.73 -1.198,0.18 -1.952,-0.03 -3.099,-0.39 -2.347,-0.76 -3.381,-2.04 -4.482,-4.16 l 0.427,-1.29 c 3.291,-0.65 7.86,1.59 11.162,2.35 10.451,2.41 22.847,1.63 32.845,-2.28 7.568,-2.96 12.413,-7.11 15.648,-14.55 2.495,1.49 5.181,2.62 7.833,3.8 7.369,3.27 38.163,17.46 44.014,15.22 -2.961,-0.17 -50.352,-21.25 -52.268,-23.04 0.188,-9.49 0.008,-19.01 0.006,-28.5 0.595,0.74 1.23,1.36 1.997,1.92 8.803,6.42 61.098,29.44 69.377,28.36 -4.112,0.1 -15.933,-8.23 -20.787,-10.46 -11.171,-5.14 -23.134,-9.22 -34.666,-13.52 -5.127,-1.92 -11.398,-3.54 -15.98,-6.52 -0.438,-3.58 -1.416,-11.55 0.037,-14.82 1.552,-3.49 76.309,-8.96 87.206,-12.98 z"
       id="path199" /><path
       fill="#7a7979"
       transform="scale(0.666992,0.666667)"
       d="m 288.696,239.603 c 8.478,-0.246 16.98,-0.199 25.462,-0.265 l 0.423,360.376 0.319,93.799 c 0.051,11.2 1.388,31.382 -0.141,41.745 l -1.475,0.487 c -8.381,-3.852 -16.82,-7.612 -25.009,-11.86 l 0.251,-272.995 0.07,-124.758 c -0.095,-28.781 -1.068,-57.784 0.1,-86.529 z"
       id="path201"
       style="fill:#999898;fill-opacity:1" /><path
       fill="#4c4b4b"
       transform="scale(0.666992,0.666667)"
       d="m 214.472,1152.13 c 11.194,1.37 55.154,21.4 67.821,26.54 q 94.151,37.98 187.709,77.4 c 32.577,13.62 64.798,28.09 97.721,40.87 1.852,0.72 3.062,1.32 5.076,1.1 q -0.786,0.92 -1.746,1.66 c -5.014,3.83 -33.733,14.35 -41.011,17.43 -18.17,7.71 -36.053,16.84 -54.628,23.53 -1.451,0.53 -2.373,0.61 -3.896,0.45 -0.743,0.19 -1.514,0.43 -2.294,0.4 -2.128,-0.09 -3.756,-1.56 -5.228,-2.93 -0.266,0.05 -0.529,0.14 -0.799,0.16 -3.784,0.29 -102.197,-38.1 -109.449,-44.29 1.555,0.33 2.547,0.17 4.039,-0.33 16.042,-5.39 31.765,-13.05 47.484,-19.37 10.456,-4.21 23.977,-7.51 33.437,-13.49 -1.39,-4.06 -20.781,-8.19 -25.147,-11.95 -0.115,-0.1 -0.224,-0.2 -0.336,-0.31 -0.801,1.04 -1.579,1.63 -2.702,2.32 -4.162,2.55 -12.089,6.82 -17.021,5.64 1.091,-6.34 0.908,-14.71 -2.276,-20.5 -6.447,-11.73 -26.087,-13.63 -38.065,-13.67 -3.748,-0.02 -8.147,0.93 -11.732,-0.16 -0.148,-0.04 -0.293,-0.1 -0.439,-0.15 -0.732,0.08 -0.794,0.13 -1.634,-0.04 -3.738,-0.77 -24.259,-11.2 -29.718,-13.49 -35.813,-15.05 -72.322,-28.85 -107.757,-44.74 -2.56,-1.14 -4.795,-2.01 -6.447,-4.38 0.332,0.03 0.83,0.11 1.187,0.08 3.954,-0.26 15.003,-4.93 17.851,-7.78 z"
       id="path202" /><path
       transform="scale(0.666992,0.666667)"
       d="m 461.905,1263.11 c 2.492,1.02 5.533,0.69 8.206,0.88 8.269,0.6 22.245,1.6 27.979,8.21 5.631,6.5 5.753,21.37 5.196,29.58 -0.42,0.97 -0.861,1.94 -1.435,2.83 -3.675,5.67 -12.421,9.09 -18.716,10.44 -3.831,0.82 -10.463,2.1 -13.894,-0.11 -0.125,0.06 -0.252,0.12 -0.376,0.19 -4.195,2.24 -11.817,0.58 -16.271,-0.5 -8.336,-2.02 -19.157,-6.09 -23.598,-14.05 -2.741,-4.91 -1.4,-15.01 0.093,-20.35 4.721,-16.89 23.17,-11.42 32.466,-16.9 0.119,-0.07 0.233,-0.15 0.35,-0.22 z"
       id="path203" /><path
       fill="#f9f8f8"
       transform="scale(0.666992,0.666667)"
       d="m 456.873,1266.74 c 3.868,1.69 21.884,0.84 30.126,3.46 4.274,1.36 8.17,3.79 10.207,7.95 1.081,2.2 1.617,4.4 0.709,6.78 -1.39,3.63 -5.19,6.04 -8.621,7.53 -3.836,1.66 -11.542,4.02 -15.548,2.4 -3.468,2.1 -8.427,1.81 -12.329,1.55 -8.195,-0.55 -20.462,-3.29 -25.992,-9.96 -1.486,-1.8 -2.465,-4.08 -2.034,-6.44 1.685,-9.21 16.89,-8.95 23.104,-13.01 0.128,-0.08 0.252,-0.17 0.378,-0.26 z"
       id="path205" /><path
       fill="#f9f8f8"
       transform="scale(0.666992,0.666667)"
       d="m 741.821,676.023 q 0.684,0.108 1.364,0.235 c 36.677,6.842 86.035,78.576 107.007,108.825 -27.114,0.015 -89.331,30.775 -113.577,44.912 -10.322,6.018 -20.059,12.764 -29.575,19.975 -21.16,15.874 -36.247,34.489 -49.675,57.057 1.222,-44.378 33.595,-120.542 57.14,-157.458 3.069,-4.812 6.09,-9.728 9.648,-14.198 6.065,-7.62 13.879,-15.269 18.482,-23.8 5.416,-10.04 2.294,-25.085 -0.814,-35.548 z"
       id="path206" /><path
       fill="#7a7979"
       transform="scale(0.666992,0.666667)"
       d="m 267.047,789.866 1.027,0.063 0.389,0.857 c -2.299,5.116 -5.044,12.475 -2.76,17.98 1.161,2.798 3.363,4.565 6.195,5.512 5.182,1.733 9.245,-0.434 13.848,-2.584 q -0.18,33.735 0.015,67.469 c -7.493,2.487 -15.046,5.951 -19.887,12.45 -4.496,6.036 -5.124,12.329 -4.033,19.545 -36.12,10.91 -72.076,22.942 -107.868,34.893 q -9.464,2.99 -18.794,6.373 -0.782,-61.898 -0.346,-123.797 c 16.289,-4.298 32.362,-9.615 48.513,-14.413 z"
       id="path207" /><path
       fill="#f9f8f8"
       transform="scale(0.666992,0.666667)"
       d="m 791.546,1119.79 c 18.675,6.58 85.71,48.01 98.289,46.46 l 0.195,15.17 c -0.262,0.29 -0.668,0.78 -1.001,1.04 -4.539,3.58 -29.774,12.3 -37.177,15.29 -42.422,17.15 -84.795,35.49 -127.825,51.01 -1.992,0.72 -3.555,1.21 -5.698,0.97 -0.397,0.03 -0.795,0.05 -1.193,0.04 -3.829,-0.09 -15.538,-7.38 -18.335,-10.3 -0.209,0.01 -0.419,0.05 -0.627,0.03 -2.598,-0.18 -95.093,-49.38 -105.118,-55.38 -1.5,-0.89 -2.563,-1.74 -3.626,-3.14 6.132,0.52 30.984,-12.01 38.945,-15.03 34.185,-12.94 69.045,-25.4 104.577,-34.15 8.52,-2.1 55.122,-9.58 58.594,-12.01 z"
       id="path210" /><path
       transform="scale(0.666992,0.666667)"
       d="m 757.727,1140.38 c 11.723,5.92 23.475,12.1 34.704,18.91 7.716,4.68 15.088,9.97 22.885,14.51 0.907,0.52 1.697,0.67 2.716,0.82 -1.316,0.59 -1.627,0.74 -3.097,0.37 -9.116,-2.32 -52.558,-27.44 -57.208,-34.61 z"
       id="path212" /><path
       fill="#f9f8f8"
       transform="scale(0.666992,0.666667)"
       d="m 135.149,1091.32 c 0.394,0.45 0.796,0.87 1.263,1.26 5.681,4.63 65.117,27.64 76.015,32.15 l 283.343,116.55 90.244,37.61 c 13.198,5.55 26.41,12.3 39.9,17.02 1.321,0.47 2.392,0.59 3.791,0.48 -1.174,1.47 -2.515,2.31 -4.165,3.15 -30.281,15.37 -63.127,27.89 -94.353,41.48 l -42.236,18.3 c -7.33,3.14 -14.891,6.93 -22.547,9.13 -6.838,1.95 -40.218,2.32 -46.051,-0.95 0.697,0.16 1.386,0.29 2.102,0.32 3.605,0.15 32.258,-13.24 34.983,-15.79 q -1.174,0.29 -2.383,0.29 c -10.556,-0.03 -50.875,-20.58 -62.769,-25.49 -10.823,-4.47 -54.604,-19.61 -60.617,-25.67 -0.09,0.09 -0.182,0.19 -0.271,0.29 -0.404,0.44 -0.818,0.89 -1.29,1.26 -4.07,3.19 -16.548,8.77 -21.564,8.38 -0.259,-0.01 -0.518,-0.01 -0.775,-0.03 -2.966,-0.2 -9.365,-4.35 -11.169,-6.59 0.59,0.11 1.209,0.28 1.813,0.26 4.468,-0.16 15.529,-5.88 18.73,-9.1 -0.149,0.02 -0.297,0.06 -0.447,0.07 -1.054,0.07 -2.106,-0.04 -3.112,-0.36 -12.581,-4.05 -25.308,-10.57 -37.62,-15.62 -13.442,-5.51 -27.811,-10.2 -40.873,-16.41 -1.015,-0.48 -1.893,-1.23 -2.707,-1.99 -2.715,3.36 -49.496,22.63 -57.493,26.37 -0.816,1.05 -0.99,1.54 -2.284,1.95 -3.163,1.56 -7.575,1.4 -11.056,2.27 -4.987,1.25 -15.632,5.97 -20.063,5.6 -1.607,-3.73 -2.18,-7.79 -2.917,-11.76 7.162,1.69 78.938,-36.11 88.611,-34.04 -0.02,1.17 -0.106,2.47 0.104,3.62 0.363,1.98 1.214,2.51 2.757,3.52 2.658,0.42 4.918,-0.11 7.36,-1.13 2.839,-1.19 7.984,-3.59 9.226,-6.53 -1.006,-3.21 -3.365,-4.06 -5.285,-6.51 -0.193,-0.24 -0.38,-0.5 -0.57,-0.74 7.289,-1.86 51.8,-20.08 55.54,-24.09 -0.72,0.14 -1.437,0.29 -2.174,0.29 -4.323,-0.04 -107.648,-45.6 -116.705,-49.89 -2.151,-1.01 -3.858,-1.88 -5.522,-3.64 -0.646,0.61 -1.292,1.3 -2.03,1.81 -4.127,2.86 -30.225,14.13 -34.328,13.63 l -0.048,-12.7 c 0.721,0.1 0.609,0.11 1.479,0.11 5.303,-0.01 17.704,-5.32 21.315,-9.06 -0.29,0.01 -0.579,0.04 -0.869,0.04 -2.385,0.04 -19.861,-8.59 -22.035,-10.7 l -0.064,-10.69 c 0.439,0.46 0.807,0.86 1.371,1.17 4.725,2.56 32.812,14.63 37.024,13.73 0.559,0.2 0.596,0.26 1.287,0.28 4.597,0.18 20.32,-6.21 23.398,-9.63 0.385,0.42 0.507,0.59 0.925,0.93 2.884,2.31 9.417,4.47 13.069,4.1 -0.623,0.73 -1.268,1.34 -2.078,1.87 -4.724,3.06 -17.263,8.73 -22.803,7.68 0.67,0.79 1.405,1.77 2.221,2.41 5.507,4.28 27.733,12.24 35.216,15.39 33.912,14.27 67.907,28.82 102.106,42.38 1.156,0.45 2.179,0.54 3.402,0.45 -0.412,0.49 -0.834,0.95 -1.329,1.36 -3.692,3.08 -65.713,28.79 -73.946,31.76 -1.371,0.5 -2.381,0.6 -3.834,0.49 1.184,1.39 2.391,2.25 4.013,3.09 8.603,4.46 71.282,30.79 76.563,31.53 0.664,0.08 0.787,0.14 1.546,0 5.885,-1.07 24.1,-10.47 31.097,-13.27 6.922,-2.77 15.369,-3.77 21.836,-7.3 2.914,-1.6 4.678,-3.74 6.45,-6.47 5.894,-1.42 16.997,-4.63 21.112,-9.08 0.166,0.18 0.327,0.37 0.498,0.55 2.685,2.76 14.73,7.5 18.734,7.51 -0.478,0.55 -1.025,1.15 -1.64,1.55 -5.796,3.76 -19.36,7.72 -26.301,10.5 -18.17,7.29 -36.664,16.32 -55.322,22.15 -1.209,0.38 -2.227,0.4 -3.456,0.17 0.441,0.49 0.912,0.93 1.421,1.34 2.831,2.29 113.404,46.9 120.948,48.76 0.819,0.21 1.449,0.11 2.271,0.01 0.667,0.12 0.534,0.12 1.339,0.11 2.245,-0.02 94.727,-39.87 104.149,-44.64 1.087,-0.55 2.016,-1.41 2.866,-2.27 -0.703,0.07 -1.464,0.18 -2.168,0.08 -4.99,-0.71 -16.207,-6.65 -21.652,-8.99 q -32.333,-14.13 -64.868,-27.79 l -168.053,-70.78 c -61.14,-25.12 -122.968,-49.2 -183.453,-75.83 -1.597,-0.7 -2.789,-1.38 -3.907,-2.76 -0.343,-6.72 -0.171,-13.54 -0.236,-20.27 z"
       id="path215" /><path
       fill="#7a7979"
       transform="scale(0.666992,0.666667)"
       d="m 355.26,724.702 q 114.178,30.78 228.862,59.609 c -11.355,18.894 -14.513,31.861 -21.308,52.409 q -5.576,16.607 -12.361,32.758 c -5.22,12 -11.391,23.417 -17.854,34.778 -21.518,-8.414 -44.43,-14.788 -66.505,-21.652 L 355.858,848.285 c -1.031,-41.141 0.064,-82.41 -0.598,-123.583 z"
       id="path216"
       style="fill:#cccccc;fill-opacity:1" /><path
       fill="#f9f8f8"
       transform="scale(0.666992,0.666667)"
       d="m 821.032,797.191 c 0.056,-0.005 0.112,-0.016 0.167,-0.014 5.947,0.242 16.316,10.707 20.693,14.934 2.488,2.403 4.42,5.231 5.336,8.605 2.88,10.617 2.434,24.497 3.095,35.555 q 2.953,55.02 4.003,110.11 c 0.209,10.261 2.586,67.329 -3.545,72.809 -11.085,9.9 -96.115,28.65 -111.698,27.37 l -0.434,-0.23 c -1.355,-3.87 -3.384,-5.59 -6.558,-8.07 -1.011,-2.76 2.342,-5.78 2.194,-9.24 -3.116,-5.06 -10.093,-4.66 -15.168,-7 -0.193,-0.09 -0.383,-0.19 -0.575,-0.28 0.441,-5.83 -0.644,-9.62 -2.63,-15.09 6.929,-0.72 40.513,-21.55 49.928,-26 6.2,-2.93 12.73,-4.625 19.222,-6.752 l -11.9,1.082 c 18.613,-6.898 33.43,-3.612 51.9,1.011 -15.066,-8.005 -26.497,-9.447 -43.248,-8.72 9.605,-3.92 19.38,-7.244 28.843,-11.529 -12.053,1.968 -22.516,4.599 -33.338,10.424 4.93,-16.849 7.268,-33.465 9.933,-50.779 1.221,-7.929 3.499,-16.656 2.744,-24.676 -4.74,19.607 -7.899,44.785 -13.869,63.075 l -0.27,0.813 c -2.008,-11.31 -3.043,-22.967 -4.403,-34.373 -1.988,-16.677 -4.101,-33.359 -5.837,-50.065 -1.008,-9.707 -0.875,-24.502 -3.522,-33.407 -2.442,26.894 0.457,55.785 3.086,82.621 1.134,18.011 4.848,35.56 4.499,53.725 -6.568,-12.804 -12.214,-26.784 -17.365,-40.231 -2.617,-6.835 -4.545,-16.991 -8.708,-22.745 3.288,19.114 13.983,45.75 20.65,64.657 -6.517,4.1 -47.202,29.239 -51.993,29.069 -2.167,-0.4 -4.058,-2.41 -6.014,-3.48 l -0.727,1.56 c 0.136,0.52 0.187,0.87 0.428,1.33 1.043,2.02 3.78,3.74 5.867,4.37 -5.689,0.35 -15.368,-5.22 -20.685,-7.53 -14.767,-20.889 -31.354,-78.191 -32.936,-104.577 19.215,-37.323 53.653,-65.987 90.448,-84.857 -18.647,23.775 -28.698,61.83 -26.496,91.599 1.936,-3.322 2.328,-14.8 3.11,-19.362 4.83,-28.183 15.774,-60.671 37.993,-79.71 -12.345,15.887 -16.28,40.621 -16.211,60.284 3.757,-15.751 7.385,-31.842 13.805,-46.768 2.631,-6.115 5.904,-12.295 10.891,-16.827 8.168,-7.423 37.47,-18 49.295,-22.691 z"
       id="path217" /><path
       fill="#f9f8f8"
       transform="scale(0.666992,0.666667)"
       d="m 374.332,922.062 c 10.228,-0.955 70.766,26.743 85.142,32.451 -7.673,3.179 -17.43,8.784 -22.956,15.03 -5.01,-1.049 -10.602,-2.571 -15.714,-2.725 -2.846,-0.086 -5.31,0.195 -7.418,2.245 -4.458,4.337 -10.677,0.567 -16.018,3.102 -8.396,3.986 -18.975,13.843 -21.997,22.558 -5.859,-1.035 -11.575,-1.824 -17.535,-1.872 -9.402,-0.076 -22.203,0.351 -29.212,7.469 -4.924,5 -5.529,11 -5.464,17.68 -7.033,-5.55 -15.049,-8.58 -23.912,-9.7 -12.979,-1.65 -31.381,-0.28 -42.012,8.23 -4.613,3.68 -4.853,7.16 -5.4,12.82 -0.946,9.8 -1.171,84.72 1.161,87.24 0.145,0.16 0.307,0.3 0.458,0.45 0.878,0.88 1.741,1.69 2.738,2.44 11.031,8.25 28.058,10.97 41.387,8.87 8.549,-1.36 20.636,-3.92 26.08,-11.38 -0.127,6.2 -1.394,14.41 2.658,19.59 6.448,8.26 20.402,11.32 30.223,12.26 12.51,1.21 28.96,-0.45 38.964,-8.89 5.713,-4.83 5.423,-11.01 5.978,-17.82 0.418,0.46 0.856,0.89 1.336,1.29 2.956,2.45 75.029,33.53 81.819,35.39 0.911,0.25 1.799,0.25 2.729,0.17 3.325,0.5 39.809,-17.7 46.719,-20.89 q 30.139,-13.74 60.136,-27.79 c 20.849,-9.87 41.876,-20.28 63.316,-28.79 8.726,-3.46 25.761,-1.66 31.651,-5.94 1.271,2.8 3.676,7.54 6.558,8.9 5.021,2.37 36.423,4.47 41.549,2.69 2.922,-4.75 2.426,-11.25 2.48,-16.66 0.966,0.51 1.781,0.89 2.881,0.98 7.841,0.69 45.947,-4.63 51.274,-9.05 0.249,0.23 0.489,0.47 0.747,0.69 4.229,3.62 17.957,6.55 23.87,8.74 8.59,3.17 68.249,27.41 71.884,27.16 q 0.156,29.9 -0.452,59.8 c -0.675,0.18 -0.749,0.25 -1.559,0.21 -6.289,-0.3 -87.506,-40.61 -92.9,-45.74 -6.248,2.89 -20.892,3.87 -28.341,5.15 q -12.676,2.28 -25.249,5.07 c -46.385,10.11 -91.011,26.21 -135.071,43.65 -8.288,3.28 -20.26,6.59 -27.238,12.06 -1.49,1.16 -2.202,1.8 -2.446,3.67 5.769,5.32 33.028,18.14 41.794,22.79 23.801,12.61 47.329,26.11 71.47,38.03 1.677,0.82 2.951,1.52 4.878,1.52 0.173,0.21 0.34,0.42 0.519,0.62 2.564,2.91 19.219,11.75 22.645,11.92 0.187,0.04 0.371,0.1 0.561,0.12 3.172,0.27 30.664,-10.81 33.583,-13.04 3.946,3.83 66.471,42.35 69.839,43.2 0.328,0.03 0.819,0.11 1.171,0.08 3.302,-0.32 63.123,-31.08 65.739,-34.11 -1.203,21.96 -5.304,44.13 -16.302,63.46 -12.775,22.45 -38.057,41.87 -63.095,48.52 -8.182,2.17 -16.881,3.13 -25.329,3.45 -16.49,0.61 -33.156,0.08 -49.668,0.08 l -95.714,-0.01 -83.525,-0.15 c -13.928,0 -28.118,0.71 -42.011,0.04 -1.407,-0.07 -2.411,-0.37 -3.619,-1.07 0.359,-0.02 1.05,-0.05 1.442,-0.14 5.539,-1.19 23.934,-10.75 30.396,-13.64 29.607,-13.23 60.464,-25.5 89.213,-40.48 2.458,-1.28 4.705,-2.4 6.381,-4.68 0.12,-5.85 -0.023,-11.62 -0.313,-17.47 -0.449,0.1 -0.511,0.14 -1.042,0.1 -3.749,-0.25 -53.37,-22.25 -60.158,-25.03 L 218.509,1119.55 c -11.691,-4.79 -80.672,-31.93 -83.72,-34.9 l 0.028,-77.51 c 13.272,-5.77 27.177,-10.431 40.791,-15.348 l 82.452,-29.249 q 26.21,-9.456 52.136,-19.666 c 20.189,-7.874 42.454,-18.862 64.136,-20.815 z"
       id="path219" /><path
       fill="#7a7979"
       transform="scale(0.666992,0.666667)"
       d="m 356.299,239.453 283.53,0.231 c 30.015,27.585 50.68,54.561 61.771,94.603 1.681,6.068 2.102,19.98 5.609,24.573 2.798,3.663 11.131,3.397 15.427,3.695 1.905,-18.88 7.847,-36.39 18.625,-52.069 14.687,-21.367 35.215,-36.963 61.059,-41.712 22.26,-4.09 46.456,-0.442 65.23,12.69 6.514,4.556 19.796,16.054 20.909,24.362 2.051,15.312 0.71,32.095 0.774,47.6 l 0.14,100.641 c -0.066,100.782 1.078,201.706 -0.415,302.47 -23.304,-22.844 -53.977,-35.742 -84.252,-46.438 0.837,-15.553 -3.768,-29.012 -11.864,-42.07 -4.232,-6.204 -9.184,-11.998 -13.875,-17.863 q 2.413,-3.521 4.266,-7.366 1.854,-3.845 3.105,-7.926 c 5.956,-19.602 0.603,-42.602 -8.969,-60.303 -10.018,-18.527 -26.06,-32.488 -46.393,-38.432 -26.129,-7.64 -80.837,-9.567 -104.834,3.822 -6.399,3.57 -7.92,7.418 -9.863,14.164 1.274,5.754 3.166,9.997 6.598,14.795 q -1.347,2.345 -2.66,4.709 c -8.897,16.067 -10.207,25.984 -5.239,43.336 -3.407,10.623 -10.054,18.994 -14.816,28.852 -1.252,2.592 -2.024,5.595 -0.916,8.374 2.076,5.208 8.368,7.244 13.094,9.229 -1.217,7.461 0.765,14.344 4.565,20.847 -0.522,5.846 -1.386,12.059 0.254,17.793 0.82,2.868 2.378,5.411 5.118,6.788 6.473,3.251 16.228,-1.31 22.478,-3.429 -10.428,10.805 -19.42,23.813 -27.9,36.168 -17.107,-5.126 -34.64,-8.816 -52.018,-12.879 l -76.907,-18.18 q -43.466,-10.822 -87.069,-21.082 c -14.854,-3.581 -29.71,-7.659 -44.717,-10.518 -1.471,-85.913 -0.405,-172.086 0.038,-258.01 z"
       id="path220"
       style="fill:#cccbcb;fill-opacity:1" /></g><g
     id="g4"
     transform="translate(-169.12241,236.70107)"
     inkscape:label="counter"><path
       style="fill:none;fill-opacity:0.200737;stroke:#000000;stroke-width:8.4304;stroke-linecap:round;stroke-miterlimit:0;stroke-dasharray:none;stroke-opacity:0.498188"
       id="path1"
       sodipodi:type="arc"
       sodipodi:cx="-21.022015"
       sodipodi:cy="-949.93604"
       sodipodi:rx="102.64899"
       sodipodi:ry="102.64888"
       sodipodi:start="0.027304543"
       sodipodi:end="5.1136159"
       sodipodi:open="true"
       sodipodi:arc-type="arc"
       d="m 81.58871,-947.1336 a 102.64899,102.64888 0 0 1 -75.0417164,96.07498 102.64899,102.64888 0 0 1 -113.9265036,-43.38696 102.64899,102.64888 0 0 1 7.876682,-121.65362 102.64899,102.64888 0 0 1 118.570182,-28.3336"
       transform="matrix(-0.68061959,0.732637,-0.73262788,-0.68062941,0,0)" /><path
       id="path4-2"
       style="fill:#000000;fill-opacity:0.496377;stroke:none;stroke-width:6.07288;stroke-linecap:round;stroke-miterlimit:0;stroke-dasharray:none;stroke-opacity:0.198895"
       inkscape:transform-center-x="9.5449744"
       inkscape:transform-center-y="15.596181"
       d="m 653.79347,712.30156 74.14112,-22.61538 55.6704,-22.02467 -39.40142,57.07434 33.2101,54.22914 -63.65982,-33.68198 z"
       sodipodi:nodetypes="ccccccc" /><text
       xml:space="preserve"
       style="font-style:italic;font-variant:normal;font-weight:normal;font-stretch:normal;font-size:53.3334px;font-family:Caladea;-inkscape-font-specification:'Caladea, Italic';font-variant-ligatures:normal;font-variant-caps:normal;font-variant-numeric:normal;font-variant-east-asian:normal;fill:#000000;fill-opacity:1;stroke-width:3.64524;stroke-opacity:0.297101"
       x="-798.69348"
       y="-612.79541"
       id="text1-4"
       transform="scale(-1)"><tspan
         sodipodi:role="line"
         id="tspan2"
         x="-798.69348"
         y="-612.79541"
         style="font-style:italic;font-variant:normal;font-weight:normal;font-stretch:normal;font-size:53.3334px;font-family:Caladea;-inkscape-font-specification:'Caladea, Italic';font-variant-ligatures:normal;font-variant-caps:normal;font-variant-numeric:normal;font-variant-east-asian:normal;fill:#000000;fill-opacity:1;stroke-width:3.64524">Counter</tspan></text></g><g
     id="g2"
     transform="matrix(0.36132972,0.31372825,-0.27102114,0.41826752,-713.03503,254.8324)"
     inkscape:label="strong"><path
       fill="#020102"
       d="m 1770.674,-1516.7 c 18.4951,-14.6121 36.8892,-29.3481 55.182,-44.2076 9.7874,-7.8768 19.4568,-16.3799 29.6115,-23.7278 2.229,-1.613 4.8313,-3.5232 7.4361,-4.2816 6.3619,-1.8524 43.8335,-5.1601 50.405,-4.3956 2.3559,0.2738 4.1948,0.7016 5.8596,2.2374 8.5817,7.9156 18.4033,24.3118 25.5502,34.4618 l 38.6394,54.1679 c 4.2729,6.124 8.3029,14.0804 5.9723,22.3448 -0.9878,3.5072 -4.3515,6.7862 -7.0603,9.3896 -5.0156,4.8193 -10.6631,9.2181 -16.0224,13.6775 -11.1669,9.2409 -22.4019,18.3998 -33.7053,27.4765 -10.9474,8.8826 -21.6278,18.9248 -33.2238,26.8959 1.2288,3.1877 2.2787,5.9786 1.9435,9.6488 -0.3146,3.4309 -1.791,6.7201 -4.134,9.5724 -4.794,5.8343 -12.4674,10.5219 -18.4657,15.2028 -6.1634,4.8333 -12.0594,9.3273 -17.9103,14.5225 12.1068,13.2922 14.3002,16.8887 24.4261,29.5539 l 55.7658,72.807 140.4323,193.4886 68.7907,90.64759 c 25.4267,35.10195 34.4293,47.24942 60.2392,87.17106 l -13.2418,24.39422 c -14.8911,17.27697 -20.3352,21.18374 -47.769,27.37713 l -26.7681,-16.96301 c -9.9593,-11.4078 -80.3454,-97.86921 -90.3528,-111.23917 l -62.007,-80.68852 -94.8767,-126.1651 -60.1991,-88.0583 c -7.5856,-10.9086 -20.4465,-31.2263 -30.7804,-38.5755 -3.5187,2.8492 -6.9626,6.0975 -10.9721,8.226 -10.6089,5.6304 -20.4674,5.4646 -32.0006,13.1733 -8.6002,5.7476 -16.6671,13.1122 -24.7332,19.6418 -19.3164,15.6369 -38.3196,31.6661 -57.7796,47.1234 -8.2864,6.5829 -11.9533,14.4997 -34.7488,26.0792 -16.298,-2.4114 -23.7638,-3.6092 -57.8115,-29.4438 -28.0752,-32.2072 -24.0031,-32.5663 -29.4805,-40.2932 -9.1532,-19.8655 -19.1705,-37.9027 -17.0282,-59.9471 0.4354,-3.4312 1.5595,-6.8354 3.9565,-9.7031 7.0968,-8.4896 18.2416,-15.6954 26.8829,-22.7736 l 51.6436,-42.0373 c 9.2525,-7.4925 18.8616,-14.7647 27.7827,-22.6299 1.6709,-5.6243 3.7072,-11.7827 7.9592,-16.4384 8.1846,-8.9597 25.0397,-20.9756 35.1154,-29.3965 l 50.451,-42.0066 c 8.7749,-7.2867 17.3365,-15.058 26.5629,-21.7757 6.2026,-4.5151 13.6017,-5.1465 20.4633,-4.5337 z"
       id="path2"
       sodipodi:nodetypes="ccccccccccccccccccccccccccccccccscccccccccccccc"
       style="fill:#020102;fill-opacity:0.5;stroke-width:1.10937" /><path
       fill="#fef796"
       d="m 1889.3732,-1590.0055 q 10.9565,-1.1076 21.8802,-1.6272 c -7.2302,6.2675 -15.1769,11.9295 -22.5662,18.0626 q -33.6867,28.4248 -67.7471,56.4152 c -8.1055,-6.4393 -17.4723,-4.1035 -27.9052,-2.8466 -5.6217,0.5131 -10.1171,3.8078 -14.6357,7.2127 l -5.9417,-3.1135 c 15.531,-12.663 31.3289,-25 46.9277,-37.5816 8.4952,-6.851 34.362,-29.3693 42.2431,-32.9502 6.03,-2.7406 20.6821,-2.7732 27.7449,-3.5714 z"
       id="path3"
       style="fill:#ffffff;fill-opacity:1;stroke-width:1.10937" /><path
       fill="#fef796"
       d="m 1791.1763,-1518.6116 c 6.1365,-0.8343 12.4495,-0.9893 18.5864,-1.412 -13.472,11.296 -27.2691,22.1428 -40.8291,33.3196 l -78.9371,65.1784 c -2.8739,2.3579 -16.9031,15.2416 -18.6635,16.08 -2.5732,1.2254 -10.3186,0.2484 -13.3868,0.2279 -8.5093,-0.056 -17.2034,0.3494 -25.7995,1.6296 1.5968,-4.8094 3.5701,-9.9636 7.1009,-13.982 8.1092,-9.2306 20.0371,-17.1039 29.6153,-25.0073 l 61.8483,-51.4026 c 8.2179,-6.4883 17.4139,-16.9609 27.5385,-19.9918 2.4393,-0.7303 5.2105,-0.7927 7.684,-0.9909 -28.6716,23.2435 -57.4375,46.7658 -85.3984,70.8188 -9.1734,7.8902 -19.5487,15.1971 -27.7269,24.0619 5.1492,1.4915 9.7289,1.8908 15.3045,1.7756 q 47.9152,-38.2699 94.8147,-77.7432 c 7.4197,-6.1663 13.9564,-13.5793 21.4845,-19.5105 2.008,-1.5819 4.4144,-2.2765 6.7642,-3.0519 z"
       id="path4-6-6"
       style="fill:#ffffff;fill-opacity:1;stroke-width:1.10937" /><path
       fill="#fef796"
       d="m 1638.3888,-1403.2607 c 10.1897,-0.9645 23.2527,-2.3832 32.8337,-0.3264 0.6918,0.8206 1.0199,1.3271 0.8976,2.5565 -0.1144,1.1442 -1.0328,2.4004 -1.8766,3.2499 -3.1621,3.1855 -7.4329,5.9923 -10.9222,8.908 -9.3271,7.7948 -18.5439,15.6281 -28.0117,23.267 l -65.2497,53.4809 -4.5103,-1.1606 c -12.2811,-3.7049 -22.5398,-4.3127 -35.9576,-1.3431 0.2349,-0.2715 0.4655,-0.5449 0.7036,-0.8123 5.3059,-5.9445 12.7704,-10.966 19.0306,-16.0168 l 31.6478,-25.6982 37.7127,-30.6301 c 5.5136,-4.4715 11.1622,-9.7748 16.9963,-13.7763 1.893,-1.2976 4.5441,-1.4031 6.7058,-1.6985 z"
       id="path5-3"
       style="fill:#ffffff;fill-opacity:1;stroke-width:1.10937" /><path
       fill="#a13be1"
       d="m 1529.9865,-1314.4138 c 11.9663,-1.7592 26.2865,-0.9173 36.2378,4.489 15.4197,8.3759 47.516,57.0151 58.8615,73.4057 5.9422,8.5839 12.7339,17.0204 17.6942,26.2261 1.9029,3.5326 3.011,6.9018 3.6936,10.9414 -2.2664,7.0604 -6.7669,10.8148 -12.6234,15.4345 -1.9645,1.2707 -3.9344,2.5884 -6.139,3.335 -8.9902,3.0453 -19.8605,-1.4514 -27.0629,-5.1641 -36.264,-18.6955 -69.5562,-64.876 -77.6481,-104.4754 -1.1568,-5.6614 -3.3661,-15.2995 0.6882,-20.9251 1.6121,-2.237 3.8455,-2.6413 6.2981,-3.2671 z"
       id="path6-5"
       style="fill:#ffffff;fill-opacity:1;stroke-width:1.10937" /><path
       fill="#fd898a"
       d="m 1858.4186,-1351.3047 c 17.8564,19.1723 34.8963,46.6621 48.8485,65.8186 5.6317,7.731 16.6024,19.8362 20.4397,27.8713 l 169.0413,230.5944 c 1.3684,1.9994 2.8776,3.9712 4.0917,6.0685 4.0868,4.5313 8.363,10.071 11.6903,15.1911 7.3884,8.42107 13.6754,17.68115 20.3772,26.63754 10.1865,13.43688 20.268,26.95186 30.2446,40.54495 10.752,14.41151 21.7254,28.60125 31.9383,43.41146 3.7708,5.47036 8.2614,11.1623 11.0787,17.22001 -0.756,1.58978 -1.478,3.54546 -2.503,4.99417 -4.8262,8.55531 -10.906,16.65982 -18.9063,22.89953 -2.037,1.67605 -8.3266,7.63335 -10.8766,7.52824 -0.1305,-0.006 -0.2487,-0.0599 -0.3732,-0.0887 -0.2482,0.83697 -0.8624,1.35996 -1.451,2.03983 -1.6344,0.59238 -2.1074,0.46234 -3.6185,-0.12382 -0.2024,-0.078 -0.3997,-0.1652 -0.5995,-0.24781 l 0.2746,1.46871 c -0.5831,1.01611 -1.1481,1.26448 -2.122,1.91829 -1.9323,0.55739 -3.0994,0.0901 -4.8571,-0.43556 -0.9579,-0.28646 -0.4565,-0.32657 -1.4273,0.048 l 0.5638,1.2632 c -1.8716,1.1322 -5.795,0.68934 -7.8996,0.72476 -1.2236,-2.14015 -2.3092,-4.16871 -4.1058,-5.89278 l 2.9544,5.59494 c -0.8437,-0.19579 -1.6794,-0.41055 -2.507,-0.64431 -7.2239,-2.06945 -20.154,-11.65075 -23.3725,-19.02129 -107.2762,-127.62037 -141.5119,-176.73576 -320.5899,-421.46726 -1.8911,-2.0643 -14.2369,-16.224 -13.8467,-19.2689 l 28.4156,-23.5942 z"
       id="path36-3"
       style="fill:#ffffff;fill-opacity:1;stroke-width:1.10937"
       sodipodi:nodetypes="cccccccccccccccccccsccccccccccc" /><text
       xml:space="preserve"
       style="font-style:italic;font-variant:normal;font-weight:normal;font-stretch:normal;font-size:15.6502px;font-family:Caladea;-inkscape-font-specification:'Caladea, Italic';font-variant-ligatures:normal;font-variant-caps:normal;font-variant-numeric:normal;font-variant-east-asian:normal;fill:#000000;fill-opacity:1;stroke-width:1.19947;stroke-opacity:0.297101"
       x="-129.00671"
       y="93.014259"
       id="text1-23"
       transform="matrix(-4.3796374,-5.4790903,5.4761154,-4.3775461,1024.9868,-1306.9535)"><tspan
         sodipodi:role="line"
         id="tspan1-3"
         x="-129.00671"
         y="93.014259"
         style="font-style:italic;font-variant:normal;font-weight:normal;font-stretch:normal;font-size:15.6502px;font-family:Caladea;-inkscape-font-specification:'Caladea, Italic';font-variant-ligatures:normal;font-variant-caps:normal;font-variant-numeric:normal;font-variant-east-asian:normal;fill:#000000;fill-opacity:1;stroke-width:1.19947">Strong</tspan></text></g><g
     inkscape:label="suit2"
     id="layer1-7"
     transform="matrix(-5.3037294,0,0,-5.3037294,765.37477,953.58493)"><path
       style="fill:#d80000;fill-opacity:1;stroke-width:0.703264"
       id="path1-3-1"
       sodipodi:type="arc"
       sodipodi:cx="11.377838"
       sodipodi:cy="10.259499"
       sodipodi:rx="7.4725904"
       sodipodi:ry="7.8478684"
       sodipodi:start="0.027304543"
       sodipodi:end="6.2831853"
       sodipodi:open="true"
       sodipodi:arc-type="arc"
       d="m 18.847643,10.473754 a 7.4725904,7.8478684 0 0 1 -7.622821,7.631968 7.4725904,7.8478684 0 0 1 -7.3188779,-7.953361 7.4725904,7.8478684 0 0 1 7.5229029,-7.740548 7.4725904,7.8478684 0 0 1 7.421582,7.847686" /><path
       style="fill:#ffffff;fill-opacity:1;stroke-width:0.672438"
       id="path1-6-8"
       sodipodi:type="arc"
       sodipodi:cx="11.372044"
       sodipodi:cy="10.102311"
       sodipodi:rx="7.136076"
       sodipodi:ry="7.5133352"
       sodipodi:start="0.027304543"
       sodipodi:end="6.2831853"
       sodipodi:open="true"
       sodipodi:arc-type="arc"
       d="M 18.50546,10.307434 A 7.136076,7.5133352 0 0 1 11.225918,17.614071 7.136076,7.5133352 0 0 1 4.2366327,9.9997403 7.136076,7.5133352 0 0 1 11.420755,2.589151 a 7.136076,7.5133352 0 0 1 7.087365,7.51316" /><rect
       style="fill:#cc0400;fill-opacity:1;stroke-width:0.824827"
       id="rect1-0-4"
       width="8.7777615"
       height="8.9696789"
       x="12.185754"
       y="-9.2068987"
       transform="matrix(0.52984252,0.84809605,-0.54411321,0.83901181,0,0)" /><path
       id="path3-6-9"
       style="fill:#ffffff;stroke-width:0.83953"
       d="M 16.175024,10.166982 11.405527,10.712513 6.6360343,10.166982 11.405527,10.057878 Z"
       sodipodi:nodetypes="ccccc" /><path
       id="path4-6"
       style="fill:#ffffff;stroke-width:0.475382"
       inkscape:transform-center-x="0.00030024449"
       inkscape:transform-center-y="0.43628623"
       d="m 11.218489,10.244916 0.191795,-8.063479 0.197269,7.988175 z" /></g><g
     inkscape:label="suit1"
     id="layer1"
     transform="matrix(5.3037294,0,0,5.3037294,60.612537,171.97072)"><path
       style="fill:#d80000;fill-opacity:1;stroke-width:0.232652"
       id="path1-3"
       sodipodi:type="arc"
       sodipodi:cx="2.9299388"
       sodipodi:cy="3.1140828"
       sodipodi:rx="2.4720631"
       sodipodi:ry="2.5962114"
       sodipodi:start="0.027304543"
       sodipodi:end="6.2831853"
       sodipodi:open="true"
       sodipodi:arc-type="arc"
       d="M 5.4010804,3.1849624 A 2.4720631,2.5962114 0 0 1 2.8793184,5.7097499 2.4720631,2.5962114 0 0 1 0.4581061,3.0786397 2.4720631,2.5962114 0 0 1 2.9468133,0.51793187 2.4720631,2.5962114 0 0 1 5.4020019,3.1140828"
       transform="matrix(3.0228156,0,0,3.0228156,2.602725,1.5506251)" /><path
       style="fill:#ffffff;fill-opacity:1;stroke-width:0.222454"
       id="path1-6"
       sodipodi:type="arc"
       sodipodi:cx="2.928021"
       sodipodi:cy="3.0620804"
       sodipodi:rx="2.360738"
       sodipodi:ry="2.4855421"
       sodipodi:start="0.027304543"
       sodipodi:end="6.2831853"
       sodipodi:open="true"
       sodipodi:arc-type="arc"
       d="M 5.287879,3.1299385 A 2.360738,2.4855421 0 0 1 2.8796802,5.5471013 2.360738,2.4855421 0 0 1 0.56750291,3.0281482 2.360738,2.4855421 0 0 1 2.9441355,0.57659623 2.360738,2.4855421 0 0 1 5.288759,3.0620804"
       transform="matrix(3.0228156,0,0,3.0228156,2.602725,1.5506251)" /><rect
       style="fill:#cc0400;fill-opacity:1;stroke-width:0.272867"
       id="rect1-0"
       width="2.9038363"
       height="2.9673259"
       x="3.0907626"
       y="-2.4287744"
       transform="matrix(1.6016162,2.563638,-1.6447539,2.536178,2.602725,1.5506251)" /><path
       id="path3-6"
       style="fill:#ffffff;stroke-width:0.277731"
       d="M 4.5169308,3.0834755 2.9390985,3.2639464 1.3612668,3.0834755 2.9390985,3.0473815 Z"
       sodipodi:nodetypes="ccccc"
       transform="matrix(3.0228156,0,0,3.0228156,2.602725,1.5506251)" /><path
       id="path4"
       style="fill:#ffffff;stroke-width:0.157265"
       inkscape:transform-center-x="-0.00030167401"
       inkscape:transform-center-y="-0.43628615"
       d="m 2.8772231,3.1092569 0.063449,-2.66753913 0.06526,2.64262783 z"
       transform="matrix(3.0228156,0,0,3.0228156,2.602725,1.5506251)" /></g><text
     xml:space="preserve"
     style="font-style:italic;font-variant:normal;font-weight:normal;font-stretch:normal;font-size:53.3333px;font-family:Caladea;-inkscape-font-specification:'Caladea, Italic';font-variant-ligatures:normal;font-variant-caps:normal;font-variant-numeric:normal;font-variant-east-asian:normal;text-align:start;writing-mode:lr-tb;direction:ltr;text-anchor:start;fill:#000000;fill-opacity:0.601148;stroke:#000000;stroke-width:1.28882;stroke-opacity:0.498188"
     x="440.29111"
     y="-684.1438"
     id="text1-8"
     transform="matrix(0,1.0000022,-0.99999781,0,0,0)"
     inkscape:label="name2"><tspan
       sodipodi:role="line"
       id="tspan12"
       x="440.29111"
       y="-684.1438"
       style="stroke-width:1.28882">Six of Coins</tspan></text><text
     xml:space="preserve"
     style="font-style:italic;font-variant:normal;font-weight:normal;font-stretch:normal;font-size:53.3334px;font-family:Caladea;-inkscape-font-specification:'Caladea, Italic';font-variant-ligatures:normal;font-variant-caps:normal;font-variant-numeric:normal;font-variant-east-asian:normal;text-align:start;writing-mode:lr-tb;direction:ltr;text-anchor:start;fill:#000000;fill-opacity:0.601148;stroke:#000000;stroke-width:1.28882;stroke-opacity:0.498188"
     x="-642.55072"
     y="134.31508"
     id="text1-8-1"
     transform="rotate(-90)"
     inkscape:label="name1"><tspan
       sodipodi:role="line"
       id="tspan1"
       x="-642.55072"
       y="134.31508">Banker</tspan></text><text
     xml:space="preserve"
     style="font-style:italic;font-variant:normal;font-weight:normal;font-stretch:normal;font-size:96.0002px;font-family:Caladea;-inkscape-font-specification:'Caladea, Italic';font-variant-ligatures:normal;font-variant-caps:normal;font-variant-numeric:normal;font-variant-east-asian:normal;text-align:start;writing-mode:lr-tb;direction:ltr;text-anchor:start;fill:#cc0400;fill-opacity:1;stroke:none;stroke-width:1.289;stroke-dasharray:none;stroke-opacity:0.498188"
     x="-728.67297"
     y="-962.96722"
     id="text1-5"
     transform="scale(-1)"
     inkscape:label="rank2"><tspan
       sodipodi:role="line"
       id="tspan11"
       x="-728.67297"
       y="-962.96722">6</tspan></text><text
     xml:space="preserve"
     style="font-style:italic;font-variant:normal;font-weight:normal;font-stretch:normal;font-size:96.0001px;font-family:Caladea;-inkscape-font-specification:'Caladea, Italic';font-variant-ligatures:normal;font-variant-caps:normal;font-variant-numeric:normal;font-variant-east-asian:normal;text-align:start;writing-mode:lr-tb;direction:ltr;text-anchor:start;fill:#cc0400;fill-opacity:1;stroke:none;stroke-width:1.28882;stroke-opacity:0.498188"
     x="92.608116"
     y="159.10419"
     id="text1"
     inkscape:label="rank1"><tspan
       sodipodi:role="line"
       id="tspan10"
       x="92.608116"
       y="159.10419">6</tspan></text></svg>
