<?xml version="1.0" encoding="UTF-8" standalone="no"?>
<svg
   width="825"
   height="1125"
   version="1.1"
   id="svg49"
   sodipodi:docname="card-conflict-dk.svg"
   inkscape:version="1.4 (86a8ad7, 2024-10-11)"
   viewBox="0 0 825 1125"
   xml:space="preserve"
   inkscape:export-filename="card-conflict-dk.png"
   inkscape:export-xdpi="96"
   inkscape:export-ydpi="96"
   xmlns:inkscape="http://www.inkscape.org/namespaces/inkscape"
   xmlns:sodipodi="http://sodipodi.sourceforge.net/DTD/sodipodi-0.dtd"
   xmlns="http://www.w3.org/2000/svg"
   xmlns:svg="http://www.w3.org/2000/svg"><sodipodi:namedview
     id="namedview49"
     pagecolor="#ffffff"
     bordercolor="#000000"
     borderopacity="0.25"
     inkscape:showpageshadow="2"
     inkscape:pageopacity="0.0"
     inkscape:pagecheckerboard="0"
     inkscape:deskcolor="#d1d1d1"
     inkscape:zoom="0.46220914"
     inkscape:cx="126.56608"
     inkscape:cy="554.9436"
     inkscape:window-width="1833"
     inkscape:window-height="917"
     inkscape:window-x="29"
     inkscape:window-y="27"
     inkscape:window-maximized="0"
     inkscape:current-layer="svg49"
     inkscape:document-units="px"
     showgrid="false" /><defs
     id="defs17"><linearGradient
       id="gradient_0"
       gradientUnits="userSpaceOnUse"
       x1="787.83301"
       y1="417.13614"
       x2="896.2948"
       y2="336.46844"><stop
         offset="0"
         stop-color="#167F8A"
         id="stop16" /><stop
         offset="1"
         stop-color="#159BA9"
         id="stop17" /></linearGradient><linearGradient
       id="gradient_0-2"
       gradientUnits="userSpaceOnUse"
       x1="439.11206"
       y1="464.522"
       x2="373.02579"
       y2="386.0676"><stop
         offset="0"
         stop-color="#FEA902"
         id="stop24-7" /><stop
         offset="1"
         stop-color="#FEC100"
         id="stop25-8" /></linearGradient><linearGradient
       id="gradient_0-8"
       gradientUnits="userSpaceOnUse"
       x1="505.63708"
       y1="183.79691"
       x2="171.41376"
       y2="155.43059"><stop
         offset="0"
         stop-color="#EEA800"
         id="stop3" /><stop
         offset="1"
         stop-color="#FEF49E"
         id="stop4" /></linearGradient><linearGradient
       id="gradient_1-2"
       gradientUnits="userSpaceOnUse"
       x1="297.28619"
       y1="286.58209"
       x2="163.5318"
       y2="635.06488"><stop
         offset="0"
         stop-color="#BE8500"
         id="stop5" /><stop
         offset="1"
         stop-color="#FFEA5F"
         id="stop6" /></linearGradient><linearGradient
       id="gradient_2"
       gradientUnits="userSpaceOnUse"
       x1="690.96869"
       y1="886.34503"
       x2="530.02826"
       y2="327.17783"><stop
         offset="0"
         stop-color="#936602"
         id="stop7" /><stop
         offset="1"
         stop-color="#E6AB0B"
         id="stop8" /></linearGradient><linearGradient
       id="gradient_0-6"
       gradientUnits="userSpaceOnUse"
       x1="756.237"
       y1="543.65344"
       x2="570.92169"
       y2="327.42014"><stop
         offset="0"
         stop-color="#9650B5"
         id="stop1" /><stop
         offset="1"
         stop-color="#B262D0"
         id="stop2" /></linearGradient><linearGradient
       id="gradient_1-21"
       gradientUnits="userSpaceOnUse"
       x1="431.04391"
       y1="954.88794"
       x2="538.14734"
       y2="89.44886"><stop
         offset="0"
         stop-color="#002757"
         id="stop3-8"
         style="stop-color:#000000;stop-opacity:1;" /><stop
         offset="1"
         stop-color="#4B448F"
         id="stop4-0" /></linearGradient><linearGradient
       id="linearGradient1"
       gradientUnits="userSpaceOnUse"
       x1="567.4491"
       y1="699.04437"
       x2="868.41522"
       y2="779.63495"><stop
         offset="0"
         stop-color="#176366"
         id="stop24-3"
         style="stop-color:#000000;stop-opacity:1;" /><stop
         offset="1"
         stop-color="#157C89"
         id="stop25-1" /></linearGradient><linearGradient
       id="gradient_0-4"
       gradientUnits="userSpaceOnUse"
       x1="414.03931"
       y1="605.32446"
       x2="451.67206"
       y2="580.42554"><stop
         offset="0"
         stop-color="#2F292D"
         id="stop161" /><stop
         offset="1"
         stop-color="#353935"
         id="stop162" /></linearGradient><clipPath
       clipPathUnits="userSpaceOnUse"
       id="clipPath3"><path
         fill="none"
         stroke="#2ba6de"
         stroke-dasharray="4.68965"
         d="m 106.07233,161.78591 c 0,-7.02146 5.58199,-12.70116 12.46667,-12.70116 h 501.80639 c 6.88468,0 12.46667,5.6797 12.46667,12.70116 v 736.62791 c 0,7.01498 -5.58199,12.70117 -12.46667,12.70117 H 118.539 c -6.88468,0 -12.46667,-5.68619 -12.46667,-12.70117 z"
         id="path188"
         style="display:inline;stroke-width:3.25671" /></clipPath></defs><defs
     id="defs25"><linearGradient
       id="gradient_1"
       gradientUnits="userSpaceOnUse"
       x1="567.4491"
       y1="699.04437"
       x2="868.41522"
       y2="779.63495"><stop
         offset="0"
         stop-color="#176366"
         id="stop24"
         style="stop-color:#000000;stop-opacity:1;" /><stop
         offset="1"
         stop-color="#157C89"
         id="stop25" /></linearGradient></defs><g
     inkscape:groupmode="layer"
     id="layer2"
     inkscape:label="background"><rect
       style="fill:#ffffff;fill-opacity:1;stroke:none;stroke-width:5.59398;stroke-opacity:0.498188"
       id="rect307"
       width="825"
       height="1125"
       x="1.110223e-16"
       y="-4.4408921e-16" /></g><g
     id="g1"
     transform="matrix(4.143996,0,0,4.143996,3.1461515,3.1461446)"
     inkscape:label="template"
     style="display:none"><g
       id="g104">
	
	<path
   fill="none"
   stroke="#ec1e28"
   d="m 9,252 c 0,4.971 4.029,9 9,9 h 162 c 4.971,0 9,-4.029 9,-9 V 18 c 0,-4.971 -4.029,-9 -9,-9 H 18 c -4.971,0 -9,4.029 -9,9 z"
   id="path104" />
</g><g
       id="g105">
	<path
   fill="none"
   stroke="#2ba6de"
   stroke-dasharray="1.44"
   d="m 18.13,21.906 c 0,-2.156 1.714,-3.9 3.828,-3.9 h 154.084 c 2.114,0 3.828,1.744 3.828,3.9 v 226.188 c 0,2.154 -1.714,3.9 -3.828,3.9 H 21.958 c -2.114,0 -3.828,-1.746 -3.828,-3.9 z"
   id="path105" />
</g></g><g
     id="g3"
     transform="matrix(1.2724499,0,0,1.2724499,-56.694726,-111.94988)"
     style="display:inline;opacity:0.2"
     inkscape:label="judgement"
     clip-path="url(#clipPath3)"><path
       transform="scale(0.666992,0.666667)"
       d="M 479.932,49.125 Q 663.905,47.7516 847.879,48.8467 L 938.07,48.759 c 12.376,-0.0309 29.699,-1.5398 41.616,0.5384 1.323,1.9946 1.194,4.8077 1.283,7.1976 1.343,35.9056 -0.073,72.222 -0.1,108.164 l -0.04,203.481 0.429,778.38 -0.067,217.4 c 0.045,39.98 1.537,81.47 -0.421,121.3 -0.505,0.35 -0.926,0.63 -1.522,0.8 -5.646,1.61 -41.595,0.47 -50.107,0.44 q -70.402,0.33 -140.798,-0.62 l -187.592,-0.02 c -17.553,-0.03 -35.172,0.52 -52.715,0.21 -2.261,-0.03 -4.042,-0.02 -6.026,-1.25 -0.891,0.5 -1.815,1 -2.843,1.17 -8.15,1.33 -19.947,0.08 -28.378,0.04 l -66.864,-0.2 q -142.215,1.39 -284.435,0.47 l -77.3453,0.05 c -11.4324,-0.02 -23.563,0.77 -34.8977,-0.21 -1.2196,-0.11 -1.9207,-0.53 -2.9194,-1.18 -1.9271,-8.93 -0.7338,-20.31 -0.7266,-29.53 l 0.1706,-61.32 0.3997,-275.32 L 43.9927,49.3135 Z"
       id="path2-9" /><path
       fill="#fdfdfd"
       transform="scale(0.666992,0.666667)"
       d="m 393.219,902.687 c 1.5,1.428 2.615,2.741 3.672,4.524 0.306,2.696 -0.901,4.315 -2.195,6.556 -0.609,0.217 -1.189,-0.168 -1.79,-0.37 -0.162,-0.342 -0.324,-0.685 -0.461,-1.038 -1.361,-3.523 -0.591,-6.366 0.774,-9.672 z"
       id="path3-4" /><path
       fill="#fdfdfd"
       transform="scale(0.666992,0.666667)"
       d="m 434.404,813.485 c 0.81,0.509 0.846,0.475 1.526,1.111 1.387,1.297 6.559,16.768 6.55,18.785 -3.195,-4.008 -7.52,-8.654 -9.004,-13.629 -0.824,-2.762 -0.288,-3.848 0.928,-6.267 z"
       id="path5" /><path
       fill="#fdfdfd"
       transform="scale(0.666992,0.666667)"
       d="m 388.511,913.937 c 0.532,0.359 1.024,0.753 1.484,1.202 1.474,1.441 2.15,3.472 2.035,5.528 -0.223,3.963 -3.253,6.407 -6.003,8.817 -0.411,0.216 -1.033,0.235 -1.494,0.308 -0.656,-4.012 2.682,-12 3.978,-15.855 z"
       id="path6" /><path
       fill="#fdfdfd"
       transform="scale(0.666992,0.666667)"
       d="m 484.539,721.828 c 0.764,0.111 1.648,0.217 2.354,0.539 1.462,0.667 2.374,1.603 2.971,3.058 0.869,2.115 -0.011,3.986 -0.901,5.925 l -0.94,0.209 c -1.878,-0.521 -4.144,-0.956 -5.833,-1.928 -1.339,-0.771 -1.31,-1.145 -1.673,-2.544 0.989,-2.226 2.339,-3.565 4.022,-5.259 z"
       id="path7" /><path
       fill="#fdfdfd"
       transform="scale(0.666992,0.666667)"
       d="m 455.935,1020.39 2.027,0.52 c 0.898,1.34 0.817,1.76 0.628,3.4 -0.267,2.3 -1.841,6.67 -3.626,8.15 -1.922,0.44 -2.048,0.64 -3.897,-0.27 -0.232,-0.74 -0.488,-1.46 -0.481,-2.24 0.036,-4.1 2.463,-7.04 5.349,-9.56 z"
       id="path8" /><path
       fill="#fdfdfd"
       transform="scale(0.666992,0.666667)"
       d="m 401.031,886.992 c 1.637,1.565 3.023,3.821 4.412,5.633 -2.215,3.691 -4.172,7.384 -5.973,11.294 -1.46,-0.851 -3.041,-2.026 -3.488,-3.737 -1.112,-4.262 2.925,-9.734 5.049,-13.19 z"
       id="path9" /><path
       fill="#fdfdfd"
       transform="scale(0.666992,0.666667)"
       d="m 422.671,823.881 c 4.3,2.65 9.292,9.602 11.35,14.151 l -0.541,1.16 c -2.209,-0.717 -4.288,-1.582 -6.363,-2.626 -2.922,-1.469 -5.532,-2.987 -6.488,-6.364 -0.655,-2.319 0.908,-4.415 2.042,-6.321 z"
       id="path10" /><path
       fill="#fdfdfd"
       transform="scale(0.666992,0.666667)"
       d="m 682.736,1239.79 c 6.56,3.32 16.683,0.86 23.881,3.17 l -2.564,-0.07 c -0.689,0.52 -1.173,0.89 -1.989,1.2 -3.454,1.32 -14.949,4 -18.099,2.59 -1.165,-2.26 -1.142,-4.42 -1.229,-6.89 z"
       id="path11" /><path
       fill="#fdfdfd"
       transform="scale(0.666992,0.666667)"
       d="m 409.364,868.382 c 1.479,3.094 3.116,6.119 4.702,9.16 -3.394,3.138 -5.146,6.647 -7.07,10.773 l -0.674,0.104 c -1.261,-0.584 -2.384,-0.716 -2.848,-2.135 -1.719,-5.254 3.687,-13.231 5.89,-17.902 z"
       id="path12" /><path
       fill="#fdfdfd"
       transform="scale(0.666992,0.666667)"
       d="m 462.358,763.128 c 2.695,2.375 3.807,5.85 5.043,9.113 -1.713,3.295 -3.684,6.474 -5.569,9.675 -2.073,-1.458 -4.057,-5.018 -5.58,-7.138 1.836,-3.985 3.999,-7.805 6.106,-11.65 z"
       id="path13" /><path
       fill="#fdfdfd"
       transform="scale(0.666992,0.666667)"
       d="m 417.206,852.455 c 2.742,2.78 6.502,4.323 7.209,8.457 l -0.768,0.407 -3.624,-2.518 c -1.415,2.7 -0.198,4.844 -2.176,8.811 -1.047,1.762 -1.277,2.341 -3.099,3.391 -2.082,-0.44 -1.997,-0.562 -3.211,-2.162 -1.235,-5.653 3.222,-11.496 5.669,-16.386 z"
       id="path15" /><path
       fill="#fdfdfd"
       transform="scale(0.666992,0.666667)"
       d="m 454.934,777.316 c 2.314,1.587 3.339,4.582 4.55,7.041 l -6.441,13.797 -5.184,-7.463 c 2.079,-4.641 4.534,-8.98 7.075,-13.375 z"
       id="path16" /><path
       fill="#fdfdfd"
       transform="scale(0.666992,0.666667)"
       d="m 470.856,746.791 c 2.085,2.022 3.952,4.296 5.873,6.473 -3.153,4.648 -4.023,9.083 -5.876,14.25 -2.659,-2.006 -4.841,-4.471 -7.103,-6.898 1.922,-4.767 4.667,-9.302 7.106,-13.825 z"
       id="path18" /><path
       fill="#fdfdfd"
       transform="scale(0.666992,0.666667)"
       d="m 663.883,247.911 c 5.941,1.019 12.622,4.316 18.408,6.281 9.932,3.373 20.699,5.986 30.18,10.444 -8.465,-0.487 -38.401,-8.141 -45.879,-11.8 -2.07,-1.013 -2.139,-2.918 -2.709,-4.925 z"
       id="path19" /><path
       fill="#fdfdfd"
       transform="scale(0.666992,0.666667)"
       d="m 936.421,358.542 c 5.78,0.523 11.27,1.51 16.89,2.945 6.168,1.576 19.761,4.372 23.052,9.931 -13.336,-3.848 -25.56,-6.891 -39.444,-7.902 -1.013,-1.349 -0.557,-3.299 -0.498,-4.974 z"
       id="path20" /><path
       fill="#fdfdfd"
       transform="scale(0.666992,0.666667)"
       d="m 479.03,730.776 c 2.485,1.24 4.944,2.282 6.711,4.514 1.059,4.986 -3.948,8.933 -5.704,13.567 l -0.339,0.912 c -2.719,-1.564 -5.615,-2.663 -8.521,-3.821 2.202,-5.368 4.805,-10.254 7.853,-15.172 z"
       id="path21" /><path
       fill="#fdfdfd"
       transform="scale(0.666992,0.666667)"
       d="m 657.679,247.513 c 0.863,1.417 0.799,2.102 0.719,3.693 -2.905,4.441 -19.863,11.501 -25.168,14.273 -0.854,-1.674 -0.795,-3.472 -0.604,-5.279 3.745,-5.642 18.737,-9.991 25.053,-12.687 z"
       id="path22" /><path
       fill="#fdfdfd"
       transform="scale(0.666992,0.666667)"
       d="m 600.878,741.464 3.612,0.442 -1.202,0.997 c 1.186,3.746 4.797,7.846 6.908,11.23 6.651,10.664 15.096,24.203 17.88,36.547 -5.721,-6.432 -20.497,-32.544 -25.093,-40.955 -1.588,-2.907 -3.081,-4.935 -2.105,-8.261 z"
       id="path23" /><path
       fill="#fdfdfd"
       transform="scale(0.666992,0.666667)"
       d="m 503.663,680.061 c 1.243,0.285 2.271,0.957 3.258,1.749 8.162,6.549 15.62,14.448 23.412,21.476 4.026,3.63 9.012,6.941 12.792,10.667 1.612,1.589 0.918,4.513 0.811,6.582 -0.832,-0.29 -1.437,-0.492 -2.158,-1.014 -4.769,-3.454 -35.49,-33.267 -37.574,-36.878 -0.306,-0.53 -0.405,-1.929 -0.541,-2.582 z"
       id="path24" /><path
       fill="#fdfdfd"
       transform="scale(0.666992,0.666667)"
       d="m 448.931,838.149 c 3.619,0.518 7.12,1.688 10.616,2.731 -1.955,6.537 -4.34,12.838 -10.502,16.423 -2.801,0.641 -6.117,1.854 -8.922,1.006 l -0.613,-1.419 c 1.146,-2.66 4.701,-2.238 5.713,-4.393 2.158,-4.597 1.023,-9.834 3.708,-14.348 z"
       id="path25" /><path
       fill="#fdfdfd"
       transform="scale(0.666992,0.666667)"
       d="m 927.209,359.494 c 0.145,-0.02 0.289,-0.046 0.434,-0.059 2.237,-0.207 3.645,-0.656 5.483,0.772 l 0.133,1.779 c -4.075,4.552 -21.774,6.978 -28.843,10.956 l -0.877,0.499 c -1.923,1.124 -2.722,2.038 -5.034,1.63 l -0.56,-1.299 c 0.211,-0.807 0.391,-1.588 0.859,-2.296 4.761,-7.207 20.26,-10.808 28.405,-11.982 z"
       id="path26" /><path
       fill="#fdfdfd"
       transform="scale(0.666992,0.666667)"
       d="m 441.227,818.856 c 1.807,-0.1 3.596,-0.129 5.401,0.011 4.781,0.369 9.958,1.718 13.106,5.611 3.11,3.845 2.922,7.797 2.371,12.376 -2.035,0.239 -2.92,0.02 -4.683,-1.064 -5.692,-3.498 -14.46,-10.359 -16.195,-16.934 z"
       id="path27" /><path
       fill="#fdfdfd"
       transform="scale(0.666992,0.666667)"
       d="m 465.16,1010.24 0.827,0.23 c 0.096,2.43 -2.234,5.89 -3.375,8.1 -4.462,-0.23 -7.891,-0.2 -11.491,2.94 -7.365,6.42 2.418,14.44 2.176,19.29 l -1.992,0.09 c -0.185,0.15 -0.36,0.32 -0.554,0.46 -1.558,1.13 -2.107,1.44 -3.983,1.12 -2.867,-4.41 -1.669,-20.07 -1.876,-26.06 7.004,-1.47 13.577,-3.69 20.268,-6.17 z"
       id="path28" /><path
       fill="#fdfdfd"
       transform="scale(0.666992,0.666667)"
       d="m 637.889,643.758 8.381,0.802 c 0.209,0.227 0.413,0.458 0.627,0.681 1.127,1.173 2.324,2.32 3.134,3.752 1.368,2.419 4.209,8.821 3.432,11.548 -0.699,-0.077 -0.669,-0.059 -1.506,-0.244 -1.967,-0.436 -4.107,-0.839 -5.111,-2.579 0.103,-2.113 0.248,-3.649 -0.688,-5.584 -1.923,-1.64 -3.662,-2.174 -6.048,-2.776 l -0.885,-0.22 c -11.009,-0.821 -14.968,6.585 -21.6,6.23 l -1.626,-1.947 c 0.141,-0.914 0.816,-1.953 1.412,-2.638 4.74,-5.445 13.818,-6.074 20.478,-7.025 z"
       id="path29" /><path
       fill="#fdfdfd"
       transform="scale(0.666992,0.666667)"
       d="m 753.098,1338.89 c 1.488,0.3 2.439,0.44 3.523,1.61 q -1.274,20.7 -1.052,41.43 c 0.016,6.99 0.911,14.61 0.136,21.49 -1.349,0.88 -2.045,1.19 -3.642,1.36 -1.231,-1.93 -0.587,-51.97 -0.842,-59.28 -0.11,-3.17 -0.323,-4.26 1.877,-6.61 z"
       id="path32" /><path
       fill="#fdfdfd"
       transform="scale(0.666992,0.666667)"
       d="m 650.331,958.483 c 2.103,-0.025 4.741,-0.271 6.51,0.868 0.753,10.126 4.617,42.969 3.148,50.409 -1.814,0.24 -3.168,0.32 -4.966,-0.06 -2.487,-5.15 -3.831,-42.198 -4.692,-51.217 z"
       id="path33" /><path
       fill="#fdfdfd"
       transform="scale(0.666992,0.666667)"
       d="m 700.971,1266.88 c 0.565,0.14 1.47,0.27 2.01,0.55 0.099,0.05 1.107,0.66 1.234,0.86 1.742,2.74 1.129,40.32 4.133,49.58 0.529,1.63 0.796,3.06 0.96,4.77 l -1.075,0.67 -2.656,-0.89 c -5.02,-6.56 -8.069,-42.63 -9.061,-52.55 0.999,-1.55 2.831,-2.14 4.455,-2.99 z"
       id="path34" /><path
       fill="#fdfdfd"
       transform="scale(0.666992,0.666667)"
       d="m 656.028,705.828 c 2.486,-2.172 4.901,-4.767 8.182,-5.607 l 3.425,0.477 c 2.399,0.347 5.315,0.322 7.05,2.159 -2.335,4.798 -36.065,30.519 -42.586,35.01 -4.924,3.39 -9.993,6.286 -15.306,9.005 1.773,3.059 5.562,8.031 6.203,11.423 -3.394,-3.117 -6.123,-8.867 -8.385,-12.923 q 2.472,-1.23 4.882,-2.577 2.411,-1.347 4.753,-2.809 2.342,-1.463 4.611,-3.036 2.269,-1.573 4.459,-3.254 2.191,-1.681 4.298,-3.466 2.107,-1.784 4.125,-3.668 2.018,-1.885 3.943,-3.864 1.925,-1.979 3.752,-4.049 c 1.764,-1.997 3.026,-4.323 4.716,-6.329 1.877,-2.227 1.725,-3.736 1.878,-6.492 z"
       id="path35" /><path
       fill="#fdfdfd"
       transform="scale(0.666992,0.666667)"
       d="m 934.515,250.879 c 2.629,0.357 9.706,1.468 11.706,2.936 0.122,0.09 0.22,0.21 0.33,0.314 l 1.016,-0.048 c -3.092,-0.037 -6.122,-0.805 -9.144,-1.417 0.017,30.689 2.886,61.451 3.206,92.168 0.17,2.222 0.345,4.423 0.281,6.653 -0.049,1.685 -0.168,1.543 -1.422,2.715 l -1.335,-0.346 c -1.176,-2.087 -1.396,-4.268 -1.58,-6.616 -0.915,-11.653 -0.582,-23.68 -0.868,-35.392 q -0.734,-30.496 -2.19,-60.967 z"
       id="path36" /><path
       fill="#fdfdfd"
       transform="scale(0.666992,0.666667)"
       d="m 887.602,1316.75 1.009,1.1 c -0.727,1.91 -1.941,3.5 -2.678,5.4 -7.239,18.57 1.359,41.89 8.7,59.26 l -0.538,0.78 -2.498,-0.43 c -0.5,0.37 -1.01,0.74 -1.563,1.02 -2.089,1.08 -4.508,0.83 -6.657,0.11 -7.978,-14.41 -4.986,-49.53 -3.869,-66.04 0.14,0.06 0.272,0.15 0.419,0.19 2.35,0.77 5.456,-0.56 7.675,-1.39 z"
       id="path38" /><path
       fill="#fdfdfd"
       transform="scale(0.666992,0.666667)"
       d="m 934.429,370.775 c 9.071,-0.937 33.067,3.067 40.23,8.537 1.368,1.045 1.709,1.707 1.887,3.371 -1.961,0.876 -24.695,-4.398 -29.676,-4.686 -13.013,0.038 -23.852,2.907 -35.373,8.724 -2.889,-1.638 -5.614,-3.549 -8.369,-5.399 9.337,-6.096 20.324,-9.253 31.301,-10.547 z"
       id="path39" /><path
       fill="#fdfdfd"
       transform="scale(0.666992,0.666667)"
       d="m 622.996,758.295 c 1.787,1.878 2.462,3.109 5.082,3.595 4.135,-1.869 6.334,-9.572 9.18,-13.183 23.942,-30.38 57.262,-62.275 95.927,-71.709 3.38,4.076 6.863,8.102 10.058,12.325 l -0.618,0.153 c -3.782,-3.116 -7.546,-6.615 -11.763,-9.121 -32.658,10.076 -85.619,56.199 -101.213,86.34 q -0.469,0.891 -0.888,1.807 c -1.922,-3.33 -4.187,-6.71 -5.765,-10.207 z"
       id="path40" /><path
       fill="#fdfdfd"
       transform="scale(0.666992,0.666667)"
       d="m 575.532,1291.56 c 0.526,0.27 1.864,0.73 2.223,1.12 2.037,2.17 3.99,40.05 9.968,49.72 -2.787,1.79 -5.638,2.74 -8.958,2.13 l -0.438,-0.22 c -6.806,-8.51 -11.099,-39.88 -12.023,-50.79 0.093,0.02 0.185,0.05 0.28,0.08 3.348,0.85 6.096,-0.36 8.948,-2.04 z"
       id="path41" /><path
       fill="#fdfdfd"
       transform="scale(0.666992,0.666667)"
       d="m 925.436,239.443 c 11.707,-1.259 38.08,6.189 48.679,11.842 2.104,1.122 3.152,1.61 3.894,3.965 -5.236,3.077 -19.808,-4.331 -25.503,-5.938 -4.765,-1.345 -9.72,-2.243 -14.579,-3.163 -14.282,-3.861 -42.739,14.22 -47.569,13.554 -0.312,-0.787 -0.65,-1.624 -0.77,-2.466 -0.216,-1.524 0.506,-3.115 1.427,-4.284 5.797,-7.365 25.316,-12.01 34.421,-13.51 z"
       id="path42" /><path
       fill="#fdfdfd"
       transform="scale(0.666992,0.666667)"
       d="m 470.892,999.197 0.703,0.04 0.529,0.823 c -4.892,9.96 -25.026,5.65 -31.186,12.56 -3.17,3.55 -2.017,31.42 -1.312,37.2 3.656,1.15 8.829,-1.97 11.401,-0.71 l 0.409,1.52 c -2.243,3.4 -9.185,3.32 -12.354,6.25 -2.04,8.25 2.583,3.05 5.463,7.87 0.354,4.45 -2.34,9.71 -3.81,13.89 -0.905,5.48 -2.572,14.24 -5.709,18.76 l -0.789,-89.17 c 11.544,-4.67 24.468,-6.7 36.655,-9.033 z"
       id="path44" /><path
       fill="#fdfdfd"
       transform="scale(0.666992,0.666667)"
       d="m 633.891,714.18 c -0.327,-6.927 -1.395,-21.196 3.131,-26.625 4.617,-5.54 1.818,-22.647 10.674,-23.937 2.809,-0.409 6.14,1.547 8.186,3.36 0.223,0.197 0.437,0.404 0.655,0.606 3.178,6.023 2.983,15.979 0.943,22.415 -1.084,3.417 -2.874,6.137 -5.837,8.227 -3.024,0.572 -6.868,-1.827 -8.504,0.617 -2.977,4.448 -2.261,13.098 -8.646,15.227 -0.193,0.065 -0.401,0.074 -0.602,0.11 z"
       id="path45" /><path
       transform="scale(0.666992,0.666667)"
       d="m 646.016,668.832 c 0.732,-0.054 1.457,-0.061 2.191,-0.015 2.082,0.13 3.622,0.77 4.934,2.45 1.752,2.244 2.909,8.376 2.387,11.165 -3.539,-2.591 -3.969,-8.557 -7.421,-11.448 -0.618,1.991 -10e-4,4.228 0.315,6.248 1.552,1.543 3.618,3.709 3.96,5.951 0.219,1.441 -0.01,1.725 -0.788,2.834 l -2.034,-0.852 c -1.223,1.682 -2.112,2.719 -3.923,3.765 l -1.487,-0.472 c -0.924,-1.52 -1.289,-2.741 -1.511,-4.478 -0.764,-5.984 -0.336,-10.285 3.377,-15.148 z"
       id="path46" /><path
       fill="#fdfdfd"
       transform="scale(0.666992,0.666667)"
       d="m 658.437,259.412 0.887,0.6 c 2.183,6.955 1.906,25.33 2.337,33.526 l -22.167,10.393 c -1.582,-1.907 -3.023,-28.555 -3.458,-32.505 q 11.33,-5.765 22.401,-12.014 z"
       id="path48" /><path
       fill="#fdfdfd"
       transform="scale(0.666992,0.666667)"
       d="m 659.474,1239.77 2.607,0.93 c 0.727,2.84 -1.779,7.74 -2.862,10.46 -0.54,0.43 -0.761,0.65 -1.334,0.96 -4.154,2.28 -54.514,11.51 -57.367,10.84 l -1.757,1.17 -1.104,-0.52 c -0.524,-2.57 -0.293,-5.03 0.213,-7.59 0.575,-2.9 2.149,-6.63 4.709,-8.28 6.339,-4.06 51.445,-4.33 56.895,-7.97 z"
       id="path51" /><path
       fill="#fdfdfd"
       transform="scale(0.666992,0.666667)"
       d="m 639.641,362.721 c 0.475,0.452 0.606,0.55 0.999,1.003 1.567,1.803 2.355,3.559 2.559,5.934 1.027,12.013 0.679,24.438 0.88,36.506 q 0.393,33.833 1.295,67.657 1.391,49.794 1.72,99.607 c 0.224,17.683 1.508,36.383 0.065,53.968 l -1.819,-1.047 c -1.778,-2.284 -1.452,-7.599 -1.536,-10.473 -1.62,-55.486 -1.19,-111.14 -2.06,-166.653 q -0.398,-26.587 -1.378,-53.158 c -0.385,-10.98 -1.365,-22.393 -0.725,-33.344 z"
       id="path53" /><path
       fill="#fdfdfd"
       transform="scale(0.666992,0.666667)"
       d="m 742.453,739.348 c 1.078,0.01 2.153,0.049 3.231,0.082 3.831,0.118 6.189,1.444 9.003,3.9 36.168,31.57 59.484,105.683 66.966,152.276 2.009,12.514 2.79,25.031 3.455,37.667 -2.904,-2.258 -11.268,-56.747 -13.134,-64.77 -11.033,-47.445 -32.803,-96.292 -69.521,-129.155 z"
       id="path54" /><path
       fill="#fdfdfd"
       transform="scale(0.666992,0.666667)"
       d="m 861.997,940.187 c 2.701,-0.254 5.239,-1.027 7.675,0.238 0.644,1.481 0.968,2.271 0.637,3.931 -2.528,1.289 -5.294,1.639 -8.083,1.948 -20.331,2.26 -41.241,2.684 -61.669,3.934 q -66.415,3.535 -132.714,8.815 c -1.161,0.127 -2.387,0.31 -3.555,0.273 -1.584,-0.051 -2.288,-0.345 -3.298,-1.515 1.245,-1.417 2.57,-1.76 4.444,-2.017 24.605,-3.376 50.17,-4.104 74.961,-6 z"
       id="path55" /><path
       fill="#fdfdfd"
       transform="scale(0.666992,0.666667)"
       d="m 231.272,1422.83 c 1.004,0.35 0.633,0.3 1.565,0.37 1.622,0.11 2.692,0.19 4.18,0.86 1.06,18.11 2.675,37.43 7.17,55.04 -0.53,0.39 -0.988,0.72 -1.614,0.95 -3.007,1.09 -9.061,2.22 -11.892,0.71 -4.752,-3.89 -13.18,-47.88 -14.277,-55.83 0.494,0.24 0.749,0.39 1.258,0.53 3.595,0.92 10.492,-0.76 13.61,-2.63 z"
       id="path56" /><path
       fill="#fdfdfd"
       transform="scale(0.666992,0.666667)"
       d="m 652.139,924.145 c 1.062,-0.149 2.151,-0.214 3.219,-0.302 2.508,-0.205 6.142,-0.786 8.154,1.143 2.42,2.32 2.188,6.618 2.431,9.75 -0.078,0.17 -0.154,0.341 -0.234,0.51 -0.133,0.282 -0.273,0.561 -0.404,0.844 -1.536,3.316 -2.459,5.038 -6.094,6.475 -3.752,1.483 -41.348,7.739 -43.158,6.966 -0.102,-2.405 1.269,-4.14 2.465,-6.127 l -1.085,-0.646 c -4.116,1.608 -6.755,7.317 -10.831,9.864 l -1.435,-1.454 c -0.304,-3.497 0.959,-7.484 1.71,-10.911 9.669,-10.475 31.418,-12.852 45.262,-16.112 z"
       id="path57" /><path
       fill="#fdfdfd"
       transform="scale(0.666992,0.666667)"
       d="m 747.822,693.299 c 6.259,4.117 12.496,8.572 19.24,11.846 1.74,9.697 2.193,19.647 2.788,29.463 -2.989,-7.787 -6.196,-19.94 -11.901,-26.087 -3.117,-3.359 -7.916,-4.545 -12.349,-4.648 -32.245,-0.749 -68.217,30.284 -89.929,51.265 -7.9,8.033 -14.128,16.755 -20.544,25.963 l -3.598,-7.596 c 8.151,-9.676 17.711,-18.005 26.888,-26.675 27.525,-26.003 50.651,-46.596 89.405,-53.531 z"
       id="path61" /><path
       fill="#fdfdfd"
       transform="scale(0.666992,0.666667)"
       d="m 867.605,989.59 c 1.136,-0.219 1.695,-0.079 2.809,0.148 l 0.868,1.468 -0.644,2.364 c -1.541,1.604 -3.072,2.33 -5.297,2.59 -5.677,0.663 -11.701,0.551 -17.425,0.861 l -39.372,2.143 c -46.201,2.506 -92.348,4.556 -138.449,8.616 -0.95,0.09 -1.692,-0.07 -2.625,-0.24 -1.049,-2.01 -1.172,-2.52 -1.132,-4.78 0.312,-0.34 0.543,-0.78 0.937,-1.03 3.713,-2.311 179.181,-10.21 200.33,-12.14 z"
       id="path62" /><path
       fill="#fdfdfd"
       transform="scale(0.666992,0.666667)"
       d="m 656.971,1015.34 4.914,0.32 c 2.152,9.59 1.516,27.39 1.942,37.83 l 3.589,77.04 3.818,71.7 c 0.433,9.21 1.92,19.59 1.187,28.72 l -1.378,0.39 -2.349,0.61 -0.938,-0.7 c -1.792,-22.68 -13.717,-208.76 -11.77,-214.24 0.217,-0.61 0.657,-1.11 0.985,-1.67 z"
       id="path63" /><path
       fill="#fdfdfd"
       transform="scale(0.666992,0.666667)"
       d="m 597.65,1024.34 c 0.514,0.62 0.87,1.27 1.084,2.04 1.776,6.45 1.589,25.07 2.162,32.78 0.968,13.03 14.077,174.82 11.922,178.05 -1.886,0.54 -2.905,0.46 -4.803,0 l -1.652,0.44 c -1.125,-1.41 -1.178,-3.37 -1.371,-5.15 -1.598,-14.74 -1.71,-30.04 -2.699,-44.89 l -5.657,-82.78 c -1.553,-26.02 -2.537,-52.18 -5.101,-78.13 1.395,-1.73 3.971,-1.82 6.115,-2.36 z"
       id="path64" /><path
       fill="#fdfdfd"
       transform="scale(0.666992,0.666667)"
       d="m 923.112,172.411 0.65,0.462 c 1.435,3.683 1.837,51.257 2.081,59.239 -10.912,1.75 -20.228,4.956 -29.942,10.179 -3.209,-7.043 -2.431,-43.915 -2.524,-53.362 10.151,-5.094 20.182,-10.362 29.735,-16.518 z"
       id="path65" /><path
       fill="#fdfdfd"
       transform="scale(0.666992,0.666667)"
       d="m 842.469,837.155 c 0.315,0.445 0.787,0.814 0.945,1.335 0.829,2.731 0.555,83.524 0.551,93.517 -4.467,0.192 -8.93,0.692 -13.381,1.105 -0.045,-4.259 -0.289,-8.442 -0.682,-12.683 -1.848,-25.406 -6.483,-51.233 -14.382,-75.464 q 13.425,-4.075 26.949,-7.81 z"
       id="path66" /><path
       fill="#fdfdfd"
       transform="scale(0.666992,0.666667)"
       d="m 655.937,95.0474 c 1.98,11.9506 0.591,27.7236 0.795,40.0786 l 1.469,63.25 c 0.278,13.956 0.055,27.986 0.92,41.915 -7.958,3.457 -15.686,7.284 -23.428,11.19 l -1.856,0.323 c -0.837,-1.712 -0.48,-3.645 -0.252,-5.477 3.476,-27.968 8.682,-55.789 12.479,-83.728 q 2.853,-22.044 5.985,-44.05 c 1.089,-7.669 1.734,-16.075 3.888,-23.5016 z"
       id="path67" /><path
       fill="#fdfdfd"
       transform="scale(0.666992,0.666667)"
       d="m 650.439,369.939 c 2.248,-0.258 4.685,-0.868 6.792,0.124 0.509,1.025 0.789,1.723 0.837,2.888 1.566,38.454 1.393,77.188 2.371,115.691 1.216,47.915 3.447,95.773 3.948,143.707 l -9.462,-4.07 c -1.84,-86.057 -0.746,-172.336 -4.486,-258.34 z"
       id="path68" /><path
       fill="#fdfdfd"
       transform="scale(0.666992,0.666667)"
       d="m 488.321,849.779 c 23.547,10.86 47.955,15.847 73.289,20.453 5.509,16.057 7.734,33.564 5.242,50.454 -2.43,16.473 -9.584,31.163 -23.097,41.139 2.994,-5.052 6.674,-9.701 9.646,-14.787 10.319,-17.662 10.993,-41.536 5.619,-61.061 -0.888,-3.228 -1.667,-5.68 -4.658,-7.409 l -1.757,0.56 c -7.308,6.892 -9.653,23.502 -11.126,32.987 -3.332,-8.827 -4.414,-18.272 -7.956,-27.068 -1.205,-2.505 -2.8,-5.312 -4.568,-7.454 -1.09,-1.321 -1.46,-1.77 -3.132,-1.963 -4.719,6.645 -7.385,25.24 -9.657,33.83 -2.536,-10.073 -7.025,-35.105 -12.033,-42.227 -1.877,-1.151 -2.31,-1.343 -4.498,-1.416 -12.436,8.664 -10.314,87.959 -23.575,108.318 -1.691,0.267 -2.724,0.147 -4.368,-0.309 -0.124,-1.133 8.477,-25.041 9.518,-30.71 q 2.203,-11.52 3.752,-23.146 1.55,-11.627 2.441,-23.322 0.891,-11.695 1.121,-23.421 0.229,-11.727 -0.203,-23.448 z"
       id="path70" /><path
       fill="#fdfdfd"
       transform="scale(0.666992,0.666667)"
       d="m 867.664,206.37 c 2.138,0.652 4.235,1.846 6.259,2.803 0.639,16.063 0.996,32.2 2.152,48.233 -19.474,9.086 -39.581,16.902 -59.398,25.194 L 690.02,335.195 c -18.606,7.811 -37.723,15.161 -55.901,23.896 l -5.377,-7.431 c 19.522,-10.462 41.576,-17.853 62.055,-26.332 l 123.529,-50.909 c 15.338,-6.302 43.397,-15.623 55.885,-24.294 -0.38,-11.443 -4.443,-34.044 -2.547,-43.755 z"
       id="path71" /><path
       fill="#fdfdfd"
       transform="scale(0.666992,0.666667)"
       d="m 763.688,588.018 c 11.655,7.334 39.629,31.642 50.299,34.092 l 3.341,16.602 c -2.122,1.68 -4.699,3.769 -5.945,6.23 -6,11.857 1.763,35.015 -2.988,49.888 -3.539,11.078 -26.067,53.403 -35.044,58.052 -1.56,-0.617 -1.76,-1.217 -2.707,-2.562 -0.088,-2.382 1.407,-4.396 1.886,-6.724 0.697,-3.396 0.849,-7.266 1.997,-10.521 2.745,-7.785 10.833,-13.941 15.279,-20.937 4.591,-7.224 7.982,-15.251 10.978,-23.244 2.484,-17.597 0.767,-38.277 0.624,-56.225 -8.812,-11.904 -24.15,-20.914 -36.149,-29.443 -7.442,9.23 -29.627,43.391 -32.086,54.632 -0.891,4.073 -0.134,9.286 0.051,13.483 l -10.138,1.876 -0.499,-16.502 c 5.781,-8.081 9.886,-18.286 14.747,-27.061 8.022,-14.48 16.807,-28.12 26.354,-41.636 z"
       id="path73" /><path
       fill="#fdfdfd"
       transform="scale(0.666992,0.666667)"
       d="m 584.635,650.626 c 14.091,-10.014 29.181,-16.551 46.526,-18.237 7.179,-0.698 24.783,0.752 30.4,5.363 l -0.146,0.919 -4.669,2.606 -0.811,-0.8 1.041,-1.921 -0.374,-0.774 -1.476,0.172 -2.254,2.891 c -2.08,-0.197 -4.076,-0.746 -6.1,-1.242 l 0.8,-1.495 c -1.922,-2.114 -8.251,3.215 -11.17,2.305 l 0.917,-1.909 c -2.303,-0.701 -4.404,0.329 -6.704,0.941 l 0.071,-1.51 c -0.872,-1.395 -0.841,-1.355 -2.416,-1.837 l -1.148,1.013 q 0.258,1.573 0.485,3.151 l -1.158,0.225 c -0.523,-0.831 -0.858,-1.378 -1.706,-1.894 -3.553,3.596 -8.617,9.012 -9.653,14.089 -2.197,10.765 16.019,11.004 19.719,17.693 0.665,1.204 0.541,1.513 0.206,2.748 l -3.259,-0.16 -0.887,0.824 0.593,1.142 c 1.206,-0.162 2.317,-0.294 3.539,-0.27 -0.255,10.888 -6.897,29.533 -1.395,39.051 0.092,0.159 0.19,0.313 0.285,0.47 0.403,0.48 0.482,1.08 0.656,1.674 -0.712,2.842 -1.48,5.001 -3.034,7.501 -1.079,-0.1 0.024,-3.544 -0.914,-4.653 -2.593,2.889 -4.233,6.162 -6.018,9.583 -5.303,1.775 -13.053,4.189 -18.723,3.662 -2.48,-0.23 -3.409,-0.89 -4.853,-2.714 -0.921,-4.16 1.143,-7.452 3.045,-10.98 l -0.421,-0.642 -2.427,-0.026 -0.569,-0.821 c 0.812,-1.908 2.391,-3.791 4.28,-4.734 3.185,-1.589 13.339,4.187 16.391,5.56 -10.312,-13.317 -14.83,-7.146 -21.089,-11.414 -0.244,-2.735 7.414,-3.023 9.469,-6.034 0.424,-0.621 0.607,-0.534 1.306,-0.756 4.359,4.196 7.864,8.544 10.66,13.925 -0.211,1.54 -0.688,3.178 0.053,4.618 1.53,-0.098 1.591,-0.063 2.733,-1.068 0.098,-0.641 0.172,-1.151 0.04,-1.796 -1.371,-6.702 -8.203,-11.899 -11.895,-17.32 -1.592,-2.337 -1.981,-4.794 -4.329,-6.567 -1.575,-0.371 -2.63,-0.953 -4.141,-0.3 0.573,0.818 1.169,1.639 1.673,2.501 1.006,1.717 1.34,2.12 0.8,4.035 -2.642,1.92 -8.072,2.478 -11.336,2.285 -3.392,-3.962 1.244,-18.386 0.848,-23.986 -0.254,-3.599 -3.366,-6.274 -3.74,-9.93 -0.987,-9.645 16.073,-17.856 22.081,-24.945 l -0.095,-0.955 c -4.153,2.849 -8.911,4.774 -13.004,7.637 -2.209,1.546 -3.395,4.045 -5.993,4.988 l -1.025,-0.744 c 0.431,-1.241 0.849,-2.241 0.68,-3.583 -2.458,-0.795 -7.816,1.641 -10.365,2.445 z"
       id="path74" /><path
       transform="scale(0.666992,0.666667)"
       d="m 625.866,685.218 0.842,0.741 c 2.498,6.905 1.326,16.196 1.184,23.429 -2.649,-8.558 -3.844,-15.245 -2.026,-24.17 z"
       id="path75" /><path
       transform="scale(0.666992,0.666667)"
       d="m 598.8,660.61 c 0.394,0.853 0.812,1.698 1.19,2.557 0.28,0.635 0.487,1.326 0.928,1.876 1.228,1.529 1.947,2.074 3.835,2.42 0.557,-0.396 1.117,-0.797 1.695,-1.162 5.487,-3.457 9.807,5.326 15.274,6.583 0.209,0.048 0.421,0.085 0.631,0.127 l -1.152,0.773 c -0.904,1.101 -1.814,2.214 -2.828,3.217 -1.772,1.755 -5.496,2.534 -7.912,2.417 -2.53,-0.122 -4.932,-1.531 -6.62,-3.356 -3.457,-3.739 -5.314,-10.42 -5.041,-15.452 z"
       id="path76" /><path
       fill="#fdfdfd"
       transform="scale(0.666992,0.666667)"
       d="m 604.909,763.856 c 7.569,6.024 18.877,31.866 25.383,40.471 l 1.073,0.128 1.992,-2.271 c 1.799,4.776 -8.216,115.876 -10.551,121.565 l -2.2,0.825 c -1.737,-0.83 -2.065,-1.256 -2.343,-3.219 -0.973,-6.871 2.44,-20.113 3.057,-27.815 1.886,-23.519 4.026,-83.092 -3.555,-104.205 -3.682,14.348 -3.466,34.494 -4.944,49.732 -3.003,30.953 -7.911,60.662 -16.364,90.633 -1.91,6.775 -3.901,17.59 -7.865,23.121 -1.058,1.477 -1.727,1.345 -3.36,1.649 -1.048,-1.968 0.381,-4.866 0.952,-7.021 7.047,-24.943 13.254,-50.26 16.954,-75.93 2.856,-19.813 4.099,-39.814 5.664,-59.758 0.706,-9.006 3.226,-21.451 0.677,-30.022 l -2.209,-0.092 c -8.626,9.972 -11.455,33.152 -15.107,46.038 -1.505,5.31 -4.279,10.312 -5.336,15.74 -1.566,8.045 5.015,15.797 9.223,22.098 -3.413,-1.556 -9.074,-4.31 -12.855,-4.01 -1.455,0.115 -2.547,0.55 -3.385,1.785 -2.133,3.14 0.028,11.701 0.55,15.515 -6.227,-5.993 -12.259,-12.098 -20.632,-14.844 3.229,-3.465 6.265,-7.118 9.349,-10.713 7.1,0.445 13.919,2.207 20.816,3.84 -5.554,-5.054 -9.42,-7.661 -16.603,-10.049 18.555,-25.035 24.306,-53.599 31.619,-83.191 z"
       id="path77" /><path
       fill="#fdfdfd"
       transform="scale(0.666992,0.666667)"
       d="m 640.539,958.846 c 1.174,-0.277 2.274,-0.145 3.461,-0.054 2.197,5.083 3.789,43.138 4.637,52.108 -18.796,2.62 -37.761,4.25 -56.582,6.86 -1.435,0.13 -1.611,0.18 -2.868,-0.49 -3.409,-8.13 -4.495,-43.042 -5.681,-54.19 18.866,-2.795 38.019,-2.908 57.033,-4.234 z"
       id="path78" /><path
       transform="scale(0.666992,0.666667)"
       d="m 629.212,964.787 c 2.439,-0.533 5.464,-0.469 7.981,-0.665 4.055,12.273 3.962,26.233 4.517,39.058 -11.398,2.87 -23.956,3.93 -35.633,5.46 -3.486,0.67 -7.098,0.9 -10.631,1.25 -1.883,-13.208 -2.646,-26.553 -3.454,-39.86 12.358,-1.126 24.864,-3.677 37.22,-5.243 z"
       id="path79" /><path
       fill="#fdfdfd"
       transform="scale(0.666992,0.666667)"
       d="m 626.925,970.744 c 2.003,-0.223 3.214,-0.586 5.132,0.242 1.502,8.322 0.988,17.772 1.264,26.261 -9.24,1.006 -18.361,2.55 -27.518,4.113 l -3.063,-0.02 c -3.94,-3.148 -3.273,-20.406 -4.381,-25.995 z"
       id="path80" /><path
       fill="#fdfdfd"
       transform="scale(0.666992,0.666667)"
       d="m 927.841,251.418 c 1.769,4.629 2.482,88.658 2.801,102.002 -11.756,1.507 -21.882,4.428 -32.759,9.132 q -2.43,-49.71 -3.529,-99.466 c 11.078,-4.565 21.8,-8.862 33.487,-11.668 z"
       id="path83" /><path
       fill="#fdfdfd"
       transform="scale(0.666992,0.666667)"
       d="m 560.729,1294.65 2.915,0.89 c 1.687,3.62 1.898,22.58 2.519,28.11 0.847,7.52 2.046,15.13 3.937,22.46 -0.875,0.75 -1.386,1.01 -2.525,1.32 -6.323,1.71 -62.106,11.66 -66.495,11.12 -0.376,-0.04 -1.448,-0.86 -1.833,-1.09 -0.106,-0.07 -0.224,-0.12 -0.317,-0.2 -6.794,-6.02 -10.072,-39.31 -10.708,-48.73 0.397,0.15 0.776,0.33 1.198,0.41 3.073,0.53 67.822,-12.21 71.309,-14.29 z"
       id="path84" /><path
       fill="#fdfdfd"
       transform="scale(0.666992,0.666667)"
       d="m 884.599,265.354 c 1.883,1.847 2.127,3.72 2.334,6.221 1.73,20.905 1.02,42.599 1.454,63.612 q 1.238,42.604 3.13,85.185 7.378,250.137 11.759,500.344 c 9.464,1.285 41.527,6.736 48.985,9.789 l 0.295,0.758 c -7.044,2.29 -39.753,-5.787 -49.175,-7.904 -0.289,33.762 1.023,67.697 1.688,101.461 l 1.349,119.49 c 0.322,18.57 1.684,38.25 0.395,56.74 -1.426,1.35 -2.26,1.72 -4.212,1.88 -2.32,-2.41 -0.108,-17.39 -0.197,-21.43 z"
       id="path85" /><path
       fill="#fdfdfd"
       transform="scale(0.666992,0.666667)"
       d="m 765.044,607.945 c 11.437,7.048 22.544,15.855 32.444,24.893 0.04,10.66 1.876,46.553 0.251,54.687 -3.037,15.196 -13.13,30.772 -23.271,42.257 l -0.821,-0.812 c -0.864,-9.369 -2.256,-18.194 -4.668,-27.3 -13.213,-10.844 -21.356,-14.394 -31.551,-29.736 l -0.042,-15.547 c 4.42,-6.489 7.586,-14.301 11.348,-21.23 5.043,-9.292 10.721,-18.241 16.31,-27.212 z"
       id="path86" /><path
       fill="#fdfdfd"
       transform="scale(0.666992,0.666667)"
       d="m 975.542,1302.47 c 0.061,0.05 0.128,0.08 0.182,0.14 10e-4,0 1.259,1.33 1.268,1.35 1.448,2.96 0.469,56.73 0.417,65.7 -0.719,0.71 -1.447,1.24 -2.378,1.65 -4.803,2.12 -65.362,11.31 -69.135,9.94 -3.18,-1.26 -5.221,-4.59 -6.805,-7.45 -1.97,-1.06 -3.122,-3.09 -4.269,-4.96 -10.322,-16.76 -4.432,-35.88 -0.118,-53.24 3.72,0.8 73.783,-10.51 80.838,-13.13 z"
       id="path90" /><path
       fill="#fdfdfd"
       transform="scale(0.666992,0.666667)"
       d="m 692.469,1268.41 c 0.185,0.08 0.382,0.14 0.554,0.24 1.463,0.91 1.546,1.26 1.831,2.85 0.706,3.93 0.047,8.9 0.059,12.94 0.036,12.47 -0.412,27.27 2.046,39.39 -1.042,0.78 -2.191,1.48 -3.453,1.83 -10.024,2.75 -21.389,3.79 -31.663,5.66 q -21.672,3.96 -43.414,7.51 c -7.599,1.23 -15.755,3.08 -23.446,3.09 -1.695,-1.53 -2.269,-3.95 -3.041,-6.05 -7.198,-8.11 -10.795,-34.84 -11.656,-45.77 0.729,0.24 0.709,0.25 1.562,0.41 3.099,0.57 107.784,-20.27 110.621,-22.1 z"
       id="path91" /><path
       fill="#fdfdfd"
       transform="scale(0.666992,0.666667)"
       d="m 864.36,949.815 c 2.081,-0.304 3.552,-0.415 5.607,0.079 1.863,10.58 0.675,23.686 0.797,34.546 -25.23,0.33 -50.639,0.305 -75.835,1.416 -42.2,1.863 -84.313,5.424 -126.474,7.939 l -1.876,0.259 c -2.783,-3.382 -3.48,-25.214 -4.311,-30.976 q 101.101,-5.797 202.092,-13.263 z"
       id="path93" /><path
       fill="#fdfdfd"
       transform="scale(0.666992,0.666667)"
       d="m 857.311,211.577 c 1.761,2.593 2.798,26.2 3.211,31.031 -19.44,9.61 -39.775,17.475 -59.662,26.107 q -48.545,21.509 -97.469,42.143 c -24.275,10.191 -49.64,19.804 -72.898,32.125 l -0.368,0.105 -0.826,-0.783 c -1.349,-8.326 -0.904,-17.437 -1.11,-25.888 25.178,-12.797 51.757,-22.989 77.327,-34.99 q 47.198,-22.481 94.779,-44.137 c 18.921,-8.72 37.762,-17.75 57.016,-25.713 z"
       id="path104-8" /><path
       fill="#fdfdfd"
       transform="scale(0.666992,0.666667)"
       d="m 973.971,1287.11 2.231,0.98 c 1.344,2.33 0.894,5.55 0.884,8.18 -0.276,0.18 -0.547,0.36 -0.828,0.54 -4.862,2.95 -140.802,23.79 -155.924,26.29 q -334.595,57.42 -670.25,108.3 c -12.563,1.92 -93.9337,15.88 -99.4494,14.52 l -1.3202,0.92 c -1.363,-0.58 -1.2642,-0.75 -1.9068,-2.12 0.9314,-2 1.9327,-2.56 4.0318,-3.15 8.0458,-2.26 17.137,-2.9 25.428,-4.13 q 20.4456,-3.08 40.8546,-6.4 l 150.577,-23.57 q 86.667,-14.02 173.16,-29.07 l 377.695,-63.96 c 17.776,-3.05 148.575,-23.4 154.817,-27.33 z"
       id="path105-2" /><path
       fill="#fdfdfd"
       transform="scale(0.666992,0.666667)"
       d="m 211.084,1425.88 c 0.754,0.16 1.666,0.3 2.369,0.61 0.074,0.03 1.241,0.64 1.38,0.83 1.499,2.09 1.322,13.33 1.566,16.23 1.003,11.95 2.354,26.58 7.167,37.65 -0.319,0.11 -0.635,0.23 -0.957,0.33 -4.699,1.45 -46.341,1.44 -50.207,-0.74 -7.008,-10.2 -6.949,-31.72 -9.329,-43.78 -1.064,13.82 -2.381,30.75 2.566,43.92 -0.378,0.17 -0.908,0.43 -1.329,0.54 -4.295,1.2 -16.564,1.34 -20.611,-0.65 -3.372,-7.47 -7.46,-29.41 -9.478,-38.44 0.141,9.1 0.188,19.76 2.824,28.53 0.43,3.32 0.689,6.66 2.035,9.76 -0.604,0.36 -1.202,0.65 -1.864,0.9 -3.799,1.4 -77.3857,0.91 -85.5898,0.4 -1.5169,-0.09 -2.6426,-0.41 -4.0064,-1.09 l 0.3213,-31.77 c 0.3974,0.14 0.8016,0.26 1.2103,0.37 3.6052,0.92 144.8946,-19.57 158.1516,-22.14 1.4,-0.27 2.55,-0.74 3.781,-1.46 z"
       id="path106" /><path
       fill="#fdfdfd"
       transform="scale(0.666992,0.666667)"
       d="m 873.459,1318.98 c 0.434,0.88 -5.854,46.7 3.01,66.02 -0.353,0.27 -0.919,0.74 -1.351,0.95 -3.746,1.87 -94.807,15.49 -104.853,16.59 -1.567,0.17 -2.472,0.12 -3.957,-0.42 l -1.546,0.29 c -3.144,-3.16 -4.755,-57.07 -5.171,-64.67 0.919,0.25 1.608,0.46 2.572,0.42 7.181,-0.3 15.238,-2.7 22.4,-3.85 l 56.349,-9.26 c 9.953,-1.61 23.359,-2.25 32.547,-6.07 z"
       id="path108" /><path
       fill="#fdfdfd"
       transform="scale(0.666992,0.666667)"
       d="m 841.02,1239.01 c 1.112,0.31 3.514,0.48 3.691,1.88 0.471,3.72 -0.662,8.94 -0.839,12.81 -0.688,15.06 0.522,31.79 8.082,45.06 -1.548,1.15 -122.846,22.29 -128.246,21.7 -1.417,-0.16 -1.554,-0.79 -2.406,-1.87 -0.649,-0.11 -0.817,-0.09 -1.464,-0.48 -9.204,-5.6 -11.24,-41.02 -12.741,-52.32 0.455,0.18 0.531,0.23 1.09,0.28 4.51,0.41 116.842,-22.3 128.459,-25.08 1.729,-0.41 2.951,-0.89 4.374,-1.98 z"
       id="path109" /><path
       fill="#fdfdfd"
       transform="scale(0.666992,0.666667)"
       d="m 974.13,1212.92 2.055,0.97 c 3.029,6.53 1.236,52.48 1.126,63.21 -3.518,2.53 -114.173,20.6 -118.406,19.92 -2.154,-1.49 -3.096,-4.1 -4.07,-6.41 -0.212,-0.17 -0.455,-0.31 -0.636,-0.52 -8.246,-9.38 -8.153,-39.91 -8.439,-51.95 0.371,0.12 0.712,0.26 1.1,0.31 3.588,0.51 113.041,-21.26 124.084,-24.04 1.292,-0.33 2.094,-0.76 3.186,-1.49 z"
       id="path110" /><path
       fill="#fdfdfd"
       transform="scale(0.666992,0.666667)"
       d="m 47.3853,1361.09 c 0.0889,-0.43 0.1824,-0.93 0.317,-1.35 0.0177,-0.05 0.606,-1.59 0.6587,-1.65 0.5341,-0.55 7.7367,-1.91 9.2089,-2.35 6.9634,-2.08 13.719,-4.55 20.0851,-8.1 21.0854,-11.76 39.711,-48.75 46.022,-71.49 q 0.524,2.27 1.257,4.49 c 9.914,29.85 27.82,57.16 56.587,71.29 -1.014,0.84 -1.941,1.32 -3.215,1.68 -5.876,1.63 -67.073,15.43 -68.521,15.26 -0.177,-0.02 -0.346,-0.08 -0.519,-0.12 0.03,17.7 1.302,35.48 2.342,53.14 -2.55,1.88 -56.542,10.92 -61.0455,10.43 -0.9046,-0.1 -1.7772,-0.41 -2.6118,-0.75 -1.28,-23.35 -0.6383,-47.1 -0.5654,-70.48 z"
       id="path111" /><path
       fill="#fdfdfd"
       transform="scale(0.666992,0.666667)"
       d="m 973.903,1197.82 2.105,0.87 c 1.476,2 1.084,5.05 1.129,7.45 -0.539,0.4 -1.081,0.75 -1.675,1.06 -8.072,4.18 -46.453,10.14 -58.54,12.47 q -37.866,7.22 -75.625,14.99 l -493.509,97.39 -132.58,26.28 c -20.356,4.08 -41.03,9.65 -61.501,12.76 -1.352,0.21 -2.142,0.05 -3.427,-0.34 0.808,14.87 3.565,29.7 4.562,44.6 -0.696,0.45 -0.682,0.47 -1.503,0.88 -4.265,2.13 -25.1,4.78 -29.187,3.52 -0.705,0.5 -1.434,0.83 -2.207,1.2 -3.141,-3.33 -4.121,-41.72 -4.438,-49.25 0.204,0.05 0.406,0.12 0.613,0.16 5.544,1.09 202.97,-41.34 223.738,-45.69 l 217.574,-45.57 288.197,-56.94 74.884,-14.61 c 14.476,-2.75 29.131,-5.04 43.482,-8.38 2.803,-0.65 5.522,-1.14 7.908,-2.85 z"
       id="path112" /><path
       fill="#fdfdfd"
       transform="scale(0.666992,0.666667)"
       d="m 647.078,1018.05 1.455,-0.22 c 1.26,1 1.246,1.69 1.402,3.31 0.498,5.16 0.085,10.66 0.23,15.86 q 0.548,19.22 1.449,38.42 c 1.752,35.57 4.601,71.16 6.792,106.71 0.993,16.11 0.214,33.67 3.139,49.52 -0.215,0.13 -0.425,0.27 -0.646,0.4 -2.945,1.63 -36.731,4.36 -40.127,3.15 -0.902,-0.68 -0.817,-0.36 -1.008,-1.64 -0.905,-6.07 -0.824,-12.57 -1.288,-18.72 q -1.961,-24.53 -3.398,-49.1 -3.279,-49.58 -7.607,-99.07 c -1.099,-14.21 -0.6,-28.89 -2.991,-42.92 14.186,-1.25 28.474,-3.77 42.598,-5.7 z"
       id="path113" /><path
       fill="#fdfdfd"
       transform="scale(0.666992,0.666667)"
       d="m 745.214,1340.38 2.276,0.86 c 1.615,3.31 -1.575,55.6 -2.236,63.64 -0.5,0.48 -0.646,0.68 -1.198,1.03 -3.33,2.08 -129.511,20.95 -134.261,20.08 -2.043,-1.37 -2.815,-3.94 -3.673,-6.12 -0.11,-0.08 -0.229,-0.14 -0.329,-0.24 -1.252,-1.15 -2.156,-3.79 -2.848,-5.34 -7.011,-15.7 -5.895,-32.92 -5.636,-49.67 0.531,0.23 0.784,0.38 1.326,0.49 1.948,0.41 133.722,-21.05 143.625,-23.44 1.056,-0.25 2.021,-0.74 2.954,-1.29 z"
       id="path122" /><path
       fill="#fdfdfd"
       transform="scale(0.666992,0.666667)"
       d="m 707.92,744.068 c 15.719,5.092 34.329,21.351 42.3,35.648 5.76,10.332 8.202,24.62 4.819,36.112 -1.662,5.647 -4.458,10.78 -6.045,16.539 q 8.461,2.895 16.973,5.635 c -8.088,2.361 -16.102,3.948 -23.86,7.414 -6.843,3.056 -11.933,6.457 -14.695,13.611 18.493,0.879 31.842,4.238 45.904,16.886 -8.839,-1.358 -28.41,-3.927 -36.654,-1.585 -2.011,0.571 -2.601,0.958 -3.593,2.731 1.986,5.407 14.066,9.254 18.708,13.326 15.466,13.567 27.945,28.367 36.756,47.095 -17.77,-20.592 -33.916,-41.098 -60.568,-50.383 -4.03,-1.404 -12.722,-4.828 -16.75,-2.894 0.378,4.648 13.14,13.529 16.568,17.742 2.614,3.212 4.491,7.13 6.421,10.782 -9.233,-5.015 -17.516,-7.517 -27.729,-9.606 4.645,4.907 10.749,11.269 12.633,17.854 0.78,2.725 1.29,5.397 -0.134,7.988 -5.585,2.103 -15.097,-11.326 -19.905,-14.509 -5.277,-3.494 -11.314,-5.402 -17.379,-7.013 l 6.249,16.752 c -5.351,-2.435 -12.527,-6.871 -18.403,-7.075 -1.108,-0.038 -1.077,0.021 -1.871,0.761 -0.315,7.782 11.193,13.956 11.747,22.131 l -1.071,0.934 0.286,-0.776 -1.095,0.628 c -4.189,-4.987 -6.247,-12.983 -11.082,-17.012 -4.551,-3.792 -10.289,-3.017 -15.743,-2.693 5.693,-5.366 10.542,-7.592 17.985,-9.699 2.784,-3.011 5.224,-6.499 7.756,-9.731 9.643,-2.877 17.594,-0.883 27.219,-0.605 l -0.33,-1.245 c -3.252,-2.885 -8.694,-3.419 -12.83,-4.066 4.974,-7.293 10.244,-14.058 17.685,-19.036 5.911,-3.955 25.689,-9.497 27.12,-12.008 -0.611,-0.743 -0.797,-1.264 -1.755,-1.542 -8.214,-2.384 -26.084,7.433 -33.23,11.89 11.291,-19.274 28.441,-35.756 45.359,-50.083 -4.479,1.496 -8.713,3.005 -12.914,5.203 -2.796,1.706 -5.466,3.709 -8.161,5.574 6.608,-13.179 14.837,-25.075 23.229,-37.146 q -0.681,0.19 -1.359,0.391 c -21.599,6.424 -32.743,29.665 -42.564,47.879 3.49,-25.283 15.871,-44.805 29.467,-65.742 -18.854,12.576 -21.624,20.987 -31.723,39.632 3.205,-21.306 13.396,-40.393 21.439,-60.197 -13.366,11.029 -18.728,24.404 -25.066,39.849 q 0.087,-0.567 0.167,-1.136 c 1.01,-7.285 3.317,-27.962 -0.951,-33.637 l -1.252,0.345 c -3.695,4.77 -4.851,13.017 -6.302,18.826 -8.253,33.04 -15.219,76.178 -15.494,110.124 -4.027,3.406 -6.81,7.122 -9.684,11.534 0.17,-10.734 2.277,-21.631 3.774,-32.254 3.778,-26.802 10.055,-64.337 7.34,-90.814 -3.762,15.799 -6.891,31.526 -9.723,47.517 -1.37,-11.223 -0.24,-22.61 -1.549,-33.868 -8.049,31.42 -15.629,63.391 -21.298,95.328 -1.851,-31.175 -0.998,-61.875 -5.746,-92.918 13.645,-11.286 26.086,-23.866 40.209,-34.632 9.703,-7.397 21.228,-12.822 30.395,-20.756 z"
       id="path123" /><path
       fill="#fdfdfd"
       transform="scale(0.666992,0.666667)"
       d="m 874.721,101.198 1.603,0.426 c 3.396,11.763 -0.964,35.184 2.077,47.672 1.908,0.946 4.677,-0.281 6.757,-0.76 q -1.62,13.543 -3.746,27.015 c 4.491,8.275 3.879,18.278 4.202,27.428 l -18.345,-5.313 c -48.936,19.687 -96.883,41.786 -145.482,62.302 q -6.926,-17.694 -13.471,-35.533 c 4.704,-2.21 9.446,-4.016 14.334,-5.76 l -4.856,-32.232 c -0.517,-3.538 -1.179,-7.058 -1.797,-10.579 7.554,-3.62 15.29,-6.881 22.967,-10.231 0.511,15.256 0.806,30.491 1.657,45.737 15.073,-6.096 29.053,-15.267 44.245,-20.783 -1.98,-16.041 -3.486,-32.211 -6.119,-48.159 6.345,-3.23 12.441,-6.831 18.561,-10.464 1.625,17.122 2.007,36.074 6.089,52.708 17.166,-5.585 39.183,-18.958 55.169,-27.848 -2.54,-14.615 -3.722,-29.632 -5.023,-44.402 6.925,-4.086 13.771,-8.062 21.178,-11.224 z"
       id="path124" /><path
       fill="#fdfdfd"
       transform="scale(0.666992,0.666667)"
       d="m 875.296,277.533 0.35,0.302 c 1.988,4.381 2.927,84.387 3.322,98.627 l 15.272,827.168 c -0.48,0.39 -0.964,0.7 -1.519,0.98 -2.756,1.37 -5.657,1.98 -8.64,1.06 l -1.998,0.14 c -1.488,-7.55 -0.654,-16.92 -0.771,-24.72 l -0.978,-48.46 q -2.862,-121.24 -2.566,-242.52 0.454,-195.896 -5.638,-391.698 -1.641,-81.926 -5.58,-163.774 c -0.779,-17.465 -1.1,-34.983 -2.242,-52.426 z"
       id="path126" /><path
       fill="#fdfdfd"
       transform="scale(0.666992,0.666667)"
       d="m 482.018,1309.66 4.07,0.77 c 0.549,0.87 0.994,37.64 5.87,48.82 -0.697,0.66 -1.392,1.15 -2.285,1.52 -5.829,2.39 -14.968,2.79 -21.31,3.83 l -41.466,7 -111.949,18.58 c -17.473,2.91 -34.928,6.29 -52.456,8.83 -3.307,0.48 -6.321,1.25 -9.415,-0.13 -3.547,-4.09 -9.3,-34.91 -10.198,-41.53 0.393,0.15 1.08,0.43 1.54,0.5 3.252,0.47 214.433,-42.38 233.676,-46.55 1.555,-0.34 2.582,-0.73 3.923,-1.64 z"
       id="path128" /><path
       fill="#fdfdfd"
       transform="scale(0.666992,0.666667)"
       d="m 860.448,1011.43 10.991,-0.53 c 0.821,65.66 3.317,131.44 3.217,197.08 -0.265,0.25 -0.628,0.61 -0.952,0.81 -3.43,2.14 -13.585,3.91 -17.588,3.16 2.255,-10.62 -0.9,-47.91 -1.297,-61.74 l -1.861,-73.39 c -0.388,-15.78 -0.453,-31.67 -1.763,-47.4 -0.247,0.14 -0.49,0.28 -0.742,0.41 -1.958,0.98 -156.857,8.92 -159.767,8.05 -1.327,19.16 1.103,47.69 1.954,67.7 1.374,32.31 1.974,64.71 3.911,96.98 q 0.015,2.09 0.067,4.18 c 0.089,3.34 0.154,4.97 2.613,7.29 7.687,1.15 16.147,0.52 23.95,0.57 l 44.816,0.31 q 20.501,0.28 40.989,1.04 c 7.802,0.27 15.872,0.99 23.652,0.64 2.098,-0.09 3.816,-0.85 5.629,-1.85 -1.413,1.16 -2.999,2.66 -4.759,3.22 -7.586,2.43 -15.994,3.67 -23.837,5.2 l -38.762,7.55 c -12.984,2.53 -37.952,8.78 -50.086,9.23 -0.889,-1.14 -1.941,-2.69 -3.281,-3.31 -6.451,-3.03 -28.512,-0.66 -37.087,-5.54 -1.205,-10.7 -1.13,-21.63 -1.518,-32.4 l -2.092,-50.4 q -3.304,-63.98 -7.922,-127.88 95.793,-3.84 191.525,-8.98 z"
       id="path129" /><path
       fill="#fdfdfd"
       transform="scale(0.666992,0.666667)"
       d="m 840.28,540.078 1.468,-0.158 c 0.288,0.374 0.711,0.676 0.865,1.122 1.074,3.123 0.816,48.978 0.924,56.23 l 1.935,127.443 c 0.306,24.281 1.042,48.593 0.319,72.871 l -12.346,3.322 c -0.094,-9.05 0.332,-20.396 -2.506,-29.042 -0.027,9.789 0.028,19.46 0.639,29.236 -9.297,2.824 -18.577,5.77 -28.023,8.063 -7.926,-18.659 -16.048,-36.043 -27.344,-52.982 12.852,-12.836 35.258,-48.214 37.569,-66.008 1.782,-13.712 -0.313,-28.815 0.316,-42.77 2.609,-2.129 5.426,-4.074 8.129,-6.087 -0.194,-0.546 -0.366,-1.088 -0.546,-1.638 -2.38,-7.285 -1.881,-14.969 -3.891,-22.284 -8.297,0.061 -15.314,-5.818 -21.712,-10.499 1.506,-11.885 1.085,-30.315 -1.324,-42.122 -1.075,13.239 -0.708,26.88 -1.017,40.183 q -14.779,-11.524 -30.468,-21.776 c -7.545,10.191 -15.44,20.379 -21.914,31.294 -7.732,13.038 -14.483,28.293 -23.906,40.088 0.26,6.587 0.583,13.122 1.258,19.681 -8.849,3.59 -17.131,7.951 -25.357,12.784 -2.336,-32.366 -0.678,-64.995 -2.617,-97.391 23.81,-9.439 48.8,-16.34 73.163,-24.228 25.514,-8.261 50.751,-17.462 76.386,-25.332 z"
       id="path131" /><path
       fill="#fdfdfd"
       transform="scale(0.666992,0.666667)"
       d="m 576.715,975.275 c 1.499,2.026 1.525,8.264 1.841,10.891 -12.627,2.584 -33.918,2.339 -42.1,13.542 -6.886,9.432 -8,24.122 -8.196,35.532 -0.792,46.15 15.179,85.62 29.826,128.5 3.295,9.65 9.771,22.87 11.212,32.54 -5.847,-6.24 -43.284,-93.2 -47.955,-106.6 q -2.313,-6.56 -3.924,-13.32 -1.61,-6.76 -2.499,-13.66 c -2.382,-19.11 1.972,-37.33 2.01,-56.3 q -3.916,13.64 -6.766,27.54 c -1.381,7.08 -2.222,14.59 -4.257,21.5 -5.921,20.12 -14.199,39.83 -20.576,59.88 q -22.861,72.29 -40.438,146.04 c -0.797,3.37 -1.634,8.44 0.498,11.47 1.41,2 3.723,3.07 6.057,3.56 5.848,1.23 13.065,0.05 18.011,-3.37 11.053,-7.65 13.743,-28.98 15.856,-41.37 3.271,-11 4.616,-23.5 6.764,-34.82 3.353,-17.65 7.644,-35.67 9.808,-53.47 1.207,17.78 0.399,97.52 4.807,108.77 2.56,6.53 10.454,11.75 16.575,14.55 3.803,1.74 9.254,3.29 13.308,1.79 -5.379,4.13 -11.822,5.69 -18.545,5.69 -5.727,-0.01 -14.62,-1.49 -18.845,-5.64 -2.605,3.14 -8.06,5.8 -11.609,7.99 -11.071,6.81 -23.571,14.62 -37.119,12.13 -5.318,-0.97 -10.427,-2.94 -15.737,-3.94 -4.8,-0.92 -9.913,-1.03 -14.671,0.19 -12.344,3.16 -32.034,15.75 -45.396,12.56 3.372,-4.37 13.809,-45.27 16.818,-54.34 9.031,-27.24 17.853,-54.73 27.444,-81.76 6.227,-17.55 13.234,-34.82 19.383,-52.39 12.765,-36.47 23.409,-74.46 42.081,-108.45 30.462,-12.351 63.949,-19.808 96.334,-25.235 z"
       id="path133" /><path
       transform="scale(0.666992,0.666667)"
       d="m 490.445,1011.72 0.658,1.14 c 0.435,6.83 -0.604,13.8 -2.149,20.43 -7.426,31.87 -18.08,63.27 -26.659,94.87 -5.522,20.34 -32.395,135.48 -38.039,143.16 -2.781,3.51 -19.741,10.8 -24.342,13 -4.3,2.05 -7.768,3.98 -12.446,2.31 l -1.203,-0.31 c -0.379,-2 7.217,-20.57 8.491,-24.43 19.626,-59.54 39.726,-118.73 63.269,-176.89 10.009,-24.72 22.211,-48.63 32.42,-73.28 z"
       id="path134" /><path
       fill="#fdfdfd"
       transform="scale(0.666992,0.666667)"
       d="m 830.307,1038.33 c 3.747,1.2 8.741,0.57 12.207,-1.14 0.177,30.29 1.979,60.76 2.71,91.07 -0.165,0.09 -0.328,0.2 -0.497,0.28 -2.461,1.3 -44.683,8.32 -48.002,8.52 -1.314,0.08 -2.565,-0.21 -3.812,-0.6 1.032,0.52 2.113,1.05 3.242,1.32 4.175,1.01 46.444,-1.63 49.174,-3.29 0.03,11.7 0.587,23.37 1.122,35.06 -0.589,0.42 -1.082,0.75 -1.774,0.98 -3.468,1.16 -40.312,2.72 -45.507,2.28 -1.14,-0.09 -2.223,-0.51 -3.241,-1.01 0.637,0.38 1.273,0.74 1.92,1.1 0.873,0.5 1.624,0.88 2.614,1.13 6.722,1.64 41.281,4.64 46.417,1.51 q 0.493,16.64 1.62,33.24 c -0.224,0.08 -0.445,0.17 -0.671,0.24 -3.483,1.15 -16.526,-1.55 -21.126,-1.62 -11.528,-0.18 -97.312,-0.26 -100.767,-1.95 -1.137,-10.9 -4.832,-34.6 -2.475,-44.05 1.304,-5.23 4.321,-9.92 7.595,-14.12 3.678,-4.72 8.527,-9.53 9.998,-15.47 0.053,-0.22 0.097,-0.44 0.146,-0.65 3.339,-6.29 3.953,-28.27 5.962,-37.04 1.449,-6.33 4.442,-12.5 6.703,-18.58 3.374,-9.06 5.208,-18.73 5.929,-28.35 -2.241,8.4 -4.17,17.18 -7.13,25.34 -2.688,7.42 -6.743,14.77 -8.626,22.41 -2.919,11.84 -1.899,25.38 -5.287,36.63 -1.697,5.65 -7.31,10.77 -10.619,15.7 -2.734,4.07 -5.48,8.44 -6.954,13.15 -3.849,12.31 -1.067,31.61 -0.481,44.84 -0.688,0.42 -1.273,0.78 -2.071,0.97 -3.808,0.9 -10.594,0.91 -14.039,-0.97 -2.769,-15.89 -1.778,-33.37 -2.424,-49.52 l -3.831,-111.18 c 0.568,0.34 1.041,0.62 1.699,0.76 8.2,1.75 50.384,-1.88 61.68,-2.48 21.687,-1.15 44.011,-1.16 65.575,-3.48 1.108,-0.12 2.055,-0.5 3.021,-1.03 z"
       id="path135" /><path
       fill="#fdfdfd"
       transform="scale(0.666992,0.666667)"
       d="m 144.616,1057.35 c 0.138,-0.04 0.278,-0.08 0.414,-0.13 5.52,-1.85 6.836,-7.77 13.495,-6.7 1.381,0.91 2.579,1.9 2.863,3.65 0.322,1.96 -0.664,3.33 -1.884,4.77 -2.189,2.57 -6.697,5.68 -9.755,7.03 -2.432,17.72 0.926,34.39 3.205,51.94 7.516,57.87 18.268,115.92 54.394,163.49 13.034,17.17 26.329,30.88 44.008,43.14 4.554,3.16 9.632,6.97 14.979,8.59 l 2.35,-0.47 c -2.434,2.39 -7.899,3.41 -11.301,3.29 -0.265,-0.01 -0.526,-0.06 -0.789,-0.09 -5.434,1.95 -25.654,8.1 -30.754,6.42 -2.602,2.52 -5.635,2.52 -9.041,2.54 -4.302,1.53 -16.132,5.71 -20.309,4.31 -2.334,2.41 -9.851,3.36 -13.342,3.26 -0.612,-0.02 -1.075,-0.23 -1.628,-0.46 -28.767,-14.13 -46.673,-41.44 -56.587,-71.29 q -0.733,-2.22 -1.257,-4.49 c -6.311,22.74 -24.9366,59.73 -46.022,71.49 -6.3661,3.55 -13.1217,6.02 -20.0851,8.1 -1.4722,0.44 -8.6748,1.8 -9.2089,2.35 -0.0527,0.06 -0.641,1.6 -0.6587,1.65 -0.1346,0.42 -0.2281,0.92 -0.317,1.35 -1.2826,-6.43 -0.5876,-15.81 -9e-4,-22.39 0.0452,-6.92 -0.301,-14.15 0.6879,-21 l -0.141,-2.28 c -0.8873,-5.51 -0.4615,-11.78 -0.4928,-17.37 q -0.114,-18.58 0.2107,-37.16 l 0.3106,-78.46 0.1461,-4.3 -0.217,-1.36 c -1.8584,-4.58 -1.0506,-41 0.1988,-47.04 l 1.105,0.65 c 3.3438,-1.38 67.3923,-50.88 72.1103,-55.4 4.787,-4.58 6.087,-12.72 11.412,-16.38 4.069,-2.8 8.472,0.5 11.901,-1.25 z"
       id="path136" /><path
       fill="#fdfdfd"
       transform="scale(0.666992,0.666667)"
       d="m 138.025,1221.23 c 0.61,3.78 1.465,7.53 2.356,11.25 10.511,43.9 37.439,87.67 76.328,111.55 l 0.091,0.79 c -4.302,1.53 -16.132,5.71 -20.309,4.31 -0.66,0.24 -0.931,0.37 -1.569,0.51 -3.082,0.64 -9.002,-2.74 -11.567,-4.45 -22.997,-15.38 -48.592,-59.84 -54.171,-86.6 3.661,-11.94 7.469,-24.97 8.841,-37.36 z"
       id="path138" /><path
       fill="#fdfdfd"
       transform="scale(0.666992,0.666667)"
       d="m 857.031,290.26 0.412,0.07 c 1.042,1.486 0.791,2.611 0.846,4.4 l 1.543,0.383 -1.182,0.541 5.754,159.97 q 6.666,237.105 5.263,474.299 c -6.002,0.204 -12.028,0.754 -18.022,1.162 -0.06,-10.495 0.582,-100.093 -0.439,-101.912 -0.304,-0.541 -0.811,-0.939 -1.217,-1.408 -5.435,-1.627 -29.951,7.373 -36.432,9.523 q -3.763,-9.902 -7.327,-19.878 c 15.544,-4.798 31.41,-9.008 46.705,-14.53 1.359,-51.683 -0.976,-103.656 -1.575,-155.358 -1.404,-34.753 -0.557,-69.664 -2.374,-104.387 -0.165,-3.152 0.041,-8.904 -2.341,-11.059 -2.345,-0.448 -4.367,-0.207 -6.643,0.434 -17.58,4.95 -35.151,11.81 -52.532,17.564 l -103.204,33.974 q 0.533,31.591 2.003,63.153 c 0.548,12.109 0.505,24.646 2.56,36.594 0.353,2.054 0.359,3.469 -0.836,5.176 l -1.21,-0.082 c -5.524,-6.982 -6.297,-21.384 -7.733,-30.134 -1.269,-7.734 -2.569,-19.649 -9.393,-24.425 l -0.631,-0.435 c -0.521,-54.053 -2.946,-108.283 -4.765,-162.315 -1.132,-33.607 -0.976,-67.705 -3.464,-101.218 6.617,-3.699 14.589,-5.075 21.8,-7.302 q 14.263,-4.435 28.128,-9.991 c 11.064,-4.559 20.311,-12.274 31.072,-16.864 8.809,-3.758 17.997,-6.838 26.898,-10.407 z"
       id="path142" /><path
       transform="scale(0.666992,0.666667)"
       d="m 837.314,319.508 c 2.319,0.538 4.695,1.082 6.18,3.118 1.692,2.321 2.074,76.005 2.18,83.647 0.175,12.545 3.606,99.446 1.696,104.258 -1.114,2.809 -20.393,7.871 -24.73,9.411 -44.363,15.76 -90.209,28.084 -134.001,45.488 -0.952,0.172 -1.903,0.206 -2.868,0.267 -1.321,-1.542 -1.421,-3.281 -1.507,-5.243 -0.156,-3.553 0.256,-7.154 0.164,-10.729 q -0.933,-26.553 -1.263,-53.12 -1.276,-57.562 -3.674,-115.088 c 13.339,-6.169 27.633,-11.152 41.289,-16.659 q 58.139,-23.003 116.534,-45.35 z"
       id="path143" /><path
       fill="#fdfdfd"
       transform="scale(0.666992,0.666667)"
       d="m 836.256,327.784 c 0.343,0.475 0.828,0.874 1.029,1.424 0.981,2.68 0.416,21.846 0.541,26.062 1.506,50.695 4.495,101.954 3.364,152.66 -35.216,11.728 -70.587,22.82 -105.715,34.852 -14.578,4.993 -29.42,9.651 -43.706,15.42 l -1.451,-25.488 c -1.224,-49.37 -3.723,-98.867 -3.889,-148.24 12.924,-3.047 24.842,-8.335 37.274,-12.859 q -3.571,9.352 -6.994,18.76 l 1.236,1.232 -0.235,0.306 -1.089,-0.534 0.141,1.447 0.58,-0.48 -0.836,-0.29 0.183,0.775 c 3.641,-6.906 6.288,-14.908 9.259,-22.151 z"
       id="path144" /><path
       transform="scale(0.666992,0.666667)"
       d="m 770.671,369.953 c 7.647,-0.974 16.558,-0.702 23.694,2.365 10.939,4.7 17.658,16.08 21.937,26.653 q 0.443,1.086 0.858,2.182 0.416,1.096 0.804,2.202 0.388,1.106 0.749,2.222 0.361,1.115 0.695,2.239 0.333,1.124 0.639,2.256 0.305,1.132 0.583,2.271 0.277,1.139 0.526,2.284 0.25,1.146 0.471,2.297 0.221,1.151 0.413,2.308 0.193,1.156 0.357,2.317 0.164,1.161 0.299,2.325 0.135,1.165 0.242,2.332 0.106,1.168 0.184,2.337 0.078,1.17 0.126,2.341 0.049,1.172 0.069,2.344 0.02,1.172 0.011,2.344 -0.009,1.173 -0.047,2.344 -0.038,1.172 -0.105,2.342 -0.067,1.171 -0.162,2.339 -0.096,1.169 -0.22,2.334 -0.125,1.166 -0.278,2.328 -0.153,1.162 -0.335,2.321 -0.182,1.158 -0.392,2.311 -0.211,1.153 -0.449,2.301 -0.239,1.148 -0.506,2.289 -0.267,1.142 -0.562,2.277 -0.295,1.134 -0.618,2.261 -0.323,1.127 -0.674,2.246 -0.35,1.118 -0.728,2.228 -0.378,1.11 -0.784,2.21 -0.405,1.1 -0.837,2.19 -0.433,1.089 -0.892,2.168 c -7.642,17.747 -20.433,30.353 -35.552,41.848 -4.074,3.098 -8.902,6.993 -13.67,8.879 -10.854,-3.821 -21.735,-5.136 -31.446,-11.929 -12.871,-9.002 -19.153,-22.948 -21.862,-38.013 -4.79,-26.632 0.668,-55.812 16.247,-78.129 10.709,-15.341 23.143,-21.586 41.215,-24.764 z"
       id="path150" /><path
       fill="#fdfdfd"
       transform="scale(0.666992,0.666667)"
       d="m 770.88,375.156 c 4.469,-0.38 8.966,-0.626 13.42,0.078 9.008,1.422 15.746,6.688 20.954,13.968 12.497,17.47 15.793,40.764 12.46,61.563 -5.3,33.071 -25.795,50.135 -51.265,68.628 -9.574,-3.191 -19.67,-5.146 -28.25,-10.716 -11.793,-7.655 -18.089,-20.158 -20.917,-33.608 -5.318,-25.293 0.125,-53.955 14.29,-75.549 10.053,-15.327 21.926,-20.794 39.308,-24.364 z"
       id="path151" /><path
       transform="scale(0.666992,0.666667)"
       d="m 781.571,394.614 q 2.312,-0.118 4.609,0.174 2.296,0.293 4.505,0.987 c 7.342,2.351 12.541,7.744 15.979,14.492 7.907,15.519 6.128,32.697 1.023,48.742 -6.034,18.96 -16.696,32.168 -34.262,41.303 -1.445,2.934 -2.964,6.98 -5.676,8.885 -5.207,-0.397 -4.417,-4.854 -8.626,-6.481 -3.991,-0.333 -8.143,-0.658 -11.919,-2.071 -9.781,-3.661 -16.534,-11.46 -20.711,-20.844 -6.592,-14.811 -6.095,-35.482 -0.227,-50.374 3.579,-9.083 10.264,-19.647 19.685,-23.521 5.928,-2.438 11.749,-1.842 17.574,0.502 4.81,-6.688 10.145,-9.784 18.046,-11.794 z"
       id="path152" /><path
       fill="#fdfdfd"
       transform="scale(0.666992,0.666667)"
       d="m 782.074,398.426 c 1.875,0.123 3.781,0.248 5.613,0.687 6.193,1.485 11.143,5.678 14.374,11.073 7.77,12.975 7.05,28.36 3.579,42.518 -5.628,22.959 -15.45,33.469 -35.023,45.365 -1.535,2.78 -2.869,5.701 -4.273,8.551 -0.573,-3.054 -1.226,-6.224 -0.948,-9.345 0.654,-7.349 4.108,-15.325 6.203,-22.42 1.983,-6.718 3.113,-13.365 3.929,-20.312 -6.284,10.259 -7.094,23.245 -11.822,34.294 -3.482,-7.943 -7.784,-15.612 -11.635,-23.393 -1.037,-3.011 -1.696,-8.329 -3.866,-10.498 -4.695,6.21 9.8,28.979 12.403,36.131 1.181,3.243 1.388,6.711 1.649,10.127 -8.745,-2.189 -17.775,-4.289 -24.511,-10.685 -9.354,-8.883 -12.222,-22.625 -12.443,-35.033 -0.257,-14.419 4.32,-31.409 14.703,-41.925 2.982,-3.019 6.393,-5.04 10.783,-4.949 3.238,0.068 4.75,1.879 6.909,4.007 -0.413,4.347 -1.47,9.381 1.032,13.313 1.221,1.919 1.748,2.364 3.93,2.813 0.84,-0.5 1.337,-0.905 1.884,-1.737 3.469,-5.272 2.125,-9.976 1.021,-15.664 4.424,-7.352 8.219,-10.616 16.509,-12.918 z"
       id="path153" /><path
       transform="scale(0.666992,0.666667)"
       d="m 789.121,440.335 2.746,-0.941 c 0.866,0.984 0.855,1.214 2.132,1.38 1.697,1.878 2.196,4.364 2.922,6.739 -0.511,2.594 -1.001,5.217 -1.69,7.772 -2.703,10.028 -10.221,17.02 -18.889,22.158 4.863,-5.397 9.881,-10.966 12.817,-17.696 3.069,-7.035 2.738,-12.413 -0.038,-19.412 z"
       id="path154" /><path
       transform="scale(0.666992,0.666667)"
       d="m 748.044,441.651 c -5.285,10.506 -7.948,22.051 -4.182,33.464 0.388,1.176 0.279,1.059 -0.031,2.16 -1.62,0.199 -2.487,0.102 -3.835,-0.962 -3.445,-2.719 -4.46,-10.438 -4.519,-14.544 -0.105,-7.428 3.325,-15.48 8.529,-20.755 1.325,-1.343 3.648,-3.33 5.526,-3.632 l -0.199,1.02 0.599,-0.404 c 0.119,0.174 0.236,0.35 0.359,0.522 2.007,2.814 4.251,4.126 7.672,4.67 6.235,0.992 13.382,-1.327 18.413,-5.017 0.761,-0.558 0.962,-0.536 1.13,-1.451 0.515,-2.797 0.703,-4.698 3.1,-6.345 q 0.533,-0.058 1.069,-0.066 0.536,-0.007 1.071,0.038 0.534,0.044 1.062,0.139 0.527,0.096 1.044,0.241 0.516,0.145 1.015,0.34 0.5,0.194 0.979,0.435 0.479,0.241 0.932,0.527 0.454,0.286 0.878,0.614 c 2.539,1.993 4.173,5.198 5.343,8.129 -1.277,-0.166 -1.266,-0.396 -2.132,-1.38 l -2.746,0.941 c -1.53,-2.648 -2.98,-5.301 -6.135,-6.173 -0.729,-0.201 -1.45,0.275 -2.144,0.529 l -0.329,1.318 c 2.829,3.018 5.924,5.934 8.189,9.409 -2.772,10.308 -5.326,19.199 -10.726,28.491 1.777,-7.708 9.808,-23.257 5.936,-30.012 -1.214,-2.118 -3.653,-3.889 -5.498,-5.475 -5.942,4.553 -11.78,8.805 -19.642,7.784 -3.91,-0.507 -7.437,-2.489 -10.728,-4.555 z"
       id="path155" /><path
       fill="#fdfdfd"
       transform="scale(0.666992,0.666667)"
       d="m 342.197,53.1828 551.13,-0.4217 c -1.449,15.9253 -3.477,32.0121 -4.608,47.9279 -3.128,-1.9788 -6.562,-3.8589 -9.422,-6.1971 -10.817,4.2737 -21.55,8.7111 -30.865,15.8231 0.9,13.555 1.279,29.845 3.924,43.058 -11.754,5.141 -23.76,9.614 -35.754,14.155 -1.738,-12.058 -3.334,-24.155 -5.611,-36.126 q -6.238,-2.813 -12.535,-5.491 c -8.685,4.129 -17.203,7.779 -23.913,14.905 3.111,12.572 4.274,32.982 5.118,46.212 -8.489,3.711 -16.877,7.471 -25.117,11.721 -1.611,-11.021 -1.549,-23.101 -3.87,-33.873 -3.359,-1.379 -6.703,-2.811 -10.151,-3.957 -9.977,4.01 -19.3,7.899 -28.409,13.64 2.123,13.445 2.934,26.869 6.087,40.18 -3.929,1.484 -8,2.828 -11.641,4.941 -3.316,-7.026 -6.359,-14.075 -8.794,-21.46 -8.992,-27.281 -16.685,-55.233 -24.904,-82.77 -3.569,-11.959 -6.565,-24.4875 -11.142,-36.0806 -0.852,-2.1575 -1.686,-3.9468 -3.46,-5.5152 -2.039,-0.4395 -1.981,-0.3536 -3.688,0.5952 -1.731,2.0171 -2.121,4.1772 -2.696,6.7094 -8.469,37.2652 -12.299,76.1462 -17.892,113.9622 -2.446,16.532 -9.775,51.362 -8.539,66.21 0.569,6.83 2.618,13.618 3.786,20.377 1.425,8.254 1.971,16.757 2.539,25.109 -3.917,1.922 -7.905,3.765 -11.672,5.969 3.32,12.068 1.817,25.496 2.845,37.924 3.04,4.426 6.291,8.454 9.8,12.505 1.468,22.23 1.266,44.824 1.733,67.116 1.359,64.939 0.811,129.982 2.884,194.894 -18.982,2.961 -33.518,8.232 -50.608,16.832 -3.623,1.824 -8.049,3.292 -11.022,6.094 l -0.265,1.286 c 2.4,3.423 9.418,4.075 13.362,4.83 0.123,7.467 -0.293,13.207 -3.592,20.068 -1.023,2.127 -2.595,4.575 -3.095,6.838 -0.337,1.528 -0.018,1.884 0.708,3.16 2.774,1.786 6.021,1.887 9.228,2.175 -0.677,4.195 -2.231,9.586 -1.075,13.721 1.922,2.527 4.044,4.289 5.126,7.379 2.711,7.735 -0.544,15.73 0.877,23.253 0.502,2.656 4.644,4.843 7.075,5.187 1.026,0.145 2.111,0.058 3.14,-0.024 -1.107,1.926 -9.083,3.33 -11.626,5.724 -0.177,0.168 -0.365,0.324 -0.541,0.493 -0.106,0.102 -0.203,0.213 -0.305,0.319 2.552,4.386 5.425,8.838 7.604,13.407 -13.599,35.418 -10.065,54.617 -34.654,88.215 -4.158,5.682 -8.187,11.892 -13.596,16.447 -15.458,-1.661 -31.035,-5.328 -45.811,-10.12 -5.131,-1.664 -20.005,-9.206 -24.211,-8.834 -0.991,0.942 -1.846,1.87 -2.706,2.934 -3.901,-0.793 -9.385,-4.395 -11.693,-7.697 -2.146,-3.07 -1.653,-6.84 -2.953,-10.176 -1.945,-4.992 -9.054,-7.971 -7.51,-13.775 1.639,-6.169 9.996,-13.879 8.624,-20.614 1.594,-1.5 3.492,-3.125 4.71,-4.947 2.953,-4.419 4.679,-10.028 7.064,-14.81 5.412,-10.849 11.096,-21.289 17.719,-31.43 3.308,-0.583 6.105,-2.047 9.095,-3.509 4.186,4.052 8.284,8.238 12.926,11.776 2.777,-0.434 5.565,-1.187 8.285,-0.246 l -0.2,0.951 c -10.911,4.022 -18.515,-2.475 -19.945,-2.036 -0.521,0.16 -0.768,0.774 -1.152,1.161 1.051,3.936 5.309,6.355 8.696,8.306 3.988,2.297 8.6,2.527 12.971,1.342 8.178,-2.216 14.322,-8.708 18.283,-15.946 4.532,-8.279 6.963,-19.168 4.163,-28.424 -1.607,-5.315 -10.005,-9.125 -14.233,-12.701 -7.712,-6.523 -18.001,-15.355 -24.546,-22.918 -5.036,-5.818 -4.298,-12.221 -12.076,-16.376 -5.468,-2.92 -11.771,-2.759 -17.536,-0.842 -11.265,3.748 -21.006,13.415 -26.227,23.91 -3.13,6.293 -5.703,15.115 -3.358,22.056 1.655,4.9 5.46,8.408 10.033,10.626 4.879,2.365 9.123,3.513 13.737,6.687 -7.209,11.559 -12.717,23.88 -18.826,36.019 -3.739,7.432 -7.977,14.603 -11.715,22.037 -3.271,6.505 -6.012,13.3 -9.744,19.566 -3.132,5.259 -8.327,13.39 -12.809,17.518 -2.379,2.192 -4.705,0.938 -6.629,4.558 -1.698,3.196 -0.588,6.927 -1.507,10.268 -0.766,2.786 -3.629,6.065 -2.954,8.922 0.505,2.138 1.447,4.091 2.479,6.016 -8.288,15.373 -39.19,72.384 -34.483,87.231 0.389,1.225 0.738,1.458 1.691,2.316 2.696,0.373 4.637,-1.078 6.685,-2.655 3.376,-2.599 7.514,-6.154 10.114,-9.529 6.33,-8.215 11.129,-19.376 15.674,-28.722 4.223,-8.683 9.074,-17.021 13.574,-25.557 1.671,-3.169 2.797,-6.559 4.598,-9.662 3.535,1.496 7.119,3.199 10.966,1.654 0.903,-0.363 1.767,-0.827 2.62,-1.292 l 0.747,0.477 c 4.011,2.514 13.272,3.79 14.408,8.348 1.916,7.693 -0.478,18.065 -0.895,26.099 -0.652,12.587 -3.476,71.855 6.795,77.941 7.217,4.276 30.344,4.992 39.454,5.564 -8.536,3.219 -17.133,6.796 -26.001,8.976 -17.741,4.36 -35.164,6.051 -52.128,13.52 l -0.037,73.62 c 0.006,12.54 1.523,27.46 -0.984,39.74 -2.559,12.53 -8.889,25.07 -13.026,37.21 -12.821,37.64 -25.811,75.66 -36.936,113.81 -3.837,13.15 -9.084,27.68 -10.588,41.31 -0.072,0.65 -0.196,1.3 -0.301,1.94 -7.984,2.78 -92.967,21.85 -97.807,20.44 l -2.35,0.47 c -5.347,-1.62 -10.425,-5.43 -14.979,-8.59 -17.679,-12.26 -30.974,-25.97 -44.008,-43.14 -36.126,-47.57 -46.878,-105.62 -54.394,-163.49 -2.279,-17.55 -5.637,-34.22 -3.205,-51.94 3.058,-1.35 7.566,-4.46 9.755,-7.03 1.22,-1.44 2.206,-2.81 1.884,-4.77 -0.284,-1.75 -1.482,-2.74 -2.863,-3.65 -6.659,-1.07 -7.975,4.85 -13.495,6.7 -0.136,0.05 -0.276,0.09 -0.414,0.13 -3.429,1.75 -7.832,-1.55 -11.901,1.25 -5.325,3.66 -6.625,11.8 -11.412,16.38 -4.718,4.52 -68.7665,54.02 -72.1103,55.4 l -1.105,-0.65 c -0.902,-31.03 -0.256,-62.19 -0.2324,-93.24 0.0143,-18.73 -1.1987,-38.112 0.2367,-56.77 Q 46.7805,884.926 47.2365,790.125 l 0.1493,-62.442 c 0.0491,-13.176 -0.3432,-26.577 0.7726,-39.711 0.3634,-51.063 -2.7466,-102.425 -0.122,-153.451 l -0.0058,-9.698 C 46.1209,474.924 46.9697,424.217 48.1617,374.309 l -0.0563,-10.277 c -0.2576,-4.822 -0.0792,-9.734 -0.0905,-14.567 l -0.0392,-11.171 c -0.5355,-18.978 -0.3818,-37.938 -0.6054,-56.919 -1.0312,-10.87 0.2056,-22.14 0.0392,-33.081 Q 46.5024,192.805 47.7404,137.323 47.2409,110.958 47.8679,84.5958 C 47.566,81.4286 47.8661,78.0223 47.9254,74.831 L 47.8257,53.2284 98.7516,53.0542 c 10.1034,-0.0262 21.1694,-0.8731 31.1314,0.7908 9.799,-1.4195 29.01,-1.1834 39.003,-0.5115 23.932,-0.0274 48.126,0.666 72.031,-0.1332 l 2.467,-0.0255 92.885,0.1348 z"
       id="path156" /><path
       transform="scale(0.666992,0.666667)"
       d="m 486.71,553.778 c 0.125,-0.207 0.253,-0.412 0.375,-0.621 1.541,-2.624 1.483,-9.268 2,-9.765 0.051,0.923 0.015,1.72 -0.12,2.626 -0.69,4.625 -0.526,9.892 0.37,14.477 -1.7,19.507 -4.67,38.432 -10.751,57.076 l -1.05,-1.245 c 2.618,-13.64 4.398,-27.351 6.164,-41.119 0.896,-6.983 1.2,-14.686 3.012,-21.429 z"
       id="path159" /><path
       fill="#3d3d3d"
       transform="scale(0.666992,0.666667)"
       d="m 478.584,617.571 c -0.439,0.612 -0.969,1.014 -1.539,1.501 -0.718,-0.363 -1.316,-0.672 -1.9,-1.239 -3.646,-3.54 -5.849,-9.324 -7.743,-13.962 -13.324,-32.629 -13.457,-68.833 -15.368,-103.533 l 0.425,0.94 -0.429,-3.57 -0.096,0.112 c 3.789,7.794 4.767,26.154 6.112,35.692 3.575,25.342 6.478,53.323 15.61,77.265 0.886,2.323 1.54,4.499 3.878,5.549 z"
       id="path164" /><path
       fill="#3d3d3d"
       transform="scale(0.666992,0.666667)"
       d="m 490.188,460.435 c 2.451,9.665 1.582,21.787 2.009,31.88 q 1,21.791 2.782,43.533 c 2.747,31.374 8.663,62.448 13.302,93.559 -7.43,-21.654 -11.304,-45.284 -14.346,-67.966 -1.056,-7.866 -1.418,-15.926 -2.849,-23.721 -0.539,7.499 -0.626,15.36 -1.751,22.775 -0.896,-4.585 -1.06,-9.852 -0.37,-14.477 0.135,-0.906 0.171,-1.703 0.12,-2.626 -0.517,0.497 -0.459,7.141 -2,9.765 -0.122,0.209 -0.25,0.414 -0.375,0.621 1.014,-14.126 2.499,-28.267 2.96,-42.422 0.552,-16.967 0.027,-33.962 0.518,-50.921 z"
       id="path165" /><path
       fill="#3d3d3d"
       transform="scale(0.666992,0.666667)"
       d="m 501.488,433.422 c 1.876,2.231 5.484,37.596 6.164,42.923 4.342,34.033 7.845,68.347 12.929,102.253 q 2.327,15.981 5.187,31.875 c 1.367,7.311 3.558,15.052 3.877,22.475 -12.563,-29.355 -16.309,-69.234 -20.187,-100.962 -4.017,-32.862 -8.083,-65.383 -7.97,-98.564 z"
       id="path166" /><path
       fill="#3d3d3d"
       transform="scale(0.666992,0.666667)"
       d="m 249.702,372.643 c 4.573,0.539 6.932,3.512 9.975,6.735 9.277,9.825 15.363,20.661 21.407,32.628 48.121,95.277 39.685,256.154 39.552,361.9 -0.082,65.596 0.959,131.388 -0.735,196.957 -2.329,-33.578 -2.137,-67.722 -2.575,-101.372 -1.032,-79.23 -0.067,-158.641 -3.69,-237.804 -0.567,-51.049 -10.239,-133.387 -26.095,-181.595 -7.996,-24.313 -19.871,-49.814 -36.701,-69.301 -9.487,7.364 -18.163,15.434 -25.671,24.835 -35.844,44.879 -55.867,116.533 -66.643,172.57 -2.722,14.155 -4.73,28.455 -7.138,42.666 -0.529,3.121 -0.349,6.987 -1.595,9.855 -0.962,-4.284 0.274,-11.139 0.537,-15.619 q 0.756,-13.762 2.275,-27.461 1.519,-13.699 3.796,-27.292 2.277,-13.594 5.306,-27.04 3.028,-13.446 6.799,-26.703 c 13.858,-47.903 34.964,-108.493 81.196,-133.959 z"
       id="path168" /><path
       fill="#3d3d3d"
       transform="scale(0.666992,0.666667)"
       d="m 247.658,401.688 c 2.17,0.441 2.874,0.928 4.403,2.576 9.201,9.92 15.196,28.486 19.279,41.163 16.094,49.976 21.58,101.933 25.164,154.05 5.163,75.084 4.243,149.874 4.235,225.08 -0.007,57.491 0.741,115.131 -0.873,172.596 -0.287,10.217 -0.671,54.787 -6.051,59.867 -9.737,-5.31 -16.158,-66.829 -20.838,-80.416 -6.614,14.25 -16.074,63.166 -22.818,71.196 -4.811,-7.35 -11.328,-57.913 -13.918,-69.628 -0.48,-3.025 -1.516,-5.923 -2.443,-8.833 -5.677,12.505 -20.369,69.571 -23.366,73.101 -5.707,-3.87 -10.193,-42.629 -12.024,-51.915 -1.264,-6.411 -2.788,-12.99 -5.218,-19.067 l -0.378,-0.933 c -5.631,12.826 -13.923,56.125 -21.57,62.985 -1.524,-3.23 -1.601,-8.11 -1.743,-11.63 -0.839,-20.88 -0.101,-42.057 -0.092,-62.96 0.013,-29.221 -0.495,-58.507 -0.882,-87.731 L 167.65,761.128 c -0.462,-44.386 -1.177,-88.975 1.012,-133.324 1.445,-29.297 5.344,-59.454 11.518,-88.162 8.896,-41.364 23.937,-85.333 49.549,-119.388 5.128,-6.82 10.705,-13.904 17.929,-18.566 z"
       id="path172" /><path
       fill="#fdfdfd"
       transform="scale(0.666992,0.666667)"
       d="m 244.944,413.228 c 0.041,0.046 0.086,0.089 0.124,0.139 11.071,14.289 35.113,101.943 32.857,119.625 -2.476,19.4 -23.713,54.34 -39.222,66.089 -2.411,-1.77 -4.56,-3.89 -6.759,-5.914 -17.26,-17.106 -33.097,-42.619 -39.939,-65.986 6.716,-28.317 17.339,-59.02 32.201,-84.07 6.192,-10.437 13.541,-20.131 20.738,-29.883 z"
       id="path173" /><path
       fill="#fdfdfd"
       transform="scale(0.666992,0.666667)"
       d="m 186.243,561.526 c 2.307,1.821 4.641,8.575 6.107,11.367 9.733,18.535 25.175,41.389 45.9,47.864 1.366,-0.38 2.731,-0.775 4.059,-1.273 18.137,-6.813 33.654,-42.499 40.958,-58.989 1.789,18.083 7.92,72.925 5.013,88.72 -0.801,4.352 -3.965,9.321 -5.928,13.312 -11.317,22.117 -25.758,44.734 -47.111,58.332 -12.361,-5.175 -22.348,-18.883 -29.699,-29.7 -7.868,-11.576 -25.906,-40.083 -27.457,-53.586 -1.039,-9.053 0.834,-19.547 1.645,-28.608 q 1.929,-23.902 6.513,-47.439 z"
       id="path174" /><path
       fill="#fdfdfd"
       transform="scale(0.666992,0.666667)"
       d="m 290.6,681.531 c 1.162,7.423 0.462,15.571 0.705,23.116 0.491,15.288 1.537,31.536 0.002,46.727 -4.23,41.862 -26.362,115.494 -49.499,151.083 -18.645,-24.036 -30.207,-55.628 -41.498,-83.615 -8.566,-24.092 -20.32,-57.236 -23.061,-82.338 -1.763,-16.14 -0.95,-32.838 -0.848,-49.049 12.526,16.829 31.878,49.24 50.06,59.264 4.109,2.265 8.583,3.187 13.181,1.781 19.048,-5.822 42.107,-49.741 50.958,-66.969 z"
       id="path175" /><path
       fill="#3d3d3d"
       transform="scale(0.666992,0.666667)"
       d="m 129.883,53.845 c 9.799,-1.4195 29.01,-1.1834 39.003,-0.5115 23.932,-0.0274 48.126,0.666 72.031,-0.1332 l 2.467,-0.0255 92.885,0.1348 5.928,-0.1268 c 1.15,3.1692 2.06,6.1638 2.278,9.5437 1.331,20.7201 -0.069,42.2135 -0.103,63.0005 l 0.068,115.79 c 15.96,5.076 31.749,10.737 47.649,16.01 10.152,3.367 21.195,6.217 30.949,10.548 2.566,1.139 5.846,2.679 7.357,5.128 -1.247,4.469 -32.847,40.07 -37.229,42.549 -4.606,2.604 -9.724,0.566 -14.336,-0.906 l -2.911,-0.944 c -0.289,8.742 1.668,36.097 -4.205,41.593 -1.692,1.584 -3.875,2.637 -5.969,3.575 -4.913,-1.537 -9.738,-3.129 -14.527,-5.028 q -0.391,37.974 0.042,75.947 c 18.272,-12.927 35.621,-26.95 53.692,-40.107 26.04,-18.96 52.66,-37.069 78.128,-56.817 1.98,-1.535 5.053,-3.745 6.419,-5.863 1.324,-2.055 0.003,-4.311 2.462,-6.192 2.44,-1.867 5.43,-0.453 8.018,-1.464 7.107,-2.778 11.353,-11.428 19.407,-12.09 1.93,0.724 2.002,0.809 3.079,2.57 0.215,2.848 -0.002,5.003 -1.9,7.268 -1.553,1.855 -3.73,3.304 -5.667,4.733 l 0.102,0.905 c 0.28,2.579 0.332,4.423 -0.453,6.934 -1.183,1.275 -1.17,1.439 -2.964,1.533 -2.584,0.134 -4.488,-0.81 -6.853,0.705 -3.502,4.044 -2.495,11.029 -2.138,15.981 5.497,76.22 38.213,212.944 92.623,268.257 -6.657,-2.989 -12.43,-6.157 -17.805,-11.226 -18.589,-17.533 -34.854,-56.167 -43.863,-79.872 -12.441,-32.737 -22.473,-67.852 -28.016,-102.426 q -3.215,-21.389 -6.101,-42.825 c -1.04,-7.757 -1.684,-15.792 -3.36,-23.434 -4.26,15.553 -8.189,31.396 -13.868,46.503 -14.807,39.388 -42.312,84.065 -79.781,105.48 -15.868,9.07 -32.665,13.289 -50.697,8.303 l -0.583,-0.167 c 4.182,26.044 11.724,59.684 34.35,76.329 7.452,5.483 16.838,9.003 26.151,7.576 4.543,-0.696 8.529,-3.138 12.511,-5.3 -2.757,3.063 -5.838,6.002 -6.611,10.216 l -1.817,-0.439 -0.735,-0.871 c -1.898,0.409 -3.807,0.78 -5.679,1.298 -7.795,2.153 -16.852,-0.423 -23.706,-4.31 -20.733,-11.758 -28.366,-39.742 -34.307,-61.085 -1.419,19.367 -0.932,39.298 -0.958,58.729 l -0.155,94.36 -0.43,316.809 c 11.819,3.06 23.72,5.97 34.955,10.84 -11.693,-1.53 -23.425,-2.91 -35.095,-4.58 -0.03,8.48 -1.292,45.46 0.703,50.49 l 1.466,0.02 0.735,0.29 c -0.262,0.09 -0.543,0.14 -0.786,0.28 -2.607,1.43 -1.964,5.92 -1.841,8.5 1.451,30.69 0.103,61.8 0.089,92.54 -0.013,26.62 0.128,53.19 -0.299,79.82 -0.195,12.16 1.034,27.44 -2.381,39.06 -3.524,-12.92 -2.556,-32.72 -3.023,-46.41 -0.122,0.05 -0.246,0.11 -0.367,0.17 -0.548,0.26 -1.079,0.53 -1.677,0.67 -6.993,1.71 -120.524,-12.02 -125.431,-15.15 17.346,-0.56 34.196,0 51.476,1.36 5.442,0.43 16.884,2.76 21.584,0.97 -3.717,-18.39 -1.994,-33.5 0.057,-51.9 -0.662,0.25 -1.156,0.46 -1.876,0.49 -10.94,0.47 -88.139,-11.36 -99.337,-15.07 -2.135,-0.71 -3.815,-2.18 -5.448,-3.67 0.837,0.36 1.678,0.69 2.554,0.94 3.98,1.13 32.873,1.1 35.824,-0.6 -4.552,-19.06 -2.729,-44.72 0.958,-63.82 3.583,21.92 4.385,42.81 3.048,64.94 0.405,0.29 0.398,0.3 0.892,0.59 0.469,0.27 114.904,17.21 117.458,16.6 l -0.428,-78.78 c -0.853,0.44 -1.673,0.71 -2.633,0.83 -5.839,0.72 -19.667,-2.2 -26.354,-3.03 -22.124,-2.73 -121.961,-13.88 -133.004,-22.8 10.468,3.2 30.179,2.5 41.917,3.62 24.519,2.33 49.246,5.49 73.57,9.35 8.772,1.39 41.774,9.26 46.571,7.6 q -0.05,-140.732 -1.623,-281.456 L 341.776,351.002 C 308.092,338.232 268.229,328.463 233.195,318.296 L 48.0596,263.234 c -0.0829,6.068 -0.1947,12.089 -0.6893,18.141 -1.0312,-10.87 0.2056,-22.14 0.0392,-33.081 Q 46.5024,192.805 47.7404,137.323 47.2409,110.958 47.8679,84.5958 C 47.566,81.4286 47.8661,78.0223 47.9254,74.831 L 47.8257,53.2284 98.7516,53.0542 C 108.855,53.028 119.921,52.1811 129.883,53.845 Z"
       id="path176" /><path
       fill="#fdfdfd"
       transform="scale(0.666992,0.666667)"
       d="m 486.605,339.576 c 0.464,1.816 0.318,4.682 -0.041,6.554 -0.764,3.984 -17.357,13.424 -21.312,16.348 -16.449,12.163 -32.5,24.871 -49.225,36.663 -21.215,14.958 -43.225,29.046 -63.801,44.875 -0.212,-1.526 -0.628,-3.37 -0.374,-4.896 0.049,-0.293 0.295,-1.141 0.411,-1.337 1.265,-2.141 120.094,-87.633 134.342,-98.207 z"
       id="path177" /><path
       fill="#fdfdfd"
       transform="scale(0.666992,0.666667)"
       d="m 290.928,1177.42 c 0.324,0.12 0.917,0.37 1.286,0.47 6.94,1.97 47.766,7.04 51.964,4.52 0.057,6.6 1.188,50.34 -0.966,52.7 -0.8,0.31 -1.381,0.53 -2.244,0.62 -5.014,0.48 -46.163,-4.63 -49.069,-6.82 2.714,-16.92 1.124,-34.62 -0.971,-51.49 z"
       id="path180" /><path
       fill="#fdfdfd"
       transform="scale(0.666992,0.666667)"
       d="m 228.714,152.347 c 18.548,7.839 37.622,14.229 56.6,20.919 l 47.457,17.153 0.341,47.158 c -10.65,-4.377 -22.096,-7.438 -33.022,-11.162 q -35.611,-12.121 -70.999,-24.882 c -0.418,-16.38 -0.304,-32.8 -0.377,-49.186 z"
       id="path182" /><path
       fill="#fdfdfd"
       transform="scale(0.666992,0.666667)"
       d="m 485.785,356.113 c 0.26,0.898 0.333,1.795 0.228,2.724 -0.88,7.751 -3.815,15.881 -6.017,23.339 -12.67,42.929 -35.972,85.109 -71.88,112.941 -17.569,13.618 -33.394,18.018 -55.525,15.222 l -1.111,-0.799 c -1.984,-9.552 -0.446,-44.053 -0.38,-55.809 12.245,-8.168 24.024,-16.979 36.018,-25.504 13.507,-9.601 27.378,-18.713 40.756,-28.491 19.501,-14.254 38.495,-29.242 57.911,-43.623 z"
       id="path184" /><path
       fill="#fdfdfd"
       transform="scale(0.666992,0.666667)"
       d="m 48.2523,206.383 c 11.7853,2.654 23.5613,6.824 35.0538,10.529 l 64.8299,21.343 q 109.013,35.11 217.345,72.264 c 0.265,9.707 0.044,19.426 -0.075,29.134 -26.428,-9.658 -54.27,-16.937 -81.141,-25.378 L 47.919,241.844 c -0.056,-11.704 -0.6306,-23.813 0.3333,-35.461 z"
       id="path185" /><path
       fill="#fdfdfd"
       transform="scale(0.666992,0.666667)"
       d="m 48.0355,148.45 c 38.9343,12.918 77.5625,27.328 116.2275,41.07 l 92.223,31.793 79.544,27.399 c 26.192,8.818 52.535,17.308 78.244,27.478 q -7.907,8.014 -15.251,16.546 l -10.987,12.715 C 371.712,300.796 355.644,294.9 339.558,289.488 l -80.177,-26.64 C 188.928,239.829 117.928,218.033 48.0028,193.47 Q 47.74,170.96 48.0355,148.45 Z"
       id="path187" /></g><g
     id="g4"
     transform="translate(-169.12241,236.70107)"
     inkscape:label="counter"><path
       style="fill:none;fill-opacity:0.200737;stroke:#000000;stroke-width:8.4304;stroke-linecap:round;stroke-miterlimit:0;stroke-dasharray:none;stroke-opacity:0.498188"
       id="path1"
       sodipodi:type="arc"
       sodipodi:cx="-21.022015"
       sodipodi:cy="-949.93604"
       sodipodi:rx="102.64899"
       sodipodi:ry="102.64888"
       sodipodi:start="0.027304543"
       sodipodi:end="5.1136159"
       sodipodi:open="true"
       sodipodi:arc-type="arc"
       d="m 81.58871,-947.1336 a 102.64899,102.64888 0 0 1 -75.0417164,96.07498 102.64899,102.64888 0 0 1 -113.9265036,-43.38696 102.64899,102.64888 0 0 1 7.876682,-121.65362 102.64899,102.64888 0 0 1 118.570182,-28.3336"
       transform="matrix(-0.68061959,0.732637,-0.73262788,-0.68062941,0,0)" /><path
       id="path4-2"
       style="fill:#000000;fill-opacity:0.496377;stroke:none;stroke-width:6.07288;stroke-linecap:round;stroke-miterlimit:0;stroke-dasharray:none;stroke-opacity:0.198895"
       inkscape:transform-center-x="9.5449744"
       inkscape:transform-center-y="15.596181"
       d="m 653.79347,712.30156 74.14112,-22.61538 55.6704,-22.02467 -39.40142,57.07434 33.2101,54.22914 -63.65982,-33.68198 z"
       sodipodi:nodetypes="ccccccc" /><text
       xml:space="preserve"
       style="font-style:italic;font-variant:normal;font-weight:normal;font-stretch:normal;font-size:53.3334px;font-family:Caladea;-inkscape-font-specification:'Caladea, Italic';font-variant-ligatures:normal;font-variant-caps:normal;font-variant-numeric:normal;font-variant-east-asian:normal;fill:#000000;fill-opacity:1;stroke-width:3.64524;stroke-opacity:0.297101"
       x="-798.69348"
       y="-612.79541"
       id="text1-4"
       transform="scale(-1)"><tspan
         sodipodi:role="line"
         id="tspan2"
         x="-798.69348"
         y="-612.79541"
         style="font-style:italic;font-variant:normal;font-weight:normal;font-stretch:normal;font-size:53.3334px;font-family:Caladea;-inkscape-font-specification:'Caladea, Italic';font-variant-ligatures:normal;font-variant-caps:normal;font-variant-numeric:normal;font-variant-east-asian:normal;fill:#000000;fill-opacity:1;stroke-width:3.64524">Counter</tspan></text></g><g
     id="g2"
     transform="matrix(0.36132972,0.31372825,-0.27102114,0.41826752,-713.03503,254.8324)"
     inkscape:label="strong"><path
       fill="#020102"
       d="m 1770.674,-1516.7 c 18.4951,-14.6121 36.8892,-29.3481 55.182,-44.2076 9.7874,-7.8768 19.4568,-16.3799 29.6115,-23.7278 2.229,-1.613 4.8313,-3.5232 7.4361,-4.2816 6.3619,-1.8524 43.8335,-5.1601 50.405,-4.3956 2.3559,0.2738 4.1948,0.7016 5.8596,2.2374 8.5817,7.9156 18.4033,24.3118 25.5502,34.4618 l 38.6394,54.1679 c 4.2729,6.124 8.3029,14.0804 5.9723,22.3448 -0.9878,3.5072 -4.3515,6.7862 -7.0603,9.3896 -5.0156,4.8193 -10.6631,9.2181 -16.0224,13.6775 -11.1669,9.2409 -22.4019,18.3998 -33.7053,27.4765 -10.9474,8.8826 -21.6278,18.9248 -33.2238,26.8959 1.2288,3.1877 2.2787,5.9786 1.9435,9.6488 -0.3146,3.4309 -1.791,6.7201 -4.134,9.5724 -4.794,5.8343 -12.4674,10.5219 -18.4657,15.2028 -6.1634,4.8333 -12.0594,9.3273 -17.9103,14.5225 12.1068,13.2922 14.3002,16.8887 24.4261,29.5539 l 55.7658,72.807 140.4323,193.4886 68.7907,90.64759 c 25.4267,35.10195 34.4293,47.24942 60.2392,87.17106 l -13.2418,24.39422 c -14.8911,17.27697 -20.3352,21.18374 -47.769,27.37713 l -26.7681,-16.96301 c -9.9593,-11.4078 -80.3454,-97.86921 -90.3528,-111.23917 l -62.007,-80.68852 -94.8767,-126.1651 -60.1991,-88.0583 c -7.5856,-10.9086 -20.4465,-31.2263 -30.7804,-38.5755 -3.5187,2.8492 -6.9626,6.0975 -10.9721,8.226 -10.6089,5.6304 -20.4674,5.4646 -32.0006,13.1733 -8.6002,5.7476 -16.6671,13.1122 -24.7332,19.6418 -19.3164,15.6369 -38.3196,31.6661 -57.7796,47.1234 -8.2864,6.5829 -11.9533,14.4997 -34.7488,26.0792 -16.298,-2.4114 -23.7638,-3.6092 -57.8115,-29.4438 -28.0752,-32.2072 -24.0031,-32.5663 -29.4805,-40.2932 -9.1532,-19.8655 -19.1705,-37.9027 -17.0282,-59.9471 0.4354,-3.4312 1.5595,-6.8354 3.9565,-9.7031 7.0968,-8.4896 18.2416,-15.6954 26.8829,-22.7736 l 51.6436,-42.0373 c 9.2525,-7.4925 18.8616,-14.7647 27.7827,-22.6299 1.6709,-5.6243 3.7072,-11.7827 7.9592,-16.4384 8.1846,-8.9597 25.0397,-20.9756 35.1154,-29.3965 l 50.451,-42.0066 c 8.7749,-7.2867 17.3365,-15.058 26.5629,-21.7757 6.2026,-4.5151 13.6017,-5.1465 20.4633,-4.5337 z"
       id="path2"
       sodipodi:nodetypes="ccccccccccccccccccccccccccccccccscccccccccccccc"
       style="fill:#020102;fill-opacity:0.5;stroke-width:1.10937" /><path
       fill="#fef796"
       d="m 1889.3732,-1590.0055 q 10.9565,-1.1076 21.8802,-1.6272 c -7.2302,6.2675 -15.1769,11.9295 -22.5662,18.0626 q -33.6867,28.4248 -67.7471,56.4152 c -8.1055,-6.4393 -17.4723,-4.1035 -27.9052,-2.8466 -5.6217,0.5131 -10.1171,3.8078 -14.6357,7.2127 l -5.9417,-3.1135 c 15.531,-12.663 31.3289,-25 46.9277,-37.5816 8.4952,-6.851 34.362,-29.3693 42.2431,-32.9502 6.03,-2.7406 20.6821,-2.7732 27.7449,-3.5714 z"
       id="path3"
       style="fill:#ffffff;fill-opacity:1;stroke-width:1.10937" /><path
       fill="#fef796"
       d="m 1791.1763,-1518.6116 c 6.1365,-0.8343 12.4495,-0.9893 18.5864,-1.412 -13.472,11.296 -27.2691,22.1428 -40.8291,33.3196 l -78.9371,65.1784 c -2.8739,2.3579 -16.9031,15.2416 -18.6635,16.08 -2.5732,1.2254 -10.3186,0.2484 -13.3868,0.2279 -8.5093,-0.056 -17.2034,0.3494 -25.7995,1.6296 1.5968,-4.8094 3.5701,-9.9636 7.1009,-13.982 8.1092,-9.2306 20.0371,-17.1039 29.6153,-25.0073 l 61.8483,-51.4026 c 8.2179,-6.4883 17.4139,-16.9609 27.5385,-19.9918 2.4393,-0.7303 5.2105,-0.7927 7.684,-0.9909 -28.6716,23.2435 -57.4375,46.7658 -85.3984,70.8188 -9.1734,7.8902 -19.5487,15.1971 -27.7269,24.0619 5.1492,1.4915 9.7289,1.8908 15.3045,1.7756 q 47.9152,-38.2699 94.8147,-77.7432 c 7.4197,-6.1663 13.9564,-13.5793 21.4845,-19.5105 2.008,-1.5819 4.4144,-2.2765 6.7642,-3.0519 z"
       id="path4-6-6"
       style="fill:#ffffff;fill-opacity:1;stroke-width:1.10937" /><path
       fill="#fef796"
       d="m 1638.3888,-1403.2607 c 10.1897,-0.9645 23.2527,-2.3832 32.8337,-0.3264 0.6918,0.8206 1.0199,1.3271 0.8976,2.5565 -0.1144,1.1442 -1.0328,2.4004 -1.8766,3.2499 -3.1621,3.1855 -7.4329,5.9923 -10.9222,8.908 -9.3271,7.7948 -18.5439,15.6281 -28.0117,23.267 l -65.2497,53.4809 -4.5103,-1.1606 c -12.2811,-3.7049 -22.5398,-4.3127 -35.9576,-1.3431 0.2349,-0.2715 0.4655,-0.5449 0.7036,-0.8123 5.3059,-5.9445 12.7704,-10.966 19.0306,-16.0168 l 31.6478,-25.6982 37.7127,-30.6301 c 5.5136,-4.4715 11.1622,-9.7748 16.9963,-13.7763 1.893,-1.2976 4.5441,-1.4031 6.7058,-1.6985 z"
       id="path5-3"
       style="fill:#ffffff;fill-opacity:1;stroke-width:1.10937" /><path
       fill="#a13be1"
       d="m 1529.9865,-1314.4138 c 11.9663,-1.7592 26.2865,-0.9173 36.2378,4.489 15.4197,8.3759 47.516,57.0151 58.8615,73.4057 5.9422,8.5839 12.7339,17.0204 17.6942,26.2261 1.9029,3.5326 3.011,6.9018 3.6936,10.9414 -2.2664,7.0604 -6.7669,10.8148 -12.6234,15.4345 -1.9645,1.2707 -3.9344,2.5884 -6.139,3.335 -8.9902,3.0453 -19.8605,-1.4514 -27.0629,-5.1641 -36.264,-18.6955 -69.5562,-64.876 -77.6481,-104.4754 -1.1568,-5.6614 -3.3661,-15.2995 0.6882,-20.9251 1.6121,-2.237 3.8455,-2.6413 6.2981,-3.2671 z"
       id="path6-5"
       style="fill:#ffffff;fill-opacity:1;stroke-width:1.10937" /><path
       fill="#fd898a"
       d="m 1858.4186,-1351.3047 c 17.8564,19.1723 34.8963,46.6621 48.8485,65.8186 5.6317,7.731 16.6024,19.8362 20.4397,27.8713 l 169.0413,230.5944 c 1.3684,1.9994 2.8776,3.9712 4.0917,6.0685 4.0868,4.5313 8.363,10.071 11.6903,15.1911 7.3884,8.42107 13.6754,17.68115 20.3772,26.63754 10.1865,13.43688 20.268,26.95186 30.2446,40.54495 10.752,14.41151 21.7254,28.60125 31.9383,43.41146 3.7708,5.47036 8.2614,11.1623 11.0787,17.22001 -0.756,1.58978 -1.478,3.54546 -2.503,4.99417 -4.8262,8.55531 -10.906,16.65982 -18.9063,22.89953 -2.037,1.67605 -8.3266,7.63335 -10.8766,7.52824 -0.1305,-0.006 -0.2487,-0.0599 -0.3732,-0.0887 -0.2482,0.83697 -0.8624,1.35996 -1.451,2.03983 -1.6344,0.59238 -2.1074,0.46234 -3.6185,-0.12382 -0.2024,-0.078 -0.3997,-0.1652 -0.5995,-0.24781 l 0.2746,1.46871 c -0.5831,1.01611 -1.1481,1.26448 -2.122,1.91829 -1.9323,0.55739 -3.0994,0.0901 -4.8571,-0.43556 -0.9579,-0.28646 -0.4565,-0.32657 -1.4273,0.048 l 0.5638,1.2632 c -1.8716,1.1322 -5.795,0.68934 -7.8996,0.72476 -1.2236,-2.14015 -2.3092,-4.16871 -4.1058,-5.89278 l 2.9544,5.59494 c -0.8437,-0.19579 -1.6794,-0.41055 -2.507,-0.64431 -7.2239,-2.06945 -20.154,-11.65075 -23.3725,-19.02129 -107.2762,-127.62037 -141.5119,-176.73576 -320.5899,-421.46726 -1.8911,-2.0643 -14.2369,-16.224 -13.8467,-19.2689 l 28.4156,-23.5942 z"
       id="path36-3"
       style="fill:#ffffff;fill-opacity:1;stroke-width:1.10937"
       sodipodi:nodetypes="cccccccccccccccccccsccccccccccc" /><text
       xml:space="preserve"
       style="font-style:italic;font-variant:normal;font-weight:normal;font-stretch:normal;font-size:15.6502px;font-family:Caladea;-inkscape-font-specification:'Caladea, Italic';font-variant-ligatures:normal;font-variant-caps:normal;font-variant-numeric:normal;font-variant-east-asian:normal;fill:#000000;fill-opacity:1;stroke-width:1.19947;stroke-opacity:0.297101"
       x="-129.00671"
       y="93.014259"
       id="text1-23"
       transform="matrix(-4.3796374,-5.4790903,5.4761154,-4.3775461,1024.9868,-1306.9535)"><tspan
         sodipodi:role="line"
         id="tspan1-3"
         x="-129.00671"
         y="93.014259"
         style="font-style:italic;font-variant:normal;font-weight:normal;font-stretch:normal;font-size:15.6502px;font-family:Caladea;-inkscape-font-specification:'Caladea, Italic';font-variant-ligatures:normal;font-variant-caps:normal;font-variant-numeric:normal;font-variant-east-asian:normal;fill:#000000;fill-opacity:1;stroke-width:1.19947">Strong</tspan></text></g><g
     inkscape:label="suit2"
     id="layer1-7"
     transform="matrix(-5.3037294,0,0,-5.3037294,765.37477,953.58493)"><path
       style="fill:#d80000;fill-opacity:1;stroke-width:0.703264"
       id="path1-3-1"
       sodipodi:type="arc"
       sodipodi:cx="11.377838"
       sodipodi:cy="10.259499"
       sodipodi:rx="7.4725904"
       sodipodi:ry="7.8478684"
       sodipodi:start="0.027304543"
       sodipodi:end="6.2831853"
       sodipodi:open="true"
       sodipodi:arc-type="arc"
       d="m 18.847643,10.473754 a 7.4725904,7.8478684 0 0 1 -7.622821,7.631968 7.4725904,7.8478684 0 0 1 -7.3188779,-7.953361 7.4725904,7.8478684 0 0 1 7.5229029,-7.740548 7.4725904,7.8478684 0 0 1 7.421582,7.847686" /><path
       style="fill:#ffffff;fill-opacity:1;stroke-width:0.672438"
       id="path1-6-8"
       sodipodi:type="arc"
       sodipodi:cx="11.372044"
       sodipodi:cy="10.102311"
       sodipodi:rx="7.136076"
       sodipodi:ry="7.5133352"
       sodipodi:start="0.027304543"
       sodipodi:end="6.2831853"
       sodipodi:open="true"
       sodipodi:arc-type="arc"
       d="M 18.50546,10.307434 A 7.136076,7.5133352 0 0 1 11.225918,17.614071 7.136076,7.5133352 0 0 1 4.2366327,9.9997403 7.136076,7.5133352 0 0 1 11.420755,2.589151 a 7.136076,7.5133352 0 0 1 7.087365,7.51316" /><rect
       style="fill:#cc0400;fill-opacity:1;stroke-width:0.824827"
       id="rect1-0-4"
       width="8.7777615"
       height="8.9696789"
       x="12.185754"
       y="-9.2068987"
       transform="matrix(0.52984252,0.84809605,-0.54411321,0.83901181,0,0)" /><path
       id="path3-6-9"
       style="fill:#ffffff;stroke-width:0.83953"
       d="M 16.175024,10.166982 11.405527,10.712513 6.6360343,10.166982 11.405527,10.057878 Z"
       sodipodi:nodetypes="ccccc" /><path
       id="path4-6"
       style="fill:#ffffff;stroke-width:0.475382"
       inkscape:transform-center-x="0.00030024449"
       inkscape:transform-center-y="0.43628623"
       d="m 11.218489,10.244916 0.191795,-8.063479 0.197269,7.988175 z" /></g><g
     inkscape:label="suit1"
     id="layer1"
     transform="matrix(5.3037294,0,0,5.3037294,60.612537,171.97072)"><path
       style="fill:#d80000;fill-opacity:1;stroke-width:0.232652"
       id="path1-3"
       sodipodi:type="arc"
       sodipodi:cx="2.9299388"
       sodipodi:cy="3.1140828"
       sodipodi:rx="2.4720631"
       sodipodi:ry="2.5962114"
       sodipodi:start="0.027304543"
       sodipodi:end="6.2831853"
       sodipodi:open="true"
       sodipodi:arc-type="arc"
       d="M 5.4010804,3.1849624 A 2.4720631,2.5962114 0 0 1 2.8793184,5.7097499 2.4720631,2.5962114 0 0 1 0.4581061,3.0786397 2.4720631,2.5962114 0 0 1 2.9468133,0.51793187 2.4720631,2.5962114 0 0 1 5.4020019,3.1140828"
       transform="matrix(3.0228156,0,0,3.0228156,2.602725,1.5506251)" /><path
       style="fill:#ffffff;fill-opacity:1;stroke-width:0.222454"
       id="path1-6"
       sodipodi:type="arc"
       sodipodi:cx="2.928021"
       sodipodi:cy="3.0620804"
       sodipodi:rx="2.360738"
       sodipodi:ry="2.4855421"
       sodipodi:start="0.027304543"
       sodipodi:end="6.2831853"
       sodipodi:open="true"
       sodipodi:arc-type="arc"
       d="M 5.287879,3.1299385 A 2.360738,2.4855421 0 0 1 2.8796802,5.5471013 2.360738,2.4855421 0 0 1 0.56750291,3.0281482 2.360738,2.4855421 0 0 1 2.9441355,0.57659623 2.360738,2.4855421 0 0 1 5.288759,3.0620804"
       transform="matrix(3.0228156,0,0,3.0228156,2.602725,1.5506251)" /><rect
       style="fill:#cc0400;fill-opacity:1;stroke-width:0.272867"
       id="rect1-0"
       width="2.9038363"
       height="2.9673259"
       x="3.0907626"
       y="-2.4287744"
       transform="matrix(1.6016162,2.563638,-1.6447539,2.536178,2.602725,1.5506251)" /><path
       id="path3-6"
       style="fill:#ffffff;stroke-width:0.277731"
       d="M 4.5169308,3.0834755 2.9390985,3.2639464 1.3612668,3.0834755 2.9390985,3.0473815 Z"
       sodipodi:nodetypes="ccccc"
       transform="matrix(3.0228156,0,0,3.0228156,2.602725,1.5506251)" /><path
       id="path4"
       style="fill:#ffffff;stroke-width:0.157265"
       inkscape:transform-center-x="-0.00030167401"
       inkscape:transform-center-y="-0.43628615"
       d="m 2.8772231,3.1092569 0.063449,-2.66753913 0.06526,2.64262783 z"
       transform="matrix(3.0228156,0,0,3.0228156,2.602725,1.5506251)" /></g><text
     xml:space="preserve"
     style="font-style:italic;font-variant:normal;font-weight:normal;font-stretch:normal;font-size:53.3334px;font-family:Caladea;-inkscape-font-specification:'Caladea, Italic';font-variant-ligatures:normal;font-variant-caps:normal;font-variant-numeric:normal;font-variant-east-asian:normal;text-align:start;writing-mode:lr-tb;direction:ltr;text-anchor:start;fill:#000000;fill-opacity:0.601148;stroke:#000000;stroke-width:1.28882;stroke-opacity:0.498188"
     x="370.96487"
     y="-687.3877"
     id="text1-8"
     transform="rotate(90)"
     inkscape:label="name2"><tspan
       sodipodi:role="line"
       id="tspan3"
       x="370.96487"
       y="-687.3877">King of Coins</tspan></text><text
     xml:space="preserve"
     style="font-style:italic;font-variant:normal;font-weight:normal;font-stretch:normal;font-size:53.3334px;font-family:Caladea;-inkscape-font-specification:'Caladea, Italic';font-variant-ligatures:normal;font-variant-caps:normal;font-variant-numeric:normal;font-variant-east-asian:normal;text-align:start;writing-mode:lr-tb;direction:ltr;text-anchor:start;fill:#000000;fill-opacity:0.601148;stroke:#000000;stroke-width:1.28882;stroke-opacity:0.498188"
     x="-629.61407"
     y="134.31506"
     id="text1-8-1"
     transform="rotate(-90)"
     inkscape:label="name1"><tspan
       sodipodi:role="line"
       id="tspan6"
       x="-629.61407"
       y="134.31506">Judgement</tspan></text><text
     xml:space="preserve"
     style="font-style:italic;font-variant:normal;font-weight:normal;font-stretch:normal;font-size:96.0002px;font-family:Caladea;-inkscape-font-specification:'Caladea, Italic';font-variant-ligatures:normal;font-variant-caps:normal;font-variant-numeric:normal;font-variant-east-asian:normal;text-align:start;writing-mode:lr-tb;direction:ltr;text-anchor:start;fill:#cc0400;fill-opacity:1;stroke:none;stroke-width:1.289;stroke-dasharray:none;stroke-opacity:0.498188"
     x="-733.18628"
     y="-962.96686"
     id="text1-5"
     transform="scale(-1)"
     inkscape:label="rank2"><tspan
       sodipodi:role="line"
       id="tspan5"
       x="-733.18628"
       y="-962.96686">K</tspan></text><text
     xml:space="preserve"
     style="font-style:italic;font-variant:normal;font-weight:normal;font-stretch:normal;font-size:96.0001px;font-family:Caladea;-inkscape-font-specification:'Caladea, Italic';font-variant-ligatures:normal;font-variant-caps:normal;font-variant-numeric:normal;font-variant-east-asian:normal;text-align:start;writing-mode:lr-tb;direction:ltr;text-anchor:start;fill:#cc0400;fill-opacity:1;stroke:none;stroke-width:1.28882;stroke-opacity:0.498188"
     x="92.926743"
     y="159.10373"
     id="text1"
     inkscape:label="rank1"><tspan
       sodipodi:role="line"
       id="tspan1"
       x="92.926743"
       y="159.10373">K</tspan></text></svg>
